<?xml version="1.0" encoding="UTF-8" standalone="no"?>
<!-- Generator: Adobe Illustrator 12.0.0, SVG Export Plug-In . SVG Version: 6.00 Build 51448)  -->

<svg
   xmlns:dc="http://purl.org/dc/elements/1.1/"
   xmlns:cc="http://creativecommons.org/ns#"
   xmlns:rdf="http://www.w3.org/1999/02/22-rdf-syntax-ns#"
   xmlns:svg="http://www.w3.org/2000/svg"
   xmlns="http://www.w3.org/2000/svg"
   xmlns:sodipodi="http://sodipodi.sourceforge.net/DTD/sodipodi-0.dtd"
   xmlns:inkscape="http://www.inkscape.org/namespaces/inkscape"
   version="1.1"
   id="Layer_1"
   width="100"
   height="100"
   viewBox="0 0 100 99.999996"
   overflow="visible"
   enable-background="new 0 0 499.524 554.546"
   xml:space="preserve"
   inkscape:version="0.91 r13725"
   sodipodi:docname="apple.svg"
   style="overflow:visible"><metadata
     id="metadata25"><rdf:RDF><cc:Work
         rdf:about=""><dc:format>image/svg+xml</dc:format><dc:type
           rdf:resource="http://purl.org/dc/dcmitype/StillImage" /><dc:title></dc:title></cc:Work></rdf:RDF></metadata><defs
     id="defs23" /><sodipodi:namedview
     pagecolor="#ffffff"
     bordercolor="#666666"
     borderopacity="1"
     objecttolerance="10"
     gridtolerance="10"
     guidetolerance="10"
     inkscape:pageopacity="0"
     inkscape:pageshadow="2"
     inkscape:window-width="1366"
     inkscape:window-height="706"
     id="namedview21"
     showgrid="false"
     showguides="true"
     inkscape:guide-bbox="true"
     inkscape:zoom="2.6471269"
     inkscape:cx="47.062173"
     inkscape:cy="52.431754"
     inkscape:window-x="-8"
     inkscape:window-y="-8"
     inkscape:window-maximized="1"
     inkscape:current-layer="Layer_1" /><g
     id="g3349"
     transform="matrix(0.1770419,0,0,0.1770419,6.2784222,1.4261942)"><path
       stroke-miterlimit="2.6131"
       d="m 28.987206,199.7257 c 0.16383,-0.27056 0.337529,-0.53715 0.511228,-0.79879 28.075115,-43.40744 72.361496,-68.81326 114.007846,-68.81326 42.40727,0 69.06516,23.34442 104.11883,23.34442 34.01247,0 54.72906,-23.37812 103.75762,-23.37812 37.04333,0 76.31809,20.25628 104.29254,55.28232 -7.73455,4.25363 -14.71212,9.08306 -20.94852,14.39118 l -405.739544,-0.0277 0,0 z"
       id="path5"
       inkscape:connector-curvature="0"
       style="clip-rule:evenodd;fill:#61bb46;fill-rule:evenodd;stroke:#61bb46;stroke-width:2.95204043;stroke-miterlimit:2.61310005" /><path
       stroke-miterlimit="2.6131"
       d="M 314.19335,90.969749 C 331.98962,68.01779 345.52631,35.610127 340.62029,2.4760176 311.52371,4.4789499 277.4915,23.081147 257.6138,47.296707 c -18.03708,21.998559 -32.92783,54.624253 -27.13062,86.316373 31.76622,0.99205 64.62694,-18.05513 83.71017,-42.643331 l 0,0 z"
       id="path7"
       inkscape:connector-curvature="0"
       style="clip-rule:evenodd;fill:#61bb46;fill-rule:evenodd;stroke:#61bb46;stroke-width:2.95204043;stroke-miterlimit:2.61310005" /><path
       stroke-miterlimit="2.6131"
       d="m 27.538934,199.08608 c -12.090475,19.0213 -20.4561492,46.2843 -22.6761741,70.19718 l 392.2413601,-0.0101 c 4.24099,-26.16153 18.34267,-51.15586 40.69396,-70.15816 l -410.259146,-0.0289 0.02315,0 z"
       id="path9"
       style="clip-rule:evenodd;fill:#fdb827;fill-rule:evenodd;stroke:none;stroke-miterlimit:2.61310005"
       inkscape:connector-curvature="0"
       sodipodi:nodetypes="ccccccc" /><path
       stroke-miterlimit="2.6131"
       d="M 8.4245798,338.85665 C 4.6130673,314.43297 3.9962379,290.88638 6.390523,269.28424 l 389.185817,-0.01 c -3.80658,23.42668 -0.61189,47.80576 9.01657,69.59719 l -396.1683302,-0.0149 0,0 z"
       id="path11"
       inkscape:connector-curvature="0"
       style="clip-rule:evenodd;fill:#f5821f;fill-rule:evenodd;stroke:#f5821f;stroke-width:2.95204043;stroke-miterlimit:2.61310005" /><path
       stroke-miterlimit="2.6131"
       d="M 27.444639,408.42411 C 18.254374,385.05095 11.961727,361.57571 8.4245798,338.85665 l 396.1683302,0.0149 c 12.26454,27.76752 34.96189,51.35772 66.92155,63.48037 -0.94942,2.11988 -1.86529,4.14758 -2.74662,6.10195 l -441.323201,-0.0297 0,0 z"
       id="path13"
       inkscape:connector-curvature="0"
       style="clip-rule:evenodd;fill:#e03a3e;fill-rule:evenodd;stroke:#e03a3e;stroke-width:2.95204043;stroke-miterlimit:2.61310005" /><path
       stroke-miterlimit="2.6131"
       d="m 468.76686,408.45285 c -10.97266,24.22448 -17.3334,36.79707 -32.51826,60.00571 -2.04294,3.11689 -4.15398,6.30513 -6.35187,9.5231 l -365.683135,0.0337 c -1.171483,-1.7522 -2.332109,-3.5034 -3.47497,-5.24073 C 47.066723,451.86426 35.998336,430.18482 27.444639,408.42312 l 441.322221,0.0297 0,0 z"
       id="path15"
       inkscape:connector-curvature="0"
       style="clip-rule:evenodd;fill:#963d97;fill-rule:evenodd;stroke:#963d97;stroke-width:2.95204043;stroke-miterlimit:2.61310005" /><path
       stroke-miterlimit="2.6131"
       d="m 429.89673,477.98166 c -22.36969,32.90617 -52.40188,69.11752 -88.84318,69.46141 -35.55898,0.32408 -44.68115,-23.23738 -92.92412,-22.97178 -48.24297,0.27056 -58.31456,23.38307 -93.87354,23.04909 -38.01742,-0.35282 -67.538383,-35.91602 -90.042295,-69.50502 l 365.683135,-0.0337 0,0 z"
       id="path19"
       inkscape:connector-curvature="0"
       style="clip-rule:evenodd;fill:#009ddc;fill-rule:evenodd;stroke:#009ddc;stroke-width:2.95204043;stroke-miterlimit:2.61310005" /></g></svg>