<?xml version="1.0" encoding="UTF-8" standalone="no"?>
<!-- Generated by IcoMoon.io -->

<svg
   xmlns:dc="http://purl.org/dc/elements/1.1/"
   xmlns:cc="http://creativecommons.org/ns#"
   xmlns:rdf="http://www.w3.org/1999/02/22-rdf-syntax-ns#"
   xmlns:svg="http://www.w3.org/2000/svg"
   xmlns="http://www.w3.org/2000/svg"
   xmlns:sodipodi="http://sodipodi.sourceforge.net/DTD/sodipodi-0.dtd"
   xmlns:inkscape="http://www.inkscape.org/namespaces/inkscape"
   version="1.1"
   width="3209.9092"
   height="1900.7316"
   viewBox="0 0 641.98184 380.14631"
   id="svg9"
   sodipodi:docname="edgeos.svg"
   inkscape:version="0.92.3 (2405546, 2018-03-11)">
  <metadata
     id="metadata15">
    <rdf:RDF>
      <cc:Work
         rdf:about="">
        <dc:format>image/svg+xml</dc:format>
        <dc:type
           rdf:resource="http://purl.org/dc/dcmitype/StillImage" />
        <dc:title></dc:title>
      </cc:Work>
    </rdf:RDF>
  </metadata>
  <defs
     id="defs13" />
  <sodipodi:namedview
     pagecolor="#ffffff"
     bordercolor="#666666"
     borderopacity="1"
     objecttolerance="10"
     gridtolerance="10"
     guidetolerance="10"
     inkscape:pageopacity="0"
     inkscape:pageshadow="2"
     inkscape:window-width="2560"
     inkscape:window-height="1514"
     id="namedview11"
     showgrid="false"
     fit-margin-top="0"
     fit-margin-left="0"
     fit-margin-right="0"
     fit-margin-bottom="0"
     viewbox-width="200"
     viewbox-height="100"
     inkscape:zoom="0.23046875"
     inkscape:cx="359.78183"
     inkscape:cy="1650.7853"
     inkscape:window-x="0"
     inkscape:window-y="28"
     inkscape:window-maximized="1"
     inkscape:current-layer="svg9" />
  <g
     id="icomoon-ignore"
     transform="translate(-0.2181721,-262.05368)" />
  <path
     d="m 288.18183,156.94632 c 3.2,-19.6 10.4,-45.6 26.6,-67.999995 21.8,-29.8 58.2,-55.6 129.4,-55.4 l 7.2,-33.40000012 c -83.8,-2.59999998 -135.8,29.80000012 -163.6,69.20000012 -21.8,30.6 -30,63.999995 -33.2,87.399995 z m 60.6,0 c 2.8,-9.8 7.2,-20.4 14,-29.8 12.4,-16.8 31.6,-31.599995 69,-34.599995 l 7.2,-34 c -51.4,1.4 -85,22.8 -103.2,48.999995 -12,16.8 -18,34.4 -21.2,49.2 z m -34.6,0 h 34.6 z"
     id="path3"
     inkscape:connector-curvature="0"
     style="fill:#4a4a4a" />
  <path
     d="m 417.58183,156.74632 7.4,-34 c -20.8,1.6 -33,11 -41.2,23 -3,4.2 -4.8,7 -6.6,11 z m 224.4,0 h -36 l 7.6,-34 c 0,0.2 27.8,6.4 28.4,34 z m -560.800002,-33.8 -38.4,181 c -6.8,31.8 2.8,46 27.2,46 24,0 40.000002,-14.2 46.800002,-46 l 38.6,-181 h 40.2 l -37.8,177.8 c -12.4,58.4 -46,79.4 -94.000002,79.4 -48.4,0 -73.0000001,-21.2 -60.6000001,-79.4 l 37.8000001,-177.8 z m 130.200002,62.4 h 36.2 l -4.6,22.2 h 1 c 13.2,-17 33.4,-27.2 54.6,-27.2 29,0 44.6,13.2 36.4,51.6 l -30.4,143.6 h -38.2 l 27.6,-130.4 c 5.2,-24.8 0,-34.4 -19.2,-34.4 -15.6,0 -33,12.4 -38.2,37.2 l -27.2,127.6 h -38 z m 162.2,0 h 38.2 l -40.4,190.2 h -38.2 z m 81.6,-62.4 h 128.8 l -7.4,34 h -88.4 l -14.8,70 h 88.6 l -7,34 h -88.6 l -24.4,114.6 h -40.4 z m 145,62.4 h 38.2 l -40.4,190.2 h -38.2 z"
     id="path5"
     inkscape:connector-curvature="0"
     style="fill:#4a4a4a" />
</svg>
