<?xml version="1.0" encoding="utf-8"?>
<!-- Generator: Adobe Illustrator 20.0.0, SVG Export Plug-In . SVG Version: 6.00 Build 0)  -->
<svg version="1.1" id="Layer_1" xmlns="http://www.w3.org/2000/svg" xmlns:xlink="http://www.w3.org/1999/xlink" x="0px" y="0px"
	 viewBox="0 0 1005.9 315.3" style="enable-background:new 0 0 1005.9 315.3;" xml:space="preserve">
<style type="text/css">
	.st0{fill:#FEFEFE;}
	.st1{fill:#CACACA;}
	.st2{fill:#9E9E9E;}
	.st3{fill:#F8F8F8;}
	.st4{fill:#BCBDBD;}
	.st5{fill:#080808;}
	.st6{fill:#353535;}
	.st7{fill:#CDCDCD;}
	.st8{fill:#8A8A8A;}
	.st9{fill:#AEAEAE;}
	.st10{fill:#818181;}
	.st11{fill:#B8B8B8;}
	.st12{fill:#3F3F3F;}
	.st13{fill:#606060;}
	.st14{fill:#999999;}
	.st15{fill:#A1A1A1;}
	.st16{fill:#929292;}
	.st17{fill:#1E1E1E;}
	.st18{fill:#747474;}
	.st19{fill:#A2A2A2;}
	.st20{fill:#7F7F7F;}
	.st21{fill:#898989;}
	.st22{fill:#4F4F4F;}
	.st23{fill:#727272;}
	.st24{fill:#919191;}
	.st25{fill:#484848;}
	.st26{fill:#575757;}
	.st27{fill:#7D7D7D;}
	.st28{fill:#8B8B8B;}
	.st29{fill:#FEFEFD;}
	.st30{fill:#FDFDFD;}
	.st31{fill:#FCFCFC;}
	.st32{fill:#F7F7F7;}
	.st33{fill:#FBFBFB;}
	.st34{fill:#646464;}
	.st35{fill:#ECECEC;}
	.st36{fill:#EDEDED;}
	.st37{fill:#A96D03;}
	.st38{fill:#E6E6E6;}
	.st39{fill:#D8D8D8;}
	.st40{fill:#212121;}
	.st41{fill:#9F9F9E;}
	.st42{fill:#F1F1F1;}
	.st43{fill:#6F6F6F;}
	.st44{fill:#AA6E04;}
	.st45{fill:#323232;}
	.st46{fill:#C38B03;}
	.st47{fill:#E9E9E9;}
	.st48{fill:#4D4D4D;}
	.st49{fill:#4C4C4C;}
	.st50{fill:#A4A4A4;}
	.st51{fill:#6B6B6B;}
	.st52{fill:#8C8C8C;}
	.st53{fill:#F0F0F0;}
	.st54{fill:#B7B7B7;}
	.st55{fill:#767676;}
	.st56{fill:#B6B6B6;}
	.st57{fill:#8F8F8F;}
	.st58{fill:#2F2F2F;}
	.st59{fill:#949494;}
	.st60{fill:#BD8722;}
	.st61{fill:#7C7C7C;}
	.st62{fill:#A66E17;}
	.st63{fill:#656565;}
	.st64{fill:#EEEEEE;}
	.st65{fill:#A0A0A0;}
	.st66{fill:#918B81;}
	.st67{fill:#414141;}
	.st68{fill:#6D6D6D;}
	.st69{fill:#292929;}
	.st70{fill:#040404;}
	.st71{fill:#848484;}
	.st72{fill:#3E3E3E;}
	.st73{fill:#626262;}
	.st74{fill:#F9F9F9;}
	.st75{fill:#777777;}
	.st76{fill:#787878;}
	.st77{fill:#060606;}
	.st78{fill:#282828;}
	.st79{fill:#444444;}
	.st80{fill:#232323;}
	.st81{fill:#FAFAFA;}
	.st82{fill:#969696;}
	.st83{fill:#9A9A9A;}
	.st84{fill:#666666;}
	.st85{fill:#0F0F0F;}
	.st86{fill:#272727;}
	.st87{fill:#A3A3A3;}
	.st88{fill:#ADADAD;}
	.st89{fill:#ACACAC;}
	.st90{fill:#BF8A1C;}
	.st91{fill:#A9A9A9;}
	.st92{fill:#C5C5C5;}
	.st93{fill:#151515;}
	.st94{fill:#393939;}
	.st95{fill:#828282;}
	.st96{fill:#B1B1B1;}
	.st97{fill:#E7E7E7;}
	.st98{fill:#EBEBEB;}
	.st99{fill:#DEDEDE;}
	.st100{fill:#C9C9C9;}
	.st101{fill:#C0C0C0;}
	.st102{fill:#D1D1D1;}
	.st103{fill:#C1C1C1;}
	.st104{fill:#CCCCCC;}
	.st105{fill:#BDBDBD;}
	.st106{fill:#B9B9B9;}
	.st107{fill:#E4E4E4;}
	.st108{fill:#D5D5D5;}
	.st109{fill:#BEBEBE;}
	.st110{fill:#525252;}
	.st111{fill:#505050;}
	.st112{fill:#959595;}
	.st113{fill:#4B4B4B;}
	.st114{fill:#D7D7D7;}
	.st115{fill:#171717;}
	.st116{fill:#3D3D3D;}
	.st117{fill:#CFCFCF;}
	.st118{fill:#BABABA;}
	.st119{fill:#6A6A6A;}
	.st120{fill:#FECB00;}
	.st121{fill:#CF9B15;}
	.st122{fill:#B4B4B4;}
	.st123{fill:#CC8E00;}
	.st124{fill:#BE8300;}
	.st125{fill:#DFDFDF;}
	.st126{fill:#C3C3C3;}
	.st127{fill:#E0E0E0;}
	.st128{fill:#B5B5B5;}
	.st129{fill:#8B8B8A;}
	.st130{fill:#C2C2C1;}
	.st131{fill:#DBA502;}
	.st132{fill:#7B7A78;}
	.st133{fill:#BD8304;}
	.st134{fill:#BC8202;}
	.st135{fill:#A7A7A7;}
	.st136{fill:#683500;}
	.st137{fill:#ABABAB;}
	.st138{fill:#2B2B2B;}
	.st139{fill:#595959;}
	.st140{fill:#9F9F9F;}
	.st141{fill:#868686;}
	.st142{fill:#757575;}
	.st143{fill:#FECC10;}
	.st144{fill:#FECF2F;}
	.st145{fill:#FECE24;}
	.st146{fill:#FECD16;}
	.st147{fill:#A46600;}
	.st148{fill:#AB6E00;}
	.st149{fill:#909090;}
	.st150{fill:#616161;}
	.st151{fill:#FECF30;}
	.st152{fill:#2E2E38;}
	.st153{fill:url(#SVGID_1_);}
	.st154{fill:url(#SVGID_2_);}
	.st155{fill:url(#SVGID_3_);}
</style>
<path d="M32.2,305.2c-3.2,0.4-6.1-0.7-9-1.6c-6.3-2.1-12.3-4.9-17.4-9.3c-0.3-0.2-0.5-0.4-0.8-0.7c-5.8-5.4-6.5-10.4-1.9-16.9
	c4.4-6.3,10.3-11,16.6-15.3c14.3-9.9,30.1-16.5,46.5-21.6c3.7-1.1,7.5-2,11.4-1.5c0.9,0.1,1.2-0.2,1.6-0.8c2.4-3.9,3.8-8.1,3.5-12.9
	c-1.1-14.9-2.7-29.8-1.8-44.8c0.4-7.4,1.7-14.5,6.4-20.6c4.7-6.2,11.5-9.2,18.7-11c13.2-3.4,25.2-0.4,36.1,7.6
	c6.1,4.5,9.5,10.8,11.9,17.7c2.7,7.7,3.8,15.5,3.2,23.7c-0.7,9.9,2.3,19.2,5.9,28.3c1.2,3,2.7,5.9,4.1,8.9c0.3,0.8-0.4,1-0.9,1.4
	c-0.4,0.2-0.8,0.3-1.1,0.4c-1,0.4-2.2,0.5-2.3,1.9c-0.1,1.3,0.8,1.9,1.7,2.5c0.6,0.3,1.2,0.5,1.8,0.7c5.4,0.3,10.8,0.2,16.2,0
	c0.8-0.3,1.6-0.5,2.3-0.9c0.6-0.3,1.1-0.7,1.5-1.2c0.1-0.2,0.3-0.3,0.5-0.5c0.4-0.3,0.7-0.6,1.1-0.8c3.5-3,6.2-6.5,7.9-10.9
	c3.3-8.5,6.5-17.1,11.3-25c1.7-2,2.6-4.6,4.7-6.3c1.6-1.8,2.6-3.8,2.7-6.1c0.8-2.7,0.3-5.3-0.1-8c-0.1-1.9-0.4-3.8-0.8-5.6
	c-0.2-0.7-0.2-1.4-0.2-2c0-1.3,0-2.7,0-4c0-0.4,0.1-0.8,0.2-1.2c0.1-0.3,0.2-0.5,0.3-0.7c0.6-1.1,1.4-1.8,2.8-1.2
	c5,4.4,8,10.1,9.9,16.3c5.4,17.6,1.5,33.2-11,46.6c-9.3,10-19.1,19.6-31.1,26.7c-1.5,0.9-0.7,1.6-0.1,2.4
	c6.1,8.9,11.1,18.4,14.8,28.5c2.9,8.1,5.1,16.3,4.2,25.1c-0.1,1-0.3,2-0.4,3c-12.3,0-24.6,0-36.9,0c-1.1-1.3-0.7-2.9-0.7-4.4
	c0-10-0.9-19.8-3.6-29.4c-1.3-5.1-3.9-9.6-6.2-14.3c-1.1-2.3-2.4-4.6-3.5-7c-1.2-3.4-2.7-6.6-3.6-10.1c-1-5.1-3-9.7-5.8-14.1
	c-2.6-4.1-3.9-8.7-5.4-13.2c-0.1-0.5-0.1-1,0-1.6c0.2-1.4,0.8-2.7,1-4.1c0.4-3-0.6-5.4-3.1-7.1c-0.1-0.2-0.1-0.5-0.1-0.8
	c1.5-2.1,2.9-4.3,3.4-6.9c0.8-5.1,0.1-10-2.8-14.3c-0.5-1-1.1-2.1-1.9-3c-0.4-0.4-0.8-1-1.4-0.2c-0.2,0.4-0.5,0.7-1,0.8
	c-1,0.2-1.5-1.1-2.5-0.9c0.3,2,1.8,2.3,3.4,2.6c0.7,0.6,0.7,1.4,0.7,2.2c0,0.5-0.1,1-0.2,1.5c-1,3.4-3.5,5.6-6.6,5.7
	c-2.7,0.1-5.5-2.2-6.6-5.3c-0.4-1-0.5-2.1-0.5-3.2c0-0.6,0-1.3,0.1-1.9c-0.1-0.1,0.1-0.7-0.1-0.5c-1.7,2-3,4.2-3.6,6.9
	c-0.1,2.3-0.3,4.7,0.1,7c0.1,0.8,0.1,1.5-0.4,2.1c-2.7,0.6-5.5-0.4-8.2,0.2c-1.1,0.2-2.2,0.5-3.1-0.4c-0.8-1.2-0.5-2.6-0.5-3.9
	c0-4.9,0-4.9-2.4-9.2c0.4,2.6-0.1,5.2-1.3,7.5c-1.1,2.1-2.7,3.5-5.2,3.4c-2.3,0-3.9-1.4-5-3.3c-0.7-1.2-1.2-2.6-1.3-4
	c0-0.9,0.2-1.8,0.2-2.7c0.2-0.5,0.4-1,0.5-1.5c0,0,0.2-0.1,0-0.2c-0.1,0.4-0.1,0.8-0.3,1.1c-0.8,4.1-0.8,8.2-0.3,12.3
	c0.9,2.9,1.9,5.8,3.4,8.5c0.2,1.3-0.8,1.9-1.6,2.6c-2.2,1.9-3.4,4.2-2.7,7.2c0.3,1.8,1.6,3.2,1.6,5c0,4.8,0.1,9.6,0,14.5
	c-0.1,1.3-0.8,2.3-1.6,3.3c-2.1,2.6-4.2,5.1-5.7,8.1c-0.7,1.3-1.4,2.7-2,4c-0.2,0.4-0.4,0.8-0.6,1.2c-0.9,1.6-1.3,3.4-1.9,5.1
	c-0.4,0.9-0.7,1.9-1,2.8c-0.1,0.2-0.1,0.4-0.2,0.6c-0.2,0.5-0.2,1.1-0.3,1.6c-0.3,1.3-0.7,2.5-1.1,3.7c-1.5,3.9-3.5,7.6-5.5,11.2
	c-1,1.7-1.8,3.6-2.7,5.3c-0.5,0.9-0.8,1.9-2,2c-0.6,0-1.2-0.2-1.7-0.5c-0.9-0.5-1.9-0.8-2.9-0.9c-0.2-0.1-0.4-0.1-0.6-0.2
	c-0.7-0.6-1.5-1-2.3-1.1c-0.8-0.2-1.6-0.4-2.4-0.6c-0.9-0.3-1.8-0.6-2.7-1.1c-2.1-0.5-4-1.4-6.2-1.3c-0.8,0-1.6,0-2.3,0
	c-0.8,0-1.6,0-2.3-0.1c-0.3-0.1-0.5-0.2-0.7-0.3c-0.2-0.2-0.3-0.4-0.3-0.7c0.4-0.8,1.3-1,2-1.5c0.6-0.3,1.2-0.8,1.8-1.1
	c2.4-0.9,4.7-2.2,7.1-3.1c0.4-0.2,0.9-0.3,1.3-0.4c0.5-0.2,1.1-0.3,1.6-0.5c1-0.3,1.9-0.8,2.9-1.1c0.2-0.1,0.5-0.1,0.7-0.1
	c1.1,0,2-0.7,3-0.9c2.8-0.2,4.8-1.6,6.2-4c1-1.8,2.1-3.4,3-5.2c0.9-1.5,1.6-3.2,2.2-4.9c1.1-1.5,2-3.1,2.9-4.7
	c0.8-1.1,1.5-2.3,1.9-3.6c0.2-0.6,0.5-1.1,0.8-1.6c0.8-0.8,1.3-1.8,1.6-2.8c1-2.9-0.4-4.5-3.5-4.1c-0.8,0.2-1.6,0.2-2.4,0.5
	c-0.5,0.2-1.1,0.3-1.6,0.5c-0.6,0.2-1.3,0.3-2,0.5c-0.5,0.2-1.1,0.3-1.6,0.5s-1.1,0.3-1.6,0.5c-1,0.3-1.9,0.6-2.9,1
	c-0.9,0.2-1.7,0.6-2.5,1c-0.5,0.2-1.1,0.4-1.6,0.6c-8.8,3.6-16.9,8.5-24.4,14.3c-1,0.8-1.9,1.6-2.8,2.5c-0.2,0.2-0.5,0.5-0.8,0.6
	c-0.5,0.3-1.1,0.7-1.5,1.1c-0.6,0.6-1.2,1.2-1.8,1.7c-0.2,0.2-0.4,0.4-0.7,0.6c-0.2,0.2-0.4,0.4-0.6,0.6s-0.4,0.4-0.6,0.6
	c-0.3,0.3-0.6,0.6-0.9,0.9c-0.4,0.4-0.7,0.8-1,1.2c-0.4,2.4,1.3,4,2.5,5.7s3.3,2.6,4.3,4.4c0.9,2.4,2.5,4.1,5.2,4.2
	c1.7,0.4,3.4,0.1,5.1,0.3c0.2,0,0.5,0.1,0.7,0.2c0.8,0.3,1.6,0.3,2.4,0.5c0.2,0.1,0.4,0.1,0.7,0.2c1.2,0.7,2.5,0.5,3.8,0.7
	c0.9,0.3,1.9,0.3,2.9,0.5c1,0.3,2,0.2,3,0.3c5.1,1.7,9.4,4.3,12.2,9c1,1.6,2.5,2.9,2.7,5c0.1,1,0.4,2-0.7,2.7
	c-1.1,0.6-1.9,0.2-2.7-0.5c-2.8-2.5-6.1-4.1-9.7-5.2c-6-1.7-11.7-1.1-17,2.4C36.9,302.9,34.7,304.3,32.2,305.2z"/>
<path class="st0" d="M86.7,242.1c0.5-0.9,1-1.7,1.5-2.6c0.2-0.2,0.4-0.3,0.5-0.5c0.2-0.3,0.3-0.6,0.5-0.8c2.1-2.7,3.4-2.8,5.4-0.1
	c0.3,0.4,0.6,0.8,0.9,1.2c0.7,1.1,1.6,2.1,2.3,3.3c4.1,6.6,6.6,7.7,13.9,2.9c5.5-3.6,9.9-8.5,15.2-12.4c2-1.5,4.1-2.8,6.8-2.8
	c2.2,0,4.1,0.5,5.6,2.2c1.1,1,1.8,2.3,2.9,3.2c3.2,4.3,5,9.3,6.6,14.4c1.2,3.3,2.4,6.7,3.5,10c1.5,4.4,4,8.4,6,12.5
	c0.3,0.7,1.4,1.5,0.4,2.4c-0.2,0.1-0.5,0.1-0.7,0.1c-1.1-0.5-1.4-1.7-2-2.6c-2-3.6-4.6-6.8-7.1-10c-0.6-0.8-1.3-1.4-1.7-2.3
	c-0.7-1.4-1.9-1.9-3.3-1.8c-5.8,0.2-11.5,1.4-17,3.3c-0.5,0.2-1.3,0.3-1.2,1.1c0.1,0.7,0.8,0.7,1.4,1c2,0.8,4.1,1.4,6.2,1.9
	c8.7,2.2,16.5,6,23,12.3c0.5,0.4,0.9,0.8,1.4,1.2c1.4,1.5,2.1,0.3,2.9-0.8c0.9,0.8,0.7,2,1.4,2.7c2.2,5.5,2.7,11.4,3.4,17.2
	c0.7,5.7,0.2,11.4,0.5,17.1c-22.6,0-45.1,0-67.7,0c-1.3-2.4-0.7-4.9-0.5-7.4c0.4-3.8,0.2-7.7,0.6-11.5c-1.2,5-1.7,10.1-1.9,15.2
	c0,1.2,0.2,2.5-0.7,3.6c-6.4,0-12.8,0-19.2,0c-0.3-0.3-0.5-0.7-0.4-1.1c1-4.9-0.5-9.3-2.6-13.5c-0.4-0.7-0.6-1.4-0.6-2.2
	c-0.5-3.4-2.7-5.5-5.2-7.4c-1-0.8-2.3-1.4-2.6-2.9c0.9-2.7,2.2-5.2,3.6-7.6c1.4-2.2,2.5-4.7,4-6.9c2.8-3.8,6.2-6.8,10.9-8
	c1.7-0.4,1.7-1.4,0.3-2.4c-2.9-2.2-4.5-4.9-3.9-8.7c0.2-0.8,0.4-1.6,0.6-2.4c0.1-0.2,0.2-0.4,0.3-0.7
	C82.5,248,84.9,245.2,86.7,242.1z"/>
<path d="M47.8,315.3c0-4.6,0.4-9.1,0.9-13.7c0.1-0.1,0.2-0.2,0.3-0.3c1.5-0.6,3-0.4,4.5-0.2c0.9,0.3,1.8,0.4,2.7,0.5
	c0.3,0,0.5,0.1,0.7,0.2c1,0.6,2,1.1,3.1,1.6c1.1,0.8,1.1,1.9,1.2,3.1c-0.2,2.9,0.7,6.1-1.2,8.8C55.9,315.3,51.9,315.3,47.8,315.3z"
	/>
<path class="st1" d="M74.1,300.2c2.6,4.7,4,9.7,2.5,15.1c-3.2,0-6.4,0-9.6,0c-2.5-1.1-4.6-2.6-6-5c0.1-1.7-0.5-3.5,0.4-5.2
	c1.1-0.7,2.1-0.1,3,0.5c1.9,1.1,3.5,2.5,5.4,3.6c0.2,0.1,0.3,0.3,0.4,0.5c0.4,0.5,0.8,0.7,1.2,0c0.3-0.5,0.7-0.9,1.1-1.3
	c1.5-1.8,0.7-4,0.9-6.1C73.4,301.7,73.4,300.8,74.1,300.2z"/>
<path class="st2" d="M95.8,315.3c-0.1-7,0.5-14,2.4-21.2c1.3,1.7,1.1,3.2,1,4.6c-0.4,5.5-0.8,11.1-0.9,16.6
	C97.5,315.3,96.6,315.3,95.8,315.3z"/>
<path class="st3" d="M61.5,310.8c1.9,1.5,3.7,3,5.6,4.5c-2,0-4,0-6.1,0c-0.5-0.5-0.5-1.1-0.4-1.8c0.5-0.8,0.2-1.7,0.6-2.5
	C61.3,310.9,61.4,310.8,61.5,310.8z"/>
<path class="st4" d="M61,313.3c0,0.7,0,1.3,0,2c-0.3,0-0.7,0-1,0c0.2-3,0.4-6,0.5-9c0.5-0.4-0.3-2.7,1.6-1.1
	c-1.3,1.8-0.3,3.8-0.6,5.6l0,0C60.8,311.5,61.5,312.5,61,313.3z"/>
<path class="st5" d="M32.2,305.2c4.3-2.8,8.2-6.3,13.5-7.3c4.8-0.9,9.3-0.6,13.8,1.6c2.6,1.2,5,2.4,7.1,4.4c0.5,0.5,1,0.8,1.8,0.3
	c0.8-0.4,0.6-1,0.5-1.7c-0.8-3.8-3.2-6.8-6-9.3c-2.4-2.2-5.2-4-8.4-4.8c-0.9-0.7-2.1,0.1-3-0.5c-1,0-2.1,0.1-3-0.5
	c-1.3-0.5-2.8-0.2-4-1l0,0c-0.8-0.6-1.8,0.1-2.5-0.5l0,0c-0.1-0.3,0-0.5,0.2-0.7c0.7-0.4,1.4-0.5,2.2-0.3c3.9,0.7,7.7,1.6,11.5,2.3
	c4,0.8,7,3.5,9.7,6.4c2.2,2.2,4,4.7,4.8,7.8c0.2,0.8,0.4,1.6,0.4,2.5c-0.1,2.4-1.6,3.4-3.7,2.2c-1.3-0.7-2.5-1.4-3.8-2
	c-0.9-0.5-1.7-1-2.5-1.7c-0.8-0.6-1.7-1-2.4-1.6c-5.9-2.3-11.8-2.6-17.4,0.9c-1.3,0.9-2.8,1.3-4.1,2.2
	C35.2,304.5,33.8,305.5,32.2,305.2z"/>
<path class="st6" d="M61,302.1c0.7,0.5,1.4,1,2,1.5c1.8,1,3.5,2.2,5.3,3.2c1.3,0.7,2,0.2,2.2-1.2c0.2-1.2-0.4-2.5,0.5-3.6
	c0.3-0.1,0.5,0,0.7,0.2c0.3,0.5,0.4,1,0.5,1.6c0,1.3,0.1,2.6,0,3.9c-0.3,1.1-0.4,2.5-2.2,2c-2.2-0.5-3.6-2.4-5.5-3.4
	c-0.8-0.4-1.6-0.8-2.4-1.2c-1.7-1.2-1,0.9-1.6,1.1c-0.3-0.9,0.2-2.1-1.1-2.6c-0.7-0.8-1.7-1-2.6-1.5c-0.2,0-0.3,0-0.5-0.1
	c-0.8-0.4-1.6-0.4-2.4-0.7c-2.4-0.5-4.7-0.3-7.1-0.2c-0.4,0.1-0.7,0.2-1,0.4c-2.1,0.3-3.9,1.6-6.1,1.5c0-1.2,1.2-1.2,1.8-1.8
	c0.4-0.3,0.8-0.6,1.3-0.6c1-0.2,1.9-0.7,2.8-1c3.4-1.1,6.7-0.4,10.1,0.3c0.8,0.2,1.6,0.6,2.4,0.5C58.9,301.4,59.9,301.8,61,302.1z"
	/>
<path class="st7" d="M210,172.4c-0.1-1.9,0.1-3.6,1.4-5.1c1.1,0.1,2.8-1.5,2.8,1.2l-0.1-0.1c-2.1,1.5-2,3.5-1.6,5.8
	c0.5,2.6,0.9,5.3,0.8,7.9c-0.1,1.6,0.4,3.1,0.7,4.7c0.4,1.8,0.9,3.9-1.5,5c-0.3,0-0.5-0.1-0.7-0.3c0.8-2.2,0.2-4.3-0.8-6.2
	c-0.4-2.7,0.1-5.5-0.3-8.2c-0.1-0.3-0.1-0.5-0.1-0.8C210.3,174.8,210.8,173.5,210,172.4z"/>
<path class="st8" d="M207.4,190.9c0.7-2,1.4-4,2.1-6c2.3-0.3,2.3,1.8,2.8,3.1c0.6,1.4-0.4,2.6-1.5,3.4c-0.5,0.4-1.2,0.5-1.9,0.6
	C208.2,192,207.3,192.1,207.4,190.9z"/>
<path class="st9" d="M209,191.5c1.2-0.6,3-0.6,3-2.6c0-1.8-0.9-3.1-2.5-4c0-0.5,0-1,0-1.5c0.6-1.1-0.1-2.4,0.4-3.6
	c0-1.8,0-3.6,0.1-5.5c1.3-0.1,0.3,1.2,1,1.5c0,0.2,0,0.3,0,0.5c0.5,2.1,0.2,4.1,0,6.2c-0.1,1,0.1,2,0.5,2.9c1.4,1.7,2.3,3.5,0.5,5.6
	c-0.7,1.1-1.7,1.9-3.1,1.5C208.7,192.2,208.7,191.8,209,191.5z"/>
<path class="st10" d="M183.7,222.8c2.4-3.7,4.7-7.4,7.1-11.2c0.2,0.2,0.4,0.4,0.4,0.6c-1.6,4.4-3.5,8.6-7.1,11.8
	C183.4,223.8,183.3,223.3,183.7,222.8z"/>
<path class="st11" d="M204.4,194.6c0.5-0.5,0.4-1.5,1.4-1.6c0.7-0.5,1.4-1.2,2.5-0.7c0.5,0.3,0.4,0.7,0.1,1
	c-2.6,2.5-5.1,5.2-7.8,7.6c-0.3,0.3-0.7,0.4-1.2,0.3c-0.6-1,0.1-1.6,0.7-2.2C201.5,197.5,202.9,196.1,204.4,194.6z"/>
<path class="st12" d="M165.9,235.4c0.4-0.4,0.8-0.7,1.1-1.1c2.7-0.8,5-2.4,7.5-3.6c0.3,0.3,0.4,0.6,0.3,1c-1,1.6-2.7,2.1-4.2,3.1
	c-0.9,0.5-1.9,0.9-2.9,1.1C167.1,236.1,166.4,236.1,165.9,235.4z"/>
<path class="st13" d="M177,229.3c1-0.8,2.1-1.6,3.1-2.5c0.6-0.2,0.9,0.1,1.2,0.5c-0.1,1.6-1.6,2.3-2.5,3.4c-0.5,0.4-1,0.6-1.6,0.4
	C176.5,230.6,177,229.9,177,229.3z"/>
<path class="st14" d="M200.4,199.1c-0.3,0.7-1.1,1.1-1,2c0.4,0.8-0.3,1.2-0.8,1.7c-0.4,0.3-0.8,0.5-1.3,0.4
	c-0.3-0.2-0.5-0.4-0.6-0.8c0.7-1.6,1.9-2.8,3.1-4C200.3,198.4,200.5,198.6,200.4,199.1z"/>
<path class="st15" d="M200.4,199.1c-0.2-0.2-0.4-0.4-0.6-0.6c1.4-1.4,2.5-3.3,4.6-3.9C203.7,196.7,201.9,197.8,200.4,199.1z"/>
<path class="st16" d="M214.2,168.4c-0.3-2-2.2-0.1-2.8-1.2c1.6-1.9,3.3-1.6,5.2-0.5C215,166.3,214.8,167.6,214.2,168.4z"/>
<path class="st17" d="M41.8,301.6c-0.7,0.5-1.3,1-2,1.5c-1,0.3-2,0.6-3,1c0.8-1.4,2.3-1.7,3.5-2.5C40.7,301.3,41.2,301.3,41.8,301.6
	z"/>
<path class="st18" d="M181.2,227.4c-0.4-0.2-0.7-0.3-1.1-0.5c0.6-1,1.2-1.9,2.5-2.1c0.2-0.2,0.5-0.2,0.7,0
	C183.6,226.5,182.8,227.3,181.2,227.4z"/>
<path class="st19" d="M208.5,192.6c-0.9,0.2-1.8,0.3-2.7,0.5c0.2-0.9,0.9-1.5,1.6-2.1c0.4,0.6,1,0.6,1.6,0.6c0,0.3,0,0.7,0,1
	C208.8,192.7,208.6,192.7,208.5,192.6z"/>
<path class="st20" d="M193.8,206.7c0.5-1.1,1.2-2.1,2-3c0.5-0.2,0.6,0.1,0.8,0.5c-0.1,1.4-0.8,2.5-2,3.2
	C194.1,207.3,193.9,207.1,193.8,206.7z"/>
<path class="st21" d="M191.7,210.2c0.3-1,0.8-1.9,1.6-2.6c0.4,0.1,0.6,0.4,0.8,0.7c-0.1,1.1-0.5,1.9-1.7,2.2
	C192,210.5,191.8,210.4,191.7,210.2z"/>
<path class="st11" d="M211,175.9c-0.3-0.5-0.7-1-1-1.5c0-0.7,0-1.3,0-2C211.5,173.2,210.8,174.7,211,175.9z"/>
<path class="st22" d="M177,229.3c0.8,0.5,0,1.1,0.2,1.6c0.1,0.6-0.3,0.7-0.7,0.7c-0.2,0-0.4-0.1-0.5-0.3c-0.3-0.3-0.5-0.7-0.5-1.1
	C175.9,229.9,176.2,229.2,177,229.3z"/>
<path class="st23" d="M191.7,210.2c0.2,0,0.4,0,0.6,0.1c0.5,1.4,0.2,2.2-1.5,2.2c0-0.3-0.1-0.5-0.1-0.8
	C191,211.1,191.3,210.6,191.7,210.2z"/>
<path class="st24" d="M183.3,224.9c-0.2,0-0.5,0-0.7,0c0.1-0.8,0.2-1.6,1-2.1c0,0.4,0.1,0.8,0.5,1.1
	C184.4,224.6,184,224.9,183.3,224.9z"/>
<path class="st25" d="M175.4,230.3c0.5,0.2,0.7,0.6,0.7,1c-0.3,0.6-0.8,0.9-1.5,0.6c0-0.4,0-0.7,0-1.1
	C174.7,230.4,175.1,230.3,175.4,230.3z"/>
<path class="st11" d="M209.9,179.8c-0.1,1.2,0.5,2.5-0.4,3.6C209.6,182.2,209.2,181,209.9,179.8z"/>
<path class="st26" d="M45.8,301.6c0.2-0.2,0.3-0.3,0.5-0.5c1-0.1,2.1-0.9,2.7,0.6h-0.1l-0.1-0.1C47.8,301.5,46.8,302,45.8,301.6z"/>
<path class="st27" d="M193.8,208.2c-0.2-0.2-0.4-0.4-0.6-0.6c0.2-0.3,0.4-0.6,0.6-0.9c0.2,0.2,0.4,0.4,0.5,0.6
	C194.5,207.8,194.2,208,193.8,208.2z"/>
<path class="st28" d="M196.4,204.2c-0.2-0.2-0.4-0.4-0.6-0.6c0.3-0.4,0.6-0.7,0.9-1.1c0.2,0.2,0.4,0.4,0.7,0.6
	C197.3,203.8,197.1,204.3,196.4,204.2z"/>
<path class="st0" d="M31.1,263.1c8.2-7.4,17.5-13.1,27.8-17.1c1,0.5,2.1,0.5,3.2,0.2c2.3-0.5,4.7,0,6.9,0.4c1.5,0.3,2.2,1.4,1.5,3
	c-1.1,2.3-2.1,4.7-3.7,6.8c-0.8,1-1.4,2.1-1.7,3.3c-0.1,0.4-0.2,0.7-0.5,1c-1.9,1.5-4.2,2.4-6.2,3.8c-2.3,1.2-5,1.9-7,3.7
	c-1.1,1-2.7,0.9-3.9,1.6c-2.3,1.2-4.6,2.4-6.8,3.7c-2.6,1.4-4.8,0.7-7.1-0.4c-0.7-0.4-1.4-0.9-2.1-1.3c-2.1-1.3-2.6-2.7-1.8-5.1
	C30.1,265.6,30.8,264.4,31.1,263.1z"/>
<path class="st29" d="M138.8,202.7c-0.4,2.7-1.5,5.1-3.6,6.9c-1.1,0.5-2.1,0-3.1-0.2c-1.9-0.7-3.8-1.3-5.8-1.6
	c-1.4-0.4-2.8-0.9-4.1-1.6c-0.7-0.5-1.4-0.8-2.2-1.1c-1.2-0.8-2.5-1.5-3.7-2.2c-0.3-0.3-0.5-0.6-0.6-1c-0.1-2.7-0.9-5.4-0.3-8.2
	c0.4-1.8,1-3.4,2.1-4.7c0.5-0.6,1-1.4,2-0.8c0.1,0.8,0.2,1.7,0.4,2.5c1,3.7,3.4,5.8,6.4,5.6c3-0.2,5.2-2.7,5.9-6.5
	c0.3-0.5,0.1-1.2,0.4-1.7c0.2-0.1,0.5-0.1,0.7,0c1.9,2,4,3.8,5,6.5C139.3,197.1,139.1,199.9,138.8,202.7z"/>
<path class="st30" d="M207.4,202.2c-4.8,8.1-7.9,16.9-11.5,25.6c-1.8,4.3-4.3,8.1-8.1,10.8c-1.5-0.1-3.5,0.7-4.2-1.1
	c-0.7-1.7,1.2-2.4,2.2-3.2c4.1-3.4,5.4-7.8,5.3-12.9c0-0.7,0-1.5,0.1-2.2c1.9-4.9,5-9.1,8.1-13.2c1.5-2.1,4-3.3,6.3-4.5
	C206.2,201,207.6,200.2,207.4,202.2z"/>
<path class="st31" d="M91.5,209.9c-2.2-2.3-2.9-5.3-3.7-8.3c-0.6-3.1-0.2-6.2-0.2-9.3c0-1,0.6-1,1.2-0.2c0.4,1.8,0.9,3.6,2.2,5
	c2.1,2.3,5.1,2.3,7.2,0c2.3-2.7,2.2-5.9,2-9.1c0-0.4-0.1-0.7-0.2-1.3c4.4,4.2,4.6,9.3,3.8,14.7c-0.5,1.2-1.8,1.4-2.5,2.3
	c-1.7,1.4-3.6,2.5-5.3,3.9C94.3,207.9,93.5,210,91.5,209.9z"/>
<path class="st32" d="M207.4,202.2c-0.3-1.4-1.4-0.6-1.7-0.3c-3,2.1-6.2,3.9-8.2,7.5c-1.8,3.2-3.9,6.3-5.8,9.5c-1,2.9-1.6,6-2.7,8.9
	c-1.3,3.5-3.5,6.1-6.9,7.6c-1.4,0.6-2.2,2-4.2,2.4c2.9,0.6,5.4,0,7.7,0.6c0.5,0.1,1.3-0.2,1.1,0.8c0,0.2,0,0.3-0.2,0.4
	c-4.6,1.5-9.3,0-14,0.1c-0.7,0-1.6-0.1-1.7-1.1c-0.1-0.9,0.7-1.3,1.4-1.6c2.2-1.1,4.4-2,6.7-3c4.3-2,6.6-5.6,8.3-9.6
	c0.8-1.9,2.3-3.5,2.5-5.7c2.1-3.8,3.9-7.7,6.7-11c1.2-1.2,1.8-2.8,3.2-3.8c2.9-2.6,6.1-4.9,9.2-7.2c0.9-0.7,2.1-2.1,3.3-0.2
	C210.1,197.8,209.2,200.3,207.4,202.2z"/>
<path class="st33" d="M31.1,263.1c0.7,1.5-0.5,2.7-0.9,4c-0.6,1.9-0.5,3.5,1.6,4.3c1.4,0.5,2.3,1.8,3.9,2.2c3,0.9,5.2-0.7,7.6-2
	c2.1-1.1,4-2.9,6.6-3c0.6,0,1.3-0.5,1.7-1c1.5-2,4.2-1.8,5.9-3.3c0.2-0.2,0.7,0,1,0c2.2-0.8,4.2-2.1,6.1-3.5c0-0.3,0-0.7,0-1
	c0.5-0.4,0.6-1.6,1.7-0.9c0.5,0.9,0.1,1.7-0.2,2.6c-0.7,1.6-2.2,2.6-3.6,3.3c-3.7,1.9-7.4,3.8-11.1,5.7c-2.6,0.7-4.7,2.2-6.9,3.6
	c-0.2,0.1-0.4,0.2-0.6,0.3c-0.9,0.3-1.6,0.9-2.4,1.4c-0.2,0.1-0.5,0.2-0.7,0.3c-4.9,1.3-8.6-1-11.7-4.4c-1.7-1.8-1.1-4-0.1-6.1
	c0.4-0.8,1.4-1.2,1.8-2C30.7,263.4,30.9,263.2,31.1,263.1z"/>
<path class="st34" d="M153.4,232c-1.2-0.2-2.3-1.1-3.3-2.1c-1.9-1.9-3.1-4.2-3.7-6.8c-0.2-0.7-0.4-1.6,0.4-2.1
	c0.7-0.4,1.5-0.3,2.1,0.2c1.4,1.3,3.2,1.8,4.8,2.7c1.8,1,3.1,2.6,3.2,4.8C157.1,230.7,155.6,232.1,153.4,232z"/>
<path class="st35" d="M50.8,269.8c4.2-2.2,8.4-4.3,12.5-6.5c0.9-0.5,1.6-1.2,2.1-2.1c1.1-1.4,0.9-3.4,2-4.8c0.1-0.2,0.2-0.4,0.3-0.6
	c0.5-0.9,1-1.8,1.2-2.8c0.1-0.5,0.3-0.8,0.7-1.2c0.7-0.5,1.3-1.2,1.6-2.1c0.2-0.3,0.4-0.6,0.6-0.9c1.4-2.8,1.2-3-1.9-3.2
	c-2.4-0.1-4.9,0.7-7-1.2c0.8-0.7,1.9-0.9,3-1.1c2.3-0.7,4.6-0.2,6.9-0.1c2.5,0.2,3.5,1.8,2.4,4.2c-0.5,1.2-1.3,2.3-2,3.5
	c-2,2.3-3.3,5-4.6,7.7c-1.3,2.8-2.5,5.7-5.7,7c-5.4,2.1-10.3,5.2-15.3,8c-1.8,1-3.7,2-5.5,3c-3.5,2-10.5,0.4-12.9-2.8
	c-0.4-0.5-0.6-1-0.3-1.6c1.6,0.2,2.6,1.6,3.9,2.3c2.7,1.4,5.4,2.2,8.3,0.8l0,0c0.8-0.6,1.7-1,2.5-1.5l0,0
	C46.1,272.4,48.6,271.4,50.8,269.8z"/>
<path class="st33" d="M186.8,239.1c-1.4-1.1-3.1-0.7-4.6-0.5s-2.8-0.2-4.2-0.1c-0.5,0-1.1,0.1-1.1-0.6c0-0.6,0.6-0.8,1-1
	c3.7-1.5,7.2-3.4,9.4-6.7c1.5-2.2,2.2-4.9,2.7-7.6c0.3-1.4,0.7-2.8,1.8-3.8c0,1.8,0,3.7-0.1,5.5c-0.2,4.9-2.9,8.4-6.5,11.3
	c-0.5,0.5-1.6,0.6-1.3,1.6c0.3,0.9,1.2,0.7,2,0.8c0.6,0.1,1.3,0.3,1.9,0.5C187.7,239.2,187.2,239,186.8,239.1z"/>
<path class="st36" d="M190.3,218.3c-0.2,3.3-2.5,5.7-3.6,8.6c-2.5,6.2-8.5,8.1-14,10.5c-0.5,0.2-1.4,0.3-1.3,1
	c0.1,1,1.1,0.7,1.6,0.6c4.1-0.4,8.1,1.4,12.2,0.1c0.4-0.1,0.9,0.3,1.4,0.4c-0.2,0.6-0.9,0.7-1.4,1c-2.1,0.7-4.2,0.7-6.4,0.3
	c-2-0.4-4.2-0.3-6.2,0.1c-1.6,0.3-3.2,0.4-4.7,0c-0.9-0.2-1.5-0.8-1.6-1.7s0.6-1.3,1.3-1.6c1.2-0.5,2.3-1,3.5-1.4
	c1.1-0.3,2.2-0.7,3.3-1.2c4.9-1.8,8.8-4.7,11.2-9.5c1.2-2.3,2.4-4.6,3.8-6.8C189.6,218.3,189.9,218.1,190.3,218.3z"/>
<path class="st37" d="M88.5,223.8c-0.5-1.5-1.9-2.7-1.8-4.5c1-0.2,1.2,0.7,1.6,1.3c1.2,1.9,2.7,3.5,4.4,5c3.2,1.5,5.1,4.5,7.8,6.6
	c3.2,2.6,6.7,3,10.6,2.3c4.2,0,7.7-2.1,11.1-4.3c0.3-0.3,0.6-0.5,1-0.5c0.6,0,0.9,0.3,1.2,0.8c-0.6,1.7-2.4,2.3-3.6,3.5
	c-2.2,1.1-4.3,2.5-6.7,3.1c-0.5,0.1-1,0.1-1.6,0.1c-1.1,0-2.2-0.1-3.3,0c-5,0.5-9.1-1.1-12.3-5c-0.9-1.1-2.1-1.7-3.1-2.6
	c-1.3-1.5-3.2-2.2-4.3-3.8C89,225.2,88.6,224.6,88.5,223.8z"/>
<path class="st38" d="M212,191.5c2.2-1.3,1.8-3.3,1.2-5.1c-0.4-1.3-0.7-2.6-0.7-3.9c0.1-3.1-0.3-6.2-0.9-9.2c-0.6-3.2-0.2-3.9,2.5-5
	c-0.1,0.3-0.1,0.7-0.2,1c-0.1,0.2-0.3,0.4-0.3,0.7c-0.1,1.2-0.2,2.5,0,3.7c0.1,1.1,0.2,2.3,0.2,3.4c0.2-0.4-0.1-1,0.4-1.4
	c0.7,1.9,0.8,3.8,0.9,5.7c-0.2,2.6,0.4,5.3-0.2,8c-0.3,3.4-3.3,4.2-5.4,5.9c-2,1.3-3.8,2.9-5.6,4.6c-1.2,0.9-2,2.3-3.4,3
	c-0.3,0-0.5-0.1-0.6-0.3c-0.2-0.4-0.1-0.8,0.2-1.1C203.7,197.8,206.9,193.6,212,191.5z"/>
<path class="st39" d="M29.1,272.4c1.3,2.9,4.1,3.6,6.8,4.5c4.5,1.5,7.6-1.7,11-3.4c5-2.6,9.9-5.3,14.8-7.9c0.3-0.2,0.8-0.1,1.2-0.2
	c0.2,1.7-1.5,1.6-2.2,2.4c-0.3,0.2-0.6,0.4-0.9,0.6c-5.6,2.7-11.1,5.8-16.4,9.1c-1,0.7-2,1-3.2,1.2c-1.1,0.1-2.2,0.1-3.3,0
	c-0.2,0-0.5-0.1-0.7-0.2c-0.9-0.4-1.9-0.7-2.8-1c-0.2-0.1-0.4-0.2-0.6-0.3c-0.7-0.4-1.5-0.6-2.2-0.8c-2.6-1.3-4-3.5-4.6-6.3
	c-0.1-1,0.2-1.9,0.6-2.8c0.2-0.2,0.3-0.3,0.5-0.5c0.7,0.2,0.9,0.8,0.9,1.4C27.8,269.7,28.5,271,29.1,272.4z"/>
<path class="st40" d="M127.1,163.2c0-0.6,0-1.2,0-1.8c0.2-5.2,2.2-5.5,6.3-4.4c3,0.8,5.2,3.2,6.5,6.2c0.6,1.4,0.4,2.7-1.1,3.4
	c-2.6,1.3-5.3,2.3-8.3,2.7c-2.5,0.3-3.3-1.1-3.5-3.1C127.1,165.2,127.1,164.2,127.1,163.2L127.1,163.2z"/>
<path class="st33" d="M72.1,249.6c-0.2,0.2-0.3,0.3-0.5,0.5c-0.5,0.7-1.1,1.3-1.5,2c-0.4,0.2-0.5,0.6-0.5,1c-0.7,0.9-1.1,2-1.5,3
	l0,0c-0.9,0.7-0.6,2.3-2,2.5c-0.5,0.3-1,0.7-1.5,1c0.6-2.9,3.1-4.7,4.1-7.3c0.5-1.5,2.3-2.8,1.5-4.4c-0.8-1.5-3-0.8-4.5-1.2
	s-3.1-0.1-4.6,0.3c-1,0.3-1.8,0.1-2-1.1c0.3-0.5,0.9-0.5,1.4-0.5c2.1-1.3,4.2,0,6.4-0.2c1.4-0.1,2.8,0,4.3,0c2.4,0,2.7,0.5,1.8,2.7
	C72.5,248.5,72.4,249.1,72.1,249.6z"/>
<path class="st41" d="M148.9,250.1c-1.4-1.7-1.6-4-2.4-5.9c-1.3-2.9-2.7-5.7-4.7-8.2c-0.8-1.3-1.8-2.5-2.6-3.8
	c-0.8-2.8-2.6-4.7-5.1-6.1c0.4-1.8,1.8-2.6,3.4-3.2c2.5,8.7,8.3,15.9,10.8,24.6C148.6,248.3,149.1,249.1,148.9,250.1z"/>
<path class="st42" d="M200.4,202.6c0.8-1.2,1.8-2.2,3-3c2-1.3,3.7-3,5.6-4.5c1.8-1.8,4.3-2.8,5.6-5.1c0.1,0,0.2,0,0.3,0
	c-0.2,2.4-1.1,4.5-2.9,6.2c-1.5-1.1-2.4,0.3-3.4,1c-3,2.3-5.9,4.6-8.8,7C199.3,203.4,199.8,203,200.4,202.6z"/>
<path class="st43" d="M59.1,286l0.2-0.1l0.1,0.1c0.8,0.5,1.9,0.5,2.6,1.2c0.4,0.4,0.9,0.6,1.4,0.9c0.2,0.1,0.4,0.3,0.5,0.4
	c0.9,0.9,1.9,1.6,2.9,2.3c1.8,1.7,3.5,3.5,4.7,5.7c0.3,0.8,0.7,1.7,0.2,2.5c-0.2,0.2-0.4,0.3-0.7,0.3c-0.8-0.1-1.1-0.7-1.4-1.3
	c-3.6-6.2-8.8-10.4-15.8-12.2c-0.6-0.5-1.8-0.2-1.9-1.4c0.7-0.9,1.6-0.3,2.5-0.5c1-0.4,1.7,0.6,2.6,0.5
	C57.4,285.4,58.6,285.2,59.1,286z"/>
<path class="st44" d="M92.3,225.9c-2.5-1.6-3.9-4.2-5.6-6.6c-0.7-2.5,0-4.6,1.7-6.4c1-1,2-2,3-3c1.7-0.6,2.4-2.6,4.3-2.8
	c0.2,2-1.4,2.6-2.6,3.6c-1.9,1.6-3.7,3.2-4.5,5.5c-0.5,1.4-0.6,2.6,1.2,3.2c0.8,0.4,1.5,0.9,1.4,1.9c-0.3,0.5-0.9,0.2-1.3,0.4
	c0.6,1.5,2.6,1.7,2.9,3.5C92.9,225.6,92.6,225.8,92.3,225.9z"/>
<path class="st7" d="M171.6,236.5c-1.2,0.5-2.4,1-3.6,1.6c-0.5,0.2-1.3,0.3-1.2,1.1c0.1,0.7,0.7,1.2,1.4,1.3c1.2,0.1,2.4,0.3,3.5,0
	c4.6-1.1,9.1,0.3,13.6,0.1c-0.5,0.6-1.2,0.9-2,1c-2.5,0.5-5-0.2-7.4-0.1c-2.2,0.2-4.3-0.1-6.5,0.2c-1,0.1-2,0.2-2.9-0.4
	c-0.8-0.6-1.7-1.2-1.7-2.3c0-1,0.8-1.6,1.6-2c0.5-0.3,1.1-0.5,1.6-0.7c0.3-0.1,0.5-0.2,0.8-0.3c0.9-0.1,1.8-0.5,2.8-0.2
	C171.7,236,171.8,236.3,171.6,236.5z"/>
<path class="st45" d="M30.2,280.9c-2.7-2.5-5.6-4.7-7-8.3c-0.4-0.9-0.8-1.7,0.4-2.3c0.9,0.2,1,1,1.4,1.7c0.9,1.7,2,3.3,3.2,4.8
	c2.6,3.1,5.8,4.4,9.8,3.7c0.7-0.1,1.3-0.2,1.8,0.5c0,0.2,0,0.3,0,0.5c0,1.2-0.9,0.9-1.6,1c-0.6-0.3-1-0.4-0.9,0.5
	c-0.4,0.4-0.8,0.4-1.3,0.3c-0.2-0.1-0.4-0.2-0.6-0.3c-0.6-0.5-1.4-0.5-2.2-0.5c-0.3,0-0.7,0-1-0.1c-0.7-0.2-1.2-0.5-1.7-1
	C30.4,281.2,30.3,281.1,30.2,280.9z"/>
<path class="st46" d="M135.2,209.8c3.8,2,4.9,4.6,2.5,11.6c-0.9,2.5-2.9,3.8-5,4.9c-1.7,0.9-3.6,1.7-5.5,2.1c-0.4,0-0.7-0.1-1-0.4
	c0.1-1.7,1.6-1.8,2.6-2.2c1.7-0.7,3.5-1.2,5-2.3c0.9-0.6,1.7-1.4,2-2.5c0.5-1.1,1-2.1,1.2-3.3c0.4-2.6,0.4-5.1-2.3-6.6
	c-0.5-0.3-1.3-0.7-0.9-1.5C134.2,209.5,134.8,209.3,135.2,209.8z"/>
<path class="st20" d="M71.1,242c0.3-0.6,1-0.3,1.5-0.5c1.2-0.5,2.5-0.1,3.7,0.1c2.1,0.4,3,2.5,1.9,4.6c-1.2,2.5-2.5,4.9-4.2,7.2
	c-0.8,0.6-1.1,2-2.6,1.4c-0.4-0.6-0.4-1.2,0.1-1.7c1.8-1.8,2.7-4.1,3.8-6.3c0.6-1.2,0.8-2.4-0.9-3C73.5,242.9,71.8,243.3,71.1,242z"
	/>
<path class="st47" d="M162.1,280.9c-0.9-0.4-0.9-1.3-1.3-2.1c-0.6,2.4-1.2,2.5-3.3,0.6c0.3-0.7,2.3,0.3,1.5-1.5
	c-0.4-1-1.1-1.9-0.5-3c0.9-0.9,0-1.5-0.3-2.2c-1.6-3.4-3.7-6.5-5-10c-0.3-0.9-0.9-1.6-0.6-2.6C155.6,267,160,273.4,162.1,280.9z"/>
<path class="st48" d="M39.8,281c-1.7-0.2-3.2,0.6-5,0.3c-6.4-1.1-8.9-5.9-11.3-11c0.3-0.4,0.6-0.7,1-1.1c1.1,1.7,1.5,3.6,2.9,5.2
	c0.3,0.5,0.7,0.9,1.1,1.4c0.5,1,1.4,1.5,2.3,2c2.8,1.6,5.7,2.3,8.9,1.7c0.7-0.1,1.5-0.3,2.1,0.4C41.3,280.6,40.5,280.8,39.8,281z"/>
<path class="st49" d="M97.7,179.6c2.3,0,6.5,3.3,7,5.4c0.1,0.6,0.1,1-0.4,1.3s-1,0.2-1.3-0.3c-1.2-2.4-3.5-3.5-5.7-4.6
	c-0.4-0.2-1-0.6-0.6-1.1C96.9,179.9,97.4,179.7,97.7,179.6z"/>
<path class="st50" d="M168.6,236.5c-0.3,0.2-0.6,0.5-1,0.7c-1,0.5-2.7,0.5-2.2,2.1c0.5,1.5,1.9,2.7,3.8,2.2c2.6-0.7,5.1-0.3,7.7-0.5
	c2.2-0.1,4.3,0.4,6.5,0.6c-5.9,0.7-11.8,1-17.8,0c-1.3-1.1-2.2-2.6-1.1-4.2C165.3,236.1,166.9,235.6,168.6,236.5z"/>
<path class="st14" d="M119.5,188c-3.5,2.1-3.7,5.6-3.8,9c0,1.6,0.3,3.3,0.4,5c-0.6,0.4-0.8,0.1-1-0.4c-0.6-3.2-1-6.4-0.2-9.6
	c1-1.7,1.5-3.7,2.9-5.2c0.5-0.5,0.8-1.1,1.6-0.8C119.5,186.7,119.5,187.4,119.5,188z"/>
<path class="st51" d="M130,179.3c5-0.6,8.6,2.3,9.1,7.2C136.2,183.7,134,180.3,130,179.3z"/>
<path class="st52" d="M50.8,275.9c-2.5,1-4.9,2.1-7.4,3.1c-4.6,1.6-9.1,1.5-13.3-1.3c-0.4-0.1-0.7-0.4-0.8-0.8
	c0-0.3,0.1-0.5,0.4-0.7c1.6-0.1,2.8,1,4.2,1.4c3.1,1,6,1.1,9-0.1c2.5-0.7,4.6-2.6,7.2-2.9C50.7,274.9,51,275.2,50.8,275.9z"/>
<path class="st53" d="M29.1,272.4c-2.1-1.4-1.4-3.7-2-5.6c0.7-0.6,1.4-1.3,2.1-1.9c0.1,0.1,0.2,0.2,0.2,0.3c0,0.1-0.1,0.2-0.1,0.2
	c-0.9,3.1-1.2,6.1,2.2,7.9c2.6,1.4,5.1,3.5,8.4,2.3c0.5-0.2,1-0.1,1.5-0.1c-1.8,1.6-3.9,1.1-5.9,0.6
	C32.9,275.4,31.1,273.8,29.1,272.4z"/>
<path class="st54" d="M43.3,277.9c-4.9,2.2-9.3,0.8-13.6-1.5c-1.4-0.5-2.1-1.7-2.9-2.7c-1.1-1.6-2.3-3.3-1.2-5.4
	c0.2-0.2,0.4-0.3,0.5-0.5c0.7,0.8-0.1,1.8,0.5,2.6c0.9,2.4,2,4.6,4.5,5.6c0.6,0.5,1.4,0.7,2,1l0,0c0.9,0.6,2,0.6,3,1l0,0
	c1.3,0.4,2.7,0.4,4,0c1-0.4,2-0.7,3-1.1c0.1,0.1,0.1,0.2,0.2,0.2C43.6,277.4,43.5,277.7,43.3,277.9z"/>
<path class="st55" d="M76.6,260.7c0.4-2,1-3.9,2-5.6c0.5,0.4,0.5,0.9,0.5,1.5c-0.5,3.2,0.1,6.6-1.5,9.6c-0.1,0.5-0.3,0.9-0.7,1.3
	c-1,0.4-1.3,2.1-2.8,1.8c-0.1-1.4,0.8-2.7,1.1-4c0.6-0.4,0-1.1,0.5-1.5l0,0C76.6,262.9,76.5,261.8,76.6,260.7z"/>
<path class="st40" d="M69.5,263.3c-2,3.5-3,8-7.6,9.3c-0.6,0.2-1.3,0.2-2,0.3c0.6-2.2,3.1-2.6,4.2-4.3c2-1.4,2.8-3.9,4.7-5.4
	C69.1,263.1,69.3,263.1,69.5,263.3z"/>
<path class="st56" d="M74.6,243.5c1.8,0.1,2.5,0.9,1.5,2.6c-1.4,2.3-2,5.1-4.1,7c-0.6-0.8,0.3-1.3,0.5-2c0.7-1.3,1.6-2.6,2.2-3.9
	c0.9-2,0.3-3-1.9-3.1c-2.3-0.2-4.6-0.4-7-0.6c0.4-0.6,1-0.5,1.5-0.5c1.3-0.3,2.6-0.5,3.9-0.4C72.4,242.8,73.6,242.9,74.6,243.5z"/>
<path class="st57" d="M97.7,191.5c-1-1.8-2-3.5-2.9-5.2c-0.3-0.6-0.3-1.2,0.3-1.5c0.8-0.4,1.5-0.1,2.1,0.4
	C98.6,186.3,98.9,189.1,97.7,191.5z"/>
<path class="st58" d="M73.6,253.1c1.2-2,2.4-4,3.5-6c1.8-3.5,1.3-4.5-2.6-5.3c-0.6-0.1-1.3-0.2-2-0.3c0.7-0.8,1.6-0.4,2.5-0.5
	c3.3-0.2,4.9,1.7,3.8,4.7c-0.4,1.1-0.9,2.2-1.7,3c-0.2,0.5-0.4,1-0.5,1.4c-0.9,1.2-1.3,2.6-2.3,3.8c-0.2,0.4-0.5,0.5-0.8,0.3
	C73.3,253.8,73.3,253.5,73.6,253.1z"/>
<path class="st59" d="M138.8,202.7c-0.1-2.9,0.3-5.9-1-8.6c-0.5-1.9-1.8-3.2-2.9-4.7c-0.2-0.6-0.4-1.1-0.4-1.7
	c0-0.2,0.1-0.5,0.3-0.7c0.6-0.3,0.8,0.3,1.2,0.5C138.9,192.1,140.4,197.1,138.8,202.7z"/>
<path class="st2" d="M74,269.3c1.1-0.3,1.1-2.1,2.5-2.1c0.2,0.2,0.3,0.4,0.3,0.6c-0.8,2.3-2.8,3.8-3.8,6c-1.4,2.2-2.7,4.4-4.1,6.6
	c-0.2,0.2-0.4,0.2-0.5,0C70.3,276.7,72.2,273,74,269.3z"/>
<path class="st60" d="M115.1,201.6c0.3,0.1,0.6,0.3,1,0.4c0.2,0.2,0.3,0.4,0.5,0.6c-0.8,0.8-1.7,0.4-2.6,0.4
	c-4.1-0.1-8.2-0.6-12.1,0.9c-0.5,0-0.8-0.3-1-0.7c0.6-1.2,2.1-0.9,2.9-1.8C107.5,201.6,111.4,200.8,115.1,201.6z"/>
<path class="st61" d="M168.6,236.5c-0.7,0.1-1.3,0.3-2,0.4c-2.3,0.2-2.5,1.5-1.7,3.4c0.2,0.5,0.4,0.9,0.6,1.4
	c-0.5-0.2-0.9-0.5-1.4-0.7c-2.1-2.9-1.4-4.7,2-5.2c0.7-0.1,1.3,0.2,2-0.3c0.8-0.3,1.7-0.7,2.5-1c0.6-0.4,1.2-0.5,1.9-0.2
	c0.6,0.8-0.1,1.1-0.7,1.4c-1-0.1-1.9,0.5-2.8,0.7C168.9,236.4,168.7,236.5,168.6,236.5z"/>
<path class="st62" d="M127.1,227.9c3.8-1.6,8.1-2.6,10.5-6.6c-0.1,0.5-0.1,1-0.2,1.5c-1.1,1-2.2,2-3.3,3.1c-0.1,0.2-0.1,0.5-0.3,0.6
	c-2.7,1.3-5.3,2.8-8.3,3.5C124.9,228.4,126.5,228.5,127.1,227.9z"/>
<path class="st8" d="M131.6,187.5c-0.7,0.6-1.5,1.1-2,0c-0.6-1.2-2.2-1.8-1.9-3.3c0.2-0.8,1-0.8,1.6-0.3c0.7,0.5,1.2,1.1,1.9,1.6
	C132,186,132.4,186.6,131.6,187.5z"/>
<path class="st63" d="M56.4,273.9c-1,0.4-2,0.7-3,1.1c-0.4-0.8,0.4-1.2,0.6-1.9c0.7-1,1.7-1.5,2.7-2.1c0.9-0.4,1.8-0.8,2.4-1.7
	c0.5-0.5,1.1-0.9,1.8-1c0.5-0.1,1-0.1,1.4,0.2c0.5,0.4,0.3,0.8,0,1.3c-0.2,0.2-0.3,0.3-0.5,0.5C59.9,271.4,58.1,272.5,56.4,273.9z"
	/>
<path class="st27" d="M30.1,277.4c4.2,2.6,8.7,2.6,13.3,1.6c-0.4,0.5-1,0.8-1.7,0.9c-3.1,0.6-6.2,0.8-9.2-0.5
	c-0.9-0.4-1.9-0.6-2.4-1.5c-0.2-0.1-0.2-0.2-0.2-0.3C30,277.5,30.1,277.4,30.1,277.4z"/>
<path class="st64" d="M72.1,249.6c0.7-4,0.7-4-3.8-4c-2.7,0-5.3,0-8,0c0.7-0.7,1.6-1,2.6-1c2.3,0.6,4.6,0.5,7,0.6
	c1.2,0,2.7-0.6,3.4,0.7C74.1,247.3,72.9,248.5,72.1,249.6z"/>
<path class="st65" d="M86.7,242.1c-1.3,3.5-3.7,6.4-5.6,9.6c-0.4-0.5-0.3-1,0-1.6C82.4,247,84.4,244.4,86.7,242.1z"/>
<path class="st66" d="M88.5,223.8c0.4,0.5,0.9,1,1.3,1.5c-0.5,3.3-0.3,6.6-0.3,10c0,1,0,2-0.2,3c-0.1,0.4-0.2,0.8-0.5,1.2h-0.2
	l-0.2-0.1C88.6,234.3,87.8,229,88.5,223.8z"/>
<path class="st67" d="M168.1,235.5c-0.4,0.2-0.7,0.4-1.1,0.5c-3.9,0.8-4.1,1.2-2.9,5c-1.4-0.6-2.5-1.7-2-3.3
	c0.5-1.9,2.3-1.9,3.9-2.2C166.7,235.5,167.4,235.5,168.1,235.5z"/>
<path class="st68" d="M88.7,192.1c-1-0.4-0.8,0.4-0.9,0.9c-0.6,2.9,0.2,5.7,0,8.6c-1.3-4.6-1-9.1,0.5-13.6c0.9-0.1,0.7,0.4,0.5,1
	C88.8,190.1,88.7,191.1,88.7,192.1z"/>
<path class="st69" d="M77.2,248.7c0.3-0.7,0.6-1.4,0.9-2c1.6-3.4,0.7-5-3.1-5.7c1.3-0.9,2.3-0.5,3.3,0.5c1.1,1,1.6,2.1,1,3.5
	C78.8,246.4,78.8,248,77.2,248.7z"/>
<path class="st70" d="M167.4,276.8c-0.4,2.3-0.5,4.5,1.1,7C165.7,282.1,165.4,279.7,167.4,276.8z"/>
<path class="st71" d="M119.5,186c-2.5,1.3-2.8,4.2-4.6,6c0.7-3.1,2.3-5.7,4.7-7.8C120.3,184.9,119.8,185.4,119.5,186z"/>
<path class="st72" d="M64.5,268.8c-1.1,1.9-3.2,2.5-4.5,4c-1,0.4-1.9,1.1-3,1c1-2.2,3.4-2.6,5-4l0,0C62.8,269.5,63.2,268,64.5,268.8
	z"/>
<path class="st73" d="M37.7,282c0.7-0.1,1.5,0.2,2-0.5c0.2,0,0.4,0.1,0.6,0.1c1.1,0.4,2.3,0.3,3.4,0.5c1,0.2,2.4-0.1,2.7,1.5
	c-0.5,0.5-1.2,0.6-1.9,0.6c-1.7-0.1-3.4,0.1-5-0.6C39,283,37.7,283.2,37.7,282z"/>
<path class="st15" d="M45.3,281.5c2.3,0,4.5,0.6,6.6,1.4c-0.5,1.1-1.4,1.1-2.4,1c-1.7-0.2-3.2-1-4.7-1.5
	C44.6,281.9,44.9,281.7,45.3,281.5z"/>
<path class="st74" d="M214.9,190c-0.1,0-0.2,0-0.3,0c0.1-2.9-0.6-5.7,0.4-8.6C215.4,184.3,215.6,187.2,214.9,190z"/>
<path class="st19" d="M68.5,280.4c0.2,0,0.4,0,0.5,0c-1.2,2.5-2.3,5.1-3.5,7.6c-0.4,0.4-0.9,0.4-1.4,0.2c-0.2-0.2-0.3-0.4-0.2-0.6
	c1.3,0.1,1.2-1.1,1.6-1.9C66.6,284,67.5,282.2,68.5,280.4z"/>
<path class="st75" d="M135.8,187.4c-0.4-0.1-0.8-0.3-1.1-0.4c-0.8-0.3-1.5-0.6-2.4-0.4c-0.9-0.6-0.1-1.6-0.6-2.2
	c0.1-1.6,1-1,1.6-0.5C134.4,184.9,135.3,186,135.8,187.4z"/>
<path class="st76" d="M25.5,268.2c-0.4,2.1,0.8,3.8,1.6,5.6c0.3,0.4,0.3,0.7,0,1.1c-1.4-1.6-2.6-3.4-2.6-5.7
	C24.8,268.9,25.2,268.6,25.5,268.2z"/>
<path class="st2" d="M44.8,282c1.3,1.1,3.2,0.5,4.6,1.5c-0.1,0.1-0.2,0.2-0.3,0.3c-0.7,0.4-1.4,0.4-2.2,0.2
	c-0.2-0.1-0.4-0.2-0.6-0.4c-1.8-1.4-4.3-0.3-6-1.9c0.8,0,1.6,0,2.5,0C43.4,282,44.2,281.4,44.8,282z"/>
<path class="st77" d="M30.2,280.9c0.2,0,0.3,0,0.5,0.1c1.3,1.9,3.5,2.7,5.1,4.1c0,0.1-0.1,0.2-0.1,0.3
	C32.8,285.5,30.7,283.7,30.2,280.9z"/>
<path class="st78" d="M69.5,263.3h-0.3h-0.3c-0.2-0.2-0.3-0.4-0.4-0.6c0.2-1.9,1.2-3.4,2.6-4.6c0.1,0.1,0.2,0.1,0.3,0.2
	C71.6,260.2,70.7,261.8,69.5,263.3z"/>
<path class="st79" d="M62,269.8c-1.7,1.3-3.4,2.7-5,4c-0.2,0-0.3,0-0.5,0C57.5,271.5,59.8,270.7,62,269.8z"/>
<path class="st80" d="M73.5,254.1c0.2-0.2,0.4-0.3,0.6-0.5s0.3-0.2,0.5,0c-0.6,1.8-1.3,3.5-3,4.6l-0.2-0.1
	C71.1,256.3,72,255.1,73.5,254.1z"/>
<path class="st81" d="M214.1,175.7c-0.1,0.4-0.2,0.8-0.3,1.1c-0.3-2.5-1.6-5-0.4-7.5c0.8,1.4-0.1,3.1,0.5,4.5
	C214,174.5,214,175.1,214.1,175.7z"/>
<path class="st82" d="M81.1,250.1c0,0.5,0,1,0,1.6h0.1c-0.5,0.7-0.4,1.7-0.8,2.4c0,0.2,0,0.5-0.1,0.7c-0.2,0.4-0.3,0.9-0.8,1.1
	c-0.3,0-0.5-0.1-0.6-0.3c0-0.5-0.1-1,0.2-1.4C79.5,252.6,80.1,251.2,81.1,250.1z"/>
<path class="st2" d="M49.3,283.4c0.9,0.1,1.7,0,2.5-0.5c0.8,0.5,1.8,0.4,2.5,1.1c-0.7,0.8-1.7,0.3-2.5,0.4c-0.1,0-0.2,0-0.3,0.1
	C50.7,284.4,49.6,284.9,49.3,283.4L49.3,283.4z"/>
<path class="st77" d="M164,244.5c1.7-0.4,2.6,0.2,3.7,0.7C166.4,245.7,165.3,245.8,164,244.5z"/>
<path class="st83" d="M74.6,243.5c-1-0.2-2-0.3-3.1-0.5c-0.8-0.6-1.8,0.1-2.6-0.5c0.6-0.6,1.4-0.4,2.1-0.5
	C72.2,242.7,73.9,241.9,74.6,243.5z"/>
<path class="st77" d="M78.1,239.4c-2,0-3.9,0-5.9,0c0-0.1,0-0.1,0-0.2c2,0,3.9,0,5.9,0C78.1,239.3,78.1,239.3,78.1,239.4z"/>
<path class="st84" d="M76.6,260.7c0.7,2,0.5,2.7-1,3.1C75.6,262.6,75.9,261.6,76.6,260.7z"/>
<path class="st85" d="M131.7,184.4c0.3,0.7,0.6,1.5,0.9,2.2c0.2,0.1,0.4,0.3,0.4,0.5c0.1,0.4,0,0.7-0.2,0.9
	c-0.2,0.5-0.4,1.1-0.5,1.6c-0.2-0.7,0.2-1.6-0.6-2.2c-0.2-0.7-0.3-1.3-0.5-2C131.6,185.2,131.6,184.8,131.7,184.4z"/>
<path class="st77" d="M41.8,285.5c0,0.2,0,0.3,0,0.5c-2-0.3-4.1,0.5-6.1-0.5l0,0c1.9-1.1,3.8-0.8,5.7-0.3
	C41.5,285.3,41.6,285.4,41.8,285.5z"/>
<path class="st86" d="M74.6,253.7c-0.2,0-0.3,0-0.5,0c1-1.1,1.2-2.7,2.5-3.5C76.3,251.5,75.8,252.8,74.6,253.7z"/>
<path class="st43" d="M54.4,273.4c0.1,0.8-0.8,1-1,1.6c-0.4,0.4-1,0.5-1.5,0.5c-0.4-0.9,0.3-1.4,0.8-1.9
	C53.2,273.2,53.7,272.8,54.4,273.4z"/>
<path class="st20" d="M52.9,273.9c-0.3,0.5-0.7,1.1-1,1.6c-0.3,0.3-0.6,0.5-1,0.4c-0.2-0.3-0.3-0.6-0.5-1c0.3-0.9,1.1-1.2,1.9-1.3
	C52.5,273.6,52.7,273.7,52.9,273.9z"/>
<path class="st87" d="M64,287.7c0,0.1,0,0.3,0,0.4c-0.1,0.2-0.3,0.3-0.5,0.4c-0.8,0-1.3-0.3-1.5-1c-0.1-0.5,0-0.7,0.5-0.5
	C63.1,287,63.6,287.3,64,287.7z"/>
<path class="st7" d="M213.9,173.9c-1-1.4-0.2-3-0.5-4.5c0.2,0,0.3,0,0.5,0C213.9,170.8,213.9,172.3,213.9,173.9z"/>
<path class="st77" d="M44.3,286.5c1.4,0.3,2.8,0.2,4,1C46.9,287.4,45.4,287.8,44.3,286.5z"/>
<path class="st88" d="M62.5,287c-0.2,0.2-0.3,0.3-0.5,0.5c-0.9-0.4-1.9-0.7-2.5-1.5C60.6,285.9,61.6,286.1,62.5,287z"/>
<path class="st89" d="M69,242.5c0.9,0.2,1.9-0.3,2.6,0.5c-1.4,0-2.8,0-4.2,0C67.8,242.6,68.4,242.6,69,242.5z"/>
<path class="st90" d="M135.2,209.8c-0.5,0-1,0-1.5-0.1c-0.7,0.5-1.1,0.1-1.6-0.4c-0.1-0.2-0.1-0.5,0.1-0.7c1,0.3,2,0.6,3,0.9
	l0.1,0.1L135.2,209.8z"/>
<path class="st91" d="M59.1,286c-0.7-0.5-2-0.1-2.2-1.4C57.8,284.8,58.8,284.9,59.1,286z"/>
<path class="st92" d="M26.6,270.3c-0.8-0.7-0.3-1.7-0.5-2.6c0.2-0.2,0.3-0.3,0.5-0.5C26.6,268.2,26.6,269.3,26.6,270.3z"/>
<path class="st77" d="M51.4,288c1,0.2,2.1-0.4,3,0.5C53.4,288.4,52.2,288.9,51.4,288z"/>
<path class="st0" d="M29.2,265.2c0-0.1,0-0.3-0.1-0.4c0.5-0.4,1-0.9,1.4-1.3C30.5,264.4,29.9,264.9,29.2,265.2z"/>
<path class="st84" d="M75.6,263.8c-0.5,0.4,1.5,1.6-0.5,1.5C75.1,264.7,75.1,264.2,75.6,263.8z"/>
<path class="st93" d="M88.7,187c0.1-0.4,0.2-1,0.7-0.7c0.6,0.3,0.3,0.9-0.1,1.2C89,187.5,88.9,187.2,88.7,187z"/>
<path class="st94" d="M88.7,187c0.2,0.2,0.4,0.3,0.6,0.5c-0.1,0.5,0,1.1-0.5,1.5c-0.2-0.3-0.3-0.7-0.5-1
	C88.4,187.7,88.6,187.3,88.7,187z"/>
<path class="st95" d="M79.1,254.1c0,0.5,0,1.1,0,1.6c0.3,0.2,0.3,0.5,0.2,0.8c-0.1,0.2-0.3,0.3-0.5,0.3c-0.1-0.1-0.2-0.1-0.3-0.2
	c0-0.5,0-1.1,0-1.6C78.7,254.7,78.9,254.4,79.1,254.1z"/>
<path class="st96" d="M44.8,282c-0.7-0.1-1.4,0.2-2-0.4c0.8,0,1.7,0,2.5,0C45.1,281.7,44.9,281.8,44.8,282z"/>
<path class="st77" d="M41.8,286c0.9,0.1,1.8-0.3,2.5,0.5C43.4,286.4,42.5,286.8,41.8,286z"/>
<path class="st97" d="M139.3,232.9c-3.7-2.8-6.8-2.9-10.8-0.2s-7.5,6.1-11.2,9.2c-3.1,2.6-6.2,5.1-10,6.5c-2.8,1-5,0.6-7-1.7
	c-1.1-1.3-2.4-2.5-3-4.2c1.1-0.7,1.5,0.3,2,0.9c3.3,4,7.5,3.7,11.3,1.3c4.6-2.9,8.5-6.6,12.6-10.1c2.4-2,4.8-3.9,7.7-5.2
	c2.7-0.3,5.5-0.9,7.8,1.4c0.3,0.3,0.5,0.6,0.7,1C139.5,232.2,139.6,232.6,139.3,232.9z"/>
<path class="st98" d="M156.4,278.4c-2.3-1-4-3-5.9-4.5c-5.5-4.5-12.2-6.1-18.7-8.1c-2.2-0.7-4.3-1.4-6.4-2.2c-1.4-0.5-1.5-1.3-0.1-2
	c2.6-1.3,5.5-1.9,8.4-2.5c3.4-0.7,6.9-1.5,10.4-1.4c1.8,0,3.3,0.5,3.8,2.5c-6.7-1.4-12.9,0.1-19.6,2.3c1.8,1.8,3.8,1.6,5.4,2.3
	c1,0.4,2,0.7,3.1,1c7.1,1.6,13.1,5.3,18.4,10.2c0.6,0.5,1.1,1,1.4,1.7C156.6,278,156.6,278.2,156.4,278.4z"/>
<path class="st99" d="M130.7,229.9c-6.7,4.3-12.3,10-18.7,14.7c-4.7,3.4-10.2,3.9-13.8-1.6c-0.1-0.2-0.6-0.3-0.9-0.4
	c-0.7-1-1.4-2-2-3c-0.3-0.3-0.3-0.6-0.1-1c1.2-0.4,1.6,0.6,2.2,1.2c1.1,1.3,2.2,2.6,3.4,3.7c3,2.8,5.4,2.9,9,0.8
	c4-2.3,7.3-5.6,10.9-8.5c2.2-1.8,4.4-3.7,6.8-5.2c0.9-0.6,1.8-1.3,3-0.9C130.5,229.8,130.6,229.8,130.7,229.9z"/>
<path class="st100" d="M133.7,265.3c-1.8-0.2-3.4-0.7-5.1-1.3c-0.6-0.2-1.4-0.5-1.3-1.3c0.1-0.7,0.8-0.8,1.3-1c4-1.5,8-2.2,12.3-2.5
	c2.4-0.2,4.8-0.7,6.9,1.1c0.5,0.7,1,1.4,1.5,2c0.2,0.5-0.2,0.5-0.5,0.5c-1-0.3-1.6-1.4-2.7-1.6c-1.4-0.5-2.9-0.3-4.4-0.4
	c-1.3,0-2.6-0.2-3.8,0.3c-2,0.7-4.2,0.7-6.2,1.5c-0.6,0.2-1.1,0.3-1.7,0.3c0.6,0,1.2,0.2,1.7,0.3c1,0.3,2.1,0.5,3.2,0.9
	c0.5,0.2,1.2,0.3,0.8,1.2C135,265.6,134.3,265.7,133.7,265.3z"/>
<path class="st101" d="M80.1,254.6c0-0.2,0-0.3,0-0.5c0.2-0.2,0.3-0.2,0.5,0c-0.5,3.8,1.1,6.7,4.2,8.7c1.2,0.8,2.2,2,0.1,2.7
	c-4.9,1.5-8.8,4.3-11.9,8.3c0.5-2.4,2.1-4.2,3.5-6c0.8-0.9,1.7-1.6,2.8-2c0.8-0.3,1.7-0.6,2.4-1c1.1-0.8,0.5-1.5-0.2-2.1
	c-0.8-0.8-1.5-1.6-2-2.7c-0.1-0.4-0.2-0.8-0.2-1.2C79.4,257.4,79.7,256,80.1,254.6z"/>
<path class="st102" d="M133.7,265.3c0.7,0,1.3,0,2,0c6.9,0.3,12.7,3.2,17.4,8.1c0.7,0.7,1.6,1.2,2.3,1.9c1.1,1.1,1.8,0.6,2.6-0.4
	c0.2,0,0.3,0,0.5,0c0.3,1,0.7,2,1,3c0.5,1.1-0.1,1.4-1,1.3c-0.8-0.1-1.6-0.5-2-1.3c-3.6-2.9-7-6.2-11.2-8.4c-2.9-1.5-5.9-2.3-9-3.2
	C135.3,266,134.4,266,133.7,265.3z"/>
<path class="st103" d="M101.4,261.2c2.8,1.3,5.5-0.4,8.9-0.2c-2.4,1.5-4.3,2.7-6.2,4c-0.7,0.5-1.3,0.1-1.6-0.6
	c-0.6-1.2-1.7-1.8-2.6-2.6C100,260.5,100.8,261.1,101.4,261.2z"/>
<path class="st104" d="M63.5,288.5c0.2-0.1,0.3-0.3,0.5-0.4c0.5,0,1,0,1.6-0.1c0.9,1.6,2.7,2.2,3.9,3.5c1.9,1.9,3.8,3.8,4.2,6.6
	c-1.5,0-1.4-1.6-2.3-2.2c-1.5-1.8-3.2-3.5-4.9-5.2C65.5,289.9,64.5,289.2,63.5,288.5L63.5,288.5z"/>
<path class="st105" d="M148.9,262.7c0.2-0.2,0.3-0.3,0.5-0.5c2.7,3.1,5.3,6.3,7.1,10.1c-0.2,0.2-0.4,0.2-0.7,0.2
	c-2.6-3-5.2-6-7.1-9.5C148.8,263,148.8,262.8,148.9,262.7z"/>
<path class="st106" d="M155.9,272.4c0.2,0,0.4,0,0.6,0c0.5,0.8,1,1.7,1.5,2.5c-0.1,0.7,0.3,1.6-0.7,1.9c-0.7,0.2-1.3-0.1-1.8-0.6
	c-0.8-0.8-1.7-1.5-2.6-2.3c0.2-0.2,0.4-0.3,0.6-0.3C154.7,274,155.6,273.8,155.9,272.4z"/>
<path class="st36" d="M95.3,238.5c0,0.3,0,0.7,0,1c-3.1-3.2-3.1-3.2-6.6,0c0.1-0.3,0.1-0.6,0.2-0.9c0.2-0.7,0.3-1.4,0.7-2
	c0.4-0.5,0.7-1.1,1.2-1.7c0.6-0.8,1.4-1,2.2-0.3C94,235.7,95.3,236.7,95.3,238.5z"/>
<path class="st54" d="M71.6,295.6c1.2,0.4,1.1,1.9,2,2.5c0.1,0.7-0.2,1.5,0.5,2.1c0,0.8,0,1.7,0,2.5c-1.7-0.4-1.5-2-1.9-3.2
	c-0.3-0.9-0.5-1.9-0.9-2.8C71.3,296.3,71.2,295.9,71.6,295.6z"/>
<path class="st107" d="M156.4,277.9c1,0,2,2.2,3,0c0.6,0.5,0.7,1.2,0.2,1.7c-0.7,0.8-1.5-0.3-2.2-0.2c-0.3-0.3-0.7-0.7-1-1
	C156.4,278.3,156.4,278.1,156.4,277.9z"/>
<path class="st99" d="M139.3,232.9c0-0.3,0-0.7,0-1c0.2-0.2,0.3-0.2,0.5,0c0.5,1.4,1.8,2.5,2.1,4
	C140.6,235.2,140.1,233.9,139.3,232.9z"/>
<path class="st108" d="M101.4,261.2c-0.6,0.1-1.2-0.1-1.6,0.6c-0.3-0.2-0.9-0.6-0.6-0.8C99.9,260.5,100.7,260.6,101.4,261.2z"/>
<path class="st109" d="M80.7,254.2h-0.3h-0.3c0.2-0.9,0.2-1.9,1.1-2.5C81.3,252.6,81.1,253.4,80.7,254.2z"/>
<path class="st110" d="M49,301.7c-0.7-0.9-1.8-0.5-2.7-0.6c2.7-1.1,5.4-0.4,8.1,0c0.1,0.5,0,0.8-0.6,0.6
	C52.2,301.7,50.6,301.7,49,301.7z"/>
<path class="st5" d="M49,311.1c0-1.5,0-2.9,0-4.4c0.1,0,0.2,0,0.3,0c0,1.5,0,2.9,0,4.4C49.1,311.1,49,311.1,49,311.1z"/>
<path class="st48" d="M56.8,302.2c1.1,0,2.3,0,2.6,1.5C58.3,303.6,57.4,303.1,56.8,302.2z"/>
<path class="st111" d="M53.8,301.7c0.2-0.2,0.4-0.4,0.6-0.6c0.8,0.1,1.5,0.3,2,1C55.5,302.3,54.6,302.3,53.8,301.7z"/>
<path class="st112" d="M71.6,296.6c0.8,2,1.7,4.1,2.5,6.1c-0.2,2.2,0.9,4.8-1.4,6.6c-1.2-1.4-0.1-3-0.3-4.6
	c-0.2-1.9-1.3-3.6-0.8-5.6c-0.2-0.8-0.4-1.7-0.5-2.5C71.2,296.4,71.4,296.4,71.6,296.6z"/>
<path class="st113" d="M71.6,299.1c1.4,3.3,1.6,6.7,1,10.2c-0.4,0.3-0.8,0.6-1.2,0.9c-0.4,0.5-0.9,0.5-1.3,0
	c-0.1-0.1-0.1-0.3-0.1-0.4c1.2-0.2,1.4-1.1,1.6-2c0.4-1.4,0.4-2.7,0-4.1c0-0.5,0-1,0-1.5c-0.9-0.9-1.4-1.8-0.5-3
	C71.2,299.1,71.4,299.1,71.6,299.1z"/>
<path class="st114" d="M70.2,310.2c0.4,0,0.9,0,1.3,0c0.5,0.8-0.3,0.6-0.5,0.6C70.7,310.6,69.8,311.2,70.2,310.2z"/>
<path class="st1" d="M61,313.3c0.1-0.9-0.4-1.8,0.5-2.6C61.3,311.6,61.7,312.6,61,313.3z"/>
<path class="st115" d="M32.2,282c0.3,0,0.7,0,1,0c0.8,0.6,1.9,0.3,2.5,1l0,0c1.1,0.8,2.4,0.2,3.6,0.5c0.5,0.2,1,0.3,1.5,0.3
	c0.9,0.3,1.8,0.2,2.7,0.3c2.8,0.4,5.6,1.3,8.4,1.8c0.5,0.1,1,0.1,1.5,0.3c0.8,0.3,1.7,0.4,2.6,0.6c6.3,1.9,10.7,6.1,14,11.6
	c0.7,1.2,1.1,2.6,1.2,4c0,1.4,0,2.8,0,4.2c0,1.5-0.8,2.3-2.2,1.4c-2-1.2-4.2-2.4-5.8-4.1c1.4,0.2,2.7,0.9,3.8,1.7
	c0.8,0.6,1.5,1.1,2.5,0.6c1-0.6,0.8-1.6,0.7-2.5c-0.2-2.5-1.3-4.7-2.7-6.6c-2.8-3.7-6-7.3-10.6-8.5c-4.9-1.3-9.8-2.6-14.9-2.8l0,0
	c-1.7-0.5-3.5-0.1-5.2-0.5C34.8,284.5,32.7,284.3,32.2,282z"/>
<path class="st115" d="M41.8,301.6c-0.5,0-1,0-1.5,0c6-4.2,12.3-3.8,18.7-1c-0.2,0.3-0.4,0.3-0.6,0c-0.8,0.6-1.6,0.2-2.3-0.1
	c-3.5-1.1-7.1-1.3-10.7-0.5c-0.8,0.4-1.7,0.6-2.5,1C42.4,301.3,42.1,301.5,41.8,301.6z"/>
<path class="st115" d="M58.4,300.7c0.2,0,0.4,0,0.6,0c0.7,0.5,1.4,1,2,1.5C59.8,302.1,58.8,302,58.4,300.7z"/>
<path class="st116" d="M71,302.2c-2.6-7.5-7.9-12.3-15.2-15.1c-0.8-0.6-1.8,0-2.5-0.5c-0.5,0-1,0-1.5,0c-0.3-0.4-0.3-0.7,0-1.1
	c0.7-0.1,1.4-0.3,2,0.1c8.1,1.6,13.2,6.9,17.2,13.7c0.2,1,0.3,2,0.5,3h-0.3L71,302.2z"/>
<path class="st116" d="M71.6,303.7c0.7,1.4,0.8,2.7,0,4.1C71.6,306.4,71.6,305,71.6,303.7z"/>
<path class="st17" d="M42.8,301.1c0.7-0.8,1.5-1,2.5-1C44.6,300.9,43.8,301.2,42.8,301.1z"/>
<path class="st117" d="M212,191.5c-3.8,2.6-7.5,5.5-10.7,8.9c-0.6,0.7-1.5,1.2-1.5,2.2c-0.8,1.5-1.6,3.1-3,4.2
	c-0.3,0-0.5-0.1-0.6-0.3c-0.2-1.8,1.5-2.6,2.2-4c0.3-0.5,0.7-1,1-1.5c3-2.9,6.1-5.7,9.1-8.6c0.2,0,0.3,0,0.5,0c1-0.5,2-1,3-1.5
	C212,191.2,212,191.4,212,191.5z"/>
<path class="st11" d="M211.5,185.5c-1-1.3-1.1-2.7-0.7-4.4c0.3-1.5,0.2-3.1,0.2-4.7C212.1,179.3,211.2,182.4,211.5,185.5z"/>
<path class="st118" d="M198.3,202.6c-0.2,1.6-1.8,2.5-2,4c0.4,0.8-0.3,1.3-0.6,1.8c-2.4,3.3-4,7-6.3,10.3c-1.4,2.1-2.4,4.4-3.9,6.4
	c-1.3,1.9-2.6,3.9-4.4,5.4c-0.7,0.6-1.4,1.6-2.6,0.8c-0.2-0.4-0.1-0.7,0.1-1.1c0.9-1,1.8-2,2.6-2.9c1-0.6,1.8-1.3,2.1-2.5
	c0.5-0.2,0.8-0.5,0.9-1c2.4-3.7,4.8-7.4,6.6-11.5c1-0.4,1.4-1.2,1.5-2.2c0.9-0.4,1.1-1.3,1.5-2c0.2-0.3,0.4-0.6,0.5-0.9
	c0.7-1,1.4-2,2-3c0.3-0.4,0.6-0.7,1-1.1C197.7,203,198,202.8,198.3,202.6z"/>
<path class="st119" d="M172.6,234.5c-0.7,0-1.3,0-2,0c1.3-0.9,2.7-1.7,4-2.6c0.5-0.2,1-0.4,1.5-0.6v0.2c0.1,1.6-1.6,1.9-2.3,2.9
	C173.4,234.7,173,234.9,172.6,234.5z"/>
<path class="st65" d="M173.7,234c0.4-1.2,2-1.3,2.5-2.5c0.3-0.2,0.7-0.4,1-0.5c0.5-0.2,0.9-0.4,1.4-0.6c0,0.4,0,0.7,0.1,1.1
	C177.5,233.2,176.1,234.7,173.7,234z"/>
<path class="st33" d="M64.5,260.7c-1.4,2.2-3.4,3.4-6.1,3.5C60.1,262.5,62.3,261.6,64.5,260.7z"/>
<path class="st120" d="M132.2,209.2c0.5,0.2,1,0.3,1.5,0.5c5.3,2.7,5,6.4,2.6,11.6c-1.1,1.6-2.4,2.8-4.2,3.4
	c-5.4,1.8-10,5.3-15.4,7.4c-3.7,1.4-7.3,1.7-11.1,1.4c-2.8-0.2-4.8-2.1-6.3-4.2c-1.2-1.6,0.7-1.3,1.5-1.6
	c12.7,1.4,22.3-5.7,32.3-11.8c-1.1-0.3-1.9,0.4-2.7,0.9c-3.5,2-6.9,4.2-10.5,5.9c-1.1,0.5-2.2,1.2-3.6,0.8c-0.5-2.1,1.9-1.9,2.5-3
	c2.2-1.6,4.2-3.6,6.8-4.8c0.2-0.1,0.3-0.1,0.5-0.2c1.2-1,2.9-1.7,2.4-3.7c-0.3-1.2-2.7-1.9-4.7-1.3c-2.9,0.8-4.4,3.3-6.3,5.3
	c-1.5,1.6-2.6,3.5-4.2,5c-1.4,1.3-1.4,2.3,0.7,2.6c0.4,0.1,0.8,0.3,0.8,0.8c-0.8,1.8-2.6,2-4.2,2.3c-5.5,1-11,1.1-16-1.9
	c-1.3-0.8-2.9-1.5-3.2-3.3c-0.3-0.8-0.9-1.2-1.5-1.5c-1.1-0.7-1-1.7-0.6-2.7c0.8-2.2,1.7-4.4,3.6-5.9c3-2.4,5.5-5.4,8.6-7.7
	c4.3-2.4,9-1.3,13.5-1.2c0.6,0,1.2,0.1,1.7,0.2c1.5,0.1,2.6,0.8,3.5,2c0.7,0.5,1.5,0.7,2.2,1.1c1.2,0.5,2.5,1,3.7,1.5
	C128,208,130.3,208,132.2,209.2z"/>
<path class="st104" d="M135.2,189c1.1,1.5,2.5,2.9,2.5,5c-1.1-2.3-3.5-3.7-4.6-6C134.4,187.2,134.6,188.4,135.2,189z"/>
<path class="st121" d="M132.2,209.2c-2.1-0.6-4.3-0.9-6.2-2.1c2.1,0.1,4.2,0.6,6.1,1.5C132.2,208.9,132.2,209,132.2,209.2z"/>
<path class="st122" d="M135.2,189c-0.7-0.3-1.1-1.1-2.1-1c-0.1,0-0.3,0-0.4,0c0-0.3,0-0.7-0.1-1c0.9-0.7,1.5-0.3,2,0.5
	C134.8,188,135,188.5,135.2,189z"/>
<path class="st123" d="M122.3,205.7c-0.9,0-1.7-0.3-2.2-1.1C121,204.5,121.7,205,122.3,205.7z"/>
<path class="st124" d="M101.3,203.5c-1.7,2.4-3.8,4.4-6.1,6.2c-2.5,2-4.6,4.3-5.6,7.5c-0.3,0.9-0.5,1.7,0,2.6
	c-2-0.2-2.3-1.5-1.9-3.1c0.7-2.8,2.7-4.8,4.9-6.5c1.2-0.9,2.4-1.8,3.1-3.2c1.3-1.8,3.5-2.5,5.1-3.9
	C101,203.3,101.2,203.4,101.3,203.5z"/>
<path class="st125" d="M189.2,218.8c1.9-4.3,4.5-8.2,7.1-12.1c0.2,0,0.3,0,0.5,0c0.3,0.3,0.3,0.7,0,1c-2.2,3.5-4.4,7.1-6.6,10.6
	c-0.2,0.2-0.3,0.3-0.5,0.5C189.6,219,189.4,219,189.2,218.8z"/>
<path class="st47" d="M196.8,207.7c0-0.3,0-0.7,0-1c1-1.3,1.6-3,3-4c0.2,0,0.3,0,0.5,0c-0.2,0.5-0.3,1-0.5,1.5
	C198.4,205,198.3,206.9,196.8,207.7z"/>
<path class="st53" d="M50.8,269.8c-1.9,2.1-4.5,3.1-7.1,4C45.7,271.8,48.3,270.8,50.8,269.8z"/>
<path class="st64" d="M66,258.7c0.9-0.6,0.8-2.1,2-2.5c-0.7,1.8-1.1,3.7-2.5,5.1C65.7,260.4,65.8,259.6,66,258.7z"/>
<path class="st53" d="M43.8,273.9c-0.5,1-1.5,1.3-2.5,1.5C41.8,274.4,42.6,273.7,43.8,273.9z"/>
<path class="st126" d="M72.6,251.1c-0.2,0.7-0.3,1.3-0.5,2c-0.5,0.4-0.5,1-0.4,1.6c0.3,1-0.1,1.8-0.7,2.6c-0.7,0.6-1.2,1.2-1.3,2.1
	c-0.1,0.3-0.2,0.7-0.3,1c-0.9,1.2-1.4,2.7-2.5,3.7c-1.5,1.4-2.8,3-4.9,3.6c-0.5,0-1,0-1.4-0.5c0.6-0.9,2.1-0.8,2.5-2
	c3-1.7,4.1-4.7,5.5-7.5C69.6,255.5,70.5,253,72.6,251.1z"/>
<path class="st64" d="M68,256.2c0-1.3,0.4-2.4,1.5-3C69.3,254.3,68.9,255.3,68,256.2z"/>
<path class="st64" d="M70,252.1c0-1,0.7-1.6,1.5-2C71.5,251.1,70.9,251.7,70,252.1z"/>
<path class="st127" d="M189.2,218.8c0.2,0,0.4,0,0.5,0c-1.8,3.4-3.4,6.9-5.7,10c-2.4,3.4-5.7,5.3-9.5,6.6c0.2-2,2.2-2.1,3.4-2.9
	c3.1-2,5.6-4.4,7.2-7.7C186.7,222.9,187.4,220.5,189.2,218.8z"/>
<path class="st102" d="M185.2,224.9c-0.8,3.7-3.7,5.5-6.3,7.7c-1.3,1.1-3.2,1.5-4.3,2.9c-1,0.4-1.9,1.1-3,1c0-0.2,0-0.4,0-0.6
	c-0.2-0.1-0.2-0.2-0.2-0.3c0.1-0.1,0.1-0.1,0.2-0.1c0.3-0.3,0.7-0.7,1-1c0.4,0,0.8,0,1.1-0.4c2.1-0.1,3.3-1.7,5-2.6
	c2.4-0.9,3.8-2.9,5.2-4.9C184.3,226,184.4,225.2,185.2,224.9z"/>
<path class="st128" d="M89.7,237c-0.3,0.5-0.6,1.1-0.9,1.6c0-1,0-2,0-3c0.3-1.6,0.3-3.2,0.4-4.7c0.1-0.8-0.2-1.8,0.8-2.2
	s1.8,0.3,2.5,0.9c2,2,3.8,4.3,5.7,6.4c0.5,0.5,0.8,1.1,1.3,1.5c3,3,5.8,3.5,9.8,1.5c1.6-0.8,3.1-1.6,4.7-2.5c2.2-1,4.4-2,6.5-2.9
	c0.1,1.4-1.1,1.9-1.8,2.7c-0.8,0.5-1.4,1-2,1.7c-1.8,1.3-3.4,3-5.4,4c-0.7,0.3-1.5,0.5-2.1,0.9c-0.2,0.1-0.4,0.2-0.6,0.3
	c-3.5,1.8-6.4,0.8-9.1-1.9c-2.5-2.4-4.4-5.3-6.8-7.8c-0.4-0.4-0.8-1.1-1.4-0.9c-0.7,0.2-0.3,1-0.5,1.6
	C90.5,235.2,90.2,236.1,89.7,237z"/>
<path class="st129" d="M114,236.5c-4.2,5.6-11.8,5.8-16,0.3c-1.9-2.4-4-4.7-6.1-7c-0.4-0.4-0.8-1-1.5-0.8c-0.9,0.2-0.6,1.1-0.7,1.7
	c-0.3,1.6-0.3,3.3-0.9,4.9c0-2.6,0-5.3-0.1-7.9c0-0.9,0-1.8,1-2.3c1.3,1.2,2.7,2.3,4,3.5c2.7,2.8,5.1,5.8,8.5,7.7
	c1.1,0.6,2.2,1,3.4,0.7c2.2-0.5,4.5-0.4,6.7-0.7C113,236.5,113.5,236.5,114,236.5z"/>
<path class="st130" d="M111,241.5c1.9-1.3,3.7-2.7,5.6-4c0.7-0.5,1.3-1,2-1.5c0.7-0.8,1.3-1.6,2-2.4c0.8-1.4,2.5-2,3.6-3.1
	c0.2-0.7,0.7-1,1.4-0.6c2.7-1.7,5.7-2.8,8.6-4c3.3,0.7,4.7,3.1,5.6,6.1c-0.2,0-0.3,0-0.5,0c-0.2-0.2-0.3-0.3-0.5-0.5
	c-0.5-0.9-1.2-1.4-2-1.9c-3.4-2-6.4-0.6-9.2,1.1c-3.9,2.3-7.1,5.6-10.6,8.5c-2.2,1.8-4.4,3.6-6.9,5c-1.8,1-3.7,1.6-5.8,1.4
	c-1.2-0.1-2.6-0.3-2.3-2.1c2.4,0.6,4.8,0.7,7-0.9l0,0C109.6,242.2,110.4,242.1,111,241.5z"/>
<path class="st131" d="M100.9,228.4c-0.5,0-1,0.1-1.5,0.1c3.8,4.5,8.1,5.8,13.7,4.1c2.4-0.7,4.7-1.7,7-2.7c3.5-1.6,6.8-3.7,10.5-4.8
	c2.2-0.7,3.8-2.3,5.6-3.8c-0.9,2.9-3.5,3.5-5.9,4.5c-1.4,0.6-3.1,0.8-4.2,2c-0.6,1.2-1.9,1.6-3,2c-0.2,0.2-0.3,0.3-0.5,0.5
	c-3.7,1.8-7.3,4.2-11.6,4.3c-6.3,1.3-10.7-1.8-14.5-6.2c-0.3-0.4-0.5-0.9,0-1.3C98.1,227.2,99.8,226.5,100.9,228.4z"/>
<path class="st132" d="M112.4,236.6c-2.3,0.5-4.7,1-7,1.4c-1.5,0.3-2.8-0.3-3.9-1.2c-3-2.2-5.9-4.6-7.7-8c1.6,1,3.1,2.3,4.3,3.8
	c2.6,2.9,5.7,4.2,9.6,4C109.3,236.5,110.9,236.6,112.4,236.6z"/>
<path class="st133" d="M96.3,227.3c3.6,5,8.2,7.9,14.6,7.1c0.2,0.1,0.2,0.2,0.2,0.3c-0.1,0.1-0.1,0.2-0.2,0.2
	c-4.9,1.3-9-0.2-12.5-3.6c-2-1.9-3.8-4.1-6.2-5.5c0.2-0.2,0.4-0.4,0.6-0.6C94.5,225.2,95.8,225.6,96.3,227.3z"/>
<path class="st134" d="M111,235c0-0.2,0-0.3,0-0.5c4.2-0.5,7.6-3,11.6-4.1C119.1,233,115.5,235.2,111,235z"/>
<path class="st134" d="M123.1,229.9c0.7-1.2,2-1.3,3-2c0.3,0,0.7,0,1,0c-0.2,0.9-1.5,0.9-1.5,1.9c-0.5,0.2-0.9,0.4-1.4,0.6
	C123.8,230.3,123.4,230.1,123.1,229.9z"/>
<path class="st47" d="M209,195.1c-1.5,1.9-3.1,3.8-5.6,4.5C205,197.8,206.7,196.1,209,195.1z"/>
<path class="st101" d="M43.3,276.8c3.3-2.6,7.2-4.3,10.8-6.3c1.9-1,3.5-2.7,5.8-2.7c0.2,1.1-1.1,1.3-1.3,2.2c-0.5,0.4-1,0.6-1.5,0.8
	c-0.8,0.3-1.5,0.8-2.2,1.1c-3.3,1.4-6.2,3.5-9.5,4.8C44.6,277,44,277.6,43.3,276.8L43.3,276.8z"/>
<path class="st2" d="M58.4,269.8c-0.1-1.1,1.1-1.3,1.5-2c0.2-0.2,0.3-0.3,0.5-0.5c0.5,0,1,0,1.5,0c0.2,0.1,0.2,0.3,0.2,0.5
	c-0.2,0.5-0.8,0.6-1.2,0.9c-0.5,0.3-1,0.7-1.5,1C59.1,270.1,58.7,270.1,58.4,269.8z"/>
<path class="st92" d="M40.2,277.9c-1.3,0.8-2.7,0.8-4,0C37.5,277.9,38.9,277.9,40.2,277.9z"/>
<path class="st92" d="M36.2,277.9c-1.1,0-2.2,0-3-1C34.3,276.9,35.3,277.2,36.2,277.9z"/>
<path class="st92" d="M33.2,276.9c-0.9,0-1.6-0.1-2-1C32,276,32.7,276.2,33.2,276.9z"/>
<path class="st116" d="M134.2,167.3c-1.1,0.9-2.4,1-3.8,1c-0.8,0-1.5-0.3-1.9-1c-1-1.4-0.5-7.9,0.8-9.1c0.3-0.3,0.9-0.4,1.3-0.6
	c1.6-0.6,2.8,0.4,4,1c0.2,0.2,0.3,0.3,0.5,0.5c0.9,0.6,1.7,1.3,2.2,2.3c1.7,2.8,1,4.5-2.1,5.5C135,167.1,134.5,166.9,134.2,167.3z"
	/>
<path class="st45" d="M134.2,167.3c5.1-2.7,5.1-2.9,1-8.1c2.5,0.6,3.1,2.8,3.7,4.7c0.5,1.4-1.2,2-2.1,2.8
	C136.1,167.3,135.2,167.4,134.2,167.3z"/>
<path class="st45" d="M134.7,158.7c-1.3-0.3-2.7-0.7-4-1C132.3,156.7,133.6,157.4,134.7,158.7z"/>
<path class="st135" d="M71.6,296.6c-0.2,0-0.3,0-0.5,0c-1.5-1.8-3.1-3.7-4.6-5.5c-0.1-0.1-0.2-0.3-0.1-0.4s0.1-0.2,0.2-0.2
	c1.9,1.5,3.6,3.2,5,5.1C71.6,295.9,71.6,296.3,71.6,296.6z"/>
<path class="st87" d="M66.5,290.5c0,0.2,0,0.4,0,0.6c-1.2-0.7-2.4-1.3-3-2.6C64.8,288.7,65.8,289.4,66.5,290.5z"/>
<path class="st13" d="M53.9,285.5c-0.7,0-1.3,0-2,0c-1.2,0.4-2.2,0.1-3.1-0.7c0-0.3,0.1-0.5,0.4-0.6c0.9,0.1,1.8-0.2,2.7,0.3l0,0
	C52.3,285.3,53.4,284.7,53.9,285.5z"/>
<path class="st136" d="M96.3,227.3c-0.9-1.1-2.3-1.3-3.5-2c-1.1-1.7-3.7-2.1-3.9-4.6c1-0.5,1.4,0.8,2.3,0.7c6.2,5.9,13.5,6.1,21.2,4
	c0.8-0.2,1.9-0.4,2.3-1.4c0.4-0.5,0.9-0.6,1.4-0.3c5.1-1.7,9.5-4.8,14.2-7.5c1.3-0.7,3.2-2.3,4-1c0.9,1.5-1.6,2.1-2.8,2.8
	c-5.2,3-10.3,6.3-16,8.5c-4.7,1.9-9.6,2.1-14.6,1.9C99.4,228,97.8,227.7,96.3,227.3z"/>
<path class="st137" d="M171.6,235.5c0,0.2,0,0.3,0,0.5c-0.9,0.1-1.6,0.7-2.6,0.5C169.7,235.7,170.6,235.4,171.6,235.5z"/>
<path class="st5" d="M32.2,282c1.8,2.8,4.8,2.4,7.5,3c0.7,0.2,1.5-0.2,2.1,0.5c-2,0-4,0-6.1,0c-2-1.1-4.3-2-5.1-4.5
	C31.1,281.3,31.7,281.6,32.2,282z"/>
<path class="st138" d="M35.7,283c-1,0-1.9-0.2-2.5-1C34.1,282.2,35.4,281.3,35.7,283z"/>
<path class="st48" d="M37.7,282c0.4,0.8,1.6,0.2,2,1c-0.5,0.6-1.3,0.4-2,0.6c-0.4,0-0.7-0.1-0.5-0.6C36.9,282.4,36.8,281.9,37.7,282
	z"/>
<path class="st138" d="M37.2,283c0.1,0.2,0.3,0.3,0.4,0.5c0.6-0.1,1.4-0.7,1.6,0.5c-1.3,0-2.6,0.1-3.5-1C36.2,283,36.7,283,37.2,283
	z"/>
<path class="st139" d="M69,260.2c0-0.3,0.1-0.6,0.1-0.9c0.5-0.7,0.7-1.6,1.4-2.2c0.4-0.8,0.8-1.6,1.2-2.4c1,0,1.1-1.3,1.9-1.6
	c0,0.3,0,0.7,0,1c-1,1.2-1.5,2.6-2.1,4c-0.8,1.5-2.1,2.8-2.5,4.6c-0.3,0.4-0.5,0.9-1.1,0.4C67.6,262,68.6,261.2,69,260.2z"/>
<path class="st27" d="M27.1,274.9c0-0.4,0-0.7,0-1.1c1,0.7,1.8,1.6,2.5,2.6c0,0.2,0,0.3,0,0.5c-0.9,0.3-1-0.7-1.6-1
	C27.7,275.6,27.4,275.2,27.1,274.9z"/>
<path class="st76" d="M28,275.9c0.5,0.3,1,0.7,1.6,1c0.2,0.2,0.3,0.3,0.5,0.5c0,0.2,0,0.3,0,0.5C29,277.8,28.3,277,28,275.9z"/>
<path class="st2" d="M43.3,276.9c3.5-0.6,6.1-3,9.1-4.5c0.8-0.4,1.5-1.1,2.5-1.1c0.1,1.8-1.7,1.6-2.5,2.5c-0.7,0.3-1.3,0.7-2,1
	c-2.4,0.9-4.5,2.6-7.1,3C43.3,277.6,43.3,277.3,43.3,276.9z"/>
<path class="st95" d="M77.1,266.3c1.1-3.1,0.8-6.4,1.5-9.6l0,0c1,2.3,1,4.7,1.1,7.1c0,1.2-0.7,2-1.8,2.6
	C77.6,266.5,77.3,266.5,77.1,266.3z"/>
<path class="st15" d="M77.1,266.3c0.2,0,0.4,0,0.5,0c0.8-0.3,1.2-1.6,2.4-1.1c0.5,0.6,0,0.8-0.4,1.1c-1,0.5-2,1-3,1.5
	c0-0.2,0-0.4,0-0.6C76.8,266.9,76.9,266.6,77.1,266.3z"/>
<path class="st79" d="M68,263.3c0.3-0.2,0.6-0.4,1-0.5c0,0.2,0,0.3,0,0.5c-1.4,1.9-2.4,4.2-4.6,5.6c-0.8,0.3-1.7,0.7-2.5,1
	c0.2-0.3,0.3-0.7,0.5-1c0.7-1.4,2.2-1.9,3-3.2c0.3-0.6,0.8-1,1.2-1.5C67,263.6,67.4,263.2,68,263.3z"/>
<path class="st140" d="M134.7,187.5c-0.6-0.4-1.2-0.6-2-0.5c-0.1-0.1-0.2-0.2-0.1-0.4c1.2-2.4,1.5-0.1,2.1,0.4
	C134.7,187.2,134.7,187.3,134.7,187.5z"/>
<path class="st141" d="M52.3,273.9c0.5-1.1,2.1-1.2,2.5-2.5c0.7-0.3,1.4-0.6,2-1c0.3,0.3,0.3,0.7,0,1c-0.8,0.7-1.7,1.3-2.5,2
	c-0.5,0.2-1,0.3-1.5,0.5C52.7,273.9,52.5,273.9,52.3,273.9z"/>
<path class="st142" d="M66,265.8c-0.8,1.4-2.1,2.4-3.5,3c-0.5,0-1,0-1.6,0c0.3-0.3,0.7-0.6,1-1C63.4,267.3,64.1,265.4,66,265.8z"/>
<path class="st142" d="M56.9,271.4c0-0.3,0-0.7,0-1c0.5-0.2,1-0.4,1.5-0.6c0.3,0,0.7,0,1,0C58.9,270.9,57.9,271.1,56.9,271.4z"/>
<path class="st45" d="M39.2,284c-0.4-0.6-1-0.5-1.6-0.5c0.6-0.7,1.4-0.4,2.1-0.4c1.5,0.5,3,0.5,4.5,0.5c1.4,0.6,3.2,0,4.6,1
	c1,0.3,2,0.6,3.1,1c0,0.3,0,0.7,0,1c-2.9-0.7-5.7-1.3-8.6-2c-0.8-0.6-1.8,0.1-2.5-0.5C40.2,284,39.7,284,39.2,284z"/>
<path class="st13" d="M48.8,284.5c-1.6,0-3.1-0.2-4.6-1c0.7,0,1.4,0,2.1,0c0.1,0,0.3,0,0.4,0C47.3,284.2,48.7,283,48.8,284.5
	L48.8,284.5z"/>
<path class="st43" d="M48.8,284.4c-0.5-0.8-1.6-0.2-2-1c0.8,0,1.7,0,2.5,0c0.6,0.9,1.9,0.1,2.5,1C50.9,284.5,49.9,284.5,48.8,284.4z
	"/>
<path class="st15" d="M80.1,259.2c0,0.3,0,0.7,0,1c0.3,0.4,0.3,0.8-0.2,1.1c-1.8-1.3-1-3-0.8-4.6c0-0.3,0-0.7,0-1c0.2,0,0.3,0,0.5,0
	C80.3,256.8,79.5,258.1,80.1,259.2z"/>
<path class="st109" d="M80.1,259.2c-1-1.1-0.3-2.4-0.5-3.6c0.2-0.4,0.3-0.7,0.5-1.1C80.1,256.2,80.1,257.7,80.1,259.2z"/>
<path class="st82" d="M79.1,256.7c0.2,1.6-0.4,3.3,1,4.6c0.1,0.1,0.2,0.2,0.3,0.2c0.5,1.2,1,2.4,0,3.6c-0.1,0.1-0.2,0.1-0.3,0.2
	c-0.8,0.3-1.7,0.7-2.5,1c1.6-1.5,1.8-3.3,1.2-5.4c-0.4-1.3-0.1-2.8-0.2-4.2C78.8,256.7,79,256.7,79.1,256.7z"/>
<path class="st99" d="M137.2,229.4c0.8,0.5,1.5,1,1.5,2c-2.4-2.2-5.3-1.4-8.1-1.5l0,0c1-2.2,2.9-1.4,4.5-1.4
	C135.9,228.6,136.6,229,137.2,229.4z"/>
<path class="st102" d="M137.2,229.4c-2.2-0.2-4.5-1.5-6.6,0.5c-2.6,0-4.2,2-6,3.4c-3.6,2.7-6.8,5.9-10.4,8.6
	c-2.9,2.2-5.7,4.6-9.7,4.4c-1.3,0-2-0.5-2.8-1.2c-2.4-1.9-4.1-4.6-6.4-6.7c-0.2-0.3-0.5-0.7-0.8-1c-2.4-3-2.4-3-4.8-0.5
	c-0.2-1.1,0.3-2,0.5-3c0.7-2.2,1-2.4,2.6-0.6c3.1,3.3,5.6,7.2,9,10.2c2.1,2,4.7,2,8.2-0.1c3.7-2.2,6.9-4.9,10-7.8
	c3-2.8,6.2-5.4,10-7C132.5,227.7,135.1,226.9,137.2,229.4z"/>
<path class="st54" d="M153.4,273.9c-0.2,0-0.4,0-0.5,0c-3.3-3-6.8-5.7-11.2-7c-2-0.6-4.1-0.5-6-1.6c-1.3-1-3.1-0.7-4.5-1.5
	c-0.8-0.5-0.8-1,0-1.5c2.1-1.1,4.4-1.1,6.6-1.5c1.3-0.7,2.8,0.2,4-0.5c1.7,0,3.4-0.1,5,0.5c0.2,0.2,0.2,0.5,0,0.7
	c-1.3,0.8-2.8,0.5-4.2,0.5c-2.7,0-5.3,0.3-8.6,1.2c1.8,0.7,3.2,0.9,4.5,1.1c5.4,1,10,3.3,13.7,7.4
	C152.8,272.2,153.7,272.7,153.4,273.9z"/>
<path class="st105" d="M141.8,260.2c-1.2,1-2.7,0.3-4,0.5C139,259.7,140.4,260.4,141.8,260.2z"/>
<path class="st105" d="M146.8,261.3c0-0.2,0-0.3,0-0.5c0.9,0.5,1.5,1.2,2,2v0.1C147.4,263.2,146.8,262.6,146.8,261.3z"/>
<path class="st105" d="M131.2,262.2c-0.3,0.5-0.3,1,0,1.5c-0.5-0.1-1.3-0.1-1.2-0.9C130.1,262.3,130.7,262.3,131.2,262.2z"/>
<path class="st9" d="M80.1,261.2c0-0.3,0-0.7,0-1c0.7,0.7,1.3,1.4,2,2c0.6,1,1.4,2,0,3c-0.8,0.3-1.7,0.7-2.5,1
	c0.2-0.3,0.3-0.7,0.5-1C81.5,263.9,80.6,262.6,80.1,261.2L80.1,261.2z"/>
<path class="st109" d="M82.2,265.3c0.8-1,0.2-2,0-3C83.4,263.3,84,264.3,82.2,265.3z"/>
<path class="st83" d="M146.8,261.3c0.5,0.8,1,1.4,2,1.5c2.3,3.2,5.1,6.1,7.1,9.6c0,0.8,1.1,1.6,0.2,2.2c-1,0.7-1.7-0.5-2.6-0.7
	c-4.5-5.9-10.7-8.6-17.8-9.6c-0.2,0-0.5,0-0.7-0.1c-0.7-0.3-1.8-0.2-1.9-1c-0.1-1.2,1.1-0.9,1.9-1.1
	C138.8,261,142.8,261.2,146.8,261.3z"/>
<path class="st138" d="M40.7,284c0.9,0.1,1.8-0.3,2.5,0.5C42.4,284.4,41.5,284.8,40.7,284z"/>
<path class="st138" d="M53.4,286.5c0.9,0.1,1.8-0.4,2.5,0.5C55,286.9,54.1,287.3,53.4,286.5z"/>
<path class="st143" d="M116,223.6c-0.4,0.5-0.9,0.3-1.4,0.3c-1.1-0.3-2.9,0.6-3.4-0.9c-0.4-1.3,1-2.2,1.8-3.1
	c2.6-2.6,4.5-5.8,7.2-8.3c1.7-1.6,3.6-2.1,5.7-1.9c1.3,0.1,2.5,0.7,3,2s-0.2,2.3-1.2,3.1c-0.7,0.6-1.2,1.5-2.2,1.5
	c-0.3-1.1,0.7-1.6,1.1-2.4c0.8-1.4,0.4-2.3-1.2-2.5c-1.5-0.2-2.8,0.3-3.9,1.4c-2,2-4.2,3.9-5.8,6.3c-0.5,0.8-1.6,1.2-1.7,2.4
	c1.5,0.5,2.6-0.7,3.9-1c0.4,0,0.7,0,1,0.3C118.5,222.3,116.4,221.9,116,223.6z"/>
<path class="st144" d="M105.4,215.3c0.3-2.6,2-4.7,2.3-7.4c0.1-0.8,1.1-1.9,2.3-1.6c1.3,0.4,1.1,1.5,0.8,2.5c-0.2,1-0.6,1.9-0.9,2.9
	c-0.4,0.6-0.5,1.4-1,2c-0.4,0.2-0.5,0.6-0.5,1c-0.4,0.6-0.9,1.2-1.4,1.7c-0.4,0.5-1,0.8-1.5,0.3
	C104.9,216.4,105.1,215.8,105.4,215.3z"/>
<path class="st145" d="M115.5,218.8c1.5-3,4.2-4.9,6.5-7.1c0.6-0.6,1.8-0.8,2.8-0.9c1.2-0.2,2.4,0.1,3,1.4c0.5,1.1-0.3,1.9-0.9,2.6
	c-0.4,0.5-0.8,1-1.3,1.5c-2.2,1.5-4.4,3-6.6,4.6c-0.3,0-0.7,0-1,0c-0.2-1.2,0.8-1.5,1.5-2.1c1.8-1.4,3.8-2.5,5.5-4.1
	c0.5-0.5,1-1.1,0.5-1.8c-0.4-0.7-1.2-0.6-1.8-0.4c-0.9,0.2-1.5,0.7-2.1,1.3c-1.3,1.3-2.7,2.6-3.9,4
	C117.2,218.5,116.7,219.5,115.5,218.8z"/>
<path class="st146" d="M105.4,215.3c0.1,0.8,0,2,1.3,0.9c0.6-0.4,1.1-1,1.7-1.4c-0.7,2.2-2.1,3.8-4.5,5
	C104,217.8,104.3,216.4,105.4,215.3z"/>
<path class="st147" d="M115.9,205.7c0.1,0.7-0.3,1.1-0.9,1c-1.3-0.3-2.8-0.5-3.3-1.8c-0.3-0.8,0.7-0.7,1.2-0.7
	C114.2,204,115.5,204.2,115.9,205.7z"/>
<path class="st148" d="M102.9,204.6c0.4,0.1,1.3-0.2,1.1,0.5c-0.4,1-1.4,1.6-2.5,1.9c-0.5,0.1-1.1-0.3-1-0.8
	C100.7,204.9,101.8,204.7,102.9,204.6z"/>
<path class="st146" d="M108.9,213.8c0.1-0.8,0.4-1.5,1-2C110,212.6,109.9,213.4,108.9,213.8z"/>
<path class="st59" d="M66,265.8c-1.6,0.2-2.3,2-4,2c0-0.2,0-0.3,0-0.5c1.5-1.2,3-2.3,4.6-3.5c0.2,0.1,0.4,0.3,0.5,0.5
	C66.7,264.8,66.3,265.3,66,265.8z"/>
<path class="st28" d="M67,264.3c-0.2-0.2-0.3-0.3-0.5-0.5c1-1.1,1.2-2.7,2.5-3.6c-0.3,1-0.6,2-1,3.1C67.7,263.6,67.3,263.9,67,264.3
	z"/>
<path class="st149" d="M70.5,257.1c-0.4,0.8-0.1,1.9-1.4,2.2C69.1,258.3,69.4,257.4,70.5,257.1z"/>
<path class="st105" d="M101.9,243.6c-2.8-0.9-3.7-3.7-5.5-5.6c-1.3-1.4-2.5-2.9-3.7-4.4c-1.1-1.5-1.8-0.8-2.4,0.4
	c0.1-0.8-0.4-1.9,0.5-2.3c1.1-0.5,1.6,0.6,2.2,1.2c2.1,2.3,4.1,4.6,6,7c2.7,3.3,5.9,4.6,10,2.6C106.8,244.8,104.4,244.1,101.9,243.6
	z"/>
<path class="st105" d="M118.5,236c-0.4,0.8-1,1.5-2,1.5C117,236.7,117.5,236,118.5,236z"/>
<path class="st105" d="M111,241.5c-0.4,0.9-1.2,1.1-2,1C109.5,241.9,110.2,241.6,111,241.5z"/>
<path class="st150" d="M131.1,167.3c-2,0.2-2-1.3-2-2.8c0-4.2,0.6-5.7,2.8-5.8c2-0.1,4.8,2.6,4.8,4.7
	C136.8,165.1,133.7,167.3,131.1,167.3z"/>
<path class="st15" d="M80.1,261.2c1,1.3,1.9,2.7,0,4C80.8,263.9,80,262.6,80.1,261.2z"/>
<path class="st151" d="M115.5,218.8c2.4-1.5,4-3.9,6-5.8c0.9-0.8,1.8-1.4,3.1-1.3c0.8,0.1,1.5,0.1,1.9,1c0.3,0.8,0,1.5-0.6,2
	c-2.1,2-4.5,3.4-6.8,5.1c-0.4,0.3-0.7,0.7-1.1,1c-0.3,0.2-0.5,0.5-0.8,0.6c-1.3,0.7-3.1,1.8-4,0.4
	C112.5,220.5,114.5,219.7,115.5,218.8z"/>
<g id="Layer_2">
</g>
<polygon class="st152" points="236.9,0.8 236.9,263.8 287.9,263.8 287.9,185.9 329.9,137.9 401.9,263.7 466.3,263.7 368.3,91.6 
	446.2,0.9 380.3,0.9 286.9,116.8 287.8,1 "/>
<polygon class="st152" points="527.7,0.4 592.5,194.3 651.7,0.2 710.1,0 616.8,264.3 565.9,264.4 471.7,-0.1 "/>
<polygon class="st152" points="760,1.1 760.3,262.3 809.9,263.9 810.6,111 881.1,264.1 952.9,112.1 953.9,263.9 1005.9,263.9 
	1006.2,0.9 953.8,0.9 881.8,160.9 810.8,0.9 "/>
<radialGradient id="SVGID_1_" cx="81.3333" cy="15.6667" r="24.2991" fx="84.0335" fy="9.5298" gradientUnits="userSpaceOnUse">
	<stop  offset="0" style="stop-color:#FFFFFF"/>
	<stop  offset="0.145" style="stop-color:#BFE0F0"/>
	<stop  offset="0.2914" style="stop-color:#87C5E2"/>
	<stop  offset="0.4337" style="stop-color:#58AED6"/>
	<stop  offset="0.5682" style="stop-color:#339CCE"/>
	<stop  offset="0.693" style="stop-color:#198FC7"/>
	<stop  offset="0.8044" style="stop-color:#0988C3"/>
	<stop  offset="0.8914" style="stop-color:#0385C2"/>
</radialGradient>
<circle class="st153" cx="72.7" cy="31" r="29"/>
<radialGradient id="SVGID_2_" cx="221.3333" cy="115" r="24.2991" fx="224.0335" fy="108.8632" gradientUnits="userSpaceOnUse">
	<stop  offset="0" style="stop-color:#FFFFFF"/>
	<stop  offset="0.1432" style="stop-color:#D0DDC0"/>
	<stop  offset="0.29" style="stop-color:#A5BE88"/>
	<stop  offset="0.4326" style="stop-color:#82A459"/>
	<stop  offset="0.5674" style="stop-color:#669034"/>
	<stop  offset="0.6925" style="stop-color:#52821A"/>
	<stop  offset="0.8042" style="stop-color:#46790A"/>
	<stop  offset="0.8914" style="stop-color:#427604"/>
</radialGradient>
<circle class="st154" cx="212.7" cy="130.3" r="29"/>
<radialGradient id="SVGID_3_" cx="42" cy="203.6667" r="24.2991" fx="44.7002" fy="197.5298" gradientUnits="userSpaceOnUse">
	<stop  offset="0" style="stop-color:#FFFFFF"/>
	<stop  offset="0.148" style="stop-color:#D5BDCA"/>
	<stop  offset="0.2957" style="stop-color:#AF849C"/>
	<stop  offset="0.437" style="stop-color:#915576"/>
	<stop  offset="0.5705" style="stop-color:#793058"/>
	<stop  offset="0.6944" style="stop-color:#681643"/>
	<stop  offset="0.805" style="stop-color:#5E0636"/>
	<stop  offset="0.8914" style="stop-color:#5A0032"/>
</radialGradient>
<circle class="st155" cx="33.3" cy="219" r="29"/>
</svg>
