<?xml version="1.0" encoding="UTF-8" standalone="no"?>
<!-- Svg Vector Icons : http://www.onlinewebfonts.com/icon -->

<svg
   xmlns:dc="http://purl.org/dc/elements/1.1/"
   xmlns:cc="http://creativecommons.org/ns#"
   xmlns:rdf="http://www.w3.org/1999/02/22-rdf-syntax-ns#"
   xmlns:svg="http://www.w3.org/2000/svg"
   xmlns="http://www.w3.org/2000/svg"
   xmlns:sodipodi="http://sodipodi.sourceforge.net/DTD/sodipodi-0.dtd"
   xmlns:inkscape="http://www.inkscape.org/namespaces/inkscape"
   version="1.1"
   x="0px"
   y="0px"
   viewBox="0 0 1000 1000"
   enable-background="new 0 0 1000 1000"
   xml:space="preserve"
   id="svg16"
   sodipodi:docname="hp-ux.svg"
   inkscape:version="0.92.2 5c3e80d, 2017-08-06"><defs
     id="defs20" /><sodipodi:namedview
     pagecolor="#ffffff"
     bordercolor="#666666"
     borderopacity="1"
     objecttolerance="10"
     gridtolerance="10"
     guidetolerance="10"
     inkscape:pageopacity="0"
     inkscape:pageshadow="2"
     inkscape:window-width="1923"
     inkscape:window-height="1076"
     id="namedview18"
     showgrid="false"
     inkscape:zoom="0.6675088"
     inkscape:cx="294.75926"
     inkscape:cy="500"
     inkscape:window-x="1431"
     inkscape:window-y="152"
     inkscape:window-maximized="0"
     inkscape:current-layer="svg16" />
     <metadata id="metadata2">
      <rdf:RDF>
        <cc:Work rdf:about="">
          <dc:format>image/svg+xml</dc:format>
          <dc:type rdf:resource="" />
          <dc:title></dc:title>
        </cc:Work>
      </rdf:RDF>
    </metadata><path
     inkscape:connector-curvature="0"
     id="path4"
     d="m 434.80887,910.7 h -62.7 v -33.1 h -1 c -16.2,25.5 -38.3,38.4 -66.3,38.4 -50.3,0 -75.5,-30.4 -75.5,-91.1 V 694.4 h 63.1 V 819 c 0,32.3 12.6,48.5 37.9,48.5 12.6,0 22.8,-4.4 30.3,-13.3 7.5,-8.9 11.3,-20.9 11.3,-36 V 694.4 h 62.8 v 216.3 z" /><path
     inkscape:connector-curvature="0"
     id="path10"
     d="m 694.28765,699.6 -71.6,105.4 70.9,110.9 h -72.9 l -32.3,-59.6 c -4.5,-8.2 -7.5,-14.7 -9.2,-19.3 h -0.8 c -2.3,6.2 -5.3,12.5 -8.8,18.8 l -32.9,60.2 h -72.4 l 73.1,-107.5 -68.8,-108.7 h 73.1 l 32,62.2 c 3.2,6 6,12.6 8.8,20 h 0.8 c 1.3,-4.4 4.3,-11.1 9,-20.2 l 33.1,-62 h 68.9 z" /><path
     inkscape:connector-curvature="0"
     id="path12"
     d="m 481.8,10 c -7.5,0 -15.1,0.3 -22.5,0.8 l -60.6,171 h 53.4 c 38.4,0 54.1,30.5 42.5,65.1 L 416,468.5 h -78.5 l 86.5,-244 h -40.5 l -86.4,244 H 217.9 L 373.8,28.7 C 249.2,73.1 160,192 160,331.8 c 0,151 104,277.7 244.3,312.4 L 568.4,180.5 h 128.9 c 26.6,0 59.3,17.9 45.6,59.6 C 729,281.8 679.1,420.7 670,447.2 660.8,473.7 638.7,479 621.1,479 H 542 l -61.8,174.6 c 0.5,0 1.1,0 1.6,0 177.7,0 321.8,-144.1 321.8,-321.8 C 803.5,154.1 659.5,10 481.8,10 Z m 195,211.5 c -0.6,-1.2 -2,-1.9 -3.7,-2.1 h -38.8 c -3.1,0.2 -5.1,1.2 -6.4,3.1 L 550.6,441.1 H 600 l 76.9,-217.3 c 0.2,-0.8 0.2,-1.6 -0.1,-2.3 z" /></svg>