<svg xmlns="http://www.w3.org/2000/svg" width="1350.271" height="1349.839" viewBox="0 0 1350.271 1349.839"><path fill="#FFF" d="M-66.766 1447.578v-1524h1524v1524h-1524zM493.013 24.78c-3.687 1.031-6.296 1.731-8.887 2.49-65.122 19.104-125.885 47.549-182.401 85.104-39.576 26.298-75.896 56.477-109.152 90.443a684.571 684.571 0 0 0-66.969 79.674C88.98 333.474 60.175 388.57 38.985 447.615 15.425 513.262 2.649 581.062.125 650.717c-1.167 32.223-.068 64.43 3.447 96.537 3.187 29.102 8.033 57.898 14.9 86.348 14.574 60.376 36.998 117.68 67.492 171.811 31.603 56.098 70.329 106.694 116.41 151.715 22.924 22.396 47.148 43.193 72.938 62.197 43.877 32.333 91.042 58.83 141.345 79.773 31.559 13.14 64.005 23.561 97.144 31.904 3.542.892 5.078.064 6.304-3.368 8.186-22.922 16.564-45.775 24.885-68.649 13.669-37.578 27.334-75.158 41.016-112.732 13.852-38.043 27.726-76.078 41.583-114.12 15.183-41.682 30.354-83.367 45.535-125.05 15.267-41.918 30.553-83.828 45.809-125.75 14.572-40.041 29.103-80.098 43.677-120.138 18.25-50.14 36.534-100.267 54.787-150.404 15.22-41.802 30.462-83.595 45.542-125.446 1.38-3.83 3.326-5.014 7.336-5.009 85.373.114 170.748.081 256.121.091 13.325.001 26.443 1.529 39.083 5.957 24.808 8.692 42.535 24.708 51.059 50.007 7.136 21.181 5.363 42.328-2.016 62.88-23.687 65.98-47.807 131.806-71.785 197.681-25.431 69.866-51.028 139.671-76.23 209.618-5.554 15.414-13.403 29.01-25.763 39.784-17.336 15.113-37.16 24.187-60.566 24.187-59.499.002-118.998-.032-178.498.031-10.786.012-8.327-1.757-12.118 8.6-13.618 37.198-27.075 74.455-40.627 111.677-17.185 47.203-34.419 94.389-51.602 141.593-13.677 37.574-27.302 75.168-40.968 112.746-1.724 4.741-1.716 4.979 3.172 4.881 20.226-.402 40.463-.613 60.672-1.463 25.362-1.067 50.473-4.591 75.446-9.063 60.78-10.887 118.905-29.977 174.436-56.905 29.498-14.305 57.774-30.772 84.842-49.303 37.329-25.555 71.827-54.428 103.381-86.892a706.45 706.45 0 0 0 55.927-65.009c23.891-31.428 44.739-64.775 62.659-99.917 17.806-34.917 32.376-71.167 43.882-108.665 17.4-56.706 26.976-114.729 29.066-173.937 1.123-31.846.03-63.671-3.412-95.414-3.238-29.859-8.207-59.391-15.32-88.55-14.537-59.596-36.731-116.199-66.812-169.687-31.875-56.675-70.969-107.771-117.592-153.159-22.695-22.094-46.692-42.575-72.163-61.372a665.845 665.845 0 0 0-102.725-62.368 669.374 669.374 0 0 0-106.47-41.291C808.318 10.377 750.111 1.369 690.716.098c-12.493-.267-24.998-.049-37.498.035-8.8.058-8.714.155-11.651 8.295a30067.599 30067.599 0 0 1-29.121 80.36c-17.222 47.321-34.492 94.625-51.724 141.943a306174.803 306174.803 0 0 0-50.499 138.802c-1.222 3.359-2.348 6.753-3.698 10.65 2.185.097 3.761.229 5.337.229 38.625.012 77.249-.055 115.873.046 12.817.033 25.428 1.856 37.52 6.277 27.139 9.921 45.38 28.247 52.052 56.791 4.691 20.074 1.904 39.77-5.021 58.931-13.633 37.724-27.415 75.395-41.136 113.086-25.518 70.102-51.04 140.203-76.556 210.307-17.095 46.968-34.203 93.933-51.229 140.927-.936 2.583-2.113 3.812-5.046 3.808-44.874-.075-89.749-.043-134.624-.059-3.953-.002-4.119-.287-2.732-4.115 9.661-26.67 19.312-53.344 29.019-79.998 20.269-55.654 40.575-111.297 60.857-166.947 14.079-38.626 28.135-77.26 42.219-115.884 15.839-43.438 31.702-86.866 47.537-130.305.452-1.242.702-2.557 1.123-4.123-1.417-.175-2.382-.397-3.349-.398-33.625-.016-67.249.002-100.874-.041-2.343-.003-3.654.816-4.422 3.084-1.683 4.969-3.601 9.859-5.394 14.792-17.258 47.443-34.482 94.898-51.771 142.33-22.639 62.104-45.341 124.187-67.99 186.288-18.324 50.244-36.66 100.484-54.816 150.791-1.318 3.652-3.082 4.623-6.745 4.613-43.874-.115-87.748-.072-131.623-.075-1.124 0-2.36.234-3.336-.157-.726-.292-1.557-1.426-1.552-2.178.008-1.189.644-2.389 1.073-3.561 7.207-19.717 14.45-39.421 21.632-59.146 21.975-60.352 43.918-120.715 65.89-181.068 25.519-70.1 51.069-140.19 76.578-210.294 20.297-55.778 40.538-111.577 60.832-167.356 22.687-62.355 45.404-124.7 68.111-187.048 13.47-36.985 26.949-73.968 40.412-110.955 2.768-7.607 5.484-15.231 8.639-23.995zm386.391 857.23c15.995 0 31.992-.13 47.983.09 4.159.057 6.144-1.247 7.586-5.257 15.053-41.847 30.29-83.628 45.527-125.409 16.692-45.77 33.458-91.512 50.155-137.28 17.211-47.176 34.374-94.369 51.569-141.552 1.47-4.033 1.243-4.446-3.194-4.448-32.988-.017-65.978.026-98.967-.066-3.144-.009-4.669 1.099-5.722 4.043-6.85 19.174-13.847 38.295-20.825 57.423-20.682 56.681-41.393 113.352-62.063 170.038-21.569 59.149-43.104 118.312-64.66 177.467-1.591 4.366-1.233 4.94 3.502 4.946 16.371.018 32.74.007 49.109.005z"/><path fill-rule="evenodd" clip-rule="evenodd" fill="#1597D3" d="M493.013 24.78c-3.154 8.764-5.871 16.388-8.64 23.993-13.463 36.987-26.942 73.97-40.412 110.955-22.707 62.349-45.424 124.693-68.111 187.048-20.294 55.779-40.535 111.578-60.832 167.356-25.509 70.104-51.059 140.194-76.578 210.294-21.971 60.354-43.915 120.717-65.89 181.068-7.182 19.726-14.425 39.43-21.632 59.146-.429 1.172-1.064 2.371-1.073 3.561-.005.752.826 1.886 1.552 2.178.976.392 2.212.157 3.336.157 43.875.003 87.749-.04 131.623.075 3.663.01 5.427-.961 6.745-4.613 18.157-50.307 36.492-100.547 54.816-150.791 22.649-62.102 45.352-124.184 67.99-186.288 17.29-47.431 34.513-94.887 51.771-142.33 1.793-4.932 3.711-9.823 5.394-14.792.768-2.268 2.08-3.087 4.422-3.084 33.625.043 67.249.025 100.874.041.966.001 1.931.224 3.349.398-.42 1.566-.67 2.881-1.123 4.123-15.835 43.439-31.697 86.867-47.537 130.305-14.084 38.624-28.14 77.258-42.219 115.884-20.283 55.65-40.588 111.293-60.857 166.947-9.707 26.654-19.357 53.328-29.019 79.998-1.387 3.828-1.221 4.113 2.732 4.115 44.875.016 89.75-.017 134.624.059 2.934.005 4.11-1.225 5.046-3.808 17.026-46.994 34.133-93.959 51.229-140.927 25.516-70.104 51.038-140.205 76.556-210.307 13.721-37.691 27.503-75.362 41.136-113.086 6.926-19.161 9.713-38.856 5.021-58.931-6.672-28.544-24.913-46.87-52.052-56.791-12.092-4.421-24.703-6.244-37.52-6.277-38.624-.101-77.248-.034-115.873-.046-1.576 0-3.152-.132-5.337-.229 1.35-3.896 2.476-7.291 3.698-10.65 16.825-46.271 33.651-92.54 50.499-138.802 17.232-47.318 34.501-94.623 51.724-141.943a30067.599 30067.599 0 0 0 29.121-80.36c2.937-8.14 2.851-8.237 11.651-8.295 12.5-.083 25.004-.302 37.498-.035 59.396 1.271 117.603 10.279 174.636 26.976a669.374 669.374 0 0 1 106.47 41.291 665.862 665.862 0 0 1 102.725 62.368c25.471 18.796 49.468 39.278 72.163 61.372 46.623 45.388 85.717 96.484 117.592 153.159 30.081 53.487 52.275 110.09 66.812 169.687 7.113 29.159 12.082 58.69 15.32 88.55 3.442 31.743 4.535 63.568 3.412 95.414-2.091 59.207-11.666 117.23-29.066 173.937-11.506 37.498-26.076 73.748-43.882 108.665-17.92 35.142-38.769 68.489-62.659 99.917a706.45 706.45 0 0 1-55.927 65.009c-31.554 32.464-66.052 61.337-103.381 86.892-27.067 18.53-55.344 34.998-84.842 49.303-55.53 26.929-113.655 46.019-174.436 56.905-24.974 4.473-50.084 7.996-75.446 9.063-20.209.85-40.446 1.061-60.672 1.463-4.888.098-4.896-.14-3.172-4.881 13.666-37.578 27.291-75.172 40.968-112.746 17.183-47.204 34.417-94.39 51.602-141.593 13.552-37.222 27.009-74.479 40.627-111.677 3.791-10.356 1.332-8.588 12.118-8.6 59.5-.063 118.999-.029 178.498-.031 23.406 0 43.23-9.073 60.566-24.187 12.359-10.774 20.209-24.37 25.763-39.784 25.202-69.947 50.8-139.752 76.23-209.618 23.979-65.875 48.099-131.7 71.785-197.681 7.379-20.552 9.151-41.699 2.016-62.88-8.523-25.298-26.251-41.315-51.059-50.007-12.64-4.428-25.758-5.955-39.083-5.957-85.373-.01-170.748.023-256.121-.091-4.01-.005-5.956 1.179-7.336 5.009-15.08 41.852-30.322 83.645-45.542 125.446-18.253 50.138-36.537 100.265-54.787 150.404-14.574 40.04-29.104 80.097-43.677 120.138-15.256 41.922-30.542 83.832-45.809 125.75-15.181 41.683-30.352 83.368-45.535 125.05-13.856 38.042-27.73 76.077-41.583 114.12-13.681 37.574-27.346 75.154-41.016 112.732-8.32 22.874-16.699 45.728-24.885 68.649-1.226 3.433-2.763 4.26-6.304 3.368-33.139-8.344-65.584-18.765-97.144-31.904-50.303-20.943-97.468-47.44-141.345-79.773-25.79-19.004-50.014-39.801-72.938-62.197-46.081-45.021-84.807-95.617-116.41-151.715-30.491-54.13-52.915-111.433-67.488-171.809-6.867-28.449-11.714-57.246-14.9-86.348C.058 715.147-1.041 682.94.126 650.717c2.524-69.654 15.299-137.455 38.859-203.102 21.19-59.045 49.996-114.142 86.619-165.124a684.555 684.555 0 0 1 66.969-79.674c33.256-33.967 69.577-64.146 109.152-90.443 56.516-37.555 117.279-66 182.401-85.104 2.591-.759 5.2-1.459 8.887-2.49z"/><path fill-rule="evenodd" clip-rule="evenodd" fill="#1597D3" d="M879.404 882.011c-16.369.001-32.738.013-49.108-.007-4.735-.006-5.093-.58-3.502-4.946 21.556-59.155 43.091-118.317 64.66-177.467 20.671-56.686 41.382-113.356 62.063-170.038 6.979-19.128 13.976-38.25 20.825-57.423 1.053-2.944 2.578-4.052 5.722-4.043 32.989.093 65.979.05 98.967.066 4.438.002 4.664.415 3.194 4.448-17.195 47.183-34.358 94.375-51.569 141.552-16.697 45.768-33.463 91.511-50.155 137.28-15.237 41.781-30.475 83.562-45.527 125.409-1.442 4.01-3.427 5.313-7.586 5.257-15.992-.219-31.989-.089-47.984-.088z"/></svg>