<?xml version="1.0" encoding="UTF-8" standalone="no"?>
<svg
   xmlns:dc="http://purl.org/dc/elements/1.1/"
   xmlns:cc="http://creativecommons.org/ns#"
   xmlns:rdf="http://www.w3.org/1999/02/22-rdf-syntax-ns#"
   xmlns:svg="http://www.w3.org/2000/svg"
   xmlns="http://www.w3.org/2000/svg"
   xmlns:sodipodi="http://sodipodi.sourceforge.net/DTD/sodipodi-0.dtd"
   xmlns:inkscape="http://www.inkscape.org/namespaces/inkscape"
   version="1.1"
   id="Layer_1"
   x="0px"
   y="0px"
   viewBox="0 0 173 173"
   xml:space="preserve"
   sodipodi:docname="aix.svg"
   inkscape:version="0.92.3 (2405546, 2018-03-11)"
   width="173"
   height="173"><metadata
   id="metadata3955"><rdf:RDF><cc:Work
       rdf:about=""><dc:format>image/svg+xml</dc:format><dc:type
         rdf:resource="http://purl.org/dc/dcmitype/StillImage" /><dc:title></dc:title><cc:license
         rdf:resource="" /></cc:Work></rdf:RDF></metadata><defs
   id="defs3953" /><sodipodi:namedview
   pagecolor="#ffffff"
   bordercolor="#666666"
   borderopacity="1"
   objecttolerance="10"
   gridtolerance="10"
   guidetolerance="10"
   inkscape:pageopacity="0"
   inkscape:pageshadow="2"
   inkscape:window-width="2560"
   inkscape:window-height="1514"
   id="namedview3951"
   showgrid="false"
   inkscape:zoom="4.5679012"
   inkscape:cx="85.95"
   inkscape:cy="94.22297"
   inkscape:window-x="0"
   inkscape:window-y="28"
   inkscape:window-maximized="1"
   inkscape:current-layer="Layer_1"
   fit-margin-top="0"
   fit-margin-left="0"
   fit-margin-right="0"
   fit-margin-bottom="0"
   scale-x="1" />
<style
   type="text/css"
   id="style3854">
	.st0{fill:#B42024;}
	.st1{fill:#FAA21B;}
	.st2{fill:#ED1C24;}
	.st3{fill:#010101;}
	.st4{stroke:#000000;stroke-miterlimit:10;}
	.st5{fill:#007CC3;}
	.st6{fill:#7ABC43;}
	.st7{fill:#FFFFFF;}
	.st8{fill:#158CCC;}
	
		.st9{fill:none;stroke:#158CCC;stroke-width:6;stroke-linecap:round;stroke-linejoin:round;stroke-miterlimit:10;stroke-dasharray:0,10;}
	.st10{fill-rule:evenodd;clip-rule:evenodd;fill:#158CCC;}
	.st11{fill:#0877BE;}
	.st12{fill:url(#SVGID_1_);}
	.st13{fill:url(#SVGID_2_);}
	.st14{fill:url(#SVGID_3_);}
	.st15{fill:#23201F;}
	.st16{fill:#4C616D;}
</style>

<g
   id="g3948"
   transform="translate(-55.8,-98)">
	<circle
   class="st6"
   cx="142.3"
   cy="184.89999"
   r="74.699997"
   id="circle3932"
   style="fill:#7abc43" />
	<path
   class="st6"
   d="m 142.3,98 c -47.7,0 -86.5,38.7 -86.5,86.5 0,47.8 38.7,86.5 86.5,86.5 47.8,0 86.5,-38.7 86.5,-86.5 0,-47.8 -38.7,-86.5 -86.5,-86.5 z m 0,169.7 c -46,0 -83.3,-37.3 -83.3,-83.3 0,-46 37.3,-83.3 83.3,-83.3 46,0 83.3,37.3 83.3,83.3 0,46 -37.3,83.3 -83.3,83.3 z"
   id="path3934"
   inkscape:connector-curvature="0"
   style="fill:#7abc43" />
	<g
   id="g3942">
		<path
   class="st7"
   d="m 106.3,161.7 h 11 l 16.4,46.4 h -10.5 l -3.1,-9.5 H 103 l -3.1,9.5 H 89.8 Z m -0.6,28.9 h 11.9 l -5.9,-18.2 z"
   id="path3936"
   inkscape:connector-curvature="0"
   style="fill:#ffffff" />
		<path
   class="st7"
   d="m 148.4,208.1 h -9.6 v -46.4 h 9.6 z"
   id="path3938"
   inkscape:connector-curvature="0"
   style="fill:#ffffff" />
		<path
   class="st7"
   d="m 164.9,208.1 h -11.3 l 14.9,-23.6 -14.2,-22.7 h 11.6 l 8.3,15.1 8.5,-15.1 h 11.2 l -14.2,22.4 15.1,24 H 183 l -8.8,-15.8 z"
   id="path3940"
   inkscape:connector-curvature="0"
   style="fill:#ffffff" />
	</g>
	<path
   class="st7"
   d="m 199.6,200.5 c 1.8,0 3.3,1.4 3.3,3.4 0,2 -1.4,3.4 -3.3,3.4 -1.9,0 -3.3,-1.4 -3.3,-3.4 0,-2 1.5,-3.4 3.3,-3.4 v -0.7 c -2.2,0 -4.1,1.7 -4.1,4 0,2.4 1.9,4.1 4.1,4.1 2.2,0 4.1,-1.7 4.1,-4.1 0,-2.3 -1.9,-4 -4.1,-4 z"
   id="path3944"
   inkscape:connector-curvature="0"
   style="fill:#ffffff" />
	<path
   class="st7"
   d="m 198.8,202.1 h 1 c 0.5,0 1,0.1 1,0.7 0,0.7 -0.5,0.8 -1.1,0.8 h -0.8 v 0.6 h 0.8 l 1.2,2 h 0.8 l -1.3,-2.1 c 0.7,-0.1 1.2,-0.4 1.2,-1.3 0,-0.9 -0.5,-1.3 -1.7,-1.3 h -1.8 v 4.7 h 0.7 z"
   id="path3946"
   inkscape:connector-curvature="0"
   style="fill:#ffffff" />
</g>
</svg>