<?xml version="1.0" encoding="UTF-8" standalone="no"?>
<!-- Created with Inkscape (http://www.inkscape.org/) -->
<svg
   xmlns:dc="http://purl.org/dc/elements/1.1/"
   xmlns:cc="http://web.resource.org/cc/"
   xmlns:rdf="http://www.w3.org/1999/02/22-rdf-syntax-ns#"
   xmlns:svg="http://www.w3.org/2000/svg"
   xmlns="http://www.w3.org/2000/svg"
   xmlns:xlink="http://www.w3.org/1999/xlink"
   xmlns:sodipodi="http://sodipodi.sourceforge.net/DTD/sodipodi-0.dtd"
   xmlns:inkscape="http://www.inkscape.org/namespaces/inkscape"
   width="48px"
   height="48px"
   viewBox="0 0 48 48"
   id="svg1306"
   sodipodi:version="0.32"
   inkscape:version="0.45.1"
   sodipodi:docbase="/home/bellaich/Desktop"
   sodipodi:docname="network-cloud.svg"
   inkscape:output_extension="org.inkscape.output.svg.inkscape"
   inkscape:export-filename="/home/bellaich/Desktop/network-cloud.png"
   inkscape:export-xdpi="90"
   inkscape:export-ydpi="90">
  <defs
     id="defs1308">
    <linearGradient
       inkscape:collect="always"
       id="linearGradient6549">
      <stop
         style="stop-color:#ffffff;stop-opacity:1;"
         offset="0"
         id="stop6551" />
      <stop
         style="stop-color:#ffffff;stop-opacity:0;"
         offset="1"
         id="stop6553" />
    </linearGradient>
    <linearGradient
       inkscape:collect="always"
       id="linearGradient6527">
      <stop
         style="stop-color:#ffffff;stop-opacity:1;"
         offset="0"
         id="stop6530" />
      <stop
         style="stop-color:#ffffff;stop-opacity:0;"
         offset="1"
         id="stop6532" />
    </linearGradient>
    <linearGradient
       inkscape:collect="always"
       id="linearGradient6538">
      <stop
         style="stop-color:#ffffff;stop-opacity:1;"
         offset="0"
         id="stop6540" />
      <stop
         style="stop-color:#ffffff;stop-opacity:0;"
         offset="1"
         id="stop6542" />
    </linearGradient>
    <linearGradient
       inkscape:collect="always"
       id="linearGradient6513">
      <stop
         style="stop-color:#ffffff;stop-opacity:1;"
         offset="0"
         id="stop6515" />
      <stop
         style="stop-color:#ffffff;stop-opacity:0;"
         offset="1"
         id="stop6517" />
    </linearGradient>
    <linearGradient
       inkscape:collect="always"
       id="linearGradient6497">
      <stop
         style="stop-color:#ffffff;stop-opacity:1;"
         offset="0"
         id="stop6499" />
      <stop
         style="stop-color:#ffffff;stop-opacity:0;"
         offset="1"
         id="stop6501" />
    </linearGradient>
    <linearGradient
       inkscape:collect="always"
       id="linearGradient6470">
      <stop
         style="stop-color:#ffffff;stop-opacity:1;"
         offset="0"
         id="stop6472" />
      <stop
         style="stop-color:#ffffff;stop-opacity:0;"
         offset="1"
         id="stop6474" />
    </linearGradient>
    <linearGradient
       inkscape:collect="always"
       xlink:href="#linearGradient6470"
       id="linearGradient3140"
       gradientUnits="userSpaceOnUse"
       x1="271.02170"
       y1="-441.05182"
       x2="285.02859"
       y2="-431.96991"
       gradientTransform="matrix(1.6296296,0,0,1.7058462,-433.11111,768.10157)" />
    <linearGradient
       inkscape:collect="always"
       xlink:href="#linearGradient6513"
       id="linearGradient3143"
       gradientUnits="userSpaceOnUse"
       x1="286.51172"
       y1="-441.29074"
       x2="289.85379"
       y2="-436.14453" />
    <linearGradient
       inkscape:collect="always"
       xlink:href="#linearGradient6538"
       id="linearGradient3145"
       gradientUnits="userSpaceOnUse"
       x1="284.80219"
       y1="-441.23294"
       x2="288.89954"
       y2="-436.83109" />
    <linearGradient
       inkscape:collect="always"
       xlink:href="#linearGradient6497"
       id="linearGradient3147"
       gradientUnits="userSpaceOnUse"
       x1="287.51730"
       y1="-439.75281"
       x2="289.67633"
       y2="-436.32199" />
    <linearGradient
       inkscape:collect="always"
       xlink:href="#linearGradient6538"
       id="linearGradient3149"
       gradientUnits="userSpaceOnUse"
       x1="285.94086"
       y1="-439.93900"
       x2="289.39124"
       y2="-436.44290" />
    <linearGradient
       inkscape:collect="always"
       xlink:href="#linearGradient6549"
       id="linearGradient3151"
       gradientUnits="userSpaceOnUse"
       x1="286.66589"
       y1="-439.48358"
       x2="289.76562"
       y2="-436.70703" />
    <linearGradient
       inkscape:collect="always"
       xlink:href="#linearGradient6527"
       id="linearGradient3153"
       gradientUnits="userSpaceOnUse"
       x1="275.94193"
       y1="-437.10501"
       x2="279.97546"
       y2="-431.91833" />
    <filter
       inkscape:collect="always"
       x="-0.069007114"
       width="1.1380142"
       y="-0.31792565"
       height="1.6358513"
       id="filter3704">
      <feGaussianBlur
         inkscape:collect="always"
         stdDeviation="1.3113763"
         id="feGaussianBlur3706" />
    </filter>
  </defs>
  <sodipodi:namedview
     id="base"
     pagecolor="#ffffff"
     bordercolor="#666666"
     borderopacity="1.0"
     inkscape:pageopacity="0.0"
     inkscape:pageshadow="2"
     inkscape:zoom="11.313709"
     inkscape:cx="22.935246"
     inkscape:cy="21.286831"
     inkscape:current-layer="layer1"
     showgrid="true"
     inkscape:grid-bbox="true"
     inkscape:document-units="px"
     inkscape:window-width="1210"
     inkscape:window-height="918"
     inkscape:window-x="441"
     inkscape:window-y="500"
     inkscape:showpageshadow="false"
     showguides="true"
     inkscape:guide-bbox="true" />
  <metadata
     id="metadata1311">
    <rdf:RDF>
      <cc:Work
         rdf:about="">
        <dc:format>image/svg+xml</dc:format>
        <dc:type
           rdf:resource="http://purl.org/dc/dcmitype/StillImage" />
        <dc:title>Network Cloud</dc:title>
        <dc:date>November 2007</dc:date>
        <dc:creator>
          <cc:Agent>
            <dc:title>F.Bellaiche &lt;frederic.bellaiche@gmail.com&gt;</dc:title>
          </cc:Agent>
        </dc:creator>
        <dc:publisher>
          <cc:Agent>
            <dc:title />
          </cc:Agent>
        </dc:publisher>
        <dc:source />
        <dc:subject>
          <rdf:Bag />
        </dc:subject>
        <cc:license
           rdf:resource="http://creativecommons.org/licenses/by-sa/2.0/" />
        <dc:contributor>
          <cc:Agent>
            <dc:title>Ryan Collier (pseudo)</dc:title>
          </cc:Agent>
        </dc:contributor>
        <dc:rights>
          <cc:Agent>
            <dc:title />
          </cc:Agent>
        </dc:rights>
      </cc:Work>
      <cc:License
         rdf:about="http://creativecommons.org/licenses/by-sa/2.0/">
        <cc:permits
           rdf:resource="http://web.resource.org/cc/Reproduction" />
        <cc:permits
           rdf:resource="http://web.resource.org/cc/Distribution" />
        <cc:requires
           rdf:resource="http://web.resource.org/cc/Notice" />
        <cc:requires
           rdf:resource="http://web.resource.org/cc/Attribution" />
        <cc:permits
           rdf:resource="http://web.resource.org/cc/DerivativeWorks" />
        <cc:requires
           rdf:resource="http://web.resource.org/cc/ShareAlike" />
      </cc:License>
    </rdf:RDF>
  </metadata>
  <g
     id="layer1"
     inkscape:label="Layer 1"
     inkscape:groupmode="layer">
    <path
       sodipodi:type="arc"
       style="opacity:0.3;fill:#2e3436;fill-opacity:0.75;fill-rule:evenodd;stroke:none;stroke-width:1px;stroke-linecap:butt;stroke-linejoin:miter;stroke-opacity:1;filter:url(#filter3704)"
       id="path2733"
       sodipodi:cx="23.864853"
       sodipodi:cy="36.15596"
       sodipodi:rx="22.804193"
       sodipodi:ry="4.9497471"
       d="M 46.669046 36.15596 A 22.804193 4.9497471 0 1 1  1.0606594,36.15596 A 22.804193 4.9497471 0 1 1  46.669046 36.15596 z"
       transform="matrix(1.0085864,0,0,1.0101526,-6.9766687e-2,-0.5230355)" />
    <path
       style="fill:#c4c5c2;fill-opacity:1;stroke:#888a85;stroke-width:0.99999982;stroke-linecap:butt;stroke-linejoin:miter;stroke-miterlimit:2;stroke-dasharray:none;stroke-dashoffset:0;stroke-opacity:1"
       d="M 24.037295,8.4999999 C 20.393797,8.4999999 17.443032,11.0838 16.466161,14.541666 C 15.353888,13.935283 14.148475,13.5 12.805943,13.5 C 8.3775815,13.5 4.7835327,17.233316 4.7835487,21.833333 C 4.7835487,22.798216 5.0443087,23.679499 5.3350884,24.541666 C 3.1313847,25.826233 1.5745909,28.189999 1.5745909,30.999999 C 1.5745909,35.14 4.8092204,38.500016 8.794746,38.5 C 9.0789473,38.5 38.995644,38.5 39.279845,38.5 C 43.265355,38.5 46.5,35.14 46.5,30.999999 C 46.5,28.189999 44.943206,25.826233 42.739503,24.541666 C 43.030298,23.679516 43.291042,22.7982 43.291042,21.833333 C 43.291042,17.233333 39.69701,13.500017 35.268648,13.5 C 33.926116,13.5 32.720703,13.935283 31.60843,14.541666 C 30.631559,11.0838 27.680794,8.4999999 24.037295,8.4999999 z "
       id="path7796"
       sodipodi:nodetypes="ccsscsssscsscc" />
    <path
       style="fill:url(#linearGradient3140);fill-opacity:1;stroke:none;stroke-width:0.99999958;stroke-linecap:butt;stroke-linejoin:miter;stroke-miterlimit:2;stroke-dasharray:none;stroke-dashoffset:0;stroke-opacity:1"
       d="M 24.000003,9.0000009 C 20.431571,9.0000009 17.931915,11.278619 16.836885,15.556456 C 15.747543,14.970292 14.314887,14.134888 13.000004,14.134888 C 8.5730991,14.134888 5.2508871,17.442217 5.2509031,21.88888 C 5.2509031,22.821586 5.6863561,24.163524 5.9711341,24.996949 C 3.8128041,26.23872 2.0000041,28.221852 2.0000041,30.750001 C 2.0000041,34.752002 4.5196881,38.000001 9.0714231,38.000001 C 9.3497801,38.000001 38.650243,38.000001 38.928584,38.000001 C 43.444303,38.000001 46.000004,34.752002 46.000004,30.750001 C 46.000004,28.033662 44.187204,26.201038 42.028873,24.959267 C 42.313667,24.125859 42.785136,22.821569 42.785136,21.88888 C 42.785136,17.442234 39.337149,14.097206 35.00002,14.097189 C 33.68512,14.097189 32.324479,14.93261 31.235136,15.518772 C 30.17775,11.387998 27.568453,9.0000009 24.000003,9.0000009 z "
       id="path7798"
       sodipodi:nodetypes="ccsscsssscsscc" />
    <g
       id="g7800"
       transform="matrix(1.7142858,0,0,1.857141,-456.85716,834.57059)">
      <path
         transform="matrix(1.056604,0,0,1.056604,-24.19818,21.86331)"
         d="M 291.6875 -437.59375 A 3.3125 3.3125 0 1 1  285.0625,-437.59375 A 3.3125 3.3125 0 1 1  291.6875 -437.59375 z"
         sodipodi:ry="3.3125"
         sodipodi:rx="3.3125"
         sodipodi:cy="-437.59375"
         sodipodi:cx="288.375"
         id="path7802"
         style="opacity:1;fill:#c4c5c2;fill-opacity:1;stroke:none;stroke-width:1;stroke-linecap:butt;stroke-linejoin:miter;stroke-miterlimit:2;stroke-dasharray:none;stroke-dashoffset:0;stroke-opacity:1"
         sodipodi:type="arc" />
      <path
         transform="matrix(1.056604,0,0,1.056604,-24.19818,21.86331)"
         d="M 291.6875 -437.59375 A 3.3125 3.3125 0 1 1  285.0625,-437.59375 A 3.3125 3.3125 0 1 1  291.6875 -437.59375 z"
         sodipodi:ry="3.3125"
         sodipodi:rx="3.3125"
         sodipodi:cy="-437.59375"
         sodipodi:cx="288.375"
         id="path7804"
         style="opacity:1;fill:url(#linearGradient3147);fill-opacity:1;stroke:none;stroke-width:1;stroke-linecap:butt;stroke-linejoin:miter;stroke-miterlimit:2;stroke-dasharray:none;stroke-dashoffset:0;stroke-opacity:1"
         sodipodi:type="arc" />
    </g>
    <rect
       style="fill:#c4c5c2;fill-opacity:1;stroke:none;stroke-width:1;stroke-linecap:butt;stroke-linejoin:miter;stroke-miterlimit:2;stroke-dasharray:none;stroke-dashoffset:0;stroke-opacity:1"
       id="rect7806"
       width="32.884319"
       height="16.031593"
       x="8.0000038"
       y="20.968407" />
    <path
       sodipodi:type="arc"
       style="fill:#c4c5c2;fill-opacity:1;stroke:none;stroke-width:1;stroke-linecap:butt;stroke-linejoin:miter;stroke-miterlimit:2;stroke-dasharray:none;stroke-dashoffset:0;stroke-opacity:1"
       id="path7808"
       sodipodi:cx="288.375"
       sodipodi:cy="-437.59375"
       sodipodi:rx="3.3125"
       sodipodi:ry="3.3125"
       d="M 291.6875 -437.59375 A 3.3125 3.3125 0 1 1  285.0625,-437.59375 A 3.3125 3.3125 0 1 1  291.6875 -437.59375 z"
       transform="matrix(1.6603788,0,0,1.6670178,-470.31173,760.95456)" />
    <g
       id="g7810"
       transform="matrix(1.7103073,0,0,1.7142622,-456.16919,770.9898)">
      <path
         transform="matrix(1.056604,0,0,1.056604,-17.19811,24.86321)"
         d="M 291.6875 -437.59375 A 3.3125 3.3125 0 1 1  285.0625,-437.59375 A 3.3125 3.3125 0 1 1  291.6875 -437.59375 z"
         sodipodi:ry="3.3125"
         sodipodi:rx="3.3125"
         sodipodi:cy="-437.59375"
         sodipodi:cx="288.375"
         id="path7812"
         style="opacity:1;fill:#c4c5c2;fill-opacity:1;stroke:none;stroke-width:1;stroke-linecap:butt;stroke-linejoin:miter;stroke-miterlimit:2;stroke-dasharray:none;stroke-dashoffset:0;stroke-opacity:1"
         sodipodi:type="arc" />
      <path
         transform="matrix(1.056604,0,0,1.056604,-17.19818,24.86331)"
         d="M 291.6875 -437.59375 A 3.3125 3.3125 0 1 1  285.0625,-437.59375 A 3.3125 3.3125 0 1 1  291.6875 -437.59375 z"
         sodipodi:ry="3.3125"
         sodipodi:rx="3.3125"
         sodipodi:cy="-437.59375"
         sodipodi:cx="288.375"
         id="path7814"
         style="opacity:1;fill:url(#linearGradient3143);fill-opacity:1;stroke:none;stroke-width:1;stroke-linecap:butt;stroke-linejoin:miter;stroke-miterlimit:2;stroke-dasharray:none;stroke-dashoffset:0;stroke-opacity:1"
         sodipodi:type="arc" />
    </g>
    <g
       id="g7816"
       transform="matrix(1.8571417,0,0,1.8571383,-495.42825,833.998)">
      <path
         transform="matrix(1.056604,0,0,1.056604,-31.19818,24.86331)"
         d="M 291.6875 -437.59375 A 3.3125 3.3125 0 1 1  285.0625,-437.59375 A 3.3125 3.3125 0 1 1  291.6875 -437.59375 z"
         sodipodi:ry="3.3125"
         sodipodi:rx="3.3125"
         sodipodi:cy="-437.59375"
         sodipodi:cx="288.375"
         id="path7818"
         style="opacity:1;fill:#c4c5c2;fill-opacity:1;stroke:none;stroke-width:1;stroke-linecap:butt;stroke-linejoin:miter;stroke-miterlimit:2;stroke-dasharray:none;stroke-dashoffset:0;stroke-opacity:1"
         sodipodi:type="arc" />
      <path
         transform="matrix(1.056604,0,0,1.056604,-31.19818,24.86331)"
         d="M 291.6875 -437.59375 A 3.3125 3.3125 0 1 1  285.0625,-437.59375 A 3.3125 3.3125 0 1 1  291.6875 -437.59375 z"
         sodipodi:ry="3.3125"
         sodipodi:rx="3.3125"
         sodipodi:cy="-437.59375"
         sodipodi:cx="288.375"
         id="path7820"
         style="opacity:1;fill:url(#linearGradient3149);fill-opacity:1;stroke:none;stroke-width:1;stroke-linecap:butt;stroke-linejoin:miter;stroke-miterlimit:2;stroke-dasharray:none;stroke-dashoffset:0;stroke-opacity:1"
         sodipodi:type="arc" />
    </g>
    <g
       id="g7822"
       transform="matrix(1.6044789,0,0,1.6624543,-427.62352,749.12339)">
      <path
         id="path7824"
         d="M 280.46875,-440.96875 C 276.88937,-440.96875 274,-438.04812 274,-434.46875 C 274,-432.09807 275.34943,-430.13096 277.25,-429 L 283.71875,-429 C 285.61932,-430.13096 286.96875,-432.12931 286.96875,-434.5 C 286.96875,-438.07938 284.04812,-440.96875 280.46875,-440.96875 z "
         style="opacity:1;fill:#c4c5c2;fill-opacity:1;stroke:none;stroke-width:1;stroke-linecap:butt;stroke-linejoin:miter;stroke-miterlimit:2;stroke-dasharray:none;stroke-dashoffset:0;stroke-opacity:1" />
      <path
         id="path7826"
         d="M 280.5,-441 C 276.912,-441 274,-438.08799 274,-434.5 C 274,-432.1236 275.34485,-430.13368 277.25,-429 L 283.75,-429 C 285.65515,-430.13368 287,-432.1236 287,-434.5 C 287,-438.088 284.088,-440.99999 280.5,-441 z "
         style="opacity:1;fill:url(#linearGradient3153);fill-opacity:1;stroke:none;stroke-width:1;stroke-linecap:butt;stroke-linejoin:miter;stroke-miterlimit:2;stroke-dasharray:none;stroke-dashoffset:0;stroke-opacity:1" />
    </g>
    <path
       sodipodi:type="arc"
       style="fill:url(#linearGradient3151);fill-opacity:1;stroke:none;stroke-width:1;stroke-linecap:butt;stroke-linejoin:miter;stroke-miterlimit:2;stroke-dasharray:none;stroke-dashoffset:0;stroke-opacity:1"
       id="path7828"
       sodipodi:cx="288.375"
       sodipodi:cy="-437.59375"
       sodipodi:rx="3.3125"
       sodipodi:ry="3.3125"
       d="M 291.6875 -437.59375 A 3.3125 3.3125 0 1 1  285.0625,-437.59375 A 3.3125 3.3125 0 1 1  291.6875 -437.59375 z"
       transform="matrix(1.6603778,0,0,1.6603765,-470.31146,758.07037)" />
    <path
       style="fill:#888a85;fill-opacity:1;fill-rule:evenodd;stroke:none;stroke-width:1px;stroke-linecap:butt;stroke-linejoin:miter;stroke-opacity:1"
       d="M 43.581384,22.075669 C 43.579944,25.635131 40.502606,27.000001 40.502606,27.000001 C 40.502606,27.000001 42.714498,24.844151 42.7033,22.087522 C 42.7033,22.087522 43.581384,22.075669 43.581384,22.075669 z "
       id="path7830"
       sodipodi:nodetypes="ccss" />
    <g
       id="g7832"
       transform="matrix(1.8571412,0,0,1.8571418,-478.42811,841.99952)">
      <path
         transform="matrix(1.056604,0,0,1.056604,-31.19818,24.86331)"
         d="M 291.6875 -437.59375 A 3.3125 3.3125 0 1 1  285.0625,-437.59375 A 3.3125 3.3125 0 1 1  291.6875 -437.59375 z"
         sodipodi:ry="3.3125"
         sodipodi:rx="3.3125"
         sodipodi:cy="-437.59375"
         sodipodi:cx="288.375"
         id="path7834"
         style="opacity:1;fill:#c4c5c2;fill-opacity:1;stroke:none;stroke-width:1;stroke-linecap:butt;stroke-linejoin:miter;stroke-miterlimit:2;stroke-dasharray:none;stroke-dashoffset:0;stroke-opacity:1"
         sodipodi:type="arc" />
      <path
         transform="matrix(1.056604,0,0,1.056604,-31.19818,24.86331)"
         d="M 291.6875 -437.59375 A 3.3125 3.3125 0 1 1  285.0625,-437.59375 A 3.3125 3.3125 0 1 1  291.6875 -437.59375 z"
         sodipodi:ry="3.3125"
         sodipodi:rx="3.3125"
         sodipodi:cy="-437.59375"
         sodipodi:cx="288.375"
         id="path7836"
         style="opacity:1;fill:url(#linearGradient3145);fill-opacity:1;stroke:none;stroke-width:1;stroke-linecap:butt;stroke-linejoin:miter;stroke-miterlimit:2;stroke-dasharray:none;stroke-dashoffset:0;stroke-opacity:1"
         sodipodi:type="arc" />
    </g>
  </g>
</svg>
