<?xml version="1.0" encoding="UTF-8" standalone="no"?>
<!-- Created with Sodipodi ("http://www.sodipodi.com/") -->

<svg
   xmlns:dc="http://purl.org/dc/elements/1.1/"
   xmlns:cc="http://creativecommons.org/ns#"
   xmlns:rdf="http://www.w3.org/1999/02/22-rdf-syntax-ns#"
   xmlns:svg="http://www.w3.org/2000/svg"
   xmlns="http://www.w3.org/2000/svg"
   xmlns:sodipodi="http://sodipodi.sourceforge.net/DTD/sodipodi-0.dtd"
   xmlns:inkscape="http://www.inkscape.org/namespaces/inkscape"
   id="svg1"
   sodipodi:version="0.30.1"
   width="100"
   height="100"
   sodipodi:docname="redhat.svg"
   version="1.1"
   inkscape:version="0.48.4 r9939">
  <metadata
     id="metadata7">
    <rdf:RDF>
      <cc:Work
         rdf:about="">
        <dc:format>image/svg+xml</dc:format>
        <dc:type
           rdf:resource="http://purl.org/dc/dcmitype/StillImage" />
        <dc:title />
      </cc:Work>
    </rdf:RDF>
  </metadata>
  <defs
     id="defs3" />
  <sodipodi:namedview
     id="base"
     showgrid="false"
     inkscape:zoom="3.5883013"
     inkscape:cx="59.070325"
     inkscape:cy="30.066741"
     inkscape:window-width="836"
     inkscape:window-height="1003"
     inkscape:window-x="840"
     inkscape:window-y="22"
     inkscape:window-maximized="0"
     inkscape:current-layer="svg1" />
  <g
     id="g3335"
     transform="matrix(0.13792262,0,0,0.13792262,0.44412261,52.97028)">
    <path
       inkscape:connector-curvature="0"
       id="path194"
       d="m 393.913,167.93422 c -5.013,1.314 -13.73,9.525 -7.1,14.253 3.567,2.544 9.258,2.033 13.35,3.296 9.882,3.047 17.759,9.355 28.756,5.906 6.903,-2.165 18.89,-16.721 7.335,-21.473 -5.263,-2.164 -10.776,5.189 -16.087,5.637 -9.628,0.816 -16.172,-10.26 -26.254,-7.619 z m -319.0775,-38.897 c -56.3128,-143.093 -2.4084,-305.99 128.1445,-387.247 130.553,-81.2575 300.512,-57.6949 404.036,56.014 103.522,113.709 114.626,280.744 17.792,407.503 -12.623,-5.737 -39.061,-2.708 -57.746,-3.163 -10.016,-0.074 -22.103,-2.024 -24.844,1.201 -5.907,6.545 1.126,9.417 -6.585,16.561 -5.79,5.247 -14.869,5.937 -28.848,14.71 -19.023,11.794 -44.135,44.897 -55.292,34.201 -5.976,-5.91 7.672,-18.028 19.829,-32.739 12.2,-14.556 26.093,-32.135 29.819,-43.915 4.598,-14.876 3.595,-24.387 5.715,-30.853 4.852,-16.088 9.201,-31.31 1.142,-32.448 -5.556,-0.768 -12.776,3.037 -21.973,2.398 -9.579,-0.683 -15.219,-2.402 -28.026,-2.182 -10.076,0.175 -20.445,2.082 -29.582,1.86 -16.897,-0.67 -21.081,-3.907 -34.561,-3.916 -14.214,-0.01 -43.537,8.586 -66.513,-1.602 -18.472,-8.242 -30.867,-36.745 -47.89,-44.328 -7.865,-3.474 -12.98,3.614 -21.26,0.949 -10.408,-3.396 -13.636,-22.379 -34.937,-35.245 -14.003,-8.401 -28.26,-0.958 -32.16,3.317 -13.378,14.807 -2.14,36.365 10.892,53.704 9.94,13.419 20.433,13.7 21.49,22.761 0.742,6.449 -9.134,12.909 -17.015,10.762 -20.533,-5.703 -30.975,-29.739 -45.096,-34.779 -5.593,-2.032 -14.375,-0.158 -21.087,-0.321 -13.641,-0.089 -40.8726,0.132 -56.4934,-0.121 2.7517,19.444 0.0683,22.831 -8.9511,26.918 z"
       style="font-size:12px;fill:#000000;fill-opacity:1;stroke:#000000" />
    <path
       inkscape:connector-curvature="0"
       id="path173"
       d="m 582.7,-226.62778 0,0 z m -355.071,108.771 c -27.211,0 -61.369,-4.164 -86.268,9.157 -9.969,5.335 -21.586,14.294 -24.339,25.85 -3.918,16.447 6.293,29.908 16.731,41.259 19.626,21.343 40.56,40.66500047 63.87,57.974 80.541,59.805 179.397,90.054 278.805,94.426 47.351,2.082 108.495,-17.181 139.447,-54.881 15.9,-19.365 27.008,-55.42299953 13.669,-78.766 -11.245,-19.675 -52.264,-40.45 -74.35,-43.758 -4.076,12.506 -9.438,24.407 -21.254,31.256 -2.538,-16.228 6.958,-35.277 6.202,-52.511 -1.382,-31.516 -19.431,-63.704 -30.957,-92.518 -5.947,-14.868 -10.883,-31.087 -22.773,-42.396 -32.152,-30.581 -71.231,-14.231 -108.753,-11.478 -28.117,2.063 -55.728,-11.255 -83.767,-6.839 -43.85,6.905 -51.233,65.371 -56.773,101.971 -3.989,26.358 21.45,38.298 41.77,46.019 22.091,8.393 44.894,15.058 67.513,21.845 11.939,3.582 26.37,6.912 34.515,17.172 5.517,6.951 4.148,15.623 6.159,23.736 1.452,5.86 13.7,15.144 11.454,20.7120005 -1.85,4.586 -12.097,3.206 -15.87,2.829 -15.267,-1.525 -30.61,-7.7200005 -45.009,-12.7190005 -28.13,-9.766 -55.485,-22.561 -81.267,-37.432 -10.724,-6.187 -24.334,-12.888 -29.769,-24.65 -5.454,-11.805 -1.711,-24.345 1.014,-36.258 m 182.536,-103.77 0,1.25 c 6.299,1.504 28.887,2.091 27.605,12.517 -0.594,4.824 -7.281,8.8 -10.101,12.488 9.805,2.898 48.963,1.299 37.68,-17.484 -9.533,-15.87 -40.15,-12.392 -55.184,-8.771 z m -133.495,37.61 c -4.596,2.353 -5.167,9.158 -5.264,13.65 -0.287,13.531 8.746,23.517 21.236,28.278 6.877,2.622 12.478,-3.218 18.753,-5.32 15.185,-5.086 40.712,-0.727 53.456,-10.639 9.595,-7.463 -7.646,-10.594 -12.197,-11.599 -17.624,-3.893 -35.762,3.8 -52.511,-2.105 -6.492,-2.29 -16.374,-15.9 -23.473,-12.265 z"
       style="font-size:12px;fill:#c1211f;fill-opacity:1;fill-rule:evenodd;stroke:#000000" />
  </g>
</svg>
