<?xml version="1.0" encoding="UTF-8" standalone="no"?>
<!-- Created with Inkscape (http://www.inkscape.org/) -->
<svg
   xmlns:dc="http://purl.org/dc/elements/1.1/"
   xmlns:cc="http://web.resource.org/cc/"
   xmlns:rdf="http://www.w3.org/1999/02/22-rdf-syntax-ns#"
   xmlns:svg="http://www.w3.org/2000/svg"
   xmlns="http://www.w3.org/2000/svg"
   xmlns:xlink="http://www.w3.org/1999/xlink"
   xmlns:sodipodi="http://sodipodi.sourceforge.net/DTD/sodipodi-0.dtd"
   xmlns:inkscape="http://www.inkscape.org/namespaces/inkscape"
   sodipodi:docname="modem-02.svg"
   sodipodi:docbase="/media/disk/Tango Icons/tango-svg-devices"
   inkscape:version="0.45.1"
   sodipodi:version="0.32"
   id="svg2913"
   height="48px"
   width="48px"
   viewBox="0 0 48 48"
   inkscape:export-filename="/home/jesusda/docs/themes/iconos/pasodoble/modem.png"
   inkscape:export-xdpi="240"
   inkscape:export-ydpi="240"
   inkscape:output_extension="org.inkscape.output.svg.inkscape">
  <defs
     id="defs3">
    <linearGradient
       inkscape:collect="always"
       id="linearGradient3673">
      <stop
         style="stop-color:#eeeeec;stop-opacity:1;"
         offset="0"
         id="stop3675" />
      <stop
         style="stop-color:#eeeeec;stop-opacity:0;"
         offset="1"
         id="stop3677" />
    </linearGradient>
    <linearGradient
       id="linearGradient4264"
       inkscape:collect="always">
      <stop
         id="stop4266"
         offset="0"
         style="stop-color:#000000;stop-opacity:1;" />
      <stop
         id="stop4268"
         offset="1"
         style="stop-color:#000000;stop-opacity:0;" />
    </linearGradient>
    <linearGradient
       id="linearGradient4254"
       inkscape:collect="always">
      <stop
         id="stop4256"
         offset="0"
         style="stop-color:#ffffff;stop-opacity:1;" />
      <stop
         id="stop4258"
         offset="1"
         style="stop-color:#ffffff;stop-opacity:0;" />
    </linearGradient>
    <linearGradient
       id="linearGradient4244">
      <stop
         id="stop4246"
         offset="0.0000000"
         style="stop-color:#e4e4e4;stop-opacity:1.0000000;" />
      <stop
         id="stop4248"
         offset="1.0000000"
         style="stop-color:#d3d3d3;stop-opacity:1.0000000;" />
    </linearGradient>
    <linearGradient
       id="linearGradient4228">
      <stop
         id="stop4230"
         offset="0.0000000"
         style="stop-color:#bbbbbb;stop-opacity:1.0000000;" />
      <stop
         id="stop4232"
         offset="1.0000000"
         style="stop-color:#9f9f9f;stop-opacity:1.0000000;" />
    </linearGradient>
    <linearGradient
       gradientUnits="userSpaceOnUse"
       y2="40.943935"
       x2="36.183067"
       y1="28.481176"
       x1="7.6046205"
       id="linearGradient4234"
       xlink:href="#linearGradient4228"
       inkscape:collect="always" />
    <radialGradient
       gradientUnits="userSpaceOnUse"
       gradientTransform="matrix(1.286242,0.781698,-0.710782,1.169552,-2.354348,-4.876862)"
       r="20.935817"
       fy="2.9585190"
       fx="15.571491"
       cy="2.9585190"
       cx="15.571491"
       id="radialGradient4250"
       xlink:href="#linearGradient4244"
       inkscape:collect="always" />
    <linearGradient
       gradientUnits="userSpaceOnUse"
       y2="47.620636"
       x2="44.096100"
       y1="4.4331360"
       x1="12.378357"
       id="linearGradient4260"
       xlink:href="#linearGradient4254"
       inkscape:collect="always" />
    <radialGradient
       gradientUnits="userSpaceOnUse"
       gradientTransform="matrix(1.000000,0.000000,0.000000,0.651032,0.000000,9.455693)"
       r="23.555494"
       fy="27.096155"
       fx="23.201941"
       cy="27.096155"
       cx="23.201941"
       id="radialGradient4270"
       xlink:href="#linearGradient4264"
       inkscape:collect="always" />
    <linearGradient
       inkscape:collect="always"
       xlink:href="#linearGradient3673"
       id="linearGradient3679"
       x1="10.285534"
       y1="34.310661"
       x2="9.75"
       y2="32.189339"
       gradientUnits="userSpaceOnUse" />
    <linearGradient
       inkscape:collect="always"
       xlink:href="#linearGradient3673"
       id="linearGradient3690"
       gradientUnits="userSpaceOnUse"
       x1="10.285534"
       y1="34.310661"
       x2="9.75"
       y2="32.189339" />
    <linearGradient
       inkscape:collect="always"
       xlink:href="#linearGradient3673"
       id="linearGradient3696"
       gradientUnits="userSpaceOnUse"
       x1="10.285534"
       y1="34.310661"
       x2="9.75"
       y2="32.189339" />
    <linearGradient
       inkscape:collect="always"
       xlink:href="#linearGradient3673"
       id="linearGradient3702"
       gradientUnits="userSpaceOnUse"
       x1="10.285534"
       y1="34.310661"
       x2="9.75"
       y2="32.189339" />
  </defs>
  <sodipodi:namedview
     inkscape:window-y="49"
     inkscape:window-x="0"
     inkscape:window-height="781"
     inkscape:window-width="1144"
     inkscape:document-units="px"
     inkscape:grid-bbox="true"
     showgrid="false"
     inkscape:current-layer="layer2"
     inkscape:cy="24.700112"
     inkscape:cx="34.199213"
     inkscape:zoom="8"
     inkscape:pageshadow="2"
     inkscape:pageopacity="0.0"
     borderopacity="1.0"
     bordercolor="#666666"
     pagecolor="#ffffff"
     id="base" />
  <metadata
     id="metadata4">
    <rdf:RDF>
      <cc:Work
         rdf:about="">
        <dc:format>image/svg+xml</dc:format>
        <dc:type
           rdf:resource="http://purl.org/dc/dcmitype/StillImage" />
        <dc:title>modem</dc:title>
        <dc:creator>
          <cc:Agent>
            <dc:title />
          </cc:Agent>
        </dc:creator>
        <dc:subject>
          <rdf:Bag>
            <rdf:li>device</rdf:li>
            <rdf:li>modem</rdf:li>
            <rdf:li>ppp</rdf:li>
          </rdf:Bag>
        </dc:subject>
        <cc:license
           rdf:resource="http://creativecommons.org/licenses/by-sa/2.0/" />
        <dc:identifier />
        <dc:source>http://www.jesusda.com</dc:source>
        <dc:contributor>
          <cc:Agent>
            <dc:title>Jakub Steiner</dc:title>
          </cc:Agent>
        </dc:contributor>
      </cc:Work>
      <cc:License
         rdf:about="http://creativecommons.org/licenses/by-sa/2.0/">
        <cc:permits
           rdf:resource="http://web.resource.org/cc/Reproduction" />
        <cc:permits
           rdf:resource="http://web.resource.org/cc/Distribution" />
        <cc:requires
           rdf:resource="http://web.resource.org/cc/Notice" />
        <cc:requires
           rdf:resource="http://web.resource.org/cc/Attribution" />
        <cc:permits
           rdf:resource="http://web.resource.org/cc/DerivativeWorks" />
        <cc:requires
           rdf:resource="http://web.resource.org/cc/ShareAlike" />
      </cc:License>
    </rdf:RDF>
  </metadata>
  <g
     inkscape:label="pix"
     id="layer2"
     inkscape:groupmode="layer">
    <path
       transform="matrix(1.052533,0.000000,0.000000,0.363113,-0.511757,26.86986)"
       d="M 46.757435 27.096155 A 23.555494 15.335379 0 1 1  -0.35355377,27.096155 A 23.555494 15.335379 0 1 1  46.757435 27.096155 z"
       sodipodi:ry="15.335379"
       sodipodi:rx="23.555494"
       sodipodi:cy="27.096155"
       sodipodi:cx="23.201941"
       id="path4262"
       style="opacity:0.56000000;color:#000000;fill:url(#radialGradient4270);fill-opacity:1.0000000;fill-rule:evenodd;stroke:none;stroke-width:1.0000000;stroke-linecap:round;stroke-linejoin:round;marker:none;marker-start:none;marker-mid:none;marker-end:none;stroke-miterlimit:4.0000000;stroke-dasharray:none;stroke-dashoffset:0.0000000;stroke-opacity:1.0000000;visibility:visible;display:inline;overflow:visible"
       sodipodi:type="arc" />
    <path
       sodipodi:nodetypes="cccsccccccccc"
       id="path4196"
       d="M 11.285690,7.9626278 C 10.660690,7.9626278 10.254441,8.2528080 10.004442,8.8063808 C 10.004441,8.8063808 3.5356915,25.909938 3.5356915,25.909938 C 3.5356915,25.909938 3.2856915,26.581497 3.2856915,27.691188 C 3.2856915,27.691188 3.2856915,37.341156 3.2856915,37.341156 C 3.2856915,38.423769 3.9434770,38.966158 4.9419415,38.966156 L 43.504440,38.966156 C 44.489293,38.966156 45.098190,38.247976 45.098190,37.122406 L 45.098190,27.472438 C 45.098190,27.472438 45.204153,26.702015 45.004440,26.159938 L 38.285690,8.9626314 C 38.101165,8.4507246 37.648785,7.9745331 37.160690,7.9626278 L 11.285690,7.9626278 z "
       style="stroke-opacity:1.0000000;stroke-dasharray:none;stroke-miterlimit:4;stroke-linejoin:round;stroke-linecap:round;stroke-width:1.5;stroke:#535353;fill-rule:evenodd;fill-opacity:1.0000000;fill:none" />
    <path
       sodipodi:nodetypes="ccccccccc"
       id="path4170"
       d="M 3.2735915,26.996812 L 4.0381936,26.304597 L 41.647883,26.367097 L 45.110290,26.684395 L 45.110290,37.122927 C 45.110290,38.248496 44.503272,38.966258 43.518419,38.966258 L 4.9354314,38.966258 C 3.9369667,38.966258 3.2735915,38.424207 3.2735915,37.341594 L 3.2735915,26.996812 z "
       style="fill:url(#linearGradient4234);fill-opacity:1.0;fill-rule:evenodd;stroke:none;stroke-width:1.0204430px;stroke-linecap:butt;stroke-linejoin:miter;stroke-opacity:1.0000000" />
    <path
       sodipodi:nodetypes="csccccccs"
       id="path3093"
       d="M 3.5490842,25.914404 C 2.8347985,27.378690 3.5484686,28.307261 4.5847985,28.307261 C 4.5847985,28.307261 43.584797,28.307261 43.584797,28.307261 C 44.703844,28.283451 45.430035,27.295356 45.013368,26.164403 L 38.299082,8.9537044 C 38.114558,8.4417976 37.644320,7.9656058 37.156225,7.9537008 L 11.299083,7.9537008 C 10.674083,7.9537008 10.263369,8.2572740 10.013370,8.8108468 C 10.013370,8.8108468 3.5490842,25.914404 3.5490842,25.914404 z "
       style="fill:url(#radialGradient4250);fill-opacity:1.0;fill-rule:evenodd;stroke:none;stroke-width:1.0000000px;stroke-linecap:butt;stroke-linejoin:miter;stroke-opacity:1.0000000" />
    <path
       id="path5493"
       d="M 15.755651,12.556275 L 32.372658,12.556275"
       style="fill:#eaeaea;fill-opacity:1;fill-rule:evenodd;stroke:#888a85;stroke-width:1px;stroke-linecap:butt;stroke-linejoin:miter;stroke-opacity:1" />
    <path
       sodipodi:nodetypes="cccccccc"
       id="path4201"
       d="M 44.796162,25.628688 C 44.859684,26.878662 44.382159,27.944528 43.474046,27.972438 C 43.474046,27.972438 5.3553296,27.972437 5.3553297,27.972438 C 4.0660978,27.972438 3.4875937,27.647491 3.2712790,27.104382 C 3.3630404,28.048714 4.0970964,28.753688 5.3553297,28.753688 C 5.3553296,28.753687 43.474046,28.753688 43.474046,28.753688 C 44.550053,28.720617 45.226851,27.329664 44.826210,25.758897 L 44.796162,25.628688 z "
       style="fill:#ffffff;fill-opacity:1.0000000;fill-rule:evenodd;stroke:none;stroke-width:1.0000000px;stroke-linecap:butt;stroke-linejoin:miter;stroke-opacity:1.0000000" />
    <path
       style="fill:none;fill-opacity:1.0000000;fill-rule:evenodd;stroke:url(#linearGradient4260);stroke-width:1.0000002;stroke-linecap:round;stroke-linejoin:round;stroke-miterlimit:4.0000000;stroke-dasharray:none;stroke-opacity:1.0000000"
       d="M 11.642515,8.4157227 C 11.040823,8.4157227 10.649724,8.6950813 10.409049,9.2280100 C 10.409048,9.2280100 3.9940341,25.818732 3.9940341,25.818732 C 3.9940341,25.818732 3.7533573,26.465247 3.7533573,27.533555 C 3.7533573,27.533555 3.7533573,36.823651 3.7533573,36.823651 C 3.7533573,38.178391 4.1974134,38.450550 5.3478414,38.450550 L 43.034746,38.450550 C 44.357872,38.450550 44.569062,38.134153 44.569062,36.613058 L 44.569062,27.322962 C 44.569062,27.322962 44.671072,26.581271 44.478807,26.059409 L 37.885616,9.2534336 C 37.707973,8.7606171 37.334964,8.4271840 36.865071,8.4157227 L 11.642515,8.4157227 z "
       id="path4252"
       sodipodi:nodetypes="cccsccccccccc" />
    <path
       sodipodi:nodetypes="cc"
       style="fill:#eaeaea;fill-opacity:1;fill-rule:evenodd;stroke:#888a85;stroke-width:1px;stroke-linecap:butt;stroke-linejoin:miter;stroke-opacity:1"
       d="M 15.015617,14.235647 L 32.870067,14.235647"
       id="path5495" />
    <path
       sodipodi:type="arc"
       style="opacity:1;fill:#9db029;fill-opacity:1;stroke:url(#linearGradient3679);stroke-width:1;stroke-linecap:round;stroke-linejoin:round;stroke-miterlimit:4;stroke-dasharray:none;stroke-dashoffset:0;stroke-opacity:1"
       id="path1899"
       sodipodi:cx="9.75"
       sodipodi:cy="33.25"
       sodipodi:rx="2.5"
       sodipodi:ry="2.5"
       d="M 12.25 33.25 A 2.5 2.5 0 1 1  7.25,33.25 A 2.5 2.5 0 1 1  12.25 33.25 z" />
    <path
       style="opacity:1;fill:#cee14b;fill-opacity:1;stroke:#eeeeec;stroke-width:0;stroke-linecap:round;stroke-linejoin:round;stroke-miterlimit:4;stroke-dasharray:none;stroke-dashoffset:0;stroke-opacity:1"
       d="M 10.250338,31.241975 C 9.5597226,31.001034 8.7170523,31.255003 8.3627049,31.822039 C 8.1334866,32.188839 8.1778531,32.597856 8.4168617,32.902606 C 8.4422028,32.807752 8.4723255,32.70774 8.5300199,32.615416 C 8.884367,32.048381 9.7340209,31.783236 10.424636,32.024178 C 10.665845,32.10833 10.849795,32.244646 10.980167,32.408547 C 11.102757,31.924711 10.823837,31.442055 10.250338,31.241975 z "
       id="path3681" />
    <path
       d="M 12.25 33.25 A 2.5 2.5 0 1 1  7.25,33.25 A 2.5 2.5 0 1 1  12.25 33.25 z"
       sodipodi:ry="2.5"
       sodipodi:rx="2.5"
       sodipodi:cy="33.25"
       sodipodi:cx="9.75"
       id="path3686"
       style="opacity:1;fill:#9db029;fill-opacity:1;stroke:url(#linearGradient3690);stroke-width:1;stroke-linecap:round;stroke-linejoin:round;stroke-miterlimit:4;stroke-dasharray:none;stroke-dashoffset:0;stroke-opacity:1"
       sodipodi:type="arc"
       transform="translate(6.982653,0)" />
    <path
       id="path3688"
       d="M 17.23299,31.241975 C 16.542377,31.001034 15.699709,31.255003 15.345363,31.822039 C 15.116146,32.188839 15.160511,32.597856 15.399519,32.902606 C 15.42486,32.807752 15.454983,32.70774 15.512677,32.615416 C 15.867023,32.048381 16.716674,31.783236 17.407288,32.024178 C 17.648497,32.10833 17.832447,32.244646 17.962819,32.408547 C 18.085409,31.924711 17.806489,31.442055 17.23299,31.241975 z "
       style="opacity:1;fill:#cee14b;fill-opacity:1;stroke:#eeeeec;stroke-width:0;stroke-linecap:round;stroke-linejoin:round;stroke-miterlimit:4;stroke-dasharray:none;stroke-dashoffset:0;stroke-opacity:1" />
    <path
       transform="translate(14.23056,0)"
       sodipodi:type="arc"
       style="opacity:1;fill:#9db029;fill-opacity:1;stroke:url(#linearGradient3696);stroke-width:1;stroke-linecap:round;stroke-linejoin:round;stroke-miterlimit:4;stroke-dasharray:none;stroke-dashoffset:0;stroke-opacity:1"
       id="path3692"
       sodipodi:cx="9.75"
       sodipodi:cy="33.25"
       sodipodi:rx="2.5"
       sodipodi:ry="2.5"
       d="M 12.25 33.25 A 2.5 2.5 0 1 1  7.25,33.25 A 2.5 2.5 0 1 1  12.25 33.25 z" />
    <path
       style="opacity:1;fill:#cee14b;fill-opacity:1;stroke:#eeeeec;stroke-width:0;stroke-linecap:round;stroke-linejoin:round;stroke-miterlimit:4;stroke-dasharray:none;stroke-dashoffset:0;stroke-opacity:1"
       d="M 24.480806,31.241975 C 23.790193,31.001034 22.947525,31.255003 22.593179,31.822039 C 22.363962,32.188839 22.408327,32.597856 22.647335,32.902606 C 22.672676,32.807752 22.702799,32.70774 22.760493,32.615416 C 23.114839,32.048381 23.96449,31.783236 24.655104,32.024178 C 24.896313,32.10833 25.080263,32.244646 25.210635,32.408547 C 25.333225,31.924711 25.054305,31.442055 24.480806,31.241975 z "
       id="path3694" />
    <path
       d="M 12.25 33.25 A 2.5 2.5 0 1 1  7.25,33.25 A 2.5 2.5 0 1 1  12.25 33.25 z"
       sodipodi:ry="2.5"
       sodipodi:rx="2.5"
       sodipodi:cy="33.25"
       sodipodi:cx="9.75"
       id="path3698"
       style="opacity:1;fill:#f57900;fill-opacity:1;stroke:url(#linearGradient3702);stroke-width:1;stroke-linecap:round;stroke-linejoin:round;stroke-miterlimit:4;stroke-dasharray:none;stroke-dashoffset:0;stroke-opacity:1"
       sodipodi:type="arc"
       transform="translate(29.40208,0)" />
    <path
       id="path3700"
       d="M 39.65239,31.241975 C 38.961777,31.001034 38.119109,31.255003 37.764763,31.822039 C 37.535546,32.188839 37.579911,32.597856 37.818919,32.902606 C 37.84426,32.807752 37.874383,32.70774 37.932077,32.615416 C 38.286423,32.048381 39.136074,31.783236 39.826688,32.024178 C 40.067897,32.10833 40.251847,32.244646 40.382219,32.408547 C 40.504809,31.924711 40.225889,31.442055 39.65239,31.241975 z "
       style="opacity:1;fill:#fcaf3e;fill-opacity:1;stroke:#eeeeec;stroke-width:0;stroke-linecap:round;stroke-linejoin:round;stroke-miterlimit:4;stroke-dasharray:none;stroke-dashoffset:0;stroke-opacity:1" />
    <path
       style="fill:#eaeaea;fill-opacity:1;fill-rule:evenodd;stroke:#eeeeec;stroke-width:1px;stroke-linecap:butt;stroke-linejoin:miter;stroke-opacity:1"
       d="M 15.755651,13.086603 L 32.372658,13.086603"
       id="path3704" />
    <path
       sodipodi:nodetypes="cc"
       id="path5497"
       d="M 14.308511,15.915018 L 33.577176,15.915018"
       style="fill:#eaeaea;fill-opacity:1;fill-rule:evenodd;stroke:#888a85;stroke-width:1px;stroke-linecap:butt;stroke-linejoin:miter;stroke-opacity:1" />
    <path
       id="path4591"
       d="M 15.015617,14.765975 L 32.870067,14.765975"
       style="fill:#eaeaea;fill-opacity:1;fill-rule:evenodd;stroke:#eeeeec;stroke-width:1px;stroke-linecap:butt;stroke-linejoin:miter;stroke-opacity:1"
       sodipodi:nodetypes="cc" />
    <path
       sodipodi:nodetypes="cc"
       style="fill:#eaeaea;fill-opacity:1;fill-rule:evenodd;stroke:#888a85;stroke-width:1px;stroke-linecap:butt;stroke-linejoin:miter;stroke-opacity:1"
       d="M 13.689793,17.594391 L 34.019121,17.594391"
       id="path5499" />
    <path
       style="fill:#eaeaea;fill-opacity:1;fill-rule:evenodd;stroke:#eeeeec;stroke-width:1px;stroke-linecap:butt;stroke-linejoin:miter;stroke-opacity:1"
       d="M 14.308511,16.445346 L 33.577176,16.445346"
       id="path4593"
       sodipodi:nodetypes="cc" />
    <path
       sodipodi:nodetypes="cc"
       id="path5501"
       d="M 13.159463,19.273763 L 34.637841,19.273763"
       style="fill:#eaeaea;fill-opacity:1;fill-rule:evenodd;stroke:#888a85;stroke-width:1px;stroke-linecap:butt;stroke-linejoin:miter;stroke-opacity:1" />
    <path
       id="path4595"
       d="M 13.689793,18.124719 L 34.019121,18.124719"
       style="fill:#eaeaea;fill-opacity:1;fill-rule:evenodd;stroke:#eeeeec;stroke-width:1px;stroke-linecap:butt;stroke-linejoin:miter;stroke-opacity:1"
       sodipodi:nodetypes="cc" />
    <path
       style="fill:#eaeaea;fill-opacity:1;fill-rule:evenodd;stroke:#eeeeec;stroke-width:1px;stroke-linecap:butt;stroke-linejoin:miter;stroke-opacity:1"
       d="M 13.159463,19.804091 L 34.637841,19.804091"
       id="path4597"
       sodipodi:nodetypes="cc" />
  </g>
</svg>
