<?xml version="1.0" encoding="UTF-8" standalone="no"?>
<!-- Created with Inkscape (http://www.inkscape.org/) -->

<svg
   xmlns:dc="http://purl.org/dc/elements/1.1/"
   xmlns:cc="http://creativecommons.org/ns#"
   xmlns:rdf="http://www.w3.org/1999/02/22-rdf-syntax-ns#"
   xmlns:svg="http://www.w3.org/2000/svg"
   xmlns="http://www.w3.org/2000/svg"
   xmlns:xlink="http://www.w3.org/1999/xlink"
   xmlns:sodipodi="http://sodipodi.sourceforge.net/DTD/sodipodi-0.dtd"
   xmlns:inkscape="http://www.inkscape.org/namespaces/inkscape"
   version="1.0"
   width="100"
   height="100"
   id="svg9429"
   inkscape:version="0.91 r13725"
   sodipodi:docname="suse.svg">
  <sodipodi:namedview
     pagecolor="#ffffff"
     bordercolor="#666666"
     borderopacity="1"
     objecttolerance="10"
     gridtolerance="10"
     guidetolerance="10"
     inkscape:pageopacity="0"
     inkscape:pageshadow="2"
     inkscape:window-width="905"
     inkscape:window-height="576"
     id="namedview104"
     showgrid="false"
     inkscape:zoom="1.0396476"
     inkscape:cx="113.5"
     inkscape:cy="113.5"
     inkscape:window-x="0"
     inkscape:window-y="0"
     inkscape:window-maximized="0"
     inkscape:current-layer="svg9429" />
  <defs
     id="defs9431">
    <filter
       id="filter5036"
       style="color-interpolation-filters:sRGB">
      <feGaussianBlur
         id="feGaussianBlur5038"
         stdDeviation="2.0518868" />
    </filter>
    <linearGradient
       id="linearGradient3231">
      <stop
         id="stop3233"
         style="stop-color:#e1e4de;stop-opacity:1"
         offset="0" />
      <stop
         id="stop3235"
         style="stop-color:#dbded8;stop-opacity:1"
         offset="0.29999995" />
      <stop
         id="stop3237"
         style="stop-color:#ffffff;stop-opacity:1"
         offset="1" />
    </linearGradient>
    <linearGradient
       id="linearGradient4014">
      <stop
         id="stop4016"
         style="stop-color:#888a85;stop-opacity:1"
         offset="0" />
      <stop
         id="stop4018"
         style="stop-color:#000000;stop-opacity:0"
         offset="1" />
    </linearGradient>
    <linearGradient
       id="linearGradient7692-5">
      <stop
         id="stop7694-3"
         style="stop-color:#ffffff;stop-opacity:1"
         offset="0" />
      <stop
         id="stop7696-8"
         style="stop-color:#ffffff;stop-opacity:0"
         offset="1" />
    </linearGradient>
    <linearGradient
       id="linearGradient7716-4">
      <stop
         id="stop7718-9"
         style="stop-color:#000000;stop-opacity:0.18674698"
         offset="0" />
      <stop
         id="stop7720-6"
         style="stop-color:#000000;stop-opacity:0"
         offset="1" />
    </linearGradient>
    <linearGradient
       id="linearGradient5478-8-7">
      <stop
         id="stop5480-3-0"
         style="stop-color:#3a7202;stop-opacity:1"
         offset="0" />
      <stop
         id="stop5626-0-2"
         style="stop-color:#4e9c04;stop-opacity:1"
         offset="0.69790977" />
      <stop
         id="stop5628-0-8"
         style="stop-color:#50a004;stop-opacity:1"
         offset="0.75" />
      <stop
         id="stop5482-5-2"
         style="stop-color:#7bf508;stop-opacity:1"
         offset="1" />
    </linearGradient>
    <linearGradient
       id="linearGradient5681-1-9">
      <stop
         id="stop5683-0-5"
         style="stop-color:#000000;stop-opacity:1"
         offset="0" />
      <stop
         id="stop5685-8-6"
         style="stop-color:#000000;stop-opacity:0.48124999"
         offset="1" />
    </linearGradient>
    <clipPath
       id="clipPath5677-9-5">
      <path
         d="M 99.999999,30.15625 C 61.429321,30.15625 30.15625,61.425757 30.15625,100 c 0,38.57424 31.273071,69.84375 69.843749,69.84375 38.570681,0 69.843741,-31.26951 69.843751,-69.84375 0,-38.574237 -31.27307,-69.84375 -69.843751,-69.84375 z m 0.334431,9.672654 c 33.23352,0 60.19682,26.941139 60.19682,60.171096 0,33.23353 -26.96686,60.1711 -60.19682,60.1711 -17.944818,0 -34.047202,-7.86473 -45.070447,-20.32286 4.532497,-3.51775 12.115631,-2.65954 21.454769,-1.59496 4.475522,0.50915 9.577449,1.09159 14.843406,1.20908 14.711892,0.0855 30.541332,-2.5996 40.311292,-6.86861 6.31629,-2.77006 10.36035,-4.59427 12.88829,-6.89434 0.91149,-0.7477 1.39015,-1.99679 1.87794,-3.29281 l 0.33442,-0.87466 c 0.40946,-1.04678 0.99706,-3.29926 1.26053,-4.52762 0.1175,-0.53764 0.17517,-1.1158 -0.2058,-1.41489 l -1.36343,0.25726 c -4.28682,2.57066 -14.99713,7.4667 -25.03056,7.66609 -12.43319,0.25991 -37.492094,-12.51643 -40.105491,-13.86585 l -0.25725,-0.3087 c -0.626641,-1.49541 -4.376766,-10.398076 -5.170753,-12.270895 18.037391,11.877765 32.991864,18.452075 44.453044,19.473925 12.74296,1.13224 22.683,-5.82499 26.93421,-8.79799 0.8296,-0.56612 1.46367,-1.01005 1.72359,-1.10618 l 0.28298,-0.46306 c -0.70498,-4.47909 -7.39073,-26.153517 -12.42525,-31.358942 -1.39571,-1.42775 -2.50536,-2.81725 -4.75915,-4.141745 C 114.08824,60.052432 70.821318,53.655846 68.795405,53.360326 l -0.334423,0.102899 -0.128625,0.282976 c 0,0 -0.162275,8.984424 -0.180078,9.981357 -1.484725,-0.491344 -6.088481,-1.9986 -12.682491,-3.807322 8.603734,-10.645844 21.78903,-20.091332 44.864642,-20.091332 z m 15.89813,31.847721 c 0.30705,-0.0046 0.61701,-0.01024 0.92611,0 10.20789,0.366727 18.22788,8.964455 17.87897,19.165229 -0.18159,4.934824 -2.26212,9.494346 -5.86533,12.862566 -3.6139,3.38602 -8.31087,5.1509 -13.27417,4.99068 -10.1901,-0.38097 -18.210098,-8.978695 -17.878978,-19.165231 0.174469,-4.941946 2.266488,-9.530765 5.891058,-12.888296 3.38468,-3.174386 7.71664,-4.895827 12.32234,-4.964948 z m -0.48878,5.453729 c -2.97293,0.180744 -5.77842,1.387873 -7.97479,3.447167 -2.50301,2.349918 -3.97993,5.531534 -4.0903,8.978075 -0.23499,7.12096 5.33713,13.113594 12.45097,13.377074 3.45722,0.10681 6.73667,-1.10438 9.26105,-3.44717 2.51726,-2.360599 3.98349,-5.5715 4.0903,-9.003802 0.23855,-7.131641 -5.35929,-13.102111 -12.47669,-13.351344 -0.43082,-0.01602 -0.83583,-0.02582 -1.26054,0 z m 3.39572,6.457012 c 3.16171,0 5.71099,1.718118 5.71098,3.833041 0,2.10425 -2.54927,3.833042 -5.71098,3.833049 -3.17239,0 -5.7367,-1.732364 -5.7367,-3.833049 0,-2.114923 2.56431,-3.833041 5.7367,-3.833041 z"
         id="path5679-4-9"
         style="fill:#4e9a06;fill-rule:evenodd"
         inkscape:connector-curvature="0" />
    </clipPath>
    <filter
       id="filter5645-1"
       style="color-interpolation-filters:sRGB">
      <feGaussianBlur
         id="feGaussianBlur5647-6"
         stdDeviation="0.70516335" />
    </filter>
    <linearGradient
       id="linearGradient5565-1">
      <stop
         id="stop5567-7"
         style="stop-color:#8ae234;stop-opacity:1"
         offset="0" />
      <stop
         id="stop5569-3"
         style="stop-color:#8ae234;stop-opacity:0"
         offset="1" />
    </linearGradient>
    <filter
       id="filter5556-9"
       style="color-interpolation-filters:sRGB">
      <feGaussianBlur
         id="feGaussianBlur5558-8"
         stdDeviation="2.8857142" />
    </filter>
    <linearGradient
       id="linearGradient5518-6">
      <stop
         id="stop5520-8"
         style="stop-color:#ffffff;stop-opacity:1"
         offset="0" />
      <stop
         id="stop5522-0"
         style="stop-color:#ffffff;stop-opacity:0"
         offset="1" />
    </linearGradient>
    <linearGradient
       id="linearGradient5745-5">
      <stop
         id="stop5747-7"
         style="stop-color:#ffffff;stop-opacity:1"
         offset="0" />
      <stop
         id="stop5749-0"
         style="stop-color:#ffffff;stop-opacity:0"
         offset="1" />
    </linearGradient>
    <linearGradient
       id="linearGradient5755-5">
      <stop
         id="stop5757-0"
         style="stop-color:#ffffff;stop-opacity:1"
         offset="0" />
      <stop
         id="stop5759-5"
         style="stop-color:#ffffff;stop-opacity:0"
         offset="1" />
    </linearGradient>
    <linearGradient
       id="linearGradient5767-3">
      <stop
         id="stop5769-5"
         style="stop-color:#ffffff;stop-opacity:1"
         offset="0" />
      <stop
         id="stop5771-1"
         style="stop-color:#ffffff;stop-opacity:0"
         offset="1" />
    </linearGradient>
    <filter
       x="-0.34697872"
       y="-0.049569897"
       width="1.6939574"
       height="1.0991398"
       id="filter5825-0"
       style="color-interpolation-filters:sRGB">
      <feGaussianBlur
         id="feGaussianBlur5827-8"
         stdDeviation="1.3363274" />
    </filter>
    <linearGradient
       id="linearGradient5831-1">
      <stop
         id="stop5833-9"
         style="stop-color:#ffffff;stop-opacity:1"
         offset="0" />
      <stop
         id="stop5835-8"
         style="stop-color:#ffffff;stop-opacity:0"
         offset="1" />
    </linearGradient>
    <linearGradient
       id="linearGradient5841-2">
      <stop
         id="stop5843-7"
         style="stop-color:#ffffff;stop-opacity:1"
         offset="0" />
      <stop
         id="stop5845-7"
         style="stop-color:#ffffff;stop-opacity:0"
         offset="1" />
    </linearGradient>
    <linearGradient
       id="linearGradient6807-5">
      <stop
         id="stop6809-1"
         style="stop-color:#ffffff;stop-opacity:1"
         offset="0" />
      <stop
         id="stop6811-2"
         style="stop-color:#ffffff;stop-opacity:0"
         offset="1" />
    </linearGradient>
    <filter
       id="filter7700-3"
       style="color-interpolation-filters:sRGB">
      <feGaussianBlur
         id="feGaussianBlur7702-2"
         stdDeviation="1.6902482" />
    </filter>
    <radialGradient
       cx="161.34077"
       cy="161.34077"
       r="94.569832"
       fx="161.34077"
       fy="161.34077"
       id="radialGradient3257"
       xlink:href="#linearGradient7692-5"
       gradientUnits="userSpaceOnUse" />
    <radialGradient
       cx="176.80099"
       cy="183.06195"
       r="95.130486"
       fx="176.80099"
       fy="183.06195"
       id="radialGradient3259"
       xlink:href="#linearGradient7716-4"
       gradientUnits="userSpaceOnUse" />
    <linearGradient
       x1="60.836216"
       y1="18.832932"
       x2="148.27702"
       y2="153.70456"
       id="linearGradient3261"
       xlink:href="#linearGradient5478-8-7"
       gradientUnits="userSpaceOnUse" />
    <linearGradient
       x1="98.727234"
       y1="42.150482"
       x2="98.727234"
       y2="164.39177"
       id="linearGradient3263"
       xlink:href="#linearGradient5478-8-7"
       gradientUnits="userSpaceOnUse" />
    <linearGradient
       x1="100"
       y1="166.72182"
       x2="100"
       y2="39.739437"
       id="linearGradient3265"
       xlink:href="#linearGradient5681-1-9"
       gradientUnits="userSpaceOnUse" />
    <radialGradient
       cx="132"
       cy="293.59906"
       r="102"
       fx="132"
       fy="293.59906"
       id="radialGradient3267"
       xlink:href="#linearGradient5565-1"
       gradientUnits="userSpaceOnUse"
       gradientTransform="matrix(0.4812739,0,0,-0.2452646,376.54043,-122.79884)" />
    <radialGradient
       cx="132.01065"
       cy="37.250149"
       r="103.84375"
       fx="132.01065"
       fy="37.250149"
       id="radialGradient3269"
       xlink:href="#linearGradient5518-6"
       gradientUnits="userSpaceOnUse"
       gradientTransform="matrix(0.9311654,0,0,0.8801658,317.15471,-220.00355)" />
    <radialGradient
       cx="132"
       cy="293.59906"
       r="102"
       fx="132"
       fy="293.59906"
       id="radialGradient3271"
       xlink:href="#linearGradient5565-1"
       gradientUnits="userSpaceOnUse"
       gradientTransform="matrix(1.1252161,0,0,0.5734273,291.54003,-172.5235)" />
    <radialGradient
       cx="89.75"
       cy="20.619284"
       r="59.25"
       fx="89.75"
       fy="20.619284"
       id="radialGradient3273"
       xlink:href="#linearGradient5565-1"
       gradientUnits="userSpaceOnUse"
       gradientTransform="matrix(1.4973544,0,0,0.5528207,266.33925,-180.49721)" />
    <radialGradient
       cx="105.75"
       cy="38.506714"
       r="59.25"
       fx="105.75"
       fy="38.506714"
       id="radialGradient3275"
       xlink:href="#linearGradient5745-5"
       gradientUnits="userSpaceOnUse"
       gradientTransform="matrix(1.2847965,0,0,0.555661,279.75821,-185.14092)" />
    <radialGradient
       cx="158.0618"
       cy="117.97007"
       r="12.438205"
       fx="158.0618"
       fy="117.97007"
       id="radialGradient3277"
       xlink:href="#linearGradient5755-5"
       gradientUnits="userSpaceOnUse"
       gradientTransform="matrix(1.5487879,0,0,0.967699,219.5322,-229.11394)" />
    <radialGradient
       cx="40.807701"
       cy="81.171234"
       r="83.063797"
       fx="40.807701"
       fy="81.171234"
       id="radialGradient3279"
       xlink:href="#linearGradient5767-3"
       gradientUnits="userSpaceOnUse"
       gradientTransform="matrix(0.9311654,0,0,0.9920213,316.68913,-232.2523)" />
    <radialGradient
       cx="40.807701"
       cy="81.171234"
       r="83.063797"
       fx="40.807701"
       fy="81.171234"
       id="radialGradient3281"
       xlink:href="#linearGradient5767-3"
       gradientUnits="userSpaceOnUse"
       gradientTransform="matrix(0.9311654,0,0,0.9920213,316.68913,-232.2523)" />
    <radialGradient
       cx="98"
       cy="146.19427"
       r="13"
       fx="98"
       fy="146.19427"
       id="radialGradient3283"
       xlink:href="#linearGradient5831-1"
       gradientUnits="userSpaceOnUse"
       gradientTransform="matrix(0.9311654,0,0,0.7431416,320.87937,-195.79894)" />
    <radialGradient
       cx="164.25"
       cy="187.76793"
       r="26"
       fx="164.25"
       fy="187.76793"
       id="radialGradient3285"
       xlink:href="#linearGradient5841-2"
       gradientUnits="userSpaceOnUse"
       gradientTransform="matrix(1.2266314,0,0,0.2485319,272.34909,-113.88511)" />
    <radialGradient
       cx="93"
       cy="3.5"
       r="93.5"
       fx="93"
       fy="3.5"
       id="radialGradient3287"
       xlink:href="#linearGradient6807-5"
       gradientUnits="userSpaceOnUse" />
    <radialGradient
       cx="93"
       cy="3.5"
       r="93.5"
       fx="93"
       fy="3.5"
       id="radialGradient3289"
       xlink:href="#linearGradient6807-5"
       gradientUnits="userSpaceOnUse" />
    <linearGradient
       x1="158.15625"
       y1="703.10938"
       x2="158.15625"
       y2="542.91357"
       id="linearGradient3291"
       xlink:href="#linearGradient3231"
       gradientUnits="userSpaceOnUse"
       gradientTransform="matrix(1.2288309,0,0,1.2288309,-90.4959,-780.73963)" />
    <linearGradient
       x1="130.08246"
       y1="237.06262"
       x2="130.08246"
       y2="103.91788"
       id="linearGradient3293"
       xlink:href="#linearGradient4014"
       gradientUnits="userSpaceOnUse"
       gradientTransform="matrix(1.2288309,0,0,1.2288309,-55.997963,-208.04698)" />
  </defs>
  <metadata
     id="metadata9434">
    <rdf:RDF>
      <cc:Work
         rdf:about="">
        <dc:format>image/svg+xml</dc:format>
        <dc:type
           rdf:resource="http://purl.org/dc/dcmitype/StillImage" />
        <dc:title></dc:title>
      </cc:Work>
    </rdf:RDF>
  </metadata>
  <g
     id="g3432"
     transform="matrix(0.41893739,0,0,0.41893739,2.9953811,55.892038)">
    <path
       inkscape:connector-curvature="0"
       style="filter:url(#filter5036)"
       id="path5034"
       transform="matrix(1.2288309,0,0,1.2288309,-55.997963,-206.81815)"
       d="m 225,157 a 87,87 0 1 1 -174,0 87,87 0 1 1 174,0 z" />
    <path
       inkscape:connector-curvature="0"
       style="fill:url(#linearGradient3291);stroke:url(#linearGradient3293);stroke-width:1"
       id="path3190"
       d="m 220.48899,-15.12053 a 106.90829,106.90829 0 0 1 -213.8165771,0 106.90829,106.90829 0 1 1 213.8165771,0 z" />
    <g
       id="g4664"
       transform="matrix(1.1146008,0,0,1.1146008,35.55864,-601.62906)">
      <path
         inkscape:connector-curvature="0"
         style="fill:none;stroke:url(#radialGradient3257);stroke-width:4.85698986"
         id="path7690"
         transform="matrix(0.9235989,0,0,0.9235989,-33.943071,421.05693)"
         d="m 204,112 a 92,92 0 1 1 -184,0 92,92 0 1 1 184,0 z" />
      <path
         inkscape:connector-curvature="0"
         style="fill:none;stroke:url(#radialGradient3259);stroke-width:5.61722565"
         id="path7712"
         transform="matrix(0.7985989,0,0,0.7985989,-19.943071,435.05693)"
         d="m 204,112 a 92,92 0 1 1 -184,0 92,92 0 1 1 184,0 z" />
      <g
         id="g6745"
         transform="matrix(0.8650756,0,0,0.8650756,-310.85336,614.71759)">
        <g
           style="fill:url(#linearGradient3263)"
           id="g4851"
           transform="matrix(1.3844576,0,0,1.3844576,301.62279,-242.01343)">
          <path
             inkscape:connector-curvature="0"
             style="fill:url(#linearGradient3261);fill-rule:evenodd"
             id="path2445"
             d="m 100,30.15625 c -38.57068,0 -69.84375,31.269508 -69.84375,69.84375 0,38.57424 31.273072,69.84375 69.84375,69.84375 38.57068,0 69.84374,-31.26951 69.84375,-69.84375 0,-38.57424 -31.27307,-69.84375 -69.84375,-69.84375 z m 0.33443,9.672652 c 33.23352,0 60.19682,26.941143 60.19682,60.171098 0,33.23353 -26.96686,60.1711 -60.19682,60.1711 -17.944821,0 -34.047203,-7.86473 -45.070445,-20.32286 4.532491,-3.51775 12.115629,-2.65954 21.454765,-1.59496 4.475525,0.50915 9.577453,1.09159 14.843405,1.20908 14.711895,0.0855 30.541335,-2.5996 40.311295,-6.86861 6.31629,-2.77006 10.36035,-4.59427 12.88829,-6.89434 0.91149,-0.7477 1.39015,-1.99679 1.87794,-3.29281 l 0.33442,-0.87466 c 0.40946,-1.04678 0.99706,-3.29926 1.26053,-4.52762 0.1175,-0.53764 0.17517,-1.1158 -0.2058,-1.41489 l -1.36343,0.25726 c -4.28682,2.57066 -14.99713,7.4667 -25.03056,7.66609 -12.43319,0.25991 -37.492093,-12.51643 -40.105489,-13.86585 l -0.257252,-0.3087 c -0.626644,-1.49541 -4.376768,-10.39808 -5.170752,-12.270896 18.037389,11.877766 32.991863,18.452076 44.453043,19.473926 12.74296,1.13224 22.683,-5.82499 26.93421,-8.79799 0.8296,-0.56612 1.46367,-1.01005 1.72359,-1.10618 l 0.28298,-0.46306 c -0.70498,-4.47909 -7.39073,-26.153517 -12.42525,-31.35894 -1.39571,-1.427752 -2.50536,-2.81725 -4.75915,-4.141747 C 114.08824,60.052429 70.821318,53.655843 68.795407,53.360325 l -0.334426,0.1029 -0.128626,0.282977 c 0,0 -0.162274,8.984421 -0.180076,9.981353 -1.484722,-0.491344 -6.088485,-1.998597 -12.682493,-3.80732 8.603733,-10.645844 21.789033,-20.091332 44.864644,-20.091333 z m 15.89813,31.847721 c 0.30705,-0.0046 0.61701,-0.01024 0.92611,0 10.20789,0.366729 18.22788,8.964457 17.87897,19.165228 -0.18159,4.934825 -2.26212,9.494349 -5.86533,12.862569 -3.6139,3.38602 -8.31087,5.1509 -13.27417,4.99068 -10.1901,-0.38097 -18.2101,-8.978697 -17.878976,-19.165231 0.174464,-4.941948 2.266486,-9.530764 5.891056,-12.888294 3.38468,-3.174391 7.71664,-4.895833 12.32234,-4.964952 z m -0.48878,5.453729 c -2.97293,0.180743 -5.77842,1.387872 -7.97479,3.447169 -2.50301,2.349915 -3.97993,5.531532 -4.0903,8.978073 -0.23499,7.120959 5.33713,13.113596 12.45097,13.377076 3.45722,0.10681 6.73667,-1.10438 9.26105,-3.447173 2.51726,-2.360599 3.98349,-5.571496 4.0903,-9.003798 0.23855,-7.131643 -5.35929,-13.102113 -12.47669,-13.351347 -0.43082,-0.01602 -0.83583,-0.02582 -1.26054,0 z m 3.39572,6.45701 c 3.16171,0 5.71099,1.718121 5.71098,3.833045 0,2.104248 -2.54927,3.833044 -5.71098,3.833046 -3.17239,0 -5.7367,-1.732365 -5.7367,-3.833046 0,-2.114922 2.56431,-3.833043 5.7367,-3.833045 z" />
        </g>
        <path
           inkscape:connector-curvature="0"
           style="opacity:0.82530117;fill:none;stroke:url(#linearGradient3265);stroke-width:1.49822474;filter:url(#filter5645-1)"
           id="path5577"
           clip-path="url(#clipPath5677-9-5)"
           transform="matrix(1.3844576,0,0,1.3844576,301.89004,-242.19493)"
           d="m 100,30.15625 c -38.57068,0 -69.84375,31.269508 -69.84375,69.84375 0,38.57424 31.273072,69.84375 69.84375,69.84375 38.57068,0 69.84374,-31.26951 69.84375,-69.84375 0,-38.57424 -31.27307,-69.84375 -69.84375,-69.84375 z m 0.33443,9.672652 c 33.23352,0 60.19682,26.941143 60.19682,60.171098 0,33.23353 -26.96686,60.1711 -60.19682,60.1711 -17.944821,0 -34.047203,-7.86473 -45.070445,-20.32286 4.532491,-3.51775 12.115629,-2.65954 21.454765,-1.59496 4.475525,0.50915 9.577453,1.09159 14.843405,1.20908 14.711895,0.0855 30.541335,-2.5996 40.311295,-6.86861 6.31629,-2.77006 10.36035,-4.59427 12.88829,-6.89434 0.91149,-0.7477 1.39015,-1.99679 1.87794,-3.29281 l 0.33442,-0.87466 c 0.40946,-1.04678 0.99706,-3.29926 1.26053,-4.52762 0.1175,-0.53764 0.17517,-1.1158 -0.2058,-1.41489 l -1.36343,0.25726 c -4.28682,2.57066 -14.99713,7.4667 -25.03056,7.66609 -12.43319,0.25991 -37.492093,-12.51643 -40.105489,-13.86585 l -0.257252,-0.3087 c -0.626644,-1.49541 -4.376768,-10.39808 -5.170752,-12.270896 18.037389,11.877766 32.991863,18.452076 44.453043,19.473926 12.74296,1.13224 22.683,-5.82499 26.93421,-8.79799 0.8296,-0.56612 1.46367,-1.01005 1.72359,-1.10618 l 0.28298,-0.46306 c -0.70498,-4.47909 -7.39073,-26.153517 -12.42525,-31.35894 -1.39571,-1.427752 -2.50536,-2.81725 -4.75915,-4.141747 C 114.08824,60.052429 70.821318,53.655843 68.795407,53.360325 l -0.334426,0.1029 -0.128626,0.282977 c 0,0 -0.162274,8.984421 -0.180076,9.981353 -1.484722,-0.491344 -6.088485,-1.998597 -12.682493,-3.80732 8.603733,-10.645844 21.789033,-20.091332 44.864644,-20.091333 z m 15.89813,31.847721 c 0.30705,-0.0046 0.61701,-0.01024 0.92611,0 10.20789,0.366729 18.22788,8.964457 17.87897,19.165228 -0.18159,4.934825 -2.26212,9.494349 -5.86533,12.862569 -3.6139,3.38602 -8.31087,5.1509 -13.27417,4.99068 -10.1901,-0.38097 -18.2101,-8.978697 -17.878976,-19.165231 0.174464,-4.941948 2.266486,-9.530764 5.891056,-12.888294 3.38468,-3.174391 7.71664,-4.895833 12.32234,-4.964952 z m -0.48878,5.453729 c -2.97293,0.180743 -5.77842,1.387872 -7.97479,3.447169 -2.50301,2.349915 -3.97993,5.531532 -4.0903,8.978073 -0.23499,7.120959 5.33713,13.113596 12.45097,13.377076 3.45722,0.10681 6.73667,-1.10438 9.26105,-3.447173 2.51726,-2.360599 3.98349,-5.571496 4.0903,-9.003798 0.23855,-7.131643 -5.35929,-13.102113 -12.47669,-13.351347 -0.43082,-0.01602 -0.83583,-0.02582 -1.26054,0 z m 3.39572,6.45701 c 3.16171,0 5.71099,1.718121 5.71098,3.833045 0,2.104248 -2.54927,3.833044 -5.71098,3.833046 -3.17239,0 -5.7367,-1.732365 -5.7367,-3.833046 0,-2.114922 2.56431,-3.833043 5.7367,-3.833045 z" />
        <path
           inkscape:connector-curvature="0"
           style="opacity:0.42771086;fill:url(#radialGradient3267);fill-rule:evenodd"
           id="path5731"
           d="m 357.21973,-106.26274 c -0.01,-0.52956 -0.0249,-1.06166 -0.0249,-1.59366 0,-45.7463 37.12743,-82.87373 82.87372,-82.87373 45.7463,0 82.87372,37.12743 82.87372,82.87373 0,0.532 -0.0149,1.0641 -0.0249,1.59366 -0.84964,-45.01235 -37.63446,-81.27995 -82.84881,-81.27995 -45.21434,0 -81.9992,36.2676 -82.84881,81.27995 z" />
        <path
           inkscape:connector-curvature="0"
           style="fill:#ffffff;fill-rule:evenodd;filter:url(#filter5556-9)"
           id="path4856"
           transform="matrix(0.9311654,0,0,0.9311654,49.91024,-222.75685)"
           d="m 419.01065,24.863357 c -57.34691,-1e-6 -103.84374,46.491533 -103.84374,103.843753 0,0.50022 0.0242,1.00146 0.0313,1.5 0.80132,-56.661516 46.96575,-102.343754 103.81249,-102.343753 56.84675,0 103.01119,45.682239 103.8125,102.343753 0.007,-0.49854 0.0313,-0.99978 0.0313,-1.5 0,-57.352217 -46.49682,-103.843753 -103.84375,-103.843753 z m -46.40624,34.5 -0.5,0.15625 -0.1875,0.40625 c 1e-5,0 -0.25478,13.361511 -0.28125,14.84375 -2.04237,-0.675887 -8.16017,-2.673241 -16.8125,-5.09375 -0.69858,0.806787 -1.37015,1.619487 -2.03125,2.4375 9.80397,2.689211 16.63626,4.925717 18.84375,5.65625 0.0265,-1.482239 0.28126,-14.84375 0.28125,-14.84375 l 0.1875,-0.40625 0.5,-0.15625 c 3.01213,0.439377 67.34422,9.958814 94.43749,25.75 3.35094,1.969263 4.98736,4.033467 7.0625,6.15625 6.84708,7.079513 15.72956,34.596833 18,44.343753 0.018,-0.008 0.0464,-0.0253 0.0625,-0.0313 l 0.4375,-0.6875 c -1.04816,-6.65951 -11.01467,-38.88557 -18.5,-46.625003 -2.07514,-2.122783 -3.71156,-4.186987 -7.0625,-6.15625 -27.09327,-15.791186 -91.42536,-25.310623 -94.43749,-25.75 z m 70.74999,35.3125 c -0.30954,-0.0018 -0.62177,0.01206 -0.9375,0.03125 -4.42015,0.268726 -8.60943,2.063243 -11.875,5.125003 -3.72148,3.49386 -5.8984,8.21943 -6.0625,13.34375 -0.0251,0.75931 10e-4,1.51047 0.0625,2.25 0.3449,-4.8335 2.46156,-9.27174 6,-12.59375 3.26557,-3.06176 7.45485,-4.85627 11.875,-5.125 0.63146,-0.03839 1.23446,-0.02382 1.875,0 9.82323,0.34398 17.67324,8.0131 18.46875,17.59375 0.0175,-0.2493 0.0547,-0.499 0.0625,-0.75 0.35468,-10.60333 -7.94909,-19.473192 -18.53125,-19.843753 -0.32027,-0.01191 -0.62795,-0.02943 -0.9375,-0.03125 z m -4.09375,16.812503 c -0.19924,0.48322 -0.34375,0.97469 -0.34375,1.5 0,3.1233 3.81454,5.71875 8.53125,5.71875 4.70084,-1e-5 8.5,-2.59015 8.5,-5.71875 10e-6,-0.52408 -0.11526,-1.01779 -0.3125,-1.5 -0.98145,2.41029 -4.26501,4.21874 -8.1875,4.21875 -3.9335,0 -7.19845,-1.81237 -8.1875,-4.21875 z m -23.1875,4.03125 c -0.0119,0.20761 -0.0239,0.41652 -0.0313,0.625 -0.49231,15.14535 11.4431,27.93357 26.59375,28.5 7.37944,0.23822 14.37686,-2.40317 19.75,-7.4375 5.35726,-5.00788 8.44876,-11.7879 8.71875,-19.125 0.0274,-0.80028 0.009,-1.58944 -0.0313,-2.375 -0.41756,7.0972 -3.48225,13.63421 -8.6875,18.5 -5.37314,5.03433 -12.37056,7.67572 -19.75,7.4375 -14.35121,-0.53654 -25.81187,-12.04094 -26.5625,-26.125 z m -32.59374,11.8125 c 1.1805,2.78451 6.7558,16.02662 7.68749,18.25 l 0.375,0.46875 c 3.8856,2.00631 41.13932,21.01144 59.625,20.625 14.91772,-0.29645 30.84511,-7.58419 37.21875,-11.40625 l 2.03125,-0.375 c 0.0236,0.0185 0.0411,0.0426 0.0625,0.0625 0.0716,-0.30586 0.19523,-0.71337 0.25,-0.96875 0.1747,-0.79936 0.25393,-1.64906 -0.3125,-2.09375 l -2.03125,0.375 c -6.37364,3.82206 -22.30103,11.1098 -37.21875,11.40625 -18.48568,0.38644 -55.7394,-18.61869 -59.625,-20.625 l -0.375,-0.46875 c -0.72088,-1.7203 -3.84324,-9.16115 -5.93749,-14.125 -0.58457,-0.38025 -1.161,-0.73714 -1.75,-1.125 z m 125.49999,2.875 c -0.80143,48.71983 -40.5632,87.96875 -89.46875,87.96875 -25.76648,0 -48.99035,-10.91282 -65.31249,-28.34375 -0.59721,0.33872 -1.17879,0.70593 -1.71875,1.125 16.38937,18.52276 40.35086,30.21875 67.03124,30.21875 49.40634,0 89.5,-40.05711 89.5,-89.46875 0,-0.50079 -0.023,-1.00116 -0.0313,-1.5 z" />
        <path
           inkscape:connector-curvature="0"
           style="opacity:0.35714285;fill:url(#radialGradient3269);fill-rule:evenodd"
           id="path5516"
           d="m 440.07846,-199.60495 c -53.39946,0 -96.6957,43.2913 -96.6957,96.69571 0,0.46579 0.0225,0.93252 0.0291,1.39675 0.74616,-52.76125 43.73288,-95.29897 96.6666,-95.29897 52.93373,0 95.92046,42.53772 96.66661,95.29897 0.007,-0.46423 0.0291,-0.93096 0.0291,-1.39675 0,-53.4044 -43.29623,-96.69571 -96.69571,-96.69571 z m -43.21189,32.1252 -0.46558,0.1455 -0.17459,0.37828 c 10e-6,0 -0.23724,12.44178 -0.26189,13.82199 -1.90179,-0.62936 -7.59847,-2.48923 -15.65522,-4.74312 -0.65049,0.75125 -1.27584,1.50801 -1.89143,2.26971 9.12912,2.5041 15.49111,4.58666 17.54665,5.26691 0.0247,-1.38021 0.2619,-13.82199 0.26189,-13.82199 l 0.17459,-0.37829 0.46558,-0.14549 c 2.8048,0.40913 62.70861,9.2733 87.93693,23.97751 3.12028,1.83371 4.64405,3.75582 6.57635,5.73249 6.37577,6.59219 14.64683,32.21537 16.76098,41.291365 0.0168,-0.0072 0.0432,-0.02355 0.0582,-0.0291 l 0.40738,-0.640176 c -0.97601,-6.201109 -10.25648,-36.208899 -17.22656,-43.415589 -1.9323,-1.97666 -3.45607,-3.89878 -6.57635,-5.73249 -25.22832,-14.7042 -85.13213,-23.56837 -87.93693,-23.97751 z m 65.87995,32.88178 c -0.28824,-0.002 -0.57897,0.0112 -0.87297,0.0291 -4.11589,0.25023 -8.0168,1.92122 -11.05759,4.77223 -3.46531,3.25336 -5.49239,7.65365 -5.64519,12.42523 -0.0233,0.70705 10e-4,1.4065 0.0582,2.09513 0.32116,-4.50079 2.29212,-8.63353 5.58699,-11.72687 3.04079,-2.851 6.9417,-4.52199 11.05759,-4.77222 0.58799,-0.0357 1.14949,-0.0222 1.74593,0 9.14706,0.3203 16.45671,7.46152 17.19747,16.38269 0.0163,-0.23214 0.0509,-0.46465 0.0582,-0.69837 0.33027,-9.87346 -7.40191,-18.13277 -17.25566,-18.47782 -0.29822,-0.0111 -0.58472,-0.0274 -0.87296,-0.0291 z m -3.81196,15.65522 c -0.18553,0.44996 -0.32009,0.9076 -0.32009,1.39675 0,2.90831 3.55197,5.3251 7.94401,5.3251 4.37726,-1e-5 7.9149,-2.41185 7.9149,-5.3251 10e-6,-0.488 -0.10732,-0.94773 -0.29099,-1.39675 -0.91389,2.24438 -3.97143,3.92835 -7.62391,3.92836 -3.66274,0 -6.70295,-1.68762 -7.62392,-3.92836 z m -21.5914,3.75376 c -0.0111,0.19332 -0.0222,0.38785 -0.0291,0.58198 -0.45842,14.10283 10.65542,26.010776 24.76318,26.538216 6.87148,0.221822 13.38724,-2.237749 18.39052,-6.925543 4.98849,-4.663164 7.86719,-10.976483 8.1186,-17.808533 0.0255,-0.7452 0.009,-1.48004 -0.0291,-2.21152 -0.38882,6.60866 -3.24255,12.6957 -8.0895,17.226557 -5.00328,4.687794 -11.51904,7.147365 -18.39052,6.925543 -13.36335,-0.499608 -24.03512,-11.21211 -24.73408,-24.3267 z m -30.35016,10.9994 c 1.09924,2.59283 6.29077,14.923429 7.15832,16.993764 l 0.34919,0.436483 c 3.61814,1.868207 38.30751,19.565126 55.52074,19.205287 13.89086,-0.276044 28.7219,-7.062135 34.65681,-10.621105 l 1.89143,-0.349188 c 0.022,0.01726 0.0383,0.03963 0.0582,0.0582 0.0667,-0.284806 0.18179,-0.664265 0.23279,-0.902066 0.16267,-0.744337 0.23645,-1.535548 -0.29099,-1.949628 l -1.89143,0.349187 c -5.93491,3.55897 -20.76595,10.345062 -34.65681,10.621106 -17.21323,0.359839 -51.9026,-17.33708 -55.52074,-19.205287 l -0.34919,-0.436484 c -0.67126,-1.601883 -3.57869,-8.530545 -5.52878,-13.152709 -0.54433,-0.35408 -1.08109,-0.6864 -1.62954,-1.04756 z m 116.86125,2.6771 c -0.74627,45.366216 -37.77105,81.913452 -83.31021,81.913452 -23.99285,0 -45.61812,-10.16164 -60.81673,-26.392719 -0.5561,0.315404 -1.09765,0.657337 -1.60044,1.047561 15.26122,17.247753 37.57333,28.138654 62.41717,28.138654 46.00548,0 83.33931,-37.299795 83.33931,-83.310208 0,-0.46631 -0.0215,-0.93224 -0.0291,-1.39674 z" />
        <path
           inkscape:connector-curvature="0"
           style="opacity:0.63253012;fill:url(#radialGradient3271);fill-rule:evenodd"
           id="path5560"
           d="m 345.11821,-105.64489 c -0.0114,0.60694 -0.0285,1.21684 -0.0285,1.8265 0,52.428341 42.55054,94.978875 94.97887,94.978875 52.42834,0 94.97887,-42.550534 94.97887,-94.978875 0,-0.60966 -0.0171,-1.21956 -0.0285,-1.8265 -0.97372,51.587248 -43.13165,93.152357 -94.95033,93.152357 -51.81867,0 -93.97661,-41.565109 -94.95033,-93.152357 z" />
        <path
           inkscape:connector-curvature="0"
           style="opacity:0.43975902;fill:url(#radialGradient3273);fill-rule:evenodd"
           id="path5735"
           d="m 379.31,-157.57527 17.69214,5.3542 0.69838,-14.89865 c 38.31836,6.15791 71.66093,15.24784 91.95258,27.23659 -24.7765,-10.65217 -25.09916,-10.5215 -53.30922,-2.09512 -17.92493,5.3542 -20.48564,22.58076 -20.48564,22.58076 -29.265,-5.14001 -22.62471,-29.56107 -36.54824,-38.17778 z" />
        <path
           inkscape:connector-curvature="0"
           style="opacity:0.43975902;fill:url(#radialGradient3275);fill-rule:evenodd"
           id="path5743"
           d="m 379.31,-157.57527 17.69214,5.3542 0.69838,-14.89865 c 38.31836,6.15791 71.66093,15.24784 91.95258,27.23659 -24.7765,-10.65217 -27.07811,-9.57106 -54.93876,-3.72466 -27.85086,5.84434 -30.53312,2.25565 -55.40434,-13.96748 z" />
        <path
           inkscape:connector-curvature="0"
           style="opacity:0.43975902;fill:url(#radialGradient3277);fill-rule:evenodd"
           id="path5753"
           d="m 454.7344,-119.39749 c 6.74465,6.27561 14.20878,7.75471 22.81355,1.62954 0,0 -3.84106,13.67649 -14.66586,12.80352 -11.07678,-0.89328 -8.14769,-14.43306 -8.14769,-14.43306 z" />
        <path
           inkscape:connector-curvature="0"
           style="opacity:0.37349399;fill:url(#radialGradient3279);fill-rule:evenodd"
           id="path5763"
           d="m 500.47463,-174.36474 c -0.44448,-0.3944 -0.88761,-0.79489 -1.34141,-1.1825 -39.02503,-33.33323 -97.75057,-28.71379 -131.08378,10.31123 -33.33323,39.02503 -28.71379,97.750571 10.31124,131.083788 0.45379,0.387625 0.91863,0.762671 1.37768,1.140016 -37.77988,-33.523248 -41.91542,-91.330034 -8.96982,-129.901254 32.94562,-38.57123 90.68805,-43.52496 129.70609,-11.45128 z" />
        <path
           inkscape:connector-curvature="0"
           style="opacity:0.37349399;fill:url(#radialGradient3281);fill-rule:evenodd"
           id="path5775"
           d="m 500.47463,-174.36474 c -0.44448,-0.3944 -0.88761,-0.79489 -1.34141,-1.1825 -39.02503,-33.33323 -97.75057,-28.71379 -131.08378,10.31123 -33.33323,39.02503 -28.71379,97.750571 10.31124,131.083788 0.45379,0.387625 0.91863,0.762671 1.37768,1.140016 -37.86918,-33.548762 -44.81958,-94.055374 -9.90098,-131.065204 34.81133,-36.89614 91.61921,-42.36101 130.63725,-10.28733 z" />
        <path
           inkscape:connector-curvature="0"
           style="opacity:0.37349399;fill:#73d216;fill-rule:evenodd;filter:url(#filter5825-0)"
           id="path5791"
           transform="matrix(0.9311654,0,0,0.9311654,49.91024,-222.75685)"
           d="m 507.72823,157.71216 6.01041,-2.47488 c 6.90924,-23.95896 1.72751,-44.52937 -6.01041,-62.225393 5.69868,18.974033 8.43153,41.837153 0,64.700273 z" />
        <path
           inkscape:connector-curvature="0"
           style="opacity:0.37349399;fill:url(#radialGradient3283);fill-rule:evenodd"
           id="path5829"
           d="m 408.40892,-98.911852 4.42303,10.24282 19.78727,9.078862 -21.88239,-6.98374 -2.32791,-12.337942 z" />
        <path
           inkscape:connector-curvature="0"
           style="opacity:0.37349399;fill:url(#radialGradient3285);fill-rule:evenodd"
           id="path5839"
           d="m 452.17369,-71.675264 c 16.78002,4.93338 32.88189,2.746175 48.4206,-5.354201 -16.81153,11.85463 -32.84884,12.096053 -48.4206,5.354201 z" />
      </g>
      <path
         inkscape:connector-curvature="0"
         style="fill:none;stroke:url(#radialGradient3287);stroke-width:4.39195251"
         id="path6805"
         transform="matrix(1.0213934,0,0,1.0213934,-24.989581,424.92484)"
         d="M 184,97 A 91,91 0 1 1 2,97 91,91 0 1 1 184,97 Z" />
      <path
         inkscape:connector-curvature="0"
         style="fill:none;stroke:url(#radialGradient3289);stroke-width:4.53447914;filter:url(#filter7700-3)"
         id="path6815"
         transform="matrix(0.9892891,0,0,0.9892891,-22.003886,428.03896)"
         d="M 184,97 A 91,91 0 1 1 2,97 91,91 0 1 1 184,97 Z" />
    </g>
  </g>
</svg>
