<?xml version="1.0" encoding="UTF-8" standalone="no"?>
<svg
   xmlns:dc="http://purl.org/dc/elements/1.1/"
   xmlns:cc="http://creativecommons.org/ns#"
   xmlns:rdf="http://www.w3.org/1999/02/22-rdf-syntax-ns#"
   xmlns:svg="http://www.w3.org/2000/svg"
   xmlns="http://www.w3.org/2000/svg"
   xmlns:xlink="http://www.w3.org/1999/xlink"
   xmlns:sodipodi="http://sodipodi.sourceforge.net/DTD/sodipodi-0.dtd"
   xmlns:inkscape="http://www.inkscape.org/namespaces/inkscape"
   width="100"
   height="100"
   viewBox="-142.5 -142.5 100 100"
   id="svg2"
   version="1.1"
   inkscape:version="0.91 r13725"
   sodipodi:docname="ubuntu.svg">
  <metadata
     id="metadata19">
    <rdf:RDF>
      <cc:Work
         rdf:about="">
        <dc:format>image/svg+xml</dc:format>
        <dc:type
           rdf:resource="http://purl.org/dc/dcmitype/StillImage" />
        <dc:title></dc:title>
      </cc:Work>
    </rdf:RDF>
  </metadata>
  <defs
     id="defs17" />
  <sodipodi:namedview
     pagecolor="#ffffff"
     bordercolor="#666666"
     borderopacity="1"
     objecttolerance="10"
     gridtolerance="10"
     guidetolerance="10"
     inkscape:pageopacity="0"
     inkscape:pageshadow="2"
     inkscape:window-width="640"
     inkscape:window-height="480"
     id="namedview15"
     showgrid="false"
     inkscape:zoom="2.3421361"
     inkscape:cx="84.160262"
     inkscape:cy="45.582086"
     inkscape:window-x="0"
     inkscape:window-y="0"
     inkscape:window-maximized="0"
     inkscape:current-layer="svg2" />
  <g
     id="g3347"
     transform="matrix(0.33966144,0,0,0.33966144,-93.164141,-29.425453)">
    <circle
       style="fill:#dd4814"
       cy="-185"
       cx="0"
       id="circle4"
       r="141.73199" />
    <g
       transform="translate(0,-185)"
       style="fill:#ffffff"
       id="U">
      <circle
         cy="0"
         id="circle7"
         r="18.921499"
         cx="-96.377197" />
      <path
         inkscape:connector-curvature="0"
         id="path9"
         d="M -45.6059,68.395 C -62.1655,57.3316 -74.4844,40.4175 -79.6011,20.6065 -73.623,15.7354 -69.8047,8.3164 -69.8047,0 c 0,-8.3164 -3.8183,-15.7354 -9.7964,-20.6065 5.1167,-19.811 17.4356,-36.7251 33.9952,-47.7885 l 13.8344,23.1738 C -45.9824,-35.2197 -55.2754,-18.7026 -55.2754,0 c 0,18.7026 9.293,35.2197 23.5039,45.2212 z" />
    </g>
    <use
       height="100%"
       width="100%"
       y="0"
       x="0"
       id="use11"
       transform="matrix(-0.5,0.8660254,-0.8660254,-0.5,-160.2147,-277.5)"
       xlink:href="#U" />
    <use
       height="100%"
       width="100%"
       y="0"
       x="0"
       id="use13"
       transform="matrix(-0.5,-0.8660254,0.8660254,-0.5,160.2147,-277.5)"
       xlink:href="#U" />
  </g>
</svg>
