<?xml version="1.0" encoding="UTF-8" standalone="no"?>
<!-- Created with Inkscape (http://www.inkscape.org/) -->

<svg
   xmlns:dc="http://purl.org/dc/elements/1.1/"
   xmlns:cc="http://creativecommons.org/ns#"
   xmlns:rdf="http://www.w3.org/1999/02/22-rdf-syntax-ns#"
   xmlns:svg="http://www.w3.org/2000/svg"
   xmlns="http://www.w3.org/2000/svg"
   xmlns:sodipodi="http://sodipodi.sourceforge.net/DTD/sodipodi-0.dtd"
   xmlns:inkscape="http://www.inkscape.org/namespaces/inkscape"
   width="100"
   height="100"
   viewBox="0 0 100 100"
   id="svg3110"
   version="1.1"
   inkscape:version="0.48.4 r9939"
   sodipodi:docname="New document 5">
  <defs
     id="defs3112" />
  <sodipodi:namedview
     id="base"
     pagecolor="#ffffff"
     bordercolor="#666666"
     borderopacity="1.0"
     inkscape:pageopacity="0.0"
     inkscape:pageshadow="2"
     inkscape:zoom="2"
     inkscape:cx="134.21024"
     inkscape:cy="65.502705"
     inkscape:document-units="px"
     inkscape:current-layer="layer1"
     showgrid="false"
     inkscape:window-width="836"
     inkscape:window-height="1003"
     inkscape:window-x="840"
     inkscape:window-y="22"
     inkscape:window-maximized="0" />
  <metadata
     id="metadata3115">
    <rdf:RDF>
      <cc:Work
         rdf:about="">
        <dc:format>image/svg+xml</dc:format>
        <dc:type
           rdf:resource="http://purl.org/dc/dcmitype/StillImage" />
        <dc:title></dc:title>
      </cc:Work>
    </rdf:RDF>
  </metadata>
  <g
     inkscape:label="Layer 1"
     inkscape:groupmode="layer"
     id="layer1"
     transform="translate(0,-952.36218)">
    <g
       transform="matrix(2.0709566,0,0,2.0709566,-1.3080909,804.26753)"
       id="g3091">
      <path
         style="fill:#698dba;fill-rule:evenodd"
         d="m 13.023,74.435 c -1.749,0 -3.175,1.426 -3.175,3.175 v 23.496 c 0,1.758 1.426,3.178 3.175,3.178 h 23.5 c 1.749,0 3.176,-1.42 3.176,-3.178 V 77.61 c 0,-1.749 -1.427,-3.175 -3.176,-3.175 h -23.5 l 0,0 z m -1.394,26.67 V 77.61 c 0,-0.768 0.624,-1.388 1.394,-1.388 h 23.5 c 0.767,0 1.393,0.621 1.393,1.388 v 23.496 c 0,0.773 -0.626,1.398 -1.393,1.398 h -23.5 c -0.77,0 -1.394,-0.625 -1.394,-1.399 l 0,0 z"
         id="path3067"
         inkscape:connector-curvature="0" />
      <path
         style="fill:#698dba;fill-rule:evenodd"
         d="m 20.038,81.459 c -1.748,0 -3.168,1.424 -3.168,3.168 v 23.503 c 0,1.748 1.42,3.172 3.168,3.172 h 23.5 c 1.753,0 3.174,-1.424 3.174,-3.172 V 84.627 c 0,-1.744 -1.421,-3.168 -3.174,-3.168 h -23.5 l 0,0 z m -1.392,26.672 V 84.627 c 0,-0.769 0.625,-1.388 1.391,-1.388 h 23.5 c 0.771,0 1.391,0.62 1.391,1.388 v 23.503 c 0,0.773 -0.62,1.391 -1.391,1.391 h -23.5 c -0.765,0 -1.391,-0.617 -1.391,-1.39 l 0,0 z"
         id="path3069"
         inkscape:connector-curvature="0" />
      <path
         style="fill:#698dba;fill-rule:evenodd"
         d="m 6.007,88.477 c -1.752,0 -3.173,1.426 -3.173,3.172 v 23.5 c 0,1.756 1.421,3.172 3.173,3.172 h 23.498 c 1.749,0 3.174,-1.416 3.174,-3.172 v -23.5 c 0,-1.746 -1.425,-3.172 -3.174,-3.172 H 6.007 l 0,0 z m -1.394,26.671 v -23.5 c 0,-0.764 0.623,-1.39 1.395,-1.39 h 23.498 c 0.769,0 1.394,0.626 1.394,1.39 v 23.5 c 0,0.768 -0.625,1.395 -1.394,1.395 H 6.007 c -0.772,0 -1.394,-0.627 -1.394,-1.395 l 0,0 z"
         id="path3071"
         inkscape:connector-curvature="0" />
    </g>
  </g>
</svg>
