<?xml version="1.0" encoding="UTF-8" standalone="no"?>
<svg
   xmlns:dc="http://purl.org/dc/elements/1.1/"
   xmlns:cc="http://creativecommons.org/ns#"
   xmlns:rdf="http://www.w3.org/1999/02/22-rdf-syntax-ns#"
   xmlns:svg="http://www.w3.org/2000/svg"
   xmlns="http://www.w3.org/2000/svg"
   xmlns:sodipodi="http://sodipodi.sourceforge.net/DTD/sodipodi-0.dtd"
   xmlns:inkscape="http://www.inkscape.org/namespaces/inkscape"
   width="100"
   height="100"
   viewBox="0 0 80 80"
   version="1.1"
   id="svg9233"
   inkscape:version="0.48.4 r9939"
   sodipodi:docname="windows_new.svg">
  <metadata
     id="metadata9268">
    <rdf:RDF>
      <cc:Work
         rdf:about="">
        <dc:format>image/svg+xml</dc:format>
        <dc:type
           rdf:resource="http://purl.org/dc/dcmitype/StillImage" />
      </cc:Work>
    </rdf:RDF>
  </metadata>
  <defs
     id="defs9266" />
  <sodipodi:namedview
     pagecolor="#ffffff"
     bordercolor="#666666"
     borderopacity="1"
     objecttolerance="10"
     gridtolerance="10"
     guidetolerance="10"
     inkscape:pageopacity="0"
     inkscape:pageshadow="2"
     inkscape:window-width="1676"
     inkscape:window-height="1003"
     id="namedview9264"
     showgrid="false"
     inkscape:zoom="1.5853017"
     inkscape:cx="118.68676"
     inkscape:cy="21.535706"
     inkscape:window-x="0"
     inkscape:window-y="22"
     inkscape:window-maximized="0"
     inkscape:current-layer="svg9233" />
  <g
     id="g9284"
     transform="matrix(0.73993803,0,0,0.73993803,7.569537,7.1494765)">
    <path
       d="M 40,6.91 C 55.75,4.5 71.53,2.23 87.31,0.04 c 0.01,13.83 0,27.65 0.01,41.48 C 71.55,41.58 55.78,41.82 40,41.87 39.99,30.21 39.99,18.56 40,6.91 z"
       id="path9236"
       inkscape:connector-curvature="0"
       style="fill:#00adef" />
    <path
       d="M 0,12.49 C 11.86,10.66 23.77,9.08 35.68,7.59 35.69,19.06 35.69,30.52 35.7,41.99 23.8,41.98 11.9,42.16 0,42.13 L 0,12.49 z"
       id="path9238"
       inkscape:connector-curvature="0"
       style="fill:#00adef" />
    <path
       d="m 0,45.74 c 11.89,-0.04 23.78,0.15 35.67,0.13 0,11.5 0.03,23 0.01,34.5 C 23.8,78.61 11.9,77.07 0,75.46 L 0,45.74 z"
       id="path9260"
       inkscape:connector-curvature="0"
       style="fill:#00adef" />
    <path
       d="m 39.93,46.2 c 15.8,0 31.59,0 47.38,0 0.02,13.79 0,27.58 0,41.38 C 71.56,85.22 55.78,83.03 40,80.89 39.98,69.33 39.95,57.77 39.93,46.2 z"
       id="path9262"
       inkscape:connector-curvature="0"
       style="fill:#00adef" />
  </g>
</svg>
