<?xml version="1.0" encoding="UTF-8" standalone="no"?>
<!-- Generator: Adobe Illustrator 21.0.2, SVG Export Plug-In . SVG Version: 6.00 Build 0)  -->

<svg
   xmlns:dc="http://purl.org/dc/elements/1.1/"
   xmlns:cc="http://creativecommons.org/ns#"
   xmlns:rdf="http://www.w3.org/1999/02/22-rdf-syntax-ns#"
   xmlns:svg="http://www.w3.org/2000/svg"
   xmlns="http://www.w3.org/2000/svg"
   xmlns:sodipodi="http://sodipodi.sourceforge.net/DTD/sodipodi-0.dtd"
   xmlns:inkscape="http://www.inkscape.org/namespaces/inkscape"
   version="1.1"
   id="Layer_1"
   x="0px"
   y="0px"
   viewBox="0 0 100 100"
   xml:space="preserve"
   inkscape:version="0.92.3 (2405546, 2018-03-11)"
   sodipodi:docname="xen.svg"
   width="100"
   height="100"><metadata
     id="metadata35"><rdf:RDF><cc:Work
         rdf:about=""><dc:format>image/svg+xml</dc:format><dc:type
           rdf:resource="http://purl.org/dc/dcmitype/StillImage" /><dc:title></dc:title></cc:Work></rdf:RDF></metadata><defs
     id="defs33" /><sodipodi:namedview
     pagecolor="#ffffff"
     bordercolor="#666666"
     borderopacity="1"
     objecttolerance="10"
     gridtolerance="10"
     guidetolerance="10"
     inkscape:pageopacity="0"
     inkscape:pageshadow="2"
     inkscape:window-width="2560"
     inkscape:window-height="1514"
     id="namedview31"
     showgrid="false"
     fit-margin-top="0"
     fit-margin-left="0"
     fit-margin-right="0"
     fit-margin-bottom="0"
     inkscape:zoom="6.2225397"
     inkscape:cx="58.129825"
     inkscape:cy="27.362667"
     inkscape:window-x="0"
     inkscape:window-y="28"
     inkscape:window-maximized="1"
     inkscape:current-layer="Layer_1" /><style
     type="text/css"
     id="style3">
	.st0{stroke:#FFFFFF;stroke-miterlimit:10;}
	.st1{fill:#FCFCFC;}
</style><path
     style="stroke:#ffffff;stroke-width:0.85914791;stroke-miterlimit:10"
     inkscape:connector-curvature="0"
     id="path7"
     d="m 17.748959,34.349181 c 1.804211,0 3.608421,0 5.326718,0 0.773233,0 1.288721,0.257744 1.718295,0.859148 1.374637,1.80421 2.749274,3.608421 4.037995,5.412632 0.429574,0.601404 0.773233,0.601404 1.374638,0.17183 2.491528,-1.890126 4.983057,-3.780252 7.474587,-5.756292 0.601403,-0.429574 1.202807,-0.687318 1.97604,-0.687318 4.639398,0 9.192883,0 13.832282,0 0.343658,0 0.859148,-0.17183 1.030977,0.17183 0.08592,0.343659 -0.429574,0.515488 -0.687319,0.773233 -5.756291,4.467569 -11.512582,8.849223 -17.354787,13.230878 -0.773234,0.601404 -0.773234,0.945063 -0.171831,1.632382 3.092933,3.95208 6.185866,7.990075 9.192883,12.02807 0.17183,0.257745 0.601404,0.515489 0.343659,0.859148 -0.171829,0.257745 -0.515488,0.17183 -0.859147,0.17183 -3.608422,0 -7.302757,0 -10.911179,0 -0.773233,0 -1.202807,-0.257744 -1.718296,-0.859148 -1.460552,-1.976041 -3.007017,-3.952081 -4.467569,-5.928121 -0.515489,-0.687318 -0.859148,-0.687318 -1.460552,-0.171829 -2.663359,2.147869 -5.412632,4.209825 -8.161905,6.27178 -0.601404,0.515488 -1.202807,0.687318 -2.061955,0.687318 -4.553484,0 -9.1928829,0 -13.746367,0 -0.3436592,0 -0.8591479,0.171829 -1.0309775,-0.17183 C 1.2533189,62.615148 1.7688076,62.443319 2.1124668,62.271489 8.1265024,57.63209 14.226453,52.992692 20.240489,48.439207 c 0.687317,-0.515488 0.859147,-0.859148 0.257743,-1.632381 -3.007017,-3.78025 -5.842205,-7.646416 -8.763308,-11.512582 -0.17183,-0.257745 -0.515489,-0.429574 -0.343659,-0.773233 0.171829,-0.34366 0.515489,-0.17183 0.859148,-0.17183 1.80421,0 3.694336,0 5.498546,0 z"
     class="st0" /><path
     inkscape:connector-curvature="0"
     id="path9"
     d="m 10.188458,34.005522 c 0.859148,1.116893 1.546466,2.061955 2.233784,3.007017 0.343659,0.429574 0.343659,0.859149 0.08591,1.374638 -3.0929323,4.897142 -3.6084211,10.137945 -1.718295,15.550577 0.257744,0.687319 0.171829,1.202807 -0.515489,1.632381 C 9.0715656,56.429283 7.9546732,57.288431 6.8377809,58.233494 6.1504625,58.834897 5.8068033,58.577153 5.5490589,57.889835 2.1124668,49.642014 2.6279556,41.737853 7.6969285,34.349181 12.679987,26.960509 19.896829,23.523917 28.660138,23.867576 c 7.216843,0.257745 13.144963,3.436592 17.698448,9.021054 0.171829,0.257744 0.601403,0.515488 0.429574,0.859147 -0.17183,0.34366 -0.601404,0.17183 -0.945064,0.17183 -2.147869,0 -4.209824,0 -6.357694,0 -0.601403,0 -1.116893,-0.17183 -1.546467,-0.515489 -6.357694,-4.467569 -14.34777,-4.467569 -20.705465,-0.08592 -0.687318,0.429573 -1.288721,0.601404 -2.061954,0.601404 -1.546467,0 -3.092933,0.08592 -4.983058,0.08592 z"
     style="stroke-width:0.85914791" /><g
     id="g11"
     transform="matrix(0.85914794,0,0,0.85914794,-1.1522953,22.063366)"><path
       inkscape:connector-curvature="0"
       id="path13"
       d="m 92.4,41.2 c -1.5,0 -3.1,0 -4.6,0 -1.6,0 -3.3,0 -4.9,0 0,0 0,0 0,0 -0.5,0 -1,-0.1 -1.4,-0.5 -0.3,-0.4 -0.3,-1 -0.2,-1.4 1.2,-5.5 2.4,-11 3.6,-16.5 0.3,-1.2 1.2,-1.4 1.8,-1.4 h 0.5 c 1.5,0 2.9,0 4.4,0 1.4,0 2.8,0 4.2,0 h 0.1 c 0.4,0 1.1,0.1 1.4,0.5 0.4,0.5 0.2,1.1 0.1,1.5 0,0.1 0,0.1 -0.1,0.2 2.1,-1.4 4.1,-2.3 6.3,-2.7 1,-0.2 2.1,-0.3 3.1,-0.3 0.9,0 1.8,0.1 2.7,0.3 3.5,0.7 5.4,3 5.5,6.7 0,2.1 -0.4,4.2 -0.8,6.2 -0.2,0.8 -0.3,1.6 -0.5,2.5 -0.1,0.5 -0.2,1 -0.3,1.6 -0.1,0.6 -0.2,1.1 -0.3,1.7 -0.2,1 -0.8,1.5 -1.8,1.5 -1.8,0 -3.5,0 -5.2,0 -1.4,0 -2.8,0 -4.2,0 0,0 0,0 0,0 -0.4,0 -1,0 -1.3,-0.5 -0.3,-0.4 -0.3,-1 -0.2,-1.4 0.5,-2.7 1,-5.3 1.4,-7.9 0.1,-0.6 0.2,-1.3 0.2,-1.9 0,-0.6 -0.1,-1.1 -0.4,-1.4 -0.2,-0.2 -0.6,-0.4 -1.1,-0.4 -0.2,0 -0.4,0 -0.6,0.1 -2,0.4 -3.5,1.9 -3.9,3.9 l -0.4,2.2 c -0.4,1.9 -0.7,3.8 -1.1,5.8 -0.1,0.7 -0.5,1.6 -2,1.6 z" /><path
       style="fill:#fcfcfc"
       inkscape:connector-curvature="0"
       id="path15"
       d="m 106.8,21.1 c 0.9,0 1.7,0.1 2.6,0.2 3.3,0.6 5,2.7 5.1,6.2 0.1,2.9 -0.8,5.7 -1.2,8.6 -0.2,1.1 -0.4,2.1 -0.6,3.2 -0.1,0.8 -0.5,1.1 -1.3,1.1 0,0 0,0 0,0 -1.7,0 -3.4,0 -5.1,0 -1.4,0 -2.9,0 -4.3,0 0,0 0,0 0,0 -1,0 -1.2,-0.4 -1,-1.3 0.5,-2.6 1,-5.2 1.4,-7.9 0.1,-0.7 0.2,-1.3 0.2,-2 0,-1.4 -0.7,-2.2 -2,-2.2 -0.2,0 -0.5,0 -0.7,0.1 -2.2,0.4 -3.8,2.1 -4.2,4.3 -0.5,2.7 -1,5.3 -1.5,8 -0.2,0.9 -0.5,1.3 -1.5,1.3 0,0 0,0 -0.1,0 -1.5,0 -3.1,0 -4.6,0 -1.6,0 -3.3,0 -4.9,0 0,0 0,0 -0.1,0 -0.9,0 -1.2,-0.3 -1,-1.2 1.2,-5.5 2.4,-11 3.6,-16.5 0.2,-0.8 0.6,-1 1.3,-1 0,0 0,0 0,0 1.6,0 3.2,0 4.9,0 1.4,0 2.8,0 4.2,0 0,0 0.1,0 0.1,0 1,0 1.3,0.4 1.1,1.4 -0.1,0.3 -0.2,0.7 0,1.2 2.1,-1.5 4.3,-2.6 6.8,-3.1 0.7,-0.3 1.7,-0.4 2.8,-0.4 m 0,-1 c -1.1,0 -2.2,0.1 -3.2,0.4 -1.9,0.4 -3.7,1.1 -5.5,2.2 0,-0.3 -0.1,-0.7 -0.3,-1 C 97.1,21 96.2,21 95.9,21 h -0.1 c -1.2,0 -2.6,0 -4.2,0 -1.4,0 -2.9,0 -4.3,0 h -0.6 c -1.6,0 -2.2,1 -2.3,1.8 -1.1,5.2 -2.3,10.8 -3.6,16.5 -0.1,0.5 -0.2,1.2 0.3,1.8 0.5,0.6 1.2,0.6 1.7,0.6 h 0.1 c 1.6,0 3.3,0 4.9,0 1.6,0 3.1,0 4.6,0 h 0.1 c 1.4,0 2.2,-0.7 2.5,-2.1 0.3,-1.9 0.7,-3.9 1.1,-5.8 l 0.4,-2.2 c 0.3,-1.8 1.7,-3.1 3.5,-3.5 0.2,0 0.4,-0.1 0.5,-0.1 0.3,0 0.6,0.1 0.7,0.2 0.2,0.2 0.3,0.5 0.3,1 0,0.6 -0.1,1.2 -0.2,1.8 -0.4,2.5 -0.9,5.2 -1.4,7.8 -0.1,0.5 -0.2,1.3 0.3,1.8 0.5,0.6 1.4,0.6 1.7,0.6 1.5,0 2.9,0 4.3,0 1.7,0 3.4,0 5.1,0 1.7,0 2.2,-1.1 2.3,-1.9 0.1,-0.5 0.2,-1.1 0.3,-1.6 0.1,-0.5 0.2,-1 0.3,-1.6 0.1,-0.8 0.3,-1.6 0.5,-2.4 0.4,-2 0.8,-4.1 0.8,-6.3 -0.1,-3.9 -2.2,-6.5 -5.9,-7.2 -1,0 -1.9,-0.1 -2.8,-0.1 z"
       class="st1" /></g><g
     id="g17"
     transform="matrix(0.85914794,0,0,0.85914794,-1.1522953,22.063366)"><path
       inkscape:connector-curvature="0"
       id="path19"
       d="m 65.2,42 c -2.7,0 -5,-0.3 -7.2,-0.8 -1.7,-0.4 -3.1,-1 -4.2,-1.9 -2.6,-1.9 -3.5,-4.6 -2.7,-7.7 1.3,-4.6 4.5,-7.9 9.3,-9.6 2.8,-1 5.8,-1.5 8.7,-1.5 2.2,0 4.4,0.3 6.6,0.9 5.2,1.3 7.7,5.2 6.7,10.4 -0.2,0.8 -0.5,1.8 -2,1.8 h -0.1 c -1.2,0 -2.3,0 -3.5,0 -0.8,0 -9.5,0 -9.5,0 -1.2,0 -2.4,0 -3.6,0 0,0 0,0 0,0 -0.3,0 -0.5,0 -0.7,0.1 -0.1,0.1 -0.1,0.3 -0.1,0.7 0,1.3 0.4,2.1 1.3,2.5 0.5,0.2 1,0.3 1.5,0.3 0.9,0 1.7,-0.4 2.2,-1.1 0.9,-1.3 2,-1.5 3.1,-1.5 h 0.2 c 1.2,0 2.3,0 3.5,0 h 4 1.2 c 0.6,0 1.2,0.1 1.5,0.5 0.3,0.5 0.1,1.1 -0.1,1.7 -0.7,1.6 -2,2.5 -3.1,3.1 -2.2,1.2 -4.6,1.8 -7.8,2 -1.6,0 -3.4,0.1 -5.2,0.1 z M 64.8,28.6 H 70 c 0.4,0 0.4,-0.1 0.5,-0.2 0.1,-0.9 -0.1,-1.5 -0.6,-1.8 -0.5,-0.3 -1,-0.5 -1.7,-0.5 -1.6,0 -3.1,1 -3.5,2.3 0,0.1 0,0.2 0,0.3 0,0 0,0 0,0 0,-0.1 0.1,-0.1 0.1,-0.1 z" /><path
       style="fill:#fcfcfc"
       inkscape:connector-curvature="0"
       id="path21"
       d="m 69.1,21 c 2.2,0 4.3,0.3 6.5,0.8 4.9,1.3 7.2,5 6.3,9.8 -0.2,0.9 -0.6,1.4 -1.5,1.4 0,0 -0.1,0 -0.1,0 -1.2,0 -2.4,0 -3.5,0 -1.6,0 -3.1,0 -4.7,0 -1.6,0 -3.2,0 -4.7,0 -1.2,0 -2.4,0 -3.6,0 0,0 0,0 -0.1,0 -0.9,0 -1.3,0.4 -1.3,1.3 0,1.5 0.5,2.5 1.6,2.9 0.5,0.2 1.1,0.3 1.7,0.3 1,0 2,-0.4 2.6,-1.3 0.7,-1.1 1.5,-1.3 2.6,-1.3 0.1,0 0.1,0 0.2,0 1.2,0 2.3,0 3.5,0 1.3,0 2.7,0 4,0 0.4,0 0.8,0 1.2,0 1.2,0 1.5,0.4 1,1.5 -0.6,1.3 -1.6,2.2 -2.9,2.8 -2.4,1.3 -4.9,1.8 -7.6,2 -1.7,0.1 -3.4,0.2 -5.1,0.2 -2.4,0 -4.7,-0.2 -7.1,-0.8 C 56.6,40.2 55.3,39.7 54,38.8 51.6,37 50.7,34.6 51.5,31.7 52.9,27 56,24 60.4,22.4 63.4,21.5 66.3,21 69.1,21 m -4.3,8.1 c 0,0 0,0 0,0 0.3,0 0.7,0 1,0 0.5,0 1,0 1.6,0 0.5,0 1,0 1.5,0 0.4,0 0.7,0 1.1,0 0.5,0 0.9,-0.1 1,-0.6 0.1,-0.9 0,-1.7 -0.8,-2.3 -0.6,-0.4 -1.3,-0.6 -2,-0.6 -1.7,0 -3.5,1.1 -3.9,2.7 -0.3,0.5 -0.1,0.8 0.5,0.8 M 69.1,20 c -3,0 -6,0.5 -8.9,1.6 -5,1.8 -8.2,5.1 -9.6,9.9 -0.9,3.3 0.1,6.2 2.8,8.2 1.2,0.9 2.6,1.5 4.4,2 2.2,0.6 4.5,0.8 7.3,0.8 1.8,0 3.6,-0.1 5.2,-0.2 3.2,-0.2 5.8,-0.9 8,-2.1 1.2,-0.6 2.6,-1.6 3.3,-3.3 0.2,-0.4 0.6,-1.4 0.1,-2.1 -0.3,-0.5 -0.9,-0.7 -1.4,-0.7 v 0 c 2.1,0 2.4,-1.6 2.5,-2.2 1,-5.4 -1.7,-9.6 -7,-11 C 73.6,20.3 71.4,20 69.1,20 Z m -3.8,8.1 c 0.5,-0.9 1.6,-1.5 2.8,-1.5 0.5,0 1,0.1 1.4,0.4 0.3,0.2 0.5,0.5 0.4,1.1 h -1 -0.8 -0.8 -0.7 -0.9 c 0,0 -0.2,0 -0.4,0 z M 63.4,34 c 0,0 0.1,0 0.2,0 1.3,0 2.5,0 3.7,0 0.8,0 1.6,0 2.4,0 0.1,0 0.2,0 0.3,0 -0.9,0.1 -1.9,0.5 -2.7,1.7 -0.5,0.7 -1.3,0.9 -1.8,0.9 -0.4,0 -0.9,-0.1 -1.3,-0.3 -0.3,-0.1 -0.9,-0.4 -0.9,-2 0.1,-0.2 0.1,-0.3 0.1,-0.3 z m 10.3,0 c 0.2,0 0.5,0 0.7,0 0.8,0 1.6,0 2.4,0 0.5,0 0.9,0 1.3,0 -0.5,0 -1,0 -1.5,0 -0.7,0 -1.3,0 -2,0 -0.3,0 -0.6,0 -0.9,0 z"
       class="st1" /></g><path
     inkscape:connector-curvature="0"
     id="path23"
     d="m 13.968709,63.646126 c 1.288721,-0.17183 2.835188,0.343659 4.209824,-0.429574 0.257744,-0.17183 0.515489,0.08592 0.773233,0.171829 5.240803,2.749274 10.653434,2.921103 16.066067,0.515489 0.429574,-0.171829 0.859148,-0.343659 1.374636,-0.343659 2.663359,0 5.326718,0 7.990077,0 0.257743,0 0.687317,-0.08592 0.859147,0.257744 0.17183,0.34366 -0.17183,0.515489 -0.429573,0.773234 -4.29574,4.295739 -9.364713,6.787268 -15.464663,7.216842 -7.302758,0.515488 -13.574538,-1.890125 -18.81534,-6.959098 -0.17183,-0.17183 -0.343659,-0.343659 -0.515489,-0.515489 -0.085915,-0.171829 -0.343659,-0.257744 -0.1718295,-0.515489 0.085915,-0.257744 0.3436595,-0.171829 0.5154885,-0.171829 1.116893,0 2.233785,0 3.608422,0 z"
     style="stroke-width:0.85914791" /><path
     inkscape:connector-curvature="0"
     id="path25"
     d="m 43.952971,54.882817 c 0.17183,0.08592 0.343659,0.171829 0.429575,0.343659 1.202807,1.116892 2.577443,1.804211 4.123909,2.233785 0.601404,0.171829 0.859148,0.429574 0.515489,1.116892 -0.601403,1.202807 -1.374636,2.405614 -2.14787,3.522507 -0.343659,0.515488 -0.601404,0.687318 -1.030978,0.08592 -1.030976,-1.374637 -2.061954,-2.663359 -3.092932,-4.037995 -0.257744,-0.257744 -0.343659,-0.515489 -0.171829,-0.945063 0.343659,-0.601403 0.687318,-1.288722 1.030977,-1.890126 0.08592,-0.171829 0.257744,-0.257744 0.343659,-0.429574 z"
     style="stroke-width:0.85914791" /><path
     inkscape:connector-curvature="0"
     id="path27"
     d="m 44.726204,43.370234 c 0,-0.515488 0.257745,-0.773233 0.601404,-0.945062 1.288722,-0.945063 2.491529,-1.890126 3.780251,-2.835188 0.257744,-0.17183 0.687318,-0.773234 0.945063,-0.08592 0.171829,0.515489 1.030977,1.288722 0,1.80421 -1.632381,0.773233 -3.178848,1.718297 -4.467569,3.092933 -0.257745,0.257745 -0.51549,0.343659 -0.601404,-0.171829 -0.171829,-0.343659 -0.257745,-0.687319 -0.257745,-0.859148 z"
     style="stroke-width:0.85914791" /></svg>