<?xml version="1.0" encoding="UTF-8" standalone="no"?>
<!-- Generator: Adobe Illustrator 21.0.2, SVG Export Plug-In . SVG Version: 6.00 Build 0)  -->

<svg
   xmlns:dc="http://purl.org/dc/elements/1.1/"
   xmlns:cc="http://creativecommons.org/ns#"
   xmlns:rdf="http://www.w3.org/1999/02/22-rdf-syntax-ns#"
   xmlns:svg="http://www.w3.org/2000/svg"
   xmlns="http://www.w3.org/2000/svg"
   xmlns:sodipodi="http://sodipodi.sourceforge.net/DTD/sodipodi-0.dtd"
   xmlns:inkscape="http://www.inkscape.org/namespaces/inkscape"
   version="1.1"
   id="Layer_1"
   x="0px"
   y="0px"
   viewBox="0 0 113.03648 55.906873"
   xml:space="preserve"
   inkscape:version="0.91 r13725"
   sodipodi:docname="xen.svg"
   width="113.03648"
   height="55.906872"><metadata
     id="metadata35"><rdf:RDF><cc:Work
         rdf:about=""><dc:format>image/svg+xml</dc:format><dc:type
           rdf:resource="http://purl.org/dc/dcmitype/StillImage" /><dc:title></dc:title></cc:Work></rdf:RDF></metadata><defs
     id="defs33" /><sodipodi:namedview
     pagecolor="#ffffff"
     bordercolor="#666666"
     borderopacity="1"
     objecttolerance="10"
     gridtolerance="10"
     guidetolerance="10"
     inkscape:pageopacity="0"
     inkscape:pageshadow="2"
     inkscape:window-width="1611"
     inkscape:window-height="1121"
     id="namedview31"
     showgrid="false"
     fit-margin-top="0"
     fit-margin-left="0"
     fit-margin-right="0"
     fit-margin-bottom="0"
     inkscape:zoom="6.2225397"
     inkscape:cx="88.422922"
     inkscape:cy="27.362667"
     inkscape:window-x="65"
     inkscape:window-y="24"
     inkscape:window-maximized="0"
     inkscape:current-layer="Layer_1" /><style
     type="text/css"
     id="style3">
	.st0{stroke:#FFFFFF;stroke-miterlimit:10;}
	.st1{fill:#FCFCFC;}
</style><path
     style="stroke:#ffffff;stroke-miterlimit:10"
     inkscape:connector-curvature="0"
     id="path7"
     d="m 19.536476,12.227254 c 2.1,0 4.2,0 6.2,0 0.9,0 1.5,0.3 2,1 1.6,2.1 3.2,4.2 4.7,6.3 0.5,0.7 0.9,0.7 1.6,0.2 2.9,-2.2 5.8,-4.4 8.7,-6.7 0.7,-0.5 1.4,-0.8 2.3,-0.8 5.4,0 10.7,0 16.1,0 0.4,0 1,-0.2 1.2,0.2 0.1,0.4 -0.5,0.6 -0.8,0.9 -6.7,5.2 -13.4,10.3 -20.2,15.4 -0.9,0.7 -0.9,1.1 -0.2,1.9 3.6,4.6 7.2,9.3 10.7,14 0.2,0.3 0.7,0.6 0.4,1 -0.2,0.3 -0.6,0.2 -1,0.2 -4.2,0 -8.5,0 -12.7,0 -0.9,0 -1.4,-0.3 -2,-1 -1.7,-2.3 -3.5,-4.6 -5.2,-6.9 -0.6,-0.8 -1,-0.8 -1.7,-0.2 -3.1,2.5 -6.3,4.9 -9.5,7.3 -0.7,0.6 -1.4,0.8 -2.4,0.8 -5.3,0 -10.7000003,0 -16.0000003,0 -0.4,0 -1,0.2 -1.2,-0.2 -0.2,-0.5 0.4,-0.7 0.8,-0.9 7,-5.4 14.1000003,-10.8 21.1000003,-16.1 0.8,-0.6 1,-1 0.3,-1.9 -3.5,-4.4 -6.8,-8.9 -10.2,-13.4 -0.2,-0.3 -0.6,-0.5 -0.4,-0.9 0.2,-0.4 0.6,-0.2 1,-0.2 2.1,0 4.3,0 6.4,0 z"
     class="st0" /><path
     inkscape:connector-curvature="0"
     id="path9"
     d="m 10.736476,11.827254 c 1,1.3 1.8,2.4 2.6,3.5 0.4,0.5 0.4,1 0.1,1.6 -3.6000003,5.7 -4.2000003,11.8 -2,18.1 0.3,0.8 0.2,1.4 -0.6,1.9 -1.4000003,1 -2.7000003,2 -4.0000003,3.1 -0.8,0.7 -1.2,0.4 -1.5,-0.4 -4,-9.6 -3.4,-18.8 2.5,-27.4 5.8000003,-8.6 14.2000003,-12.60000003 24.4000003,-12.20000003 8.4,0.3 15.3,4.00000003 20.6,10.50000003 0.2,0.3 0.7,0.6 0.5,1 -0.2,0.4 -0.7,0.2 -1.1,0.2 -2.5,0 -4.9,0 -7.4,0 -0.7,0 -1.3,-0.2 -1.8,-0.6 -7.4,-5.2 -16.7,-5.2 -24.1,-0.1 -0.8,0.5 -1.5,0.7 -2.4,0.7 -1.8,0 -3.6,0.1 -5.8,0.1 z" /><g
     id="g11"
     transform="translate(-2.4635243,-2.072746)"><path
       inkscape:connector-curvature="0"
       id="path13"
       d="m 92.4,41.2 c -1.5,0 -3.1,0 -4.6,0 -1.6,0 -3.3,0 -4.9,0 0,0 0,0 0,0 -0.5,0 -1,-0.1 -1.4,-0.5 -0.3,-0.4 -0.3,-1 -0.2,-1.4 1.2,-5.5 2.4,-11 3.6,-16.5 0.3,-1.2 1.2,-1.4 1.8,-1.4 l 0.5,0 c 1.5,0 2.9,0 4.4,0 1.4,0 2.8,0 4.2,0 l 0.1,0 c 0.4,0 1.1,0.1 1.4,0.5 0.4,0.5 0.2,1.1 0.1,1.5 0,0.1 0,0.1 -0.1,0.2 2.1,-1.4 4.1,-2.3 6.3,-2.7 1,-0.2 2.1,-0.3 3.1,-0.3 0.9,0 1.8,0.1 2.7,0.3 3.5,0.7 5.4,3 5.5,6.7 0,2.1 -0.4,4.2 -0.8,6.2 -0.2,0.8 -0.3,1.6 -0.5,2.5 -0.1,0.5 -0.2,1 -0.3,1.6 -0.1,0.6 -0.2,1.1 -0.3,1.7 -0.2,1 -0.8,1.5 -1.8,1.5 -1.8,0 -3.5,0 -5.2,0 -1.4,0 -2.8,0 -4.2,0 0,0 0,0 0,0 -0.4,0 -1,0 -1.3,-0.5 -0.3,-0.4 -0.3,-1 -0.2,-1.4 0.5,-2.7 1,-5.3 1.4,-7.9 0.1,-0.6 0.2,-1.3 0.2,-1.9 0,-0.6 -0.1,-1.1 -0.4,-1.4 -0.2,-0.2 -0.6,-0.4 -1.1,-0.4 -0.2,0 -0.4,0 -0.6,0.1 -2,0.4 -3.5,1.9 -3.9,3.9 l -0.4,2.2 c -0.4,1.9 -0.7,3.8 -1.1,5.8 -0.1,0.7 -0.5,1.6 -2,1.6 l 0,0 z" /><path
       style="fill:#fcfcfc"
       inkscape:connector-curvature="0"
       id="path15"
       d="m 106.8,21.1 c 0.9,0 1.7,0.1 2.6,0.2 3.3,0.6 5,2.7 5.1,6.2 0.1,2.9 -0.8,5.7 -1.2,8.6 -0.2,1.1 -0.4,2.1 -0.6,3.2 -0.1,0.8 -0.5,1.1 -1.3,1.1 0,0 0,0 0,0 -1.7,0 -3.4,0 -5.1,0 -1.4,0 -2.9,0 -4.3,0 0,0 0,0 0,0 -1,0 -1.2,-0.4 -1,-1.3 0.5,-2.6 1,-5.2 1.4,-7.9 0.1,-0.7 0.2,-1.3 0.2,-2 0,-1.4 -0.7,-2.2 -2,-2.2 -0.2,0 -0.5,0 -0.7,0.1 -2.2,0.4 -3.8,2.1 -4.2,4.3 -0.5,2.7 -1,5.3 -1.5,8 -0.2,0.9 -0.5,1.3 -1.5,1.3 0,0 0,0 -0.1,0 -1.5,0 -3.1,0 -4.6,0 -1.6,0 -3.3,0 -4.9,0 0,0 0,0 -0.1,0 -0.9,0 -1.2,-0.3 -1,-1.2 1.2,-5.5 2.4,-11 3.6,-16.5 0.2,-0.8 0.6,-1 1.3,-1 0,0 0,0 0,0 1.6,0 3.2,0 4.9,0 1.4,0 2.8,0 4.2,0 0,0 0.1,0 0.1,0 1,0 1.3,0.4 1.1,1.4 -0.1,0.3 -0.2,0.7 0,1.2 2.1,-1.5 4.3,-2.6 6.8,-3.1 0.7,-0.3 1.7,-0.4 2.8,-0.4 m 0,-1 c -1.1,0 -2.2,0.1 -3.2,0.4 -1.9,0.4 -3.7,1.1 -5.5,2.2 0,-0.3 -0.1,-0.7 -0.3,-1 C 97.1,21 96.2,21 95.9,21 l -0.1,0 c -1.2,0 -2.6,0 -4.2,0 -1.4,0 -2.9,0 -4.3,0 l -0.6,0 c -1.6,0 -2.2,1 -2.3,1.8 -1.1,5.2 -2.3,10.8 -3.6,16.5 -0.1,0.5 -0.2,1.2 0.3,1.8 0.5,0.6 1.2,0.6 1.7,0.6 l 0.1,0 c 1.6,0 3.3,0 4.9,0 1.6,0 3.1,0 4.6,0 l 0.1,0 c 1.4,0 2.2,-0.7 2.5,-2.1 0.3,-1.9 0.7,-3.9 1.1,-5.8 l 0.4,-2.2 c 0.3,-1.8 1.7,-3.1 3.5,-3.5 0.2,0 0.4,-0.1 0.5,-0.1 0.3,0 0.6,0.1 0.7,0.2 0.2,0.2 0.3,0.5 0.3,1 0,0.6 -0.1,1.2 -0.2,1.8 -0.4,2.5 -0.9,5.2 -1.4,7.8 -0.1,0.5 -0.2,1.3 0.3,1.8 0.5,0.6 1.4,0.6 1.7,0.6 1.5,0 2.9,0 4.3,0 1.7,0 3.4,0 5.1,0 1.7,0 2.2,-1.1 2.3,-1.9 0.1,-0.5 0.2,-1.1 0.3,-1.6 0.1,-0.5 0.2,-1 0.3,-1.6 0.1,-0.8 0.3,-1.6 0.5,-2.4 0.4,-2 0.8,-4.1 0.8,-6.3 -0.1,-3.9 -2.2,-6.5 -5.9,-7.2 -1,0 -1.9,-0.1 -2.8,-0.1 l 0,0 z"
       class="st1" /></g><g
     id="g17"
     transform="translate(-2.4635243,-2.072746)"><path
       inkscape:connector-curvature="0"
       id="path19"
       d="m 65.2,42 c -2.7,0 -5,-0.3 -7.2,-0.8 -1.7,-0.4 -3.1,-1 -4.2,-1.9 -2.6,-1.9 -3.5,-4.6 -2.7,-7.7 1.3,-4.6 4.5,-7.9 9.3,-9.6 2.8,-1 5.8,-1.5 8.7,-1.5 2.2,0 4.4,0.3 6.6,0.9 5.2,1.3 7.7,5.2 6.7,10.4 -0.2,0.8 -0.5,1.8 -2,1.8 l -0.1,0 c -1.2,0 -2.3,0 -3.5,0 -0.8,0 -9.5,0 -9.5,0 -1.2,0 -2.4,0 -3.6,0 0,0 0,0 0,0 -0.3,0 -0.5,0 -0.7,0.1 -0.1,0.1 -0.1,0.3 -0.1,0.7 0,1.3 0.4,2.1 1.3,2.5 0.5,0.2 1,0.3 1.5,0.3 0.9,0 1.7,-0.4 2.2,-1.1 0.9,-1.3 2,-1.5 3.1,-1.5 l 0.2,0 c 1.2,0 2.3,0 3.5,0 l 4,0 1.2,0 c 0.6,0 1.2,0.1 1.5,0.5 0.3,0.5 0.1,1.1 -0.1,1.7 -0.7,1.6 -2,2.5 -3.1,3.1 -2.2,1.2 -4.6,1.8 -7.8,2 -1.6,0 -3.4,0.1 -5.2,0.1 z m -0.4,-13.4 5.2,0 c 0.4,0 0.4,-0.1 0.5,-0.2 0.1,-0.9 -0.1,-1.5 -0.6,-1.8 -0.5,-0.3 -1,-0.5 -1.7,-0.5 -1.6,0 -3.1,1 -3.5,2.3 0,0.1 0,0.2 0,0.3 0,0 0,0 0,0 0,-0.1 0.1,-0.1 0.1,-0.1 z" /><path
       style="fill:#fcfcfc"
       inkscape:connector-curvature="0"
       id="path21"
       d="m 69.1,21 c 2.2,0 4.3,0.3 6.5,0.8 4.9,1.3 7.2,5 6.3,9.8 -0.2,0.9 -0.6,1.4 -1.5,1.4 0,0 -0.1,0 -0.1,0 -1.2,0 -2.4,0 -3.5,0 -1.6,0 -3.1,0 -4.7,0 -1.6,0 -3.2,0 -4.7,0 -1.2,0 -2.4,0 -3.6,0 0,0 0,0 -0.1,0 -0.9,0 -1.3,0.4 -1.3,1.3 0,1.5 0.5,2.5 1.6,2.9 0.5,0.2 1.1,0.3 1.7,0.3 1,0 2,-0.4 2.6,-1.3 0.7,-1.1 1.5,-1.3 2.6,-1.3 0.1,0 0.1,0 0.2,0 1.2,0 2.3,0 3.5,0 1.3,0 2.7,0 4,0 0.4,0 0.8,0 1.2,0 1.2,0 1.5,0.4 1,1.5 -0.6,1.3 -1.6,2.2 -2.9,2.8 -2.4,1.3 -4.9,1.8 -7.6,2 -1.7,0.1 -3.4,0.2 -5.1,0.2 -2.4,0 -4.7,-0.2 -7.1,-0.8 C 56.6,40.2 55.3,39.7 54,38.8 51.6,37 50.7,34.6 51.5,31.7 52.9,27 56,24 60.4,22.4 63.4,21.5 66.3,21 69.1,21 m -4.3,8.1 c 0,0 0,0 0,0 0.3,0 0.7,0 1,0 0.5,0 1,0 1.6,0 0.5,0 1,0 1.5,0 0.4,0 0.7,0 1.1,0 0.5,0 0.9,-0.1 1,-0.6 0.1,-0.9 0,-1.7 -0.8,-2.3 -0.6,-0.4 -1.3,-0.6 -2,-0.6 -1.7,0 -3.5,1.1 -3.9,2.7 -0.3,0.5 -0.1,0.8 0.5,0.8 M 69.1,20 c -3,0 -6,0.5 -8.9,1.6 -5,1.8 -8.2,5.1 -9.6,9.9 -0.9,3.3 0.1,6.2 2.8,8.2 1.2,0.9 2.6,1.5 4.4,2 2.2,0.6 4.5,0.8 7.3,0.8 1.8,0 3.6,-0.1 5.2,-0.2 3.2,-0.2 5.8,-0.9 8,-2.1 1.2,-0.6 2.6,-1.6 3.3,-3.3 0.2,-0.4 0.6,-1.4 0.1,-2.1 -0.3,-0.5 -0.9,-0.7 -1.4,-0.7 l 0,0 c 2.1,0 2.4,-1.6 2.5,-2.2 1,-5.4 -1.7,-9.6 -7,-11 C 73.6,20.3 71.4,20 69.1,20 l 0,0 z m -3.8,8.1 c 0.5,-0.9 1.6,-1.5 2.8,-1.5 0.5,0 1,0.1 1.4,0.4 0.3,0.2 0.5,0.5 0.4,1.1 l -1,0 -0.8,0 -0.8,0 -0.7,0 -0.9,0 c 0,0 -0.2,0 -0.4,0 l 0,0 z M 63.4,34 c 0,0 0.1,0 0.2,0 1.3,0 2.5,0 3.7,0 0.8,0 1.6,0 2.4,0 0.1,0 0.2,0 0.3,0 -0.9,0.1 -1.9,0.5 -2.7,1.7 -0.5,0.7 -1.3,0.9 -1.8,0.9 -0.4,0 -0.9,-0.1 -1.3,-0.3 -0.3,-0.1 -0.9,-0.4 -0.9,-2 0.1,-0.2 0.1,-0.3 0.1,-0.3 l 0,0 z m 10.3,0 c 0.2,0 0.5,0 0.7,0 0.8,0 1.6,0 2.4,0 0.5,0 0.9,0 1.3,0 -0.5,0 -1,0 -1.5,0 -0.7,0 -1.3,0 -2,0 -0.3,0 -0.6,0 -0.9,0 l 0,0 z"
       class="st1" /></g><path
     inkscape:connector-curvature="0"
     id="path23"
     d="m 15.136476,46.327254 c 1.5,-0.2 3.3,0.4 4.9,-0.5 0.3,-0.2 0.6,0.1 0.9,0.2 6.1,3.2 12.4,3.4 18.7,0.6 0.5,-0.2 1,-0.4 1.6,-0.4 3.1,0 6.2,0 9.3,0 0.3,0 0.8,-0.1 1,0.3 0.2,0.4 -0.2,0.6 -0.5,0.9 -5,5 -10.9,7.9 -18,8.4 -8.5,0.6 -15.8,-2.2 -21.9,-8.1 -0.2,-0.2 -0.4,-0.4 -0.6,-0.6 -0.1,-0.2 -0.4,-0.3 -0.2,-0.6 0.1,-0.3 0.4,-0.2 0.6,-0.2 1.3,0 2.6,0 4.2,0 z" /><path
     inkscape:connector-curvature="0"
     id="path25"
     d="m 50.036476,36.127254 c 0.2,0.1 0.4,0.2 0.5,0.4 1.4,1.3 3,2.1 4.8,2.6 0.7,0.2 1,0.5 0.6,1.3 -0.7,1.4 -1.6,2.8 -2.5,4.1 -0.4,0.6 -0.7,0.8 -1.2,0.1 -1.2,-1.6 -2.4,-3.1 -3.6,-4.7 -0.3,-0.3 -0.4,-0.6 -0.2,-1.1 0.4,-0.7 0.8,-1.5 1.2,-2.2 0.1,-0.2 0.3,-0.3 0.4,-0.5 z" /><path
     inkscape:connector-curvature="0"
     id="path27"
     d="m 50.936476,22.727254 c 0,-0.6 0.3,-0.9 0.7,-1.1 1.5,-1.1 2.9,-2.2 4.4,-3.3 0.3,-0.2 0.8,-0.9 1.1,-0.1 0.2,0.6 1.2,1.5 0,2.1 -1.9,0.9 -3.7,2 -5.2,3.6 -0.3,0.3 -0.6,0.4 -0.7,-0.2 -0.2,-0.4 -0.3,-0.8 -0.3,-1 z" /></svg>