<?xml version="1.0" encoding="UTF-8" standalone="no"?>
<!-- Created with Inkscape (http://www.inkscape.org/) -->

<svg
   xmlns:dc="http://purl.org/dc/elements/1.1/"
   xmlns:cc="http://creativecommons.org/ns#"
   xmlns:rdf="http://www.w3.org/1999/02/22-rdf-syntax-ns#"
   xmlns:svg="http://www.w3.org/2000/svg"
   xmlns="http://www.w3.org/2000/svg"
   xmlns:xlink="http://www.w3.org/1999/xlink"
   xmlns:sodipodi="http://sodipodi.sourceforge.net/DTD/sodipodi-0.dtd"
   xmlns:inkscape="http://www.inkscape.org/namespaces/inkscape"
   width="100"
   height="100"
   viewBox="0 0 100 100"
   id="svg2"
   sodipodi:version="0.32"
   inkscape:version="0.91 r13725"
   version="1.0"
   sodipodi:docname="centos.svg"
   inkscape:output_extension="org.inkscape.output.svg.inkscape"
   sodipodi:modified="true">
  <defs
     id="defs4">
    <filter
       id="filter6465"
       inkscape:collect="always">
      <feGaussianBlur
         id="feGaussianBlur6467"
         stdDeviation="2.4728125"
         inkscape:collect="always" />
    </filter>
    <linearGradient
       id="linearGradient4348">
      <stop
         id="stop4350"
         offset="0"
         style="stop-color:#ffffff;stop-opacity:0.42662117;" />
      <stop
         id="stop4352"
         offset="1"
         style="stop-color:#ffffff;stop-opacity:0;" />
    </linearGradient>
    <linearGradient
       inkscape:collect="always"
       xlink:href="#linearGradient4348"
       id="linearGradient2454"
       gradientUnits="userSpaceOnUse"
       gradientTransform="translate(-217.00012,-217)"
       x1="91.292969"
       y1="21.437487"
       x2="154.29752"
       y2="93.06443" />
    <linearGradient
       inkscape:collect="always"
       xlink:href="#linearGradient4348"
       id="linearGradient2456"
       gradientUnits="userSpaceOnUse"
       gradientTransform="translate(-217.00012,-217)"
       x1="19.91527"
       y1="97.233208"
       x2="91.320808"
       y2="159.13304" />
    <linearGradient
       inkscape:collect="always"
       xlink:href="#linearGradient4348"
       id="linearGradient2458"
       gradientUnits="userSpaceOnUse"
       gradientTransform="translate(-217.00012,-217)"
       x1="88.662895"
       y1="156.82332"
       x2="154.89615"
       y2="228.45026" />
    <linearGradient
       inkscape:collect="always"
       xlink:href="#linearGradient4348"
       id="linearGradient2460"
       gradientUnits="userSpaceOnUse"
       gradientTransform="translate(-217.00012,-217)"
       x1="157.80753"
       y1="93.264984"
       x2="230.11945"
       y2="157.81766" />
    <linearGradient
       inkscape:collect="always"
       xlink:href="#linearGradient4348"
       id="linearGradient2462"
       gradientUnits="userSpaceOnUse"
       gradientTransform="translate(-217.00012,-217)"
       x1="39.53125"
       y1="39.28125"
       x2="109.71287"
       y2="109.30125" />
    <linearGradient
       inkscape:collect="always"
       xlink:href="#linearGradient4348"
       id="linearGradient2464"
       gradientUnits="userSpaceOnUse"
       gradientTransform="translate(-217.00012,-217)"
       x1="39.53125"
       y1="137.53125"
       x2="113.46875"
       y2="211.46875" />
    <linearGradient
       inkscape:collect="always"
       xlink:href="#linearGradient4348"
       id="linearGradient2466"
       gradientUnits="userSpaceOnUse"
       gradientTransform="translate(-217.00012,-217)"
       x1="137.96875"
       y1="137.53125"
       x2="209.72679"
       y2="211.46875" />
    <linearGradient
       inkscape:collect="always"
       xlink:href="#linearGradient4348"
       id="linearGradient2468"
       gradientUnits="userSpaceOnUse"
       gradientTransform="translate(-217.00012,-217)"
       x1="141.94803"
       y1="42.870628"
       x2="204.4211"
       y2="113" />
    <radialGradient
       inkscape:collect="always"
       xlink:href="#linearGradient4348"
       id="radialGradient2470"
       gradientUnits="userSpaceOnUse"
       gradientTransform="matrix(0.7091967,0.00524766,-0.00317296,0.4288265,-180.21742,-146.44042)"
       cx="125.12608"
       cy="124.68383"
       fx="125.12608"
       fy="124.68383"
       r="117.84375" />
  </defs>
  <sodipodi:namedview
     id="base"
     pagecolor="#ffffff"
     bordercolor="#666666"
     borderopacity="1.0"
     gridtolerance="10000"
     guidetolerance="10"
     objecttolerance="10"
     inkscape:pageopacity="0.0"
     inkscape:pageshadow="2"
     inkscape:zoom="1"
     inkscape:cx="-7"
     inkscape:cy="60"
     inkscape:document-units="px"
     inkscape:current-layer="layer1"
     showguides="true"
     inkscape:guide-bbox="true"
     width="480px"
     height="120px"
     inkscape:window-width="1366"
     inkscape:window-height="706"
     inkscape:window-x="-8"
     inkscape:window-y="-8"
     showgrid="false"
     inkscape:window-maximized="1" />
  <metadata
     id="metadata7">
    <rdf:RDF>
      <cc:Work
         rdf:about="">
        <dc:format>image/svg+xml</dc:format>
        <dc:type
           rdf:resource="http://purl.org/dc/dcmitype/StillImage" />
        <dc:title></dc:title>
      </cc:Work>
    </rdf:RDF>
  </metadata>
  <g
     inkscape:label="Layer 1"
     inkscape:groupmode="layer"
     id="layer1"
     transform="translate(0,-20)">
    <g
       id="g2433"
       transform="matrix(0.3775481,0,0,0.3776435,84.83188,104.89056)">
      <rect
         style="display:inline;fill:#efa724;fill-opacity:1;stroke:none;stroke-width:1.00005233;stroke-miterlimit:4;stroke-opacity:1"
         id="rect2261"
         width="77.945801"
         height="77.935524"
         x="136.84602"
         y="7.3963008"
         transform="matrix(-0.7071233,-0.7070903,0.7071233,-0.7070903,0,0)" />
      <rect
         style="display:inline;fill:#932279;fill-opacity:1;stroke:none;stroke-width:1.00005376;stroke-miterlimit:4;stroke-opacity:1"
         id="rect2263"
         width="77.946228"
         height="77.935936"
         x="136.84239"
         y="-85.427086"
         transform="matrix(-0.7071253,-0.7070883,0.7071253,-0.7070883,0,0)" />
      <path
         style="display:inline;fill:url(#linearGradient2454);fill-opacity:1;stroke:none;stroke-width:1.00005233;stroke-miterlimit:4;stroke-opacity:1"
         d="m -138.21887,-157.09375 c 15.55208,15.55208 31.10417,31.10417 46.65625,46.65625 15.55208,-15.55208 31.10417,-31.10417 46.65625,-46.65625 -15.55208,-15.55208 -31.10417,-31.10417 -46.65625,-46.65625 -15.55208,15.55208 -31.10417,31.10417 -46.65625,46.65625 z"
         id="rect4397"
         inkscape:connector-curvature="0" />
      <path
         style="display:inline;fill:url(#linearGradient2456);fill-opacity:1;stroke:none;stroke-width:1.00005376;stroke-miterlimit:4;stroke-opacity:1"
         d="m -203.84387,-91.46875 c 15.55208,15.55208 31.10417,31.10417 46.65625,46.65625 15.55208,-15.55208 31.10417,-31.10417 46.65625,-46.65625 -15.55208,-15.55208 -31.10417,-31.10417 -46.65625,-46.65625 -15.55208,15.55208 -31.10417,31.10417 -46.65625,46.65625 z"
         id="rect4399"
         inkscape:connector-curvature="0" />
      <rect
         style="display:inline;fill:#9ccd2a;fill-opacity:1;stroke:none;stroke-width:1.00000048;stroke-miterlimit:4;stroke-opacity:1"
         id="rect2267"
         width="77.737572"
         height="77.72776"
         x="-179.47266"
         y="-179.72078" />
      <rect
         style="display:inline;fill:#9ccd2a;fill-opacity:1;stroke:none;stroke-width:1.00005591;stroke-miterlimit:4;stroke-opacity:1"
         id="rect2269"
         width="77.741867"
         height="77.731613"
         x="44.121849"
         y="-85.530853"
         transform="matrix(-0.7071298,-0.7070838,0.7071298,-0.7070838,0,0)" />
      <path
         style="display:inline;fill:url(#linearGradient2458);fill-opacity:1;stroke:none;stroke-width:1.00005591;stroke-miterlimit:4;stroke-opacity:1"
         d="m -138.18762,-25.6875 c 15.5,15.5 31,31 46.5,46.5 15.5,-15.5 31,-31 46.5,-46.5 -15.5,-15.5 -31,-31 -46.5,-46.5 -15.5,15.5 -31,31 -46.5,46.5 z"
         id="rect4403"
         inkscape:connector-curvature="0" />
      <rect
         style="display:inline;fill:#262577;fill-opacity:1;stroke:none;stroke-width:1;stroke-miterlimit:4;stroke-opacity:1"
         id="rect2272"
         width="77.942711"
         height="77.932655"
         x="-179.47272"
         y="-81.470474" />
      <rect
         style="display:inline;fill:#262577;fill-opacity:1;stroke:none;stroke-width:1.00005233;stroke-miterlimit:4;stroke-opacity:1"
         id="rect2274"
         width="77.946167"
         height="77.93573"
         x="44.021416"
         y="7.3940134"
         transform="matrix(-0.7071253,-0.7070883,0.7071253,-0.7070883,0,0)" />
      <path
         style="display:inline;fill:url(#linearGradient2460);fill-opacity:1;stroke:none;stroke-width:1.00005233;stroke-miterlimit:4;stroke-opacity:1"
         d="m -72.59387,-91.46875 c 15.5625,15.5625 31.125,31.125 46.6875,46.6875 C -10.35429,-60.33333 5.1978,-75.88542 20.74988,-91.4375 5.1978,-107 -10.35429,-122.5625 -25.90637,-138.125 c -15.5625,15.55208 -31.125,31.10417 -46.6875,46.65625 z"
         id="rect4407"
         inkscape:connector-curvature="0" />
      <rect
         style="display:inline;fill:#932279;fill-opacity:1;stroke:none;stroke-width:1.00000048;stroke-miterlimit:4;stroke-opacity:1"
         id="rect2277"
         width="77.942741"
         height="77.932808"
         x="-81.018661"
         y="-179.9256" />
      <rect
         style="display:inline;fill:#efa724;fill-opacity:1;stroke:none;stroke-width:1;stroke-miterlimit:4;stroke-opacity:1"
         id="rect2279"
         width="77.942711"
         height="77.932816"
         x="-81.018661"
         y="-81.470718" />
      <path
         style="display:inline;fill:url(#linearGradient2462);fill-opacity:1;stroke:none;stroke-width:1.00000048;stroke-miterlimit:4;stroke-opacity:1"
         d="m -173.46887,-108 c 21.90625,0 43.8125,0 65.71875,0 0,-21.90625 0,-43.8125 0,-65.71875 -21.90625,0 -43.8125,0 -65.71875,0 0,21.90625 0,43.8125 0,65.71875 z"
         id="rect4401"
         inkscape:connector-curvature="0" />
      <path
         style="display:inline;fill:url(#linearGradient2464);fill-opacity:1;stroke:none;stroke-width:1;stroke-miterlimit:4;stroke-opacity:1"
         d="m -173.46887,-9.53125 c 21.97917,0 43.95833,0 65.9375,0 0,-21.97917 0,-43.95833 0,-65.9375 -21.97917,0 -43.95833,0 -65.9375,0 0,21.97917 0,43.95833 0,65.9375 z"
         id="rect4405"
         inkscape:connector-curvature="0" />
      <path
         style="display:inline;fill:url(#linearGradient2466);fill-opacity:1;stroke:none;stroke-width:1;stroke-miterlimit:4;stroke-opacity:1"
         d="m -75.03137,-9.53125 c 21.98958,0 43.97917,0 65.96875,0 0,-21.97917 0,-43.95833 0,-65.9375 -21.98958,0 -43.97917,0 -65.96875,0 0,21.97917 0,43.95833 0,65.9375 z"
         id="rect4411"
         inkscape:connector-curvature="0" />
      <path
         style="display:inline;fill:url(#linearGradient2468);fill-opacity:1;stroke:none;stroke-width:1.00000048;stroke-miterlimit:4;stroke-opacity:1"
         d="m -75.03137,-108 c 21.98958,0 43.97917,0 65.96875,0 0,-21.97917 0,-43.95833 0,-65.9375 -21.98958,0 -43.97917,0 -65.96875,0 0,21.97917 0,43.95833 0,65.9375 z"
         id="rect4409"
         inkscape:connector-curvature="0" />
      <path
         style="display:inline;fill:url(#radialGradient2470);fill-opacity:1;stroke:none;stroke-width:1.00005233;stroke-miterlimit:4;stroke-opacity:1"
         d="m -109.53137,-185.6875 c 4.3665,0.15777 11.85588,-1.81187 13.90625,2.90625 0.25624,22.93012 -0.50837,46.1606 0.375,68.90625 1.43683,3.52693 5.77964,3.54768 7.40625,0.15625 1.91857,-6.12673 0.12836,-13.47747 0.75,-20.03125 0,-17.38542 0,-34.77083 0,-52.15625 4.461,-0.49348 8.93733,0.018 13.40625,0 -5.9375,-5.9375 -11.875,-11.875 -17.8125,-17.8125 -6.01042,6.01042 -12.02083,12.02083 -18.03125,18.03125 z m 36.09375,11.40625 c -3.85165,0.0629 -0.39622,6.1291 -1.5625,8.34375 0,12.96875 0,25.9375 0,38.90625 10.01042,-10.01042 20.02083,-20.02083 30.03125,-30.03125 -5.89913,-5.41577 -10.88874,-12.48382 -17.59375,-16.65625 -3.63947,0.45936 -7.2406,-0.71251 -10.875,-0.5625 z m 41.09375,12.65625 c 4.72005,1.929 3.03883,7.86784 -0.65625,9.84375 -14.28126,13.62515 -28.09426,28.10847 -42.125,42.03125 -0.70377,3.71221 3.9296,0.19842 5.09375,-0.8125 14.28238,-15.18787 29.49717,-29.66435 44.15625,-44.5625 5.58447,5.55091 11.15323,11.11758 16.71875,16.6875 0,-11.83333 0,-23.66667 0,-35.5 -11.84375,0 -23.6875,0 -35.53125,0 4.11458,4.10417 8.22917,8.20833 12.34375,12.3125 z m -85.5625,-12.21875 c -7.37544,0.0978 -10.51131,8.75028 -16.00121,12.53246 -8.35737,4.45956 1.67689,8.91912 5.0061,13.37868 7.06087,7.06087 14.12174,14.12174 21.18261,21.18261 -0.16831,-15.48794 0.33554,-31.64804 -0.25,-46.71875 -3.3175,0.0695 -6.62304,-0.50223 -9.9375,-0.375 z m -55.53125,35.03125 c 5.4243,-5.41948 10.83877,-10.84904 16.21875,-16.3125 15.94877,15.71303 31.50966,32.26017 47.8125,47.34375 3.90048,0.38636 -0.49408,-5.05689 -1.84375,-5.9375 -15.04862,-13.9103 -29.17013,-29.0862 -43.9375,-43.40625 5.57301,-5.46827 11.06524,-11.01812 16.59375,-16.53125 -11.61458,0 -23.22917,0 -34.84375,0 0,11.61458 0,23.22917 0,34.84375 z m 117.59375,30.71875 c 15.43594,-0.12656 31.37708,0.25208 46.5,-0.1875 -0.00306,-6.19453 2.40231,-13.98636 -4.44532,-17.75074 -4.26378,-3.20692 -8.53071,-10.54579 -12.79267,-11.35429 -9.754,9.76418 -19.50801,19.52836 -29.26201,29.29253 z m -117.4375,-13.84375 c 0.83126,4.5159 -1.7567,9.70207 0.3125,13.84375 15.21875,0 30.4375,0 45.65625,0 -9.96875,-9.96875 -19.9375,-19.9375 -29.90625,-29.90625 -5.35417,5.35417 -10.70833,10.70833 -16.0625,16.0625 z m -30.4375,30.4375 c 6.0625,6.0625 12.125,12.125 18.1875,18.1875 1.39715,-4.68619 -3.49658,-15.66325 4,-14.25 22.60411,-0.27537 45.53562,0.54775 67.9375,-0.40625 3.54103,-1.33249 2.80841,-5.37022 -0.0312,-6.90625 -5.62345,-2.57609 -13.10654,-0.3479 -19.4375,-1.09375 -17.44792,0 -34.89583,0 -52.34375,0 -0.52219,-4.59598 0.0781,-9.21014 -0.0312,-13.8125 -6.09375,6.09375 -12.1875,12.1875 -18.28125,18.28125 z m 206.6875,-10.75 c 1.62683,5.25228 -4.56964,7.62142 -8.75,6.375 -20.73351,-0.40181 -41.66088,0.07322 -62.4375,-0.0625 -3.02115,1.40627 -5.58954,5.64572 -1.6875,7.59375 5.81708,2.05678 12.90577,0.09279 19.15625,0.78125 17.86458,0 35.72917,0 53.59375,0 0.52341,4.62722 -0.07961,9.27244 0.03125,13.90625 5.94792,-5.94792 11.89583,-11.89583 17.84375,-17.84375 -5.91667,-5.91667 -11.83333,-11.83333 -17.75,-17.75 0,2.33333 0,4.66667 0,7 z m -78.0625,26.9375 c 0.06617,6.00251 7.55211,8.75618 10.70035,13.4191 12.05822,12.05822 24.11643,24.11643 36.17465,36.17465 -5.34282,5.37589 -10.70078,10.7367 -16.0625,16.09375 11.70833,0 23.41667,0 35.125,0 0,-11.64583 0,-23.29167 0,-34.9375 -5.56524,5.5702 -11.13466,11.13621 -16.71875,16.6875 -16.09261,-15.86117 -31.86466,-32.32604 -48.15625,-47.8125 -0.37706,0.0998 -1.34424,-0.44335 -1.0625,0.375 z M -108.06262,-75.5 c -6.33589,2.06895 -9.01333,9.1412 -14.30943,12.87192 -11.01639,10.87246 -21.93545,22.1196 -32.87807,32.90933 -5.76778,1.7796 -7.79672,-5.96099 -12.15625,-8.15625 -2.18066,-2.05217 -3.97676,-4.44247 -6.03125,-6.625 0,11.625 0,23.25 0,34.875 11.45833,0 22.91667,0 34.375,0 -5.36216,-5.35662 -10.71908,-10.71846 -16.0625,-16.09375 15.89146,-15.93321 31.90097,-31.81752 47.71875,-47.78125 0.01,-0.624 0.61171,-2.42579 -0.65625,-2 z m -65.375,14.28125 c 5.4375,5.4375 10.875,10.875 16.3125,16.3125 10.1875,-10.1875 20.375,-20.375 30.5625,-30.5625 -15.625,0 -31.25,0 -46.875,0 0,4.75 0,9.5 0,14.25 z m 147.5,16.25 c 5.30619,-5.88031 12.53205,-10.79946 16.5625,-17.5625 -0.83556,-4.11798 1.79479,-9.16815 -0.0625,-12.8125 -15.62116,-0.29767 -31.31889,-0.03719 -46.96875,-0.125 10.15625,10.16667 20.3125,20.33333 30.46875,30.5 z M -91.84387,-72 c -6.64251,3.56185 -2.53258,12.53038 -3.65625,18.59375 0,18.625 0,37.25 0,55.875 -3.5666,1.06275 -18.56188,-2.60268 -11.5754,2.826 5.13972,5.13092 10.27943,10.26183 15.41915,15.39275 6.10417,-6.10417 12.20833,-12.20833 18.3125,-18.3125 -4.41702,-0.09696 -11.53004,1.71625 -13.75,-2.8125 0,-22.38542 0,-44.77083 0,-67.15625 -1.50998,-1.27397 -2.87927,-3.95344 -4.75,-4.40625 z m -46.15625,46.1875 c 5.60106,5.23092 10.43308,12.05933 16.90625,16 4.41396,-0.78351 9.45922,1.73512 13.5,-0.1875 0,-15.39583 0,-30.79167 0,-46.1875 -10.13542,10.125 -20.27083,20.25 -30.40625,30.375 z m 63,16 c 6.32109,-0.08811 14.43852,2.49942 18.3131,-4.44547 2.44848,-4.2912 12.28362,-8.58625 10.02269,-12.87499 -9.44527,-9.44527 -18.89053,-18.89053 -28.33579,-28.33579 0,15.21875 0,30.4375 0,45.65625 z"
         id="rect4282"
         inkscape:connector-curvature="0" />
      <path
         id="path5494"
         d="m -90.49987,-214.125 -1.4375,1.4375 -31.90625,31.90625 -54.65625,0 -2.03125,0 0,2.0625 0,54.625 -32.15625,32.15625 -1.46875,1.4375 1.46875,1.4375 32.15625,32.15625 0,54.3125 0,2.0625 2.03125,0 54.15625,0 32.21875,32.1875 1.46875,1.46875 1.4375,-1.46875 32.21875,-32.1875 54.90625,0 2.0625,0 0,-2.0625 0,-54.71875 31.75,-31.75 1.4375,-1.4375 -1.4375,-1.4375 -31.75,-31.75 0,-55.28125 0,-2.0625 -2.0625,0 -55.3125,0 -31.625,-31.65625 -1.46875,-1.4375 z m 0,5.78125 27.3125,27.3125 -16.84375,0 -2.0625,0 0,2.0625 0,66.65625 -8.40625,8.40625 -8.125,-8.125 0,-66.6875 0,-2.0625 -2.0625,0 -17.375,0 27.5625,-27.5625 z m 12.5,31.40625 18.90625,0 20.8125,20.8125 -39.71875,39.71875 0,-60.53125 z m 24.6875,0 49.15625,0 0,49.125 -19.25,-19.25 -1.46875,-1.4375 -1.4375,1.4375 -43.96875,43.96875 -7.71875,0 0,-7.5 44.0625,-44.09375 1.46875,-1.4375 -1.46875,-1.4375 -19.375,-19.375 z m -123.125,0.28125 48.46875,0 -19.09375,19.09375 -1.4375,1.4375 1.4375,1.4375 44.34375,44.34375 0,7.25 -8.15625,0 -43.875,-43.875 -1.46875,-1.46875 -1.4375,1.46875 -18.78125,18.78125 0,-48.46875 z m 54.25,0 19.46875,0 0,60.53125 -40,-40 20.53125,-20.53125 z m 97.3125,33.9375 20.71875,20.71875 0,18.90625 -60.3125,0 39.59375,-39.625 z m -131.34375,0.0937 39.53125,39.53125 -59.75,0 0,-19.3125 20.21875,-20.21875 z m -24.3125,24.3125 0,17.28125 0,2.0625 2.03125,0 65.9375,0 8.5625,8.5625 -7.84375,7.84375 -66.65625,0 -2.03125,0 0,2.03125 0,17.84375 -27.8125,-27.8125 27.8125,-27.8125 z m 180.5,0.4375 27.375,27.375 -27.375,27.375 0,-17.40625 0,-2.03125 -2.0625,0 -67.03125,0 -7.9375,-7.9375 8.46875,-8.46875 66.5,0 2.0625,0 0,-2.0625 0,-16.84375 z m -82.0625,11.375 0,5.46875 0,2.0625 2.0625,0 5.625,0 -7.03125,7.03125 -1.4375,1.4375 1.4375,1.4375 6.5,6.5 -5.09375,0 -2.0625,0 0,2.03125 0,6.5625 -7.125,-7.125 -1.4375,-1.4375 -1.46875,1.4375 -6.375,6.375 0,-5.8125 0,-2.03125 -2.0625,0 -5.5,0 6.40625,-6.40625 1.46875,-1.4375 -1.46875,-1.46875 -7.09375,-7.09375 6.0625,0 2.0625,0 0,-2.0625 0,-5.21875 6.6875,6.6875 1.4375,1.4375 1.46875,-1.4375 6.9375,-6.9375 z m -94.34375,28.03125 60.5,0 -40.1875,40.1875 -20.3125,-20.3125 0,-19.875 z m 66.28125,0 7.5625,0 0,7.84375 -44.46875,44.46875 -1.4375,1.4375 1.4375,1.46875 18.625,18.625 -48,0 0,-48.1875 18.875,18.875 1.4375,1.4375 1.4375,-1.4375 44.53125,-44.53125 z m 32.15625,0 7.15625,0 44.53125,44.53125 1.4375,1.4375 1.46875,-1.4375 19.25,-19.25 0,48.5625 -48.75,0 18.625,-18.625 1.4375,-1.46875 -1.4375,-1.4375 -43.71875,-43.71875 0,-8.59375 z m 12.96875,0 60.875,0 0,19.46875 -20.71875,20.71875 -40.15625,-40.1875 z m -25.625,1.71875 8.5625,8.5625 0,65.59375 0,2.0625 2.0625,0 17.21875,0 -27.84375,27.84375 -27.875,-27.84375 17.96875,0 2.0625,0 0,-2.0625 0,-66.3125 7.84375,-7.84375 z m -11.9375,11.9375 0,60.1875 -20.03125,0 -20.09375,-20.09375 40.125,-40.09375 z m 24.59375,0.71875 39.375,39.375 -20.09375,20.09375 -19.28125,0 0,-59.46875 z"
         style="display:inline;fill:#000000;fill-opacity:0.47058824;stroke:none;stroke-width:1.00005198;stroke-miterlimit:4;stroke-opacity:1;filter:url(#filter6465)"
         inkscape:connector-curvature="0" />
      <path
         style="display:inline;fill:#ffffff;fill-opacity:1;stroke:none;stroke-width:1.00005198;stroke-miterlimit:4;stroke-opacity:1"
         d="m -91.50012,-215.125 -1.4375,1.4375 -31.90625,31.90625 -54.65625,0 -2.03125,0 0,2.0625 0,54.625 -32.15625,32.15625 -1.46875,1.4375 1.46875,1.4375 32.15625,32.15625 0,54.3125 0,2.0625 2.03125,0 54.15625,0 32.21875,32.1875 1.46875,1.46875 1.4375,-1.46875 32.21875,-32.1875 54.90625,0 2.0625,0 0,-2.0625 0,-54.71875 31.75,-31.75 1.4375,-1.4375 -1.4375,-1.4375 -31.75,-31.75 0,-55.28125 0,-2.0625 -2.0625,0 -55.3125,0 -31.625,-31.65625 -1.46875,-1.4375 z m 0,5.78125 27.3125,27.3125 -16.84375,0 -2.0625,0 0,2.0625 0,66.65625 -8.40625,8.40625 -8.125,-8.125 0,-66.6875 0,-2.0625 -2.0625,0 -17.375,0 27.5625,-27.5625 z m 12.5,31.40625 18.90625,0 20.8125,20.8125 -39.71875,39.71875 0,-60.53125 z m 24.6875,0 49.15625,0 0,49.125 -19.25,-19.25 -1.46875,-1.4375 -1.4375,1.4375 -43.96875,43.96875 -7.71875,0 0,-7.5 44.0625,-44.09375 1.46875,-1.4375 -1.46875,-1.4375 -19.375,-19.375 z m -123.125,0.28125 48.46875,0 -19.09375,19.09375 -1.4375,1.4375 1.4375,1.4375 44.34375,44.34375 0,7.25 -8.15625,0 -43.875,-43.875 -1.46875,-1.46875 -1.4375,1.46875 -18.78125,18.78125 0,-48.46875 z m 54.25,0 19.46875,0 0,60.53125 -40,-40 20.53125,-20.53125 z m 97.3125,33.9375 20.71875,20.71875 0,18.90625 -60.3125,0 39.59375,-39.625 z m -131.34375,0.0937 39.53125,39.53125 -59.75,0 0,-19.3125 20.21875,-20.21875 z m -24.3125,24.3125 0,17.28125 0,2.0625 2.03125,0 65.9375,0 8.5625,8.5625 -7.84375,7.84375 -66.65625,0 -2.03125,0 0,2.03125 0,17.84375 -27.8125,-27.8125 27.8125,-27.8125 z m 180.5,0.4375 27.375,27.375 -27.375,27.375 0,-17.40625 0,-2.03125 -2.0625,0 -67.03125,0 -7.9375,-7.9375 8.46875,-8.46875 66.5,0 2.0625,0 0,-2.0625 0,-16.84375 z m -82.0625,11.375 0,5.46875 0,2.0625 2.0625,0 5.625,0 -7.03125,7.03125 -1.4375,1.4375 1.4375,1.4375 6.5,6.5 -5.09375,0 -2.0625,0 0,2.03125 0,6.5625 -7.125,-7.125 -1.4375,-1.4375 -1.46875,1.4375 -6.375,6.375 0,-5.8125 0,-2.03125 -2.0625,0 -5.5,0 6.40625,-6.40625 1.46875,-1.4375 -1.46875,-1.46875 -7.09375,-7.09375 6.0625,0 2.0625,0 0,-2.0625 0,-5.21875 6.6875,6.6875 1.4375,1.4375 1.46875,-1.4375 6.9375,-6.9375 z m -94.34375,28.03125 60.5,0 -40.1875,40.1875 -20.3125,-20.3125 0,-19.875 z m 66.28125,0 7.5625,0 0,7.84375 -44.46875,44.46875 -1.4375,1.4375 1.4375,1.46875 18.625,18.625 -48,0 0,-48.1875 18.875,18.875 1.4375,1.4375 1.4375,-1.4375 44.53125,-44.53125 z m 32.15625,0 7.15625,0 44.53125,44.53125 1.4375,1.4375 1.46875,-1.4375 19.25,-19.25 0,48.5625 -48.75,0 18.625,-18.625 1.4375,-1.46875 -1.4375,-1.4375 -43.71875,-43.71875 0,-8.59375 z m 12.96875,0 60.875,0 0,19.46875 -20.71875,20.71875 -40.15625,-40.1875 z m -25.625,1.71875 8.5625,8.5625 0,65.59375 0,2.0625 2.0625,0 17.21875,0 -27.84375,27.84375 -27.875,-27.84375 17.96875,0 2.0625,0 0,-2.0625 0,-66.3125 7.84375,-7.84375 z m -11.9375,11.9375 0,60.1875 -20.03125,0 -20.09375,-20.09375 40.125,-40.09375 z m 24.59375,0.71875 39.375,39.375 -20.09375,20.09375 -19.28125,0 0,-59.46875 z"
         id="path2289"
         inkscape:connector-curvature="0" />
    </g>
  </g>
</svg>
