<svg width="50" height="49" xmlns="http://www.w3.org/2000/svg" xmlns:xlink="http://www.w3.org/1999/xlink" xml:space="preserve" overflow="hidden"><g transform="translate(-292 -417)"><path d="M23.0202 35.6034 3.4202 35.6034 3.4202 32.5458C3.41011 25.1264 8.47406 18.6619 15.68 16.8952L16.0426 16.807 16.3758 16.9834C18.6441 18.1977 21.3693 18.1977 23.6376 16.9834L23.9708 16.807 24.3334 16.8952C27.4804 17.6757 30.3208 19.3827 32.487 21.7952L31.0366 23.1084C29.1996 21.0811 26.8183 19.6251 24.1766 18.914 21.5183 20.202 18.4167 20.202 15.7584 18.914 9.61331 20.5949 5.34908 26.175 5.341 32.5458L5.341 33.6434 22.981 33.6434Z" fill="#FF4F8B" transform="matrix(1.02041 0 0 1 292 417)"/><path d="M19.992 19.8156C18.5136 19.82 17.0578 19.4527 15.7584 18.7474 11.4821 16.4147 9.9066 11.057 12.2393 6.78074 14.5721 2.50447 19.9297 0.928934 24.206 3.26168 28.4823 5.59442 30.0578 10.9521 27.7251 15.2283 26.9142 16.7148 25.6925 17.9365 24.206 18.7474L24.206 18.7474C22.9107 19.4449 21.4632 19.8118 19.992 19.8156ZM19.992 4.3904C16.2798 4.31926 13.2128 7.27094 13.1416 10.9832 13.0935 13.4957 14.4506 15.8253 16.66 17.0226 18.7167 18.1255 21.1889 18.1255 23.2456 17.0226 26.5094 15.2524 27.7202 11.1716 25.95 7.90788 24.7661 5.72497 22.4752 4.3725 19.992 4.3904Z" fill="#FF4F8B" transform="matrix(1.02041 0 0 1 292 417)"/><path d="M35.1918 46.7264 24.7646 40.7092 24.7646 28.665 35.1918 22.6478 45.619 28.665 45.619 40.7092ZM26.7246 39.5724 35.1918 44.4724 43.659 39.5724 43.659 29.7724 35.1918 24.8724 26.7246 29.7724Z" fill="#FF4F8B" transform="matrix(1.02041 0 0 1 292 417)"/><path d="M35.1918 35.819 25.2546 30.086 26.2346 28.3906 35.1918 33.5552 44.149 28.3906 45.129 30.086 35.1918 35.819Z" fill="#FF4F8B" transform="matrix(1.02041 0 0 1 292 417)"/><path d="M34.2118 34.692 36.1718 34.692 36.1718 45.5994 34.2118 45.5994Z" fill="#FF4F8B" transform="matrix(1.02041 0 0 1 292 417)"/></g></svg>