<svg width="49" height="49" xmlns="http://www.w3.org/2000/svg" xmlns:xlink="http://www.w3.org/1999/xlink" xml:space="preserve" overflow="hidden"><defs><clipPath id="clip0"><rect x="496" y="415" width="49" height="49"/></clipPath></defs><g clip-path="url(#clip0)" transform="translate(-496 -415)"><path d="M524.42 462.04 515.6 462.04C515.33 462.042 515.071 461.932 514.885 461.736 514.698 461.538 514.603 461.272 514.62 461.001L514.787 458.169C513.152 457.715 511.581 457.057 510.112 456.209L508.25 458.355C508.069 458.556 507.814 458.673 507.544 458.679 507.275 458.68 507.016 458.578 506.819 458.394L500.626 452.24C500.435 452.048 500.332 451.785 500.341 451.515 500.348 451.245 500.464 450.99 500.665 450.809L502.791 448.918C501.96 447.435 501.324 445.85 500.9 444.204L498.019 444.4C497.479 444.432 497.014 444.021 496.982 443.481 496.981 443.46 496.98 443.44 496.98 443.42L496.98 434.6C496.978 434.33 497.088 434.071 497.284 433.885 497.482 433.698 497.748 433.603 498.019 433.62L500.9 433.816C501.349 432.183 502.008 430.615 502.86 429.151L500.665 427.25C500.464 427.069 500.348 426.814 500.341 426.544 500.321 426.26 500.424 425.981 500.626 425.78L506.78 419.626C506.978 419.444 507.236 419.342 507.505 419.341 507.775 419.348 508.03 419.464 508.211 419.665L510.112 421.801C511.591 420.966 513.172 420.327 514.816 419.9L514.62 417.019C514.603 416.748 514.698 416.482 514.885 416.284 515.071 416.088 515.33 415.978 515.6 415.98L524.42 415.98C524.69 415.978 524.949 416.088 525.135 416.284 525.322 416.482 525.417 416.748 525.4 417.019L525.204 419.9C526.832 420.356 528.395 421.015 529.859 421.86L531.819 419.724C532 419.523 532.255 419.406 532.525 419.4 532.795 419.391 533.058 419.494 533.25 419.684L539.394 425.78C539.585 425.972 539.688 426.235 539.679 426.505 539.672 426.775 539.556 427.03 539.355 427.211L537.219 429.112C538.066 430.578 538.725 432.145 539.179 433.777L542.021 433.61C542.292 433.593 542.558 433.689 542.756 433.875 542.947 434.067 543.049 434.329 543.04 434.6L543.04 443.42C543.042 443.69 542.932 443.949 542.736 444.135 542.538 444.322 542.272 444.417 542.001 444.4L539.12 444.204C538.669 445.84 538.01 447.411 537.16 448.879L539.287 450.77C539.487 450.951 539.604 451.206 539.61 451.476 539.62 451.746 539.517 452.009 539.326 452.201L533.24 458.394C533.044 458.58 532.784 458.682 532.515 458.679 532.245 458.673 531.99 458.556 531.809 458.355L529.918 456.229C528.452 457.084 526.881 457.743 525.243 458.189L525.4 461.001C525.417 461.272 525.322 461.538 525.135 461.736 524.949 461.932 524.69 462.042 524.42 462.04ZM516.698 460.08 523.381 460.08 523.234 457.463C523.223 456.996 523.543 456.586 523.999 456.483 525.977 456.041 527.864 455.259 529.575 454.171 529.98 453.915 530.51 453.99 530.829 454.347L532.574 456.307 537.307 451.574 535.347 449.829C534.99 449.51 534.915 448.98 535.171 448.575 536.25 446.861 537.029 444.975 537.474 442.999 537.576 442.543 537.986 442.223 538.454 442.234L541.08 442.381 541.08 435.668 538.454 435.815C537.986 435.827 537.576 435.507 537.474 435.051 537.028 433.076 536.245 431.193 535.161 429.484 534.905 429.079 534.98 428.549 535.337 428.23L537.297 426.476 532.544 421.742 530.79 423.702C530.47 424.065 529.933 424.14 529.526 423.879 527.816 422.804 525.938 422.025 523.969 421.576 523.513 421.473 523.193 421.063 523.205 420.596L523.352 417.94 516.668 417.94 516.815 420.576C516.827 421.043 516.507 421.454 516.051 421.556 514.076 421.995 512.192 422.775 510.484 423.859 510.079 424.115 509.549 424.04 509.23 423.683L507.476 421.723 502.742 426.476 504.702 428.23C505.06 428.549 505.134 429.079 504.879 429.484 503.798 431.196 503.016 433.078 502.566 435.051 502.463 435.507 502.053 435.827 501.586 435.815L498.94 435.668 498.94 442.352 501.557 442.205C502.024 442.193 502.434 442.513 502.537 442.969 502.976 444.947 503.755 446.834 504.84 448.545 505.095 448.95 505.021 449.481 504.663 449.8L502.703 451.544 507.437 456.278 509.181 454.318C509.5 453.96 510.03 453.886 510.435 454.141 512.149 455.223 514.035 456.005 516.012 456.454 516.467 456.557 516.787 456.967 516.776 457.434Z" fill="#FF4F8B"/><path d="M520.079 450.554C514.741 450.578 510.09 446.925 508.848 441.734L510.808 441.284C512.044 446.43 517.219 449.6 522.366 448.364 525.982 447.495 528.769 444.613 529.516 440.97L531.476 441.362C530.344 446.745 525.58 450.588 520.079 450.554Z" fill="#FF4F8B"/><path d="M510.7 437.089 508.74 436.697C510.028 430.447 516.139 426.425 522.389 427.714 526.573 428.576 529.94 431.677 531.143 435.776L529.32 436.325C527.847 431.235 522.527 428.302 517.437 429.775 514.005 430.768 511.408 433.587 510.7 437.089Z" fill="#FF4F8B"/><path d="M526.115 434.718 526.488 434.002 530.016 435.786 531.545 432.13 532.289 432.444 530.427 436.893 526.115 434.718Z" fill="#FF4F8B"/><path d="M509.063 448.369 507.103 447.967 508.515 441.225C508.632 440.707 509.14 440.377 509.661 440.48L516.707 441.587 516.404 443.547 510.279 442.567Z" fill="#FF4F8B"/><path d="M530.633 437.873C530.499 437.874 530.365 437.848 530.241 437.795L523.724 434.855 524.528 433.071 530.182 435.58 532.887 430.278 534.632 431.17 531.515 437.344C531.345 437.673 531.004 437.878 530.633 437.873Z" fill="#FF4F8B"/><path d="M339.2-72.06 634.67-72.06 634.67 884.42 339.2 884.42Z" stroke="#CD2264" stroke-width="2.94" stroke-miterlimit="10" fill="none"/></g></svg>