<svg width="49" height="49" xmlns="http://www.w3.org/2000/svg" xmlns:xlink="http://www.w3.org/1999/xlink" xml:space="preserve" overflow="hidden"><defs><clipPath id="clip0"><rect x="738" y="415" width="49" height="49"/></clipPath></defs><g clip-path="url(#clip0)" transform="translate(-738 -415)"><path d="M780.875 462.53 744.125 462.53C743.584 462.53 743.145 462.091 743.145 461.55L743.145 417.45C743.145 416.909 743.584 416.47 744.125 416.47L780.875 416.47C781.416 416.47 781.855 416.909 781.855 417.45L781.855 461.55C781.855 462.091 781.416 462.53 780.875 462.53ZM745.105 460.57 779.895 460.57 779.895 418.43 745.105 418.43Z" fill="#FF4F8B"/><path d="M754.229 430.376 747.8 430.376C747.259 430.376 746.82 429.937 746.82 429.396L746.82 422.967C746.82 422.426 747.259 421.987 747.8 421.987L754.229 421.987C754.77 421.987 755.209 422.426 755.209 422.967L755.209 429.396C755.209 429.937 754.77 430.376 754.229 430.376ZM748.78 428.416 753.249 428.416 753.249 423.947 748.78 423.947Z" fill="#FF4F8B"/><path d="M751.014 444.155C748.698 444.155 746.82 442.277 746.82 439.961 746.82 437.644 748.698 435.766 751.014 435.766 753.331 435.766 755.209 437.644 755.209 439.961 755.209 442.277 753.331 444.155 751.014 444.155ZM751.014 437.726C749.78 437.726 748.78 438.727 748.78 439.961 748.78 441.195 749.78 442.195 751.014 442.195 752.248 442.195 753.249 441.195 753.249 439.961 753.249 438.727 752.248 437.726 751.014 437.726Z" fill="#FF4F8B"/><path d="M751.014 459.776C748.662 459.776 746.82 457.326 746.82 454.2 746.82 451.074 748.662 448.624 751.014 448.624 753.366 448.624 755.209 451.074 755.209 454.2 755.209 457.326 753.366 459.776 751.014 459.776ZM751.014 450.584C749.76 450.584 748.78 452.24 748.78 454.2 748.78 456.16 749.76 457.816 751.014 457.816 752.269 457.816 753.249 456.16 753.249 454.2 753.249 452.24 752.23 450.584 751.014 450.584Z" fill="#FF4F8B"/><path d="M773.986 443.234C771.046 443.234 768.87 441.832 768.87 439.961 768.87 438.089 771.065 436.687 773.986 436.687 776.906 436.687 779.101 438.089 779.101 439.961 779.101 441.832 776.896 443.234 773.986 443.234ZM773.986 438.647C772.084 438.647 770.83 439.431 770.83 439.961 770.83 440.49 772.084 441.274 773.986 441.274 775.887 441.274 777.141 440.48 777.141 439.961 777.141 439.441 775.877 438.647 773.986 438.647Z" fill="#FF4F8B"/><path d="M777.2 430.376 768.929 430.376C768.388 430.375 767.95 429.936 767.951 429.395 767.951 429.227 767.994 429.062 768.076 428.916L772.212 421.566C772.479 421.095 773.077 420.93 773.548 421.197 773.702 421.284 773.83 421.412 773.917 421.566L778.053 428.916C778.228 429.219 778.228 429.593 778.053 429.896 777.874 430.197 777.549 430.38 777.2 430.376ZM770.605 428.416 775.505 428.416 773.064 424.045Z" fill="#FF4F8B"/><path d="M770.079 452.14 771.465 450.754 777.895 457.185 776.51 458.571Z" fill="#FF4F8B"/><path d="M770.079 457.185 776.51 450.754 777.895 452.14 771.465 458.571Z" fill="#FF4F8B"/><path d="M764.107 429.171 762.725 427.74 764.793 425.682 762.725 423.653 764.107 422.272 766.871 425.025C767.251 425.408 767.251 426.025 766.871 426.407Z" fill="#FF4F8B"/><path d="M756.992 424.741 765.264 424.741 765.264 426.701 756.992 426.701Z" fill="#FF4F8B"/><path d="M764.107 443.871 762.725 442.44 764.793 440.382 762.725 438.314 764.107 436.932 766.871 439.686C767.251 440.068 767.251 440.686 766.871 441.068Z" fill="#FF4F8B"/><path d="M756.992 439.441 765.264 439.441 765.264 441.401 756.992 441.401Z" fill="#FF4F8B"/><path d="M764.107 458.571 762.725 457.14 764.793 455.082 762.725 453.014 764.107 451.632 766.871 454.386C767.251 454.768 767.251 455.386 766.871 455.768Z" fill="#FF4F8B"/><path d="M756.992 454.141 765.264 454.141 765.264 456.101 756.992 456.101Z" fill="#FF4F8B"/><path d="M718.4 270.94 1013.87 270.94 1013.87 1227.42 718.4 1227.42Z" stroke="#CD2264" stroke-width="2.94" stroke-miterlimit="10" fill="none"/></g></svg>