<svg width="50" height="49" xmlns="http://www.w3.org/2000/svg" xmlns:xlink="http://www.w3.org/1999/xlink" xml:space="preserve" overflow="hidden"><defs><clipPath id="clip0"><rect x="647" y="515" width="50" height="49"/></clipPath></defs><g clip-path="url(#clip0)" transform="translate(-647 -515)"><path d="M28.8806 47.53 20.1194 47.53C19.8493 47.5317 19.5904 47.4217 19.404 47.2262 19.2177 47.0285 19.1219 46.7623 19.1394 46.4912L19.306 43.659C17.6714 43.2052 16.1008 42.5467 14.6314 41.699L12.74 43.8452C12.5593 44.0455 12.3041 44.1625 12.0344 44.1686 11.7659 44.1666 11.5076 44.0654 11.3092 43.8844L5.1156 37.6908C4.92475 37.4987 4.82187 37.2362 4.8314 36.9656 4.83749 36.6959 4.95448 36.4407 5.1548 36.26L7.2814 34.3686C6.42937 32.9014 5.77058 31.3301 5.3214 29.694L2.4794 29.8606C2.20832 29.8781 1.94214 29.7823 1.7444 29.596 1.54886 29.4096 1.43893 29.1507 1.4406 28.8806L1.4406 20.1194C1.43962 19.5782 1.87759 19.1386 2.41883 19.1376 2.43903 19.1376 2.45923 19.1382 2.4794 19.1394L5.3312 19.306C5.78024 17.6729 6.43906 16.1049 7.2912 14.6412L5.1548 12.74C4.95448 12.5593 4.83749 12.3041 4.8314 12.0344 4.82188 11.7638 4.92475 11.5013 5.1156 11.3092L11.3092 5.1156C11.5049 4.93039 11.765 4.82849 12.0344 4.8314 12.3041 4.83749 12.5593 4.95448 12.74 5.1548L14.6412 7.2912C16.1049 6.43906 17.6729 5.78024 19.306 5.3312L19.1394 2.4794C19.1219 2.20832 19.2177 1.94214 19.404 1.7444 19.5904 1.54886 19.8493 1.43893 20.1194 1.4406L28.8806 1.4406C29.1507 1.43893 29.4096 1.54886 29.596 1.7444 29.7823 1.94214 29.8781 2.20832 29.8606 2.4794L29.694 5.3606C31.3215 5.81668 32.8854 6.47516 34.349 7.3206L36.309 5.1842C36.6789 4.7891 37.2991 4.76867 37.6942 5.13858 37.7099 5.15328 37.7251 5.1685 37.7398 5.1842L43.9334 11.3778C44.1243 11.5699 44.2271 11.8324 44.2176 12.103 44.2115 12.3727 44.0945 12.6279 43.8942 12.8086L41.7578 14.7098C42.6054 16.1758 43.264 17.7432 43.7178 19.3746L46.5598 19.208C46.8297 19.1982 47.093 19.293 47.2948 19.4726 47.4903 19.659 47.6003 19.9179 47.5986 20.188L47.5986 28.9492C47.6003 29.2193 47.4903 29.4782 47.2948 29.6646 47.0971 29.8509 46.8309 29.9467 46.5598 29.9292L43.7178 29.7626C43.2669 31.3981 42.6082 32.9691 41.7578 34.4372L43.8452 36.26C44.0455 36.4407 44.1625 36.6959 44.1686 36.9656 44.1781 37.2362 44.0753 37.4987 43.8844 37.6908L37.6908 43.8844C37.494 44.0679 37.2347 44.1695 36.9656 44.1686 36.6959 44.1625 36.4407 44.0455 36.26 43.8452L34.3686 41.7186C32.9033 42.5744 31.3315 43.2334 29.694 43.6786L29.8606 46.5108C29.8781 46.7819 29.7823 47.0481 29.596 47.2458 29.4063 47.4341 29.1478 47.5368 28.8806 47.53ZM21.1582 45.57 27.8418 45.57 27.6948 42.9534C27.6834 42.4863 28.0034 42.0761 28.4592 41.9734 30.4378 41.5311 32.3246 40.7485 34.0354 39.6606 34.4405 39.4049 34.971 39.4795 35.2898 39.837L37.0342 41.797 41.7676 37.0636 39.8076 35.3192C39.4501 35.0004 39.3755 34.4699 39.6312 34.0648 40.7175 32.3295 41.4966 30.4199 41.9342 28.42 42.0369 27.9642 42.4471 27.6442 42.9142 27.6556L45.5406 27.8026 45.5406 21.1582 42.9142 21.3052C42.4471 21.3166 42.0369 20.9966 41.9342 20.5408 41.4883 18.5664 40.706 16.6834 39.6214 14.9744 39.3657 14.5693 39.4403 14.0388 39.7978 13.72L41.7578 11.9658 37.0342 7.2324 35.28 9.2022C34.9612 9.55965 34.4307 9.63425 34.0256 9.3786 32.2999 8.3012 30.4047 7.52261 28.42 7.0756 27.9642 6.97294 27.6442 6.56273 27.6556 6.0956L27.8026 3.4594 21.1582 3.4594 21.3052 6.0956C21.3166 6.56273 20.9966 6.97294 20.5408 7.0756 18.5658 7.51466 16.6823 8.29394 14.9744 9.3786 14.5693 9.63425 14.0388 9.55965 13.72 9.2022L11.9658 7.2422 7.2324 11.9658 9.1924 13.72C9.54985 14.0388 9.62445 14.5693 9.3688 14.9744 8.28768 16.6982 7.50882 18.594 7.0658 20.58 6.96314 21.0359 6.55293 21.3558 6.0858 21.3444L3.43 21.1582 3.43 27.8418 6.0466 27.6948C6.51373 27.6834 6.92394 28.0034 7.0266 28.4592 7.46723 30.4367 8.24637 32.3233 9.3296 34.0354 9.58942 34.4292 9.53176 34.9522 9.1924 35.28L7.2324 37.0244 11.9658 41.7578 13.7102 39.7978C14.029 39.4403 14.5595 39.3657 14.9646 39.6214 16.6898 40.7111 18.5891 41.4967 20.58 41.944 21.0359 42.0467 21.3558 42.4569 21.3444 42.924Z" fill="#FF4F8B" transform="matrix(1.02041 0 0 1 647 515)"/><path d="M24.5 38.3474C16.8523 38.3474 10.6526 32.1477 10.6526 24.5 10.6526 16.8523 16.8523 10.6526 24.5 10.6526 32.1477 10.6526 38.3474 16.8523 38.3474 24.5 38.342 32.1455 32.1455 38.342 24.5 38.3474ZM24.5 12.6224C17.9348 12.6224 12.6126 17.9446 12.6126 24.5098 12.6126 31.075 17.9348 36.3972 24.5 36.3972 31.0652 36.3972 36.3874 31.075 36.3874 24.5098 36.3874 24.5065 36.3874 24.5033 36.3874 24.5 36.3874 17.9402 31.0696 12.6224 24.5098 12.6224 24.5065 12.6224 24.5033 12.6224 24.5 12.6224Z" fill="#FF4F8B" transform="matrix(1.02041 0 0 1 647 515)"/><path d="M32.7712 26.4012 24.5 26.4012C23.9588 26.4012 23.52 25.9624 23.52 25.4212L23.52 14.3962 25.48 14.3962 25.48 24.4412 32.7712 24.4412Z" fill="#FF4F8B" transform="matrix(1.02041 0 0 1 647 515)"/><path d="M-19.6-624.26 275.87-624.26 275.87 332.22-19.6 332.22Z" stroke="#CD2264" stroke-width="2.94" stroke-miterlimit="10" fill="none" transform="matrix(1.02041 0 0 1 647 515)"/></g></svg>