<svg width="49" height="49" xmlns="http://www.w3.org/2000/svg" xmlns:xlink="http://www.w3.org/1999/xlink" xml:space="preserve" overflow="hidden"><g transform="translate(-293 -520)"><path d="M334.591 551.654 326.134 551.654 326.134 549.694 332.631 549.694 332.631 549.635C332.634 546.722 330.72 544.153 327.927 543.324 326.562 543.937 325 543.937 323.635 543.324 322.995 543.515 322.39 543.806 321.841 544.186L320.734 542.54C321.571 541.962 322.508 541.543 323.498 541.305L323.87 541.217 324.203 541.393C325.188 541.927 326.375 541.927 327.359 541.393L327.692 541.217 328.064 541.305C331.896 542.233 334.593 545.664 334.591 549.606Z" fill="#FF4F8B"/><path d="M325.771 543.765C324.95 543.764 324.142 543.558 323.419 543.167 321.044 541.871 320.169 538.894 321.465 536.519 322.761 534.143 325.738 533.268 328.113 534.565 330.489 535.861 331.364 538.837 330.068 541.213 329.617 542.038 328.939 542.717 328.113 543.167L328.113 543.167C327.395 543.559 326.59 543.764 325.771 543.765ZM325.771 536.043C324.166 536.042 322.858 537.329 322.831 538.934 322.842 539.987 323.429 540.95 324.36 541.442 325.239 541.924 326.303 541.924 327.182 541.442L327.182 541.442C328.108 540.946 328.687 539.983 328.692 538.934 328.665 537.337 327.368 536.053 325.771 536.043Z" fill="#FF4F8B"/><path d="M324.527 556.525 300.409 556.525 300.409 554.075C300.402 548.686 304.089 543.994 309.327 542.726L309.699 542.628 310.023 542.814C311.551 543.644 313.395 543.644 314.923 542.814L315.256 542.638 315.618 542.726C320.864 543.986 324.56 548.68 324.556 554.075ZM302.369 554.565 322.567 554.565 322.567 554.075C322.566 549.717 319.667 545.893 315.471 544.716 313.564 545.603 311.362 545.603 309.454 544.716 305.261 545.893 302.365 549.719 302.369 554.075Z" fill="#FF4F8B"/><path d="M312.453 545.362C311.357 545.363 310.278 545.087 309.317 544.559 306.171 542.832 305.021 538.882 306.747 535.737 308.474 532.591 312.424 531.44 315.569 533.167 318.715 534.894 319.866 538.843 318.139 541.989 317.544 543.073 316.653 543.964 315.569 544.559L315.569 544.559C314.613 545.08 313.542 545.356 312.453 545.362ZM312.453 534.435C309.962 534.425 307.932 536.432 307.916 538.924 307.913 540.56 308.809 542.065 310.248 542.844 311.618 543.584 313.269 543.584 314.638 542.844L314.638 542.844C316.083 542.07 316.983 540.563 316.981 538.924 316.97 536.434 314.943 534.425 312.453 534.435 312.453 534.435 312.453 534.435 312.453 534.435Z" fill="#FF4F8B"/><path d="M340.863 564.531 294.137 564.531 294.137 524.469 340.863 524.469ZM296.097 562.571 338.903 562.571 338.903 526.429 296.097 526.429Z" fill="#FF4F8B"/></g></svg>