<svg width="50" height="49" xmlns="http://www.w3.org/2000/svg" xmlns:xlink="http://www.w3.org/1999/xlink" xml:space="preserve" overflow="hidden"><defs><clipPath id="clip0"><rect x="920" y="408" width="50" height="49"/></clipPath></defs><g clip-path="url(#clip0)" transform="translate(-920 -408)"><path d="M25.48 42.9338 3.4104 42.9338C2.86916 42.9338 2.4304 42.495 2.4304 41.9538L2.4304 13.475C2.4304 12.9338 2.86916 12.495 3.4104 12.495L32.8104 12.495C33.3516 12.495 33.7904 12.9338 33.7904 13.475L33.7904 22.6674 31.8304 22.6674 31.8304 14.455 4.3904 14.455 4.3904 40.9738 25.48 40.9738Z" fill="#FF4F8B" transform="matrix(1.02041 0 0 1 920 408)"/><path d="M32.8202 10.78 3.3614 10.78C2.82017 10.7775 2.38343 10.3367 2.38593 9.79549 2.38686 9.59329 2.45032 9.39632 2.5676 9.2316L7.84 1.8816C8.02294 1.62465 8.31838 1.47146 8.6338 1.47L27.587 1.47C27.9024 1.47146 28.1979 1.62465 28.3808 1.8816L33.6238 9.2316C33.9377 9.6725 33.8348 10.2844 33.3939 10.5983 33.2265 10.7176 33.0258 10.7811 32.8202 10.78ZM5.2626 8.82 30.919 8.82 27.0774 3.43 9.1042 3.43Z" fill="#FF4F8B" transform="matrix(1.02041 0 0 1 920 408)"/><path d="M24.5588 36.505 11.6914 36.505C11.1502 36.505 10.7114 36.0662 10.7114 35.525L10.7114 18.9924C10.7114 18.4512 11.1502 18.0124 11.6914 18.0124L24.5588 18.0124C25.1 18.0124 25.5388 18.4512 25.5388 18.9924L25.5388 35.525C25.5388 36.0662 25.1 36.505 24.5588 36.505ZM12.6714 34.545 23.5788 34.545 23.5788 19.9724 12.6714 19.9724Z" fill="#FF4F8B" transform="matrix(1.02041 0 0 1 920 408)"/><path d="M14.406 22.5988 21.756 22.5988 21.756 24.5588 14.406 24.5588Z" fill="#FF4F8B" transform="matrix(1.02041 0 0 1 920 408)"/><path d="M14.406 26.2738 21.756 26.2738 21.756 28.2338 14.406 28.2338Z" fill="#FF4F8B" transform="matrix(1.02041 0 0 1 920 408)"/><path d="M14.406 29.9488 21.756 29.9488 21.756 31.9088 14.406 31.9088Z" fill="#FF4F8B" transform="matrix(1.02041 0 0 1 920 408)"/><path d="M45.6288 47.53 29.106 47.53C28.5648 47.53 28.126 47.0912 28.126 46.55L28.126 32.7712C28.1245 32.5107 28.2268 32.2603 28.4102 32.0754 28.5951 31.892 28.8455 31.7897 29.106 31.7912L45.6386 31.7912C46.1798 31.7912 46.6186 32.23 46.6186 32.7712L46.6186 46.55C46.6186 47.0912 46.1799 47.53 45.6386 47.53 45.6354 47.53 45.6321 47.53 45.6288 47.53ZM30.086 45.57 44.6488 45.57 44.6488 33.7512 30.086 33.7512Z" fill="#FF4F8B" transform="matrix(1.02041 0 0 1 920 408)"/><path d="M42.9338 32.8888 40.9738 32.8888 40.9738 29.1158C41.0409 27.052 39.4487 25.3118 37.387 25.1958L37.387 25.1958C35.3088 25.286 33.6934 27.0371 33.7708 29.1158L33.7708 32.928 31.8108 32.928 31.8108 29.1256C31.734 25.9648 34.2265 23.3364 37.387 23.2456L37.387 23.2456C40.5296 23.3626 42.9958 25.9816 42.924 29.1256Z" fill="#FF4F8B" transform="matrix(1.02041 0 0 1 920 408)"/><path d="M37.3674 40.7778 37.3674 40.7778C35.8519 40.7778 34.6234 39.5493 34.6234 38.0338 34.6234 38.0305 34.6234 38.0273 34.6234 38.024 34.6234 36.5085 35.8519 35.28 37.3674 35.28L37.3674 35.28C38.8856 35.1893 40.1898 36.3465 40.2805 37.8647 40.3712 39.3829 39.214 40.6871 37.6958 40.7778 37.5864 40.7843 37.4768 40.7843 37.3674 40.7778ZM37.3674 37.24C36.9317 37.2886 36.6179 37.6813 36.6666 38.117 36.7077 38.4856 36.9987 38.7766 37.3674 38.8178L37.3674 38.8178C37.5764 38.8212 37.7779 38.7399 37.926 38.5924 38.0786 38.4429 38.1635 38.2376 38.1612 38.024L38.1612 38.024C38.1624 37.8154 38.0814 37.6148 37.9358 37.4654 37.7829 37.3192 37.579 37.2383 37.3674 37.24Z" fill="#FF4F8B" transform="matrix(1.02041 0 0 1 920 408)"/><path d="M36.3874 39.7978 38.3474 39.7978 38.3474 43.5904 36.3874 43.5904Z" fill="#FF4F8B" transform="matrix(1.02041 0 0 1 920 408)"/><path d="M-156.8-624.26 138.67-624.26 138.67 332.22-156.8 332.22Z" stroke="#CD2264" stroke-width="2.94" stroke-miterlimit="10" fill="none" transform="matrix(1.02041 0 0 1 920 408)"/></g></svg>