<svg width="49" height="49" xmlns="http://www.w3.org/2000/svg" xmlns:xlink="http://www.w3.org/1999/xlink" xml:space="preserve" overflow="hidden"><defs><clipPath id="clip0"><rect x="783" y="405" width="49" height="49"/></clipPath></defs><g clip-path="url(#clip0)" transform="translate(-783 -405)"><path d="M788.429 433.9 784.029 429.5 790.232 423.297 791.614 424.678 786.802 429.5 789.821 432.518 788.429 433.9Z" fill="#FF4F8B"/><path d="M807.5 452.971 801.297 446.768 802.678 445.376 807.5 450.198 810.518 447.179 811.91 448.571 807.5 452.971Z" fill="#FF4F8B"/><path d="M824.768 435.703 823.386 434.322 828.198 429.5 825.179 426.482 826.571 425.1 830.971 429.5 824.768 435.703Z" fill="#FF4F8B"/><path d="M812.322 413.614 807.5 408.802 804.482 411.821 803.09 410.429 807.5 406.029 813.703 412.232 812.322 413.614Z" fill="#FF4F8B"/><path d="M793.721 412.899 807.5 412.899 807.5 414.859 793.721 414.859Z" fill="#FF4F8B"/><path d="M790.046 416.574 803.825 416.574 803.825 418.534 790.046 418.534Z" fill="#FF4F8B"/><path d="M786.371 420.249 800.15 420.249 800.15 422.209 786.371 422.209Z" fill="#FF4F8B"/><path d="M790.899 429.5 792.859 429.5 792.859 443.279 790.899 443.279Z" fill="#FF4F8B"/><path d="M794.574 433.175 796.534 433.175 796.534 446.954 794.574 446.954Z" fill="#FF4F8B"/><path d="M798.249 436.85 800.209 436.85 800.209 450.629 798.249 450.629Z" fill="#FF4F8B"/><path d="M822.141 415.721 824.101 415.721 824.101 429.5 822.141 429.5Z" fill="#FF4F8B"/><path d="M818.466 412.046 820.426 412.046 820.426 425.825 818.466 425.825Z" fill="#FF4F8B"/><path d="M814.791 408.371 816.751 408.371 816.751 422.15 814.791 422.15Z" fill="#FF4F8B"/><path d="M813.929 436.791 827.708 436.791 827.708 438.751 813.929 438.751Z" fill="#FF4F8B"/><path d="M810.254 440.466 824.033 440.466 824.033 442.426 810.254 442.426Z" fill="#FF4F8B"/><path d="M806.579 444.141 820.358 444.141 820.358 446.101 806.579 446.101Z" fill="#FF4F8B"/><path d="M763.4-287.86 1058.87-287.86 1058.87 668.62 763.4 668.62Z" stroke="#CD2264" stroke-width="2.94" stroke-miterlimit="10" fill="none"/></g></svg>