<svg width="50" height="49" xmlns="http://www.w3.org/2000/svg" xmlns:xlink="http://www.w3.org/1999/xlink" xml:space="preserve" overflow="hidden"><defs><clipPath id="clip0"><rect x="851" y="396" width="50" height="49"/></clipPath></defs><g clip-path="url(#clip0)" transform="translate(-851 -396)"><path d="M39.2 47.04 9.8 47.04C9.25876 47.04 8.82 46.6012 8.82 46.06L8.82 23.1182C8.82108 22.8611 8.92315 22.6147 9.1042 22.4322 9.28753 22.2452 9.5381 22.1393 9.8 22.1382L9.8 22.1382 39.2 22.1382C39.7412 22.1382 40.18 22.577 40.18 23.1182L40.18 46.06C40.18 46.6012 39.7412 47.04 39.2 47.04ZM10.78 45.08 38.22 45.08 38.22 24.1178 10.78 24.1178Z" fill="#FF4F8B" transform="matrix(1.02041 0 0 1 851 396)"/><path d="M24.5 34.9566 24.5 34.9566C22.289 35.066 20.408 33.3624 20.2986 31.1514 20.1891 28.9405 21.8928 27.0594 24.1037 26.95 24.2357 26.9435 24.368 26.9435 24.5 26.95L24.5 26.95C26.7083 26.9446 28.5028 28.7303 28.5082 30.9386 28.5082 30.9419 28.5082 30.9451 28.5082 30.9484 28.505 32.0106 28.0823 33.0285 27.3322 33.7806 26.5826 34.5344 25.5631 34.9577 24.5 34.9566ZM24.5 28.91C23.9605 28.9056 23.4417 29.1174 23.0594 29.498 22.2584 30.2967 22.2565 31.5936 23.0552 32.3946 23.4381 32.7786 23.9577 32.9951 24.5 32.9966 25.039 32.9889 25.5545 32.775 25.9406 32.3988 26.3299 32.0167 26.5489 31.4939 26.5482 30.9484L26.5482 30.9484C26.5482 29.8226 25.6356 28.91 24.5098 28.91 24.5065 28.91 24.5033 28.91 24.5 28.91Z" fill="#FF4F8B" transform="matrix(1.02041 0 0 1 851 396)"/><path d="M23.52 34.0844 25.48 34.0844 25.48 40.1702 23.52 40.1702Z" fill="#FF4F8B" transform="matrix(1.02041 0 0 1 851 396)"/><path d="M34.6038 22.6772 32.6438 22.6772 32.6438 12.0344C32.6384 7.56281 29.0206 3.93618 24.549 3.92L24.549 3.92C20.0757 3.90362 16.4287 7.50248 16.3856 11.9756L16.3856 22.687 14.4256 22.687 14.4256 11.9756C14.4686 6.43911 18.9634 1.97058 24.5 1.96L24.5 1.96C30.0693 1.94917 34.593 6.45524 34.6038 12.0246 34.6038 12.0279 34.6038 12.0311 34.6038 12.0344Z" fill="#FF4F8B" transform="matrix(1.02041 0 0 1 851 396)"/><path d="M-19.6-417.48 275.87-417.48 275.87 539-19.6 539Z" stroke="#CD2264" stroke-width="2.94" stroke-miterlimit="10" fill="none" transform="matrix(1.02041 0 0 1 851 396)"/></g></svg>