<svg width="49" height="49" xmlns="http://www.w3.org/2000/svg" xmlns:xlink="http://www.w3.org/1999/xlink" xml:space="preserve" overflow="hidden"><defs><clipPath id="clip0"><rect x="737" y="511" width="49" height="49"/></clipPath></defs><g clip-path="url(#clip0)" transform="translate(-737 -511)"><path d="M779.875 558.53 743.125 558.53C742.584 558.53 742.145 558.091 742.145 557.55L742.145 513.45C742.145 512.909 742.584 512.47 743.125 512.47L779.875 512.47C780.416 512.47 780.855 512.909 780.855 513.45L780.855 557.55C780.855 558.091 780.416 558.53 779.875 558.53ZM744.105 556.57 778.895 556.57 778.895 514.43 744.105 514.43Z" fill="#FF4F8B"/><path d="M755.992 526.376 749.554 526.376C749.013 526.376 748.574 525.937 748.574 525.396L748.574 518.967C748.574 518.426 749.013 517.987 749.554 517.987L755.992 517.987C756.534 517.987 756.972 518.426 756.972 518.967L756.972 525.396C756.972 525.937 756.534 526.376 755.992 526.376ZM750.534 524.416 755.012 524.416 755.012 519.947 750.534 519.947Z" fill="#FF4F8B"/><path d="M755.992 539.234 749.554 539.234C749.013 539.234 748.574 538.795 748.574 538.254L748.574 531.825C748.574 531.284 749.013 530.845 749.554 530.845L755.992 530.845C756.534 530.845 756.972 531.284 756.972 531.825L756.972 538.254C756.972 538.795 756.534 539.234 755.992 539.234ZM750.534 537.274 755.012 537.274 755.012 532.805 750.534 532.805Z" fill="#FF4F8B"/><path d="M755.992 552.101 749.554 552.101C749.013 552.101 748.574 551.662 748.574 551.121L748.574 544.692C748.574 544.151 749.013 543.712 749.554 543.712L755.992 543.712C756.534 543.712 756.972 544.151 756.972 544.692L756.972 551.121C756.972 551.662 756.534 552.101 755.992 552.101ZM750.534 550.141 755.012 550.141 755.012 545.672 750.534 545.672Z" fill="#FF4F8B"/><path d="M759.667 522.574 775.289 522.574 775.289 524.534 759.667 524.534Z" fill="#FF4F8B"/><path d="M759.667 535.441 775.289 535.441 775.289 537.401 759.667 537.401Z" fill="#FF4F8B"/><path d="M759.667 548.299 775.289 548.299 775.289 550.259 759.667 550.259Z" fill="#FF4F8B"/><path d="M717.4 298.34 1012.87 298.34 1012.87 1254.82 717.4 1254.82Z" stroke="#CD2264" stroke-width="2.94" stroke-miterlimit="10" fill="none"/></g></svg>