<svg width="49" height="49" xmlns="http://www.w3.org/2000/svg" xmlns:xlink="http://www.w3.org/1999/xlink" xml:space="preserve" overflow="hidden"><g transform="translate(-285 -426)"><path d="M329.1 444.453C326.935 444.453 325.18 442.698 325.18 440.533 325.18 438.368 326.935 436.613 329.1 436.613 331.265 436.613 333.02 438.368 333.02 440.533 333.02 442.698 331.265 444.453 329.1 444.453ZM329.1 438.652C328.018 438.652 327.14 439.529 327.14 440.612 327.14 441.694 328.018 442.572 329.1 442.572 330.182 442.572 331.06 441.694 331.06 440.612 331.06 439.529 330.182 438.652 329.1 438.652Z" fill="#FF5252"/><path d="M329.1 454.606C326.935 454.606 325.18 452.851 325.18 450.686 325.18 448.521 326.935 446.766 329.1 446.766 331.265 446.766 333.02 448.521 333.02 450.686 333.02 452.851 331.265 454.606 329.1 454.606ZM329.1 448.805C328.018 448.805 327.14 449.682 327.14 450.765 327.14 451.847 328.018 452.725 329.1 452.725 330.182 452.725 331.06 451.847 331.06 450.765 331.06 449.682 330.182 448.805 329.1 448.805Z" fill="#FF5252"/><path d="M309.5 444.453C307.335 444.453 305.58 442.698 305.58 440.533 305.58 438.368 307.335 436.613 309.5 436.613 311.665 436.613 313.42 438.368 313.42 440.533 313.42 442.698 311.665 444.453 309.5 444.453ZM309.5 438.652C308.418 438.652 307.54 439.529 307.54 440.612 307.54 441.694 308.418 442.572 309.5 442.572 310.582 442.572 311.46 441.694 311.46 440.612 311.46 439.529 310.582 438.652 309.5 438.652Z" fill="#FF5252"/><path d="M299.367 435.026C297.202 435.026 295.447 433.271 295.447 431.106 295.447 428.941 297.202 427.186 299.367 427.186 301.532 427.186 303.287 428.941 303.287 431.106 303.287 433.271 301.532 435.026 299.367 435.026ZM299.367 429.224C298.284 429.224 297.407 430.102 297.407 431.184 297.407 432.267 298.284 433.144 299.367 433.144 300.449 433.144 301.327 432.267 301.327 431.184 301.327 430.102 300.449 429.224 299.367 429.224Z" fill="#FF5252"/><path d="M299.367 474.187C297.202 474.187 295.447 472.432 295.447 470.267 295.447 468.102 297.202 466.347 299.367 466.347 301.532 466.347 303.287 468.102 303.287 470.267 303.287 472.432 301.532 474.187 299.367 474.187ZM299.367 468.385C298.284 468.385 297.407 469.263 297.407 470.345 297.407 471.427 298.284 472.305 299.367 472.305 300.449 472.305 301.327 471.427 301.327 470.345 301.327 469.263 300.449 468.385 299.367 468.385Z" fill="#FF5252"/><path d="M289.9 454.606C287.735 454.606 285.98 452.851 285.98 450.686 285.98 448.521 287.735 446.766 289.9 446.766 292.065 446.766 293.82 448.521 293.82 450.686 293.82 452.851 292.065 454.606 289.9 454.606ZM289.9 448.805C288.818 448.805 287.94 449.682 287.94 450.765 287.94 451.847 288.818 452.725 289.9 452.725 290.982 452.725 291.86 451.847 291.86 450.765 291.86 449.682 290.982 448.805 289.9 448.805Z" fill="#FF5252"/><path d="M289.9 444.453C287.735 444.453 285.98 442.698 285.98 440.533 285.98 438.368 287.735 436.613 289.9 436.613 292.065 436.613 293.82 438.368 293.82 440.533 293.82 442.698 292.065 444.453 289.9 444.453ZM289.9 438.652C288.818 438.652 287.94 439.529 287.94 440.612 287.94 441.694 288.818 442.572 289.9 442.572 290.982 442.572 291.86 441.694 291.86 440.612 291.86 439.529 290.982 438.652 289.9 438.652Z" fill="#FF5252"/><path d="M329.1 432.86C328.158 432.86 327.395 432.097 327.395 431.155 327.395 430.213 328.158 429.45 329.1 429.45 330.042 429.45 330.805 430.213 330.805 431.155 330.805 432.097 330.042 432.86 329.1 432.86ZM329.1 430.9C328.959 430.9 328.845 431.014 328.845 431.155 328.845 431.439 329.355 431.439 329.355 431.155 329.355 431.014 329.241 430.9 329.1 430.9Z" fill="#FF5252"/><path d="M319.672 472.06C318.731 472.06 317.967 471.297 317.967 470.355 317.967 469.413 318.731 468.65 319.672 468.65 320.614 468.65 321.378 469.413 321.378 470.355 321.378 471.297 320.614 472.06 319.672 472.06ZM319.672 470.1C319.532 470.1 319.418 470.214 319.418 470.355 319.418 470.639 319.927 470.639 319.927 470.355 319.927 470.214 319.813 470.1 319.672 470.1Z" fill="#FF5252"/><path d="M329.1 462.583C328.158 462.583 327.395 461.82 327.395 460.878 327.395 459.936 328.158 459.173 329.1 459.173 330.042 459.173 330.805 459.936 330.805 460.878 330.805 461.82 330.042 462.583 329.1 462.583ZM329.1 460.623C328.959 460.623 328.845 460.737 328.845 460.878 328.845 461.162 329.355 461.162 329.355 460.878 329.355 460.737 329.241 460.623 329.1 460.623Z" fill="#FF5252"/><path d="M319.672 442.278C318.731 442.278 317.967 441.514 317.967 440.573 317.967 439.631 318.731 438.867 319.672 438.867 320.614 438.867 321.378 439.631 321.378 440.573 321.378 441.514 320.614 442.278 319.672 442.278ZM319.672 440.318C319.532 440.318 319.418 440.432 319.418 440.573 319.418 440.857 319.927 440.857 319.927 440.573 319.927 440.432 319.813 440.318 319.672 440.318Z" fill="#FF5252"/><path d="M309.5 432.86C308.558 432.86 307.795 432.097 307.795 431.155 307.795 430.213 308.558 429.45 309.5 429.45 310.442 429.45 311.205 430.213 311.205 431.155 311.205 432.097 310.442 432.86 309.5 432.86ZM309.5 430.9C309.359 430.9 309.245 431.014 309.245 431.155 309.245 431.439 309.755 431.439 309.755 431.155 309.755 431.014 309.641 430.9 309.5 430.9Z" fill="#FF5252"/><path d="M289.9 462.583C288.958 462.583 288.195 461.82 288.195 460.878 288.195 459.936 288.958 459.173 289.9 459.173 290.842 459.173 291.605 459.936 291.605 460.878 291.605 461.82 290.842 462.583 289.9 462.583ZM289.9 460.623C289.759 460.623 289.645 460.737 289.645 460.878 289.645 461.162 290.155 461.162 290.155 460.878 290.155 460.737 290.041 460.623 289.9 460.623Z" fill="#FF5252"/><path d="M299.367 452.46C298.425 452.46 297.662 451.697 297.662 450.755 297.662 449.813 298.425 449.05 299.367 449.05 300.309 449.05 301.072 449.813 301.072 450.755 301.072 451.697 300.309 452.46 299.367 452.46ZM299.367 450.5C299.226 450.5 299.112 450.614 299.112 450.755 299.112 451.039 299.622 451.039 299.622 450.755 299.622 450.614 299.508 450.5 299.367 450.5Z" fill="#FF5252"/><path d="M308.794 452.46C307.853 452.471 307.081 451.716 307.07 450.774 307.059 449.833 307.814 449.061 308.756 449.05 309.693 449.039 310.464 449.788 310.48 450.725 310.496 451.667 309.746 452.444 308.805 452.46 308.801 452.46 308.798 452.46 308.794 452.46ZM308.794 450.5C308.654 450.5 308.54 450.614 308.54 450.755 308.54 451.039 309.049 451.039 309.049 450.755 309.049 450.614 308.935 450.5 308.794 450.5Z" fill="#FF5252"/><path d="M308.794 461.221C307.853 461.232 307.081 460.477 307.07 459.536 307.059 458.594 307.814 457.822 308.755 457.811 309.697 457.8 310.469 458.555 310.48 459.497 310.48 459.503 310.48 459.509 310.48 459.516 310.48 460.45 309.728 461.21 308.794 461.221ZM308.794 459.261C308.654 459.261 308.54 459.375 308.54 459.516 308.54 459.8 309.049 459.8 309.049 459.516 309.049 459.375 308.935 459.261 308.794 459.261Z" fill="#FF5252"/><path d="M289.9 472.06C288.958 472.06 288.195 471.297 288.195 470.355 288.195 469.413 288.958 468.65 289.9 468.65 290.842 468.65 291.605 469.413 291.605 470.355 291.605 471.297 290.842 472.06 289.9 472.06ZM289.9 470.1C289.759 470.1 289.645 470.214 289.645 470.355 289.645 470.639 290.155 470.639 290.155 470.355 290.155 470.214 290.041 470.1 289.9 470.1Z" fill="#FF5252"/><path d="M289.9 432.86C288.958 432.838 288.213 432.058 288.234 431.116 288.256 430.174 289.037 429.429 289.978 429.451 290.901 429.472 291.639 430.223 291.644 431.145 291.65 432.087 290.891 432.855 289.949 432.86 289.933 432.861 289.917 432.86 289.9 432.86ZM289.9 430.9C289.759 430.9 289.645 431.014 289.645 431.155 289.645 431.439 290.155 431.439 290.155 431.155 290.155 431.014 290.041 430.9 289.9 430.9Z" fill="#FF5252"/><path d="M319.672 453.881C317.93 453.881 316.517 452.468 316.517 450.725 316.517 448.983 317.93 447.57 319.672 447.57 321.415 447.57 322.828 448.983 322.828 450.725 322.828 452.468 321.415 453.881 319.672 453.881ZM319.672 449.53C319.012 449.53 318.477 450.065 318.477 450.725 318.477 451.386 319.012 451.921 319.672 451.921 320.333 451.921 320.868 451.386 320.868 450.725 320.873 450.065 320.343 449.525 319.682 449.52 319.679 449.52 319.676 449.52 319.672 449.52Z" fill="#FF5252"/><path d="M319.672 464.034C317.93 464.034 316.517 462.621 316.517 460.878 316.517 459.135 317.93 457.723 319.672 457.723 321.415 457.723 322.828 459.135 322.828 460.878 322.828 462.621 321.415 464.034 319.672 464.034ZM319.672 459.683C319.012 459.683 318.477 460.218 318.477 460.878 318.477 461.539 319.012 462.074 319.672 462.074 320.333 462.074 320.868 461.539 320.868 460.878 320.868 460.218 320.333 459.683 319.672 459.683Z" fill="#FF5252"/><path d="M329.1 473.461C327.357 473.461 325.944 472.049 325.944 470.306 325.944 468.563 327.357 467.15 329.1 467.15 330.843 467.15 332.256 468.563 332.256 470.306 332.256 472.049 330.843 473.461 329.1 473.461ZM329.1 469.12C328.44 469.12 327.904 469.655 327.904 470.316 327.904 470.976 328.44 471.511 329.1 471.511 329.76 471.511 330.296 470.976 330.296 470.316 330.296 469.655 329.76 469.12 329.1 469.12Z" fill="#FF5252"/><path d="M319.672 434.301C317.93 434.301 316.517 432.888 316.517 431.145 316.517 429.402 317.93 427.989 319.672 427.989 321.415 427.989 322.828 429.402 322.828 431.145 322.828 432.888 321.415 434.301 319.672 434.301ZM319.672 429.949C319.012 429.949 318.477 430.485 318.477 431.145 318.477 431.805 319.012 432.341 319.672 432.341 320.333 432.341 320.868 431.805 320.868 431.145 320.884 430.485 320.362 429.937 319.702 429.92 319.692 429.92 319.682 429.92 319.672 429.92Z" fill="#FF5252"/><path d="M299.367 443.728C297.624 443.728 296.211 442.315 296.211 440.573 296.211 438.83 297.624 437.417 299.367 437.417 301.11 437.417 302.522 438.83 302.522 440.573 302.522 442.315 301.11 443.728 299.367 443.728ZM299.367 439.377C298.706 439.377 298.171 439.912 298.171 440.573 298.171 441.233 298.706 441.768 299.367 441.768 300.027 441.768 300.562 441.233 300.562 440.573 300.562 439.912 300.027 439.377 299.367 439.377Z" fill="#FF5252"/><path d="M299.367 464.034C297.624 464.034 296.211 462.621 296.211 460.878 296.211 459.135 297.624 457.723 299.367 457.723 301.11 457.723 302.522 459.135 302.522 460.878 302.522 462.621 301.11 464.034 299.367 464.034ZM299.367 459.683C298.706 459.683 298.171 460.218 298.171 460.878 298.171 461.539 298.706 462.074 299.367 462.074 300.027 462.074 300.562 461.539 300.562 460.878 300.562 460.218 300.027 459.683 299.367 459.683Z" fill="#FF5252"/><path d="M309.5 473.461C307.757 473.461 306.344 472.049 306.344 470.306 306.344 468.563 307.757 467.15 309.5 467.15 311.243 467.15 312.656 468.563 312.656 470.306 312.656 472.049 311.243 473.461 309.5 473.461ZM309.5 469.12C308.84 469.12 308.304 469.655 308.304 470.316 308.304 470.976 308.84 471.511 309.5 471.511 310.16 471.511 310.696 470.976 310.696 470.316 310.696 469.655 310.16 469.12 309.5 469.12Z" fill="#FF5252"/></g></svg>