<svg width="49" height="49" xmlns="http://www.w3.org/2000/svg" xmlns:xlink="http://www.w3.org/1999/xlink" xml:space="preserve" overflow="hidden"><g transform="translate(-446 -426)"><path d="M469.275 449.99 467.893 448.609 470.431 446.07 467.893 443.532 469.275 442.141 472.509 445.375C472.692 445.56 472.795 445.81 472.793 446.07 472.792 446.327 472.69 446.574 472.509 446.756Z" fill="#FF5252"/><path d="M472.323 448.648 477.909 448.648 477.909 450.608 472.323 450.608Z" fill="#FF5252"/><path d="M457.544 435.976C455.737 435.976 454.271 434.511 454.271 432.703 454.271 430.895 455.737 429.43 457.544 429.43 459.352 429.43 460.818 430.895 460.818 432.703 460.818 432.706 460.818 432.71 460.818 432.713 460.812 434.517 459.348 435.976 457.544 435.976ZM457.544 431.4C456.819 431.4 456.231 431.988 456.231 432.713 456.231 433.438 456.819 434.026 457.544 434.026 458.27 434.026 458.858 433.438 458.858 432.713 458.858 431.988 458.27 431.4 457.544 431.4Z" fill="#FF5252"/><path d="M457.544 466.866C455.737 466.866 454.271 465.401 454.271 463.593 454.271 461.785 455.737 460.32 457.544 460.32 459.352 460.32 460.818 461.785 460.818 463.593 460.818 465.401 459.352 466.866 457.544 466.866ZM457.544 462.289C456.819 462.289 456.231 462.877 456.231 463.603 456.231 464.328 456.819 464.916 457.544 464.916 458.27 464.916 458.858 464.328 458.858 463.603 458.858 463.599 458.858 463.596 458.858 463.593 458.868 462.868 458.289 462.271 457.564 462.26 457.558 462.26 457.551 462.26 457.544 462.26Z" fill="#FF5252"/><path d="M450.116 451.421C448.308 451.427 446.838 449.966 446.833 448.158 446.828 446.35 448.289 444.88 450.096 444.875 451.904 444.869 453.374 446.33 453.379 448.138 453.379 448.141 453.379 448.145 453.379 448.148 453.374 449.95 451.918 451.41 450.116 451.421ZM450.116 446.845C449.391 446.839 448.798 447.423 448.793 448.148 448.788 448.873 449.371 449.466 450.096 449.471 450.822 449.476 451.414 448.893 451.419 448.168 451.419 448.161 451.419 448.155 451.419 448.148 451.414 447.43 450.834 446.85 450.116 446.845Z" fill="#FF5252"/><path d="M450.116 443.415C448.308 443.42 446.838 441.959 446.833 440.151 446.828 438.343 448.289 436.874 450.096 436.868 451.904 436.863 453.374 438.324 453.379 440.132 453.379 440.135 453.379 440.138 453.379 440.141 453.374 441.943 451.918 443.404 450.116 443.415ZM450.116 438.838C449.391 438.833 448.798 439.416 448.793 440.141 448.788 440.867 449.371 441.459 450.096 441.464 450.822 441.47 451.414 440.886 451.419 440.161 451.419 440.154 451.419 440.148 451.419 440.141 451.414 439.424 450.834 438.843 450.116 438.838Z" fill="#FF5252"/><path d="M480.996 434.261C480.135 434.261 479.438 433.564 479.438 432.703 479.438 431.843 480.135 431.145 480.996 431.145 481.856 431.145 482.554 431.843 482.554 432.703 482.554 432.706 482.554 432.71 482.554 432.713 482.554 433.568 481.861 434.261 481.006 434.261 481.002 434.261 480.999 434.261 480.996 434.261ZM480.996 432.301C480.774 432.301 480.594 432.481 480.594 432.703 480.594 432.706 480.594 432.71 480.594 432.713 480.594 432.935 480.774 433.115 480.996 433.115 481.218 433.12 481.402 432.945 481.407 432.723 481.407 432.72 481.407 432.716 481.407 432.713 481.407 432.486 481.223 432.301 480.996 432.301Z" fill="#FF5252"/><path d="M480.369 445.923C479.513 445.923 478.82 445.23 478.82 444.375 478.82 443.52 479.513 442.827 480.369 442.827 481.224 442.827 481.917 443.52 481.917 444.375 481.917 445.23 481.224 445.923 480.369 445.923ZM480.369 443.963C480.141 443.963 479.957 444.148 479.957 444.375 479.957 444.602 480.141 444.787 480.369 444.787 480.596 444.787 480.78 444.602 480.78 444.375 480.78 444.148 480.596 443.963 480.369 443.963Z" fill="#FF5252"/><path d="M465.6 434.261C464.739 434.267 464.037 433.574 464.032 432.713 464.027 431.852 464.72 431.15 465.58 431.145 466.441 431.14 467.143 431.833 467.148 432.693 467.148 432.7 467.148 432.706 467.148 432.713 467.143 433.566 466.453 434.256 465.6 434.261ZM465.6 432.301C465.373 432.301 465.188 432.486 465.188 432.713 465.223 432.938 465.434 433.091 465.658 433.056 465.835 433.029 465.974 432.89 466.002 432.713 466.002 432.489 465.823 432.307 465.6 432.301Z" fill="#FF5252"/><path d="M450.116 457.713C449.255 457.718 448.553 457.025 448.548 456.164 448.543 455.304 449.236 454.602 450.096 454.596 450.957 454.591 451.659 455.284 451.664 456.145 451.664 456.151 451.664 456.158 451.664 456.164 451.659 457.017 450.969 457.707 450.116 457.713ZM450.116 455.753C449.889 455.753 449.704 455.937 449.704 456.164 449.704 456.386 449.884 456.566 450.106 456.566 450.109 456.566 450.113 456.566 450.116 456.566 450.338 456.566 450.518 456.386 450.518 456.164 450.523 455.943 450.348 455.758 450.126 455.753 450.123 455.753 450.119 455.753 450.116 455.753Z" fill="#FF5252"/><path d="M457.544 449.706C456.684 449.706 455.986 449.009 455.986 448.148 455.986 447.287 456.684 446.59 457.544 446.59 458.405 446.59 459.103 447.287 459.103 448.148 459.103 449.009 458.405 449.706 457.544 449.706ZM457.544 447.746C457.32 447.781 457.166 447.992 457.201 448.216 457.229 448.393 457.367 448.532 457.544 448.56 457.769 448.595 457.979 448.441 458.014 448.216 458.049 447.992 457.896 447.781 457.671 447.746 457.629 447.74 457.586 447.74 457.544 447.746Z" fill="#FF5252"/><path d="M450.116 465.2C449.255 465.205 448.553 464.512 448.548 463.652 448.543 462.791 449.236 462.089 450.096 462.084 450.957 462.078 451.659 462.771 451.664 463.632 451.664 463.635 451.664 463.639 451.664 463.642 451.664 464.499 450.973 465.195 450.116 465.2ZM450.116 463.24C449.894 463.235 449.71 463.41 449.705 463.632 449.704 463.635 449.704 463.638 449.704 463.642 449.704 463.869 449.889 464.053 450.116 464.053 450.338 464.053 450.518 463.874 450.518 463.652 450.518 463.648 450.518 463.645 450.518 463.642 450.518 463.42 450.338 463.24 450.116 463.24Z" fill="#FF5252"/><path d="M450.116 434.261C449.255 434.267 448.553 433.574 448.548 432.713 448.543 431.852 449.236 431.15 450.096 431.145 450.957 431.14 451.659 431.833 451.664 432.693 451.664 432.7 451.664 432.706 451.664 432.713 451.659 433.566 450.969 434.256 450.116 434.261ZM450.116 432.301C449.889 432.301 449.704 432.486 449.704 432.713 449.704 432.935 449.884 433.115 450.106 433.115 450.109 433.115 450.113 433.115 450.116 433.115 450.338 433.115 450.518 432.935 450.518 432.713 450.523 432.491 450.348 432.307 450.126 432.302 450.123 432.301 450.119 432.301 450.116 432.301Z" fill="#FF5252"/><path d="M473.567 435.408C472.079 435.408 470.872 434.201 470.872 432.713 470.872 431.225 472.079 430.018 473.567 430.018 475.056 430.018 476.262 431.225 476.262 432.713 476.257 434.199 475.054 435.403 473.567 435.408ZM473.567 431.978C473.161 431.978 472.832 432.307 472.832 432.713 472.832 433.119 473.161 433.448 473.567 433.448 473.973 433.448 474.302 433.119 474.302 432.713 474.302 432.307 473.973 431.978 473.567 431.978Z" fill="#FF5252"/><path d="M457.544 442.846C456.051 442.846 454.84 441.635 454.84 440.141 454.84 438.648 456.051 437.437 457.544 437.437 459.038 437.437 460.249 438.648 460.249 440.141 460.249 441.635 459.038 442.846 457.544 442.846ZM457.544 439.406C457.133 439.406 456.8 439.74 456.8 440.151 456.8 440.563 457.133 440.896 457.545 440.896 457.956 440.896 458.289 440.562 458.289 440.151 458.289 440.148 458.289 440.145 458.289 440.141 458.284 439.734 457.952 439.406 457.544 439.406Z" fill="#FF5252"/><path d="M457.544 458.859C456.056 458.854 454.854 457.643 454.859 456.155 454.865 454.666 456.076 453.464 457.564 453.469 459.049 453.475 460.249 454.68 460.249 456.164 460.244 457.654 459.034 458.859 457.544 458.859ZM457.544 455.429C457.138 455.429 456.809 455.758 456.809 456.164 456.809 456.57 457.138 456.899 457.544 456.899 457.95 456.899 458.279 456.57 458.279 456.164 458.279 455.758 457.95 455.429 457.544 455.429Z" fill="#FF5252"/><path d="M476.713 469.953 464.11 469.953C463.569 469.953 463.13 469.514 463.13 468.973L463.13 438.74C463.13 438.199 463.569 437.76 464.11 437.76L484.279 437.76C484.82 437.76 485.259 438.199 485.259 438.74L485.259 452.911 483.299 452.911 483.299 439.72 465.09 439.72 465.09 467.993 476.713 467.993Z" fill="#FF5252"/><path d="M484.592 471.844C479.721 471.844 475.772 467.896 475.772 463.024 475.772 458.153 479.721 454.204 484.592 454.204 489.464 454.204 493.412 458.153 493.412 463.024 493.412 467.896 489.464 471.844 484.592 471.844ZM484.592 456.096C480.804 456.096 477.732 459.167 477.732 462.956 477.732 466.744 480.804 469.816 484.592 469.816 488.381 469.816 491.452 466.744 491.452 462.956 491.452 459.167 488.381 456.096 484.592 456.096Z" fill="#FF5252"/><path d="M483.612 458.262 485.572 458.262 485.572 468.238 483.612 468.238Z" fill="#FF5252"/><path d="M482.662 461.692 481.28 460.3 483.906 457.674C484.288 457.289 484.908 457.287 485.292 457.668 485.294 457.67 485.296 457.672 485.298 457.674L487.905 460.3 486.523 461.682 484.563 459.722Z" fill="#FF5252"/><path d="M470.147 456.38C469.287 456.38 468.589 455.682 468.589 454.822 468.589 453.961 469.287 453.264 470.147 453.264 471.008 453.264 471.705 453.961 471.705 454.822 471.705 455.682 471.008 456.38 470.147 456.38ZM470.147 454.42C469.923 454.455 469.769 454.665 469.804 454.89 469.831 455.067 469.97 455.206 470.147 455.233 470.372 455.268 470.582 455.115 470.617 454.89 470.652 454.665 470.498 454.455 470.274 454.42 470.232 454.413 470.189 454.413 470.147 454.42Z" fill="#FF5252"/><path d="M469.52 466.239C467.712 466.239 466.247 464.773 466.247 462.966 466.247 461.158 467.712 459.692 469.52 459.692 471.328 459.692 472.793 461.158 472.793 462.966 472.793 464.773 471.328 466.239 469.52 466.239ZM469.52 461.662C468.797 461.725 468.262 462.361 468.325 463.084 468.38 463.72 468.884 464.224 469.52 464.279 470.243 464.341 470.879 463.806 470.942 463.084 471.004 462.361 470.469 461.725 469.747 461.662 469.671 461.656 469.595 461.656 469.52 461.662Z" fill="#FF5252"/></g></svg>