<svg width="49" height="49" xmlns="http://www.w3.org/2000/svg" xmlns:xlink="http://www.w3.org/1999/xlink" xml:space="preserve" overflow="hidden"><g transform="translate(-602 -425)"><path d="M615.72 433.644C613.555 433.644 611.8 431.889 611.8 429.724 611.8 427.559 613.555 425.804 615.72 425.804 617.885 425.804 619.64 427.559 619.64 429.724 619.64 431.889 617.885 433.644 615.72 433.644ZM615.72 427.764C614.638 427.764 613.76 428.641 613.76 429.724 613.76 430.806 614.638 431.684 615.72 431.684 616.802 431.684 617.68 430.806 617.68 429.724 617.675 428.645 616.799 427.773 615.72 427.773Z" fill="#FF5252"/><path d="M606.9 442.532C604.735 442.532 602.98 440.777 602.98 438.612 602.98 436.447 604.735 434.692 606.9 434.692 609.065 434.692 610.82 436.447 610.82 438.612 610.82 440.777 609.065 442.532 606.9 442.532ZM606.9 436.652C605.818 436.652 604.94 437.53 604.94 438.612 604.94 439.695 605.818 440.572 606.9 440.572 607.982 440.572 608.86 439.695 608.86 438.612 608.855 437.534 607.979 436.662 606.9 436.662Z" fill="#FF5252"/><path d="M616.083 441.141C615.135 441.141 614.368 440.373 614.368 439.426 614.368 438.478 615.135 437.711 616.083 437.711 617.03 437.711 617.798 438.478 617.798 439.426 617.798 440.373 617.03 441.141 616.083 441.141ZM616.083 439.181C615.947 439.181 615.838 439.29 615.838 439.426 615.838 439.7 616.337 439.7 616.337 439.426 616.332 439.289 616.22 439.181 616.083 439.181Z" fill="#FF5252"/><path d="M625.373 431.448C624.426 431.448 623.658 430.681 623.658 429.733 623.658 428.786 624.426 428.018 625.373 428.018 626.32 428.018 627.088 428.786 627.088 429.733 627.088 430.681 626.32 431.448 625.373 431.448ZM625.373 429.488C625.238 429.488 625.128 429.598 625.128 429.733 625.128 430.008 625.618 430.008 625.618 429.733 625.618 429.598 625.508 429.488 625.373 429.488Z" fill="#FF5252"/><path d="M606.9 460.868C605.953 460.873 605.181 460.11 605.175 459.163 605.17 458.216 605.933 457.443 606.88 457.438 607.828 457.433 608.6 458.196 608.605 459.143 608.605 459.15 608.605 459.156 608.605 459.163 608.605 460.105 607.842 460.868 606.9 460.868ZM606.9 458.908C606.759 458.908 606.645 459.022 606.645 459.163 606.645 459.427 607.145 459.427 607.145 459.163 607.145 459.026 607.037 458.913 606.9 458.908Z" fill="#FF5252"/><path d="M606.9 431.448C605.953 431.47 605.168 430.72 605.146 429.773 605.125 428.826 605.875 428.041 606.822 428.019 607.768 427.998 608.554 428.748 608.575 429.695 608.576 429.708 608.576 429.72 608.576 429.733 608.576 430.665 607.832 431.427 606.9 431.448ZM606.9 429.488C606.763 429.488 606.65 429.597 606.645 429.733 606.645 430.008 607.145 430.008 607.145 429.733 607.145 429.598 607.035 429.488 606.9 429.488Z" fill="#FF5252"/><path d="M634.987 432.909C633.228 432.909 631.802 431.483 631.802 429.724 631.802 427.965 633.228 426.539 634.987 426.539 636.746 426.539 638.172 427.965 638.172 429.724 638.172 429.727 638.172 429.73 638.172 429.733 638.172 431.487 636.75 432.909 634.997 432.909 634.993 432.909 634.99 432.909 634.987 432.909ZM634.987 428.508C634.31 428.508 633.762 429.057 633.762 429.733 633.762 430.41 634.31 430.958 634.987 430.958 635.663 430.958 636.212 430.41 636.212 429.733 636.217 429.062 635.678 428.514 635.006 428.508 635 428.508 634.993 428.508 634.987 428.508Z" fill="#FF5252"/><path d="M606.694 452.234C604.935 452.256 603.492 450.848 603.47 449.089 603.449 447.33 604.857 445.886 606.616 445.865 608.375 445.843 609.818 447.251 609.84 449.01 609.84 449.023 609.84 449.036 609.84 449.049 609.835 450.791 608.436 452.207 606.694 452.234ZM606.694 447.834C606.018 447.812 605.452 448.343 605.431 449.019 605.409 449.695 605.94 450.261 606.616 450.283 607.292 450.304 607.858 449.774 607.879 449.098 607.88 449.081 607.88 449.065 607.88 449.049 607.875 448.391 607.352 447.855 606.694 447.834Z" fill="#FF5252"/><path d="M641.2 448.814C638.533 443.196 631.817 440.803 626.199 443.47 623.855 444.583 621.968 446.47 620.855 448.814L619.081 447.971C622.221 441.374 630.115 438.57 636.713 441.71 639.457 443.016 641.668 445.227 642.974 447.971Z" fill="#FF5252"/><path d="M630.979 466.856C625.876 466.84 621.234 463.903 619.032 459.3L620.806 458.457C623.473 464.075 630.189 466.468 635.807 463.801 638.151 462.689 640.039 460.801 641.151 458.457L642.925 459.3C640.725 463.905 636.082 466.842 630.979 466.856Z" fill="#FF5252"/><path d="M640.867 467.836 639.74 466.229C646.71 461.349 648.405 451.743 643.526 444.773 640.99 441.151 637.019 438.792 632.625 438.299L632.831 436.339C642.363 437.399 649.23 445.986 648.17 455.518 647.618 460.479 644.957 464.964 640.867 467.826Z" fill="#FF5252"/><path d="M629.126 470.933C619.594 469.872 612.727 461.285 613.787 451.754 614.339 446.792 617 442.307 621.09 439.445L622.217 441.052C615.247 445.932 613.552 455.538 618.431 462.508 620.967 466.13 624.938 468.489 629.332 468.982Z" fill="#FF5252"/><path d="M630.979 440.053C629.469 440.058 628.24 438.838 628.235 437.328 628.229 435.818 629.449 434.59 630.959 434.584 632.469 434.579 633.698 435.799 633.703 437.309 633.703 437.312 633.703 437.315 633.703 437.319 633.703 438.825 632.485 440.047 630.979 440.053ZM630.979 436.554C630.551 436.549 630.2 436.891 630.195 437.319 630.189 437.746 630.532 438.097 630.959 438.102 631.387 438.108 631.738 437.766 631.743 437.338 631.743 437.332 631.743 437.325 631.743 437.319 631.743 436.896 631.401 436.554 630.979 436.554Z" fill="#FF5252"/><path d="M630.979 472.687C629.469 472.692 628.24 471.472 628.235 469.962 628.229 468.452 629.449 467.224 630.959 467.218 632.469 467.213 633.698 468.433 633.703 469.943 633.703 469.949 633.703 469.956 633.703 469.962 633.698 471.465 632.481 472.681 630.979 472.687ZM630.979 469.188C630.555 469.194 630.214 469.539 630.214 469.962 630.214 470.385 630.556 470.727 630.979 470.727 631.401 470.727 631.743 470.385 631.743 469.962 631.743 469.539 631.402 469.194 630.979 469.188Z" fill="#FF5252"/><path d="M620.483 452.665 641.465 452.665 641.465 454.625 620.483 454.625Z" fill="#FF5252"/><path d="M630.979 448.206C627.714 448.306 624.489 447.466 621.688 445.786L622.786 444.169C625.268 445.616 628.107 446.336 630.979 446.246 633.85 446.336 636.69 445.616 639.171 444.169L640.269 445.786C637.468 447.466 634.243 448.306 630.979 448.206Z" fill="#FF5252"/><path d="M639.171 463.112C636.69 461.664 633.85 460.945 630.979 461.035 628.107 460.945 625.268 461.665 622.786 463.112L621.688 461.495C624.489 459.815 627.714 458.975 630.979 459.075 634.243 458.975 637.468 459.815 640.269 461.495Z" fill="#FF5252"/><path d="M618.738 456.36C617.228 456.365 616 455.146 615.994 453.636 615.989 452.126 617.209 450.897 618.719 450.892 620.229 450.886 621.457 452.106 621.463 453.616 621.463 453.623 621.463 453.629 621.463 453.636 621.457 455.138 620.241 456.355 618.738 456.36ZM618.738 452.861C618.311 452.856 617.96 453.198 617.954 453.626 617.949 454.053 618.291 454.404 618.719 454.41 619.146 454.415 619.497 454.073 619.503 453.645 619.503 453.642 619.503 453.639 619.503 453.636 619.503 453.213 619.161 452.871 618.738 452.871Z" fill="#FF5252"/><path d="M643.219 456.36C641.709 456.365 640.48 455.146 640.475 453.636 640.469 452.126 641.689 450.897 643.199 450.892 644.709 450.886 645.938 452.106 645.943 453.616 645.943 453.623 645.943 453.629 645.943 453.636 645.943 455.14 644.723 456.36 643.219 456.36ZM643.219 452.861C642.791 452.856 642.44 453.198 642.435 453.626 642.429 454.053 642.772 454.404 643.199 454.41 643.627 454.415 643.978 454.073 643.983 453.645 643.983 453.642 643.983 453.639 643.983 453.636 643.983 453.213 643.641 452.871 643.219 452.871Z" fill="#FF5252"/><path d="M630.979 466.856C627.656 466.856 625.922 460.211 625.922 453.645 625.922 447.079 627.656 440.425 630.979 440.425 634.301 440.425 636.035 447.07 636.035 453.645 636.035 460.221 634.34 466.856 630.979 466.856ZM630.979 442.356C629.93 442.356 627.882 446.325 627.882 453.616 627.882 460.907 629.93 464.866 630.979 464.866 632.027 464.866 634.075 460.897 634.075 453.616 634.075 446.335 632.027 442.385 630.979 442.385Z" fill="#FF5252"/></g></svg>