<svg width="50" height="49" xmlns="http://www.w3.org/2000/svg" xmlns:xlink="http://www.w3.org/1999/xlink" xml:space="preserve" overflow="hidden"><g transform="translate(-736 -421)"><path d="M14.4648 42.1498 48.1376 42.1498 48.1376 44.1098 14.4648 44.1098Z" fill="#FF5252" transform="matrix(1.02041 0 0 1 736 421)"/><path d="M11.9658 44.1 1.96 44.1 1.96 42.14 10.9858 42.14 10.9858 6.4386 12.9458 6.4386 12.9458 43.12C12.9458 43.6612 12.507 44.1 11.9658 44.1Z" fill="#FF5252" transform="matrix(1.02041 0 0 1 736 421)"/><path d="M1.96 19.2472 11.9658 19.2472 11.9658 21.2072 1.96 21.2072Z" fill="#FF5252" transform="matrix(1.02041 0 0 1 736 421)"/><path d="M1.96 12.1324 11.9658 12.1324 11.9658 14.0924 1.96 14.0924Z" fill="#FF5252" transform="matrix(1.02041 0 0 1 736 421)"/><path d="M1.96 26.4306 11.9658 26.4306 11.9658 28.3906 1.96 28.3906Z" fill="#FF5252" transform="matrix(1.02041 0 0 1 736 421)"/><path d="M1.96 34.3196 11.9658 34.3196 11.9658 36.2796 1.96 36.2796Z" fill="#FF5252" transform="matrix(1.02041 0 0 1 736 421)"/><path d="M2.94 40.6308 0.98 40.6308 0.98 6.4386C0.98 5.89736 1.41876 5.4586 1.96 5.4586L48.1376 5.4586 48.1376 7.4186 2.94 7.4186Z" fill="#FF5252" transform="matrix(1.02041 0 0 1 736 421)"/><path d="M14.4648 8.8004 48.1376 8.8004 48.1376 10.7604 14.4648 10.7604Z" fill="#FF5252" transform="matrix(1.02041 0 0 1 736 421)"/><path d="M4.459 8.8004 6.125 8.8004 6.125 10.7604 4.459 10.7604Z" fill="#FF5252" transform="matrix(1.02041 0 0 1 736 421)"/><path d="M44.9918 24.8332C44.1854 24.8386 43.5272 24.1893 43.5218 23.3828 43.5164 22.5764 44.1658 21.9183 44.9722 21.9129 45.7786 21.9075 46.4368 22.5568 46.4422 23.3632 46.4422 23.3665 46.4422 23.3697 46.4422 23.373 46.4422 24.1756 45.7944 24.8278 44.9918 24.8332ZM44.9918 22.8732C44.7104 22.8678 44.4779 23.0916 44.4726 23.373 44.4672 23.6544 44.691 23.8869 44.9724 23.8922 45.2538 23.8976 45.4862 23.6738 45.4916 23.3924 45.4917 23.3859 45.4917 23.3795 45.4916 23.373 45.4916 23.097 45.2678 22.8732 44.9918 22.8732Z" fill="#FF5252" transform="matrix(1.02041 0 0 1 736 421)"/><path d="M44.9918 18.4142C43.6658 18.4196 42.5864 17.349 42.581 16.023 42.5756 14.697 43.6462 13.6176 44.9722 13.6122 46.2983 13.6068 47.3776 14.6774 47.383 16.0034 47.383 16.01 47.383 16.0165 47.383 16.023 47.3776 17.3414 46.3102 18.4088 44.9918 18.4142ZM44.9918 15.582C44.7483 15.5766 44.5465 15.7696 44.5411 16.0131 44.5357 16.2566 44.7287 16.4584 44.9722 16.4638 45.2157 16.4692 45.4175 16.2762 45.4229 16.0327 45.423 16.0295 45.423 16.0262 45.423 16.023 45.4231 15.7832 45.2315 15.5873 44.9918 15.582Z" fill="#FF5252" transform="matrix(1.02041 0 0 1 736 421)"/><path d="M44.5116 34.3C42.9258 34.3 41.6402 33.0144 41.6402 31.4286 41.6402 29.8428 42.9258 28.5572 44.5116 28.5572 46.0974 28.5572 47.383 29.8428 47.383 31.4286 47.383 33.0144 46.0974 34.3 44.5116 34.3ZM44.5116 30.5172C44.0082 30.5172 43.6002 30.9252 43.6002 31.4286 43.6002 31.932 44.0082 32.34 44.5116 32.34 45.015 32.34 45.423 31.932 45.423 31.4286 45.4071 30.9368 45.0037 30.5463 44.5116 30.5466Z" fill="#FF5252" transform="matrix(1.02041 0 0 1 736 421)"/><path d="M34.1922 35.28 19.747 35.28C16.8949 35.2435 14.6124 32.9018 14.649 30.0497 14.6805 27.5881 16.4451 25.4909 18.865 25.039 19.3077 23.007 21.1071 21.5585 23.1868 21.56L23.1868 23.52C21.8267 23.5254 20.727 24.6295 20.727 25.9896 20.727 26.5308 20.2882 26.9696 19.747 26.9696 18.0371 27.0119 16.6701 28.405 16.66 30.1154 16.6689 31.8363 18.0277 33.2468 19.747 33.32L34.1922 33.32C36.3572 33.32 38.1122 31.565 38.1122 29.4 38.1122 27.235 36.3572 25.48 34.1922 25.48 33.651 25.48 33.2122 25.0412 33.2122 24.5 33.1856 22.4089 31.4912 20.7232 29.4 20.7074L29.4 18.7474C32.2493 18.7561 34.6706 20.8327 35.1134 23.6474 38.2938 24.3037 40.34 27.414 39.6838 30.5944 39.1402 33.2284 36.8789 35.1578 34.1922 35.28Z" fill="#FF5252" transform="matrix(1.02041 0 0 1 736 421)"/><path d="M27.097 26.5286C25.6844 26.534 24.5348 25.3932 24.5294 23.9806 24.524 22.568 25.6648 21.4184 27.0774 21.413 28.4901 21.4076 29.6396 22.5484 29.645 23.961 29.645 23.9676 29.645 23.9741 29.645 23.9806 29.6396 25.3856 28.502 26.5232 27.097 26.5286ZM27.097 23.3828C26.7669 23.3774 26.4949 23.6406 26.4895 23.9707 26.4841 24.3008 26.7473 24.5728 27.0774 24.5782 27.4075 24.5837 27.6795 24.3204 27.6849 23.9903 27.685 23.9871 27.685 23.9838 27.685 23.9806 27.685 23.6542 27.4233 23.3882 27.097 23.3828Z" fill="#FF5252" transform="matrix(1.02041 0 0 1 736 421)"/><path d="M33.124 31.6638C32.3663 31.6638 31.752 31.0495 31.752 30.2918 31.752 29.5341 32.3663 28.9198 33.124 28.9198 33.8817 28.9198 34.496 29.5341 34.496 30.2918 34.496 31.0495 33.8817 31.6638 33.124 31.6638ZM33.124 29.7038C32.7993 29.7038 32.536 29.9671 32.536 30.2918 32.536 30.6165 32.7993 30.8798 33.124 30.8798 33.4487 30.8798 33.712 30.6165 33.712 30.2918 33.712 29.9671 33.4487 29.7038 33.124 29.7038Z" fill="#FF5252" transform="matrix(1.02041 0 0 1 736 421)"/><path d="M27.097 20.0018C26.3339 20.0072 25.7108 19.393 25.7054 18.6298 25.7 17.8667 26.3143 17.2437 27.0774 17.2383 27.8405 17.2329 28.4636 17.8471 28.469 18.6102 28.469 18.6135 28.469 18.6167 28.469 18.62 28.469 19.3793 27.8563 19.9964 27.097 20.0018ZM27.097 18.0418C26.7777 18.0364 26.5145 18.2908 26.5091 18.6101 26.509 18.6134 26.509 18.6167 26.509 18.62 26.509 18.9447 26.7723 19.208 27.097 19.208 27.4217 19.208 27.685 18.9447 27.685 18.62 27.685 18.3007 27.4262 18.0418 27.1069 18.0417 27.1036 18.0417 27.1003 18.0417 27.097 18.0418Z" fill="#FF5252" transform="matrix(1.02041 0 0 1 736 421)"/><path d="M27.097 32.438C25.9009 32.4434 24.9268 31.4781 24.9214 30.282 24.916 29.0859 25.8813 28.1118 27.0774 28.1064 28.2736 28.101 29.2476 29.0663 29.253 30.2624 29.253 30.269 29.253 30.2755 29.253 30.282 29.2476 31.4705 28.2855 32.4326 27.097 32.438ZM27.097 30.0762C26.9833 30.0762 26.8912 30.1683 26.8912 30.282 26.8912 30.4976 27.293 30.4976 27.293 30.282 27.2984 30.1739 27.2152 30.0819 27.107 30.0764 27.1037 30.0763 27.1004 30.0762 27.097 30.0762Z" fill="#FF5252" transform="matrix(1.02041 0 0 1 736 421)"/><path d="M39.9546 23.7748C38.3688 23.7748 37.0832 22.4892 37.0832 20.9034 37.0832 19.3176 38.3688 18.032 39.9546 18.032 41.5404 18.032 42.826 19.3176 42.826 20.9034 42.826 22.4892 41.5404 23.7748 39.9546 23.7748ZM39.9546 20.0018C39.4512 20.0018 39.0432 20.4099 39.0433 20.9133 39.0433 21.4166 39.4514 21.8246 39.9547 21.8246 40.4581 21.8246 40.8661 21.4165 40.8661 20.9131 40.8661 20.9099 40.866 20.9066 40.866 20.9034 40.8606 20.4039 40.4542 20.0018 39.9546 20.0018Z" fill="#FF5252" transform="matrix(1.02041 0 0 1 736 421)"/></g></svg>