<?xml version="1.0" encoding="UTF-8"?><svg id="Open-AudIT" xmlns="http://www.w3.org/2000/svg" xmlns:xlink="http://www.w3.org/1999/xlink" viewBox="0 0 566.93 566.93"><defs><style>.cls-1{fill:url(#linear-gradient);}.cls-2{fill:url(#linear-gradient-2);}</style><linearGradient id="linear-gradient" x1="140.01" y1="242.92" x2="380.02" y2="242.92" gradientUnits="userSpaceOnUse"><stop offset="0" stop-color="#fff"/><stop offset=".45" stop-color="#fff"/><stop offset="1" stop-color="#fff"/></linearGradient><linearGradient id="linear-gradient-2" x1="10.55" y1="283.53" x2="554.57" y2="283.53" xlink:href="#linear-gradient"/></defs><path class="cls-1" d="M260.01,122.92c-66.12,0-120,53.89-120,120s53.89,120,120,120,120-53.89,120-120-53.89-120-120-120Zm-50.45,184.59c0,1.15-1.14,2.29-2.67,2.29h-27.13c-1.53,0-2.68-.76-2.68-2.29v-46.62c0-1.15,1.15-2.29,2.68-2.29h27.13c1.53,0,2.67,1.15,2.67,2.68v46.24Zm43.57-.76c0,1.53-1.15,3.06-2.68,3.06h-27.13c-1.53,0-2.68-1.15-2.68-3.06v-89.05c0-1.53,1.15-3.06,2.68-3.06h27.13c1.53,0,2.68,1.53,2.68,3.44v88.66Zm45.1,0c0,1.53-1.15,3.06-2.67,3.06h-27.13c-1.53,0-2.68-1.15-2.68-3.06v-60.77c0-1.53,1.15-3.06,2.68-3.06h27.13c1.14,0,2.67,1.53,2.67,3.06v60.77Zm44.71,0c0,1.53-1.15,3.06-2.67,3.06h-27.13c-1.53,0-2.68-1.15-2.68-3.06v-121.53c0-1.53,1.15-3.06,2.68-3.06h27.13c1.53,0,2.67,1.53,2.67,3.44v121.15Z"/><path class="cls-2" d="M282.56,11.52C132.51,11.52,10.55,133.48,10.55,283.53s121.96,272.01,272.01,272.01,272.01-121.27,272.01-272.01S433.3,11.52,282.56,11.52Zm175.42,439.31c-4.59,4.59-10.32,6.88-16.82,6.88s-12.23-2.29-16.81-6.88l-75.29-75.29-7.26,4.59c-24.84,14.91-53.12,22.93-81.78,22.93-88.29,0-159.75-71.85-159.75-159.75S172.11,83.55,260.01,83.55s159.75,71.47,159.75,159.37c0,32.1-9.56,63.06-27.52,89.43l-7.26,11.08,73,73.76c4.2,4.59,6.88,10.32,6.88,16.82s-2.29,12.23-6.88,16.82Z"/></svg>