<?xml version="1.0" encoding="UTF-8" standalone="no"?>
<!-- Generator: Adobe Illustrator 22.1.0, SVG Export Plug-In . SVG Version: 6.00 Build 0)  -->

<svg
   version="1.1"
   id="Open-AudIT"
   x="0px"
   y="0px"
   viewBox="0 0 47.75254 47.75254"
   xml:space="preserve"
   sodipodi:docname="Open-AudIT.svg"
   width="25"
   height="25"
   inkscape:version="1.3 (0e150ed, 2023-07-21)"
   inkscape:export-filename="/usr/local/opmojo/public/omk/icons/oae_sml.png"
   inkscape:export-xdpi="201.03642"
   inkscape:export-ydpi="201.03642"
   xmlns:inkscape="http://www.inkscape.org/namespaces/inkscape"
   xmlns:sodipodi="http://sodipodi.sourceforge.net/DTD/sodipodi-0.dtd"
   xmlns="http://www.w3.org/2000/svg"
   xmlns:svg="http://www.w3.org/2000/svg"
   xmlns:rdf="http://www.w3.org/1999/02/22-rdf-syntax-ns#"
   xmlns:cc="http://creativecommons.org/ns#"
   xmlns:dc="http://purl.org/dc/elements/1.1/"><metadata
   id="metadata29"><rdf:RDF><cc:Work
       rdf:about=""><dc:format>image/svg+xml</dc:format><dc:type
         rdf:resource="http://purl.org/dc/dcmitype/StillImage" /><dc:title>All Product icons-Gradient-Open-AudIT</dc:title></cc:Work></rdf:RDF></metadata><defs
   id="defs27" /><sodipodi:namedview
   pagecolor="#ffffff"
   bordercolor="#666666"
   borderopacity="1"
   objecttolerance="10"
   gridtolerance="10"
   guidetolerance="10"
   inkscape:pageopacity="0"
   inkscape:pageshadow="2"
   inkscape:window-width="1360"
   inkscape:window-height="847"
   id="namedview25"
   showgrid="false"
   fit-margin-top="0"
   fit-margin-left="0"
   fit-margin-right="0"
   fit-margin-bottom="0"
   inkscape:zoom="9.44"
   inkscape:cx="16.896186"
   inkscape:cy="20.127119"
   inkscape:window-x="1730"
   inkscape:window-y="371"
   inkscape:window-maximized="0"
   inkscape:current-layer="Open-AudIT"
   inkscape:showpageshadow="2"
   inkscape:pagecheckerboard="0"
   inkscape:deskcolor="#d1d1d1" />&#10;<style
   type="text/css"
   id="style2">&#10;	.st0{fill:url(#SVGID_1_);}&#10;	.st1{fill:url(#SVGID_2_);}&#10;</style>&#10;<title
   id="title4">All Product icons-Gradient-Open-AudIT</title>&#10;<linearGradient
   id="SVGID_1_"
   gradientUnits="userSpaceOnUse"
   x1="6.3383002"
   y1="15.3248"
   x2="16.7115"
   y2="15.3248"
   gradientTransform="matrix(2.0234128,0,0,-2.0234128,-1.416389,51.333982)">&#10;	<stop
   offset="0"
   style="stop-color:#AED695"
   id="stop6" />&#10;	<stop
   offset="0.45"
   style="stop-color:#55C0AA"
   id="stop8" />&#10;	<stop
   offset="1"
   style="stop-color:#16B5BA"
   id="stop10" />&#10;</linearGradient>&#10;<path
   class="st0"
   d="m 21.852858,9.9147224 c -5.867897,0 -10.521746,4.6538496 -10.521746,10.5217466 0,5.867897 4.653849,10.521747 10.521746,10.521747 5.867898,0 10.521747,-4.65385 10.521747,-10.521747 0,-5.867897 -4.653849,-10.5217466 -10.521747,-10.5217466 z M 17.40135,25.899684 c 0,0.202341 -0.202341,0.202341 -0.202341,0.202341 h -2.225754 c -0.202341,0 -0.202341,0 -0.202341,-0.202341 v -4.046826 c 0,-0.202341 0.202341,-0.202341 0.202341,-0.202341 h 2.428095 c 0.202341,0 0.202341,0 0.202341,0.202341 0,0 0,0 0,0 v 4.046826 z m 3.844485,0 c 0,0.202341 0,0.202341 -0.202342,0.202341 h -2.428095 c -0.202341,0 -0.202341,0 -0.202341,-0.202341 v -7.688969 c 0,-0.202341 0,-0.202341 0.202341,-0.202341 h 2.428095 c 0.202342,0 0.202342,0.202341 0.202342,0.202341 z m 4.046825,0 c 0,0.202341 0,0.202341 -0.202341,0.202341 h -2.428096 c -0.202341,0 -0.202341,0 -0.202341,-0.202341 V 20.63881 c 0,-0.202341 0,-0.202341 0.202341,-0.202341 h 2.428096 c 0.202341,0 0.202341,0.202341 0.202341,0.202341 z m 3.844484,0 c 0,0.202341 0,0.202341 -0.202341,0.202341 h -2.428095 c -0.202341,0 -0.202341,0 -0.202341,-0.202341 V 15.377937 c 0,-0.202341 0,-0.202341 0.202341,-0.202341 h 2.428095 c 0.202341,0 0.202341,0.202341 0.202341,0.202341 z"
   id="path13"
   inkscape:connector-curvature="0"
   style="fill:url(#SVGID_1_);stroke-width:2.02341" />&#10;<linearGradient
   id="SVGID_2_"
   gradientUnits="userSpaceOnUse"
   x1="0.74379998"
   y1="13.57"
   x2="24.256201"
   y2="13.57"
   gradientTransform="matrix(2.0234128,0,0,-2.0234128,-1.416389,51.333982)">&#10;	<stop
   offset="0"
   style="stop-color:#AED695"
   id="stop15" />&#10;	<stop
   offset="0.45"
   style="stop-color:#55C0AA"
   id="stop17" />&#10;	<stop
   offset="1"
   style="stop-color:#16B5BA"
   id="stop19" />&#10;</linearGradient>&#10;<path
   class="st1"
   d="M 23.876271,0 C 10.724088,0 0,10.724088 0,23.876271 c 0,13.152183 10.724088,23.876271 23.876271,23.876271 13.152183,0 23.67393,-10.521747 23.876271,-23.67393 0,0 0,0 0,-0.202341 C 47.752542,10.724088 37.028454,0 23.876271,0 Z m 15.377938,38.444843 c -0.809366,0.809365 -2.225755,0.809365 -3.03512,0 l -6.677262,-6.677262 -0.607024,0.404682 c -2.225754,1.214048 -4.653849,2.023413 -7.081945,2.023413 -7.688968,0 -13.961548,-6.27258 -13.961548,-13.961548 0,-7.688969 6.27258,-13.9615483 13.961548,-13.9615483 7.688969,0 13.961549,6.2725793 13.961549,13.9615483 0,2.832778 -0.809365,5.463214 -2.428096,7.89131 l -0.607023,1.011706 6.474921,6.474921 c 0.404682,0.404683 0.607023,1.011707 0.607023,1.416389 0,0.607024 -0.202341,1.011707 -0.607023,1.416389 z"
   id="path22"
   inkscape:connector-curvature="0"
   style="fill:url(#SVGID_2_);stroke-width:2.02341" />&#10;<path
   style="opacity:0.342;fill:#000000;fill-opacity:0.0851064;stroke:#28afaf;stroke-width:0.400374;stroke-miterlimit:4;stroke-dasharray:none;stroke-dashoffset:0;stroke-opacity:0.246809"
   d="M 37.194136,38.934176 C 36.600321,38.741962 36.28328,38.458781 32.963034,35.154961 l -3.442797,-3.425766 -0.57376,0.363577 c -0.856841,0.542955 -2.734599,1.301043 -4.125851,1.665687 -1.104542,0.289498 -1.403168,0.3241 -2.874541,0.333072 -1.82545,0.01113 -2.710663,-0.112648 -4.237288,-0.5925 C 15.214772,32.715105 12.962916,31.231016 11.312242,29.283372 9.0803896,26.64999 7.9645962,23.629583 7.96346,20.218353 7.96219,16.40313 9.4197866,12.976151 12.184009,10.295359 c 1.99937,-1.9390241 4.198911,-3.1129945 6.930119,-3.6988423 1.401287,-0.300578 4.019893,-0.3235954 5.321364,-0.046775 4.508963,0.9590501 7.984702,3.6524573 9.968982,7.7251283 0.913978,1.875912 1.312797,3.699966 1.312797,6.004264 0,2.891617 -0.606887,4.941387 -2.271599,7.672357 l -0.705592,1.157526 3.330884,3.344593 c 1.831986,1.839525 3.416543,3.511435 3.521235,3.715355 0.109684,0.213637 0.191527,0.604864 0.193124,0.923164 0.0049,0.978364 -0.818193,1.809245 -1.876425,1.894164 -0.24406,0.01958 -0.565703,-0.0039 -0.714762,-0.05212 z M 24.438079,30.679477 c 1.912502,-0.502081 3.542754,-1.420555 4.862562,-2.739536 1.381374,-1.380509 2.270502,-2.935019 2.776101,-4.853603 0.233831,-0.887317 0.280785,-1.300128 0.289172,-2.542372 0.01339,-1.983182 -0.275022,-3.273341 -1.101159,-4.925848 -1.321658,-2.643692 -3.763482,-4.603971 -6.760787,-5.427516 -0.669942,-0.184074 -1.121389,-0.2235636 -2.610849,-0.2283806 -1.550681,-0.005 -1.92593,0.02764 -2.701271,0.2350996 -1.139978,0.305022 -2.81643,1.11591 -3.707628,1.793352 -2.927104,2.225036 -4.497499,5.836255 -4.123378,9.481965 0.480564,4.682973 3.720823,8.296542 8.34224,9.30335 1.248347,0.271961 3.506779,0.225929 4.734997,-0.09651 z"
   id="path18"
   inkscape:connector-curvature="0" /><path
   style="opacity:0.342;fill:#000000;fill-opacity:0.0851064;stroke:#28afaf;stroke-width:0.400374;stroke-miterlimit:4;stroke-dasharray:none;stroke-dashoffset:0;stroke-opacity:0.246809"
   d="m 26.395237,20.649898 v -5.455509 h 1.324153 1.324153 v 5.455509 5.455508 H 27.71939 26.395237 Z"
   id="path20"
   inkscape:connector-curvature="0" /><path
   style="opacity:0.342;fill:#000000;fill-opacity:0.0851064;stroke:#28afaf;stroke-width:0.400374;stroke-miterlimit:4;stroke-dasharray:none;stroke-dashoffset:0;stroke-opacity:0.246809"
   d="m 22.546367,26.034785 c -0.03884,-0.03884 -0.07062,-1.302084 -0.07062,-2.807204 v -2.736582 h 1.377119 1.377118 v 2.807204 2.807203 h -1.306497 c -0.718573,0 -1.338277,-0.03178 -1.377119,-0.07062 z"
   id="path23"
   inkscape:connector-curvature="0" /><path
   style="opacity:0.342;fill:#000000;fill-opacity:0.0851064;stroke:#28afaf;stroke-width:0.400374;stroke-miterlimit:4;stroke-dasharray:none;stroke-dashoffset:0;stroke-opacity:0.246809"
   d="m 18.524038,26.037879 c -0.04054,-0.04054 -0.07372,-1.853377 -0.07372,-4.028518 v -3.954802 h 1.378393 1.378392 l -0.02776,3.99894 -0.02776,3.998941 -1.27692,0.02958 c -0.702306,0.01627 -1.310092,-0.0036 -1.350635,-0.04414 z"
   id="path25"
   inkscape:connector-curvature="0" /><path
   style="opacity:0.342;fill:#000000;fill-opacity:0.0851064;stroke:#28afaf;stroke-width:0.400374;stroke-miterlimit:4;stroke-dasharray:none;stroke-dashoffset:0;stroke-opacity:0.246809"
   d="m 14.872961,23.907313 0.02863,-2.198093 h 1.324153 1.324152 l 0.02882,2.052293 c 0.02612,1.860253 0.01125,2.065622 -0.158899,2.194725 -0.130766,0.09922 -0.549911,0.143452 -1.381601,0.145799 l -1.193886,0.0034 z"
   id="path27"
   inkscape:connector-curvature="0" /><path
   style="opacity:0.342;fill:#ffffff;fill-opacity:0.0851064;stroke:#ffffff;stroke-width:0.400374;stroke-miterlimit:4;stroke-dasharray:none;stroke-dashoffset:0;stroke-opacity:0.246809"
   d="m 37.066903,38.883315 c -0.219037,-0.08124 -0.478427,-0.212749 -0.576423,-0.292254 -0.098,-0.0795 -1.685454,-1.665545 -3.527686,-3.524536 L 29.613282,31.686542 28.8782,32.11894 c -2.340184,1.376566 -5.342034,2.14692 -7.779573,1.996443 -3.366148,-0.207802 -6.398846,-1.537018 -8.83233,-3.871167 C 10.236746,28.297513 9.0107294,26.167123 8.3031019,23.357565 8.0471866,22.34148 8.0213457,22.054288 8.0213457,20.226169 c 0,-1.837455 0.025009,-2.112091 0.2872085,-3.154019 1.352384,-5.374096 5.4368578,-9.3329958 10.8055738,-10.473366 1.527954,-0.324553 3.924096,-0.324553 5.452049,0 2.465581,0.5237146 4.641778,1.6035185 6.408522,3.1798354 1.961536,1.7501126 3.253749,3.6896476 4.054899,6.0861636 0.501451,1.500014 0.687673,2.698165 0.687673,4.424472 0,2.873894 -0.659267,5.035169 -2.395817,7.854214 -0.313657,0.509177 -0.570284,0.961087 -0.570284,1.004247 0,0.04316 1.545392,1.628679 3.434204,3.523377 3.019063,3.028472 3.448832,3.500402 3.555199,3.903983 0.147092,0.558099 0.06555,1.006779 -0.274133,1.508464 -0.496098,0.73269 -1.59386,1.098579 -2.399537,0.799775 z M 23.815954,30.819639 c 5.697878,-1.090185 9.391537,-6.361962 8.461385,-12.07652 -0.68627,-4.216223 -3.611644,-7.433578 -7.770298,-8.545852 -1.235934,-0.3305626 -3.474959,-0.3826286 -4.786946,-0.111315 -2.596847,0.537019 -4.85589,1.990615 -6.463245,4.158817 -2.531567,3.414896 -2.617261,8.506715 -0.203395,12.085414 0.58839,0.872322 1.782249,2.111991 2.589664,2.689032 1.252837,0.895373 2.924363,1.593839 4.399184,1.838249 0.931637,0.154392 2.870601,0.134956 3.773651,-0.03782 z"
   id="path24"
   inkscape:connector-curvature="0" /><path
   style="opacity:0.342;fill:#ffffff;fill-opacity:0.0851064;stroke:#ffffff;stroke-width:0.400374;stroke-miterlimit:4;stroke-dasharray:none;stroke-dashoffset:0;stroke-opacity:0.246809"
   d="m 18.524038,26.037879 c -0.04054,-0.04054 -0.07372,-1.8548 -0.07372,-4.031682 v -3.957968 l 1.350636,0.02965 1.350635,0.02965 v 3.972458 3.972458 l -1.27692,0.02958 c -0.702306,0.01627 -1.310092,-0.0036 -1.350635,-0.04414 z"
   id="path26"
   inkscape:connector-curvature="0" /><path
   style="opacity:0.342;fill:#ffffff;fill-opacity:0.0851064;stroke:#ffffff;stroke-width:0.400374;stroke-miterlimit:4;stroke-dasharray:none;stroke-dashoffset:0;stroke-opacity:0.246809"
   d="m 14.8959,25.969869 c -0.02861,-0.07455 -0.03903,-1.063687 -0.02316,-2.198093 l 0.02885,-2.062556 h 1.324153 1.324152 l 0.02866,2.074165 0.02866,2.074164 -0.271994,0.123929 c -0.384323,0.175109 -2.371308,0.165653 -2.439329,-0.01161 z"
   id="path28"
   inkscape:connector-curvature="0" /><path
   style="opacity:0.342;fill:#ffffff;fill-opacity:0.0851064;stroke:#ffffff;stroke-width:0.400374;stroke-miterlimit:4;stroke-dasharray:none;stroke-dashoffset:0;stroke-opacity:0.246809"
   d="M 22.608161,26.03525 C 22.50701,25.99443 22.475746,25.333619 22.475746,23.23641 V 20.491 h 1.377119 1.377118 v 2.742904 c 0,2.403448 -0.02074,2.750861 -0.167562,2.807203 -0.19865,0.07623 -2.263038,0.0713 -2.45426,-0.0059 z"
   id="path30"
   inkscape:connector-curvature="0" /><path
   style="opacity:0.342;fill:#ffffff;fill-opacity:0.0851064;stroke:#ffffff;stroke-width:0.400374;stroke-miterlimit:4;stroke-dasharray:none;stroke-dashoffset:0;stroke-opacity:0.246809"
   d="m 26.46904,26.037967 c -0.04059,-0.04059 -0.0738,-2.49847 -0.0738,-5.461951 v -5.388147 l 1.29767,0.02974 1.297669,0.02974 v 5.402542 5.402543 l -1.223866,0.02966 c -0.673127,0.01631 -1.257078,-0.0035 -1.29767,-0.04414 z"
   id="path32"
   inkscape:connector-curvature="0" /></svg>
