
<svg xmlns="http://www.w3.org/2000/svg" xmlns:xlink="http://www.w3.org/1999/xlink" width="64" height="64" viewBox="0 0 64 64" version="1.1">
<defs>
<linearGradient id="linear0" gradientUnits="userSpaceOnUse" x1="10.054166" y1="-199.125" x2="10.054166" y2="-213.941666" gradientTransform="matrix(3.779528,0,0,3.779528,-0.00125602,812.598468)">
<stop offset="0" style="stop-color:rgb(0%,0%,0%);stop-opacity:0.2;"/>
<stop offset="1" style="stop-color:rgb(100%,100%,100%);stop-opacity:0;"/>
</linearGradient>
</defs>
<g id="surface1">
<path style=" stroke:none;fill-rule:nonzero;fill:rgb(14.901961%,65.098041%,60.392159%);fill-opacity:1;" d="M 5.167969 58.832031 C 5.894531 59.554688 6.890625 60 8 60 L 56 60 C 57.109375 60 58.105469 59.554688 58.828125 58.832031 L 32 32 Z M 5.167969 58.832031 "/>
<path style=" stroke:none;fill-rule:nonzero;fill:rgb(36.078432%,41.960785%,75.294119%);fill-opacity:1;" d="M 5.171875 5.171875 C 4.445312 5.894531 4 6.890625 4 8 L 4 56 C 4 57.109375 4.445312 58.105469 5.171875 58.828125 L 32 32 Z M 5.171875 5.171875 "/>
<path style=" stroke:none;fill-rule:nonzero;fill:rgb(67.058825%,27.843139%,73.725492%);fill-opacity:1;" d="M 58.832031 5.171875 C 59.554688 5.894531 60 6.890625 60 8 L 60 56 C 60 57.109375 59.554688 58.105469 58.832031 58.832031 L 32 32 Z M 58.832031 5.171875 "/>
<path style=" stroke:none;fill-rule:nonzero;fill:rgb(14.901961%,65.098041%,60.392159%);fill-opacity:1;" d="M 5.167969 58.832031 C 5.894531 59.554688 6.890625 60 8 60 L 56 60 C 57.109375 60 58.105469 59.554688 58.828125 58.832031 L 32 32 Z M 5.167969 58.832031 "/>
<path style=" stroke:none;fill-rule:nonzero;fill:rgb(93.333334%,93.333334%,93.333334%);fill-opacity:1;" d="M 5.171875 5.171875 C 5.894531 4.445312 6.890625 4 8 4 L 56 4 C 57.109375 4 58.105469 4.445312 58.832031 5.171875 L 32 32 Z M 5.171875 5.171875 "/>
<path style=" stroke:none;fill-rule:nonzero;fill:rgb(0%,0%,0%);fill-opacity:0.4;" d="M 4 55 L 4 56 C 4 58.214844 5.785156 60 8 60 L 56 60 C 58.214844 60 60 58.214844 60 56 L 60 55 C 60 57.214844 58.214844 59 56 59 L 8 59 C 5.785156 59 4 57.214844 4 55 Z M 4 55 "/>
<path style=" stroke:none;fill-rule:nonzero;fill:rgb(0%,0%,0%);fill-opacity:0.2;" d="M 4 56 L 4 57.5 C 4 59.714844 5.785156 61.5 8 61.5 L 56 61.5 C 58.214844 61.5 60 59.714844 60 57.5 L 60 56 C 60 58.214844 58.214844 60 56 60 L 8 60 C 5.785156 60 4 58.214844 4 56 Z M 4 56 "/>
<path style=" stroke:none;fill-rule:nonzero;fill:rgb(100%,100%,100%);fill-opacity:0.6;" d="M 8 4 C 5.785156 4 4 5.785156 4 8 L 4 8.984375 C 4 6.769531 5.785156 4.984375 8 4.984375 L 56 4.984375 C 58.214844 4.984375 60 6.769531 60 8.984375 L 60 8 C 60 5.785156 58.214844 4 56 4 Z M 8 4 "/>
<path style=" stroke:none;fill-rule:nonzero;fill:rgb(100%,100%,100%);fill-opacity:0.4;" d="M 32 32 L 5.171875 58.828125 C 5.335938 58.996094 5.519531 59.148438 5.714844 59.285156 L 32 33 L 58.285156 59.285156 C 58.480469 59.148438 58.664062 58.996094 58.828125 58.828125 Z M 32 32 "/>
<path style=" stroke:none;fill-rule:nonzero;fill:rgb(36.078432%,41.960785%,75.294119%);fill-opacity:1;" d="M 5.171875 5.171875 C 4.445312 5.894531 4 6.890625 4 8 L 4 56 C 4 57.109375 4.445312 58.105469 5.171875 58.828125 L 32 32 Z M 5.171875 5.171875 "/>
<path style=" stroke:none;fill-rule:nonzero;fill:rgb(67.058825%,27.843139%,73.725492%);fill-opacity:1;" d="M 58.832031 5.171875 C 59.554688 5.894531 60 6.890625 60 8 L 60 56 C 60 57.109375 59.554688 58.105469 58.832031 58.832031 L 32 32 Z M 58.832031 5.171875 "/>
<path style=" stroke:none;fill-rule:nonzero;fill:rgb(0%,0%,0%);fill-opacity:0.4;" d="M 31.5 31.5 L 5.171875 57.828125 C 4.445312 57.105469 4 56.109375 4 55 L 4 56 C 4 57.109375 4.445312 58.105469 5.171875 58.828125 L 32 32 Z M 31.5 31.5 "/>
<path style=" stroke:none;fill-rule:nonzero;fill:rgb(0%,0%,0%);fill-opacity:0.4;" d="M 33 32 L 32.5 32.5 L 58.828125 58.828125 C 59.554688 58.105469 60 57.109375 60 56 L 60 55 C 60 56.109375 59.554688 57.105469 58.828125 57.828125 Z M 33 32 "/>
<path style=" stroke:none;fill-rule:nonzero;fill:rgb(0%,0%,0%);fill-opacity:0.4;" d="M 5.714844 4.714844 C 5.519531 4.851562 5.335938 5.003906 5.171875 5.171875 L 32 32 L 58.828125 5.171875 C 58.664062 5.003906 58.480469 4.851562 58.285156 4.714844 L 32 31 Z M 5.714844 4.714844 "/>
<path style=" stroke:none;fill-rule:nonzero;fill:rgb(100%,100%,100%);fill-opacity:0.4;" d="M 5.171875 5.171875 C 4.445312 5.894531 4 6.890625 4 8 L 4 9 C 4 7.890625 4.445312 6.894531 5.171875 6.171875 L 31 32 L 31.5 31.5 Z M 5.171875 5.171875 "/>
<path style=" stroke:none;fill-rule:nonzero;fill:rgb(100%,100%,100%);fill-opacity:0.4;" d="M 58.828125 5.171875 L 32 32 L 32.5 32.5 L 58.828125 6.171875 C 59.554688 6.894531 60 7.890625 60 9 L 60 8 C 60 6.890625 59.554688 5.894531 58.828125 5.171875 Z M 58.828125 5.171875 "/>
<path style=" stroke:none;fill-rule:nonzero;fill:url(#linear0);" d="M 8 4 L 56 4 C 58.210938 4 60 5.789062 60 8 L 60 56 C 60 58.210938 58.210938 60 56 60 L 8 60 C 5.789062 60 4 58.210938 4 56 L 4 8 C 4 5.789062 5.789062 4 8 4 Z M 8 4 "/>
</g>
</svg>
