
<svg xmlns="http://www.w3.org/2000/svg" xmlns:xlink="http://www.w3.org/1999/xlink" width="48" height="48" viewBox="0 0 48 48" version="1.1">
<defs>
<linearGradient id="linear0" gradientUnits="userSpaceOnUse" x1="8.466666" y1="-199.125" x2="8.466666" y2="-213.941666" gradientTransform="matrix(2.834646,0,0,2.834646,-0.211309,609.445921)">
<stop offset="0" style="stop-color:rgb(0%,0%,0%);stop-opacity:0.2;"/>
<stop offset="1" style="stop-color:rgb(100%,100%,100%);stop-opacity:0;"/>
</linearGradient>
</defs>
<g id="surface1">
<path style=" stroke:none;fill-rule:nonzero;fill:rgb(87.843138%,87.843138%,87.843138%);fill-opacity:1;" d="M 4.710938 6.160156 C 17.1875 2.070312 30.8125 2.070312 43.289062 6.160156 C 44.238281 6.472656 45.003906 7.5625 44.96875 8.558594 C 44.445312 23.183594 37.625 39.214844 25.675781 44.691406 C 24.765625 45.105469 23.234375 45.105469 22.324219 44.691406 C 10.375 39.214844 3.554688 23.183594 3.03125 8.558594 C 2.996094 7.5625 3.761719 6.472656 4.710938 6.160156 Z M 4.710938 6.160156 "/>
<path style=" stroke:none;fill-rule:nonzero;fill:rgb(100%,100%,100%);fill-opacity:0.6;" d="M 24 3.09375 C 17.472656 3.09375 10.949219 4.117188 4.710938 6.160156 C 3.761719 6.472656 2.996094 7.558594 3.03125 8.558594 C 3.039062 8.707031 3.042969 8.851562 3.050781 9 C 3.171875 8.101562 3.867188 7.210938 4.710938 6.933594 C 17.1875 2.84375 30.8125 2.84375 43.289062 6.933594 C 44.132812 7.210938 44.828125 8.101562 44.949219 9 C 44.957031 8.851562 44.960938 8.707031 44.96875 8.558594 C 45.003906 7.558594 44.238281 6.472656 43.289062 6.160156 C 37.050781 4.117188 30.527344 3.09375 24 3.09375 Z M 24 3.09375 "/>
<path style=" stroke:none;fill-rule:nonzero;fill:rgb(0.392157%,0.392157%,0.392157%);fill-opacity:0.4;" d="M 3.050781 8.226562 C 3.035156 8.339844 3.027344 8.449219 3.03125 8.558594 C 3.554688 23.183594 10.375 39.214844 22.324219 44.691406 C 23.234375 45.105469 24.765625 45.105469 25.675781 44.691406 C 37.625 39.214844 44.445312 23.183594 44.96875 8.558594 C 44.972656 8.449219 44.964844 8.339844 44.949219 8.230469 C 44.308594 22.734375 37.507812 38.503906 25.675781 43.925781 C 24.765625 44.34375 23.234375 44.34375 22.324219 43.925781 C 10.492188 38.503906 3.691406 22.734375 3.050781 8.226562 Z M 3.050781 8.226562 "/>
<path style=" stroke:none;fill-rule:nonzero;fill:rgb(0%,0%,0%);fill-opacity:0.2;" d="M 3.0625 9.269531 C 3.039062 9.40625 3.027344 9.546875 3.03125 9.683594 C 3.554688 24.304688 10.375 40.335938 22.324219 45.8125 C 23.234375 46.230469 24.765625 46.230469 25.675781 45.8125 C 37.625 40.335938 44.445312 24.304688 44.96875 9.683594 C 44.972656 9.546875 44.960938 9.40625 44.9375 9.269531 C 44.222656 23.695312 37.429688 39.300781 25.675781 44.691406 C 24.765625 45.105469 23.234375 45.105469 22.324219 44.691406 C 10.570312 39.300781 3.777344 23.695312 3.0625 9.269531 Z M 3.0625 9.269531 "/>
<path style=" stroke:none;fill-rule:nonzero;fill:rgb(50.588238%,78.039217%,51.764709%);fill-opacity:1;" d="M 24 5.996094 C 18.378906 5.996094 12.757812 6.878906 7.382812 8.640625 C 6.566406 8.90625 5.90625 9.84375 5.9375 10.707031 C 6.074219 14.492188 6.703125 18.382812 7.789062 22.109375 C 10.320312 30.78125 15.355469 38.53125 22.558594 41.832031 C 22.949219 42.007812 23.472656 42.097656 24 42.097656 Z M 24 5.996094 "/>
<path style=" stroke:none;fill-rule:nonzero;fill:rgb(40.000001%,73.333335%,41.568628%);fill-opacity:1;" d="M 24 5.996094 L 24 42.097656 C 24.527344 42.097656 25.050781 42.007812 25.441406 41.832031 C 32.644531 38.53125 37.679688 30.78125 40.210938 22.109375 C 41.296875 18.382812 41.925781 14.492188 42.0625 10.707031 C 42.09375 9.84375 41.433594 8.90625 40.617188 8.640625 C 35.242188 6.878906 29.621094 5.996094 24 5.996094 Z M 24 5.996094 "/>
<path style=" stroke:none;fill-rule:nonzero;fill:rgb(100%,100%,100%);fill-opacity:0.4;" d="M 24 5.996094 L 24 6.75 C 18.378906 6.75 12.757812 7.632812 7.382812 9.390625 C 6.671875 9.625 6.078125 10.367188 5.957031 11.125 C 5.953125 10.984375 5.945312 10.84375 5.9375 10.703125 C 5.90625 9.84375 6.566406 8.90625 7.382812 8.640625 C 12.757812 6.878906 18.378906 5.996094 24 5.996094 Z M 24 5.996094 "/>
<path style=" stroke:none;fill-rule:nonzero;fill:rgb(100%,100%,100%);fill-opacity:0.4;" d="M 24 5.996094 C 29.621094 5.996094 35.242188 6.878906 40.617188 8.640625 C 41.433594 8.90625 42.09375 9.84375 42.0625 10.703125 C 42.054688 10.84375 42.046875 10.984375 42.042969 11.125 C 41.921875 10.367188 41.328125 9.625 40.617188 9.390625 C 35.242188 7.632812 29.621094 6.75 24 6.75 Z M 24 5.996094 "/>
<path style=" stroke:none;fill-rule:nonzero;fill:rgb(0%,0%,0%);fill-opacity:0.4;" d="M 42.046875 11.066406 C 41.496094 23.566406 35.636719 37.15625 25.441406 41.828125 C 25.050781 42.007812 24.527344 42.097656 24 42.097656 L 24 42.75 C 24.527344 42.75 25.050781 42.660156 25.441406 42.480469 C 35.734375 37.765625 41.609375 23.953125 42.0625 11.355469 C 42.066406 11.261719 42.058594 11.164062 42.046875 11.066406 Z M 42.046875 11.066406 "/>
<path style=" stroke:none;fill-rule:nonzero;fill:rgb(0%,0%,0%);fill-opacity:0.4;" d="M 5.953125 11.066406 C 5.941406 11.164062 5.933594 11.261719 5.9375 11.355469 C 6.390625 23.953125 12.265625 37.765625 22.558594 42.480469 C 22.949219 42.660156 23.472656 42.75 24 42.75 L 24 42.097656 C 23.472656 42.097656 22.949219 42.007812 22.558594 41.828125 C 12.363281 37.15625 6.503906 23.566406 5.953125 11.066406 Z M 5.953125 11.066406 "/>
<path style=" stroke:none;fill-rule:nonzero;fill:rgb(100%,100%,100%);fill-opacity:0.2;" d="M 10.332031 9.71875 C 9.886719 9.851562 9.441406 9.988281 9 10.132812 C 8.261719 10.375 7.667969 11.222656 7.695312 12 C 7.742188 13.28125 7.851562 14.574219 8.019531 15.871094 C 8.484375 15.734375 8.984375 15.59375 9.476562 15.464844 C 9.402344 14.707031 9.351562 13.953125 9.324219 13.203125 C 9.300781 12.503906 9.835938 11.742188 10.5 11.523438 C 10.753906 11.441406 11.011719 11.359375 11.269531 11.28125 Z M 10.332031 9.71875 "/>
<path style=" stroke:none;fill-rule:nonzero;fill:url(#linear0);" d="M 4.5 6.15625 C 16.976562 2.070312 30.601562 2.070312 43.078125 6.15625 C 44.027344 6.46875 44.792969 7.558594 44.757812 8.558594 C 44.230469 23.179688 37.414062 39.210938 25.464844 44.6875 C 24.554688 45.101562 23.023438 45.101562 22.113281 44.6875 C 10.164062 39.210938 3.34375 23.179688 2.820312 8.554688 C 2.785156 7.558594 3.550781 6.46875 4.5 6.15625 Z M 4.5 6.15625 "/>
</g>
</svg>
