
<svg xmlns="http://www.w3.org/2000/svg" xmlns:xlink="http://www.w3.org/1999/xlink" width="48" height="48" viewBox="0 0 48 48" version="1.1">
<defs>
<linearGradient id="linear0" gradientUnits="userSpaceOnUse" x1="8.466666" y1="-199.125" x2="8.466666" y2="-213.941666" gradientTransform="matrix(2.834646,0,0,2.834646,-0.00000947146,609.448851)">
<stop offset="0" style="stop-color:rgb(0%,0%,0%);stop-opacity:0.2;"/>
<stop offset="1" style="stop-color:rgb(100%,100%,100%);stop-opacity:0;"/>
</linearGradient>
</defs>
<g id="surface1">
<path style=" stroke:none;fill-rule:nonzero;fill:rgb(92.54902%,25.098041%,47.843137%);fill-opacity:1;" d="M 6 3 L 42 3 C 43.65625 3 45 4.34375 45 6 L 45 42 C 45 43.65625 43.65625 45 42 45 L 6 45 C 4.34375 45 3 43.65625 3 42 L 3 6 C 3 4.34375 4.34375 3 6 3 Z M 6 3 "/>
<path style=" stroke:none;fill-rule:nonzero;fill:rgb(74.117649%,74.117649%,74.117649%);fill-opacity:1;" d="M 32.328125 13.660156 L 11.648438 24 L 32.328125 34.34375 L 33.671875 31.65625 L 18.347656 24 L 33.671875 16.34375 Z M 32.328125 13.660156 "/>
<path style=" stroke:none;fill-rule:nonzero;fill:rgb(0%,0%,0%);fill-opacity:0.4;" d="M 3 41.25 L 3 42 C 3 43.660156 4.339844 45 6 45 L 42 45 C 43.660156 45 45 43.660156 45 42 L 45 41.25 C 45 42.910156 43.660156 44.25 42 44.25 L 6 44.25 C 4.339844 44.25 3 42.910156 3 41.25 Z M 3 41.25 "/>
<path style=" stroke:none;fill-rule:nonzero;fill:rgb(0%,0%,0%);fill-opacity:0.2;" d="M 3 42 L 3 43.125 C 3 44.785156 4.339844 46.125 6 46.125 L 42 46.125 C 43.660156 46.125 45 44.785156 45 43.125 L 45 42 C 45 43.660156 43.660156 45 42 45 L 6 45 C 4.339844 45 3 43.660156 3 42 Z M 3 42 "/>
<path style=" stroke:none;fill-rule:nonzero;fill:rgb(100%,100%,100%);fill-opacity:0.4;" d="M 6 3 C 4.339844 3 3 4.339844 3 6 L 3 6.738281 C 3 5.078125 4.339844 3.738281 6 3.738281 L 42 3.738281 C 43.660156 3.738281 45 5.078125 45 6.738281 L 45 6 C 45 4.339844 43.660156 3 42 3 Z M 6 3 "/>
<path style=" stroke:none;fill-rule:nonzero;fill:rgb(87.843138%,87.843138%,87.843138%);fill-opacity:0.996078;" d="M 15 19.5 C 17.484375 19.5 19.5 21.515625 19.5 24 C 19.5 26.484375 17.484375 28.5 15 28.5 C 12.515625 28.5 10.5 26.484375 10.5 24 C 10.5 21.515625 12.515625 19.5 15 19.5 Z M 15 19.5 "/>
<path style=" stroke:none;fill-rule:nonzero;fill:rgb(87.843138%,87.843138%,87.843138%);fill-opacity:0.996078;" d="M 33 10.5 C 35.484375 10.5 37.5 12.515625 37.5 15 C 37.5 17.484375 35.484375 19.5 33 19.5 C 30.515625 19.5 28.5 17.484375 28.5 15 C 28.5 12.515625 30.515625 10.5 33 10.5 Z M 33 10.5 "/>
<path style=" stroke:none;fill-rule:nonzero;fill:rgb(87.843138%,87.843138%,87.843138%);fill-opacity:0.996078;" d="M 33 28.5 C 35.484375 28.5 37.5 30.515625 37.5 33 C 37.5 35.484375 35.484375 37.5 33 37.5 C 30.515625 37.5 28.5 35.484375 28.5 33 C 28.5 30.515625 30.515625 28.5 33 28.5 Z M 33 28.5 "/>
<path style=" stroke:none;fill-rule:nonzero;fill:rgb(100%,100%,100%);fill-opacity:0.6;" d="M 33 10.5 C 30.507812 10.5 28.5 12.507812 28.5 15 C 28.5 15.121094 28.507812 15.238281 28.519531 15.355469 C 28.714844 13.050781 30.640625 11.25 33 11.25 C 35.359375 11.25 37.285156 13.050781 37.480469 15.355469 C 37.492188 15.238281 37.5 15.121094 37.5 15 C 37.5 12.507812 35.492188 10.5 33 10.5 Z M 15 19.5 C 12.507812 19.5 10.5 21.507812 10.5 24 C 10.5 24.121094 10.507812 24.238281 10.519531 24.355469 C 10.714844 22.050781 12.640625 20.25 15 20.25 C 17.359375 20.25 19.285156 22.050781 19.480469 24.355469 C 19.492188 24.238281 19.5 24.121094 19.5 24 C 19.5 21.507812 17.492188 19.5 15 19.5 Z M 33 28.5 C 30.507812 28.5 28.5 30.507812 28.5 33 C 28.5 33.121094 28.507812 33.238281 28.519531 33.355469 C 28.714844 31.050781 30.640625 29.25 33 29.25 C 35.359375 29.25 37.285156 31.050781 37.480469 33.355469 C 37.492188 33.238281 37.5 33.121094 37.5 33 C 37.5 30.507812 35.492188 28.5 33 28.5 Z M 33 28.5 "/>
<path style=" stroke:none;fill-rule:nonzero;fill:rgb(0%,0%,0%);fill-opacity:0.4;" d="M 33 38.25 C 30.507812 38.25 28.5 36.242188 28.5 33.75 C 28.5 33.628906 28.507812 33.511719 28.515625 33.394531 C 28.714844 35.699219 30.640625 37.5 33 37.5 C 35.359375 37.5 37.285156 35.699219 37.480469 33.394531 C 37.492188 33.511719 37.5 33.628906 37.5 33.75 C 37.5 36.242188 35.492188 38.25 33 38.25 Z M 15 29.25 C 12.507812 29.25 10.5 27.242188 10.5 24.75 C 10.5 24.628906 10.507812 24.511719 10.515625 24.394531 C 10.714844 26.699219 12.640625 28.5 15 28.5 C 17.359375 28.5 19.285156 26.699219 19.480469 24.394531 C 19.492188 24.511719 19.5 24.628906 19.5 24.75 C 19.5 27.242188 17.492188 29.25 15 29.25 Z M 33 20.25 C 30.507812 20.25 28.5 18.242188 28.5 15.75 C 28.5 15.628906 28.507812 15.511719 28.515625 15.394531 C 28.714844 17.699219 30.640625 19.5 33 19.5 C 35.359375 19.5 37.285156 17.699219 37.480469 15.394531 C 37.492188 15.511719 37.5 15.628906 37.5 15.75 C 37.5 18.242188 35.492188 20.25 33 20.25 Z M 33 20.25 "/>
<path style=" stroke:none;fill-rule:nonzero;fill:url(#linear0);" d="M 6 3 L 42 3 C 43.65625 3 45 4.34375 45 6 L 45 42 C 45 43.65625 43.65625 45 42 45 L 6 45 C 4.34375 45 3 43.65625 3 42 L 3 6 C 3 4.34375 4.34375 3 6 3 Z M 6 3 "/>
</g>
</svg>
