
<svg xmlns="http://www.w3.org/2000/svg" xmlns:xlink="http://www.w3.org/1999/xlink" width="32" height="32" viewBox="0 0 32 32" version="1.1">
<defs>
<linearGradient id="linear0" gradientUnits="userSpaceOnUse" x1="31.999998" y1="60" x2="31.999998" y2="4" gradientTransform="matrix(0.5,0,0,0.5,-0.00000136063,0)">
<stop offset="0" style="stop-color:rgb(0%,0%,0%);stop-opacity:0.2;"/>
<stop offset="1" style="stop-color:rgb(100%,100%,100%);stop-opacity:0;"/>
</linearGradient>
</defs>
<g id="surface1">
<path style=" stroke:none;fill-rule:nonzero;fill:rgb(14.901961%,77.64706%,85.490197%);fill-opacity:1;" d="M 20 2 L 6.5 2 C 5.667969 2 5 2.667969 5 3.5 L 5 28.5 C 5 29.332031 5.667969 30 6.5 30 L 25.5 30 C 26.332031 30 27 29.332031 27 28.5 L 27 9 Z M 20 2 "/>
<path style=" stroke:none;fill-rule:nonzero;fill:rgb(50.196081%,87.058824%,91.764706%);fill-opacity:1;" d="M 11.5 12 C 11.222656 12 11 12.222656 11 12.5 C 11 12.777344 11.222656 13 11.5 13 L 20.5 13 C 20.777344 13 21 12.777344 21 12.5 C 21 12.222656 20.777344 12 20.5 12 Z M 11.5 14 C 11.222656 14 11 14.222656 11 14.5 C 11 14.777344 11.222656 15 11.5 15 L 20.5 15 C 20.777344 15 21 14.777344 21 14.5 C 21 14.222656 20.777344 14 20.5 14 Z M 11.5 16 C 11.222656 16 11 16.222656 11 16.5 C 11 16.777344 11.222656 17 11.5 17 L 20.5 17 C 20.777344 17 21 16.777344 21 16.5 C 21 16.222656 20.777344 16 20.5 16 Z M 11.5 18 C 11.222656 18 11 18.222656 11 18.5 C 11 18.777344 11.222656 19 11.5 19 L 20.5 19 C 20.777344 19 21 18.777344 21 18.5 C 21 18.222656 20.777344 18 20.5 18 Z M 11.5 20 C 11.222656 20 11 20.222656 11 20.5 C 11 20.777344 11.222656 21 11.5 21 L 20.5 21 C 20.777344 21 21 20.777344 21 20.5 C 21 20.222656 20.777344 20 20.5 20 Z M 11.5 20 "/>
<path style=" stroke:none;fill-rule:nonzero;fill:rgb(0%,0%,0%);fill-opacity:0.4;" d="M 20 7.5 L 20 8 C 20 8.832031 20.667969 9.5 21.5 9.5 L 27 9.5 L 26.5 9 L 21.5 9 C 20.667969 9 20 8.332031 20 7.5 Z M 20 7.5 "/>
<path style=" stroke:none;fill-rule:nonzero;fill:rgb(30.19608%,81.568629%,88.235295%);fill-opacity:0.996078;" d="M 27 9 L 20 2 L 20 7.5 C 20 8.332031 20.667969 9 21.5 9 Z M 27 9 "/>
<path style=" stroke:none;fill-rule:nonzero;fill:rgb(100%,100%,100%);fill-opacity:0.4;" d="M 6.5 2 C 5.667969 2 5 2.667969 5 3.5 L 5 4 C 5 3.167969 5.667969 2.5 6.5 2.5 L 20 2.5 L 27 9.5 L 27 9 L 20 2 Z M 6.5 2 "/>
<path style=" stroke:none;fill-rule:nonzero;fill:rgb(0%,0%,0%);fill-opacity:0.2;" d="M 5 28.492188 L 5 29.25 C 5 30.082031 5.667969 30.75 6.5 30.75 L 25.5 30.75 C 26.332031 30.75 27 30.082031 27 29.25 L 27 28.492188 C 27 29.324219 26.332031 29.992188 25.5 29.992188 L 6.5 29.992188 C 5.667969 29.992188 5 29.324219 5 28.492188 Z M 5 28.492188 "/>
<path style=" stroke:none;fill-rule:nonzero;fill:rgb(0%,0%,0%);fill-opacity:0.4;" d="M 5 28.0625 L 5 28.5 C 5 29.332031 5.667969 30 6.5 30 L 25.5 30 C 26.332031 30 27 29.332031 27 28.5 L 27 28.0625 C 27 28.894531 26.332031 29.5625 25.5 29.5625 L 6.5 29.5625 C 5.667969 29.5625 5 28.894531 5 28.0625 Z M 5 28.0625 "/>
<path style=" stroke:none;fill-rule:nonzero;fill:rgb(99.215686%,99.215686%,99.215686%);fill-opacity:0.4;" d="M 11.5 12 C 11.222656 12 11 12.222656 11 12.5 C 11 12.542969 11.007812 12.582031 11.015625 12.625 C 11.074219 12.40625 11.265625 12.25 11.5 12.25 L 20.5 12.25 C 20.734375 12.25 20.925781 12.40625 20.984375 12.625 C 20.992188 12.582031 21 12.542969 21 12.5 C 21 12.222656 20.777344 12 20.5 12 Z M 11.5 14 C 11.222656 14 11 14.222656 11 14.5 C 11 14.542969 11.007812 14.582031 11.015625 14.625 C 11.074219 14.40625 11.265625 14.25 11.5 14.25 L 20.5 14.25 C 20.734375 14.25 20.925781 14.40625 20.984375 14.625 C 20.992188 14.582031 21 14.542969 21 14.5 C 21 14.222656 20.777344 14 20.5 14 Z M 11.5 16 C 11.222656 16 11 16.222656 11 16.5 C 11 16.542969 11.007812 16.582031 11.015625 16.625 C 11.074219 16.40625 11.265625 16.25 11.5 16.25 L 20.5 16.25 C 20.734375 16.25 20.925781 16.40625 20.984375 16.625 C 20.992188 16.582031 21 16.542969 21 16.5 C 21 16.222656 20.777344 16 20.5 16 Z M 11.5 18 C 11.222656 18 11 18.222656 11 18.5 C 11 18.542969 11.007812 18.582031 11.015625 18.625 C 11.074219 18.40625 11.265625 18.25 11.5 18.25 L 20.5 18.25 C 20.734375 18.25 20.925781 18.40625 20.984375 18.625 C 20.992188 18.582031 21 18.542969 21 18.5 C 21 18.222656 20.777344 18 20.5 18 Z M 11.5 20 C 11.222656 20 11 20.222656 11 20.5 C 11 20.542969 11.007812 20.582031 11.015625 20.625 C 11.074219 20.40625 11.265625 20.25 11.5 20.25 L 20.5 20.25 C 20.734375 20.25 20.925781 20.40625 20.984375 20.625 C 20.992188 20.582031 21 20.542969 21 20.5 C 21 20.222656 20.777344 20 20.5 20 Z M 11.5 20 "/>
<path style=" stroke:none;fill-rule:nonzero;fill:rgb(5.882353%,5.882353%,5.882353%);fill-opacity:0.4;" d="M 11.5 21.253906 C 11.222656 21.253906 11 21.03125 11 20.753906 C 11 20.710938 11.007812 20.671875 11.015625 20.628906 C 11.074219 20.847656 11.265625 21.003906 11.5 21.003906 L 20.5 21.003906 C 20.734375 21.003906 20.925781 20.847656 20.984375 20.628906 C 20.992188 20.671875 21 20.710938 21 20.753906 C 21 21.03125 20.777344 21.253906 20.5 21.253906 Z M 11.5 19.253906 C 11.222656 19.253906 11 19.03125 11 18.753906 C 11 18.710938 11.007812 18.671875 11.015625 18.628906 C 11.074219 18.847656 11.265625 19.003906 11.5 19.003906 L 20.5 19.003906 C 20.734375 19.003906 20.925781 18.847656 20.984375 18.628906 C 20.992188 18.671875 21 18.710938 21 18.753906 C 21 19.03125 20.777344 19.253906 20.5 19.253906 Z M 11.5 17.253906 C 11.222656 17.253906 11 17.03125 11 16.753906 C 11 16.710938 11.007812 16.671875 11.015625 16.628906 C 11.074219 16.847656 11.265625 17.003906 11.5 17.003906 L 20.5 17.003906 C 20.734375 17.003906 20.925781 16.847656 20.984375 16.628906 C 20.992188 16.671875 21 16.710938 21 16.753906 C 21 17.03125 20.777344 17.253906 20.5 17.253906 Z M 11.5 15.253906 C 11.222656 15.253906 11 15.03125 11 14.753906 C 11 14.710938 11.007812 14.671875 11.015625 14.628906 C 11.074219 14.847656 11.265625 15.003906 11.5 15.003906 L 20.5 15.003906 C 20.734375 15.003906 20.925781 14.847656 20.984375 14.628906 C 20.992188 14.671875 21 14.710938 21 14.753906 C 21 15.03125 20.777344 15.253906 20.5 15.253906 Z M 11.5 13.253906 C 11.222656 13.253906 11 13.03125 11 12.753906 C 11 12.710938 11.007812 12.671875 11.015625 12.628906 C 11.074219 12.847656 11.265625 13.003906 11.5 13.003906 L 20.5 13.003906 C 20.734375 13.003906 20.925781 12.847656 20.984375 12.628906 C 20.992188 12.671875 21 12.710938 21 12.753906 C 21 13.03125 20.777344 13.253906 20.5 13.253906 Z M 11.5 13.253906 "/>
<path style=" stroke:none;fill-rule:nonzero;fill:url(#linear0);" d="M 20 2 L 6.5 2 C 5.667969 2 5 2.667969 5 3.5 L 5 28.5 C 5 29.332031 5.667969 30 6.5 30 L 25.5 30 C 26.332031 30 27 29.332031 27 28.5 L 27 9 Z M 20 2 "/>
</g>
</svg>
