
<svg xmlns="http://www.w3.org/2000/svg" xmlns:xlink="http://www.w3.org/1999/xlink" width="32" height="32" viewBox="0 0 32 32" version="1.1">
<defs>
<linearGradient id="linear0" gradientUnits="userSpaceOnUse" x1="2.645833" y1="-211.03125" x2="14.287498" y2="-211.03125" gradientTransform="matrix(2.233358,0,0,0.944892,-2.909091,206.651855)">
<stop offset="0" style="stop-color:rgb(100%,100%,100%);stop-opacity:0;"/>
<stop offset="0.498862" style="stop-color:rgb(100%,100%,100%);stop-opacity:0.2;"/>
<stop offset="1" style="stop-color:rgb(95.686275%,26.274511%,21.176471%);stop-opacity:0;"/>
</linearGradient>
<linearGradient id="linear1" gradientUnits="userSpaceOnUse" x1="8.466666" y1="-200.183334" x2="8.466666" y2="-212.883331" gradientTransform="matrix(1.889764,0,0,1.889764,-2.000003,406.299234)">
<stop offset="0" style="stop-color:rgb(0%,0%,0%);stop-opacity:0.2;"/>
<stop offset="1" style="stop-color:rgb(100%,100%,100%);stop-opacity:0;"/>
</linearGradient>
</defs>
<g id="surface1">
<path style=" stroke:none;fill-rule:nonzero;fill:rgb(38.039216%,38.039216%,38.039216%);fill-opacity:1;" d="M 4 4 L 28 4 C 29.105469 4 30 4.894531 30 6 L 30 26 C 30 27.105469 29.105469 28 28 28 L 4 28 C 2.894531 28 2 27.105469 2 26 L 2 6 C 2 4.894531 2.894531 4 4 4 Z M 4 4 "/>
<path style=" stroke:none;fill-rule:nonzero;fill:url(#linear0);" d="M 16 7 C 8.796875 7 3 7.113281 3 7.25 C 3 7.386719 8.796875 7.5 16 7.5 C 23.203125 7.5 29 7.386719 29 7.25 C 29 7.113281 23.203125 7 16 7 Z M 16 8.5 C 8.796875 8.5 3 8.613281 3 8.75 C 3 8.886719 8.796875 9 16 9 C 23.203125 9 29 8.886719 29 8.75 C 29 8.613281 23.203125 8.5 16 8.5 Z M 16 10 C 8.796875 10 3 10.113281 3 10.25 C 3 10.386719 8.796875 10.5 16 10.5 C 23.203125 10.5 29 10.386719 29 10.25 C 29 10.113281 23.203125 10 16 10 Z M 16 11.5 C 8.796875 11.5 3 11.613281 3 11.75 C 3 11.886719 8.796875 12 16 12 C 23.203125 12 29 11.886719 29 11.75 C 29 11.613281 23.203125 11.5 16 11.5 Z M 16 13 C 8.796875 13 3 13.113281 3 13.25 C 3 13.386719 8.796875 13.5 16 13.5 C 23.203125 13.5 29 13.386719 29 13.25 C 29 13.113281 23.203125 13 16 13 Z M 16 14.5 C 8.796875 14.5 3 14.613281 3 14.75 C 3 14.886719 8.796875 15 16 15 C 23.203125 15 29 14.886719 29 14.75 C 29 14.613281 23.203125 14.5 16 14.5 Z M 16 16 C 8.796875 16 3 16.113281 3 16.25 C 3 16.386719 8.796875 16.5 16 16.5 C 23.203125 16.5 29 16.386719 29 16.25 C 29 16.113281 23.203125 16 16 16 Z M 16 17.5 C 8.796875 17.5 3 17.613281 3 17.75 C 3 17.886719 8.796875 18 16 18 C 23.203125 18 29 17.886719 29 17.75 C 29 17.613281 23.203125 17.5 16 17.5 Z M 16 19 C 8.796875 19 3 19.113281 3 19.25 C 3 19.386719 8.796875 19.5 16 19.5 C 23.203125 19.5 29 19.386719 29 19.25 C 29 19.113281 23.203125 19 16 19 Z M 16 20.5 C 8.796875 20.5 3 20.613281 3 20.75 C 3 20.886719 8.796875 21 16 21 C 23.203125 21 29 20.886719 29 20.75 C 29 20.613281 23.203125 20.5 16 20.5 Z M 16 22 C 8.796875 22 3 22.113281 3 22.25 C 3 22.386719 8.796875 22.5 16 22.5 C 23.203125 22.5 29 22.386719 29 22.25 C 29 22.113281 23.203125 22 16 22 Z M 16 23.5 C 8.796875 23.5 3 23.613281 3 23.75 C 3 23.886719 8.796875 24 16 24 C 23.203125 24 29 23.886719 29 23.75 C 29 23.613281 23.203125 23.5 16 23.5 Z M 16 25 C 8.796875 25 3 25.113281 3 25.25 C 3 25.386719 8.796875 25.5 16 25.5 C 23.203125 25.5 29 25.386719 29 25.25 C 29 25.113281 23.203125 25 16 25 Z M 16 25 "/>
<path style=" stroke:none;fill-rule:nonzero;fill:rgb(0%,0%,0%);fill-opacity:0.4;" d="M 3.5 5 C 3.777344 5 4 5.222656 4 5.5 C 4 5.777344 3.777344 6 3.5 6 C 3.222656 6 3 5.777344 3 5.5 C 3 5.222656 3.222656 5 3.5 5 Z M 3.5 5 "/>
<path style=" stroke:none;fill-rule:nonzero;fill:rgb(0%,0%,0%);fill-opacity:0.4;" d="M 3.5 5 C 3.222656 5 3 5.222656 3 5.5 C 3 5.542969 3.015625 5.585938 3.023438 5.625 C 3.082031 5.410156 3.265625 5.25 3.5 5.25 C 3.734375 5.25 3.917969 5.410156 3.976562 5.625 C 3.984375 5.585938 4 5.542969 4 5.5 C 4 5.222656 3.777344 5 3.5 5 Z M 3.5 5 "/>
<path style=" stroke:none;fill-rule:nonzero;fill:rgb(100%,100%,100%);fill-opacity:0.4;" d="M 3.5 6.25 C 3.222656 6.25 3 6.027344 3 5.75 C 3 5.707031 3.015625 5.664062 3.027344 5.625 C 3.082031 5.839844 3.265625 6 3.5 6 C 3.734375 6 3.917969 5.839844 3.976562 5.625 C 3.984375 5.664062 4 5.707031 4 5.75 C 4 6.027344 3.777344 6.25 3.5 6.25 Z M 3.5 6.25 "/>
<path style=" stroke:none;fill-rule:nonzero;fill:rgb(0%,0%,0%);fill-opacity:0.4;" d="M 28.527344 5 C 28.800781 5 29.027344 5.222656 29.027344 5.5 C 29.027344 5.777344 28.800781 6 28.527344 6 C 28.25 6 28.027344 5.777344 28.027344 5.5 C 28.027344 5.222656 28.25 5 28.527344 5 Z M 28.527344 5 "/>
<path style=" stroke:none;fill-rule:nonzero;fill:rgb(0%,0%,0%);fill-opacity:0.4;" d="M 28.523438 5 C 28.25 5 28.027344 5.222656 28.027344 5.5 C 28.027344 5.542969 28.039062 5.585938 28.050781 5.625 C 28.105469 5.410156 28.292969 5.25 28.527344 5.25 C 28.757812 5.25 28.945312 5.410156 29 5.625 C 29.011719 5.585938 29.023438 5.542969 29.023438 5.5 C 29.023438 5.222656 28.800781 5 28.523438 5 Z M 28.523438 5 "/>
<path style=" stroke:none;fill-rule:nonzero;fill:rgb(100%,100%,100%);fill-opacity:0.4;" d="M 28.523438 6.25 C 28.25 6.25 28.027344 6.027344 28.027344 5.75 C 28.027344 5.707031 28.039062 5.664062 28.050781 5.625 C 28.105469 5.839844 28.292969 6 28.527344 6 C 28.757812 6 28.945312 5.839844 29 5.625 C 29.011719 5.664062 29.027344 5.707031 29.027344 5.75 C 29.027344 6.027344 28.800781 6.25 28.527344 6.25 Z M 28.523438 6.25 "/>
<path style=" stroke:none;fill-rule:nonzero;fill:rgb(0%,0%,0%);fill-opacity:0.4;" d="M 3.5 25.75 C 3.777344 25.75 4 25.972656 4 26.25 C 4 26.527344 3.777344 26.75 3.5 26.75 C 3.222656 26.75 3 26.527344 3 26.25 C 3 25.972656 3.222656 25.75 3.5 25.75 Z M 3.5 25.75 "/>
<path style=" stroke:none;fill-rule:nonzero;fill:rgb(0%,0%,0%);fill-opacity:0.4;" d="M 3.5 25.75 C 3.222656 25.75 3 25.972656 3 26.25 C 3 26.292969 3.015625 26.335938 3.027344 26.375 C 3.082031 26.160156 3.265625 26 3.5 26 C 3.734375 26 3.917969 26.160156 3.976562 26.375 C 3.984375 26.335938 4 26.292969 4 26.25 C 4 25.972656 3.777344 25.75 3.5 25.75 Z M 3.5 25.75 "/>
<path style=" stroke:none;fill-rule:nonzero;fill:rgb(100%,100%,100%);fill-opacity:0.4;" d="M 3.5 27 C 3.222656 27 3 26.777344 3 26.5 C 3 26.457031 3.015625 26.414062 3.027344 26.375 C 3.082031 26.589844 3.265625 26.75 3.5 26.75 C 3.734375 26.75 3.917969 26.589844 3.976562 26.375 C 3.984375 26.414062 4 26.457031 4 26.5 C 4 26.777344 3.777344 27 3.5 27 Z M 3.5 27 "/>
<path style=" stroke:none;fill-rule:nonzero;fill:rgb(0%,0%,0%);fill-opacity:0.4;" d="M 28.527344 25.75 C 28.800781 25.75 29.027344 25.972656 29.027344 26.25 C 29.027344 26.527344 28.800781 26.75 28.527344 26.75 C 28.25 26.75 28.027344 26.527344 28.027344 26.25 C 28.027344 25.972656 28.25 25.75 28.527344 25.75 Z M 28.527344 25.75 "/>
<path style=" stroke:none;fill-rule:nonzero;fill:rgb(0%,0%,0%);fill-opacity:0.4;" d="M 28.523438 25.75 C 28.25 25.75 28.027344 25.972656 28.027344 26.25 C 28.027344 26.292969 28.039062 26.335938 28.050781 26.375 C 28.105469 26.160156 28.292969 26 28.527344 26 C 28.757812 26 28.945312 26.160156 29 26.375 C 29.011719 26.335938 29.023438 26.292969 29.023438 26.25 C 29.023438 25.972656 28.800781 25.75 28.523438 25.75 Z M 28.523438 25.75 "/>
<path style=" stroke:none;fill-rule:nonzero;fill:rgb(100%,100%,100%);fill-opacity:0.4;" d="M 28.523438 27 C 28.25 27 28.027344 26.777344 28.027344 26.5 C 28.027344 26.457031 28.039062 26.414062 28.050781 26.375 C 28.105469 26.589844 28.292969 26.75 28.527344 26.75 C 28.757812 26.75 28.945312 26.589844 29 26.375 C 29.011719 26.414062 29.027344 26.457031 29.027344 26.5 C 29.027344 26.777344 28.800781 27 28.527344 27 Z M 28.523438 27 "/>
<path style=" stroke:none;fill-rule:nonzero;fill:rgb(100%,100%,100%);fill-opacity:0.4;" d="M 4 4 C 2.890625 4 2 4.890625 2 6 L 2 6.484375 C 2 5.375 2.890625 4.484375 4 4.484375 L 28 4.484375 C 29.109375 4.484375 30 5.375 30 6.484375 L 30 6 C 30 4.890625 29.109375 4 28 4 Z M 4 4 "/>
<path style=" stroke:none;fill-rule:nonzero;fill:rgb(0.392157%,0.392157%,0.392157%);fill-opacity:0.4;" d="M 4 27.996094 C 2.890625 27.996094 2 27.105469 2 25.996094 L 2 25.511719 C 2 26.621094 2.890625 27.511719 4 27.511719 L 28 27.511719 C 29.109375 27.511719 30 26.621094 30 25.511719 L 30 25.996094 C 30 27.105469 29.109375 27.996094 28 27.996094 Z M 4 27.996094 "/>
<path style=" stroke:none;fill-rule:nonzero;fill:rgb(0%,0%,0%);fill-opacity:0.2;" d="M 2 26 L 2 26.75 C 2 27.859375 2.890625 28.75 4 28.75 L 28 28.75 C 29.109375 28.75 30 27.859375 30 26.75 L 30 26 C 30 27.109375 29.109375 28 28 28 L 4 28 C 2.890625 28 2 27.109375 2 26 Z M 2 26 "/>
<path style=" stroke:none;fill-rule:nonzero;fill:rgb(50.588238%,78.039217%,51.764709%);fill-opacity:0.996078;" d="M 5.5 8 L 7.5 8 C 7.777344 8 8 8.222656 8 8.5 C 8 8.777344 7.777344 9 7.5 9 L 5.5 9 C 5.222656 9 5 8.777344 5 8.5 C 5 8.222656 5.222656 8 5.5 8 Z M 5.5 8 "/>
<path style=" stroke:none;fill-rule:nonzero;fill:rgb(87.843138%,87.843138%,87.843138%);fill-opacity:0.996078;" d="M 10.5 8 L 26.5 8 C 26.777344 8 27 8.222656 27 8.5 C 27 8.777344 26.777344 9 26.5 9 L 10.5 9 C 10.222656 9 10 8.777344 10 8.5 C 10 8.222656 10.222656 8 10.5 8 Z M 10.5 8 "/>
<path style=" stroke:none;fill-rule:nonzero;fill:rgb(100%,100%,100%);fill-opacity:0.4;" d="M 5.5 8 C 5.222656 8 5 8.222656 5 8.5 C 5 8.589844 5.027344 8.675781 5.070312 8.75 C 5.15625 8.601562 5.316406 8.5 5.5 8.5 L 7.5 8.5 C 7.683594 8.5 7.84375 8.601562 7.929688 8.75 C 7.972656 8.675781 8 8.589844 8 8.5 C 8 8.222656 7.777344 8 7.5 8 Z M 10.5 8 C 10.222656 8 10 8.222656 10 8.5 C 10 8.589844 10.027344 8.675781 10.070312 8.75 C 10.15625 8.601562 10.316406 8.5 10.5 8.5 L 26.5 8.5 C 26.683594 8.5 26.84375 8.601562 26.929688 8.75 C 26.972656 8.675781 27 8.589844 27 8.5 C 27 8.222656 26.777344 8 26.5 8 Z M 10.5 8 "/>
<path style=" stroke:none;fill-rule:nonzero;fill:rgb(0%,0%,0%);fill-opacity:0.4;" d="M 5.058594 8.75 C 5.023438 8.820312 5 8.898438 5 8.984375 C 5 9.261719 5.222656 9.484375 5.5 9.484375 L 7.5 9.484375 C 7.777344 9.484375 8 9.261719 8 8.984375 C 8 8.898438 7.976562 8.820312 7.941406 8.75 C 7.855469 8.90625 7.691406 9.011719 7.5 9.011719 L 5.5 9.011719 C 5.308594 9.011719 5.144531 8.90625 5.058594 8.75 Z M 10.058594 8.75 C 10.023438 8.820312 10 8.898438 10 8.984375 C 10 9.261719 10.222656 9.484375 10.5 9.484375 L 26.5 9.484375 C 26.777344 9.484375 27 9.261719 27 8.984375 C 27 8.898438 26.976562 8.820312 26.941406 8.75 C 26.855469 8.90625 26.691406 9.011719 26.5 9.011719 L 10.5 9.011719 C 10.308594 9.011719 10.144531 8.90625 10.058594 8.75 Z M 10.058594 8.75 "/>
<path style=" stroke:none;fill-rule:nonzero;fill:rgb(50.588238%,78.039217%,51.764709%);fill-opacity:0.996078;" d="M 5.5 11 L 7.5 11 C 7.777344 11 8 11.226562 8 11.5 C 8 11.777344 7.777344 12 7.5 12 L 5.5 12 C 5.222656 12 5 11.777344 5 11.5 C 5 11.226562 5.222656 11 5.5 11 Z M 5.5 11 "/>
<path style=" stroke:none;fill-rule:nonzero;fill:rgb(87.843138%,87.843138%,87.843138%);fill-opacity:0.996078;" d="M 10.5 11 L 19.5 11 C 19.777344 11 20 11.226562 20 11.5 C 20 11.777344 19.777344 12 19.5 12 L 10.5 12 C 10.222656 12 10 11.777344 10 11.5 C 10 11.226562 10.222656 11 10.5 11 Z M 10.5 11 "/>
<path style=" stroke:none;fill-rule:nonzero;fill:rgb(100%,100%,100%);fill-opacity:0.4;" d="M 5.5 11 C 5.222656 11 5 11.222656 5 11.5 C 5 11.59375 5.027344 11.675781 5.070312 11.75 C 5.15625 11.601562 5.316406 11.5 5.5 11.5 L 7.5 11.5 C 7.683594 11.5 7.84375 11.601562 7.929688 11.75 C 7.972656 11.675781 8 11.59375 8 11.5 C 8 11.222656 7.777344 11 7.5 11 Z M 10.5 11 C 10.222656 11 10 11.222656 10 11.5 C 10 11.59375 10.027344 11.675781 10.070312 11.75 C 10.15625 11.601562 10.316406 11.5 10.5 11.5 L 19.496094 11.5 C 19.683594 11.5 19.84375 11.601562 19.929688 11.75 C 19.972656 11.675781 19.996094 11.59375 19.996094 11.5 C 19.996094 11.222656 19.773438 11 19.496094 11 Z M 10.5 11 "/>
<path style=" stroke:none;fill-rule:nonzero;fill:rgb(0%,0%,0%);fill-opacity:0.4;" d="M 5.058594 11.75 C 5.023438 11.820312 5 11.902344 5 11.988281 C 5 12.265625 5.222656 12.488281 5.5 12.488281 L 7.5 12.488281 C 7.777344 12.488281 8 12.265625 8 11.988281 C 8 11.902344 7.976562 11.820312 7.941406 11.75 C 7.855469 11.90625 7.691406 12.011719 7.5 12.011719 L 5.5 12.011719 C 5.308594 12.011719 5.144531 11.90625 5.058594 11.75 Z M 10.058594 11.75 C 10.023438 11.820312 10 11.902344 10 11.988281 C 10 12.265625 10.222656 12.488281 10.5 12.488281 L 19.5 12.488281 C 19.777344 12.488281 20 12.265625 20 11.988281 C 20 11.902344 19.976562 11.820312 19.941406 11.75 C 19.855469 11.90625 19.691406 12.011719 19.5 12.011719 L 10.5 12.011719 C 10.308594 12.011719 10.144531 11.90625 10.058594 11.75 Z M 10.058594 11.75 "/>
<path style=" stroke:none;fill-rule:nonzero;fill:rgb(50.588238%,78.039217%,51.764709%);fill-opacity:0.996078;" d="M 5.5 14 L 7.5 14 C 7.777344 14 8 14.222656 8 14.5 C 8 14.773438 7.777344 15 7.5 15 L 5.5 15 C 5.222656 15 5 14.773438 5 14.5 C 5 14.222656 5.222656 14 5.5 14 Z M 5.5 14 "/>
<path style=" stroke:none;fill-rule:nonzero;fill:rgb(87.843138%,87.843138%,87.843138%);fill-opacity:0.996078;" d="M 10.5 14 L 23.5 14 C 23.777344 14 24 14.222656 24 14.5 C 24 14.777344 23.777344 15 23.5 15 L 10.5 15 C 10.222656 15 10 14.777344 10 14.5 C 10 14.222656 10.222656 14 10.5 14 Z M 10.5 14 "/>
<path style=" stroke:none;fill-rule:nonzero;fill:rgb(100%,100%,100%);fill-opacity:0.4;" d="M 5.5 14 C 5.222656 14 5 14.222656 5 14.5 C 5 14.589844 5.027344 14.675781 5.070312 14.746094 C 5.15625 14.597656 5.316406 14.5 5.5 14.5 L 7.5 14.5 C 7.683594 14.5 7.84375 14.597656 7.929688 14.746094 C 7.972656 14.675781 8 14.589844 8 14.5 C 8 14.222656 7.777344 14 7.5 14 Z M 10.5 14 C 10.222656 14 10 14.222656 10 14.5 C 10 14.589844 10.027344 14.675781 10.070312 14.746094 C 10.15625 14.597656 10.316406 14.5 10.5 14.5 L 23.496094 14.5 C 23.679688 14.5 23.839844 14.597656 23.925781 14.746094 C 23.96875 14.675781 23.996094 14.589844 23.996094 14.5 C 23.996094 14.222656 23.773438 14 23.496094 14 Z M 10.5 14 "/>
<path style=" stroke:none;fill-rule:nonzero;fill:rgb(0%,0%,0%);fill-opacity:0.4;" d="M 5.058594 14.746094 C 5.023438 14.816406 5 14.898438 5 14.984375 C 5 15.261719 5.222656 15.484375 5.5 15.484375 L 7.5 15.484375 C 7.777344 15.484375 8 15.261719 8 14.984375 C 8 14.898438 7.976562 14.816406 7.941406 14.746094 C 7.855469 14.902344 7.691406 15.007812 7.5 15.007812 L 5.5 15.007812 C 5.308594 15.007812 5.144531 14.902344 5.058594 14.746094 Z M 10.058594 14.746094 C 10.023438 14.816406 10 14.898438 10 14.984375 C 10 15.261719 10.222656 15.484375 10.5 15.484375 L 23.496094 15.484375 C 23.773438 15.484375 23.996094 15.261719 23.996094 14.984375 C 23.996094 14.898438 23.972656 14.816406 23.933594 14.746094 C 23.851562 14.902344 23.6875 15.007812 23.496094 15.007812 L 10.5 15.007812 C 10.308594 15.007812 10.144531 14.902344 10.058594 14.746094 Z M 10.058594 14.746094 "/>
<path style=" stroke:none;fill-rule:nonzero;fill:rgb(50.588238%,78.039217%,51.764709%);fill-opacity:0.996078;" d="M 5.5 17 L 7.5 17 C 7.777344 17 8 17.222656 8 17.5 C 8 17.777344 7.777344 18 7.5 18 L 5.5 18 C 5.222656 18 5 17.777344 5 17.5 C 5 17.222656 5.222656 17 5.5 17 Z M 5.5 17 "/>
<path style=" stroke:none;fill-rule:nonzero;fill:rgb(87.843138%,87.843138%,87.843138%);fill-opacity:0.996078;" d="M 10.5 17 L 17.5 17 C 17.777344 17 18 17.222656 18 17.5 C 18 17.773438 17.777344 18 17.5 18 L 10.5 18 C 10.222656 18 10 17.773438 10 17.5 C 10 17.222656 10.222656 17 10.5 17 Z M 10.5 17 "/>
<path style=" stroke:none;fill-rule:nonzero;fill:rgb(100%,100%,100%);fill-opacity:0.4;" d="M 5.5 17 C 5.222656 17 5 17.222656 5 17.5 C 5 17.589844 5.027344 17.675781 5.070312 17.75 C 5.15625 17.601562 5.316406 17.5 5.5 17.5 L 7.5 17.5 C 7.683594 17.5 7.84375 17.601562 7.929688 17.75 C 7.972656 17.675781 8 17.589844 8 17.5 C 8 17.222656 7.777344 17 7.5 17 Z M 10.5 17 C 10.222656 17 10 17.222656 10 17.5 C 10 17.589844 10.027344 17.675781 10.070312 17.75 C 10.15625 17.601562 10.316406 17.5 10.5 17.5 L 17.5 17.5 C 17.683594 17.5 17.84375 17.601562 17.929688 17.75 C 17.972656 17.675781 18 17.589844 18 17.5 C 18 17.222656 17.773438 17 17.5 17 Z M 10.5 17 "/>
<path style=" stroke:none;fill-rule:nonzero;fill:rgb(0%,0%,0%);fill-opacity:0.4;" d="M 5.058594 17.746094 C 5.023438 17.820312 5 17.898438 5 17.984375 C 5 18.261719 5.222656 18.484375 5.5 18.484375 L 7.5 18.484375 C 7.777344 18.484375 8 18.261719 8 17.984375 C 8 17.898438 7.976562 17.820312 7.941406 17.746094 C 7.855469 17.90625 7.691406 18.011719 7.5 18.011719 L 5.5 18.011719 C 5.308594 18.011719 5.144531 17.90625 5.058594 17.746094 Z M 10.058594 17.746094 C 10.023438 17.820312 10 17.898438 10 17.984375 C 10 18.261719 10.222656 18.484375 10.5 18.484375 L 17.5 18.484375 C 17.777344 18.484375 18 18.261719 18 17.984375 C 18 17.898438 17.980469 17.820312 17.941406 17.746094 C 17.855469 17.90625 17.691406 18.011719 17.5 18.011719 L 10.5 18.011719 C 10.308594 18.011719 10.144531 17.90625 10.058594 17.746094 Z M 10.058594 17.746094 "/>
<path style=" stroke:none;fill-rule:nonzero;fill:rgb(50.588238%,78.039217%,51.764709%);fill-opacity:0.996078;" d="M 5.5 20 L 7.5 20 C 7.777344 20 8 20.222656 8 20.5 C 8 20.773438 7.777344 21 7.5 21 L 5.5 21 C 5.222656 21 5 20.773438 5 20.5 C 5 20.222656 5.222656 20 5.5 20 Z M 5.5 20 "/>
<path style=" stroke:none;fill-rule:nonzero;fill:rgb(87.843138%,87.843138%,87.843138%);fill-opacity:0.996078;" d="M 10.5 20 L 26.5 20 C 26.777344 20 27 20.222656 27 20.5 C 27 20.773438 26.777344 21 26.5 21 L 10.5 21 C 10.222656 21 10 20.773438 10 20.5 C 10 20.222656 10.222656 20 10.5 20 Z M 10.5 20 "/>
<path style=" stroke:none;fill-rule:nonzero;fill:rgb(100%,100%,100%);fill-opacity:0.4;" d="M 5.5 20 C 5.222656 20 5 20.222656 5 20.5 C 5 20.589844 5.027344 20.675781 5.070312 20.746094 C 5.15625 20.597656 5.316406 20.5 5.5 20.5 L 7.5 20.5 C 7.683594 20.5 7.84375 20.597656 7.929688 20.746094 C 7.972656 20.675781 8 20.589844 8 20.5 C 8 20.222656 7.777344 20 7.5 20 Z M 10.5 20 C 10.222656 20 10 20.222656 10 20.5 C 10 20.589844 10.027344 20.675781 10.070312 20.746094 C 10.15625 20.597656 10.316406 20.5 10.5 20.5 L 26.5 20.5 C 26.683594 20.5 26.84375 20.597656 26.929688 20.746094 C 26.972656 20.675781 27 20.589844 27 20.5 C 27 20.222656 26.777344 20 26.5 20 Z M 10.5 20 "/>
<path style=" stroke:none;fill-rule:nonzero;fill:rgb(0%,0%,0%);fill-opacity:0.4;" d="M 5.058594 20.746094 C 5.023438 20.816406 5 20.898438 5 20.984375 C 5 21.261719 5.222656 21.484375 5.5 21.484375 L 7.5 21.484375 C 7.777344 21.484375 8 21.261719 8 20.984375 C 8 20.898438 7.976562 20.816406 7.941406 20.746094 C 7.855469 20.902344 7.691406 21.007812 7.5 21.007812 L 5.5 21.007812 C 5.308594 21.007812 5.144531 20.902344 5.058594 20.746094 Z M 10.058594 20.746094 C 10.023438 20.816406 10 20.898438 10 20.984375 C 10 21.261719 10.222656 21.484375 10.5 21.484375 L 26.5 21.484375 C 26.777344 21.484375 27 21.261719 27 20.984375 C 27 20.898438 26.976562 20.816406 26.941406 20.746094 C 26.855469 20.902344 26.691406 21.007812 26.5 21.007812 L 10.5 21.007812 C 10.308594 21.007812 10.144531 20.902344 10.058594 20.746094 Z M 10.058594 20.746094 "/>
<path style=" stroke:none;fill-rule:nonzero;fill:rgb(50.588238%,78.039217%,51.764709%);fill-opacity:0.996078;" d="M 5.5 23 L 7.5 23 C 7.777344 23 8 23.222656 8 23.5 C 8 23.777344 7.777344 24 7.5 24 L 5.5 24 C 5.222656 24 5 23.777344 5 23.5 C 5 23.222656 5.222656 23 5.5 23 Z M 5.5 23 "/>
<path style=" stroke:none;fill-rule:nonzero;fill:rgb(87.843138%,87.843138%,87.843138%);fill-opacity:0.996078;" d="M 10.5 23 L 19.5 23 C 19.777344 23 20 23.222656 20 23.5 C 20 23.773438 19.777344 24 19.5 24 L 10.5 24 C 10.222656 24 10 23.773438 10 23.5 C 10 23.222656 10.222656 23 10.5 23 Z M 10.5 23 "/>
<path style=" stroke:none;fill-rule:nonzero;fill:rgb(100%,100%,100%);fill-opacity:0.4;" d="M 5.5 23 C 5.222656 23 5 23.222656 5 23.5 C 5 23.589844 5.027344 23.675781 5.070312 23.75 C 5.15625 23.601562 5.316406 23.5 5.5 23.5 L 7.5 23.5 C 7.683594 23.5 7.84375 23.601562 7.929688 23.75 C 7.972656 23.675781 8 23.589844 8 23.5 C 8 23.222656 7.777344 23 7.5 23 Z M 10.5 23 C 10.222656 23 10 23.222656 10 23.5 C 10 23.589844 10.027344 23.675781 10.070312 23.75 C 10.15625 23.601562 10.316406 23.5 10.5 23.5 L 19.496094 23.5 C 19.683594 23.5 19.84375 23.601562 19.929688 23.75 C 19.972656 23.675781 19.996094 23.589844 19.996094 23.5 C 19.996094 23.222656 19.773438 23 19.496094 23 Z M 10.5 23 "/>
<path style=" stroke:none;fill-rule:nonzero;fill:rgb(0%,0%,0%);fill-opacity:0.4;" d="M 5.058594 23.746094 C 5.023438 23.820312 5 23.898438 5 23.984375 C 5 24.261719 5.222656 24.484375 5.5 24.484375 L 7.5 24.484375 C 7.777344 24.484375 8 24.261719 8 23.984375 C 8 23.898438 7.976562 23.820312 7.941406 23.746094 C 7.855469 23.90625 7.691406 24.011719 7.5 24.011719 L 5.5 24.011719 C 5.308594 24.011719 5.144531 23.90625 5.058594 23.746094 Z M 10.058594 23.746094 C 10.023438 23.820312 10 23.898438 10 23.984375 C 10 24.261719 10.222656 24.484375 10.5 24.484375 L 19.5 24.484375 C 19.777344 24.484375 20 24.261719 20 23.984375 C 20 23.898438 19.976562 23.820312 19.941406 23.746094 C 19.855469 23.90625 19.691406 24.011719 19.5 24.011719 L 10.5 24.011719 C 10.308594 24.011719 10.144531 23.90625 10.058594 23.746094 Z M 10.058594 23.746094 "/>
<path style=" stroke:none;fill-rule:nonzero;fill:url(#linear1);" d="M 4 4 L 28 4 C 29.105469 4 30 4.894531 30 6 L 30 26 C 30 27.105469 29.105469 28 28 28 L 4 28 C 2.894531 28 2 27.105469 2 26 L 2 6 C 2 4.894531 2.894531 4 4 4 Z M 4 4 "/>
</g>
</svg>
