
<svg xmlns="http://www.w3.org/2000/svg" xmlns:xlink="http://www.w3.org/1999/xlink" width="32" height="32" viewBox="0 0 32 32" version="1.1">
<defs>
<linearGradient id="linear0" gradientUnits="userSpaceOnUse" x1="8.466666" y1="-199.125" x2="8.466666" y2="-213.941666" gradientTransform="matrix(1.889764,0,0,1.889764,0,406.299234)">
<stop offset="0" style="stop-color:rgb(0%,0%,0%);stop-opacity:0.2;"/>
<stop offset="1" style="stop-color:rgb(100%,100%,100%);stop-opacity:0;"/>
</linearGradient>
</defs>
<g id="surface1">
<path style=" stroke:none;fill-rule:nonzero;fill:rgb(100%,43.921569%,26.274511%);fill-opacity:1;" d="M 16 1.996094 C 23.734375 1.996094 30.003906 8.265625 30.003906 16 C 30.003906 23.734375 23.734375 30 16 30 C 8.265625 30 1.996094 23.734375 1.996094 16 C 1.996094 8.265625 8.265625 1.996094 16 1.996094 Z M 16 1.996094 "/>
<path style=" stroke:none;fill-rule:nonzero;fill:rgb(0%,0%,0%);fill-opacity:0.2;" d="M 2.007812 16.375 C 2.003906 16.5 2 16.625 2 16.75 C 2 24.480469 8.269531 30.75 16 30.75 C 23.730469 30.75 30 24.480469 30 16.75 C 30 16.625 29.996094 16.5 29.992188 16.375 C 29.792969 23.933594 23.605469 30 16 30 C 8.394531 30 2.207031 23.933594 2.007812 16.375 Z M 2.007812 16.375 "/>
<path style=" stroke:none;fill-rule:nonzero;fill:rgb(0%,0%,0%);fill-opacity:0.4;" d="M 16 4 C 9.351562 4 4 9.351562 4 16 C 4 16.085938 4 16.175781 4.003906 16.261719 C 4.140625 9.734375 9.4375 4.523438 16 4.523438 C 22.5625 4.523438 27.859375 9.734375 27.996094 16.261719 C 28 16.175781 28 16.085938 28 16 C 28 9.351562 22.648438 4 16 4 Z M 16 4 "/>
<path style=" stroke:none;fill-rule:nonzero;fill:rgb(93.333334%,93.333334%,93.333334%);fill-opacity:1;" d="M 16 1.996094 C 8.242188 1.996094 2 8.242188 2 16 C 2 23.757812 8.242188 30.003906 16 30.003906 C 23.757812 30.003906 30 23.757812 30 16 C 30 8.242188 23.757812 1.996094 16 1.996094 Z M 16 4 C 22.648438 4 28 9.351562 28 16 C 28 22.648438 22.648438 28 16 28 C 9.351562 28 4 22.648438 4 16 C 4 9.351562 9.351562 4 16 4 Z M 16 4 "/>
<path style=" stroke:none;fill-rule:nonzero;fill:rgb(0%,0%,0%);fill-opacity:0.4;" d="M 2.007812 15.746094 C 2.007812 15.828125 2 15.910156 2 15.996094 C 2 23.726562 8.269531 29.992188 16 29.992188 C 23.730469 29.992188 30 23.726562 30 15.996094 C 30 15.910156 29.992188 15.828125 29.992188 15.746094 C 29.859375 23.363281 23.648438 29.496094 16 29.496094 C 8.351562 29.496094 2.140625 23.363281 2.007812 15.746094 Z M 2.007812 15.746094 "/>
<path style=" stroke:none;fill-rule:nonzero;fill:rgb(100%,100%,100%);fill-opacity:0.6;" d="M 16 2 C 8.269531 2 2 8.269531 2 16 C 2 16.082031 2.003906 16.164062 2.003906 16.25 C 2.136719 8.632812 8.351562 2.5 16 2.5 C 23.648438 2.5 29.863281 8.632812 29.996094 16.25 C 29.996094 16.164062 30 16.082031 30 16 C 30 8.269531 23.730469 2 16 2 Z M 16 2 "/>
<path style=" stroke:none;fill-rule:nonzero;fill:rgb(100%,100%,100%);fill-opacity:0.8;" d="M 16 28.5 C 9.351562 28.5 4 23.148438 4 16.5 C 4 16.414062 4 16.324219 4.003906 16.238281 C 4.140625 22.765625 9.4375 27.976562 16 27.976562 C 22.5625 27.976562 27.859375 22.765625 27.996094 16.238281 C 28 16.324219 28 16.414062 28 16.5 C 28 23.148438 22.648438 28.5 16 28.5 Z M 16 28.5 "/>
<path style=" stroke:none;fill-rule:nonzero;fill:rgb(87.843138%,87.843138%,87.843138%);fill-opacity:0.996078;" d="M 16 7 C 13.507812 7 11.257812 8.003906 9.628906 9.628906 L 11.046875 11.046875 C 12.3125 9.78125 14.0625 9 16 9 C 19.878906 9 23 12.121094 23 16 L 21 16 L 24 19 L 27 16 L 25 16 C 25 11.015625 20.984375 7 16 7 Z M 8 13 L 5 16 L 7 16 C 7 20.984375 11.015625 25 16 25 C 18.492188 25 20.742188 23.996094 22.371094 22.371094 L 20.953125 20.953125 C 19.6875 22.21875 17.9375 23 16 23 C 12.121094 23 9 19.878906 9 16 L 11 16 Z M 8 13 "/>
<path style=" stroke:none;fill-rule:nonzero;fill:rgb(100%,100%,100%);fill-opacity:0.6;" d="M 16 7 C 13.507812 7 11.257812 8.003906 9.628906 9.628906 L 9.886719 9.886719 C 11.488281 8.402344 13.632812 7.5 16 7.5 C 20.984375 7.5 25 11.515625 25 16.5 L 26.5 16.5 L 27 16 L 25 16 C 25 11.015625 20.984375 7 16 7 Z M 8 13 L 5 16 L 5.5 16 L 8 13.5 L 10.5 16 L 11 16 Z M 21 16 L 21.5 16.5 L 23 16.5 C 23 16.332031 22.992188 16.164062 22.984375 16 Z M 9 16.5 C 9 20.378906 12.121094 23.5 16 23.5 C 17.9375 23.5 19.6875 22.71875 20.953125 21.453125 L 22.113281 22.613281 C 22.199219 22.535156 22.285156 22.453125 22.371094 22.371094 L 20.953125 20.953125 C 19.6875 22.21875 17.9375 23 16 23 C 12.289062 23 9.273438 20.144531 9.019531 16.5 Z M 9 16.5 "/>
<path style=" stroke:none;fill-rule:nonzero;fill:rgb(0%,0%,0%);fill-opacity:0.4;" d="M 16 9 C 14.0625 9 12.3125 9.78125 11.046875 11.046875 L 9.886719 9.886719 C 9.800781 9.964844 9.714844 10.046875 9.628906 10.128906 L 11.046875 11.546875 C 12.3125 10.28125 14.0625 9.5 16 9.5 C 19.710938 9.5 22.726562 12.355469 22.984375 16 L 23 16 C 23 12.121094 19.878906 9 16 9 Z M 5.5 16 L 5 16.5 L 7 16.5 C 7 21.484375 11.015625 25.5 16 25.5 C 18.492188 25.5 20.742188 24.496094 22.371094 22.871094 L 22.113281 22.613281 C 20.511719 24.097656 18.367188 25 16 25 C 11.015625 25 7 20.984375 7 16 Z M 9 16 C 9 16.167969 9.007812 16.335938 9.015625 16.5 L 11 16.5 L 10.5 16 Z M 21 16.5 L 24 19.5 L 27 16.5 L 26.5 16.5 L 24 19 L 21.5 16.5 Z M 21 16.5 "/>
<path style=" stroke:none;fill-rule:nonzero;fill:url(#linear0);" d="M 16 2 C 23.730469 2 30 8.269531 30 16 C 30 23.730469 23.730469 30 16 30 C 8.269531 30 2 23.730469 2 16 C 2 8.269531 8.269531 2 16 2 Z M 16 2 "/>
</g>
</svg>
