
<svg xmlns="http://www.w3.org/2000/svg" xmlns:xlink="http://www.w3.org/1999/xlink" width="32" height="32" viewBox="0 0 32 32" version="1.1">
<defs>
<radialGradient id="radial0" gradientUnits="userSpaceOnUse" cx="32" cy="32" fx="32" fy="32" r="20" gradientTransform="matrix(0.6,0,0,0.45,-3.200059,1.600054)">
<stop offset="0" style="stop-color:rgb(100%,65.490198%,14.901961%);stop-opacity:0.4;"/>
<stop offset="1" style="stop-color:rgb(61.176473%,80.000001%,39.607844%);stop-opacity:0;"/>
</radialGradient>
<linearGradient id="linear0" gradientUnits="userSpaceOnUse" x1="8.466666" y1="-200.183334" x2="8.466666" y2="-212.883331" gradientTransform="matrix(1.889764,0,0,1.889764,-1.999998,406.299234)">
<stop offset="0" style="stop-color:rgb(0%,0%,0%);stop-opacity:0.2;"/>
<stop offset="1" style="stop-color:rgb(100%,100%,100%);stop-opacity:0;"/>
</linearGradient>
</defs>
<g id="surface1">
<path style=" stroke:none;fill-rule:nonzero;fill:rgb(38.039216%,38.039216%,38.039216%);fill-opacity:1;" d="M 4 4 L 28 4 C 29.105469 4 30 4.894531 30 6 L 30 26 C 30 27.105469 29.105469 28 28 28 L 4 28 C 2.894531 28 2 27.105469 2 26 L 2 6 C 2 4.894531 2.894531 4 4 4 Z M 4 4 "/>
<path style="fill-rule:nonzero;fill:rgb(14.901961%,65.098041%,60.392159%);fill-opacity:1;stroke-width:1.058333;stroke-linecap:round;stroke-linejoin:round;stroke:rgb(14.901961%,65.098041%,60.392159%);stroke-opacity:0.2;stroke-miterlimit:4;" d="M 11.108365 -210.502084 C 11.002945 -210.500017 10.909928 -210.435938 10.868587 -210.338786 L 8.431526 -204.491081 L 6.052343 -208.778158 C 6.004801 -208.864974 5.913851 -208.918718 5.814632 -208.914584 C 5.71748 -208.912517 5.628597 -208.856706 5.583121 -208.767823 L 4.599202 -206.797917 L 2.778125 -206.797917 C 2.705778 -206.797917 2.645833 -206.737972 2.645833 -206.665625 L 2.645833 -206.401042 C 2.645833 -206.328695 2.705778 -206.26875 2.778125 -206.26875 L 3.175 -206.26875 C 3.177067 -206.26875 3.179134 -206.26875 3.179134 -206.26875 L 4.760433 -206.26875 C 4.861718 -206.26875 4.954736 -206.324561 5.000211 -206.413444 L 5.833235 -208.083627 L 8.235156 -203.759343 C 8.284765 -203.67046 8.37985 -203.618783 8.481136 -203.624984 C 8.582421 -203.629118 8.671305 -203.69113 8.710579 -203.784148 L 11.149706 -209.638054 L 12.999723 -206.403109 C 13.047265 -206.320427 13.134081 -206.270818 13.229166 -206.26875 L 14.281298 -206.26875 C 14.283365 -206.26875 14.285432 -206.26875 14.287499 -206.26875 L 14.684374 -206.26875 C 14.756721 -206.26875 14.816666 -206.328695 14.816666 -206.401042 L 14.816666 -206.665625 C 14.816666 -206.737972 14.756721 -206.797917 14.684374 -206.797917 L 13.382128 -206.797917 L 11.341943 -210.369792 C 11.298535 -210.446273 11.219986 -210.495882 11.131103 -210.502084 C 11.122835 -210.502084 11.116634 -210.502084 11.108365 -210.502084 Z M 11.108365 -210.502084 " transform="matrix(1.889764,0,0,1.889764,0,406.299234)"/>
<path style=" stroke:none;fill-rule:nonzero;fill:url(#radial0);" d="M 8 6 L 8 8 L 6 8 L 6 9 L 8 9 L 8 13 L 6 13 L 6 14 L 8 14 L 8 18 L 6 18 L 6 19 L 8 19 L 8 23 L 6 23 L 6 24 L 8 24 L 8 26 L 9 26 L 9 24 L 13 24 L 13 26 L 14 26 L 14 24 L 18 24 L 18 26 L 19 26 L 19 24 L 23 24 L 23 26 L 24 26 L 24 24 L 26 24 L 26 23 L 24 23 L 24 19 L 26 19 L 26 18 L 24 18 L 24 14 L 26 14 L 26 13 L 24 13 L 24 9 L 26 9 L 26 8 L 24 8 L 24 6 L 23 6 L 23 8 L 19 8 L 19 6 L 18 6 L 18 8 L 14 8 L 14 6 L 13 6 L 13 8 L 9 8 L 9 6 Z M 9 9 L 13 9 L 13 13 L 9 13 Z M 14 9 L 18 9 L 18 13 L 14 13 Z M 19 9 L 23 9 L 23 13 L 19 13 Z M 9 14 L 13 14 L 13 18 L 9 18 Z M 14 14 L 18 14 L 18 18 L 14 18 Z M 19 14 L 23 14 L 23 18 L 19 18 Z M 9 19 L 13 19 L 13 23 L 9 23 Z M 14 19 L 18 19 L 18 23 L 14 23 Z M 19 19 L 23 19 L 23 23 L 19 23 Z M 19 19 "/>
<path style=" stroke:none;fill-rule:nonzero;fill:rgb(77.254903%,88.235295%,64.705884%);fill-opacity:1;" d="M 20.992188 8.5 C 20.792969 8.503906 20.617188 8.625 20.539062 8.808594 L 15.933594 19.859375 L 11.4375 11.757812 C 11.347656 11.59375 11.175781 11.492188 10.988281 11.5 C 10.804688 11.503906 10.636719 11.609375 10.550781 11.777344 L 8.691406 15.5 L 5.25 15.5 C 5.113281 15.5 5 15.613281 5 15.75 L 5 16.25 C 5 16.386719 5.113281 16.5 5.25 16.5 L 6 16.5 C 6.003906 16.5 6.007812 16.5 6.007812 16.5 L 8.996094 16.5 C 9.1875 16.5 9.363281 16.394531 9.449219 16.226562 L 11.023438 13.070312 L 15.5625 21.242188 C 15.65625 21.410156 15.835938 21.507812 16.027344 21.496094 C 16.21875 21.488281 16.386719 21.371094 16.460938 21.195312 L 21.070312 10.132812 L 24.566406 16.246094 C 24.65625 16.402344 24.820312 16.496094 25 16.5 L 26.988281 16.5 C 26.992188 16.5 26.996094 16.5 27 16.5 L 27.75 16.5 C 27.886719 16.5 28 16.386719 28 16.25 L 28 15.75 C 28 15.613281 27.886719 15.5 27.75 15.5 L 25.289062 15.5 L 21.433594 8.75 C 21.351562 8.605469 21.203125 8.511719 21.035156 8.5 C 21.019531 8.5 21.007812 8.5 20.992188 8.5 Z M 20.992188 8.5 "/>
<path style=" stroke:none;fill-rule:nonzero;fill:rgb(0%,0%,0%);fill-opacity:0.4;" d="M 3.5 5 C 3.777344 5 4 5.222656 4 5.5 C 4 5.777344 3.777344 6 3.5 6 C 3.222656 6 3 5.777344 3 5.5 C 3 5.222656 3.222656 5 3.5 5 Z M 3.5 5 "/>
<path style=" stroke:none;fill-rule:nonzero;fill:rgb(0%,0%,0%);fill-opacity:0.4;" d="M 3.5 5 C 3.222656 5 3 5.222656 3 5.5 C 3 5.542969 3.015625 5.585938 3.023438 5.625 C 3.082031 5.410156 3.265625 5.25 3.5 5.25 C 3.734375 5.25 3.917969 5.410156 3.976562 5.625 C 3.984375 5.585938 4 5.542969 4 5.5 C 4 5.222656 3.777344 5 3.5 5 Z M 3.5 5 "/>
<path style=" stroke:none;fill-rule:nonzero;fill:rgb(100%,100%,100%);fill-opacity:0.4;" d="M 3.5 6.25 C 3.222656 6.25 3 6.027344 3 5.75 C 3 5.707031 3.015625 5.664062 3.027344 5.625 C 3.082031 5.839844 3.265625 6 3.5 6 C 3.734375 6 3.917969 5.839844 3.976562 5.625 C 3.984375 5.664062 4 5.707031 4 5.75 C 4 6.027344 3.777344 6.25 3.5 6.25 Z M 3.5 6.25 "/>
<path style=" stroke:none;fill-rule:nonzero;fill:rgb(0%,0%,0%);fill-opacity:0.4;" d="M 28.527344 5 C 28.800781 5 29.027344 5.222656 29.027344 5.5 C 29.027344 5.777344 28.800781 6 28.527344 6 C 28.25 6 28.027344 5.777344 28.027344 5.5 C 28.027344 5.222656 28.25 5 28.527344 5 Z M 28.527344 5 "/>
<path style=" stroke:none;fill-rule:nonzero;fill:rgb(0%,0%,0%);fill-opacity:0.4;" d="M 28.523438 5 C 28.25 5 28.027344 5.222656 28.027344 5.5 C 28.027344 5.542969 28.039062 5.585938 28.050781 5.625 C 28.105469 5.410156 28.292969 5.25 28.527344 5.25 C 28.757812 5.25 28.945312 5.410156 29 5.625 C 29.011719 5.585938 29.023438 5.542969 29.023438 5.5 C 29.023438 5.222656 28.800781 5 28.523438 5 Z M 28.523438 5 "/>
<path style=" stroke:none;fill-rule:nonzero;fill:rgb(100%,100%,100%);fill-opacity:0.4;" d="M 28.523438 6.25 C 28.25 6.25 28.027344 6.027344 28.027344 5.75 C 28.027344 5.707031 28.039062 5.664062 28.050781 5.625 C 28.105469 5.839844 28.292969 6 28.527344 6 C 28.757812 6 28.945312 5.839844 29 5.625 C 29.011719 5.664062 29.027344 5.707031 29.027344 5.75 C 29.027344 6.027344 28.800781 6.25 28.527344 6.25 Z M 28.523438 6.25 "/>
<path style=" stroke:none;fill-rule:nonzero;fill:rgb(0%,0%,0%);fill-opacity:0.4;" d="M 3.5 25.75 C 3.777344 25.75 4 25.972656 4 26.25 C 4 26.527344 3.777344 26.75 3.5 26.75 C 3.222656 26.75 3 26.527344 3 26.25 C 3 25.972656 3.222656 25.75 3.5 25.75 Z M 3.5 25.75 "/>
<path style=" stroke:none;fill-rule:nonzero;fill:rgb(0%,0%,0%);fill-opacity:0.4;" d="M 3.5 25.75 C 3.222656 25.75 3 25.972656 3 26.25 C 3 26.292969 3.015625 26.335938 3.027344 26.375 C 3.082031 26.160156 3.265625 26 3.5 26 C 3.734375 26 3.917969 26.160156 3.976562 26.375 C 3.984375 26.335938 4 26.292969 4 26.25 C 4 25.972656 3.777344 25.75 3.5 25.75 Z M 3.5 25.75 "/>
<path style=" stroke:none;fill-rule:nonzero;fill:rgb(100%,100%,100%);fill-opacity:0.4;" d="M 3.5 27 C 3.222656 27 3 26.777344 3 26.5 C 3 26.457031 3.015625 26.414062 3.027344 26.375 C 3.082031 26.589844 3.265625 26.75 3.5 26.75 C 3.734375 26.75 3.917969 26.589844 3.976562 26.375 C 3.984375 26.414062 4 26.457031 4 26.5 C 4 26.777344 3.777344 27 3.5 27 Z M 3.5 27 "/>
<path style=" stroke:none;fill-rule:nonzero;fill:rgb(0%,0%,0%);fill-opacity:0.4;" d="M 28.527344 25.75 C 28.800781 25.75 29.027344 25.972656 29.027344 26.25 C 29.027344 26.527344 28.800781 26.75 28.527344 26.75 C 28.25 26.75 28.027344 26.527344 28.027344 26.25 C 28.027344 25.972656 28.25 25.75 28.527344 25.75 Z M 28.527344 25.75 "/>
<path style=" stroke:none;fill-rule:nonzero;fill:rgb(0%,0%,0%);fill-opacity:0.4;" d="M 28.523438 25.75 C 28.25 25.75 28.027344 25.972656 28.027344 26.25 C 28.027344 26.292969 28.039062 26.335938 28.050781 26.375 C 28.105469 26.160156 28.292969 26 28.527344 26 C 28.757812 26 28.945312 26.160156 29 26.375 C 29.011719 26.335938 29.023438 26.292969 29.023438 26.25 C 29.023438 25.972656 28.800781 25.75 28.523438 25.75 Z M 28.523438 25.75 "/>
<path style=" stroke:none;fill-rule:nonzero;fill:rgb(100%,100%,100%);fill-opacity:0.4;" d="M 28.523438 27 C 28.25 27 28.027344 26.777344 28.027344 26.5 C 28.027344 26.457031 28.039062 26.414062 28.050781 26.375 C 28.105469 26.589844 28.292969 26.75 28.527344 26.75 C 28.757812 26.75 28.945312 26.589844 29 26.375 C 29.011719 26.414062 29.027344 26.457031 29.027344 26.5 C 29.027344 26.777344 28.800781 27 28.527344 27 Z M 28.523438 27 "/>
<path style=" stroke:none;fill-rule:nonzero;fill:rgb(0%,0%,0%);fill-opacity:0.4;" d="M 3.5 25.75 C 3.222656 25.75 3 25.972656 3 26.25 C 3 26.292969 3.015625 26.335938 3.023438 26.375 C 3.082031 26.160156 3.265625 26 3.5 26 C 3.734375 26 3.917969 26.160156 3.972656 26.375 C 3.984375 26.335938 4 26.292969 4 26.25 C 4 25.972656 3.777344 25.75 3.5 25.75 Z M 3.5 25.75 "/>
<path style=" stroke:none;fill-rule:nonzero;fill:rgb(0%,0%,0%);fill-opacity:0.4;" d="M 21.070312 10.132812 L 16.460938 21.195312 C 16.386719 21.371094 16.21875 21.488281 16.027344 21.496094 C 15.835938 21.507812 15.65625 21.410156 15.5625 21.242188 L 11.023438 13.070312 L 9.449219 16.226562 C 9.363281 16.394531 9.1875 16.5 8.996094 16.5 L 6.007812 16.5 C 6.007812 16.5 6.003906 16.5 6 16.5 L 5.25 16.5 C 5.113281 16.5 5 16.386719 5 16.25 L 5 16.5 C 5 16.636719 5.113281 16.75 5.25 16.75 L 6 16.75 C 6.003906 16.75 6.007812 16.75 6.007812 16.75 L 8.996094 16.75 C 9.1875 16.75 9.363281 16.644531 9.449219 16.476562 L 11.023438 13.320312 L 15.5625 21.492188 C 15.65625 21.660156 15.835938 21.757812 16.027344 21.746094 C 16.21875 21.738281 16.386719 21.621094 16.460938 21.445312 L 21.070312 10.382812 L 24.566406 16.496094 C 24.65625 16.652344 24.820312 16.746094 25 16.75 L 26.988281 16.75 C 26.992188 16.75 26.996094 16.75 27 16.75 L 27.75 16.75 C 27.886719 16.75 28 16.636719 28 16.5 L 28 16.25 C 28 16.386719 27.886719 16.5 27.75 16.5 L 27 16.5 C 26.996094 16.5 26.992188 16.5 26.988281 16.5 L 25 16.5 C 24.820312 16.496094 24.65625 16.402344 24.566406 16.246094 Z M 21.070312 10.132812 "/>
<path style=" stroke:none;fill-rule:nonzero;fill:rgb(100%,100%,100%);fill-opacity:0.4;" d="M 20.992188 8.5 C 20.792969 8.503906 20.617188 8.625 20.539062 8.808594 L 15.933594 19.859375 L 11.4375 11.757812 C 11.347656 11.59375 11.175781 11.496094 10.988281 11.5 C 10.804688 11.503906 10.636719 11.609375 10.550781 11.777344 L 8.691406 15.5 L 5.25 15.5 C 5.113281 15.5 5 15.613281 5 15.75 L 5 16 C 5 15.863281 5.113281 15.75 5.25 15.75 L 8.691406 15.75 L 10.550781 12.027344 C 10.636719 11.859375 10.804688 11.753906 10.988281 11.75 C 11.175781 11.742188 11.347656 11.84375 11.4375 12.007812 L 15.933594 20.109375 L 20.539062 9.058594 C 20.617188 8.875 20.792969 8.753906 20.992188 8.75 C 21.007812 8.75 21.019531 8.75 21.035156 8.75 C 21.203125 8.761719 21.351562 8.855469 21.433594 9 L 25.289062 15.75 L 27.75 15.75 C 27.886719 15.75 28 15.863281 28 16 L 28 15.75 C 28 15.613281 27.886719 15.5 27.75 15.5 L 25.289062 15.5 L 21.433594 8.75 C 21.351562 8.605469 21.203125 8.511719 21.035156 8.5 C 21.019531 8.5 21.007812 8.5 20.992188 8.5 Z M 20.992188 8.5 "/>
<path style=" stroke:none;fill-rule:nonzero;fill:rgb(100%,100%,100%);fill-opacity:0.4;" d="M 4 4 C 2.890625 4 2 4.890625 2 6 L 2 6.484375 C 2 5.375 2.890625 4.484375 4 4.484375 L 28 4.484375 C 29.109375 4.484375 30 5.375 30 6.484375 L 30 6 C 30 4.890625 29.109375 4 28 4 Z M 4 4 "/>
<path style=" stroke:none;fill-rule:nonzero;fill:rgb(0.392157%,0.392157%,0.392157%);fill-opacity:0.4;" d="M 4 27.996094 C 2.890625 27.996094 2 27.105469 2 25.996094 L 2 25.511719 C 2 26.621094 2.890625 27.511719 4 27.511719 L 28 27.511719 C 29.109375 27.511719 30 26.621094 30 25.511719 L 30 25.996094 C 30 27.105469 29.109375 27.996094 28 27.996094 Z M 4 27.996094 "/>
<path style=" stroke:none;fill-rule:nonzero;fill:rgb(0%,0%,0%);fill-opacity:0.2;" d="M 2 26 L 2 26.75 C 2 27.859375 2.890625 28.75 4 28.75 L 28 28.75 C 29.109375 28.75 30 27.859375 30 26.75 L 30 26 C 30 27.109375 29.109375 28 28 28 L 4 28 C 2.890625 28 2 27.109375 2 26 Z M 2 26 "/>
<path style=" stroke:none;fill-rule:nonzero;fill:url(#linear0);" d="M 4 4 L 28 4 C 29.105469 4 30 4.894531 30 6 L 30 26 C 30 27.105469 29.105469 28 28 28 L 4 28 C 2.894531 28 2 27.105469 2 26 L 2 6 C 2 4.894531 2.894531 4 4 4 Z M 4 4 "/>
</g>
</svg>
