
<svg xmlns="http://www.w3.org/2000/svg" xmlns:xlink="http://www.w3.org/1999/xlink" width="32" height="32" viewBox="0 0 32 32" version="1.1">
<defs>
<filter id="alpha" filterUnits="objectBoundingBox" x="0%" y="0%" width="100%" height="100%">
  <feColorMatrix type="matrix" in="SourceGraphic" values="0 0 0 0 1 0 0 0 0 1 0 0 0 0 1 0 0 0 1 0"/>
</filter>
<mask id="mask0">
  <g filter="url(#alpha)">
<rect x="0" y="0" width="32" height="32" style="fill:rgb(0%,0%,0%);fill-opacity:0.628447;stroke:none;"/>
  </g>
</mask>
<radialGradient id="radial0" gradientUnits="userSpaceOnUse" cx="5.102299" cy="25.629883" fx="5.102299" fy="25.629883" r="15.370117" gradientTransform="matrix(-0.0000000306839,-0.520491,0.783442,-0.0000001348,-4.079524,25.655701)">
<stop offset="0" style="stop-color:rgb(14.901961%,65.098041%,60.392159%);stop-opacity:1;"/>
<stop offset="1" style="stop-color:rgb(14.901961%,65.098041%,60.392159%);stop-opacity:0;"/>
</radialGradient>
<clipPath id="clip1">
  <rect x="0" y="0" width="32" height="32"/>
</clipPath>
<g id="surface5" clip-path="url(#clip1)">
<path style=" stroke:none;fill-rule:nonzero;fill:url(#radial0);" d="M 16 16 L 9.628906 22.371094 C 11.257812 23.996094 13.507812 25 16 25 C 20.984375 25 25 20.984375 25 16 Z M 16 16 "/>
</g>
<linearGradient id="linear0" gradientUnits="userSpaceOnUse" x1="8.466666" y1="-199.125" x2="8.466666" y2="-213.941666" gradientTransform="matrix(1.889764,0,0,1.889764,0,406.299234)">
<stop offset="0" style="stop-color:rgb(0%,0%,0%);stop-opacity:0.2;"/>
<stop offset="1" style="stop-color:rgb(100%,100%,100%);stop-opacity:0;"/>
</linearGradient>
<radialGradient id="radial1" gradientUnits="userSpaceOnUse" cx="8.466666" cy="-207.59166" fx="8.466666" fy="-207.59166" r="2.116667" gradientTransform="matrix(0.944882,0,0,0.944882,7.999999,211.149625)">
<stop offset="0" style="stop-color:rgb(100%,100%,100%);stop-opacity:1;"/>
<stop offset="1" style="stop-color:rgb(100%,100%,100%);stop-opacity:0;"/>
</radialGradient>
</defs>
<g id="surface1">
<path style=" stroke:none;fill-rule:nonzero;fill:rgb(87.843138%,87.843138%,87.843138%);fill-opacity:1;" d="M 16 2 C 23.730469 2 30 8.269531 30 16 C 30 23.730469 23.730469 30 16 30 C 8.269531 30 2 23.730469 2 16 C 2 8.269531 8.269531 2 16 2 Z M 16 2 "/>
<path style=" stroke:none;fill-rule:nonzero;fill:rgb(47.058824%,56.470591%,61.176473%);fill-opacity:1;" d="M 16 4 C 22.625 4 28 9.371094 28 16 C 28 22.625 22.625 28 16 28 C 9.375 28 4 22.625 4 16 C 4 9.371094 9.375 4 16 4 Z M 16 4 "/>
<use xlink:href="#surface5" mask="url(#mask0)"/>
<path style=" stroke:none;fill-rule:nonzero;fill:rgb(0%,0%,0%);fill-opacity:0.2;" d="M 2.007812 16.398438 C 2.003906 16.523438 2 16.652344 2 16.78125 C 2 24.511719 8.269531 30.78125 16 30.78125 C 23.730469 30.78125 30 24.511719 30 16.78125 C 30 16.652344 29.996094 16.523438 29.992188 16.398438 C 29.789062 23.953125 23.601562 30.015625 16 30.015625 C 8.398438 30.015625 2.210938 23.953125 2.007812 16.398438 Z M 2.007812 16.398438 "/>
<path style=" stroke:none;fill-rule:nonzero;fill:rgb(0%,0%,0%);fill-opacity:0.4;" d="M 16.433594 16.25 C 16.410156 16.285156 16.386719 16.320312 16.351562 16.351562 L 10.519531 22.1875 C 10.324219 22.382812 10.007812 22.382812 9.8125 22.1875 C 9.78125 22.15625 9.753906 22.121094 9.734375 22.085938 C 9.621094 22.273438 9.648438 22.523438 9.8125 22.6875 C 10.007812 22.882812 10.324219 22.882812 10.519531 22.6875 L 16.351562 16.851562 C 16.519531 16.6875 16.542969 16.441406 16.433594 16.25 Z M 16.433594 16.25 "/>
<path style=" stroke:none;fill-rule:nonzero;fill:rgb(87.843138%,87.843138%,87.843138%);fill-opacity:1;" d="M 15.738281 4.75 C 15.605469 4.757812 15.5 4.867188 15.5 5 L 15.5 8 C 15.5 8.136719 15.613281 8.25 15.75 8.25 L 16.25 8.25 C 16.386719 8.25 16.5 8.136719 16.5 8 L 16.5 5 C 16.5 4.863281 16.386719 4.75 16.25 4.75 L 15.75 4.75 C 15.746094 4.75 15.742188 4.75 15.738281 4.75 Z M 10.710938 6.097656 C 10.667969 6.101562 10.628906 6.109375 10.59375 6.132812 L 10.15625 6.382812 C 10.039062 6.449219 10 6.605469 10.066406 6.722656 L 10.941406 8.238281 C 11.011719 8.359375 11.164062 8.398438 11.28125 8.332031 L 11.71875 8.082031 C 11.835938 8.011719 11.875 7.859375 11.808594 7.738281 L 10.933594 6.222656 C 10.886719 6.140625 10.796875 6.097656 10.710938 6.097656 Z M 21.265625 6.097656 C 21.1875 6.105469 21.109375 6.148438 21.066406 6.222656 L 20.191406 7.738281 C 20.125 7.859375 20.164062 8.011719 20.28125 8.082031 L 20.71875 8.332031 C 20.835938 8.398438 20.988281 8.359375 21.058594 8.238281 L 21.933594 6.722656 C 22 6.605469 21.960938 6.449219 21.84375 6.382812 L 21.40625 6.132812 C 21.363281 6.105469 21.3125 6.09375 21.265625 6.097656 Z M 6.59375 10.03125 C 6.507812 10.035156 6.425781 10.078125 6.382812 10.15625 L 6.132812 10.59375 C 6.0625 10.710938 6.105469 10.863281 6.222656 10.933594 L 7.738281 11.808594 C 7.859375 11.875 8.011719 11.835938 8.082031 11.71875 L 8.332031 11.28125 C 8.398438 11.164062 8.359375 11.011719 8.238281 10.941406 L 6.722656 10.066406 C 6.683594 10.042969 6.636719 10.03125 6.59375 10.03125 Z M 25.394531 10.03125 C 25.355469 10.035156 25.3125 10.046875 25.277344 10.066406 L 23.761719 10.941406 C 23.640625 11.011719 23.601562 11.164062 23.667969 11.28125 L 23.917969 11.71875 C 23.988281 11.835938 24.140625 11.875 24.261719 11.808594 L 25.777344 10.933594 C 25.894531 10.863281 25.9375 10.710938 25.867188 10.59375 L 25.617188 10.15625 C 25.570312 10.074219 25.484375 10.03125 25.394531 10.03125 Z M 4.988281 15.5 C 4.855469 15.507812 4.75 15.617188 4.75 15.75 L 4.75 16.25 C 4.75 16.386719 4.863281 16.5 5 16.5 L 8 16.5 C 8.136719 16.5 8.25 16.386719 8.25 16.25 L 8.25 15.75 C 8.25 15.613281 8.136719 15.5 8 15.5 L 5 15.5 C 4.996094 15.5 4.992188 15.5 4.988281 15.5 Z M 23.988281 15.5 C 23.855469 15.507812 23.75 15.617188 23.75 15.75 L 23.75 16.25 C 23.75 16.386719 23.863281 16.5 24 16.5 L 27 16.5 C 27.136719 16.5 27.25 16.386719 27.25 16.25 L 27.25 15.75 C 27.25 15.613281 27.136719 15.5 27 15.5 L 24 15.5 C 23.996094 15.5 23.992188 15.5 23.988281 15.5 Z M 7.859375 20.15625 C 7.816406 20.160156 7.777344 20.171875 7.738281 20.191406 L 6.222656 21.066406 C 6.105469 21.136719 6.0625 21.289062 6.132812 21.40625 L 6.382812 21.84375 C 6.449219 21.960938 6.605469 22 6.722656 21.933594 L 8.238281 21.058594 C 8.359375 20.988281 8.398438 20.835938 8.332031 20.71875 L 8.082031 20.28125 C 8.035156 20.199219 7.945312 20.15625 7.859375 20.15625 Z M 24.128906 20.15625 C 24.046875 20.160156 23.964844 20.203125 23.917969 20.28125 L 23.667969 20.71875 C 23.601562 20.835938 23.640625 20.988281 23.761719 21.058594 L 25.277344 21.933594 C 25.394531 22 25.550781 21.960938 25.617188 21.84375 L 25.867188 21.40625 C 25.9375 21.289062 25.894531 21.136719 25.777344 21.066406 L 24.261719 20.191406 C 24.21875 20.167969 24.175781 20.15625 24.128906 20.15625 Z M 11.140625 23.636719 C 11.0625 23.640625 10.984375 23.6875 10.941406 23.761719 L 10.066406 25.277344 C 10 25.394531 10.039062 25.550781 10.15625 25.617188 L 10.59375 25.867188 C 10.710938 25.9375 10.863281 25.894531 10.933594 25.777344 L 11.808594 24.261719 C 11.875 24.140625 11.835938 23.988281 11.71875 23.917969 L 11.28125 23.667969 C 11.238281 23.644531 11.1875 23.632812 11.140625 23.636719 Z M 20.835938 23.636719 C 20.792969 23.636719 20.753906 23.648438 20.71875 23.667969 L 20.28125 23.917969 C 20.164062 23.988281 20.125 24.140625 20.191406 24.261719 L 21.066406 25.777344 C 21.136719 25.894531 21.289062 25.9375 21.40625 25.867188 L 21.84375 25.617188 C 21.960938 25.550781 22 25.394531 21.933594 25.277344 L 21.058594 23.761719 C 21.011719 23.679688 20.921875 23.632812 20.835938 23.636719 Z M 15.738281 23.75 C 15.605469 23.757812 15.5 23.867188 15.5 24 L 15.5 27 C 15.5 27.136719 15.613281 27.25 15.75 27.25 L 16.25 27.25 C 16.386719 27.25 16.5 27.136719 16.5 27 L 16.5 24 C 16.5 23.863281 16.386719 23.75 16.25 23.75 L 15.75 23.75 C 15.746094 23.75 15.742188 23.75 15.738281 23.75 Z M 15.738281 23.75 "/>
<path style=" stroke:none;fill-rule:nonzero;fill:url(#linear0);" d="M 16 2 C 23.730469 2 30 8.269531 30 16 C 30 23.730469 23.730469 30 16 30 C 8.269531 30 2 23.730469 2 16 C 2 8.269531 8.269531 2 16 2 Z M 16 2 "/>
<path style=" stroke:none;fill-rule:nonzero;fill:rgb(100%,100%,100%);fill-opacity:0.6;" d="M 16 2 C 8.269531 2 2 8.269531 2 16 C 2 16.082031 2.003906 16.164062 2.003906 16.25 C 2.136719 8.632812 8.351562 2.5 16 2.5 C 23.648438 2.5 29.863281 8.632812 29.996094 16.25 C 29.996094 16.164062 30 16.082031 30 16 C 30 8.269531 23.730469 2 16 2 Z M 16 2 "/>
<path style=" stroke:none;fill-rule:nonzero;fill:rgb(14.901961%,65.098041%,60.392159%);fill-opacity:0.996078;" d="M 16.355469 15.644531 C 16.546875 15.839844 16.546875 16.160156 16.355469 16.355469 L 10.519531 22.1875 C 10.324219 22.382812 10.007812 22.382812 9.8125 22.1875 C 9.617188 21.992188 9.617188 21.675781 9.8125 21.480469 L 15.644531 15.644531 C 15.839844 15.453125 16.160156 15.453125 16.355469 15.644531 Z M 16.355469 15.644531 "/>
<path style=" stroke:none;fill-rule:nonzero;fill:rgb(100%,100%,100%);fill-opacity:0.4;" d="M 16 15.5 C 15.871094 15.5 15.746094 15.546875 15.648438 15.648438 L 9.8125 21.480469 C 9.683594 21.609375 9.640625 21.792969 9.683594 21.960938 C 9.703125 21.875 9.746094 21.796875 9.8125 21.730469 L 15.648438 15.898438 C 15.84375 15.699219 16.15625 15.699219 16.351562 15.898438 C 16.417969 15.960938 16.460938 16.042969 16.484375 16.125 C 16.527344 15.960938 16.484375 15.777344 16.351562 15.648438 C 16.253906 15.546875 16.128906 15.5 16 15.5 Z M 16 15.5 "/>
<path style=" stroke:none;fill-rule:nonzero;fill:rgb(0.392157%,0.392157%,0.392157%);fill-opacity:0.4;" d="M 16 30 C 8.269531 30 2 23.730469 2 16 C 2 15.917969 2.003906 15.835938 2.003906 15.75 C 2.136719 23.367188 8.351562 29.5 16 29.5 C 23.648438 29.5 29.863281 23.367188 29.996094 15.75 C 29.996094 15.835938 30 15.917969 30 16 C 30 23.730469 23.730469 30 16 30 Z M 16 30 "/>
<path style=" stroke:none;fill-rule:nonzero;fill:rgb(0%,0%,0%);fill-opacity:0.4;" d="M 16 4 C 9.375 4 4 9.371094 4 16 C 4 16.082031 4.003906 16.164062 4.003906 16.25 C 4.136719 9.738281 9.457031 4.5 16 4.5 C 22.542969 4.5 27.863281 9.738281 27.996094 16.25 C 27.996094 16.164062 28 16.082031 28 16 C 28 9.371094 22.625 4 16 4 Z M 16 4 "/>
<path style=" stroke:none;fill-rule:nonzero;fill:rgb(100%,100%,100%);fill-opacity:0.4;" d="M 4.003906 16.230469 C 4.003906 16.308594 4 16.386719 4 16.460938 C 4 23.089844 9.375 28.460938 16 28.460938 C 22.625 28.460938 28 23.089844 28 16.460938 C 28 16.386719 27.996094 16.308594 27.996094 16.230469 C 27.871094 22.75 22.550781 28 16 28 C 9.449219 28 4.128906 22.75 4.003906 16.230469 Z M 4.003906 16.230469 "/>
<path style=" stroke:none;fill-rule:nonzero;fill:rgb(100%,100%,100%);fill-opacity:0.4;" d="M 15.738281 4.75 C 15.605469 4.757812 15.5 4.867188 15.5 5 L 15.5 5.25 C 15.5 5.117188 15.605469 5.007812 15.738281 5 C 15.742188 5 15.746094 5 15.75 5 L 16.25 5 C 16.386719 5 16.5 5.113281 16.5 5.25 L 16.5 5 C 16.5 4.863281 16.386719 4.75 16.25 4.75 L 15.75 4.75 C 15.746094 4.75 15.742188 4.75 15.738281 4.75 Z M 10.710938 6.097656 C 10.667969 6.101562 10.628906 6.109375 10.59375 6.132812 L 10.15625 6.382812 C 10.039062 6.449219 10 6.605469 10.066406 6.722656 C 10.089844 6.6875 10.117188 6.65625 10.15625 6.632812 L 10.59375 6.382812 C 10.628906 6.359375 10.667969 6.351562 10.710938 6.347656 C 10.796875 6.347656 10.886719 6.390625 10.933594 6.472656 L 11.804688 7.984375 C 11.847656 7.910156 11.855469 7.820312 11.808594 7.738281 L 10.933594 6.222656 C 10.886719 6.140625 10.796875 6.097656 10.710938 6.097656 Z M 21.265625 6.097656 C 21.1875 6.105469 21.109375 6.148438 21.066406 6.222656 L 20.191406 7.738281 C 20.144531 7.820312 20.152344 7.910156 20.195312 7.984375 L 21.066406 6.472656 C 21.109375 6.398438 21.1875 6.355469 21.265625 6.347656 C 21.3125 6.34375 21.363281 6.355469 21.40625 6.382812 L 21.84375 6.632812 C 21.882812 6.65625 21.910156 6.6875 21.933594 6.722656 C 22 6.605469 21.960938 6.449219 21.84375 6.382812 L 21.40625 6.132812 C 21.363281 6.105469 21.3125 6.09375 21.265625 6.097656 Z M 6.59375 10.03125 C 6.507812 10.035156 6.425781 10.078125 6.382812 10.15625 L 6.132812 10.59375 C 6.085938 10.671875 6.09375 10.761719 6.132812 10.835938 L 6.382812 10.40625 C 6.425781 10.328125 6.507812 10.285156 6.59375 10.28125 C 6.636719 10.28125 6.683594 10.292969 6.722656 10.316406 L 8.238281 11.191406 C 8.277344 11.214844 8.308594 11.25 8.328125 11.285156 L 8.332031 11.28125 C 8.398438 11.164062 8.359375 11.011719 8.238281 10.941406 L 6.722656 10.066406 C 6.683594 10.042969 6.636719 10.03125 6.59375 10.03125 Z M 25.394531 10.03125 C 25.355469 10.035156 25.3125 10.046875 25.277344 10.066406 L 23.761719 10.941406 C 23.640625 11.011719 23.601562 11.164062 23.667969 11.28125 L 23.671875 11.285156 C 23.691406 11.25 23.722656 11.214844 23.761719 11.191406 L 25.277344 10.316406 C 25.3125 10.296875 25.355469 10.285156 25.394531 10.28125 C 25.484375 10.28125 25.570312 10.324219 25.617188 10.40625 L 25.867188 10.835938 C 25.90625 10.761719 25.914062 10.671875 25.867188 10.59375 L 25.617188 10.15625 C 25.570312 10.074219 25.484375 10.03125 25.394531 10.03125 Z M 4.988281 15.5 C 4.855469 15.507812 4.75 15.617188 4.75 15.75 L 4.75 16 C 4.75 15.867188 4.855469 15.757812 4.988281 15.75 C 4.992188 15.75 4.996094 15.75 5 15.75 L 8 15.75 C 8.136719 15.75 8.25 15.863281 8.25 16 L 8.25 15.75 C 8.25 15.613281 8.136719 15.5 8 15.5 L 5 15.5 C 4.996094 15.5 4.992188 15.5 4.988281 15.5 Z M 23.988281 15.5 C 23.855469 15.507812 23.75 15.617188 23.75 15.75 L 23.75 16 C 23.75 15.867188 23.855469 15.757812 23.988281 15.75 C 23.992188 15.75 23.996094 15.75 24 15.75 L 27 15.75 C 27.136719 15.75 27.25 15.863281 27.25 16 L 27.25 15.75 C 27.25 15.613281 27.136719 15.5 27 15.5 L 24 15.5 C 23.996094 15.5 23.992188 15.5 23.988281 15.5 Z M 7.859375 20.15625 C 7.816406 20.160156 7.777344 20.171875 7.738281 20.191406 L 6.222656 21.066406 C 6.105469 21.136719 6.0625 21.289062 6.132812 21.40625 L 6.132812 21.410156 C 6.152344 21.375 6.183594 21.339844 6.222656 21.316406 L 7.738281 20.441406 C 7.777344 20.421875 7.816406 20.410156 7.859375 20.40625 C 7.945312 20.40625 8.035156 20.449219 8.082031 20.53125 L 8.328125 20.960938 C 8.371094 20.886719 8.375 20.796875 8.332031 20.71875 L 8.082031 20.28125 C 8.035156 20.199219 7.945312 20.15625 7.859375 20.15625 Z M 24.128906 20.15625 C 24.046875 20.160156 23.964844 20.203125 23.917969 20.28125 L 23.667969 20.71875 C 23.625 20.796875 23.628906 20.886719 23.671875 20.960938 L 23.917969 20.53125 C 23.964844 20.453125 24.046875 20.410156 24.128906 20.40625 C 24.175781 20.40625 24.21875 20.417969 24.261719 20.441406 L 25.777344 21.316406 C 25.816406 21.339844 25.847656 21.375 25.867188 21.410156 L 25.867188 21.40625 C 25.9375 21.289062 25.894531 21.136719 25.777344 21.066406 L 24.261719 20.191406 C 24.21875 20.167969 24.175781 20.15625 24.128906 20.15625 Z M 11.140625 23.636719 C 11.0625 23.640625 10.984375 23.6875 10.941406 23.761719 L 10.066406 25.277344 C 10.019531 25.355469 10.027344 25.449219 10.070312 25.523438 L 10.941406 24.011719 C 10.984375 23.9375 11.0625 23.890625 11.140625 23.886719 C 11.1875 23.882812 11.238281 23.894531 11.28125 23.917969 L 11.71875 24.167969 C 11.757812 24.191406 11.785156 24.222656 11.808594 24.261719 C 11.875 24.140625 11.835938 23.988281 11.71875 23.917969 L 11.28125 23.667969 C 11.238281 23.644531 11.1875 23.632812 11.140625 23.636719 Z M 20.835938 23.636719 C 20.792969 23.636719 20.753906 23.648438 20.71875 23.667969 L 20.28125 23.917969 C 20.164062 23.988281 20.125 24.140625 20.191406 24.261719 C 20.214844 24.222656 20.242188 24.191406 20.28125 24.167969 L 20.71875 23.917969 C 20.753906 23.898438 20.792969 23.886719 20.835938 23.886719 C 20.921875 23.882812 21.011719 23.929688 21.058594 24.011719 L 21.929688 25.523438 C 21.972656 25.449219 21.980469 25.355469 21.933594 25.277344 L 21.058594 23.761719 C 21.011719 23.679688 20.921875 23.632812 20.835938 23.636719 Z M 15.738281 23.75 C 15.605469 23.757812 15.5 23.867188 15.5 24 L 15.5 24.25 C 15.5 24.117188 15.605469 24.007812 15.738281 24 C 15.742188 24 15.746094 24 15.75 24 L 16.25 24 C 16.386719 24 16.5 24.113281 16.5 24.25 L 16.5 24 C 16.5 23.863281 16.386719 23.75 16.25 23.75 L 15.75 23.75 C 15.746094 23.75 15.742188 23.75 15.738281 23.75 Z M 15.738281 23.75 "/>
<path style=" stroke:none;fill-rule:nonzero;fill:rgb(0%,0%,0%);fill-opacity:0.4;" d="M 15.738281 27.5 C 15.605469 27.492188 15.5 27.382812 15.5 27.25 L 15.5 27 C 15.5 27.132812 15.605469 27.242188 15.738281 27.25 C 15.742188 27.25 15.746094 27.25 15.75 27.25 L 16.25 27.25 C 16.386719 27.25 16.5 27.136719 16.5 27 L 16.5 27.25 C 16.5 27.386719 16.386719 27.5 16.25 27.5 L 15.75 27.5 C 15.746094 27.5 15.742188 27.5 15.738281 27.5 Z M 10.710938 26.152344 C 10.667969 26.148438 10.628906 26.140625 10.59375 26.117188 L 10.160156 25.867188 C 10.039062 25.800781 10 25.644531 10.066406 25.527344 C 10.089844 25.5625 10.117188 25.59375 10.160156 25.617188 L 10.59375 25.867188 C 10.628906 25.890625 10.667969 25.898438 10.710938 25.902344 C 10.796875 25.902344 10.886719 25.859375 10.933594 25.777344 L 11.804688 24.265625 C 11.847656 24.339844 11.855469 24.429688 11.808594 24.511719 L 10.933594 26.027344 C 10.886719 26.109375 10.796875 26.152344 10.710938 26.152344 Z M 21.265625 26.152344 C 21.1875 26.144531 21.109375 26.101562 21.066406 26.027344 L 20.191406 24.511719 C 20.144531 24.429688 20.152344 24.339844 20.195312 24.265625 L 21.066406 25.777344 C 21.109375 25.851562 21.1875 25.894531 21.265625 25.902344 C 21.3125 25.90625 21.363281 25.894531 21.40625 25.867188 L 21.839844 25.617188 C 21.882812 25.59375 21.910156 25.5625 21.933594 25.527344 C 22 25.644531 21.960938 25.800781 21.839844 25.867188 L 21.40625 26.117188 C 21.363281 26.144531 21.3125 26.15625 21.265625 26.152344 Z M 6.59375 22.21875 C 6.507812 22.214844 6.425781 22.171875 6.382812 22.09375 L 6.132812 21.660156 C 6.085938 21.578125 6.09375 21.488281 6.132812 21.414062 L 6.382812 21.84375 C 6.425781 21.921875 6.507812 21.964844 6.59375 21.96875 C 6.636719 21.96875 6.683594 21.957031 6.722656 21.933594 L 8.238281 21.058594 C 8.277344 21.035156 8.308594 21 8.328125 20.964844 L 8.332031 20.964844 C 8.398438 21.085938 8.359375 21.238281 8.238281 21.308594 L 6.722656 22.183594 C 6.683594 22.207031 6.636719 22.21875 6.59375 22.21875 Z M 25.394531 22.21875 C 25.355469 22.214844 25.3125 22.203125 25.277344 22.183594 L 23.761719 21.308594 C 23.640625 21.238281 23.601562 21.085938 23.667969 20.96875 L 23.671875 20.964844 C 23.691406 21.003906 23.722656 21.035156 23.761719 21.058594 L 25.277344 21.933594 C 25.3125 21.953125 25.355469 21.964844 25.394531 21.96875 C 25.484375 21.96875 25.570312 21.925781 25.617188 21.84375 L 25.867188 21.414062 C 25.90625 21.488281 25.914062 21.578125 25.867188 21.660156 L 25.617188 22.09375 C 25.570312 22.175781 25.484375 22.21875 25.394531 22.21875 Z M 4.988281 16.75 C 4.855469 16.742188 4.75 16.632812 4.75 16.5 L 4.75 16.25 C 4.75 16.382812 4.855469 16.492188 4.988281 16.5 C 4.992188 16.5 4.996094 16.5 5 16.5 L 8 16.5 C 8.136719 16.5 8.25 16.386719 8.25 16.25 L 8.25 16.5 C 8.25 16.636719 8.136719 16.75 8 16.75 L 5 16.75 C 4.996094 16.75 4.992188 16.75 4.988281 16.75 Z M 23.988281 16.75 C 23.855469 16.742188 23.75 16.632812 23.75 16.5 L 23.75 16.25 C 23.75 16.382812 23.855469 16.492188 23.988281 16.5 C 23.992188 16.5 23.996094 16.5 24 16.5 L 27 16.5 C 27.136719 16.5 27.25 16.386719 27.25 16.25 L 27.25 16.5 C 27.25 16.636719 27.136719 16.75 27 16.75 L 24 16.75 C 23.996094 16.75 23.992188 16.75 23.988281 16.75 Z M 7.859375 12.09375 C 7.816406 12.089844 7.777344 12.078125 7.738281 12.058594 L 6.222656 11.183594 C 6.105469 11.113281 6.0625 10.960938 6.132812 10.84375 L 6.132812 10.839844 C 6.152344 10.878906 6.183594 10.910156 6.222656 10.933594 L 7.738281 11.808594 C 7.777344 11.828125 7.816406 11.839844 7.855469 11.84375 C 7.945312 11.84375 8.035156 11.800781 8.082031 11.71875 L 8.328125 11.289062 C 8.371094 11.363281 8.375 11.453125 8.332031 11.535156 L 8.082031 11.96875 C 8.035156 12.050781 7.945312 12.09375 7.855469 12.09375 Z M 24.128906 12.09375 C 24.046875 12.089844 23.964844 12.046875 23.917969 11.96875 L 23.667969 11.535156 C 23.625 11.453125 23.628906 11.363281 23.671875 11.289062 L 23.917969 11.71875 C 23.964844 11.796875 24.046875 11.839844 24.128906 11.84375 C 24.175781 11.84375 24.21875 11.832031 24.261719 11.808594 L 25.777344 10.933594 C 25.816406 10.910156 25.847656 10.875 25.867188 10.839844 C 25.9375 10.960938 25.894531 11.113281 25.777344 11.183594 L 24.261719 12.058594 C 24.21875 12.082031 24.175781 12.09375 24.128906 12.09375 Z M 11.140625 8.613281 C 11.0625 8.609375 10.984375 8.5625 10.941406 8.488281 L 10.066406 6.972656 C 10.019531 6.894531 10.027344 6.800781 10.070312 6.726562 L 10.941406 8.238281 C 10.984375 8.3125 11.0625 8.359375 11.140625 8.363281 C 11.1875 8.367188 11.238281 8.355469 11.28125 8.332031 L 11.714844 8.082031 C 11.757812 8.058594 11.785156 8.027344 11.808594 7.988281 C 11.875 8.109375 11.835938 8.261719 11.714844 8.332031 L 11.28125 8.582031 C 11.238281 8.605469 11.1875 8.617188 11.140625 8.613281 Z M 20.835938 8.613281 C 20.792969 8.613281 20.753906 8.601562 20.714844 8.582031 L 20.28125 8.332031 C 20.164062 8.261719 20.125 8.109375 20.191406 7.988281 C 20.214844 8.027344 20.242188 8.058594 20.28125 8.082031 L 20.714844 8.332031 C 20.753906 8.351562 20.792969 8.363281 20.835938 8.363281 C 20.921875 8.367188 21.011719 8.320312 21.058594 8.238281 L 21.929688 6.726562 C 21.972656 6.800781 21.980469 6.894531 21.933594 6.972656 L 21.058594 8.488281 C 21.011719 8.570312 20.921875 8.617188 20.835938 8.613281 Z M 15.738281 8.5 C 15.605469 8.492188 15.5 8.382812 15.5 8.25 L 15.5 8 C 15.5 8.132812 15.605469 8.242188 15.738281 8.25 C 15.742188 8.25 15.746094 8.25 15.75 8.25 L 16.25 8.25 C 16.386719 8.25 16.5 8.136719 16.5 8 L 16.5 8.25 C 16.5 8.386719 16.386719 8.5 16.25 8.5 L 15.75 8.5 C 15.746094 8.5 15.742188 8.5 15.738281 8.5 Z M 15.738281 8.5 "/>
<path style=" stroke:none;fill-rule:nonzero;fill:rgb(74.117649%,74.117649%,74.117649%);fill-opacity:1;" d="M 16 14 C 17.105469 14 18 14.894531 18 16 C 18 17.105469 17.105469 18 16 18 C 14.894531 18 14 17.105469 14 16 C 14 14.894531 14.894531 14 16 14 Z M 16 14 "/>
<path style=" stroke:none;fill-rule:nonzero;fill:rgb(74.117649%,74.117649%,74.117649%);fill-opacity:0.996078;" d="M 16 14 C 17.105469 14 18 14.894531 18 16 C 18 17.105469 17.105469 18 16 18 C 14.894531 18 14 17.105469 14 16 C 14 14.894531 14.894531 14 16 14 Z M 16 14 "/>
<path style=" stroke:none;fill-rule:nonzero;fill:rgb(0%,0%,0%);fill-opacity:0.4;" d="M 14.015625 16.25 C 14.003906 16.332031 14 16.414062 14 16.5 C 14 17.609375 14.890625 18.5 16 18.5 C 17.109375 18.5 18 17.609375 18 16.5 C 18 16.414062 17.996094 16.332031 17.984375 16.25 C 17.863281 17.238281 17.023438 18 16 18 C 14.976562 18 14.136719 17.238281 14.015625 16.25 Z M 14.015625 16.25 "/>
<path style=" stroke:none;fill-rule:nonzero;fill:rgb(0%,0%,0%);fill-opacity:0.4;" d="M 14.015625 16.25 C 14.003906 16.332031 14 16.414062 14 16.5 C 14 17.609375 14.890625 18.5 16 18.5 C 17.109375 18.5 18 17.609375 18 16.5 C 18 16.414062 17.996094 16.332031 17.984375 16.25 C 17.863281 17.238281 17.023438 18 16 18 C 14.976562 18 14.136719 17.238281 14.015625 16.25 Z M 14.015625 16.25 "/>
<path style=" stroke:none;fill-rule:nonzero;fill:rgb(99.607843%,99.607843%,99.607843%);fill-opacity:0.4;" d="M 14.015625 16.25 C 14.003906 16.167969 14 16.085938 14 16 C 14 14.890625 14.890625 14 16 14 C 17.109375 14 18 14.890625 18 16 C 18 16.085938 17.996094 16.167969 17.984375 16.25 C 17.863281 15.261719 17.023438 14.5 16 14.5 C 14.976562 14.5 14.136719 15.261719 14.015625 16.25 Z M 14.015625 16.25 "/>
<path style=" stroke:none;fill-rule:nonzero;fill:url(#radial1);" d="M 16 14 C 17.105469 14 18 14.894531 18 16 C 18 17.105469 17.105469 18 16 18 C 14.894531 18 14 17.105469 14 16 C 14 14.894531 14.894531 14 16 14 Z M 16 14 "/>
</g>
</svg>
