
<svg xmlns="http://www.w3.org/2000/svg" xmlns:xlink="http://www.w3.org/1999/xlink" width="32" height="32" viewBox="0 0 32 32" version="1.1">
<defs>
<linearGradient id="linear0" gradientUnits="userSpaceOnUse" x1="8.466666" y1="-199.125" x2="8.466666" y2="-213.941666" gradientTransform="matrix(1.889764,0,0,1.889764,-6,406.299234)">
<stop offset="0" style="stop-color:rgb(0%,0%,0%);stop-opacity:0.2;"/>
<stop offset="1" style="stop-color:rgb(100%,100%,100%);stop-opacity:0;"/>
</linearGradient>
</defs>
<g id="surface1">
<path style=" stroke:none;fill-rule:nonzero;fill:rgb(74.117649%,74.117649%,74.117649%);fill-opacity:1;" d="M 9 2 L 23 2 C 24.105469 2 25 2.894531 25 4 L 25 28 C 25 29.105469 24.105469 30 23 30 L 9 30 C 7.894531 30 7 29.105469 7 28 L 7 4 C 7 2.894531 7.894531 2 9 2 Z M 9 2 "/>
<path style=" stroke:none;fill-rule:nonzero;fill:rgb(38.039216%,38.039216%,38.039216%);fill-opacity:1;" d="M 9 4 L 23 4 C 23.550781 4 24 4.449219 24 5 L 24 25 C 24 25.550781 23.550781 26 23 26 L 9 26 C 8.449219 26 8 25.550781 8 25 L 8 5 C 8 4.449219 8.449219 4 9 4 Z M 9 4 "/>
<path style=" stroke:none;fill-rule:nonzero;fill:rgb(0%,0%,0%);fill-opacity:0.4;" d="M 7 27.5 L 7 28 C 7 29.109375 7.890625 30 9 30 L 23 30 C 24.109375 30 25 29.109375 25 28 L 25 27.5 C 25 28.609375 24.109375 29.5 23 29.5 L 9 29.5 C 7.890625 29.5 7 28.609375 7 27.5 Z M 7 27.5 "/>
<path style=" stroke:none;fill-rule:nonzero;fill:rgb(0%,0%,0%);fill-opacity:0.2;" d="M 7 28 L 7 28.75 C 7 29.859375 7.890625 30.75 9 30.75 L 23 30.75 C 24.109375 30.75 25 29.859375 25 28.75 L 25 28 C 25 29.109375 24.109375 30 23 30 L 9 30 C 7.890625 30 7 29.109375 7 28 Z M 7 28 "/>
<path style=" stroke:none;fill-rule:nonzero;fill:rgb(100%,100%,100%);fill-opacity:0.4;" d="M 9 2 C 7.890625 2 7 2.890625 7 4 L 7 4.492188 C 7 3.382812 7.890625 2.492188 9 2.492188 L 23 2.492188 C 24.109375 2.492188 25 3.382812 25 4.492188 L 25 4 C 25 2.890625 24.109375 2 23 2 Z M 9 2 "/>
<path style=" stroke:none;fill-rule:nonzero;fill:rgb(100%,100%,100%);fill-opacity:0.4;" d="M 8 25 L 8 25.5 C 8 26.054688 8.445312 26.5 9 26.5 L 23 26.5 C 23.554688 26.5 24 26.054688 24 25.5 L 24 25 C 24 25.554688 23.554688 26 23 26 L 9 26 C 8.445312 26 8 25.554688 8 25 Z M 8 25 "/>
<path style=" stroke:none;fill-rule:nonzero;fill:rgb(0%,0%,0%);fill-opacity:0.4;" d="M 8 5.5 L 8 5 C 8 4.445312 8.445312 4 9 4 L 23 4 C 23.554688 4 24 4.445312 24 5 L 24 5.5 C 24 4.945312 23.554688 4.5 23 4.5 L 9 4.5 C 8.445312 4.5 8 4.945312 8 5.5 Z M 8 5.5 "/>
<path style=" stroke:none;fill-rule:nonzero;fill:rgb(45.882353%,45.882353%,45.882353%);fill-opacity:0.4;" d="M 15 27 L 17 27 C 17.550781 27 18 27.449219 18 28 C 18 28.550781 17.550781 29 17 29 L 15 29 C 14.449219 29 14 28.550781 14 28 C 14 27.449219 14.449219 27 15 27 Z M 15 27 "/>
<path style=" stroke:none;fill-rule:nonzero;fill:rgb(0%,0%,0%);fill-opacity:0.4;" d="M 14.972656 27 C 14.433594 27.011719 14 27.453125 14 28 C 14 28.042969 14.003906 28.085938 14.007812 28.125 C 14.070312 27.628906 14.488281 27.25 15 27.25 L 17 27.25 C 17.511719 27.25 17.929688 27.628906 17.992188 28.125 C 17.996094 28.085938 18 28.042969 18 28 C 18 27.445312 17.554688 27 17 27 L 15 27 C 14.992188 27 14.980469 27 14.972656 27 Z M 14.972656 27 "/>
<path style=" stroke:none;fill-rule:nonzero;fill:rgb(100%,100%,100%);fill-opacity:0.4;" d="M 14.972656 29.25 C 14.433594 29.238281 14 28.796875 14 28.25 C 14 28.207031 14.003906 28.164062 14.007812 28.125 C 14.070312 28.621094 14.488281 29 15 29 L 17 29 C 17.511719 29 17.929688 28.621094 17.992188 28.125 C 17.996094 28.164062 18 28.207031 18 28.25 C 18 28.804688 17.554688 29.25 17 29.25 L 15 29.25 C 14.992188 29.25 14.980469 29.25 14.972656 29.25 Z M 14.972656 29.25 "/>
<path style=" stroke:none;fill-rule:nonzero;fill:url(#linear0);" d="M 9 2 L 23 2 C 24.105469 2 25 2.894531 25 4 L 25 28 C 25 29.105469 24.105469 30 23 30 L 9 30 C 7.894531 30 7 29.105469 7 28 L 7 4 C 7 2.894531 7.894531 2 9 2 Z M 9 2 "/>
</g>
</svg>
