
<svg xmlns="http://www.w3.org/2000/svg" xmlns:xlink="http://www.w3.org/1999/xlink" width="32" height="32" viewBox="0 0 32 32" version="1.1">
<defs>
<linearGradient id="linear0" gradientUnits="userSpaceOnUse" x1="31.999998" y1="60" x2="31.999998" y2="4" gradientTransform="matrix(0.5,0,0,0.5,-0.000000377953,0)">
<stop offset="0" style="stop-color:rgb(0%,0%,0%);stop-opacity:0.2;"/>
<stop offset="1" style="stop-color:rgb(100%,100%,100%);stop-opacity:0;"/>
</linearGradient>
</defs>
<g id="surface1">
<path style=" stroke:none;fill-rule:nonzero;fill:rgb(100%,65.490198%,14.901961%);fill-opacity:1;" d="M 20 2 L 6.5 2 C 5.667969 2 5 2.667969 5 3.5 L 5 28.5 C 5 29.332031 5.667969 30 6.5 30 L 25.5 30 C 26.332031 30 27 29.332031 27 28.5 L 27 9 Z M 20 2 "/>
<path style=" stroke:none;fill-rule:nonzero;fill:rgb(0%,0%,0%);fill-opacity:0.4;" d="M 20 7.5 L 20 8 C 20 8.832031 20.667969 9.5 21.5 9.5 L 27 9.5 L 26.5 9 L 21.5 9 C 20.667969 9 20 8.332031 20 7.5 Z M 20 7.5 "/>
<path style=" stroke:none;fill-rule:nonzero;fill:rgb(100%,71.764708%,30.19608%);fill-opacity:0.996078;" d="M 27 9 L 20 2 L 20 7.5 C 20 8.332031 20.667969 9 21.5 9 Z M 27 9 "/>
<path style=" stroke:none;fill-rule:nonzero;fill:rgb(100%,100%,100%);fill-opacity:0.4;" d="M 6.5 2 C 5.667969 2 5 2.667969 5 3.5 L 5 4 C 5 3.167969 5.667969 2.5 6.5 2.5 L 20 2.5 L 27 9.5 L 27 9 L 20 2 Z M 6.5 2 "/>
<path style=" stroke:none;fill-rule:nonzero;fill:rgb(0%,0%,0%);fill-opacity:0.2;" d="M 5 28.492188 L 5 29.25 C 5 30.082031 5.667969 30.75 6.5 30.75 L 25.5 30.75 C 26.332031 30.75 27 30.082031 27 29.25 L 27 28.492188 C 27 29.324219 26.332031 29.992188 25.5 29.992188 L 6.5 29.992188 C 5.667969 29.992188 5 29.324219 5 28.492188 Z M 5 28.492188 "/>
<path style=" stroke:none;fill-rule:nonzero;fill:rgb(0%,0%,0%);fill-opacity:0.4;" d="M 5 28.0625 L 5 28.5 C 5 29.332031 5.667969 30 6.5 30 L 25.5 30 C 26.332031 30 27 29.332031 27 28.5 L 27 28.0625 C 27 28.894531 26.332031 29.5625 25.5 29.5625 L 6.5 29.5625 C 5.667969 29.5625 5 28.894531 5 28.0625 Z M 5 28.0625 "/>
<path style=" stroke:none;fill-rule:nonzero;fill:rgb(98.431373%,54.901963%,0%);fill-opacity:1;" d="M 15.972656 12 C 15.433594 12.011719 15 12.453125 15 13 C 15 13.054688 15.003906 13.113281 15.011719 13.164062 C 14.902344 13.203125 14.796875 13.246094 14.691406 13.296875 C 14.660156 13.253906 14.625 13.210938 14.585938 13.171875 C 14.195312 12.78125 13.5625 12.78125 13.171875 13.171875 C 12.78125 13.5625 12.78125 14.195312 13.171875 14.585938 C 13.210938 14.625 13.253906 14.660156 13.296875 14.691406 C 13.246094 14.796875 13.203125 14.902344 13.164062 15.015625 C 13.113281 15.003906 13.054688 15 13 15 C 12.445312 15 12 15.445312 12 16 C 12 16.554688 12.445312 17 13 17 C 13.054688 17 13.113281 16.996094 13.164062 16.988281 C 13.203125 17.097656 13.246094 17.203125 13.296875 17.308594 C 13.253906 17.339844 13.210938 17.375 13.171875 17.414062 C 12.78125 17.804688 12.78125 18.4375 13.171875 18.828125 C 13.398438 19.054688 13.707031 19.148438 14 19.113281 L 14 22 L 16 20 L 18 22 L 18 19.113281 C 18.292969 19.148438 18.601562 19.054688 18.828125 18.828125 C 19.21875 18.4375 19.21875 17.804688 18.828125 17.414062 C 18.789062 17.375 18.746094 17.339844 18.703125 17.308594 C 18.753906 17.203125 18.796875 17.097656 18.835938 16.984375 C 18.886719 16.996094 18.945312 17 19 17 C 19.554688 17 20 16.554688 20 16 C 20 15.445312 19.554688 15 19 15 C 18.945312 15 18.886719 15.003906 18.835938 15.011719 C 18.796875 14.902344 18.753906 14.796875 18.703125 14.691406 C 18.746094 14.660156 18.789062 14.625 18.828125 14.585938 C 19.21875 14.195312 19.21875 13.5625 18.828125 13.171875 C 18.4375 12.78125 17.804688 12.78125 17.414062 13.171875 C 17.375 13.210938 17.339844 13.253906 17.308594 13.296875 C 17.203125 13.246094 17.097656 13.203125 16.984375 13.164062 C 16.996094 13.113281 17 13.054688 17 13 C 17 12.445312 16.554688 12 16 12 C 15.992188 12 15.980469 12 15.972656 12 Z M 15.972656 12 "/>
<path style=" stroke:none;fill-rule:nonzero;fill:rgb(100%,80.000001%,50.196081%);fill-opacity:1;" d="M 15.972656 12 C 15.433594 12.011719 15 12.453125 15 13 C 15 13.054688 15.003906 13.113281 15.011719 13.164062 C 14.902344 13.203125 14.796875 13.246094 14.691406 13.296875 C 14.660156 13.253906 14.625 13.210938 14.585938 13.171875 C 14.195312 12.78125 13.5625 12.78125 13.171875 13.171875 C 12.78125 13.5625 12.78125 14.195312 13.171875 14.585938 C 13.210938 14.625 13.253906 14.660156 13.296875 14.691406 C 13.246094 14.796875 13.203125 14.902344 13.164062 15.015625 C 13.113281 15.003906 13.054688 15 13 15 C 12.445312 15 12 15.445312 12 16 C 12 16.554688 12.445312 17 13 17 C 13.054688 17 13.113281 16.996094 13.164062 16.988281 C 13.203125 17.097656 13.246094 17.203125 13.296875 17.308594 C 13.253906 17.339844 13.210938 17.375 13.171875 17.414062 C 12.78125 17.804688 12.78125 18.4375 13.171875 18.828125 C 13.398438 19.054688 13.707031 19.148438 14 19.113281 L 14 22 L 16 20 L 18 22 L 18 19.113281 C 18.292969 19.148438 18.601562 19.054688 18.828125 18.828125 C 19.21875 18.4375 19.21875 17.804688 18.828125 17.414062 C 18.789062 17.375 18.746094 17.339844 18.703125 17.308594 C 18.753906 17.203125 18.796875 17.097656 18.835938 16.984375 C 18.886719 16.996094 18.945312 17 19 17 C 19.554688 17 20 16.554688 20 16 C 20 15.445312 19.554688 15 19 15 C 18.945312 15 18.886719 15.003906 18.835938 15.011719 C 18.796875 14.902344 18.753906 14.796875 18.703125 14.691406 C 18.746094 14.660156 18.789062 14.625 18.828125 14.585938 C 19.21875 14.195312 19.21875 13.5625 18.828125 13.171875 C 18.4375 12.78125 17.804688 12.78125 17.414062 13.171875 C 17.375 13.210938 17.339844 13.253906 17.308594 13.296875 C 17.203125 13.246094 17.097656 13.203125 16.984375 13.164062 C 16.996094 13.113281 17 13.054688 17 13 C 17 12.445312 16.554688 12 16 12 C 15.992188 12 15.980469 12 15.972656 12 Z M 15.972656 12 "/>
<path style=" stroke:none;fill-rule:nonzero;fill:rgb(100%,100%,100%);fill-opacity:0.4;" d="M 15.972656 12 C 15.433594 12.011719 15 12.453125 15 13 C 15 13.039062 15.003906 13.082031 15.007812 13.121094 C 15.070312 12.636719 15.476562 12.261719 15.972656 12.25 C 15.980469 12.25 15.992188 12.25 16 12.25 C 16.511719 12.25 16.929688 12.628906 16.992188 13.121094 C 16.996094 13.082031 17 13.042969 17 13 C 17 12.445312 16.554688 12 16 12 C 15.992188 12 15.980469 12 15.972656 12 Z M 13.878906 12.878906 C 13.625 12.878906 13.367188 12.976562 13.171875 13.171875 C 12.945312 13.398438 12.851562 13.707031 12.886719 14 C 12.914062 13.789062 13.007812 13.585938 13.171875 13.421875 C 13.5625 13.03125 14.195312 13.03125 14.585938 13.421875 C 14.625 13.460938 14.660156 13.503906 14.691406 13.546875 C 14.796875 13.496094 14.902344 13.453125 15.015625 13.414062 C 15.003906 13.363281 15 13.304688 15 13.25 C 15 13.222656 15 13.195312 15.003906 13.167969 C 14.898438 13.207031 14.792969 13.25 14.691406 13.296875 C 14.660156 13.253906 14.625 13.210938 14.585938 13.171875 C 14.390625 12.976562 14.132812 12.878906 13.878906 12.878906 Z M 18.121094 12.878906 C 17.867188 12.878906 17.609375 12.976562 17.414062 13.171875 C 17.375 13.210938 17.339844 13.253906 17.308594 13.296875 C 17.207031 13.25 17.101562 13.207031 16.996094 13.167969 C 17 13.195312 17 13.222656 17 13.25 C 17 13.304688 16.996094 13.363281 16.984375 13.414062 C 17.097656 13.453125 17.203125 13.496094 17.308594 13.546875 C 17.339844 13.503906 17.375 13.460938 17.414062 13.421875 C 17.804688 13.03125 18.4375 13.03125 18.828125 13.421875 C 18.992188 13.585938 19.085938 13.789062 19.113281 14 C 19.148438 13.707031 19.054688 13.398438 18.828125 13.171875 C 18.632812 12.976562 18.375 12.878906 18.121094 12.878906 Z M 13.21875 14.878906 C 13.199219 14.921875 13.179688 14.96875 13.164062 15.015625 C 13.113281 15.003906 13.054688 15 13 15 C 12.445312 15 12 15.445312 12 16 C 12 16.042969 12.003906 16.082031 12.007812 16.125 C 12.070312 15.628906 12.488281 15.25 13 15.25 C 13.054688 15.25 13.113281 15.253906 13.164062 15.265625 C 13.203125 15.152344 13.246094 15.046875 13.296875 14.941406 C 13.269531 14.921875 13.242188 14.902344 13.21875 14.878906 Z M 18.78125 14.878906 C 18.757812 14.902344 18.730469 14.921875 18.703125 14.941406 C 18.753906 15.046875 18.796875 15.152344 18.835938 15.265625 C 18.886719 15.257812 18.945312 15.25 19 15.25 C 19.511719 15.25 19.929688 15.628906 19.992188 16.125 C 19.996094 16.082031 20 16.042969 20 16 C 20 15.445312 19.554688 15 19 15 C 18.945312 15 18.886719 15.003906 18.835938 15.015625 C 18.820312 14.96875 18.800781 14.921875 18.78125 14.878906 Z M 13.214844 17.375 C 13.199219 17.386719 13.1875 17.398438 13.171875 17.414062 C 12.945312 17.640625 12.851562 17.949219 12.886719 18.242188 C 12.914062 18.03125 13.007812 17.828125 13.171875 17.664062 C 13.210938 17.625 13.253906 17.589844 13.296875 17.558594 C 13.269531 17.496094 13.242188 17.4375 13.214844 17.375 Z M 18.785156 17.375 C 18.757812 17.4375 18.730469 17.496094 18.703125 17.558594 C 18.746094 17.589844 18.789062 17.625 18.828125 17.664062 C 18.992188 17.828125 19.085938 18.03125 19.113281 18.242188 C 19.148438 17.949219 19.054688 17.640625 18.828125 17.414062 C 18.8125 17.398438 18.800781 17.386719 18.785156 17.375 Z M 18.785156 17.375 "/>
<path style=" stroke:none;fill-rule:nonzero;fill:rgb(1.176471%,1.176471%,1.176471%);fill-opacity:0.4;" d="M 15.007812 13.121094 C 15.007812 13.136719 15.003906 13.152344 15.003906 13.167969 C 15.007812 13.167969 15.011719 13.164062 15.015625 13.164062 C 15.011719 13.148438 15.011719 13.136719 15.007812 13.121094 Z M 16.992188 13.121094 C 16.988281 13.136719 16.988281 13.148438 16.984375 13.164062 C 16.988281 13.164062 16.992188 13.167969 16.996094 13.167969 C 16.996094 13.152344 16.992188 13.136719 16.992188 13.121094 Z M 12.886719 14.003906 C 12.847656 14.300781 12.945312 14.609375 13.171875 14.835938 C 13.1875 14.851562 13.199219 14.863281 13.214844 14.875 C 13.242188 14.8125 13.269531 14.753906 13.296875 14.691406 C 13.253906 14.660156 13.210938 14.625 13.171875 14.585938 C 13.007812 14.421875 12.914062 14.214844 12.886719 14.003906 Z M 19.113281 14.003906 C 19.085938 14.214844 18.992188 14.421875 18.828125 14.585938 C 18.789062 14.625 18.746094 14.660156 18.703125 14.691406 C 18.730469 14.753906 18.757812 14.8125 18.785156 14.875 C 18.800781 14.863281 18.8125 14.851562 18.828125 14.835938 C 19.054688 14.609375 19.152344 14.300781 19.113281 14.003906 Z M 12.007812 16.125 C 12.003906 16.167969 12 16.207031 12 16.25 C 12 16.804688 12.445312 17.25 13 17.25 C 13.054688 17.25 13.113281 17.246094 13.164062 17.238281 C 13.179688 17.28125 13.199219 17.328125 13.214844 17.375 C 13.242188 17.351562 13.269531 17.328125 13.296875 17.308594 C 13.246094 17.203125 13.203125 17.097656 13.164062 16.984375 C 13.113281 16.992188 13.054688 17 13 17 C 12.488281 17 12.070312 16.621094 12.007812 16.125 Z M 19.992188 16.125 C 19.929688 16.621094 19.511719 17 19 17 C 18.945312 17 18.886719 16.996094 18.835938 16.984375 C 18.796875 17.097656 18.753906 17.203125 18.703125 17.308594 C 18.730469 17.328125 18.757812 17.351562 18.785156 17.375 C 18.800781 17.328125 18.820312 17.28125 18.835938 17.238281 C 18.886719 17.246094 18.945312 17.25 19 17.25 C 19.554688 17.25 20 16.804688 20 16.25 C 20 16.207031 19.996094 16.167969 19.992188 16.125 Z M 12.886719 18.246094 C 12.847656 18.542969 12.945312 18.851562 13.171875 19.078125 C 13.398438 19.304688 13.707031 19.398438 14 19.363281 L 14 19.113281 C 13.707031 19.148438 13.398438 19.054688 13.171875 18.828125 C 13.007812 18.664062 12.914062 18.457031 12.886719 18.246094 Z M 19.113281 18.246094 C 19.085938 18.457031 18.992188 18.664062 18.828125 18.828125 C 18.601562 19.054688 18.292969 19.148438 18 19.113281 L 18 19.363281 C 18.292969 19.398438 18.601562 19.304688 18.828125 19.078125 C 19.054688 18.851562 19.152344 18.542969 19.113281 18.246094 Z M 16 20 L 14 22 L 14 22.25 L 16 20.25 L 18 22.25 L 18 22 Z M 16 20 "/>
<path style=" stroke:none;fill-rule:nonzero;fill:url(#linear0);" d="M 20 2 L 6.5 2 C 5.667969 2 5 2.667969 5 3.5 L 5 28.5 C 5 29.332031 5.667969 30 6.5 30 L 25.5 30 C 26.332031 30 27 29.332031 27 28.5 L 27 9 Z M 20 2 "/>
</g>
</svg>
