
<svg xmlns="http://www.w3.org/2000/svg" xmlns:xlink="http://www.w3.org/1999/xlink" width="32" height="32" viewBox="0 0 32 32" version="1.1">
<defs>
<linearGradient id="linear0" gradientUnits="userSpaceOnUse" x1="32" y1="59.999996" x2="32" y2="4" gradientTransform="matrix(0.5,0,0,0.5,0.0194153,0)">
<stop offset="0" style="stop-color:rgb(0%,0%,0%);stop-opacity:0.2;"/>
<stop offset="1" style="stop-color:rgb(100%,100%,100%);stop-opacity:0;"/>
</linearGradient>
</defs>
<g id="surface1">
<path style=" stroke:none;fill-rule:nonzero;fill:rgb(74.117649%,74.117649%,74.117649%);fill-opacity:1;" d="M 7 4 L 25 4 C 26.105469 4 27 4.894531 27 6 L 27 28 C 27 29.105469 26.105469 30 25 30 L 7 30 C 5.894531 30 5 29.105469 5 28 L 5 6 C 5 4.894531 5.894531 4 7 4 Z M 7 4 "/>
<path style=" stroke:none;fill-rule:nonzero;fill:rgb(0%,0%,0%);fill-opacity:0.4;" d="M 7.109375 6 L 24.890625 6 C 25.503906 6 26 6.460938 26 7.035156 L 26 28.214844 C 26 28.789062 25.503906 29.25 24.890625 29.25 L 7.109375 29.25 C 6.496094 29.25 6 28.789062 6 28.214844 L 6 7.035156 C 6 6.460938 6.496094 6 7.109375 6 Z M 7.109375 6 "/>
<path style=" stroke:none;fill-rule:nonzero;fill:rgb(38.039216%,38.039216%,38.039216%);fill-opacity:0.996078;" d="M 7 5 L 25 5 C 25.550781 5 26 5.449219 26 6 L 26 28 C 26 28.550781 25.550781 29 25 29 L 7 29 C 6.449219 29 6 28.550781 6 28 L 6 6 C 6 5.449219 6.449219 5 7 5 Z M 7 5 "/>
<path style=" stroke:none;fill-rule:nonzero;fill:rgb(100%,100%,100%);fill-opacity:0.4;" d="M 7 4.003906 C 5.890625 4.003906 5 4.898438 5 6.003906 L 5 6.5 C 5 5.390625 5.890625 4.5 7 4.5 L 25 4.5 C 26.109375 4.5 27 5.390625 27 6.5 L 27 6.003906 C 27 4.898438 26.109375 4.003906 25 4.003906 Z M 7 4.003906 "/>
<path style=" stroke:none;fill-rule:nonzero;fill:rgb(74.117649%,74.117649%,74.117649%);fill-opacity:1;" d="M 12 2 L 20 2 C 20.550781 2 21 2.449219 21 3 L 21 5 C 21 5.550781 20.550781 6 20 6 L 12 6 C 11.449219 6 11 5.550781 11 5 L 11 3 C 11 2.449219 11.449219 2 12 2 Z M 12 2 "/>
<path style=" stroke:none;fill-rule:nonzero;fill:rgb(0.784314%,0.784314%,0.784314%);fill-opacity:0.4;" d="M 7 29.996094 C 5.890625 29.996094 5 29.101562 5 27.996094 L 5 27.5 C 5 28.609375 5.890625 29.5 7 29.5 L 25 29.5 C 26.109375 29.5 27 28.609375 27 27.5 L 27 27.996094 C 27 29.101562 26.109375 29.996094 25 29.996094 Z M 7 29.996094 "/>
<path style=" stroke:none;fill-rule:nonzero;fill:rgb(45.882353%,45.882353%,45.882353%);fill-opacity:0.996078;" d="M 26 24 L 21 29 L 25 29 C 25.554688 29 26 28.554688 26 28 Z M 26 24 "/>
<path style=" stroke:none;fill-rule:nonzero;fill:rgb(87.843138%,87.843138%,87.843138%);fill-opacity:0.996078;" d="M 15.5 12 L 22.5 12 C 22.777344 12 23 12.222656 23 12.5 C 23 12.777344 22.777344 13 22.5 13 L 15.5 13 C 15.222656 13 15 12.777344 15 12.5 C 15 12.222656 15.222656 12 15.5 12 Z M 15.5 12 "/>
<path style=" stroke:none;fill-rule:nonzero;fill:rgb(40.000001%,73.333335%,41.568628%);fill-opacity:0.996078;" d="M 8.5 16 L 18.5 16 C 18.777344 16 19 16.222656 19 16.5 C 19 16.777344 18.777344 17 18.5 17 L 8.5 17 C 8.222656 17 8 16.777344 8 16.5 C 8 16.222656 8.222656 16 8.5 16 Z M 8.5 16 "/>
<path style=" stroke:none;fill-rule:nonzero;fill:rgb(87.843138%,87.843138%,87.843138%);fill-opacity:0.996078;" d="M 12.5 22 L 20.5 22 C 20.777344 22 21 22.222656 21 22.5 C 21 22.777344 20.777344 23 20.5 23 L 12.5 23 C 12.222656 23 12 22.777344 12 22.5 C 12 22.222656 12.222656 22 12.5 22 Z M 12.5 22 "/>
<path style=" stroke:none;fill-rule:nonzero;fill:rgb(87.843138%,87.843138%,87.843138%);fill-opacity:0.996078;" d="M 17.5 18 L 22.5 18 C 22.777344 18 23 18.222656 23 18.5 C 23 18.777344 22.777344 19 22.5 19 L 17.5 19 C 17.222656 19 17 18.777344 17 18.5 C 17 18.222656 17.222656 18 17.5 18 Z M 17.5 18 "/>
<path style=" stroke:none;fill-rule:nonzero;fill:rgb(0%,0%,0%);fill-opacity:0.2;" d="M 5 28 L 5 28.75 C 5 29.859375 5.890625 30.75 7 30.75 L 25 30.75 C 26.109375 30.75 27 29.859375 27 28.75 L 27 28 C 27 29.109375 26.109375 30 25 30 L 7 30 C 5.890625 30 5 29.109375 5 28 Z M 5 28 "/>
<path style=" stroke:none;fill-rule:nonzero;fill:rgb(74.117649%,74.117649%,74.117649%);fill-opacity:1;" d="M 10 4 L 22 4 C 22.550781 4 23 4.449219 23 5 L 23 7 C 23 7.550781 22.550781 8 22 8 L 10 8 C 9.449219 8 9 7.550781 9 7 L 9 5 C 9 4.449219 9.449219 4 10 4 Z M 10 4 "/>
<path style=" stroke:none;fill-rule:nonzero;fill:rgb(61.960787%,61.960787%,61.960787%);fill-opacity:1;" d="M 11 3.25 L 21 3.25 L 21 4 L 11 4 Z M 11 3.25 "/>
<path style=" stroke:none;fill-rule:nonzero;fill:rgb(61.960787%,61.960787%,61.960787%);fill-opacity:1;" d="M 9 5 L 23 5 L 23 6 L 9 6 Z M 9 5 "/>
<path style=" stroke:none;fill-rule:nonzero;fill:rgb(61.960787%,61.960787%,61.960787%);fill-opacity:1;" d="M 9 6 L 23 6 L 23 7 L 9 7 Z M 9 6 "/>
<path style=" stroke:none;fill-rule:nonzero;fill:rgb(0%,0%,0%);fill-opacity:0.4;" d="M 9 6.75 L 23 6.75 L 23 7 L 9 7 Z M 9 6.75 "/>
<path style=" stroke:none;fill-rule:nonzero;fill:rgb(0%,0%,0%);fill-opacity:0.4;" d="M 11 3.25 L 21 3.25 L 21 3.5 L 11 3.5 Z M 11 3.25 "/>
<path style=" stroke:none;fill-rule:nonzero;fill:rgb(0%,0%,0%);fill-opacity:0.4;" d="M 9 7 L 9 7.5 C 9 8.054688 9.445312 8.5 10 8.5 L 22 8.5 C 22.554688 8.5 23 8.054688 23 7.5 L 23 7 C 23 7.554688 22.554688 8 22 8 L 10 8 C 9.445312 8 9 7.554688 9 7 Z M 9 7 "/>
<path style=" stroke:none;fill-rule:nonzero;fill:rgb(100%,100%,100%);fill-opacity:0.4;" d="M 12 2 C 11.445312 2 11 2.445312 11 3 L 11 3.5 C 11 2.945312 11.445312 2.5 12 2.5 L 20 2.5 C 20.554688 2.5 21 2.945312 21 3.5 L 21 3 C 21 2.445312 20.554688 2 20 2 Z M 12 2 "/>
<path style=" stroke:none;fill-rule:nonzero;fill:rgb(0.784314%,0.784314%,0.784314%);fill-opacity:0.4;" d="M 10.5 5 C 10.777344 5 11 5.222656 11 5.5 C 11 5.777344 10.777344 6 10.5 6 C 10.222656 6 10 5.777344 10 5.5 C 10 5.222656 10.222656 5 10.5 5 Z M 10.5 5 "/>
<path style=" stroke:none;fill-rule:nonzero;fill:rgb(0%,0%,0%);fill-opacity:0.4;" d="M 10.488281 5 C 10.214844 5.007812 10 5.226562 10 5.5 C 10 5.542969 10.003906 5.585938 10.015625 5.625 C 10.070312 5.410156 10.265625 5.25 10.5 5.25 C 10.734375 5.25 10.929688 5.410156 10.984375 5.625 C 10.996094 5.585938 11 5.542969 11 5.5 C 11 5.222656 10.777344 5 10.5 5 C 10.496094 5 10.492188 5 10.488281 5 Z M 10.488281 5 "/>
<path style=" stroke:none;fill-rule:nonzero;fill:rgb(100%,100%,100%);fill-opacity:0.4;" d="M 10.488281 6.25 C 10.214844 6.242188 10 6.023438 10 5.75 C 10 5.707031 10.003906 5.664062 10.015625 5.625 C 10.070312 5.839844 10.265625 6 10.5 6 C 10.734375 6 10.929688 5.839844 10.984375 5.625 C 10.996094 5.664062 11 5.707031 11 5.75 C 11 6.027344 10.777344 6.25 10.5 6.25 C 10.496094 6.25 10.492188 6.25 10.488281 6.25 Z M 10.488281 6.25 "/>
<path style=" stroke:none;fill-rule:nonzero;fill:rgb(0.784314%,0.784314%,0.784314%);fill-opacity:0.4;" d="M 16.015625 5 C 16.292969 5 16.515625 5.222656 16.515625 5.5 C 16.515625 5.777344 16.292969 6 16.015625 6 C 15.738281 6 15.515625 5.777344 15.515625 5.5 C 15.515625 5.222656 15.738281 5 16.015625 5 Z M 16.015625 5 "/>
<path style=" stroke:none;fill-rule:nonzero;fill:rgb(0%,0%,0%);fill-opacity:0.4;" d="M 16.003906 5 C 15.730469 5.007812 15.515625 5.226562 15.515625 5.5 C 15.515625 5.542969 15.519531 5.585938 15.53125 5.625 C 15.585938 5.410156 15.78125 5.25 16.015625 5.25 C 16.25 5.25 16.445312 5.410156 16.5 5.625 C 16.511719 5.585938 16.515625 5.542969 16.515625 5.5 C 16.515625 5.222656 16.292969 5 16.015625 5 C 16.011719 5 16.007812 5 16.003906 5 Z M 16.003906 5 "/>
<path style=" stroke:none;fill-rule:nonzero;fill:rgb(100%,100%,100%);fill-opacity:0.4;" d="M 16.003906 6.25 C 15.730469 6.242188 15.515625 6.023438 15.515625 5.75 C 15.515625 5.707031 15.519531 5.664062 15.53125 5.625 C 15.585938 5.839844 15.78125 6 16.015625 6 C 16.25 6 16.445312 5.839844 16.5 5.625 C 16.511719 5.664062 16.515625 5.707031 16.515625 5.75 C 16.515625 6.027344 16.292969 6.25 16.015625 6.25 C 16.011719 6.25 16.007812 6.25 16.003906 6.25 Z M 16.003906 6.25 "/>
<path style=" stroke:none;fill-rule:nonzero;fill:rgb(0.784314%,0.784314%,0.784314%);fill-opacity:0.4;" d="M 21.515625 5 C 21.792969 5 22.015625 5.222656 22.015625 5.5 C 22.015625 5.777344 21.792969 6 21.515625 6 C 21.238281 6 21.015625 5.777344 21.015625 5.5 C 21.015625 5.222656 21.238281 5 21.515625 5 Z M 21.515625 5 "/>
<path style=" stroke:none;fill-rule:nonzero;fill:rgb(0%,0%,0%);fill-opacity:0.4;" d="M 21.503906 5 C 21.230469 5.007812 21.015625 5.226562 21.015625 5.5 C 21.015625 5.542969 21.019531 5.585938 21.03125 5.625 C 21.085938 5.410156 21.28125 5.25 21.515625 5.25 C 21.75 5.25 21.945312 5.410156 22 5.625 C 22.011719 5.585938 22.015625 5.542969 22.015625 5.5 C 22.015625 5.222656 21.792969 5 21.515625 5 C 21.511719 5 21.507812 5 21.503906 5 Z M 21.503906 5 "/>
<path style=" stroke:none;fill-rule:nonzero;fill:rgb(100%,100%,100%);fill-opacity:0.4;" d="M 21.503906 6.25 C 21.230469 6.242188 21.015625 6.023438 21.015625 5.75 C 21.015625 5.707031 21.019531 5.664062 21.03125 5.625 C 21.085938 5.839844 21.28125 6 21.515625 6 C 21.75 6 21.945312 5.839844 22 5.625 C 22.011719 5.664062 22.015625 5.707031 22.015625 5.75 C 22.015625 6.027344 21.792969 6.25 21.515625 6.25 C 21.511719 6.25 21.507812 6.25 21.503906 6.25 Z M 21.503906 6.25 "/>
<path style=" stroke:none;fill-rule:nonzero;fill:rgb(95.686275%,26.274511%,21.176471%);fill-opacity:0.996078;" d="M 13.5 10 L 20.5 10 C 20.777344 10 21 10.222656 21 10.5 C 21 10.777344 20.777344 11 20.5 11 L 13.5 11 C 13.222656 11 13 10.777344 13 10.5 C 13 10.222656 13.222656 10 13.5 10 Z M 13.5 10 "/>
<path style=" stroke:none;fill-rule:nonzero;fill:rgb(40.000001%,73.333335%,41.568628%);fill-opacity:0.996078;" d="M 8.5 24 L 16.5 24 C 16.777344 24 17 24.222656 17 24.5 C 17 24.777344 16.777344 25 16.5 25 L 8.5 25 C 8.222656 25 8 24.777344 8 24.5 C 8 24.222656 8.222656 24 8.5 24 Z M 8.5 24 "/>
<path style=" stroke:none;fill-rule:nonzero;fill:url(#linear0);" d="M 12.019531 2 C 11.464844 2 11.019531 2.445312 11.019531 3 L 11.019531 4 L 7.019531 4 C 5.910156 4 5.019531 4.890625 5.019531 6 L 5.019531 28 C 5.019531 29.109375 5.910156 30 7.019531 30 L 25.019531 30 C 26.128906 30 27.019531 29.109375 27.019531 28 L 27.019531 6 C 27.019531 4.890625 26.128906 4 25.019531 4 L 21.019531 4 L 21.019531 3 C 21.019531 2.445312 20.574219 2 20.019531 2 Z M 12.019531 2 "/>
</g>
</svg>
