
<svg xmlns="http://www.w3.org/2000/svg" xmlns:xlink="http://www.w3.org/1999/xlink" width="32" height="32" viewBox="0 0 32 32" version="1.1">
<defs>
<linearGradient id="linear0" gradientUnits="userSpaceOnUse" x1="10.054166" y1="-199.125" x2="10.054166" y2="-213.941666" gradientTransform="matrix(1.889764,0,0,1.889764,-0.000632289,406.299234)">
<stop offset="0" style="stop-color:rgb(0%,0%,0%);stop-opacity:0.2;"/>
<stop offset="1" style="stop-color:rgb(100%,100%,100%);stop-opacity:0;"/>
</linearGradient>
</defs>
<g id="surface1">
<path style=" stroke:none;fill-rule:nonzero;fill:rgb(14.901961%,65.098041%,60.392159%);fill-opacity:1;" d="M 4 2 L 28 2 C 29.105469 2 30 2.894531 30 4 L 30 28 C 30 29.105469 29.105469 30 28 30 L 4 30 C 2.894531 30 2 29.105469 2 28 L 2 4 C 2 2.894531 2.894531 2 4 2 Z M 4 2 "/>
<path style=" stroke:none;fill-rule:nonzero;fill:rgb(0%,0%,0%);fill-opacity:0.4;" d="M 2 27.5 L 2 28 C 2 29.109375 2.890625 30 4 30 L 28 30 C 29.109375 30 30 29.109375 30 28 L 30 27.5 C 30 28.609375 29.109375 29.5 28 29.5 L 4 29.5 C 2.890625 29.5 2 28.609375 2 27.5 Z M 2 27.5 "/>
<path style=" stroke:none;fill-rule:nonzero;fill:rgb(0%,0%,0%);fill-opacity:0.2;" d="M 2 28 L 2 28.75 C 2 29.859375 2.890625 30.75 4 30.75 L 28 30.75 C 29.109375 30.75 30 29.859375 30 28.75 L 30 28 C 30 29.109375 29.109375 30 28 30 L 4 30 C 2.890625 30 2 29.109375 2 28 Z M 2 28 "/>
<path style=" stroke:none;fill-rule:nonzero;fill:rgb(100%,100%,100%);fill-opacity:0.4;" d="M 4 2 C 2.890625 2 2 2.890625 2 4 L 2 4.492188 C 2 3.382812 2.890625 2.492188 4 2.492188 L 28 2.492188 C 29.109375 2.492188 30 3.382812 30 4.492188 L 30 4 C 30 2.890625 29.109375 2 28 2 Z M 4 2 "/>
<path style=" stroke:none;fill-rule:nonzero;fill:rgb(93.333334%,93.333334%,93.333334%);fill-opacity:0.996078;" d="M 16 6 C 14.339844 6 13 7.339844 13 9 C 13 10.492188 14.078125 11.722656 15.5 11.960938 L 15.5 17 L 8.5 17 L 8.5 13.9375 C 9.363281 13.714844 10 12.933594 10 12 C 10 10.890625 9.109375 10 8 10 C 6.890625 10 6 10.890625 6 12 C 6 12.933594 6.636719 13.714844 7.5 13.9375 L 7.5 17 L 7 17 C 6.445312 17 6 17.445312 6 18 L 6 24 C 6 24.554688 6.445312 25 7 25 L 25 25 C 25.554688 25 26 24.554688 26 24 L 26 18 C 26 17.445312 25.554688 17 25 17 L 24.5 17 L 24.5 13.9375 C 25.363281 13.714844 26 12.933594 26 12 C 26 10.890625 25.109375 10 24 10 C 22.890625 10 22 10.890625 22 12 C 22 12.933594 22.636719 13.714844 23.5 13.9375 L 23.5 17 L 16.5 17 L 16.5 11.960938 C 17.921875 11.722656 19 10.492188 19 9 C 19 7.339844 17.660156 6 16 6 Z M 16 7 C 17.109375 7 18 7.890625 18 9 C 18 10.109375 17.109375 11 16 11 C 14.890625 11 14 10.109375 14 9 C 14 7.890625 14.890625 7 16 7 Z M 8 11 C 8.554688 11 9 11.445312 9 12 C 9 12.554688 8.554688 13 8 13 C 7.445312 13 7 12.554688 7 12 C 7 11.445312 7.445312 11 8 11 Z M 24 11 C 24.554688 11 25 11.445312 25 12 C 25 12.554688 24.554688 13 24 13 C 23.445312 13 23 12.554688 23 12 C 23 11.445312 23.445312 11 24 11 Z M 8.972656 20 C 8.980469 20 8.992188 20 9 20 C 9.554688 20 10 20.445312 10 21 C 10 21.554688 9.554688 22 9 22 C 8.445312 22 8 21.554688 8 21 C 8 20.453125 8.433594 20.011719 8.972656 20 Z M 11.972656 20 C 11.980469 20 11.992188 20 12 20 C 12.554688 20 13 20.445312 13 21 C 13 21.554688 12.554688 22 12 22 C 11.445312 22 11 21.554688 11 21 C 11 20.453125 11.433594 20.011719 11.972656 20 Z M 14.972656 20 C 14.980469 20 14.992188 20 15 20 C 15.554688 20 16 20.445312 16 21 C 16 21.554688 15.554688 22 15 22 C 14.445312 22 14 21.554688 14 21 C 14 20.453125 14.433594 20.011719 14.972656 20 Z M 14.972656 20 "/>
<path style=" stroke:none;fill-rule:nonzero;fill:rgb(100%,100%,100%);fill-opacity:0.6;" d="M 16 6 C 14.339844 6 13 7.339844 13 9 C 13 9.082031 13.003906 9.167969 13.011719 9.25 C 13.140625 7.703125 14.421875 6.5 16 6.5 C 17.578125 6.5 18.859375 7.703125 18.988281 9.25 C 18.996094 9.167969 19 9.082031 19 9 C 19 7.339844 17.660156 6 16 6 Z M 14.015625 9.246094 C 14.007812 9.328125 14 9.414062 14 9.5 C 14 10.609375 14.890625 11.5 16 11.5 C 17.109375 11.5 18 10.609375 18 9.5 C 18 9.414062 17.992188 9.328125 17.984375 9.246094 C 17.863281 10.238281 17.023438 11 16 11 C 14.976562 11 14.136719 10.238281 14.015625 9.246094 Z M 8 10 C 6.890625 10 6 10.890625 6 12 C 6 12.082031 6.007812 12.164062 6.015625 12.246094 C 6.140625 11.257812 6.976562 10.5 8 10.5 C 9.023438 10.5 9.859375 11.257812 9.984375 12.246094 C 9.992188 12.164062 10 12.082031 10 12 C 10 10.890625 9.109375 10 8 10 Z M 24 10 C 22.890625 10 22 10.890625 22 12 C 22 12.082031 22.007812 12.164062 22.015625 12.246094 C 22.140625 11.257812 22.976562 10.5 24 10.5 C 25.023438 10.5 25.859375 11.257812 25.984375 12.246094 C 25.992188 12.164062 26 12.082031 26 12 C 26 10.890625 25.109375 10 24 10 Z M 7.035156 12.246094 C 7.011719 12.328125 7 12.410156 7 12.5 C 7 13.054688 7.445312 13.5 8 13.5 C 8.554688 13.5 9 13.054688 9 12.5 C 9 12.410156 8.988281 12.328125 8.964844 12.246094 C 8.855469 12.679688 8.46875 13 8 13 C 7.53125 13 7.144531 12.679688 7.035156 12.246094 Z M 23.035156 12.246094 C 23.011719 12.328125 23 12.410156 23 12.5 C 23 13.054688 23.445312 13.5 24 13.5 C 24.554688 13.5 25 13.054688 25 12.5 C 25 12.410156 24.988281 12.328125 24.964844 12.246094 C 24.855469 12.679688 24.46875 13 24 13 C 23.53125 13 23.144531 12.679688 23.035156 12.246094 Z M 7 17 C 6.445312 17 6 17.445312 6 18 L 6 18.5 C 6 17.945312 6.445312 17.5 7 17.5 L 7.5 17.5 L 7.5 17 Z M 8.5 17 L 8.5 17.5 L 15.5 17.5 L 15.5 17 Z M 16.5 17 L 16.5 17.5 L 23.5 17.5 L 23.5 17 Z M 24.5 17 L 24.5 17.5 L 25 17.5 C 25.554688 17.5 26 17.945312 26 18.5 L 26 18 C 26 17.445312 25.554688 17 25 17 Z M 8.03125 21.242188 C 8.011719 21.324219 8 21.410156 8 21.5 C 8 22.054688 8.445312 22.5 9 22.5 C 9.554688 22.5 10 22.054688 10 21.5 C 10 21.410156 9.988281 21.328125 9.964844 21.246094 C 9.855469 21.679688 9.46875 22 9 22 C 8.53125 22 8.140625 21.679688 8.03125 21.242188 Z M 11.03125 21.242188 C 11.011719 21.324219 11 21.410156 11 21.5 C 11 22.054688 11.445312 22.5 12 22.5 C 12.554688 22.5 13 22.054688 13 21.5 C 13 21.410156 12.988281 21.328125 12.964844 21.246094 C 12.855469 21.679688 12.46875 22 12 22 C 11.53125 22 11.140625 21.679688 11.03125 21.242188 Z M 14.03125 21.242188 C 14.011719 21.324219 14 21.410156 14 21.5 C 14 22.054688 14.445312 22.5 15 22.5 C 15.554688 22.5 16 22.054688 16 21.5 C 16 21.410156 15.988281 21.328125 15.964844 21.246094 C 15.855469 21.679688 15.46875 22 15 22 C 14.53125 22 14.140625 21.679688 14.03125 21.242188 Z M 14.03125 21.242188 "/>
<path style=" stroke:none;fill-rule:nonzero;fill:rgb(0%,0%,0%);fill-opacity:0.4;" d="M 16 7 C 14.890625 7 14 7.890625 14 9 C 14 9.085938 14.007812 9.167969 14.015625 9.25 C 14.140625 8.261719 14.976562 7.5 16 7.5 C 17.023438 7.5 17.859375 8.261719 17.984375 9.25 C 17.992188 9.167969 18 9.085938 18 9 C 18 7.890625 17.109375 7 16 7 Z M 13.011719 9.253906 C 13.003906 9.335938 13 9.417969 13 9.5 C 13 10.992188 14.078125 12.222656 15.5 12.460938 L 15.5 11.960938 C 14.160156 11.734375 13.125 10.628906 13.011719 9.253906 Z M 18.988281 9.253906 C 18.875 10.628906 17.839844 11.734375 16.5 11.960938 L 16.5 12.460938 C 17.921875 12.222656 19 10.992188 19 9.5 C 19 9.417969 18.996094 9.335938 18.988281 9.253906 Z M 8 11 C 7.445312 11 7 11.445312 7 12 C 7 12.085938 7.011719 12.171875 7.03125 12.25 C 7.144531 11.816406 7.53125 11.5 8 11.5 C 8.46875 11.5 8.855469 11.816406 8.96875 12.25 C 8.988281 12.171875 9 12.085938 9 12 C 9 11.445312 8.554688 11 8 11 Z M 24 11 C 23.445312 11 23 11.445312 23 12 C 23 12.085938 23.011719 12.171875 23.03125 12.25 C 23.144531 11.816406 23.53125 11.5 24 11.5 C 24.46875 11.5 24.855469 11.816406 24.96875 12.25 C 24.988281 12.171875 25 12.085938 25 12 C 25 11.445312 24.554688 11 24 11 Z M 6.015625 12.246094 C 6.007812 12.328125 6 12.414062 6 12.5 C 6 13.433594 6.636719 14.214844 7.5 14.4375 L 7.5 13.9375 C 6.714844 13.734375 6.117188 13.070312 6.015625 12.246094 Z M 9.984375 12.246094 C 9.882812 13.070312 9.289062 13.734375 8.5 13.9375 L 8.5 14.4375 C 9.363281 14.214844 10 13.433594 10 12.5 C 10 12.414062 9.992188 12.328125 9.984375 12.246094 Z M 22.015625 12.246094 C 22.007812 12.328125 22 12.414062 22 12.5 C 22 13.433594 22.636719 14.214844 23.5 14.4375 L 23.5 13.9375 C 22.710938 13.734375 22.117188 13.070312 22.015625 12.246094 Z M 25.984375 12.246094 C 25.882812 13.070312 25.289062 13.734375 24.5 13.9375 L 24.5 14.4375 C 25.363281 14.214844 26 13.433594 26 12.5 C 26 12.414062 25.992188 12.328125 25.984375 12.246094 Z M 8.972656 20 C 8.433594 20.011719 8 20.453125 8 21 C 8 21.085938 8.011719 21.167969 8.03125 21.25 C 8.140625 20.824219 8.519531 20.511719 8.972656 20.5 C 8.980469 20.5 8.992188 20.5 9 20.5 C 9.46875 20.5 9.855469 20.816406 9.96875 21.25 C 9.988281 21.171875 10 21.085938 10 21 C 10 20.445312 9.554688 20 9 20 C 8.992188 20 8.980469 20 8.972656 20 Z M 11.972656 20 C 11.433594 20.011719 11 20.453125 11 21 C 11 21.085938 11.011719 21.167969 11.03125 21.25 C 11.140625 20.824219 11.519531 20.511719 11.972656 20.5 C 11.980469 20.5 11.992188 20.5 12 20.5 C 12.46875 20.5 12.855469 20.816406 12.96875 21.25 C 12.988281 21.171875 13 21.085938 13 21 C 13 20.445312 12.554688 20 12 20 C 11.992188 20 11.980469 20 11.972656 20 Z M 14.972656 20 C 14.433594 20.011719 14 20.453125 14 21 C 14 21.085938 14.011719 21.167969 14.03125 21.25 C 14.140625 20.824219 14.519531 20.511719 14.972656 20.5 C 14.980469 20.5 14.992188 20.5 15 20.5 C 15.46875 20.5 15.855469 20.816406 15.96875 21.25 C 15.988281 21.171875 16 21.085938 16 21 C 16 20.445312 15.554688 20 15 20 C 14.992188 20 14.980469 20 14.972656 20 Z M 6 24 L 6 24.5 C 6 25.054688 6.445312 25.5 7 25.5 L 25 25.5 C 25.554688 25.5 26 25.054688 26 24.5 L 26 24 C 26 24.554688 25.554688 25 25 25 L 7 25 C 6.445312 25 6 24.554688 6 24 Z M 6 24 "/>
<path style=" stroke:none;fill-rule:nonzero;fill:url(#linear0);" d="M 4 2 L 28 2 C 29.105469 2 30 2.894531 30 4 L 30 28 C 30 29.105469 29.105469 30 28 30 L 4 30 C 2.894531 30 2 29.105469 2 28 L 2 4 C 2 2.894531 2.894531 2 4 2 Z M 4 2 "/>
</g>
</svg>
