
<svg xmlns="http://www.w3.org/2000/svg" xmlns:xlink="http://www.w3.org/1999/xlink" width="32" height="32" viewBox="0 0 32 32" version="1.1">
<defs>
<linearGradient id="linear0" gradientUnits="userSpaceOnUse" x1="31.999998" y1="60" x2="31.999998" y2="3.999999" gradientTransform="matrix(0.5,0,0,0.5,0,0)">
<stop offset="0" style="stop-color:rgb(0%,0%,0%);stop-opacity:0.2;"/>
<stop offset="1" style="stop-color:rgb(100%,100%,100%);stop-opacity:0;"/>
</linearGradient>
<linearGradient id="linear1" gradientUnits="userSpaceOnUse" x1="12.170833" y1="-199.125" x2="12.170833" y2="-207.0625" gradientTransform="matrix(1.889764,0,0,1.889764,0.0556321,406.300198)">
<stop offset="0" style="stop-color:rgb(0%,0%,0%);stop-opacity:0.2;"/>
<stop offset="1" style="stop-color:rgb(100%,100%,100%);stop-opacity:0;"/>
</linearGradient>
</defs>
<g id="surface1">
<path style=" stroke:none;fill-rule:nonzero;fill:rgb(0%,0%,0%);fill-opacity:0.2;" d="M 5 26 L 5 26.75 C 5 27.859375 5.890625 28.75 7 28.75 L 8 28.75 L 8 28 L 7 28 C 5.890625 28 5 27.109375 5 26 Z M 27 26 C 27 27.109375 26.109375 28 25 28 L 14 28 L 8 30 L 8 30.75 L 14 28.75 L 25 28.75 C 26.109375 28.75 27 27.859375 27 26.75 Z M 27 26 "/>
<path style=" stroke:none;fill-rule:nonzero;fill:rgb(93.333334%,93.333334%,93.333334%);fill-opacity:1;" d="M 7 2 L 25 2 C 26.105469 2 27 2.894531 27 4 L 27 26 C 27 27.105469 26.105469 28 25 28 L 7 28 C 5.894531 28 5 27.105469 5 26 L 5 4 C 5 2.894531 5.894531 2 7 2 Z M 7 2 "/>
<path style=" stroke:none;fill-rule:nonzero;fill:rgb(61.960787%,61.960787%,61.960787%);fill-opacity:1;" d="M 8 25 L 8 30 L 14 28 Z M 8 25 "/>
<path style=" stroke:none;fill-rule:nonzero;fill:rgb(93.333334%,93.333334%,93.333334%);fill-opacity:1;" d="M 7 2 L 25 2 C 26.105469 2 27 2.894531 27 4 L 27 26 C 27 27.105469 26.105469 28 25 28 L 7 28 C 5.894531 28 5 27.105469 5 26 L 5 4 C 5 2.894531 5.894531 2 7 2 Z M 7 2 "/>
<path style=" stroke:none;fill-rule:nonzero;fill:rgb(100%,100%,100%);fill-opacity:0.8;" d="M 7 2.003906 C 5.890625 2.003906 5 2.898438 5 4.003906 L 5 4.5 C 5 3.390625 5.890625 2.5 7 2.5 L 25 2.5 C 26.109375 2.5 27 3.390625 27 4.5 L 27 4.003906 C 27 2.898438 26.109375 2.003906 25 2.003906 Z M 7 2.003906 "/>
<path style=" stroke:none;fill-rule:nonzero;fill:rgb(0%,0%,0%);fill-opacity:0.4;" d="M 5 25.484375 L 5 26 C 5 27.109375 5.890625 28 7 28 L 25 28 C 26.109375 28 27 27.109375 27 26 L 27 25.484375 C 27 26.59375 26.109375 27.484375 25 27.484375 L 7 27.484375 C 5.890625 27.484375 5 26.59375 5 25.484375 Z M 5 25.484375 "/>
<path style=" stroke:none;fill-rule:nonzero;fill:rgb(25.882354%,64.705884%,96.078432%);fill-opacity:1;" d="M 8.5 5 C 9.328125 5 10 5.671875 10 6.5 C 10 7.328125 9.328125 8 8.5 8 C 7.671875 8 7 7.328125 7 6.5 C 7 5.671875 7.671875 5 8.5 5 Z M 8.5 5 "/>
<path style=" stroke:none;fill-rule:nonzero;fill:rgb(95.686275%,26.274511%,21.176471%);fill-opacity:1;" d="M 8.5 10 C 9.328125 10 10 10.671875 10 11.5 C 10 12.328125 9.328125 13 8.5 13 C 7.671875 13 7 12.328125 7 11.5 C 7 10.671875 7.671875 10 8.5 10 Z M 8.5 10 "/>
<path style=" stroke:none;fill-rule:nonzero;fill:rgb(36.078432%,41.960785%,75.294119%);fill-opacity:1;" d="M 8.5 15 C 9.328125 15 10 15.671875 10 16.5 C 10 17.328125 9.328125 18 8.5 18 C 7.671875 18 7 17.328125 7 16.5 C 7 15.671875 7.671875 15 8.5 15 Z M 8.5 15 "/>
<path style=" stroke:none;fill-rule:nonzero;fill:rgb(47.058824%,56.470591%,61.176473%);fill-opacity:1;" d="M 8.5 20 C 9.328125 20 10 20.671875 10 21.5 C 10 22.328125 9.328125 23 8.5 23 C 7.671875 23 7 22.328125 7 21.5 C 7 20.671875 7.671875 20 8.5 20 Z M 8.5 20 "/>
<path style=" stroke:none;fill-rule:nonzero;fill:rgb(25.882354%,64.705884%,96.078432%);fill-opacity:1;" d="M 11.5 6 L 24.5 6 C 24.777344 6 25 6.222656 25 6.5 C 25 6.777344 24.777344 7 24.5 7 L 11.5 7 C 11.222656 7 11 6.777344 11 6.5 C 11 6.222656 11.222656 6 11.5 6 Z M 11.5 6 "/>
<path style=" stroke:none;fill-rule:nonzero;fill:rgb(95.686275%,26.274511%,21.176471%);fill-opacity:1;" d="M 11.5 11 L 24.5 11 C 24.777344 11 25 11.222656 25 11.5 C 25 11.777344 24.777344 12 24.5 12 L 11.5 12 C 11.222656 12 11 11.777344 11 11.5 C 11 11.222656 11.222656 11 11.5 11 Z M 11.5 11 "/>
<path style=" stroke:none;fill-rule:nonzero;fill:rgb(36.078432%,41.960785%,75.294119%);fill-opacity:1;" d="M 11.5 16 L 24.5 16 C 24.777344 16 25 16.222656 25 16.5 C 25 16.777344 24.777344 17 24.5 17 L 11.5 17 C 11.222656 17 11 16.777344 11 16.5 C 11 16.222656 11.222656 16 11.5 16 Z M 11.5 16 "/>
<path style=" stroke:none;fill-rule:nonzero;fill:rgb(47.058824%,56.470591%,61.176473%);fill-opacity:1;" d="M 11.5 21 L 24.5 21 C 24.777344 21 25 21.222656 25 21.5 C 25 21.777344 24.777344 22 24.5 22 L 11.5 22 C 11.222656 22 11 21.777344 11 21.5 C 11 21.222656 11.222656 21 11.5 21 Z M 11.5 21 "/>
<path style="fill:none;stroke-width:0.529167;stroke-linecap:round;stroke-linejoin:round;stroke:rgb(38.039216%,38.039216%,38.039216%);stroke-opacity:1;stroke-miterlimit:4;" d="M 3.704166 -209.708334 L 4.497916 -208.914584 L 5.688541 -210.369792 " transform="matrix(1.889764,0,0,1.889764,0,406.299234)"/>
<path style=" stroke:none;fill-rule:nonzero;fill:url(#linear0);" d="M 7 2 C 5.890625 2 5 2.890625 5 4 L 5 26 C 5 27.109375 5.890625 28 7 28 L 8 28 L 8 30 L 14 28 L 25 28 C 26.109375 28 27 27.109375 27 26 L 27 4 C 27 2.890625 26.109375 2 25 2 Z M 7 2 "/>
<path style=" stroke:none;fill-rule:nonzero;fill:rgb(67.058825%,27.843139%,73.725492%);fill-opacity:1;" d="M 22.96875 15.265625 C 22.488281 15.273438 22.015625 15.324219 21.5625 15.417969 L 21.070312 17.875 C 20.664062 18.042969 20.285156 18.261719 19.941406 18.527344 L 17.570312 17.726562 C 17.238281 18.09375 16.941406 18.503906 16.683594 18.949219 C 16.425781 19.398438 16.222656 19.859375 16.066406 20.328125 L 17.949219 21.984375 C 17.921875 22.195312 17.90625 22.414062 17.90625 22.632812 C 17.90625 22.855469 17.921875 23.070312 17.949219 23.285156 L 16.066406 24.9375 C 16.222656 25.410156 16.425781 25.871094 16.683594 26.316406 C 16.941406 26.765625 17.238281 27.171875 17.570312 27.542969 L 19.941406 26.742188 C 20.285156 27.003906 20.664062 27.222656 21.070312 27.394531 L 21.5625 29.847656 C 22.046875 29.949219 22.550781 30 23.066406 30 C 23.582031 30 24.082031 29.949219 24.570312 29.847656 L 25.058594 27.394531 C 25.464844 27.222656 25.84375 27.003906 26.191406 26.742188 L 28.5625 27.542969 C 28.890625 27.171875 29.1875 26.765625 29.445312 26.316406 C 29.703125 25.871094 29.910156 25.410156 30.066406 24.9375 L 28.179688 23.285156 C 28.207031 23.070312 28.222656 22.855469 28.222656 22.632812 C 28.222656 22.414062 28.207031 22.195312 28.179688 21.984375 L 30.066406 20.328125 C 29.910156 19.859375 29.703125 19.398438 29.445312 18.949219 C 29.1875 18.503906 28.890625 18.09375 28.5625 17.726562 L 26.191406 18.527344 C 25.84375 18.261719 25.464844 18.042969 25.058594 17.875 L 24.570312 15.417969 C 24.082031 15.320312 23.582031 15.265625 23.066406 15.265625 C 23.03125 15.265625 23 15.265625 22.96875 15.265625 Z M 23.066406 19.6875 C 24.699219 19.6875 26.011719 21 26.011719 22.632812 C 26.011719 24.265625 24.699219 25.582031 23.066406 25.582031 C 21.433594 25.582031 20.117188 24.265625 20.117188 22.632812 C 20.117188 21 21.433594 19.6875 23.066406 19.6875 Z M 23.066406 19.6875 "/>
<path style=" stroke:none;fill-rule:nonzero;fill:rgb(100%,100%,100%);fill-opacity:0.4;" d="M 22.96875 15.265625 C 22.488281 15.273438 22.015625 15.324219 21.5625 15.417969 L 21.070312 17.875 C 20.664062 18.042969 20.285156 18.261719 19.9375 18.527344 L 17.566406 17.722656 C 17.238281 18.09375 16.941406 18.503906 16.683594 18.949219 C 16.425781 19.398438 16.21875 19.859375 16.0625 20.328125 L 16.199219 20.445312 C 16.332031 20.101562 16.492188 19.765625 16.683594 19.433594 C 16.941406 18.988281 17.238281 18.578125 17.566406 18.207031 L 19.9375 19.007812 C 20.285156 18.746094 20.664062 18.527344 21.070312 18.359375 L 21.5625 15.902344 C 22.015625 15.808594 22.488281 15.757812 22.96875 15.75 C 23 15.75 23.03125 15.75 23.0625 15.75 C 23.582031 15.75 24.082031 15.804688 24.566406 15.902344 L 25.058594 18.359375 C 25.464844 18.527344 25.84375 18.746094 26.191406 19.007812 L 28.5625 18.207031 C 28.890625 18.578125 29.1875 18.988281 29.445312 19.433594 C 29.632812 19.765625 29.796875 20.101562 29.929688 20.445312 L 30.0625 20.328125 C 29.910156 19.859375 29.703125 19.398438 29.445312 18.949219 C 29.1875 18.503906 28.890625 18.09375 28.5625 17.722656 L 26.191406 18.527344 C 25.84375 18.265625 25.464844 18.042969 25.058594 17.875 L 24.566406 15.417969 C 24.082031 15.320312 23.582031 15.265625 23.0625 15.265625 C 23.03125 15.265625 23 15.265625 22.96875 15.265625 Z M 17.910156 22.433594 C 17.910156 22.5 17.90625 22.566406 17.90625 22.632812 C 17.90625 22.714844 17.910156 22.796875 17.914062 22.875 C 17.921875 22.738281 17.929688 22.601562 17.949219 22.46875 Z M 28.21875 22.4375 L 28.179688 22.46875 C 28.199219 22.601562 28.210938 22.738281 28.214844 22.875 C 28.21875 22.796875 28.222656 22.714844 28.222656 22.632812 C 28.222656 22.566406 28.21875 22.503906 28.21875 22.4375 Z M 20.128906 22.875 C 20.121094 22.957031 20.117188 23.035156 20.117188 23.117188 C 20.117188 24.75 21.433594 26.0625 23.0625 26.0625 C 24.695312 26.0625 26.011719 24.75 26.011719 23.117188 C 26.011719 23.035156 26.007812 22.957031 26 22.875 C 25.878906 24.394531 24.617188 25.582031 23.0625 25.582031 C 21.511719 25.582031 20.25 24.394531 20.128906 22.875 Z M 28.21875 23.316406 C 28.210938 23.46875 28.199219 23.621094 28.179688 23.769531 L 29.929688 25.304688 C 29.980469 25.183594 30.023438 25.0625 30.0625 24.9375 Z M 17.910156 23.316406 L 16.0625 24.941406 C 16.105469 25.0625 16.152344 25.183594 16.199219 25.304688 L 17.949219 23.769531 C 17.929688 23.621094 17.917969 23.46875 17.910156 23.316406 Z M 17.910156 23.316406 "/>
<path style=" stroke:none;fill-rule:nonzero;fill:rgb(0%,0%,0%);fill-opacity:0.4;" d="M 23.0625 19.179688 C 21.433594 19.179688 20.117188 20.496094 20.117188 22.128906 C 20.117188 22.214844 20.121094 22.296875 20.128906 22.378906 C 20.257812 20.867188 21.515625 19.6875 23.0625 19.6875 C 24.613281 19.6875 25.871094 20.867188 26 22.378906 C 26.007812 22.296875 26.011719 22.214844 26.011719 22.128906 C 26.011719 20.496094 24.695312 19.179688 23.0625 19.179688 Z M 29.925781 19.945312 L 28.179688 21.476562 C 28.199219 21.632812 28.210938 21.792969 28.21875 21.949219 L 30.0625 20.328125 C 30.023438 20.199219 29.976562 20.074219 29.925781 19.945312 Z M 16.203125 19.945312 C 16.152344 20.074219 16.105469 20.199219 16.0625 20.328125 L 17.910156 21.949219 C 17.917969 21.789062 17.929688 21.632812 17.949219 21.476562 Z M 17.914062 22.382812 C 17.910156 22.464844 17.90625 22.550781 17.90625 22.632812 C 17.90625 22.691406 17.910156 22.753906 17.910156 22.8125 L 17.949219 22.777344 C 17.933594 22.648438 17.921875 22.515625 17.914062 22.382812 Z M 28.214844 22.382812 C 28.207031 22.515625 28.199219 22.648438 28.179688 22.777344 L 28.21875 22.8125 C 28.21875 22.753906 28.222656 22.691406 28.222656 22.632812 C 28.222656 22.550781 28.21875 22.464844 28.214844 22.382812 Z M 16.203125 24.816406 L 16.0625 24.9375 C 16.21875 25.410156 16.425781 25.871094 16.683594 26.316406 C 16.941406 26.765625 17.238281 27.171875 17.566406 27.542969 L 19.9375 26.742188 C 20.285156 27.003906 20.664062 27.222656 21.070312 27.394531 L 21.5625 29.847656 C 22.046875 29.949219 22.546875 30 23.0625 30 C 23.582031 30 24.082031 29.949219 24.566406 29.847656 L 25.058594 27.394531 C 25.464844 27.222656 25.84375 27.003906 26.191406 26.742188 L 28.5625 27.542969 C 28.890625 27.171875 29.1875 26.765625 29.445312 26.316406 C 29.703125 25.871094 29.910156 25.410156 30.0625 24.941406 L 29.925781 24.816406 C 29.792969 25.15625 29.632812 25.488281 29.445312 25.8125 C 29.1875 26.257812 28.890625 26.667969 28.5625 27.039062 L 26.191406 26.238281 C 25.84375 26.5 25.464844 26.71875 25.058594 26.886719 L 24.566406 29.34375 C 24.082031 29.441406 23.582031 29.496094 23.0625 29.496094 C 22.546875 29.496094 22.046875 29.441406 21.5625 29.34375 L 21.070312 26.886719 C 20.664062 26.71875 20.285156 26.5 19.9375 26.238281 L 17.566406 27.039062 C 17.238281 26.667969 16.941406 26.257812 16.683594 25.8125 C 16.496094 25.488281 16.335938 25.15625 16.203125 24.816406 Z M 16.203125 24.816406 "/>
<path style=" stroke:none;fill-rule:nonzero;fill:rgb(0%,0%,0%);fill-opacity:0.2;" d="M 23.0625 19.6875 C 21.433594 19.6875 20.117188 21 20.117188 22.632812 C 20.117188 22.757812 20.125 22.882812 20.140625 23.003906 C 20.324219 21.550781 21.558594 20.429688 23.0625 20.429688 C 24.570312 20.429688 25.804688 21.550781 25.988281 23.003906 C 26.003906 22.882812 26.011719 22.757812 26.011719 22.632812 C 26.011719 21 24.695312 19.6875 23.0625 19.6875 Z M 29.855469 20.511719 L 28.179688 21.984375 C 28.207031 22.195312 28.222656 22.414062 28.222656 22.632812 C 28.222656 22.652344 28.222656 22.671875 28.21875 22.691406 L 30.0625 21.070312 C 30.003906 20.882812 29.933594 20.699219 29.855469 20.511719 Z M 16.273438 20.515625 C 16.199219 20.699219 16.125 20.882812 16.0625 21.070312 L 17.910156 22.691406 C 17.910156 22.671875 17.90625 22.652344 17.90625 22.632812 C 17.90625 22.414062 17.921875 22.195312 17.949219 21.984375 Z M 17.921875 23.003906 C 17.914062 23.109375 17.910156 23.214844 17.910156 23.320312 L 17.949219 23.285156 C 17.9375 23.191406 17.925781 23.097656 17.921875 23.003906 Z M 28.207031 23.003906 C 28.203125 23.097656 28.191406 23.191406 28.179688 23.285156 L 28.21875 23.320312 C 28.21875 23.214844 28.214844 23.109375 28.207031 23.003906 Z M 16.273438 25.496094 L 16.0625 25.683594 C 16.21875 26.152344 16.425781 26.613281 16.683594 27.058594 C 16.941406 27.507812 17.238281 27.914062 17.566406 28.285156 L 19.9375 27.484375 C 20.285156 27.746094 20.664062 27.964844 21.070312 28.136719 L 21.5625 30.589844 C 22.046875 30.691406 22.546875 30.742188 23.0625 30.742188 C 23.582031 30.742188 24.082031 30.691406 24.566406 30.589844 L 25.058594 28.136719 C 25.464844 27.964844 25.84375 27.746094 26.191406 27.484375 L 28.5625 28.285156 C 28.890625 27.914062 29.1875 27.507812 29.445312 27.058594 C 29.703125 26.613281 29.910156 26.152344 30.0625 25.683594 L 29.851562 25.496094 C 29.734375 25.773438 29.597656 26.046875 29.445312 26.316406 C 29.1875 26.765625 28.890625 27.171875 28.5625 27.542969 L 26.191406 26.742188 C 25.84375 27.003906 25.464844 27.222656 25.058594 27.394531 L 24.566406 29.847656 C 24.082031 29.949219 23.582031 30 23.0625 30 C 22.546875 30 22.046875 29.949219 21.5625 29.847656 L 21.070312 27.394531 C 20.664062 27.222656 20.285156 27.003906 19.9375 26.742188 L 17.566406 27.542969 C 17.238281 27.171875 16.941406 26.765625 16.683594 26.316406 C 16.53125 26.046875 16.394531 25.773438 16.273438 25.496094 Z M 16.273438 25.496094 "/>
<path style=" stroke:none;fill-rule:nonzero;fill:url(#linear1);" d="M 22.96875 15.265625 C 22.488281 15.273438 22.015625 15.324219 21.5625 15.417969 L 21.070312 17.875 C 20.664062 18.042969 20.285156 18.261719 19.941406 18.527344 L 17.570312 17.726562 C 17.238281 18.09375 16.941406 18.503906 16.683594 18.949219 C 16.425781 19.398438 16.222656 19.859375 16.066406 20.328125 L 17.949219 21.984375 C 17.921875 22.195312 17.90625 22.414062 17.90625 22.632812 C 17.90625 22.855469 17.921875 23.070312 17.949219 23.285156 L 16.066406 24.9375 C 16.222656 25.410156 16.425781 25.871094 16.683594 26.316406 C 16.941406 26.765625 17.238281 27.171875 17.570312 27.542969 L 19.941406 26.742188 C 20.285156 27.003906 20.664062 27.222656 21.070312 27.394531 L 21.5625 29.847656 C 22.046875 29.949219 22.550781 30 23.066406 30 C 23.582031 30 24.082031 29.949219 24.570312 29.847656 L 25.058594 27.394531 C 25.464844 27.222656 25.84375 27.003906 26.191406 26.742188 L 28.5625 27.542969 C 28.890625 27.171875 29.1875 26.765625 29.445312 26.316406 C 29.703125 25.871094 29.910156 25.410156 30.066406 24.9375 L 28.179688 23.285156 C 28.207031 23.070312 28.222656 22.855469 28.222656 22.632812 C 28.222656 22.414062 28.207031 22.195312 28.179688 21.984375 L 30.066406 20.328125 C 29.910156 19.859375 29.703125 19.398438 29.445312 18.949219 C 29.1875 18.503906 28.890625 18.09375 28.5625 17.726562 L 26.191406 18.527344 C 25.84375 18.261719 25.464844 18.042969 25.058594 17.875 L 24.570312 15.417969 C 24.082031 15.320312 23.582031 15.265625 23.066406 15.265625 C 23.03125 15.265625 23 15.265625 22.96875 15.265625 Z M 23.066406 19.6875 C 24.699219 19.6875 26.011719 21 26.011719 22.632812 C 26.011719 24.265625 24.699219 25.582031 23.066406 25.582031 C 21.433594 25.582031 20.117188 24.265625 20.117188 22.632812 C 20.117188 21 21.433594 19.6875 23.066406 19.6875 Z M 23.066406 19.6875 "/>
</g>
</svg>
