
<svg xmlns="http://www.w3.org/2000/svg" xmlns:xlink="http://www.w3.org/1999/xlink" width="32" height="32" viewBox="0 0 32 32" version="1.1">
<defs>
<linearGradient id="linear0" gradientUnits="userSpaceOnUse" x1="8.466666" y1="-199.125" x2="8.466666" y2="-213.941666" gradientTransform="matrix(1.889764,0,0,1.889764,-0.00000631431,406.299234)">
<stop offset="0" style="stop-color:rgb(0%,0%,0%);stop-opacity:0.2;"/>
<stop offset="1" style="stop-color:rgb(100%,100%,100%);stop-opacity:0;"/>
</linearGradient>
</defs>
<g id="surface1">
<path style=" stroke:none;fill-rule:nonzero;fill:rgb(92.54902%,25.098041%,47.843137%);fill-opacity:1;" d="M 4 2 L 28 2 C 29.105469 2 30 2.894531 30 4 L 30 28 C 30 29.105469 29.105469 30 28 30 L 4 30 C 2.894531 30 2 29.105469 2 28 L 2 4 C 2 2.894531 2.894531 2 4 2 Z M 4 2 "/>
<path style=" stroke:none;fill-rule:nonzero;fill:rgb(74.117649%,74.117649%,74.117649%);fill-opacity:1;" d="M 21.550781 9.105469 L 7.765625 16 L 21.550781 22.894531 L 22.449219 21.105469 L 12.230469 16 L 22.449219 10.894531 Z M 21.550781 9.105469 "/>
<path style=" stroke:none;fill-rule:nonzero;fill:rgb(0%,0%,0%);fill-opacity:0.4;" d="M 2 27.5 L 2 28 C 2 29.109375 2.890625 30 4 30 L 28 30 C 29.109375 30 30 29.109375 30 28 L 30 27.5 C 30 28.609375 29.109375 29.5 28 29.5 L 4 29.5 C 2.890625 29.5 2 28.609375 2 27.5 Z M 2 27.5 "/>
<path style=" stroke:none;fill-rule:nonzero;fill:rgb(0%,0%,0%);fill-opacity:0.2;" d="M 2 28 L 2 28.75 C 2 29.859375 2.890625 30.75 4 30.75 L 28 30.75 C 29.109375 30.75 30 29.859375 30 28.75 L 30 28 C 30 29.109375 29.109375 30 28 30 L 4 30 C 2.890625 30 2 29.109375 2 28 Z M 2 28 "/>
<path style=" stroke:none;fill-rule:nonzero;fill:rgb(100%,100%,100%);fill-opacity:0.4;" d="M 4 2 C 2.890625 2 2 2.890625 2 4 L 2 4.492188 C 2 3.382812 2.890625 2.492188 4 2.492188 L 28 2.492188 C 29.109375 2.492188 30 3.382812 30 4.492188 L 30 4 C 30 2.890625 29.109375 2 28 2 Z M 4 2 "/>
<path style=" stroke:none;fill-rule:nonzero;fill:rgb(87.843138%,87.843138%,87.843138%);fill-opacity:0.996078;" d="M 10 13 C 11.65625 13 13 14.34375 13 16 C 13 17.65625 11.65625 19 10 19 C 8.34375 19 7 17.65625 7 16 C 7 14.34375 8.34375 13 10 13 Z M 10 13 "/>
<path style=" stroke:none;fill-rule:nonzero;fill:rgb(87.843138%,87.843138%,87.843138%);fill-opacity:0.996078;" d="M 22 7 C 23.65625 7 25 8.34375 25 10 C 25 11.65625 23.65625 13 22 13 C 20.34375 13 19 11.65625 19 10 C 19 8.34375 20.34375 7 22 7 Z M 22 7 "/>
<path style=" stroke:none;fill-rule:nonzero;fill:rgb(87.843138%,87.843138%,87.843138%);fill-opacity:0.996078;" d="M 22 19 C 23.65625 19 25 20.34375 25 22 C 25 23.65625 23.65625 25 22 25 C 20.34375 25 19 23.65625 19 22 C 19 20.34375 20.34375 19 22 19 Z M 22 19 "/>
<path style=" stroke:none;fill-rule:nonzero;fill:rgb(100%,100%,100%);fill-opacity:0.6;" d="M 22 7 C 20.339844 7 19 8.339844 19 10 C 19 10.082031 19.003906 10.160156 19.011719 10.238281 C 19.144531 8.699219 20.425781 7.5 22 7.5 C 23.574219 7.5 24.855469 8.699219 24.988281 10.238281 C 24.996094 10.160156 25 10.082031 25 10 C 25 8.339844 23.660156 7 22 7 Z M 10 13 C 8.339844 13 7 14.339844 7 16 C 7 16.082031 7.003906 16.160156 7.011719 16.238281 C 7.144531 14.699219 8.425781 13.5 10 13.5 C 11.574219 13.5 12.855469 14.699219 12.988281 16.238281 C 12.996094 16.160156 13 16.082031 13 16 C 13 14.339844 11.660156 13 10 13 Z M 22 19 C 20.339844 19 19 20.339844 19 22 C 19 22.082031 19.003906 22.160156 19.011719 22.238281 C 19.144531 20.699219 20.425781 19.5 22 19.5 C 23.574219 19.5 24.855469 20.699219 24.988281 22.238281 C 24.996094 22.160156 25 22.082031 25 22 C 25 20.339844 23.660156 19 22 19 Z M 22 19 "/>
<path style=" stroke:none;fill-rule:nonzero;fill:rgb(0%,0%,0%);fill-opacity:0.4;" d="M 22 25.5 C 20.339844 25.5 19 24.160156 19 22.5 C 19 22.417969 19.003906 22.339844 19.011719 22.261719 C 19.144531 23.800781 20.425781 25 22 25 C 23.574219 25 24.855469 23.800781 24.988281 22.261719 C 24.996094 22.339844 25 22.417969 25 22.5 C 25 24.160156 23.660156 25.5 22 25.5 Z M 10 19.5 C 8.339844 19.5 7 18.160156 7 16.5 C 7 16.417969 7.003906 16.339844 7.011719 16.261719 C 7.144531 17.800781 8.425781 19 10 19 C 11.574219 19 12.855469 17.800781 12.988281 16.261719 C 12.996094 16.339844 13 16.417969 13 16.5 C 13 18.160156 11.660156 19.5 10 19.5 Z M 22 13.5 C 20.339844 13.5 19 12.160156 19 10.5 C 19 10.417969 19.003906 10.339844 19.011719 10.261719 C 19.144531 11.800781 20.425781 13 22 13 C 23.574219 13 24.855469 11.800781 24.988281 10.261719 C 24.996094 10.339844 25 10.417969 25 10.5 C 25 12.160156 23.660156 13.5 22 13.5 Z M 22 13.5 "/>
<path style=" stroke:none;fill-rule:nonzero;fill:url(#linear0);" d="M 4 2 L 28 2 C 29.105469 2 30 2.894531 30 4 L 30 28 C 30 29.105469 29.105469 30 28 30 L 4 30 C 2.894531 30 2 29.105469 2 28 L 2 4 C 2 2.894531 2.894531 2 4 2 Z M 4 2 "/>
</g>
</svg>
