
<svg xmlns="http://www.w3.org/2000/svg" xmlns:xlink="http://www.w3.org/1999/xlink" width="48" height="48" viewBox="0 0 48 48" version="1.1">
<defs>
<linearGradient id="linear0" gradientUnits="userSpaceOnUse" x1="31.999998" y1="59.999996" x2="31.999998" y2="4" gradientTransform="matrix(0.75,0,0,0.75,0,0.000000000000085265)">
<stop offset="0" style="stop-color:rgb(0%,0%,0%);stop-opacity:0.2;"/>
<stop offset="1" style="stop-color:rgb(100%,100%,100%);stop-opacity:0;"/>
</linearGradient>
</defs>
<g id="surface1">
<path style=" stroke:none;fill-rule:nonzero;fill:rgb(95.686275%,26.274511%,21.176471%);fill-opacity:1;" d="M 21.796875 22.796875 L 3.703125 32.449219 C 3.269531 32.679688 2.996094 33.128906 2.996094 33.621094 C 2.996094 34.113281 3.269531 34.566406 3.703125 34.796875 L 21.796875 44.449219 C 23.175781 45.179688 24.824219 45.179688 26.203125 44.449219 L 44.296875 34.796875 C 44.730469 34.566406 45.003906 34.113281 45.003906 33.621094 C 45.003906 33.128906 44.730469 32.679688 44.296875 32.449219 L 26.203125 22.796875 C 24.824219 22.0625 23.175781 22.0625 21.796875 22.796875 Z M 21.796875 22.796875 "/>
<path style=" stroke:none;fill-rule:nonzero;fill:rgb(40.000001%,73.333335%,41.568628%);fill-opacity:1;" d="M 21.796875 13.175781 L 3.703125 22.828125 C 3.269531 23.058594 2.996094 23.507812 2.996094 24 C 2.996094 24.492188 3.269531 24.945312 3.703125 25.175781 L 21.796875 34.828125 C 23.175781 35.558594 24.824219 35.558594 26.203125 34.828125 L 44.296875 25.175781 C 44.730469 24.945312 45.003906 24.492188 45.003906 24 C 45.003906 23.507812 44.730469 23.058594 44.296875 22.828125 L 26.203125 13.175781 C 24.824219 12.441406 23.175781 12.441406 21.796875 13.175781 Z M 21.796875 13.175781 "/>
<path style=" stroke:none;fill-rule:nonzero;fill:rgb(25.882354%,64.705884%,96.078432%);fill-opacity:1;" d="M 21.796875 3.546875 L 3.703125 13.199219 C 3.269531 13.429688 2.996094 13.882812 2.996094 14.375 C 2.996094 14.863281 3.269531 15.316406 3.703125 15.546875 L 21.796875 25.199219 C 23.175781 25.933594 24.824219 25.933594 26.203125 25.199219 L 44.296875 15.546875 C 44.730469 15.316406 45.003906 14.863281 45.003906 14.375 C 45.003906 13.882812 44.730469 13.429688 44.296875 13.199219 L 26.203125 3.546875 C 24.824219 2.8125 23.175781 2.8125 21.796875 3.546875 Z M 21.796875 3.546875 "/>
<path style=" stroke:none;fill-rule:nonzero;fill:rgb(0%,0%,0%);fill-opacity:0.4;" d="M 23.671875 25.734375 C 23.015625 25.6875 22.378906 25.503906 21.796875 25.195312 L 3.703125 15.542969 C 3.144531 15.246094 2.875 14.597656 3.054688 13.992188 C 3.15625 14.335938 3.386719 14.621094 3.703125 14.789062 L 21.796875 24.441406 C 23.175781 25.175781 24.824219 25.175781 26.203125 24.441406 L 44.296875 14.789062 C 44.613281 14.621094 44.84375 14.335938 44.945312 13.992188 C 45.125 14.597656 44.855469 15.246094 44.296875 15.542969 L 26.203125 25.195312 C 25.425781 25.609375 24.550781 25.796875 23.671875 25.734375 Z M 23.671875 25.734375 "/>
<path style=" stroke:none;fill-rule:nonzero;fill:rgb(0%,0%,0%);fill-opacity:0.4;" d="M 23.671875 35.355469 C 23.015625 35.3125 22.378906 35.125 21.796875 34.816406 L 3.703125 25.164062 C 3.144531 24.867188 2.875 24.21875 3.054688 23.613281 C 3.15625 23.957031 3.386719 24.242188 3.703125 24.414062 L 21.796875 34.066406 C 23.175781 34.796875 24.824219 34.796875 26.203125 34.066406 L 44.296875 24.414062 C 44.613281 24.242188 44.84375 23.957031 44.945312 23.613281 C 45.125 24.21875 44.855469 24.867188 44.296875 25.164062 L 26.203125 34.816406 C 25.425781 35.230469 24.550781 35.417969 23.671875 35.355469 Z M 23.671875 35.355469 "/>
<path style=" stroke:none;fill-rule:nonzero;fill:rgb(0%,0%,0%);fill-opacity:0.4;" d="M 23.671875 45 C 23.015625 44.953125 22.378906 44.769531 21.796875 44.460938 L 3.703125 34.808594 C 3.144531 34.511719 2.875 33.863281 3.054688 33.257812 C 3.15625 33.601562 3.386719 33.886719 3.703125 34.054688 L 21.796875 43.707031 C 23.175781 44.441406 24.824219 44.441406 26.203125 43.707031 L 44.296875 34.054688 C 44.613281 33.886719 44.84375 33.601562 44.945312 33.257812 C 45.125 33.863281 44.855469 34.511719 44.296875 34.808594 L 26.203125 44.460938 C 25.425781 44.875 24.550781 45.0625 23.671875 45 Z M 23.671875 45 "/>
<path style=" stroke:none;fill-rule:nonzero;fill:rgb(0%,0%,0%);fill-opacity:0.101961;" d="M 10.523438 19.1875 L 6.515625 21.324219 L 21.796875 29.476562 C 23.175781 30.210938 24.824219 30.210938 26.203125 29.476562 L 41.484375 21.324219 L 37.476562 19.1875 L 26.203125 25.199219 C 24.824219 25.933594 23.175781 25.933594 21.796875 25.199219 Z M 10.523438 19.1875 "/>
<path style=" stroke:none;fill-rule:nonzero;fill:rgb(0%,0%,0%);fill-opacity:0.101961;" d="M 10.535156 28.804688 L 5.734375 31.363281 L 21.796875 39.933594 C 23.175781 40.667969 24.824219 40.667969 26.203125 39.933594 L 42.265625 31.363281 L 37.464844 28.804688 L 26.203125 34.8125 C 24.824219 35.546875 23.175781 35.546875 21.796875 34.8125 Z M 10.535156 28.804688 "/>
<path style=" stroke:none;fill-rule:nonzero;fill:url(#linear0);" d="M 23.671875 3.007812 C 23.015625 3.054688 22.378906 3.238281 21.796875 3.546875 L 3.703125 13.199219 C 3.269531 13.429688 2.996094 13.882812 2.996094 14.375 C 2.996094 14.863281 3.269531 15.316406 3.703125 15.546875 L 10.523438 19.1875 L 3.703125 22.828125 C 3.269531 23.058594 2.996094 23.507812 2.996094 24 C 2.996094 24.492188 3.269531 24.945312 3.703125 25.175781 L 10.519531 28.808594 L 3.703125 32.449219 C 3.269531 32.679688 2.996094 33.128906 2.996094 33.621094 C 2.996094 34.113281 3.269531 34.566406 3.703125 34.796875 L 21.796875 44.449219 C 23.175781 45.179688 24.824219 45.179688 26.203125 44.449219 L 44.296875 34.796875 C 44.730469 34.566406 45.003906 34.113281 45.003906 33.621094 C 45.003906 33.128906 44.730469 32.679688 44.296875 32.449219 L 37.480469 28.808594 L 44.296875 25.175781 C 44.730469 24.945312 45.003906 24.492188 45.003906 24 C 45.003906 23.507812 44.730469 23.058594 44.296875 22.828125 L 37.476562 19.1875 L 44.296875 15.546875 C 44.730469 15.316406 45.003906 14.863281 45.003906 14.375 C 45.003906 13.882812 44.730469 13.429688 44.296875 13.199219 L 26.203125 3.546875 C 25.425781 3.132812 24.550781 2.949219 23.671875 3.007812 Z M 23.671875 3.007812 "/>
<path style=" stroke:none;fill-rule:nonzero;fill:rgb(0%,0%,0%);fill-opacity:0.101961;" d="M 44.75 23.25 C 44.632812 23.417969 44.476562 23.554688 44.296875 23.652344 L 26.203125 33.304688 C 24.824219 34.039062 23.175781 34.039062 21.796875 33.304688 L 3.703125 23.652344 C 3.523438 23.554688 3.371094 23.417969 3.253906 23.253906 C 3.171875 23.386719 3.117188 23.53125 3.085938 23.683594 C 3.195312 23.992188 3.414062 24.25 3.703125 24.40625 L 21.796875 34.058594 C 22.378906 34.367188 23.015625 34.550781 23.671875 34.597656 C 24.550781 34.65625 25.425781 34.472656 26.203125 34.058594 L 44.296875 24.40625 C 44.601562 24.242188 44.832031 23.96875 44.9375 23.636719 C 44.894531 23.5 44.832031 23.367188 44.75 23.25 Z M 44.75 23.25 "/>
<path style=" stroke:none;fill-rule:nonzero;fill:rgb(0%,0%,0%);fill-opacity:0.101961;" d="M 44.753906 13.625 C 44.636719 13.796875 44.480469 13.9375 44.296875 14.039062 L 26.203125 23.691406 C 24.824219 24.421875 23.175781 24.421875 21.796875 23.691406 L 3.703125 14.039062 C 3.519531 13.9375 3.367188 13.800781 3.25 13.628906 C 3.167969 13.765625 3.113281 13.910156 3.082031 14.0625 C 3.191406 14.375 3.414062 14.632812 3.703125 14.789062 L 21.796875 24.441406 C 22.378906 24.75 23.015625 24.933594 23.671875 24.980469 C 24.550781 25.042969 25.425781 24.855469 26.203125 24.441406 L 44.296875 14.789062 C 44.605469 14.625 44.835938 14.347656 44.9375 14.015625 C 44.898438 13.878906 44.835938 13.746094 44.753906 13.625 Z M 44.753906 13.625 "/>
<path style=" stroke:none;fill-rule:nonzero;fill:rgb(0%,0%,0%);fill-opacity:0.101961;" d="M 44.761719 32.882812 C 44.640625 33.058594 44.484375 33.203125 44.296875 33.304688 L 26.203125 42.957031 C 24.824219 43.691406 23.175781 43.691406 21.796875 42.957031 L 3.703125 33.304688 C 3.515625 33.203125 3.359375 33.058594 3.238281 32.886719 C 3.160156 33.019531 3.109375 33.167969 3.082031 33.324219 C 3.1875 33.636719 3.410156 33.898438 3.703125 34.058594 L 21.796875 43.710938 C 22.378906 44.019531 23.015625 44.203125 23.671875 44.25 C 24.550781 44.3125 25.425781 44.125 26.203125 43.710938 L 44.296875 34.058594 C 44.609375 33.894531 44.839844 33.609375 44.941406 33.277344 C 44.902344 33.136719 44.839844 33.003906 44.761719 32.882812 Z M 44.761719 32.882812 "/>
<path style=" stroke:none;fill-rule:nonzero;fill:rgb(0%,0%,0%);fill-opacity:0.2;" d="M 44.875 34.183594 C 44.753906 34.445312 44.550781 34.660156 44.296875 34.796875 L 26.203125 44.449219 C 24.824219 45.179688 23.175781 45.179688 21.796875 44.449219 L 3.703125 34.796875 C 3.453125 34.65625 3.253906 34.441406 3.132812 34.183594 C 2.835938 34.820312 3.082031 35.582031 3.703125 35.917969 L 21.796875 45.570312 C 23.175781 46.304688 24.824219 46.304688 26.203125 45.570312 L 44.296875 35.917969 C 44.921875 35.585938 45.175781 34.820312 44.875 34.183594 Z M 44.875 34.183594 "/>
</g>
</svg>
