
<svg xmlns="http://www.w3.org/2000/svg" xmlns:xlink="http://www.w3.org/1999/xlink" width="32" height="32" viewBox="0 0 32 32" version="1.1">
<defs>
<linearGradient id="linear0" gradientUnits="userSpaceOnUse" x1="31.999998" y1="57.999996" x2="31.999998" y2="8" gradientTransform="matrix(0.5,0,0,0.5,0,0)">
<stop offset="0" style="stop-color:rgb(0%,0%,0%);stop-opacity:0.2;"/>
<stop offset="1" style="stop-color:rgb(100%,100%,100%);stop-opacity:0;"/>
</linearGradient>
</defs>
<g id="surface1">
<path style=" stroke:none;fill-rule:nonzero;fill:rgb(93.333334%,93.333334%,93.333334%);fill-opacity:1;" d="M 5 5 L 27 5 C 28.105469 5 29 5.894531 29 7 L 29 27 C 29 28.105469 28.105469 29 27 29 L 5 29 C 3.894531 29 3 28.105469 3 27 L 3 7 C 3 5.894531 3.894531 5 5 5 Z M 5 5 "/>
<path style=" stroke:none;fill-rule:nonzero;fill:rgb(0%,0%,0%);fill-opacity:0.2;" d="M 3 27.023438 L 3 27.769531 C 3 28.875 3.890625 29.769531 5 29.769531 L 27 29.769531 C 28.109375 29.769531 29 28.875 29 27.769531 L 29 27.023438 C 29 28.128906 28.109375 29.023438 27 29.023438 L 5 29.023438 C 3.890625 29.023438 3 28.128906 3 27.023438 Z M 3 27.023438 "/>
<path style=" stroke:none;fill-rule:nonzero;fill:rgb(0%,0%,0%);fill-opacity:0.4;" d="M 3 26.515625 L 3 27.015625 C 3 28.121094 3.890625 29.015625 5 29.015625 L 27 29.015625 C 28.109375 29.015625 29 28.121094 29 27.015625 L 29 26.515625 C 29 27.625 28.109375 28.515625 27 28.515625 L 5 28.515625 C 3.890625 28.515625 3 27.625 3 26.515625 Z M 3 26.515625 "/>
<path style=" stroke:none;fill-rule:nonzero;fill:rgb(38.039216%,38.039216%,38.039216%);fill-opacity:1;" d="M 3 4 L 29 4 C 29.550781 4 30 4.449219 30 5 L 30 8 C 30 8.550781 29.550781 9 29 9 L 3 9 C 2.449219 9 2 8.550781 2 8 L 2 5 C 2 4.449219 2.449219 4 3 4 Z M 3 4 "/>
<path style=" stroke:none;fill-rule:nonzero;fill:rgb(100%,100%,100%);fill-opacity:0.4;" d="M 3 4 C 2.445312 4 2 4.445312 2 5 L 2 5.5 C 2 4.945312 2.445312 4.5 3 4.5 L 29 4.5 C 29.554688 4.5 30 4.945312 30 5.5 L 30 5 C 30 4.445312 29.554688 4 29 4 Z M 3 4 "/>
<path style=" stroke:none;fill-rule:nonzero;fill:rgb(7.058824%,7.058824%,7.058824%);fill-opacity:0.4;" d="M 3 9 L 29 9 L 29 9.5 L 3 9.5 Z M 3 9 "/>
<path style=" stroke:none;fill-rule:nonzero;fill:rgb(95.686275%,26.274511%,21.176471%);fill-opacity:1;" d="M 14.5 12 L 16.5 12 C 16.777344 12 17 12.222656 17 12.5 L 17 23.5 C 17 23.777344 16.777344 24 16.5 24 L 14.5 24 C 14.222656 24 14 23.777344 14 23.5 L 14 12.5 C 14 12.222656 14.222656 12 14.5 12 Z M 14.5 12 "/>
<path style=" stroke:none;fill-rule:nonzero;fill:rgb(36.078432%,41.960785%,75.294119%);fill-opacity:1;" d="M 19.5 16 L 21.5 16 C 21.777344 16 22 16.222656 22 16.5 L 22 23.5 C 22 23.777344 21.777344 24 21.5 24 L 19.5 24 C 19.222656 24 19 23.777344 19 23.5 L 19 16.5 C 19 16.222656 19.222656 16 19.5 16 Z M 19.5 16 "/>
<path style=" stroke:none;fill-rule:nonzero;fill:rgb(40.000001%,73.333335%,41.568628%);fill-opacity:1;" d="M 24.5 14 L 26.5 14 C 26.777344 14 27 14.222656 27 14.5 L 27 23.5 C 27 23.777344 26.777344 24 26.5 24 L 24.5 24 C 24.222656 24 24 23.777344 24 23.5 L 24 14.5 C 24 14.222656 24.222656 14 24.5 14 Z M 24.5 14 "/>
<path style=" stroke:none;fill-rule:nonzero;fill:rgb(40.000001%,73.333335%,41.568628%);fill-opacity:1;" d="M 8.5 12 C 6.5625 12 5 13.5625 5 15.5 C 5 17.4375 6.5625 19 8.5 19 C 10.4375 19 12 17.4375 12 15.5 C 12 14.390625 11.488281 13.40625 10.6875 12.765625 L 8.5 15.5 Z M 8.5 12 "/>
<path style=" stroke:none;fill-rule:nonzero;fill:rgb(100%,65.490198%,14.901961%);fill-opacity:1;" d="M 8.5 12 L 8.5 15.5 L 10.6875 12.765625 C 10.089844 12.285156 9.328125 12 8.5 12 Z M 8.5 12 "/>
<path style=" stroke:none;fill-rule:nonzero;fill:rgb(0%,0%,0%);fill-opacity:0.4;" d="M 8.5 12 C 6.5625 12 5 13.5625 5 15.5 C 5 15.578125 5.007812 15.652344 5.011719 15.730469 C 5.148438 13.917969 6.652344 12.5 8.5 12.5 C 9.328125 12.5 10.089844 12.785156 10.6875 13.265625 C 11.421875 13.851562 11.914062 14.730469 11.988281 15.730469 C 11.992188 15.652344 12 15.578125 12 15.5 C 12 14.390625 11.488281 13.40625 10.6875 12.765625 C 10.089844 12.285156 9.328125 12 8.5 12 Z M 14.5 12 C 14.222656 12 14 12.222656 14 12.5 L 14 13 C 14 12.722656 14.222656 12.5 14.5 12.5 L 16.5 12.5 C 16.777344 12.5 17 12.722656 17 13 L 17 12.5 C 17 12.222656 16.777344 12 16.5 12 Z M 24.5 14 C 24.222656 14 24 14.222656 24 14.5 L 24 15 C 24 14.722656 24.222656 14.5 24.5 14.5 L 26.5 14.5 C 26.777344 14.5 27 14.722656 27 15 L 27 14.5 C 27 14.222656 26.777344 14 26.5 14 Z M 19.5 16 C 19.222656 16 19 16.222656 19 16.5 L 19 17 C 19 16.722656 19.222656 16.5 19.5 16.5 L 21.5 16.5 C 21.777344 16.5 22 16.722656 22 17 L 22 16.5 C 22 16.222656 21.777344 16 21.5 16 Z M 19.5 16 "/>
<path style=" stroke:none;fill-rule:nonzero;fill:rgb(100%,100%,100%);fill-opacity:0.8;" d="M 11.992188 15.75 C 11.863281 17.570312 10.355469 19 8.5 19 C 6.644531 19 5.136719 17.570312 5.007812 15.75 C 5.003906 15.832031 5 15.914062 5 16 C 5 17.9375 6.5625 19.5 8.5 19.5 C 10.4375 19.5 12 17.9375 12 16 C 12 15.914062 11.996094 15.832031 11.992188 15.75 Z M 14 23.5 L 14 24 C 14 24.277344 14.222656 24.5 14.5 24.5 L 16.5 24.5 C 16.777344 24.5 17 24.277344 17 24 L 17 23.5 C 17 23.777344 16.777344 24 16.5 24 L 14.5 24 C 14.222656 24 14 23.777344 14 23.5 Z M 19 23.5 L 19 24 C 19 24.277344 19.222656 24.5 19.5 24.5 L 21.5 24.5 C 21.777344 24.5 22 24.277344 22 24 L 22 23.5 C 22 23.777344 21.777344 24 21.5 24 L 19.5 24 C 19.222656 24 19 23.777344 19 23.5 Z M 24 23.5 L 24 24 C 24 24.277344 24.222656 24.5 24.5 24.5 L 26.5 24.5 C 26.777344 24.5 27 24.277344 27 24 L 27 23.5 C 27 23.777344 26.777344 24 26.5 24 L 24.5 24 C 24.222656 24 24 23.777344 24 23.5 Z M 24 23.5 "/>
<path style=" stroke:none;fill-rule:nonzero;fill:rgb(100%,100%,100%);fill-opacity:0.4;" d="M 3.5 5 L 28.5 5 C 28.777344 5 29 5.222656 29 5.5 C 29 5.777344 28.777344 6 28.5 6 L 3.5 6 C 3.222656 6 3 5.777344 3 5.5 C 3 5.222656 3.222656 5 3.5 5 Z M 3.5 5 "/>
<path style=" stroke:none;fill-rule:nonzero;fill:url(#linear0);" d="M 3 4 C 2.445312 4 2 4.445312 2 5 L 2 8 C 2 8.554688 2.445312 9 3 9 L 3 27 C 3 28.109375 3.890625 29 5 29 L 27 29 C 28.109375 29 29 28.109375 29 27 L 29 9 C 29.554688 9 30 8.554688 30 8 L 30 5 C 30 4.445312 29.554688 4 29 4 Z M 3 4 "/>
</g>
</svg>
