<?xml version="1.0" encoding="UTF-8" standalone="no"?>
<!-- Created with Inkscape (http://www.inkscape.org/) -->

<svg
   id="svg1328"
   viewBox="0 0 48 48"
   sodipodi:version="0.32"
   inkscape:output_extension="org.inkscape.output.svg.inkscape"
   inkscape:version="1.1.2 (0a00cf5339, 2022-02-04)"
   sodipodi:docname="database.svg"
   version="1.1"
   xmlns:inkscape="http://www.inkscape.org/namespaces/inkscape"
   xmlns:sodipodi="http://sodipodi.sourceforge.net/DTD/sodipodi-0.dtd"
   xmlns:xlink="http://www.w3.org/1999/xlink"
   xmlns="http://www.w3.org/2000/svg"
   xmlns:svg="http://www.w3.org/2000/svg"
   xmlns:rdf="http://www.w3.org/1999/02/22-rdf-syntax-ns#"
   xmlns:cc="http://creativecommons.org/ns#"
   xmlns:dc="http://purl.org/dc/elements/1.1/">
  <defs
     id="defs3">
    <linearGradient
       id="linearGradient6932">
      <stop
         id="stop6934"
         style="stop-color:#ffffff"
         offset="0" />
      <stop
         id="stop6936"
         style="stop-color:#888a85;stop-opacity:1"
         offset="1" />
    </linearGradient>
    <linearGradient
       id="linearGradient4126"
       inkscape:collect="always">
      <stop
         id="stop4128"
         style="stop-color:#000000"
         offset="0" />
      <stop
         id="stop4130"
         style="stop-color:#000000;stop-opacity:0"
         offset="1" />
    </linearGradient>
    <radialGradient
       id="radialGradient4132"
       cx="23.857"
       xlink:href="#linearGradient4126"
       gradientUnits="userSpaceOnUse"
       cy="40"
       r="17.143"
       gradientTransform="matrix(1.0588,0,0,0.57565,-1.1159,13.749)"
       inkscape:collect="always" />
    <linearGradient
       id="linearGradient4140"
       y2="26.719"
       gradientUnits="userSpaceOnUse"
       y1="26.719"
       gradientTransform="translate(-.0000011429 -1.7143)"
       x2="38.826"
       x1="9.3031"
       inkscape:collect="always">
      <stop
         id="stop4136"
         style="stop-color:#7e807a"
         offset="0" />
      <stop
         id="stop4148"
         style="stop-color:#babbb8"
         offset=".25" />
      <stop
         id="stop4142"
         style="stop-color:#a5a6a3"
         offset=".5" />
      <stop
         id="stop4138"
         style="stop-color:#333432"
         offset="1" />
    </linearGradient>
    <linearGradient
       id="linearGradient4160"
       y2="13.285"
       xlink:href="#linearGradient6932"
       gradientUnits="userSpaceOnUse"
       y1="16.525"
       x2="24"
       x1="24"
       inkscape:collect="always"
       gradientTransform="matrix(1.0373,0,0,0.95462,-0.89498,15.923997)" />
    <linearGradient
       id="linearGradient4182"
       y2="56.576"
       gradientUnits="userSpaceOnUse"
       y1="14.004"
       gradientTransform="translate(-.0000011429 -1.7143)"
       x2="37.969"
       x1="17.16"
       inkscape:collect="always">
      <stop
         id="stop4178"
         style="stop-color:#ffffff"
         offset="0" />
      <stop
         id="stop4180"
         style="stop-color:#ffffff;stop-opacity:0"
         offset="1" />
    </linearGradient>
    <linearGradient
       id="linearGradient4198"
       y2="25.429"
       gradientUnits="userSpaceOnUse"
       y1="21.857"
       gradientTransform="translate(-.0000011429 -1.7143)"
       x2="25.208"
       x1="25.065"
       inkscape:collect="always">
      <stop
         id="stop4208"
         style="stop-color:#888a85;stop-opacity:1"
         offset="0" />
      <stop
         id="stop4210"
         style="stop-color:#535353"
         offset="1" />
    </linearGradient>
    <linearGradient
       id="linearGradient6930"
       y2="30"
       gradientUnits="userSpaceOnUse"
       y1="19.5"
       gradientTransform="translate(-.14286 .92857)"
       x2="15.786"
       x1="16.071"
       inkscape:collect="always">
      <stop
         id="stop6926"
         style="stop-color:#ffffff"
         offset="0" />
      <stop
         id="stop6928"
         style="stop-color:#ffffff;stop-opacity:0"
         offset="1" />
    </linearGradient>
    <linearGradient
       inkscape:collect="always"
       xlink:href="#linearGradient4140"
       id="linearGradient3444"
       gradientUnits="userSpaceOnUse"
       gradientTransform="translate(-1.1429e-6,-1.7143)"
       x1="9.3031"
       y1="26.719"
       x2="38.826"
       y2="26.719" />
    <linearGradient
       inkscape:collect="always"
       xlink:href="#linearGradient4198"
       id="linearGradient3446"
       gradientUnits="userSpaceOnUse"
       gradientTransform="translate(-1.1429e-6,-1.7143)"
       x1="25.065"
       y1="21.857"
       x2="25.208"
       y2="25.429" />
    <linearGradient
       inkscape:collect="always"
       xlink:href="#linearGradient4182"
       id="linearGradient3448"
       gradientUnits="userSpaceOnUse"
       gradientTransform="translate(-1.1429e-6,-1.7143)"
       x1="17.16"
       y1="14.004"
       x2="37.969"
       y2="56.576" />
    <linearGradient
       inkscape:collect="always"
       xlink:href="#linearGradient6932"
       id="linearGradient3450"
       gradientUnits="userSpaceOnUse"
       gradientTransform="matrix(1.0373,0,0,0.95462,-0.89498,15.923997)"
       x1="24"
       y1="16.525"
       x2="24"
       y2="13.285" />
    <linearGradient
       inkscape:collect="always"
       xlink:href="#linearGradient6930"
       id="linearGradient3452"
       gradientUnits="userSpaceOnUse"
       gradientTransform="translate(-0.14286,0.92857)"
       x1="16.071"
       y1="19.5"
       x2="15.786"
       y2="30" />
    <linearGradient
       inkscape:collect="always"
       xlink:href="#linearGradient4140"
       id="linearGradient3464"
       gradientUnits="userSpaceOnUse"
       gradientTransform="translate(-1.1429e-6,-1.7143)"
       x1="9.3031"
       y1="26.719"
       x2="38.826"
       y2="26.719" />
    <linearGradient
       inkscape:collect="always"
       xlink:href="#linearGradient4198"
       id="linearGradient3466"
       gradientUnits="userSpaceOnUse"
       gradientTransform="translate(-1.1429e-6,-1.7143)"
       x1="25.065"
       y1="21.857"
       x2="25.208"
       y2="25.429" />
    <linearGradient
       inkscape:collect="always"
       xlink:href="#linearGradient4182"
       id="linearGradient3468"
       gradientUnits="userSpaceOnUse"
       gradientTransform="translate(-1.1429e-6,-1.7143)"
       x1="17.16"
       y1="14.004"
       x2="37.969"
       y2="56.576" />
    <linearGradient
       inkscape:collect="always"
       xlink:href="#linearGradient6932"
       id="linearGradient3470"
       gradientUnits="userSpaceOnUse"
       gradientTransform="matrix(1.0373,0,0,0.95462,-0.89498,15.923997)"
       x1="24"
       y1="16.525"
       x2="24"
       y2="13.285" />
    <linearGradient
       inkscape:collect="always"
       xlink:href="#linearGradient6930"
       id="linearGradient3472"
       gradientUnits="userSpaceOnUse"
       gradientTransform="translate(-0.14286,0.92857)"
       x1="16.071"
       y1="19.5"
       x2="15.786"
       y2="30" />
    <linearGradient
       inkscape:collect="always"
       xlink:href="#linearGradient4140"
       id="linearGradient3661"
       gradientUnits="userSpaceOnUse"
       gradientTransform="translate(-1.1429e-6,-1.7143)"
       x1="9.3031"
       y1="26.719"
       x2="38.826"
       y2="26.719" />
    <linearGradient
       inkscape:collect="always"
       xlink:href="#linearGradient4198"
       id="linearGradient3663"
       gradientUnits="userSpaceOnUse"
       gradientTransform="translate(-1.1429e-6,-1.7143)"
       x1="25.065"
       y1="21.857"
       x2="25.208"
       y2="25.429" />
    <linearGradient
       inkscape:collect="always"
       xlink:href="#linearGradient4182"
       id="linearGradient3665"
       gradientUnits="userSpaceOnUse"
       gradientTransform="translate(-1.1429e-6,-1.7143)"
       x1="17.16"
       y1="14.004"
       x2="37.969"
       y2="56.576" />
    <linearGradient
       inkscape:collect="always"
       xlink:href="#linearGradient6930"
       id="linearGradient3667"
       gradientUnits="userSpaceOnUse"
       gradientTransform="translate(-0.14286,0.92857)"
       x1="16.071"
       y1="19.5"
       x2="15.786"
       y2="30" />
  </defs>
  <sodipodi:namedview
     id="base"
     bordercolor="#666666"
     inkscape:window-x="0"
     inkscape:window-y="0"
     pagecolor="#ffffff"
     inkscape:showpageshadow="false"
     inkscape:grid-bbox="true"
     inkscape:zoom="9.8994949"
     inkscape:cx="5.6063466"
     showgrid="true"
     borderopacity="0.25490196"
     inkscape:current-layer="layer1"
     stroke="#a40000"
     inkscape:cy="25.859905"
     inkscape:pageshadow="2"
     inkscape:window-width="1920"
     inkscape:pageopacity="0.0"
     inkscape:window-height="1022"
     inkscape:document-units="px"
     fill="#cc0000"
     inkscape:pagecheckerboard="0"
     inkscape:snap-grids="false"
     inkscape:window-maximized="1" />
  <g
     id="layer1"
     inkscape:label="Battery"
     inkscape:groupmode="layer">
    <ellipse
       id="path3366"
       style="color:#000000;display:block;fill:url(#radialGradient4132)"
       cx="24.144043"
       cy="36.775002"
       rx="18.150856"
       ry="9.8682852" />
    <g
       id="g3213"
       transform="translate(0,1)">
      <path
         id="path3068"
         sodipodi:nodetypes="csszsszc"
         style="color:#000000;display:block;fill:url(#linearGradient3661);stroke:url(#linearGradient3663);stroke-miterlimit:10"
         d="m 23.937,23.192075 c -7.859,0 -14.25,2.8025 -14.25,6.25 5e-4,0.247 5e-4,6.866925 5e-4,7.124925 0,3.447 6.3905,6.25 14.25,6.25 7.859,0 14.504,-2.803 14.504,-6.25 v -7.124925 c 0,-3.4475 -6.645,-6.25 -14.505,-6.25 z" />
      <path
         id="path4174"
         sodipodi:nodetypes="zsszssz"
         style="color:#000000;display:block;opacity:0.5443;fill:none;stroke:url(#linearGradient3665);stroke-miterlimit:10"
         d="m 23.946,23.971225 c -7.328,0 -13.286,2.6127 -13.286,5.8267 V 35.925 c 0,3.214 5.958,5.827 13.286,5.827 7.328,0 13.523,-2.613 13.523,-5.827 v -6.127075 c 0,-3.214 -6.195,-5.8267 -13.523,-5.8267 z" />
      <ellipse
         id="path3364"
         style="color:#000000;display:block;fill:#d3d7cf;stroke:url(#linearGradient4160);stroke-width:1.0049;stroke-miterlimit:10"
         cx="24.000219"
         cy="29.356859"
         rx="13.336714"
         ry="5.2504101" />
      <path
         id="path6922"
         sodipodi:nodetypes="ccccccc"
         style="color:#000000;display:block;opacity:0.49367;fill:url(#linearGradient3667)"
         d="M 13.643,33.999325 14,38.7855 l 4.571,1.285 -0.142,-4.714175 c 0,0 2.071,3.5e-4 5.428,-0.21365 -5.216,-0.233 -11.183,-2.475 -13.214,-3.929 1.417,2.092 3,2.78565 3,2.78565 z" />
    </g>
    <g
       id="g3442"
       transform="translate(0,-9.000075)">
      <path
         id="path3434"
         sodipodi:nodetypes="csszsszc"
         style="color:#000000;display:block;fill:url(#linearGradient3444);stroke:url(#linearGradient3446);stroke-miterlimit:10"
         d="m 23.937,23.192075 c -7.859,0 -14.25,2.8025 -14.25,6.25 5e-4,0.247 5e-4,6.866925 5e-4,7.124925 0,3.447 6.3905,6.25 14.25,6.25 7.859,0 14.504,-2.803 14.504,-6.25 v -7.124925 c 0,-3.4475 -6.645,-6.25 -14.505,-6.25 z" />
      <path
         id="path3436"
         sodipodi:nodetypes="zsszssz"
         style="color:#000000;display:block;opacity:0.5443;fill:none;stroke:url(#linearGradient3448);stroke-miterlimit:10"
         d="m 23.946,23.971225 c -7.328,0 -13.286,2.6127 -13.286,5.8267 V 35.925 c 0,3.214 5.958,5.827 13.286,5.827 7.328,0 13.523,-2.613 13.523,-5.827 v -6.127075 c 0,-3.214 -6.195,-5.8267 -13.523,-5.8267 z" />
      <ellipse
         id="ellipse3438"
         style="color:#000000;display:block;fill:#d3d7cf;stroke:url(#linearGradient3450);stroke-width:1.0049;stroke-miterlimit:10"
         cx="24.000219"
         cy="29.356859"
         rx="13.336714"
         ry="5.2504101" />
      <path
         id="path3440"
         sodipodi:nodetypes="ccccccc"
         style="color:#000000;display:block;opacity:0.49367;fill:url(#linearGradient3452)"
         d="M 13.643,33.999325 14,38.7855 l 4.571,1.285 -0.142,-4.714175 c 0,0 2.071,3.5e-4 5.428,-0.21365 -5.216,-0.233 -11.183,-2.475 -13.214,-3.929 1.417,2.092 3,2.78565 3,2.78565 z" />
    </g>
    <g
       id="g3462"
       transform="translate(0,-19.000075)">
      <path
         id="path3454"
         sodipodi:nodetypes="csszsszc"
         style="color:#000000;display:block;fill:url(#linearGradient3464);stroke:url(#linearGradient3466);stroke-miterlimit:10"
         d="m 23.937,23.192075 c -7.859,0 -14.25,2.8025 -14.25,6.25 5e-4,0.247 5e-4,6.866925 5e-4,7.124925 0,3.447 6.3905,6.25 14.25,6.25 7.859,0 14.504,-2.803 14.504,-6.25 v -7.124925 c 0,-3.4475 -6.645,-6.25 -14.505,-6.25 z" />
      <path
         id="path3456"
         sodipodi:nodetypes="zsszssz"
         style="color:#000000;display:block;opacity:0.5443;fill:none;stroke:url(#linearGradient3468);stroke-miterlimit:10"
         d="m 23.946,23.971225 c -7.328,0 -13.286,2.6127 -13.286,5.8267 V 35.925 c 0,3.214 5.958,5.827 13.286,5.827 7.328,0 13.523,-2.613 13.523,-5.827 v -6.127075 c 0,-3.214 -6.195,-5.8267 -13.523,-5.8267 z" />
      <ellipse
         id="ellipse3458"
         style="color:#000000;display:block;fill:#d3d7cf;stroke:url(#linearGradient3470);stroke-width:1.0049;stroke-miterlimit:10"
         cx="24.000219"
         cy="29.356859"
         rx="13.336714"
         ry="5.2504101" />
      <path
         id="path3460"
         sodipodi:nodetypes="ccccccc"
         style="color:#000000;display:block;opacity:0.49367;fill:url(#linearGradient3472)"
         d="M 13.643,33.999325 14,38.7855 l 4.571,1.285 -0.142,-4.714175 c 0,0 2.071,3.5e-4 5.428,-0.21365 -5.216,-0.233 -11.183,-2.475 -13.214,-3.929 1.417,2.092 3,2.78565 3,2.78565 z" />
    </g>
  </g>
  <metadata
     id="metadata42">
    <rdf:RDF>
      <cc:Work>
        <dc:format>image/svg+xml</dc:format>
        <dc:type
           rdf:resource="http://purl.org/dc/dcmitype/StillImage" />
        <cc:license
           rdf:resource="http://creativecommons.org/publicdomain/zero/1.0/" />
      </cc:Work>
      <cc:License
         rdf:about="http://creativecommons.org/licenses/publicdomain/">
        <cc:permits
           rdf:resource="http://creativecommons.org/ns#Reproduction" />
        <cc:permits
           rdf:resource="http://creativecommons.org/ns#Distribution" />
        <cc:permits
           rdf:resource="http://creativecommons.org/ns#DerivativeWorks" />
      </cc:License>
    </rdf:RDF>
  </metadata>
</svg>
