
<svg xmlns="http://www.w3.org/2000/svg" xmlns:xlink="http://www.w3.org/1999/xlink" width="32" height="32" viewBox="0 0 32 32" version="1.1">
<defs>
<linearGradient id="linear0" gradientUnits="userSpaceOnUse" x1="8.466666" y1="-199.125" x2="8.466666" y2="-213.941666" gradientTransform="matrix(1.889764,0,0,1.889764,0.000622037,406.299234)">
<stop offset="0" style="stop-color:rgb(0%,0%,0%);stop-opacity:0.2;"/>
<stop offset="1" style="stop-color:rgb(100%,100%,100%);stop-opacity:0;"/>
</linearGradient>
</defs>
<g id="surface1">
<path style=" stroke:none;fill-rule:nonzero;fill:rgb(25.882354%,64.705884%,96.078432%);fill-opacity:1;" d="M 4 2 L 28 2 C 29.105469 2 30 2.894531 30 4 L 30 28 C 30 29.105469 29.105469 30 28 30 L 4 30 C 2.894531 30 2 29.105469 2 28 L 2 4 C 2 2.894531 2.894531 2 4 2 Z M 4 2 "/>
<path style=" stroke:none;fill-rule:nonzero;fill:rgb(56.470591%,79.215688%,97.647059%);fill-opacity:1;" d="M 4.25 8 L 27.75 8 L 27.75 8.25 L 4.25 8.25 Z M 4.25 8 "/>
<path style=" stroke:none;fill-rule:nonzero;fill:rgb(56.470591%,79.215688%,97.647059%);fill-opacity:1;" d="M 4.25 6 L 27.75 6 L 27.75 6.25 L 4.25 6.25 Z M 4.25 6 "/>
<path style=" stroke:none;fill-rule:nonzero;fill:rgb(56.470591%,79.215688%,97.647059%);fill-opacity:1;" d="M 4.25 12 L 27.75 12 L 27.75 12.25 L 4.25 12.25 Z M 4.25 12 "/>
<path style=" stroke:none;fill-rule:nonzero;fill:rgb(56.470591%,79.215688%,97.647059%);fill-opacity:1;" d="M 4.25 10 L 27.75 10 L 27.75 10.25 L 4.25 10.25 Z M 4.25 10 "/>
<path style=" stroke:none;fill-rule:nonzero;fill:rgb(56.470591%,79.215688%,97.647059%);fill-opacity:1;" d="M 4.25 16 L 27.75 16 L 27.75 16.25 L 4.25 16.25 Z M 4.25 16 "/>
<path style=" stroke:none;fill-rule:nonzero;fill:rgb(56.470591%,79.215688%,97.647059%);fill-opacity:1;" d="M 4.25 14 L 27.75 14 L 27.75 14.25 L 4.25 14.25 Z M 4.25 14 "/>
<path style=" stroke:none;fill-rule:nonzero;fill:rgb(56.470591%,79.215688%,97.647059%);fill-opacity:1;" d="M 4.25 20 L 27.75 20 L 27.75 20.25 L 4.25 20.25 Z M 4.25 20 "/>
<path style=" stroke:none;fill-rule:nonzero;fill:rgb(56.470591%,79.215688%,97.647059%);fill-opacity:1;" d="M 4.25 18 L 27.75 18 L 27.75 18.25 L 4.25 18.25 Z M 4.25 18 "/>
<path style=" stroke:none;fill-rule:nonzero;fill:rgb(56.470591%,79.215688%,97.647059%);fill-opacity:1;" d="M 4.25 24 L 27.75 24 L 27.75 24.25 L 4.25 24.25 Z M 4.25 24 "/>
<path style=" stroke:none;fill-rule:nonzero;fill:rgb(56.470591%,79.215688%,97.647059%);fill-opacity:1;" d="M 4.25 22 L 27.75 22 L 27.75 22.25 L 4.25 22.25 Z M 4.25 22 "/>
<path style=" stroke:none;fill-rule:nonzero;fill:rgb(56.470591%,79.215688%,97.647059%);fill-opacity:1;" d="M 4.25 26 L 27.75 26 L 27.75 26.25 L 4.25 26.25 Z M 4.25 26 "/>
<path style=" stroke:none;fill-rule:nonzero;fill:rgb(56.470591%,79.215688%,97.647059%);fill-opacity:1;" d="M 24.125 4.25 L 24.125 27.75 L 23.875 27.75 L 23.875 4.25 Z M 24.125 4.25 "/>
<path style=" stroke:none;fill-rule:nonzero;fill:rgb(56.470591%,79.215688%,97.647059%);fill-opacity:1;" d="M 26.125 4.25 L 26.125 27.75 L 25.875 27.75 L 25.875 4.25 Z M 26.125 4.25 "/>
<path style=" stroke:none;fill-rule:nonzero;fill:rgb(56.470591%,79.215688%,97.647059%);fill-opacity:1;" d="M 20.125 4.25 L 20.125 27.75 L 19.875 27.75 L 19.875 4.25 Z M 20.125 4.25 "/>
<path style=" stroke:none;fill-rule:nonzero;fill:rgb(56.470591%,79.215688%,97.647059%);fill-opacity:1;" d="M 22.125 4.25 L 22.125 27.75 L 21.875 27.75 L 21.875 4.25 Z M 22.125 4.25 "/>
<path style=" stroke:none;fill-rule:nonzero;fill:rgb(56.470591%,79.215688%,97.647059%);fill-opacity:1;" d="M 16.125 4.25 L 16.125 27.75 L 15.875 27.75 L 15.875 4.25 Z M 16.125 4.25 "/>
<path style=" stroke:none;fill-rule:nonzero;fill:rgb(56.470591%,79.215688%,97.647059%);fill-opacity:1;" d="M 18.125 4.25 L 18.125 27.75 L 17.875 27.75 L 17.875 4.25 Z M 18.125 4.25 "/>
<path style=" stroke:none;fill-rule:nonzero;fill:rgb(56.470591%,79.215688%,97.647059%);fill-opacity:1;" d="M 12.125 4.25 L 12.125 27.75 L 11.875 27.75 L 11.875 4.25 Z M 12.125 4.25 "/>
<path style=" stroke:none;fill-rule:nonzero;fill:rgb(56.470591%,79.215688%,97.647059%);fill-opacity:1;" d="M 14.125 4.25 L 14.125 27.75 L 13.875 27.75 L 13.875 4.25 Z M 14.125 4.25 "/>
<path style=" stroke:none;fill-rule:nonzero;fill:rgb(56.470591%,79.215688%,97.647059%);fill-opacity:1;" d="M 8.125 4.25 L 8.125 27.75 L 7.875 27.75 L 7.875 4.25 Z M 8.125 4.25 "/>
<path style=" stroke:none;fill-rule:nonzero;fill:rgb(56.470591%,79.215688%,97.647059%);fill-opacity:1;" d="M 10.125 4.25 L 10.125 27.75 L 9.875 27.75 L 9.875 4.25 Z M 10.125 4.25 "/>
<path style=" stroke:none;fill-rule:nonzero;fill:rgb(56.470591%,79.215688%,97.647059%);fill-opacity:1;" d="M 6.125 4.25 L 6.125 27.75 L 5.875 27.75 L 5.875 4.25 Z M 6.125 4.25 "/>
<path style=" stroke:none;fill-rule:nonzero;fill:rgb(56.470591%,79.215688%,97.647059%);fill-opacity:1;" d="M 5 4 C 4.445312 4 4 4.445312 4 5 L 4 27 C 4 27.554688 4.445312 28 5 28 L 27 28 C 27.554688 28 28 27.554688 28 27 L 28 5 C 28 4.445312 27.554688 4 27 4 Z M 4.949219 4.25 L 27.050781 4.25 C 27.4375 4.25 27.75 4.5625 27.75 4.949219 L 27.75 27.050781 C 27.75 27.4375 27.4375 27.75 27.050781 27.75 L 4.949219 27.75 C 4.5625 27.75 4.25 27.4375 4.25 27.050781 L 4.25 4.949219 C 4.25 4.5625 4.5625 4.25 4.949219 4.25 Z M 4.949219 4.25 "/>
<path style=" stroke:none;fill-rule:nonzero;fill:rgb(0%,0%,0%);fill-opacity:0.4;" d="M 2 27.5 L 2 28 C 2 29.109375 2.890625 30 4 30 L 28 30 C 29.109375 30 30 29.109375 30 28 L 30 27.5 C 30 28.609375 29.109375 29.5 28 29.5 L 4 29.5 C 2.890625 29.5 2 28.609375 2 27.5 Z M 2 27.5 "/>
<path style=" stroke:none;fill-rule:nonzero;fill:rgb(0%,0%,0%);fill-opacity:0.2;" d="M 2 28 L 2 28.75 C 2 29.859375 2.890625 30.75 4 30.75 L 28 30.75 C 29.109375 30.75 30 29.859375 30 28.75 L 30 28 C 30 29.109375 29.109375 30 28 30 L 4 30 C 2.890625 30 2 29.109375 2 28 Z M 2 28 "/>
<path style=" stroke:none;fill-rule:nonzero;fill:rgb(100%,100%,100%);fill-opacity:0.4;" d="M 4 2 C 2.890625 2 2 2.890625 2 4 L 2 4.492188 C 2 3.382812 2.890625 2.492188 4 2.492188 L 28 2.492188 C 29.109375 2.492188 30 3.382812 30 4.492188 L 30 4 C 30 2.890625 29.109375 2 28 2 Z M 4 2 "/>
<path style=" stroke:none;fill-rule:nonzero;fill:rgb(0%,0%,0%);fill-opacity:0.4;" d="M 29.375 18.511719 C 28.980469 20.867188 27.679688 22.90625 25.839844 24.261719 L 26.039062 24.609375 C 27.902344 23.15625 29.171875 20.988281 29.445312 18.511719 Z M 20.5 19.007812 L 17.394531 24.386719 C 17.472656 24.417969 17.550781 24.449219 17.628906 24.480469 L 20.5 19.507812 L 23.371094 24.484375 C 23.449219 24.453125 23.527344 24.421875 23.605469 24.390625 Z M 16.890625 25.261719 L 15.363281 27.902344 C 15.1875 28.210938 14.871094 28.386719 14.542969 28.402344 L 13.242188 29.75 C 13.210938 29.847656 13.191406 29.917969 13.164062 30 L 13.484375 30 L 14.542969 28.902344 C 14.871094 28.886719 15.1875 28.710938 15.363281 28.402344 L 16.890625 25.761719 C 17.992188 26.242188 19.214844 26.511719 20.5 26.511719 C 21.785156 26.511719 23.003906 26.246094 24.109375 25.761719 L 25.632812 28.402344 C 25.816406 28.71875 26.140625 28.898438 26.476562 28.90625 C 26.824219 29.25 27.238281 29.671875 27.550781 30 L 27.855469 30 L 27.785156 29.746094 C 27.480469 29.414062 26.917969 28.847656 26.476562 28.40625 C 26.140625 28.398438 25.816406 28.21875 25.632812 27.902344 L 24.109375 25.261719 C 23.003906 25.746094 21.785156 26.011719 20.5 26.011719 C 19.214844 26.011719 17.992188 25.742188 16.890625 25.261719 Z M 13.53125 27.652344 C 13.484375 27.828125 13.488281 28.011719 13.539062 28.183594 C 13.566406 28.082031 13.59375 27.976562 13.621094 27.882812 C 13.582031 27.8125 13.550781 27.734375 13.53125 27.652344 Z M 27.46875 27.652344 C 27.449219 27.726562 27.421875 27.796875 27.390625 27.863281 L 27.46875 28.148438 C 27.511719 27.988281 27.511719 27.816406 27.46875 27.652344 Z M 27.46875 27.652344 "/>
<path style=" stroke:none;fill-rule:nonzero;fill:rgb(61.960787%,61.960787%,61.960787%);fill-opacity:0.996078;" d="M 20 13.761719 L 21 13.761719 L 21 15.511719 L 20 15.511719 Z M 20 13.761719 "/>
<path style=" stroke:none;fill-rule:nonzero;fill:rgb(61.960787%,61.960787%,61.960787%);fill-opacity:1;" d="M 13 30 C 13.125 29.785156 13.847656 27.027344 13.847656 27.027344 L 15.148438 27.777344 Z M 13 30 "/>
<path style=" stroke:none;fill-rule:nonzero;fill:rgb(74.117649%,74.117649%,74.117649%);fill-opacity:0.996078;" d="M 21 16.144531 C 21.476562 16.417969 21.640625 17.03125 21.363281 17.507812 L 15.363281 27.902344 C 15.089844 28.378906 14.476562 28.542969 14 28.269531 C 13.519531 27.992188 13.355469 27.378906 13.632812 26.902344 L 19.632812 16.507812 C 19.90625 16.03125 20.519531 15.867188 21 16.144531 Z M 21 16.144531 "/>
<path style=" stroke:none;fill-rule:nonzero;fill:rgb(61.960787%,61.960787%,61.960787%);fill-opacity:0.996078;" d="M 28.4375 18.011719 C 27.945312 21.964844 24.59375 25.011719 20.5 25.011719 C 18.675781 25.011719 17.003906 24.402344 15.664062 23.386719 L 15.15625 24.261719 C 16.648438 25.359375 18.496094 26.011719 20.5 26.011719 C 25.148438 26.011719 28.949219 22.523438 29.445312 18.011719 Z M 28.4375 18.011719 "/>
<path style=" stroke:none;fill-rule:nonzero;fill:rgb(74.117649%,74.117649%,74.117649%);fill-opacity:1;" d="M 28 30 C 27.875 29.785156 25.851562 27.777344 25.851562 27.777344 L 27.148438 27.027344 Z M 28 30 "/>
<path style=" stroke:none;fill-rule:nonzero;fill:rgb(87.843138%,87.843138%,87.843138%);fill-opacity:0.996078;" d="M 20 16.144531 C 20.476562 15.867188 21.089844 16.03125 21.367188 16.507812 L 27.367188 26.902344 C 27.640625 27.378906 27.476562 27.992188 27 28.269531 C 26.523438 28.542969 25.910156 28.378906 25.632812 27.902344 L 19.632812 17.507812 C 19.359375 17.03125 19.523438 16.417969 20 16.144531 Z M 20 16.144531 "/>
<path style=" stroke:none;fill-rule:nonzero;fill:rgb(99.607843%,99.607843%,99.607843%);fill-opacity:0.4;" d="M 20.46875 16.007812 C 20.421875 16.011719 20.378906 16.015625 20.332031 16.023438 C 20.332031 16.023438 20.328125 16.023438 20.328125 16.023438 C 20.0625 16.070312 19.816406 16.222656 19.660156 16.464844 C 19.65625 16.472656 19.652344 16.480469 19.648438 16.484375 C 19.640625 16.492188 19.636719 16.5 19.632812 16.507812 L 15.660156 23.386719 L 15.15625 24.257812 L 13.632812 26.902344 C 13.496094 27.136719 13.464844 27.40625 13.527344 27.652344 C 13.550781 27.566406 13.585938 27.480469 13.632812 27.402344 L 15.15625 24.761719 L 15.660156 23.886719 L 19.632812 17.011719 C 19.636719 17.003906 19.640625 16.996094 19.648438 16.988281 C 19.652344 16.980469 19.65625 16.972656 19.660156 16.964844 C 19.816406 16.722656 20.0625 16.570312 20.328125 16.523438 C 20.328125 16.523438 20.332031 16.523438 20.332031 16.523438 C 20.378906 16.515625 20.421875 16.511719 20.46875 16.511719 L 20.46875 16.507812 C 20.484375 16.507812 20.503906 16.507812 20.523438 16.507812 C 20.558594 16.507812 20.589844 16.511719 20.621094 16.515625 C 20.636719 16.519531 20.652344 16.523438 20.671875 16.523438 C 20.929688 16.570312 21.167969 16.714844 21.324219 16.945312 C 21.335938 16.960938 21.34375 16.972656 21.351562 16.988281 C 21.355469 16.996094 21.363281 17.003906 21.367188 17.011719 L 25.335938 23.886719 C 27.007812 22.617188 28.164062 20.707031 28.4375 18.511719 L 29.375 18.511719 C 29.402344 18.34375 29.425781 18.179688 29.445312 18.007812 L 28.4375 18.007812 C 28.164062 20.203125 27.007812 22.117188 25.335938 23.386719 L 21.367188 16.507812 C 21.363281 16.5 21.355469 16.496094 21.351562 16.484375 C 21.34375 16.472656 21.335938 16.457031 21.324219 16.445312 C 21.167969 16.214844 20.929688 16.066406 20.671875 16.023438 C 20.652344 16.019531 20.636719 16.015625 20.621094 16.015625 C 20.589844 16.011719 20.558594 16.007812 20.523438 16.007812 C 20.523438 16.007812 20.523438 16.007812 20.519531 16.007812 C 20.503906 16.007812 20.484375 16.007812 20.46875 16.007812 Z M 17.632812 24.476562 L 17.394531 24.886719 C 18.347656 25.285156 19.394531 25.511719 20.5 25.511719 C 21.601562 25.511719 22.652344 25.289062 23.605469 24.886719 L 23.367188 24.480469 C 22.476562 24.820312 21.511719 25.011719 20.5 25.011719 C 19.484375 25.011719 18.519531 24.820312 17.632812 24.476562 Z M 26.042969 24.609375 C 25.976562 24.660156 25.910156 24.710938 25.839844 24.761719 L 27.367188 27.402344 C 27.414062 27.480469 27.445312 27.566406 27.46875 27.652344 C 27.53125 27.40625 27.503906 27.136719 27.367188 26.902344 Z M 27.46875 28.148438 C 27.449219 28.222656 27.425781 28.292969 27.390625 28.363281 L 27.785156 29.746094 C 27.898438 29.867188 27.980469 29.964844 28 30 Z M 13.539062 28.179688 C 13.324219 28.964844 13.066406 29.878906 13 30 L 13.242188 29.75 C 13.363281 29.332031 13.503906 28.816406 13.621094 28.382812 C 13.585938 28.320312 13.558594 28.25 13.539062 28.179688 Z M 13.539062 28.179688 "/>
<path style=" stroke:none;fill-rule:nonzero;fill:rgb(87.843138%,87.843138%,87.843138%);fill-opacity:0.996078;" d="M 20.5 15.011719 C 21.605469 15.011719 22.5 15.90625 22.5 17.011719 C 22.5 18.113281 21.605469 19.011719 20.5 19.011719 C 19.394531 19.011719 18.5 18.113281 18.5 17.011719 C 18.5 15.90625 19.394531 15.011719 20.5 15.011719 Z M 20.5 15.011719 "/>
<path style=" stroke:none;fill-rule:nonzero;fill:rgb(0%,0%,0%);fill-opacity:0.4;" d="M 20.5 16.011719 C 21.050781 16.011719 21.5 16.457031 21.5 17.011719 C 21.5 17.5625 21.050781 18.011719 20.5 18.011719 C 19.945312 18.011719 19.5 17.5625 19.5 17.011719 C 19.5 16.457031 19.945312 16.011719 20.5 16.011719 Z M 20.5 16.011719 "/>
<path style=" stroke:none;fill-rule:nonzero;fill:rgb(0%,0%,0%);fill-opacity:0.4;" d="M 20.472656 16.011719 C 19.929688 16.023438 19.5 16.464844 19.5 17.011719 C 19.5 17.050781 19.5 17.09375 19.507812 17.132812 C 19.566406 16.648438 19.972656 16.273438 20.472656 16.261719 C 20.480469 16.257812 20.492188 16.261719 20.5 16.261719 C 21.007812 16.261719 21.429688 16.636719 21.492188 17.132812 C 21.496094 17.09375 21.5 17.050781 21.5 17.011719 C 21.5 16.457031 21.054688 16.011719 20.5 16.011719 C 20.488281 16.011719 20.480469 16.007812 20.472656 16.011719 Z M 20.472656 16.011719 "/>
<path style=" stroke:none;fill-rule:nonzero;fill:rgb(100%,100%,100%);fill-opacity:0.6;" d="M 19.507812 17.136719 C 19.5 17.175781 19.5 17.21875 19.5 17.261719 C 19.5 17.804688 19.929688 18.246094 20.472656 18.261719 C 20.480469 18.261719 20.492188 18.261719 20.5 18.261719 C 21.054688 18.261719 21.5 17.8125 21.5 17.261719 C 21.5 17.21875 21.496094 17.175781 21.492188 17.136719 C 21.429688 17.628906 21.011719 18.007812 20.5 18.007812 C 20.492188 18.007812 20.480469 18.007812 20.472656 18.007812 C 19.972656 17.996094 19.566406 17.621094 19.507812 17.136719 Z M 19.507812 17.136719 "/>
<path style=" stroke:none;fill-rule:nonzero;fill:rgb(38.039216%,38.039216%,38.039216%);fill-opacity:0.996078;" d="M 20.25 10.011719 L 20.75 10.011719 C 21.164062 10.011719 21.5 10.34375 21.5 10.761719 L 21.5 13.761719 C 21.5 14.175781 21.164062 14.511719 20.75 14.511719 L 20.25 14.511719 C 19.835938 14.511719 19.5 14.175781 19.5 13.761719 L 19.5 10.761719 C 19.5 10.34375 19.835938 10.011719 20.25 10.011719 Z M 20.25 10.011719 "/>
<path style=" stroke:none;fill-rule:nonzero;fill:rgb(11.764706%,11.764706%,11.764706%);fill-opacity:0.4;" d="M 24.375 23.722656 C 24.734375 23.515625 25.191406 23.636719 25.398438 23.996094 C 25.605469 24.355469 25.484375 24.8125 25.125 25.019531 C 24.765625 25.226562 24.308594 25.105469 24.101562 24.746094 C 23.894531 24.386719 24.015625 23.929688 24.375 23.722656 Z M 24.375 23.722656 "/>
<path style=" stroke:none;fill-rule:nonzero;fill:rgb(11.764706%,11.764706%,11.764706%);fill-opacity:0.4;" d="M 24.730469 23.621094 C 24.609375 23.625 24.488281 23.65625 24.375 23.722656 C 24.109375 23.875 23.972656 24.167969 24.003906 24.457031 C 24.027344 24.226562 24.160156 24.011719 24.375 23.886719 C 24.734375 23.675781 25.191406 23.800781 25.398438 24.160156 C 25.453125 24.253906 25.484375 24.351562 25.496094 24.453125 C 25.511719 24.296875 25.480469 24.140625 25.398438 23.996094 C 25.257812 23.75 24.996094 23.613281 24.730469 23.621094 Z M 24.730469 23.621094 "/>
<path style=" stroke:none;fill-rule:nonzero;fill:rgb(99.607843%,99.607843%,99.607843%);fill-opacity:0.6;" d="M 24.730469 25.289062 C 24.609375 25.285156 24.488281 25.253906 24.375 25.1875 C 24.109375 25.035156 23.972656 24.742188 24.003906 24.453125 C 24.027344 24.683594 24.160156 24.898438 24.375 25.023438 C 24.734375 25.230469 25.191406 25.109375 25.398438 24.75 C 25.453125 24.65625 25.484375 24.558594 25.496094 24.457031 C 25.511719 24.609375 25.480469 24.769531 25.398438 24.914062 C 25.257812 25.160156 24.996094 25.296875 24.730469 25.289062 Z M 24.730469 25.289062 "/>
<path style=" stroke:none;fill-rule:nonzero;fill:rgb(87.843138%,87.843138%,87.843138%);fill-opacity:0.996078;" d="M 20.5 16.261719 C 20.914062 16.261719 21.25 16.59375 21.25 17.011719 C 21.25 17.425781 20.914062 17.761719 20.5 17.761719 C 20.085938 17.761719 19.75 17.425781 19.75 17.011719 C 19.75 16.59375 20.085938 16.261719 20.5 16.261719 Z M 20.5 16.261719 "/>
<path style=" stroke:none;fill-rule:nonzero;fill:rgb(87.843138%,87.843138%,87.843138%);fill-opacity:0.6;" d="M 20.5 16.261719 C 20.914062 16.261719 21.25 16.59375 21.25 17.011719 C 21.25 17.425781 20.914062 17.761719 20.5 17.761719 C 20.085938 17.761719 19.75 17.425781 19.75 17.011719 C 19.75 16.59375 20.085938 16.261719 20.5 16.261719 Z M 20.5 16.261719 "/>
<path style=" stroke:none;fill-rule:nonzero;fill:rgb(100%,100%,100%);fill-opacity:0.6;" d="M 20.480469 16.261719 C 20.074219 16.269531 19.75 16.601562 19.75 17.011719 C 19.75 17.050781 19.753906 17.09375 19.761719 17.136719 C 19.820312 16.78125 20.125 16.511719 20.5 16.511719 C 20.871094 16.511719 21.179688 16.78125 21.238281 17.136719 C 21.246094 17.09375 21.25 17.050781 21.25 17.011719 C 21.25 16.59375 20.914062 16.261719 20.5 16.261719 C 20.492188 16.261719 20.484375 16.257812 20.480469 16.261719 Z M 20.480469 16.261719 "/>
<path style=" stroke:none;fill-rule:nonzero;fill:rgb(1.176471%,1.176471%,1.176471%);fill-opacity:0.4;" d="M 20.480469 18.011719 C 20.074219 18 19.75 17.667969 19.75 17.261719 C 19.75 17.21875 19.753906 17.175781 19.761719 17.136719 C 19.820312 17.492188 20.125 17.761719 20.5 17.761719 C 20.871094 17.761719 21.179688 17.492188 21.238281 17.136719 C 21.246094 17.175781 21.25 17.21875 21.25 17.261719 C 21.25 17.675781 20.914062 18.011719 20.5 18.011719 C 20.492188 18.011719 20.484375 18.011719 20.480469 18.011719 Z M 20.480469 18.011719 "/>
<path style=" stroke:none;fill-rule:nonzero;fill:rgb(38.039216%,38.039216%,38.039216%);fill-opacity:1;" d="M 24.5 23.9375 C 24.738281 23.800781 25.042969 23.882812 25.183594 24.121094 C 25.320312 24.359375 25.238281 24.664062 25 24.804688 C 24.761719 24.941406 24.453125 24.859375 24.316406 24.621094 C 24.179688 24.382812 24.261719 24.074219 24.5 23.9375 Z M 24.5 23.9375 "/>
<path style=" stroke:none;fill-rule:nonzero;fill:rgb(100%,100%,100%);fill-opacity:0.4;" d="M 24.738281 23.871094 C 24.65625 23.871094 24.574219 23.894531 24.5 23.9375 C 24.320312 24.039062 24.230469 24.234375 24.253906 24.425781 C 24.269531 24.277344 24.359375 24.136719 24.5 24.054688 C 24.738281 23.914062 25.042969 23.996094 25.183594 24.238281 C 25.21875 24.296875 25.238281 24.363281 25.246094 24.429688 C 25.257812 24.328125 25.238281 24.21875 25.183594 24.121094 C 25.085938 23.957031 24.914062 23.867188 24.738281 23.871094 Z M 24.738281 23.871094 "/>
<path style=" stroke:none;fill-rule:nonzero;fill:rgb(0%,0%,0%);fill-opacity:0.4;" d="M 24.253906 24.3125 C 24.242188 24.414062 24.261719 24.523438 24.316406 24.621094 C 24.457031 24.859375 24.761719 24.941406 25 24.804688 C 25.179688 24.699219 25.269531 24.503906 25.246094 24.3125 C 25.226562 24.460938 25.140625 24.597656 25 24.679688 C 24.761719 24.820312 24.457031 24.738281 24.316406 24.496094 C 24.28125 24.4375 24.261719 24.375 24.253906 24.3125 Z M 24.253906 24.3125 "/>
<path style=" stroke:none;fill-rule:nonzero;fill:rgb(100%,100%,100%);fill-opacity:0.6;" d="M 20.5 15.011719 C 19.390625 15.011719 18.5 15.902344 18.5 17.011719 C 18.5 17.09375 18.503906 17.179688 18.515625 17.261719 C 18.636719 16.269531 19.476562 15.511719 20.5 15.511719 C 21.523438 15.511719 22.363281 16.269531 22.484375 17.261719 C 22.496094 17.179688 22.5 17.09375 22.5 17.011719 C 22.5 15.902344 21.605469 15.011719 20.5 15.011719 Z M 20.5 15.011719 "/>
<path style=" stroke:none;fill-rule:nonzero;fill:rgb(4.705882%,4.705882%,4.705882%);fill-opacity:0.4;" d="M 20.5 19.511719 C 19.390625 19.511719 18.5 18.617188 18.5 17.511719 C 18.5 17.425781 18.503906 17.339844 18.515625 17.261719 C 18.636719 18.25 19.476562 19.011719 20.5 19.011719 C 21.523438 19.011719 22.363281 18.25 22.484375 17.261719 C 22.496094 17.339844 22.5 17.425781 22.5 17.511719 C 22.5 18.617188 21.605469 19.511719 20.5 19.511719 Z M 20.5 19.511719 "/>
<path style=" stroke:none;fill-rule:nonzero;fill:rgb(100%,100%,100%);fill-opacity:0.4;" d="M 20.25 10.011719 C 19.832031 10.011719 19.5 10.34375 19.5 10.761719 L 19.5 11.261719 C 19.5 10.84375 19.832031 10.511719 20.25 10.511719 L 20.75 10.511719 C 21.164062 10.511719 21.5 10.84375 21.5 11.261719 L 21.5 10.761719 C 21.5 10.34375 21.164062 10.011719 20.75 10.011719 Z M 20.25 10.011719 "/>
<path style=" stroke:none;fill-rule:nonzero;fill:rgb(30.980393%,30.980393%,30.980393%);fill-opacity:0.4;" d="M 20.25 15.011719 C 19.832031 15.011719 19.5 14.675781 19.5 14.261719 L 19.5 13.761719 C 19.5 14.175781 19.832031 14.511719 20.25 14.511719 L 20.75 14.511719 C 21.164062 14.511719 21.5 14.175781 21.5 13.761719 L 21.5 14.261719 C 21.5 14.675781 21.164062 15.011719 20.75 15.011719 Z M 20.25 15.011719 "/>
<path style="fill-rule:nonzero;fill:rgb(93.333334%,93.333334%,93.333334%);fill-opacity:1;stroke-width:0.0529167;stroke-linecap:butt;stroke-linejoin:miter;stroke:rgb(95.686275%,95.686275%,95.686275%);stroke-opacity:0.498039;stroke-miterlimit:4;" d="M 4.167187 -209.710401 L 4.167187 -204.284376 L 7.474479 -204.284376 L 7.474479 -209.710401 Z M 4.299479 -209.576042 L 7.342187 -209.576042 L 7.342187 -204.416667 L 4.299479 -204.416667 Z M 4.299479 -209.576042 " transform="matrix(1.889764,0,0,1.889764,0,406.299234)"/>
<path style="fill-rule:nonzero;fill:rgb(93.333334%,93.333334%,93.333334%);fill-opacity:1;stroke-width:0.0529167;stroke-linecap:butt;stroke-linejoin:miter;stroke:rgb(95.686275%,95.686275%,95.686275%);stroke-opacity:0.498039;stroke-miterlimit:4;" d="M 2.645833 -209.710401 L 2.645833 -209.576042 L 5.291666 -209.576042 L 5.291666 -209.710401 Z M 2.645833 -209.710401 " transform="matrix(1.889764,0,0,1.889764,0,406.299234)"/>
<path style="fill-rule:nonzero;fill:rgb(93.333334%,93.333334%,93.333334%);fill-opacity:1;stroke-width:0.0529167;stroke-linecap:butt;stroke-linejoin:miter;stroke:rgb(95.686275%,95.686275%,95.686275%);stroke-opacity:0.498039;stroke-miterlimit:4;" d="M 2.645833 -204.416667 L 2.645833 -204.284376 L 5.291666 -204.284376 L 5.291666 -204.416667 Z M 2.645833 -204.416667 " transform="matrix(1.889764,0,0,1.889764,0,406.299234)"/>
<path style="fill-rule:nonzero;fill:rgb(93.333334%,93.333334%,93.333334%);fill-opacity:1;stroke-width:0.0529167;stroke-linecap:butt;stroke-linejoin:miter;stroke:rgb(95.686275%,95.686275%,95.686275%);stroke-opacity:0.498039;stroke-miterlimit:4;" d="M 3.108854 -209.443359 L 3.108854 -204.68086 L 3.241146 -204.68086 L 3.241146 -209.443359 Z M 3.108854 -209.443359 " transform="matrix(1.889764,0,0,1.889764,0,406.548495)"/>
<path style="fill-rule:evenodd;fill:rgb(93.333334%,93.333334%,93.333334%);fill-opacity:1;stroke-width:0.0529167;stroke-linecap:butt;stroke-linejoin:miter;stroke:rgb(95.686275%,95.686275%,95.686275%);stroke-opacity:0.498039;stroke-miterlimit:4;" d="M 3.175 -205.210026 L 2.910417 -205.47461 L 3.175 -204.548568 L 3.439583 -205.47461 Z M 3.175 -205.210026 " transform="matrix(1.889764,0,0,1.889764,0,406.548495)"/>
<path style="fill-rule:evenodd;fill:rgb(93.333334%,93.333334%,93.333334%);fill-opacity:1;stroke-width:0.0529167;stroke-linecap:butt;stroke-linejoin:miter;stroke:rgb(95.686275%,95.686275%,95.686275%);stroke-opacity:0.498039;stroke-miterlimit:4;" d="M 2.840137 -205.662712 L 3.175 -204.486556 L 3.51193 -205.662712 L 3.175 -205.325782 Z M 3.369303 -205.418799 L 3.175 -204.742871 L 2.982764 -205.416732 L 3.175 -205.226563 L 3.199805 -205.251368 Z M 3.369303 -205.418799 " transform="matrix(1.889764,0,0,1.889764,0,406.548495)"/>
<path style="fill-rule:evenodd;fill:rgb(93.333334%,93.333334%,93.333334%);fill-opacity:1;stroke-width:0.0529167;stroke-linecap:butt;stroke-linejoin:miter;stroke:rgb(95.686275%,95.686275%,95.686275%);stroke-opacity:0.498039;stroke-miterlimit:4;" d="M 3.175 -208.914193 L 3.439583 -208.64961 L 3.175 -209.575651 L 2.910417 -208.64961 Z M 3.175 -208.914193 " transform="matrix(1.889764,0,0,1.889764,0,406.548495)"/>
<path style="fill-rule:evenodd;fill:rgb(93.333334%,93.333334%,93.333334%);fill-opacity:1;stroke-width:0.0529167;stroke-linecap:butt;stroke-linejoin:miter;stroke:rgb(95.686275%,95.686275%,95.686275%);stroke-opacity:0.498039;stroke-miterlimit:4;" d="M 3.175 -209.772022 L 2.840137 -208.595866 L 3.175 -208.930729 L 3.51193 -208.595866 Z M 3.175 -209.513639 L 3.369303 -208.837712 L 3.175 -209.032015 L 3.150195 -209.005143 L 2.982764 -208.839779 Z M 3.175 -209.513639 " transform="matrix(1.889764,0,0,1.889764,0,406.548495)"/>
<path style=" stroke:none;fill-rule:nonzero;fill:url(#linear0);" d="M 4 2 L 28 2 C 29.105469 2 30 2.894531 30 4 L 30 28 C 30 29.105469 29.105469 30 28 30 L 4 30 C 2.894531 30 2 29.105469 2 28 L 2 4 C 2 2.894531 2.894531 2 4 2 Z M 4 2 "/>
</g>
</svg>
