
<svg xmlns="http://www.w3.org/2000/svg" xmlns:xlink="http://www.w3.org/1999/xlink" width="32" height="32" viewBox="0 0 32 32" version="1.1">
<defs>
<linearGradient id="linear0" gradientUnits="userSpaceOnUse" x1="31.999998" y1="57.999996" x2="31.999998" y2="8" gradientTransform="matrix(0.5,0,0,0.5,0,0)">
<stop offset="0" style="stop-color:rgb(0%,0%,0%);stop-opacity:0.2;"/>
<stop offset="1" style="stop-color:rgb(100%,100%,100%);stop-opacity:0;"/>
</linearGradient>
</defs>
<g id="surface1">
<path style=" stroke:none;fill-rule:nonzero;fill:rgb(74.117649%,74.117649%,74.117649%);fill-opacity:0.996078;" d="M 5 4 L 27 4 C 28.105469 4 29 4.894531 29 6 L 29 25 C 29 26.105469 28.105469 27 27 27 L 5 27 C 3.894531 27 3 26.105469 3 25 L 3 6 C 3 4.894531 3.894531 4 5 4 Z M 5 4 "/>
<path style=" stroke:none;fill-rule:nonzero;fill:rgb(93.333334%,93.333334%,93.333334%);fill-opacity:1;" d="M 4.5 25 C 4.222656 25 4 25.222656 4 25.5 L 4 26 L 6 26 L 6 25.5 C 6 25.222656 5.777344 25 5.5 25 Z M 4.5 25 "/>
<path style=" stroke:none;fill-rule:nonzero;fill:rgb(93.333334%,93.333334%,93.333334%);fill-opacity:1;" d="M 7 25 C 6.722656 25 6.5 25.222656 6.5 25.5 L 6.5 26 L 8.5 26 L 8.5 25.5 C 8.5 25.222656 8.277344 25 8 25 Z M 7 25 "/>
<path style=" stroke:none;fill-rule:nonzero;fill:rgb(93.333334%,93.333334%,93.333334%);fill-opacity:1;" d="M 26.5 25 C 26.222656 25 26 25.222656 26 25.5 L 26 26 L 28 26 L 28 25.5 C 28 25.222656 27.777344 25 27.5 25 Z M 26.5 25 "/>
<path style=" stroke:none;fill-rule:nonzero;fill:rgb(93.333334%,93.333334%,93.333334%);fill-opacity:1;" d="M 24 25 C 23.722656 25 23.5 25.222656 23.5 25.5 L 23.5 26 L 25.5 26 L 25.5 25.5 C 25.5 25.222656 25.277344 25 25 25 Z M 24 25 "/>
<path style=" stroke:none;fill-rule:nonzero;fill:rgb(93.333334%,93.333334%,93.333334%);fill-opacity:1;" d="M 12 25 C 11.722656 25 11.5 25.222656 11.5 25.5 L 11.5 26 L 20.5 26 L 20.5 25.5 C 20.5 25.222656 20.277344 25 20 25 Z M 12 25 "/>
<path style=" stroke:none;fill-rule:nonzero;fill:rgb(93.333334%,93.333334%,93.333334%);fill-opacity:1;" d="M 9.5 25 C 9.222656 25 9 25.222656 9 25.5 L 9 26 L 11 26 L 11 25.5 C 11 25.222656 10.777344 25 10.5 25 Z M 9.5 25 "/>
<path style=" stroke:none;fill-rule:nonzero;fill:rgb(93.333334%,93.333334%,93.333334%);fill-opacity:1;" d="M 21.5 25 C 21.222656 25 21 25.222656 21 25.5 L 21 26 L 23 26 L 23 25.5 C 23 25.222656 22.777344 25 22.5 25 Z M 21.5 25 "/>
<path style=" stroke:none;fill-rule:nonzero;fill:rgb(38.039216%,38.039216%,38.039216%);fill-opacity:1;" d="M 5 5 L 27 5 C 27.550781 5 28 5.449219 28 6 L 28 22 C 28 22.550781 27.550781 23 27 23 L 5 23 C 4.449219 23 4 22.550781 4 22 L 4 6 C 4 5.449219 4.449219 5 5 5 Z M 5 5 "/>
<path style=" stroke:none;fill-rule:nonzero;fill:rgb(87.843138%,87.843138%,87.843138%);fill-opacity:1;" d="M 3 26 L 29 26 C 29.550781 26 30 26.449219 30 27 L 30 28 C 30 28.550781 29.550781 29 29 29 L 3 29 C 2.449219 29 2 28.550781 2 28 L 2 27 C 2 26.449219 2.449219 26 3 26 Z M 3 26 "/>
<path style=" stroke:none;fill-rule:nonzero;fill:rgb(100%,100%,100%);fill-opacity:0.4;" d="M 5 4 C 3.890625 4 3 4.890625 3 6 L 3 6.5 C 3 5.390625 3.890625 4.5 5 4.5 L 27 4.5 C 28.109375 4.5 29 5.390625 29 6.5 L 29 6 C 29 4.890625 28.109375 4 27 4 Z M 5 4 "/>
<path style=" stroke:none;fill-rule:nonzero;fill:rgb(100%,100%,100%);fill-opacity:0.4;" d="M 3 26 C 2.445312 26 2 26.445312 2 27 L 2 27.5 C 2 26.945312 2.445312 26.5 3 26.5 L 29 26.5 C 29.554688 26.5 30 26.945312 30 27.5 L 30 27 C 30 26.445312 29.554688 26 29 26 Z M 3 26 "/>
<path style=" stroke:none;fill-rule:nonzero;fill:rgb(0%,0%,0%);fill-opacity:0.4;" d="M 3 29 C 2.445312 29 2 28.554688 2 28 L 2 27.5 C 2 28.054688 2.445312 28.5 3 28.5 L 29 28.5 C 29.554688 28.5 30 28.054688 30 27.5 L 30 28 C 30 28.554688 29.554688 29 29 29 Z M 3 29 "/>
<path style=" stroke:none;fill-rule:nonzero;fill:rgb(0%,0%,0%);fill-opacity:0.4;" d="M 5 5 C 4.445312 5 4 5.445312 4 6 L 4 6.25 C 4 5.695312 4.445312 5.25 5 5.25 L 27 5.25 C 27.554688 5.25 28 5.695312 28 6.25 L 28 6 C 28 5.445312 27.554688 5 27 5 Z M 5 5 "/>
<path style=" stroke:none;fill-rule:nonzero;fill:rgb(100%,100%,100%);fill-opacity:0.4;" d="M 5 23.25 C 4.445312 23.25 4 22.804688 4 22.25 L 4 22 C 4 22.554688 4.445312 23 5 23 L 27 23 C 27.554688 23 28 22.554688 28 22 L 28 22.25 C 28 22.804688 27.554688 23.25 27 23.25 Z M 5 23.25 "/>
<path style=" stroke:none;fill-rule:nonzero;fill:rgb(100%,100%,100%);fill-opacity:0.6;" d="M 4.488281 25 C 4.214844 25.007812 4 25.226562 4 25.5 L 4 26 L 6 26 L 6 25.5 C 6 25.222656 5.777344 25 5.5 25 L 4.5 25 C 4.496094 25 4.492188 25 4.488281 25 Z M 6.988281 25 C 6.714844 25.007812 6.5 25.226562 6.5 25.5 L 6.5 26 L 8.5 26 L 8.5 25.5 C 8.5 25.222656 8.277344 25 8 25 L 7 25 C 6.996094 25 6.992188 25 6.988281 25 Z M 9.488281 25 C 9.214844 25.007812 9 25.226562 9 25.5 L 9 26 L 11 26 L 11 25.5 C 11 25.222656 10.777344 25 10.5 25 L 9.5 25 C 9.496094 25 9.492188 25 9.488281 25 Z M 12 25 C 11.722656 25 11.5 25.222656 11.5 25.5 L 11.5 26 L 20.5 26 L 20.5 25.5 C 20.5 25.222656 20.277344 25 20 25 Z M 21.488281 25 C 21.214844 25.007812 21 25.226562 21 25.5 L 21 26 L 23 26 L 23 25.5 C 23 25.222656 22.777344 25 22.5 25 L 21.5 25 C 21.496094 25 21.492188 25 21.488281 25 Z M 23.988281 25 C 23.714844 25.007812 23.5 25.226562 23.5 25.5 L 23.5 26 L 25.5 26 L 25.5 25.5 C 25.5 25.222656 25.277344 25 25 25 L 24 25 C 23.996094 25 23.992188 25 23.988281 25 Z M 26.488281 25 C 26.214844 25.007812 26 25.226562 26 25.5 L 26 26 L 28 26 L 28 25.5 C 28 25.222656 27.777344 25 27.5 25 L 26.5 25 C 26.496094 25 26.492188 25 26.488281 25 Z M 26.488281 25 "/>
<path style=" stroke:none;fill-rule:nonzero;fill:rgb(100%,100%,100%);fill-opacity:0.8;" d="M 4.488281 25 C 4.214844 25.007812 4 25.226562 4 25.5 L 4 25.75 C 4 25.476562 4.214844 25.257812 4.488281 25.25 C 4.492188 25.25 4.496094 25.25 4.5 25.25 L 5.5 25.25 C 5.777344 25.25 6 25.472656 6 25.75 L 6 25.5 C 6 25.222656 5.777344 25 5.5 25 L 4.5 25 C 4.496094 25 4.492188 25 4.488281 25 Z M 6.988281 25 C 6.714844 25.007812 6.5 25.226562 6.5 25.5 L 6.5 25.75 C 6.5 25.476562 6.714844 25.257812 6.988281 25.25 C 6.992188 25.25 6.996094 25.25 7 25.25 L 8 25.25 C 8.277344 25.25 8.5 25.472656 8.5 25.75 L 8.5 25.5 C 8.5 25.222656 8.277344 25 8 25 L 7 25 C 6.996094 25 6.992188 25 6.988281 25 Z M 9.488281 25 C 9.214844 25.007812 9 25.226562 9 25.5 L 9 25.75 C 9 25.476562 9.214844 25.257812 9.488281 25.25 C 9.492188 25.25 9.496094 25.25 9.5 25.25 L 10.5 25.25 C 10.777344 25.25 11 25.472656 11 25.75 L 11 25.5 C 11 25.222656 10.777344 25 10.5 25 L 9.5 25 C 9.496094 25 9.492188 25 9.488281 25 Z M 12 25 C 11.722656 25 11.5 25.222656 11.5 25.5 L 11.5 25.75 C 11.5 25.472656 11.722656 25.25 12 25.25 L 20 25.25 C 20.277344 25.25 20.5 25.472656 20.5 25.75 L 20.5 25.5 C 20.5 25.222656 20.277344 25 20 25 Z M 21.488281 25 C 21.214844 25.007812 21 25.226562 21 25.5 L 21 25.75 C 21 25.476562 21.214844 25.257812 21.488281 25.25 C 21.492188 25.25 21.496094 25.25 21.5 25.25 L 22.5 25.25 C 22.777344 25.25 23 25.472656 23 25.75 L 23 25.5 C 23 25.222656 22.777344 25 22.5 25 L 21.5 25 C 21.496094 25 21.492188 25 21.488281 25 Z M 23.988281 25 C 23.714844 25.007812 23.5 25.226562 23.5 25.5 L 23.5 25.75 C 23.5 25.476562 23.714844 25.257812 23.988281 25.25 C 23.992188 25.25 23.996094 25.25 24 25.25 L 25 25.25 C 25.277344 25.25 25.5 25.472656 25.5 25.75 L 25.5 25.5 C 25.5 25.222656 25.277344 25 25 25 L 24 25 C 23.996094 25 23.992188 25 23.988281 25 Z M 26.488281 25 C 26.214844 25.007812 26 25.226562 26 25.5 L 26 25.75 C 26 25.476562 26.214844 25.257812 26.488281 25.25 C 26.492188 25.25 26.496094 25.25 26.5 25.25 L 27.5 25.25 C 27.777344 25.25 28 25.472656 28 25.75 L 28 25.5 C 28 25.222656 27.777344 25 27.5 25 L 26.5 25 C 26.496094 25 26.492188 25 26.488281 25 Z M 26.488281 25 "/>
<path style=" stroke:none;fill-rule:nonzero;fill:rgb(0%,0%,0%);fill-opacity:0.2;" d="M 2 28.003906 L 2 28.753906 C 2 29.308594 2.445312 29.753906 3 29.753906 L 29 29.753906 C 29.554688 29.753906 30 29.308594 30 28.753906 L 30 28.003906 C 30 28.558594 29.554688 29.003906 29 29.003906 L 3 29.003906 C 2.445312 29.003906 2 28.558594 2 28.003906 Z M 2 28.003906 "/>
<path style=" stroke:none;fill-rule:nonzero;fill:url(#linear0);" d="M 5 4 C 3.890625 4 3 4.890625 3 6 L 3 25 C 3 25.363281 3.097656 25.707031 3.265625 26 L 3 26 C 2.445312 26 2 26.445312 2 27 L 2 28 C 2 28.554688 2.445312 29 3 29 L 29 29 C 29.554688 29 30 28.554688 30 28 L 30 27 C 30 26.445312 29.554688 26 29 26 L 28.734375 26 C 28.902344 25.707031 29 25.363281 29 25 L 29 6 C 29 4.890625 28.109375 4 27 4 Z M 5 4 "/>
</g>
</svg>
