
<svg xmlns="http://www.w3.org/2000/svg" xmlns:xlink="http://www.w3.org/1999/xlink" width="32" height="32" viewBox="0 0 32 32" version="1.1">
<defs>
<linearGradient id="linear0" gradientUnits="userSpaceOnUse" x1="34" y1="59.999996" x2="34" y2="3.999999" gradientTransform="matrix(0.5,0,0,0.5,-0.000000245669,0)">
<stop offset="0" style="stop-color:rgb(0%,0%,0%);stop-opacity:0.2;"/>
<stop offset="1" style="stop-color:rgb(100%,100%,100%);stop-opacity:0;"/>
</linearGradient>
</defs>
<g id="surface1">
<path style=" stroke:none;fill-rule:nonzero;fill:rgb(87.843138%,87.843138%,87.843138%);fill-opacity:0.996078;" d="M 7 2 L 25 2 C 26.105469 2 27 2.894531 27 4 L 27 28 C 27 29.105469 26.105469 30 25 30 L 7 30 C 5.894531 30 5 29.105469 5 28 L 5 4 C 5 2.894531 5.894531 2 7 2 Z M 7 2 "/>
<path style=" stroke:none;fill-rule:nonzero;fill:rgb(56.470591%,79.215688%,97.647059%);fill-opacity:0.996078;" d="M 8 4 L 24 4 C 24.550781 4 25 4.449219 25 5 L 25 27 C 25 27.550781 24.550781 28 24 28 L 8 28 C 7.449219 28 7 27.550781 7 27 L 7 5 C 7 4.449219 7.449219 4 8 4 Z M 8 4 "/>
<path style=" stroke:none;fill-rule:nonzero;fill:rgb(38.039216%,38.039216%,38.039216%);fill-opacity:1;" d="M 10 7 L 22 7 C 22.550781 7 23 7.449219 23 8 L 23 14 C 23 14.550781 22.550781 15 22 15 L 10 15 C 9.449219 15 9 14.550781 9 14 L 9 8 C 9 7.449219 9.449219 7 10 7 Z M 10 7 "/>
<path style=" stroke:none;fill-rule:nonzero;fill:rgb(25.882354%,64.705884%,96.078432%);fill-opacity:1;" d="M 24.492188 16 C 18.042969 16 12.042969 16.929688 7 18.539062 L 7 27 C 7 27.554688 7.445312 28 8 28 L 24 28 C 24.554688 28 25 27.554688 25 27 L 25 16.003906 C 24.832031 16 24.660156 16 24.492188 16 Z M 24.492188 16 "/>
<path style=" stroke:none;fill-rule:nonzero;fill:rgb(93.333334%,93.333334%,93.333334%);fill-opacity:1;" d="M 10 7 L 22 7 C 22.550781 7 23 7.449219 23 8 L 23 24 C 23 24.550781 22.550781 25 22 25 L 10 25 C 9.449219 25 9 24.550781 9 24 L 9 8 C 9 7.449219 9.449219 7 10 7 Z M 10 7 "/>
<path style=" stroke:none;fill-rule:nonzero;fill:rgb(100%,100%,100%);fill-opacity:0.4;" d="M 7 2 C 5.890625 2 5 2.890625 5 4 L 5 4.5 C 5 3.390625 5.890625 2.5 7 2.5 L 25 2.5 C 26.109375 2.5 27 3.390625 27 4.5 L 27 4 C 27 2.890625 26.109375 2 25 2 Z M 7 2 "/>
<path style=" stroke:none;fill-rule:nonzero;fill:rgb(0%,0%,0%);fill-opacity:0.4;" d="M 8 4 C 7.445312 4 7 4.445312 7 5 L 7 5.492188 C 7 4.9375 7.445312 4.492188 8 4.492188 L 24 4.492188 C 24.554688 4.492188 25 4.9375 25 5.492188 L 25 5 C 25 4.445312 24.554688 4 24 4 Z M 8 4 "/>
<path style=" stroke:none;fill-rule:nonzero;fill:rgb(99.215686%,99.215686%,99.215686%);fill-opacity:0.4;" d="M 8 28.492188 C 7.445312 28.492188 7 28.046875 7 27.492188 L 7 27 C 7 27.554688 7.445312 28 8 28 L 24 28 C 24.554688 28 25 27.554688 25 27 L 25 27.492188 C 25 28.046875 24.554688 28.492188 24 28.492188 Z M 8 28.492188 "/>
<path style=" stroke:none;fill-rule:nonzero;fill:rgb(95.686275%,26.274511%,21.176471%);fill-opacity:1;" d="M 13.5 9 L 20.5 9 C 20.777344 9 21 9.222656 21 9.5 C 21 9.777344 20.777344 10 20.5 10 L 13.5 10 C 13.222656 10 13 9.777344 13 9.5 C 13 9.222656 13.222656 9 13.5 9 Z M 13.5 9 "/>
<path style=" stroke:none;fill-rule:nonzero;fill:rgb(95.686275%,26.274511%,21.176471%);fill-opacity:1;" d="M 11.5 11 L 20.5 11 C 20.777344 11 21 11.222656 21 11.5 C 21 11.777344 20.777344 12 20.5 12 L 11.5 12 C 11.222656 12 11 11.777344 11 11.5 C 11 11.222656 11.222656 11 11.5 11 Z M 11.5 11 "/>
<path style=" stroke:none;fill-rule:nonzero;fill:rgb(38.039216%,38.039216%,38.039216%);fill-opacity:1;" d="M 11.5 16 L 20.5 16 C 20.777344 16 21 16.222656 21 16.5 C 21 16.777344 20.777344 17 20.5 17 L 11.5 17 C 11.222656 17 11 16.777344 11 16.5 C 11 16.222656 11.222656 16 11.5 16 Z M 11.5 16 "/>
<path style=" stroke:none;fill-rule:nonzero;fill:rgb(38.039216%,38.039216%,38.039216%);fill-opacity:1;" d="M 11.5 18 L 20.5 18 C 20.777344 18 21 18.222656 21 18.5 C 21 18.777344 20.777344 19 20.5 19 L 11.5 19 C 11.222656 19 11 18.777344 11 18.5 C 11 18.222656 11.222656 18 11.5 18 Z M 11.5 18 "/>
<path style=" stroke:none;fill-rule:nonzero;fill:rgb(38.039216%,38.039216%,38.039216%);fill-opacity:1;" d="M 11.5 20 L 20.5 20 C 20.777344 20 21 20.222656 21 20.5 C 21 20.777344 20.777344 21 20.5 21 L 11.5 21 C 11.222656 21 11 20.777344 11 20.5 C 11 20.222656 11.222656 20 11.5 20 Z M 11.5 20 "/>
<path style=" stroke:none;fill-rule:nonzero;fill:rgb(87.843138%,87.843138%,87.843138%);fill-opacity:1;" d="M 12 27 C 11.445312 27 11 27.445312 11 28 L 11 30 L 21 30 L 21 28 C 21 27.445312 20.554688 27 20 27 Z M 12 27 "/>
<path style=" stroke:none;fill-rule:nonzero;fill:rgb(95.686275%,26.274511%,21.176471%);fill-opacity:1;" d="M 12.5 28 C 12.777344 28 13 28.222656 13 28.5 C 13 28.777344 12.777344 29 12.5 29 C 12.222656 29 12 28.777344 12 28.5 C 12 28.222656 12.222656 28 12.5 28 Z M 12.5 28 "/>
<path style=" stroke:none;fill-rule:nonzero;fill:rgb(95.686275%,26.274511%,21.176471%);fill-opacity:1;" d="M 14.5 28 C 14.777344 28 15 28.222656 15 28.5 C 15 28.777344 14.777344 29 14.5 29 C 14.222656 29 14 28.777344 14 28.5 C 14 28.222656 14.222656 28 14.5 28 Z M 14.5 28 "/>
<path style=" stroke:none;fill-rule:nonzero;fill:rgb(100%,100%,100%);fill-opacity:0.4;" d="M 12 27 C 11.445312 27 11 27.445312 11 28 L 11 28.5 C 11 27.945312 11.445312 27.5 12 27.5 L 20 27.5 C 20.554688 27.5 21 27.945312 21 28.5 L 21 28 C 21 27.445312 20.554688 27 20 27 Z M 12 27 "/>
<path style=" stroke:none;fill-rule:nonzero;fill:rgb(0%,0%,0%);fill-opacity:0.4;" d="M 7 29.996094 C 5.890625 29.996094 5 29.105469 5 27.996094 L 5 27.496094 C 5 28.605469 5.890625 29.496094 7 29.496094 L 25 29.496094 C 26.109375 29.496094 27 28.605469 27 27.496094 L 27 27.996094 C 27 29.105469 26.109375 29.996094 25 29.996094 Z M 7 29.996094 "/>
<path style=" stroke:none;fill-rule:nonzero;fill:rgb(0.784314%,0.784314%,0.784314%);fill-opacity:0.4;" d="M 12.488281 28 C 12.214844 28.007812 12 28.226562 12 28.5 C 12 28.542969 12.003906 28.585938 12.015625 28.625 C 12.070312 28.410156 12.265625 28.25 12.5 28.25 C 12.734375 28.25 12.929688 28.410156 12.984375 28.625 C 12.996094 28.585938 13 28.542969 13 28.5 C 13 28.222656 12.777344 28 12.5 28 C 12.496094 28 12.492188 28 12.488281 28 Z M 12.488281 28 "/>
<path style=" stroke:none;fill-rule:nonzero;fill:rgb(0.784314%,0.784314%,0.784314%);fill-opacity:0.4;" d="M 14.488281 28 C 14.214844 28.007812 14 28.226562 14 28.5 C 14 28.542969 14.003906 28.585938 14.015625 28.625 C 14.070312 28.410156 14.265625 28.25 14.5 28.25 C 14.734375 28.25 14.929688 28.410156 14.984375 28.625 C 14.996094 28.585938 15 28.542969 15 28.5 C 15 28.222656 14.777344 28 14.5 28 C 14.496094 28 14.492188 28 14.488281 28 Z M 14.488281 28 "/>
<path style=" stroke:none;fill-rule:nonzero;fill:rgb(100%,100%,100%);fill-opacity:0.4;" d="M 12.015625 28.625 C 12.003906 28.664062 12 28.707031 12 28.75 C 12 29.027344 12.222656 29.25 12.5 29.25 C 12.777344 29.25 13 29.027344 13 28.75 C 13 28.707031 12.996094 28.664062 12.984375 28.625 C 12.929688 28.839844 12.734375 29 12.5 29 C 12.265625 29 12.070312 28.839844 12.015625 28.625 Z M 12.015625 28.625 "/>
<path style=" stroke:none;fill-rule:nonzero;fill:rgb(100%,100%,100%);fill-opacity:0.4;" d="M 14.015625 28.625 C 14.003906 28.664062 14 28.707031 14 28.75 C 14 29.027344 14.222656 29.25 14.5 29.25 C 14.777344 29.25 15 29.027344 15 28.75 C 15 28.707031 14.996094 28.664062 14.984375 28.625 C 14.929688 28.839844 14.734375 29 14.5 29 C 14.265625 29 14.070312 28.839844 14.015625 28.625 Z M 14.015625 28.625 "/>
<path style=" stroke:none;fill-rule:nonzero;fill:url(#linear0);" d="M 7 2 C 5.890625 2 5 2.890625 5 4 L 5 28 C 5 29.109375 5.890625 30 7 30 L 25 30 C 26.109375 30 27 29.109375 27 28 L 27 4 C 27 2.890625 26.109375 2 25 2 Z M 7 2 "/>
<path style=" stroke:none;fill-rule:nonzero;fill:rgb(93.725491%,32.549021%,31.37255%);fill-opacity:0.996078;" d="M 8 13 L 24 13 L 24 15 L 8 15 Z M 8 13 "/>
<path style=" stroke:none;fill-rule:nonzero;fill:rgb(95.686275%,26.274511%,21.176471%);fill-opacity:0.996078;" d="M 8 13 L 24 13 L 24 13.5 L 8 13.5 Z M 8 13 "/>
<path style=" stroke:none;fill-rule:nonzero;fill:rgb(93.725491%,60.392159%,60.392159%);fill-opacity:0.996078;" d="M 8 13.5 L 24 13.5 L 24 14 L 8 14 Z M 8 13.5 "/>
<path style=" stroke:none;fill-rule:nonzero;fill:rgb(95.686275%,26.274511%,21.176471%);fill-opacity:0.996078;" d="M 8 14.5 L 24 14.5 L 24 15 L 8 15 Z M 8 14.5 "/>
<path style=" stroke:none;fill-rule:nonzero;fill:rgb(100%,100%,100%);fill-opacity:0.6;" d="M 10 7 C 9.445312 7 9 7.445312 9 8 L 9 8.25 C 9 7.695312 9.445312 7.25 10 7.25 L 22 7.25 C 22.554688 7.25 23 7.695312 23 8.25 L 23 8 C 23 7.445312 22.554688 7 22 7 Z M 10 7 "/>
<path style=" stroke:none;fill-rule:nonzero;fill:rgb(0%,0%,0%);fill-opacity:0.4;" d="M 10 25.25 C 9.445312 25.25 9 24.804688 9 24.25 L 9 24 C 9 24.554688 9.445312 25 10 25 L 22 25 C 22.554688 25 23 24.554688 23 24 L 23 24.25 C 23 24.804688 22.554688 25.25 22 25.25 Z M 10 25.25 "/>
<path style=" stroke:none;fill-rule:nonzero;fill:rgb(0%,0%,0%);fill-opacity:0.4;" d="M 8 15 L 24 15 L 24 15.5 L 8 15.5 Z M 8 15 "/>
<path style=" stroke:none;fill-rule:nonzero;fill:rgb(100%,100%,100%);fill-opacity:0.4;" d="M 13.5 9 C 13.222656 9 13 9.222656 13 9.5 C 13 9.542969 13.003906 9.585938 13.015625 9.625 C 13.070312 9.410156 13.265625 9.25 13.5 9.25 L 20.5 9.25 C 20.734375 9.25 20.929688 9.410156 20.984375 9.625 C 20.996094 9.585938 21 9.542969 21 9.5 C 21 9.222656 20.777344 9 20.5 9 Z M 13.5 9 "/>
<path style=" stroke:none;fill-rule:nonzero;fill:rgb(100%,100%,100%);fill-opacity:0.4;" d="M 11.5 11 C 11.222656 11 11 11.222656 11 11.5 C 11 11.542969 11.003906 11.585938 11.015625 11.625 C 11.070312 11.410156 11.265625 11.25 11.5 11.25 L 20.5 11.25 C 20.734375 11.25 20.929688 11.410156 20.984375 11.625 C 20.996094 11.585938 21 11.542969 21 11.5 C 21 11.222656 20.777344 11 20.5 11 Z M 11.5 11 "/>
<path style=" stroke:none;fill-rule:nonzero;fill:rgb(0%,0%,0%);fill-opacity:0.4;" d="M 13.5 10.253906 C 13.222656 10.253906 13 10.03125 13 9.753906 C 13 9.710938 13.003906 9.667969 13.015625 9.628906 C 13.070312 9.847656 13.265625 10.003906 13.5 10.003906 L 20.5 10.003906 C 20.734375 10.003906 20.929688 9.847656 20.984375 9.628906 C 20.996094 9.667969 21 9.710938 21 9.753906 C 21 10.03125 20.777344 10.253906 20.5 10.253906 Z M 13.5 10.253906 "/>
<path style=" stroke:none;fill-rule:nonzero;fill:rgb(0.392157%,0.392157%,0.392157%);fill-opacity:0.4;" d="M 11.5 12.253906 C 11.222656 12.253906 11 12.03125 11 11.753906 C 11 11.710938 11.003906 11.667969 11.015625 11.628906 C 11.070312 11.84375 11.265625 12.003906 11.5 12.003906 L 20.5 12.003906 C 20.734375 12.003906 20.929688 11.84375 20.984375 11.628906 C 20.996094 11.667969 21 11.710938 21 11.753906 C 21 12.03125 20.777344 12.253906 20.5 12.253906 Z M 11.5 12.253906 "/>
<path style=" stroke:none;fill-rule:nonzero;fill:rgb(100%,100%,100%);fill-opacity:0.4;" d="M 11.5 15.996094 C 11.222656 15.996094 11 16.21875 11 16.496094 C 11 16.539062 11.003906 16.578125 11.015625 16.621094 C 11.070312 16.402344 11.265625 16.246094 11.5 16.246094 L 20.5 16.246094 C 20.734375 16.246094 20.929688 16.402344 20.984375 16.621094 C 20.996094 16.578125 21 16.539062 21 16.496094 C 21 16.21875 20.777344 15.996094 20.5 15.996094 Z M 11.5 15.996094 "/>
<path style=" stroke:none;fill-rule:nonzero;fill:rgb(0.392157%,0.392157%,0.392157%);fill-opacity:0.4;" d="M 11.5 17.246094 C 11.222656 17.246094 11 17.023438 11 16.746094 C 11 16.703125 11.003906 16.664062 11.015625 16.621094 C 11.070312 16.839844 11.265625 16.996094 11.5 16.996094 L 20.5 16.996094 C 20.734375 16.996094 20.929688 16.839844 20.984375 16.621094 C 20.996094 16.664062 21 16.703125 21 16.746094 C 21 17.023438 20.777344 17.246094 20.5 17.246094 Z M 11.5 17.246094 "/>
<path style=" stroke:none;fill-rule:nonzero;fill:rgb(100%,100%,100%);fill-opacity:0.4;" d="M 11.5 18 C 11.222656 18 11 18.222656 11 18.5 C 11 18.542969 11.003906 18.585938 11.015625 18.625 C 11.070312 18.410156 11.265625 18.25 11.5 18.25 L 20.5 18.25 C 20.734375 18.25 20.929688 18.410156 20.984375 18.625 C 20.996094 18.585938 21 18.542969 21 18.5 C 21 18.222656 20.777344 18 20.5 18 Z M 11.5 18 "/>
<path style=" stroke:none;fill-rule:nonzero;fill:rgb(0.392157%,0.392157%,0.392157%);fill-opacity:0.4;" d="M 11.5 19.253906 C 11.222656 19.253906 11 19.03125 11 18.753906 C 11 18.710938 11.003906 18.667969 11.015625 18.628906 C 11.070312 18.84375 11.265625 19.003906 11.5 19.003906 L 20.5 19.003906 C 20.734375 19.003906 20.929688 18.84375 20.984375 18.628906 C 20.996094 18.667969 21 18.710938 21 18.753906 C 21 19.03125 20.777344 19.253906 20.5 19.253906 Z M 11.5 19.253906 "/>
<path style=" stroke:none;fill-rule:nonzero;fill:rgb(100%,100%,100%);fill-opacity:0.4;" d="M 11.5 20 C 11.222656 20 11 20.222656 11 20.5 C 11 20.542969 11.003906 20.585938 11.015625 20.625 C 11.070312 20.410156 11.265625 20.25 11.5 20.25 L 20.5 20.25 C 20.734375 20.25 20.929688 20.410156 20.984375 20.625 C 20.996094 20.585938 21 20.542969 21 20.5 C 21 20.222656 20.777344 20 20.5 20 Z M 11.5 20 "/>
<path style=" stroke:none;fill-rule:nonzero;fill:rgb(0.392157%,0.392157%,0.392157%);fill-opacity:0.4;" d="M 11.5 21.253906 C 11.222656 21.253906 11 21.03125 11 20.753906 C 11 20.710938 11.003906 20.667969 11.015625 20.628906 C 11.070312 20.84375 11.265625 21.003906 11.5 21.003906 L 20.5 21.003906 C 20.734375 21.003906 20.929688 20.84375 20.984375 20.628906 C 20.996094 20.667969 21 20.710938 21 20.753906 C 21 21.03125 20.777344 21.253906 20.5 21.253906 Z M 11.5 21.253906 "/>
</g>
</svg>
