
<svg xmlns="http://www.w3.org/2000/svg" xmlns:xlink="http://www.w3.org/1999/xlink" width="32" height="32" viewBox="0 0 32 32" version="1.1">
<defs>
<linearGradient id="linear0" gradientUnits="userSpaceOnUse" x1="8.466666" y1="-199.125" x2="8.466666" y2="-213.412506" gradientTransform="matrix(1.889764,0,0,1.889764,0,406.299234)">
<stop offset="0" style="stop-color:rgb(0%,0%,0%);stop-opacity:0.2;"/>
<stop offset="1" style="stop-color:rgb(100%,100%,100%);stop-opacity:0;"/>
</linearGradient>
</defs>
<g id="surface1">
<path style=" stroke:none;fill-rule:nonzero;fill:rgb(91.37255%,11.764706%,38.82353%);fill-opacity:1;" d="M 7 3 L 25 3 C 26.105469 3 27 3.894531 27 5 L 27 28 C 27 29.105469 26.105469 30 25 30 L 7 30 C 5.894531 30 5 29.105469 5 28 L 5 5 C 5 3.894531 5.894531 3 7 3 Z M 7 3 "/>
<path style=" stroke:none;fill-rule:nonzero;fill:rgb(87.843138%,87.843138%,87.843138%);fill-opacity:0.996078;" d="M 7 4 L 25 4 C 25.550781 4 26 4.449219 26 5 L 26 28 C 26 28.550781 25.550781 29 25 29 L 7 29 C 6.449219 29 6 28.550781 6 28 L 6 5 C 6 4.449219 6.449219 4 7 4 Z M 7 4 "/>
<path style=" stroke:none;fill-rule:nonzero;fill:rgb(92.54902%,25.098041%,47.843137%);fill-opacity:0.996078;" d="M 7 4 C 6.445312 4 6 4.445312 6 5 L 6 8 L 26 8 L 26 5 C 26 4.445312 25.554688 4 25 4 Z M 7 4 "/>
<path style=" stroke:none;fill-rule:nonzero;fill:rgb(100%,100%,100%);fill-opacity:0.4;" d="M 7 4 C 6.445312 4 6 4.445312 6 5 L 6 5.25 C 6 4.695312 6.445312 4.25 7 4.25 L 25 4.25 C 25.554688 4.25 26 4.695312 26 5.25 L 26 5 C 26 4.445312 25.554688 4 25 4 Z M 7 4 "/>
<path style=" stroke:none;fill-rule:nonzero;fill:rgb(98.039216%,98.039216%,98.039216%);fill-opacity:0.996078;" d="M 26 24 L 21 29 L 25 29 C 25.554688 29 26 28.554688 26 28 Z M 26 24 "/>
<path style=" stroke:none;fill-rule:nonzero;fill:rgb(100%,100%,100%);fill-opacity:0.4;" d="M 7 3 C 5.890625 3 5 3.890625 5 5 L 5 5.496094 C 5 4.390625 5.890625 3.496094 7 3.496094 L 25 3.496094 C 26.109375 3.496094 27 4.390625 27 5.496094 L 27 5 C 27 3.890625 26.109375 3 25 3 Z M 7 3 "/>
<path style=" stroke:none;fill-rule:nonzero;fill:rgb(0.392157%,0.392157%,0.392157%);fill-opacity:0.4;" d="M 9 4.738281 C 9.414062 4.738281 9.75 5.074219 9.75 5.488281 C 9.75 5.902344 9.414062 6.238281 9 6.238281 C 8.585938 6.238281 8.25 5.902344 8.25 5.488281 C 8.25 5.074219 8.585938 4.738281 9 4.738281 Z M 9 4.738281 "/>
<path style=" stroke:none;fill-rule:nonzero;fill:rgb(0.392157%,0.392157%,0.392157%);fill-opacity:0.4;" d="M 8.980469 4.738281 C 8.574219 4.746094 8.25 5.078125 8.25 5.488281 C 8.25 5.53125 8.253906 5.570312 8.261719 5.613281 C 8.320312 5.257812 8.628906 4.988281 9 4.988281 C 9.371094 4.988281 9.679688 5.257812 9.738281 5.613281 C 9.746094 5.570312 9.75 5.53125 9.75 5.488281 C 9.75 5.070312 9.414062 4.738281 9 4.738281 C 8.992188 4.738281 8.988281 4.738281 8.980469 4.738281 Z M 8.980469 4.738281 "/>
<path style=" stroke:none;fill-rule:nonzero;fill:rgb(100%,100%,100%);fill-opacity:0.4;" d="M 8.980469 6.488281 C 8.574219 6.476562 8.25 6.144531 8.25 5.738281 C 8.25 5.695312 8.253906 5.652344 8.261719 5.613281 C 8.320312 5.96875 8.628906 6.238281 9 6.238281 C 9.371094 6.238281 9.679688 5.96875 9.738281 5.613281 C 9.746094 5.652344 9.75 5.695312 9.75 5.738281 C 9.75 6.152344 9.414062 6.488281 9 6.488281 C 8.992188 6.488281 8.988281 6.488281 8.980469 6.488281 Z M 8.980469 6.488281 "/>
<path style=" stroke:none;fill-rule:nonzero;fill:rgb(74.117649%,74.117649%,74.117649%);fill-opacity:0.996078;" d="M 9 2.011719 C 9.136719 2.011719 9.25 2.125 9.25 2.261719 L 9.25 5.5 C 9.25 5.636719 9.136719 5.75 9 5.75 C 8.863281 5.75 8.75 5.636719 8.75 5.5 L 8.75 2.261719 C 8.75 2.125 8.863281 2.011719 9 2.011719 Z M 9 2.011719 "/>
<path style=" stroke:none;fill-rule:nonzero;fill:rgb(100%,100%,100%);fill-opacity:0.4;" d="M 8.988281 2.011719 C 8.855469 2.019531 8.75 2.128906 8.75 2.261719 L 8.75 2.5 C 8.757812 2.371094 8.859375 2.269531 8.988281 2.261719 C 8.992188 2.261719 8.996094 2.261719 9 2.261719 C 9.132812 2.261719 9.242188 2.367188 9.25 2.5 L 9.25 2.261719 C 9.25 2.125 9.136719 2.011719 9 2.011719 C 8.996094 2.011719 8.992188 2.011719 8.988281 2.011719 Z M 8.988281 2.011719 "/>
<path style=" stroke:none;fill-rule:nonzero;fill:rgb(0.392157%,0.392157%,0.392157%);fill-opacity:0.4;" d="M 8.75 5.5 L 8.75 5.738281 C 8.75 5.871094 8.855469 5.980469 8.988281 5.988281 C 8.992188 5.988281 8.996094 5.988281 9 5.988281 C 9.136719 5.988281 9.25 5.875 9.25 5.738281 L 9.25 5.5 C 9.242188 5.632812 9.132812 5.738281 9 5.738281 C 8.996094 5.738281 8.992188 5.738281 8.988281 5.738281 C 8.859375 5.730469 8.757812 5.628906 8.75 5.5 Z M 8.75 5.5 "/>
<path style=" stroke:none;fill-rule:nonzero;fill:rgb(0.392157%,0.392157%,0.392157%);fill-opacity:0.4;" d="M 7 30 C 5.890625 30 5 29.109375 5 28 L 5 27.503906 C 5 28.609375 5.890625 29.503906 7 29.503906 L 25 29.503906 C 26.109375 29.503906 27 28.609375 27 27.503906 L 27 28 C 27 29.109375 26.109375 30 25 30 Z M 7 30 "/>
<path style=" stroke:none;fill-rule:nonzero;fill:rgb(0.392157%,0.392157%,0.392157%);fill-opacity:0.2;" d="M 5 28 L 5 28.746094 C 5 29.855469 5.890625 30.746094 7 30.746094 L 25 30.746094 C 26.109375 30.746094 27 29.855469 27 28.746094 L 27 28 C 27 29.109375 26.109375 30 25 30 L 7 30 C 5.890625 30 5 29.109375 5 28 Z M 5 28 "/>
<path style=" stroke:none;fill-rule:nonzero;fill:rgb(25.490198%,25.490198%,25.490198%);fill-opacity:0.6;" d="M 7 29.25 C 6.445312 29.25 6 28.804688 6 28.25 L 6 28 C 6 28.554688 6.445312 29 7 29 L 25 29 C 25.554688 29 26 28.554688 26 28 L 26 28.25 C 26 28.804688 25.554688 29.25 25 29.25 Z M 7 29.25 "/>
<path style=" stroke:none;fill-rule:nonzero;fill:rgb(0.392157%,0.392157%,0.392157%);fill-opacity:0.4;" d="M 11 4.738281 C 11.414062 4.738281 11.75 5.074219 11.75 5.488281 C 11.75 5.902344 11.414062 6.238281 11 6.238281 C 10.585938 6.238281 10.25 5.902344 10.25 5.488281 C 10.25 5.074219 10.585938 4.738281 11 4.738281 Z M 11 4.738281 "/>
<path style=" stroke:none;fill-rule:nonzero;fill:rgb(0.392157%,0.392157%,0.392157%);fill-opacity:0.4;" d="M 10.980469 4.738281 C 10.574219 4.746094 10.25 5.078125 10.25 5.488281 C 10.25 5.53125 10.253906 5.570312 10.261719 5.613281 C 10.320312 5.257812 10.628906 4.988281 11 4.988281 C 11.371094 4.988281 11.679688 5.257812 11.738281 5.613281 C 11.746094 5.570312 11.75 5.53125 11.75 5.488281 C 11.75 5.070312 11.414062 4.738281 11 4.738281 C 10.992188 4.738281 10.988281 4.738281 10.980469 4.738281 Z M 10.980469 4.738281 "/>
<path style=" stroke:none;fill-rule:nonzero;fill:rgb(100%,100%,100%);fill-opacity:0.4;" d="M 10.980469 6.488281 C 10.574219 6.476562 10.25 6.144531 10.25 5.738281 C 10.25 5.695312 10.253906 5.652344 10.261719 5.613281 C 10.320312 5.96875 10.628906 6.238281 11 6.238281 C 11.371094 6.238281 11.679688 5.96875 11.738281 5.613281 C 11.746094 5.652344 11.75 5.695312 11.75 5.738281 C 11.75 6.152344 11.414062 6.488281 11 6.488281 C 10.992188 6.488281 10.988281 6.488281 10.980469 6.488281 Z M 10.980469 6.488281 "/>
<path style=" stroke:none;fill-rule:nonzero;fill:rgb(74.117649%,74.117649%,74.117649%);fill-opacity:0.996078;" d="M 11 2.011719 C 11.136719 2.011719 11.25 2.125 11.25 2.261719 L 11.25 5.5 C 11.25 5.636719 11.136719 5.75 11 5.75 C 10.863281 5.75 10.75 5.636719 10.75 5.5 L 10.75 2.261719 C 10.75 2.125 10.863281 2.011719 11 2.011719 Z M 11 2.011719 "/>
<path style=" stroke:none;fill-rule:nonzero;fill:rgb(100%,100%,100%);fill-opacity:0.4;" d="M 10.988281 2.011719 C 10.855469 2.019531 10.75 2.128906 10.75 2.261719 L 10.75 2.5 C 10.757812 2.371094 10.859375 2.269531 10.988281 2.261719 C 10.992188 2.261719 10.996094 2.261719 11 2.261719 C 11.132812 2.261719 11.242188 2.367188 11.25 2.5 L 11.25 2.261719 C 11.25 2.125 11.136719 2.011719 11 2.011719 C 10.996094 2.011719 10.992188 2.011719 10.988281 2.011719 Z M 10.988281 2.011719 "/>
<path style=" stroke:none;fill-rule:nonzero;fill:rgb(0.392157%,0.392157%,0.392157%);fill-opacity:0.4;" d="M 10.75 5.5 L 10.75 5.738281 C 10.75 5.871094 10.855469 5.980469 10.988281 5.988281 C 10.992188 5.988281 10.996094 5.988281 11 5.988281 C 11.136719 5.988281 11.25 5.875 11.25 5.738281 L 11.25 5.5 C 11.242188 5.632812 11.132812 5.738281 11 5.738281 C 10.996094 5.738281 10.992188 5.738281 10.988281 5.738281 C 10.859375 5.730469 10.757812 5.628906 10.75 5.5 Z M 10.75 5.5 "/>
<path style=" stroke:none;fill-rule:nonzero;fill:rgb(0.392157%,0.392157%,0.392157%);fill-opacity:0.4;" d="M 13 4.738281 C 13.414062 4.738281 13.75 5.074219 13.75 5.488281 C 13.75 5.902344 13.414062 6.238281 13 6.238281 C 12.585938 6.238281 12.25 5.902344 12.25 5.488281 C 12.25 5.074219 12.585938 4.738281 13 4.738281 Z M 13 4.738281 "/>
<path style=" stroke:none;fill-rule:nonzero;fill:rgb(0.392157%,0.392157%,0.392157%);fill-opacity:0.4;" d="M 12.980469 4.738281 C 12.574219 4.746094 12.25 5.078125 12.25 5.488281 C 12.25 5.53125 12.253906 5.570312 12.261719 5.613281 C 12.320312 5.257812 12.628906 4.988281 13 4.988281 C 13.371094 4.988281 13.679688 5.257812 13.738281 5.613281 C 13.746094 5.570312 13.75 5.53125 13.75 5.488281 C 13.75 5.070312 13.414062 4.738281 13 4.738281 C 12.992188 4.738281 12.988281 4.738281 12.980469 4.738281 Z M 12.980469 4.738281 "/>
<path style=" stroke:none;fill-rule:nonzero;fill:rgb(100%,100%,100%);fill-opacity:0.4;" d="M 12.980469 6.488281 C 12.574219 6.476562 12.25 6.144531 12.25 5.738281 C 12.25 5.695312 12.253906 5.652344 12.261719 5.613281 C 12.320312 5.96875 12.628906 6.238281 13 6.238281 C 13.371094 6.238281 13.679688 5.96875 13.738281 5.613281 C 13.746094 5.652344 13.75 5.695312 13.75 5.738281 C 13.75 6.152344 13.414062 6.488281 13 6.488281 C 12.992188 6.488281 12.988281 6.488281 12.980469 6.488281 Z M 12.980469 6.488281 "/>
<path style=" stroke:none;fill-rule:nonzero;fill:rgb(74.117649%,74.117649%,74.117649%);fill-opacity:0.996078;" d="M 13 2.011719 C 13.136719 2.011719 13.25 2.125 13.25 2.261719 L 13.25 5.5 C 13.25 5.636719 13.136719 5.75 13 5.75 C 12.863281 5.75 12.75 5.636719 12.75 5.5 L 12.75 2.261719 C 12.75 2.125 12.863281 2.011719 13 2.011719 Z M 13 2.011719 "/>
<path style=" stroke:none;fill-rule:nonzero;fill:rgb(100%,100%,100%);fill-opacity:0.4;" d="M 12.988281 2.011719 C 12.855469 2.019531 12.75 2.128906 12.75 2.261719 L 12.75 2.5 C 12.757812 2.371094 12.859375 2.269531 12.988281 2.261719 C 12.992188 2.261719 12.996094 2.261719 13 2.261719 C 13.132812 2.261719 13.242188 2.367188 13.25 2.5 L 13.25 2.261719 C 13.25 2.125 13.136719 2.011719 13 2.011719 C 12.996094 2.011719 12.992188 2.011719 12.988281 2.011719 Z M 12.988281 2.011719 "/>
<path style=" stroke:none;fill-rule:nonzero;fill:rgb(0.392157%,0.392157%,0.392157%);fill-opacity:0.4;" d="M 12.75 5.5 L 12.75 5.738281 C 12.75 5.871094 12.855469 5.980469 12.988281 5.988281 C 12.992188 5.988281 12.996094 5.988281 13 5.988281 C 13.136719 5.988281 13.25 5.875 13.25 5.738281 L 13.25 5.5 C 13.242188 5.632812 13.132812 5.738281 13 5.738281 C 12.996094 5.738281 12.992188 5.738281 12.988281 5.738281 C 12.859375 5.730469 12.757812 5.628906 12.75 5.5 Z M 12.75 5.5 "/>
<path style=" stroke:none;fill-rule:nonzero;fill:rgb(0.392157%,0.392157%,0.392157%);fill-opacity:0.4;" d="M 15 4.738281 C 15.414062 4.738281 15.75 5.074219 15.75 5.488281 C 15.75 5.902344 15.414062 6.238281 15 6.238281 C 14.585938 6.238281 14.25 5.902344 14.25 5.488281 C 14.25 5.074219 14.585938 4.738281 15 4.738281 Z M 15 4.738281 "/>
<path style=" stroke:none;fill-rule:nonzero;fill:rgb(0.392157%,0.392157%,0.392157%);fill-opacity:0.4;" d="M 14.980469 4.738281 C 14.574219 4.746094 14.25 5.078125 14.25 5.488281 C 14.25 5.53125 14.253906 5.570312 14.261719 5.613281 C 14.320312 5.257812 14.628906 4.988281 15 4.988281 C 15.371094 4.988281 15.679688 5.257812 15.738281 5.613281 C 15.746094 5.570312 15.75 5.53125 15.75 5.488281 C 15.75 5.070312 15.414062 4.738281 15 4.738281 C 14.992188 4.738281 14.988281 4.738281 14.980469 4.738281 Z M 14.980469 4.738281 "/>
<path style=" stroke:none;fill-rule:nonzero;fill:rgb(100%,100%,100%);fill-opacity:0.4;" d="M 14.980469 6.488281 C 14.574219 6.476562 14.25 6.144531 14.25 5.738281 C 14.25 5.695312 14.253906 5.652344 14.261719 5.613281 C 14.320312 5.96875 14.628906 6.238281 15 6.238281 C 15.371094 6.238281 15.679688 5.96875 15.738281 5.613281 C 15.746094 5.652344 15.75 5.695312 15.75 5.738281 C 15.75 6.152344 15.414062 6.488281 15 6.488281 C 14.992188 6.488281 14.988281 6.488281 14.980469 6.488281 Z M 14.980469 6.488281 "/>
<path style=" stroke:none;fill-rule:nonzero;fill:rgb(74.117649%,74.117649%,74.117649%);fill-opacity:0.996078;" d="M 15 2.011719 C 15.136719 2.011719 15.25 2.125 15.25 2.261719 L 15.25 5.5 C 15.25 5.636719 15.136719 5.75 15 5.75 C 14.863281 5.75 14.75 5.636719 14.75 5.5 L 14.75 2.261719 C 14.75 2.125 14.863281 2.011719 15 2.011719 Z M 15 2.011719 "/>
<path style=" stroke:none;fill-rule:nonzero;fill:rgb(100%,100%,100%);fill-opacity:0.4;" d="M 14.988281 2.011719 C 14.855469 2.019531 14.75 2.128906 14.75 2.261719 L 14.75 2.5 C 14.757812 2.371094 14.859375 2.269531 14.988281 2.261719 C 14.992188 2.261719 14.996094 2.261719 15 2.261719 C 15.132812 2.261719 15.242188 2.367188 15.25 2.5 L 15.25 2.261719 C 15.25 2.125 15.136719 2.011719 15 2.011719 C 14.996094 2.011719 14.992188 2.011719 14.988281 2.011719 Z M 14.988281 2.011719 "/>
<path style=" stroke:none;fill-rule:nonzero;fill:rgb(0.392157%,0.392157%,0.392157%);fill-opacity:0.4;" d="M 14.75 5.5 L 14.75 5.738281 C 14.75 5.871094 14.855469 5.980469 14.988281 5.988281 C 14.992188 5.988281 14.996094 5.988281 15 5.988281 C 15.136719 5.988281 15.25 5.875 15.25 5.738281 L 15.25 5.5 C 15.242188 5.632812 15.132812 5.738281 15 5.738281 C 14.996094 5.738281 14.992188 5.738281 14.988281 5.738281 C 14.859375 5.730469 14.757812 5.628906 14.75 5.5 Z M 14.75 5.5 "/>
<path style=" stroke:none;fill-rule:nonzero;fill:rgb(0.392157%,0.392157%,0.392157%);fill-opacity:0.4;" d="M 17 4.738281 C 17.414062 4.738281 17.75 5.074219 17.75 5.488281 C 17.75 5.902344 17.414062 6.238281 17 6.238281 C 16.585938 6.238281 16.25 5.902344 16.25 5.488281 C 16.25 5.074219 16.585938 4.738281 17 4.738281 Z M 17 4.738281 "/>
<path style=" stroke:none;fill-rule:nonzero;fill:rgb(0.392157%,0.392157%,0.392157%);fill-opacity:0.4;" d="M 16.980469 4.738281 C 16.574219 4.746094 16.25 5.078125 16.25 5.488281 C 16.25 5.53125 16.253906 5.570312 16.261719 5.613281 C 16.320312 5.257812 16.628906 4.988281 17 4.988281 C 17.371094 4.988281 17.679688 5.257812 17.738281 5.613281 C 17.746094 5.570312 17.75 5.53125 17.75 5.488281 C 17.75 5.070312 17.414062 4.738281 17 4.738281 C 16.992188 4.738281 16.988281 4.738281 16.980469 4.738281 Z M 16.980469 4.738281 "/>
<path style=" stroke:none;fill-rule:nonzero;fill:rgb(100%,100%,100%);fill-opacity:0.4;" d="M 16.980469 6.488281 C 16.574219 6.476562 16.25 6.144531 16.25 5.738281 C 16.25 5.695312 16.253906 5.652344 16.261719 5.613281 C 16.320312 5.96875 16.628906 6.238281 17 6.238281 C 17.371094 6.238281 17.679688 5.96875 17.738281 5.613281 C 17.746094 5.652344 17.75 5.695312 17.75 5.738281 C 17.75 6.152344 17.414062 6.488281 17 6.488281 C 16.992188 6.488281 16.988281 6.488281 16.980469 6.488281 Z M 16.980469 6.488281 "/>
<path style=" stroke:none;fill-rule:nonzero;fill:rgb(74.117649%,74.117649%,74.117649%);fill-opacity:0.996078;" d="M 17 2.011719 C 17.136719 2.011719 17.25 2.125 17.25 2.261719 L 17.25 5.5 C 17.25 5.636719 17.136719 5.75 17 5.75 C 16.863281 5.75 16.75 5.636719 16.75 5.5 L 16.75 2.261719 C 16.75 2.125 16.863281 2.011719 17 2.011719 Z M 17 2.011719 "/>
<path style=" stroke:none;fill-rule:nonzero;fill:rgb(100%,100%,100%);fill-opacity:0.4;" d="M 16.988281 2.011719 C 16.855469 2.019531 16.75 2.128906 16.75 2.261719 L 16.75 2.5 C 16.757812 2.371094 16.859375 2.269531 16.988281 2.261719 C 16.992188 2.261719 16.996094 2.261719 17 2.261719 C 17.132812 2.261719 17.242188 2.367188 17.25 2.5 L 17.25 2.261719 C 17.25 2.125 17.136719 2.011719 17 2.011719 C 16.996094 2.011719 16.992188 2.011719 16.988281 2.011719 Z M 16.988281 2.011719 "/>
<path style=" stroke:none;fill-rule:nonzero;fill:rgb(0.392157%,0.392157%,0.392157%);fill-opacity:0.4;" d="M 16.75 5.5 L 16.75 5.738281 C 16.75 5.871094 16.855469 5.980469 16.988281 5.988281 C 16.992188 5.988281 16.996094 5.988281 17 5.988281 C 17.136719 5.988281 17.25 5.875 17.25 5.738281 L 17.25 5.5 C 17.242188 5.632812 17.132812 5.738281 17 5.738281 C 16.996094 5.738281 16.992188 5.738281 16.988281 5.738281 C 16.859375 5.730469 16.757812 5.628906 16.75 5.5 Z M 16.75 5.5 "/>
<path style=" stroke:none;fill-rule:nonzero;fill:rgb(0.392157%,0.392157%,0.392157%);fill-opacity:0.4;" d="M 19 4.738281 C 19.414062 4.738281 19.75 5.074219 19.75 5.488281 C 19.75 5.902344 19.414062 6.238281 19 6.238281 C 18.585938 6.238281 18.25 5.902344 18.25 5.488281 C 18.25 5.074219 18.585938 4.738281 19 4.738281 Z M 19 4.738281 "/>
<path style=" stroke:none;fill-rule:nonzero;fill:rgb(0.392157%,0.392157%,0.392157%);fill-opacity:0.4;" d="M 18.980469 4.738281 C 18.574219 4.746094 18.25 5.078125 18.25 5.488281 C 18.25 5.53125 18.253906 5.570312 18.261719 5.613281 C 18.320312 5.257812 18.628906 4.988281 19 4.988281 C 19.371094 4.988281 19.679688 5.257812 19.738281 5.613281 C 19.746094 5.570312 19.75 5.53125 19.75 5.488281 C 19.75 5.070312 19.414062 4.738281 19 4.738281 C 18.992188 4.738281 18.988281 4.738281 18.980469 4.738281 Z M 18.980469 4.738281 "/>
<path style=" stroke:none;fill-rule:nonzero;fill:rgb(100%,100%,100%);fill-opacity:0.4;" d="M 18.980469 6.488281 C 18.574219 6.476562 18.25 6.144531 18.25 5.738281 C 18.25 5.695312 18.253906 5.652344 18.261719 5.613281 C 18.320312 5.96875 18.628906 6.238281 19 6.238281 C 19.371094 6.238281 19.679688 5.96875 19.738281 5.613281 C 19.746094 5.652344 19.75 5.695312 19.75 5.738281 C 19.75 6.152344 19.414062 6.488281 19 6.488281 C 18.992188 6.488281 18.988281 6.488281 18.980469 6.488281 Z M 18.980469 6.488281 "/>
<path style=" stroke:none;fill-rule:nonzero;fill:rgb(74.117649%,74.117649%,74.117649%);fill-opacity:0.996078;" d="M 19 2.011719 C 19.136719 2.011719 19.25 2.125 19.25 2.261719 L 19.25 5.5 C 19.25 5.636719 19.136719 5.75 19 5.75 C 18.863281 5.75 18.75 5.636719 18.75 5.5 L 18.75 2.261719 C 18.75 2.125 18.863281 2.011719 19 2.011719 Z M 19 2.011719 "/>
<path style=" stroke:none;fill-rule:nonzero;fill:rgb(100%,100%,100%);fill-opacity:0.4;" d="M 18.988281 2.011719 C 18.855469 2.019531 18.75 2.128906 18.75 2.261719 L 18.75 2.5 C 18.757812 2.371094 18.859375 2.269531 18.988281 2.261719 C 18.992188 2.261719 18.996094 2.261719 19 2.261719 C 19.132812 2.261719 19.242188 2.367188 19.25 2.5 L 19.25 2.261719 C 19.25 2.125 19.136719 2.011719 19 2.011719 C 18.996094 2.011719 18.992188 2.011719 18.988281 2.011719 Z M 18.988281 2.011719 "/>
<path style=" stroke:none;fill-rule:nonzero;fill:rgb(0.392157%,0.392157%,0.392157%);fill-opacity:0.4;" d="M 18.75 5.5 L 18.75 5.738281 C 18.75 5.871094 18.855469 5.980469 18.988281 5.988281 C 18.992188 5.988281 18.996094 5.988281 19 5.988281 C 19.136719 5.988281 19.25 5.875 19.25 5.738281 L 19.25 5.5 C 19.242188 5.632812 19.132812 5.738281 19 5.738281 C 18.996094 5.738281 18.992188 5.738281 18.988281 5.738281 C 18.859375 5.730469 18.757812 5.628906 18.75 5.5 Z M 18.75 5.5 "/>
<path style=" stroke:none;fill-rule:nonzero;fill:rgb(0.392157%,0.392157%,0.392157%);fill-opacity:0.4;" d="M 21 4.738281 C 21.414062 4.738281 21.75 5.074219 21.75 5.488281 C 21.75 5.902344 21.414062 6.238281 21 6.238281 C 20.585938 6.238281 20.25 5.902344 20.25 5.488281 C 20.25 5.074219 20.585938 4.738281 21 4.738281 Z M 21 4.738281 "/>
<path style=" stroke:none;fill-rule:nonzero;fill:rgb(0.392157%,0.392157%,0.392157%);fill-opacity:0.4;" d="M 20.980469 4.738281 C 20.574219 4.746094 20.25 5.078125 20.25 5.488281 C 20.25 5.53125 20.253906 5.570312 20.261719 5.613281 C 20.320312 5.257812 20.628906 4.988281 21 4.988281 C 21.371094 4.988281 21.679688 5.257812 21.738281 5.613281 C 21.746094 5.570312 21.75 5.53125 21.75 5.488281 C 21.75 5.070312 21.414062 4.738281 21 4.738281 C 20.992188 4.738281 20.988281 4.738281 20.980469 4.738281 Z M 20.980469 4.738281 "/>
<path style=" stroke:none;fill-rule:nonzero;fill:rgb(100%,100%,100%);fill-opacity:0.4;" d="M 20.980469 6.488281 C 20.574219 6.476562 20.25 6.144531 20.25 5.738281 C 20.25 5.695312 20.253906 5.652344 20.261719 5.613281 C 20.320312 5.96875 20.628906 6.238281 21 6.238281 C 21.371094 6.238281 21.679688 5.96875 21.738281 5.613281 C 21.746094 5.652344 21.75 5.695312 21.75 5.738281 C 21.75 6.152344 21.414062 6.488281 21 6.488281 C 20.992188 6.488281 20.988281 6.488281 20.980469 6.488281 Z M 20.980469 6.488281 "/>
<path style=" stroke:none;fill-rule:nonzero;fill:rgb(74.117649%,74.117649%,74.117649%);fill-opacity:0.996078;" d="M 21 2.011719 C 21.136719 2.011719 21.25 2.125 21.25 2.261719 L 21.25 5.5 C 21.25 5.636719 21.136719 5.75 21 5.75 C 20.863281 5.75 20.75 5.636719 20.75 5.5 L 20.75 2.261719 C 20.75 2.125 20.863281 2.011719 21 2.011719 Z M 21 2.011719 "/>
<path style=" stroke:none;fill-rule:nonzero;fill:rgb(100%,100%,100%);fill-opacity:0.4;" d="M 20.988281 2.011719 C 20.855469 2.019531 20.75 2.128906 20.75 2.261719 L 20.75 2.5 C 20.757812 2.371094 20.859375 2.269531 20.988281 2.261719 C 20.992188 2.261719 20.996094 2.261719 21 2.261719 C 21.132812 2.261719 21.242188 2.367188 21.25 2.5 L 21.25 2.261719 C 21.25 2.125 21.136719 2.011719 21 2.011719 C 20.996094 2.011719 20.992188 2.011719 20.988281 2.011719 Z M 20.988281 2.011719 "/>
<path style=" stroke:none;fill-rule:nonzero;fill:rgb(0.392157%,0.392157%,0.392157%);fill-opacity:0.4;" d="M 20.75 5.5 L 20.75 5.738281 C 20.75 5.871094 20.855469 5.980469 20.988281 5.988281 C 20.992188 5.988281 20.996094 5.988281 21 5.988281 C 21.136719 5.988281 21.25 5.875 21.25 5.738281 L 21.25 5.5 C 21.242188 5.632812 21.132812 5.738281 21 5.738281 C 20.996094 5.738281 20.992188 5.738281 20.988281 5.738281 C 20.859375 5.730469 20.757812 5.628906 20.75 5.5 Z M 20.75 5.5 "/>
<path style=" stroke:none;fill-rule:nonzero;fill:rgb(0.392157%,0.392157%,0.392157%);fill-opacity:0.4;" d="M 23 4.738281 C 23.414062 4.738281 23.75 5.074219 23.75 5.488281 C 23.75 5.902344 23.414062 6.238281 23 6.238281 C 22.585938 6.238281 22.25 5.902344 22.25 5.488281 C 22.25 5.074219 22.585938 4.738281 23 4.738281 Z M 23 4.738281 "/>
<path style=" stroke:none;fill-rule:nonzero;fill:rgb(0.392157%,0.392157%,0.392157%);fill-opacity:0.4;" d="M 22.980469 4.738281 C 22.574219 4.746094 22.25 5.078125 22.25 5.488281 C 22.25 5.53125 22.253906 5.570312 22.261719 5.613281 C 22.320312 5.257812 22.628906 4.988281 23 4.988281 C 23.371094 4.988281 23.679688 5.257812 23.738281 5.613281 C 23.746094 5.570312 23.75 5.53125 23.75 5.488281 C 23.75 5.070312 23.414062 4.738281 23 4.738281 C 22.992188 4.738281 22.988281 4.738281 22.980469 4.738281 Z M 22.980469 4.738281 "/>
<path style=" stroke:none;fill-rule:nonzero;fill:rgb(100%,100%,100%);fill-opacity:0.4;" d="M 22.980469 6.488281 C 22.574219 6.476562 22.25 6.144531 22.25 5.738281 C 22.25 5.695312 22.253906 5.652344 22.261719 5.613281 C 22.320312 5.96875 22.628906 6.238281 23 6.238281 C 23.371094 6.238281 23.679688 5.96875 23.738281 5.613281 C 23.746094 5.652344 23.75 5.695312 23.75 5.738281 C 23.75 6.152344 23.414062 6.488281 23 6.488281 C 22.992188 6.488281 22.988281 6.488281 22.980469 6.488281 Z M 22.980469 6.488281 "/>
<path style=" stroke:none;fill-rule:nonzero;fill:rgb(74.117649%,74.117649%,74.117649%);fill-opacity:0.996078;" d="M 23 2.011719 C 23.136719 2.011719 23.25 2.125 23.25 2.261719 L 23.25 5.5 C 23.25 5.636719 23.136719 5.75 23 5.75 C 22.863281 5.75 22.75 5.636719 22.75 5.5 L 22.75 2.261719 C 22.75 2.125 22.863281 2.011719 23 2.011719 Z M 23 2.011719 "/>
<path style=" stroke:none;fill-rule:nonzero;fill:rgb(100%,100%,100%);fill-opacity:0.4;" d="M 22.988281 2.011719 C 22.855469 2.019531 22.75 2.128906 22.75 2.261719 L 22.75 2.5 C 22.757812 2.371094 22.859375 2.269531 22.988281 2.261719 C 22.992188 2.261719 22.996094 2.261719 23 2.261719 C 23.132812 2.261719 23.242188 2.367188 23.25 2.5 L 23.25 2.261719 C 23.25 2.125 23.136719 2.011719 23 2.011719 C 22.996094 2.011719 22.992188 2.011719 22.988281 2.011719 Z M 22.988281 2.011719 "/>
<path style=" stroke:none;fill-rule:nonzero;fill:rgb(0.392157%,0.392157%,0.392157%);fill-opacity:0.4;" d="M 22.75 5.5 L 22.75 5.738281 C 22.75 5.871094 22.855469 5.980469 22.988281 5.988281 C 22.992188 5.988281 22.996094 5.988281 23 5.988281 C 23.136719 5.988281 23.25 5.875 23.25 5.738281 L 23.25 5.5 C 23.242188 5.632812 23.132812 5.738281 23 5.738281 C 22.996094 5.738281 22.992188 5.738281 22.988281 5.738281 C 22.859375 5.730469 22.757812 5.628906 22.75 5.5 Z M 22.75 5.5 "/>
<path style=" stroke:none;fill-rule:nonzero;fill:rgb(100%,95.294118%,87.843138%);fill-opacity:1;" d="M 6 8 L 26 8 L 25 9 L 24.25 8.25 L 23.75 8.75 L 23.25 8.25 L 22.5 9 L 21.75 8.25 L 21.25 8.75 L 20.75 8.25 L 20 9 L 19.25 8.25 L 18.75 8.75 L 18.25 8.25 L 17.75 9 L 17.25 8.25 L 16.75 8.75 L 16.5 8.25 L 16 8.75 L 15.5 8.25 L 14.75 9 L 14 8.25 L 13.5 8.75 L 13 8.25 L 12.5 8.75 L 12 8.25 L 11.5 9 L 11 8.25 L 10.5 8.75 L 10 8.25 L 9.5 9 L 9 8.25 L 8.75 8.75 L 8.25 8.25 L 7.75 8.75 L 7.25 8.25 L 6.75 9 Z M 6 8 "/>
<path style=" stroke:none;fill-rule:nonzero;fill:rgb(0%,0%,0%);fill-opacity:0.4;" d="M 6 8 L 26 8 L 25 9.25 L 24.25 8.5 L 23.75 9 L 23.25 8.5 L 22.5 9.25 L 21.75 8.5 L 21.25 9 L 20.75 8.5 L 20 9.25 L 19.25 8.5 L 18.75 9 L 18.25 8.5 L 17.75 9.25 L 17.25 8.5 L 16.75 9 L 16.5 8.5 L 16 9 L 15.5 8.5 L 14.75 9.25 L 14 8.5 L 13.5 9 L 13 8.5 L 12.5 9 L 12 8.5 L 11.5 9.25 L 11 8.5 L 10.5 9 L 10 8.5 L 9.5 9.25 L 9 8.5 L 8.75 9 L 8.25 8.5 L 7.75 9 L 7.25 8.5 L 6.75 9.25 Z M 6 8 "/>
<path style=" stroke:none;fill-rule:nonzero;fill:rgb(98.039216%,98.039216%,98.039216%);fill-opacity:1;" d="M 6 8 L 26 8 L 25 9 L 24.25 8.25 L 23.75 8.75 L 23.25 8.25 L 22.5 9 L 21.75 8.25 L 21.25 8.75 L 20.75 8.25 L 20 9 L 19.25 8.25 L 18.75 8.75 L 18.25 8.25 L 17.75 9 L 17.25 8.25 L 16.75 8.75 L 16.5 8.25 L 16 8.75 L 15.5 8.25 L 14.75 9 L 14 8.25 L 13.5 8.75 L 13 8.25 L 12.5 8.75 L 12 8.25 L 11.5 9 L 11 8.25 L 10.5 8.75 L 10 8.25 L 9.5 9 L 9 8.25 L 8.75 8.75 L 8.25 8.25 L 7.75 8.75 L 7.25 8.25 L 6.75 9 Z M 6 8 "/>
<path style=" stroke:none;fill-rule:nonzero;fill:rgb(74.117649%,74.117649%,74.117649%);fill-opacity:0.996078;" d="M 9 11 C 9.550781 11 10 11.449219 10 12 C 10 12.550781 9.550781 13 9 13 C 8.449219 13 8 12.550781 8 12 C 8 11.449219 8.449219 11 9 11 Z M 9 11 "/>
<path style=" stroke:none;fill-rule:nonzero;fill:rgb(92.54902%,25.098041%,47.843137%);fill-opacity:0.996078;" d="M 9 15 C 9.550781 15 10 15.449219 10 16 C 10 16.550781 9.550781 17 9 17 C 8.449219 17 8 16.550781 8 16 C 8 15.449219 8.449219 15 9 15 Z M 9 15 "/>
<path style=" stroke:none;fill-rule:nonzero;fill:rgb(92.54902%,25.098041%,47.843137%);fill-opacity:0.996078;" d="M 9 19 C 9.550781 19 10 19.449219 10 20 C 10 20.550781 9.550781 21 9 21 C 8.449219 21 8 20.550781 8 20 C 8 19.449219 8.449219 19 9 19 Z M 9 19 "/>
<path style=" stroke:none;fill-rule:nonzero;fill:rgb(92.54902%,25.098041%,47.843137%);fill-opacity:0.996078;" d="M 9 23 C 9.550781 23 10 23.449219 10 24 C 10 24.550781 9.550781 25 9 25 C 8.449219 25 8 24.550781 8 24 C 8 23.449219 8.449219 23 9 23 Z M 9 23 "/>
<path style=" stroke:none;fill-rule:nonzero;fill:rgb(92.54902%,25.098041%,47.843137%);fill-opacity:0.996078;" d="M 11.5 11.5 L 23.5 11.5 C 23.777344 11.5 24 11.722656 24 12 C 24 12.277344 23.777344 12.5 23.5 12.5 L 11.5 12.5 C 11.222656 12.5 11 12.277344 11 12 C 11 11.722656 11.222656 11.5 11.5 11.5 Z M 11.5 11.5 "/>
<path style=" stroke:none;fill-rule:nonzero;fill:rgb(100%,100%,100%);fill-opacity:0.4;" d="M 11.5 11.5 C 11.222656 11.5 11 11.722656 11 12 C 11 12.046875 11.007812 12.089844 11.015625 12.128906 C 11.074219 11.917969 11.269531 11.757812 11.5 11.757812 L 23.5 11.757812 C 23.730469 11.757812 23.925781 11.917969 23.984375 12.128906 C 23.992188 12.089844 24 12.046875 24 12 C 24 11.722656 23.777344 11.5 23.5 11.5 Z M 11.5 11.5 "/>
<path style=" stroke:none;fill-rule:nonzero;fill:rgb(0%,0%,0%);fill-opacity:0.4;" d="M 11.5 12.757812 C 11.222656 12.757812 11 12.535156 11 12.257812 C 11 12.214844 11.007812 12.167969 11.015625 12.128906 C 11.074219 12.339844 11.269531 12.5 11.5 12.5 L 23.5 12.5 C 23.730469 12.5 23.925781 12.339844 23.980469 12.128906 C 23.992188 12.167969 24 12.214844 24 12.257812 C 24 12.535156 23.777344 12.757812 23.5 12.757812 Z M 11.5 12.757812 "/>
<path style=" stroke:none;fill-rule:nonzero;fill:rgb(100%,100%,100%);fill-opacity:0.4;" d="M 8.007812 12.125 C 8.003906 12.164062 8 12.207031 8 12.25 C 8 12.804688 8.445312 13.25 9 13.25 C 9.554688 13.25 10 12.804688 10 12.25 C 10 12.207031 9.996094 12.164062 9.992188 12.125 C 9.929688 12.621094 9.511719 13 9 13 C 8.488281 13 8.070312 12.621094 8.007812 12.125 Z M 8.007812 12.125 "/>
<path style=" stroke:none;fill-rule:nonzero;fill:rgb(100%,100%,100%);fill-opacity:0.4;" d="M 8.007812 12.125 C 8.003906 12.164062 8 12.207031 8 12.25 C 8 12.804688 8.445312 13.25 9 13.25 C 9.554688 13.25 10 12.804688 10 12.25 C 10 12.207031 9.996094 12.164062 9.992188 12.125 C 9.929688 12.621094 9.511719 13 9 13 C 8.488281 13 8.070312 12.621094 8.007812 12.125 Z M 8.007812 12.125 "/>
<path style=" stroke:none;fill-rule:nonzero;fill:rgb(0.392157%,0.392157%,0.392157%);fill-opacity:0.4;" d="M 8.007812 12.128906 C 8.003906 12.085938 8 12.042969 8 12.003906 C 8 11.449219 8.445312 11.003906 9 11.003906 C 9.554688 11.003906 10 11.449219 10 12.003906 C 10 12.042969 9.996094 12.085938 9.992188 12.128906 C 9.929688 11.632812 9.511719 11.253906 9 11.253906 C 8.488281 11.253906 8.070312 11.632812 8.007812 12.128906 Z M 8.007812 12.128906 "/>
<path style=" stroke:none;fill-rule:nonzero;fill:rgb(100%,100%,100%);fill-opacity:0.4;" d="M 8.007812 16.125 C 8.003906 16.085938 8 16.042969 8 16 C 8 15.449219 8.445312 15 9 15 C 9.554688 15 10 15.449219 10 16 C 10 16.042969 9.996094 16.085938 9.992188 16.125 C 9.929688 15.632812 9.511719 15.25 9 15.25 C 8.488281 15.25 8.070312 15.632812 8.007812 16.125 Z M 8.007812 16.125 "/>
<path style=" stroke:none;fill-rule:nonzero;fill:rgb(0.392157%,0.392157%,0.392157%);fill-opacity:0.4;" d="M 8.007812 16.125 C 8.003906 16.164062 8 16.207031 8 16.25 C 8 16.804688 8.445312 17.25 9 17.25 C 9.554688 17.25 10 16.804688 10 16.25 C 10 16.207031 9.996094 16.164062 9.992188 16.125 C 9.929688 16.617188 9.511719 17 9 17 C 8.488281 17 8.070312 16.617188 8.007812 16.125 Z M 8.007812 16.125 "/>
<path style=" stroke:none;fill-rule:nonzero;fill:rgb(38.039216%,38.039216%,38.039216%);fill-opacity:0.996078;" d="M 11.5 15.371094 L 23.5 15.371094 C 23.777344 15.371094 24 15.597656 24 15.871094 C 24 16.148438 23.777344 16.371094 23.5 16.371094 L 11.5 16.371094 C 11.222656 16.371094 11 16.148438 11 15.871094 C 11 15.597656 11.222656 15.371094 11.5 15.371094 Z M 11.5 15.371094 "/>
<path style=" stroke:none;fill-rule:nonzero;fill:rgb(100%,100%,100%);fill-opacity:0.4;" d="M 11.5 15.371094 C 11.222656 15.371094 11 15.59375 11 15.871094 C 11 15.917969 11.007812 15.960938 11.015625 16 C 11.074219 15.789062 11.269531 15.632812 11.5 15.632812 L 23.5 15.632812 C 23.730469 15.632812 23.925781 15.789062 23.980469 16 C 23.992188 15.960938 24 15.917969 24 15.871094 C 24 15.59375 23.777344 15.371094 23.5 15.371094 Z M 11.5 15.371094 "/>
<path style=" stroke:none;fill-rule:nonzero;fill:rgb(0%,0%,0%);fill-opacity:0.4;" d="M 11.5 16.628906 C 11.222656 16.628906 11 16.40625 11 16.128906 C 11 16.085938 11.007812 16.042969 11.015625 16 C 11.074219 16.214844 11.269531 16.371094 11.5 16.371094 L 23.5 16.371094 C 23.730469 16.371094 23.925781 16.214844 23.980469 16 C 23.992188 16.042969 24 16.085938 24 16.128906 C 24 16.40625 23.777344 16.628906 23.5 16.628906 Z M 11.5 16.628906 "/>
<path style=" stroke:none;fill-rule:nonzero;fill:rgb(38.039216%,38.039216%,38.039216%);fill-opacity:0.996078;" d="M 11.5 19.242188 L 23.5 19.242188 C 23.777344 19.242188 24 19.464844 24 19.742188 C 24 20.019531 23.777344 20.242188 23.5 20.242188 L 11.5 20.242188 C 11.222656 20.242188 11 20.019531 11 19.742188 C 11 19.464844 11.222656 19.242188 11.5 19.242188 Z M 11.5 19.242188 "/>
<path style=" stroke:none;fill-rule:nonzero;fill:rgb(100%,100%,100%);fill-opacity:0.4;" d="M 11.5 19.242188 C 11.222656 19.242188 11 19.464844 11 19.742188 C 11 19.789062 11.007812 19.832031 11.015625 19.871094 C 11.074219 19.660156 11.269531 19.5 11.5 19.5 L 23.5 19.5 C 23.730469 19.5 23.925781 19.660156 23.980469 19.871094 C 23.992188 19.832031 24 19.789062 24 19.742188 C 24 19.464844 23.777344 19.242188 23.5 19.242188 Z M 11.5 19.242188 "/>
<path style=" stroke:none;fill-rule:nonzero;fill:rgb(0%,0%,0%);fill-opacity:0.4;" d="M 11.5 20.5 C 11.222656 20.5 11 20.277344 11 20 C 11 19.953125 11.007812 19.910156 11.015625 19.871094 C 11.074219 20.082031 11.269531 20.242188 11.5 20.242188 L 23.5 20.242188 C 23.730469 20.242188 23.925781 20.082031 23.980469 19.871094 C 23.992188 19.910156 24 19.953125 24 20 C 24 20.277344 23.777344 20.5 23.5 20.5 Z M 11.5 20.5 "/>
<path style=" stroke:none;fill-rule:nonzero;fill:rgb(38.039216%,38.039216%,38.039216%);fill-opacity:0.996078;" d="M 11.5 23.25 L 23.5 23.25 C 23.777344 23.25 24 23.472656 24 23.75 C 24 24.027344 23.777344 24.25 23.5 24.25 L 11.5 24.25 C 11.222656 24.25 11 24.027344 11 23.75 C 11 23.472656 11.222656 23.25 11.5 23.25 Z M 11.5 23.25 "/>
<path style=" stroke:none;fill-rule:nonzero;fill:rgb(100%,100%,100%);fill-opacity:0.4;" d="M 11.5 23.25 C 11.222656 23.25 11 23.472656 11 23.75 C 11 23.796875 11.007812 23.839844 11.015625 23.878906 C 11.074219 23.667969 11.269531 23.507812 11.5 23.507812 L 23.5 23.507812 C 23.730469 23.507812 23.925781 23.667969 23.980469 23.878906 C 23.992188 23.839844 24 23.796875 24 23.75 C 24 23.472656 23.777344 23.25 23.5 23.25 Z M 11.5 23.25 "/>
<path style=" stroke:none;fill-rule:nonzero;fill:rgb(0%,0%,0%);fill-opacity:0.4;" d="M 11.5 24.507812 C 11.222656 24.507812 11 24.285156 11 24.007812 C 11 23.964844 11.007812 23.917969 11.015625 23.878906 C 11.074219 24.089844 11.269531 24.25 11.5 24.25 L 23.5 24.25 C 23.730469 24.25 23.925781 24.089844 23.980469 23.878906 C 23.992188 23.917969 24 23.964844 24 24.007812 C 24 24.285156 23.777344 24.507812 23.5 24.507812 Z M 11.5 24.507812 "/>
<path style=" stroke:none;fill-rule:nonzero;fill:rgb(100%,100%,100%);fill-opacity:0.4;" d="M 8.007812 20.121094 C 8.003906 20.082031 8 20.039062 8 20 C 8 19.445312 8.445312 19 9 19 C 9.554688 19 10 19.445312 10 20 C 10 20.039062 9.996094 20.082031 9.992188 20.121094 C 9.929688 19.628906 9.511719 19.246094 9 19.246094 C 8.488281 19.246094 8.070312 19.628906 8.007812 20.121094 Z M 8.007812 20.121094 "/>
<path style=" stroke:none;fill-rule:nonzero;fill:rgb(0.392157%,0.392157%,0.392157%);fill-opacity:0.4;" d="M 8.007812 20.121094 C 8.003906 20.160156 8 20.203125 8 20.246094 C 8 20.800781 8.445312 21.246094 9 21.246094 C 9.554688 21.246094 10 20.800781 10 20.246094 C 10 20.203125 9.996094 20.160156 9.992188 20.121094 C 9.929688 20.617188 9.511719 20.996094 9 20.996094 C 8.488281 20.996094 8.070312 20.617188 8.007812 20.121094 Z M 8.007812 20.121094 "/>
<path style=" stroke:none;fill-rule:nonzero;fill:rgb(100%,100%,100%);fill-opacity:0.4;" d="M 8.007812 24.125 C 8.003906 24.082031 8 24.042969 8 24 C 8 23.445312 8.445312 23 9 23 C 9.554688 23 10 23.445312 10 24 C 10 24.042969 9.996094 24.082031 9.992188 24.125 C 9.929688 23.628906 9.511719 23.25 9 23.25 C 8.488281 23.25 8.070312 23.628906 8.007812 24.125 Z M 8.007812 24.125 "/>
<path style=" stroke:none;fill-rule:nonzero;fill:rgb(0.392157%,0.392157%,0.392157%);fill-opacity:0.4;" d="M 8.007812 24.121094 C 8.003906 24.164062 8 24.203125 8 24.246094 C 8 24.800781 8.445312 25.246094 9 25.246094 C 9.554688 25.246094 10 24.800781 10 24.246094 C 10 24.203125 9.996094 24.164062 9.992188 24.121094 C 9.929688 24.617188 9.511719 24.996094 9 24.996094 C 8.488281 24.996094 8.070312 24.617188 8.007812 24.121094 Z M 8.007812 24.121094 "/>
<path style="fill:none;stroke-width:0.265;stroke-linecap:round;stroke-linejoin:round;stroke:rgb(95.686275%,26.274511%,21.176471%);stroke-opacity:1;stroke-miterlimit:4;" d="M 4.101041 -209.311459 C 4.365625 -209.179167 4.630208 -208.782292 4.7625 -208.517709 C 5.027083 -209.179167 5.423958 -209.576042 5.953125 -209.708334 " transform="matrix(1.889764,0,0,1.889764,0,406.299234)"/>
<path style=" stroke:none;fill-rule:nonzero;fill:url(#linear0);" d="M 7 3 L 25 3 C 26.105469 3 27 3.894531 27 5 L 27 28 C 27 29.105469 26.105469 30 25 30 L 7 30 C 5.894531 30 5 29.105469 5 28 L 5 5 C 5 3.894531 5.894531 3 7 3 Z M 7 3 "/>
</g>
</svg>
