
<svg xmlns="http://www.w3.org/2000/svg" xmlns:xlink="http://www.w3.org/1999/xlink" width="32" height="32" viewBox="0 0 32 32" version="1.1">
<defs>
<linearGradient id="linear0" gradientUnits="userSpaceOnUse" x1="31.999998" y1="60" x2="31.999998" y2="4" gradientTransform="matrix(0.5,0,0,0.5,-0.000000377953,0)">
<stop offset="0" style="stop-color:rgb(0%,0%,0%);stop-opacity:0.2;"/>
<stop offset="1" style="stop-color:rgb(100%,100%,100%);stop-opacity:0;"/>
</linearGradient>
</defs>
<g id="surface1">
<path style=" stroke:none;fill-rule:nonzero;fill:rgb(25.882354%,64.705884%,96.078432%);fill-opacity:1;" d="M 20 2 L 6.5 2 C 5.667969 2 5 2.667969 5 3.5 L 5 28.5 C 5 29.332031 5.667969 30 6.5 30 L 25.5 30 C 26.332031 30 27 29.332031 27 28.5 L 27 9 Z M 20 2 "/>
<path style=" stroke:none;fill-rule:nonzero;fill:rgb(0%,0%,0%);fill-opacity:0.4;" d="M 20 7.5 L 20 8 C 20 8.832031 20.667969 9.5 21.5 9.5 L 27 9.5 L 26.5 9 L 21.5 9 C 20.667969 9 20 8.332031 20 7.5 Z M 20 7.5 "/>
<path style=" stroke:none;fill-rule:nonzero;fill:rgb(39.215687%,70.980394%,96.470588%);fill-opacity:0.996078;" d="M 27 9 L 20 2 L 20 7.5 C 20 8.332031 20.667969 9 21.5 9 Z M 27 9 "/>
<path style=" stroke:none;fill-rule:nonzero;fill:rgb(100%,100%,100%);fill-opacity:0.4;" d="M 6.5 2 C 5.667969 2 5 2.667969 5 3.5 L 5 4 C 5 3.167969 5.667969 2.5 6.5 2.5 L 20 2.5 L 27 9.5 L 27 9 L 20 2 Z M 6.5 2 "/>
<path style=" stroke:none;fill-rule:nonzero;fill:rgb(0%,0%,0%);fill-opacity:0.2;" d="M 5 28.492188 L 5 29.25 C 5 30.082031 5.667969 30.75 6.5 30.75 L 25.5 30.75 C 26.332031 30.75 27 30.082031 27 29.25 L 27 28.492188 C 27 29.324219 26.332031 29.992188 25.5 29.992188 L 6.5 29.992188 C 5.667969 29.992188 5 29.324219 5 28.492188 Z M 5 28.492188 "/>
<path style=" stroke:none;fill-rule:nonzero;fill:rgb(0%,0%,0%);fill-opacity:0.4;" d="M 5 28.0625 L 5 28.5 C 5 29.332031 5.667969 30 6.5 30 L 25.5 30 C 26.332031 30 27 29.332031 27 28.5 L 27 28.0625 C 27 28.894531 26.332031 29.5625 25.5 29.5625 L 6.5 29.5625 C 5.667969 29.5625 5 28.894531 5 28.0625 Z M 5 28.0625 "/>
<path style=" stroke:none;fill-rule:nonzero;fill:rgb(93.333334%,93.333334%,93.333334%);fill-opacity:1;" d="M 12.5 12 C 11.390625 12 10.5 12.890625 10.5 14 L 10.5 19.488281 C 10.5 19.492188 10.5 19.496094 10.5 19.5 L 10.5 19.75 C 10.5 19.890625 10.613281 20 10.75 20 L 11.25 20 C 11.386719 20 11.5 19.890625 11.5 19.75 L 11.5 19.5 C 11.5 19.496094 11.5 19.492188 11.5 19.488281 L 11.5 18 L 14.5 18 L 14.5 19.75 C 14.5 19.890625 14.613281 20 14.75 20 L 15.25 20 C 15.386719 20 15.5 19.890625 15.5 19.75 L 15.5 19.5 C 15.5 19.496094 15.5 19.492188 15.5 19.488281 L 15.5 14 C 15.5 12.890625 14.609375 12 13.5 12 Z M 12.5 13 L 13.5 13 C 14.054688 13 14.5 13.445312 14.5 14 L 14.5 17 L 11.5 17 L 11.5 14 C 11.5 13.445312 11.945312 13 12.5 13 Z M 12.5 13 "/>
<path style=" stroke:none;fill-rule:nonzero;fill:rgb(93.333334%,93.333334%,93.333334%);fill-opacity:1;" d="M 18.5 17 C 17.390625 17 16.5 17.890625 16.5 19 L 16.5 20 C 16.5 21.109375 17.390625 22 18.5 22 L 21.25 22 C 21.386719 22 21.5 21.886719 21.5 21.75 L 21.5 17.25 C 21.5 17.113281 21.386719 17 21.25 17 Z M 18.5 18 L 20.5 18 L 20.5 21 L 18.5 21 C 17.945312 21 17.5 20.554688 17.5 20 L 17.5 19 C 17.5 18.445312 17.945312 18 18.5 18 Z M 18.5 18 "/>
<path style=" stroke:none;fill-rule:nonzero;fill:rgb(0.784314%,0.784314%,0.784314%);fill-opacity:0.4;" d="M 12.5 13 C 11.945312 13 11.5 13.445312 11.5 14 L 11.5 14.5 C 11.5 13.945312 11.945312 13.5 12.5 13.5 L 13.5 13.5 C 14.054688 13.5 14.5 13.945312 14.5 14.5 L 14.5 14 C 14.5 13.445312 14.054688 13 13.5 13 Z M 11.5 18 L 11.5 18.5 L 14.5 18.5 L 14.5 18 Z M 18.5 18 C 17.945312 18 17.5 18.445312 17.5 19 L 17.5 19.5 C 17.5 18.945312 17.945312 18.5 18.5 18.5 L 20.5 18.5 L 20.5 18 Z M 10.5 19.75 L 10.5 20.25 C 10.5 20.386719 10.613281 20.5 10.75 20.5 L 11.25 20.5 C 11.386719 20.5 11.5 20.386719 11.5 20.25 L 11.5 19.75 C 11.5 19.886719 11.386719 20 11.25 20 L 10.75 20 C 10.613281 20 10.5 19.886719 10.5 19.75 Z M 14.5 19.75 L 14.5 20.25 C 14.5 20.386719 14.613281 20.5 14.75 20.5 L 15.25 20.5 C 15.386719 20.5 15.5 20.386719 15.5 20.25 L 15.5 19.75 C 15.5 19.886719 15.386719 20 15.25 20 L 14.75 20 C 14.613281 20 14.5 19.886719 14.5 19.75 Z M 16.5 20 L 16.5 20.5 C 16.5 21.605469 17.390625 22.5 18.5 22.5 L 21.25 22.5 C 21.386719 22.5 21.5 22.386719 21.5 22.25 L 21.5 21.75 C 21.5 21.886719 21.386719 22 21.25 22 L 18.5 22 C 17.390625 22 16.5 21.105469 16.5 20 Z M 16.5 20 "/>
<path style=" stroke:none;fill-rule:nonzero;fill:rgb(100%,100%,100%);fill-opacity:0.6;" d="M 12.5 12 C 11.390625 12 10.5 12.890625 10.5 14 L 10.5 14.5 C 10.5 13.390625 11.390625 12.5 12.5 12.5 L 13.5 12.5 C 14.609375 12.5 15.5 13.390625 15.5 14.5 L 15.5 14 C 15.5 12.890625 14.609375 12 13.5 12 Z M 11.5 17 L 11.5 17.5 L 14.5 17.5 L 14.5 17 Z M 18.5 17 C 17.390625 17 16.5 17.890625 16.5 19 L 16.5 19.5 C 16.5 18.390625 17.390625 17.5 18.5 17.5 L 21.25 17.5 C 21.386719 17.5 21.5 17.613281 21.5 17.75 L 21.5 17.25 C 21.5 17.113281 21.386719 17 21.25 17 Z M 17.5 20 L 17.5 20.25 C 17.5 20.285156 17.5 20.320312 17.503906 20.351562 C 17.507812 20.386719 17.515625 20.417969 17.519531 20.453125 C 17.527344 20.484375 17.535156 20.515625 17.546875 20.546875 C 17.554688 20.578125 17.566406 20.609375 17.578125 20.640625 C 17.589844 20.667969 17.605469 20.699219 17.621094 20.726562 C 17.636719 20.757812 17.652344 20.78125 17.671875 20.808594 C 17.652344 20.78125 17.636719 20.757812 17.621094 20.726562 C 17.605469 20.699219 17.589844 20.667969 17.578125 20.640625 C 17.566406 20.609375 17.554688 20.578125 17.546875 20.546875 C 17.535156 20.515625 17.527344 20.484375 17.519531 20.453125 C 17.515625 20.417969 17.507812 20.386719 17.503906 20.351562 C 17.5 20.320312 17.5 20.285156 17.5 20.25 L 17.5 20.5 C 17.5 21.054688 17.945312 21.5 18.5 21.5 L 20.5 21.5 L 20.5 21 L 18.5 21 C 17.945312 21 17.5 20.554688 17.5 20 Z M 17.726562 20.886719 C 17.746094 20.910156 17.769531 20.933594 17.792969 20.957031 C 17.816406 20.980469 17.839844 21.003906 17.863281 21.023438 C 17.839844 21.003906 17.816406 20.980469 17.792969 20.957031 C 17.769531 20.933594 17.746094 20.910156 17.726562 20.886719 Z M 17.941406 21.078125 C 17.96875 21.097656 17.992188 21.113281 18.023438 21.128906 C 18.050781 21.144531 18.082031 21.160156 18.109375 21.171875 C 18.140625 21.183594 18.171875 21.195312 18.203125 21.203125 C 18.234375 21.214844 18.265625 21.222656 18.296875 21.230469 C 18.332031 21.234375 18.363281 21.242188 18.398438 21.246094 C 18.429688 21.25 18.464844 21.25 18.5 21.25 C 18.464844 21.25 18.429688 21.25 18.398438 21.246094 C 18.363281 21.242188 18.332031 21.234375 18.296875 21.230469 C 18.265625 21.222656 18.234375 21.214844 18.203125 21.203125 C 18.171875 21.195312 18.140625 21.183594 18.109375 21.171875 C 18.082031 21.160156 18.050781 21.144531 18.023438 21.128906 C 17.992188 21.113281 17.96875 21.097656 17.941406 21.078125 Z M 17.941406 21.078125 "/>
<path style=" stroke:none;fill-rule:nonzero;fill:url(#linear0);" d="M 20 2 L 6.5 2 C 5.667969 2 5 2.667969 5 3.5 L 5 28.5 C 5 29.332031 5.667969 30 6.5 30 L 25.5 30 C 26.332031 30 27 29.332031 27 28.5 L 27 9 Z M 20 2 "/>
</g>
</svg>
