
<svg xmlns="http://www.w3.org/2000/svg" xmlns:xlink="http://www.w3.org/1999/xlink" width="48" height="48" viewBox="0 0 48 48" version="1.1">
<defs>
<linearGradient id="linear0" gradientUnits="userSpaceOnUse" x1="31.999998" y1="60" x2="31.999998" y2="4" gradientTransform="matrix(0.75,0,0,0.75,0,0.000000000000085265)">
<stop offset="0" style="stop-color:rgb(0%,0%,0%);stop-opacity:0.2;"/>
<stop offset="1" style="stop-color:rgb(100%,100%,100%);stop-opacity:0;"/>
</linearGradient>
</defs>
<g id="surface1">
<path style=" stroke:none;fill-rule:nonzero;fill:rgb(38.039216%,38.039216%,38.039216%);fill-opacity:1;" d="M 24 2.992188 C 12.363281 2.992188 2.996094 12.363281 2.996094 24 L 16.5 24 C 16.5 19.84375 19.84375 16.5 24 16.5 Z M 31.5 24 C 31.5 28.15625 28.15625 31.5 24 31.5 L 24 45.003906 C 35.636719 45.003906 45.003906 35.636719 45.003906 24 Z M 31.5 24 "/>
<path style=" stroke:none;fill-rule:nonzero;fill:rgb(0%,0%,0%);fill-opacity:0.4;" d="M 24 15.75 C 19.84375 15.75 16.5 19.09375 16.5 23.25 L 3.015625 23.25 C 3.007812 23.5 2.996094 23.746094 2.996094 24 L 16.5 24 C 16.5 19.84375 19.84375 16.5 24 16.5 Z M 44.988281 24 C 44.59375 35.285156 35.382812 44.253906 24 44.253906 L 24 45.003906 C 35.636719 45.003906 45.003906 35.636719 45.003906 24 Z M 44.988281 24 "/>
<path style=" stroke:none;fill-rule:nonzero;fill:rgb(100%,100%,100%);fill-opacity:0.4;" d="M 24 2.992188 C 12.363281 2.992188 2.996094 12.363281 2.996094 24 L 3.011719 24 C 3.40625 12.714844 12.617188 3.75 24 3.75 Z M 31.5 24 C 31.5 28.15625 28.15625 31.5 24 31.5 L 24 32.253906 C 28.15625 32.253906 31.5 28.910156 31.5 24.753906 L 44.984375 24.753906 C 44.992188 24.503906 45.003906 24.253906 45.003906 24 Z M 31.5 24 "/>
<path style=" stroke:none;fill-rule:nonzero;fill:rgb(47.058824%,56.470591%,61.176473%);fill-opacity:1;" d="M 24 7.5 C 14.859375 7.5 7.5 14.859375 7.5 24 C 7.5 33.140625 14.859375 40.496094 24 40.496094 C 33.140625 40.496094 40.496094 33.140625 40.5 24 L 31.5 24 C 31.5 28.15625 28.15625 31.5 24 31.5 C 19.84375 31.5 16.5 28.15625 16.5 24 C 16.5 19.84375 19.84375 16.5 24 16.5 Z M 24 7.5 "/>
<path style=" stroke:none;fill-rule:nonzero;fill:rgb(100%,100%,100%);fill-opacity:0.4;" d="M 24 7.5 C 14.859375 7.5 7.5 14.859375 7.5 24 C 7.5 24.09375 7.503906 24.1875 7.507812 24.28125 C 7.753906 15.359375 15.015625 8.25 24 8.25 Z M 31.5 24 C 31.5 28.15625 28.15625 31.5 24 31.5 C 19.945312 31.5 16.671875 28.3125 16.515625 24.300781 C 16.507812 24.449219 16.5 24.597656 16.5 24.75 C 16.5 28.90625 19.84375 32.25 24 32.25 C 28.15625 32.25 31.5 28.90625 31.5 24.75 L 40.480469 24.75 C 40.492188 24.5 40.5 24.25 40.5 24 Z M 31.5 24 "/>
<path style=" stroke:none;fill-rule:nonzero;fill:rgb(14.901961%,65.098041%,60.392159%);fill-opacity:1;" d="M 24 12 C 17.351562 12 12 17.351562 12 24 C 12 30.648438 17.351562 36 24 36 C 30.648438 36 36 30.648438 36 24 C 36 17.351562 30.648438 12 24 12 Z M 24 16.5 C 28.15625 16.5 31.5 19.84375 31.5 24 C 31.5 28.15625 28.15625 31.5 24 31.5 C 19.84375 31.5 16.5 28.15625 16.5 24 C 16.5 19.84375 19.84375 16.5 24 16.5 Z M 24 16.5 "/>
<path style=" stroke:none;fill-rule:nonzero;fill:rgb(100%,100%,100%);fill-opacity:0.4;" d="M 24 12 C 17.351562 12 12 17.351562 12 24 C 12 24.109375 12.003906 24.21875 12.007812 24.328125 C 12.230469 17.878906 17.492188 12.75 24 12.75 C 30.507812 12.75 35.769531 17.878906 35.992188 24.328125 C 35.996094 24.21875 36 24.109375 36 24 C 36 17.351562 30.648438 12 24 12 Z M 16.511719 24.375 C 16.503906 24.5 16.5 24.625 16.5 24.75 C 16.5 28.90625 19.84375 32.25 24 32.25 C 28.15625 32.25 31.5 28.90625 31.5 24.75 C 31.5 24.625 31.496094 24.5 31.488281 24.375 C 31.296875 28.351562 28.03125 31.5 24 31.5 C 19.96875 31.5 16.703125 28.351562 16.511719 24.375 Z M 16.511719 24.375 "/>
<path style=" stroke:none;fill-rule:nonzero;fill:rgb(0%,0%,0%);fill-opacity:0.4;" d="M 12.007812 24.425781 C 12.003906 24.535156 12 24.644531 12 24.753906 C 12 31.402344 17.351562 36.753906 24 36.753906 C 30.648438 36.753906 36 31.402344 36 24.753906 C 36 24.644531 35.992188 24.535156 35.992188 24.425781 C 35.769531 30.875 30.507812 36.003906 24 36.003906 C 17.492188 36.003906 12.230469 30.875 12.007812 24.425781 Z M 12.007812 24.425781 "/>
<path style=" stroke:none;fill-rule:nonzero;fill:rgb(0%,0%,0%);fill-opacity:0.4;" d="M 7.503906 24.375 C 7.503906 24.5 7.5 24.625 7.5 24.75 C 7.5 33.890625 14.859375 41.246094 24 41.246094 C 33.140625 41.246094 40.496094 33.890625 40.5 24.75 L 40.480469 24.75 C 40.089844 33.539062 32.886719 40.496094 24 40.496094 C 14.984375 40.496094 7.703125 33.339844 7.503906 24.375 Z M 7.503906 24.375 "/>
<path style=" stroke:none;fill-rule:nonzero;fill:rgb(0%,0%,0%);fill-opacity:0.2;" d="M 24 16.496094 C 20.105469 16.496094 16.921875 19.4375 16.539062 23.226562 C 16.511719 23.480469 16.5 23.738281 16.5 23.996094 C 16.5 24.183594 16.507812 24.371094 16.523438 24.554688 C 16.527344 24.488281 16.53125 24.417969 16.539062 24.351562 C 16.921875 20.5625 20.105469 17.621094 24 17.621094 C 27.964844 17.621094 31.191406 20.667969 31.476562 24.558594 C 31.492188 24.375 31.5 24.1875 31.5 23.996094 C 31.5 19.84375 28.15625 16.496094 24 16.496094 Z M 3.027344 23.996094 C 3.007812 24.367188 2.996094 24.742188 2.996094 25.121094 L 7.5 25.121094 C 7.5 34.261719 14.859375 41.621094 24 41.621094 L 24 40.496094 C 14.859375 40.496094 7.5 33.136719 7.5 23.996094 Z M 44.972656 25.121094 C 44.390625 36.230469 35.257812 45 24 45 L 24 46.125 C 35.636719 46.125 45.003906 36.757812 45.003906 25.121094 Z M 44.972656 25.121094 "/>
<path style=" stroke:none;fill-rule:nonzero;fill:url(#linear0);" d="M 24 2.992188 C 12.363281 2.992188 2.996094 12.363281 2.996094 24 L 7.5 24 C 7.5 33.140625 14.859375 40.496094 24 40.496094 L 24 45.003906 C 35.636719 45.003906 45.003906 35.636719 45.003906 24 L 36 24 C 36 17.351562 30.648438 12 24 12 Z M 24 16.5 C 28.15625 16.5 31.5 19.84375 31.5 24 C 31.5 28.15625 28.15625 31.5 24 31.5 C 19.84375 31.5 16.5 28.15625 16.5 24 C 16.5 23.742188 16.511719 23.484375 16.539062 23.230469 C 16.921875 19.441406 20.105469 16.5 24 16.5 Z M 24 16.5 "/>
</g>
</svg>
