
<svg xmlns="http://www.w3.org/2000/svg" xmlns:xlink="http://www.w3.org/1999/xlink" width="48" height="48" viewBox="0 0 48 48" version="1.1">
<defs>
<linearGradient id="linear0" gradientUnits="userSpaceOnUse" x1="31.999998" y1="60" x2="31.999998" y2="3.999999" gradientTransform="matrix(0.75,0,0,0.75,0,0.000000000000085265)">
<stop offset="0" style="stop-color:rgb(0%,0%,0%);stop-opacity:0.2;"/>
<stop offset="1" style="stop-color:rgb(100%,100%,100%);stop-opacity:0;"/>
</linearGradient>
</defs>
<g id="surface1">
<path style=" stroke:none;fill-rule:nonzero;fill:rgb(12.941177%,58.823532%,95.294118%);fill-opacity:1;" d="M 28.5 6 C 27.386719 6 26.417969 6.601562 25.898438 7.5 L 7.5 7.5 C 5.839844 7.5 4.5 8.839844 4.5 10.5 L 4.5 15 C 4.5 16.660156 5.839844 18 7.5 18 L 40.5 18 C 42.160156 18 43.5 16.660156 43.5 15 L 43.5 9 C 43.5 7.339844 42.160156 6 40.5 6 Z M 28.5 6 "/>
<path style=" stroke:none;fill-rule:nonzero;fill:rgb(100%,100%,100%);fill-opacity:0.4;" d="M 28.5 6 C 27.386719 6 26.417969 6.601562 25.898438 7.5 L 7.5 7.5 C 5.839844 7.5 4.5 8.839844 4.5 10.5 L 4.5 10.554688 C 4.660156 9.042969 5.929688 7.875 7.484375 7.875 L 25.882812 7.875 C 26.398438 6.976562 27.367188 6.375 28.480469 6.375 L 40.480469 6.375 C 42.144531 6.375 43.480469 7.714844 43.480469 9.375 L 43.480469 15.316406 C 43.492188 15.214844 43.5 15.109375 43.5 15 L 43.5 9 C 43.5 7.339844 42.160156 6 40.5 6 Z M 28.5 6 "/>
<path style=" stroke:none;fill-rule:nonzero;fill:rgb(25.882354%,64.705884%,96.078432%);fill-opacity:1;" d="M 6 9 C 4.339844 9 3 10.339844 3 12 L 3 39 C 3 40.660156 4.339844 42 6 42 L 42 42 C 43.660156 42 45 40.660156 45 39 L 45 15 C 45 13.339844 43.660156 12 42 12 L 28.539062 12 C 28.527344 12 28.511719 12 28.5 12 C 27.667969 12 27 11.332031 27 10.5 C 27 9.667969 26.332031 9 25.5 9 Z M 6 9 "/>
<path style=" stroke:none;fill-rule:nonzero;fill:rgb(100%,100%,100%);fill-opacity:0.4;" d="M 6 9 C 4.339844 9 3 10.339844 3 12 L 3 12.75 C 3 11.089844 4.339844 9.75 6 9.75 L 25.5 9.75 C 26.332031 9.75 27 10.417969 27 11.25 C 27 12.082031 27.667969 12.75 28.5 12.75 C 28.511719 12.75 28.527344 12.75 28.539062 12.75 L 42 12.75 C 43.660156 12.75 45 14.089844 45 15.75 L 45 15 C 45 13.339844 43.660156 12 42 12 L 28.539062 12 C 28.527344 12 28.511719 12 28.5 12 C 27.667969 12 27 11.332031 27 10.5 C 27 9.667969 26.332031 9 25.5 9 Z M 6 9 "/>
<path style=" stroke:none;fill-rule:nonzero;fill:rgb(0%,0%,0%);fill-opacity:0.4;" d="M 3 38.25 L 3 39 C 3 40.660156 4.339844 42 6 42 L 42 42 C 43.660156 42 45 40.660156 45 39 L 45 38.25 C 45 39.910156 43.660156 41.25 42 41.25 L 6 41.25 C 4.339844 41.25 3 39.910156 3 38.25 Z M 3 38.25 "/>
<path style=" stroke:none;fill-rule:nonzero;fill:rgb(0%,0%,0%);fill-opacity:0.2;" d="M 3 39 L 3 40.125 C 3 41.785156 4.339844 43.125 6 43.125 L 42 43.125 C 43.660156 43.125 45 41.785156 45 40.125 L 45 39 C 45 40.660156 43.660156 42 42 42 L 6 42 C 4.339844 42 3 40.660156 3 39 Z M 3 39 "/>
<path style=" stroke:none;fill-rule:nonzero;fill:rgb(0%,67.450982%,75.686276%);fill-opacity:1;" d="M 29.183594 18 C 27.964844 18.03125 26.992188 19.023438 26.992188 20.25 C 26.992188 20.367188 27.003906 20.480469 27.019531 20.59375 L 21.695312 23.460938 C 21.148438 22.871094 20.367188 22.5 19.492188 22.5 C 17.832031 22.5 16.492188 23.839844 16.492188 25.5 C 16.492188 27.160156 17.832031 28.5 19.492188 28.5 C 20.367188 28.5 21.148438 28.128906 21.695312 27.539062 L 27.019531 30.40625 C 27 30.515625 26.992188 30.632812 26.992188 30.75 C 26.992188 31.996094 27.996094 33 29.242188 33 C 30.488281 33 31.492188 31.996094 31.492188 30.75 C 31.492188 29.503906 30.488281 28.5 29.242188 28.5 C 28.65625 28.5 28.125 28.722656 27.726562 29.085938 L 22.40625 26.222656 C 22.460938 25.988281 22.492188 25.75 22.492188 25.5 C 22.492188 25.253906 22.464844 25.011719 22.40625 24.78125 L 27.726562 21.917969 C 28.128906 22.28125 28.660156 22.5 29.242188 22.5 C 30.488281 22.5 31.492188 21.496094 31.492188 20.25 C 31.492188 19.003906 30.488281 18 29.242188 18 C 29.222656 18 29.203125 18 29.183594 18 Z M 29.183594 18 "/>
<path style=" stroke:none;fill-rule:nonzero;fill:rgb(56.470591%,79.215688%,97.647059%);fill-opacity:1;" d="M 29.183594 18 C 27.964844 18.03125 26.992188 19.023438 26.992188 20.25 C 26.992188 20.367188 27.003906 20.480469 27.019531 20.59375 L 21.695312 23.460938 C 21.148438 22.871094 20.367188 22.5 19.492188 22.5 C 17.832031 22.5 16.492188 23.839844 16.492188 25.5 C 16.492188 27.160156 17.832031 28.5 19.492188 28.5 C 20.367188 28.5 21.148438 28.128906 21.695312 27.539062 L 27.019531 30.40625 C 27 30.515625 26.992188 30.632812 26.992188 30.75 C 26.992188 31.996094 27.996094 33 29.242188 33 C 30.488281 33 31.492188 31.996094 31.492188 30.75 C 31.492188 29.503906 30.488281 28.5 29.242188 28.5 C 28.65625 28.5 28.125 28.722656 27.726562 29.085938 L 22.40625 26.222656 C 22.460938 25.988281 22.492188 25.75 22.492188 25.5 C 22.492188 25.253906 22.464844 25.011719 22.40625 24.78125 L 27.726562 21.917969 C 28.128906 22.28125 28.660156 22.5 29.242188 22.5 C 30.488281 22.5 31.492188 21.496094 31.492188 20.25 C 31.492188 19.003906 30.488281 18 29.242188 18 C 29.222656 18 29.203125 18 29.183594 18 Z M 29.183594 18 "/>
<path style=" stroke:none;fill-rule:nonzero;fill:rgb(99.215686%,99.215686%,99.215686%);fill-opacity:0.4;" d="M 29.183594 18 C 27.964844 18.03125 26.992188 19.023438 26.992188 20.25 C 26.992188 20.3125 26.996094 20.375 27 20.4375 C 27.09375 19.296875 28.027344 18.402344 29.183594 18.375 C 29.203125 18.375 29.222656 18.375 29.242188 18.375 C 30.421875 18.375 31.382812 19.273438 31.484375 20.429688 C 31.488281 20.371094 31.492188 20.308594 31.492188 20.25 C 31.492188 19.003906 30.488281 18 29.242188 18 C 29.222656 18 29.203125 18 29.183594 18 Z M 26.992188 20.609375 L 21.695312 23.460938 C 21.148438 22.871094 20.367188 22.5 19.492188 22.5 C 17.832031 22.5 16.492188 23.839844 16.492188 25.5 C 16.492188 25.554688 16.5 25.609375 16.5 25.664062 C 16.609375 24.101562 17.902344 22.875 19.492188 22.875 C 20.367188 22.875 21.148438 23.246094 21.695312 23.835938 L 27.019531 20.96875 C 27.003906 20.855469 26.992188 20.742188 26.992188 20.625 C 26.992188 20.621094 26.992188 20.613281 26.992188 20.609375 Z M 22.46875 25.125 L 22.40625 25.15625 C 22.449219 25.328125 22.476562 25.503906 22.488281 25.683594 C 22.492188 25.625 22.492188 25.5625 22.492188 25.5 C 22.492188 25.371094 22.484375 25.246094 22.46875 25.125 Z M 22.46875 26.253906 C 22.453125 26.371094 22.433594 26.484375 22.40625 26.597656 L 27.726562 29.460938 C 28.125 29.097656 28.65625 28.875 29.242188 28.875 C 30.421875 28.875 31.382812 29.773438 31.484375 30.929688 C 31.488281 30.871094 31.492188 30.808594 31.492188 30.75 C 31.492188 29.503906 30.488281 28.5 29.242188 28.5 C 28.65625 28.5 28.125 28.722656 27.726562 29.085938 Z M 26.992188 30.765625 C 26.996094 30.820312 26.996094 30.875 27 30.929688 C 27.003906 30.878906 27.011719 30.828125 27.019531 30.78125 Z M 26.992188 30.765625 "/>
<path style=" stroke:none;fill-rule:nonzero;fill:rgb(3.529412%,3.529412%,3.529412%);fill-opacity:0.4;" d="M 31.484375 20.410156 C 31.390625 21.566406 30.425781 22.472656 29.242188 22.472656 C 28.660156 22.472656 28.128906 22.25 27.726562 21.886719 L 22.40625 24.753906 C 22.433594 24.863281 22.453125 24.976562 22.46875 25.09375 L 27.726562 22.261719 C 28.128906 22.625 28.660156 22.847656 29.242188 22.847656 C 30.488281 22.847656 31.492188 21.84375 31.492188 20.597656 C 31.492188 20.53125 31.488281 20.46875 31.484375 20.410156 Z M 27 20.410156 C 26.996094 20.464844 26.992188 20.523438 26.992188 20.578125 L 27.019531 20.566406 C 27.011719 20.515625 27.007812 20.460938 27 20.410156 Z M 16.5 25.660156 C 16.496094 25.71875 16.492188 25.78125 16.492188 25.84375 C 16.492188 27.507812 17.832031 28.84375 19.492188 28.84375 C 20.367188 28.84375 21.148438 28.476562 21.695312 27.882812 L 26.992188 30.734375 C 26.992188 30.730469 26.992188 30.726562 26.992188 30.722656 C 26.992188 30.605469 27.003906 30.488281 27.019531 30.375 L 21.695312 27.511719 C 21.148438 28.101562 20.367188 28.472656 19.492188 28.472656 C 17.894531 28.472656 16.597656 27.234375 16.5 25.660156 Z M 22.488281 25.660156 C 22.476562 25.84375 22.449219 26.019531 22.40625 26.191406 L 22.46875 26.226562 C 22.484375 26.101562 22.492188 25.972656 22.492188 25.84375 C 22.492188 25.785156 22.492188 25.722656 22.488281 25.660156 Z M 27 30.90625 C 26.996094 30.96875 26.992188 31.03125 26.992188 31.09375 C 26.992188 32.34375 27.996094 33.34375 29.242188 33.34375 C 30.488281 33.34375 31.492188 32.34375 31.492188 31.09375 C 31.492188 31.03125 31.488281 30.96875 31.484375 30.90625 C 31.390625 32.066406 30.425781 32.96875 29.242188 32.96875 C 28.058594 32.96875 27.097656 32.066406 27 30.90625 Z M 27 30.90625 "/>
<path style=" stroke:none;fill-rule:nonzero;fill:url(#linear0);" d="M 28.5 6 C 27.386719 6 26.417969 6.601562 25.898438 7.5 L 7.5 7.5 C 6.28125 7.5 5.234375 8.222656 4.765625 9.261719 C 3.722656 9.734375 3 10.78125 3 12 L 3 39 C 3 40.660156 4.339844 42 6 42 L 42 42 C 43.660156 42 45 40.660156 45 39 L 45 15 C 45 13.886719 44.398438 12.917969 43.5 12.402344 L 43.5 9 C 43.5 7.339844 42.160156 6 40.5 6 Z M 28.5 6 "/>
</g>
</svg>
