
<svg xmlns="http://www.w3.org/2000/svg" xmlns:xlink="http://www.w3.org/1999/xlink" width="32" height="32" viewBox="0 0 32 32" version="1.1">
<defs>
<linearGradient id="linear0" gradientUnits="userSpaceOnUse" x1="31.999998" y1="60" x2="31.999998" y2="4" gradientTransform="matrix(0.5,0,0,0.5,-0.0234337,0)">
<stop offset="0" style="stop-color:rgb(0%,0%,0%);stop-opacity:0.2;"/>
<stop offset="1" style="stop-color:rgb(100%,100%,100%);stop-opacity:0;"/>
</linearGradient>
</defs>
<g id="surface1">
<path style=" stroke:none;fill-rule:nonzero;fill:rgb(67.058825%,27.843139%,73.725492%);fill-opacity:1;" d="M 6.101562 6.101562 C 7.667969 4.535156 10.191406 4.535156 11.757812 6.101562 C 13.347656 7.691406 14.9375 12.816406 16 16 C 12.816406 14.9375 7.691406 13.347656 6.101562 11.757812 C 4.535156 10.191406 4.535156 7.667969 6.101562 6.101562 Z M 6.101562 6.101562 "/>
<path style=" stroke:none;fill-rule:nonzero;fill:rgb(95.686275%,26.274511%,21.176471%);fill-opacity:1;" d="M 2 16 C 2 13.785156 3.785156 12 6 12 C 8.25 12 13 14.5 16 16 C 13 17.5 8.25 20 6 20 C 3.785156 20 2 18.214844 2 16 Z M 2 16 "/>
<path style=" stroke:none;fill-rule:nonzero;fill:rgb(100%,43.921569%,26.274511%);fill-opacity:1;" d="M 6.101562 25.898438 C 4.535156 24.332031 4.535156 21.808594 6.101562 20.242188 C 7.691406 18.652344 12.816406 17.0625 16 16 C 14.9375 19.183594 13.347656 24.308594 11.757812 25.898438 C 10.191406 27.464844 7.667969 27.464844 6.101562 25.898438 Z M 6.101562 25.898438 "/>
<path style=" stroke:none;fill-rule:nonzero;fill:rgb(100%,79.215688%,15.686275%);fill-opacity:1;" d="M 16 30 C 13.785156 30 12 28.214844 12 26 C 12 23.75 14.5 19 16 16 C 17.5 19 20 23.75 20 26 C 20 28.214844 18.214844 30 16 30 Z M 16 30 "/>
<path style=" stroke:none;fill-rule:nonzero;fill:rgb(83.137256%,88.235295%,34.117648%);fill-opacity:1;" d="M 25.898438 25.898438 C 27.464844 24.332031 27.464844 21.808594 25.898438 20.242188 C 24.308594 18.652344 19.183594 17.0625 16 16 C 17.0625 19.183594 18.652344 24.308594 20.242188 25.898438 C 21.808594 27.464844 24.332031 27.464844 25.898438 25.898438 Z M 25.898438 25.898438 "/>
<path style=" stroke:none;fill-rule:nonzero;fill:rgb(40.000001%,73.333335%,41.568628%);fill-opacity:1;" d="M 30 16 C 30 13.785156 28.214844 12 26 12 C 23.75 12 19 14.5 16 16 C 19 17.5 23.75 20 26 20 C 28.214844 20 30 18.214844 30 16 Z M 30 16 "/>
<path style=" stroke:none;fill-rule:nonzero;fill:rgb(30.19608%,81.568629%,88.235295%);fill-opacity:1;" d="M 25.898438 6.101562 C 24.332031 4.535156 21.808594 4.535156 20.242188 6.101562 C 18.652344 7.691406 17.0625 12.816406 16 16 C 19.183594 14.9375 24.308594 13.347656 25.898438 11.757812 C 27.464844 10.191406 27.464844 7.667969 25.898438 6.101562 Z M 25.898438 6.101562 "/>
<path style=" stroke:none;fill-rule:nonzero;fill:rgb(36.078432%,41.960785%,75.294119%);fill-opacity:1;" d="M 16 2 C 13.785156 2 12 3.785156 12 6 C 12 8.25 14.5 13 16 16 C 17.5 13 20 8.25 20 6 C 20 3.785156 18.214844 2 16 2 Z M 16 2 "/>
<path style=" stroke:none;fill-rule:nonzero;fill:rgb(67.058825%,27.843139%,73.725492%);fill-opacity:1;" d="M 8.929688 4.925781 C 7.90625 4.925781 6.882812 5.316406 6.101562 6.101562 L 16 16 C 14.9375 12.816406 13.347656 7.691406 11.757812 6.101562 C 10.972656 5.316406 9.953125 4.925781 8.929688 4.925781 Z M 8.929688 4.925781 "/>
<path style=" stroke:none;fill-rule:nonzero;fill:rgb(100%,100%,100%);fill-opacity:0.4;" d="M 16 2 C 13.785156 2 12 3.785156 12 6 C 12 6.0625 12.007812 6.132812 12.011719 6.203125 C 12.164062 4.125 13.882812 2.5 16 2.5 C 18.117188 2.5 19.835938 4.125 19.988281 6.203125 C 19.992188 6.132812 20 6.0625 20 6 C 20 3.785156 18.214844 2 16 2 Z M 8.929688 4.925781 C 7.90625 4.925781 6.882812 5.316406 6.101562 6.101562 C 5.261719 6.941406 4.875 8.054688 4.9375 9.148438 C 5 8.222656 5.386719 7.3125 6.101562 6.601562 C 7.667969 5.035156 10.191406 5.035156 11.757812 6.601562 C 11.847656 6.6875 11.933594 6.789062 12.023438 6.898438 C 12.007812 6.757812 12 6.625 12 6.5 C 12 6.457031 12 6.417969 12.003906 6.375 C 11.921875 6.273438 11.839844 6.183594 11.757812 6.101562 C 10.972656 5.316406 9.953125 4.925781 8.929688 4.925781 Z M 23.070312 4.925781 C 22.046875 4.925781 21.027344 5.316406 20.242188 6.101562 C 20.160156 6.183594 20.078125 6.277344 19.996094 6.375 C 20 6.417969 20 6.457031 20 6.5 C 20 6.625 19.992188 6.757812 19.976562 6.898438 C 20.066406 6.789062 20.152344 6.6875 20.242188 6.601562 C 21.808594 5.035156 24.332031 5.035156 25.898438 6.601562 C 26.613281 7.3125 27 8.222656 27.0625 9.148438 C 27.125 8.054688 26.738281 6.941406 25.898438 6.101562 C 25.117188 5.316406 24.09375 4.925781 23.070312 4.925781 Z M 5.871094 12.007812 C 3.714844 12.074219 2 13.828125 2 16 C 2 16.074219 2.007812 16.144531 2.011719 16.21875 C 2.15625 14.132812 3.878906 12.5 6 12.5 C 6.125 12.5 6.257812 12.507812 6.398438 12.523438 C 6.289062 12.433594 6.1875 12.347656 6.101562 12.257812 C 6.019531 12.175781 5.945312 12.09375 5.871094 12.007812 Z M 26.128906 12.007812 C 26.054688 12.09375 25.980469 12.175781 25.898438 12.257812 C 25.8125 12.347656 25.710938 12.433594 25.601562 12.523438 C 25.742188 12.507812 25.875 12.5 26 12.5 C 28.121094 12.5 29.84375 14.132812 29.988281 16.21875 C 29.992188 16.144531 30 16.074219 30 16 C 30 13.828125 28.285156 12.074219 26.128906 12.007812 Z M 25.601562 20.476562 C 25.710938 20.566406 25.8125 20.652344 25.898438 20.742188 C 26.613281 21.453125 27 22.363281 27.0625 23.292969 C 27.121094 22.304688 26.808594 21.300781 26.128906 20.496094 C 26.085938 20.5 26.042969 20.5 26 20.5 C 25.875 20.5 25.742188 20.492188 25.601562 20.476562 Z M 6.398438 20.476562 C 6.257812 20.492188 6.125 20.5 6 20.5 C 5.957031 20.5 5.914062 20.5 5.871094 20.496094 C 5.191406 21.300781 4.878906 22.304688 4.9375 23.292969 C 5 22.363281 5.386719 21.453125 6.101562 20.742188 C 6.1875 20.652344 6.289062 20.566406 6.398438 20.476562 Z M 12.023438 26.101562 C 12.019531 26.109375 12.011719 26.113281 12.007812 26.121094 C 12.007812 26.160156 12.007812 26.199219 12.011719 26.238281 C 12.015625 26.191406 12.019531 26.148438 12.023438 26.101562 Z M 19.976562 26.101562 C 19.980469 26.148438 19.984375 26.191406 19.988281 26.238281 C 19.992188 26.199219 19.992188 26.160156 19.992188 26.121094 C 19.988281 26.113281 19.980469 26.109375 19.976562 26.101562 Z M 19.976562 26.101562 "/>
<path style=" stroke:none;fill-rule:nonzero;fill:rgb(0%,0%,0%);fill-opacity:0.4;" d="M 16 30 C 13.785156 30 12 28.214844 12 26 C 12 25.9375 12.007812 25.867188 12.011719 25.796875 C 12.164062 27.875 13.882812 29.5 16 29.5 C 18.117188 29.5 19.835938 27.875 19.988281 25.796875 C 19.992188 25.867188 20 25.9375 20 26 C 20 28.214844 18.214844 30 16 30 Z M 8.929688 27.074219 C 7.90625 27.074219 6.882812 26.683594 6.101562 25.898438 C 5.261719 25.058594 4.875 23.945312 4.9375 22.847656 C 5 23.777344 5.386719 24.6875 6.101562 25.398438 C 7.667969 26.964844 10.191406 26.964844 11.757812 25.398438 C 11.847656 25.3125 11.933594 25.210938 12.023438 25.101562 C 12.007812 25.242188 12 25.375 12 25.5 C 12 25.542969 12 25.582031 12.003906 25.625 C 11.921875 25.722656 11.839844 25.816406 11.757812 25.898438 C 10.972656 26.683594 9.953125 27.074219 8.929688 27.074219 Z M 23.070312 27.074219 C 22.046875 27.074219 21.027344 26.683594 20.242188 25.898438 C 20.160156 25.816406 20.078125 25.722656 19.996094 25.625 C 20 25.582031 20 25.542969 20 25.5 C 20 25.375 19.992188 25.242188 19.976562 25.101562 C 20.066406 25.210938 20.152344 25.3125 20.242188 25.398438 C 21.808594 26.964844 24.332031 26.964844 25.898438 25.398438 C 26.613281 24.6875 27 23.777344 27.0625 22.851562 C 27.125 23.945312 26.738281 25.058594 25.898438 25.898438 C 25.117188 26.683594 24.09375 27.074219 23.070312 27.074219 Z M 5.871094 19.992188 C 3.714844 19.925781 2 18.171875 2 16 C 2 15.925781 2.007812 15.855469 2.011719 15.78125 C 2.15625 17.867188 3.878906 19.5 6 19.5 C 6.125 19.5 6.257812 19.492188 6.398438 19.476562 C 6.289062 19.566406 6.1875 19.652344 6.101562 19.742188 C 6.019531 19.824219 5.945312 19.90625 5.871094 19.992188 Z M 26.128906 19.992188 C 26.054688 19.90625 25.980469 19.824219 25.898438 19.742188 C 25.8125 19.652344 25.710938 19.566406 25.601562 19.476562 C 25.742188 19.488281 25.875 19.5 26 19.5 C 28.121094 19.5 29.84375 17.867188 29.988281 15.78125 C 29.992188 15.855469 30 15.925781 30 16 C 30 18.171875 28.285156 19.925781 26.128906 19.992188 Z M 25.601562 11.523438 C 25.710938 11.433594 25.8125 11.347656 25.898438 11.257812 C 26.613281 10.546875 27 9.636719 27.066406 8.707031 C 27.121094 9.695312 26.808594 10.699219 26.128906 11.503906 C 26.085938 11.5 26.042969 11.5 26 11.5 C 25.875 11.5 25.742188 11.507812 25.601562 11.523438 Z M 6.398438 11.523438 C 6.257812 11.507812 6.125 11.5 6 11.5 C 5.957031 11.5 5.914062 11.5 5.871094 11.503906 C 5.191406 10.699219 4.878906 9.695312 4.933594 8.707031 C 5 9.636719 5.386719 10.546875 6.101562 11.257812 C 6.1875 11.347656 6.289062 11.433594 6.398438 11.523438 Z M 12.023438 5.898438 C 12.019531 5.890625 12.011719 5.886719 12.007812 5.878906 C 12.007812 5.839844 12.007812 5.800781 12.011719 5.761719 C 12.015625 5.808594 12.019531 5.851562 12.023438 5.898438 Z M 19.976562 5.898438 C 19.980469 5.851562 19.984375 5.808594 19.988281 5.761719 C 19.992188 5.800781 19.992188 5.839844 19.992188 5.878906 C 19.988281 5.886719 19.980469 5.890625 19.976562 5.898438 Z M 19.976562 5.898438 "/>
<path style=" stroke:none;fill-rule:nonzero;fill:rgb(0%,0%,0%);fill-opacity:0.2;" d="M 12.019531 6.355469 C 12.019531 6.367188 12.019531 6.378906 12.015625 6.390625 C 12.019531 6.394531 12.019531 6.394531 12.023438 6.398438 C 12.023438 6.382812 12.019531 6.371094 12.019531 6.355469 Z M 19.980469 6.355469 C 19.980469 6.371094 19.976562 6.382812 19.976562 6.398438 C 19.980469 6.394531 19.980469 6.394531 19.984375 6.390625 C 19.980469 6.378906 19.980469 6.367188 19.980469 6.355469 Z M 4.945312 9.304688 C 4.855469 10.246094 5.101562 11.210938 5.679688 12.015625 C 5.785156 12.003906 5.890625 12 6 12 C 6.125 12 6.257812 12.007812 6.398438 12.023438 C 6.289062 11.933594 6.1875 11.847656 6.101562 11.757812 C 5.414062 11.070312 5.027344 10.199219 4.945312 9.304688 Z M 27.054688 9.304688 C 26.972656 10.199219 26.585938 11.070312 25.898438 11.757812 C 25.8125 11.847656 25.710938 11.933594 25.601562 12.023438 C 25.742188 12.007812 25.875 12 26 12 C 26.109375 12 26.214844 12.003906 26.320312 12.015625 C 26.898438 11.210938 27.144531 10.246094 27.054688 9.304688 Z M 2.015625 16.375 C 2.007812 16.5 2 16.625 2 16.753906 C 2 18.859375 3.613281 20.578125 5.679688 20.742188 C 5.804688 20.566406 5.945312 20.398438 6.101562 20.242188 C 6.1875 20.152344 6.289062 20.066406 6.398438 19.976562 C 6.257812 19.992188 6.125 20 6 20 C 3.910156 20 2.207031 18.414062 2.015625 16.375 Z M 29.984375 16.375 C 29.792969 18.414062 28.089844 20 26 20 C 25.875 20 25.742188 19.992188 25.601562 19.976562 C 25.710938 20.066406 25.8125 20.152344 25.898438 20.242188 C 26.054688 20.398438 26.195312 20.566406 26.320312 20.742188 C 28.386719 20.578125 30 18.859375 30 16.753906 C 30 16.625 29.992188 16.5 29.984375 16.375 Z M 4.945312 23.445312 C 4.835938 24.589844 5.21875 25.773438 6.101562 26.652344 C 7.667969 28.21875 10.191406 28.21875 11.757812 26.652344 C 11.84375 26.566406 11.929688 26.46875 12.015625 26.363281 C 12.007812 26.242188 12 26.121094 12 26 C 12 25.875 12.007812 25.742188 12.023438 25.601562 C 11.933594 25.710938 11.847656 25.8125 11.757812 25.898438 C 10.191406 27.464844 7.667969 27.464844 6.101562 25.898438 C 5.414062 25.210938 5.027344 24.339844 4.945312 23.445312 Z M 27.054688 23.445312 C 26.972656 24.339844 26.585938 25.210938 25.898438 25.898438 C 24.332031 27.464844 21.808594 27.464844 20.242188 25.898438 C 20.152344 25.8125 20.066406 25.710938 19.976562 25.601562 C 19.992188 25.742188 20 25.875 20 26 C 20 26.121094 19.992188 26.242188 19.984375 26.363281 C 20.070312 26.46875 20.15625 26.566406 20.242188 26.652344 C 21.808594 28.21875 24.332031 28.21875 25.898438 26.652344 C 26.78125 25.773438 27.164062 24.589844 27.054688 23.445312 Z M 12.019531 26.398438 C 12.007812 26.523438 12 26.640625 12 26.753906 C 12 28.96875 13.785156 30.753906 16 30.753906 C 18.214844 30.753906 20 28.96875 20 26.753906 C 20 26.640625 19.992188 26.523438 19.980469 26.398438 C 19.78125 28.425781 18.082031 30 16 30 C 13.917969 30 12.21875 28.425781 12.019531 26.398438 Z M 12.019531 26.398438 "/>
<path style=" stroke:none;fill-rule:nonzero;fill:rgb(87.843138%,87.843138%,87.843138%);fill-opacity:1;" d="M 16 12 C 18.210938 12 20 13.789062 20 16 C 20 18.210938 18.210938 20 16 20 C 13.789062 20 12 18.210938 12 16 C 12 13.789062 13.789062 12 16 12 Z M 16 12 "/>
<path style=" stroke:none;fill-rule:nonzero;fill:rgb(0%,0%,0%);fill-opacity:0.4;" d="M 16 12 C 13.785156 12 12 13.785156 12 16 C 12 16.085938 12.003906 16.167969 12.007812 16.25 C 12.136719 14.152344 13.867188 12.5 16 12.5 C 18.132812 12.5 19.863281 14.152344 19.992188 16.25 C 19.996094 16.167969 20 16.085938 20 16 C 20 13.785156 18.214844 12 16 12 Z M 16 12 "/>
<path style=" stroke:none;fill-rule:nonzero;fill:rgb(100%,100%,100%);fill-opacity:0.4;" d="M 16 20.5 C 13.785156 20.5 12 18.714844 12 16.5 C 12 16.414062 12.003906 16.332031 12.007812 16.25 C 12.136719 18.347656 13.867188 20 16 20 C 18.132812 20 19.863281 18.347656 19.992188 16.25 C 19.996094 16.332031 20 16.414062 20 16.5 C 20 18.714844 18.214844 20.5 16 20.5 Z M 16 20.5 "/>
<path style=" stroke:none;fill-rule:nonzero;fill:url(#linear0);" d="M 15.976562 2 C 13.761719 2 11.976562 3.785156 11.976562 6 C 11.976562 6.125 11.984375 6.257812 12 6.398438 C 11.910156 6.289062 11.824219 6.1875 11.734375 6.101562 C 10.167969 4.535156 7.644531 4.535156 6.078125 6.101562 C 4.511719 7.667969 4.511719 10.191406 6.078125 11.757812 C 6.164062 11.847656 6.265625 11.933594 6.375 12.023438 C 6.234375 12.007812 6.101562 12 5.976562 12 C 3.761719 12 1.976562 13.785156 1.976562 16 C 1.976562 18.214844 3.761719 20 5.976562 20 C 6.101562 20 6.234375 19.992188 6.375 19.976562 C 6.265625 20.066406 6.164062 20.152344 6.078125 20.242188 C 4.511719 21.808594 4.511719 24.332031 6.078125 25.898438 C 7.644531 27.464844 10.167969 27.464844 11.734375 25.898438 C 11.824219 25.8125 11.910156 25.710938 12 25.601562 C 11.984375 25.742188 11.976562 25.875 11.976562 26 C 11.976562 28.214844 13.761719 30 15.976562 30 C 18.191406 30 19.976562 28.214844 19.976562 26 C 19.976562 25.875 19.96875 25.742188 19.953125 25.601562 C 20.042969 25.710938 20.128906 25.8125 20.21875 25.898438 C 21.785156 27.464844 24.308594 27.464844 25.875 25.898438 C 27.441406 24.332031 27.441406 21.808594 25.875 20.242188 C 25.789062 20.152344 25.6875 20.066406 25.578125 19.976562 C 25.71875 19.992188 25.851562 20 25.976562 20 C 28.191406 20 29.976562 18.214844 29.976562 16 C 29.976562 13.785156 28.191406 12 25.976562 12 C 25.851562 12 25.71875 12.007812 25.578125 12.023438 C 25.6875 11.933594 25.789062 11.847656 25.875 11.757812 C 27.441406 10.191406 27.441406 7.667969 25.875 6.101562 C 24.308594 4.535156 21.785156 4.535156 20.21875 6.101562 C 20.128906 6.1875 20.042969 6.289062 19.953125 6.398438 C 19.96875 6.257812 19.976562 6.125 19.976562 6 C 19.976562 3.785156 18.191406 2 15.976562 2 Z M 15.976562 2 "/>
</g>
</svg>
