
<svg xmlns="http://www.w3.org/2000/svg" xmlns:xlink="http://www.w3.org/1999/xlink" width="32" height="32" viewBox="0 0 32 32" version="1.1">
<defs>
<linearGradient id="linear0" gradientUnits="userSpaceOnUse" x1="31.999998" y1="60" x2="31.999998" y2="4" gradientTransform="matrix(0.5,0,0,0.5,-0.00000136063,0)">
<stop offset="0" style="stop-color:rgb(0%,0%,0%);stop-opacity:0.2;"/>
<stop offset="1" style="stop-color:rgb(100%,100%,100%);stop-opacity:0;"/>
</linearGradient>
</defs>
<g id="surface1">
<path style=" stroke:none;fill-rule:nonzero;fill:rgb(14.901961%,65.098041%,60.392159%);fill-opacity:1;" d="M 20 2 L 6.5 2 C 5.667969 2 5 2.667969 5 3.5 L 5 28.5 C 5 29.332031 5.667969 30 6.5 30 L 25.5 30 C 26.332031 30 27 29.332031 27 28.5 L 27 9 Z M 20 2 "/>
<path style=" stroke:none;fill-rule:nonzero;fill:rgb(0%,0%,0%);fill-opacity:0.4;" d="M 20 7.5 L 20 8 C 20 8.832031 20.667969 9.5 21.5 9.5 L 27 9.5 L 26.5 9 L 21.5 9 C 20.667969 9 20 8.332031 20 7.5 Z M 20 7.5 "/>
<path style=" stroke:none;fill-rule:nonzero;fill:rgb(30.19608%,71.372551%,67.450982%);fill-opacity:0.996078;" d="M 27 9 L 20 2 L 20 7.5 C 20 8.332031 20.667969 9 21.5 9 Z M 27 9 "/>
<path style=" stroke:none;fill-rule:nonzero;fill:rgb(100%,100%,100%);fill-opacity:0.4;" d="M 6.5 2 C 5.667969 2 5 2.667969 5 3.5 L 5 4 C 5 3.167969 5.667969 2.5 6.5 2.5 L 20 2.5 L 27 9.5 L 27 9 L 20 2 Z M 6.5 2 "/>
<path style=" stroke:none;fill-rule:nonzero;fill:rgb(0%,0%,0%);fill-opacity:0.2;" d="M 5 28.492188 L 5 29.25 C 5 30.082031 5.667969 30.75 6.5 30.75 L 25.5 30.75 C 26.332031 30.75 27 30.082031 27 29.25 L 27 28.492188 C 27 29.324219 26.332031 29.992188 25.5 29.992188 L 6.5 29.992188 C 5.667969 29.992188 5 29.324219 5 28.492188 Z M 5 28.492188 "/>
<path style=" stroke:none;fill-rule:nonzero;fill:rgb(0%,0%,0%);fill-opacity:0.4;" d="M 5 28.0625 L 5 28.5 C 5 29.332031 5.667969 30 6.5 30 L 25.5 30 C 26.332031 30 27 29.332031 27 28.5 L 27 28.0625 C 27 28.894531 26.332031 29.5625 25.5 29.5625 L 6.5 29.5625 C 5.667969 29.5625 5 28.894531 5 28.0625 Z M 5 28.0625 "/>
<path style=" stroke:none;fill-rule:nonzero;fill:rgb(0%,0%,0%);fill-opacity:0.4;" d="M 15.421875 13.625 C 15.359375 14.398438 14.714844 15 13.925781 15 C 13.136719 15 12.496094 14.398438 12.433594 13.625 C 12.429688 13.667969 12.425781 13.707031 12.425781 13.75 C 12.425781 14.582031 13.097656 15.25 13.925781 15.25 C 14.757812 15.25 15.425781 14.582031 15.425781 13.75 C 15.425781 13.707031 15.425781 13.667969 15.421875 13.625 Z M 20.25 21.777344 C 20.199219 21.910156 20.070312 22 19.925781 22 L 11.925781 22 C 11.789062 22 11.664062 21.910156 11.613281 21.78125 L 11.613281 21.785156 C 11.570312 21.890625 11.582031 22.007812 11.648438 22.101562 C 11.710938 22.195312 11.816406 22.25 11.925781 22.25 L 19.925781 22.25 C 20.039062 22.25 20.148438 22.195312 20.210938 22.101562 C 20.277344 22.007812 20.289062 21.886719 20.25 21.78125 Z M 20.25 21.777344 "/>
<path style=" stroke:none;fill-rule:nonzero;fill:rgb(50.196081%,79.607844%,76.862746%);fill-opacity:0.996078;" d="M 13.886719 12 C 13.074219 12.019531 12.425781 12.683594 12.425781 13.5 C 12.425781 14.332031 13.097656 15 13.925781 15 C 14.757812 15 15.425781 14.332031 15.425781 13.5 C 15.425781 12.667969 14.757812 12 13.925781 12 C 13.914062 12 13.902344 12 13.886719 12 Z M 17.363281 14.882812 C 17.175781 14.902344 17.015625 15.023438 16.949219 15.195312 L 15.90625 17.804688 C 15.800781 18.070312 15.566406 18.261719 15.289062 18.320312 C 15.007812 18.378906 14.71875 18.292969 14.515625 18.089844 L 14.335938 17.910156 C 14.136719 17.707031 13.84375 17.621094 13.566406 17.679688 C 13.285156 17.734375 13.054688 17.929688 12.949219 18.195312 L 11.613281 21.535156 C 11.570312 21.640625 11.582031 21.757812 11.648438 21.851562 C 11.710938 21.945312 11.816406 22 11.925781 22 L 19.925781 22 C 20.039062 22 20.148438 21.945312 20.210938 21.851562 C 20.277344 21.757812 20.289062 21.636719 20.25 21.53125 L 17.878906 15.203125 C 17.800781 14.992188 17.585938 14.859375 17.363281 14.882812 Z M 17.363281 14.882812 "/>
<path style=" stroke:none;fill-rule:nonzero;fill:rgb(99.607843%,99.607843%,99.607843%);fill-opacity:0.4;" d="M 13.886719 12 C 13.074219 12.019531 12.425781 12.683594 12.425781 13.5 C 12.425781 13.542969 12.429688 13.585938 12.433594 13.625 C 12.496094 12.867188 13.117188 12.269531 13.886719 12.25 C 13.902344 12.25 13.914062 12.25 13.925781 12.25 C 14.714844 12.25 15.359375 12.851562 15.421875 13.625 C 15.425781 13.582031 15.425781 13.542969 15.425781 13.5 C 15.425781 12.667969 14.757812 12 13.925781 12 C 13.914062 12 13.902344 12 13.886719 12 Z M 17.363281 14.882812 C 17.175781 14.902344 17.015625 15.023438 16.949219 15.195312 L 15.90625 17.804688 C 15.800781 18.070312 15.566406 18.261719 15.289062 18.320312 C 15.007812 18.378906 14.71875 18.292969 14.515625 18.089844 L 14.335938 17.910156 C 14.136719 17.707031 13.84375 17.621094 13.566406 17.679688 C 13.285156 17.734375 13.054688 17.929688 12.949219 18.195312 L 11.613281 21.535156 C 11.582031 21.617188 11.582031 21.703125 11.613281 21.78125 L 12.949219 18.445312 C 13.054688 18.179688 13.285156 17.984375 13.566406 17.929688 C 13.84375 17.871094 14.136719 17.957031 14.335938 18.160156 L 14.515625 18.339844 C 14.71875 18.542969 15.007812 18.628906 15.289062 18.570312 C 15.566406 18.511719 15.800781 18.320312 15.90625 18.054688 L 16.949219 15.445312 C 17.015625 15.273438 17.175781 15.152344 17.363281 15.132812 C 17.585938 15.109375 17.800781 15.242188 17.878906 15.453125 L 20.25 21.777344 C 20.28125 21.699219 20.28125 21.613281 20.25 21.53125 L 17.878906 15.203125 C 17.800781 14.992188 17.585938 14.859375 17.363281 14.882812 Z M 17.363281 14.882812 "/>
<path style=" stroke:none;fill-rule:nonzero;fill:url(#linear0);" d="M 20 2 L 6.5 2 C 5.667969 2 5 2.667969 5 3.5 L 5 28.5 C 5 29.332031 5.667969 30 6.5 30 L 25.5 30 C 26.332031 30 27 29.332031 27 28.5 L 27 9 Z M 20 2 "/>
</g>
</svg>
