
<svg xmlns="http://www.w3.org/2000/svg" xmlns:xlink="http://www.w3.org/1999/xlink" width="32" height="32" viewBox="0 0 32 32" version="1.1">
<defs>
<linearGradient id="linear0" gradientUnits="userSpaceOnUse" x1="6.35" y1="-199.125" x2="6.35" y2="-213.941666" gradientTransform="matrix(1.889764,0,0,1.889764,0,406.299234)">
<stop offset="0" style="stop-color:rgb(0%,0%,0%);stop-opacity:0.2;"/>
<stop offset="1" style="stop-color:rgb(100%,100%,100%);stop-opacity:0;"/>
</linearGradient>
</defs>
<g id="surface1">
<path style=" stroke:none;fill-rule:nonzero;fill:rgb(36.078432%,41.960785%,75.294119%);fill-opacity:1;" d="M 12.5 2 C 10.738281 2 9.316406 2.992188 9.316406 4.226562 C 9.316406 5.5 12.5 6.773438 9.316406 9 L 3.910156 9 C 2.851562 9 2 9.851562 2 10.910156 L 2 16.316406 C 4.226562 19.5 5.5 16.316406 6.773438 16.316406 C 8.007812 16.316406 9 17.738281 9 19.5 C 9 21.261719 8.007812 22.683594 6.773438 22.683594 C 5.5 22.683594 4.226562 19.5 2 22.683594 L 2 28.089844 C 2 29.148438 2.851562 30 3.910156 30 L 9.316406 30 C 12.5 27.773438 9.316406 26.5 9.316406 25.226562 C 9.316406 23.992188 10.738281 23 12.5 23 C 14.261719 23 15.683594 23.992188 15.683594 25.226562 C 15.683594 26.5 12.5 27.773438 15.683594 30 L 21.089844 30 C 22.148438 30 23 29.148438 23 28.089844 L 23 22.683594 C 25.226562 19.5 26.5 22.683594 27.773438 22.683594 C 29.007812 22.683594 30 21.261719 30 19.5 C 30 17.738281 29.007812 16.316406 27.773438 16.316406 C 26.5 16.316406 25.226562 19.5 23 16.316406 L 23 10.910156 C 23 9.851562 22.148438 9 21.089844 9 L 15.683594 9 C 12.5 6.773438 15.683594 5.5 15.683594 4.226562 C 15.683594 2.992188 14.261719 2 12.5 2 Z M 12.5 2 "/>
<path style=" stroke:none;fill-rule:nonzero;fill:rgb(100%,100%,100%);fill-opacity:0.4;" d="M 12.5 2 C 10.738281 2 9.320312 2.992188 9.320312 4.226562 C 9.320312 4.296875 9.328125 4.363281 9.347656 4.433594 C 9.550781 3.339844 10.878906 2.5 12.5 2.5 C 14.121094 2.5 15.449219 3.339844 15.652344 4.433594 C 15.671875 4.363281 15.679688 4.296875 15.679688 4.226562 C 15.679688 2.992188 14.261719 2 12.5 2 Z M 10.707031 7.304688 C 10.613281 7.808594 10.226562 8.363281 9.320312 9 L 3.910156 9 C 2.851562 9 2 9.851562 2 10.910156 L 2 11.410156 C 2 10.351562 2.851562 9.5 3.910156 9.5 L 9.320312 9.5 C 10.539062 8.644531 10.820312 7.933594 10.707031 7.304688 Z M 14.292969 7.304688 C 14.179688 7.933594 14.460938 8.644531 15.679688 9.5 L 21.089844 9.5 C 22.148438 9.5 23 10.351562 23 11.410156 L 23 10.910156 C 23 9.851562 22.148438 9 21.089844 9 L 15.679688 9 C 14.773438 8.363281 14.386719 7.808594 14.292969 7.304688 Z M 23 16.320312 L 23 16.820312 C 25.226562 20 26.5 16.820312 27.773438 16.820312 C 28.949219 16.820312 29.902344 18.105469 29.992188 19.75 C 29.996094 19.667969 30 19.585938 30 19.5 C 30 17.738281 29.007812 16.320312 27.773438 16.320312 C 26.5 16.320312 25.226562 19.5 23 16.320312 Z M 8.992188 19.75 C 8.902344 21.394531 7.949219 22.679688 6.773438 22.679688 C 5.5 22.679688 4.226562 19.5 2 22.679688 L 2 23.179688 C 4.226562 20 5.5 23.179688 6.773438 23.179688 C 8.007812 23.179688 9 21.761719 9 20 C 9 19.914062 8.996094 19.832031 8.992188 19.75 Z M 9.347656 25.433594 C 9.328125 25.53125 9.320312 25.628906 9.320312 25.726562 C 9.320312 26.511719 10.527344 27.296875 10.707031 28.304688 C 10.925781 27.140625 9.554688 26.277344 9.347656 25.433594 Z M 15.652344 25.433594 C 15.445312 26.277344 14.074219 27.140625 14.292969 28.304688 C 14.472656 27.296875 15.679688 26.511719 15.679688 25.726562 C 15.679688 25.628906 15.671875 25.53125 15.652344 25.433594 Z M 15.652344 25.433594 "/>
<path style=" stroke:none;fill-rule:nonzero;fill:rgb(0%,0%,0%);fill-opacity:0.4;" d="M 9.347656 3.933594 C 9.328125 4.03125 9.320312 4.128906 9.320312 4.226562 C 9.320312 5.011719 10.527344 5.796875 10.707031 6.804688 C 10.925781 5.640625 9.554688 4.777344 9.347656 3.933594 Z M 15.652344 3.933594 C 15.445312 4.777344 14.074219 5.640625 14.292969 6.804688 C 14.472656 5.796875 15.679688 5.011719 15.679688 4.226562 C 15.679688 4.128906 15.671875 4.03125 15.652344 3.933594 Z M 2 15.820312 L 2 16.320312 C 4.226562 19.5 5.5 16.320312 6.773438 16.320312 C 7.949219 16.320312 8.902344 17.605469 8.992188 19.25 C 8.996094 19.167969 9 19.085938 9 19 C 9 17.238281 8.007812 15.820312 6.773438 15.820312 C 5.5 15.820312 4.226562 19 2 15.820312 Z M 29.992188 19.25 C 29.902344 20.894531 28.949219 22.179688 27.773438 22.179688 C 26.5 22.179688 25.226562 19 23 22.179688 L 23 22.679688 C 25.226562 19.5 26.5 22.679688 27.773438 22.679688 C 29.007812 22.679688 30 21.261719 30 19.5 C 30 19.414062 29.996094 19.332031 29.992188 19.25 Z M 12.5 22.5 C 10.738281 22.5 9.320312 23.492188 9.320312 24.726562 C 9.320312 24.796875 9.328125 24.863281 9.347656 24.933594 C 9.550781 23.839844 10.878906 23 12.5 23 C 14.121094 23 15.449219 23.839844 15.652344 24.933594 C 15.671875 24.863281 15.679688 24.796875 15.679688 24.726562 C 15.679688 23.492188 14.261719 22.5 12.5 22.5 Z M 2 27.589844 L 2 28.089844 C 2 29.148438 2.851562 30 3.910156 30 L 9.320312 30 C 10.539062 29.144531 10.820312 28.433594 10.707031 27.804688 C 10.613281 28.308594 10.226562 28.863281 9.320312 29.5 L 3.910156 29.5 C 2.851562 29.5 2 28.648438 2 27.589844 Z M 23 27.589844 C 23 28.648438 22.148438 29.5 21.089844 29.5 L 15.679688 29.5 C 14.773438 28.863281 14.386719 28.308594 14.292969 27.804688 C 14.179688 28.433594 14.460938 29.144531 15.679688 30 L 21.089844 30 C 22.148438 30 23 29.148438 23 28.089844 Z M 23 27.589844 "/>
<path style=" stroke:none;fill-rule:nonzero;fill:rgb(0%,0%,0%);fill-opacity:0.2;" d="M 9.378906 4.539062 C 9.339844 4.683594 9.320312 4.828125 9.320312 4.976562 C 9.320312 5.726562 10.421875 6.476562 10.679688 7.421875 C 11.003906 6.25 9.679688 5.378906 9.378906 4.539062 Z M 15.621094 4.539062 C 15.320312 5.378906 13.996094 6.25 14.320312 7.421875 C 14.578125 6.476562 15.679688 5.726562 15.679688 4.976562 C 15.679688 4.828125 15.660156 4.683594 15.621094 4.539062 Z M 2 16.320312 L 2 17.070312 C 4.226562 20.25 5.5 17.070312 6.773438 17.070312 C 7.917969 17.070312 8.855469 18.289062 8.984375 19.875 C 8.996094 19.75 9 19.628906 9 19.5 C 9 17.738281 8.007812 16.320312 6.773438 16.320312 C 5.5 16.320312 4.226562 19.5 2 16.320312 Z M 29.984375 19.875 C 29.855469 21.460938 28.917969 22.679688 27.773438 22.679688 C 26.5 22.679688 25.226562 19.5 23 22.679688 L 23 23.429688 C 25.226562 20.25 26.5 23.429688 27.773438 23.429688 C 29.007812 23.429688 30 22.011719 30 20.25 C 30 20.121094 29.996094 20 29.984375 19.875 Z M 12.5 23 C 10.738281 23 9.320312 23.992188 9.320312 25.226562 C 9.320312 25.332031 9.339844 25.4375 9.378906 25.539062 C 9.667969 24.515625 10.949219 23.75 12.5 23.75 C 14.050781 23.75 15.332031 24.515625 15.621094 25.539062 C 15.660156 25.4375 15.679688 25.332031 15.679688 25.226562 C 15.679688 23.992188 14.261719 23 12.5 23 Z M 2 28.089844 L 2 28.839844 C 2 29.898438 2.851562 30.75 3.910156 30.75 L 9.320312 30.75 C 10.625 29.835938 10.859375 29.082031 10.679688 28.421875 C 10.546875 28.894531 10.15625 29.414062 9.320312 30 L 3.910156 30 C 2.851562 30 2 29.148438 2 28.089844 Z M 23 28.089844 C 23 29.148438 22.148438 30 21.089844 30 L 15.679688 30 C 14.84375 29.414062 14.453125 28.894531 14.320312 28.421875 C 14.140625 29.082031 14.375 29.835938 15.679688 30.75 L 21.089844 30.75 C 22.148438 30.75 23 29.898438 23 28.839844 Z M 23 28.089844 "/>
<path style=" stroke:none;fill-rule:nonzero;fill:url(#linear0);" d="M 12.5 2 C 10.738281 2 9.316406 2.992188 9.316406 4.226562 C 9.316406 5.5 12.5 6.773438 9.316406 9 L 3.910156 9 C 2.851562 9 2 9.851562 2 10.910156 L 2 16.316406 C 4.226562 19.5 5.5 16.316406 6.773438 16.316406 C 8.007812 16.316406 9 17.738281 9 19.5 C 9 21.261719 8.007812 22.683594 6.773438 22.683594 C 5.5 22.683594 4.226562 19.5 2 22.683594 L 2 28.089844 C 2 29.148438 2.851562 30 3.910156 30 L 9.316406 30 C 12.5 27.773438 9.316406 26.5 9.316406 25.226562 C 9.316406 23.992188 10.738281 23 12.5 23 C 14.261719 23 15.683594 23.992188 15.683594 25.226562 C 15.683594 26.5 12.5 27.773438 15.683594 30 L 21.089844 30 C 22.148438 30 23 29.148438 23 28.089844 L 23 22.683594 C 25.226562 19.5 26.5 22.683594 27.773438 22.683594 C 29.007812 22.683594 30 21.261719 30 19.5 C 30 17.738281 29.007812 16.316406 27.773438 16.316406 C 26.5 16.316406 25.226562 19.5 23 16.316406 L 23 10.910156 C 23 9.851562 22.148438 9 21.089844 9 L 15.683594 9 C 12.5 6.773438 15.683594 5.5 15.683594 4.226562 C 15.683594 2.992188 14.261719 2 12.5 2 Z M 12.5 2 "/>
</g>
</svg>
