
<svg xmlns="http://www.w3.org/2000/svg" xmlns:xlink="http://www.w3.org/1999/xlink" width="32" height="32" viewBox="0 0 32 32" version="1.1">
<defs>
<linearGradient id="linear0" gradientUnits="userSpaceOnUse" x1="8.466666" y1="-195.949997" x2="8.466666" y2="-212.883331" gradientTransform="matrix(1.889764,0,0,1.889764,-2,408.29923)">
<stop offset="0" style="stop-color:rgb(0%,0%,0%);stop-opacity:0.2;"/>
<stop offset="1" style="stop-color:rgb(100%,100%,100%);stop-opacity:0;"/>
</linearGradient>
<linearGradient id="linear1" gradientUnits="userSpaceOnUse" x1="8.466666" y1="-200.183334" x2="8.466666" y2="-207.59166" gradientTransform="matrix(1.889764,0,0,1.889764,0,406.299234)">
<stop offset="0" style="stop-color:rgb(0%,0%,0%);stop-opacity:0.2;"/>
<stop offset="1" style="stop-color:rgb(100%,100%,100%);stop-opacity:0;"/>
</linearGradient>
</defs>
<g id="surface1">
<path style=" stroke:none;fill-rule:nonzero;fill:rgb(1.176471%,60.784316%,89.803922%);fill-opacity:1;" d="M 16 3.257812 C 12.121094 3.257812 9 6.378906 9 10.257812 L 9 12.246094 C 9 12.25 9 12.253906 9 12.257812 C 9 12.535156 9.222656 12.757812 9.5 12.757812 C 9.777344 12.757812 10 12.535156 10 12.257812 C 10 12.253906 10 12.25 10 12.246094 L 10 10.257812 C 10 6.933594 12.675781 4.257812 16 4.257812 C 19.324219 4.257812 22 6.933594 22 10.257812 L 22 12.257812 C 22 12.535156 22.222656 12.757812 22.5 12.757812 C 22.777344 12.757812 23 12.535156 23 12.257812 C 23 12.253906 23 12.25 23 12.246094 L 23 10.257812 C 23 6.378906 19.878906 3.257812 16 3.257812 Z M 16 3.257812 "/>
<path style=" stroke:none;fill-rule:nonzero;fill:rgb(0%,0%,0%);fill-opacity:0.4;" d="M 15.945312 4 C 12.621094 4 9.945312 6.675781 9.945312 10 L 9.945312 11.988281 C 9.945312 11.992188 9.945312 11.996094 9.945312 12 C 9.945312 12.277344 9.722656 12.5 9.445312 12.5 C 9.25 12.5 9.082031 12.390625 9 12.226562 L 9 12.242188 C 9 12.246094 9 12.25 9 12.257812 C 9 12.535156 9.222656 12.757812 9.5 12.757812 C 9.777344 12.757812 10 12.535156 10 12.257812 C 10 12.253906 10 12.25 10 12.242188 L 10 10.257812 C 10 6.933594 12.675781 4.257812 16 4.257812 C 18.84375 4.257812 21.214844 6.21875 21.839844 8.867188 C 21.3125 6.089844 18.882812 4 15.945312 4 Z M 22.816406 8.648438 C 22.898438 9.085938 22.945312 9.539062 22.945312 10 L 22.945312 11.988281 C 22.945312 11.992188 22.945312 11.996094 22.945312 12 C 22.945312 12.277344 22.722656 12.5 22.445312 12.5 C 22.25 12.5 22.082031 12.390625 22 12.226562 L 22 12.257812 C 22 12.535156 22.222656 12.757812 22.5 12.757812 C 22.777344 12.757812 23 12.535156 23 12.257812 C 23 12.253906 23 12.25 23 12.242188 L 23 10.257812 C 23 9.703125 22.9375 9.164062 22.816406 8.648438 Z M 22.816406 8.648438 "/>
<path style=" stroke:none;fill-rule:nonzero;fill:rgb(100%,100%,100%);fill-opacity:0.4;" d="M 16 3.257812 C 12.121094 3.257812 9 6.378906 9 10.257812 L 9 10.507812 C 9 6.628906 12.121094 3.507812 16 3.507812 C 19.878906 3.507812 23 6.628906 23 10.507812 L 23 10.257812 C 23 6.378906 19.878906 3.257812 16 3.257812 Z M 16 3.257812 "/>
<path style=" stroke:none;fill-rule:nonzero;fill:rgb(61.960787%,61.960787%,61.960787%);fill-opacity:1;" d="M 5 5 L 27 5 C 28.105469 5 29 5.894531 29 7 L 29 26 C 29 27.105469 28.105469 28 27 28 L 5 28 C 3.894531 28 3 27.105469 3 26 L 3 7 C 3 5.894531 3.894531 5 5 5 Z M 5 5 "/>
<path style=" stroke:none;fill-rule:nonzero;fill:rgb(100%,100%,100%);fill-opacity:0.4;" d="M 5 5 C 3.890625 5 3 5.890625 3 7 L 3 7.25 C 3 6.140625 3.890625 5.25 5 5.25 L 27 5.25 C 28.109375 5.25 29 6.140625 29 7.25 L 29 7 C 29 5.890625 28.109375 5 27 5 Z M 5 5 "/>
<path style=" stroke:none;fill-rule:nonzero;fill:rgb(87.843138%,87.843138%,87.843138%);fill-opacity:1;" d="M 4 6 L 28 6 C 29.105469 6 30 6.894531 30 8 L 30 28 C 30 29.105469 29.105469 30 28 30 L 4 30 C 2.894531 30 2 29.105469 2 28 L 2 8 C 2 6.894531 2.894531 6 4 6 Z M 4 6 "/>
<path style=" stroke:none;fill-rule:nonzero;fill:url(#linear0);" d="M 4 6 L 28 6 C 29.105469 6 30 6.894531 30 8 L 30 28 C 30 29.105469 29.105469 30 28 30 L 4 30 C 2.894531 30 2 29.105469 2 28 L 2 8 C 2 6.894531 2.894531 6 4 6 Z M 4 6 "/>
<path style=" stroke:none;fill-rule:nonzero;fill:rgb(100%,100%,100%);fill-opacity:0.4;" d="M 4 6 C 2.890625 6 2 6.890625 2 8 L 2 8.265625 C 2 7.15625 2.890625 6.265625 4 6.265625 L 28 6.265625 C 29.109375 6.265625 30 7.15625 30 8.265625 L 30 8 C 30 6.890625 29.109375 6 28 6 Z M 4 6 "/>
<path style=" stroke:none;fill-rule:nonzero;fill:rgb(0.392157%,0.392157%,0.392157%);fill-opacity:0.4;" d="M 4 29.996094 C 2.890625 29.996094 2 29.105469 2 27.996094 L 2 27.511719 C 2 28.621094 2.890625 29.511719 4 29.511719 L 28 29.511719 C 29.109375 29.511719 30 28.621094 30 27.511719 L 30 27.996094 C 30 29.105469 29.109375 29.996094 28 29.996094 Z M 4 29.996094 "/>
<path style=" stroke:none;fill-rule:nonzero;fill:rgb(0%,0%,0%);fill-opacity:0.2;" d="M 2 28 L 2 28.75 C 2 29.859375 2.890625 30.75 4 30.75 L 28 30.75 C 29.109375 30.75 30 29.859375 30 28.75 L 30 28 C 30 29.109375 29.109375 30 28 30 L 4 30 C 2.890625 30 2 29.109375 2 28 Z M 2 28 "/>
<path style=" stroke:none;fill-rule:nonzero;fill:rgb(0%,0%,0%);fill-opacity:0.4;" d="M 22.5 9.75 C 23.191406 9.75 23.75 10.3125 23.75 11 C 23.75 11.691406 23.191406 12.25 22.5 12.25 C 21.808594 12.25 21.25 11.691406 21.25 11 C 21.25 10.3125 21.808594 9.75 22.5 9.75 Z M 22.5 9.75 "/>
<path style=" stroke:none;fill-rule:nonzero;fill:rgb(0%,0%,0%);fill-opacity:0.4;" d="M 22.46875 9.75 C 21.789062 9.769531 21.25 10.320312 21.25 11 C 21.25 11.042969 21.253906 11.085938 21.257812 11.125 C 21.320312 10.492188 21.851562 10 22.5 10 C 23.148438 10 23.679688 10.492188 23.742188 11.125 C 23.746094 11.085938 23.75 11.042969 23.75 11 C 23.75 10.308594 23.191406 9.75 22.5 9.75 C 22.488281 9.75 22.480469 9.75 22.46875 9.75 Z M 22.46875 9.75 "/>
<path style=" stroke:none;fill-rule:nonzero;fill:rgb(100%,100%,100%);fill-opacity:0.4;" d="M 22.46875 12.5 C 21.789062 12.484375 21.25 11.933594 21.25 11.25 C 21.25 11.207031 21.253906 11.167969 21.257812 11.125 C 21.320312 11.757812 21.851562 12.25 22.5 12.25 C 23.148438 12.25 23.679688 11.757812 23.742188 11.125 C 23.746094 11.167969 23.75 11.207031 23.75 11.25 C 23.75 11.945312 23.191406 12.5 22.5 12.5 C 22.488281 12.5 22.480469 12.5 22.46875 12.5 Z M 22.46875 12.5 "/>
<path style=" stroke:none;fill-rule:nonzero;fill:rgb(0%,0%,0%);fill-opacity:0.4;" d="M 9.5 9.75 C 10.191406 9.75 10.75 10.3125 10.75 11 C 10.75 11.691406 10.191406 12.25 9.5 12.25 C 8.808594 12.25 8.25 11.691406 8.25 11 C 8.25 10.3125 8.808594 9.75 9.5 9.75 Z M 9.5 9.75 "/>
<path style=" stroke:none;fill-rule:nonzero;fill:rgb(0%,0%,0%);fill-opacity:0.4;" d="M 9.46875 9.75 C 8.789062 9.769531 8.25 10.320312 8.25 11 C 8.25 11.042969 8.253906 11.085938 8.257812 11.125 C 8.320312 10.492188 8.851562 10 9.5 10 C 10.148438 10 10.679688 10.492188 10.742188 11.125 C 10.746094 11.085938 10.75 11.042969 10.75 11 C 10.75 10.308594 10.191406 9.75 9.5 9.75 C 9.488281 9.75 9.480469 9.75 9.46875 9.75 Z M 9.46875 9.75 "/>
<path style=" stroke:none;fill-rule:nonzero;fill:rgb(100%,100%,100%);fill-opacity:0.4;" d="M 9.46875 12.5 C 8.789062 12.484375 8.25 11.933594 8.25 11.25 C 8.25 11.207031 8.253906 11.167969 8.257812 11.125 C 8.320312 11.757812 8.851562 12.25 9.5 12.25 C 10.148438 12.25 10.679688 11.757812 10.742188 11.125 C 10.746094 11.167969 10.75 11.207031 10.75 11.25 C 10.75 11.945312 10.191406 12.5 9.5 12.5 C 9.488281 12.5 9.480469 12.5 9.46875 12.5 Z M 9.46875 12.5 "/>
<path style=" stroke:none;fill-rule:nonzero;fill:rgb(16.078432%,71.372551%,96.470588%);fill-opacity:1;" d="M 16 2 C 12.121094 2 9 5.121094 9 9 L 9 10.988281 C 9 10.992188 9 10.996094 9 11 C 9 11.277344 9.222656 11.5 9.5 11.5 C 9.777344 11.5 10 11.277344 10 11 C 10 10.996094 10 10.992188 10 10.988281 L 10 9 C 10 5.675781 12.675781 3 16 3 C 19.324219 3 22 5.675781 22 9 L 22 11 C 22 11.277344 22.222656 11.5 22.5 11.5 C 22.777344 11.5 23 11.277344 23 11 C 23 10.996094 23 10.992188 23 10.988281 L 23 9 C 23 5.121094 19.878906 2 16 2 Z M 16 2 "/>
<path style=" stroke:none;fill-rule:nonzero;fill:rgb(100%,100%,100%);fill-opacity:0.4;" d="M 16 2 C 12.121094 2 9 5.121094 9 9 L 9 9.25 C 9 5.371094 12.121094 2.25 16 2.25 C 19.878906 2.25 23 5.371094 23 9.25 L 23 9 C 23 5.121094 19.878906 2 16 2 Z M 16 2 "/>
<path style=" stroke:none;fill-rule:nonzero;fill:rgb(0%,0%,0%);fill-opacity:0.4;" d="M 15.945312 2.75 C 12.621094 2.75 9.945312 5.425781 9.945312 8.75 L 9.945312 10.738281 C 9.945312 10.742188 9.945312 10.746094 9.945312 10.75 C 9.945312 11.027344 9.722656 11.25 9.445312 11.25 C 9.25 11.25 9.082031 11.140625 9 10.976562 L 9 10.996094 C 9 11 9 11.003906 9 11.007812 C 9 11.285156 9.222656 11.507812 9.5 11.507812 C 9.777344 11.507812 10 11.285156 10 11.007812 C 10 11.003906 10 11 10 10.996094 L 10 9.007812 C 10 5.683594 12.675781 3.007812 16 3.007812 C 18.84375 3.007812 21.214844 4.96875 21.839844 7.617188 C 21.3125 4.839844 18.882812 2.75 15.945312 2.75 Z M 22.816406 7.402344 C 22.898438 7.835938 22.945312 8.289062 22.945312 8.75 L 22.945312 10.738281 C 22.945312 10.742188 22.945312 10.746094 22.945312 10.75 C 22.945312 11.027344 22.722656 11.25 22.445312 11.25 C 22.25 11.25 22.082031 11.140625 22 10.976562 L 22 11.007812 C 22 11.285156 22.222656 11.507812 22.5 11.507812 C 22.777344 11.507812 23 11.285156 23 11.007812 C 23 11.003906 23 11 23 10.996094 L 23 9.007812 C 23 8.453125 22.9375 7.914062 22.816406 7.398438 Z M 22.816406 7.402344 "/>
<path style=" stroke:none;fill-rule:nonzero;fill:url(#linear1);" d="M 2 14 L 30 14 L 30 26 L 2 26 Z M 2 14 "/>
</g>
</svg>
