
<svg xmlns="http://www.w3.org/2000/svg" xmlns:xlink="http://www.w3.org/1999/xlink" width="32" height="32" viewBox="0 0 32 32" version="1.1">
<defs>
<linearGradient id="linear0" gradientUnits="userSpaceOnUse" x1="10.054166" y1="-199.125" x2="10.054166" y2="-213.941666" gradientTransform="matrix(1.889764,0,0,1.889764,-0.000630777,406.299234)">
<stop offset="0" style="stop-color:rgb(0%,0%,0%);stop-opacity:0.2;"/>
<stop offset="1" style="stop-color:rgb(100%,100%,100%);stop-opacity:0;"/>
</linearGradient>
</defs>
<g id="surface1">
<path style=" stroke:none;fill-rule:nonzero;fill:rgb(25.882354%,64.705884%,96.078432%);fill-opacity:1;" d="M 4 2 L 28 2 C 29.105469 2 30 2.894531 30 4 L 30 28 C 30 29.105469 29.105469 30 28 30 L 4 30 C 2.894531 30 2 29.105469 2 28 L 2 4 C 2 2.894531 2.894531 2 4 2 Z M 4 2 "/>
<path style=" stroke:none;fill-rule:nonzero;fill:rgb(0%,0%,0%);fill-opacity:0.4;" d="M 2 27.5 L 2 28 C 2 29.109375 2.890625 30 4 30 L 28 30 C 29.109375 30 30 29.109375 30 28 L 30 27.5 C 30 28.609375 29.109375 29.5 28 29.5 L 4 29.5 C 2.890625 29.5 2 28.609375 2 27.5 Z M 2 27.5 "/>
<path style=" stroke:none;fill-rule:nonzero;fill:rgb(0%,0%,0%);fill-opacity:0.2;" d="M 2 28 L 2 28.75 C 2 29.859375 2.890625 30.75 4 30.75 L 28 30.75 C 29.109375 30.75 30 29.859375 30 28.75 L 30 28 C 30 29.109375 29.109375 30 28 30 L 4 30 C 2.890625 30 2 29.109375 2 28 Z M 2 28 "/>
<path style=" stroke:none;fill-rule:nonzero;fill:rgb(100%,100%,100%);fill-opacity:0.4;" d="M 4 2 C 2.890625 2 2 2.890625 2 4 L 2 4.492188 C 2 3.382812 2.890625 2.492188 4 2.492188 L 28 2.492188 C 29.109375 2.492188 30 3.382812 30 4.492188 L 30 4 C 30 2.890625 29.109375 2 28 2 Z M 4 2 "/>
<path style=" stroke:none;fill-rule:nonzero;fill:rgb(93.333334%,93.333334%,93.333334%);fill-opacity:1;" d="M 16 7 L 6 17 L 9 17 L 9 23 C 9 24.109375 9.890625 25 11 25 L 21 25 C 21.5625 25 22.066406 24.769531 22.429688 24.402344 C 22.347656 24.375 22.273438 24.339844 22.195312 24.296875 L 18.914062 22.40625 C 18.085938 23.015625 17.128906 23.5 16.019531 23.5 C 13.257812 23.5 11.015625 21.261719 11.015625 18.5 C 11.015625 15.738281 13.257812 13.5 16.019531 13.5 C 18.78125 13.5 21.019531 15.738281 21.019531 18.5 C 21.019531 19.023438 20.875 19.507812 20.726562 19.984375 L 23 21.296875 L 23 17 L 26 17 L 22 13 L 22 9 L 20 9 L 20 11 Z M 16.019531 14 C 13.527344 14 11.519531 16.007812 11.519531 18.5 C 11.519531 20.992188 13.527344 23 16.019531 23 C 17.164062 23 18.207031 22.574219 19 21.875 L 22.445312 23.867188 C 22.804688 24.074219 23.265625 23.953125 23.472656 23.59375 L 23.722656 23.15625 C 23.929688 22.796875 23.804688 22.339844 23.445312 22.132812 L 20.171875 20.242188 C 20.394531 19.707031 20.519531 19.117188 20.519531 18.5 C 20.519531 16.007812 18.511719 14 16.019531 14 Z M 16.019531 15 C 17.957031 15 19.519531 16.5625 19.519531 18.5 C 19.519531 20.4375 17.957031 22 16.019531 22 C 14.078125 22 12.519531 20.4375 12.519531 18.5 C 12.519531 16.5625 14.078125 15 16.019531 15 Z M 16.019531 15.5 C 14.355469 15.5 13.019531 16.839844 13.019531 18.5 L 14.019531 18.5 C 14.019531 17.390625 14.910156 16.5 16.019531 16.5 Z M 16.019531 15.5 "/>
<path style=" stroke:none;fill-rule:nonzero;fill:rgb(100%,100%,100%);fill-opacity:0.6;" d="M 16 7 L 6 17 L 6.5 17 L 16 7.5 L 20 11.5 L 20 11 Z M 20 9 L 20 9.5 L 22 9.5 L 22 9 Z M 22 13 L 22 13.5 L 25.5 17 L 26 17 Z M 16.019531 14 C 15.992188 14 15.964844 14.003906 15.9375 14.003906 C 15.8125 14.007812 15.691406 14.011719 15.570312 14.023438 C 15.5625 14.023438 15.558594 14.023438 15.554688 14.023438 C 13.28125 14.257812 11.519531 16.164062 11.519531 18.5 C 11.519531 18.570312 11.527344 18.636719 11.53125 18.707031 C 11.679688 16.351562 13.625 14.5 16.019531 14.5 C 18.414062 14.5 20.359375 16.351562 20.507812 18.710938 C 20.511719 18.640625 20.519531 18.570312 20.519531 18.5 C 20.519531 16.019531 18.53125 14.023438 16.058594 14 C 16.046875 14 16.03125 14 16.019531 14 Z M 16.019531 15.5 C 14.355469 15.5 13.019531 16.839844 13.019531 18.5 L 13.0625 18.5 C 13.296875 17.078125 14.527344 16 16.019531 16 Z M 21.007812 18.675781 C 20.980469 19.132812 20.855469 19.5625 20.726562 19.984375 L 20.851562 20.054688 C 20.949219 19.714844 21.019531 19.367188 21.019531 19 C 21.019531 18.890625 21.015625 18.78125 21.007812 18.675781 Z M 11.027344 18.699219 C 11.023438 18.796875 11.015625 18.898438 11.015625 19 C 11.015625 21.761719 13.257812 24 16.019531 24 C 17.128906 24 18.085938 23.515625 18.914062 22.90625 L 22.039062 24.707031 C 22.183594 24.621094 22.3125 24.519531 22.429688 24.402344 C 22.347656 24.375 22.273438 24.339844 22.195312 24.296875 L 18.945312 22.421875 C 18.160156 23.09375 17.140625 23.5 16.019531 23.5 C 15.871094 23.5 15.722656 23.492188 15.578125 23.476562 C 15.503906 23.472656 15.429688 23.460938 15.355469 23.453125 C 15.335938 23.449219 15.320312 23.445312 15.300781 23.441406 C 12.945312 23.101562 11.125 21.125 11.027344 18.699219 Z M 12.53125 18.730469 C 12.523438 18.820312 12.519531 18.910156 12.519531 19 C 12.519531 20.9375 14.078125 22.5 16.019531 22.5 C 17.957031 22.5 19.519531 20.9375 19.519531 19 C 19.519531 18.910156 19.511719 18.820312 19.507812 18.730469 C 19.390625 20.558594 17.878906 22 16.019531 22 C 14.15625 22 12.648438 20.558594 12.53125 18.730469 Z M 20.320312 20.328125 C 20.277344 20.46875 20.226562 20.605469 20.171875 20.742188 L 23.445312 22.632812 C 23.609375 22.726562 23.71875 22.871094 23.777344 23.03125 C 23.898438 22.699219 23.765625 22.316406 23.445312 22.132812 Z M 20.320312 20.328125 "/>
<path style=" stroke:none;fill-rule:nonzero;fill:rgb(0%,0%,0%);fill-opacity:0.4;" d="M 16.019531 13.5 C 13.257812 13.5 11.015625 15.738281 11.015625 18.5 C 11.015625 18.582031 11.019531 18.660156 11.023438 18.742188 C 11.152344 16.257812 13.09375 14.25 15.554688 14.023438 C 15.554688 14.023438 15.554688 14.023438 15.558594 14.023438 C 15.710938 14.007812 15.863281 14 16.019531 14 C 16.105469 14 16.191406 14.003906 16.273438 14.007812 C 16.28125 14.007812 16.289062 14.007812 16.296875 14.007812 C 18.832031 14.148438 20.867188 16.175781 21.011719 18.714844 C 21.015625 18.644531 21.019531 18.570312 21.019531 18.5 C 21.019531 15.738281 18.78125 13.5 16.019531 13.5 Z M 16.019531 15 C 14.078125 15 12.519531 16.5625 12.519531 18.5 C 12.519531 18.585938 12.523438 18.667969 12.527344 18.75 C 12.652344 16.980469 14.078125 15.582031 15.859375 15.503906 C 15.859375 15.503906 15.863281 15.503906 15.863281 15.503906 C 15.914062 15.5 15.964844 15.5 16.019531 15.5 C 17.875 15.5 19.382812 16.929688 19.507812 18.75 C 19.515625 18.667969 19.519531 18.585938 19.519531 18.5 C 19.519531 16.5625 17.957031 15 16.019531 15 Z M 16.019531 16.5 C 14.910156 16.5 14.019531 17.390625 14.019531 18.5 L 13.0625 18.5 C 13.035156 18.664062 13.019531 18.828125 13.019531 19 L 14.019531 19 C 14.019531 17.890625 14.910156 17 16.019531 17 Z M 6.5 17 L 6 17.5 L 9 17.5 L 9 17 Z M 23 17 L 23 17.5 L 26 17.5 L 25.5 17 Z M 11.523438 18.75 C 11.519531 18.832031 11.519531 18.917969 11.519531 19 C 11.519531 21.414062 13.398438 23.371094 15.78125 23.492188 C 15.78125 23.492188 15.785156 23.492188 15.785156 23.492188 C 15.863281 23.496094 15.941406 23.5 16.019531 23.5 C 17.128906 23.5 18.085938 23.015625 18.914062 22.40625 L 18.945312 22.421875 C 18.964844 22.40625 18.980469 22.390625 19 22.375 L 22.445312 24.367188 C 22.804688 24.574219 23.265625 24.453125 23.472656 24.09375 L 23.722656 23.65625 C 23.835938 23.460938 23.847656 23.234375 23.777344 23.03125 C 23.761719 23.074219 23.746094 23.117188 23.722656 23.15625 L 23.472656 23.59375 C 23.265625 23.953125 22.804688 24.074219 22.445312 23.867188 L 19 21.875 C 18.207031 22.574219 17.164062 23 16.019531 23 C 13.609375 23 11.652344 21.125 11.523438 18.75 Z M 20.511719 18.75 C 20.484375 19.277344 20.363281 19.78125 20.171875 20.242188 L 20.320312 20.328125 C 20.449219 19.910156 20.519531 19.460938 20.519531 19 C 20.519531 18.917969 20.515625 18.832031 20.511719 18.75 Z M 20.851562 20.054688 C 20.8125 20.199219 20.769531 20.339844 20.726562 20.484375 L 23 21.796875 L 23 21.296875 Z M 9 23 L 9 23.5 C 9 24.609375 9.890625 25.5 11 25.5 L 21 25.5 C 21.5625 25.5 22.066406 25.269531 22.429688 24.902344 C 22.347656 24.875 22.273438 24.839844 22.195312 24.796875 L 22.042969 24.707031 C 21.738281 24.894531 21.382812 25 21 25 L 11 25 C 9.890625 25 9 24.109375 9 23 Z M 9 23 "/>
<path style=" stroke:none;fill-rule:nonzero;fill:url(#linear0);" d="M 4 2 L 28 2 C 29.105469 2 30 2.894531 30 4 L 30 28 C 30 29.105469 29.105469 30 28 30 L 4 30 C 2.894531 30 2 29.105469 2 28 L 2 4 C 2 2.894531 2.894531 2 4 2 Z M 4 2 "/>
</g>
</svg>
