
<svg xmlns="http://www.w3.org/2000/svg" xmlns:xlink="http://www.w3.org/1999/xlink" width="32" height="32" viewBox="0 0 32 32" version="1.1">
<defs>
<linearGradient id="linear0" gradientUnits="userSpaceOnUse" x1="8.466666" y1="-199.125" x2="8.466666" y2="-213.941666" gradientTransform="matrix(1.889764,0,0,1.889764,-0.00000598304,406.299234)">
<stop offset="0" style="stop-color:rgb(0%,0%,0%);stop-opacity:0.2;"/>
<stop offset="1" style="stop-color:rgb(100%,100%,100%);stop-opacity:0;"/>
</linearGradient>
</defs>
<g id="surface1">
<path style=" stroke:none;fill-rule:nonzero;fill:rgb(25.882354%,64.705884%,96.078432%);fill-opacity:1;" d="M 4 2 L 28 2 C 29.105469 2 30 2.894531 30 4 L 30 28 C 30 29.105469 29.105469 30 28 30 L 4 30 C 2.894531 30 2 29.105469 2 28 L 2 4 C 2 2.894531 2.894531 2 4 2 Z M 4 2 "/>
<path style=" stroke:none;fill-rule:nonzero;fill:rgb(40.000001%,73.333335%,41.568628%);fill-opacity:1;" d="M 29.414062 2.585938 L 2.585938 29.414062 C 2.945312 29.777344 3.445312 30 4 30 L 28 30 C 29.109375 30 30 29.109375 30 28 L 30 4 C 30 3.445312 29.777344 2.945312 29.414062 2.585938 Z M 29.414062 2.585938 "/>
<path style=" stroke:none;fill-rule:nonzero;fill:rgb(93.333334%,93.333334%,93.333334%);fill-opacity:1;" d="M 27.171875 2 L 2 27.171875 L 2 28 C 2 29.109375 2.890625 30 4 30 L 4.828125 30 L 16 18.828125 L 27.171875 30 L 28 30 C 29.109375 30 30 29.109375 30 28 L 30 27.171875 L 18.828125 16 L 30 4.828125 L 30 4 C 30 2.890625 29.109375 2 28 2 Z M 27.171875 2 "/>
<path style=" stroke:none;fill-rule:nonzero;fill:rgb(0%,0%,0%);fill-opacity:0.4;" d="M 27.171875 2 L 2 27.171875 L 2 27.671875 L 27.171875 2.5 L 28 2.5 C 29.109375 2.5 30 3.390625 30 4.5 L 30 4 C 30 2.890625 29.109375 2 28 2 Z M 19.078125 16.25 L 18.828125 16.5 L 30 27.671875 L 30 27.171875 Z M 19.078125 16.25 "/>
<path style=" stroke:none;fill-rule:nonzero;fill:rgb(0%,0%,0%);fill-opacity:0.4;" d="M 2 27.5 L 2 28 C 2 29.109375 2.890625 30 4 30 L 28 30 C 29.109375 30 30 29.109375 30 28 L 30 27.5 C 30 28.609375 29.109375 29.5 28 29.5 L 4 29.5 C 2.890625 29.5 2 28.609375 2 27.5 Z M 2 27.5 "/>
<path style=" stroke:none;fill-rule:nonzero;fill:rgb(0%,0%,0%);fill-opacity:0.2;" d="M 2 28 L 2 28.75 C 2 29.859375 2.890625 30.75 4 30.75 L 28 30.75 C 29.109375 30.75 30 29.859375 30 28.75 L 30 28 C 30 29.109375 29.109375 30 28 30 L 4 30 C 2.890625 30 2 29.109375 2 28 Z M 2 28 "/>
<path style=" stroke:none;fill-rule:nonzero;fill:rgb(100%,100%,100%);fill-opacity:0.4;" d="M 4 2 C 2.890625 2 2 2.890625 2 4 L 2 4.492188 C 2 3.382812 2.890625 2.492188 4 2.492188 L 28 2.492188 C 29.109375 2.492188 30 3.382812 30 4.492188 L 30 4 C 30 2.890625 29.109375 2 28 2 Z M 4 2 "/>
<path style=" stroke:none;fill-rule:nonzero;fill:rgb(95.686275%,26.274511%,21.176471%);fill-opacity:1;" d="M 15.9375 4 C 13.195312 4.035156 11 6.25 11 9 C 11 12 13.8125 13.1875 16 16 C 18 13 21.019531 11.945312 21 9 C 21 6.230469 18.769531 4 16 4 C 15.976562 4 15.957031 4 15.9375 4 Z M 16 7 C 17.109375 7 18 7.890625 18 9 C 18 10.109375 17.109375 11 16 11 C 14.890625 11 14 10.109375 14 9 C 14 7.890625 14.890625 7 16 7 Z M 16 7 "/>
<path style=" stroke:none;fill-rule:nonzero;fill:rgb(100%,100%,100%);fill-opacity:0.4;" d="M 15.9375 4 C 13.195312 4.035156 11 6.25 11 9 C 11 9.082031 11.003906 9.164062 11.007812 9.242188 C 11.140625 6.613281 13.28125 4.535156 15.9375 4.5 C 15.957031 4.5 15.976562 4.5 16 4.5 C 18.6875 4.5 20.867188 6.597656 20.992188 9.253906 C 20.996094 9.171875 21 9.085938 21 9 C 21 6.230469 18.769531 4 16 4 C 15.976562 4 15.957031 4 15.9375 4 Z M 14.015625 9.246094 C 14.007812 9.328125 14 9.414062 14 9.5 C 14 10.609375 14.890625 11.5 16 11.5 C 17.109375 11.5 18 10.609375 18 9.5 C 18 9.414062 17.992188 9.328125 17.984375 9.246094 C 17.863281 10.238281 17.023438 11 16 11 C 14.976562 11 14.136719 10.238281 14.015625 9.246094 Z M 14.015625 9.246094 "/>
<path style=" stroke:none;fill-rule:nonzero;fill:rgb(0%,0%,0%);fill-opacity:0.4;" d="M 16 7 C 14.890625 7 14 7.890625 14 9 C 14 9.085938 14.007812 9.167969 14.015625 9.25 C 14.140625 8.261719 14.976562 7.5 16 7.5 C 17.023438 7.5 17.859375 8.261719 17.984375 9.25 C 17.992188 9.167969 18 9.085938 18 9 C 18 7.890625 17.109375 7 16 7 Z M 11.007812 9.25 C 11.003906 9.332031 11 9.414062 11 9.5 C 11 12.5 13.8125 13.6875 16 16.5 C 18 13.5 21.019531 12.445312 21 9.5 C 21 9.417969 20.996094 9.335938 20.992188 9.257812 C 20.84375 12.007812 17.941406 13.089844 16 16 C 13.875 13.265625 11.15625 12.066406 11.007812 9.25 Z M 11.007812 9.25 "/>
<path style=" stroke:none;fill-rule:nonzero;fill:rgb(100%,100%,100%);fill-opacity:0.4;" d="M 30 4.828125 L 18.828125 16 L 19.078125 16.25 L 30 5.328125 Z M 16 18.828125 L 4.828125 30 L 5.328125 30 L 16 19.328125 L 26.671875 30 L 27.171875 30 Z M 2.15625 28.78125 C 2.207031 28.898438 2.269531 29.015625 2.339844 29.121094 C 2.269531 29.015625 2.207031 28.898438 2.15625 28.78125 Z M 2.339844 29.121094 C 2.414062 29.226562 2.496094 29.324219 2.585938 29.414062 C 2.496094 29.324219 2.414062 29.226562 2.339844 29.121094 Z M 2.585938 29.414062 C 2.675781 29.503906 2.773438 29.585938 2.878906 29.660156 C 2.773438 29.585938 2.675781 29.503906 2.585938 29.414062 Z M 2.878906 29.660156 C 2.984375 29.730469 3.101562 29.792969 3.21875 29.84375 C 3.101562 29.792969 2.984375 29.730469 2.878906 29.660156 Z M 29.84375 28.78125 C 29.792969 28.898438 29.730469 29.015625 29.660156 29.121094 C 29.730469 29.015625 29.792969 28.898438 29.84375 28.78125 Z M 29.660156 29.121094 C 29.585938 29.226562 29.503906 29.324219 29.414062 29.414062 C 29.503906 29.324219 29.585938 29.226562 29.660156 29.121094 Z M 29.414062 29.414062 C 29.324219 29.503906 29.226562 29.585938 29.121094 29.660156 C 29.226562 29.585938 29.324219 29.503906 29.414062 29.414062 Z M 29.121094 29.660156 C 29.015625 29.730469 28.898438 29.792969 28.78125 29.84375 C 28.898438 29.792969 29.015625 29.730469 29.121094 29.660156 Z M 29.121094 29.660156 "/>
<path style=" stroke:none;fill-rule:nonzero;fill:url(#linear0);" d="M 4 2 L 28 2 C 29.105469 2 30 2.894531 30 4 L 30 28 C 30 29.105469 29.105469 30 28 30 L 4 30 C 2.894531 30 2 29.105469 2 28 L 2 4 C 2 2.894531 2.894531 2 4 2 Z M 4 2 "/>
</g>
</svg>
