
<svg xmlns="http://www.w3.org/2000/svg" xmlns:xlink="http://www.w3.org/1999/xlink" width="32" height="32" viewBox="0 0 32 32" version="1.1">
<defs>
<linearGradient id="linear0" gradientUnits="userSpaceOnUse" x1="34" y1="57.999996" x2="34" y2="8" gradientTransform="matrix(0.5,0,0,0.5,0.000000340157,0)">
<stop offset="0" style="stop-color:rgb(0%,0%,0%);stop-opacity:0.2;"/>
<stop offset="1" style="stop-color:rgb(100%,100%,100%);stop-opacity:0;"/>
</linearGradient>
</defs>
<g id="surface1">
<path style=" stroke:none;fill-rule:nonzero;fill:rgb(47.058824%,56.470591%,61.176473%);fill-opacity:0.996078;" d="M 11 22 L 18 22 C 18.550781 22 19 22.449219 19 23 L 19 25 C 19 25.550781 18.550781 26 18 26 L 11 26 C 10.449219 26 10 25.550781 10 25 L 10 23 C 10 22.449219 10.449219 22 11 22 Z M 11 22 "/>
<path style=" stroke:none;fill-rule:nonzero;fill:rgb(37.64706%,49.019608%,54.509807%);fill-opacity:0.996078;" d="M 22 22 L 25 22 C 25.550781 22 26 22.449219 26 23 L 26 25 C 26 25.550781 25.550781 26 25 26 L 22 26 C 21.449219 26 21 25.550781 21 25 L 21 23 C 21 22.449219 21.449219 22 22 22 Z M 22 22 "/>
<path style=" stroke:none;fill-rule:nonzero;fill:rgb(47.058824%,56.470591%,61.176473%);fill-opacity:0.996078;" d="M 7 8 L 28 8 C 29.105469 8 30 8.894531 30 10 L 30 22 C 30 23.105469 29.105469 24 28 24 L 7 24 C 5.894531 24 5 23.105469 5 22 L 5 10 C 5 8.894531 5.894531 8 7 8 Z M 7 8 "/>
<path style=" stroke:none;fill-rule:nonzero;fill:rgb(38.039216%,38.039216%,38.039216%);fill-opacity:1;" d="M 6.5 14.5 L 8.5 14.5 C 8.777344 14.5 9 14.722656 9 15 L 9 17 C 9 17.277344 8.777344 17.5 8.5 17.5 L 6.5 17.5 C 6.222656 17.5 6 17.277344 6 17 L 6 15 C 6 14.722656 6.222656 14.5 6.5 14.5 Z M 6.5 14.5 "/>
<path style=" stroke:none;fill-rule:nonzero;fill:rgb(100%,100%,100%);fill-opacity:0.4;" d="M 6.5 14.5 C 6.222656 14.5 6 14.722656 6 15 L 6 15.5 C 6 15.222656 6.222656 15 6.5 15 L 8.5 15 C 8.777344 15 9 15.222656 9 15.5 L 9 15 C 9 14.722656 8.777344 14.5 8.5 14.5 Z M 6.5 14.5 "/>
<path style=" stroke:none;fill-rule:nonzero;fill:rgb(0.392157%,0.392157%,0.392157%);fill-opacity:0.4;" d="M 6.5 18 C 6.222656 18 6 17.777344 6 17.5 L 6 17 C 6 17.277344 6.222656 17.5 6.5 17.5 L 8.5 17.5 C 8.777344 17.5 9 17.277344 9 17 L 9 17.5 C 9 17.777344 8.777344 18 8.5 18 Z M 6.5 18 "/>
<path style=" stroke:none;fill-rule:nonzero;fill:rgb(38.039216%,38.039216%,38.039216%);fill-opacity:1;" d="M 6.5 19 L 8.5 19 C 8.777344 19 9 19.222656 9 19.5 L 9 21.5 C 9 21.777344 8.777344 22 8.5 22 L 6.5 22 C 6.222656 22 6 21.777344 6 21.5 L 6 19.5 C 6 19.222656 6.222656 19 6.5 19 Z M 6.5 19 "/>
<path style=" stroke:none;fill-rule:nonzero;fill:rgb(100%,100%,100%);fill-opacity:0.4;" d="M 6.5 19 C 6.222656 19 6 19.222656 6 19.5 L 6 20 C 6 19.722656 6.222656 19.5 6.5 19.5 L 8.5 19.5 C 8.777344 19.5 9 19.722656 9 20 L 9 19.5 C 9 19.222656 8.777344 19 8.5 19 Z M 6.5 19 "/>
<path style=" stroke:none;fill-rule:nonzero;fill:rgb(0.392157%,0.392157%,0.392157%);fill-opacity:0.4;" d="M 6.5 22.5 C 6.222656 22.5 6 22.277344 6 22 L 6 21.5 C 6 21.777344 6.222656 22 6.5 22 L 8.5 22 C 8.777344 22 9 21.777344 9 21.5 L 9 22 C 9 22.277344 8.777344 22.5 8.5 22.5 Z M 6.5 22.5 "/>
<path style=" stroke:none;fill-rule:nonzero;fill:rgb(38.039216%,38.039216%,38.039216%);fill-opacity:1;" d="M 6.5 10 L 8.5 10 C 8.777344 10 9 10.222656 9 10.5 L 9 12.5 C 9 12.777344 8.777344 13 8.5 13 L 6.5 13 C 6.222656 13 6 12.777344 6 12.5 L 6 10.5 C 6 10.222656 6.222656 10 6.5 10 Z M 6.5 10 "/>
<path style=" stroke:none;fill-rule:nonzero;fill:rgb(100%,100%,100%);fill-opacity:0.4;" d="M 6.5 10 C 6.222656 10 6 10.222656 6 10.5 L 6 11 C 6 10.722656 6.222656 10.5 6.5 10.5 L 8.5 10.5 C 8.777344 10.5 9 10.722656 9 11 L 9 10.5 C 9 10.222656 8.777344 10 8.5 10 Z M 6.5 10 "/>
<path style=" stroke:none;fill-rule:nonzero;fill:rgb(0.392157%,0.392157%,0.392157%);fill-opacity:0.4;" d="M 6.5 13.5 C 6.222656 13.5 6 13.277344 6 13 L 6 12.5 C 6 12.777344 6.222656 13 6.5 13 L 8.5 13 C 8.777344 13 9 12.777344 9 12.5 L 9 13 C 9 13.277344 8.777344 13.5 8.5 13.5 Z M 6.5 13.5 "/>
<path style=" stroke:none;fill-rule:nonzero;fill:rgb(0.392157%,0.392157%,0.392157%);fill-opacity:0.4;" d="M 14 22.246094 C 13.863281 22.246094 13.75 22.132812 13.75 21.996094 L 13.75 21.746094 C 13.75 21.882812 13.863281 21.996094 14 21.996094 C 14.136719 21.996094 14.25 21.882812 14.25 21.746094 L 14.25 21.996094 C 14.25 22.132812 14.136719 22.246094 14 22.246094 Z M 15 22.246094 C 14.863281 22.246094 14.75 22.132812 14.75 21.996094 L 14.75 21.746094 C 14.75 21.882812 14.863281 21.996094 15 21.996094 C 15.136719 21.996094 15.25 21.882812 15.25 21.746094 L 15.25 21.996094 C 15.25 22.132812 15.136719 22.246094 15 22.246094 Z M 16 22.246094 C 15.863281 22.246094 15.75 22.132812 15.75 21.996094 L 15.75 21.746094 C 15.75 21.882812 15.863281 21.996094 16 21.996094 C 16.136719 21.996094 16.25 21.882812 16.25 21.746094 L 16.25 21.996094 C 16.25 22.132812 16.136719 22.246094 16 22.246094 Z M 17 22.246094 C 16.863281 22.246094 16.75 22.132812 16.75 21.996094 L 16.75 21.746094 C 16.75 21.882812 16.863281 21.996094 17 21.996094 C 17.136719 21.996094 17.25 21.882812 17.25 21.746094 L 17.25 21.996094 C 17.25 22.132812 17.136719 22.246094 17 22.246094 Z M 18 22.246094 C 17.863281 22.246094 17.75 22.132812 17.75 21.996094 L 17.75 21.746094 C 17.75 21.882812 17.863281 21.996094 18 21.996094 C 18.136719 21.996094 18.25 21.882812 18.25 21.746094 L 18.25 21.996094 C 18.25 22.132812 18.136719 22.246094 18 22.246094 Z M 19 22.246094 C 18.863281 22.246094 18.75 22.132812 18.75 21.996094 L 18.75 21.746094 C 18.75 21.882812 18.863281 21.996094 19 21.996094 C 19.136719 21.996094 19.25 21.882812 19.25 21.746094 L 19.25 21.996094 C 19.25 22.132812 19.136719 22.246094 19 22.246094 Z M 20 22.246094 C 19.863281 22.246094 19.75 22.132812 19.75 21.996094 L 19.75 21.746094 C 19.75 21.882812 19.863281 21.996094 20 21.996094 C 20.136719 21.996094 20.25 21.882812 20.25 21.746094 L 20.25 21.996094 C 20.25 22.132812 20.136719 22.246094 20 22.246094 Z M 21 22.246094 C 20.863281 22.246094 20.75 22.132812 20.75 21.996094 L 20.75 21.746094 C 20.75 21.882812 20.863281 21.996094 21 21.996094 C 21.136719 21.996094 21.25 21.882812 21.25 21.746094 L 21.25 21.996094 C 21.25 22.132812 21.136719 22.246094 21 22.246094 Z M 22 22.246094 C 21.863281 22.246094 21.75 22.132812 21.75 21.996094 L 21.75 21.746094 C 21.75 21.882812 21.863281 21.996094 22 21.996094 C 22.136719 21.996094 22.25 21.882812 22.25 21.746094 L 22.25 21.996094 C 22.25 22.132812 22.136719 22.246094 22 22.246094 Z M 12.25 20.496094 C 12.113281 20.496094 12 20.382812 12 20.246094 C 12 20.199219 12.011719 20.15625 12.035156 20.121094 C 12.078125 20.195312 12.15625 20.246094 12.25 20.246094 L 13.75 20.246094 L 13.75 20.496094 Z M 14.25 20.496094 L 14.25 20.246094 L 14.75 20.246094 L 14.75 20.496094 Z M 15.25 20.496094 L 15.25 20.246094 L 15.75 20.246094 L 15.75 20.496094 Z M 16.25 20.496094 L 16.25 20.246094 L 16.75 20.246094 L 16.75 20.496094 Z M 17.25 20.496094 L 17.25 20.246094 L 17.75 20.246094 L 17.75 20.496094 Z M 18.25 20.496094 L 18.25 20.246094 L 18.75 20.246094 L 18.75 20.496094 Z M 19.25 20.496094 L 19.25 20.246094 L 19.75 20.246094 L 19.75 20.496094 Z M 20.25 20.496094 L 20.25 20.246094 L 20.75 20.246094 L 20.75 20.496094 Z M 21.25 20.496094 L 21.25 20.246094 L 21.75 20.246094 L 21.75 20.496094 Z M 22.25 20.496094 L 22.25 20.246094 L 23.75 20.246094 C 23.84375 20.246094 23.921875 20.195312 23.964844 20.121094 C 23.988281 20.15625 24 20.199219 24 20.246094 C 24 20.382812 23.886719 20.496094 23.75 20.496094 Z M 12.25 19.496094 C 12.113281 19.496094 12 19.382812 12 19.246094 C 12 19.199219 12.011719 19.15625 12.035156 19.121094 C 12.078125 19.195312 12.15625 19.246094 12.25 19.246094 L 13.75 19.246094 L 13.75 19.496094 Z M 14.25 19.496094 L 14.25 19.246094 L 14.75 19.246094 L 14.75 19.496094 Z M 15.25 19.496094 L 15.25 19.246094 L 15.75 19.246094 L 15.75 19.496094 Z M 16.25 19.496094 L 16.25 19.246094 L 16.75 19.246094 L 16.75 19.496094 Z M 17.25 19.496094 L 17.25 19.246094 L 17.75 19.246094 L 17.75 19.496094 Z M 18.25 19.496094 L 18.25 19.246094 L 18.75 19.246094 L 18.75 19.496094 Z M 19.25 19.496094 L 19.25 19.246094 L 19.75 19.246094 L 19.75 19.496094 Z M 20.25 19.496094 L 20.25 19.246094 L 20.75 19.246094 L 20.75 19.496094 Z M 21.25 19.496094 L 21.25 19.246094 L 21.75 19.246094 L 21.75 19.496094 Z M 22.25 19.496094 L 22.25 19.246094 L 23.75 19.246094 C 23.84375 19.246094 23.921875 19.195312 23.964844 19.121094 C 23.988281 19.15625 24 19.199219 24 19.246094 C 24 19.382812 23.886719 19.496094 23.75 19.496094 Z M 12.25 18.496094 C 12.113281 18.496094 12 18.382812 12 18.246094 C 12 18.199219 12.011719 18.15625 12.035156 18.121094 C 12.078125 18.195312 12.15625 18.246094 12.25 18.246094 L 13.75 18.246094 L 13.75 18.496094 Z M 14.25 18.496094 L 14.25 18.246094 L 14.75 18.246094 L 14.75 18.496094 Z M 15.25 18.496094 L 15.25 18.246094 L 15.75 18.246094 L 15.75 18.496094 Z M 16.25 18.496094 L 16.25 18.246094 L 16.75 18.246094 L 16.75 18.496094 Z M 17.25 18.496094 L 17.25 18.246094 L 17.75 18.246094 L 17.75 18.496094 Z M 18.25 18.496094 L 18.25 18.246094 L 18.75 18.246094 L 18.75 18.496094 Z M 19.25 18.496094 L 19.25 18.246094 L 19.75 18.246094 L 19.75 18.496094 Z M 20.25 18.496094 L 20.25 18.246094 L 20.75 18.246094 L 20.75 18.496094 Z M 21.25 18.496094 L 21.25 18.246094 L 21.75 18.246094 L 21.75 18.496094 Z M 22.25 18.496094 L 22.25 18.246094 L 23.75 18.246094 C 23.84375 18.246094 23.921875 18.195312 23.964844 18.121094 C 23.988281 18.15625 24 18.199219 24 18.246094 C 24 18.382812 23.886719 18.496094 23.75 18.496094 Z M 12.25 17.496094 C 12.113281 17.496094 12 17.382812 12 17.246094 C 12 17.199219 12.011719 17.15625 12.035156 17.121094 C 12.078125 17.195312 12.15625 17.246094 12.25 17.246094 L 13.75 17.246094 L 13.75 17.496094 Z M 14.25 17.496094 L 14.25 17.246094 L 14.75 17.246094 L 14.75 17.496094 Z M 15.25 17.496094 L 15.25 17.246094 L 15.75 17.246094 L 15.75 17.496094 Z M 16.25 17.496094 L 16.25 17.246094 L 16.75 17.246094 L 16.75 17.496094 Z M 17.25 17.496094 L 17.25 17.246094 L 17.75 17.246094 L 17.75 17.496094 Z M 18.25 17.496094 L 18.25 17.246094 L 18.75 17.246094 L 18.75 17.496094 Z M 19.25 17.496094 L 19.25 17.246094 L 19.75 17.246094 L 19.75 17.496094 Z M 20.25 17.496094 L 20.25 17.246094 L 20.75 17.246094 L 20.75 17.496094 Z M 21.25 17.496094 L 21.25 17.246094 L 21.75 17.246094 L 21.75 17.496094 Z M 22.25 17.496094 L 22.25 17.246094 L 23.75 17.246094 C 23.84375 17.246094 23.921875 17.195312 23.964844 17.121094 C 23.988281 17.15625 24 17.199219 24 17.246094 C 24 17.382812 23.886719 17.496094 23.75 17.496094 Z M 12.25 16.496094 C 12.113281 16.496094 12 16.382812 12 16.246094 C 12 16.199219 12.011719 16.15625 12.035156 16.121094 C 12.078125 16.195312 12.15625 16.246094 12.25 16.246094 L 13.75 16.246094 L 13.75 16.496094 Z M 14.25 16.496094 L 14.25 16.246094 L 14.75 16.246094 L 14.75 16.496094 Z M 15.25 16.496094 L 15.25 16.246094 L 15.75 16.246094 L 15.75 16.496094 Z M 16.25 16.496094 L 16.25 16.246094 L 16.75 16.246094 L 16.75 16.496094 Z M 17.25 16.496094 L 17.25 16.246094 L 17.75 16.246094 L 17.75 16.496094 Z M 18.25 16.496094 L 18.25 16.246094 L 18.75 16.246094 L 18.75 16.496094 Z M 19.25 16.496094 L 19.25 16.246094 L 19.75 16.246094 L 19.75 16.496094 Z M 20.25 16.496094 L 20.25 16.246094 L 20.75 16.246094 L 20.75 16.496094 Z M 21.25 16.496094 L 21.25 16.246094 L 21.75 16.246094 L 21.75 16.496094 Z M 22.25 16.496094 L 22.25 16.246094 L 23.75 16.246094 C 23.84375 16.246094 23.921875 16.195312 23.964844 16.121094 C 23.988281 16.15625 24 16.199219 24 16.246094 C 24 16.382812 23.886719 16.496094 23.75 16.496094 Z M 12.25 15.496094 C 12.113281 15.496094 12 15.382812 12 15.246094 C 12 15.199219 12.011719 15.15625 12.035156 15.121094 C 12.078125 15.195312 12.15625 15.246094 12.25 15.246094 L 13.75 15.246094 L 13.75 15.496094 Z M 14.25 15.496094 L 14.25 15.246094 L 14.75 15.246094 L 14.75 15.496094 Z M 15.25 15.496094 L 15.25 15.246094 L 15.75 15.246094 L 15.75 15.496094 Z M 16.25 15.496094 L 16.25 15.246094 L 16.75 15.246094 L 16.75 15.496094 Z M 17.25 15.496094 L 17.25 15.246094 L 17.75 15.246094 L 17.75 15.496094 Z M 18.25 15.496094 L 18.25 15.246094 L 18.75 15.246094 L 18.75 15.496094 Z M 19.25 15.496094 L 19.25 15.246094 L 19.75 15.246094 L 19.75 15.496094 Z M 20.25 15.496094 L 20.25 15.246094 L 20.75 15.246094 L 20.75 15.496094 Z M 21.25 15.496094 L 21.25 15.246094 L 21.75 15.246094 L 21.75 15.496094 Z M 22.25 15.496094 L 22.25 15.246094 L 23.75 15.246094 C 23.84375 15.246094 23.921875 15.195312 23.964844 15.121094 C 23.988281 15.15625 24 15.199219 24 15.246094 C 24 15.382812 23.886719 15.496094 23.75 15.496094 Z M 12.25 14.496094 C 12.113281 14.496094 12 14.382812 12 14.246094 C 12 14.199219 12.011719 14.15625 12.035156 14.121094 C 12.078125 14.195312 12.15625 14.246094 12.25 14.246094 L 13.75 14.246094 L 13.75 14.496094 Z M 14.25 14.496094 L 14.25 14.246094 L 14.75 14.246094 L 14.75 14.496094 Z M 15.25 14.496094 L 15.25 14.246094 L 15.75 14.246094 L 15.75 14.496094 Z M 16.25 14.496094 L 16.25 14.246094 L 16.75 14.246094 L 16.75 14.496094 Z M 17.25 14.496094 L 17.25 14.246094 L 17.75 14.246094 L 17.75 14.496094 Z M 18.25 14.496094 L 18.25 14.246094 L 18.75 14.246094 L 18.75 14.496094 Z M 19.25 14.496094 L 19.25 14.246094 L 19.75 14.246094 L 19.75 14.496094 Z M 20.25 14.496094 L 20.25 14.246094 L 20.75 14.246094 L 20.75 14.496094 Z M 21.25 14.496094 L 21.25 14.246094 L 21.75 14.246094 L 21.75 14.496094 Z M 22.25 14.496094 L 22.25 14.246094 L 23.75 14.246094 C 23.84375 14.246094 23.921875 14.195312 23.964844 14.121094 C 23.988281 14.15625 24 14.199219 24 14.246094 C 24 14.382812 23.886719 14.496094 23.75 14.496094 Z M 12.25 13.496094 C 12.113281 13.496094 12 13.382812 12 13.246094 C 12 13.199219 12.011719 13.15625 12.035156 13.121094 C 12.078125 13.195312 12.15625 13.246094 12.25 13.246094 L 13.75 13.246094 L 13.75 13.496094 Z M 14.25 13.496094 L 14.25 13.246094 L 14.75 13.246094 L 14.75 13.496094 Z M 15.25 13.496094 L 15.25 13.246094 L 15.75 13.246094 L 15.75 13.496094 Z M 16.25 13.496094 L 16.25 13.246094 L 16.75 13.246094 L 16.75 13.496094 Z M 17.25 13.496094 L 17.25 13.246094 L 17.75 13.246094 L 17.75 13.496094 Z M 18.25 13.496094 L 18.25 13.246094 L 18.75 13.246094 L 18.75 13.496094 Z M 19.25 13.496094 L 19.25 13.246094 L 19.75 13.246094 L 19.75 13.496094 Z M 20.25 13.496094 L 20.25 13.246094 L 20.75 13.246094 L 20.75 13.496094 Z M 21.25 13.496094 L 21.25 13.246094 L 21.75 13.246094 L 21.75 13.496094 Z M 22.25 13.496094 L 22.25 13.246094 L 23.75 13.246094 C 23.84375 13.246094 23.921875 13.195312 23.964844 13.121094 C 23.988281 13.15625 24 13.199219 24 13.246094 C 24 13.382812 23.886719 13.496094 23.75 13.496094 Z M 12.25 12.496094 C 12.113281 12.496094 12 12.382812 12 12.246094 C 12 12.199219 12.011719 12.15625 12.035156 12.121094 C 12.078125 12.195312 12.15625 12.246094 12.25 12.246094 L 13.75 12.246094 L 13.75 12.496094 Z M 14.25 12.496094 L 14.25 12.246094 L 14.75 12.246094 L 14.75 12.496094 Z M 15.25 12.496094 L 15.25 12.246094 L 15.75 12.246094 L 15.75 12.496094 Z M 16.25 12.496094 L 16.25 12.246094 L 16.75 12.246094 L 16.75 12.496094 Z M 17.25 12.496094 L 17.25 12.246094 L 17.75 12.246094 L 17.75 12.496094 Z M 18.25 12.496094 L 18.25 12.246094 L 18.75 12.246094 L 18.75 12.496094 Z M 19.25 12.496094 L 19.25 12.246094 L 19.75 12.246094 L 19.75 12.496094 Z M 20.25 12.496094 L 20.25 12.246094 L 20.75 12.246094 L 20.75 12.496094 Z M 21.25 12.496094 L 21.25 12.246094 L 21.75 12.246094 L 21.75 12.496094 Z M 22.25 12.496094 L 22.25 12.246094 L 23.75 12.246094 C 23.84375 12.246094 23.921875 12.195312 23.964844 12.121094 C 23.988281 12.15625 24 12.199219 24 12.246094 C 24 12.382812 23.886719 12.496094 23.75 12.496094 Z M 22.25 12.496094 "/>
<path style=" stroke:none;fill-rule:nonzero;fill:rgb(0.392157%,0.392157%,0.392157%);fill-opacity:0.4;" d="M 7 24 C 5.890625 24 5 23.109375 5 22 L 5 21.5 C 5 22.609375 5.890625 23.5 7 23.5 L 28 23.5 C 29.109375 23.5 30 22.609375 30 21.5 L 30 22 C 30 23.109375 29.109375 24 28 24 Z M 7 24 "/>
<path style=" stroke:none;fill-rule:nonzero;fill:rgb(74.117649%,74.117649%,74.117649%);fill-opacity:0.996078;" d="M 14 10 C 13.863281 10 13.75 10.113281 13.75 10.25 L 13.75 11.75 L 12.25 11.75 C 12.113281 11.75 12 11.863281 12 12 C 12 12.136719 12.113281 12.25 12.25 12.25 L 13.75 12.25 L 13.75 12.75 L 12.25 12.75 C 12.113281 12.75 12 12.863281 12 13 C 12 13.136719 12.113281 13.25 12.25 13.25 L 13.75 13.25 L 13.75 13.75 L 12.25 13.75 C 12.113281 13.75 12 13.863281 12 14 C 12 14.136719 12.113281 14.25 12.25 14.25 L 13.75 14.25 L 13.75 14.75 L 12.25 14.75 C 12.113281 14.75 12 14.863281 12 15 C 12 15.136719 12.113281 15.25 12.25 15.25 L 13.75 15.25 L 13.75 15.75 L 12.25 15.75 C 12.113281 15.75 12 15.863281 12 16 C 12 16.136719 12.113281 16.25 12.25 16.25 L 13.75 16.25 L 13.75 16.75 L 12.25 16.75 C 12.113281 16.75 12 16.863281 12 17 C 12 17.136719 12.113281 17.25 12.25 17.25 L 13.75 17.25 L 13.75 17.75 L 12.25 17.75 C 12.113281 17.75 12 17.863281 12 18 C 12 18.136719 12.113281 18.25 12.25 18.25 L 13.75 18.25 L 13.75 18.75 L 12.25 18.75 C 12.113281 18.75 12 18.863281 12 19 C 12 19.136719 12.113281 19.25 12.25 19.25 L 13.75 19.25 L 13.75 19.75 L 12.25 19.75 C 12.113281 19.75 12 19.863281 12 20 C 12 20.136719 12.113281 20.25 12.25 20.25 L 13.75 20.25 L 13.75 21.75 C 13.75 21.886719 13.863281 22 14 22 C 14.136719 22 14.25 21.886719 14.25 21.75 L 14.25 20.25 L 14.75 20.25 L 14.75 21.75 C 14.75 21.886719 14.863281 22 15 22 C 15.136719 22 15.25 21.886719 15.25 21.75 L 15.25 20.25 L 15.75 20.25 L 15.75 21.75 C 15.75 21.886719 15.863281 22 16 22 C 16.136719 22 16.25 21.886719 16.25 21.75 L 16.25 20.25 L 16.75 20.25 L 16.75 21.75 C 16.75 21.886719 16.863281 22 17 22 C 17.136719 22 17.25 21.886719 17.25 21.75 L 17.25 20.25 L 17.75 20.25 L 17.75 21.75 C 17.75 21.886719 17.863281 22 18 22 C 18.136719 22 18.25 21.886719 18.25 21.75 L 18.25 20.25 L 18.75 20.25 L 18.75 21.75 C 18.75 21.886719 18.863281 22 19 22 C 19.136719 22 19.25 21.886719 19.25 21.75 L 19.25 20.25 L 19.75 20.25 L 19.75 21.75 C 19.75 21.886719 19.863281 22 20 22 C 20.136719 22 20.25 21.886719 20.25 21.75 L 20.25 20.25 L 20.75 20.25 L 20.75 21.75 C 20.75 21.886719 20.863281 22 21 22 C 21.136719 22 21.25 21.886719 21.25 21.75 L 21.25 20.25 L 21.75 20.25 L 21.75 21.75 C 21.75 21.886719 21.863281 22 22 22 C 22.136719 22 22.25 21.886719 22.25 21.75 L 22.25 20.25 L 23.75 20.25 C 23.886719 20.25 24 20.136719 24 20 C 24 19.863281 23.886719 19.75 23.75 19.75 L 22.25 19.75 L 22.25 19.25 L 23.75 19.25 C 23.886719 19.25 24 19.136719 24 19 C 24 18.863281 23.886719 18.75 23.75 18.75 L 22.25 18.75 L 22.25 18.25 L 23.75 18.25 C 23.886719 18.25 24 18.136719 24 18 C 24 17.863281 23.886719 17.75 23.75 17.75 L 22.25 17.75 L 22.25 17.25 L 23.75 17.25 C 23.886719 17.25 24 17.136719 24 17 C 24 16.863281 23.886719 16.75 23.75 16.75 L 22.25 16.75 L 22.25 16.25 L 23.75 16.25 C 23.886719 16.25 24 16.136719 24 16 C 24 15.863281 23.886719 15.75 23.75 15.75 L 22.25 15.75 L 22.25 15.25 L 23.75 15.25 C 23.886719 15.25 24 15.136719 24 15 C 24 14.863281 23.886719 14.75 23.75 14.75 L 22.25 14.75 L 22.25 14.25 L 23.75 14.25 C 23.886719 14.25 24 14.136719 24 14 C 24 13.863281 23.886719 13.75 23.75 13.75 L 22.25 13.75 L 22.25 13.25 L 23.75 13.25 C 23.886719 13.25 24 13.136719 24 13 C 24 12.863281 23.886719 12.75 23.75 12.75 L 22.25 12.75 L 22.25 12.25 L 23.75 12.25 C 23.886719 12.25 24 12.136719 24 12 C 24 11.863281 23.886719 11.75 23.75 11.75 L 22.25 11.75 L 22.25 10.25 C 22.25 10.113281 22.136719 10 22 10 C 21.863281 10 21.75 10.113281 21.75 10.25 L 21.75 11.75 L 21.25 11.75 L 21.25 10.25 C 21.25 10.113281 21.136719 10 21 10 C 20.863281 10 20.75 10.113281 20.75 10.25 L 20.75 11.75 L 20.25 11.75 L 20.25 10.25 C 20.25 10.113281 20.136719 10 20 10 C 19.863281 10 19.75 10.113281 19.75 10.25 L 19.75 11.75 L 19.25 11.75 L 19.25 10.25 C 19.25 10.113281 19.136719 10 19 10 C 18.863281 10 18.75 10.113281 18.75 10.25 L 18.75 11.75 L 18.25 11.75 L 18.25 10.25 C 18.25 10.113281 18.136719 10 18 10 C 17.863281 10 17.75 10.113281 17.75 10.25 L 17.75 11.75 L 17.25 11.75 L 17.25 10.25 C 17.25 10.113281 17.136719 10 17 10 C 16.863281 10 16.75 10.113281 16.75 10.25 L 16.75 11.75 L 16.25 11.75 L 16.25 10.25 C 16.25 10.113281 16.136719 10 16 10 C 15.863281 10 15.75 10.113281 15.75 10.25 L 15.75 11.75 L 15.25 11.75 L 15.25 10.25 C 15.25 10.113281 15.136719 10 15 10 C 14.863281 10 14.75 10.113281 14.75 10.25 L 14.75 11.75 L 14.25 11.75 L 14.25 10.25 C 14.25 10.113281 14.136719 10 14 10 Z M 14.25 12.25 L 14.75 12.25 L 14.75 12.75 L 14.25 12.75 Z M 15.25 12.25 L 15.75 12.25 L 15.75 12.75 L 15.25 12.75 Z M 16.25 12.25 L 16.75 12.25 L 16.75 12.75 L 16.25 12.75 Z M 17.25 12.25 L 17.75 12.25 L 17.75 12.75 L 17.25 12.75 Z M 18.25 12.25 L 18.75 12.25 L 18.75 12.75 L 18.25 12.75 Z M 19.25 12.25 L 19.75 12.25 L 19.75 12.75 L 19.25 12.75 Z M 20.25 12.25 L 20.75 12.25 L 20.75 12.75 L 20.25 12.75 Z M 21.25 12.25 L 21.75 12.25 L 21.75 12.75 L 21.25 12.75 Z M 14.25 13.25 L 14.75 13.25 L 14.75 13.75 L 14.25 13.75 Z M 15.25 13.25 L 15.75 13.25 L 15.75 13.75 L 15.25 13.75 Z M 16.25 13.25 L 16.75 13.25 L 16.75 13.75 L 16.25 13.75 Z M 17.25 13.25 L 17.75 13.25 L 17.75 13.75 L 17.25 13.75 Z M 18.25 13.25 L 18.75 13.25 L 18.75 13.75 L 18.25 13.75 Z M 19.25 13.25 L 19.75 13.25 L 19.75 13.75 L 19.25 13.75 Z M 20.25 13.25 L 20.75 13.25 L 20.75 13.75 L 20.25 13.75 Z M 21.25 13.25 L 21.75 13.25 L 21.75 13.75 L 21.25 13.75 Z M 14.25 14.25 L 14.75 14.25 L 14.75 14.75 L 14.25 14.75 Z M 15.25 14.25 L 15.75 14.25 L 15.75 14.75 L 15.25 14.75 Z M 16.25 14.25 L 16.75 14.25 L 16.75 14.75 L 16.25 14.75 Z M 17.25 14.25 L 17.75 14.25 L 17.75 14.75 L 17.25 14.75 Z M 18.25 14.25 L 18.75 14.25 L 18.75 14.75 L 18.25 14.75 Z M 19.25 14.25 L 19.75 14.25 L 19.75 14.75 L 19.25 14.75 Z M 20.25 14.25 L 20.75 14.25 L 20.75 14.75 L 20.25 14.75 Z M 21.25 14.25 L 21.75 14.25 L 21.75 14.75 L 21.25 14.75 Z M 14.25 15.25 L 14.75 15.25 L 14.75 15.75 L 14.25 15.75 Z M 15.25 15.25 L 15.75 15.25 L 15.75 15.75 L 15.25 15.75 Z M 16.25 15.25 L 16.75 15.25 L 16.75 15.75 L 16.25 15.75 Z M 17.25 15.25 L 17.75 15.25 L 17.75 15.75 L 17.25 15.75 Z M 18.25 15.25 L 18.75 15.25 L 18.75 15.75 L 18.25 15.75 Z M 19.25 15.25 L 19.75 15.25 L 19.75 15.75 L 19.25 15.75 Z M 20.25 15.25 L 20.75 15.25 L 20.75 15.75 L 20.25 15.75 Z M 21.25 15.25 L 21.75 15.25 L 21.75 15.75 L 21.25 15.75 Z M 14.25 16.25 L 14.75 16.25 L 14.75 16.75 L 14.25 16.75 Z M 15.25 16.25 L 15.75 16.25 L 15.75 16.75 L 15.25 16.75 Z M 16.25 16.25 L 16.75 16.25 L 16.75 16.75 L 16.25 16.75 Z M 17.25 16.25 L 17.75 16.25 L 17.75 16.75 L 17.25 16.75 Z M 18.25 16.25 L 18.75 16.25 L 18.75 16.75 L 18.25 16.75 Z M 19.25 16.25 L 19.75 16.25 L 19.75 16.75 L 19.25 16.75 Z M 20.25 16.25 L 20.75 16.25 L 20.75 16.75 L 20.25 16.75 Z M 21.25 16.25 L 21.75 16.25 L 21.75 16.75 L 21.25 16.75 Z M 14.25 17.25 L 14.75 17.25 L 14.75 17.75 L 14.25 17.75 Z M 15.25 17.25 L 15.75 17.25 L 15.75 17.75 L 15.25 17.75 Z M 16.25 17.25 L 16.75 17.25 L 16.75 17.75 L 16.25 17.75 Z M 17.25 17.25 L 17.75 17.25 L 17.75 17.75 L 17.25 17.75 Z M 18.25 17.25 L 18.75 17.25 L 18.75 17.75 L 18.25 17.75 Z M 19.25 17.25 L 19.75 17.25 L 19.75 17.75 L 19.25 17.75 Z M 20.25 17.25 L 20.75 17.25 L 20.75 17.75 L 20.25 17.75 Z M 21.25 17.25 L 21.75 17.25 L 21.75 17.75 L 21.25 17.75 Z M 14.25 18.25 L 14.75 18.25 L 14.75 18.75 L 14.25 18.75 Z M 15.25 18.25 L 15.75 18.25 L 15.75 18.75 L 15.25 18.75 Z M 16.25 18.25 L 16.75 18.25 L 16.75 18.75 L 16.25 18.75 Z M 17.25 18.25 L 17.75 18.25 L 17.75 18.75 L 17.25 18.75 Z M 18.25 18.25 L 18.75 18.25 L 18.75 18.75 L 18.25 18.75 Z M 19.25 18.25 L 19.75 18.25 L 19.75 18.75 L 19.25 18.75 Z M 20.25 18.25 L 20.75 18.25 L 20.75 18.75 L 20.25 18.75 Z M 21.25 18.25 L 21.75 18.25 L 21.75 18.75 L 21.25 18.75 Z M 14.25 19.25 L 14.75 19.25 L 14.75 19.75 L 14.25 19.75 Z M 15.25 19.25 L 15.75 19.25 L 15.75 19.75 L 15.25 19.75 Z M 16.25 19.25 L 16.75 19.25 L 16.75 19.75 L 16.25 19.75 Z M 17.25 19.25 L 17.75 19.25 L 17.75 19.75 L 17.25 19.75 Z M 18.25 19.25 L 18.75 19.25 L 18.75 19.75 L 18.25 19.75 Z M 19.25 19.25 L 19.75 19.25 L 19.75 19.75 L 19.25 19.75 Z M 20.25 19.25 L 20.75 19.25 L 20.75 19.75 L 20.25 19.75 Z M 21.25 19.25 L 21.75 19.25 L 21.75 19.75 L 21.25 19.75 Z M 21.25 19.25 "/>
<path style=" stroke:none;fill-rule:nonzero;fill:rgb(100%,100%,100%);fill-opacity:0.4;" d="M 7 8 C 5.890625 8 5 8.890625 5 10 L 5 10.5 C 5 9.390625 5.890625 8.5 7 8.5 L 28 8.5 C 29.109375 8.5 30 9.390625 30 10.5 L 30 10 C 30 8.890625 29.109375 8 28 8 Z M 7 8 "/>
<path style=" stroke:none;fill-rule:nonzero;fill:rgb(100%,100%,100%);fill-opacity:0.4;" d="M 14 10 C 13.863281 10 13.75 10.113281 13.75 10.25 L 13.75 10.5 C 13.75 10.363281 13.863281 10.25 14 10.25 C 14.136719 10.25 14.25 10.363281 14.25 10.5 L 14.25 10.25 C 14.25 10.113281 14.136719 10 14 10 Z M 15 10 C 14.863281 10 14.75 10.113281 14.75 10.25 L 14.75 10.5 C 14.75 10.363281 14.863281 10.25 15 10.25 C 15.136719 10.25 15.25 10.363281 15.25 10.5 L 15.25 10.25 C 15.25 10.113281 15.136719 10 15 10 Z M 16 10 C 15.863281 10 15.75 10.113281 15.75 10.25 L 15.75 10.5 C 15.75 10.363281 15.863281 10.25 16 10.25 C 16.136719 10.25 16.25 10.363281 16.25 10.5 L 16.25 10.25 C 16.25 10.113281 16.136719 10 16 10 Z M 17 10 C 16.863281 10 16.75 10.113281 16.75 10.25 L 16.75 10.5 C 16.75 10.363281 16.863281 10.25 17 10.25 C 17.136719 10.25 17.25 10.363281 17.25 10.5 L 17.25 10.25 C 17.25 10.113281 17.136719 10 17 10 Z M 18 10 C 17.863281 10 17.75 10.113281 17.75 10.25 L 17.75 10.5 C 17.75 10.363281 17.863281 10.25 18 10.25 C 18.136719 10.25 18.25 10.363281 18.25 10.5 L 18.25 10.25 C 18.25 10.113281 18.136719 10 18 10 Z M 19 10 C 18.863281 10 18.75 10.113281 18.75 10.25 L 18.75 10.5 C 18.75 10.363281 18.863281 10.25 19 10.25 C 19.136719 10.25 19.25 10.363281 19.25 10.5 L 19.25 10.25 C 19.25 10.113281 19.136719 10 19 10 Z M 20 10 C 19.863281 10 19.75 10.113281 19.75 10.25 L 19.75 10.5 C 19.75 10.363281 19.863281 10.25 20 10.25 C 20.136719 10.25 20.25 10.363281 20.25 10.5 L 20.25 10.25 C 20.25 10.113281 20.136719 10 20 10 Z M 21 10 C 20.863281 10 20.75 10.113281 20.75 10.25 L 20.75 10.5 C 20.75 10.363281 20.863281 10.25 21 10.25 C 21.136719 10.25 21.25 10.363281 21.25 10.5 L 21.25 10.25 C 21.25 10.113281 21.136719 10 21 10 Z M 22 10 C 21.863281 10 21.75 10.113281 21.75 10.25 L 21.75 10.5 C 21.75 10.363281 21.863281 10.25 22 10.25 C 22.136719 10.25 22.25 10.363281 22.25 10.5 L 22.25 10.25 C 22.25 10.113281 22.136719 10 22 10 Z M 12.25 11.75 C 12.113281 11.75 12 11.863281 12 12 C 12 12.046875 12.011719 12.085938 12.035156 12.125 C 12.078125 12.050781 12.15625 12 12.25 12 L 13.75 12 L 13.75 11.75 Z M 14.25 11.75 L 14.25 12 L 14.75 12 L 14.75 11.75 Z M 15.25 11.75 L 15.25 12 L 15.75 12 L 15.75 11.75 Z M 16.25 11.75 L 16.25 12 L 16.75 12 L 16.75 11.75 Z M 17.25 11.75 L 17.25 12 L 17.75 12 L 17.75 11.75 Z M 18.25 11.75 L 18.25 12 L 18.75 12 L 18.75 11.75 Z M 19.25 11.75 L 19.25 12 L 19.75 12 L 19.75 11.75 Z M 20.25 11.75 L 20.25 12 L 20.75 12 L 20.75 11.75 Z M 21.25 11.75 L 21.25 12 L 21.75 12 L 21.75 11.75 Z M 22.25 11.75 L 22.25 12 L 23.75 12 C 23.84375 12 23.921875 12.050781 23.964844 12.125 C 23.988281 12.085938 24 12.046875 24 12 C 24 11.863281 23.886719 11.75 23.75 11.75 Z M 12.25 12.75 C 12.113281 12.75 12 12.863281 12 13 C 12 13.046875 12.011719 13.085938 12.035156 13.125 C 12.078125 13.050781 12.15625 13 12.25 13 L 13.75 13 L 13.75 12.75 Z M 14.25 12.75 L 14.25 13 L 14.75 13 L 14.75 12.75 Z M 15.25 12.75 L 15.25 13 L 15.75 13 L 15.75 12.75 Z M 16.25 12.75 L 16.25 13 L 16.75 13 L 16.75 12.75 Z M 17.25 12.75 L 17.25 13 L 17.75 13 L 17.75 12.75 Z M 18.25 12.75 L 18.25 13 L 18.75 13 L 18.75 12.75 Z M 19.25 12.75 L 19.25 13 L 19.75 13 L 19.75 12.75 Z M 20.25 12.75 L 20.25 13 L 20.75 13 L 20.75 12.75 Z M 21.25 12.75 L 21.25 13 L 21.75 13 L 21.75 12.75 Z M 22.25 12.75 L 22.25 13 L 23.75 13 C 23.84375 13 23.921875 13.050781 23.964844 13.125 C 23.988281 13.085938 24 13.046875 24 13 C 24 12.863281 23.886719 12.75 23.75 12.75 Z M 12.25 13.75 C 12.113281 13.75 12 13.863281 12 14 C 12 14.046875 12.011719 14.085938 12.035156 14.125 C 12.078125 14.050781 12.15625 14 12.25 14 L 13.75 14 L 13.75 13.75 Z M 14.25 13.75 L 14.25 14 L 14.75 14 L 14.75 13.75 Z M 15.25 13.75 L 15.25 14 L 15.75 14 L 15.75 13.75 Z M 16.25 13.75 L 16.25 14 L 16.75 14 L 16.75 13.75 Z M 17.25 13.75 L 17.25 14 L 17.75 14 L 17.75 13.75 Z M 18.25 13.75 L 18.25 14 L 18.75 14 L 18.75 13.75 Z M 19.25 13.75 L 19.25 14 L 19.75 14 L 19.75 13.75 Z M 20.25 13.75 L 20.25 14 L 20.75 14 L 20.75 13.75 Z M 21.25 13.75 L 21.25 14 L 21.75 14 L 21.75 13.75 Z M 22.25 13.75 L 22.25 14 L 23.75 14 C 23.84375 14 23.921875 14.050781 23.964844 14.125 C 23.988281 14.085938 24 14.046875 24 14 C 24 13.863281 23.886719 13.75 23.75 13.75 Z M 12.25 14.75 C 12.113281 14.75 12 14.863281 12 15 C 12 15.046875 12.011719 15.085938 12.035156 15.125 C 12.078125 15.050781 12.15625 15 12.25 15 L 13.75 15 L 13.75 14.75 Z M 14.25 14.75 L 14.25 15 L 14.75 15 L 14.75 14.75 Z M 15.25 14.75 L 15.25 15 L 15.75 15 L 15.75 14.75 Z M 16.25 14.75 L 16.25 15 L 16.75 15 L 16.75 14.75 Z M 17.25 14.75 L 17.25 15 L 17.75 15 L 17.75 14.75 Z M 18.25 14.75 L 18.25 15 L 18.75 15 L 18.75 14.75 Z M 19.25 14.75 L 19.25 15 L 19.75 15 L 19.75 14.75 Z M 20.25 14.75 L 20.25 15 L 20.75 15 L 20.75 14.75 Z M 21.25 14.75 L 21.25 15 L 21.75 15 L 21.75 14.75 Z M 22.25 14.75 L 22.25 15 L 23.75 15 C 23.84375 15 23.921875 15.050781 23.964844 15.125 C 23.988281 15.085938 24 15.046875 24 15 C 24 14.863281 23.886719 14.75 23.75 14.75 Z M 12.25 15.75 C 12.113281 15.75 12 15.863281 12 16 C 12 16.046875 12.011719 16.085938 12.035156 16.125 C 12.078125 16.050781 12.15625 16 12.25 16 L 13.75 16 L 13.75 15.75 Z M 14.25 15.75 L 14.25 16 L 14.75 16 L 14.75 15.75 Z M 15.25 15.75 L 15.25 16 L 15.75 16 L 15.75 15.75 Z M 16.25 15.75 L 16.25 16 L 16.75 16 L 16.75 15.75 Z M 17.25 15.75 L 17.25 16 L 17.75 16 L 17.75 15.75 Z M 18.25 15.75 L 18.25 16 L 18.75 16 L 18.75 15.75 Z M 19.25 15.75 L 19.25 16 L 19.75 16 L 19.75 15.75 Z M 20.25 15.75 L 20.25 16 L 20.75 16 L 20.75 15.75 Z M 21.25 15.75 L 21.25 16 L 21.75 16 L 21.75 15.75 Z M 22.25 15.75 L 22.25 16 L 23.75 16 C 23.84375 16 23.921875 16.050781 23.964844 16.125 C 23.988281 16.085938 24 16.046875 24 16 C 24 15.863281 23.886719 15.75 23.75 15.75 Z M 12.25 16.75 C 12.113281 16.75 12 16.863281 12 17 C 12 17.046875 12.011719 17.085938 12.035156 17.125 C 12.078125 17.050781 12.15625 17 12.25 17 L 13.75 17 L 13.75 16.75 Z M 14.25 16.75 L 14.25 17 L 14.75 17 L 14.75 16.75 Z M 15.25 16.75 L 15.25 17 L 15.75 17 L 15.75 16.75 Z M 16.25 16.75 L 16.25 17 L 16.75 17 L 16.75 16.75 Z M 17.25 16.75 L 17.25 17 L 17.75 17 L 17.75 16.75 Z M 18.25 16.75 L 18.25 17 L 18.75 17 L 18.75 16.75 Z M 19.25 16.75 L 19.25 17 L 19.75 17 L 19.75 16.75 Z M 20.25 16.75 L 20.25 17 L 20.75 17 L 20.75 16.75 Z M 21.25 16.75 L 21.25 17 L 21.75 17 L 21.75 16.75 Z M 22.25 16.75 L 22.25 17 L 23.75 17 C 23.84375 17 23.921875 17.050781 23.964844 17.125 C 23.988281 17.085938 24 17.046875 24 17 C 24 16.863281 23.886719 16.75 23.75 16.75 Z M 12.25 17.75 C 12.113281 17.75 12 17.863281 12 18 C 12 18.046875 12.011719 18.085938 12.035156 18.125 C 12.078125 18.050781 12.15625 18 12.25 18 L 13.75 18 L 13.75 17.75 Z M 14.25 17.75 L 14.25 18 L 14.75 18 L 14.75 17.75 Z M 15.25 17.75 L 15.25 18 L 15.75 18 L 15.75 17.75 Z M 16.25 17.75 L 16.25 18 L 16.75 18 L 16.75 17.75 Z M 17.25 17.75 L 17.25 18 L 17.75 18 L 17.75 17.75 Z M 18.25 17.75 L 18.25 18 L 18.75 18 L 18.75 17.75 Z M 19.25 17.75 L 19.25 18 L 19.75 18 L 19.75 17.75 Z M 20.25 17.75 L 20.25 18 L 20.75 18 L 20.75 17.75 Z M 21.25 17.75 L 21.25 18 L 21.75 18 L 21.75 17.75 Z M 22.25 17.75 L 22.25 18 L 23.75 18 C 23.84375 18 23.921875 18.050781 23.964844 18.125 C 23.988281 18.085938 24 18.046875 24 18 C 24 17.863281 23.886719 17.75 23.75 17.75 Z M 12.25 18.75 C 12.113281 18.75 12 18.863281 12 19 C 12 19.046875 12.011719 19.085938 12.035156 19.125 C 12.078125 19.050781 12.15625 19 12.25 19 L 13.75 19 L 13.75 18.75 Z M 14.25 18.75 L 14.25 19 L 14.75 19 L 14.75 18.75 Z M 15.25 18.75 L 15.25 19 L 15.75 19 L 15.75 18.75 Z M 16.25 18.75 L 16.25 19 L 16.75 19 L 16.75 18.75 Z M 17.25 18.75 L 17.25 19 L 17.75 19 L 17.75 18.75 Z M 18.25 18.75 L 18.25 19 L 18.75 19 L 18.75 18.75 Z M 19.25 18.75 L 19.25 19 L 19.75 19 L 19.75 18.75 Z M 20.25 18.75 L 20.25 19 L 20.75 19 L 20.75 18.75 Z M 21.25 18.75 L 21.25 19 L 21.75 19 L 21.75 18.75 Z M 22.25 18.75 L 22.25 19 L 23.75 19 C 23.84375 19 23.921875 19.050781 23.964844 19.125 C 23.988281 19.085938 24 19.046875 24 19 C 24 18.863281 23.886719 18.75 23.75 18.75 Z M 12.25 19.75 C 12.113281 19.75 12 19.863281 12 20 C 12 20.046875 12.011719 20.085938 12.035156 20.125 C 12.078125 20.050781 12.15625 20 12.25 20 L 13.75 20 L 13.75 19.75 Z M 14.25 19.75 L 14.25 20 L 14.75 20 L 14.75 19.75 Z M 15.25 19.75 L 15.25 20 L 15.75 20 L 15.75 19.75 Z M 16.25 19.75 L 16.25 20 L 16.75 20 L 16.75 19.75 Z M 17.25 19.75 L 17.25 20 L 17.75 20 L 17.75 19.75 Z M 18.25 19.75 L 18.25 20 L 18.75 20 L 18.75 19.75 Z M 19.25 19.75 L 19.25 20 L 19.75 20 L 19.75 19.75 Z M 20.25 19.75 L 20.25 20 L 20.75 20 L 20.75 19.75 Z M 21.25 19.75 L 21.25 20 L 21.75 20 L 21.75 19.75 Z M 22.25 19.75 L 22.25 20 L 23.75 20 C 23.84375 20 23.921875 20.050781 23.964844 20.125 C 23.988281 20.085938 24 20.046875 24 20 C 24 19.863281 23.886719 19.75 23.75 19.75 Z M 22.25 19.75 "/>
<path style=" stroke:none;fill-rule:nonzero;fill:rgb(87.843138%,87.843138%,87.843138%);fill-opacity:0.996078;" d="M 2.5 4 C 2.222656 4 2 4.222656 2 4.5 L 2 5.5 C 2 5.777344 2.222656 6 2.5 6 L 5 6 L 5 27.5 C 5 27.777344 5.222656 28 5.5 28 L 6.5 28 C 6.777344 28 7 27.777344 7 27.5 L 7 4.5 C 7 4.222656 6.777344 4 6.5 4 Z M 2.5 4 "/>
<path style=" stroke:none;fill-rule:nonzero;fill:rgb(100%,79.215688%,15.686275%);fill-opacity:0.996078;" d="M 11.238281 24.25 C 11.105469 24.257812 11 24.367188 11 24.5 L 11 26 L 12 26 L 12 24.5 C 12 24.363281 11.886719 24.25 11.75 24.25 L 11.25 24.25 C 11.246094 24.25 11.242188 24.25 11.238281 24.25 Z M 11.238281 24.25 "/>
<path style=" stroke:none;fill-rule:nonzero;fill:rgb(100%,100%,100%);fill-opacity:0.4;" d="M 11.238281 24.25 C 11.105469 24.257812 11 24.367188 11 24.5 L 11 24.738281 C 11.007812 24.609375 11.109375 24.507812 11.238281 24.5 C 11.242188 24.5 11.246094 24.5 11.25 24.5 L 11.75 24.5 C 11.882812 24.5 11.992188 24.605469 12 24.738281 L 12 24.5 C 12 24.363281 11.886719 24.25 11.75 24.25 L 11.25 24.25 C 11.246094 24.25 11.242188 24.25 11.238281 24.25 Z M 11.238281 24.25 "/>
<path style=" stroke:none;fill-rule:nonzero;fill:rgb(100%,79.215688%,15.686275%);fill-opacity:0.996078;" d="M 13.238281 24.25 C 13.105469 24.257812 13 24.367188 13 24.5 L 13 26 L 14 26 L 14 24.5 C 14 24.363281 13.886719 24.25 13.75 24.25 L 13.25 24.25 C 13.246094 24.25 13.242188 24.25 13.238281 24.25 Z M 13.238281 24.25 "/>
<path style=" stroke:none;fill-rule:nonzero;fill:rgb(100%,100%,100%);fill-opacity:0.4;" d="M 13.238281 24.25 C 13.105469 24.257812 13 24.367188 13 24.5 L 13 24.738281 C 13.007812 24.609375 13.109375 24.507812 13.238281 24.5 C 13.242188 24.5 13.246094 24.5 13.25 24.5 L 13.75 24.5 C 13.882812 24.5 13.992188 24.605469 14 24.738281 L 14 24.5 C 14 24.363281 13.886719 24.25 13.75 24.25 L 13.25 24.25 C 13.246094 24.25 13.242188 24.25 13.238281 24.25 Z M 13.238281 24.25 "/>
<path style=" stroke:none;fill-rule:nonzero;fill:rgb(100%,79.215688%,15.686275%);fill-opacity:0.996078;" d="M 15.238281 24.25 C 15.105469 24.257812 15 24.367188 15 24.5 L 15 26 L 16 26 L 16 24.5 C 16 24.363281 15.886719 24.25 15.75 24.25 L 15.25 24.25 C 15.246094 24.25 15.242188 24.25 15.238281 24.25 Z M 15.238281 24.25 "/>
<path style=" stroke:none;fill-rule:nonzero;fill:rgb(100%,100%,100%);fill-opacity:0.4;" d="M 15.238281 24.25 C 15.105469 24.257812 15 24.367188 15 24.5 L 15 24.738281 C 15.007812 24.609375 15.109375 24.507812 15.238281 24.5 C 15.242188 24.5 15.246094 24.5 15.25 24.5 L 15.75 24.5 C 15.882812 24.5 15.992188 24.605469 16 24.738281 L 16 24.5 C 16 24.363281 15.886719 24.25 15.75 24.25 L 15.25 24.25 C 15.246094 24.25 15.242188 24.25 15.238281 24.25 Z M 15.238281 24.25 "/>
<path style=" stroke:none;fill-rule:nonzero;fill:rgb(100%,79.215688%,15.686275%);fill-opacity:0.996078;" d="M 17.238281 24.25 C 17.105469 24.257812 17 24.367188 17 24.5 L 17 26 L 18 26 L 18 24.5 C 18 24.363281 17.886719 24.25 17.75 24.25 L 17.25 24.25 C 17.246094 24.25 17.242188 24.25 17.238281 24.25 Z M 17.238281 24.25 "/>
<path style=" stroke:none;fill-rule:nonzero;fill:rgb(100%,100%,100%);fill-opacity:0.4;" d="M 17.238281 24.25 C 17.105469 24.257812 17 24.367188 17 24.5 L 17 24.738281 C 17.007812 24.609375 17.109375 24.507812 17.238281 24.5 C 17.242188 24.5 17.246094 24.5 17.25 24.5 L 17.75 24.5 C 17.882812 24.5 17.992188 24.605469 18 24.738281 L 18 24.5 C 18 24.363281 17.886719 24.25 17.75 24.25 L 17.25 24.25 C 17.246094 24.25 17.242188 24.25 17.238281 24.25 Z M 17.238281 24.25 "/>
<path style=" stroke:none;fill-rule:nonzero;fill:rgb(100%,79.215688%,15.686275%);fill-opacity:0.996078;" d="M 22.238281 24.25 C 22.105469 24.257812 22 24.367188 22 24.5 L 22 26 L 23 26 L 23 24.5 C 23 24.363281 22.886719 24.25 22.75 24.25 L 22.25 24.25 C 22.246094 24.25 22.242188 24.25 22.238281 24.25 Z M 22.238281 24.25 "/>
<path style=" stroke:none;fill-rule:nonzero;fill:rgb(100%,100%,100%);fill-opacity:0.4;" d="M 22.238281 24.25 C 22.105469 24.257812 22 24.367188 22 24.5 L 22 24.738281 C 22.007812 24.609375 22.109375 24.507812 22.238281 24.5 C 22.242188 24.5 22.246094 24.5 22.25 24.5 L 22.75 24.5 C 22.882812 24.5 22.992188 24.605469 23 24.738281 L 23 24.5 C 23 24.363281 22.886719 24.25 22.75 24.25 L 22.25 24.25 C 22.246094 24.25 22.242188 24.25 22.238281 24.25 Z M 22.238281 24.25 "/>
<path style=" stroke:none;fill-rule:nonzero;fill:rgb(100%,79.215688%,15.686275%);fill-opacity:0.996078;" d="M 24.238281 24.25 C 24.105469 24.257812 24 24.367188 24 24.5 L 24 26 L 25 26 L 25 24.5 C 25 24.363281 24.886719 24.25 24.75 24.25 L 24.25 24.25 C 24.246094 24.25 24.242188 24.25 24.238281 24.25 Z M 24.238281 24.25 "/>
<path style=" stroke:none;fill-rule:nonzero;fill:rgb(100%,100%,100%);fill-opacity:0.4;" d="M 24.238281 24.25 C 24.105469 24.257812 24 24.367188 24 24.5 L 24 24.738281 C 24.007812 24.609375 24.109375 24.507812 24.238281 24.5 C 24.242188 24.5 24.246094 24.5 24.25 24.5 L 24.75 24.5 C 24.882812 24.5 24.992188 24.605469 25 24.738281 L 25 24.5 C 25 24.363281 24.886719 24.25 24.75 24.25 L 24.25 24.25 C 24.246094 24.25 24.242188 24.25 24.238281 24.25 Z M 24.238281 24.25 "/>
<path style=" stroke:none;fill-rule:nonzero;fill:rgb(0%,0%,0%);fill-opacity:0.4;" d="M 10 24.5 L 10 25 C 10 25.554688 10.445312 26 11 26 L 18 26 C 18.554688 26 19 25.554688 19 25 L 19 24.5 C 19 25.054688 18.554688 25.5 18 25.5 L 11 25.5 C 10.445312 25.5 10 25.054688 10 24.5 Z M 10 24.5 "/>
<path style=" stroke:none;fill-rule:nonzero;fill:rgb(0%,0%,0%);fill-opacity:0.4;" d="M 21 24.5 L 21 25 C 21 25.554688 21.445312 26 22 26 L 25 26 C 25.554688 26 26 25.554688 26 25 L 26 24.5 C 26 25.054688 25.554688 25.5 25 25.5 L 22 25.5 C 21.445312 25.5 21 25.054688 21 24.5 Z M 21 24.5 "/>
<path style=" stroke:none;fill-rule:nonzero;fill:rgb(0%,0%,0%);fill-opacity:0.2;" d="M 10 24 L 19 24 L 19 24.5 L 10 24.5 Z M 10 24 "/>
<path style=" stroke:none;fill-rule:nonzero;fill:rgb(0%,0%,0%);fill-opacity:0.2;" d="M 21 24 L 26 24 L 26 24.5 L 21 24.5 Z M 21 24 "/>
<path style=" stroke:none;fill-rule:nonzero;fill:rgb(100%,100%,100%);fill-opacity:0.6;" d="M 2.5 4 C 2.222656 4 2 4.222656 2 4.5 L 2 5 C 2 4.722656 2.222656 4.5 2.5 4.5 L 6.5 4.5 C 6.777344 4.5 7 4.722656 7 5 L 7 4.5 C 7 4.222656 6.777344 4 6.5 4 Z M 2.5 4 "/>
<path style=" stroke:none;fill-rule:nonzero;fill:rgb(0%,0%,0%);fill-opacity:0.4;" d="M 2 5 L 2 5.5 C 2 5.777344 2.222656 6 2.5 6 L 5 6 L 5 5.5 L 2.5 5.5 C 2.222656 5.5 2 5.277344 2 5 Z M 5 27 L 5 27.5 C 5 27.777344 5.222656 28 5.5 28 L 6.5 28 C 6.777344 28 7 27.777344 7 27.5 L 7 27 C 7 27.277344 6.777344 27.5 6.5 27.5 L 5.5 27.5 C 5.222656 27.5 5 27.277344 5 27 Z M 5 27 "/>
<path style=" stroke:none;fill-rule:nonzero;fill:rgb(38.039216%,38.039216%,38.039216%);fill-opacity:1;" d="M 14 11 L 22 11 C 22.550781 11 23 11.449219 23 12 L 23 20 C 23 20.550781 22.550781 21 22 21 L 14 21 C 13.449219 21 13 20.550781 13 20 L 13 12 C 13 11.449219 13.449219 11 14 11 Z M 14 11 "/>
<path style=" stroke:none;fill-rule:nonzero;fill:rgb(100%,100%,100%);fill-opacity:0.4;" d="M 14 11 C 13.445312 11 13 11.445312 13 12 L 13 12.5 C 13 11.945312 13.445312 11.5 14 11.5 L 22 11.5 C 22.554688 11.5 23 11.945312 23 12.5 L 23 12 C 23 11.445312 22.554688 11 22 11 Z M 14 11 "/>
<path style=" stroke:none;fill-rule:nonzero;fill:rgb(0%,0%,0%);fill-opacity:0.4;" d="M 14 21.5 C 13.445312 21.5 13 21.054688 13 20.5 L 13 20 C 13 20.554688 13.445312 21 14 21 L 22 21 C 22.554688 21 23 20.554688 23 20 L 23 20.5 C 23 21.054688 22.554688 21.5 22 21.5 Z M 14 21.5 "/>
<path style=" stroke:none;fill-rule:nonzero;fill:rgb(38.039216%,38.039216%,38.039216%);fill-opacity:1;" d="M 26.5 11 L 27.5 11 C 27.777344 11 28 11.222656 28 11.5 L 28 14.5 C 28 14.777344 27.777344 15 27.5 15 L 26.5 15 C 26.222656 15 26 14.777344 26 14.5 L 26 11.5 C 26 11.222656 26.222656 11 26.5 11 Z M 26.5 11 "/>
<path style=" stroke:none;fill-rule:nonzero;fill:rgb(100%,100%,100%);fill-opacity:0.4;" d="M 26.5 11 C 26.222656 11 26 11.222656 26 11.5 L 26 12 C 26 11.722656 26.222656 11.5 26.5 11.5 L 27.5 11.5 C 27.777344 11.5 28 11.722656 28 12 L 28 11.5 C 28 11.222656 27.777344 11 27.5 11 Z M 26.5 11 "/>
<path style=" stroke:none;fill-rule:nonzero;fill:rgb(0%,0%,0%);fill-opacity:0.4;" d="M 26.5 15.5 C 26.222656 15.5 26 15.277344 26 15 L 26 14.5 C 26 14.777344 26.222656 15 26.5 15 L 27.5 15 C 27.777344 15 28 14.777344 28 14.5 L 28 15 C 28 15.277344 27.777344 15.5 27.5 15.5 Z M 26.5 15.5 "/>
<path style=" stroke:none;fill-rule:nonzero;fill:rgb(0%,0%,0%);fill-opacity:0.2;" d="M 2 5.5 L 2 6.25 C 2 6.527344 2.222656 6.75 2.5 6.75 L 5 6.75 L 5 6 L 2.5 6 C 2.222656 6 2 5.777344 2 5.5 Z M 30 22 C 30 23.109375 29.109375 24 28 24 L 26 24 L 26 24.75 L 28 24.75 C 29.109375 24.75 30 23.859375 30 22.75 Z M 7 24 L 7 24.75 L 10 24.75 L 10 24 Z M 19 24 L 19 24.75 L 21 24.75 L 21 24 Z M 10 25 L 10 25.75 C 10 26.304688 10.445312 26.75 11 26.75 L 18 26.75 C 18.554688 26.75 19 26.304688 19 25.75 L 19 25 C 19 25.554688 18.554688 26 18 26 L 11 26 C 10.445312 26 10 25.554688 10 25 Z M 21 25 L 21 25.75 C 21 26.304688 21.445312 26.75 22 26.75 L 25 26.75 C 25.554688 26.75 26 26.304688 26 25.75 L 26 25 C 26 25.554688 25.554688 26 25 26 L 22 26 C 21.445312 26 21 25.554688 21 25 Z M 5 27.5 L 5 28.25 C 5 28.527344 5.222656 28.75 5.5 28.75 L 6.5 28.75 C 6.777344 28.75 7 28.527344 7 28.25 L 7 27.5 C 7 27.777344 6.777344 28 6.5 28 L 5.5 28 C 5.222656 28 5 27.777344 5 27.5 Z M 5 27.5 "/>
<path style=" stroke:none;fill-rule:nonzero;fill:rgb(74.117649%,74.117649%,74.117649%);fill-opacity:0.996078;" d="M 14 12.5 L 17.75 12.5 C 17.886719 12.5 18 12.613281 18 12.75 C 18 12.886719 17.886719 13 17.75 13 L 14 13 C 13.863281 13 13.75 12.886719 13.75 12.75 C 13.75 12.613281 13.863281 12.5 14 12.5 Z M 14 12.5 "/>
<path style=" stroke:none;fill-rule:nonzero;fill:rgb(74.117649%,74.117649%,74.117649%);fill-opacity:0.996078;" d="M 18.25 14 L 22 14 C 22.136719 14 22.25 14.113281 22.25 14.25 C 22.25 14.386719 22.136719 14.5 22 14.5 L 18.25 14.5 C 18.113281 14.5 18 14.386719 18 14.25 C 18 14.113281 18.113281 14 18.25 14 Z M 18.25 14 "/>
<path style=" stroke:none;fill-rule:nonzero;fill:rgb(74.117649%,74.117649%,74.117649%);fill-opacity:0.996078;" d="M 19 12.5 L 21 12.5 C 21.136719 12.5 21.25 12.613281 21.25 12.75 C 21.25 12.886719 21.136719 13 21 13 L 19 13 C 18.863281 13 18.75 12.886719 18.75 12.75 C 18.75 12.613281 18.863281 12.5 19 12.5 Z M 19 12.5 "/>
<path style=" stroke:none;fill-rule:nonzero;fill:rgb(74.117649%,74.117649%,74.117649%);fill-opacity:0.996078;" d="M 16.25 15.75 L 18.25 15.75 C 18.386719 15.75 18.5 15.863281 18.5 16 C 18.5 16.136719 18.386719 16.25 18.25 16.25 L 16.25 16.25 C 16.113281 16.25 16 16.136719 16 16 C 16 15.863281 16.113281 15.75 16.25 15.75 Z M 16.25 15.75 "/>
<path style=" stroke:none;fill-rule:nonzero;fill:rgb(74.117649%,74.117649%,74.117649%);fill-opacity:0.996078;" d="M 20 15.75 L 22 15.75 C 22.136719 15.75 22.25 15.863281 22.25 16 C 22.25 16.136719 22.136719 16.25 22 16.25 L 20 16.25 C 19.863281 16.25 19.75 16.136719 19.75 16 C 19.75 15.863281 19.863281 15.75 20 15.75 Z M 20 15.75 "/>
<path style=" stroke:none;fill-rule:nonzero;fill:rgb(74.117649%,74.117649%,74.117649%);fill-opacity:0.996078;" d="M 15.25 17.5 L 17.25 17.5 C 17.386719 17.5 17.5 17.613281 17.5 17.75 C 17.5 17.886719 17.386719 18 17.25 18 L 15.25 18 C 15.113281 18 15 17.886719 15 17.75 C 15 17.613281 15.113281 17.5 15.25 17.5 Z M 15.25 17.5 "/>
<path style=" stroke:none;fill-rule:nonzero;fill:rgb(74.117649%,74.117649%,74.117649%);fill-opacity:0.996078;" d="M 18.25 17.5 L 22 17.5 C 22.136719 17.5 22.25 17.613281 22.25 17.75 C 22.25 17.886719 22.136719 18 22 18 L 18.25 18 C 18.113281 18 18 17.886719 18 17.75 C 18 17.613281 18.113281 17.5 18.25 17.5 Z M 18.25 17.5 "/>
<path style=" stroke:none;fill-rule:nonzero;fill:rgb(74.117649%,74.117649%,74.117649%);fill-opacity:0.996078;" d="M 15 14 L 17 14 C 17.136719 14 17.25 14.113281 17.25 14.25 C 17.25 14.386719 17.136719 14.5 17 14.5 L 15 14.5 C 14.863281 14.5 14.75 14.386719 14.75 14.25 C 14.75 14.113281 14.863281 14 15 14 Z M 15 14 "/>
<path style=" stroke:none;fill-rule:nonzero;fill:rgb(74.117649%,74.117649%,74.117649%);fill-opacity:0.996078;" d="M 14 19.5 L 17.75 19.5 C 17.886719 19.5 18 19.613281 18 19.75 C 18 19.886719 17.886719 20 17.75 20 L 14 20 C 13.863281 20 13.75 19.886719 13.75 19.75 C 13.75 19.613281 13.863281 19.5 14 19.5 Z M 14 19.5 "/>
<path style=" stroke:none;fill-rule:nonzero;fill:rgb(74.117649%,74.117649%,74.117649%);fill-opacity:0.996078;" d="M 19 19.5 L 21 19.5 C 21.136719 19.5 21.25 19.613281 21.25 19.75 C 21.25 19.886719 21.136719 20 21 20 L 19 20 C 18.863281 20 18.75 19.886719 18.75 19.75 C 18.75 19.613281 18.863281 19.5 19 19.5 Z M 19 19.5 "/>
<path style=" stroke:none;fill-rule:nonzero;fill:url(#linear0);" d="M 2.5 4 C 2.222656 4 2 4.222656 2 4.5 L 2 5.5 C 2 5.777344 2.222656 6 2.5 6 L 5 6 L 5 27.5 C 5 27.777344 5.222656 28 5.5 28 L 6.5 28 C 6.777344 28 7 27.777344 7 27.5 L 7 24 L 10 24 L 10 25 C 10 25.554688 10.445312 26 11 26 L 18 26 C 18.554688 26 19 25.554688 19 25 L 19 24 L 21 24 L 21 25 C 21 25.554688 21.445312 26 22 26 L 25 26 C 25.554688 26 26 25.554688 26 25 L 26 24 L 28 24 C 29.109375 24 30 23.109375 30 22 L 30 10 C 30 8.890625 29.109375 8 28 8 L 7 8 L 7 4.5 C 7 4.222656 6.777344 4 6.5 4 Z M 2.5 4 "/>
</g>
</svg>
