
<svg xmlns="http://www.w3.org/2000/svg" xmlns:xlink="http://www.w3.org/1999/xlink" width="32" height="32" viewBox="0 0 32 32" version="1.1">
<defs>
<linearGradient id="linear0" gradientUnits="userSpaceOnUse" x1="31.999998" y1="57.999996" x2="31.999998" y2="8" gradientTransform="matrix(0.5,0,0,0.5,-0.000000340157,0)">
<stop offset="0" style="stop-color:rgb(0%,0%,0%);stop-opacity:0.2;"/>
<stop offset="1" style="stop-color:rgb(100%,100%,100%);stop-opacity:0;"/>
</linearGradient>
</defs>
<g id="surface1">
<path style=" stroke:none;fill-rule:nonzero;fill:rgb(36.078432%,41.960785%,75.294119%);fill-opacity:1;" d="M 4 3.992188 L 28 3.992188 C 29.105469 3.992188 30 4.886719 30 5.992188 L 30 25.992188 C 30 27.09375 29.105469 27.992188 28 27.992188 L 4 27.992188 C 2.894531 27.992188 2 27.09375 2 25.992188 L 2 5.992188 C 2 4.886719 2.894531 3.992188 4 3.992188 Z M 4 3.992188 "/>
<path style=" stroke:none;fill-rule:nonzero;fill:rgb(25.882354%,64.705884%,96.078432%);fill-opacity:1;" d="M 2.261719 5 L 16 15.992188 L 2.703125 27.515625 C 2.273438 27.148438 2 26.601562 2 25.988281 L 2 5.992188 C 2 5.628906 2.097656 5.292969 2.261719 5 Z M 2.261719 5 "/>
<path style=" stroke:none;fill-rule:nonzero;fill:rgb(47.058824%,56.470591%,61.176473%);fill-opacity:1;" d="M 16 15.992188 L 2.632812 27.449219 C 2.988281 27.785156 3.46875 27.992188 4 27.992188 L 28 27.992188 C 28.53125 27.992188 29.011719 27.785156 29.367188 27.449219 Z M 16 15.992188 "/>
<path style=" stroke:none;fill-rule:nonzero;fill:rgb(92.54902%,25.098041%,47.843137%);fill-opacity:1;" d="M 29.738281 5 L 16 15.992188 L 29.296875 27.515625 C 29.726562 27.148438 30 26.601562 30 25.988281 L 30 5.992188 C 30 5.628906 29.902344 5.292969 29.738281 5 Z M 29.738281 5 "/>
<path style=" stroke:none;fill-rule:nonzero;fill:rgb(0.392157%,0.392157%,0.392157%);fill-opacity:0.4;" d="M 2 25.5 L 2 26 C 2 27.109375 2.890625 28 4 28 L 28 28 C 29.109375 28 30 27.109375 30 26 L 30 25.5 C 30 26.609375 29.109375 27.5 28 27.5 L 4 27.5 C 2.890625 27.5 2 26.609375 2 25.5 Z M 2 25.5 "/>
<path style=" stroke:none;fill-rule:nonzero;fill:rgb(87.843138%,87.843138%,87.843138%);fill-opacity:1;" d="M 5 24 L 27 24 C 27.550781 24 28 24.449219 28 25 L 28 28 C 28 28.550781 27.550781 29 27 29 L 5 29 C 4.449219 29 4 28.550781 4 28 L 4 25 C 4 24.449219 4.449219 24 5 24 Z M 5 24 "/>
<path style=" stroke:none;fill-rule:nonzero;fill:rgb(87.843138%,87.843138%,87.843138%);fill-opacity:1;" d="M 4 4 C 2.890625 4 2 4.890625 2 6 L 30 6 C 30 4.890625 29.109375 4 28 4 Z M 4 4 "/>
<path style=" stroke:none;fill-rule:nonzero;fill:rgb(0%,0%,0%);fill-opacity:0.4;" d="M 2 6 L 2 6.5 L 30 6.5 L 30 6 Z M 4 27.5 L 4 28 C 4 28.554688 4.445312 29 5 29 L 27 29 C 27.554688 29 28 28.554688 28 28 L 28 27.5 C 28 28.054688 27.554688 28.5 27 28.5 L 5 28.5 C 4.445312 28.5 4 28.054688 4 27.5 Z M 4 27.5 "/>
<path style=" stroke:none;fill-rule:nonzero;fill:rgb(100%,100%,100%);fill-opacity:0.8;" d="M 4 4 C 2.890625 4 2 4.890625 2 6 L 2.0625 6 C 2.277344 5.128906 3.058594 4.484375 4 4.484375 L 28 4.484375 C 28.941406 4.484375 29.722656 5.128906 29.9375 6 L 30 6 C 30 4.890625 29.109375 4 28 4 Z M 5 24 C 4.445312 24 4 24.445312 4 25 L 4 25.484375 C 4 24.933594 4.445312 24.484375 5 24.484375 L 27 24.484375 C 27.554688 24.484375 28 24.933594 28 25.484375 L 28 25 C 28 24.445312 27.554688 24 27 24 Z M 5 24 "/>
<path style=" stroke:none;fill-rule:nonzero;fill:rgb(0%,0%,0%);fill-opacity:0.2;" d="M 2 26 L 2 26.75 C 2 27.859375 2.890625 28.75 4 28.75 C 4 29.304688 4.445312 29.75 5 29.75 L 27 29.75 C 27.554688 29.75 28 29.304688 28 28.75 C 29.109375 28.75 30 27.859375 30 26.75 L 30 26 C 30 27.109375 29.109375 28 28 28 C 28 28.554688 27.554688 29 27 29 L 5 29 C 4.445312 29 4 28.554688 4 28 C 2.890625 28 2 27.109375 2 26 Z M 2 26 "/>
<path style=" stroke:none;fill-rule:nonzero;fill:rgb(87.843138%,87.843138%,87.843138%);fill-opacity:1;" d="M 16 11 C 16.53125 11 17.351562 13.746094 17.78125 14.054688 C 18.210938 14.367188 21.074219 14.300781 21.238281 14.804688 C 21.402344 15.308594 19.042969 16.9375 18.878906 17.441406 C 18.714844 17.949219 19.667969 20.648438 19.238281 20.960938 C 18.808594 21.273438 16.53125 19.535156 16 19.535156 C 15.46875 19.535156 13.191406 21.273438 12.761719 20.960938 C 12.332031 20.648438 13.285156 17.949219 13.121094 17.441406 C 12.957031 16.9375 10.597656 15.308594 10.761719 14.804688 C 10.925781 14.300781 13.789062 14.367188 14.21875 14.054688 C 14.648438 13.746094 15.46875 11 16 11 Z M 16 11 "/>
<path style=" stroke:none;fill-rule:nonzero;fill:rgb(0%,0%,0%);fill-opacity:0.4;" d="M 10.792969 15.003906 C 10.777344 15.019531 10.769531 15.039062 10.761719 15.054688 C 10.746094 15.109375 10.757812 15.175781 10.789062 15.25 C 10.777344 15.265625 10.769531 15.28125 10.761719 15.296875 C 10.597656 15.804688 12.957031 17.433594 13.117188 17.9375 C 13.125 17.957031 13.125 17.980469 13.128906 18.003906 C 13.140625 17.898438 13.140625 17.808594 13.132812 17.742188 C 13.140625 17.613281 13.140625 17.507812 13.117188 17.445312 C 12.972656 16.992188 11.078125 15.644531 10.792969 15.003906 Z M 21.207031 15.003906 C 20.921875 15.644531 19.027344 16.992188 18.882812 17.445312 C 18.859375 17.507812 18.859375 17.613281 18.867188 17.742188 C 18.859375 17.808594 18.859375 17.898438 18.871094 18.003906 C 18.875 17.980469 18.875 17.953125 18.882812 17.9375 C 19.042969 17.433594 21.402344 15.804688 21.238281 15.296875 C 21.230469 15.28125 21.222656 15.265625 21.210938 15.25 C 21.242188 15.175781 21.253906 15.109375 21.238281 15.054688 C 21.230469 15.035156 21.222656 15.019531 21.207031 15.003906 Z M 16 19.535156 C 15.46875 19.535156 13.191406 21.273438 12.761719 20.960938 C 12.699219 20.914062 12.667969 20.8125 12.65625 20.671875 C 12.652344 20.769531 12.648438 20.855469 12.65625 20.929688 C 12.640625 21.191406 12.667969 21.386719 12.761719 21.453125 C 13.191406 21.765625 15.46875 20.03125 16 20.03125 C 16.53125 20.03125 18.808594 21.765625 19.238281 21.453125 C 19.332031 21.386719 19.359375 21.191406 19.34375 20.929688 C 19.351562 20.855469 19.347656 20.769531 19.34375 20.671875 C 19.332031 20.8125 19.300781 20.914062 19.238281 20.960938 C 18.808594 21.273438 16.53125 19.535156 16 19.535156 Z M 16 19.535156 "/>
<path style=" stroke:none;fill-rule:nonzero;fill:rgb(99.607843%,99.607843%,99.607843%);fill-opacity:0.4;" d="M 16 11 C 15.46875 11 14.648438 13.746094 14.21875 14.054688 C 13.789062 14.367188 10.925781 14.300781 10.761719 14.804688 C 10.746094 14.859375 10.757812 14.925781 10.792969 15 C 10.792969 15.003906 10.792969 15.003906 10.792969 15.003906 C 10.777344 15.019531 10.769531 15.039062 10.761719 15.054688 C 10.746094 15.109375 10.757812 15.175781 10.792969 15.253906 C 11.132812 14.804688 13.804688 14.855469 14.21875 14.554688 C 14.648438 14.246094 15.46875 11.5 16 11.5 C 16.53125 11.5 17.351562 14.246094 17.78125 14.554688 C 18.195312 14.855469 20.867188 14.804688 21.207031 15.253906 C 21.242188 15.175781 21.253906 15.109375 21.238281 15.054688 C 21.230469 15.039062 21.222656 15.019531 21.207031 15.003906 C 21.207031 15.003906 21.207031 15.003906 21.207031 15 C 21.242188 14.925781 21.253906 14.859375 21.238281 14.804688 C 21.074219 14.300781 18.210938 14.367188 17.78125 14.054688 C 17.351562 13.746094 16.53125 11 16 11 Z M 14.21875 14.304688 C 14.207031 14.316406 14.191406 14.324219 14.175781 14.332031 C 14.191406 14.324219 14.207031 14.316406 14.21875 14.304688 Z M 17.78125 14.304688 C 17.792969 14.316406 17.808594 14.324219 17.824219 14.332031 C 17.808594 14.324219 17.792969 14.316406 17.78125 14.304688 Z M 12.289062 14.621094 C 12.222656 14.628906 12.160156 14.636719 12.097656 14.640625 C 12.015625 14.652344 11.933594 14.664062 11.851562 14.671875 C 11.933594 14.664062 12.015625 14.652344 12.097656 14.640625 C 12.160156 14.636719 12.222656 14.628906 12.289062 14.621094 Z M 19.710938 14.621094 C 19.777344 14.628906 19.839844 14.636719 19.902344 14.640625 C 19.984375 14.652344 20.066406 14.664062 20.148438 14.671875 C 20.066406 14.664062 19.984375 14.652344 19.902344 14.640625 C 19.839844 14.636719 19.777344 14.628906 19.710938 14.621094 Z M 13.128906 17.761719 C 13.0625 18.488281 12.605469 20.011719 12.65625 20.671875 C 12.65625 20.660156 12.660156 20.648438 12.660156 20.636719 C 12.664062 20.585938 12.667969 20.535156 12.675781 20.476562 C 12.667969 20.535156 12.664062 20.585938 12.660156 20.636719 C 12.652344 20.742188 12.652344 20.839844 12.65625 20.921875 C 12.710938 20.066406 13.195312 18.496094 13.128906 18.011719 C 13.113281 18.191406 13.074219 18.417969 13.023438 18.667969 C 13.101562 18.277344 13.152344 17.941406 13.128906 17.761719 Z M 18.871094 17.761719 C 18.847656 17.941406 18.898438 18.277344 18.976562 18.667969 C 18.925781 18.417969 18.886719 18.191406 18.871094 18.011719 C 18.804688 18.496094 19.289062 20.066406 19.34375 20.921875 C 19.347656 20.839844 19.347656 20.742188 19.339844 20.636719 C 19.335938 20.585938 19.332031 20.535156 19.324219 20.476562 C 19.332031 20.535156 19.335938 20.585938 19.339844 20.636719 C 19.339844 20.648438 19.34375 20.660156 19.34375 20.671875 C 19.394531 20.011719 18.9375 18.488281 18.871094 17.761719 Z M 12.9375 19.078125 C 12.878906 19.347656 12.820312 19.632812 12.765625 19.898438 C 12.820312 19.628906 12.878906 19.347656 12.9375 19.078125 Z M 19.0625 19.078125 C 19.121094 19.347656 19.179688 19.628906 19.234375 19.898438 C 19.179688 19.632812 19.121094 19.347656 19.0625 19.078125 Z M 12.730469 20.101562 C 12.71875 20.167969 12.710938 20.230469 12.699219 20.292969 C 12.691406 20.34375 12.6875 20.394531 12.679688 20.441406 C 12.6875 20.394531 12.691406 20.34375 12.699219 20.292969 C 12.710938 20.230469 12.71875 20.167969 12.730469 20.101562 Z M 19.269531 20.101562 C 19.28125 20.167969 19.289062 20.230469 19.300781 20.292969 C 19.308594 20.34375 19.3125 20.394531 19.320312 20.441406 C 19.3125 20.394531 19.308594 20.34375 19.300781 20.292969 C 19.289062 20.230469 19.28125 20.167969 19.269531 20.101562 Z M 19.269531 20.101562 "/>
<path style=" stroke:none;fill-rule:nonzero;fill:url(#linear0);" d="M 4 4 C 2.890625 4 2 4.890625 2 6 L 2 26 C 2 27.109375 2.890625 28 4 28 C 4 28.554688 4.445312 29 5 29 L 27 29 C 27.554688 29 28 28.554688 28 28 C 29.109375 28 30 27.109375 30 26 L 30 6 C 30 4.890625 29.109375 4 28 4 Z M 4 4 "/>
</g>
</svg>
