
<svg xmlns="http://www.w3.org/2000/svg" xmlns:xlink="http://www.w3.org/1999/xlink" width="32" height="32" viewBox="0 0 32 32" version="1.1">
<defs>
<linearGradient id="linear0" gradientUnits="userSpaceOnUse" x1="31.999998" y1="55.999996" x2="31.999998" y2="8" gradientTransform="matrix(0.5,0,0,0.5,0,0)">
<stop offset="0" style="stop-color:rgb(0%,0%,0%);stop-opacity:0.2;"/>
<stop offset="1" style="stop-color:rgb(100%,100%,100%);stop-opacity:0;"/>
</linearGradient>
</defs>
<g id="surface1">
<path style=" stroke:none;fill-rule:nonzero;fill:rgb(74.117649%,74.117649%,74.117649%);fill-opacity:0.996078;" d="M 4 4 C 2.890625 4 2 4.890625 2 6 L 2 23 C 2 24.109375 2.890625 25 4 25 L 7 25 L 7 26 C 7 27.109375 7.890625 28 9 28 L 23 28 C 24.109375 28 25 27.109375 25 26 L 25 25 L 28 25 C 29.109375 25 30 24.109375 30 23 L 30 6 C 30 4.890625 29.109375 4 28 4 Z M 4 4 "/>
<path style=" stroke:none;fill-rule:nonzero;fill:rgb(38.039216%,38.039216%,38.039216%);fill-opacity:0.996078;" d="M 6 7 C 5.445312 7 5 7.445312 5 8 L 5 21 C 5 21.554688 5.445312 22 6 22 L 10 22 L 10 24 C 10 24.554688 10.445312 25 11 25 L 21 25 C 21.554688 25 22 24.554688 22 24 L 22 22 L 26 22 C 26.554688 22 27 21.554688 27 21 L 27 8 C 27 7.445312 26.554688 7 26 7 Z M 6 7 "/>
<path style=" stroke:none;fill-rule:nonzero;fill:rgb(100%,79.215688%,15.686275%);fill-opacity:0.996078;" d="M 7 7 L 7 7.75 C 7 7.886719 7.113281 8 7.25 8 L 9.75 8 C 9.886719 8 10 7.886719 10 7.75 L 10 7 Z M 7 7 "/>
<path style=" stroke:none;fill-rule:nonzero;fill:rgb(100%,79.215688%,15.686275%);fill-opacity:0.996078;" d="M 12 7 L 12 7.75 C 12 7.886719 12.113281 8 12.25 8 L 14.75 8 C 14.886719 8 15 7.886719 15 7.75 L 15 7 Z M 12 7 "/>
<path style=" stroke:none;fill-rule:nonzero;fill:rgb(100%,79.215688%,15.686275%);fill-opacity:0.996078;" d="M 17 7 L 17 7.75 C 17 7.886719 17.113281 8 17.25 8 L 19.75 8 C 19.886719 8 20 7.886719 20 7.75 L 20 7 Z M 17 7 "/>
<path style=" stroke:none;fill-rule:nonzero;fill:rgb(100%,79.215688%,15.686275%);fill-opacity:0.996078;" d="M 22 7 L 22 7.75 C 22 7.886719 22.113281 8 22.25 8 L 24.75 8 C 24.886719 8 25 7.886719 25 7.75 L 25 7 Z M 22 7 "/>
<path style=" stroke:none;fill-rule:nonzero;fill:rgb(0.784314%,0.784314%,0.784314%);fill-opacity:0.4;" d="M 6 7 C 5.445312 7 5 7.445312 5 8 L 5 8.5 C 5 7.945312 5.445312 7.5 6 7.5 L 26 7.5 C 26.554688 7.5 27 7.945312 27 8.5 L 27 8 C 27 7.445312 26.554688 7 26 7 Z M 6 7 "/>
<path style=" stroke:none;fill-rule:nonzero;fill:rgb(100%,100%,100%);fill-opacity:0.4;" d="M 5 21 L 5 21.5 C 5 22.054688 5.445312 22.5 6 22.5 L 10 22.5 L 10 22 L 6 22 C 5.445312 22 5 21.554688 5 21 Z M 27 21 C 27 21.554688 26.554688 22 26 22 L 22 22 L 22 22.5 L 26 22.5 C 26.554688 22.5 27 22.054688 27 21.5 Z M 10 24 L 10 24.5 C 10 25.054688 10.445312 25.5 11 25.5 L 21 25.5 C 21.554688 25.5 22 25.054688 22 24.5 L 22 24 C 22 24.554688 21.554688 25 21 25 L 11 25 C 10.445312 25 10 24.554688 10 24 Z M 10 24 "/>
<path style=" stroke:none;fill-rule:nonzero;fill:rgb(100%,100%,100%);fill-opacity:0.4;" d="M 4 4 C 2.890625 4 2 4.890625 2 6 L 2 6.503906 C 2 5.394531 2.890625 4.503906 4 4.503906 L 28 4.503906 C 29.109375 4.503906 30 5.394531 30 6.503906 L 30 6 C 30 4.890625 29.109375 4 28 4 Z M 4 4 "/>
<path style=" stroke:none;fill-rule:nonzero;fill:rgb(0%,0%,0%);fill-opacity:0.4;" d="M 2 22.496094 L 2 23 C 2 24.109375 2.890625 25 4 25 L 7 25 L 7 24.496094 L 4 24.496094 C 2.890625 24.496094 2 23.605469 2 22.496094 Z M 30 22.496094 C 30 23.605469 29.109375 24.496094 28 24.496094 L 25 24.496094 L 25 25 L 28 25 C 29.109375 25 30 24.109375 30 23 Z M 7 25.496094 L 7 26 C 7 27.109375 7.890625 28 9 28 L 23 28 C 24.109375 28 25 27.109375 25 26 L 25 25.496094 C 25 26.605469 24.109375 27.496094 23 27.496094 L 9 27.496094 C 7.890625 27.496094 7 26.605469 7 25.496094 Z M 7 25.496094 "/>
<path style=" stroke:none;fill-rule:nonzero;fill:rgb(0%,0%,0%);fill-opacity:0.2;" d="M 2 23 L 2 23.75 C 2 24.859375 2.890625 25.75 4 25.75 L 7 25.75 L 7 25 L 4 25 C 2.890625 25 2 24.105469 2 23 Z M 30 23 C 30 24.105469 29.109375 25 28 25 L 25 25 L 25 25.75 L 28 25.75 C 29.109375 25.75 30 24.859375 30 23.75 Z M 7 26 L 7 26.75 C 7 27.859375 7.890625 28.75 9 28.75 L 23 28.75 C 24.109375 28.75 25 27.859375 25 26.75 L 25 26 C 25 27.105469 24.109375 28 23 28 L 9 28 C 7.890625 28 7 27.105469 7 26 Z M 7 26 "/>
<path style=" stroke:none;fill-rule:nonzero;fill:url(#linear0);" d="M 4 4 C 2.890625 4 2 4.890625 2 6 L 2 23 C 2 24.109375 2.890625 25 4 25 L 7 25 L 7 26 C 7 27.109375 7.890625 28 9 28 L 23 28 C 24.109375 28 25 27.109375 25 26 L 25 25 L 28 25 C 29.109375 25 30 24.109375 30 23 L 30 6 C 30 4.890625 29.109375 4 28 4 Z M 4 4 "/>
</g>
</svg>
