
<svg xmlns="http://www.w3.org/2000/svg" xmlns:xlink="http://www.w3.org/1999/xlink" width="48" height="48" viewBox="0 0 48 48" version="1.1">
<defs>
<linearGradient id="linear0" gradientUnits="userSpaceOnUse" x1="8.466666" y1="-199.125" x2="8.466666" y2="-213.412506" gradientTransform="matrix(2.834646,0,0,2.834646,0,609.448851)">
<stop offset="0" style="stop-color:rgb(0%,0%,0%);stop-opacity:0.2;"/>
<stop offset="1" style="stop-color:rgb(100%,100%,100%);stop-opacity:0;"/>
</linearGradient>
</defs>
<g id="surface1">
<path style=" stroke:none;fill-rule:nonzero;fill:rgb(29.803923%,68.627453%,31.37255%);fill-opacity:1;" d="M 10.5 4.5 L 37.5 4.5 C 39.15625 4.5 40.5 5.84375 40.5 7.5 L 40.5 42 C 40.5 43.65625 39.15625 45 37.5 45 L 10.5 45 C 8.84375 45 7.5 43.65625 7.5 42 L 7.5 7.5 C 7.5 5.84375 8.84375 4.5 10.5 4.5 Z M 10.5 4.5 "/>
<path style=" stroke:none;fill-rule:nonzero;fill:rgb(87.843138%,87.843138%,87.843138%);fill-opacity:0.996078;" d="M 10.5 6 L 37.5 6 C 38.328125 6 39 6.671875 39 7.5 L 39 42 C 39 42.828125 38.328125 43.5 37.5 43.5 L 10.5 43.5 C 9.671875 43.5 9 42.828125 9 42 L 9 7.5 C 9 6.671875 9.671875 6 10.5 6 Z M 10.5 6 "/>
<path style=" stroke:none;fill-rule:nonzero;fill:rgb(40.000001%,73.333335%,41.568628%);fill-opacity:0.996078;" d="M 10.5 6 C 9.667969 6 9 6.667969 9 7.5 L 9 12 L 39 12 L 39 7.5 C 39 6.667969 38.332031 6 37.5 6 Z M 10.5 6 "/>
<path style=" stroke:none;fill-rule:nonzero;fill:rgb(40.000001%,73.333335%,41.568628%);fill-opacity:1;" d="M 12.75 15 C 12.335938 15 12 15.335938 12 15.75 C 12 16.164062 12.335938 16.5 12.75 16.5 L 24.75 16.5 C 25.164062 16.5 25.5 16.164062 25.5 15.75 C 25.5 15.335938 25.164062 15 24.75 15 Z M 29.25 15 C 28.835938 15 28.5 15.335938 28.5 15.75 C 28.5 16.164062 28.835938 16.5 29.25 16.5 L 35.25 16.5 C 35.664062 16.5 36 16.164062 36 15.75 C 36 15.335938 35.664062 15 35.25 15 Z M 12.75 19.5 C 12.335938 19.5 12 19.835938 12 20.25 C 12 20.664062 12.335938 21 12.75 21 L 18.75 21 C 19.164062 21 19.5 20.664062 19.5 20.25 C 19.5 19.835938 19.164062 19.5 18.75 19.5 Z M 23.25 19.5 C 22.835938 19.5 22.5 19.835938 22.5 20.25 C 22.5 20.664062 22.835938 21 23.25 21 L 35.25 21 C 35.664062 21 36 20.664062 36 20.25 C 36 19.835938 35.664062 19.5 35.25 19.5 Z M 12.75 24 C 12.335938 24 12 24.335938 12 24.75 C 12 25.164062 12.335938 25.5 12.75 25.5 L 35.25 25.5 C 35.664062 25.5 36 25.164062 36 24.75 C 36 24.335938 35.664062 24 35.25 24 Z M 12.75 28.5 C 12.335938 28.5 12 28.835938 12 29.25 C 12 29.664062 12.335938 30 12.75 30 L 23.25 30 C 23.664062 30 24 29.664062 24 29.25 C 24 28.835938 23.664062 28.5 23.25 28.5 Z M 27.75 28.5 C 27.335938 28.5 27 28.835938 27 29.25 C 27 29.664062 27.335938 30 27.75 30 L 35.25 30 C 35.664062 30 36 29.664062 36 29.25 C 36 28.835938 35.664062 28.5 35.25 28.5 Z M 12.75 33 C 12.335938 33 12 33.335938 12 33.75 C 12 34.164062 12.335938 34.5 12.75 34.5 L 30.75 34.5 C 31.164062 34.5 31.5 34.164062 31.5 33.75 C 31.5 33.335938 31.164062 33 30.75 33 Z M 12.75 33 "/>
<path style=" stroke:none;fill-rule:nonzero;fill:rgb(100%,100%,100%);fill-opacity:0.4;" d="M 10.5 6 C 9.667969 6 9 6.667969 9 7.5 L 9 7.875 C 9 7.042969 9.667969 6.375 10.5 6.375 L 37.5 6.375 C 38.332031 6.375 39 7.042969 39 7.875 L 39 7.5 C 39 6.667969 38.332031 6 37.5 6 Z M 10.5 6 "/>
<path style=" stroke:none;fill-rule:nonzero;fill:rgb(98.039216%,98.039216%,98.039216%);fill-opacity:0.996078;" d="M 39 36 L 31.5 43.5 L 37.5 43.5 C 38.332031 43.5 39 42.832031 39 42 Z M 39 36 "/>
<path style=" stroke:none;fill-rule:nonzero;fill:rgb(100%,100%,100%);fill-opacity:0.4;" d="M 10.5 4.5 C 8.839844 4.5 7.5 5.839844 7.5 7.5 L 7.5 8.246094 C 7.5 6.582031 8.839844 5.246094 10.5 5.246094 L 37.5 5.246094 C 39.160156 5.246094 40.5 6.582031 40.5 8.246094 L 40.5 7.5 C 40.5 5.839844 39.160156 4.5 37.5 4.5 Z M 10.5 4.5 "/>
<path style=" stroke:none;fill-rule:nonzero;fill:rgb(0.392157%,0.392157%,0.392157%);fill-opacity:0.4;" d="M 13.5 7.105469 C 14.121094 7.105469 14.625 7.609375 14.625 8.230469 C 14.625 8.851562 14.121094 9.355469 13.5 9.355469 C 12.878906 9.355469 12.375 8.851562 12.375 8.230469 C 12.375 7.609375 12.878906 7.105469 13.5 7.105469 Z M 13.5 7.105469 "/>
<path style=" stroke:none;fill-rule:nonzero;fill:rgb(0.392157%,0.392157%,0.392157%);fill-opacity:0.4;" d="M 13.472656 7.105469 C 12.859375 7.121094 12.375 7.617188 12.375 8.230469 C 12.375 8.296875 12.382812 8.355469 12.390625 8.417969 C 12.480469 7.886719 12.941406 7.480469 13.5 7.480469 C 14.058594 7.480469 14.519531 7.886719 14.609375 8.417969 C 14.617188 8.355469 14.625 8.296875 14.625 8.230469 C 14.625 7.609375 14.125 7.105469 13.5 7.105469 C 13.492188 7.105469 13.480469 7.105469 13.46875 7.105469 Z M 13.472656 7.105469 "/>
<path style=" stroke:none;fill-rule:nonzero;fill:rgb(100%,100%,100%);fill-opacity:0.4;" d="M 13.472656 9.730469 C 12.859375 9.71875 12.375 9.21875 12.375 8.605469 C 12.375 8.542969 12.382812 8.480469 12.390625 8.417969 C 12.480469 8.953125 12.941406 9.355469 13.5 9.355469 C 14.058594 9.355469 14.519531 8.953125 14.609375 8.417969 C 14.617188 8.480469 14.625 8.542969 14.625 8.605469 C 14.625 9.230469 14.125 9.730469 13.5 9.730469 C 13.488281 9.730469 13.480469 9.730469 13.46875 9.730469 Z M 13.472656 9.730469 "/>
<path style=" stroke:none;fill-rule:nonzero;fill:rgb(74.117649%,74.117649%,74.117649%);fill-opacity:0.996078;" d="M 13.5 3.019531 C 13.707031 3.019531 13.875 3.1875 13.875 3.394531 L 13.875 8.25 C 13.875 8.457031 13.707031 8.625 13.5 8.625 C 13.292969 8.625 13.125 8.457031 13.125 8.25 L 13.125 3.394531 C 13.125 3.1875 13.292969 3.019531 13.5 3.019531 Z M 13.5 3.019531 "/>
<path style=" stroke:none;fill-rule:nonzero;fill:rgb(100%,100%,100%);fill-opacity:0.4;" d="M 13.480469 3.019531 C 13.28125 3.03125 13.125 3.191406 13.125 3.394531 L 13.125 3.75 C 13.132812 3.558594 13.289062 3.40625 13.480469 3.394531 C 13.488281 3.394531 13.492188 3.394531 13.5 3.394531 C 13.703125 3.394531 13.863281 3.550781 13.875 3.75 L 13.875 3.394531 C 13.875 3.1875 13.707031 3.019531 13.5 3.019531 C 13.492188 3.019531 13.488281 3.019531 13.480469 3.019531 Z M 13.480469 3.019531 "/>
<path style=" stroke:none;fill-rule:nonzero;fill:rgb(0.392157%,0.392157%,0.392157%);fill-opacity:0.4;" d="M 13.125 8.25 L 13.125 8.605469 C 13.125 8.808594 13.28125 8.96875 13.480469 8.980469 C 13.488281 8.980469 13.492188 8.980469 13.5 8.980469 C 13.707031 8.980469 13.875 8.8125 13.875 8.605469 L 13.875 8.25 C 13.863281 8.449219 13.703125 8.605469 13.5 8.605469 C 13.492188 8.605469 13.488281 8.605469 13.480469 8.605469 C 13.289062 8.59375 13.132812 8.441406 13.125 8.25 Z M 13.125 8.25 "/>
<path style=" stroke:none;fill-rule:nonzero;fill:rgb(0.392157%,0.392157%,0.392157%);fill-opacity:0.4;" d="M 10.5 45 C 8.839844 45 7.5 43.660156 7.5 42 L 7.5 41.253906 C 7.5 42.917969 8.839844 44.253906 10.5 44.253906 L 37.5 44.253906 C 39.160156 44.253906 40.5 42.917969 40.5 41.253906 L 40.5 42 C 40.5 43.660156 39.160156 45 37.5 45 Z M 10.5 45 "/>
<path style=" stroke:none;fill-rule:nonzero;fill:rgb(0.392157%,0.392157%,0.392157%);fill-opacity:0.2;" d="M 7.5 42 L 7.5 43.121094 C 7.5 44.78125 8.839844 46.121094 10.5 46.121094 L 37.5 46.121094 C 39.160156 46.121094 40.5 44.78125 40.5 43.121094 L 40.5 42 C 40.5 43.660156 39.160156 45 37.5 45 L 10.5 45 C 8.839844 45 7.5 43.660156 7.5 42 Z M 7.5 42 "/>
<path style=" stroke:none;fill-rule:nonzero;fill:rgb(0%,0%,0%);fill-opacity:0.4;" d="M 12.023438 15.9375 C 12.007812 15.996094 12 16.058594 12 16.125 C 12 16.539062 12.335938 16.875 12.75 16.875 L 24.75 16.875 C 25.164062 16.875 25.5 16.539062 25.5 16.125 C 25.5 16.058594 25.492188 15.996094 25.476562 15.9375 C 25.390625 16.261719 25.101562 16.5 24.75 16.5 L 12.75 16.5 C 12.398438 16.5 12.109375 16.261719 12.023438 15.9375 Z M 28.523438 15.9375 C 28.507812 15.996094 28.5 16.058594 28.5 16.125 C 28.5 16.539062 28.835938 16.875 29.25 16.875 L 35.25 16.875 C 35.664062 16.875 36 16.539062 36 16.125 C 36 16.058594 35.992188 15.996094 35.976562 15.9375 C 35.890625 16.261719 35.601562 16.5 35.25 16.5 L 29.25 16.5 C 28.898438 16.5 28.609375 16.261719 28.523438 15.9375 Z M 12.023438 20.4375 C 12.007812 20.496094 12 20.558594 12 20.625 C 12 21.039062 12.335938 21.375 12.75 21.375 L 18.75 21.375 C 19.164062 21.375 19.5 21.039062 19.5 20.625 C 19.5 20.558594 19.492188 20.496094 19.476562 20.4375 C 19.390625 20.761719 19.101562 21 18.75 21 L 12.75 21 C 12.398438 21 12.109375 20.761719 12.023438 20.4375 Z M 22.523438 20.4375 C 22.507812 20.496094 22.5 20.558594 22.5 20.625 C 22.5 21.039062 22.835938 21.375 23.25 21.375 L 35.25 21.375 C 35.664062 21.375 36 21.039062 36 20.625 C 36 20.558594 35.992188 20.496094 35.976562 20.4375 C 35.890625 20.761719 35.601562 21 35.25 21 L 23.25 21 C 22.898438 21 22.609375 20.761719 22.523438 20.4375 Z M 12.023438 24.9375 C 12.007812 24.996094 12 25.058594 12 25.125 C 12 25.539062 12.335938 25.875 12.75 25.875 L 35.25 25.875 C 35.664062 25.875 36 25.539062 36 25.125 C 36 25.058594 35.992188 24.996094 35.976562 24.9375 C 35.890625 25.261719 35.601562 25.5 35.25 25.5 L 12.75 25.5 C 12.398438 25.5 12.109375 25.261719 12.023438 24.9375 Z M 12.023438 29.4375 C 12.007812 29.496094 12 29.558594 12 29.625 C 12 30.039062 12.335938 30.375 12.75 30.375 L 23.25 30.375 C 23.664062 30.375 24 30.039062 24 29.625 C 24 29.558594 23.992188 29.496094 23.976562 29.4375 C 23.890625 29.761719 23.601562 30 23.25 30 L 12.75 30 C 12.398438 30 12.109375 29.761719 12.023438 29.4375 Z M 27.023438 29.4375 C 27.007812 29.496094 27 29.558594 27 29.625 C 27 30.039062 27.335938 30.375 27.75 30.375 L 35.25 30.375 C 35.664062 30.375 36 30.039062 36 29.625 C 36 29.558594 35.992188 29.496094 35.976562 29.4375 C 35.890625 29.761719 35.601562 30 35.25 30 L 27.75 30 C 27.398438 30 27.109375 29.761719 27.023438 29.4375 Z M 12.023438 33.9375 C 12.007812 33.996094 12 34.058594 12 34.125 C 12 34.539062 12.335938 34.875 12.75 34.875 L 30.75 34.875 C 31.164062 34.875 31.5 34.539062 31.5 34.125 C 31.5 34.058594 31.492188 33.996094 31.476562 33.9375 C 31.390625 34.261719 31.101562 34.5 30.75 34.5 L 12.75 34.5 C 12.398438 34.5 12.109375 34.261719 12.023438 33.9375 Z M 12.023438 33.9375 "/>
<path style=" stroke:none;fill-rule:nonzero;fill:rgb(100%,100%,100%);fill-opacity:0.4;" d="M 12.75 15 C 12.335938 15 12 15.335938 12 15.75 C 12 15.8125 12.011719 15.875 12.027344 15.933594 C 12.113281 15.613281 12.402344 15.375 12.75 15.375 L 24.75 15.375 C 25.097656 15.375 25.386719 15.613281 25.472656 15.933594 C 25.488281 15.875 25.5 15.8125 25.5 15.75 C 25.5 15.335938 25.164062 15 24.75 15 Z M 29.25 15 C 28.835938 15 28.5 15.335938 28.5 15.75 C 28.5 15.8125 28.511719 15.875 28.527344 15.933594 C 28.613281 15.613281 28.902344 15.375 29.25 15.375 L 35.25 15.375 C 35.597656 15.375 35.886719 15.613281 35.972656 15.933594 C 35.988281 15.875 36 15.8125 36 15.75 C 36 15.335938 35.664062 15 35.25 15 Z M 12.75 19.5 C 12.335938 19.5 12 19.835938 12 20.25 C 12 20.3125 12.011719 20.375 12.027344 20.433594 C 12.113281 20.113281 12.402344 19.875 12.75 19.875 L 18.75 19.875 C 19.097656 19.875 19.386719 20.113281 19.472656 20.433594 C 19.488281 20.375 19.5 20.3125 19.5 20.25 C 19.5 19.835938 19.164062 19.5 18.75 19.5 Z M 23.25 19.5 C 22.835938 19.5 22.5 19.835938 22.5 20.25 C 22.5 20.3125 22.511719 20.375 22.527344 20.433594 C 22.613281 20.113281 22.902344 19.875 23.25 19.875 L 35.25 19.875 C 35.597656 19.875 35.886719 20.113281 35.972656 20.433594 C 35.988281 20.375 36 20.3125 36 20.25 C 36 19.835938 35.664062 19.5 35.25 19.5 Z M 12.75 24 C 12.335938 24 12 24.335938 12 24.75 C 12 24.8125 12.011719 24.875 12.027344 24.933594 C 12.113281 24.613281 12.402344 24.375 12.75 24.375 L 35.25 24.375 C 35.597656 24.375 35.886719 24.613281 35.972656 24.933594 C 35.988281 24.875 36 24.8125 36 24.75 C 36 24.335938 35.664062 24 35.25 24 Z M 12.75 28.5 C 12.335938 28.5 12 28.835938 12 29.25 C 12 29.3125 12.011719 29.375 12.027344 29.433594 C 12.113281 29.113281 12.402344 28.875 12.75 28.875 L 23.25 28.875 C 23.597656 28.875 23.886719 29.113281 23.972656 29.433594 C 23.988281 29.375 24 29.3125 24 29.25 C 24 28.835938 23.664062 28.5 23.25 28.5 Z M 27.75 28.5 C 27.335938 28.5 27 28.835938 27 29.25 C 27 29.3125 27.011719 29.375 27.027344 29.433594 C 27.113281 29.113281 27.402344 28.875 27.75 28.875 L 35.25 28.875 C 35.597656 28.875 35.886719 29.113281 35.972656 29.433594 C 35.988281 29.375 36 29.3125 36 29.25 C 36 28.835938 35.664062 28.5 35.25 28.5 Z M 12.75 33 C 12.335938 33 12 33.335938 12 33.75 C 12 33.8125 12.011719 33.875 12.027344 33.933594 C 12.113281 33.613281 12.402344 33.375 12.75 33.375 L 30.75 33.375 C 31.097656 33.375 31.386719 33.613281 31.472656 33.933594 C 31.488281 33.875 31.5 33.8125 31.5 33.75 C 31.5 33.335938 31.164062 33 30.75 33 Z M 12.75 33 "/>
<path style=" stroke:none;fill-rule:nonzero;fill:rgb(25.490198%,25.490198%,25.490198%);fill-opacity:0.6;" d="M 10.5 43.875 C 9.667969 43.875 9 43.207031 9 42.375 L 9 42 C 9 42.832031 9.667969 43.5 10.5 43.5 L 37.5 43.5 C 38.332031 43.5 39 42.832031 39 42 L 39 42.375 C 39 43.207031 38.332031 43.875 37.5 43.875 Z M 10.5 43.875 "/>
<path style=" stroke:none;fill-rule:nonzero;fill:rgb(0.392157%,0.392157%,0.392157%);fill-opacity:0.4;" d="M 16.5 7.105469 C 17.121094 7.105469 17.625 7.609375 17.625 8.230469 C 17.625 8.851562 17.121094 9.355469 16.5 9.355469 C 15.878906 9.355469 15.375 8.851562 15.375 8.230469 C 15.375 7.609375 15.878906 7.105469 16.5 7.105469 Z M 16.5 7.105469 "/>
<path style=" stroke:none;fill-rule:nonzero;fill:rgb(0.392157%,0.392157%,0.392157%);fill-opacity:0.4;" d="M 16.46875 7.105469 C 15.859375 7.121094 15.375 7.617188 15.375 8.230469 C 15.375 8.296875 15.382812 8.355469 15.390625 8.417969 C 15.480469 7.886719 15.941406 7.480469 16.5 7.480469 C 17.058594 7.480469 17.519531 7.886719 17.609375 8.417969 C 17.617188 8.355469 17.625 8.296875 17.625 8.230469 C 17.625 7.609375 17.125 7.105469 16.5 7.105469 C 16.492188 7.105469 16.480469 7.105469 16.46875 7.105469 Z M 16.46875 7.105469 "/>
<path style=" stroke:none;fill-rule:nonzero;fill:rgb(100%,100%,100%);fill-opacity:0.4;" d="M 16.46875 9.730469 C 15.859375 9.71875 15.375 9.21875 15.375 8.605469 C 15.375 8.542969 15.382812 8.480469 15.390625 8.417969 C 15.480469 8.953125 15.941406 9.355469 16.5 9.355469 C 17.058594 9.355469 17.519531 8.953125 17.609375 8.417969 C 17.617188 8.480469 17.625 8.542969 17.625 8.605469 C 17.625 9.230469 17.125 9.730469 16.5 9.730469 C 16.488281 9.730469 16.480469 9.730469 16.46875 9.730469 Z M 16.46875 9.730469 "/>
<path style=" stroke:none;fill-rule:nonzero;fill:rgb(74.117649%,74.117649%,74.117649%);fill-opacity:0.996078;" d="M 16.5 3.019531 C 16.707031 3.019531 16.875 3.1875 16.875 3.394531 L 16.875 8.25 C 16.875 8.457031 16.707031 8.625 16.5 8.625 C 16.292969 8.625 16.125 8.457031 16.125 8.25 L 16.125 3.394531 C 16.125 3.1875 16.292969 3.019531 16.5 3.019531 Z M 16.5 3.019531 "/>
<path style=" stroke:none;fill-rule:nonzero;fill:rgb(100%,100%,100%);fill-opacity:0.4;" d="M 16.480469 3.019531 C 16.28125 3.03125 16.125 3.191406 16.125 3.394531 L 16.125 3.75 C 16.132812 3.558594 16.289062 3.40625 16.480469 3.394531 C 16.488281 3.394531 16.492188 3.394531 16.5 3.394531 C 16.703125 3.394531 16.863281 3.550781 16.875 3.75 L 16.875 3.394531 C 16.875 3.1875 16.707031 3.019531 16.5 3.019531 C 16.492188 3.019531 16.488281 3.019531 16.480469 3.019531 Z M 16.480469 3.019531 "/>
<path style=" stroke:none;fill-rule:nonzero;fill:rgb(0.392157%,0.392157%,0.392157%);fill-opacity:0.4;" d="M 16.125 8.25 L 16.125 8.605469 C 16.125 8.808594 16.28125 8.96875 16.480469 8.980469 C 16.488281 8.980469 16.492188 8.980469 16.5 8.980469 C 16.707031 8.980469 16.875 8.8125 16.875 8.605469 L 16.875 8.25 C 16.863281 8.449219 16.703125 8.605469 16.5 8.605469 C 16.492188 8.605469 16.488281 8.605469 16.480469 8.605469 C 16.289062 8.59375 16.132812 8.441406 16.125 8.25 Z M 16.125 8.25 "/>
<path style=" stroke:none;fill-rule:nonzero;fill:rgb(0.392157%,0.392157%,0.392157%);fill-opacity:0.4;" d="M 19.5 7.105469 C 20.121094 7.105469 20.625 7.609375 20.625 8.230469 C 20.625 8.851562 20.121094 9.355469 19.5 9.355469 C 18.878906 9.355469 18.375 8.851562 18.375 8.230469 C 18.375 7.609375 18.878906 7.105469 19.5 7.105469 Z M 19.5 7.105469 "/>
<path style=" stroke:none;fill-rule:nonzero;fill:rgb(0.392157%,0.392157%,0.392157%);fill-opacity:0.4;" d="M 19.46875 7.105469 C 18.859375 7.121094 18.375 7.617188 18.375 8.230469 C 18.375 8.296875 18.382812 8.355469 18.390625 8.417969 C 18.480469 7.886719 18.941406 7.480469 19.5 7.480469 C 20.058594 7.480469 20.519531 7.886719 20.609375 8.417969 C 20.617188 8.355469 20.625 8.296875 20.625 8.230469 C 20.625 7.609375 20.125 7.105469 19.5 7.105469 C 19.492188 7.105469 19.480469 7.105469 19.46875 7.105469 Z M 19.46875 7.105469 "/>
<path style=" stroke:none;fill-rule:nonzero;fill:rgb(100%,100%,100%);fill-opacity:0.4;" d="M 19.46875 9.730469 C 18.859375 9.71875 18.375 9.21875 18.375 8.605469 C 18.375 8.542969 18.382812 8.480469 18.390625 8.417969 C 18.480469 8.953125 18.941406 9.355469 19.5 9.355469 C 20.058594 9.355469 20.519531 8.953125 20.609375 8.417969 C 20.617188 8.480469 20.625 8.542969 20.625 8.605469 C 20.625 9.230469 20.125 9.730469 19.5 9.730469 C 19.488281 9.730469 19.480469 9.730469 19.46875 9.730469 Z M 19.46875 9.730469 "/>
<path style=" stroke:none;fill-rule:nonzero;fill:rgb(74.117649%,74.117649%,74.117649%);fill-opacity:0.996078;" d="M 19.5 3.019531 C 19.707031 3.019531 19.875 3.1875 19.875 3.394531 L 19.875 8.25 C 19.875 8.457031 19.707031 8.625 19.5 8.625 C 19.292969 8.625 19.125 8.457031 19.125 8.25 L 19.125 3.394531 C 19.125 3.1875 19.292969 3.019531 19.5 3.019531 Z M 19.5 3.019531 "/>
<path style=" stroke:none;fill-rule:nonzero;fill:rgb(100%,100%,100%);fill-opacity:0.4;" d="M 19.480469 3.019531 C 19.28125 3.03125 19.125 3.191406 19.125 3.394531 L 19.125 3.75 C 19.132812 3.558594 19.289062 3.40625 19.480469 3.394531 C 19.488281 3.394531 19.492188 3.394531 19.5 3.394531 C 19.703125 3.394531 19.863281 3.550781 19.875 3.75 L 19.875 3.394531 C 19.875 3.1875 19.707031 3.019531 19.5 3.019531 C 19.492188 3.019531 19.488281 3.019531 19.480469 3.019531 Z M 19.480469 3.019531 "/>
<path style=" stroke:none;fill-rule:nonzero;fill:rgb(0.392157%,0.392157%,0.392157%);fill-opacity:0.4;" d="M 19.125 8.25 L 19.125 8.605469 C 19.125 8.808594 19.28125 8.96875 19.480469 8.980469 C 19.488281 8.980469 19.492188 8.980469 19.5 8.980469 C 19.707031 8.980469 19.875 8.8125 19.875 8.605469 L 19.875 8.25 C 19.863281 8.449219 19.703125 8.605469 19.5 8.605469 C 19.492188 8.605469 19.488281 8.605469 19.480469 8.605469 C 19.289062 8.59375 19.132812 8.441406 19.125 8.25 Z M 19.125 8.25 "/>
<path style=" stroke:none;fill-rule:nonzero;fill:rgb(0.392157%,0.392157%,0.392157%);fill-opacity:0.4;" d="M 22.5 7.105469 C 23.121094 7.105469 23.625 7.609375 23.625 8.230469 C 23.625 8.851562 23.121094 9.355469 22.5 9.355469 C 21.878906 9.355469 21.375 8.851562 21.375 8.230469 C 21.375 7.609375 21.878906 7.105469 22.5 7.105469 Z M 22.5 7.105469 "/>
<path style=" stroke:none;fill-rule:nonzero;fill:rgb(0.392157%,0.392157%,0.392157%);fill-opacity:0.4;" d="M 22.46875 7.105469 C 21.859375 7.121094 21.375 7.617188 21.375 8.230469 C 21.375 8.296875 21.382812 8.355469 21.390625 8.417969 C 21.480469 7.886719 21.941406 7.480469 22.5 7.480469 C 23.058594 7.480469 23.519531 7.886719 23.609375 8.417969 C 23.617188 8.355469 23.625 8.296875 23.625 8.230469 C 23.625 7.609375 23.125 7.105469 22.5 7.105469 C 22.492188 7.105469 22.480469 7.105469 22.46875 7.105469 Z M 22.46875 7.105469 "/>
<path style=" stroke:none;fill-rule:nonzero;fill:rgb(100%,100%,100%);fill-opacity:0.4;" d="M 22.46875 9.730469 C 21.859375 9.71875 21.375 9.21875 21.375 8.605469 C 21.375 8.542969 21.382812 8.480469 21.390625 8.417969 C 21.480469 8.953125 21.941406 9.355469 22.5 9.355469 C 23.058594 9.355469 23.519531 8.953125 23.609375 8.417969 C 23.617188 8.480469 23.625 8.542969 23.625 8.605469 C 23.625 9.230469 23.125 9.730469 22.5 9.730469 C 22.488281 9.730469 22.480469 9.730469 22.46875 9.730469 Z M 22.46875 9.730469 "/>
<path style=" stroke:none;fill-rule:nonzero;fill:rgb(74.117649%,74.117649%,74.117649%);fill-opacity:0.996078;" d="M 22.5 3.019531 C 22.707031 3.019531 22.875 3.1875 22.875 3.394531 L 22.875 8.25 C 22.875 8.457031 22.707031 8.625 22.5 8.625 C 22.292969 8.625 22.125 8.457031 22.125 8.25 L 22.125 3.394531 C 22.125 3.1875 22.292969 3.019531 22.5 3.019531 Z M 22.5 3.019531 "/>
<path style=" stroke:none;fill-rule:nonzero;fill:rgb(100%,100%,100%);fill-opacity:0.4;" d="M 22.480469 3.019531 C 22.28125 3.03125 22.125 3.191406 22.125 3.394531 L 22.125 3.75 C 22.132812 3.558594 22.289062 3.40625 22.480469 3.394531 C 22.488281 3.394531 22.492188 3.394531 22.5 3.394531 C 22.703125 3.394531 22.863281 3.550781 22.875 3.75 L 22.875 3.394531 C 22.875 3.1875 22.707031 3.019531 22.5 3.019531 C 22.492188 3.019531 22.488281 3.019531 22.480469 3.019531 Z M 22.480469 3.019531 "/>
<path style=" stroke:none;fill-rule:nonzero;fill:rgb(0.392157%,0.392157%,0.392157%);fill-opacity:0.4;" d="M 22.125 8.25 L 22.125 8.605469 C 22.125 8.808594 22.28125 8.96875 22.480469 8.980469 C 22.488281 8.980469 22.492188 8.980469 22.5 8.980469 C 22.707031 8.980469 22.875 8.8125 22.875 8.605469 L 22.875 8.25 C 22.863281 8.449219 22.703125 8.605469 22.5 8.605469 C 22.492188 8.605469 22.488281 8.605469 22.480469 8.605469 C 22.289062 8.59375 22.132812 8.441406 22.125 8.25 Z M 22.125 8.25 "/>
<path style=" stroke:none;fill-rule:nonzero;fill:rgb(0.392157%,0.392157%,0.392157%);fill-opacity:0.4;" d="M 25.5 7.105469 C 26.121094 7.105469 26.625 7.609375 26.625 8.230469 C 26.625 8.851562 26.121094 9.355469 25.5 9.355469 C 24.878906 9.355469 24.375 8.851562 24.375 8.230469 C 24.375 7.609375 24.878906 7.105469 25.5 7.105469 Z M 25.5 7.105469 "/>
<path style=" stroke:none;fill-rule:nonzero;fill:rgb(0.392157%,0.392157%,0.392157%);fill-opacity:0.4;" d="M 25.472656 7.105469 C 24.859375 7.121094 24.375 7.617188 24.375 8.230469 C 24.375 8.296875 24.382812 8.355469 24.390625 8.417969 C 24.480469 7.886719 24.941406 7.480469 25.5 7.480469 C 26.058594 7.480469 26.519531 7.886719 26.609375 8.417969 C 26.617188 8.355469 26.625 8.296875 26.625 8.230469 C 26.625 7.609375 26.125 7.105469 25.5 7.105469 C 25.492188 7.105469 25.480469 7.105469 25.46875 7.105469 Z M 25.472656 7.105469 "/>
<path style=" stroke:none;fill-rule:nonzero;fill:rgb(100%,100%,100%);fill-opacity:0.4;" d="M 25.472656 9.730469 C 24.859375 9.71875 24.375 9.21875 24.375 8.605469 C 24.375 8.542969 24.382812 8.480469 24.390625 8.417969 C 24.480469 8.953125 24.941406 9.355469 25.5 9.355469 C 26.058594 9.355469 26.519531 8.953125 26.609375 8.417969 C 26.617188 8.480469 26.625 8.542969 26.625 8.605469 C 26.625 9.230469 26.125 9.730469 25.5 9.730469 C 25.488281 9.730469 25.480469 9.730469 25.46875 9.730469 Z M 25.472656 9.730469 "/>
<path style=" stroke:none;fill-rule:nonzero;fill:rgb(74.117649%,74.117649%,74.117649%);fill-opacity:0.996078;" d="M 25.5 3.019531 C 25.707031 3.019531 25.875 3.1875 25.875 3.394531 L 25.875 8.25 C 25.875 8.457031 25.707031 8.625 25.5 8.625 C 25.292969 8.625 25.125 8.457031 25.125 8.25 L 25.125 3.394531 C 25.125 3.1875 25.292969 3.019531 25.5 3.019531 Z M 25.5 3.019531 "/>
<path style=" stroke:none;fill-rule:nonzero;fill:rgb(100%,100%,100%);fill-opacity:0.4;" d="M 25.480469 3.019531 C 25.28125 3.03125 25.125 3.191406 25.125 3.394531 L 25.125 3.75 C 25.132812 3.558594 25.289062 3.40625 25.480469 3.394531 C 25.488281 3.394531 25.492188 3.394531 25.5 3.394531 C 25.703125 3.394531 25.863281 3.550781 25.875 3.75 L 25.875 3.394531 C 25.875 3.1875 25.707031 3.019531 25.5 3.019531 C 25.492188 3.019531 25.488281 3.019531 25.480469 3.019531 Z M 25.480469 3.019531 "/>
<path style=" stroke:none;fill-rule:nonzero;fill:rgb(0.392157%,0.392157%,0.392157%);fill-opacity:0.4;" d="M 25.125 8.25 L 25.125 8.605469 C 25.125 8.808594 25.28125 8.96875 25.480469 8.980469 C 25.488281 8.980469 25.492188 8.980469 25.5 8.980469 C 25.707031 8.980469 25.875 8.8125 25.875 8.605469 L 25.875 8.25 C 25.863281 8.449219 25.703125 8.605469 25.5 8.605469 C 25.492188 8.605469 25.488281 8.605469 25.480469 8.605469 C 25.289062 8.59375 25.132812 8.441406 25.125 8.25 Z M 25.125 8.25 "/>
<path style=" stroke:none;fill-rule:nonzero;fill:rgb(0.392157%,0.392157%,0.392157%);fill-opacity:0.4;" d="M 28.5 7.105469 C 29.121094 7.105469 29.625 7.609375 29.625 8.230469 C 29.625 8.851562 29.121094 9.355469 28.5 9.355469 C 27.878906 9.355469 27.375 8.851562 27.375 8.230469 C 27.375 7.609375 27.878906 7.105469 28.5 7.105469 Z M 28.5 7.105469 "/>
<path style=" stroke:none;fill-rule:nonzero;fill:rgb(0.392157%,0.392157%,0.392157%);fill-opacity:0.4;" d="M 28.46875 7.105469 C 27.859375 7.121094 27.375 7.617188 27.375 8.230469 C 27.375 8.296875 27.382812 8.355469 27.390625 8.417969 C 27.480469 7.886719 27.941406 7.480469 28.5 7.480469 C 29.058594 7.480469 29.519531 7.886719 29.609375 8.417969 C 29.617188 8.355469 29.625 8.296875 29.625 8.230469 C 29.625 7.609375 29.125 7.105469 28.5 7.105469 C 28.492188 7.105469 28.480469 7.105469 28.472656 7.105469 Z M 28.46875 7.105469 "/>
<path style=" stroke:none;fill-rule:nonzero;fill:rgb(100%,100%,100%);fill-opacity:0.4;" d="M 28.46875 9.730469 C 27.859375 9.71875 27.375 9.21875 27.375 8.605469 C 27.375 8.542969 27.382812 8.480469 27.390625 8.417969 C 27.480469 8.953125 27.941406 9.355469 28.5 9.355469 C 29.058594 9.355469 29.519531 8.953125 29.609375 8.417969 C 29.617188 8.480469 29.625 8.542969 29.625 8.605469 C 29.625 9.230469 29.125 9.730469 28.5 9.730469 C 28.492188 9.730469 28.480469 9.730469 28.472656 9.730469 Z M 28.46875 9.730469 "/>
<path style=" stroke:none;fill-rule:nonzero;fill:rgb(74.117649%,74.117649%,74.117649%);fill-opacity:0.996078;" d="M 28.5 3.019531 C 28.707031 3.019531 28.875 3.1875 28.875 3.394531 L 28.875 8.25 C 28.875 8.457031 28.707031 8.625 28.5 8.625 C 28.292969 8.625 28.125 8.457031 28.125 8.25 L 28.125 3.394531 C 28.125 3.1875 28.292969 3.019531 28.5 3.019531 Z M 28.5 3.019531 "/>
<path style=" stroke:none;fill-rule:nonzero;fill:rgb(100%,100%,100%);fill-opacity:0.4;" d="M 28.480469 3.019531 C 28.28125 3.03125 28.125 3.191406 28.125 3.394531 L 28.125 3.75 C 28.132812 3.558594 28.289062 3.40625 28.480469 3.394531 C 28.488281 3.394531 28.492188 3.394531 28.5 3.394531 C 28.703125 3.394531 28.863281 3.550781 28.875 3.75 L 28.875 3.394531 C 28.875 3.1875 28.707031 3.019531 28.5 3.019531 C 28.492188 3.019531 28.488281 3.019531 28.480469 3.019531 Z M 28.480469 3.019531 "/>
<path style=" stroke:none;fill-rule:nonzero;fill:rgb(0.392157%,0.392157%,0.392157%);fill-opacity:0.4;" d="M 28.125 8.25 L 28.125 8.605469 C 28.125 8.808594 28.28125 8.96875 28.480469 8.980469 C 28.488281 8.980469 28.492188 8.980469 28.5 8.980469 C 28.707031 8.980469 28.875 8.8125 28.875 8.605469 L 28.875 8.25 C 28.863281 8.449219 28.703125 8.605469 28.5 8.605469 C 28.492188 8.605469 28.488281 8.605469 28.480469 8.605469 C 28.289062 8.59375 28.132812 8.441406 28.125 8.25 Z M 28.125 8.25 "/>
<path style=" stroke:none;fill-rule:nonzero;fill:rgb(0.392157%,0.392157%,0.392157%);fill-opacity:0.4;" d="M 31.5 7.105469 C 32.121094 7.105469 32.625 7.609375 32.625 8.230469 C 32.625 8.851562 32.121094 9.355469 31.5 9.355469 C 30.878906 9.355469 30.375 8.851562 30.375 8.230469 C 30.375 7.609375 30.878906 7.105469 31.5 7.105469 Z M 31.5 7.105469 "/>
<path style=" stroke:none;fill-rule:nonzero;fill:rgb(0.392157%,0.392157%,0.392157%);fill-opacity:0.4;" d="M 31.46875 7.105469 C 30.859375 7.121094 30.375 7.617188 30.375 8.230469 C 30.375 8.296875 30.382812 8.355469 30.390625 8.417969 C 30.480469 7.886719 30.941406 7.480469 31.5 7.480469 C 32.058594 7.480469 32.519531 7.886719 32.609375 8.417969 C 32.617188 8.355469 32.625 8.296875 32.625 8.230469 C 32.625 7.609375 32.125 7.105469 31.5 7.105469 C 31.492188 7.105469 31.480469 7.105469 31.472656 7.105469 Z M 31.46875 7.105469 "/>
<path style=" stroke:none;fill-rule:nonzero;fill:rgb(100%,100%,100%);fill-opacity:0.4;" d="M 31.46875 9.730469 C 30.859375 9.71875 30.375 9.21875 30.375 8.605469 C 30.375 8.542969 30.382812 8.480469 30.390625 8.417969 C 30.480469 8.953125 30.941406 9.355469 31.5 9.355469 C 32.058594 9.355469 32.519531 8.953125 32.609375 8.417969 C 32.617188 8.480469 32.625 8.542969 32.625 8.605469 C 32.625 9.230469 32.125 9.730469 31.5 9.730469 C 31.492188 9.730469 31.480469 9.730469 31.472656 9.730469 Z M 31.46875 9.730469 "/>
<path style=" stroke:none;fill-rule:nonzero;fill:rgb(74.117649%,74.117649%,74.117649%);fill-opacity:0.996078;" d="M 31.5 3.019531 C 31.707031 3.019531 31.875 3.1875 31.875 3.394531 L 31.875 8.25 C 31.875 8.457031 31.707031 8.625 31.5 8.625 C 31.292969 8.625 31.125 8.457031 31.125 8.25 L 31.125 3.394531 C 31.125 3.1875 31.292969 3.019531 31.5 3.019531 Z M 31.5 3.019531 "/>
<path style=" stroke:none;fill-rule:nonzero;fill:rgb(100%,100%,100%);fill-opacity:0.4;" d="M 31.480469 3.019531 C 31.28125 3.03125 31.125 3.191406 31.125 3.394531 L 31.125 3.75 C 31.132812 3.558594 31.289062 3.40625 31.480469 3.394531 C 31.488281 3.394531 31.492188 3.394531 31.5 3.394531 C 31.703125 3.394531 31.863281 3.550781 31.875 3.75 L 31.875 3.394531 C 31.875 3.1875 31.707031 3.019531 31.5 3.019531 C 31.492188 3.019531 31.488281 3.019531 31.480469 3.019531 Z M 31.480469 3.019531 "/>
<path style=" stroke:none;fill-rule:nonzero;fill:rgb(0.392157%,0.392157%,0.392157%);fill-opacity:0.4;" d="M 31.125 8.25 L 31.125 8.605469 C 31.125 8.808594 31.28125 8.96875 31.480469 8.980469 C 31.488281 8.980469 31.492188 8.980469 31.5 8.980469 C 31.707031 8.980469 31.875 8.8125 31.875 8.605469 L 31.875 8.25 C 31.863281 8.449219 31.703125 8.605469 31.5 8.605469 C 31.492188 8.605469 31.488281 8.605469 31.480469 8.605469 C 31.289062 8.59375 31.132812 8.441406 31.125 8.25 Z M 31.125 8.25 "/>
<path style=" stroke:none;fill-rule:nonzero;fill:rgb(0.392157%,0.392157%,0.392157%);fill-opacity:0.4;" d="M 34.5 7.105469 C 35.121094 7.105469 35.625 7.609375 35.625 8.230469 C 35.625 8.851562 35.121094 9.355469 34.5 9.355469 C 33.878906 9.355469 33.375 8.851562 33.375 8.230469 C 33.375 7.609375 33.878906 7.105469 34.5 7.105469 Z M 34.5 7.105469 "/>
<path style=" stroke:none;fill-rule:nonzero;fill:rgb(0.392157%,0.392157%,0.392157%);fill-opacity:0.4;" d="M 34.46875 7.105469 C 33.859375 7.121094 33.375 7.617188 33.375 8.230469 C 33.375 8.296875 33.382812 8.355469 33.390625 8.417969 C 33.480469 7.886719 33.941406 7.480469 34.5 7.480469 C 35.058594 7.480469 35.519531 7.886719 35.609375 8.417969 C 35.617188 8.355469 35.625 8.296875 35.625 8.230469 C 35.625 7.609375 35.125 7.105469 34.5 7.105469 C 34.492188 7.105469 34.480469 7.105469 34.472656 7.105469 Z M 34.46875 7.105469 "/>
<path style=" stroke:none;fill-rule:nonzero;fill:rgb(100%,100%,100%);fill-opacity:0.4;" d="M 34.46875 9.730469 C 33.859375 9.71875 33.375 9.21875 33.375 8.605469 C 33.375 8.542969 33.382812 8.480469 33.390625 8.417969 C 33.480469 8.953125 33.941406 9.355469 34.5 9.355469 C 35.058594 9.355469 35.519531 8.953125 35.609375 8.417969 C 35.617188 8.480469 35.625 8.542969 35.625 8.605469 C 35.625 9.230469 35.125 9.730469 34.5 9.730469 C 34.492188 9.730469 34.480469 9.730469 34.472656 9.730469 Z M 34.46875 9.730469 "/>
<path style=" stroke:none;fill-rule:nonzero;fill:rgb(74.117649%,74.117649%,74.117649%);fill-opacity:0.996078;" d="M 34.5 3.019531 C 34.707031 3.019531 34.875 3.1875 34.875 3.394531 L 34.875 8.25 C 34.875 8.457031 34.707031 8.625 34.5 8.625 C 34.292969 8.625 34.125 8.457031 34.125 8.25 L 34.125 3.394531 C 34.125 3.1875 34.292969 3.019531 34.5 3.019531 Z M 34.5 3.019531 "/>
<path style=" stroke:none;fill-rule:nonzero;fill:rgb(100%,100%,100%);fill-opacity:0.4;" d="M 34.480469 3.019531 C 34.28125 3.03125 34.125 3.191406 34.125 3.394531 L 34.125 3.75 C 34.132812 3.558594 34.289062 3.40625 34.480469 3.394531 C 34.488281 3.394531 34.492188 3.394531 34.5 3.394531 C 34.703125 3.394531 34.863281 3.550781 34.875 3.75 L 34.875 3.394531 C 34.875 3.1875 34.707031 3.019531 34.5 3.019531 C 34.492188 3.019531 34.488281 3.019531 34.480469 3.019531 Z M 34.480469 3.019531 "/>
<path style=" stroke:none;fill-rule:nonzero;fill:rgb(0.392157%,0.392157%,0.392157%);fill-opacity:0.4;" d="M 34.125 8.25 L 34.125 8.605469 C 34.125 8.808594 34.28125 8.96875 34.480469 8.980469 C 34.488281 8.980469 34.492188 8.980469 34.5 8.980469 C 34.707031 8.980469 34.875 8.8125 34.875 8.605469 L 34.875 8.25 C 34.863281 8.449219 34.703125 8.605469 34.5 8.605469 C 34.492188 8.605469 34.488281 8.605469 34.480469 8.605469 C 34.289062 8.59375 34.132812 8.441406 34.125 8.25 Z M 34.125 8.25 "/>
<path style=" stroke:none;fill-rule:nonzero;fill:rgb(100%,95.294118%,87.843138%);fill-opacity:1;" d="M 9 12 L 39 12 L 37.5 13.5 L 36.375 12.375 L 35.625 13.125 L 34.875 12.375 L 33.75 13.5 L 32.625 12.375 L 31.875 13.125 L 31.125 12.375 L 30 13.5 L 28.875 12.375 L 28.125 13.125 L 27.375 12.375 L 26.625 13.5 L 25.875 12.375 L 25.125 13.125 L 24.75 12.375 L 24 13.125 L 23.25 12.375 L 22.125 13.5 L 21 12.375 L 20.25 13.125 L 19.5 12.375 L 18.75 13.125 L 18 12.375 L 17.25 13.5 L 16.5 12.375 L 15.75 13.125 L 15 12.375 L 14.25 13.5 L 13.5 12.375 L 13.125 13.125 L 12.375 12.375 L 11.625 13.125 L 10.875 12.375 L 10.125 13.5 Z M 9 12 "/>
<path style=" stroke:none;fill-rule:nonzero;fill:rgb(0%,0%,0%);fill-opacity:0.4;" d="M 9 12 L 39 12 L 37.5 13.875 L 36.375 12.75 L 35.625 13.5 L 34.875 12.75 L 33.75 13.875 L 32.625 12.75 L 31.875 13.5 L 31.125 12.75 L 30 13.875 L 28.875 12.75 L 28.125 13.5 L 27.375 12.75 L 26.625 13.875 L 25.875 12.75 L 25.125 13.5 L 24.75 12.75 L 24 13.5 L 23.25 12.75 L 22.125 13.875 L 21 12.75 L 20.25 13.5 L 19.5 12.75 L 18.75 13.5 L 18 12.75 L 17.25 13.875 L 16.5 12.75 L 15.75 13.5 L 15 12.75 L 14.25 13.875 L 13.5 12.75 L 13.125 13.5 L 12.375 12.75 L 11.625 13.5 L 10.875 12.75 L 10.125 13.875 Z M 9 12 "/>
<path style=" stroke:none;fill-rule:nonzero;fill:rgb(98.039216%,98.039216%,98.039216%);fill-opacity:1;" d="M 9 12 L 39 12 L 37.5 13.5 L 36.375 12.375 L 35.625 13.125 L 34.875 12.375 L 33.75 13.5 L 32.625 12.375 L 31.875 13.125 L 31.125 12.375 L 30 13.5 L 28.875 12.375 L 28.125 13.125 L 27.375 12.375 L 26.625 13.5 L 25.875 12.375 L 25.125 13.125 L 24.75 12.375 L 24 13.125 L 23.25 12.375 L 22.125 13.5 L 21 12.375 L 20.25 13.125 L 19.5 12.375 L 18.75 13.125 L 18 12.375 L 17.25 13.5 L 16.5 12.375 L 15.75 13.125 L 15 12.375 L 14.25 13.5 L 13.5 12.375 L 13.125 13.125 L 12.375 12.375 L 11.625 13.125 L 10.875 12.375 L 10.125 13.5 Z M 9 12 "/>
<path style=" stroke:none;fill-rule:nonzero;fill:url(#linear0);" d="M 10.5 4.5 L 37.5 4.5 C 39.15625 4.5 40.5 5.84375 40.5 7.5 L 40.5 42 C 40.5 43.65625 39.15625 45 37.5 45 L 10.5 45 C 8.84375 45 7.5 43.65625 7.5 42 L 7.5 7.5 C 7.5 5.84375 8.84375 4.5 10.5 4.5 Z M 10.5 4.5 "/>
</g>
</svg>
