
<svg xmlns="http://www.w3.org/2000/svg" xmlns:xlink="http://www.w3.org/1999/xlink" width="32" height="32" viewBox="0 0 32 32" version="1.1">
<defs>
<radialGradient id="radial0" gradientUnits="userSpaceOnUse" cx="10.054166" cy="-208.649994" fx="10.054166" fy="-208.649994" r="0.529167" gradientTransform="matrix(1.889764,0,0,1.889764,0,406.299234)">
<stop offset="0" style="stop-color:rgb(40.000001%,73.333335%,41.568628%);stop-opacity:1;"/>
<stop offset="1" style="stop-color:rgb(40.000001%,73.333335%,41.568628%);stop-opacity:0;"/>
</radialGradient>
<radialGradient id="radial1" gradientUnits="userSpaceOnUse" cx="10.054166" cy="-208.649994" fx="10.054166" fy="-208.649994" r="0.529167" gradientTransform="matrix(1.889764,0,0,1.889764,3,403.299237)">
<stop offset="0" style="stop-color:rgb(40.000001%,73.333335%,41.568628%);stop-opacity:1;"/>
<stop offset="1" style="stop-color:rgb(40.000001%,73.333335%,41.568628%);stop-opacity:0;"/>
</radialGradient>
<radialGradient id="radial2" gradientUnits="userSpaceOnUse" cx="37.499996" cy="28.785154" fx="37.499996" fy="28.785154" r="11" gradientTransform="matrix(0.385695,-0.385695,0.545455,0.545455,-10.16454,18.762554)">
<stop offset="0" style="stop-color:rgb(40.000001%,73.333335%,41.568628%);stop-opacity:1;"/>
<stop offset="1" style="stop-color:rgb(40.000001%,73.333335%,41.568628%);stop-opacity:0;"/>
</radialGradient>
<radialGradient id="radial3" gradientUnits="userSpaceOnUse" cx="10.054166" cy="-208.649994" fx="10.054166" fy="-208.649994" r="0.529167" gradientTransform="matrix(1.889764,0,0,1.889764,5,413.299222)">
<stop offset="0" style="stop-color:rgb(40.000001%,73.333335%,41.568628%);stop-opacity:1;"/>
<stop offset="1" style="stop-color:rgb(40.000001%,73.333335%,41.568628%);stop-opacity:0;"/>
</radialGradient>
<linearGradient id="linear0" gradientUnits="userSpaceOnUse" x1="8.466666" y1="-199.125" x2="8.466666" y2="-213.941666" gradientTransform="matrix(1.889764,0,0,1.889764,0,406.299234)">
<stop offset="0" style="stop-color:rgb(0%,0%,0%);stop-opacity:0.2;"/>
<stop offset="1" style="stop-color:rgb(100%,100%,100%);stop-opacity:0;"/>
</linearGradient>
</defs>
<g id="surface1">
<path style=" stroke:none;fill-rule:nonzero;fill:rgb(87.843138%,87.843138%,87.843138%);fill-opacity:0.996078;" d="M 16 2 C 23.730469 2 30 8.269531 30 16 C 30 23.730469 23.730469 30 16 30 C 8.269531 30 2 23.730469 2 16 C 2 8.269531 8.269531 2 16 2 Z M 16 2 "/>
<path style=" stroke:none;fill-rule:nonzero;fill:rgb(38.039216%,38.039216%,38.039216%);fill-opacity:0.996078;" d="M 16 4 C 22.628906 4 28 9.371094 28 16 C 28 22.628906 22.628906 28 16 28 C 9.371094 28 4 22.628906 4 16 C 4 9.371094 9.371094 4 16 4 Z M 16 4 "/>
<path style=" stroke:none;fill-rule:nonzero;fill:rgb(100%,100%,100%);fill-opacity:0.6;" d="M 16 2 C 8.242188 2 2 8.242188 2 16 C 2 16.078125 2 16.15625 2.003906 16.234375 C 2.128906 8.585938 8.324219 2.46875 16 2.46875 C 23.675781 2.46875 29.871094 8.585938 29.996094 16.234375 C 30 16.15625 30 16.078125 30 16 C 30 8.242188 23.757812 2 16 2 Z M 16 2 "/>
<path style=" stroke:none;fill-rule:nonzero;fill:rgb(0%,0%,0%);fill-opacity:0.4;" d="M 16 30 C 8.242188 30 2 23.757812 2 16 C 2 15.921875 2 15.84375 2.003906 15.765625 C 2.128906 23.414062 8.324219 29.53125 16 29.53125 C 23.675781 29.53125 29.871094 23.414062 29.996094 15.765625 C 30 15.84375 30 15.921875 30 16 C 30 23.757812 23.757812 30 16 30 Z M 16 30 "/>
<path style=" stroke:none;fill-rule:nonzero;fill:rgb(0%,0%,0%);fill-opacity:0.4;" d="M 16 4 C 9.351562 4 4 9.351562 4 16 C 4 16.082031 4 16.164062 4.003906 16.246094 C 4.132812 9.714844 9.433594 4.492188 16 4.492188 C 22.566406 4.492188 27.867188 9.714844 27.996094 16.246094 C 28 16.164062 28 16.082031 28 16 C 28 9.351562 22.648438 4 16 4 Z M 16 4 "/>
<path style=" stroke:none;fill-rule:nonzero;fill:rgb(100%,100%,100%);fill-opacity:0.6;" d="M 16 28.5 C 9.351562 28.5 4 23.148438 4 16.5 C 4 16.417969 4 16.335938 4.003906 16.253906 C 4.132812 22.785156 9.433594 28.007812 16 28.007812 C 22.566406 28.007812 27.867188 22.785156 27.996094 16.253906 C 28 16.335938 28 16.417969 28 16.5 C 28 23.148438 22.648438 28.5 16 28.5 Z M 16 28.5 "/>
<path style=" stroke:none;fill-rule:nonzero;fill:rgb(64.705884%,83.92157%,65.490198%);fill-opacity:1;" d="M 16 9 C 12.121094 9 9 12.121094 9 16 C 9 19.878906 12.121094 23 16 23 C 19.878906 23 23 19.878906 23 16 C 23 12.121094 19.878906 9 16 9 Z M 16 9.5 C 19.601562 9.5 22.5 12.398438 22.5 16 C 22.5 19.601562 19.601562 22.5 16 22.5 C 12.398438 22.5 9.5 19.601562 9.5 16 C 9.5 12.398438 12.398438 9.5 16 9.5 Z M 16 9.5 "/>
<path style=" stroke:none;fill-rule:nonzero;fill:rgb(0%,0%,0%);fill-opacity:0.2;" d="M 2.003906 16.375 C 2 16.5 2 16.625 2 16.75 C 2 24.507812 8.242188 30.75 16 30.75 C 23.757812 30.75 30 24.507812 30 16.75 C 30 16.625 30 16.5 29.996094 16.375 C 29.796875 23.957031 23.628906 30 16 30 C 8.371094 30 2.203125 23.957031 2.003906 16.375 Z M 2.003906 16.375 "/>
<path style=" stroke:none;fill-rule:nonzero;fill:rgb(40.000001%,73.333335%,41.568628%);fill-opacity:1;" d="M 16 15.644531 L 16 16.367188 L 23.410156 23.777344 C 23.511719 23.878906 23.671875 23.878906 23.773438 23.777344 C 23.871094 23.679688 23.871094 23.515625 23.773438 23.414062 Z M 16 15.644531 "/>
<path style=" stroke:none;fill-rule:nonzero;fill:rgb(64.705884%,83.92157%,65.490198%);fill-opacity:1;" d="M 15.996094 5 C 16.136719 5 16.25 5.113281 16.25 5.253906 L 16.25 26.746094 C 16.25 26.886719 16.136719 27 15.996094 27 C 15.851562 27 15.738281 26.886719 15.738281 26.746094 L 15.738281 5.253906 C 15.738281 5.113281 15.851562 5 15.996094 5 Z M 15.996094 5 "/>
<path style=" stroke:none;fill-rule:nonzero;fill:rgb(64.705884%,83.92157%,65.490198%);fill-opacity:1;" d="M 26.996094 16 C 26.996094 16.140625 26.878906 16.253906 26.738281 16.253906 L 5.25 16.253906 C 5.109375 16.253906 4.996094 16.140625 4.996094 16 C 4.996094 15.859375 5.109375 15.746094 5.25 15.746094 L 26.738281 15.746094 C 26.878906 15.746094 26.996094 15.859375 26.996094 16 Z M 26.996094 16 "/>
<path style=" stroke:none;fill-rule:nonzero;fill:rgb(64.705884%,83.92157%,65.490198%);fill-opacity:1;" d="M 14.25 15 C 14.386719 15 14.5 15.113281 14.5 15.253906 L 14.5 16.746094 C 14.5 16.886719 14.386719 17 14.25 17 C 14.113281 17 14 16.886719 14 16.746094 L 14 15.253906 C 14 15.113281 14.113281 15 14.25 15 Z M 14.25 15 "/>
<path style=" stroke:none;fill-rule:nonzero;fill:rgb(64.705884%,83.92157%,65.490198%);fill-opacity:1;" d="M 12.25 15 C 12.386719 15 12.5 15.113281 12.5 15.253906 L 12.5 16.746094 C 12.5 16.886719 12.386719 17 12.25 17 C 12.113281 17 12 16.886719 12 16.746094 L 12 15.253906 C 12 15.113281 12.113281 15 12.25 15 Z M 12.25 15 "/>
<path style=" stroke:none;fill-rule:nonzero;fill:rgb(64.705884%,83.92157%,65.490198%);fill-opacity:1;" d="M 10.25 15 C 10.386719 15 10.5 15.113281 10.5 15.253906 L 10.5 16.746094 C 10.5 16.886719 10.386719 17 10.25 17 C 10.113281 17 10 16.886719 10 16.746094 L 10 15.253906 C 10 15.113281 10.113281 15 10.25 15 Z M 10.25 15 "/>
<path style=" stroke:none;fill-rule:nonzero;fill:rgb(64.705884%,83.92157%,65.490198%);fill-opacity:1;" d="M 8 15 C 8.136719 15 8.25 15.113281 8.25 15.253906 L 8.25 16.746094 C 8.25 16.886719 8.136719 17 8 17 C 7.863281 17 7.75 16.886719 7.75 16.746094 L 7.75 15.253906 C 7.75 15.113281 7.863281 15 8 15 Z M 8 15 "/>
<path style=" stroke:none;fill-rule:nonzero;fill:rgb(64.705884%,83.92157%,65.490198%);fill-opacity:1;" d="M 6 15 C 6.136719 15 6.25 15.113281 6.25 15.253906 L 6.25 16.746094 C 6.25 16.886719 6.136719 17 6 17 C 5.863281 17 5.75 16.886719 5.75 16.746094 L 5.75 15.253906 C 5.75 15.113281 5.863281 15 6 15 Z M 6 15 "/>
<path style=" stroke:none;fill-rule:nonzero;fill:rgb(64.705884%,83.92157%,65.490198%);fill-opacity:1;" d="M 26 15 C 26.136719 15 26.25 15.113281 26.25 15.253906 L 26.25 16.746094 C 26.25 16.886719 26.136719 17 26 17 C 25.863281 17 25.75 16.886719 25.75 16.746094 L 25.75 15.253906 C 25.75 15.113281 25.863281 15 26 15 Z M 26 15 "/>
<path style=" stroke:none;fill-rule:nonzero;fill:rgb(64.705884%,83.92157%,65.490198%);fill-opacity:1;" d="M 24 15 C 24.136719 15 24.25 15.113281 24.25 15.253906 L 24.25 16.746094 C 24.25 16.886719 24.136719 17 24 17 C 23.863281 17 23.75 16.886719 23.75 16.746094 L 23.75 15.253906 C 23.75 15.113281 23.863281 15 24 15 Z M 24 15 "/>
<path style=" stroke:none;fill-rule:nonzero;fill:rgb(64.705884%,83.92157%,65.490198%);fill-opacity:1;" d="M 21.75 15 C 21.886719 15 22 15.113281 22 15.253906 L 22 16.746094 C 22 16.886719 21.886719 17 21.75 17 C 21.613281 17 21.5 16.886719 21.5 16.746094 L 21.5 15.253906 C 21.5 15.113281 21.613281 15 21.75 15 Z M 21.75 15 "/>
<path style=" stroke:none;fill-rule:nonzero;fill:rgb(64.705884%,83.92157%,65.490198%);fill-opacity:1;" d="M 19.75 15 C 19.886719 15 20 15.113281 20 15.253906 L 20 16.746094 C 20 16.886719 19.886719 17 19.75 17 C 19.613281 17 19.5 16.886719 19.5 16.746094 L 19.5 15.253906 C 19.5 15.113281 19.613281 15 19.75 15 Z M 19.75 15 "/>
<path style=" stroke:none;fill-rule:nonzero;fill:rgb(64.705884%,83.92157%,65.490198%);fill-opacity:1;" d="M 17.75 15 C 17.886719 15 18 15.113281 18 15.253906 L 18 16.746094 C 18 16.886719 17.886719 17 17.75 17 C 17.613281 17 17.5 16.886719 17.5 16.746094 L 17.5 15.253906 C 17.5 15.113281 17.613281 15 17.75 15 Z M 17.75 15 "/>
<path style=" stroke:none;fill-rule:nonzero;fill:rgb(64.705884%,83.92157%,65.490198%);fill-opacity:1;" d="M 17 14.25 C 17 14.386719 16.886719 14.5 16.746094 14.5 L 15.253906 14.5 C 15.113281 14.5 15 14.386719 15 14.25 C 15 14.113281 15.113281 14 15.253906 14 L 16.746094 14 C 16.886719 14 17 14.113281 17 14.25 Z M 17 14.25 "/>
<path style=" stroke:none;fill-rule:nonzero;fill:rgb(64.705884%,83.92157%,65.490198%);fill-opacity:1;" d="M 17 12.25 C 17 12.386719 16.886719 12.5 16.746094 12.5 L 15.253906 12.5 C 15.113281 12.5 15 12.386719 15 12.25 C 15 12.113281 15.113281 12 15.253906 12 L 16.746094 12 C 16.886719 12 17 12.113281 17 12.25 Z M 17 12.25 "/>
<path style=" stroke:none;fill-rule:nonzero;fill:rgb(64.705884%,83.92157%,65.490198%);fill-opacity:1;" d="M 17 10.25 C 17 10.386719 16.886719 10.5 16.746094 10.5 L 15.253906 10.5 C 15.113281 10.5 15 10.386719 15 10.25 C 15 10.113281 15.113281 10 15.253906 10 L 16.746094 10 C 16.886719 10 17 10.113281 17 10.25 Z M 17 10.25 "/>
<path style=" stroke:none;fill-rule:nonzero;fill:rgb(64.705884%,83.92157%,65.490198%);fill-opacity:1;" d="M 17 8 C 17 8.136719 16.886719 8.25 16.746094 8.25 L 15.253906 8.25 C 15.113281 8.25 15 8.136719 15 8 C 15 7.863281 15.113281 7.75 15.253906 7.75 L 16.746094 7.75 C 16.886719 7.75 17 7.863281 17 8 Z M 17 8 "/>
<path style=" stroke:none;fill-rule:nonzero;fill:rgb(64.705884%,83.92157%,65.490198%);fill-opacity:1;" d="M 17 6 C 17 6.136719 16.886719 6.25 16.746094 6.25 L 15.253906 6.25 C 15.113281 6.25 15 6.136719 15 6 C 15 5.863281 15.113281 5.75 15.253906 5.75 L 16.746094 5.75 C 16.886719 5.75 17 5.863281 17 6 Z M 17 6 "/>
<path style=" stroke:none;fill-rule:nonzero;fill:rgb(64.705884%,83.92157%,65.490198%);fill-opacity:1;" d="M 17 26 C 17 26.136719 16.886719 26.25 16.746094 26.25 L 15.253906 26.25 C 15.113281 26.25 15 26.136719 15 26 C 15 25.863281 15.113281 25.75 15.253906 25.75 L 16.746094 25.75 C 16.886719 25.75 17 25.863281 17 26 Z M 17 26 "/>
<path style=" stroke:none;fill-rule:nonzero;fill:rgb(64.705884%,83.92157%,65.490198%);fill-opacity:1;" d="M 17 24 C 17 24.136719 16.886719 24.25 16.746094 24.25 L 15.253906 24.25 C 15.113281 24.25 15 24.136719 15 24 C 15 23.863281 15.113281 23.75 15.253906 23.75 L 16.746094 23.75 C 16.886719 23.75 17 23.863281 17 24 Z M 17 24 "/>
<path style=" stroke:none;fill-rule:nonzero;fill:rgb(64.705884%,83.92157%,65.490198%);fill-opacity:1;" d="M 17 21.75 C 17 21.886719 16.886719 22 16.746094 22 L 15.253906 22 C 15.113281 22 15 21.886719 15 21.75 C 15 21.613281 15.113281 21.5 15.253906 21.5 L 16.746094 21.5 C 16.886719 21.5 17 21.613281 17 21.75 Z M 17 21.75 "/>
<path style=" stroke:none;fill-rule:nonzero;fill:rgb(64.705884%,83.92157%,65.490198%);fill-opacity:1;" d="M 17 19.75 C 17 19.886719 16.886719 20 16.746094 20 L 15.253906 20 C 15.113281 20 15 19.886719 15 19.75 C 15 19.613281 15.113281 19.5 15.253906 19.5 L 16.746094 19.5 C 16.886719 19.5 17 19.613281 17 19.75 Z M 17 19.75 "/>
<path style=" stroke:none;fill-rule:nonzero;fill:rgb(64.705884%,83.92157%,65.490198%);fill-opacity:1;" d="M 17 17.75 C 17 17.886719 16.886719 18 16.746094 18 L 15.253906 18 C 15.113281 18 15 17.886719 15 17.75 C 15 17.613281 15.113281 17.5 15.253906 17.5 L 16.746094 17.5 C 16.886719 17.5 17 17.613281 17 17.75 Z M 17 17.75 "/>
<path style=" stroke:none;fill-rule:nonzero;fill:url(#radial0);" d="M 19 11 C 19.550781 11 20 11.449219 20 12 C 20 12.550781 19.550781 13 19 13 C 18.449219 13 18 12.550781 18 12 C 18 11.449219 18.449219 11 19 11 Z M 19 11 "/>
<path style=" stroke:none;fill-rule:nonzero;fill:url(#radial1);" d="M 22 8 C 22.550781 8 23 8.449219 23 9 C 23 9.550781 22.550781 10 22 10 C 21.449219 10 21 9.550781 21 9 C 21 8.449219 21.449219 8 22 8 Z M 22 8 "/>
<path style=" stroke:none;fill-rule:nonzero;fill:url(#radial2);" d="M 16 16 L 23.785156 23.785156 C 25.773438 21.796875 27 19.046875 27 16 Z M 16 16 "/>
<path style=" stroke:none;fill-rule:nonzero;fill:url(#radial3);" d="M 24 18 C 24.550781 18 25 18.449219 25 19 C 25 19.550781 24.550781 20 24 20 C 23.449219 20 23 19.550781 23 19 C 23 18.449219 23.449219 18 24 18 Z M 24 18 "/>
<path style=" stroke:none;fill-rule:nonzero;fill:rgb(100%,100%,100%);fill-opacity:0.101961;" d="M 16 4 C 9.351562 4 4 9.351562 4 16 C 4 18.488281 4.75 20.796875 6.039062 22.710938 C 11.253906 16.753906 18.921875 13 27.5 13 C 27.542969 13 27.582031 13 27.625 13 C 26.300781 7.8125 21.613281 4 16 4 Z M 16 4 "/>
<path style=" stroke:none;fill-rule:nonzero;fill:url(#linear0);" d="M 16 2 C 23.730469 2 30 8.269531 30 16 C 30 23.730469 23.730469 30 16 30 C 8.269531 30 2 23.730469 2 16 C 2 8.269531 8.269531 2 16 2 Z M 16 2 "/>
</g>
</svg>
