
<svg xmlns="http://www.w3.org/2000/svg" xmlns:xlink="http://www.w3.org/1999/xlink" width="32" height="32" viewBox="0 0 32 32" version="1.1">
<defs>
<linearGradient id="linear0" gradientUnits="userSpaceOnUse" x1="31.999998" y1="60" x2="31.999998" y2="4" gradientTransform="matrix(0.5,0,0,0.5,0,0)">
<stop offset="0" style="stop-color:rgb(0%,0%,0%);stop-opacity:0.2;"/>
<stop offset="1" style="stop-color:rgb(100%,100%,100%);stop-opacity:0;"/>
</linearGradient>
</defs>
<g id="surface1">
<path style=" stroke:none;fill-rule:nonzero;fill:rgb(93.333334%,93.333334%,93.333334%);fill-opacity:0.996078;" d="M 16 2 C 8.242188 2 2 8.242188 2 16 C 2 23.757812 8.242188 30 16 30 C 23.757812 30 30 23.757812 30 16 C 30 8.242188 23.757812 2 16 2 Z M 16 14 C 17.109375 14 18 14.890625 18 16 C 18 17.109375 17.109375 18 16 18 C 14.890625 18 14 17.109375 14 16 C 14 14.890625 14.890625 14 16 14 Z M 16 14 "/>
<path style=" stroke:none;fill-rule:nonzero;fill:rgb(25.882354%,64.705884%,96.078432%);fill-opacity:1;" d="M 16 10 C 12.675781 10 10 12.675781 10 16 C 10 19.324219 12.675781 22 16 22 C 19.324219 22 22 19.324219 22 16 C 22 12.675781 19.324219 10 16 10 Z M 16 14 C 17.109375 14 18 14.890625 18 16 C 18 17.109375 17.109375 18 16 18 C 14.890625 18 14 17.109375 14 16 C 14 14.890625 14.890625 14 16 14 Z M 16 14 "/>
<path style=" stroke:none;fill-rule:nonzero;fill:rgb(100%,100%,100%);fill-opacity:0.4;" d="M 16 10 C 12.675781 10 10 12.675781 10 16 C 10 16.042969 10 16.082031 10 16.125 C 10.066406 12.859375 12.71875 10.25 16 10.25 C 19.28125 10.25 21.933594 12.859375 22 16.125 C 22 16.082031 22 16.042969 22 16 C 22 12.675781 19.324219 10 16 10 Z M 14.003906 16.125 C 14.003906 16.167969 14 16.207031 14 16.25 C 14 17.359375 14.890625 18.25 16 18.25 C 17.109375 18.25 18 17.359375 18 16.25 C 18 16.207031 17.996094 16.167969 17.996094 16.125 C 17.929688 17.175781 17.066406 18 16 18 C 14.933594 18 14.070312 17.175781 14.003906 16.125 Z M 14.003906 16.125 "/>
<path style=" stroke:none;fill-rule:nonzero;fill:rgb(0%,0%,0%);fill-opacity:0.4;" d="M 16 14 C 14.890625 14 14 14.890625 14 16 C 14 16.042969 14.003906 16.082031 14.003906 16.125 C 14.070312 15.074219 14.933594 14.25 16 14.25 C 17.066406 14.25 17.929688 15.074219 17.996094 16.125 C 17.996094 16.082031 18 16.042969 18 16 C 18 14.890625 17.109375 14 16 14 Z M 10 16.125 C 10 16.167969 10 16.207031 10 16.25 C 10 19.574219 12.675781 22.25 16 22.25 C 19.324219 22.25 22 19.574219 22 16.25 C 22 16.207031 22 16.167969 22 16.125 C 21.933594 19.390625 19.28125 22 16 22 C 12.71875 22 10.066406 19.390625 10 16.125 Z M 10 16.125 "/>
<path style=" stroke:none;fill-rule:nonzero;fill:rgb(100%,100%,100%);fill-opacity:0.8;" d="M 7.511719 7.503906 C 6.5 8.515625 5.667969 9.707031 5.070312 11.03125 L 6.894531 11.855469 C 7.890625 9.65625 9.660156 7.886719 11.863281 6.886719 L 11.035156 5.066406 C 9.714844 5.664062 8.523438 6.496094 7.511719 7.503906 Z M 9.632812 9.628906 C 8.875 10.386719 8.253906 11.28125 7.804688 12.273438 L 9.625 13.097656 C 10.324219 11.558594 11.5625 10.320312 13.105469 9.621094 L 12.277344 7.800781 C 11.285156 8.25 10.390625 8.871094 9.632812 9.628906 Z M 18.894531 22.367188 L 19.722656 24.191406 C 20.714844 23.742188 21.609375 23.117188 22.367188 22.359375 C 23.125 21.601562 23.746094 20.707031 24.195312 19.71875 L 22.375 18.890625 C 21.675781 20.429688 20.4375 21.671875 18.894531 22.367188 Z M 20.136719 25.101562 L 20.964844 26.921875 C 22.285156 26.324219 23.476562 25.496094 24.488281 24.484375 C 25.5 23.472656 26.332031 22.28125 26.929688 20.960938 L 25.105469 20.132812 C 24.109375 22.332031 22.339844 24.101562 20.136719 25.101562 Z M 20.136719 25.101562 "/>
<path style=" stroke:none;fill-rule:nonzero;fill:url(#linear0);" d="M 16 2 C 8.242188 2 2 8.242188 2 16 C 2 23.757812 8.242188 30 16 30 C 23.757812 30 30 23.757812 30 16 C 30 8.242188 23.757812 2 16 2 Z M 16 14 C 17.109375 14 18 14.890625 18 16 C 18 17.109375 17.109375 18 16 18 C 14.890625 18 14 17.109375 14 16 C 14 14.890625 14.890625 14 16 14 Z M 16 14 "/>
<path style=" stroke:none;fill-rule:nonzero;fill:rgb(0%,0%,0%);fill-opacity:0.2;" d="M 16 14.007812 C 14.890625 14.007812 14 14.898438 14 16.007812 C 14 16.136719 14.011719 16.257812 14.035156 16.378906 C 14.207031 15.449219 15.019531 14.75 16 14.75 C 16.980469 14.75 17.792969 15.449219 17.964844 16.378906 C 17.988281 16.257812 18 16.136719 18 16.007812 C 18 14.898438 17.109375 14.007812 16 14.007812 Z M 2.003906 16.378906 C 2 16.503906 2 16.625 2 16.75 C 2 24.507812 8.242188 30.75 16 30.75 C 23.757812 30.75 30 24.507812 30 16.75 C 30 16.625 30 16.503906 29.996094 16.378906 C 29.800781 23.960938 23.632812 30.007812 16 30.007812 C 8.367188 30.007812 2.199219 23.960938 2.003906 16.378906 Z M 2.003906 16.378906 "/>
<path style=" stroke:none;fill-rule:nonzero;fill:rgb(0%,0%,0%);fill-opacity:0.4;" d="M 16 13.734375 C 14.976562 13.734375 14.140625 14.496094 14.015625 15.484375 C 14.011719 15.449219 14.011719 15.414062 14.007812 15.375 C 14.003906 15.417969 14 15.457031 14 15.5 C 14 15.585938 14.007812 15.667969 14.015625 15.75 C 14.140625 14.761719 14.976562 14 16 14 C 17.023438 14 17.859375 14.761719 17.984375 15.75 C 17.992188 15.667969 18 15.585938 18 15.5 C 18 15.457031 17.996094 15.417969 17.992188 15.375 C 17.988281 15.414062 17.988281 15.449219 17.984375 15.484375 C 17.859375 14.496094 17.023438 13.734375 16 13.734375 Z M 2 15.914062 C 2 15.941406 2 15.972656 2 16 C 2 23.757812 8.242188 30 16 30 C 23.757812 30 30 23.757812 30 16 C 30 15.972656 30 15.941406 30 15.914062 C 29.902344 23.585938 23.695312 29.734375 16 29.734375 C 8.304688 29.734375 2.097656 23.585938 2 15.914062 Z M 2 15.914062 "/>
<path style=" stroke:none;fill-rule:nonzero;fill:rgb(99.215686%,99.215686%,99.215686%);fill-opacity:0.6;" d="M 16 2 C 8.242188 2 2 8.242188 2 16 C 2 16.027344 2 16.054688 2 16.078125 C 2.09375 8.402344 8.300781 2.25 16 2.25 C 23.699219 2.25 29.90625 8.402344 30 16.078125 C 30 16.054688 30 16.027344 30 16 C 30 8.242188 23.757812 2 16 2 Z M 14.015625 16.25 C 14.007812 16.332031 14 16.414062 14 16.5 C 14 16.539062 14.003906 16.574219 14.007812 16.613281 C 14.007812 16.574219 14.011719 16.539062 14.015625 16.5 C 14.140625 17.488281 14.976562 18.25 16 18.25 C 17.023438 18.25 17.859375 17.488281 17.984375 16.5 C 17.988281 16.539062 17.992188 16.574219 17.992188 16.613281 C 17.996094 16.574219 18 16.539062 18 16.5 C 18 16.414062 17.992188 16.332031 17.984375 16.25 C 17.859375 17.238281 17.023438 18 16 18 C 14.976562 18 14.140625 17.238281 14.015625 16.25 Z M 14.015625 16.25 "/>
</g>
</svg>
