
<svg xmlns="http://www.w3.org/2000/svg" xmlns:xlink="http://www.w3.org/1999/xlink" width="32" height="32" viewBox="0 0 32 32" version="1.1">
<defs>
<linearGradient id="linear0" gradientUnits="userSpaceOnUse" x1="32" y1="59.999996" x2="31.999998" y2="3.999999" gradientTransform="matrix(0.5,0,0,0.5,0,0)">
<stop offset="0" style="stop-color:rgb(0%,0%,0%);stop-opacity:0.2;"/>
<stop offset="1" style="stop-color:rgb(100%,100%,100%);stop-opacity:0;"/>
</linearGradient>
</defs>
<g id="surface1">
<path style=" stroke:none;fill-rule:nonzero;fill:rgb(87.843138%,87.843138%,87.843138%);fill-opacity:1;" d="M 4.5 27 L 27.5 27 C 27.777344 27 28 27.222656 28 27.5 L 28 29.5 C 28 29.777344 27.777344 30 27.5 30 L 4.5 30 C 4.222656 30 4 29.777344 4 29.5 L 4 27.5 C 4 27.222656 4.222656 27 4.5 27 Z M 4.5 27 "/>
<path style=" stroke:none;fill-rule:nonzero;fill:rgb(74.117649%,74.117649%,74.117649%);fill-opacity:1;" d="M 5.25 28 L 26.75 28 C 26.886719 28 27 28.113281 27 28.25 L 27 28.75 C 27 28.886719 26.886719 29 26.75 29 L 5.25 29 C 5.113281 29 5 28.886719 5 28.75 L 5 28.25 C 5 28.113281 5.113281 28 5.25 28 Z M 5.25 28 "/>
<path style=" stroke:none;fill-rule:nonzero;fill:rgb(87.843138%,87.843138%,87.843138%);fill-opacity:1;" d="M 4.5 14 L 27.5 14 C 27.777344 14 28 14.222656 28 14.5 L 28 17.5 C 28 17.777344 27.777344 18 27.5 18 L 4.5 18 C 4.222656 18 4 17.777344 4 17.5 L 4 14.5 C 4 14.222656 4.222656 14 4.5 14 Z M 4.5 14 "/>
<path style=" stroke:none;fill-rule:nonzero;fill:rgb(61.960787%,61.960787%,61.960787%);fill-opacity:1;" d="M 5.5 16 L 26.5 16 C 26.777344 16 27 16.222656 27 16.5 C 27 16.777344 26.777344 17 26.5 17 L 5.5 17 C 5.222656 17 5 16.777344 5 16.5 C 5 16.222656 5.222656 16 5.5 16 Z M 5.5 16 "/>
<path style=" stroke:none;fill-rule:nonzero;fill:rgb(87.843138%,87.843138%,87.843138%);fill-opacity:1;" d="M 2.609375 15 L 29.390625 15 C 29.488281 15 29.578125 14.9375 29.617188 14.847656 C 29.652344 14.753906 29.628906 14.648438 29.558594 14.582031 L 16.441406 2.167969 C 16.195312 1.933594 15.804688 1.933594 15.558594 2.167969 L 2.441406 14.582031 C 2.371094 14.648438 2.347656 14.753906 2.382812 14.847656 C 2.421875 14.9375 2.511719 15 2.609375 15 Z M 2.609375 15 "/>
<path style=" stroke:none;fill-rule:nonzero;fill:rgb(87.843138%,87.843138%,87.843138%);fill-opacity:1;" d="M 5 16 L 27 16 L 27 27 L 5 27 Z M 5 16 "/>
<path style=" stroke:none;fill-rule:nonzero;fill:rgb(61.960787%,61.960787%,61.960787%);fill-opacity:1;" d="M 15.75 19 L 16.25 19 C 16.386719 19 16.5 19.085938 16.5 19.195312 L 16.5 25.804688 C 16.5 25.914062 16.386719 26 16.25 26 L 15.75 26 C 15.613281 26 15.5 25.914062 15.5 25.804688 L 15.5 19.195312 C 15.5 19.085938 15.613281 19 15.75 19 Z M 15.75 19 "/>
<path style=" stroke:none;fill-rule:nonzero;fill:rgb(0%,0%,0%);fill-opacity:0.4;" d="M 15.75 19 C 15.613281 19 15.5 19.113281 15.5 19.25 L 15.5 19.75 C 15.5 19.613281 15.613281 19.5 15.75 19.5 L 16.25 19.5 C 16.386719 19.5 16.5 19.613281 16.5 19.75 L 16.5 19.25 C 16.5 19.113281 16.386719 19 16.25 19 Z M 15.75 19 "/>
<path style=" stroke:none;fill-rule:nonzero;fill:rgb(100%,100%,100%);fill-opacity:0.6;" d="M 15.75 26.5 C 15.613281 26.5 15.5 26.386719 15.5 26.25 L 15.5 25.75 C 15.5 25.886719 15.613281 26 15.75 26 L 16.25 26 C 16.386719 26 16.5 25.886719 16.5 25.75 L 16.5 26.25 C 16.5 26.386719 16.386719 26.5 16.25 26.5 Z M 15.75 26.5 "/>
<path style=" stroke:none;fill-rule:nonzero;fill:rgb(61.960787%,61.960787%,61.960787%);fill-opacity:1;" d="M 13.5 19 L 14 19 C 14.136719 19 14.25 19.085938 14.25 19.195312 L 14.25 25.804688 C 14.25 25.914062 14.136719 26 14 26 L 13.5 26 C 13.363281 26 13.25 25.914062 13.25 25.804688 L 13.25 19.195312 C 13.25 19.085938 13.363281 19 13.5 19 Z M 13.5 19 "/>
<path style=" stroke:none;fill-rule:nonzero;fill:rgb(0%,0%,0%);fill-opacity:0.4;" d="M 13.5 19 C 13.363281 19 13.25 19.113281 13.25 19.25 L 13.25 19.75 C 13.25 19.613281 13.363281 19.5 13.5 19.5 L 14 19.5 C 14.136719 19.5 14.25 19.613281 14.25 19.75 L 14.25 19.25 C 14.25 19.113281 14.136719 19 14 19 Z M 13.5 19 "/>
<path style=" stroke:none;fill-rule:nonzero;fill:rgb(100%,100%,100%);fill-opacity:0.6;" d="M 13.5 26.5 C 13.363281 26.5 13.25 26.386719 13.25 26.25 L 13.25 25.75 C 13.25 25.886719 13.363281 26 13.5 26 L 14 26 C 14.136719 26 14.25 25.886719 14.25 25.75 L 14.25 26.25 C 14.25 26.386719 14.136719 26.5 14 26.5 Z M 13.5 26.5 "/>
<path style=" stroke:none;fill-rule:nonzero;fill:rgb(61.960787%,61.960787%,61.960787%);fill-opacity:1;" d="M 9 19 L 9.5 19 C 9.636719 19 9.75 19.085938 9.75 19.195312 L 9.75 25.804688 C 9.75 25.914062 9.636719 26 9.5 26 L 9 26 C 8.863281 26 8.75 25.914062 8.75 25.804688 L 8.75 19.195312 C 8.75 19.085938 8.863281 19 9 19 Z M 9 19 "/>
<path style=" stroke:none;fill-rule:nonzero;fill:rgb(0%,0%,0%);fill-opacity:0.4;" d="M 9 19 C 8.863281 19 8.75 19.113281 8.75 19.25 L 8.75 19.75 C 8.75 19.613281 8.863281 19.5 9 19.5 L 9.5 19.5 C 9.636719 19.5 9.75 19.613281 9.75 19.75 L 9.75 19.25 C 9.75 19.113281 9.636719 19 9.5 19 Z M 9 19 "/>
<path style=" stroke:none;fill-rule:nonzero;fill:rgb(100%,100%,100%);fill-opacity:0.6;" d="M 9 26.5 C 8.863281 26.5 8.75 26.386719 8.75 26.25 L 8.75 25.75 C 8.75 25.886719 8.863281 26 9 26 L 9.5 26 C 9.636719 26 9.75 25.886719 9.75 25.75 L 9.75 26.25 C 9.75 26.386719 9.636719 26.5 9.5 26.5 Z M 9 26.5 "/>
<path style=" stroke:none;fill-rule:nonzero;fill:rgb(61.960787%,61.960787%,61.960787%);fill-opacity:1;" d="M 11.25 19 L 11.75 19 C 11.886719 19 12 19.085938 12 19.195312 L 12 25.804688 C 12 25.914062 11.886719 26 11.75 26 L 11.25 26 C 11.113281 26 11 25.914062 11 25.804688 L 11 19.195312 C 11 19.085938 11.113281 19 11.25 19 Z M 11.25 19 "/>
<path style=" stroke:none;fill-rule:nonzero;fill:rgb(0%,0%,0%);fill-opacity:0.4;" d="M 11.25 19 C 11.113281 19 11 19.113281 11 19.25 L 11 19.75 C 11 19.613281 11.113281 19.5 11.25 19.5 L 11.75 19.5 C 11.886719 19.5 12 19.613281 12 19.75 L 12 19.25 C 12 19.113281 11.886719 19 11.75 19 Z M 11.25 19 "/>
<path style=" stroke:none;fill-rule:nonzero;fill:rgb(100%,100%,100%);fill-opacity:0.6;" d="M 11.25 26.5 C 11.113281 26.5 11 26.386719 11 26.25 L 11 25.75 C 11 25.886719 11.113281 26 11.25 26 L 11.75 26 C 11.886719 26 12 25.886719 12 25.75 L 12 26.25 C 12 26.386719 11.886719 26.5 11.75 26.5 Z M 11.25 26.5 "/>
<path style=" stroke:none;fill-rule:nonzero;fill:rgb(61.960787%,61.960787%,61.960787%);fill-opacity:1;" d="M 6.75 19 L 7.25 19 C 7.386719 19 7.5 19.085938 7.5 19.195312 L 7.5 25.804688 C 7.5 25.914062 7.386719 26 7.25 26 L 6.75 26 C 6.613281 26 6.5 25.914062 6.5 25.804688 L 6.5 19.195312 C 6.5 19.085938 6.613281 19 6.75 19 Z M 6.75 19 "/>
<path style=" stroke:none;fill-rule:nonzero;fill:rgb(0%,0%,0%);fill-opacity:0.4;" d="M 6.75 19 C 6.613281 19 6.5 19.113281 6.5 19.25 L 6.5 19.75 C 6.5 19.613281 6.613281 19.5 6.75 19.5 L 7.25 19.5 C 7.386719 19.5 7.5 19.613281 7.5 19.75 L 7.5 19.25 C 7.5 19.113281 7.386719 19 7.25 19 Z M 6.75 19 "/>
<path style=" stroke:none;fill-rule:nonzero;fill:rgb(100%,100%,100%);fill-opacity:0.6;" d="M 6.75 26.5 C 6.613281 26.5 6.5 26.386719 6.5 26.25 L 6.5 25.75 C 6.5 25.886719 6.613281 26 6.75 26 L 7.25 26 C 7.386719 26 7.5 25.886719 7.5 25.75 L 7.5 26.25 C 7.5 26.386719 7.386719 26.5 7.25 26.5 Z M 6.75 26.5 "/>
<path style=" stroke:none;fill-rule:nonzero;fill:rgb(61.960787%,61.960787%,61.960787%);fill-opacity:1;" d="M 24.75 19 L 25.25 19 C 25.386719 19 25.5 19.085938 25.5 19.195312 L 25.5 25.804688 C 25.5 25.914062 25.386719 26 25.25 26 L 24.75 26 C 24.613281 26 24.5 25.914062 24.5 25.804688 L 24.5 19.195312 C 24.5 19.085938 24.613281 19 24.75 19 Z M 24.75 19 "/>
<path style=" stroke:none;fill-rule:nonzero;fill:rgb(0%,0%,0%);fill-opacity:0.4;" d="M 24.75 19 C 24.613281 19 24.5 19.113281 24.5 19.25 L 24.5 19.75 C 24.5 19.613281 24.613281 19.5 24.75 19.5 L 25.25 19.5 C 25.386719 19.5 25.5 19.613281 25.5 19.75 L 25.5 19.25 C 25.5 19.113281 25.386719 19 25.25 19 Z M 24.75 19 "/>
<path style=" stroke:none;fill-rule:nonzero;fill:rgb(100%,100%,100%);fill-opacity:0.6;" d="M 24.75 26.5 C 24.613281 26.5 24.5 26.386719 24.5 26.25 L 24.5 25.75 C 24.5 25.886719 24.613281 26 24.75 26 L 25.25 26 C 25.386719 26 25.5 25.886719 25.5 25.75 L 25.5 26.25 C 25.5 26.386719 25.386719 26.5 25.25 26.5 Z M 24.75 26.5 "/>
<path style=" stroke:none;fill-rule:nonzero;fill:rgb(61.960787%,61.960787%,61.960787%);fill-opacity:1;" d="M 20.25 19 L 20.75 19 C 20.886719 19 21 19.085938 21 19.195312 L 21 25.804688 C 21 25.914062 20.886719 26 20.75 26 L 20.25 26 C 20.113281 26 20 25.914062 20 25.804688 L 20 19.195312 C 20 19.085938 20.113281 19 20.25 19 Z M 20.25 19 "/>
<path style=" stroke:none;fill-rule:nonzero;fill:rgb(0%,0%,0%);fill-opacity:0.4;" d="M 20.25 19 C 20.113281 19 20 19.113281 20 19.25 L 20 19.75 C 20 19.613281 20.113281 19.5 20.25 19.5 L 20.75 19.5 C 20.886719 19.5 21 19.613281 21 19.75 L 21 19.25 C 21 19.113281 20.886719 19 20.75 19 Z M 20.25 19 "/>
<path style=" stroke:none;fill-rule:nonzero;fill:rgb(100%,100%,100%);fill-opacity:0.6;" d="M 20.25 26.5 C 20.113281 26.5 20 26.386719 20 26.25 L 20 25.75 C 20 25.886719 20.113281 26 20.25 26 L 20.75 26 C 20.886719 26 21 25.886719 21 25.75 L 21 26.25 C 21 26.386719 20.886719 26.5 20.75 26.5 Z M 20.25 26.5 "/>
<path style=" stroke:none;fill-rule:nonzero;fill:rgb(61.960787%,61.960787%,61.960787%);fill-opacity:1;" d="M 22.5 19 L 23 19 C 23.136719 19 23.25 19.085938 23.25 19.195312 L 23.25 25.804688 C 23.25 25.914062 23.136719 26 23 26 L 22.5 26 C 22.363281 26 22.25 25.914062 22.25 25.804688 L 22.25 19.195312 C 22.25 19.085938 22.363281 19 22.5 19 Z M 22.5 19 "/>
<path style=" stroke:none;fill-rule:nonzero;fill:rgb(0%,0%,0%);fill-opacity:0.4;" d="M 22.5 19 C 22.363281 19 22.25 19.113281 22.25 19.25 L 22.25 19.75 C 22.25 19.613281 22.363281 19.5 22.5 19.5 L 23 19.5 C 23.136719 19.5 23.25 19.613281 23.25 19.75 L 23.25 19.25 C 23.25 19.113281 23.136719 19 23 19 Z M 22.5 19 "/>
<path style=" stroke:none;fill-rule:nonzero;fill:rgb(100%,100%,100%);fill-opacity:0.6;" d="M 22.5 26.5 C 22.363281 26.5 22.25 26.386719 22.25 26.25 L 22.25 25.75 C 22.25 25.886719 22.363281 26 22.5 26 L 23 26 C 23.136719 26 23.25 25.886719 23.25 25.75 L 23.25 26.25 C 23.25 26.386719 23.136719 26.5 23 26.5 Z M 22.5 26.5 "/>
<path style=" stroke:none;fill-rule:nonzero;fill:rgb(61.960787%,61.960787%,61.960787%);fill-opacity:1;" d="M 18 19 L 18.5 19 C 18.636719 19 18.75 19.085938 18.75 19.195312 L 18.75 25.804688 C 18.75 25.914062 18.636719 26 18.5 26 L 18 26 C 17.863281 26 17.75 25.914062 17.75 25.804688 L 17.75 19.195312 C 17.75 19.085938 17.863281 19 18 19 Z M 18 19 "/>
<path style=" stroke:none;fill-rule:nonzero;fill:rgb(0%,0%,0%);fill-opacity:0.4;" d="M 18 19 C 17.863281 19 17.75 19.113281 17.75 19.25 L 17.75 19.75 C 17.75 19.613281 17.863281 19.5 18 19.5 L 18.5 19.5 C 18.636719 19.5 18.75 19.613281 18.75 19.75 L 18.75 19.25 C 18.75 19.113281 18.636719 19 18.5 19 Z M 18 19 "/>
<path style=" stroke:none;fill-rule:nonzero;fill:rgb(100%,100%,100%);fill-opacity:0.6;" d="M 18 26.5 C 17.863281 26.5 17.75 26.386719 17.75 26.25 L 17.75 25.75 C 17.75 25.886719 17.863281 26 18 26 L 18.5 26 C 18.636719 26 18.75 25.886719 18.75 25.75 L 18.75 26.25 C 18.75 26.386719 18.636719 26.5 18.5 26.5 Z M 18 26.5 "/>
<path style=" stroke:none;fill-rule:nonzero;fill:rgb(100%,100%,100%);fill-opacity:0.8;" d="M 4.5 27 C 4.222656 27 4 27.222656 4 27.5 L 4 28 C 4 27.722656 4.222656 27.5 4.5 27.5 L 27.5 27.5 C 27.777344 27.5 28 27.722656 28 28 L 28 27.5 C 28 27.222656 27.777344 27 27.5 27 Z M 4.5 27 "/>
<path style=" stroke:none;fill-rule:nonzero;fill:rgb(0%,0%,0%);fill-opacity:0.4;" d="M 4.5 30 C 4.222656 30 4 29.777344 4 29.5 L 4 29 C 4 29.277344 4.222656 29.5 4.5 29.5 L 27.5 29.5 C 27.777344 29.5 28 29.277344 28 29 L 28 29.5 C 28 29.777344 27.777344 30 27.5 30 Z M 4.5 30 "/>
<path style=" stroke:none;fill-rule:nonzero;fill:rgb(0%,0%,0%);fill-opacity:0.4;" d="M 5 18 L 5 18.5 L 27 18.5 L 27 18 Z M 5 18 "/>
<path style=" stroke:none;fill-rule:nonzero;fill:rgb(61.960787%,61.960787%,61.960787%);fill-opacity:1;" d="M 5.25 16 L 26.75 16 C 26.886719 16 27 16.113281 27 16.25 L 27 16.75 C 27 16.886719 26.886719 17 26.75 17 L 5.25 17 C 5.113281 17 5 16.886719 5 16.75 L 5 16.25 C 5 16.113281 5.113281 16 5.25 16 Z M 5.25 16 "/>
<path style=" stroke:none;fill-rule:nonzero;fill:rgb(0%,0%,0%);fill-opacity:0.4;" d="M 5.25 16 C 5.113281 16 5 16.113281 5 16.25 L 5 16.5 C 5 16.363281 5.113281 16.25 5.25 16.25 L 26.75 16.25 C 26.886719 16.25 27 16.363281 27 16.5 L 27 16.25 C 27 16.113281 26.886719 16 26.75 16 Z M 5.25 16 "/>
<path style=" stroke:none;fill-rule:nonzero;fill:rgb(100%,100%,100%);fill-opacity:0.6;" d="M 5.25 17.25 C 5.113281 17.25 5 17.136719 5 17 L 5 16.75 C 5 16.886719 5.113281 17 5.25 17 L 26.75 17 C 26.886719 17 27 16.886719 27 16.75 L 27 17 C 27 17.136719 26.886719 17.25 26.75 17.25 Z M 5.25 17.25 "/>
<path style=" stroke:none;fill-rule:nonzero;fill:rgb(0%,0%,0%);fill-opacity:0.4;" d="M 5.25 28 C 5.113281 28 5 28.113281 5 28.25 L 5 28.5 C 5 28.363281 5.113281 28.25 5.25 28.25 L 26.75 28.25 C 26.886719 28.25 27 28.363281 27 28.5 L 27 28.25 C 27 28.113281 26.886719 28 26.75 28 Z M 5.25 28 "/>
<path style=" stroke:none;fill-rule:nonzero;fill:rgb(100%,100%,100%);fill-opacity:0.6;" d="M 5.25 29.25 C 5.113281 29.25 5 29.136719 5 29 L 5 28.75 C 5 28.886719 5.113281 29 5.25 29 L 26.75 29 C 26.886719 29 27 28.886719 27 28.75 L 27 29 C 27 29.136719 26.886719 29.25 26.75 29.25 Z M 5.25 29.25 "/>
<path style=" stroke:none;fill-rule:nonzero;fill:rgb(74.117649%,74.117649%,74.117649%);fill-opacity:1;" d="M 5.855469 14 L 26.144531 14 C 26.242188 14 26.332031 13.941406 26.367188 13.847656 C 26.40625 13.757812 26.382812 13.652344 26.3125 13.582031 L 16.429688 3.921875 C 16.191406 3.6875 15.808594 3.6875 15.570312 3.921875 L 5.6875 13.582031 C 5.617188 13.652344 5.59375 13.757812 5.632812 13.847656 C 5.667969 13.941406 5.757812 14 5.855469 14 Z M 5.855469 14 "/>
<path style=" stroke:none;fill-rule:nonzero;fill:rgb(87.843138%,87.843138%,87.843138%);fill-opacity:0.8;" d="M 16 7.75 C 17.105469 7.75 18 8.644531 18 9.75 C 18 10.855469 17.105469 11.75 16 11.75 C 14.894531 11.75 14 10.855469 14 9.75 C 14 8.644531 14.894531 7.75 16 7.75 Z M 16 7.75 "/>
<path style=" stroke:none;fill-rule:nonzero;fill:rgb(38.039216%,38.039216%,38.039216%);fill-opacity:0.8;" d="M 16 8.25 C 16.828125 8.25 17.5 8.921875 17.5 9.75 C 17.5 10.578125 16.828125 11.25 16 11.25 C 15.171875 11.25 14.5 10.578125 14.5 9.75 C 14.5 8.921875 15.171875 8.25 16 8.25 Z M 16 8.25 "/>
<path style=" stroke:none;fill-rule:nonzero;fill:rgb(99.607843%,99.607843%,99.607843%);fill-opacity:0.6;" d="M 16 7.75 C 14.890625 7.75 14 8.640625 14 9.75 C 14 9.792969 14 9.832031 14.003906 9.875 C 14.066406 8.824219 14.933594 8 16 8 C 17.066406 8 17.933594 8.824219 17.996094 9.875 C 18 9.832031 18 9.792969 18 9.75 C 18 8.640625 17.109375 7.75 16 7.75 Z M 16 7.75 "/>
<path style=" stroke:none;fill-rule:nonzero;fill:rgb(0.392157%,0.392157%,0.392157%);fill-opacity:0.4;" d="M 16 12 C 14.890625 12 14 11.109375 14 10 C 14 9.957031 14 9.917969 14.003906 9.875 C 14.066406 10.925781 14.933594 11.75 16 11.75 C 17.066406 11.75 17.933594 10.925781 17.996094 9.875 C 18 9.917969 18 9.957031 18 10 C 18 11.109375 17.109375 12 16 12 Z M 16 12 "/>
<path style=" stroke:none;fill-rule:nonzero;fill:rgb(0%,0%,0%);fill-opacity:0.4;" d="M 16 8.25 C 15.167969 8.25 14.5 8.917969 14.5 9.75 C 14.5 9.792969 14.5 9.832031 14.503906 9.875 C 14.566406 9.101562 15.210938 8.5 16 8.5 C 16.789062 8.5 17.433594 9.101562 17.496094 9.875 C 17.5 9.832031 17.5 9.792969 17.5 9.75 C 17.5 8.917969 16.832031 8.25 16 8.25 Z M 16 8.25 "/>
<path style=" stroke:none;fill-rule:nonzero;fill:rgb(99.607843%,99.607843%,99.607843%);fill-opacity:0.6;" d="M 16 11.5 C 15.167969 11.5 14.5 10.832031 14.5 10 C 14.5 9.957031 14.5 9.917969 14.503906 9.875 C 14.566406 10.648438 15.210938 11.25 16 11.25 C 16.789062 11.25 17.433594 10.648438 17.496094 9.875 C 17.5 9.917969 17.5 9.957031 17.5 10 C 17.5 10.832031 16.832031 11.5 16 11.5 Z M 16 11.5 "/>
<path style=" stroke:none;fill-rule:nonzero;fill:rgb(100%,100%,100%);fill-opacity:0.6;" d="M 15.902344 2 C 15.773438 2.019531 15.652344 2.078125 15.558594 2.167969 L 2.441406 14.582031 C 2.382812 14.640625 2.359375 14.730469 2.378906 14.8125 C 2.402344 14.894531 2.464844 14.960938 2.546875 14.984375 L 15.558594 2.667969 C 15.804688 2.433594 16.195312 2.433594 16.441406 2.667969 L 29.460938 14.988281 C 29.542969 14.964844 29.605469 14.898438 29.625 14.8125 C 29.644531 14.730469 29.621094 14.640625 29.558594 14.582031 L 16.441406 2.167969 C 16.296875 2.03125 16.097656 1.96875 15.902344 2 Z M 15.902344 2 "/>
<path style=" stroke:none;fill-rule:nonzero;fill:rgb(0%,0%,0%);fill-opacity:0.4;" d="M 4 15 L 28 15 L 28 15.5 L 4 15.5 Z M 4 15 "/>
<path style=" stroke:none;fill-rule:nonzero;fill:rgb(0%,0%,0%);fill-opacity:0.4;" d="M 16 3.746094 C 15.839844 3.746094 15.6875 3.808594 15.570312 3.921875 L 5.6875 13.582031 C 5.625 13.640625 5.601562 13.726562 5.621094 13.808594 C 5.640625 13.890625 5.703125 13.957031 5.78125 13.984375 L 15.570312 4.417969 C 15.808594 4.183594 16.191406 4.183594 16.429688 4.417969 L 26.21875 13.984375 C 26.300781 13.960938 26.359375 13.894531 26.378906 13.808594 C 26.398438 13.726562 26.375 13.640625 26.3125 13.582031 L 16.429688 3.921875 C 16.3125 3.808594 16.160156 3.746094 16 3.746094 Z M 16 3.746094 "/>
<path style=" stroke:none;fill-rule:nonzero;fill:rgb(100%,100%,100%);fill-opacity:0.6;" d="M 5.785156 13.984375 L 5.6875 14.082031 C 5.617188 14.152344 5.59375 14.257812 5.628906 14.347656 C 5.667969 14.441406 5.757812 14.5 5.859375 14.5 L 26.140625 14.5 C 26.242188 14.5 26.332031 14.441406 26.371094 14.347656 C 26.40625 14.257812 26.382812 14.152344 26.3125 14.082031 L 26.21875 13.984375 C 26.191406 13.996094 26.167969 14 26.140625 14 L 5.859375 14 C 5.832031 14 5.808594 13.992188 5.785156 13.984375 Z M 5.785156 13.984375 "/>
<path style=" stroke:none;fill-rule:nonzero;fill:url(#linear0);" d="M 15.902344 2 C 15.773438 2.019531 15.652344 2.078125 15.558594 2.167969 L 2.441406 14.582031 C 2.371094 14.648438 2.347656 14.753906 2.382812 14.847656 C 2.421875 14.9375 2.511719 15 2.609375 15 L 4 15 L 4 17.5 C 4 17.777344 4.222656 18 4.5 18 L 5 18 L 5 27 L 4.5 27 C 4.222656 27 4 27.222656 4 27.5 L 4 29.5 C 4 29.777344 4.222656 30 4.5 30 L 27.5 30 C 27.777344 30 28 29.777344 28 29.5 L 28 27.5 C 28 27.222656 27.777344 27 27.5 27 L 27 27 L 27 18 L 27.5 18 C 27.777344 18 28 17.777344 28 17.5 L 28 15 L 29.390625 15 C 29.488281 15 29.578125 14.9375 29.617188 14.847656 C 29.652344 14.753906 29.628906 14.648438 29.558594 14.582031 L 16.441406 2.167969 C 16.296875 2.03125 16.097656 1.96875 15.902344 2 Z M 15.902344 2 "/>
<path style=" stroke:none;fill-rule:nonzero;fill:rgb(0%,0%,0%);fill-opacity:0.2;" d="M 4 29.5 L 4 30.25 C 4 30.527344 4.222656 30.75 4.5 30.75 L 27.5 30.75 C 27.777344 30.75 28 30.527344 28 30.25 L 28 29.5 C 28 29.777344 27.777344 30 27.5 30 L 4.5 30 C 4.222656 30 4 29.777344 4 29.5 Z M 4 29.5 "/>
</g>
</svg>
