
<svg xmlns="http://www.w3.org/2000/svg" xmlns:xlink="http://www.w3.org/1999/xlink" width="64" height="64" viewBox="0 0 64 64" version="1.1">
<defs>
<linearGradient id="linear0" gradientUnits="userSpaceOnUse" x1="8.466666" y1="-200.183334" x2="8.466666" y2="-212.883331" gradientTransform="matrix(3.779528,0,0,3.779528,0.00000490227,812.598468)">
<stop offset="0" style="stop-color:rgb(0%,0%,0%);stop-opacity:0.2;"/>
<stop offset="1" style="stop-color:rgb(100%,100%,100%);stop-opacity:0;"/>
</linearGradient>
</defs>
<g id="surface1">
<path style=" stroke:none;fill-rule:nonzero;fill:rgb(93.333334%,93.333334%,93.333334%);fill-opacity:1;" d="M 8 8 L 56 8 C 58.210938 8 60 9.789062 60 12 L 60 52 C 60 54.210938 58.210938 56 56 56 L 8 56 C 5.789062 56 4 54.210938 4 52 L 4 12 C 4 9.789062 5.789062 8 8 8 Z M 8 8 "/>
<path style=" stroke:none;fill-rule:nonzero;fill:rgb(38.039216%,38.039216%,38.039216%);fill-opacity:1;" d="M 8 8 C 5.785156 8 4 9.785156 4 12 L 4 18 L 60 18 L 60 12 C 60 9.785156 58.21875 8 56 8 Z M 8 8 "/>
<path style=" stroke:none;fill-rule:nonzero;fill:rgb(100%,100%,100%);fill-opacity:0.4;" d="M 8 8 C 5.785156 8 4 9.785156 4 12 L 4 13 C 4 10.785156 5.785156 9 8 9 L 56 9 C 58.21875 9 60 10.785156 60 13 L 60 12 C 60 9.785156 58.21875 8 56 8 Z M 8 8 "/>
<path style=" stroke:none;fill-rule:nonzero;fill:rgb(0%,0%,0%);fill-opacity:0.4;" d="M 4 18 L 60 18 L 60 19 L 4 19 Z M 4 18 "/>
<path style=" stroke:none;fill-rule:nonzero;fill:rgb(0%,0%,0%);fill-opacity:0.2;" d="M 4 52.042969 L 4 53.535156 C 4 55.75 5.785156 57.535156 8 57.535156 L 56 57.535156 C 58.214844 57.535156 60 55.75 60 53.535156 L 60 52.042969 C 60 54.257812 58.214844 56.042969 56 56.042969 L 8 56.042969 C 5.785156 56.042969 4 54.257812 4 52.042969 Z M 4 52.042969 "/>
<path style=" stroke:none;fill-rule:nonzero;fill:rgb(0%,0%,0%);fill-opacity:0.4;" d="M 4 51.003906 L 4 52 C 4 54.214844 5.785156 56 8 56 L 56 56 C 58.214844 56 60 54.214844 60 52 L 60 51.003906 C 60 53.21875 58.214844 55.003906 56 55.003906 L 8 55.003906 C 5.785156 55.003906 4 53.21875 4 51.003906 Z M 4 51.003906 "/>
<path style=" stroke:none;fill-rule:nonzero;fill:rgb(95.686275%,26.274511%,21.176471%);fill-opacity:1;" d="M 56 11 C 57.105469 11 58 11.894531 58 13 C 58 14.105469 57.105469 15 56 15 C 54.894531 15 54 14.105469 54 13 C 54 11.894531 54.894531 11 56 11 Z M 56 11 "/>
<path style=" stroke:none;fill-rule:nonzero;fill:rgb(100%,65.490198%,14.901961%);fill-opacity:1;" d="M 50 11 C 51.105469 11 52 11.894531 52 13 C 52 14.105469 51.105469 15 50 15 C 48.894531 15 48 14.105469 48 13 C 48 11.894531 48.894531 11 50 11 Z M 50 11 "/>
<path style=" stroke:none;fill-rule:nonzero;fill:rgb(40.000001%,73.333335%,41.568628%);fill-opacity:0.988235;" d="M 44 11 C 45.105469 11 46 11.894531 46 13 C 46 14.105469 45.105469 15 44 15 C 42.894531 15 42 14.105469 42 13 C 42 11.894531 42.894531 11 44 11 Z M 44 11 "/>
<path style=" stroke:none;fill-rule:nonzero;fill:rgb(40.000001%,73.333335%,41.568628%);fill-opacity:0.988235;" d="M 44 11 C 45.105469 11 46 11.894531 46 13 C 46 14.105469 45.105469 15 44 15 C 42.894531 15 42 14.105469 42 13 C 42 11.894531 42.894531 11 44 11 Z M 44 11 "/>
<path style=" stroke:none;fill-rule:nonzero;fill:rgb(100%,100%,100%);fill-opacity:0.4;" d="M 42.015625 13.246094 C 42.003906 13.328125 42 13.414062 42 13.5 C 42 14.605469 42.890625 15.5 44 15.5 C 45.109375 15.5 46 14.605469 46 13.5 C 46 13.414062 45.996094 13.328125 45.984375 13.246094 C 45.863281 14.234375 45.023438 15 44 15 C 42.976562 15 42.136719 14.234375 42.015625 13.246094 Z M 48.015625 13.246094 C 48.003906 13.328125 48 13.414062 48 13.5 C 48 14.605469 48.890625 15.5 50 15.5 C 51.109375 15.5 52 14.605469 52 13.5 C 52 13.414062 51.996094 13.328125 51.984375 13.246094 C 51.863281 14.234375 51.023438 15 50 15 C 48.976562 15 48.136719 14.234375 48.015625 13.246094 Z M 54.015625 13.246094 C 54.003906 13.328125 54 13.414062 54 13.5 C 54 14.605469 54.890625 15.5 56 15.5 C 57.109375 15.5 58 14.605469 58 13.5 C 58 13.414062 57.996094 13.328125 57.984375 13.246094 C 57.863281 14.234375 57.023438 15 56 15 C 54.976562 15 54.136719 14.234375 54.015625 13.246094 Z M 54.015625 13.246094 "/>
<path style=" stroke:none;fill-rule:nonzero;fill:rgb(0%,0%,0%);fill-opacity:0.4;" d="M 44 11 C 42.890625 11 42 11.894531 42 13 C 42 13.085938 42.003906 13.171875 42.015625 13.253906 C 42.136719 12.265625 42.976562 11.5 44 11.5 C 45.023438 11.5 45.863281 12.265625 45.984375 13.253906 C 45.996094 13.171875 46 13.085938 46 13 C 46 11.894531 45.109375 11 44 11 Z M 50 11 C 48.890625 11 48 11.894531 48 13 C 48 13.085938 48.003906 13.171875 48.015625 13.253906 C 48.136719 12.265625 48.976562 11.5 50 11.5 C 51.023438 11.5 51.863281 12.265625 51.984375 13.253906 C 51.996094 13.171875 52 13.085938 52 13 C 52 11.894531 51.109375 11 50 11 Z M 56 11 C 54.890625 11 54 11.894531 54 13 C 54 13.085938 54.003906 13.171875 54.015625 13.253906 C 54.136719 12.265625 54.976562 11.5 56 11.5 C 57.023438 11.5 57.863281 12.265625 57.984375 13.253906 C 57.996094 13.171875 58 13.085938 58 13 C 58 11.894531 57.109375 11 56 11 Z M 56 11 "/>
<path style=" stroke:none;fill-rule:nonzero;fill:rgb(0%,0%,0%);fill-opacity:0.4;" d="M 16.019531 22 L 16.023438 22 C 17.125 22 18.023438 22.894531 18.023438 24 L 18.023438 48 C 18.023438 49.105469 17.125 50 16.023438 50 L 16.019531 50 C 14.917969 50 14.019531 49.105469 14.019531 48 L 14.019531 24 C 14.019531 22.894531 14.917969 22 16.019531 22 Z M 16.019531 22 "/>
<path style=" stroke:none;fill-rule:nonzero;fill:rgb(40.000001%,73.333335%,41.568628%);fill-opacity:1;" d="M 16 30 C 17.105469 30 18 30.894531 18 32 L 18 48 C 18 49.105469 17.105469 50 16 50 C 14.894531 50 14 49.105469 14 48 L 14 32 C 14 30.894531 14.894531 30 16 30 Z M 16 30 "/>
<path style=" stroke:none;fill-rule:nonzero;fill:rgb(74.117649%,74.117649%,74.117649%);fill-opacity:0.992157;" d="M 16 24 C 19.3125 24 22 26.6875 22 30 C 22 33.3125 19.3125 36 16 36 C 12.6875 36 10 33.3125 10 30 C 10 26.6875 12.6875 24 16 24 Z M 16 24 "/>
<path style=" stroke:none;fill-rule:nonzero;fill:rgb(0%,0%,0%);fill-opacity:0.4;" d="M 10.042969 30.5 C 10.03125 30.664062 10.019531 30.832031 10.019531 31 C 10.019531 34.324219 12.699219 37 16.019531 37 C 19.34375 37 22.019531 34.324219 22.019531 31 C 22.019531 30.832031 22.011719 30.664062 22 30.5 C 21.746094 33.589844 19.175781 36 16.019531 36 C 12.867188 36 10.296875 33.589844 10.042969 30.5 Z M 10.042969 30.5 "/>
<path style=" stroke:none;fill-rule:nonzero;fill:rgb(0%,0%,0%);fill-opacity:0.4;" d="M 16.023438 22 C 14.914062 22 14.023438 22.890625 14.023438 24 L 14.023438 25 C 14.023438 23.890625 14.914062 23 16.023438 23 C 17.128906 23 18.023438 23.890625 18.023438 25 L 18.023438 24 C 18.023438 22.890625 17.128906 22 16.023438 22 Z M 16.023438 22 "/>
<path style=" stroke:none;fill-rule:nonzero;fill:rgb(99.607843%,99.607843%,99.607843%);fill-opacity:0.6;" d="M 16.023438 51 C 14.914062 51 14.023438 50.109375 14.023438 49 L 14.023438 48 C 14.023438 49.109375 14.914062 50 16.023438 50 C 17.128906 50 18.023438 49.109375 18.023438 48 L 18.023438 49 C 18.023438 50.109375 17.128906 51 16.023438 51 Z M 16.023438 51 "/>
<path style=" stroke:none;fill-rule:nonzero;fill:rgb(0%,0%,0%);fill-opacity:0.4;" d="M 32 22 C 33.105469 22 34 22.894531 34 24 L 34 48 C 34 49.105469 33.105469 50 32 50 C 30.894531 50 30 49.105469 30 48 L 30 24 C 30 22.894531 30.894531 22 32 22 Z M 32 22 "/>
<path style=" stroke:none;fill-rule:nonzero;fill:rgb(40.000001%,73.333335%,41.568628%);fill-opacity:1;" d="M 32 40 C 33.105469 40 34 40.894531 34 42 L 34 48 C 34 49.105469 33.105469 50 32 50 C 30.894531 50 30 49.105469 30 48 L 30 42 C 30 40.894531 30.894531 40 32 40 Z M 32 40 "/>
<path style=" stroke:none;fill-rule:nonzero;fill:rgb(0%,0%,0%);fill-opacity:0.4;" d="M 26.023438 40.5 C 26.007812 40.664062 26 40.832031 26 41 C 26 44.324219 28.675781 47 32 47 C 35.324219 47 38 44.324219 38 41 C 38 40.832031 37.992188 40.664062 37.976562 40.5 C 37.726562 43.589844 35.15625 46 32 46 C 28.84375 46 26.273438 43.589844 26.019531 40.5 Z M 26.023438 40.5 "/>
<path style=" stroke:none;fill-rule:nonzero;fill:rgb(0%,0%,0%);fill-opacity:0.4;" d="M 32 22 C 30.890625 22 30 22.890625 30 24 L 30 25 C 30 23.890625 30.890625 23 32 23 C 33.109375 23 34 23.890625 34 25 L 34 24 C 34 22.890625 33.109375 22 32 22 Z M 32 22 "/>
<path style=" stroke:none;fill-rule:nonzero;fill:rgb(99.607843%,99.607843%,99.607843%);fill-opacity:0.6;" d="M 32 51 C 30.890625 51 30 50.109375 30 49 L 30 48 C 30 49.109375 30.890625 50 32 50 C 33.109375 50 34 49.109375 34 48 L 34 49 C 34 50.109375 33.109375 51 32 51 Z M 32 51 "/>
<path style=" stroke:none;fill-rule:nonzero;fill:rgb(0%,0%,0%);fill-opacity:0.4;" d="M 48 22 C 49.105469 22 50 22.894531 50 24 L 50 48 C 50 49.105469 49.105469 50 48 50 C 46.894531 50 46 49.105469 46 48 L 46 24 C 46 22.894531 46.894531 22 48 22 Z M 48 22 "/>
<path style=" stroke:none;fill-rule:nonzero;fill:rgb(40.000001%,73.333335%,41.568628%);fill-opacity:1;" d="M 48 34 C 49.105469 34 50 34.894531 50 36 L 50 48 C 50 49.105469 49.105469 50 48 50 C 46.894531 50 46 49.105469 46 48 L 46 36 C 46 34.894531 46.894531 34 48 34 Z M 48 34 "/>
<path style=" stroke:none;fill-rule:nonzero;fill:rgb(0%,0%,0%);fill-opacity:0.4;" d="M 42.023438 34.5 C 42.007812 34.664062 42 34.832031 42 35 C 42 38.324219 44.675781 41 48 41 C 51.324219 41 54 38.324219 54 35 C 54 34.832031 53.992188 34.664062 53.976562 34.5 C 53.726562 37.589844 51.15625 40 48 40 C 44.84375 40 42.273438 37.589844 42.019531 34.5 Z M 42.023438 34.5 "/>
<path style=" stroke:none;fill-rule:nonzero;fill:rgb(0%,0%,0%);fill-opacity:0.4;" d="M 48 22 C 46.890625 22 46 22.890625 46 24 L 46 25 C 46 23.890625 46.890625 23 48 23 C 49.109375 23 50 23.890625 50 25 L 50 24 C 50 22.890625 49.109375 22 48 22 Z M 48 22 "/>
<path style=" stroke:none;fill-rule:nonzero;fill:rgb(74.117649%,74.117649%,74.117649%);fill-opacity:0.992157;" d="M 48 28 C 51.3125 28 54 30.6875 54 34 C 54 37.3125 51.3125 40 48 40 C 44.6875 40 42 37.3125 42 34 C 42 30.6875 44.6875 28 48 28 Z M 48 28 "/>
<path style=" stroke:none;fill-rule:nonzero;fill:rgb(99.607843%,99.607843%,99.607843%);fill-opacity:0.4;" d="M 42.023438 34.5 C 42.007812 34.335938 42 34.167969 42 34 C 42 30.675781 44.675781 28 48 28 C 51.324219 28 54 30.675781 54 34 C 54 34.167969 53.992188 34.335938 53.976562 34.5 C 53.726562 31.410156 51.15625 29 48 29 C 44.84375 29 42.273438 31.410156 42.019531 34.5 Z M 42.023438 34.5 "/>
<path style=" stroke:none;fill-rule:nonzero;fill:rgb(99.607843%,99.607843%,99.607843%);fill-opacity:0.6;" d="M 48 51 C 46.890625 51 46 50.109375 46 49 L 46 48 C 46 49.109375 46.890625 50 48 50 C 49.109375 50 50 49.109375 50 48 L 50 49 C 50 50.109375 49.109375 51 48 51 Z M 48 51 "/>
<path style=" stroke:none;fill-rule:nonzero;fill:rgb(99.607843%,99.607843%,99.607843%);fill-opacity:0.4;" d="M 10.042969 30.5 C 10.03125 30.335938 10.019531 30.167969 10.019531 30 C 10.019531 26.675781 12.699219 24 16.019531 24 C 19.34375 24 22.019531 26.675781 22.019531 30 C 22.019531 30.167969 22.011719 30.335938 22 30.5 C 21.746094 27.410156 19.175781 25 16.019531 25 C 12.867188 25 10.296875 27.410156 10.042969 30.5 Z M 10.042969 30.5 "/>
<path style=" stroke:none;fill-rule:nonzero;fill:rgb(74.117649%,74.117649%,74.117649%);fill-opacity:0.992157;" d="M 32 34 C 35.3125 34 38 36.6875 38 40 C 38 43.3125 35.3125 46 32 46 C 28.6875 46 26 43.3125 26 40 C 26 36.6875 28.6875 34 32 34 Z M 32 34 "/>
<path style=" stroke:none;fill-rule:nonzero;fill:rgb(99.607843%,99.607843%,99.607843%);fill-opacity:0.4;" d="M 26.023438 40.5 C 26.007812 40.335938 26 40.167969 26 40 C 26 36.675781 28.675781 34 32 34 C 35.324219 34 38 36.675781 38 40 C 38 40.167969 37.992188 40.335938 37.976562 40.5 C 37.726562 37.410156 35.15625 35 32 35 C 28.84375 35 26.273438 37.410156 26.019531 40.5 Z M 26.023438 40.5 "/>
<path style=" stroke:none;fill-rule:nonzero;fill:rgb(0.392157%,0.784314%,0.784314%);fill-opacity:0.4;" d="M 16 26 C 18.210938 26 20 27.789062 20 30 C 20 32.210938 18.210938 34 16 34 C 13.789062 34 12 32.210938 12 30 C 12 27.789062 13.789062 26 16 26 Z M 16 26 "/>
<path style=" stroke:none;fill-rule:nonzero;fill:rgb(0.392157%,0.784314%,0.784314%);fill-opacity:0.4;" d="M 16 26 C 13.785156 26 12 27.785156 12 30 C 12 30.167969 12.007812 30.335938 12.03125 30.5 C 12.273438 28.519531 13.953125 27 16 27 C 18.046875 27 19.726562 28.519531 19.972656 30.5 C 19.992188 30.335938 20 30.167969 20 30 C 20 27.785156 18.214844 26 16 26 Z M 16 26 "/>
<path style=" stroke:none;fill-rule:nonzero;fill:rgb(99.215686%,99.607843%,99.607843%);fill-opacity:0.4;" d="M 16 35 C 13.785156 35 12 33.214844 12 31 C 12 30.832031 12.007812 30.664062 12.027344 30.5 C 12.273438 32.480469 13.953125 34 16 34 C 18.046875 34 19.726562 32.480469 19.96875 30.5 C 19.992188 30.664062 20 30.832031 20 31 C 20 33.214844 18.214844 35 16 35 Z M 16 35 "/>
<path style=" stroke:none;fill-rule:nonzero;fill:rgb(0.392157%,0.784314%,0.784314%);fill-opacity:0.4;" d="M 32.03125 36 C 34.238281 36 36.03125 37.789062 36.03125 40 C 36.03125 42.210938 34.238281 44 32.03125 44 C 29.820312 44 28.03125 42.210938 28.03125 40 C 28.03125 37.789062 29.820312 36 32.03125 36 Z M 32.03125 36 "/>
<path style=" stroke:none;fill-rule:nonzero;fill:rgb(0.392157%,0.784314%,0.784314%);fill-opacity:0.4;" d="M 32.03125 36 C 29.8125 36 28.03125 37.785156 28.03125 40 C 28.03125 40.167969 28.039062 40.335938 28.058594 40.5 C 28.304688 38.519531 29.980469 37 32.03125 37 C 34.078125 37 35.753906 38.519531 36 40.5 C 36.019531 40.335938 36.03125 40.167969 36.03125 40 C 36.03125 37.785156 34.246094 36 32.03125 36 Z M 32.03125 36 "/>
<path style=" stroke:none;fill-rule:nonzero;fill:rgb(99.215686%,99.607843%,99.607843%);fill-opacity:0.4;" d="M 32.03125 45 C 29.8125 45 28.03125 43.214844 28.03125 41 C 28.03125 40.832031 28.039062 40.664062 28.058594 40.5 C 28.304688 42.480469 29.980469 44 32.03125 44 C 34.078125 44 35.753906 42.480469 36 40.5 C 36.019531 40.664062 36.027344 40.832031 36.027344 41 C 36.027344 43.214844 34.246094 45 32.027344 45 Z M 32.03125 45 "/>
<path style=" stroke:none;fill-rule:nonzero;fill:rgb(0.392157%,0.784314%,0.784314%);fill-opacity:0.4;" d="M 48 30 C 50.210938 30 52 31.789062 52 34 C 52 36.210938 50.210938 38 48 38 C 45.789062 38 44 36.210938 44 34 C 44 31.789062 45.789062 30 48 30 Z M 48 30 "/>
<path style=" stroke:none;fill-rule:nonzero;fill:rgb(0.392157%,0.784314%,0.784314%);fill-opacity:0.4;" d="M 48 30 C 45.785156 30 44 31.785156 44 34 C 44 34.167969 44.007812 34.335938 44.03125 34.5 C 44.273438 32.519531 45.953125 31 48 31 C 50.046875 31 51.726562 32.519531 51.972656 34.5 C 51.992188 34.335938 52 34.167969 52 34 C 52 31.785156 50.214844 30 48 30 Z M 48 30 "/>
<path style=" stroke:none;fill-rule:nonzero;fill:rgb(99.215686%,99.607843%,99.607843%);fill-opacity:0.4;" d="M 48 39 C 45.785156 39 44 37.214844 44 35 C 44 34.832031 44.007812 34.664062 44.027344 34.5 C 44.273438 36.480469 45.953125 38 48 38 C 50.046875 38 51.726562 36.480469 51.96875 34.5 C 51.992188 34.664062 52 34.832031 52 35 C 52 37.214844 50.214844 39 48 39 Z M 48 39 "/>
<path style=" stroke:none;fill-rule:nonzero;fill:url(#linear0);" d="M 8 8 L 56 8 C 58.210938 8 60 9.789062 60 12 L 60 52 C 60 54.210938 58.210938 56 56 56 L 8 56 C 5.789062 56 4 54.210938 4 52 L 4 12 C 4 9.789062 5.789062 8 8 8 Z M 8 8 "/>
</g>
</svg>
