
<svg xmlns="http://www.w3.org/2000/svg" xmlns:xlink="http://www.w3.org/1999/xlink" width="64" height="64" viewBox="0 0 64 64" version="1.1">
<defs>
<linearGradient id="linear0" gradientUnits="userSpaceOnUse" x1="8.466666" y1="-195.949997" x2="8.466666" y2="-212.883331" gradientTransform="matrix(3.779528,0,0,3.779528,-4,816.59846)">
<stop offset="0" style="stop-color:rgb(0%,0%,0%);stop-opacity:0.2;"/>
<stop offset="1" style="stop-color:rgb(100%,100%,100%);stop-opacity:0;"/>
</linearGradient>
<linearGradient id="linear1" gradientUnits="userSpaceOnUse" x1="8.466666" y1="-200.183334" x2="8.466666" y2="-207.59166" gradientTransform="matrix(3.779528,0,0,3.779528,0,812.598468)">
<stop offset="0" style="stop-color:rgb(0%,0%,0%);stop-opacity:0.2;"/>
<stop offset="1" style="stop-color:rgb(100%,100%,100%);stop-opacity:0;"/>
</linearGradient>
</defs>
<g id="surface1">
<path style=" stroke:none;fill-rule:nonzero;fill:rgb(61.960787%,61.960787%,61.960787%);fill-opacity:1;" d="M 32 6.515625 C 24.242188 6.515625 18 12.757812 18 20.515625 L 18 24.488281 C 18 24.496094 18 24.503906 18 24.515625 C 18 25.070312 18.445312 25.515625 19 25.515625 C 19.554688 25.515625 20 25.070312 20 24.515625 C 20 24.507812 20 24.5 20 24.488281 L 20 20.515625 C 20 13.867188 25.351562 8.515625 32 8.515625 C 38.648438 8.515625 44 13.867188 44 20.515625 L 44 24.515625 C 44 25.070312 44.445312 25.515625 45 25.515625 C 45.554688 25.515625 46 25.070312 46 24.515625 C 46 24.507812 46 24.5 46 24.488281 L 46 20.515625 C 46 12.757812 39.757812 6.515625 32 6.515625 Z M 32 6.515625 "/>
<path style=" stroke:none;fill-rule:nonzero;fill:rgb(0%,0%,0%);fill-opacity:0.4;" d="M 31.890625 8 C 25.242188 8 19.890625 13.351562 19.890625 20 L 19.890625 23.972656 C 19.890625 23.984375 19.890625 23.992188 19.890625 24 C 19.890625 24.554688 19.445312 25 18.890625 25 C 18.5 25 18.164062 24.777344 18 24.453125 L 18 24.488281 C 18 24.496094 18 24.503906 18 24.515625 C 18 25.070312 18.445312 25.515625 19 25.515625 C 19.554688 25.515625 20 25.070312 20 24.515625 C 20 24.507812 20 24.5 20 24.488281 L 20 20.511719 C 20 13.867188 25.351562 8.511719 32 8.511719 C 37.691406 8.511719 42.429688 12.433594 43.679688 17.734375 C 42.625 12.175781 37.765625 7.996094 31.890625 7.996094 Z M 45.632812 17.296875 C 45.800781 18.171875 45.890625 19.074219 45.890625 20 L 45.890625 23.972656 C 45.890625 23.984375 45.890625 23.992188 45.890625 24 C 45.890625 24.554688 45.445312 25 44.890625 25 C 44.5 25 44.164062 24.777344 44 24.453125 L 44 24.515625 C 44 25.070312 44.445312 25.515625 45 25.515625 C 45.554688 25.515625 46 25.070312 46 24.515625 C 46 24.507812 46 24.5 46 24.488281 L 46 20.511719 C 46 19.40625 45.871094 18.328125 45.628906 17.296875 Z M 45.632812 17.296875 "/>
<path style=" stroke:none;fill-rule:nonzero;fill:rgb(100%,100%,100%);fill-opacity:0.4;" d="M 32 6.515625 C 24.242188 6.515625 18 12.757812 18 20.515625 L 18 21.015625 C 18 13.257812 24.242188 7.015625 32 7.015625 C 39.757812 7.015625 46 13.257812 46 21.015625 L 46 20.515625 C 46 12.757812 39.757812 6.515625 32 6.515625 Z M 32 6.515625 "/>
<path style=" stroke:none;fill-rule:nonzero;fill:rgb(38.039216%,38.039216%,38.039216%);fill-opacity:1;" d="M 10 10 L 54 10 C 56.210938 10 58 11.789062 58 14 L 58 52 C 58 54.210938 56.210938 56 54 56 L 10 56 C 7.789062 56 6 54.210938 6 52 L 6 14 C 6 11.789062 7.789062 10 10 10 Z M 10 10 "/>
<path style=" stroke:none;fill-rule:nonzero;fill:rgb(100%,100%,100%);fill-opacity:0.4;" d="M 10 10 C 7.785156 10 6 11.785156 6 14 L 6 14.5 C 6 12.285156 7.785156 10.5 10 10.5 L 54 10.5 C 56.214844 10.5 58 12.285156 58 14.5 L 58 14 C 58 11.785156 56.214844 10 54 10 Z M 10 10 "/>
<path style=" stroke:none;fill-rule:nonzero;fill:rgb(61.176473%,80.000001%,39.607844%);fill-opacity:1;" d="M 8 12 L 56 12 C 58.210938 12 60 13.789062 60 16 L 60 56 C 60 58.210938 58.210938 60 56 60 L 8 60 C 5.789062 60 4 58.210938 4 56 L 4 16 C 4 13.789062 5.789062 12 8 12 Z M 8 12 "/>
<path style=" stroke:none;fill-rule:nonzero;fill:url(#linear0);" d="M 8 12 L 56 12 C 58.210938 12 60 13.789062 60 16 L 60 56 C 60 58.210938 58.210938 60 56 60 L 8 60 C 5.789062 60 4 58.210938 4 56 L 4 16 C 4 13.789062 5.789062 12 8 12 Z M 8 12 "/>
<path style=" stroke:none;fill-rule:nonzero;fill:rgb(100%,100%,100%);fill-opacity:0.4;" d="M 8 12 C 5.785156 12 4 13.785156 4 16 L 4 16.53125 C 4 14.316406 5.785156 12.53125 8 12.53125 L 56 12.53125 C 58.214844 12.53125 60 14.316406 60 16.53125 L 60 16 C 60 13.785156 58.214844 12 56 12 Z M 8 12 "/>
<path style=" stroke:none;fill-rule:nonzero;fill:rgb(0.392157%,0.392157%,0.392157%);fill-opacity:0.4;" d="M 8 59.992188 C 5.785156 59.992188 4 58.207031 4 55.992188 L 4 55.023438 C 4 57.238281 5.785156 59.023438 8 59.023438 L 56 59.023438 C 58.214844 59.023438 60 57.238281 60 55.023438 L 60 55.992188 C 60 58.207031 58.214844 59.992188 56 59.992188 Z M 8 59.992188 "/>
<path style=" stroke:none;fill-rule:nonzero;fill:rgb(0%,0%,0%);fill-opacity:0.2;" d="M 4 56 L 4 57.5 C 4 59.714844 5.785156 61.5 8 61.5 L 56 61.5 C 58.214844 61.5 60 59.714844 60 57.5 L 60 56 C 60 58.214844 58.214844 60 56 60 L 8 60 C 5.785156 60 4 58.214844 4 56 Z M 4 56 "/>
<path style=" stroke:none;fill-rule:nonzero;fill:rgb(0%,0%,0%);fill-opacity:0.4;" d="M 45 19.503906 C 46.378906 19.503906 47.5 20.621094 47.5 22.003906 C 47.5 23.382812 46.378906 24.503906 45 24.503906 C 43.621094 24.503906 42.5 23.382812 42.5 22.003906 C 42.5 20.621094 43.621094 19.503906 45 19.503906 Z M 45 19.503906 "/>
<path style=" stroke:none;fill-rule:nonzero;fill:rgb(0%,0%,0%);fill-opacity:0.4;" d="M 44.933594 19.503906 C 43.582031 19.535156 42.5 20.636719 42.5 22.003906 C 42.5 22.085938 42.503906 22.167969 42.511719 22.253906 C 42.636719 20.984375 43.699219 20.003906 45 20.003906 C 46.300781 20.003906 47.363281 20.984375 47.484375 22.253906 C 47.496094 22.167969 47.5 22.085938 47.5 22.003906 C 47.5 20.617188 46.386719 19.503906 45 19.503906 C 44.976562 19.503906 44.957031 19.5 44.9375 19.503906 Z M 44.933594 19.503906 "/>
<path style=" stroke:none;fill-rule:nonzero;fill:rgb(100%,100%,100%);fill-opacity:0.4;" d="M 44.9375 25.003906 C 43.582031 24.96875 42.5 23.867188 42.5 22.503906 C 42.5 22.417969 42.503906 22.335938 42.515625 22.253906 C 42.636719 23.519531 43.699219 24.503906 45 24.503906 C 46.300781 24.503906 47.363281 23.519531 47.488281 22.253906 C 47.496094 22.335938 47.5 22.417969 47.5 22.503906 C 47.5 23.886719 46.386719 25.003906 45 25.003906 C 44.976562 25.003906 44.957031 25.003906 44.9375 25.003906 Z M 44.9375 25.003906 "/>
<path style=" stroke:none;fill-rule:nonzero;fill:rgb(0%,0%,0%);fill-opacity:0.4;" d="M 19 19.503906 C 20.378906 19.503906 21.5 20.621094 21.5 22.003906 C 21.5 23.382812 20.378906 24.503906 19 24.503906 C 17.621094 24.503906 16.5 23.382812 16.5 22.003906 C 16.5 20.621094 17.621094 19.503906 19 19.503906 Z M 19 19.503906 "/>
<path style=" stroke:none;fill-rule:nonzero;fill:rgb(0%,0%,0%);fill-opacity:0.4;" d="M 18.9375 19.503906 C 17.582031 19.535156 16.5 20.636719 16.5 22.003906 C 16.5 22.085938 16.503906 22.167969 16.511719 22.253906 C 16.636719 20.984375 17.699219 20.003906 19 20.003906 C 20.300781 20.003906 21.363281 20.984375 21.484375 22.253906 C 21.496094 22.167969 21.5 22.085938 21.5 22.003906 C 21.5 20.617188 20.386719 19.503906 19 19.503906 C 18.976562 19.503906 18.957031 19.5 18.9375 19.503906 Z M 18.9375 19.503906 "/>
<path style=" stroke:none;fill-rule:nonzero;fill:rgb(100%,100%,100%);fill-opacity:0.4;" d="M 18.9375 25.003906 C 17.582031 24.96875 16.5 23.867188 16.5 22.503906 C 16.5 22.417969 16.503906 22.335938 16.515625 22.253906 C 16.636719 23.519531 17.699219 24.503906 19 24.503906 C 20.300781 24.503906 21.363281 23.519531 21.488281 22.253906 C 21.496094 22.335938 21.5 22.417969 21.5 22.503906 C 21.5 23.886719 20.386719 25.003906 19 25.003906 C 18.976562 25.003906 18.957031 25.003906 18.9375 25.003906 Z M 18.9375 25.003906 "/>
<path style=" stroke:none;fill-rule:nonzero;fill:rgb(87.843138%,87.843138%,87.843138%);fill-opacity:1;" d="M 32 4.003906 C 24.242188 4.003906 18 10.246094 18 18.003906 L 18 21.976562 C 18 21.984375 18 21.992188 18 22.003906 C 18 22.558594 18.445312 23.003906 19 23.003906 C 19.554688 23.003906 20 22.558594 20 22.003906 C 20 21.996094 20 21.988281 20 21.976562 L 20 18.003906 C 20 11.355469 25.351562 6.003906 32 6.003906 C 38.648438 6.003906 44 11.355469 44 18.003906 L 44 22.003906 C 44 22.558594 44.445312 23.003906 45 23.003906 C 45.554688 23.003906 46 22.558594 46 22.003906 C 46 21.996094 46 21.988281 46 21.976562 L 46 18.003906 C 46 10.246094 39.757812 4.003906 32 4.003906 Z M 32 4.003906 "/>
<path style=" stroke:none;fill-rule:nonzero;fill:rgb(100%,100%,100%);fill-opacity:0.4;" d="M 32 4.003906 C 24.242188 4.003906 18 10.246094 18 18.003906 L 18 18.503906 C 18 10.746094 24.242188 4.503906 32 4.503906 C 39.757812 4.503906 46 10.746094 46 18.503906 L 46 18.003906 C 46 10.246094 39.757812 4.003906 32 4.003906 Z M 32 4.003906 "/>
<path style=" stroke:none;fill-rule:nonzero;fill:rgb(0%,0%,0%);fill-opacity:0.4;" d="M 31.890625 5.503906 C 25.242188 5.503906 19.890625 10.855469 19.890625 17.503906 L 19.890625 21.476562 C 19.890625 21.488281 19.890625 21.496094 19.890625 21.503906 C 19.890625 22.058594 19.445312 22.503906 18.890625 22.503906 C 18.5 22.503906 18.164062 22.28125 18 21.957031 L 18 21.992188 C 18 21.996094 18 22.003906 18 22.015625 C 18 22.570312 18.445312 23.015625 19 23.015625 C 19.554688 23.015625 20 22.570312 20 22.015625 C 20 22.007812 20 22 20 21.992188 L 20 18.015625 C 20 11.367188 25.351562 6.015625 32 6.015625 C 37.691406 6.015625 42.429688 9.9375 43.679688 15.238281 C 42.625 9.679688 37.765625 5.5 31.890625 5.5 Z M 45.632812 14.800781 C 45.800781 15.675781 45.890625 16.578125 45.890625 17.503906 L 45.890625 21.476562 C 45.890625 21.488281 45.890625 21.496094 45.890625 21.503906 C 45.890625 22.058594 45.445312 22.503906 44.890625 22.503906 C 44.5 22.503906 44.164062 22.28125 44 21.957031 L 44 22.015625 C 44 22.570312 44.445312 23.015625 45 23.015625 C 45.554688 23.015625 46 22.570312 46 22.015625 C 46 22.007812 46 22 46 21.992188 L 46 18.015625 C 46 16.90625 45.871094 15.832031 45.628906 14.796875 Z M 45.632812 14.800781 "/>
<path style=" stroke:none;fill-rule:nonzero;fill:url(#linear1);" d="M 4 28 L 60 28 L 60 52 L 4 52 Z M 4 28 "/>
</g>
</svg>
