
<svg xmlns="http://www.w3.org/2000/svg" xmlns:xlink="http://www.w3.org/1999/xlink" width="48" height="48" viewBox="0 0 48 48" version="1.1">
<defs>
<linearGradient id="linear0" gradientUnits="userSpaceOnUse" x1="8.466666" y1="-195.949997" x2="8.466666" y2="-212.883331" gradientTransform="matrix(2.834646,0,0,2.834646,-3,612.448845)">
<stop offset="0" style="stop-color:rgb(0%,0%,0%);stop-opacity:0.2;"/>
<stop offset="1" style="stop-color:rgb(100%,100%,100%);stop-opacity:0;"/>
</linearGradient>
<linearGradient id="linear1" gradientUnits="userSpaceOnUse" x1="8.466666" y1="-200.183334" x2="8.466666" y2="-207.59166" gradientTransform="matrix(2.834646,0,0,2.834646,0,609.448851)">
<stop offset="0" style="stop-color:rgb(0%,0%,0%);stop-opacity:0.2;"/>
<stop offset="1" style="stop-color:rgb(100%,100%,100%);stop-opacity:0;"/>
</linearGradient>
</defs>
<g id="surface1">
<path style=" stroke:none;fill-rule:nonzero;fill:rgb(74.117649%,74.117649%,74.117649%);fill-opacity:1;" d="M 24 4.886719 C 18.183594 4.886719 13.5 9.570312 13.5 15.386719 L 13.5 18.367188 C 13.5 18.375 13.5 18.378906 13.5 18.386719 C 13.5 18.804688 13.835938 19.136719 14.25 19.136719 C 14.664062 19.136719 15 18.804688 15 18.386719 C 15 18.382812 15 18.375 15 18.367188 L 15 15.386719 C 15 10.402344 19.015625 6.386719 24 6.386719 C 28.984375 6.386719 33 10.402344 33 15.386719 L 33 18.386719 C 33 18.804688 33.335938 19.136719 33.75 19.136719 C 34.164062 19.136719 34.5 18.804688 34.5 18.386719 C 34.5 18.382812 34.5 18.375 34.5 18.367188 L 34.5 15.386719 C 34.5 9.570312 29.816406 4.886719 24 4.886719 Z M 24 4.886719 "/>
<path style=" stroke:none;fill-rule:nonzero;fill:rgb(0%,0%,0%);fill-opacity:0.4;" d="M 23.917969 6 C 18.933594 6 14.917969 10.015625 14.917969 15 L 14.917969 17.980469 C 14.917969 17.988281 14.917969 17.996094 14.917969 18 C 14.917969 18.417969 14.582031 18.75 14.167969 18.75 C 13.875 18.75 13.625 18.582031 13.5 18.339844 L 13.5 18.367188 C 13.5 18.371094 13.5 18.378906 13.5 18.386719 C 13.5 18.800781 13.835938 19.136719 14.25 19.136719 C 14.664062 19.136719 15 18.800781 15 18.386719 C 15 18.378906 15 18.375 15 18.367188 L 15 15.386719 C 15 10.398438 19.015625 6.386719 24 6.386719 C 28.269531 6.386719 31.824219 9.328125 32.757812 13.300781 C 31.96875 9.132812 28.324219 6 23.917969 6 Z M 34.222656 12.972656 C 34.351562 13.628906 34.417969 14.304688 34.417969 15 L 34.417969 17.980469 C 34.417969 17.988281 34.417969 17.996094 34.417969 18 C 34.417969 18.417969 34.082031 18.75 33.667969 18.75 C 33.375 18.75 33.125 18.582031 33 18.339844 L 33 18.386719 C 33 18.800781 33.335938 19.136719 33.75 19.136719 C 34.164062 19.136719 34.5 18.800781 34.5 18.386719 C 34.5 18.378906 34.5 18.375 34.5 18.367188 L 34.5 15.386719 C 34.5 14.554688 34.402344 13.746094 34.222656 12.972656 Z M 34.222656 12.972656 "/>
<path style=" stroke:none;fill-rule:nonzero;fill:rgb(100%,100%,100%);fill-opacity:0.4;" d="M 24 4.886719 C 18.183594 4.886719 13.5 9.570312 13.5 15.386719 L 13.5 15.761719 C 13.5 9.945312 18.183594 5.261719 24 5.261719 C 29.816406 5.261719 34.5 9.945312 34.5 15.761719 L 34.5 15.386719 C 34.5 9.570312 29.816406 4.886719 24 4.886719 Z M 24 4.886719 "/>
<path style=" stroke:none;fill-rule:nonzero;fill:rgb(11.764706%,53.333336%,89.803922%);fill-opacity:1;" d="M 7.5 7.5 L 40.5 7.5 C 42.15625 7.5 43.5 8.84375 43.5 10.5 L 43.5 39 C 43.5 40.65625 42.15625 42 40.5 42 L 7.5 42 C 5.84375 42 4.5 40.65625 4.5 39 L 4.5 10.5 C 4.5 8.84375 5.84375 7.5 7.5 7.5 Z M 7.5 7.5 "/>
<path style=" stroke:none;fill-rule:nonzero;fill:rgb(100%,100%,100%);fill-opacity:0.4;" d="M 7.5 7.5 C 5.839844 7.5 4.5 8.839844 4.5 10.5 L 4.5 10.875 C 4.5 9.214844 5.839844 7.875 7.5 7.875 L 40.5 7.875 C 42.160156 7.875 43.5 9.214844 43.5 10.875 L 43.5 10.5 C 43.5 8.839844 42.160156 7.5 40.5 7.5 Z M 7.5 7.5 "/>
<path style=" stroke:none;fill-rule:nonzero;fill:rgb(25.882354%,64.705884%,96.078432%);fill-opacity:1;" d="M 6 9 L 42 9 C 43.65625 9 45 10.34375 45 12 L 45 42 C 45 43.65625 43.65625 45 42 45 L 6 45 C 4.34375 45 3 43.65625 3 42 L 3 12 C 3 10.34375 4.34375 9 6 9 Z M 6 9 "/>
<path style=" stroke:none;fill-rule:nonzero;fill:url(#linear0);" d="M 6 9 L 42 9 C 43.65625 9 45 10.34375 45 12 L 45 42 C 45 43.65625 43.65625 45 42 45 L 6 45 C 4.34375 45 3 43.65625 3 42 L 3 12 C 3 10.34375 4.34375 9 6 9 Z M 6 9 "/>
<path style=" stroke:none;fill-rule:nonzero;fill:rgb(100%,100%,100%);fill-opacity:0.4;" d="M 6 9 C 4.339844 9 3 10.339844 3 12 L 3 12.398438 C 3 10.738281 4.339844 9.398438 6 9.398438 L 42 9.398438 C 43.660156 9.398438 45 10.738281 45 12.398438 L 45 12 C 45 10.339844 43.660156 9 42 9 Z M 6 9 "/>
<path style=" stroke:none;fill-rule:nonzero;fill:rgb(0.392157%,0.392157%,0.392157%);fill-opacity:0.4;" d="M 6 44.992188 C 4.339844 44.992188 3 43.65625 3 41.992188 L 3 41.265625 C 3 42.929688 4.339844 44.265625 6 44.265625 L 42 44.265625 C 43.660156 44.265625 45 42.929688 45 41.265625 L 45 41.992188 C 45 43.65625 43.660156 44.992188 42 44.992188 Z M 6 44.992188 "/>
<path style=" stroke:none;fill-rule:nonzero;fill:rgb(0%,0%,0%);fill-opacity:0.2;" d="M 3 42 L 3 43.125 C 3 44.785156 4.339844 46.125 6 46.125 L 42 46.125 C 43.660156 46.125 45 44.785156 45 43.125 L 45 42 C 45 43.660156 43.660156 45 42 45 L 6 45 C 4.339844 45 3 43.660156 3 42 Z M 3 42 "/>
<path style=" stroke:none;fill-rule:nonzero;fill:rgb(0%,0%,0%);fill-opacity:0.4;" d="M 33.75 14.625 C 34.785156 14.625 35.625 15.464844 35.625 16.5 C 35.625 17.535156 34.785156 18.375 33.75 18.375 C 32.714844 18.375 31.875 17.535156 31.875 16.5 C 31.875 15.464844 32.714844 14.625 33.75 14.625 Z M 33.75 14.625 "/>
<path style=" stroke:none;fill-rule:nonzero;fill:rgb(0%,0%,0%);fill-opacity:0.4;" d="M 33.703125 14.625 C 32.683594 14.652344 31.875 15.480469 31.875 16.5 C 31.875 16.566406 31.878906 16.628906 31.886719 16.6875 C 31.980469 15.738281 32.773438 15 33.75 15 C 34.726562 15 35.519531 15.738281 35.613281 16.6875 C 35.621094 16.628906 35.625 16.566406 35.625 16.5 C 35.625 15.460938 34.789062 14.625 33.75 14.625 C 33.734375 14.625 33.71875 14.625 33.703125 14.625 Z M 33.703125 14.625 "/>
<path style=" stroke:none;fill-rule:nonzero;fill:rgb(100%,100%,100%);fill-opacity:0.4;" d="M 33.703125 18.75 C 32.683594 18.726562 31.875 17.898438 31.875 16.875 C 31.875 16.8125 31.878906 16.75 31.886719 16.6875 C 31.980469 17.640625 32.773438 18.375 33.75 18.375 C 34.726562 18.375 35.519531 17.640625 35.613281 16.6875 C 35.621094 16.75 35.625 16.8125 35.625 16.875 C 35.625 17.914062 34.789062 18.75 33.75 18.75 C 33.734375 18.75 33.71875 18.75 33.703125 18.75 Z M 33.703125 18.75 "/>
<path style=" stroke:none;fill-rule:nonzero;fill:rgb(0%,0%,0%);fill-opacity:0.4;" d="M 14.25 14.625 C 15.285156 14.625 16.125 15.464844 16.125 16.5 C 16.125 17.535156 15.285156 18.375 14.25 18.375 C 13.214844 18.375 12.375 17.535156 12.375 16.5 C 12.375 15.464844 13.214844 14.625 14.25 14.625 Z M 14.25 14.625 "/>
<path style=" stroke:none;fill-rule:nonzero;fill:rgb(0%,0%,0%);fill-opacity:0.4;" d="M 14.203125 14.625 C 13.183594 14.652344 12.375 15.480469 12.375 16.5 C 12.375 16.566406 12.378906 16.628906 12.386719 16.6875 C 12.480469 15.738281 13.273438 15 14.25 15 C 15.226562 15 16.019531 15.738281 16.113281 16.6875 C 16.121094 16.628906 16.125 16.566406 16.125 16.5 C 16.125 15.460938 15.289062 14.625 14.25 14.625 C 14.234375 14.625 14.21875 14.625 14.203125 14.625 Z M 14.203125 14.625 "/>
<path style=" stroke:none;fill-rule:nonzero;fill:rgb(100%,100%,100%);fill-opacity:0.4;" d="M 14.203125 18.75 C 13.183594 18.726562 12.375 17.898438 12.375 16.875 C 12.375 16.8125 12.378906 16.75 12.386719 16.6875 C 12.480469 17.640625 13.273438 18.375 14.25 18.375 C 15.226562 18.375 16.019531 17.640625 16.113281 16.6875 C 16.121094 16.75 16.125 16.8125 16.125 16.875 C 16.125 17.914062 15.289062 18.75 14.25 18.75 C 14.234375 18.75 14.21875 18.75 14.203125 18.75 Z M 14.203125 18.75 "/>
<path style=" stroke:none;fill-rule:nonzero;fill:rgb(87.843138%,87.843138%,87.843138%);fill-opacity:1;" d="M 24 3 C 18.183594 3 13.5 7.683594 13.5 13.5 L 13.5 16.484375 C 13.5 16.488281 13.5 16.492188 13.5 16.503906 C 13.5 16.917969 13.835938 17.253906 14.25 17.253906 C 14.664062 17.253906 15 16.917969 15 16.503906 C 15 16.496094 15 16.492188 15 16.484375 L 15 13.5 C 15 8.515625 19.015625 4.5 24 4.5 C 28.984375 4.5 33 8.515625 33 13.5 L 33 16.503906 C 33 16.917969 33.335938 17.253906 33.75 17.253906 C 34.164062 17.253906 34.5 16.917969 34.5 16.503906 C 34.5 16.496094 34.5 16.492188 34.5 16.484375 L 34.5 13.5 C 34.5 7.683594 29.816406 3 24 3 Z M 24 3 "/>
<path style=" stroke:none;fill-rule:nonzero;fill:rgb(100%,100%,100%);fill-opacity:0.4;" d="M 24 3 C 18.183594 3 13.5 7.683594 13.5 13.5 L 13.5 13.875 C 13.5 8.058594 18.183594 3.375 24 3.375 C 29.816406 3.375 34.5 8.058594 34.5 13.875 L 34.5 13.5 C 34.5 7.683594 29.816406 3 24 3 Z M 24 3 "/>
<path style=" stroke:none;fill-rule:nonzero;fill:rgb(0%,0%,0%);fill-opacity:0.4;" d="M 23.917969 4.125 C 18.933594 4.125 14.917969 8.140625 14.917969 13.125 L 14.917969 16.109375 C 14.917969 16.117188 14.917969 16.121094 14.917969 16.128906 C 14.917969 16.542969 14.582031 16.878906 14.167969 16.878906 C 13.875 16.878906 13.625 16.710938 13.5 16.46875 L 13.5 16.492188 C 13.5 16.5 13.5 16.503906 13.5 16.511719 C 13.5 16.929688 13.835938 17.261719 14.25 17.261719 C 14.664062 17.261719 15 16.929688 15 16.511719 C 15 16.507812 15 16.5 15 16.492188 L 15 13.511719 C 15 8.527344 19.015625 4.511719 24 4.511719 C 28.269531 4.511719 31.824219 7.453125 32.757812 11.425781 C 31.96875 7.257812 28.324219 4.125 23.917969 4.125 Z M 34.222656 11.101562 C 34.351562 11.757812 34.417969 12.433594 34.417969 13.125 L 34.417969 16.109375 C 34.417969 16.117188 34.417969 16.121094 34.417969 16.128906 C 34.417969 16.542969 34.082031 16.878906 33.667969 16.878906 C 33.375 16.878906 33.125 16.710938 33 16.46875 L 33 16.511719 C 33 16.929688 33.335938 17.261719 33.75 17.261719 C 34.164062 17.261719 34.5 16.929688 34.5 16.511719 C 34.5 16.507812 34.5 16.5 34.5 16.492188 L 34.5 13.511719 C 34.5 12.679688 34.402344 11.875 34.222656 11.097656 Z M 34.222656 11.101562 "/>
<path style=" stroke:none;fill-rule:nonzero;fill:url(#linear1);" d="M 3 21 L 45 21 L 45 39 L 3 39 Z M 3 21 "/>
</g>
</svg>
