
<svg xmlns="http://www.w3.org/2000/svg" xmlns:xlink="http://www.w3.org/1999/xlink" width="32" height="32" viewBox="0 0 32 32" version="1.1">
<defs>
<linearGradient id="linear0" gradientUnits="userSpaceOnUse" x1="31.999998" y1="60" x2="31.999998" y2="4" gradientTransform="matrix(0.5,0,0,0.5,-0.00000315591,0)">
<stop offset="0" style="stop-color:rgb(0%,0%,0%);stop-opacity:0.2;"/>
<stop offset="1" style="stop-color:rgb(100%,100%,100%);stop-opacity:0;"/>
</linearGradient>
</defs>
<g id="surface1">
<path style=" stroke:none;fill-rule:nonzero;fill:rgb(61.176473%,80.000001%,39.607844%);fill-opacity:1;" d="M 20 2 L 6.5 2 C 5.667969 2 5 2.667969 5 3.5 L 5 28.5 C 5 29.332031 5.667969 30 6.5 30 L 25.5 30 C 26.332031 30 27 29.332031 27 28.5 L 27 9 Z M 20 2 "/>
<path style=" stroke:none;fill-rule:nonzero;fill:rgb(0%,0%,0%);fill-opacity:0.4;" d="M 20 7.5 L 20 8 C 20 8.832031 20.667969 9.5 21.5 9.5 L 27 9.5 L 26.5 9 L 21.5 9 C 20.667969 9 20 8.332031 20 7.5 Z M 20 7.5 "/>
<path style=" stroke:none;fill-rule:nonzero;fill:rgb(68.235296%,83.529413%,50.588238%);fill-opacity:0.996078;" d="M 27 9 L 20 2 L 20 7.5 C 20 8.332031 20.667969 9 21.5 9 Z M 27 9 "/>
<path style=" stroke:none;fill-rule:nonzero;fill:rgb(100%,100%,100%);fill-opacity:0.4;" d="M 6.5 2 C 5.667969 2 5 2.667969 5 3.5 L 5 4 C 5 3.167969 5.667969 2.5 6.5 2.5 L 20 2.5 L 27 9.5 L 27 9 L 20 2 Z M 6.5 2 "/>
<path style=" stroke:none;fill-rule:nonzero;fill:rgb(0%,0%,0%);fill-opacity:0.2;" d="M 5 28.492188 L 5 29.25 C 5 30.082031 5.667969 30.75 6.5 30.75 L 25.5 30.75 C 26.332031 30.75 27 30.082031 27 29.25 L 27 28.492188 C 27 29.324219 26.332031 29.992188 25.5 29.992188 L 6.5 29.992188 C 5.667969 29.992188 5 29.324219 5 28.492188 Z M 5 28.492188 "/>
<path style=" stroke:none;fill-rule:nonzero;fill:rgb(0%,0%,0%);fill-opacity:0.4;" d="M 5 28.0625 L 5 28.5 C 5 29.332031 5.667969 30 6.5 30 L 25.5 30 C 26.332031 30 27 29.332031 27 28.5 L 27 28.0625 C 27 28.894531 26.332031 29.5625 25.5 29.5625 L 6.5 29.5625 C 5.667969 29.5625 5 28.894531 5 28.0625 Z M 5 28.0625 "/>
<path style=" stroke:none;fill-rule:nonzero;fill:rgb(77.254903%,88.235295%,64.705884%);fill-opacity:1;" d="M 13 12 C 12.445312 12 12 12.445312 12 13 L 12 21 C 12 21.554688 12.445312 22 13 22 L 19 22 C 19.554688 22 20 21.554688 20 21 L 20 13 C 20 12.445312 19.554688 12 19 12 Z M 13.5 13 L 18.5 13 C 18.777344 13 19 13.222656 19 13.5 L 19 14.5 C 19 14.777344 18.777344 15 18.5 15 L 13.5 15 C 13.222656 15 13 14.777344 13 14.5 L 13 13.5 C 13 13.222656 13.222656 13 13.5 13 Z M 12.738281 16.25 C 12.742188 16.25 12.746094 16.25 12.75 16.25 L 13.5 16.25 C 13.636719 16.25 13.75 16.363281 13.75 16.5 L 13.75 16.75 C 13.75 16.886719 13.636719 17 13.5 17 L 12.75 17 C 12.613281 17 12.5 16.886719 12.5 16.75 L 12.5 16.5 C 12.5 16.367188 12.605469 16.257812 12.738281 16.25 Z M 14.488281 16.25 C 14.492188 16.25 14.496094 16.25 14.5 16.25 L 15.25 16.25 C 15.386719 16.25 15.5 16.363281 15.5 16.5 L 15.5 16.75 C 15.5 16.886719 15.386719 17 15.25 17 L 14.5 17 C 14.363281 17 14.25 16.886719 14.25 16.75 L 14.25 16.5 C 14.25 16.367188 14.355469 16.257812 14.488281 16.25 Z M 16.238281 16.25 C 16.242188 16.25 16.246094 16.25 16.25 16.25 L 17 16.25 C 17.136719 16.25 17.25 16.363281 17.25 16.5 L 17.25 16.75 C 17.25 16.886719 17.136719 17 17 17 L 16.25 17 C 16.113281 17 16 16.886719 16 16.75 L 16 16.5 C 16 16.367188 16.105469 16.257812 16.238281 16.25 Z M 18.488281 16.25 C 18.492188 16.25 18.496094 16.25 18.5 16.25 L 19.25 16.25 C 19.386719 16.25 19.5 16.363281 19.5 16.5 L 19.5 16.75 C 19.5 16.886719 19.386719 17 19.25 17 L 18.5 17 C 18.363281 17 18.25 16.886719 18.25 16.75 L 18.25 16.5 C 18.25 16.367188 18.355469 16.257812 18.488281 16.25 Z M 12.738281 17.5 C 12.742188 17.5 12.746094 17.5 12.75 17.5 L 13.5 17.5 C 13.636719 17.5 13.75 17.613281 13.75 17.75 L 13.75 18 C 13.75 18.136719 13.636719 18.25 13.5 18.25 L 12.75 18.25 C 12.613281 18.25 12.5 18.136719 12.5 18 L 12.5 17.75 C 12.5 17.617188 12.605469 17.507812 12.738281 17.5 Z M 14.488281 17.5 C 14.492188 17.5 14.496094 17.5 14.5 17.5 L 15.25 17.5 C 15.386719 17.5 15.5 17.613281 15.5 17.75 L 15.5 18 C 15.5 18.136719 15.386719 18.25 15.25 18.25 L 14.5 18.25 C 14.363281 18.25 14.25 18.136719 14.25 18 L 14.25 17.75 C 14.25 17.617188 14.355469 17.507812 14.488281 17.5 Z M 16.238281 17.5 C 16.242188 17.5 16.246094 17.5 16.25 17.5 L 17 17.5 C 17.136719 17.5 17.25 17.613281 17.25 17.75 L 17.25 18 C 17.25 18.136719 17.136719 18.25 17 18.25 L 16.25 18.25 C 16.113281 18.25 16 18.136719 16 18 L 16 17.75 C 16 17.617188 16.105469 17.507812 16.238281 17.5 Z M 18.488281 17.5 C 18.492188 17.5 18.496094 17.5 18.5 17.5 L 19.25 17.5 C 19.386719 17.5 19.5 17.613281 19.5 17.75 L 19.5 18 C 19.5 18.136719 19.386719 18.25 19.25 18.25 L 18.5 18.25 C 18.363281 18.25 18.25 18.136719 18.25 18 L 18.25 17.75 C 18.25 17.617188 18.355469 17.507812 18.488281 17.5 Z M 12.738281 18.75 C 12.742188 18.75 12.746094 18.75 12.75 18.75 L 13.5 18.75 C 13.636719 18.75 13.75 18.863281 13.75 19 L 13.75 19.25 C 13.75 19.386719 13.636719 19.5 13.5 19.5 L 12.75 19.5 C 12.613281 19.5 12.5 19.386719 12.5 19.25 L 12.5 19 C 12.5 18.867188 12.605469 18.757812 12.738281 18.75 Z M 14.488281 18.75 C 14.492188 18.75 14.496094 18.75 14.5 18.75 L 15.25 18.75 C 15.386719 18.75 15.5 18.863281 15.5 19 L 15.5 19.25 C 15.5 19.386719 15.386719 19.5 15.25 19.5 L 14.5 19.5 C 14.363281 19.5 14.25 19.386719 14.25 19.25 L 14.25 19 C 14.25 18.867188 14.355469 18.757812 14.488281 18.75 Z M 16.238281 18.75 C 16.242188 18.75 16.246094 18.75 16.25 18.75 L 17 18.75 C 17.136719 18.75 17.25 18.863281 17.25 19 L 17.25 19.25 C 17.25 19.386719 17.136719 19.5 17 19.5 L 16.25 19.5 C 16.113281 19.5 16 19.386719 16 19.25 L 16 19 C 16 18.867188 16.105469 18.757812 16.238281 18.75 Z M 18.488281 18.75 C 18.492188 18.75 18.496094 18.75 18.5 18.75 L 19.25 18.75 C 19.386719 18.75 19.5 18.863281 19.5 19 L 19.5 19.25 C 19.5 19.386719 19.386719 19.5 19.25 19.5 L 18.5 19.5 C 18.363281 19.5 18.25 19.386719 18.25 19.25 L 18.25 19 C 18.25 18.867188 18.355469 18.757812 18.488281 18.75 Z M 12.738281 20 C 12.742188 20 12.746094 20 12.75 20 L 13.5 20 C 13.636719 20 13.75 20.113281 13.75 20.25 L 13.75 20.5 C 13.75 20.636719 13.636719 20.75 13.5 20.75 L 12.75 20.75 C 12.613281 20.75 12.5 20.636719 12.5 20.5 L 12.5 20.25 C 12.5 20.117188 12.605469 20.007812 12.738281 20 Z M 14.488281 20 C 14.492188 20 14.496094 20 14.5 20 L 15.25 20 C 15.386719 20 15.5 20.113281 15.5 20.25 L 15.5 20.5 C 15.5 20.636719 15.386719 20.75 15.25 20.75 L 14.5 20.75 C 14.363281 20.75 14.25 20.636719 14.25 20.5 L 14.25 20.25 C 14.25 20.117188 14.355469 20.007812 14.488281 20 Z M 16.238281 20 C 16.242188 20 16.246094 20 16.25 20 L 17 20 C 17.136719 20 17.25 20.113281 17.25 20.25 L 17.25 20.5 C 17.25 20.636719 17.136719 20.75 17 20.75 L 16.25 20.75 C 16.113281 20.75 16 20.636719 16 20.5 L 16 20.25 C 16 20.117188 16.105469 20.007812 16.238281 20 Z M 18.488281 20 C 18.492188 20 18.496094 20 18.5 20 L 19.25 20 C 19.386719 20 19.5 20.113281 19.5 20.25 L 19.5 20.5 C 19.5 20.636719 19.386719 20.75 19.25 20.75 L 18.5 20.75 C 18.363281 20.75 18.25 20.636719 18.25 20.5 L 18.25 20.25 C 18.25 20.117188 18.355469 20.007812 18.488281 20 Z M 18.488281 20 "/>
<path style=" stroke:none;fill-rule:nonzero;fill:rgb(100%,100%,100%);fill-opacity:0.4;" d="M 13 12 C 12.445312 12 12 12.445312 12 13 L 12 13.25 C 12 12.695312 12.445312 12.25 13 12.25 L 19 12.25 C 19.554688 12.25 20 12.695312 20 13.25 L 20 13 C 20 12.445312 19.554688 12 19 12 Z M 13 14.5 L 13 14.75 C 13 15.027344 13.222656 15.25 13.5 15.25 L 18.5 15.25 C 18.777344 15.25 19 15.027344 19 14.75 L 19 14.5 C 19 14.777344 18.777344 15 18.5 15 L 13.5 15 C 13.222656 15 13 14.777344 13 14.5 Z M 12.5 16.75 L 12.5 17 C 12.5 17.136719 12.613281 17.25 12.75 17.25 L 13.5 17.25 C 13.636719 17.25 13.75 17.136719 13.75 17 L 13.75 16.75 C 13.75 16.886719 13.636719 17 13.5 17 L 12.75 17 C 12.613281 17 12.5 16.886719 12.5 16.75 Z M 14.25 16.75 L 14.25 17 C 14.25 17.136719 14.363281 17.25 14.5 17.25 L 15.25 17.25 C 15.386719 17.25 15.5 17.136719 15.5 17 L 15.5 16.75 C 15.5 16.886719 15.386719 17 15.25 17 L 14.5 17 C 14.363281 17 14.25 16.886719 14.25 16.75 Z M 16 16.75 L 16 17 C 16 17.136719 16.113281 17.25 16.25 17.25 L 17 17.25 C 17.136719 17.25 17.25 17.136719 17.25 17 L 17.25 16.75 C 17.25 16.886719 17.136719 17 17 17 L 16.25 17 C 16.113281 17 16 16.886719 16 16.75 Z M 18.25 16.75 L 18.25 17 C 18.25 17.136719 18.363281 17.25 18.5 17.25 L 19.25 17.25 C 19.386719 17.25 19.5 17.136719 19.5 17 L 19.5 16.75 C 19.5 16.886719 19.386719 17 19.25 17 L 18.5 17 C 18.363281 17 18.25 16.886719 18.25 16.75 Z M 12.5 18 L 12.5 18.25 C 12.5 18.386719 12.613281 18.5 12.75 18.5 L 13.5 18.5 C 13.636719 18.5 13.75 18.386719 13.75 18.25 L 13.75 18 C 13.75 18.136719 13.636719 18.25 13.5 18.25 L 12.75 18.25 C 12.613281 18.25 12.5 18.136719 12.5 18 Z M 14.25 18 L 14.25 18.25 C 14.25 18.386719 14.363281 18.5 14.5 18.5 L 15.25 18.5 C 15.386719 18.5 15.5 18.386719 15.5 18.25 L 15.5 18 C 15.5 18.136719 15.386719 18.25 15.25 18.25 L 14.5 18.25 C 14.363281 18.25 14.25 18.136719 14.25 18 Z M 16 18 L 16 18.25 C 16 18.386719 16.113281 18.5 16.25 18.5 L 17 18.5 C 17.136719 18.5 17.25 18.386719 17.25 18.25 L 17.25 18 C 17.25 18.136719 17.136719 18.25 17 18.25 L 16.25 18.25 C 16.113281 18.25 16 18.136719 16 18 Z M 18.25 18 L 18.25 18.25 C 18.25 18.386719 18.363281 18.5 18.5 18.5 L 19.25 18.5 C 19.386719 18.5 19.5 18.386719 19.5 18.25 L 19.5 18 C 19.5 18.136719 19.386719 18.25 19.25 18.25 L 18.5 18.25 C 18.363281 18.25 18.25 18.136719 18.25 18 Z M 12.5 19.25 L 12.5 19.5 C 12.5 19.636719 12.613281 19.75 12.75 19.75 L 13.5 19.75 C 13.636719 19.75 13.75 19.636719 13.75 19.5 L 13.75 19.25 C 13.75 19.386719 13.636719 19.5 13.5 19.5 L 12.75 19.5 C 12.613281 19.5 12.5 19.386719 12.5 19.25 Z M 14.25 19.25 L 14.25 19.5 C 14.25 19.636719 14.363281 19.75 14.5 19.75 L 15.25 19.75 C 15.386719 19.75 15.5 19.636719 15.5 19.5 L 15.5 19.25 C 15.5 19.386719 15.386719 19.5 15.25 19.5 L 14.5 19.5 C 14.363281 19.5 14.25 19.386719 14.25 19.25 Z M 16 19.25 L 16 19.5 C 16 19.636719 16.113281 19.75 16.25 19.75 L 17 19.75 C 17.136719 19.75 17.25 19.636719 17.25 19.5 L 17.25 19.25 C 17.25 19.386719 17.136719 19.5 17 19.5 L 16.25 19.5 C 16.113281 19.5 16 19.386719 16 19.25 Z M 18.25 19.25 L 18.25 19.5 C 18.25 19.636719 18.363281 19.75 18.5 19.75 L 19.25 19.75 C 19.386719 19.75 19.5 19.636719 19.5 19.5 L 19.5 19.25 C 19.5 19.386719 19.386719 19.5 19.25 19.5 L 18.5 19.5 C 18.363281 19.5 18.25 19.386719 18.25 19.25 Z M 12.5 20.5 L 12.5 20.75 C 12.5 20.886719 12.613281 21 12.75 21 L 13.5 21 C 13.636719 21 13.75 20.886719 13.75 20.75 L 13.75 20.5 C 13.75 20.636719 13.636719 20.75 13.5 20.75 L 12.75 20.75 C 12.613281 20.75 12.5 20.636719 12.5 20.5 Z M 14.25 20.5 L 14.25 20.75 C 14.25 20.886719 14.363281 21 14.5 21 L 15.25 21 C 15.386719 21 15.5 20.886719 15.5 20.75 L 15.5 20.5 C 15.5 20.636719 15.386719 20.75 15.25 20.75 L 14.5 20.75 C 14.363281 20.75 14.25 20.636719 14.25 20.5 Z M 16 20.5 L 16 20.75 C 16 20.886719 16.113281 21 16.25 21 L 17 21 C 17.136719 21 17.25 20.886719 17.25 20.75 L 17.25 20.5 C 17.25 20.636719 17.136719 20.75 17 20.75 L 16.25 20.75 C 16.113281 20.75 16 20.636719 16 20.5 Z M 18.25 20.5 L 18.25 20.75 C 18.25 20.886719 18.363281 21 18.5 21 L 19.25 21 C 19.386719 21 19.5 20.886719 19.5 20.75 L 19.5 20.5 C 19.5 20.636719 19.386719 20.75 19.25 20.75 L 18.5 20.75 C 18.363281 20.75 18.25 20.636719 18.25 20.5 Z M 18.25 20.5 "/>
<path style=" stroke:none;fill-rule:nonzero;fill:rgb(0.784314%,0.784314%,0.784314%);fill-opacity:0.4;" d="M 13.5 13 C 13.222656 13 13 13.222656 13 13.5 L 13 13.75 C 13 13.472656 13.222656 13.25 13.5 13.25 L 18.5 13.25 C 18.777344 13.25 19 13.472656 19 13.75 L 19 13.5 C 19 13.222656 18.777344 13 18.5 13 Z M 12.738281 16.25 C 12.605469 16.257812 12.5 16.367188 12.5 16.5 L 12.5 16.75 C 12.5 16.617188 12.605469 16.507812 12.738281 16.5 C 12.742188 16.5 12.746094 16.5 12.75 16.5 L 13.5 16.5 C 13.636719 16.5 13.75 16.613281 13.75 16.75 L 13.75 16.5 C 13.75 16.363281 13.636719 16.25 13.5 16.25 L 12.75 16.25 C 12.746094 16.25 12.742188 16.25 12.738281 16.25 Z M 14.488281 16.25 C 14.355469 16.257812 14.25 16.367188 14.25 16.5 L 14.25 16.75 C 14.25 16.617188 14.355469 16.507812 14.488281 16.5 C 14.492188 16.5 14.496094 16.5 14.5 16.5 L 15.25 16.5 C 15.386719 16.5 15.5 16.613281 15.5 16.75 L 15.5 16.5 C 15.5 16.363281 15.386719 16.25 15.25 16.25 L 14.5 16.25 C 14.496094 16.25 14.492188 16.25 14.488281 16.25 Z M 16.238281 16.25 C 16.105469 16.257812 16 16.367188 16 16.5 L 16 16.75 C 16 16.617188 16.105469 16.507812 16.238281 16.5 C 16.242188 16.5 16.246094 16.5 16.25 16.5 L 17 16.5 C 17.136719 16.5 17.25 16.613281 17.25 16.75 L 17.25 16.5 C 17.25 16.363281 17.136719 16.25 17 16.25 L 16.25 16.25 C 16.246094 16.25 16.242188 16.25 16.238281 16.25 Z M 18.488281 16.25 C 18.355469 16.257812 18.25 16.367188 18.25 16.5 L 18.25 16.75 C 18.25 16.617188 18.355469 16.507812 18.488281 16.5 C 18.492188 16.5 18.496094 16.5 18.5 16.5 L 19.25 16.5 C 19.386719 16.5 19.5 16.613281 19.5 16.75 L 19.5 16.5 C 19.5 16.363281 19.386719 16.25 19.25 16.25 L 18.5 16.25 C 18.496094 16.25 18.492188 16.25 18.488281 16.25 Z M 12.738281 17.5 C 12.605469 17.507812 12.5 17.617188 12.5 17.75 L 12.5 18 C 12.5 17.867188 12.605469 17.757812 12.738281 17.75 C 12.742188 17.75 12.746094 17.75 12.75 17.75 L 13.5 17.75 C 13.636719 17.75 13.75 17.863281 13.75 18 L 13.75 17.75 C 13.75 17.613281 13.636719 17.5 13.5 17.5 L 12.75 17.5 C 12.746094 17.5 12.742188 17.5 12.738281 17.5 Z M 14.488281 17.5 C 14.355469 17.507812 14.25 17.617188 14.25 17.75 L 14.25 18 C 14.25 17.867188 14.355469 17.757812 14.488281 17.75 C 14.492188 17.75 14.496094 17.75 14.5 17.75 L 15.25 17.75 C 15.386719 17.75 15.5 17.863281 15.5 18 L 15.5 17.75 C 15.5 17.613281 15.386719 17.5 15.25 17.5 L 14.5 17.5 C 14.496094 17.5 14.492188 17.5 14.488281 17.5 Z M 16.238281 17.5 C 16.105469 17.507812 16 17.617188 16 17.75 L 16 18 C 16 17.867188 16.105469 17.757812 16.238281 17.75 C 16.242188 17.75 16.246094 17.75 16.25 17.75 L 17 17.75 C 17.136719 17.75 17.25 17.863281 17.25 18 L 17.25 17.75 C 17.25 17.613281 17.136719 17.5 17 17.5 L 16.25 17.5 C 16.246094 17.5 16.242188 17.5 16.238281 17.5 Z M 18.488281 17.5 C 18.355469 17.507812 18.25 17.617188 18.25 17.75 L 18.25 18 C 18.25 17.867188 18.355469 17.757812 18.488281 17.75 C 18.492188 17.75 18.496094 17.75 18.5 17.75 L 19.25 17.75 C 19.386719 17.75 19.5 17.863281 19.5 18 L 19.5 17.75 C 19.5 17.613281 19.386719 17.5 19.25 17.5 L 18.5 17.5 C 18.496094 17.5 18.492188 17.5 18.488281 17.5 Z M 12.738281 18.75 C 12.605469 18.757812 12.5 18.867188 12.5 19 L 12.5 19.25 C 12.5 19.117188 12.605469 19.007812 12.738281 19 C 12.742188 19 12.746094 19 12.75 19 L 13.5 19 C 13.636719 19 13.75 19.113281 13.75 19.25 L 13.75 19 C 13.75 18.863281 13.636719 18.75 13.5 18.75 L 12.75 18.75 C 12.746094 18.75 12.742188 18.75 12.738281 18.75 Z M 14.488281 18.75 C 14.355469 18.757812 14.25 18.867188 14.25 19 L 14.25 19.25 C 14.25 19.117188 14.355469 19.007812 14.488281 19 C 14.492188 19 14.496094 19 14.5 19 L 15.25 19 C 15.386719 19 15.5 19.113281 15.5 19.25 L 15.5 19 C 15.5 18.863281 15.386719 18.75 15.25 18.75 L 14.5 18.75 C 14.496094 18.75 14.492188 18.75 14.488281 18.75 Z M 16.238281 18.75 C 16.105469 18.757812 16 18.867188 16 19 L 16 19.25 C 16 19.117188 16.105469 19.007812 16.238281 19 C 16.242188 19 16.246094 19 16.25 19 L 17 19 C 17.136719 19 17.25 19.113281 17.25 19.25 L 17.25 19 C 17.25 18.863281 17.136719 18.75 17 18.75 L 16.25 18.75 C 16.246094 18.75 16.242188 18.75 16.238281 18.75 Z M 18.488281 18.75 C 18.355469 18.757812 18.25 18.867188 18.25 19 L 18.25 19.25 C 18.25 19.117188 18.355469 19.007812 18.488281 19 C 18.492188 19 18.496094 19 18.5 19 L 19.25 19 C 19.386719 19 19.5 19.113281 19.5 19.25 L 19.5 19 C 19.5 18.863281 19.386719 18.75 19.25 18.75 L 18.5 18.75 C 18.496094 18.75 18.492188 18.75 18.488281 18.75 Z M 12.738281 20 C 12.605469 20.007812 12.5 20.117188 12.5 20.25 L 12.5 20.5 C 12.5 20.367188 12.605469 20.257812 12.738281 20.25 C 12.742188 20.25 12.746094 20.25 12.75 20.25 L 13.5 20.25 C 13.636719 20.25 13.75 20.363281 13.75 20.5 L 13.75 20.25 C 13.75 20.113281 13.636719 20 13.5 20 L 12.75 20 C 12.746094 20 12.742188 20 12.738281 20 Z M 14.488281 20 C 14.355469 20.007812 14.25 20.117188 14.25 20.25 L 14.25 20.5 C 14.25 20.367188 14.355469 20.257812 14.488281 20.25 C 14.492188 20.25 14.496094 20.25 14.5 20.25 L 15.25 20.25 C 15.386719 20.25 15.5 20.363281 15.5 20.5 L 15.5 20.25 C 15.5 20.113281 15.386719 20 15.25 20 L 14.5 20 C 14.496094 20 14.492188 20 14.488281 20 Z M 16.238281 20 C 16.105469 20.007812 16 20.117188 16 20.25 L 16 20.5 C 16 20.367188 16.105469 20.257812 16.238281 20.25 C 16.242188 20.25 16.246094 20.25 16.25 20.25 L 17 20.25 C 17.136719 20.25 17.25 20.363281 17.25 20.5 L 17.25 20.25 C 17.25 20.113281 17.136719 20 17 20 L 16.25 20 C 16.246094 20 16.242188 20 16.238281 20 Z M 18.488281 20 C 18.355469 20.007812 18.25 20.117188 18.25 20.25 L 18.25 20.5 C 18.25 20.367188 18.355469 20.257812 18.488281 20.25 C 18.492188 20.25 18.496094 20.25 18.5 20.25 L 19.25 20.25 C 19.386719 20.25 19.5 20.363281 19.5 20.5 L 19.5 20.25 C 19.5 20.113281 19.386719 20 19.25 20 L 18.5 20 C 18.496094 20 18.492188 20 18.488281 20 Z M 12 21 L 12 21.25 C 12 21.804688 12.445312 22.25 13 22.25 L 19 22.25 C 19.554688 22.25 20 21.804688 20 21.25 L 20 21 C 20 21.554688 19.554688 22 19 22 L 13 22 C 12.445312 22 12 21.554688 12 21 Z M 12 21 "/>
<path style=" stroke:none;fill-rule:nonzero;fill:url(#linear0);" d="M 20 2 L 6.5 2 C 5.667969 2 5 2.667969 5 3.5 L 5 28.5 C 5 29.332031 5.667969 30 6.5 30 L 25.5 30 C 26.332031 30 27 29.332031 27 28.5 L 27 9 Z M 20 2 "/>
</g>
</svg>
