
<svg xmlns="http://www.w3.org/2000/svg" xmlns:xlink="http://www.w3.org/1999/xlink" width="32" height="32" viewBox="0 0 32 32" version="1.1">
<defs>
<linearGradient id="linear0" gradientUnits="userSpaceOnUse" x1="8.466666" y1="-199.125" x2="8.466666" y2="-213.941666" gradientTransform="matrix(1.889764,0,0,1.889764,-0.0000063143,406.299225)">
<stop offset="0" style="stop-color:rgb(0%,0%,0%);stop-opacity:0.2;"/>
<stop offset="1" style="stop-color:rgb(100%,100%,100%);stop-opacity:0;"/>
</linearGradient>
</defs>
<g id="surface1">
<path style=" stroke:none;fill-rule:nonzero;fill:rgb(92.54902%,25.098041%,47.843137%);fill-opacity:1;" d="M 4 2 L 28 2 C 29.105469 2 30 2.894531 30 4 L 30 28 C 30 29.105469 29.105469 30 28 30 L 4 30 C 2.894531 30 2 29.105469 2 28 L 2 4 C 2 2.894531 2.894531 2 4 2 Z M 4 2 "/>
<path style=" stroke:none;fill-rule:nonzero;fill:rgb(45.882353%,45.882353%,45.882353%);fill-opacity:0.996078;" d="M 4 2 C 2.890625 2 2 2.890625 2 4 L 2 16 L 16 16 L 16 2 Z M 4 2 "/>
<path style=" stroke:none;fill-rule:nonzero;fill:rgb(38.039216%,38.039216%,38.039216%);fill-opacity:0.996078;" d="M 4 30 C 2.890625 30 2 29.109375 2 28 L 2 16 L 16 16 L 16 30 Z M 4 30 "/>
<path style=" stroke:none;fill-rule:nonzero;fill:rgb(0%,0%,0%);fill-opacity:0.4;" d="M 2 27.5 L 2 28 C 2 29.109375 2.890625 30 4 30 L 28 30 C 29.109375 30 30 29.109375 30 28 L 30 27.5 C 30 28.609375 29.109375 29.5 28 29.5 L 4 29.5 C 2.890625 29.5 2 28.609375 2 27.5 Z M 2 27.5 "/>
<path style=" stroke:none;fill-rule:nonzero;fill:rgb(0%,0%,0%);fill-opacity:0.2;" d="M 2 28 L 2 28.75 C 2 29.859375 2.890625 30.75 4 30.75 L 28 30.75 C 29.109375 30.75 30 29.859375 30 28.75 L 30 28 C 30 29.109375 29.109375 30 28 30 L 4 30 C 2.890625 30 2 29.109375 2 28 Z M 2 28 "/>
<path style=" stroke:none;fill-rule:nonzero;fill:rgb(100%,100%,100%);fill-opacity:0.4;" d="M 4 2 C 2.890625 2 2 2.890625 2 4 L 2 4.492188 C 2 3.382812 2.890625 2.492188 4 2.492188 L 28 2.492188 C 29.109375 2.492188 30 3.382812 30 4.492188 L 30 4 C 30 2.890625 29.109375 2 28 2 Z M 4 2 "/>
<path style=" stroke:none;fill-rule:nonzero;fill:rgb(100%,100%,100%);fill-opacity:0.4;" d="M 2 16 L 16 16 L 15.75 16.5 L 2 16.5 Z M 2 16 "/>
<path style=" stroke:none;fill-rule:nonzero;fill:rgb(0.392157%,0.392157%,0.392157%);fill-opacity:0.4;" d="M 2 15.5 L 15.75 15.5 L 16 16 L 2 16 Z M 2 15.5 "/>
<path style=" stroke:none;fill-rule:nonzero;fill:rgb(0%,0%,0%);fill-opacity:0.4;" d="M 15.75 2 L 15.75 15.5 L 16 16 L 16 2.5 Z M 16 16 L 15.75 16.5 L 15.75 30 L 16 29.5 Z M 16 16 "/>
<path style=" stroke:none;fill-rule:nonzero;fill:rgb(93.333334%,93.333334%,93.333334%);fill-opacity:1;" d="M 19.5 13 L 26.5 13 C 26.773438 13 27 13.226562 27 13.5 L 27 14.5 C 27 14.773438 26.773438 15 26.5 15 L 19.5 15 C 19.226562 15 19 14.773438 19 14.5 L 19 13.5 C 19 13.226562 19.226562 13 19.5 13 Z M 19.5 13 "/>
<path style=" stroke:none;fill-rule:nonzero;fill:rgb(93.333334%,93.333334%,93.333334%);fill-opacity:1;" d="M 19.5 17 L 26.5 17 C 26.773438 17 27 17.226562 27 17.5 L 27 18.5 C 27 18.773438 26.773438 19 26.5 19 L 19.5 19 C 19.226562 19 19 18.773438 19 18.5 L 19 17.5 C 19 17.226562 19.226562 17 19.5 17 Z M 19.5 17 "/>
<path style=" stroke:none;fill-rule:nonzero;fill:rgb(100%,100%,100%);fill-opacity:0.6;" d="M 19.5 13 C 19.222656 13 19 13.222656 19 13.5 L 19 14 C 19 13.722656 19.222656 13.5 19.5 13.5 L 26.5 13.5 C 26.777344 13.5 27 13.722656 27 14 L 27 13.5 C 27 13.222656 26.777344 13 26.5 13 Z M 19.5 17 C 19.222656 17 19 17.222656 19 17.5 L 19 18 C 19 17.722656 19.222656 17.5 19.5 17.5 L 26.5 17.5 C 26.777344 17.5 27 17.722656 27 18 L 27 17.5 C 27 17.222656 26.777344 17 26.5 17 Z M 19.5 17 "/>
<path style=" stroke:none;fill-rule:nonzero;fill:rgb(0%,0%,0%);fill-opacity:0.4;" d="M 19.5 19.5 C 19.222656 19.5 19 19.277344 19 19 L 19 18.5 C 19 18.777344 19.222656 19 19.5 19 L 26.5 19 C 26.777344 19 27 18.777344 27 18.5 L 27 19 C 27 19.277344 26.777344 19.5 26.5 19.5 Z M 19.5 15.5 C 19.222656 15.5 19 15.277344 19 15 L 19 14.5 C 19 14.777344 19.222656 15 19.5 15 L 26.5 15 C 26.777344 15 27 14.777344 27 14.5 L 27 15 C 27 15.277344 26.777344 15.5 26.5 15.5 Z M 19.5 15.5 "/>
<path style=" stroke:none;fill-rule:nonzero;fill:rgb(87.843138%,87.843138%,87.843138%);fill-opacity:1;" d="M 8.304688 4.984375 L 5.996094 5.390625 L 5.996094 5.710938 C 6.089844 5.695312 6.171875 5.691406 6.242188 5.691406 C 6.324219 5.691406 6.394531 5.691406 6.453125 5.691406 C 6.875 5.691406 7.195312 5.765625 7.40625 5.921875 C 7.617188 6.070312 7.785156 6.335938 7.914062 6.710938 C 7.960938 6.820312 8.15625 7.558594 8.496094 8.929688 C 8.425781 9.09375 8.3125 9.3125 8.164062 9.582031 C 8.007812 9.84375 7.8125 10.152344 7.578125 10.515625 C 7.125 11.234375 6.753906 11.703125 6.46875 11.921875 C 6.351562 12.015625 6.265625 12.0625 6.207031 12.0625 C 6.136719 12.0625 6.019531 12 5.855469 11.871094 C 5.667969 11.683594 5.472656 11.589844 5.273438 11.589844 C 5.097656 11.589844 4.953125 11.65625 4.835938 11.78125 C 4.703125 11.914062 4.640625 12.070312 4.640625 12.257812 C 4.640625 12.484375 4.710938 12.652344 4.851562 12.769531 C 5.039062 12.921875 5.238281 13 5.449219 13 C 5.78125 13 6.117188 12.859375 6.46875 12.578125 C 6.742188 12.351562 7.058594 11.988281 7.421875 11.484375 C 7.785156 10.976562 8.191406 10.339844 8.636719 9.5625 C 9 11.265625 9.25 12.234375 9.375 12.46875 C 9.5625 12.820312 9.820312 13 10.148438 13 C 10.363281 13 10.632812 12.875 10.960938 12.628906 C 11.523438 12.195312 11.984375 11.632812 12.335938 10.9375 L 12.035156 10.78125 C 11.8125 11.214844 11.542969 11.5625 11.226562 11.820312 C 11.0625 11.960938 10.921875 12.03125 10.804688 12.03125 C 10.765625 12.03125 10.734375 12.023438 10.695312 12.015625 C 10.664062 11.992188 10.621094 11.949219 10.574219 11.890625 C 10.527344 11.828125 10.480469 11.734375 10.433594 11.609375 C 10.386719 11.476562 10.339844 11.304688 10.292969 11.078125 L 9.585938 8.101562 C 10.070312 7.25 10.5 6.664062 10.875 6.359375 C 11.070312 6.195312 11.234375 6.117188 11.367188 6.117188 C 11.449219 6.117188 11.632812 6.164062 11.914062 6.257812 C 12.039062 6.304688 12.171875 6.328125 12.296875 6.328125 C 12.5 6.328125 12.679688 6.257812 12.84375 6.117188 C 12.9375 6.019531 12.984375 5.875 12.984375 5.671875 C 12.984375 5.484375 12.910156 5.328125 12.757812 5.199219 C 12.617188 5.058594 12.421875 4.988281 12.175781 4.988281 C 12.011719 4.988281 11.859375 5.015625 11.71875 5.078125 C 11.496094 5.171875 11.234375 5.339844 10.945312 5.585938 C 10.648438 5.832031 10.40625 6.097656 10.203125 6.378906 L 9.445312 7.523438 C 9.226562 6.640625 9.054688 6.097656 8.9375 5.882812 C 8.796875 5.59375 8.585938 5.292969 8.304688 4.988281 Z M 8.304688 4.984375 "/>
<path style=" stroke:none;fill-rule:nonzero;fill:rgb(0%,0%,0%);fill-opacity:0.4;" d="M 6.882812 5.726562 L 5.996094 5.878906 L 5.996094 6.195312 C 6.089844 6.1875 6.171875 6.179688 6.242188 6.179688 L 6.453125 6.179688 C 6.875 6.179688 7.195312 6.257812 7.40625 6.40625 C 7.617188 6.5625 7.785156 6.824219 7.914062 7.203125 C 7.957031 7.296875 8.128906 7.949219 8.414062 9.101562 C 8.445312 9.039062 8.476562 8.984375 8.496094 8.929688 C 8.15625 7.554688 7.960938 6.820312 7.914062 6.710938 C 7.785156 6.335938 7.617188 6.070312 7.40625 5.921875 C 7.273438 5.824219 7.101562 5.757812 6.882812 5.726562 C 6.882812 5.722656 6.882812 5.726562 6.882812 5.726562 Z M 12.945312 5.945312 C 12.921875 6.015625 12.890625 6.070312 12.84375 6.117188 C 12.679688 6.257812 12.5 6.328125 12.296875 6.328125 C 12.171875 6.328125 12.039062 6.304688 11.914062 6.257812 C 11.632812 6.160156 11.449219 6.117188 11.367188 6.117188 C 11.234375 6.117188 11.070312 6.195312 10.875 6.359375 C 10.5 6.664062 10.070312 7.25 9.585938 8.101562 L 9.671875 8.449219 C 10.117188 7.671875 10.519531 7.136719 10.875 6.851562 C 11.070312 6.683594 11.234375 6.601562 11.367188 6.601562 C 11.449219 6.601562 11.632812 6.648438 11.914062 6.742188 C 12.039062 6.789062 12.171875 6.8125 12.296875 6.8125 C 12.5 6.8125 12.679688 6.742188 12.84375 6.601562 C 12.9375 6.507812 12.984375 6.359375 12.984375 6.164062 C 12.984375 6.085938 12.972656 6.011719 12.945312 5.945312 Z M 8.636719 9.5625 C 8.191406 10.339844 7.785156 10.980469 7.421875 11.484375 C 7.058594 11.988281 6.742188 12.351562 6.46875 12.578125 C 6.117188 12.859375 5.78125 13 5.453125 13 C 5.238281 13 5.039062 12.921875 4.851562 12.769531 C 4.769531 12.703125 4.710938 12.617188 4.679688 12.515625 C 4.652344 12.585938 4.640625 12.664062 4.640625 12.75 C 4.640625 12.96875 4.710938 13.140625 4.851562 13.257812 C 5.039062 13.410156 5.238281 13.484375 5.453125 13.484375 C 5.78125 13.484375 6.117188 13.34375 6.46875 13.0625 C 6.742188 12.84375 7.058594 12.476562 7.421875 11.972656 C 7.785156 11.46875 8.191406 10.828125 8.636719 10.054688 C 9 11.753906 9.25 12.722656 9.375 12.960938 C 9.5625 13.3125 9.820312 13.484375 10.148438 13.484375 C 10.363281 13.484375 10.632812 13.363281 10.960938 13.117188 C 11.523438 12.683594 11.984375 12.117188 12.335938 11.429688 L 12.125 11.3125 C 11.804688 11.835938 11.417969 12.273438 10.960938 12.628906 C 10.632812 12.875 10.363281 13 10.148438 13 C 9.820312 13 9.5625 12.820312 9.375 12.46875 C 9.25 12.234375 9 11.265625 8.636719 9.5625 Z M 8.636719 9.5625 "/>
<path style=" stroke:none;fill-rule:nonzero;fill:rgb(100%,100%,100%);fill-opacity:0.6;" d="M 8.304688 4.984375 L 5.996094 5.390625 L 5.996094 5.707031 C 6.089844 5.695312 6.171875 5.6875 6.242188 5.6875 L 6.453125 5.6875 C 6.640625 5.6875 6.8125 5.707031 6.957031 5.734375 L 8.304688 5.5 C 8.585938 5.804688 8.796875 6.105469 8.9375 6.398438 C 9.054688 6.609375 9.226562 7.15625 9.445312 8.039062 L 10.203125 6.890625 C 10.40625 6.609375 10.648438 6.347656 10.945312 6.101562 C 11.234375 5.851562 11.496094 5.683594 11.71875 5.589844 C 11.859375 5.53125 12.011719 5.5 12.175781 5.5 C 12.421875 5.5 12.617188 5.570312 12.757812 5.710938 C 12.84375 5.785156 12.90625 5.867188 12.941406 5.960938 C 12.96875 5.882812 12.984375 5.785156 12.984375 5.671875 C 12.984375 5.484375 12.910156 5.328125 12.757812 5.195312 C 12.617188 5.054688 12.421875 4.984375 12.175781 4.984375 C 12.011719 4.984375 11.859375 5.015625 11.71875 5.074219 C 11.496094 5.167969 11.234375 5.335938 10.945312 5.585938 C 10.648438 5.832031 10.40625 6.09375 10.203125 6.375 L 9.445312 7.523438 C 9.226562 6.640625 9.054688 6.09375 8.9375 5.882812 C 8.796875 5.59375 8.585938 5.289062 8.304688 4.984375 Z M 9.671875 8.46875 C 9.648438 8.515625 9.617188 8.566406 9.585938 8.617188 L 10.289062 11.59375 C 10.339844 11.816406 10.382812 11.992188 10.429688 12.121094 C 10.480469 12.25 10.527344 12.34375 10.574219 12.40625 C 10.621094 12.460938 10.664062 12.503906 10.695312 12.527344 C 10.734375 12.539062 10.765625 12.546875 10.804688 12.546875 C 10.921875 12.546875 11.0625 12.476562 11.226562 12.335938 C 11.542969 12.078125 11.8125 11.726562 12.035156 11.296875 L 12.109375 11.335938 C 12.1875 11.207031 12.265625 11.078125 12.335938 10.9375 L 12.035156 10.78125 C 11.8125 11.210938 11.542969 11.5625 11.226562 11.820312 C 11.0625 11.960938 10.921875 12.03125 10.804688 12.03125 C 10.765625 12.03125 10.734375 12.023438 10.695312 12.011719 C 10.664062 11.988281 10.621094 11.945312 10.574219 11.890625 C 10.527344 11.828125 10.480469 11.734375 10.429688 11.605469 C 10.382812 11.476562 10.339844 11.304688 10.289062 11.078125 Z M 8.414062 9.109375 C 8.34375 9.242188 8.265625 9.398438 8.160156 9.582031 C 8.007812 9.839844 7.8125 10.152344 7.578125 10.515625 C 7.125 11.234375 6.753906 11.703125 6.46875 11.921875 C 6.351562 12.015625 6.265625 12.0625 6.207031 12.0625 C 6.136719 12.0625 6.019531 12 5.851562 11.871094 C 5.664062 11.683594 5.472656 11.585938 5.273438 11.585938 C 5.097656 11.585938 4.953125 11.65625 4.835938 11.78125 C 4.703125 11.914062 4.640625 12.070312 4.640625 12.257812 C 4.640625 12.359375 4.65625 12.449219 4.683594 12.527344 C 4.714844 12.445312 4.765625 12.367188 4.835938 12.296875 C 4.953125 12.167969 5.097656 12.101562 5.273438 12.101562 C 5.472656 12.101562 5.664062 12.199219 5.851562 12.386719 C 6.019531 12.515625 6.136719 12.578125 6.207031 12.578125 C 6.265625 12.578125 6.351562 12.53125 6.46875 12.4375 C 6.753906 12.21875 7.125 11.746094 7.578125 11.03125 C 7.8125 10.664062 8.007812 10.355469 8.160156 10.097656 C 8.3125 9.828125 8.425781 9.609375 8.496094 9.445312 C 8.464844 9.320312 8.441406 9.226562 8.414062 9.109375 Z M 8.414062 9.109375 "/>
<path style=" stroke:none;fill-rule:nonzero;fill:rgb(87.843138%,87.843138%,87.843138%);fill-opacity:1;" d="M 9 19 C 6.78125 19 5 20.296875 5 22.515625 C 5 23.632812 6 25.75 7.75 25.71875 L 7.75 26 L 6 26 L 6 25.75 C 6 25.609375 5.890625 25.5 5.75 25.5 L 5.25 25.5 C 5.109375 25.5 5 25.609375 5 25.75 L 5 26.75 C 5 26.890625 5.109375 27 5.25 27 L 8.5 27 L 8.5 25.25 C 6 24 6.25 20 8.984375 20 L 9.015625 20 C 11.75 20 12 24 9.5 25.25 L 9.5 27 L 12.75 27 C 12.890625 27 13 26.890625 13 26.75 L 13 25.75 C 13 25.609375 12.890625 25.5 12.75 25.5 L 12.25 25.5 C 12.109375 25.5 12 25.609375 12 25.75 L 12 26 L 10.25 26 L 10.25 25.71875 C 12 25.75 13 23.632812 13 22.515625 C 13 20.296875 11.21875 19 9 19 Z M 9 19 "/>
<path style=" stroke:none;fill-rule:nonzero;fill:rgb(100%,100%,100%);fill-opacity:0.6;" d="M 9 19 C 6.78125 19 5 20.296875 5 22.515625 C 5 22.578125 5.003906 22.648438 5.007812 22.71875 C 5.164062 20.683594 6.882812 19.5 9 19.5 C 11.117188 19.5 12.835938 20.683594 12.992188 22.71875 C 12.996094 22.648438 13 22.578125 13 22.515625 C 13 20.296875 11.21875 19 9 19 Z M 6.78125 22.648438 C 6.683594 23.804688 7.246094 25.125 8.5 25.75 L 8.5 25.25 C 7.421875 24.710938 6.859375 23.664062 6.78125 22.648438 Z M 11.21875 22.648438 C 11.140625 23.664062 10.578125 24.710938 9.5 25.25 L 9.5 25.75 C 10.753906 25.125 11.316406 23.804688 11.21875 22.648438 Z M 5.25 25.5 C 5.109375 25.5 5 25.609375 5 25.75 L 5 26.25 C 5 26.109375 5.109375 26 5.25 26 L 5.75 26 C 5.890625 26 6 26.109375 6 26.25 L 6 26.5 L 7.75 26.5 L 7.75 26.21875 C 7.398438 26.226562 7.070312 26.144531 6.78125 26 L 6 26 L 6 25.75 C 6 25.609375 5.890625 25.5 5.75 25.5 Z M 12.25 25.5 C 12.109375 25.5 12 25.609375 12 25.75 L 12 26 L 11.21875 26 C 10.929688 26.144531 10.601562 26.226562 10.25 26.21875 L 10.25 26.5 L 12 26.5 L 12 26.25 C 12 26.109375 12.109375 26 12.25 26 L 12.75 26 C 12.890625 26 13 26.109375 13 26.25 L 13 25.75 C 13 25.609375 12.890625 25.5 12.75 25.5 Z M 12.25 25.5 "/>
<path style=" stroke:none;fill-rule:nonzero;fill:rgb(0%,0%,0%);fill-opacity:0.4;" d="M 8.984375 20 C 7.421875 20 6.671875 21.300781 6.78125 22.648438 C 6.875 21.5 7.617188 20.5 8.984375 20.5 L 9.015625 20.5 C 10.382812 20.5 11.125 21.5 11.21875 22.648438 C 11.328125 21.300781 10.578125 20 9.015625 20 Z M 5.007812 22.722656 C 5.003906 22.820312 5 22.914062 5 23.015625 C 5 23.90625 5.632812 25.429688 6.78125 26 L 7.75 26 L 7.75 25.71875 C 6.101562 25.75 5.121094 23.875 5.007812 22.722656 Z M 12.992188 22.722656 C 12.878906 23.875 11.898438 25.75 10.25 25.71875 L 10.25 26 L 11.21875 26 C 12.367188 25.429688 13 23.90625 13 23.015625 C 13 22.914062 12.996094 22.820312 12.992188 22.722656 Z M 5 26.75 L 5 27.25 C 5 27.390625 5.109375 27.5 5.25 27.5 L 8.5 27.5 L 8.5 27 L 5.25 27 C 5.109375 27 5 26.890625 5 26.75 Z M 13 26.75 C 13 26.890625 12.890625 27 12.75 27 L 9.5 27 L 9.5 27.5 L 12.75 27.5 C 12.890625 27.5 13 27.390625 13 27.25 Z M 13 26.75 "/>
<path style=" stroke:none;fill-rule:nonzero;fill:url(#linear0);" d="M 4 2 L 28 2 C 29.105469 2 30 2.894531 30 4 L 30 28 C 30 29.105469 29.105469 30 28 30 L 4 30 C 2.894531 30 2 29.105469 2 28 L 2 4 C 2 2.894531 2.894531 2 4 2 Z M 4 2 "/>
</g>
</svg>
