
<svg xmlns="http://www.w3.org/2000/svg" xmlns:xlink="http://www.w3.org/1999/xlink" width="32" height="32" viewBox="0 0 32 32" version="1.1">
<defs>
<linearGradient id="linear0" gradientUnits="userSpaceOnUse" x1="34" y1="59.999996" x2="34" y2="3.999999" gradientTransform="matrix(0.5,0,0,0.5,0,0)">
<stop offset="0" style="stop-color:rgb(0%,0%,0%);stop-opacity:0.2;"/>
<stop offset="1" style="stop-color:rgb(100%,100%,100%);stop-opacity:0;"/>
</linearGradient>
</defs>
<g id="surface1">
<path style=" stroke:none;fill-rule:nonzero;fill:rgb(0%,0%,0%);fill-opacity:0.2;" d="M 2 25 L 2 25.75 C 2 26.859375 2.890625 27.75 4 27.75 L 4 27 C 2.890625 27 2 26.109375 2 25 Z M 30 25 C 30 26.109375 29.109375 27 28 27 L 28 27.75 C 29.109375 27.75 30 26.859375 30 25.75 Z M 4 28 L 4 28.75 C 4 29.304688 4.445312 29.75 5 29.75 L 27 29.75 C 27.554688 29.75 28 29.304688 28 28.75 L 28 28 C 28 28.554688 27.554688 29 27 29 L 5 29 C 4.445312 29 4 28.554688 4 28 Z M 4 28 "/>
<path style=" stroke:none;fill-rule:nonzero;fill:rgb(61.960787%,61.960787%,61.960787%);fill-opacity:0.996078;" d="M 6.5 11 L 25.5 11 C 26.050781 11 26.5 11.449219 26.5 12 L 26.5 17 C 26.5 17.550781 26.050781 18 25.5 18 L 6.5 18 C 5.949219 18 5.5 17.550781 5.5 17 L 5.5 12 C 5.5 11.449219 5.949219 11 6.5 11 Z M 6.5 11 "/>
<path style=" stroke:none;fill-rule:nonzero;fill:rgb(93.333334%,93.333334%,93.333334%);fill-opacity:0.996078;" d="M 7 2 L 25 2 C 25.550781 2 26 2.449219 26 3 L 26 24 C 26 24.550781 25.550781 25 25 25 L 7 25 C 6.449219 25 6 24.550781 6 24 L 6 3 C 6 2.449219 6.449219 2 7 2 Z M 7 2 "/>
<path style=" stroke:none;fill-rule:nonzero;fill:rgb(38.039216%,38.039216%,38.039216%);fill-opacity:0.996078;" d="M 25.5 15 L 26.5 15 C 26.777344 15 27 15.222656 27 15.5 L 27 18.25 C 27 18.527344 26.777344 18.75 26.5 18.75 L 25.5 18.75 C 25.222656 18.75 25 18.527344 25 18.25 L 25 15.5 C 25 15.222656 25.222656 15 25.5 15 Z M 25.5 15 "/>
<path style=" stroke:none;fill-rule:nonzero;fill:rgb(38.039216%,38.039216%,38.039216%);fill-opacity:0.996078;" d="M 5.5 15 L 6.5 15 C 6.777344 15 7 15.222656 7 15.5 L 7 18.25 C 7 18.527344 6.777344 18.75 6.5 18.75 L 5.5 18.75 C 5.222656 18.75 5 18.527344 5 18.25 L 5 15.5 C 5 15.222656 5.222656 15 5.5 15 Z M 5.5 15 "/>
<path style=" stroke:none;fill-rule:nonzero;fill:rgb(61.960787%,61.960787%,61.960787%);fill-opacity:0.996078;" d="M 4 18 L 28 18 C 29.105469 18 30 18.894531 30 20 L 30 25 C 30 26.105469 29.105469 27 28 27 L 4 27 C 2.894531 27 2 26.105469 2 25 L 2 20 C 2 18.894531 2.894531 18 4 18 Z M 4 18 "/>
<path style=" stroke:none;fill-rule:nonzero;fill:rgb(38.039216%,38.039216%,38.039216%);fill-opacity:0.992157;" d="M 2 20.25 L 30 20.25 L 30 20.5 L 2 20.5 Z M 2 20.25 "/>
<path style=" stroke:none;fill-rule:nonzero;fill:rgb(100%,100%,100%);fill-opacity:0.4;" d="M 2 20.5 L 30 20.5 L 30 20.75 L 2 20.75 Z M 2 20.5 "/>
<path style=" stroke:none;fill-rule:nonzero;fill:rgb(61.960787%,61.960787%,61.960787%);fill-opacity:0.996078;" d="M 5 22 L 27 22 C 27.550781 22 28 22.449219 28 23 L 28 28 C 28 28.550781 27.550781 29 27 29 L 5 29 C 4.449219 29 4 28.550781 4 28 L 4 23 C 4 22.449219 4.449219 22 5 22 Z M 5 22 "/>
<path style=" stroke:none;fill-rule:nonzero;fill:rgb(0%,0%,0%);fill-opacity:0.4;" d="M 4 27.5 L 4 28 C 4 28.554688 4.445312 29 5 29 L 27 29 C 27.554688 29 28 28.554688 28 28 L 28 27.5 C 28 28.054688 27.554688 28.5 27 28.5 L 5 28.5 C 4.445312 28.5 4 28.054688 4 27.5 Z M 4 27.5 "/>
<path style=" stroke:none;fill-rule:nonzero;fill:rgb(1.960784%,1.960784%,1.960784%);fill-opacity:0.4;" d="M 2 24.5 L 2 25 C 2 26.109375 2.890625 27 4 27 L 5 27 L 5 26.5 L 4 26.5 C 2.890625 26.5 2 25.609375 2 24.5 Z M 30 24.5 C 30 25.609375 29.109375 26.5 28 26.5 L 27 26.5 L 27 27 L 28 27 C 29.109375 27 30 26.109375 30 25 Z M 30 24.5 "/>
<path style=" stroke:none;fill-rule:nonzero;fill:rgb(38.039216%,38.039216%,38.039216%);fill-opacity:1;" d="M 7 24 C 5.890625 24 5 24.890625 5 26 L 5 29 L 27 29 L 27 26 C 27 24.890625 26.109375 24 25 24 Z M 7 24 "/>
<path style=" stroke:none;fill-rule:nonzero;fill:rgb(93.333334%,93.333334%,93.333334%);fill-opacity:0.996078;" d="M 7 25 L 25 25 C 25.550781 25 26 25.449219 26 26 L 26 29 C 26 29.550781 25.550781 30 25 30 L 7 30 C 6.449219 30 6 29.550781 6 29 L 6 26 C 6 25.449219 6.449219 25 7 25 Z M 7 25 "/>
<path style=" stroke:none;fill-rule:nonzero;fill:rgb(0%,0%,0%);fill-opacity:0.2;" d="M 2 20 L 30 20 L 30 20.25 L 2 20.25 Z M 2 20 "/>
<path style=" stroke:none;fill-rule:nonzero;fill:rgb(100%,100%,100%);fill-opacity:0.6;" d="M 7 2 C 6.445312 2 6 2.445312 6 3 L 6 3.25 C 6 2.695312 6.445312 2.25 7 2.25 L 25 2.25 C 25.554688 2.25 26 2.695312 26 3.25 L 26 3 C 26 2.445312 25.554688 2 25 2 Z M 7 2 "/>
<path style=" stroke:none;fill-rule:nonzero;fill:rgb(100%,100%,100%);fill-opacity:0.6;" d="M 7 25 C 6.445312 25 6 25.445312 6 26 L 6 26.25 C 6 25.695312 6.445312 25.25 7 25.25 L 25 25.25 C 25.554688 25.25 26 25.695312 26 26.25 L 26 26 C 26 25.445312 25.554688 25 25 25 Z M 7 25 "/>
<path style=" stroke:none;fill-rule:nonzero;fill:rgb(100%,100%,100%);fill-opacity:0.4;" d="M 5.5 15 C 5.222656 15 5 15.222656 5 15.5 L 5 16 C 5 15.722656 5.222656 15.5 5.5 15.5 L 6.5 15.5 C 6.777344 15.5 7 15.722656 7 16 L 7 15.5 C 7 15.222656 6.777344 15 6.5 15 Z M 25.5 15 C 25.222656 15 25 15.222656 25 15.5 L 25 16 C 25 15.722656 25.222656 15.5 25.5 15.5 L 26.5 15.5 C 26.777344 15.5 27 15.722656 27 16 L 27 15.5 C 27 15.222656 26.777344 15 26.5 15 Z M 25.5 15 "/>
<path style=" stroke:none;fill-rule:nonzero;fill:rgb(100%,100%,100%);fill-opacity:0.4;" d="M 4 18 C 2.890625 18 2 18.890625 2 20 L 2 20.5 C 2 19.390625 2.890625 18.5 4 18.5 L 28 18.5 C 29.109375 18.5 30 19.390625 30 20.5 L 30 20 C 30 18.890625 29.109375 18 28 18 Z M 4 18 "/>
<path style=" stroke:none;fill-rule:nonzero;fill:rgb(0%,0%,0%);fill-opacity:0.4;" d="M 7 24 C 5.890625 24 5 24.890625 5 26 L 5 26.507812 C 5 25.398438 5.890625 24.507812 7 24.507812 L 25 24.507812 C 26.109375 24.507812 27 25.398438 27 26.507812 L 27 26 C 27 24.890625 26.109375 24 25 24 Z M 7 24 "/>
<path style=" stroke:none;fill-rule:nonzero;fill:rgb(0%,0%,0%);fill-opacity:0.4;" d="M 6 28.75 L 6 29 C 6 29.554688 6.445312 30 7 30 L 25 30 C 25.554688 30 26 29.554688 26 29 L 26 28.75 C 26 29.304688 25.554688 29.75 25 29.75 L 7 29.75 C 6.445312 29.75 6 29.304688 6 28.75 Z M 6 28.75 "/>
<path style=" stroke:none;fill-rule:nonzero;fill:rgb(14.901961%,77.64706%,85.490197%);fill-opacity:1;" d="M 7 25 L 7 28.5 C 7 28.777344 7.222656 29 7.5 29 L 24.5 29 C 24.777344 29 25 28.777344 25 28.5 L 25 25 Z M 7 25 "/>
<path style=" stroke:none;fill-rule:nonzero;fill:rgb(100%,65.490198%,14.901961%);fill-opacity:1;" d="M 18 25 C 18 26.109375 18.890625 27 20 27 C 21.109375 27 22 26.109375 22 25 Z M 18 25 "/>
<path style=" stroke:none;fill-rule:nonzero;fill:rgb(100%,100%,100%);fill-opacity:0.4;" d="M 6 26 L 26 26 L 26 27 L 6 27 Z M 6 26 "/>
<path style=" stroke:none;fill-rule:nonzero;fill:rgb(40.000001%,73.333335%,41.568628%);fill-opacity:0.996078;" d="M 4.503906 21 C 4.777344 21 5 21.222656 5 21.496094 C 5 21.769531 4.777344 21.992188 4.503906 21.992188 C 4.230469 21.992188 4.007812 21.769531 4.007812 21.496094 C 4.007812 21.222656 4.230469 21 4.503906 21 Z M 4.503906 21 "/>
<path style=" stroke:none;fill-rule:nonzero;fill:rgb(0%,0%,0%);fill-opacity:0.4;" d="M 4.492188 21 C 4.222656 21.007812 4.007812 21.226562 4.007812 21.496094 C 4.007812 21.539062 4.011719 21.582031 4.023438 21.621094 C 4.078125 21.40625 4.273438 21.25 4.503906 21.25 C 4.734375 21.25 4.929688 21.40625 4.984375 21.621094 C 4.996094 21.582031 5 21.539062 5 21.496094 C 5 21.222656 4.777344 21 4.503906 21 C 4.5 21 4.496094 21 4.492188 21 Z M 4.492188 21 "/>
<path style=" stroke:none;fill-rule:nonzero;fill:rgb(100%,100%,100%);fill-opacity:0.4;" d="M 4.492188 22.25 C 4.222656 22.242188 4.007812 22.023438 4.007812 21.753906 C 4.007812 21.710938 4.011719 21.667969 4.023438 21.628906 C 4.078125 21.84375 4.273438 22 4.503906 22 C 4.734375 22 4.929688 21.84375 4.984375 21.628906 C 4.996094 21.667969 5 21.710938 5 21.753906 C 5 22.027344 4.777344 22.25 4.503906 22.25 C 4.5 22.25 4.496094 22.25 4.492188 22.25 Z M 4.492188 22.25 "/>
<path style=" stroke:none;fill-rule:nonzero;fill:rgb(40.000001%,73.333335%,41.568628%);fill-opacity:0.996078;" d="M 6.519531 21 C 6.792969 21 7.015625 21.222656 7.015625 21.496094 C 7.015625 21.769531 6.792969 21.992188 6.519531 21.992188 C 6.246094 21.992188 6.023438 21.769531 6.023438 21.496094 C 6.023438 21.222656 6.246094 21 6.519531 21 Z M 6.519531 21 "/>
<path style=" stroke:none;fill-rule:nonzero;fill:rgb(0%,0%,0%);fill-opacity:0.4;" d="M 6.507812 21 C 6.238281 21.007812 6.023438 21.226562 6.023438 21.496094 C 6.023438 21.539062 6.027344 21.582031 6.039062 21.621094 C 6.09375 21.40625 6.289062 21.25 6.519531 21.25 C 6.75 21.25 6.945312 21.40625 7 21.621094 C 7.011719 21.582031 7.015625 21.539062 7.015625 21.496094 C 7.015625 21.222656 6.792969 21 6.519531 21 C 6.515625 21 6.511719 21 6.507812 21 Z M 6.507812 21 "/>
<path style=" stroke:none;fill-rule:nonzero;fill:rgb(100%,100%,100%);fill-opacity:0.4;" d="M 6.507812 22.25 C 6.238281 22.242188 6.023438 22.023438 6.023438 21.753906 C 6.023438 21.710938 6.027344 21.667969 6.039062 21.628906 C 6.09375 21.84375 6.289062 22 6.519531 22 C 6.75 22 6.945312 21.84375 7 21.628906 C 7.011719 21.667969 7.015625 21.710938 7.015625 21.753906 C 7.015625 22.027344 6.792969 22.25 6.519531 22.25 C 6.515625 22.25 6.511719 22.25 6.507812 22.25 Z M 6.507812 22.25 "/>
<path style=" stroke:none;fill-rule:nonzero;fill:rgb(95.686275%,26.274511%,21.176471%);fill-opacity:0.996078;" d="M 27.519531 21 C 27.792969 21 28.015625 21.222656 28.015625 21.496094 C 28.015625 21.769531 27.792969 21.992188 27.519531 21.992188 C 27.246094 21.992188 27.023438 21.769531 27.023438 21.496094 C 27.023438 21.222656 27.246094 21 27.519531 21 Z M 27.519531 21 "/>
<path style=" stroke:none;fill-rule:nonzero;fill:rgb(0%,0%,0%);fill-opacity:0.4;" d="M 27.507812 21 C 27.238281 21.007812 27.023438 21.226562 27.023438 21.496094 C 27.023438 21.539062 27.027344 21.582031 27.039062 21.621094 C 27.09375 21.40625 27.289062 21.25 27.519531 21.25 C 27.75 21.25 27.945312 21.40625 28 21.621094 C 28.011719 21.582031 28.015625 21.539062 28.015625 21.496094 C 28.015625 21.222656 27.792969 21 27.519531 21 C 27.515625 21 27.511719 21 27.507812 21 Z M 27.507812 21 "/>
<path style=" stroke:none;fill-rule:nonzero;fill:rgb(100%,100%,100%);fill-opacity:0.4;" d="M 27.507812 22.25 C 27.238281 22.242188 27.023438 22.023438 27.023438 21.753906 C 27.023438 21.710938 27.027344 21.667969 27.039062 21.628906 C 27.09375 21.84375 27.289062 22 27.519531 22 C 27.75 22 27.945312 21.84375 28 21.628906 C 28.011719 21.667969 28.015625 21.710938 28.015625 21.753906 C 28.015625 22.027344 27.792969 22.25 27.519531 22.25 C 27.515625 22.25 27.511719 22.25 27.507812 22.25 Z M 27.507812 22.25 "/>
<path style=" stroke:none;fill-rule:nonzero;fill:url(#linear0);" d="M 7 2 C 6.445312 2 6 2.445312 6 3 L 6 11.132812 C 5.699219 11.304688 5.5 11.628906 5.5 12 L 5.5 15 C 5.222656 15 5 15.222656 5 15.5 L 5 18 L 4 18 C 2.890625 18 2 18.890625 2 20 L 2 25 C 2 26.109375 2.890625 27 4 27 L 4 28 C 4 28.554688 4.445312 29 5 29 L 6 29 C 6 29.554688 6.445312 30 7 30 L 25 30 C 25.554688 30 26 29.554688 26 29 L 27 29 C 27.554688 29 28 28.554688 28 28 L 28 27 C 29.109375 27 30 26.109375 30 25 L 30 20 C 30 18.890625 29.109375 18 28 18 L 27 18 L 27 15.5 C 27 15.222656 26.777344 15 26.5 15 L 26.5 12 C 26.5 11.628906 26.300781 11.304688 26 11.132812 L 26 3 C 26 2.445312 25.554688 2 25 2 Z M 7 2 "/>
</g>
</svg>
