
<svg xmlns="http://www.w3.org/2000/svg" xmlns:xlink="http://www.w3.org/1999/xlink" width="32" height="32" viewBox="0 0 32 32" version="1.1">
<defs>
<linearGradient id="linear0" gradientUnits="userSpaceOnUse" x1="9.525" y1="-200.183334" x2="9.525" y2="-212.883331" gradientTransform="matrix(1.889764,0,0,1.889764,0,406.299234)">
<stop offset="0" style="stop-color:rgb(0%,0%,0%);stop-opacity:0.2;"/>
<stop offset="1" style="stop-color:rgb(100%,100%,100%);stop-opacity:0;"/>
</linearGradient>
</defs>
<g id="surface1">
<path style=" stroke:none;fill-rule:nonzero;fill:rgb(74.117649%,74.117649%,74.117649%);fill-opacity:1;" d="M 30 8.5 C 30 8.777344 29.777344 9 29.5 9 L 2.5 9 C 2.222656 9 2 8.777344 2 8.5 C 2 8.222656 2.222656 8 2.5 8 L 29.5 8 C 29.777344 8 30 8.222656 30 8.5 Z M 30 8.5 "/>
<path style=" stroke:none;fill-rule:nonzero;fill:rgb(100%,100%,100%);fill-opacity:0.4;" d="M 2.5 8 C 2.222656 8 2 8.222656 2 8.5 C 2 8.542969 2.007812 8.582031 2.015625 8.621094 C 2.070312 8.402344 2.265625 8.242188 2.5 8.242188 L 29.5 8.242188 C 29.734375 8.242188 29.929688 8.402344 29.984375 8.621094 C 29.992188 8.582031 30 8.542969 30 8.5 C 30 8.222656 29.777344 8 29.5 8 Z M 2.5 8 "/>
<path style=" stroke:none;fill-rule:nonzero;fill:rgb(12.54902%,12.54902%,12.54902%);fill-opacity:0.4;" d="M 2.5 8.996094 C 2.222656 8.996094 2 8.773438 2 8.496094 C 2 8.453125 2.007812 8.414062 2.015625 8.375 C 2.070312 8.59375 2.265625 8.753906 2.5 8.753906 L 29.5 8.753906 C 29.734375 8.753906 29.929688 8.59375 29.984375 8.375 C 29.992188 8.414062 30 8.453125 30 8.496094 C 30 8.773438 29.777344 8.996094 29.5 8.996094 Z M 2.5 8.996094 "/>
<path style=" stroke:none;fill-rule:nonzero;fill:rgb(74.117649%,74.117649%,74.117649%);fill-opacity:1;" d="M 30 11.5 C 30 11.777344 29.777344 12 29.5 12 L 2.5 12 C 2.222656 12 2 11.777344 2 11.5 C 2 11.222656 2.222656 11 2.5 11 L 29.5 11 C 29.777344 11 30 11.222656 30 11.5 Z M 30 11.5 "/>
<path style=" stroke:none;fill-rule:nonzero;fill:rgb(100%,100%,100%);fill-opacity:0.4;" d="M 2.5 11 C 2.222656 11 2 11.222656 2 11.5 C 2 11.542969 2.007812 11.582031 2.015625 11.621094 C 2.070312 11.402344 2.265625 11.242188 2.5 11.242188 L 29.5 11.242188 C 29.734375 11.242188 29.929688 11.402344 29.984375 11.621094 C 29.992188 11.582031 30 11.542969 30 11.5 C 30 11.222656 29.777344 11 29.5 11 Z M 2.5 11 "/>
<path style=" stroke:none;fill-rule:nonzero;fill:rgb(12.54902%,12.54902%,12.54902%);fill-opacity:0.4;" d="M 2.5 11.996094 C 2.222656 11.996094 2 11.773438 2 11.496094 C 2 11.453125 2.007812 11.414062 2.015625 11.375 C 2.070312 11.59375 2.265625 11.753906 2.5 11.753906 L 29.5 11.753906 C 29.734375 11.753906 29.929688 11.59375 29.984375 11.375 C 29.992188 11.414062 30 11.453125 30 11.496094 C 30 11.773438 29.777344 11.996094 29.5 11.996094 Z M 2.5 11.996094 "/>
<path style=" stroke:none;fill-rule:nonzero;fill:rgb(74.117649%,74.117649%,74.117649%);fill-opacity:1;" d="M 30 14.5 C 30 14.777344 29.777344 15 29.5 15 L 2.5 15 C 2.222656 15 2 14.777344 2 14.5 C 2 14.222656 2.222656 14 2.5 14 L 29.5 14 C 29.777344 14 30 14.222656 30 14.5 Z M 30 14.5 "/>
<path style=" stroke:none;fill-rule:nonzero;fill:rgb(100%,100%,100%);fill-opacity:0.4;" d="M 2.5 14 C 2.222656 14 2 14.222656 2 14.5 C 2 14.542969 2.007812 14.582031 2.015625 14.621094 C 2.070312 14.402344 2.265625 14.242188 2.5 14.242188 L 29.5 14.242188 C 29.734375 14.242188 29.929688 14.402344 29.984375 14.621094 C 29.992188 14.582031 30 14.542969 30 14.5 C 30 14.222656 29.777344 14 29.5 14 Z M 2.5 14 "/>
<path style=" stroke:none;fill-rule:nonzero;fill:rgb(12.54902%,12.54902%,12.54902%);fill-opacity:0.4;" d="M 2.5 14.996094 C 2.222656 14.996094 2 14.773438 2 14.496094 C 2 14.453125 2.007812 14.414062 2.015625 14.375 C 2.070312 14.59375 2.265625 14.753906 2.5 14.753906 L 29.5 14.753906 C 29.734375 14.753906 29.929688 14.59375 29.984375 14.375 C 29.992188 14.414062 30 14.453125 30 14.496094 C 30 14.773438 29.777344 14.996094 29.5 14.996094 Z M 2.5 14.996094 "/>
<path style=" stroke:none;fill-rule:nonzero;fill:rgb(74.117649%,74.117649%,74.117649%);fill-opacity:1;" d="M 30 26.5 C 30 26.777344 29.777344 27 29.5 27 L 2.5 27 C 2.222656 27 2 26.777344 2 26.5 C 2 26.222656 2.222656 26 2.5 26 L 29.5 26 C 29.777344 26 30 26.222656 30 26.5 Z M 30 26.5 "/>
<path style=" stroke:none;fill-rule:nonzero;fill:rgb(100%,100%,100%);fill-opacity:0.4;" d="M 2.5 26 C 2.222656 26 2 26.222656 2 26.5 C 2 26.542969 2.007812 26.582031 2.015625 26.621094 C 2.070312 26.402344 2.265625 26.242188 2.5 26.242188 L 29.5 26.242188 C 29.734375 26.242188 29.929688 26.402344 29.984375 26.621094 C 29.992188 26.582031 30 26.542969 30 26.5 C 30 26.222656 29.777344 26 29.5 26 Z M 2.5 26 "/>
<path style=" stroke:none;fill-rule:nonzero;fill:rgb(12.54902%,12.54902%,12.54902%);fill-opacity:0.4;" d="M 2.5 26.996094 C 2.222656 26.996094 2 26.773438 2 26.496094 C 2 26.453125 2.007812 26.414062 2.015625 26.375 C 2.070312 26.59375 2.265625 26.753906 2.5 26.753906 L 29.5 26.753906 C 29.734375 26.753906 29.929688 26.59375 29.984375 26.375 C 29.992188 26.414062 30 26.453125 30 26.496094 C 30 26.773438 29.777344 26.996094 29.5 26.996094 Z M 2.5 26.996094 "/>
<path style=" stroke:none;fill-rule:nonzero;fill:rgb(74.117649%,74.117649%,74.117649%);fill-opacity:1;" d="M 30 17.5 C 30 17.777344 29.777344 18 29.5 18 L 2.5 18 C 2.222656 18 2 17.777344 2 17.5 C 2 17.222656 2.222656 17 2.5 17 L 29.5 17 C 29.777344 17 30 17.222656 30 17.5 Z M 30 17.5 "/>
<path style=" stroke:none;fill-rule:nonzero;fill:rgb(100%,100%,100%);fill-opacity:0.4;" d="M 2.5 17 C 2.222656 17 2 17.222656 2 17.5 C 2 17.542969 2.007812 17.582031 2.015625 17.621094 C 2.070312 17.402344 2.265625 17.242188 2.5 17.242188 L 29.5 17.242188 C 29.734375 17.242188 29.929688 17.402344 29.984375 17.621094 C 29.992188 17.582031 30 17.542969 30 17.5 C 30 17.222656 29.777344 17 29.5 17 Z M 2.5 17 "/>
<path style=" stroke:none;fill-rule:nonzero;fill:rgb(12.54902%,12.54902%,12.54902%);fill-opacity:0.4;" d="M 2.5 17.996094 C 2.222656 17.996094 2 17.773438 2 17.496094 C 2 17.453125 2.007812 17.414062 2.015625 17.375 C 2.070312 17.59375 2.265625 17.753906 2.5 17.753906 L 29.5 17.753906 C 29.734375 17.753906 29.929688 17.59375 29.984375 17.375 C 29.992188 17.414062 30 17.453125 30 17.496094 C 30 17.773438 29.777344 17.996094 29.5 17.996094 Z M 2.5 17.996094 "/>
<path style=" stroke:none;fill-rule:nonzero;fill:rgb(74.117649%,74.117649%,74.117649%);fill-opacity:1;" d="M 30 20.5 C 30 20.777344 29.777344 21 29.5 21 L 2.5 21 C 2.222656 21 2 20.777344 2 20.5 C 2 20.222656 2.222656 20 2.5 20 L 29.5 20 C 29.777344 20 30 20.222656 30 20.5 Z M 30 20.5 "/>
<path style=" stroke:none;fill-rule:nonzero;fill:rgb(100%,100%,100%);fill-opacity:0.4;" d="M 2.5 20 C 2.222656 20 2 20.222656 2 20.5 C 2 20.542969 2.007812 20.582031 2.015625 20.621094 C 2.070312 20.402344 2.265625 20.242188 2.5 20.242188 L 29.5 20.242188 C 29.734375 20.242188 29.929688 20.402344 29.984375 20.621094 C 29.992188 20.582031 30 20.542969 30 20.5 C 30 20.222656 29.777344 20 29.5 20 Z M 2.5 20 "/>
<path style=" stroke:none;fill-rule:nonzero;fill:rgb(12.54902%,12.54902%,12.54902%);fill-opacity:0.4;" d="M 2.5 20.996094 C 2.222656 20.996094 2 20.773438 2 20.496094 C 2 20.453125 2.007812 20.414062 2.015625 20.375 C 2.070312 20.59375 2.265625 20.753906 2.5 20.753906 L 29.5 20.753906 C 29.734375 20.753906 29.929688 20.59375 29.984375 20.375 C 29.992188 20.414062 30 20.453125 30 20.496094 C 30 20.773438 29.777344 20.996094 29.5 20.996094 Z M 2.5 20.996094 "/>
<path style=" stroke:none;fill-rule:nonzero;fill:rgb(74.117649%,74.117649%,74.117649%);fill-opacity:1;" d="M 30 23.5 C 30 23.777344 29.777344 24 29.5 24 L 2.5 24 C 2.222656 24 2 23.777344 2 23.5 C 2 23.222656 2.222656 23 2.5 23 L 29.5 23 C 29.777344 23 30 23.222656 30 23.5 Z M 30 23.5 "/>
<path style=" stroke:none;fill-rule:nonzero;fill:rgb(100%,100%,100%);fill-opacity:0.4;" d="M 2.5 23 C 2.222656 23 2 23.222656 2 23.5 C 2 23.542969 2.007812 23.582031 2.015625 23.621094 C 2.070312 23.402344 2.265625 23.242188 2.5 23.242188 L 29.5 23.242188 C 29.734375 23.242188 29.929688 23.402344 29.984375 23.621094 C 29.992188 23.582031 30 23.542969 30 23.5 C 30 23.222656 29.777344 23 29.5 23 Z M 2.5 23 "/>
<path style=" stroke:none;fill-rule:nonzero;fill:rgb(12.54902%,12.54902%,12.54902%);fill-opacity:0.4;" d="M 2.5 23.996094 C 2.222656 23.996094 2 23.773438 2 23.496094 C 2 23.453125 2.007812 23.414062 2.015625 23.375 C 2.070312 23.59375 2.265625 23.753906 2.5 23.753906 L 29.5 23.753906 C 29.734375 23.753906 29.929688 23.59375 29.984375 23.375 C 29.992188 23.414062 30 23.453125 30 23.496094 C 30 23.773438 29.777344 23.996094 29.5 23.996094 Z M 2.5 23.996094 "/>
<path style=" stroke:none;fill-rule:nonzero;fill:rgb(74.117649%,74.117649%,74.117649%);fill-opacity:1;" d="M 30 5.5 C 30 5.777344 29.777344 6 29.5 6 L 2.5 6 C 2.222656 6 2 5.777344 2 5.5 C 2 5.226562 2.222656 5 2.5 5 L 29.5 5 C 29.777344 5 30 5.226562 30 5.5 Z M 30 5.5 "/>
<path style=" stroke:none;fill-rule:nonzero;fill:rgb(100%,100%,100%);fill-opacity:0.4;" d="M 2.5 5 C 2.222656 5 2 5.222656 2 5.5 C 2 5.542969 2.007812 5.582031 2.015625 5.621094 C 2.070312 5.40625 2.265625 5.246094 2.5 5.246094 L 29.5 5.246094 C 29.734375 5.246094 29.929688 5.40625 29.984375 5.621094 C 29.992188 5.582031 30 5.542969 30 5.5 C 30 5.222656 29.777344 5 29.5 5 Z M 2.5 5 "/>
<path style=" stroke:none;fill-rule:nonzero;fill:rgb(12.54902%,12.54902%,12.54902%);fill-opacity:0.4;" d="M 2.5 6 C 2.222656 6 2 5.773438 2 5.5 C 2 5.457031 2.007812 5.414062 2.015625 5.378906 C 2.070312 5.59375 2.265625 5.753906 2.5 5.753906 L 29.5 5.753906 C 29.734375 5.753906 29.929688 5.59375 29.984375 5.378906 C 29.992188 5.414062 30 5.457031 30 5.5 C 30 5.773438 29.777344 6 29.5 6 Z M 2.5 6 "/>
<path style=" stroke:none;fill-rule:nonzero;fill:rgb(74.117649%,74.117649%,74.117649%);fill-opacity:1;" d="M 8.5 2 C 8.777344 2 9 2.222656 9 2.5 L 9 29.5 C 9 29.777344 8.777344 30 8.5 30 C 8.222656 30 8 29.777344 8 29.5 L 8 2.5 C 8 2.222656 8.222656 2 8.5 2 Z M 8.5 2 "/>
<path style=" stroke:none;fill-rule:nonzero;fill:rgb(100%,100%,100%);fill-opacity:0.4;" d="M 8.5 2 C 8.222656 2 8 2.222656 8 2.5 L 8 3 C 8 2.722656 8.222656 2.5 8.5 2.5 C 8.777344 2.5 9 2.722656 9 3 L 9 2.5 C 9 2.222656 8.777344 2 8.5 2 Z M 8.5 2 "/>
<path style=" stroke:none;fill-rule:nonzero;fill:rgb(8.627451%,8.627451%,8.627451%);fill-opacity:0.4;" d="M 8.5 30 C 8.222656 30 8 29.777344 8 29.5 L 8 29 C 8 29.277344 8.222656 29.5 8.5 29.5 C 8.777344 29.5 9 29.277344 9 29 L 9 29.5 C 9 29.777344 8.777344 30 8.5 30 Z M 8.5 30 "/>
<path style=" stroke:none;fill-rule:nonzero;fill:rgb(74.117649%,74.117649%,74.117649%);fill-opacity:1;" d="M 11.5 2 C 11.777344 2 12 2.222656 12 2.5 L 12 29.5 C 12 29.777344 11.777344 30 11.5 30 C 11.222656 30 11 29.777344 11 29.5 L 11 2.5 C 11 2.222656 11.222656 2 11.5 2 Z M 11.5 2 "/>
<path style=" stroke:none;fill-rule:nonzero;fill:rgb(100%,100%,100%);fill-opacity:0.4;" d="M 11.5 2 C 11.222656 2 11 2.222656 11 2.5 L 11 3 C 11 2.722656 11.222656 2.5 11.5 2.5 C 11.777344 2.5 12 2.722656 12 3 L 12 2.5 C 12 2.222656 11.777344 2 11.5 2 Z M 11.5 2 "/>
<path style=" stroke:none;fill-rule:nonzero;fill:rgb(8.627451%,8.627451%,8.627451%);fill-opacity:0.4;" d="M 11.5 30 C 11.222656 30 11 29.777344 11 29.5 L 11 29 C 11 29.277344 11.222656 29.5 11.5 29.5 C 11.777344 29.5 12 29.277344 12 29 L 12 29.5 C 12 29.777344 11.777344 30 11.5 30 Z M 11.5 30 "/>
<path style=" stroke:none;fill-rule:nonzero;fill:rgb(74.117649%,74.117649%,74.117649%);fill-opacity:1;" d="M 14.5 2 C 14.777344 2 15 2.222656 15 2.5 L 15 29.5 C 15 29.777344 14.777344 30 14.5 30 C 14.222656 30 14 29.777344 14 29.5 L 14 2.5 C 14 2.222656 14.222656 2 14.5 2 Z M 14.5 2 "/>
<path style=" stroke:none;fill-rule:nonzero;fill:rgb(100%,100%,100%);fill-opacity:0.4;" d="M 14.5 2 C 14.222656 2 14 2.222656 14 2.5 L 14 3 C 14 2.722656 14.222656 2.5 14.5 2.5 C 14.777344 2.5 15 2.722656 15 3 L 15 2.5 C 15 2.222656 14.777344 2 14.5 2 Z M 14.5 2 "/>
<path style=" stroke:none;fill-rule:nonzero;fill:rgb(8.627451%,8.627451%,8.627451%);fill-opacity:0.4;" d="M 14.5 30 C 14.222656 30 14 29.777344 14 29.5 L 14 29 C 14 29.277344 14.222656 29.5 14.5 29.5 C 14.777344 29.5 15 29.277344 15 29 L 15 29.5 C 15 29.777344 14.777344 30 14.5 30 Z M 14.5 30 "/>
<path style=" stroke:none;fill-rule:nonzero;fill:rgb(74.117649%,74.117649%,74.117649%);fill-opacity:1;" d="M 26.5 2 C 26.777344 2 27 2.222656 27 2.5 L 27 29.5 C 27 29.777344 26.777344 30 26.5 30 C 26.222656 30 26 29.777344 26 29.5 L 26 2.5 C 26 2.222656 26.222656 2 26.5 2 Z M 26.5 2 "/>
<path style=" stroke:none;fill-rule:nonzero;fill:rgb(100%,100%,100%);fill-opacity:0.4;" d="M 26.5 2 C 26.222656 2 26 2.222656 26 2.5 L 26 3 C 26 2.722656 26.222656 2.5 26.5 2.5 C 26.777344 2.5 27 2.722656 27 3 L 27 2.5 C 27 2.222656 26.777344 2 26.5 2 Z M 26.5 2 "/>
<path style=" stroke:none;fill-rule:nonzero;fill:rgb(8.627451%,8.627451%,8.627451%);fill-opacity:0.4;" d="M 26.5 30 C 26.222656 30 26 29.777344 26 29.5 L 26 29 C 26 29.277344 26.222656 29.5 26.5 29.5 C 26.777344 29.5 27 29.277344 27 29 L 27 29.5 C 27 29.777344 26.777344 30 26.5 30 Z M 26.5 30 "/>
<path style=" stroke:none;fill-rule:nonzero;fill:rgb(74.117649%,74.117649%,74.117649%);fill-opacity:1;" d="M 17.5 2 C 17.777344 2 18 2.222656 18 2.5 L 18 29.5 C 18 29.777344 17.777344 30 17.5 30 C 17.222656 30 17 29.777344 17 29.5 L 17 2.5 C 17 2.222656 17.222656 2 17.5 2 Z M 17.5 2 "/>
<path style=" stroke:none;fill-rule:nonzero;fill:rgb(100%,100%,100%);fill-opacity:0.4;" d="M 17.5 2 C 17.222656 2 17 2.222656 17 2.5 L 17 3 C 17 2.722656 17.222656 2.5 17.5 2.5 C 17.777344 2.5 18 2.722656 18 3 L 18 2.5 C 18 2.222656 17.777344 2 17.5 2 Z M 17.5 2 "/>
<path style=" stroke:none;fill-rule:nonzero;fill:rgb(8.627451%,8.627451%,8.627451%);fill-opacity:0.4;" d="M 17.5 30 C 17.222656 30 17 29.777344 17 29.5 L 17 29 C 17 29.277344 17.222656 29.5 17.5 29.5 C 17.777344 29.5 18 29.277344 18 29 L 18 29.5 C 18 29.777344 17.777344 30 17.5 30 Z M 17.5 30 "/>
<path style=" stroke:none;fill-rule:nonzero;fill:rgb(74.117649%,74.117649%,74.117649%);fill-opacity:1;" d="M 23.5 2 C 23.777344 2 24 2.222656 24 2.5 L 24 29.5 C 24 29.777344 23.777344 30 23.5 30 C 23.222656 30 23 29.777344 23 29.5 L 23 2.5 C 23 2.222656 23.222656 2 23.5 2 Z M 23.5 2 "/>
<path style=" stroke:none;fill-rule:nonzero;fill:rgb(100%,100%,100%);fill-opacity:0.4;" d="M 23.5 2 C 23.222656 2 23 2.222656 23 2.5 L 23 3 C 23 2.722656 23.222656 2.5 23.5 2.5 C 23.777344 2.5 24 2.722656 24 3 L 24 2.5 C 24 2.222656 23.777344 2 23.5 2 Z M 23.5 2 "/>
<path style=" stroke:none;fill-rule:nonzero;fill:rgb(8.627451%,8.627451%,8.627451%);fill-opacity:0.4;" d="M 23.5 30 C 23.222656 30 23 29.777344 23 29.5 L 23 29 C 23 29.277344 23.222656 29.5 23.5 29.5 C 23.777344 29.5 24 29.277344 24 29 L 24 29.5 C 24 29.777344 23.777344 30 23.5 30 Z M 23.5 30 "/>
<path style=" stroke:none;fill-rule:nonzero;fill:rgb(74.117649%,74.117649%,74.117649%);fill-opacity:1;" d="M 20.5 2 C 20.777344 2 21 2.222656 21 2.5 L 21 29.5 C 21 29.777344 20.777344 30 20.5 30 C 20.222656 30 20 29.777344 20 29.5 L 20 2.5 C 20 2.222656 20.222656 2 20.5 2 Z M 20.5 2 "/>
<path style=" stroke:none;fill-rule:nonzero;fill:rgb(100%,100%,100%);fill-opacity:0.4;" d="M 20.5 2 C 20.222656 2 20 2.222656 20 2.5 L 20 3 C 20 2.722656 20.222656 2.5 20.5 2.5 C 20.777344 2.5 21 2.722656 21 3 L 21 2.5 C 21 2.222656 20.777344 2 20.5 2 Z M 20.5 2 "/>
<path style=" stroke:none;fill-rule:nonzero;fill:rgb(8.627451%,8.627451%,8.627451%);fill-opacity:0.4;" d="M 20.5 30 C 20.222656 30 20 29.777344 20 29.5 L 20 29 C 20 29.277344 20.222656 29.5 20.5 29.5 C 20.777344 29.5 21 29.277344 21 29 L 21 29.5 C 21 29.777344 20.777344 30 20.5 30 Z M 20.5 30 "/>
<path style=" stroke:none;fill-rule:nonzero;fill:rgb(74.117649%,74.117649%,74.117649%);fill-opacity:1;" d="M 5.5 2 C 5.777344 2 6 2.222656 6 2.5 L 6 29.5 C 6 29.777344 5.777344 30 5.5 30 C 5.222656 30 5 29.777344 5 29.5 L 5 2.5 C 5 2.222656 5.222656 2 5.5 2 Z M 5.5 2 "/>
<path style=" stroke:none;fill-rule:nonzero;fill:rgb(100%,100%,100%);fill-opacity:0.4;" d="M 5.5 2 C 5.222656 2 5 2.222656 5 2.5 L 5 3 C 5 2.722656 5.222656 2.5 5.5 2.5 C 5.777344 2.5 6 2.722656 6 3 L 6 2.5 C 6 2.222656 5.777344 2 5.5 2 Z M 5.5 2 "/>
<path style=" stroke:none;fill-rule:nonzero;fill:rgb(8.627451%,8.627451%,8.627451%);fill-opacity:0.4;" d="M 5.5 30 C 5.222656 30 5 29.777344 5 29.5 L 5 29 C 5 29.277344 5.222656 29.5 5.5 29.5 C 5.777344 29.5 6 29.277344 6 29 L 6 29.5 C 6 29.777344 5.777344 30 5.5 30 Z M 5.5 30 "/>
<path style=" stroke:none;fill-rule:nonzero;fill:rgb(38.039216%,38.039216%,38.039216%);fill-opacity:0.996078;" d="M 6 4 L 26 4 C 27.105469 4 28 4.894531 28 6 L 28 26 C 28 27.105469 27.105469 28 26 28 L 6 28 C 4.894531 28 4 27.105469 4 26 L 4 6 C 4 4.894531 4.894531 4 6 4 Z M 6 4 "/>
<path style=" stroke:none;fill-rule:nonzero;fill:rgb(45.882353%,45.882353%,45.882353%);fill-opacity:0.996078;" d="M 7 6 L 25 6 C 25.550781 6 26 6.449219 26 7 L 26 25 C 26 25.550781 25.550781 26 25 26 L 7 26 C 6.449219 26 6 25.550781 6 25 L 6 7 C 6 6.449219 6.449219 6 7 6 Z M 7 6 "/>
<path style=" stroke:none;fill-rule:nonzero;fill:rgb(0.392157%,0.392157%,0.392157%);fill-opacity:0.4;" d="M 7 6 C 6.445312 6 6 6.445312 6 7 L 6 7.25 C 6 6.695312 6.445312 6.25 7 6.25 L 25 6.25 C 25.554688 6.25 26 6.695312 26 7.25 L 26 7 C 26 6.445312 25.554688 6 25 6 Z M 7 6 "/>
<path style=" stroke:none;fill-rule:nonzero;fill:rgb(100%,100%,100%);fill-opacity:0.4;" d="M 6 25 L 6 25.25 C 6 25.804688 6.445312 26.25 7 26.25 L 25 26.25 C 25.554688 26.25 26 25.804688 26 25.25 L 26 25 C 26 25.554688 25.554688 26 25 26 L 7 26 C 6.445312 26 6 25.554688 6 25 Z M 6 25 "/>
<path style=" stroke:none;fill-rule:nonzero;fill:rgb(0%,0%,0%);fill-opacity:0.4;" d="M 4 25.5 L 4 26 C 4 27.109375 4.890625 28 6 28 L 26 28 C 27.109375 28 28 27.109375 28 26 L 28 25.5 C 28 26.609375 27.109375 27.5 26 27.5 L 6 27.5 C 4.890625 27.5 4 26.609375 4 25.5 Z M 4 25.5 "/>
<path style=" stroke:none;fill-rule:nonzero;fill:rgb(0%,0%,0%);fill-opacity:0.2;" d="M 4 26 L 4 26.75 C 4 27.859375 4.890625 28.75 6 28.75 L 26 28.75 C 27.109375 28.75 28 27.859375 28 26.75 L 28 26 C 28 27.109375 27.109375 28 26 28 L 6 28 C 4.890625 28 4 27.109375 4 26 Z M 4 26 "/>
<path style=" stroke:none;fill-rule:nonzero;fill:rgb(100%,100%,100%);fill-opacity:0.2;" d="M 6 4 C 4.890625 4 4 4.890625 4 6 L 4 6.484375 C 4 5.375 4.890625 4.484375 6 4.484375 L 26 4.484375 C 27.109375 4.484375 28 5.375 28 6.484375 L 28 6 C 28 4.890625 27.109375 4 26 4 Z M 6 4 "/>
<path style=" stroke:none;fill-rule:nonzero;fill:url(#linear0);" d="M 6 4 L 26 4 C 27.105469 4 28 4.894531 28 6 L 28 26 C 28 27.105469 27.105469 28 26 28 L 6 28 C 4.894531 28 4 27.105469 4 26 L 4 6 C 4 4.894531 4.894531 4 6 4 Z M 6 4 "/>
</g>
</svg>
