
<svg xmlns="http://www.w3.org/2000/svg" xmlns:xlink="http://www.w3.org/1999/xlink" width="32" height="32" viewBox="0 0 32 32" version="1.1">
<defs>
<linearGradient id="linear0" gradientUnits="userSpaceOnUse" x1="31.999998" y1="59.999996" x2="31.999998" y2="3.999999" gradientTransform="matrix(0.5,0,0,0.5,-0.00000204094,0)">
<stop offset="0" style="stop-color:rgb(0%,0%,0%);stop-opacity:0.2;"/>
<stop offset="1" style="stop-color:rgb(100%,100%,100%);stop-opacity:0;"/>
</linearGradient>
</defs>
<g id="surface1">
<path style=" stroke:none;fill-rule:nonzero;fill:rgb(49.411765%,34.117648%,76.078433%);fill-opacity:0.996078;" d="M 21 2 L 27 8 L 27 4 C 27 2.890625 26.109375 2 25 2 Z M 21 2 "/>
<path style=" stroke:none;fill-rule:nonzero;fill:rgb(49.411765%,34.117648%,76.078433%);fill-opacity:1;" d="M 20 2 L 6.5 2 C 5.667969 2 5 2.667969 5 3.5 L 5 28.5 C 5 29.332031 5.667969 30 6.5 30 L 25.5 30 C 26.332031 30 27 29.332031 27 28.5 L 27 9 Z M 20 2 "/>
<path style=" stroke:none;fill-rule:nonzero;fill:rgb(100%,100%,100%);fill-opacity:0.4;" d="M 6.5 2 C 5.667969 2 5 2.667969 5 3.5 L 5 4 C 5 3.167969 5.667969 2.5 6.5 2.5 L 20 2.5 L 27 9.5 L 27 9 L 20 2 Z M 6.5 2 "/>
<path style=" stroke:none;fill-rule:nonzero;fill:rgb(0%,0%,0%);fill-opacity:0.2;" d="M 5 28.492188 L 5 29.25 C 5 30.082031 5.667969 30.75 6.5 30.75 L 25.5 30.75 C 26.332031 30.75 27 30.082031 27 29.25 L 27 28.492188 C 27 29.324219 26.332031 29.992188 25.5 29.992188 L 6.5 29.992188 C 5.667969 29.992188 5 29.324219 5 28.492188 Z M 5 28.492188 "/>
<path style=" stroke:none;fill-rule:nonzero;fill:rgb(0%,0%,0%);fill-opacity:0.4;" d="M 5 28.0625 L 5 28.5 C 5 29.332031 5.667969 30 6.5 30 L 25.5 30 C 26.332031 30 27 29.332031 27 28.5 L 27 28.0625 C 27 28.894531 26.332031 29.5625 25.5 29.5625 L 6.5 29.5625 C 5.667969 29.5625 5 28.894531 5 28.0625 Z M 5 28.0625 "/>
<path style=" stroke:none;fill-rule:nonzero;fill:rgb(100%,100%,100%);fill-opacity:0.4;" d="M 21 2 L 21.5 2.5 L 25 2.5 C 26.109375 2.5 27 3.390625 27 4.5 L 27 4 C 27 2.890625 26.109375 2 25 2 Z M 21 2 "/>
<path style=" stroke:none;fill-rule:nonzero;fill:rgb(0.784314%,0.784314%,0.784314%);fill-opacity:0.4;" d="M 21 2 L 27 8 L 27 7.5 L 21.5 2 Z M 21 2 "/>
<path style=" stroke:none;fill-rule:nonzero;fill:rgb(93.333334%,93.333334%,93.333334%);fill-opacity:0.996078;" d="M 8 4 C 7.445312 4 7 4.445312 7 5 L 7 27 C 7 27.554688 7.445312 28 8 28 L 24 28 C 24.554688 28 25 27.554688 25 27 L 25 10 L 19 4 Z M 8 4 "/>
<path style=" stroke:none;fill-rule:nonzero;fill:rgb(100%,100%,100%);fill-opacity:0.8;" d="M 8 4 C 7.445312 4 7 4.445312 7 5 L 7 5.5 C 7 4.945312 7.445312 4.5 8 4.5 L 19 4.5 L 25 10.5 L 25 10 L 19 4 Z M 8 4 "/>
<path style=" stroke:none;fill-rule:nonzero;fill:rgb(5.490196%,5.490196%,5.490196%);fill-opacity:0.4;" d="M 7 27 L 7 27.5 C 7 28.054688 7.445312 28.5 8 28.5 L 24 28.5 C 24.554688 28.5 25 28.054688 25 27.5 L 25 27 C 25 27.554688 24.554688 28 24 28 L 8 28 C 7.445312 28 7 27.554688 7 27 Z M 7 27 "/>
<path style=" stroke:none;fill-rule:nonzero;fill:rgb(100%,100%,100%);fill-opacity:0.8;" d="M 8 4 C 7.445312 4 7 4.445312 7 5 L 7 5.5 C 7 4.945312 7.445312 4.5 8 4.5 L 19 4.5 L 25 10.5 L 25 10 L 19 4 Z M 8 4 "/>
<path style=" stroke:none;fill-rule:nonzero;fill:rgb(49.411765%,34.117648%,76.078433%);fill-opacity:1;" d="M 11.5 10 C 11.222656 10 11 10.222656 11 10.5 C 11 10.777344 11.222656 11 11.5 11 L 20.5 11 C 20.777344 11 21 10.777344 21 10.5 C 21 10.222656 20.777344 10 20.5 10 Z M 11.5 12 C 11.222656 12 11 12.222656 11 12.5 C 11 12.777344 11.222656 13 11.5 13 L 20.5 13 C 20.777344 13 21 12.777344 21 12.5 C 21 12.222656 20.777344 12 20.5 12 Z M 11.5 14 C 11.222656 14 11 14.222656 11 14.5 C 11 14.777344 11.222656 15 11.5 15 L 20.5 15 C 20.777344 15 21 14.777344 21 14.5 C 21 14.222656 20.777344 14 20.5 14 Z M 11.5 16 C 11.222656 16 11 16.222656 11 16.5 C 11 16.777344 11.222656 17 11.5 17 L 20.5 17 C 20.777344 17 21 16.777344 21 16.5 C 21 16.222656 20.777344 16 20.5 16 Z M 11.5 18 C 11.222656 18 11 18.222656 11 18.5 C 11 18.777344 11.222656 19 11.5 19 L 20.5 19 C 20.777344 19 21 18.777344 21 18.5 C 21 18.222656 20.777344 18 20.5 18 Z M 11.5 20 C 11.222656 20 11 20.222656 11 20.5 C 11 20.777344 11.222656 21 11.5 21 L 20.5 21 C 20.777344 21 21 20.777344 21 20.5 C 21 20.222656 20.777344 20 20.5 20 Z M 11.5 20 "/>
<path style=" stroke:none;fill-rule:nonzero;fill:rgb(0%,0%,0%);fill-opacity:0.4;" d="M 11.5 10 C 11.222656 10 11 10.222656 11 10.5 C 11 10.542969 11.007812 10.578125 11.015625 10.617188 C 11.003906 10.660156 11 10.699219 11 10.742188 C 11 10.785156 11.007812 10.824219 11.015625 10.863281 C 11.070312 10.644531 11.265625 10.484375 11.5 10.484375 L 20.5 10.484375 C 20.734375 10.484375 20.929688 10.644531 20.984375 10.863281 C 20.992188 10.824219 21 10.785156 21 10.742188 C 21 10.699219 20.996094 10.65625 20.984375 10.617188 C 20.992188 10.578125 21 10.542969 21 10.5 C 21 10.222656 20.777344 10 20.5 10 Z M 11.429688 10.25 C 11.421875 10.25 11.414062 10.25 11.40625 10.25 C 11.414062 10.25 11.421875 10.25 11.429688 10.25 Z M 20.570312 10.25 C 20.578125 10.25 20.585938 10.25 20.59375 10.25 C 20.585938 10.25 20.578125 10.25 20.570312 10.25 Z M 11.273438 10.296875 C 11.261719 10.300781 11.253906 10.308594 11.242188 10.3125 C 11.253906 10.308594 11.261719 10.300781 11.273438 10.296875 Z M 11.203125 10.34375 C 11.195312 10.347656 11.1875 10.351562 11.183594 10.355469 C 11.1875 10.351562 11.195312 10.347656 11.203125 10.34375 Z M 20.796875 10.34375 C 20.804688 10.347656 20.8125 10.351562 20.816406 10.355469 C 20.8125 10.351562 20.804688 10.347656 20.796875 10.34375 Z M 11.140625 10.398438 C 11.132812 10.402344 11.128906 10.410156 11.125 10.414062 C 11.128906 10.410156 11.132812 10.402344 11.140625 10.398438 Z M 20.859375 10.398438 C 20.867188 10.402344 20.871094 10.410156 20.875 10.414062 C 20.871094 10.410156 20.867188 10.402344 20.859375 10.398438 Z M 11.5 12 C 11.222656 12 11 12.222656 11 12.5 C 11 12.542969 11.007812 12.578125 11.015625 12.617188 C 11.003906 12.660156 11 12.699219 11 12.742188 C 11 12.785156 11.007812 12.824219 11.015625 12.863281 C 11.070312 12.644531 11.265625 12.484375 11.5 12.484375 L 20.5 12.484375 C 20.734375 12.484375 20.929688 12.644531 20.984375 12.863281 C 20.992188 12.824219 21 12.785156 21 12.742188 C 21 12.699219 20.996094 12.65625 20.984375 12.617188 C 20.992188 12.578125 21 12.542969 21 12.5 C 21 12.222656 20.777344 12 20.5 12 Z M 11.429688 12.25 C 11.421875 12.25 11.414062 12.25 11.40625 12.25 C 11.414062 12.25 11.421875 12.25 11.429688 12.25 Z M 20.570312 12.25 C 20.578125 12.25 20.585938 12.25 20.59375 12.25 C 20.585938 12.25 20.578125 12.25 20.570312 12.25 Z M 11.273438 12.296875 C 11.261719 12.300781 11.253906 12.308594 11.242188 12.3125 C 11.253906 12.308594 11.261719 12.300781 11.273438 12.296875 Z M 11.203125 12.34375 C 11.195312 12.347656 11.1875 12.351562 11.183594 12.355469 C 11.1875 12.351562 11.195312 12.347656 11.203125 12.34375 Z M 20.796875 12.34375 C 20.804688 12.347656 20.8125 12.351562 20.816406 12.355469 C 20.8125 12.351562 20.804688 12.347656 20.796875 12.34375 Z M 11.140625 12.398438 C 11.132812 12.402344 11.128906 12.410156 11.125 12.414062 C 11.128906 12.410156 11.132812 12.402344 11.140625 12.398438 Z M 20.859375 12.398438 C 20.867188 12.402344 20.871094 12.410156 20.875 12.414062 C 20.871094 12.410156 20.867188 12.402344 20.859375 12.398438 Z M 11.5 14 C 11.222656 14 11 14.222656 11 14.5 C 11 14.542969 11.007812 14.578125 11.015625 14.617188 C 11.003906 14.660156 11 14.699219 11 14.742188 C 11 14.785156 11.007812 14.824219 11.015625 14.863281 C 11.070312 14.644531 11.265625 14.484375 11.5 14.484375 L 20.5 14.484375 C 20.734375 14.484375 20.929688 14.644531 20.984375 14.863281 C 20.992188 14.824219 21 14.785156 21 14.742188 C 21 14.699219 20.996094 14.65625 20.984375 14.617188 C 20.992188 14.578125 21 14.542969 21 14.5 C 21 14.222656 20.777344 14 20.5 14 Z M 11.429688 14.25 C 11.421875 14.25 11.414062 14.25 11.40625 14.25 C 11.414062 14.25 11.421875 14.25 11.429688 14.25 Z M 20.570312 14.25 C 20.578125 14.25 20.585938 14.25 20.59375 14.25 C 20.585938 14.25 20.578125 14.25 20.570312 14.25 Z M 11.273438 14.296875 C 11.261719 14.300781 11.253906 14.308594 11.242188 14.3125 C 11.253906 14.308594 11.261719 14.300781 11.273438 14.296875 Z M 11.203125 14.34375 C 11.195312 14.347656 11.1875 14.351562 11.183594 14.355469 C 11.1875 14.351562 11.195312 14.347656 11.203125 14.34375 Z M 20.796875 14.34375 C 20.804688 14.347656 20.8125 14.351562 20.816406 14.355469 C 20.8125 14.351562 20.804688 14.347656 20.796875 14.34375 Z M 11.140625 14.398438 C 11.132812 14.402344 11.128906 14.410156 11.125 14.414062 C 11.128906 14.410156 11.132812 14.402344 11.140625 14.398438 Z M 20.859375 14.398438 C 20.867188 14.402344 20.871094 14.410156 20.875 14.414062 C 20.871094 14.410156 20.867188 14.402344 20.859375 14.398438 Z M 11.5 16 C 11.222656 16 11 16.222656 11 16.5 C 11 16.542969 11.007812 16.578125 11.015625 16.617188 C 11.003906 16.660156 11 16.699219 11 16.742188 C 11 16.785156 11.007812 16.824219 11.015625 16.863281 C 11.070312 16.644531 11.265625 16.484375 11.5 16.484375 L 20.5 16.484375 C 20.734375 16.484375 20.929688 16.644531 20.984375 16.863281 C 20.992188 16.824219 21 16.785156 21 16.742188 C 21 16.699219 20.996094 16.65625 20.984375 16.617188 C 20.992188 16.578125 21 16.542969 21 16.5 C 21 16.222656 20.777344 16 20.5 16 Z M 11.429688 16.25 C 11.421875 16.25 11.414062 16.25 11.40625 16.25 C 11.414062 16.25 11.421875 16.25 11.429688 16.25 Z M 20.570312 16.25 C 20.578125 16.25 20.585938 16.25 20.59375 16.25 C 20.585938 16.25 20.578125 16.25 20.570312 16.25 Z M 11.273438 16.296875 C 11.261719 16.300781 11.253906 16.308594 11.242188 16.3125 C 11.253906 16.308594 11.261719 16.300781 11.273438 16.296875 Z M 11.203125 16.34375 C 11.195312 16.347656 11.1875 16.351562 11.183594 16.355469 C 11.1875 16.351562 11.195312 16.347656 11.203125 16.34375 Z M 20.796875 16.34375 C 20.804688 16.347656 20.8125 16.351562 20.816406 16.355469 C 20.8125 16.351562 20.804688 16.347656 20.796875 16.34375 Z M 11.140625 16.398438 C 11.132812 16.402344 11.128906 16.410156 11.125 16.414062 C 11.128906 16.410156 11.132812 16.402344 11.140625 16.398438 Z M 20.859375 16.398438 C 20.867188 16.402344 20.871094 16.410156 20.875 16.414062 C 20.871094 16.410156 20.867188 16.402344 20.859375 16.398438 Z M 11.5 18 C 11.222656 18 11 18.222656 11 18.5 C 11 18.542969 11.007812 18.578125 11.015625 18.617188 C 11.003906 18.660156 11 18.699219 11 18.742188 C 11 18.785156 11.007812 18.824219 11.015625 18.863281 C 11.070312 18.644531 11.265625 18.484375 11.5 18.484375 L 20.5 18.484375 C 20.734375 18.484375 20.929688 18.644531 20.984375 18.863281 C 20.992188 18.824219 21 18.785156 21 18.742188 C 21 18.699219 20.996094 18.65625 20.984375 18.617188 C 20.992188 18.578125 21 18.542969 21 18.5 C 21 18.222656 20.777344 18 20.5 18 Z M 11.429688 18.25 C 11.421875 18.25 11.414062 18.25 11.40625 18.25 C 11.414062 18.25 11.421875 18.25 11.429688 18.25 Z M 20.570312 18.25 C 20.578125 18.25 20.585938 18.25 20.59375 18.25 C 20.585938 18.25 20.578125 18.25 20.570312 18.25 Z M 11.273438 18.296875 C 11.261719 18.300781 11.253906 18.308594 11.242188 18.3125 C 11.253906 18.308594 11.261719 18.300781 11.273438 18.296875 Z M 11.203125 18.34375 C 11.195312 18.347656 11.1875 18.351562 11.183594 18.355469 C 11.1875 18.351562 11.195312 18.347656 11.203125 18.34375 Z M 20.796875 18.34375 C 20.804688 18.347656 20.8125 18.351562 20.816406 18.355469 C 20.8125 18.351562 20.804688 18.347656 20.796875 18.34375 Z M 11.140625 18.398438 C 11.132812 18.402344 11.128906 18.410156 11.125 18.414062 C 11.128906 18.410156 11.132812 18.402344 11.140625 18.398438 Z M 20.859375 18.398438 C 20.867188 18.402344 20.871094 18.410156 20.875 18.414062 C 20.871094 18.410156 20.867188 18.402344 20.859375 18.398438 Z M 11.5 20 C 11.222656 20 11 20.222656 11 20.5 C 11 20.542969 11.007812 20.578125 11.015625 20.617188 C 11.003906 20.660156 11 20.699219 11 20.742188 C 11 20.785156 11.007812 20.824219 11.015625 20.863281 C 11.070312 20.644531 11.265625 20.484375 11.5 20.484375 L 20.5 20.484375 C 20.734375 20.484375 20.929688 20.644531 20.984375 20.863281 C 20.992188 20.824219 21 20.785156 21 20.742188 C 21 20.699219 20.996094 20.65625 20.984375 20.617188 C 20.992188 20.578125 21 20.542969 21 20.5 C 21 20.222656 20.777344 20 20.5 20 Z M 11.429688 20.25 C 11.421875 20.25 11.414062 20.25 11.40625 20.25 C 11.414062 20.25 11.421875 20.25 11.429688 20.25 Z M 20.570312 20.25 C 20.578125 20.25 20.585938 20.25 20.59375 20.25 C 20.585938 20.25 20.578125 20.25 20.570312 20.25 Z M 11.273438 20.296875 C 11.261719 20.300781 11.253906 20.308594 11.242188 20.3125 C 11.253906 20.308594 11.261719 20.300781 11.273438 20.296875 Z M 11.203125 20.34375 C 11.195312 20.347656 11.1875 20.351562 11.183594 20.355469 C 11.1875 20.351562 11.195312 20.347656 11.203125 20.34375 Z M 20.796875 20.34375 C 20.804688 20.347656 20.8125 20.351562 20.816406 20.355469 C 20.8125 20.351562 20.804688 20.347656 20.796875 20.34375 Z M 11.140625 20.398438 C 11.132812 20.402344 11.128906 20.410156 11.125 20.414062 C 11.128906 20.410156 11.132812 20.402344 11.140625 20.398438 Z M 20.859375 20.398438 C 20.867188 20.402344 20.871094 20.410156 20.875 20.414062 C 20.871094 20.410156 20.867188 20.402344 20.859375 20.398438 Z M 20.859375 20.398438 "/>
<path style=" stroke:none;fill-rule:nonzero;fill:rgb(100%,100%,100%);fill-opacity:0.8;" d="M 11.015625 10.625 C 11.007812 10.664062 11 10.703125 11 10.742188 C 11 10.785156 11.007812 10.828125 11.015625 10.867188 C 11.007812 10.902344 11 10.941406 11 10.984375 C 11 11.261719 11.222656 11.484375 11.5 11.484375 L 20.5 11.484375 C 20.777344 11.484375 21 11.261719 21 10.984375 C 21 10.941406 20.992188 10.902344 20.984375 10.867188 C 20.992188 10.828125 21 10.785156 21 10.742188 C 21 10.703125 20.992188 10.664062 20.984375 10.625 C 20.929688 10.839844 20.734375 11 20.5 11 L 11.5 11 C 11.265625 11 11.070312 10.839844 11.015625 10.625 Z M 11.015625 12.625 C 11.007812 12.664062 11 12.703125 11 12.742188 C 11 12.785156 11.007812 12.828125 11.015625 12.867188 C 11.007812 12.902344 11 12.941406 11 12.984375 C 11 13.261719 11.222656 13.484375 11.5 13.484375 L 20.5 13.484375 C 20.777344 13.484375 21 13.261719 21 12.984375 C 21 12.941406 20.992188 12.902344 20.984375 12.867188 C 20.992188 12.828125 21 12.785156 21 12.742188 C 21 12.703125 20.992188 12.664062 20.984375 12.625 C 20.929688 12.839844 20.734375 13 20.5 13 L 11.5 13 C 11.265625 13 11.070312 12.839844 11.015625 12.625 Z M 11.015625 14.625 C 11.007812 14.664062 11 14.703125 11 14.742188 C 11 14.785156 11.007812 14.828125 11.015625 14.867188 C 11.007812 14.902344 11 14.941406 11 14.984375 C 11 15.261719 11.222656 15.484375 11.5 15.484375 L 20.5 15.484375 C 20.777344 15.484375 21 15.261719 21 14.984375 C 21 14.941406 20.992188 14.902344 20.984375 14.867188 C 20.992188 14.828125 21 14.785156 21 14.742188 C 21 14.703125 20.992188 14.664062 20.984375 14.625 C 20.929688 14.839844 20.734375 15 20.5 15 L 11.5 15 C 11.265625 15 11.070312 14.839844 11.015625 14.625 Z M 11.015625 16.625 C 11.007812 16.664062 11 16.703125 11 16.742188 C 11 16.785156 11.007812 16.828125 11.015625 16.867188 C 11.007812 16.902344 11 16.941406 11 16.984375 C 11 17.261719 11.222656 17.484375 11.5 17.484375 L 20.5 17.484375 C 20.777344 17.484375 21 17.261719 21 16.984375 C 21 16.941406 20.992188 16.902344 20.984375 16.867188 C 20.992188 16.828125 21 16.785156 21 16.742188 C 21 16.703125 20.992188 16.664062 20.984375 16.625 C 20.929688 16.839844 20.734375 17 20.5 17 L 11.5 17 C 11.265625 17 11.070312 16.839844 11.015625 16.625 Z M 11.015625 18.625 C 11.007812 18.664062 11 18.703125 11 18.742188 C 11 18.785156 11.007812 18.828125 11.015625 18.867188 C 11.007812 18.902344 11 18.941406 11 18.984375 C 11 19.261719 11.222656 19.484375 11.5 19.484375 L 20.5 19.484375 C 20.777344 19.484375 21 19.261719 21 18.984375 C 21 18.941406 20.992188 18.902344 20.984375 18.867188 C 20.992188 18.828125 21 18.785156 21 18.742188 C 21 18.703125 20.992188 18.664062 20.984375 18.625 C 20.929688 18.839844 20.734375 19 20.5 19 L 11.5 19 C 11.265625 19 11.070312 18.839844 11.015625 18.625 Z M 11.015625 20.625 C 11.007812 20.664062 11 20.703125 11 20.742188 C 11 20.785156 11.007812 20.828125 11.015625 20.867188 C 11.007812 20.902344 11 20.941406 11 20.984375 C 11 21.261719 11.222656 21.484375 11.5 21.484375 L 20.5 21.484375 C 20.777344 21.484375 21 21.261719 21 20.984375 C 21 20.941406 20.992188 20.902344 20.984375 20.867188 C 20.992188 20.828125 21 20.785156 21 20.742188 C 21 20.703125 20.992188 20.664062 20.984375 20.625 C 20.929688 20.839844 20.734375 21 20.5 21 L 11.5 21 C 11.265625 21 11.070312 20.839844 11.015625 20.625 Z M 11.015625 20.625 "/>
<path style=" stroke:none;fill-rule:nonzero;fill:url(#linear0);" d="M 6.5 2 C 5.667969 2 5 2.667969 5 3.5 L 5 28.5 C 5 29.332031 5.667969 30 6.5 30 L 25.5 30 C 26.332031 30 27 29.332031 27 28.5 L 27 9 L 20 2 Z M 21 2 L 27 8 L 27 4 C 27 2.890625 26.109375 2 25 2 Z M 21 2 "/>
</g>
</svg>
