
<svg xmlns="http://www.w3.org/2000/svg" xmlns:xlink="http://www.w3.org/1999/xlink" width="32" height="32" viewBox="0 0 32 32" version="1.1">
<defs>
<linearGradient id="linear0" gradientUnits="userSpaceOnUse" x1="8.466666" y1="-199.125" x2="8.466666" y2="-213.941666" gradientTransform="matrix(1.889764,0,0,1.889764,0,406.299234)">
<stop offset="0" style="stop-color:rgb(0%,0%,0%);stop-opacity:0.2;"/>
<stop offset="1" style="stop-color:rgb(100%,100%,100%);stop-opacity:0;"/>
</linearGradient>
</defs>
<g id="surface1">
<path style=" stroke:none;fill-rule:nonzero;fill:rgb(93.333334%,93.333334%,93.333334%);fill-opacity:1;" d="M 7 2 L 25 2 C 26.105469 2 27 2.894531 27 4 L 27 28 C 27 29.105469 26.105469 30 25 30 L 7 30 C 5.894531 30 5 29.105469 5 28 L 5 4 C 5 2.894531 5.894531 2 7 2 Z M 7 2 "/>
<path style=" stroke:none;fill-rule:nonzero;fill:rgb(45.882353%,45.882353%,45.882353%);fill-opacity:1;" d="M 7 3 L 25 3 C 25.550781 3 26 3.449219 26 4 L 26 28 C 26 28.550781 25.550781 29 25 29 L 7 29 C 6.449219 29 6 28.550781 6 28 L 6 4 C 6 3.449219 6.449219 3 7 3 Z M 7 3 "/>
<path style=" stroke:none;fill-rule:nonzero;fill:rgb(99.607843%,99.607843%,99.607843%);fill-opacity:0.6;" d="M 7 2 C 5.890625 2 5 2.890625 5 4 L 5 4.492188 C 5 3.386719 5.890625 2.492188 7 2.492188 L 25 2.492188 C 26.109375 2.492188 27 3.386719 27 4.492188 L 27 4 C 27 2.890625 26.109375 2 25 2 Z M 7 2 "/>
<path style=" stroke:none;fill-rule:nonzero;fill:rgb(0.784314%,0.784314%,0.784314%);fill-opacity:0.4;" d="M 7 29.996094 C 5.890625 29.996094 5 29.101562 5 27.996094 L 5 27.5 C 5 28.609375 5.890625 29.5 7 29.5 L 25 29.5 C 26.109375 29.5 27 28.609375 27 27.5 L 27 27.996094 C 27 29.101562 26.109375 29.996094 25 29.996094 Z M 7 29.996094 "/>
<path style=" stroke:none;fill-rule:nonzero;fill:rgb(0%,0%,0%);fill-opacity:0.2;" d="M 5 28 L 5 28.75 C 5 29.859375 5.890625 30.75 7 30.75 L 25 30.75 C 26.109375 30.75 27 29.859375 27 28.75 L 27 28 C 27 29.109375 26.109375 30 25 30 L 7 30 C 5.890625 30 5 29.109375 5 28 Z M 5 28 "/>
<path style=" stroke:none;fill-rule:nonzero;fill:rgb(87.843138%,87.843138%,87.843138%);fill-opacity:1;" d="M 8 3.992188 L 24 3.992188 C 24.550781 3.992188 25 4.441406 25 4.992188 L 25 10 C 25 10.550781 24.550781 11 24 11 L 8 11 C 7.449219 11 7 10.550781 7 10 L 7 4.992188 C 7 4.441406 7.449219 3.992188 8 3.992188 Z M 8 3.992188 "/>
<path style=" stroke:none;fill-rule:nonzero;fill:rgb(38.039216%,38.039216%,38.039216%);fill-opacity:1;" d="M 13.5 9 L 18.5 9 C 18.777344 9 19 9.222656 19 9.5 C 19 9.777344 18.777344 10 18.5 10 L 13.5 10 C 13.222656 10 13 9.777344 13 9.5 C 13 9.222656 13.222656 9 13.5 9 Z M 13.5 9 "/>
<path style=" stroke:none;fill-rule:nonzero;fill:rgb(100%,100%,100%);fill-opacity:0.4;" d="M 13.027344 9.617188 C 13.015625 9.578125 13 9.539062 13 9.492188 C 13 9.214844 13.222656 8.992188 13.5 8.992188 L 18.5 8.992188 C 18.777344 8.992188 19 9.214844 19 9.492188 C 19 9.539062 18.984375 9.578125 18.976562 9.617188 C 18.917969 9.402344 18.734375 9.242188 18.5 9.242188 L 13.5 9.242188 C 13.265625 9.242188 13.082031 9.402344 13.027344 9.617188 Z M 13.027344 9.617188 "/>
<path style=" stroke:none;fill-rule:nonzero;fill:rgb(0%,0%,0%);fill-opacity:0.4;" d="M 13.027344 9.617188 C 13.015625 9.660156 13 9.699219 13 9.742188 C 13 10.019531 13.222656 10.242188 13.5 10.242188 L 18.5 10.242188 C 18.777344 10.242188 19 10.019531 19 9.742188 C 19 9.699219 18.984375 9.660156 18.976562 9.617188 C 18.917969 9.832031 18.734375 9.992188 18.5 9.992188 L 13.5 9.992188 C 13.265625 9.992188 13.082031 9.832031 13.027344 9.617188 Z M 13.027344 9.617188 "/>
<path style=" stroke:none;fill-rule:nonzero;fill:rgb(0%,0%,0%);fill-opacity:0.4;" d="M 8 11.46875 C 7.445312 11.46875 7 11.023438 7 10.46875 L 7 10 C 7 10.554688 7.445312 11 8 11 L 24 11 C 24.554688 11 25 10.554688 25 10 L 25 10.46875 C 25 11.023438 24.554688 11.46875 24 11.46875 Z M 8 11.46875 "/>
<path style=" stroke:none;fill-rule:nonzero;fill:rgb(87.843138%,87.843138%,87.843138%);fill-opacity:1;" d="M 8 21 L 24 21 C 24.550781 21 25 21.449219 25 22 L 25 27.007812 C 25 27.558594 24.550781 28.007812 24 28.007812 L 8 28.007812 C 7.449219 28.007812 7 27.558594 7 27.007812 L 7 22 C 7 21.449219 7.449219 21 8 21 Z M 8 21 "/>
<path style=" stroke:none;fill-rule:nonzero;fill:rgb(38.039216%,38.039216%,38.039216%);fill-opacity:1;" d="M 13.5 26.007812 L 18.5 26.007812 C 18.777344 26.007812 19 26.230469 19 26.507812 C 19 26.785156 18.777344 27.007812 18.5 27.007812 L 13.5 27.007812 C 13.222656 27.007812 13 26.785156 13 26.507812 C 13 26.230469 13.222656 26.007812 13.5 26.007812 Z M 13.5 26.007812 "/>
<path style=" stroke:none;fill-rule:nonzero;fill:rgb(100%,100%,100%);fill-opacity:0.4;" d="M 13.027344 26.625 C 13.015625 26.585938 13 26.546875 13 26.5 C 13 26.222656 13.222656 26 13.5 26 L 18.5 26 C 18.777344 26 19 26.222656 19 26.5 C 19 26.546875 18.984375 26.585938 18.976562 26.625 C 18.917969 26.410156 18.734375 26.25 18.5 26.25 L 13.5 26.25 C 13.265625 26.25 13.082031 26.410156 13.027344 26.625 Z M 13.027344 26.625 "/>
<path style=" stroke:none;fill-rule:nonzero;fill:rgb(0%,0%,0%);fill-opacity:0.4;" d="M 13.027344 26.625 C 13.015625 26.667969 13 26.707031 13 26.75 C 13 27.027344 13.222656 27.25 13.5 27.25 L 18.5 27.25 C 18.777344 27.25 19 27.027344 19 26.75 C 19 26.707031 18.984375 26.667969 18.976562 26.625 C 18.917969 26.839844 18.734375 27 18.5 27 L 13.5 27 C 13.265625 27 13.082031 26.839844 13.027344 26.625 Z M 13.027344 26.625 "/>
<path style=" stroke:none;fill-rule:nonzero;fill:rgb(0%,0%,0%);fill-opacity:0.4;" d="M 8 28.476562 C 7.445312 28.476562 7 28.03125 7 27.476562 L 7 27.007812 C 7 27.5625 7.445312 28.007812 8 28.007812 L 24 28.007812 C 24.554688 28.007812 25 27.5625 25 27.007812 L 25 27.476562 C 25 28.03125 24.554688 28.476562 24 28.476562 Z M 8 28.476562 "/>
<path style=" stroke:none;fill-rule:nonzero;fill:rgb(87.843138%,87.843138%,87.843138%);fill-opacity:1;" d="M 8 12.5 L 24 12.5 C 24.550781 12.5 25 12.949219 25 13.5 L 25 18.507812 C 25 19.058594 24.550781 19.507812 24 19.507812 L 8 19.507812 C 7.449219 19.507812 7 19.058594 7 18.507812 L 7 13.5 C 7 12.949219 7.449219 12.5 8 12.5 Z M 8 12.5 "/>
<path style=" stroke:none;fill-rule:nonzero;fill:rgb(38.039216%,38.039216%,38.039216%);fill-opacity:1;" d="M 13.5 17.507812 L 18.5 17.507812 C 18.777344 17.507812 19 17.730469 19 18.007812 C 19 18.285156 18.777344 18.507812 18.5 18.507812 L 13.5 18.507812 C 13.222656 18.507812 13 18.285156 13 18.007812 C 13 17.730469 13.222656 17.507812 13.5 17.507812 Z M 13.5 17.507812 "/>
<path style=" stroke:none;fill-rule:nonzero;fill:rgb(100%,100%,100%);fill-opacity:0.4;" d="M 13.027344 18.125 C 13.015625 18.085938 13 18.046875 13 18 C 13 17.722656 13.222656 17.5 13.5 17.5 L 18.5 17.5 C 18.777344 17.5 19 17.722656 19 18 C 19 18.046875 18.984375 18.085938 18.976562 18.125 C 18.917969 17.910156 18.734375 17.75 18.5 17.75 L 13.5 17.75 C 13.265625 17.75 13.082031 17.910156 13.027344 18.125 Z M 13.027344 18.125 "/>
<path style=" stroke:none;fill-rule:nonzero;fill:rgb(0%,0%,0%);fill-opacity:0.4;" d="M 13.027344 18.125 C 13.015625 18.167969 13 18.207031 13 18.25 C 13 18.527344 13.222656 18.75 13.5 18.75 L 18.5 18.75 C 18.777344 18.75 19 18.527344 19 18.25 C 19 18.207031 18.984375 18.167969 18.976562 18.125 C 18.917969 18.339844 18.734375 18.5 18.5 18.5 L 13.5 18.5 C 13.265625 18.5 13.082031 18.339844 13.027344 18.125 Z M 13.027344 18.125 "/>
<path style=" stroke:none;fill-rule:nonzero;fill:rgb(0%,0%,0%);fill-opacity:0.4;" d="M 8 19.976562 C 7.445312 19.976562 7 19.53125 7 18.976562 L 7 18.507812 C 7 19.0625 7.445312 19.507812 8 19.507812 L 24 19.507812 C 24.554688 19.507812 25 19.0625 25 18.507812 L 25 18.976562 C 25 19.53125 24.554688 19.976562 24 19.976562 Z M 8 19.976562 "/>
<path style=" stroke:none;fill-rule:nonzero;fill:rgb(0%,0%,0%);fill-opacity:0.2;" d="M 7 3 C 6.445312 3 6 3.445312 6 4 L 6 4.25 C 6 3.695312 6.445312 3.25 7 3.25 L 25 3.25 C 25.554688 3.25 26 3.695312 26 4.25 L 26 4 C 26 3.445312 25.554688 3 25 3 Z M 7 3 "/>
<path style=" stroke:none;fill-rule:nonzero;fill:rgb(100%,100%,100%);fill-opacity:0.6;" d="M 7 29.25 C 6.445312 29.25 6 28.804688 6 28.25 L 6 28 C 6 28.554688 6.445312 29 7 29 L 25 29 C 25.554688 29 26 28.554688 26 28 L 26 28.25 C 26 28.804688 25.554688 29.25 25 29.25 Z M 7 29.25 "/>
<path style=" stroke:none;fill-rule:nonzero;fill:rgb(100%,100%,100%);fill-opacity:0.6;" d="M 8 3.992188 C 7.445312 3.992188 7 4.4375 7 4.992188 L 7 5.5 C 7 4.945312 7.445312 4.5 8 4.5 L 24 4.5 C 24.554688 4.5 25 4.945312 25 5.5 L 25 4.992188 C 25 4.4375 24.554688 3.992188 24 3.992188 Z M 8 3.992188 "/>
<path style=" stroke:none;fill-rule:nonzero;fill:rgb(100%,100%,100%);fill-opacity:0.6;" d="M 8 12.492188 C 7.445312 12.492188 7 12.9375 7 13.492188 L 7 14 C 7 13.445312 7.445312 13 8 13 L 24 13 C 24.554688 13 25 13.445312 25 14 L 25 13.492188 C 25 12.9375 24.554688 12.492188 24 12.492188 Z M 8 12.492188 "/>
<path style=" stroke:none;fill-rule:nonzero;fill:rgb(100%,100%,100%);fill-opacity:0.6;" d="M 8 20.992188 C 7.445312 20.992188 7 21.4375 7 21.992188 L 7 22.5 C 7 21.945312 7.445312 21.5 8 21.5 L 24 21.5 C 24.554688 21.5 25 21.945312 25 22.5 L 25 21.992188 C 25 21.4375 24.554688 20.992188 24 20.992188 Z M 8 20.992188 "/>
<path style=" stroke:none;fill-rule:nonzero;fill:url(#linear0);" d="M 7 2 L 25 2 C 26.105469 2 27 2.894531 27 4 L 27 28 C 27 29.105469 26.105469 30 25 30 L 7 30 C 5.894531 30 5 29.105469 5 28 L 5 4 C 5 2.894531 5.894531 2 7 2 Z M 7 2 "/>
</g>
</svg>
