
<svg xmlns="http://www.w3.org/2000/svg" xmlns:xlink="http://www.w3.org/1999/xlink" width="32" height="32" viewBox="0 0 32 32" version="1.1">
<defs>
<linearGradient id="linear0" gradientUnits="userSpaceOnUse" x1="27.999998" y1="55.999996" x2="27.999998" y2="3.999999" gradientTransform="matrix(0.5,0,0,0.5,0.00000521575,0)">
<stop offset="0" style="stop-color:rgb(0%,0%,0%);stop-opacity:0.2;"/>
<stop offset="1" style="stop-color:rgb(100%,100%,100%);stop-opacity:0;"/>
</linearGradient>
</defs>
<g id="surface1">
<path style=" stroke:none;fill-rule:nonzero;fill:rgb(38.039216%,38.039216%,38.039216%);fill-opacity:1;" d="M 4 8 L 28 8 C 29.105469 8 30 8.894531 30 10 L 30 26 C 30 27.105469 29.105469 28 28 28 L 4 28 C 2.894531 28 2 27.105469 2 26 L 2 10 C 2 8.894531 2.894531 8 4 8 Z M 4 8 "/>
<path style=" stroke:none;fill-rule:nonzero;fill:rgb(87.843138%,87.843138%,87.843138%);fill-opacity:1;" d="M 26 15.25 C 25.933594 15.253906 25.882812 15.308594 25.882812 15.375 L 25.882812 15.625 C 25.882812 15.695312 25.941406 15.75 26.011719 15.75 C 26.078125 15.75 26.136719 15.695312 26.136719 15.625 L 26.136719 15.375 C 26.136719 15.304688 26.078125 15.25 26.011719 15.25 C 26.007812 15.25 26.003906 15.25 26 15.25 Z M 24.945312 15.535156 C 24.925781 15.535156 24.902344 15.542969 24.886719 15.550781 C 24.824219 15.585938 24.804688 15.664062 24.839844 15.722656 L 24.964844 15.9375 C 25 15.996094 25.074219 16.019531 25.136719 15.984375 C 25.195312 15.949219 25.214844 15.871094 25.179688 15.8125 L 25.054688 15.597656 C 25.03125 15.554688 24.988281 15.53125 24.945312 15.535156 Z M 27.070312 15.535156 C 27.027344 15.535156 26.988281 15.558594 26.964844 15.597656 L 26.839844 15.8125 C 26.804688 15.875 26.824219 15.949219 26.882812 15.984375 C 26.945312 16.019531 27.019531 15.996094 27.054688 15.9375 L 27.179688 15.722656 C 27.214844 15.664062 27.195312 15.585938 27.132812 15.550781 C 27.113281 15.539062 27.089844 15.53125 27.070312 15.535156 Z M 24.160156 16.3125 C 24.121094 16.3125 24.082031 16.335938 24.0625 16.375 C 24.027344 16.433594 24.046875 16.511719 24.109375 16.546875 L 24.324219 16.671875 C 24.382812 16.707031 24.460938 16.683594 24.492188 16.625 C 24.527344 16.566406 24.507812 16.488281 24.449219 16.453125 L 24.230469 16.328125 C 24.210938 16.316406 24.183594 16.308594 24.160156 16.3125 Z M 27.839844 16.3125 C 27.824219 16.3125 27.804688 16.320312 27.789062 16.328125 L 27.570312 16.453125 C 27.511719 16.488281 27.492188 16.566406 27.523438 16.625 C 27.558594 16.683594 27.636719 16.707031 27.695312 16.671875 L 27.910156 16.546875 C 27.972656 16.511719 27.992188 16.433594 27.957031 16.375 C 27.933594 16.332031 27.886719 16.308594 27.839844 16.3125 Z M 23.875 17.375 C 23.808594 17.378906 23.757812 17.433594 23.757812 17.5 C 23.757812 17.570312 23.816406 17.625 23.886719 17.625 L 24.136719 17.625 C 24.203125 17.625 24.261719 17.570312 24.261719 17.5 C 24.261719 17.429688 24.203125 17.375 24.136719 17.375 L 23.886719 17.375 C 23.882812 17.375 23.878906 17.375 23.875 17.375 Z M 27.875 17.375 C 27.808594 17.378906 27.757812 17.433594 27.757812 17.5 C 27.757812 17.570312 27.816406 17.625 27.886719 17.625 L 28.136719 17.625 C 28.203125 17.625 28.261719 17.570312 28.261719 17.5 C 28.261719 17.429688 28.203125 17.375 28.136719 17.375 L 27.886719 17.375 C 27.882812 17.375 27.878906 17.375 27.875 17.375 Z M 24.375 18.3125 C 24.359375 18.3125 24.339844 18.320312 24.324219 18.328125 L 24.109375 18.453125 C 24.046875 18.488281 24.027344 18.566406 24.0625 18.625 C 24.097656 18.683594 24.171875 18.707031 24.230469 18.671875 L 24.449219 18.546875 C 24.507812 18.511719 24.527344 18.433594 24.492188 18.375 C 24.46875 18.332031 24.421875 18.308594 24.375 18.3125 Z M 27.625 18.3125 C 27.585938 18.3125 27.546875 18.335938 27.523438 18.375 C 27.492188 18.433594 27.511719 18.511719 27.570312 18.546875 L 27.789062 18.671875 C 27.847656 18.707031 27.921875 18.683594 27.957031 18.625 C 27.992188 18.566406 27.972656 18.488281 27.910156 18.453125 L 27.695312 18.328125 C 27.671875 18.316406 27.648438 18.308594 27.625 18.3125 Z M 25.0625 19 C 25.023438 19 24.984375 19.023438 24.964844 19.0625 L 24.839844 19.277344 C 24.804688 19.335938 24.824219 19.414062 24.882812 19.449219 C 24.945312 19.484375 25.019531 19.460938 25.054688 19.402344 L 25.179688 19.1875 C 25.214844 19.125 25.195312 19.050781 25.132812 19.015625 C 25.113281 19.003906 25.085938 18.996094 25.0625 19 Z M 26.933594 19 C 26.917969 19 26.902344 19.007812 26.882812 19.015625 C 26.824219 19.050781 26.804688 19.128906 26.839844 19.1875 L 26.964844 19.402344 C 27 19.460938 27.074219 19.484375 27.132812 19.449219 C 27.195312 19.414062 27.214844 19.335938 27.179688 19.277344 L 27.054688 19.0625 C 27.03125 19.019531 26.980469 18.996094 26.933594 19 Z M 26 19.25 C 25.933594 19.253906 25.882812 19.308594 25.882812 19.375 L 25.882812 19.625 C 25.882812 19.695312 25.941406 19.75 26.011719 19.75 C 26.078125 19.75 26.136719 19.695312 26.136719 19.625 L 26.136719 19.375 C 26.136719 19.304688 26.078125 19.25 26.011719 19.25 C 26.007812 19.25 26.003906 19.25 26 19.25 Z M 26 19.25 "/>
<path style=" stroke:none;fill-rule:nonzero;fill:rgb(87.843138%,87.843138%,87.843138%);fill-opacity:0.996078;" d="M 24.527344 22.5 C 25.078125 22.5 25.527344 22.050781 25.527344 21.5 C 25.527344 20.949219 25.078125 20.5 24.527344 20.5 C 23.972656 20.5 23.527344 20.949219 23.527344 21.5 C 23.527344 22.050781 23.972656 22.5 24.527344 22.5 Z M 24.527344 22.5 "/>
<path style=" stroke:none;fill-rule:nonzero;fill:rgb(87.843138%,87.843138%,87.843138%);fill-opacity:0.996078;" d="M 27.527344 22.5 C 28.078125 22.5 28.527344 22.050781 28.527344 21.5 C 28.527344 20.949219 28.078125 20.5 27.527344 20.5 C 26.972656 20.5 26.527344 20.949219 26.527344 21.5 C 26.527344 22.050781 26.972656 22.5 27.527344 22.5 Z M 27.527344 22.5 "/>
<path style=" stroke:none;fill-rule:nonzero;fill:rgb(87.843138%,87.843138%,87.843138%);fill-opacity:0.996078;" d="M 24.527344 25.375 C 25.078125 25.375 25.527344 24.925781 25.527344 24.375 C 25.527344 23.824219 25.078125 23.375 24.527344 23.375 C 23.972656 23.375 23.527344 23.824219 23.527344 24.375 C 23.527344 24.925781 23.972656 25.375 24.527344 25.375 Z M 24.527344 25.375 "/>
<path style=" stroke:none;fill-rule:nonzero;fill:rgb(87.843138%,87.843138%,87.843138%);fill-opacity:0.996078;" d="M 27.527344 25.375 C 28.078125 25.375 28.527344 24.925781 28.527344 24.375 C 28.527344 23.824219 28.078125 23.375 27.527344 23.375 C 26.972656 23.375 26.527344 23.824219 26.527344 24.375 C 26.527344 24.925781 26.972656 25.375 27.527344 25.375 Z M 27.527344 25.375 "/>
<path style=" stroke:none;fill-rule:nonzero;fill:rgb(87.843138%,87.843138%,87.843138%);fill-opacity:0.996078;" d="M 26 16 C 26.828125 16 27.5 16.671875 27.5 17.5 C 27.5 18.328125 26.828125 19 26 19 C 25.171875 19 24.5 18.328125 24.5 17.5 C 24.5 16.671875 25.171875 16 26 16 Z M 26 16 "/>
<path style=" stroke:none;fill-rule:nonzero;fill:rgb(61.960787%,61.960787%,61.960787%);fill-opacity:0.996078;" d="M 15.558594 4.152344 C 15.539062 4.148438 15.523438 4.152344 15.503906 4.15625 L 7 5.742188 L 7 6.757812 L 15.6875 5.136719 C 15.828125 5.113281 15.917969 4.980469 15.894531 4.839844 L 15.804688 4.359375 C 15.78125 4.238281 15.675781 4.152344 15.558594 4.152344 Z M 15.558594 4.152344 "/>
<path style=" stroke:none;fill-rule:nonzero;fill:rgb(61.960787%,61.960787%,61.960787%);fill-opacity:0.996078;" d="M 26.710938 2.332031 C 26.679688 2.328125 26.644531 2.332031 26.609375 2.335938 L 7 5.996094 L 7 6.503906 L 26.703125 2.828125 C 26.839844 2.804688 26.941406 2.726562 26.929688 2.65625 L 26.886719 2.417969 C 26.875 2.363281 26.804688 2.332031 26.710938 2.328125 Z M 26.710938 2.332031 "/>
<path style=" stroke:none;fill-rule:nonzero;fill:rgb(100%,100%,100%);fill-opacity:0.4;" d="M 26.710938 2.328125 C 26.679688 2.328125 26.644531 2.332031 26.609375 2.335938 L 7 5.996094 L 7 6.25 L 26.914062 2.570312 L 26.882812 2.417969 C 26.875 2.363281 26.804688 2.332031 26.710938 2.328125 Z M 26.710938 2.328125 "/>
<path style=" stroke:none;fill-rule:nonzero;fill:rgb(74.117649%,74.117649%,74.117649%);fill-opacity:0.996078;" d="M 27.152344 2.492188 C 27.203125 2.761719 27.023438 3.023438 26.753906 3.074219 C 26.480469 3.125 26.21875 2.945312 26.167969 2.675781 C 26.117188 2.402344 26.296875 2.140625 26.570312 2.089844 C 26.839844 2.042969 27.101562 2.21875 27.152344 2.492188 Z M 27.152344 2.492188 "/>
<path style=" stroke:none;fill-rule:nonzero;fill:rgb(61.960787%,61.960787%,61.960787%);fill-opacity:0.996078;" d="M 15.558594 4.152344 C 15.539062 4.148438 15.523438 4.152344 15.503906 4.15625 L 7 5.742188 L 7 6.757812 L 15.6875 5.136719 C 15.828125 5.113281 15.917969 4.980469 15.894531 4.839844 L 15.804688 4.359375 C 15.78125 4.238281 15.675781 4.152344 15.558594 4.152344 Z M 15.558594 4.152344 "/>
<path style=" stroke:none;fill-rule:nonzero;fill:rgb(100%,100%,100%);fill-opacity:0.4;" d="M 15.554688 4.148438 C 15.539062 4.148438 15.523438 4.152344 15.503906 4.15625 L 7 5.742188 L 7 6.25 L 15.851562 4.613281 L 15.804688 4.359375 C 15.78125 4.238281 15.675781 4.152344 15.554688 4.152344 Z M 15.554688 4.148438 "/>
<path style=" stroke:none;fill-rule:nonzero;fill:rgb(74.117649%,74.117649%,74.117649%);fill-opacity:1;" d="M 7 5 C 7.550781 5 8 5.449219 8 6 L 8 9 C 8 9.550781 7.550781 10 7 10 C 6.449219 10 6 9.550781 6 9 L 6 6 C 6 5.449219 6.449219 5 7 5 Z M 7 5 "/>
<path style=" stroke:none;fill-rule:nonzero;fill:rgb(38.039216%,38.039216%,38.039216%);fill-opacity:0.988235;" d="M 5.25 7.25 L 8.5 7.25 C 8.777344 7.25 9 7.472656 9 7.75 L 9 8.75 C 9 9.027344 8.777344 9.25 8.5 9.25 L 5.25 9.25 C 4.972656 9.25 4.75 9.027344 4.75 8.75 L 4.75 7.75 C 4.75 7.472656 4.972656 7.25 5.25 7.25 Z M 5.25 7.25 "/>
<path style=" stroke:none;fill-rule:nonzero;fill:rgb(38.039216%,38.039216%,38.039216%);fill-opacity:1;" d="M 4 8 C 2.890625 8 2 8.890625 2 10 L 2 26 C 2 27.109375 2.890625 28 4 28 L 22 28 L 22 8 Z M 4 8 "/>
<path style=" stroke:none;fill-rule:nonzero;fill:rgb(0%,0%,0%);fill-opacity:0.4;" d="M 24 10 L 28 10 C 28.277344 10 28.5 10.222656 28.5 10.5 L 28.5 12.5 C 28.5 12.777344 28.277344 13 28 13 L 24 13 C 23.722656 13 23.5 12.777344 23.5 12.5 L 23.5 10.5 C 23.5 10.222656 23.722656 10 24 10 Z M 24 10 "/>
<path style=" stroke:none;fill-rule:nonzero;fill:rgb(93.333334%,93.333334%,93.333334%);fill-opacity:0.996078;" d="M 24.25 10.5 L 27.75 10.5 C 27.886719 10.5 28 10.613281 28 10.75 L 28 12.25 C 28 12.386719 27.886719 12.5 27.75 12.5 L 24.25 12.5 C 24.113281 12.5 24 12.386719 24 12.25 L 24 10.75 C 24 10.613281 24.113281 10.5 24.25 10.5 Z M 24.25 10.5 "/>
<path style=" stroke:none;fill-rule:nonzero;fill:rgb(100%,100%,100%);fill-opacity:1;" d="M 24.238281 10.5 C 24.105469 10.507812 24 10.617188 24 10.75 L 24 10.988281 C 24.007812 10.855469 24.117188 10.75 24.25 10.75 L 27.75 10.75 C 27.882812 10.75 27.992188 10.855469 28 10.988281 L 28 10.75 C 28 10.613281 27.886719 10.5 27.75 10.5 L 24.25 10.5 C 24.246094 10.5 24.242188 10.5 24.238281 10.5 Z M 24.238281 10.5 "/>
<path style=" stroke:none;fill-rule:nonzero;fill:rgb(0.784314%,0.784314%,0.784314%);fill-opacity:0.4;" d="M 24.238281 12.738281 C 24.105469 12.730469 24 12.621094 24 12.488281 L 24 12.25 C 24.007812 12.382812 24.117188 12.488281 24.25 12.488281 L 27.75 12.488281 C 27.882812 12.488281 27.992188 12.382812 28 12.25 L 28 12.488281 C 28 12.625 27.886719 12.738281 27.75 12.738281 L 24.25 12.738281 C 24.246094 12.738281 24.242188 12.738281 24.238281 12.738281 Z M 24.238281 12.738281 "/>
<path style=" stroke:none;fill-rule:nonzero;fill:rgb(95.686275%,26.274511%,21.176471%);fill-opacity:0.996078;" d="M 26.75 10.25 C 26.886719 10.25 27 10.363281 27 10.5 L 27 12.5 C 27 12.636719 26.886719 12.75 26.75 12.75 C 26.613281 12.75 26.5 12.636719 26.5 12.5 L 26.5 10.5 C 26.5 10.363281 26.613281 10.25 26.75 10.25 Z M 26.75 10.25 "/>
<path style=" stroke:none;fill-rule:nonzero;fill:rgb(74.117649%,74.117649%,74.117649%);fill-opacity:1;" d="M 12 10 C 7.566406 10 4 13.566406 4 18 C 4 22.433594 7.566406 26 12 26 C 16.433594 26 20 22.433594 20 18 C 20 13.566406 16.433594 10 12 10 Z M 12 11 C 15.878906 11 19 14.121094 19 18 C 19 21.878906 15.878906 25 12 25 C 8.121094 25 5 21.878906 5 18 C 5 14.121094 8.121094 11 12 11 Z M 12 11 "/>
<path style=" stroke:none;fill-rule:nonzero;fill:rgb(0%,0%,0%);fill-opacity:0.2;" d="M 12 14 C 15.3125 14 18 15.847656 18 18.125 C 18 20.402344 15.3125 22.25 12 22.25 C 8.6875 22.25 6 20.402344 6 18.125 C 6 15.847656 8.6875 14 12 14 Z M 12 14 "/>
<path style=" stroke:none;fill-rule:nonzero;fill:rgb(0%,0%,0%);fill-opacity:0.2;" d="M 12 11 C 8.121094 11 5 14.121094 5 18 C 5 18.089844 5 18.175781 5.003906 18.265625 C 5.003906 18.25 5.003906 18.238281 5.007812 18.226562 C 5.058594 19.933594 5.71875 21.488281 6.78125 22.671875 C 6.816406 22.710938 6.851562 22.753906 6.890625 22.792969 C 6.929688 22.832031 6.964844 22.871094 7.003906 22.910156 C 7.042969 22.949219 7.082031 22.988281 7.121094 23.027344 C 7.160156 23.066406 7.199219 23.101562 7.242188 23.140625 C 7.28125 23.179688 7.320312 23.214844 7.363281 23.25 C 7.40625 23.289062 7.445312 23.324219 7.488281 23.359375 C 7.527344 23.394531 7.570312 23.429688 7.613281 23.460938 C 7.699219 23.53125 7.789062 23.597656 7.875 23.664062 C 7.921875 23.695312 7.964844 23.726562 8.011719 23.757812 C 8.054688 23.789062 8.097656 23.816406 8.140625 23.847656 C 8.144531 23.851562 8.148438 23.851562 8.15625 23.855469 C 8.195312 23.882812 8.238281 23.910156 8.28125 23.9375 C 8.285156 23.941406 8.292969 23.945312 8.296875 23.945312 C 8.335938 23.972656 8.375 23.996094 8.414062 24.019531 C 8.425781 24.023438 8.433594 24.03125 8.445312 24.035156 C 8.476562 24.054688 8.511719 24.078125 8.546875 24.097656 C 8.570312 24.109375 8.589844 24.121094 8.609375 24.132812 C 8.640625 24.148438 8.671875 24.164062 8.699219 24.179688 C 8.710938 24.1875 8.722656 24.191406 8.734375 24.195312 C 8.773438 24.21875 8.808594 24.238281 8.847656 24.257812 C 8.863281 24.265625 8.878906 24.269531 8.890625 24.277344 C 8.933594 24.296875 8.972656 24.316406 9.015625 24.335938 C 9.0625 24.359375 9.113281 24.382812 9.160156 24.40625 C 9.171875 24.410156 9.183594 24.414062 9.195312 24.421875 C 9.226562 24.433594 9.257812 24.445312 9.289062 24.457031 C 9.324219 24.472656 9.363281 24.488281 9.402344 24.503906 C 9.414062 24.507812 9.425781 24.515625 9.4375 24.519531 C 9.480469 24.535156 9.523438 24.554688 9.570312 24.570312 C 9.578125 24.574219 9.585938 24.574219 9.59375 24.578125 C 9.625 24.589844 9.65625 24.601562 9.6875 24.609375 C 9.71875 24.621094 9.75 24.632812 9.785156 24.644531 C 9.796875 24.648438 9.808594 24.652344 9.820312 24.65625 C 9.859375 24.667969 9.902344 24.683594 9.945312 24.695312 C 9.957031 24.699219 9.964844 24.703125 9.976562 24.703125 C 10.023438 24.71875 10.066406 24.730469 10.109375 24.742188 C 10.113281 24.746094 10.113281 24.746094 10.117188 24.746094 C 10.160156 24.757812 10.203125 24.769531 10.246094 24.78125 C 10.292969 24.792969 10.335938 24.804688 10.382812 24.8125 C 10.398438 24.816406 10.414062 24.820312 10.429688 24.824219 C 10.449219 24.828125 10.46875 24.832031 10.484375 24.835938 C 10.527344 24.847656 10.570312 24.855469 10.613281 24.863281 C 10.660156 24.871094 10.710938 24.882812 10.757812 24.890625 C 10.804688 24.898438 10.855469 24.90625 10.902344 24.914062 C 10.914062 24.917969 10.929688 24.917969 10.941406 24.921875 C 10.964844 24.925781 10.988281 24.929688 11.011719 24.929688 C 11.046875 24.9375 11.082031 24.941406 11.117188 24.945312 C 11.121094 24.945312 11.121094 24.945312 11.125 24.945312 C 11.175781 24.953125 11.230469 24.957031 11.28125 24.964844 C 11.339844 24.96875 11.402344 24.976562 11.460938 24.980469 C 11.484375 24.980469 11.511719 24.984375 11.539062 24.984375 C 11.570312 24.988281 11.605469 24.988281 11.640625 24.992188 C 11.640625 24.992188 11.644531 24.992188 11.644531 24.992188 C 11.703125 24.992188 11.761719 24.996094 11.820312 25 C 11.878906 25 11.9375 25 12 25 C 12.15625 25 12.308594 24.996094 12.460938 24.984375 C 12.488281 24.984375 12.515625 24.980469 12.539062 24.980469 C 12.597656 24.976562 12.660156 24.96875 12.71875 24.964844 C 12.773438 24.957031 12.828125 24.953125 12.882812 24.945312 C 12.917969 24.941406 12.953125 24.9375 12.988281 24.929688 C 13.011719 24.929688 13.035156 24.925781 13.058594 24.921875 C 13.070312 24.917969 13.082031 24.917969 13.097656 24.914062 C 13.144531 24.90625 13.195312 24.898438 13.242188 24.890625 C 13.285156 24.882812 13.328125 24.875 13.367188 24.867188 C 13.375 24.867188 13.382812 24.863281 13.386719 24.863281 C 13.429688 24.855469 13.472656 24.847656 13.515625 24.835938 C 13.53125 24.832031 13.550781 24.828125 13.570312 24.824219 C 13.585938 24.820312 13.601562 24.816406 13.617188 24.8125 C 13.664062 24.804688 13.707031 24.792969 13.753906 24.78125 C 13.796875 24.769531 13.84375 24.757812 13.890625 24.742188 C 13.933594 24.730469 13.976562 24.71875 14.023438 24.703125 C 14.035156 24.703125 14.042969 24.699219 14.054688 24.695312 C 14.097656 24.683594 14.140625 24.667969 14.179688 24.65625 C 14.191406 24.652344 14.203125 24.648438 14.214844 24.644531 C 14.25 24.632812 14.28125 24.621094 14.3125 24.609375 C 14.34375 24.601562 14.375 24.589844 14.40625 24.578125 C 14.414062 24.574219 14.421875 24.574219 14.429688 24.570312 C 14.476562 24.554688 14.519531 24.535156 14.5625 24.519531 C 14.574219 24.515625 14.585938 24.507812 14.597656 24.503906 C 14.636719 24.488281 14.675781 24.472656 14.710938 24.457031 C 14.742188 24.445312 14.773438 24.433594 14.804688 24.421875 C 14.816406 24.414062 14.828125 24.410156 14.839844 24.40625 C 14.886719 24.382812 14.9375 24.359375 14.984375 24.335938 C 15.027344 24.316406 15.066406 24.296875 15.109375 24.277344 C 15.121094 24.269531 15.136719 24.265625 15.152344 24.257812 C 15.191406 24.238281 15.226562 24.21875 15.265625 24.195312 C 15.277344 24.191406 15.289062 24.1875 15.300781 24.179688 C 15.328125 24.164062 15.359375 24.148438 15.390625 24.132812 C 15.410156 24.121094 15.429688 24.109375 15.453125 24.097656 C 15.488281 24.078125 15.523438 24.054688 15.554688 24.035156 C 15.566406 24.03125 15.574219 24.023438 15.585938 24.019531 C 15.625 23.996094 15.664062 23.972656 15.703125 23.945312 C 15.707031 23.945312 15.714844 23.941406 15.71875 23.9375 C 15.761719 23.910156 15.804688 23.882812 15.84375 23.855469 C 15.851562 23.851562 15.855469 23.851562 15.859375 23.847656 C 15.902344 23.816406 15.945312 23.789062 15.988281 23.757812 C 16.035156 23.726562 16.078125 23.695312 16.125 23.664062 C 16.210938 23.597656 16.300781 23.53125 16.386719 23.460938 C 16.429688 23.429688 16.472656 23.394531 16.511719 23.359375 C 16.554688 23.324219 16.59375 23.289062 16.636719 23.25 C 16.679688 23.214844 16.71875 23.179688 16.757812 23.140625 C 16.800781 23.101562 16.839844 23.066406 16.878906 23.027344 C 16.917969 22.988281 16.957031 22.949219 16.996094 22.910156 C 17.035156 22.871094 17.070312 22.832031 17.109375 22.792969 C 17.148438 22.753906 17.183594 22.710938 17.21875 22.671875 C 18.28125 21.488281 18.941406 19.933594 18.992188 18.226562 C 18.996094 18.238281 18.996094 18.25 18.996094 18.265625 C 19 18.175781 19 18.089844 19 18 C 19 14.121094 15.878906 11 12 11 Z M 12 11 "/>
<path style=" stroke:none;fill-rule:nonzero;fill:rgb(74.117649%,74.117649%,74.117649%);fill-opacity:1;" d="M 7.660156 12.5 C 7.28125 12.796875 6.9375 13.132812 6.628906 13.5 L 17.371094 13.5 C 17.0625 13.132812 16.71875 12.796875 16.339844 12.5 Z M 5.929688 14.5 C 5.746094 14.816406 5.589844 15.152344 5.457031 15.5 L 18.542969 15.5 C 18.410156 15.152344 18.253906 14.816406 18.070312 14.5 Z M 5.160156 16.5 C 5.089844 16.824219 5.042969 17.160156 5.015625 17.5 L 18.984375 17.5 C 18.957031 17.160156 18.910156 16.824219 18.839844 16.5 Z M 5.015625 18.5 C 5.042969 18.839844 5.089844 19.175781 5.160156 19.5 L 18.839844 19.5 C 18.910156 19.175781 18.957031 18.839844 18.984375 18.5 Z M 5.457031 20.5 C 5.589844 20.847656 5.746094 21.183594 5.929688 21.5 L 18.070312 21.5 C 18.253906 21.183594 18.410156 20.847656 18.542969 20.5 Z M 6.628906 22.5 C 6.9375 22.867188 7.28125 23.203125 7.660156 23.5 L 16.339844 23.5 C 16.71875 23.203125 17.0625 22.867188 17.371094 22.5 Z M 6.628906 22.5 "/>
<path style=" stroke:none;fill-rule:nonzero;fill:rgb(0%,0%,0%);fill-opacity:0.4;" d="M 12 26.5 C 7.566406 26.5 4 22.933594 4 18.5 C 4 18.425781 4.003906 18.351562 4.003906 18.28125 C 4.152344 22.582031 7.660156 26 12 26 C 16.339844 26 19.847656 22.582031 19.992188 18.28125 C 19.996094 18.351562 20 18.425781 20 18.5 C 20 22.933594 16.433594 26.5 12 26.5 Z M 5.007812 18.273438 C 5.003906 18.183594 5 18.09375 5 18 C 5 14.121094 8.121094 11 12 11 C 15.878906 11 19 14.121094 19 18 C 19 18.09375 18.996094 18.183594 18.996094 18.273438 C 18.875 14.5 15.800781 11.5 12 11.5 C 8.199219 11.5 5.125 14.5 5.007812 18.273438 Z M 5.007812 18.273438 "/>
<path style=" stroke:none;fill-rule:nonzero;fill:rgb(100%,100%,100%);fill-opacity:0.4;" d="M 12 10 C 7.566406 10 4 13.566406 4 18 C 4 18.074219 4.003906 18.148438 4.003906 18.21875 C 4.152344 13.917969 7.660156 10.5 12 10.5 C 16.339844 10.5 19.847656 13.917969 19.992188 18.21875 C 19.996094 18.148438 20 18.074219 20 18 C 20 13.566406 16.433594 10 12 10 Z M 5.007812 18.226562 C 5.003906 18.316406 5 18.40625 5 18.5 C 5 22.378906 8.121094 25.5 12 25.5 C 15.878906 25.5 19 22.378906 19 18.5 C 19 18.40625 18.996094 18.316406 18.996094 18.226562 C 18.875 22 15.800781 25 12 25 C 8.199219 25 5.125 22 5.007812 18.226562 Z M 5.007812 18.226562 "/>
<path style=" stroke:none;fill-rule:nonzero;fill:rgb(100%,100%,100%);fill-opacity:0.4;" d="M 8.382812 12.5 C 8.253906 12.578125 8.125 12.664062 8 12.75 L 16 12.75 C 15.875 12.664062 15.746094 12.578125 15.617188 12.5 Z M 7.40625 12.710938 C 7.386719 12.726562 7.363281 12.75 7.34375 12.765625 C 7.363281 12.75 7.386719 12.726562 7.40625 12.710938 Z M 16.59375 12.710938 C 16.613281 12.726562 16.636719 12.75 16.65625 12.765625 C 16.636719 12.75 16.613281 12.726562 16.59375 12.710938 Z M 6.898438 13.199219 C 6.878906 13.21875 6.859375 13.242188 6.835938 13.265625 C 6.859375 13.242188 6.878906 13.21875 6.898438 13.199219 Z M 17.101562 13.199219 C 17.121094 13.21875 17.140625 13.242188 17.164062 13.265625 C 17.140625 13.242188 17.121094 13.21875 17.101562 13.199219 Z M 6.25 14.5 C 6.191406 14.582031 6.136719 14.664062 6.085938 14.75 L 17.914062 14.75 C 17.863281 14.664062 17.808594 14.582031 17.75 14.5 Z M 5.824219 14.695312 C 5.808594 14.71875 5.796875 14.746094 5.78125 14.769531 C 5.796875 14.746094 5.808594 14.71875 5.824219 14.695312 Z M 18.175781 14.695312 C 18.191406 14.71875 18.203125 14.746094 18.21875 14.769531 C 18.203125 14.746094 18.191406 14.71875 18.175781 14.695312 Z M 5.289062 16.5 C 5.265625 16.582031 5.242188 16.664062 5.21875 16.75 L 18.78125 16.75 C 18.757812 16.664062 18.734375 16.582031 18.710938 16.5 Z M 5.015625 18.5 C 5.023438 18.582031 5.03125 18.667969 5.039062 18.75 L 18.960938 18.75 C 18.96875 18.667969 18.976562 18.582031 18.984375 18.5 Z M 5.457031 20.5 C 5.488281 20.585938 5.523438 20.667969 5.558594 20.75 L 18.441406 20.75 C 18.476562 20.667969 18.511719 20.585938 18.542969 20.5 Z M 6.628906 22.5 C 6.703125 22.585938 6.773438 22.667969 6.851562 22.75 L 17.148438 22.75 C 17.226562 22.667969 17.296875 22.585938 17.371094 22.5 Z M 6.628906 22.5 "/>
<path style=" stroke:none;fill-rule:nonzero;fill:rgb(100%,100%,100%);fill-opacity:0.4;" d="M 4 8 C 2.890625 8 2 8.890625 2 10 L 2 10.5 C 2 9.394531 2.890625 8.5 4 8.5 L 28 8.5 C 29.109375 8.5 30 9.394531 30 10.5 L 30 10 C 30 8.890625 29.109375 8 28 8 Z M 4 8 "/>
<path style=" stroke:none;fill-rule:nonzero;fill:rgb(0.392157%,0.392157%,0.392157%);fill-opacity:0.4;" d="M 4 27.988281 C 2.890625 27.988281 2 27.097656 2 25.988281 L 2 25.488281 C 2 26.59375 2.890625 27.488281 4 27.488281 L 28 27.488281 C 29.109375 27.488281 30 26.59375 30 25.488281 L 30 25.988281 C 30 27.097656 29.109375 27.988281 28 27.988281 Z M 4 27.988281 "/>
<path style=" stroke:none;fill-rule:nonzero;fill:rgb(0%,0%,0%);fill-opacity:0.2;" d="M 2 26 L 2 26.75 C 2 27.859375 2.890625 28.75 4 28.75 L 28 28.75 C 29.109375 28.75 30 27.859375 30 26.75 L 30 26 C 30 27.109375 29.109375 28 28 28 L 4 28 C 2.890625 28 2 27.109375 2 26 Z M 2 26 "/>
<path style=" stroke:none;fill-rule:nonzero;fill:rgb(0%,0%,0%);fill-opacity:0.4;" d="M 24.5 22.75 C 23.957031 22.738281 23.527344 22.296875 23.527344 21.75 C 23.527344 21.707031 23.527344 21.664062 23.535156 21.625 C 23.59375 22.121094 24.015625 22.5 24.527344 22.5 C 25.039062 22.5 25.457031 22.121094 25.519531 21.625 C 25.523438 21.664062 25.527344 21.707031 25.527344 21.75 C 25.527344 22.304688 25.082031 22.75 24.527344 22.75 C 24.515625 22.75 24.507812 22.75 24.5 22.75 Z M 24.5 22.75 "/>
<path style=" stroke:none;fill-rule:nonzero;fill:rgb(100%,100%,100%);fill-opacity:0.4;" d="M 24.5 20.5 C 23.957031 20.511719 23.527344 20.953125 23.527344 21.5 C 23.527344 21.542969 23.527344 21.585938 23.535156 21.625 C 23.59375 21.128906 24.015625 20.75 24.527344 20.75 C 25.039062 20.75 25.457031 21.128906 25.519531 21.625 C 25.523438 21.585938 25.527344 21.542969 25.527344 21.5 C 25.527344 20.945312 25.082031 20.5 24.527344 20.5 C 24.515625 20.5 24.507812 20.5 24.5 20.5 Z M 24.5 20.5 "/>
<path style=" stroke:none;fill-rule:nonzero;fill:rgb(0%,0%,0%);fill-opacity:0.4;" d="M 27.5 22.75 C 26.957031 22.738281 26.527344 22.296875 26.527344 21.75 C 26.527344 21.707031 26.527344 21.664062 26.535156 21.625 C 26.59375 22.121094 27.015625 22.5 27.527344 22.5 C 28.039062 22.5 28.457031 22.121094 28.519531 21.625 C 28.523438 21.664062 28.527344 21.707031 28.527344 21.75 C 28.527344 22.304688 28.082031 22.75 27.527344 22.75 C 27.515625 22.75 27.507812 22.75 27.5 22.75 Z M 27.5 22.75 "/>
<path style=" stroke:none;fill-rule:nonzero;fill:rgb(100%,100%,100%);fill-opacity:0.4;" d="M 27.5 20.5 C 26.957031 20.511719 26.527344 20.953125 26.527344 21.5 C 26.527344 21.542969 26.527344 21.585938 26.535156 21.625 C 26.59375 21.128906 27.015625 20.75 27.527344 20.75 C 28.039062 20.75 28.457031 21.128906 28.519531 21.625 C 28.523438 21.585938 28.527344 21.542969 28.527344 21.5 C 28.527344 20.945312 28.082031 20.5 27.527344 20.5 C 27.515625 20.5 27.507812 20.5 27.5 20.5 Z M 27.5 20.5 "/>
<path style=" stroke:none;fill-rule:nonzero;fill:rgb(0%,0%,0%);fill-opacity:0.4;" d="M 24.5 25.625 C 23.957031 25.613281 23.527344 25.171875 23.527344 24.625 C 23.527344 24.582031 23.527344 24.539062 23.535156 24.5 C 23.59375 24.996094 24.015625 25.375 24.527344 25.375 C 25.039062 25.375 25.457031 24.996094 25.519531 24.5 C 25.523438 24.539062 25.527344 24.582031 25.527344 24.625 C 25.527344 25.179688 25.082031 25.625 24.527344 25.625 C 24.515625 25.625 24.507812 25.625 24.5 25.625 Z M 24.5 25.625 "/>
<path style=" stroke:none;fill-rule:nonzero;fill:rgb(100%,100%,100%);fill-opacity:0.4;" d="M 24.5 23.375 C 23.957031 23.386719 23.527344 23.828125 23.527344 24.375 C 23.527344 24.417969 23.527344 24.460938 23.535156 24.5 C 23.59375 24.003906 24.015625 23.625 24.527344 23.625 C 25.039062 23.625 25.457031 24.003906 25.519531 24.5 C 25.523438 24.460938 25.527344 24.417969 25.527344 24.375 C 25.527344 23.820312 25.082031 23.375 24.527344 23.375 C 24.515625 23.375 24.507812 23.375 24.5 23.375 Z M 24.5 23.375 "/>
<path style=" stroke:none;fill-rule:nonzero;fill:rgb(0%,0%,0%);fill-opacity:0.4;" d="M 27.5 25.625 C 26.957031 25.613281 26.527344 25.171875 26.527344 24.625 C 26.527344 24.582031 26.527344 24.539062 26.535156 24.5 C 26.59375 24.996094 27.015625 25.375 27.527344 25.375 C 28.039062 25.375 28.457031 24.996094 28.519531 24.5 C 28.523438 24.539062 28.527344 24.582031 28.527344 24.625 C 28.527344 25.179688 28.082031 25.625 27.527344 25.625 C 27.515625 25.625 27.507812 25.625 27.5 25.625 Z M 27.5 25.625 "/>
<path style=" stroke:none;fill-rule:nonzero;fill:rgb(100%,100%,100%);fill-opacity:0.4;" d="M 27.5 23.375 C 26.957031 23.386719 26.527344 23.828125 26.527344 24.375 C 26.527344 24.417969 26.527344 24.460938 26.535156 24.5 C 26.59375 24.003906 27.015625 23.625 27.527344 23.625 C 28.039062 23.625 28.457031 24.003906 28.519531 24.5 C 28.523438 24.460938 28.527344 24.417969 28.527344 24.375 C 28.527344 23.820312 28.082031 23.375 27.527344 23.375 C 27.515625 23.375 27.507812 23.375 27.5 23.375 Z M 27.5 23.375 "/>
<path style=" stroke:none;fill-rule:nonzero;fill:rgb(0%,0%,0%);fill-opacity:0.4;" d="M 24.519531 17.75 C 24.507812 17.832031 24.5 17.914062 24.5 18 C 24.5 18.832031 25.167969 19.5 26 19.5 C 26.832031 19.5 27.5 18.832031 27.5 18 C 27.5 17.914062 27.492188 17.832031 27.480469 17.75 C 27.359375 18.460938 26.746094 19 26 19 C 25.253906 19 24.640625 18.460938 24.519531 17.75 Z M 24.519531 17.75 "/>
<path style=" stroke:none;fill-rule:nonzero;fill:rgb(100%,100%,100%);fill-opacity:0.4;" d="M 24.519531 17.75 C 24.507812 17.667969 24.5 17.585938 24.5 17.5 C 24.5 16.667969 25.167969 16 26 16 C 26.832031 16 27.5 16.667969 27.5 17.5 C 27.5 17.585938 27.492188 17.667969 27.480469 17.75 C 27.359375 17.039062 26.746094 16.5 26 16.5 C 25.253906 16.5 24.640625 17.039062 24.519531 17.75 Z M 24.519531 17.75 "/>
<path style=" stroke:none;fill-rule:nonzero;fill:rgb(11.764706%,11.764706%,11.764706%);fill-opacity:0.4;" d="M 21.75 8 L 22 8 L 22 27.5 L 21.75 27.5 Z M 21.75 8 "/>
<path style=" stroke:none;fill-rule:nonzero;fill:rgb(100%,100%,100%);fill-opacity:0.2;" d="M 22 8 L 22.25 8 L 22.25 27.5 L 22 27.5 Z M 22 8 "/>
<path style=" stroke:none;fill-rule:nonzero;fill:rgb(100%,100%,100%);fill-opacity:0.4;" d="M 7 5 C 6.445312 5 6 5.445312 6 6 L 6 6.222656 C 6.011719 5.683594 6.453125 5.25 7 5.25 C 7.546875 5.25 7.988281 5.683594 8 6.222656 L 8 6 C 8 5.445312 7.554688 5 7 5 Z M 7 5 "/>
<path style=" stroke:none;fill-rule:nonzero;fill:rgb(38.039216%,38.039216%,38.039216%);fill-opacity:1;" d="M 7 5.25 C 7.414062 5.25 7.75 5.585938 7.75 6 C 7.75 6.414062 7.414062 6.75 7 6.75 C 6.585938 6.75 6.25 6.414062 6.25 6 C 6.25 5.585938 6.585938 5.25 7 5.25 Z M 7 5.25 "/>
<path style=" stroke:none;fill-rule:nonzero;fill:rgb(100%,100%,100%);fill-opacity:0.4;" d="M 6.980469 5.25 C 6.574219 5.261719 6.25 5.589844 6.25 6 C 6.25 6.042969 6.253906 6.085938 6.261719 6.125 C 6.320312 5.769531 6.628906 5.5 7 5.5 C 7.371094 5.5 7.679688 5.769531 7.738281 6.125 C 7.746094 6.085938 7.75 6.042969 7.75 6 C 7.75 5.585938 7.414062 5.25 7 5.25 C 6.992188 5.25 6.988281 5.25 6.980469 5.25 Z M 6.980469 5.25 "/>
<path style=" stroke:none;fill-rule:nonzero;fill:rgb(0%,0%,0%);fill-opacity:0.4;" d="M 6.980469 7 C 6.574219 6.992188 6.25 6.660156 6.25 6.25 C 6.25 6.207031 6.253906 6.164062 6.261719 6.125 C 6.320312 6.480469 6.628906 6.75 7 6.75 C 7.371094 6.75 7.679688 6.480469 7.738281 6.125 C 7.746094 6.164062 7.75 6.207031 7.75 6.25 C 7.75 6.664062 7.414062 7 7 7 C 6.992188 7 6.988281 7 6.980469 7 Z M 6.980469 7 "/>
<path style=" stroke:none;fill-rule:nonzero;fill:rgb(100%,100%,100%);fill-opacity:0.4;" d="M 5.25 7.25 C 4.972656 7.25 4.75 7.472656 4.75 7.75 L 4.75 8 C 4.75 7.722656 4.972656 7.5 5.25 7.5 L 8.5 7.5 C 8.777344 7.5 9 7.722656 9 8 L 9 7.75 C 9 7.472656 8.777344 7.25 8.5 7.25 Z M 5.25 7.25 "/>
<path style=" stroke:none;fill-rule:nonzero;fill:rgb(100%,100%,100%);fill-opacity:0.6;" d="M 26.589844 2.4375 C 26.503906 2.539062 26.386719 2.605469 26.328125 2.582031 C 26.269531 2.558594 26.292969 2.457031 26.382812 2.355469 C 26.46875 2.25 26.585938 2.1875 26.644531 2.210938 C 26.703125 2.230469 26.679688 2.332031 26.589844 2.4375 Z M 26.589844 2.4375 "/>
<path style=" stroke:none;fill-rule:nonzero;fill:rgb(0%,0%,0%);fill-opacity:0.4;" d="M 24 10 C 23.722656 10 23.5 10.222656 23.5 10.5 L 23.5 10.75 C 23.5 10.472656 23.722656 10.25 24 10.25 L 28 10.25 C 28.277344 10.25 28.5 10.472656 28.5 10.75 L 28.5 10.5 C 28.5 10.222656 28.277344 10 28 10 Z M 24 10 "/>
<path style=" stroke:none;fill-rule:nonzero;fill:rgb(100%,100%,100%);fill-opacity:0.4;" d="M 24 13.25 C 23.722656 13.25 23.5 13.027344 23.5 12.75 L 23.5 12.5 C 23.5 12.777344 23.722656 13 24 13 L 28 13 C 28.277344 13 28.5 12.777344 28.5 12.5 L 28.5 12.75 C 28.5 13.027344 28.277344 13.25 28 13.25 Z M 24 13.25 "/>
<path style=" stroke:none;fill-rule:nonzero;fill:url(#linear0);" d="M 26.644531 2.082031 C 26.621094 2.082031 26.59375 2.085938 26.570312 2.09375 C 26.386719 2.125 26.246094 2.253906 26.191406 2.417969 L 15.800781 4.355469 C 15.777344 4.234375 15.671875 4.152344 15.558594 4.152344 C 15.539062 4.152344 15.523438 4.152344 15.503906 4.15625 L 7.90625 5.574219 C 7.746094 5.234375 7.402344 5 7 5 C 6.445312 5 6 5.445312 6 6 L 6 7.25 L 5.25 7.25 C 4.972656 7.25 4.75 7.472656 4.75 7.75 L 4.75 8 L 4 8 C 2.890625 8 2 8.890625 2 10 L 2 26 C 2 27.109375 2.890625 28 4 28 L 28 28 C 29.109375 28 30 27.109375 30 26 L 30 10 C 30 8.890625 29.109375 8 28 8 L 9 8 L 9 7.75 C 9 7.472656 8.777344 7.25 8.5 7.25 L 8 7.25 L 8 6.574219 L 15.6875 5.140625 C 15.824219 5.113281 15.917969 4.984375 15.894531 4.847656 L 26.28125 2.910156 C 26.390625 3.039062 26.570312 3.109375 26.753906 3.074219 C 27.023438 3.023438 27.203125 2.765625 27.152344 2.492188 C 27.105469 2.246094 26.886719 2.074219 26.644531 2.082031 Z M 26.644531 2.082031 "/>
<path style=" stroke:none;fill-rule:nonzero;fill:rgb(0%,0%,0%);fill-opacity:0.4;" d="M 6.851562 13.5 C 6.773438 13.582031 6.703125 13.664062 6.628906 13.75 L 17.371094 13.75 C 17.296875 13.664062 17.226562 13.582031 17.148438 13.5 Z M 5.558594 15.5 C 5.523438 15.582031 5.488281 15.664062 5.457031 15.75 L 18.542969 15.75 C 18.511719 15.664062 18.476562 15.582031 18.441406 15.5 Z M 5.039062 17.5 C 5.03125 17.582031 5.023438 17.667969 5.015625 17.75 L 18.984375 17.75 C 18.976562 17.667969 18.96875 17.582031 18.960938 17.5 Z M 5.164062 19.5 C 5.179688 19.582031 5.199219 19.667969 5.21875 19.75 L 18.78125 19.75 C 18.800781 19.667969 18.820312 19.582031 18.835938 19.5 Z M 5.59375 20.828125 C 5.628906 20.910156 5.664062 20.988281 5.703125 21.070312 C 5.667969 20.988281 5.628906 20.910156 5.59375 20.828125 Z M 18.40625 20.828125 C 18.371094 20.910156 18.332031 20.988281 18.296875 21.070312 C 18.335938 20.988281 18.371094 20.910156 18.40625 20.828125 Z M 5.78125 21.21875 C 5.816406 21.285156 5.851562 21.351562 5.886719 21.414062 C 5.851562 21.351562 5.816406 21.285156 5.78125 21.21875 Z M 18.21875 21.21875 C 18.183594 21.285156 18.148438 21.351562 18.113281 21.414062 C 18.148438 21.351562 18.183594 21.285156 18.21875 21.21875 Z M 5.933594 21.5 C 5.980469 21.585938 6.03125 21.667969 6.085938 21.75 L 17.914062 21.75 C 17.96875 21.667969 18.019531 21.585938 18.066406 21.5 Z M 7.664062 23.5 C 7.773438 23.585938 7.882812 23.671875 8 23.75 L 16 23.75 C 16.117188 23.671875 16.226562 23.585938 16.335938 23.5 Z M 7.664062 23.5 "/>
</g>
</svg>
