
<svg xmlns="http://www.w3.org/2000/svg" xmlns:xlink="http://www.w3.org/1999/xlink" width="32" height="32" viewBox="0 0 32 32" version="1.1">
<defs>
<linearGradient id="linear0" gradientUnits="userSpaceOnUse" x1="8.466666" y1="-199.125" x2="8.466666" y2="-213.941666" gradientTransform="matrix(1.889764,0,0,1.889764,0.00000202927,406.299234)">
<stop offset="0" style="stop-color:rgb(0%,0%,0%);stop-opacity:0.2;"/>
<stop offset="1" style="stop-color:rgb(100%,100%,100%);stop-opacity:0;"/>
</linearGradient>
</defs>
<g id="surface1">
<path style=" stroke:none;fill-rule:nonzero;fill:rgb(16.078432%,71.372551%,96.470588%);fill-opacity:0.992157;" d="M 26.75 19.5 L 27.25 19.5 C 27.527344 19.5 27.75 19.722656 27.75 20 L 27.75 26 C 27.75 26.277344 27.527344 26.5 27.25 26.5 L 26.75 26.5 C 26.472656 26.5 26.25 26.277344 26.25 26 L 26.25 20 C 26.25 19.722656 26.472656 19.5 26.75 19.5 Z M 26.75 19.5 "/>
<path style=" stroke:none;fill-rule:nonzero;fill:rgb(95.686275%,26.274511%,21.176471%);fill-opacity:0.992157;" d="M 26.75 12.5 L 27.25 12.5 C 27.527344 12.5 27.75 12.722656 27.75 13 L 27.75 19 C 27.75 19.277344 27.527344 19.5 27.25 19.5 L 26.75 19.5 C 26.472656 19.5 26.25 19.277344 26.25 19 L 26.25 13 C 26.25 12.722656 26.472656 12.5 26.75 12.5 Z M 26.75 12.5 "/>
<path style=" stroke:none;fill-rule:nonzero;fill:rgb(30.19608%,71.372551%,67.450982%);fill-opacity:0.992157;" d="M 26.75 5.5 L 27.25 5.5 C 27.527344 5.5 27.75 5.722656 27.75 6 L 27.75 12 C 27.75 12.277344 27.527344 12.5 27.25 12.5 L 26.75 12.5 C 26.472656 12.5 26.25 12.277344 26.25 12 L 26.25 6 C 26.25 5.722656 26.472656 5.5 26.75 5.5 Z M 26.75 5.5 "/>
<path style=" stroke:none;fill-rule:nonzero;fill:rgb(87.843138%,87.843138%,87.843138%);fill-opacity:1;" d="M 7 2 L 25 2 C 26.105469 2 27 2.894531 27 4 L 27 28 C 27 29.105469 26.105469 30 25 30 L 7 30 C 5.894531 30 5 29.105469 5 28 L 5 4 C 5 2.894531 5.894531 2 7 2 Z M 7 2 "/>
<path style="fill:none;stroke-width:0.7;stroke-linecap:round;stroke-linejoin:round;stroke:rgb(38.039216%,38.039216%,38.039216%);stroke-opacity:1;stroke-dasharray:2.1,2.1;stroke-dashoffset:0.63;stroke-miterlimit:4;" d="M 20 6 L 20 57.5 L 50 57.5 C 51.109375 57.5 52 56.609375 52 55.5 L 52 8 C 52 6.890625 51.109375 6 50 6 Z M 20 6 " transform="matrix(0.5,0,0,0.5,0,0)"/>
<path style=" stroke:none;fill-rule:nonzero;fill:rgb(36.078432%,41.960785%,75.294119%);fill-opacity:0.996078;" d="M 7 2 C 5.890625 2 5 2.890625 5 4 L 5 28 C 5 29.109375 5.890625 30 7 30 L 9 30 L 9 2 Z M 7 2 "/>
<path style=" stroke:none;fill-rule:nonzero;fill:rgb(47.450981%,52.549022%,79.607844%);fill-opacity:1;" d="M 5 20 L 9 20 L 9 22 L 5 22 Z M 5 20 "/>
<path style=" stroke:none;fill-rule:nonzero;fill:rgb(47.450981%,52.549022%,79.607844%);fill-opacity:0.996078;" d="M 5 9 L 9 9 L 9 11 L 5 11 Z M 5 9 "/>
<path style=" stroke:none;fill-rule:nonzero;fill:rgb(0.784314%,0.784314%,0.784314%);fill-opacity:0.4;" d="M 7 29.996094 C 5.890625 29.996094 5 29.101562 5 27.996094 L 5 27.5 C 5 28.609375 5.890625 29.5 7 29.5 L 25 29.5 C 26.109375 29.5 27 28.609375 27 27.5 L 27 27.996094 C 27 29.101562 26.109375 29.996094 25 29.996094 Z M 7 29.996094 "/>
<path style=" stroke:none;fill-rule:nonzero;fill:rgb(0%,0%,0%);fill-opacity:0.2;" d="M 5 28 L 5 28.75 C 5 29.859375 5.890625 30.75 7 30.75 L 25 30.75 C 26.109375 30.75 27 29.859375 27 28.75 L 27 28 C 27 29.109375 26.109375 30 25 30 L 7 30 C 5.890625 30 5 29.109375 5 28 Z M 5 28 "/>
<path style=" stroke:none;fill-rule:nonzero;fill:rgb(0%,0%,0%);fill-opacity:0.4;" d="M 5 11 L 9 11 L 9 11.5 L 5 11.5 Z M 5 11 "/>
<path style=" stroke:none;fill-rule:nonzero;fill:rgb(99.215686%,99.215686%,99.215686%);fill-opacity:0.4;" d="M 5 9 L 9 9 L 9 9.5 L 5 9.5 Z M 5 9 "/>
<path style=" stroke:none;fill-rule:nonzero;fill:rgb(0%,0%,0%);fill-opacity:0.4;" d="M 5 22 L 9 22 L 9 22.5 L 5 22.5 Z M 5 22 "/>
<path style=" stroke:none;fill-rule:nonzero;fill:rgb(99.215686%,99.215686%,99.215686%);fill-opacity:0.4;" d="M 5 20 L 9 20 L 9 20.5 L 5 20.5 Z M 5 20 "/>
<path style=" stroke:none;fill-rule:nonzero;fill:rgb(99.607843%,99.607843%,99.607843%);fill-opacity:0.4;" d="M 7 2 C 5.890625 2 5 2.890625 5 4 L 5 4.492188 C 5 3.386719 5.890625 2.492188 7 2.492188 L 25 2.492188 C 26.109375 2.492188 27 3.386719 27 4.492188 L 27 4 C 27 2.890625 26.109375 2 25 2 Z M 7 2 "/>
<path style=" stroke:none;fill-rule:nonzero;fill:rgb(36.078432%,41.960785%,75.294119%);fill-opacity:1;" d="M 18 10 C 16.753906 10 15.75 11.003906 15.75 12.25 C 15.75 13.496094 16.753906 14.5 18 14.5 C 19.246094 14.5 20.25 13.496094 20.25 12.25 C 20.25 11.003906 19.246094 10 18 10 Z M 18 15 C 15.785156 15 14 15.890625 14 17 L 14 19 C 14 19.554688 14.445312 20 15 20 L 21 20 C 21.554688 20 22 19.554688 22 19 L 22 17 C 22 15.890625 20.214844 15 18 15 Z M 18 15 "/>
<path style=" stroke:none;fill-rule:nonzero;fill:rgb(100%,100%,100%);fill-opacity:0.4;" d="M 18 10 C 16.753906 10 15.75 11.003906 15.75 12.25 C 15.75 12.285156 15.753906 12.316406 15.753906 12.347656 C 15.753906 12.351562 15.753906 12.351562 15.753906 12.351562 C 15.75 12.402344 15.75 12.449219 15.75 12.5 C 15.75 12.535156 15.753906 12.570312 15.753906 12.601562 C 15.828125 11.425781 16.804688 10.5 18 10.5 C 19.195312 10.5 20.171875 11.425781 20.246094 12.601562 C 20.246094 12.570312 20.25 12.535156 20.25 12.5 C 20.25 12.449219 20.25 12.402344 20.246094 12.351562 C 20.246094 12.351562 20.246094 12.351562 20.246094 12.347656 C 20.246094 12.316406 20.25 12.285156 20.25 12.25 C 20.25 11.003906 19.246094 10 18 10 Z M 17.601562 10.285156 C 17.582031 10.289062 17.5625 10.292969 17.546875 10.296875 C 17.5625 10.292969 17.582031 10.289062 17.601562 10.285156 Z M 18.40625 10.289062 C 18.421875 10.289062 18.4375 10.292969 18.453125 10.296875 C 18.4375 10.292969 18.421875 10.289062 18.40625 10.289062 Z M 17.1875 10.398438 C 17.164062 10.410156 17.144531 10.417969 17.125 10.425781 C 17.09375 10.4375 17.066406 10.453125 17.039062 10.464844 C 17.066406 10.453125 17.09375 10.4375 17.125 10.425781 C 17.144531 10.417969 17.164062 10.410156 17.1875 10.398438 Z M 18.816406 10.402344 C 18.835938 10.410156 18.851562 10.414062 18.867188 10.421875 C 18.851562 10.414062 18.835938 10.410156 18.816406 10.402344 Z M 18.898438 10.4375 C 18.917969 10.445312 18.941406 10.453125 18.960938 10.464844 C 18.941406 10.453125 18.917969 10.445312 18.898438 10.4375 Z M 16.898438 10.539062 C 16.878906 10.546875 16.859375 10.558594 16.839844 10.570312 C 16.859375 10.558594 16.878906 10.546875 16.898438 10.539062 Z M 16.554688 10.773438 C 16.539062 10.785156 16.527344 10.796875 16.515625 10.808594 C 16.527344 10.796875 16.539062 10.785156 16.554688 10.773438 Z M 19.445312 10.773438 C 19.460938 10.785156 19.472656 10.796875 19.484375 10.808594 C 19.472656 10.796875 19.460938 10.785156 19.445312 10.773438 Z M 16.074219 11.332031 C 16.066406 11.347656 16.054688 11.367188 16.046875 11.382812 C 16.054688 11.367188 16.066406 11.347656 16.074219 11.332031 Z M 19.925781 11.332031 C 19.933594 11.347656 19.945312 11.367188 19.953125 11.382812 C 19.945312 11.367188 19.933594 11.347656 19.925781 11.332031 Z M 15.808594 11.992188 C 15.804688 12.007812 15.800781 12.027344 15.796875 12.046875 C 15.800781 12.027344 15.804688 12.007812 15.808594 11.992188 Z M 20.191406 11.992188 C 20.195312 12.007812 20.199219 12.027344 20.203125 12.046875 C 20.199219 12.027344 20.195312 12.007812 20.191406 11.992188 Z M 18 15 C 15.785156 15 14 15.890625 14 17 L 14 17.5 C 14 16.390625 15.785156 15.5 18 15.5 C 20.214844 15.5 22 16.390625 22 17.5 L 22 17 C 22 15.890625 20.214844 15 18 15 Z M 18 15 "/>
<path style=" stroke:none;fill-rule:nonzero;fill:rgb(4.313726%,4.313726%,4.313726%);fill-opacity:0.4;" d="M 15.753906 12.375 C 15.75 12.417969 15.75 12.460938 15.75 12.503906 C 15.75 12.546875 15.75 12.589844 15.753906 12.632812 C 15.75 12.671875 15.75 12.710938 15.75 12.753906 C 15.75 14 16.753906 15.003906 18 15.003906 C 19.246094 15.003906 20.25 14 20.25 12.753906 C 20.25 12.710938 20.25 12.671875 20.246094 12.632812 C 20.246094 12.628906 20.246094 12.628906 20.246094 12.625 C 20.25 12.585938 20.25 12.546875 20.25 12.503906 C 20.25 12.460938 20.25 12.417969 20.246094 12.375 C 20.179688 13.5625 19.203125 14.5 18 14.5 C 16.796875 14.5 15.820312 13.5625 15.753906 12.375 Z M 14 19 L 14 19.503906 C 14 20.058594 14.445312 20.503906 15 20.503906 L 21 20.503906 C 21.554688 20.503906 22 20.058594 22 19.503906 L 22 19 C 22 19.554688 21.554688 20 21 20 L 15 20 C 14.445312 20 14 19.554688 14 19 Z M 14 19 "/>
<path style=" stroke:none;fill-rule:nonzero;fill:url(#linear0);" d="M 7 2 L 25 2 C 26.105469 2 27 2.894531 27 4 L 27 28 C 27 29.105469 26.105469 30 25 30 L 7 30 C 5.894531 30 5 29.105469 5 28 L 5 4 C 5 2.894531 5.894531 2 7 2 Z M 7 2 "/>
</g>
</svg>
