
<svg xmlns="http://www.w3.org/2000/svg" xmlns:xlink="http://www.w3.org/1999/xlink" width="32" height="32" viewBox="0 0 32 32" version="1.1">
<defs>
<radialGradient id="radial0" gradientUnits="userSpaceOnUse" cx="32" cy="32" fx="32" fy="32" r="20" gradientTransform="matrix(0.6,0,0,0.45,-3.199999,1.600006)">
<stop offset="0" style="stop-color:rgb(100%,65.490198%,14.901961%);stop-opacity:0.4;"/>
<stop offset="1" style="stop-color:rgb(61.176473%,80.000001%,39.607844%);stop-opacity:0;"/>
</radialGradient>
<linearGradient id="linear0" gradientUnits="userSpaceOnUse" x1="9.657291" y1="-204.416672" x2="9.657291" y2="-208.649994" gradientTransform="matrix(1.889764,0,0,1.889764,-7.250001,402.74552)">
<stop offset="0" style="stop-color:rgb(0%,0%,0%);stop-opacity:0.2;"/>
<stop offset="1" style="stop-color:rgb(100%,100%,100%);stop-opacity:0;"/>
</linearGradient>
<linearGradient id="linear1" gradientUnits="userSpaceOnUse" x1="2.645833" y1="-211.03125" x2="14.287498" y2="-211.03125" gradientTransform="matrix(2.233358,0,0,0.944892,-2.909091,206.65184)">
<stop offset="0" style="stop-color:rgb(100%,100%,100%);stop-opacity:0;"/>
<stop offset="0.498862" style="stop-color:rgb(100%,100%,100%);stop-opacity:0.2;"/>
<stop offset="1" style="stop-color:rgb(95.686275%,26.274511%,21.176471%);stop-opacity:0;"/>
</linearGradient>
<linearGradient id="linear2" gradientUnits="userSpaceOnUse" x1="8.466666" y1="-200.183334" x2="8.466666" y2="-212.883331" gradientTransform="matrix(1.889764,0,0,1.889764,-2.000003,406.299234)">
<stop offset="0" style="stop-color:rgb(0%,0%,0%);stop-opacity:0.2;"/>
<stop offset="1" style="stop-color:rgb(100%,100%,100%);stop-opacity:0;"/>
</linearGradient>
</defs>
<g id="surface1">
<path style=" stroke:none;fill-rule:nonzero;fill:rgb(38.039216%,38.039216%,38.039216%);fill-opacity:1;" d="M 4 4 L 28 4 C 29.105469 4 30 4.894531 30 6 L 30 26 C 30 27.105469 29.105469 28 28 28 L 4 28 C 2.894531 28 2 27.105469 2 26 L 2 6 C 2 4.894531 2.894531 4 4 4 Z M 4 4 "/>
<path style=" stroke:none;fill-rule:nonzero;fill:rgb(49.411765%,34.117648%,76.078433%);fill-opacity:0.992157;" d="M 4 4 C 2.890625 4 2 4.890625 2 6 L 2 26 C 2 26.578125 2.242188 27.09375 2.632812 27.457031 L 29.367188 4.542969 C 29.011719 4.207031 28.53125 4 28 4 Z M 4 4 "/>
<path style=" stroke:none;fill-rule:nonzero;fill:url(#radial0);" d="M 25.332031 8 L 24.167969 9 L 26 9 L 26 8 Z M 24 9.140625 L 23 10 L 23 13 L 19.5 13 L 18 14.285156 L 18 18 L 14 18 L 14 17.714844 L 12.5 19 L 13 19 L 13 23 L 9 23 L 9 22 L 8 22.859375 L 8 23 L 7.832031 23 L 6.667969 24 L 8 24 L 8 26 L 9 26 L 9 24 L 13 24 L 13 26 L 14 26 L 14 24 L 18 24 L 18 26 L 19 26 L 19 24 L 23 24 L 23 26 L 24 26 L 24 24 L 26 24 L 26 23 L 24 23 L 24 19 L 26 19 L 26 18 L 24 18 L 24 14 L 26 14 L 26 13 L 24 13 Z M 19 14 L 23 14 L 23 18 L 19 18 Z M 14 19 L 18 19 L 18 23 L 14 23 Z M 19 19 L 23 19 L 23 23 L 19 23 Z M 19 19 "/>
<path style=" stroke:none;fill-rule:nonzero;fill:rgb(87.843138%,87.843138%,87.843138%);fill-opacity:1;" d="M 7.25 8.445312 C 7.113281 8.445312 7 8.558594 7 8.695312 L 7 9.492188 C 5.972656 9.671875 5.3125 10.394531 5.3125 11.195312 C 5.3125 11.996094 5.972656 12.71875 7 12.902344 L 7 14.359375 C 6.601562 14.207031 6.414062 13.921875 6.414062 13.921875 C 6.34375 13.808594 6.230469 13.730469 6.097656 13.707031 C 5.96875 13.679688 5.832031 13.707031 5.722656 13.78125 C 5.613281 13.851562 5.535156 13.96875 5.507812 14.097656 C 5.480469 14.226562 5.507812 14.363281 5.582031 14.472656 C 5.582031 14.472656 6.074219 15.179688 7 15.386719 L 7 16.195312 C 7 16.335938 7.113281 16.445312 7.25 16.445312 L 7.75 16.445312 C 7.886719 16.445312 8 16.335938 8 16.195312 L 8 15.402344 C 9.027344 15.222656 9.6875 14.5 9.6875 13.699219 C 9.6875 12.898438 9.027344 12.167969 8 11.988281 L 8 10.535156 C 8.398438 10.683594 8.582031 10.972656 8.582031 10.972656 C 8.738281 11.203125 9.046875 11.265625 9.277344 11.109375 C 9.503906 10.957031 9.566406 10.648438 9.417969 10.421875 C 9.417969 10.421875 8.925781 9.710938 8 9.503906 L 8 8.695312 C 8 8.558594 7.886719 8.445312 7.75 8.445312 Z M 7 10.5 L 7 11.890625 C 6.472656 11.765625 6.3125 11.453125 6.3125 11.195312 C 6.3125 10.9375 6.472656 10.625 7 10.5 Z M 8 13 C 8.527344 13.125 8.6875 13.441406 8.6875 13.699219 C 8.6875 13.953125 8.527344 14.269531 8 14.394531 Z M 10.25 15.445312 C 10.113281 15.445312 10 15.558594 10 15.695312 L 10 16.195312 C 10 16.335938 10.113281 16.445312 10.25 16.445312 L 12.75 16.445312 C 12.886719 16.445312 13 16.335938 13 16.195312 L 13 15.695312 C 13 15.558594 12.886719 15.445312 12.75 15.445312 Z M 10.25 15.445312 "/>
<path style=" stroke:none;fill-rule:nonzero;fill:url(#linear0);" d="M 7.25 8.445312 C 7.113281 8.445312 7 8.558594 7 8.695312 L 7 9.492188 C 5.972656 9.671875 5.3125 10.394531 5.3125 11.195312 C 5.3125 11.996094 5.972656 12.71875 7 12.902344 L 7 14.359375 C 6.601562 14.207031 6.414062 13.921875 6.414062 13.921875 C 6.34375 13.808594 6.230469 13.730469 6.097656 13.707031 C 5.96875 13.679688 5.832031 13.707031 5.722656 13.78125 C 5.613281 13.851562 5.535156 13.96875 5.507812 14.097656 C 5.480469 14.226562 5.507812 14.363281 5.582031 14.472656 C 5.582031 14.472656 6.074219 15.179688 7 15.386719 L 7 16.195312 C 7 16.335938 7.113281 16.445312 7.25 16.445312 L 7.75 16.445312 C 7.886719 16.445312 8 16.335938 8 16.195312 L 8 15.402344 C 9.027344 15.222656 9.6875 14.5 9.6875 13.699219 C 9.6875 12.898438 9.027344 12.167969 8 11.988281 L 8 10.535156 C 8.398438 10.683594 8.582031 10.972656 8.582031 10.972656 C 8.738281 11.203125 9.046875 11.265625 9.277344 11.109375 C 9.503906 10.957031 9.566406 10.648438 9.417969 10.421875 C 9.417969 10.421875 8.925781 9.710938 8 9.503906 L 8 8.695312 C 8 8.558594 7.886719 8.445312 7.75 8.445312 Z M 7 10.5 L 7 11.890625 C 6.472656 11.765625 6.3125 11.453125 6.3125 11.195312 C 6.3125 10.9375 6.472656 10.625 7 10.5 Z M 8 13 C 8.527344 13.125 8.6875 13.441406 8.6875 13.699219 C 8.6875 13.953125 8.527344 14.269531 8 14.394531 Z M 10.25 15.445312 C 10.113281 15.445312 10 15.558594 10 15.695312 L 10 16.195312 C 10 16.335938 10.113281 16.445312 10.25 16.445312 L 12.75 16.445312 C 12.886719 16.445312 13 16.335938 13 16.195312 L 13 15.695312 C 13 15.558594 12.886719 15.445312 12.75 15.445312 Z M 10.25 15.445312 "/>
<path style=" stroke:none;fill-rule:nonzero;fill:rgb(0%,0%,0%);fill-opacity:0.4;" d="M 7 10.5 C 6.472656 10.625 6.3125 10.9375 6.3125 11.195312 C 6.3125 11.234375 6.324219 11.277344 6.332031 11.320312 C 6.378906 11.09375 6.554688 10.855469 7 10.75 Z M 8 10.535156 L 8 10.785156 C 8.398438 10.933594 8.582031 11.222656 8.582031 11.222656 C 8.738281 11.453125 9.046875 11.515625 9.277344 11.359375 C 9.453125 11.242188 9.535156 11.023438 9.480469 10.820312 C 9.453125 10.9375 9.378906 11.042969 9.277344 11.109375 C 9.046875 11.265625 8.738281 11.203125 8.582031 10.972656 C 8.582031 10.972656 8.398438 10.683594 8 10.535156 Z M 5.324219 11.320312 C 5.320312 11.363281 5.3125 11.402344 5.3125 11.445312 C 5.3125 12.246094 5.972656 12.96875 7 13.148438 L 7 12.898438 C 6.027344 12.730469 5.390625 12.070312 5.324219 11.320312 Z M 8 13 L 8 13.25 C 8.445312 13.355469 8.621094 13.597656 8.664062 13.824219 C 8.675781 13.78125 8.6875 13.738281 8.6875 13.699219 C 8.6875 13.441406 8.527344 13.125 8 13 Z M 9.671875 13.824219 C 9.609375 14.574219 8.972656 15.234375 8 15.402344 L 8 15.652344 C 9.027344 15.472656 9.6875 14.75 9.6875 13.949219 C 9.6875 13.90625 9.675781 13.863281 9.675781 13.824219 Z M 5.515625 14.320312 C 5.480469 14.457031 5.503906 14.605469 5.582031 14.722656 C 5.582031 14.722656 6.074219 15.429688 7 15.636719 L 7 15.386719 C 6.074219 15.179688 5.582031 14.472656 5.582031 14.472656 C 5.550781 14.425781 5.527344 14.375 5.515625 14.320312 Z M 7 16.195312 L 7 16.445312 C 7 16.585938 7.113281 16.695312 7.25 16.695312 L 7.75 16.695312 C 7.886719 16.695312 8 16.585938 8 16.445312 L 8 16.195312 C 8 16.335938 7.886719 16.445312 7.75 16.445312 L 7.25 16.445312 C 7.113281 16.445312 7 16.335938 7 16.195312 Z M 10 16.195312 L 10 16.445312 C 10 16.585938 10.113281 16.695312 10.25 16.695312 L 12.75 16.695312 C 12.886719 16.695312 13 16.585938 13 16.445312 L 13 16.195312 C 13 16.335938 12.886719 16.445312 12.75 16.445312 L 10.25 16.445312 C 10.113281 16.445312 10 16.335938 10 16.195312 Z M 10 16.195312 "/>
<path style=" stroke:none;fill-rule:nonzero;fill:rgb(99.607843%,99.607843%,99.607843%);fill-opacity:0.4;" d="M 7.25 8.445312 C 7.113281 8.445312 7 8.558594 7 8.695312 L 7 8.945312 C 7 8.808594 7.113281 8.695312 7.25 8.695312 L 7.75 8.695312 C 7.886719 8.695312 8 8.808594 8 8.945312 L 8 8.695312 C 8 8.558594 7.886719 8.445312 7.75 8.445312 Z M 7 9.492188 C 5.972656 9.671875 5.3125 10.394531 5.3125 11.195312 C 5.3125 11.238281 5.320312 11.277344 5.324219 11.320312 C 5.390625 10.570312 6.027344 9.910156 7 9.742188 Z M 8 9.503906 L 8 9.753906 C 8.925781 9.960938 9.417969 10.671875 9.417969 10.671875 C 9.445312 10.714844 9.46875 10.765625 9.480469 10.820312 C 9.519531 10.683594 9.492188 10.539062 9.417969 10.421875 C 9.417969 10.421875 8.925781 9.710938 8 9.503906 Z M 6.332031 11.320312 C 6.324219 11.363281 6.3125 11.40625 6.3125 11.445312 C 6.3125 11.699219 6.472656 12.015625 7 12.140625 L 7 11.890625 C 6.554688 11.785156 6.378906 11.546875 6.335938 11.320312 Z M 8 11.988281 L 8 12.238281 C 8.972656 12.410156 9.609375 13.070312 9.671875 13.824219 C 9.675781 13.78125 9.6875 13.742188 9.6875 13.699219 C 9.6875 12.894531 9.027344 12.167969 8 11.988281 Z M 5.988281 13.695312 C 5.894531 13.699219 5.800781 13.726562 5.722656 13.777344 C 5.542969 13.898438 5.460938 14.113281 5.515625 14.320312 C 5.546875 14.199219 5.621094 14.097656 5.722656 14.027344 C 5.832031 13.957031 5.96875 13.929688 6.097656 13.957031 C 6.230469 13.980469 6.34375 14.058594 6.414062 14.167969 C 6.414062 14.167969 6.601562 14.457031 7 14.609375 L 7 14.359375 C 6.601562 14.207031 6.414062 13.917969 6.414062 13.917969 C 6.320312 13.777344 6.160156 13.691406 5.988281 13.695312 Z M 8.664062 13.824219 C 8.621094 14.050781 8.445312 14.289062 8 14.390625 L 8 14.640625 C 8.527344 14.519531 8.6875 14.203125 8.6875 13.949219 C 8.6875 13.90625 8.675781 13.863281 8.667969 13.824219 Z M 10.25 15.445312 C 10.113281 15.445312 10 15.558594 10 15.695312 L 10 15.945312 C 10 15.808594 10.113281 15.695312 10.25 15.695312 L 12.75 15.695312 C 12.886719 15.695312 13 15.808594 13 15.945312 L 13 15.695312 C 13 15.558594 12.886719 15.445312 12.75 15.445312 Z M 10.25 15.445312 "/>
<path style=" stroke:none;fill-rule:nonzero;fill:rgb(0%,0%,0%);fill-opacity:0.4;" d="M 3.5 5 C 3.777344 5 4 5.222656 4 5.5 C 4 5.777344 3.777344 6 3.5 6 C 3.222656 6 3 5.777344 3 5.5 C 3 5.222656 3.222656 5 3.5 5 Z M 3.5 5 "/>
<path style=" stroke:none;fill-rule:nonzero;fill:rgb(0%,0%,0%);fill-opacity:0.4;" d="M 3.5 5 C 3.222656 5 3 5.222656 3 5.5 C 3 5.542969 3.015625 5.585938 3.023438 5.625 C 3.082031 5.410156 3.265625 5.25 3.5 5.25 C 3.734375 5.25 3.917969 5.410156 3.976562 5.625 C 3.984375 5.585938 4 5.542969 4 5.5 C 4 5.222656 3.777344 5 3.5 5 Z M 3.5 5 "/>
<path style=" stroke:none;fill-rule:nonzero;fill:rgb(100%,100%,100%);fill-opacity:0.4;" d="M 3.5 6.25 C 3.222656 6.25 3 6.027344 3 5.75 C 3 5.707031 3.015625 5.664062 3.027344 5.625 C 3.082031 5.839844 3.265625 6 3.5 6 C 3.734375 6 3.917969 5.839844 3.976562 5.625 C 3.984375 5.664062 4 5.707031 4 5.75 C 4 6.027344 3.777344 6.25 3.5 6.25 Z M 3.5 6.25 "/>
<path style=" stroke:none;fill-rule:nonzero;fill:rgb(0%,0%,0%);fill-opacity:0.4;" d="M 28.527344 5 C 28.800781 5 29.027344 5.222656 29.027344 5.5 C 29.027344 5.777344 28.800781 6 28.527344 6 C 28.25 6 28.027344 5.777344 28.027344 5.5 C 28.027344 5.222656 28.25 5 28.527344 5 Z M 28.527344 5 "/>
<path style=" stroke:none;fill-rule:nonzero;fill:rgb(0%,0%,0%);fill-opacity:0.4;" d="M 28.523438 5 C 28.25 5 28.027344 5.222656 28.027344 5.5 C 28.027344 5.542969 28.039062 5.585938 28.050781 5.625 C 28.105469 5.410156 28.292969 5.25 28.527344 5.25 C 28.757812 5.25 28.945312 5.410156 29 5.625 C 29.011719 5.585938 29.023438 5.542969 29.023438 5.5 C 29.023438 5.222656 28.800781 5 28.523438 5 Z M 28.523438 5 "/>
<path style=" stroke:none;fill-rule:nonzero;fill:rgb(100%,100%,100%);fill-opacity:0.4;" d="M 28.523438 6.25 C 28.25 6.25 28.027344 6.027344 28.027344 5.75 C 28.027344 5.707031 28.039062 5.664062 28.050781 5.625 C 28.105469 5.839844 28.292969 6 28.527344 6 C 28.757812 6 28.945312 5.839844 29 5.625 C 29.011719 5.664062 29.027344 5.707031 29.027344 5.75 C 29.027344 6.027344 28.800781 6.25 28.527344 6.25 Z M 28.523438 6.25 "/>
<path style=" stroke:none;fill-rule:nonzero;fill:rgb(0%,0%,0%);fill-opacity:0.4;" d="M 3.5 25.75 C 3.777344 25.75 4 25.972656 4 26.25 C 4 26.527344 3.777344 26.75 3.5 26.75 C 3.222656 26.75 3 26.527344 3 26.25 C 3 25.972656 3.222656 25.75 3.5 25.75 Z M 3.5 25.75 "/>
<path style=" stroke:none;fill-rule:nonzero;fill:rgb(0%,0%,0%);fill-opacity:0.4;" d="M 3.5 25.75 C 3.222656 25.75 3 25.972656 3 26.25 C 3 26.292969 3.015625 26.335938 3.027344 26.375 C 3.082031 26.160156 3.265625 26 3.5 26 C 3.734375 26 3.917969 26.160156 3.976562 26.375 C 3.984375 26.335938 4 26.292969 4 26.25 C 4 25.972656 3.777344 25.75 3.5 25.75 Z M 3.5 25.75 "/>
<path style=" stroke:none;fill-rule:nonzero;fill:rgb(100%,100%,100%);fill-opacity:0.4;" d="M 3.5 27 C 3.222656 27 3 26.777344 3 26.5 C 3 26.457031 3.015625 26.414062 3.027344 26.375 C 3.082031 26.589844 3.265625 26.75 3.5 26.75 C 3.734375 26.75 3.917969 26.589844 3.976562 26.375 C 3.984375 26.414062 4 26.457031 4 26.5 C 4 26.777344 3.777344 27 3.5 27 Z M 3.5 27 "/>
<path style=" stroke:none;fill-rule:nonzero;fill:rgb(0%,0%,0%);fill-opacity:0.4;" d="M 28.527344 25.75 C 28.800781 25.75 29.027344 25.972656 29.027344 26.25 C 29.027344 26.527344 28.800781 26.75 28.527344 26.75 C 28.25 26.75 28.027344 26.527344 28.027344 26.25 C 28.027344 25.972656 28.25 25.75 28.527344 25.75 Z M 28.527344 25.75 "/>
<path style=" stroke:none;fill-rule:nonzero;fill:rgb(0%,0%,0%);fill-opacity:0.4;" d="M 28.523438 25.75 C 28.25 25.75 28.027344 25.972656 28.027344 26.25 C 28.027344 26.292969 28.039062 26.335938 28.050781 26.375 C 28.105469 26.160156 28.292969 26 28.527344 26 C 28.757812 26 28.945312 26.160156 29 26.375 C 29.011719 26.335938 29.023438 26.292969 29.023438 26.25 C 29.023438 25.972656 28.800781 25.75 28.523438 25.75 Z M 28.523438 25.75 "/>
<path style=" stroke:none;fill-rule:nonzero;fill:rgb(100%,100%,100%);fill-opacity:0.4;" d="M 28.523438 27 C 28.25 27 28.027344 26.777344 28.027344 26.5 C 28.027344 26.457031 28.039062 26.414062 28.050781 26.375 C 28.105469 26.589844 28.292969 26.75 28.527344 26.75 C 28.757812 26.75 28.945312 26.589844 29 26.375 C 29.011719 26.414062 29.027344 26.457031 29.027344 26.5 C 29.027344 26.777344 28.800781 27 28.527344 27 Z M 28.523438 27 "/>
<path style=" stroke:none;fill-rule:nonzero;fill:rgb(100%,100%,100%);fill-opacity:0.4;" d="M 4 4 C 2.890625 4 2 4.890625 2 6 L 2 6.484375 C 2 5.375 2.890625 4.484375 4 4.484375 L 28 4.484375 C 29.109375 4.484375 30 5.375 30 6.484375 L 30 6 C 30 4.890625 29.109375 4 28 4 Z M 4 4 "/>
<path style=" stroke:none;fill-rule:nonzero;fill:rgb(0.392157%,0.392157%,0.392157%);fill-opacity:0.4;" d="M 4 27.996094 C 2.890625 27.996094 2 27.105469 2 25.996094 L 2 25.511719 C 2 26.621094 2.890625 27.511719 4 27.511719 L 28 27.511719 C 29.109375 27.511719 30 26.621094 30 25.511719 L 30 25.996094 C 30 27.105469 29.109375 27.996094 28 27.996094 Z M 4 27.996094 "/>
<path style=" stroke:none;fill-rule:nonzero;fill:rgb(0%,0%,0%);fill-opacity:0.2;" d="M 2 26 L 2 26.75 C 2 27.859375 2.890625 28.75 4 28.75 L 28 28.75 C 29.109375 28.75 30 27.859375 30 26.75 L 30 26 C 30 27.109375 29.109375 28 28 28 L 4 28 C 2.890625 28 2 27.109375 2 26 Z M 2 26 "/>
<path style=" stroke:none;fill-rule:nonzero;fill:url(#linear1);" d="M 16 7 C 8.796875 7 3 7.113281 3 7.25 C 3 7.386719 8.796875 7.5 16 7.5 C 20.070312 7.5 23.644531 7.464844 26.023438 7.40625 L 26.382812 7.101562 C 24.015625 7.039062 20.273438 7 16 7 Z M 16 8.5 C 8.796875 8.5 3 8.613281 3 8.75 C 3 8.886719 8.796875 9 16 9 C 19.179688 9 21.984375 8.976562 24.238281 8.9375 L 24.671875 8.566406 C 22.367188 8.527344 19.371094 8.5 16 8.5 Z M 16 10 C 8.796875 10 3 10.113281 3 10.25 C 3 10.386719 8.796875 10.5 16 10.5 C 18.40625 10.5 20.53125 10.484375 22.460938 10.460938 L 22.949219 10.042969 C 20.910156 10.019531 18.621094 10 16 10 Z M 16 11.5 C 8.796875 11.5 3 11.613281 3 11.75 C 3 11.886719 8.796875 12 16 12 C 17.664062 12 19.226562 11.992188 20.6875 11.984375 L 21.226562 11.523438 C 19.621094 11.507812 17.867188 11.5 16 11.5 Z M 16 13 C 8.796875 13 3 13.113281 3 13.25 C 3 13.386719 8.796875 13.5 16 13.5 C 17.039062 13.5 17.960938 13.492188 18.929688 13.488281 L 19.484375 13.015625 C 18.351562 13.007812 17.238281 13 16 13 Z M 16 14.5 C 8.796875 14.5 3 14.613281 3 14.75 C 3 14.886719 8.796875 15 16 15 C 16.417969 15 16.765625 14.996094 17.171875 14.996094 L 17.742188 14.507812 C 17.148438 14.503906 16.617188 14.5 16 14.5 Z M 16 16 C 8.796875 16 3 16.113281 3 16.25 C 3 16.382812 8.503906 16.492188 15.417969 16.5 Z M 14.242188 17.507812 C 7.917969 17.523438 3 17.625 3 17.75 C 3 17.871094 7.636719 17.96875 13.675781 17.992188 Z M 12.484375 19.015625 C 7.042969 19.042969 3 19.136719 3 19.25 C 3 19.359375 6.769531 19.453125 11.933594 19.484375 Z M 10.722656 20.523438 C 6.179688 20.5625 3 20.648438 3 20.75 C 3 20.847656 5.96875 20.929688 10.199219 20.96875 Z M 8.945312 22.046875 C 5.445312 22.089844 3 22.164062 3 22.25 C 3 22.332031 5.238281 22.402344 8.476562 22.449219 Z M 7.171875 23.570312 C 4.632812 23.613281 3 23.675781 3 23.75 C 3 23.820312 4.433594 23.878906 6.753906 23.925781 Z M 5.375 25.105469 C 3.886719 25.148438 3 25.195312 3 25.25 C 3 25.300781 3.765625 25.34375 5.050781 25.382812 Z M 5.375 25.105469 "/>
<path style=" stroke:none;fill-rule:nonzero;fill:rgb(14.901961%,65.098041%,60.392159%);fill-opacity:1;" d="M 22.429688 10.488281 L 21.65625 11.152344 L 24.566406 16.246094 C 24.65625 16.402344 24.820312 16.496094 25 16.5 L 26.992188 16.5 C 26.992188 16.5 26.996094 16.5 27 16.5 L 27.75 16.5 C 27.886719 16.5 28 16.386719 28 16.25 L 28 15.75 C 28 15.613281 27.886719 15.5 27.75 15.5 L 25.289062 15.5 Z M 20.085938 12.5 L 18.398438 13.945312 L 15.933594 19.859375 L 14.503906 17.28125 L 13.734375 17.945312 L 15.566406 21.242188 C 15.65625 21.410156 15.835938 21.507812 16.027344 21.496094 C 16.21875 21.488281 16.386719 21.371094 16.460938 21.195312 Z M 20.085938 12.5 "/>
<path style=" stroke:none;fill-rule:nonzero;fill:rgb(14.901961%,77.64706%,85.490197%);fill-opacity:0.2;" d="M 23.179688 9.84375 L 20.882812 11.816406 L 23.699219 16.742188 C 23.699219 16.742188 23.699219 16.746094 23.699219 16.746094 C 23.964844 17.207031 24.460938 17.496094 24.996094 17.5 C 24.996094 17.5 24.996094 17.5 25 17.5 L 26.96875 17.5 C 26.910156 17.5 26.773438 17.5 27 17.5 L 27.75 17.5 C 28.425781 17.5 29 16.925781 29 16.25 L 29 15.75 C 29 15.074219 28.425781 14.5 27.75 14.5 L 25.871094 14.5 L 23.296875 9.992188 C 23.261719 9.941406 23.222656 9.890625 23.179688 9.84375 Z M 20.84375 11.847656 L 16.710938 15.390625 L 15.804688 17.566406 L 15.378906 16.796875 C 15.34375 16.738281 15.304688 16.6875 15.257812 16.636719 L 12.957031 18.609375 L 14.691406 21.726562 C 15.265625 22.761719 16.921875 22.675781 17.382812 21.585938 C 17.382812 21.582031 17.382812 21.582031 17.382812 21.578125 L 21.007812 12.882812 C 21.152344 12.535156 21.089844 12.132812 20.84375 11.847656 Z M 20.84375 11.847656 "/>
<path style=" stroke:none;fill-rule:nonzero;fill:rgb(50.196081%,87.058824%,91.764706%);fill-opacity:1;" d="M 22.429688 10.492188 L 21.65625 11.152344 L 24.566406 16.246094 C 24.65625 16.402344 24.820312 16.496094 25 16.5 L 26.992188 16.5 C 26.992188 16.5 26.996094 16.5 27 16.5 L 27.75 16.5 C 27.886719 16.5 28 16.386719 28 16.25 L 28 15.75 C 28 15.613281 27.886719 15.5 27.75 15.5 L 25.289062 15.5 Z M 20.085938 12.5 L 18.398438 13.945312 L 15.933594 19.859375 L 14.503906 17.28125 L 13.734375 17.945312 L 15.5625 21.242188 C 15.65625 21.410156 15.835938 21.507812 16.027344 21.496094 C 16.21875 21.488281 16.386719 21.371094 16.460938 21.195312 Z M 20.085938 12.5 "/>
<path style=" stroke:none;fill-rule:nonzero;fill:rgb(0%,0%,0%);fill-opacity:0.4;" d="M 21.65625 11.152344 L 21.558594 11.234375 L 24.566406 16.496094 C 24.65625 16.652344 24.820312 16.746094 25 16.75 L 26.992188 16.75 C 26.992188 16.75 26.996094 16.75 27 16.75 L 27.75 16.75 C 27.886719 16.75 28 16.636719 28 16.5 L 28 16.25 C 28 16.386719 27.886719 16.5 27.75 16.5 L 27 16.5 C 26.996094 16.5 26.992188 16.5 26.992188 16.5 L 25 16.5 C 24.820312 16.496094 24.65625 16.402344 24.566406 16.246094 Z M 20.246094 12.359375 L 20.085938 12.5 L 16.460938 21.195312 C 16.386719 21.371094 16.21875 21.488281 16.027344 21.496094 C 15.835938 21.507812 15.65625 21.410156 15.5625 21.242188 L 13.734375 17.945312 L 13.640625 18.023438 L 15.5625 21.492188 C 15.65625 21.660156 15.835938 21.757812 16.027344 21.746094 C 16.21875 21.738281 16.386719 21.621094 16.460938 21.445312 Z M 20.246094 12.359375 "/>
<path style=" stroke:none;fill-rule:nonzero;fill:rgb(100%,100%,100%);fill-opacity:0.4;" d="M 22.429688 10.492188 L 22.332031 10.570312 L 25.289062 15.75 L 27.75 15.75 C 27.886719 15.75 28 15.863281 28 16 L 28 15.75 C 28 15.613281 27.886719 15.5 27.75 15.5 L 25.289062 15.5 Z M 18.5625 13.804688 L 18.398438 13.945312 L 15.933594 19.859375 L 14.503906 17.28125 L 14.410156 17.363281 L 15.933594 20.109375 Z M 18.5625 13.804688 "/>
<path style=" stroke:none;fill-rule:nonzero;fill:url(#linear2);" d="M 4 4 L 28 4 C 29.105469 4 30 4.894531 30 6 L 30 26 C 30 27.105469 29.105469 28 28 28 L 4 28 C 2.894531 28 2 27.105469 2 26 L 2 6 C 2 4.894531 2.894531 4 4 4 Z M 4 4 "/>
</g>
</svg>
