
<svg xmlns="http://www.w3.org/2000/svg" xmlns:xlink="http://www.w3.org/1999/xlink" width="32" height="32" viewBox="0 0 32 32" version="1.1">
<defs>
<linearGradient id="linear0" gradientUnits="userSpaceOnUse" x1="31.999998" y1="60" x2="31.999998" y2="3.999999" gradientTransform="matrix(0.5,0,0,0.5,0,0)">
<stop offset="0" style="stop-color:rgb(0%,0%,0%);stop-opacity:0.2;"/>
<stop offset="1" style="stop-color:rgb(100%,100%,100%);stop-opacity:0;"/>
</linearGradient>
</defs>
<g id="surface1">
<path style=" stroke:none;fill-rule:nonzero;fill:rgb(38.039216%,38.039216%,38.039216%);fill-opacity:1;" d="M 14 3 L 18 3 L 18 5 L 14 5 Z M 14 3 "/>
<path style=" stroke:none;fill-rule:nonzero;fill:rgb(55.29412%,43.137255%,38.82353%);fill-opacity:1;" d="M 4 21 L 28 21 C 29.105469 21 30 21.894531 30 23 L 30 28 C 30 29.105469 29.105469 30 28 30 L 4 30 C 2.894531 30 2 29.105469 2 28 L 2 23 C 2 21.894531 2.894531 21 4 21 Z M 4 21 "/>
<path style=" stroke:none;fill-rule:nonzero;fill:rgb(87.843138%,87.843138%,87.843138%);fill-opacity:1;" d="M 16 4 C 8.796875 4 3 9.796875 3 17 L 3 19 L 29 19 L 29 17 C 29 9.796875 23.203125 4 16 4 Z M 16 4 "/>
<path style=" stroke:none;fill-rule:nonzero;fill:rgb(74.117649%,74.117649%,74.117649%);fill-opacity:1;" d="M 16 2 C 14.339844 2 13 2.445312 13 3 L 13 4 L 19 4 L 19 3 C 19 2.445312 17.660156 2 16 2 Z M 16 2 "/>
<path style=" stroke:none;fill-rule:nonzero;fill:rgb(38.039216%,38.039216%,38.039216%);fill-opacity:1;" d="M 5 19 L 27 19 L 27 21 L 5 21 Z M 5 19 "/>
<path style=" stroke:none;fill-rule:nonzero;fill:rgb(100%,100%,100%);fill-opacity:0.6;" d="M 16 4 C 8.796875 4 3 9.796875 3 17 L 3 17.5 C 3 10.296875 8.796875 4.5 16 4.5 C 23.203125 4.5 29 10.296875 29 17.5 L 29 17 C 29 9.796875 23.203125 4 16 4 Z M 16 4 "/>
<path style=" stroke:none;fill-rule:nonzero;fill:rgb(0%,0%,0%);fill-opacity:0.4;" d="M 3 18.5 L 3 19 L 29 19 L 29 18.5 Z M 3 18.5 "/>
<path style=" stroke:none;fill-rule:nonzero;fill:rgb(0%,0%,0%);fill-opacity:0.4;" d="M 5 19 L 5 19.5 L 27 19.5 L 27 19 Z M 5 19 "/>
<path style=" stroke:none;fill-rule:nonzero;fill:rgb(100%,100%,100%);fill-opacity:0.4;" d="M 4 21 C 2.890625 21 2 21.890625 2 23 L 2 23.5 C 2 22.390625 2.890625 21.5 4 21.5 L 28 21.5 C 29.109375 21.5 30 22.390625 30 23.5 L 30 23 C 30 21.890625 29.109375 21 28 21 Z M 4 21 "/>
<path style=" stroke:none;fill-rule:nonzero;fill:rgb(0.392157%,0.392157%,0.392157%);fill-opacity:0.4;" d="M 4 30 C 2.890625 30 2 29.109375 2 28 L 2 27.5 C 2 28.609375 2.890625 29.5 4 29.5 L 28 29.5 C 29.109375 29.5 30 28.609375 30 27.5 L 30 28 C 30 29.109375 29.109375 30 28 30 Z M 4 30 "/>
<path style=" stroke:none;fill-rule:nonzero;fill:rgb(0%,0%,0%);fill-opacity:0.2;" d="M 2 28 L 2 28.75 C 2 29.859375 2.890625 30.75 4 30.75 L 28 30.75 C 29.109375 30.75 30 29.859375 30 28.75 L 30 28 C 30 29.109375 29.109375 30 28 30 L 4 30 C 2.890625 30 2 29.109375 2 28 Z M 2 28 "/>
<path style=" stroke:none;fill-rule:nonzero;fill:rgb(74.117649%,74.117649%,74.117649%);fill-opacity:1;" d="M 16 2 C 14.339844 2 13 2.445312 13 3 L 13 4 L 19 4 L 19 3 C 19 2.445312 17.660156 2 16 2 Z M 16 2 "/>
<path style=" stroke:none;fill-rule:nonzero;fill:rgb(0%,0%,0%);fill-opacity:0.4;" d="M 13 3.5 L 13 4 L 19 4 L 19 3.5 Z M 13 3.5 "/>
<path style=" stroke:none;fill-rule:nonzero;fill:rgb(100%,100%,100%);fill-opacity:0.4;" d="M 16 2 C 14.339844 2 13 2.445312 13 3 L 13 3.5 C 13 2.945312 14.339844 2.5 16 2.5 C 17.660156 2.5 19 2.945312 19 3.5 L 19 3 C 19 2.445312 17.660156 2 16 2 Z M 16 2 "/>
<path style=" stroke:none;fill-rule:nonzero;fill:url(#linear0);" d="M 16 2 C 14.339844 2 13 2.445312 13 3 L 13 4 L 14 4 L 14 4.152344 C 7.753906 5.109375 3 10.476562 3 17 L 3 19 L 5 19 L 5 21 L 4 21 C 2.890625 21 2 21.890625 2 23 L 2 28 C 2 29.109375 2.890625 30 4 30 L 28 30 C 28.519531 30 28.992188 29.804688 29.34375 29.480469 C 29.746094 29.117188 30 28.589844 30 28 L 30 23 C 30 21.890625 29.109375 21 28 21 L 27 21 L 27 19 L 29 19 L 29 17 C 29 10.476562 24.246094 5.109375 18 4.152344 L 18 4 L 19 4 L 19 3 C 19 2.445312 17.660156 2 16 2 Z M 16 2 "/>
<path style=" stroke:none;fill-rule:nonzero;fill:rgb(100%,100%,100%);fill-opacity:0.4;" d="M 9.546875 8.816406 C 9.9375 9.207031 9.621094 10.15625 8.839844 10.9375 C 8.058594 11.71875 7.109375 12.035156 6.71875 11.644531 C 6.328125 11.253906 6.644531 10.304688 7.425781 9.523438 C 8.207031 8.742188 9.15625 8.425781 9.546875 8.816406 Z M 9.546875 8.816406 "/>
</g>
</svg>
