
<svg xmlns="http://www.w3.org/2000/svg" xmlns:xlink="http://www.w3.org/1999/xlink" width="32" height="32" viewBox="0 0 32 32" version="1.1">
<defs>
<linearGradient id="linear0" gradientUnits="userSpaceOnUse" x1="12.170833" y1="-199.125" x2="12.170833" y2="-207.0625" gradientTransform="matrix(1.889764,0,0,1.889764,-0.00879093,406.290477)">
<stop offset="0" style="stop-color:rgb(0%,0%,0%);stop-opacity:0.2;"/>
<stop offset="1" style="stop-color:rgb(100%,100%,100%);stop-opacity:0;"/>
</linearGradient>
<linearGradient id="linear1" gradientUnits="userSpaceOnUse" x1="31.999998" y1="59.999996" x2="31.999998" y2="3.999999" gradientTransform="matrix(0.5,0,0,0.5,0,0)">
<stop offset="0" style="stop-color:rgb(0%,0%,0%);stop-opacity:0.2;"/>
<stop offset="1" style="stop-color:rgb(100%,100%,100%);stop-opacity:0;"/>
</linearGradient>
</defs>
<g id="surface1">
<path style=" stroke:none;fill-rule:nonzero;fill:rgb(47.058824%,56.470591%,61.176473%);fill-opacity:1;" d="M 22.902344 15.257812 C 22.421875 15.261719 21.953125 15.316406 21.496094 15.410156 L 21.007812 17.863281 C 20.601562 18.035156 20.21875 18.253906 19.875 18.515625 L 17.503906 17.714844 C 17.175781 18.085938 16.878906 18.496094 16.621094 18.941406 C 16.363281 19.386719 16.15625 19.847656 16 20.320312 L 17.882812 21.972656 C 17.859375 22.1875 17.84375 22.402344 17.84375 22.625 C 17.84375 22.84375 17.855469 23.0625 17.882812 23.273438 L 16 24.929688 C 16.15625 25.398438 16.363281 25.859375 16.621094 26.308594 C 16.878906 26.753906 17.175781 27.164062 17.503906 27.535156 L 19.875 26.730469 C 20.21875 26.996094 20.601562 27.214844 21.007812 27.382812 L 21.496094 29.839844 C 21.980469 29.9375 22.484375 29.992188 23 29.992188 C 23.515625 29.992188 24.019531 29.9375 24.503906 29.839844 L 24.996094 27.382812 C 25.402344 27.214844 25.78125 26.996094 26.125 26.730469 L 28.496094 27.535156 C 28.824219 27.164062 29.121094 26.753906 29.378906 26.308594 C 29.636719 25.859375 29.84375 25.398438 30 24.929688 L 28.117188 23.273438 C 28.144531 23.0625 28.15625 22.84375 28.15625 22.625 C 28.15625 22.402344 28.144531 22.1875 28.117188 21.972656 L 30 20.320312 C 29.84375 19.847656 29.636719 19.386719 29.378906 18.941406 C 29.121094 18.496094 28.824219 18.085938 28.496094 17.714844 L 26.125 18.515625 C 25.78125 18.253906 25.402344 18.035156 24.996094 17.863281 L 24.503906 15.410156 C 24.019531 15.308594 23.515625 15.257812 23 15.257812 C 22.96875 15.257812 22.9375 15.257812 22.902344 15.257812 Z M 23 19.675781 C 24.632812 19.675781 25.945312 20.992188 25.945312 22.625 C 25.945312 24.257812 24.632812 25.570312 23 25.570312 C 21.367188 25.570312 20.054688 24.257812 20.054688 22.625 C 20.054688 20.992188 21.367188 19.675781 23 19.675781 Z M 23 19.675781 "/>
<path style=" stroke:none;fill-rule:nonzero;fill:rgb(100%,100%,100%);fill-opacity:0.4;" d="M 22.902344 15.257812 C 22.421875 15.261719 21.953125 15.316406 21.496094 15.410156 L 21.003906 17.863281 C 20.597656 18.035156 20.21875 18.253906 19.875 18.515625 L 17.503906 17.714844 C 17.175781 18.085938 16.878906 18.492188 16.621094 18.941406 C 16.363281 19.386719 16.15625 19.847656 16 20.320312 L 16.132812 20.4375 C 16.269531 20.09375 16.429688 19.753906 16.621094 19.425781 C 16.878906 18.976562 17.175781 18.570312 17.503906 18.199219 L 19.875 19 C 20.21875 18.738281 20.597656 18.519531 21.007812 18.347656 L 21.496094 15.894531 C 21.953125 15.800781 22.421875 15.746094 22.90625 15.742188 C 22.9375 15.742188 22.96875 15.742188 23 15.742188 C 23.515625 15.742188 24.019531 15.792969 24.503906 15.894531 L 24.996094 18.347656 C 25.402344 18.519531 25.78125 18.738281 26.125 19 L 28.496094 18.199219 C 28.828125 18.570312 29.121094 18.976562 29.378906 19.425781 C 29.570312 19.753906 29.734375 20.09375 29.867188 20.4375 L 30 20.320312 C 29.84375 19.847656 29.636719 19.386719 29.378906 18.941406 C 29.121094 18.492188 28.828125 18.085938 28.496094 17.714844 L 26.125 18.515625 C 25.78125 18.253906 25.402344 18.035156 24.996094 17.863281 L 24.503906 15.410156 C 24.019531 15.308594 23.515625 15.257812 23 15.257812 C 22.96875 15.257812 22.9375 15.257812 22.90625 15.257812 Z M 17.847656 22.425781 C 17.84375 22.492188 17.84375 22.558594 17.84375 22.625 C 17.84375 22.707031 17.847656 22.785156 17.847656 22.867188 C 17.855469 22.730469 17.867188 22.59375 17.882812 22.457031 Z M 28.152344 22.425781 L 28.117188 22.457031 C 28.132812 22.59375 28.144531 22.730469 28.152344 22.867188 C 28.15625 22.785156 28.15625 22.707031 28.15625 22.625 C 28.15625 22.558594 28.15625 22.492188 28.152344 22.425781 Z M 20.0625 22.867188 C 20.058594 22.945312 20.054688 23.027344 20.054688 23.109375 C 20.054688 24.742188 21.367188 26.054688 23 26.054688 C 24.632812 26.054688 25.945312 24.742188 25.945312 23.109375 C 25.945312 23.027344 25.941406 22.945312 25.9375 22.867188 C 25.8125 24.382812 24.550781 25.570312 23 25.570312 C 21.449219 25.570312 20.1875 24.382812 20.0625 22.867188 Z M 28.152344 23.304688 C 28.148438 23.457031 28.136719 23.609375 28.117188 23.757812 L 29.867188 25.296875 C 29.914062 25.175781 29.960938 25.054688 30 24.929688 Z M 17.847656 23.308594 L 16 24.929688 C 16.039062 25.054688 16.085938 25.175781 16.132812 25.296875 L 17.882812 23.757812 C 17.867188 23.609375 17.851562 23.460938 17.847656 23.308594 Z M 17.847656 23.308594 "/>
<path style=" stroke:none;fill-rule:nonzero;fill:rgb(0%,0%,0%);fill-opacity:0.4;" d="M 23 19.171875 C 21.367188 19.171875 20.054688 20.484375 20.054688 22.117188 C 20.054688 22.203125 20.058594 22.289062 20.066406 22.371094 C 20.191406 20.859375 21.453125 19.679688 23 19.679688 C 24.546875 19.679688 25.808594 20.859375 25.9375 22.371094 C 25.941406 22.289062 25.949219 22.203125 25.949219 22.117188 C 25.949219 20.484375 24.632812 19.171875 23 19.171875 Z M 29.859375 19.9375 L 28.117188 21.46875 C 28.136719 21.625 28.148438 21.78125 28.152344 21.941406 L 30 20.320312 C 29.957031 20.191406 29.910156 20.0625 29.859375 19.9375 Z M 16.140625 19.9375 C 16.089844 20.0625 16.042969 20.191406 16 20.320312 L 17.847656 21.941406 C 17.851562 21.78125 17.863281 21.621094 17.882812 21.46875 Z M 17.847656 22.371094 C 17.84375 22.453125 17.84375 22.539062 17.84375 22.625 C 17.84375 22.683594 17.84375 22.742188 17.847656 22.800781 L 17.882812 22.769531 C 17.867188 22.636719 17.855469 22.503906 17.851562 22.371094 Z M 28.152344 22.371094 C 28.144531 22.503906 28.132812 22.636719 28.117188 22.769531 L 28.152344 22.800781 C 28.15625 22.742188 28.15625 22.683594 28.15625 22.625 C 28.15625 22.539062 28.15625 22.457031 28.152344 22.371094 Z M 16.140625 24.808594 L 16 24.929688 C 16.15625 25.398438 16.363281 25.859375 16.621094 26.308594 C 16.878906 26.753906 17.175781 27.164062 17.503906 27.535156 L 19.875 26.734375 C 20.21875 26.996094 20.597656 27.214844 21.003906 27.382812 L 21.496094 29.839844 C 21.980469 29.9375 22.484375 29.992188 23 29.992188 C 23.515625 29.992188 24.019531 29.9375 24.503906 29.839844 L 24.996094 27.382812 C 25.402344 27.214844 25.78125 26.996094 26.125 26.734375 L 28.496094 27.535156 C 28.828125 27.164062 29.121094 26.753906 29.378906 26.308594 C 29.636719 25.859375 29.84375 25.398438 30 24.929688 L 29.859375 24.808594 C 29.726562 25.144531 29.566406 25.476562 29.378906 25.800781 C 29.121094 26.25 28.828125 26.65625 28.496094 27.027344 L 26.125 26.226562 C 25.78125 26.488281 25.402344 26.707031 24.996094 26.878906 L 24.503906 29.332031 C 24.019531 29.433594 23.515625 29.484375 23 29.484375 C 22.484375 29.484375 21.980469 29.433594 21.496094 29.332031 L 21.003906 26.878906 C 20.597656 26.707031 20.21875 26.488281 19.875 26.226562 L 17.503906 27.027344 C 17.175781 26.65625 16.878906 26.25 16.621094 25.800781 C 16.433594 25.476562 16.273438 25.144531 16.140625 24.808594 Z M 16.140625 24.808594 "/>
<path style=" stroke:none;fill-rule:nonzero;fill:rgb(0%,0%,0%);fill-opacity:0.2;" d="M 23 19.679688 C 21.367188 19.679688 20.054688 20.992188 20.054688 22.625 C 20.054688 22.75 20.0625 22.875 20.078125 22.996094 C 20.257812 21.539062 21.492188 20.421875 23 20.421875 C 24.507812 20.421875 25.742188 21.539062 25.921875 22.996094 C 25.9375 22.875 25.945312 22.75 25.945312 22.625 C 25.945312 20.992188 24.632812 19.679688 23 19.679688 Z M 29.789062 20.503906 L 28.117188 21.972656 C 28.144531 22.1875 28.15625 22.402344 28.15625 22.625 C 28.15625 22.644531 28.15625 22.664062 28.15625 22.683594 L 30 21.0625 C 29.9375 20.875 29.867188 20.6875 29.789062 20.503906 Z M 16.210938 20.503906 C 16.132812 20.6875 16.0625 20.875 16 21.0625 L 17.84375 22.683594 C 17.84375 22.664062 17.84375 22.644531 17.84375 22.625 C 17.84375 22.402344 17.855469 22.1875 17.882812 21.972656 Z M 17.855469 22.996094 C 17.847656 23.097656 17.847656 23.203125 17.84375 23.308594 L 17.882812 23.273438 C 17.871094 23.183594 17.863281 23.089844 17.855469 22.996094 Z M 28.144531 22.996094 C 28.136719 23.089844 28.128906 23.183594 28.117188 23.273438 L 28.15625 23.308594 C 28.15625 23.203125 28.152344 23.097656 28.144531 22.996094 Z M 16.210938 25.488281 L 16 25.671875 C 16.15625 26.140625 16.363281 26.601562 16.621094 27.050781 C 16.878906 27.496094 17.175781 27.90625 17.503906 28.277344 L 19.875 27.476562 C 20.21875 27.738281 20.597656 27.957031 21.003906 28.125 L 21.496094 30.582031 C 21.980469 30.679688 22.484375 30.734375 23 30.734375 C 23.515625 30.734375 24.019531 30.679688 24.503906 30.582031 L 24.996094 28.125 C 25.402344 27.957031 25.78125 27.738281 26.125 27.476562 L 28.496094 28.277344 C 28.828125 27.90625 29.121094 27.496094 29.378906 27.050781 C 29.636719 26.601562 29.84375 26.140625 30 25.671875 L 29.789062 25.488281 C 29.671875 25.765625 29.535156 26.039062 29.378906 26.308594 C 29.121094 26.753906 28.828125 27.164062 28.496094 27.535156 L 26.125 26.734375 C 25.78125 26.996094 25.402344 27.214844 24.996094 27.382812 L 24.503906 29.839844 C 24.019531 29.9375 23.515625 29.992188 23 29.992188 C 22.484375 29.992188 21.980469 29.9375 21.496094 29.839844 L 21.003906 27.382812 C 20.597656 27.214844 20.21875 26.996094 19.875 26.734375 L 17.503906 27.535156 C 17.175781 27.164062 16.878906 26.753906 16.621094 26.308594 C 16.464844 26.039062 16.328125 25.765625 16.210938 25.488281 Z M 16.210938 25.488281 "/>
<path style=" stroke:none;fill-rule:nonzero;fill:url(#linear0);" d="M 22.902344 15.257812 C 22.421875 15.261719 21.953125 15.316406 21.496094 15.410156 L 21.007812 17.863281 C 20.601562 18.035156 20.21875 18.253906 19.875 18.515625 L 17.503906 17.714844 C 17.175781 18.085938 16.878906 18.496094 16.621094 18.941406 C 16.363281 19.386719 16.15625 19.847656 16 20.320312 L 17.882812 21.972656 C 17.859375 22.1875 17.84375 22.402344 17.84375 22.625 C 17.84375 22.84375 17.855469 23.0625 17.882812 23.273438 L 16 24.929688 C 16.15625 25.398438 16.363281 25.859375 16.621094 26.308594 C 16.878906 26.753906 17.175781 27.164062 17.503906 27.535156 L 19.875 26.730469 C 20.21875 26.996094 20.601562 27.214844 21.007812 27.382812 L 21.496094 29.839844 C 21.980469 29.9375 22.484375 29.992188 23 29.992188 C 23.515625 29.992188 24.019531 29.9375 24.503906 29.839844 L 24.996094 27.382812 C 25.402344 27.214844 25.78125 26.996094 26.125 26.730469 L 28.496094 27.535156 C 28.824219 27.164062 29.121094 26.753906 29.378906 26.308594 C 29.636719 25.859375 29.84375 25.398438 30 24.929688 L 28.117188 23.273438 C 28.144531 23.0625 28.15625 22.84375 28.15625 22.625 C 28.15625 22.402344 28.144531 22.1875 28.117188 21.972656 L 30 20.320312 C 29.84375 19.847656 29.636719 19.386719 29.378906 18.941406 C 29.121094 18.496094 28.824219 18.085938 28.496094 17.714844 L 26.125 18.515625 C 25.78125 18.253906 25.402344 18.035156 24.996094 17.863281 L 24.503906 15.410156 C 24.019531 15.308594 23.515625 15.257812 23 15.257812 C 22.96875 15.257812 22.9375 15.257812 22.902344 15.257812 Z M 23 19.675781 C 24.632812 19.675781 25.945312 20.992188 25.945312 22.625 C 25.945312 24.257812 24.632812 25.570312 23 25.570312 C 21.367188 25.570312 20.054688 24.257812 20.054688 22.625 C 20.054688 20.992188 21.367188 19.675781 23 19.675781 Z M 23 19.675781 "/>
<path style=" stroke:none;fill-rule:nonzero;fill:rgb(74.117649%,74.117649%,74.117649%);fill-opacity:0.996078;" d="M 14.640625 7.628906 L 17.238281 9.128906 L 11.738281 18.65625 L 9.140625 17.15625 Z M 14.640625 7.628906 "/>
<path style=" stroke:none;fill-rule:nonzero;fill:rgb(38.039216%,38.039216%,38.039216%);fill-opacity:1;" d="M 20.921875 4.886719 C 16.632812 2.414062 14.554688 1.625 8.679688 2.457031 L 9.078125 3.261719 C 16.140625 5.03125 14.703125 7.46875 13.640625 9.363281 L 16.238281 10.863281 C 18.238281 7.398438 19.675781 8.804688 22.320312 10.332031 L 24.320312 6.867188 C 23.019531 6.117188 21.914062 5.457031 20.921875 4.886719 Z M 20.921875 4.886719 "/>
<path style=" stroke:none;fill-rule:nonzero;fill:rgb(45.882353%,45.882353%,45.882353%);fill-opacity:1;" d="M 9.246094 16.976562 L 11.84375 18.476562 C 12.320312 18.75 12.484375 19.363281 12.210938 19.839844 L 6.710938 29.367188 C 6.433594 29.847656 5.820312 30.011719 5.34375 29.734375 L 2.746094 28.234375 C 2.269531 27.957031 2.105469 27.347656 2.378906 26.867188 L 7.878906 17.339844 C 8.15625 16.863281 8.769531 16.699219 9.246094 16.976562 Z M 9.246094 16.976562 "/>
<path style=" stroke:none;fill-rule:nonzero;fill:rgb(45.882353%,45.882353%,45.882353%);fill-opacity:1;" d="M 24.785156 6.558594 L 26.085938 7.308594 C 26.207031 7.378906 26.246094 7.53125 26.175781 7.648438 L 23.925781 11.546875 C 23.859375 11.667969 23.707031 11.707031 23.585938 11.636719 L 22.285156 10.886719 C 22.167969 10.820312 22.125 10.667969 22.195312 10.546875 L 24.445312 6.648438 C 24.515625 6.53125 24.667969 6.488281 24.785156 6.558594 Z M 24.785156 6.558594 "/>
<path style=" stroke:none;fill-rule:nonzero;fill:rgb(38.039216%,38.039216%,38.039216%);fill-opacity:1;" d="M 12.269531 18.960938 L 7.660156 17.726562 L 7.140625 18.621094 L 12.140625 19.960938 L 12.210938 19.839844 C 12.371094 19.5625 12.382812 19.238281 12.269531 18.960938 Z M 11.625 20.855469 L 6.625 19.515625 L 6.105469 20.414062 L 11.105469 21.753906 Z M 10.589844 22.648438 L 5.589844 21.308594 L 5.070312 22.207031 L 10.070312 23.546875 Z M 9.554688 24.441406 L 4.554688 23.105469 L 4.035156 24 L 9.035156 25.339844 Z M 8.519531 26.238281 L 3.519531 24.898438 L 3 25.792969 L 8 27.132812 Z M 7.484375 28.03125 L 2.484375 26.691406 L 2.378906 26.867188 C 2.234375 27.125 2.210938 27.414062 2.292969 27.675781 L 6.964844 28.925781 Z M 7.484375 28.03125 "/>
<path style=" stroke:none;fill-rule:nonzero;fill:rgb(25.882354%,25.882354%,25.882354%);fill-opacity:1;" d="M 23.886719 6.617188 L 24.320312 6.867188 L 22.320312 10.332031 L 21.886719 10.082031 Z M 23.886719 6.617188 "/>
<path style=" stroke:none;fill-rule:nonzero;fill:rgb(25.882354%,25.882354%,25.882354%);fill-opacity:1;" d="M 13.640625 9.363281 L 16.238281 10.863281 L 16.113281 11.078125 L 13.515625 9.578125 Z M 13.640625 9.363281 "/>
<path style=" stroke:none;fill-rule:nonzero;fill:rgb(0%,0%,0%);fill-opacity:0.4;" d="M 8.941406 2.421875 C 8.851562 2.433594 8.769531 2.441406 8.679688 2.453125 L 9.078125 3.265625 C 13.082031 4.265625 14.351562 5.480469 14.507812 6.691406 C 14.683594 5.300781 13.703125 3.859375 9.078125 2.699219 Z M 26.058594 7.292969 L 23.925781 10.984375 C 23.859375 11.101562 23.707031 11.144531 23.585938 11.074219 L 22.3125 10.339844 L 22.195312 10.546875 C 22.125 10.667969 22.167969 10.820312 22.285156 10.890625 L 23.585938 11.640625 C 23.707031 11.707031 23.859375 11.667969 23.925781 11.546875 L 26.175781 7.648438 C 26.246094 7.53125 26.207031 7.378906 26.085938 7.308594 Z M 18.863281 8.148438 C 17.992188 8.121094 17.179688 8.675781 16.242188 10.296875 L 11.84375 17.914062 C 11.929688 17.960938 12.003906 18.019531 12.066406 18.085938 L 16.242188 10.859375 C 18.214844 7.441406 19.644531 8.769531 22.226562 10.273438 C 22.15625 10.195312 22.140625 10.078125 22.195312 9.984375 L 22.320312 9.765625 C 20.914062 8.957031 19.851562 8.179688 18.863281 8.148438 Z M 12.300781 19.0625 C 12.28125 19.132812 12.25 19.207031 12.210938 19.277344 L 6.710938 28.804688 C 6.433594 29.285156 5.824219 29.445312 5.34375 29.171875 L 2.746094 27.671875 C 2.515625 27.535156 2.359375 27.328125 2.289062 27.089844 C 2.164062 27.523438 2.339844 27.996094 2.746094 28.234375 L 5.34375 29.734375 C 5.824219 30.011719 6.433594 29.847656 6.710938 29.367188 L 12.210938 19.84375 C 12.351562 19.59375 12.375 19.3125 12.300781 19.0625 Z M 12.300781 19.0625 "/>
<path style=" stroke:none;fill-rule:nonzero;fill:rgb(100%,100%,100%);fill-opacity:0.4;" d="M 12.46875 2.136719 C 11.378906 2.140625 10.148438 2.246094 8.679688 2.453125 L 8.875 2.851562 C 10.257812 2.664062 11.429688 2.566406 12.46875 2.5625 C 15.730469 2.550781 17.707031 3.457031 20.921875 5.3125 C 21.914062 5.878906 23.019531 6.539062 24.320312 7.289062 L 24.445312 7.074219 C 24.515625 6.953125 24.667969 6.914062 24.785156 6.984375 L 26.085938 7.734375 C 26.097656 7.738281 26.105469 7.746094 26.117188 7.753906 L 26.175781 7.648438 C 26.246094 7.53125 26.207031 7.378906 26.085938 7.308594 L 24.785156 6.558594 C 24.667969 6.488281 24.515625 6.53125 24.445312 6.648438 L 24.320312 6.867188 C 23.019531 6.117188 21.914062 5.457031 20.921875 4.886719 C 17.707031 3.03125 15.730469 2.125 12.46875 2.136719 Z M 14.515625 7.148438 C 14.453125 7.917969 14.03125 8.667969 13.648438 9.351562 C 13.644531 9.355469 13.644531 9.359375 13.640625 9.359375 L 9.246094 16.976562 C 8.765625 16.699219 8.15625 16.863281 7.878906 17.34375 L 2.378906 26.867188 C 2.25 27.089844 2.222656 27.339844 2.269531 27.570312 C 2.292969 27.476562 2.328125 27.382812 2.378906 27.292969 L 7.878906 17.765625 C 8.15625 17.285156 8.765625 17.125 9.246094 17.398438 L 13.640625 9.785156 C 13.644531 9.78125 13.644531 9.78125 13.648438 9.777344 C 14.101562 8.96875 14.621094 8.0625 14.515625 7.148438 Z M 22.164062 10.664062 C 22.160156 10.738281 22.195312 10.8125 22.257812 10.863281 L 22.320312 10.753906 C 22.265625 10.722656 22.21875 10.695312 22.164062 10.664062 Z M 12.015625 18.601562 L 11.84375 18.898438 C 12.09375 19.046875 12.257812 19.28125 12.320312 19.542969 C 12.390625 19.199219 12.28125 18.839844 12.015625 18.601562 Z M 12.015625 18.601562 "/>
<path style=" stroke:none;fill-rule:nonzero;fill:rgb(0%,0%,0%);fill-opacity:0.2;" d="M 9.132812 3.269531 C 8.984375 3.289062 8.832031 3.308594 8.679688 3.328125 L 9.078125 4.140625 C 12.910156 5.097656 14.238281 6.25 14.484375 7.410156 C 14.75 5.976562 13.886719 4.46875 9.132812 3.269531 Z M 25.917969 8.085938 L 23.925781 11.539062 C 23.859375 11.660156 23.707031 11.699219 23.585938 11.632812 L 22.285156 10.882812 C 22.167969 10.8125 22.125 10.660156 22.195312 10.539062 L 22.320312 10.320312 C 19.675781 8.796875 18.242188 7.390625 16.242188 10.851562 L 11.84375 18.46875 C 11.980469 18.546875 12.09375 18.652344 12.175781 18.777344 L 16.242188 11.734375 C 18.242188 8.273438 19.675781 9.679688 22.320312 11.203125 L 22.195312 11.421875 C 22.125 11.542969 22.167969 11.695312 22.285156 11.765625 L 23.585938 12.515625 C 23.707031 12.582031 23.859375 12.542969 23.925781 12.421875 L 26.175781 8.523438 C 26.246094 8.40625 26.207031 8.253906 26.085938 8.183594 Z M 12.242188 19.773438 C 12.230469 19.792969 12.222656 19.8125 12.210938 19.835938 L 6.710938 29.359375 C 6.433594 29.839844 5.824219 30.003906 5.34375 29.726562 L 2.746094 28.226562 C 2.566406 28.121094 2.433594 27.972656 2.351562 27.804688 C 2.117188 28.273438 2.285156 28.84375 2.746094 29.109375 L 5.34375 30.609375 C 5.824219 30.886719 6.433594 30.722656 6.710938 30.242188 L 12.210938 20.71875 C 12.382812 20.414062 12.382812 20.0625 12.242188 19.773438 Z M 12.242188 19.773438 "/>
<path style=" stroke:none;fill-rule:nonzero;fill:url(#linear1);" d="M 12.46875 2.136719 C 11.378906 2.140625 10.148438 2.246094 8.679688 2.453125 L 9.078125 3.265625 C 16.128906 5.027344 14.707031 7.460938 13.648438 9.351562 C 13.644531 9.355469 13.644531 9.359375 13.640625 9.359375 L 9.246094 16.976562 C 8.765625 16.699219 8.15625 16.863281 7.878906 17.34375 L 2.378906 26.867188 C 2.101562 27.347656 2.265625 27.957031 2.746094 28.234375 L 5.34375 29.734375 C 5.824219 30.011719 6.433594 29.847656 6.710938 29.367188 L 12.210938 19.84375 C 12.488281 19.363281 12.324219 18.753906 11.84375 18.476562 L 16.242188 10.859375 C 18.242188 7.398438 19.675781 8.804688 22.320312 10.328125 L 22.195312 10.546875 C 22.125 10.667969 22.167969 10.820312 22.285156 10.890625 L 23.585938 11.640625 C 23.707031 11.707031 23.859375 11.667969 23.925781 11.546875 L 26.175781 7.648438 C 26.246094 7.53125 26.207031 7.378906 26.085938 7.308594 L 24.785156 6.558594 C 24.667969 6.488281 24.515625 6.53125 24.445312 6.648438 L 24.320312 6.867188 C 23.019531 6.117188 21.914062 5.457031 20.921875 4.886719 C 17.707031 3.03125 15.730469 2.125 12.46875 2.136719 Z M 12.46875 2.136719 "/>
</g>
</svg>
