
<svg xmlns="http://www.w3.org/2000/svg" xmlns:xlink="http://www.w3.org/1999/xlink" width="32" height="32" viewBox="0 0 32 32" version="1.1">
<defs>
<linearGradient id="linear0" gradientUnits="userSpaceOnUse" x1="31.999998" y1="59.999996" x2="31.999998" y2="3.999999" gradientTransform="matrix(0.5,0,0,0.5,0,0)">
<stop offset="0" style="stop-color:rgb(0%,0%,0%);stop-opacity:0.2;"/>
<stop offset="1" style="stop-color:rgb(100%,100%,100%);stop-opacity:0;"/>
</linearGradient>
</defs>
<g id="surface1">
<path style=" stroke:none;fill-rule:nonzero;fill:rgb(38.039216%,38.039216%,38.039216%);fill-opacity:1;" d="M 29.261719 17.894531 L 27.328125 17.378906 C 26.796875 17.234375 26.246094 17.550781 26.105469 18.085938 L 24.808594 22.914062 C 24.667969 23.449219 24.984375 23.996094 25.515625 24.140625 L 27.449219 24.65625 C 27.980469 24.800781 28.53125 24.484375 28.671875 23.949219 L 29.96875 19.121094 C 30.109375 18.585938 29.792969 18.039062 29.261719 17.894531 Z M 29.261719 17.894531 "/>
<path style=" stroke:none;fill-rule:nonzero;fill:rgb(38.039216%,38.039216%,38.039216%);fill-opacity:1;" d="M 16 3 C 9.351562 3 4 8.351562 4 15 C 4 15.335938 4.015625 15.671875 4.042969 16 L 6.050781 16 C 6.015625 15.671875 6 15.335938 6 15 C 6 9.460938 10.460938 5 16 5 C 21.539062 5 26 9.460938 26 15 C 26 15.335938 25.984375 15.671875 25.949219 16 L 27.957031 16 C 27.984375 15.671875 28 15.335938 28 15 C 28 8.351562 22.648438 3 16 3 Z M 16 3 "/>
<path style=" stroke:none;fill-rule:nonzero;fill:rgb(38.039216%,38.039216%,38.039216%);fill-opacity:1;" d="M 2.742188 17.894531 L 4.671875 17.378906 C 5.207031 17.234375 5.753906 17.550781 5.898438 18.085938 L 7.191406 22.914062 C 7.335938 23.449219 7.019531 23.996094 6.484375 24.140625 L 4.554688 24.65625 C 4.019531 24.800781 3.472656 24.484375 3.328125 23.949219 L 2.035156 19.121094 C 1.890625 18.585938 2.207031 18.039062 2.742188 17.894531 Z M 2.742188 17.894531 "/>
<path style=" stroke:none;fill-rule:nonzero;fill:rgb(0%,0%,0%);fill-opacity:0.4;" d="M 16 4.453125 C 10.460938 4.453125 6 8.914062 6 14.453125 C 6 14.558594 6.003906 14.667969 6.007812 14.773438 C 6.125 9.339844 10.535156 5 16 5 C 21.464844 5 25.875 9.339844 25.992188 14.773438 C 25.996094 14.667969 26 14.558594 26 14.453125 C 26 8.914062 21.539062 4.453125 16 4.453125 Z M 4.007812 14.78125 C 4.003906 14.855469 4 14.925781 4 15 C 4 15.335938 4.015625 15.671875 4.042969 16 L 6.050781 16 C 6.03125 15.820312 6.019531 15.636719 6.011719 15.453125 L 4.042969 15.453125 C 4.027344 15.230469 4.011719 15.007812 4.007812 14.78125 Z M 27.992188 14.78125 C 27.988281 15.007812 27.972656 15.230469 27.957031 15.453125 L 25.988281 15.453125 C 25.980469 15.636719 25.96875 15.820312 25.949219 16 L 27.957031 16 C 27.984375 15.671875 28 15.335938 28 15 C 28 14.925781 27.996094 14.855469 27.992188 14.78125 Z M 2.039062 18.59375 C 1.992188 18.761719 1.984375 18.941406 2.035156 19.121094 L 3.328125 23.949219 C 3.472656 24.484375 4.019531 24.800781 4.554688 24.65625 L 6.484375 24.140625 C 7.019531 23.996094 7.335938 23.449219 7.191406 22.914062 L 7.1875 22.898438 C 7.09375 23.226562 6.839844 23.496094 6.484375 23.59375 L 4.554688 24.109375 C 4.019531 24.253906 3.472656 23.9375 3.328125 23.402344 Z M 29.960938 18.59375 L 28.671875 23.402344 C 28.53125 23.9375 27.984375 24.253906 27.449219 24.109375 L 25.515625 23.59375 C 25.164062 23.5 24.90625 23.226562 24.8125 22.898438 L 24.808594 22.914062 C 24.667969 23.449219 24.980469 23.996094 25.515625 24.140625 L 27.449219 24.65625 C 27.984375 24.800781 28.53125 24.484375 28.671875 23.949219 L 29.96875 19.121094 C 30.015625 18.941406 30.007812 18.761719 29.960938 18.59375 Z M 29.960938 18.59375 "/>
<path style=" stroke:none;fill-rule:nonzero;fill:rgb(100%,100%,100%);fill-opacity:0.4;" d="M 16 3 C 9.351562 3 4 8.351562 4 15 C 4 15.0625 4.003906 15.121094 4.003906 15.179688 C 4.171875 8.683594 9.457031 3.5 16 3.5 C 22.542969 3.5 27.828125 8.683594 27.996094 15.179688 C 27.996094 15.121094 28 15.0625 28 15 C 28 8.351562 22.648438 3 16 3 Z M 6.003906 15.191406 C 6 15.292969 6 15.398438 6 15.5 C 6 15.667969 6.003906 15.835938 6.011719 16 L 6.050781 16 C 6.023438 15.734375 6.011719 15.464844 6.003906 15.191406 Z M 25.996094 15.191406 C 25.988281 15.464844 25.976562 15.734375 25.949219 16 L 25.988281 16 C 25.996094 15.835938 26 15.667969 26 15.5 C 26 15.398438 26 15.292969 25.996094 15.191406 Z M 4.921875 17.34375 C 4.839844 17.34375 4.757812 17.355469 4.671875 17.378906 L 2.742188 17.894531 C 2.210938 18.039062 1.898438 18.578125 2.03125 19.109375 C 2.121094 18.773438 2.378906 18.492188 2.742188 18.394531 L 4.671875 17.878906 C 4.757812 17.855469 4.839844 17.84375 4.921875 17.84375 C 5.367188 17.839844 5.777344 18.132812 5.898438 18.585938 L 7.191406 23.414062 C 7.191406 23.414062 7.191406 23.417969 7.191406 23.417969 C 7.234375 23.257812 7.238281 23.085938 7.191406 22.914062 L 5.898438 18.085938 C 5.777344 17.632812 5.367188 17.339844 4.921875 17.34375 Z M 27.03125 17.34375 C 26.601562 17.359375 26.222656 17.648438 26.105469 18.085938 L 24.808594 22.914062 C 24.765625 23.085938 24.769531 23.257812 24.808594 23.417969 C 24.808594 23.417969 24.808594 23.414062 24.808594 23.414062 L 26.105469 18.585938 C 26.222656 18.148438 26.601562 17.859375 27.03125 17.84375 C 27.128906 17.839844 27.230469 17.851562 27.328125 17.878906 L 29.261719 18.394531 C 29.621094 18.492188 29.882812 18.773438 29.96875 19.109375 C 30.105469 18.578125 29.792969 18.039062 29.261719 17.894531 L 27.328125 17.378906 C 27.230469 17.351562 27.128906 17.339844 27.03125 17.34375 Z M 27.03125 17.34375 "/>
<path style=" stroke:none;fill-rule:nonzero;fill:rgb(74.117649%,74.117649%,74.117649%);fill-opacity:0.996078;" d="M 4.378906 14.351562 L 5.34375 14.09375 C 6.414062 13.804688 7.507812 14.4375 7.796875 15.507812 L 10.125 24.199219 C 10.410156 25.265625 9.777344 26.363281 8.710938 26.648438 L 7.746094 26.90625 C 6.675781 27.195312 5.582031 26.5625 5.292969 25.492188 L 2.964844 16.800781 C 2.679688 15.734375 3.3125 14.636719 4.378906 14.351562 Z M 4.378906 14.351562 "/>
<path style=" stroke:none;fill-rule:nonzero;fill:rgb(74.117649%,74.117649%,74.117649%);fill-opacity:0.996078;" d="M 27.621094 14.351562 L 26.65625 14.09375 C 25.589844 13.804688 24.492188 14.4375 24.207031 15.507812 L 21.878906 24.199219 C 21.589844 25.265625 22.226562 26.363281 23.292969 26.648438 L 24.257812 26.90625 C 25.324219 27.195312 26.421875 26.5625 26.707031 25.492188 L 29.035156 16.800781 C 29.324219 15.734375 28.6875 14.636719 27.621094 14.351562 Z M 27.621094 14.351562 "/>
<path style=" stroke:none;fill-rule:nonzero;fill:rgb(74.117649%,74.117649%,74.117649%);fill-opacity:1;" d="M 8.605469 8.40625 L 7.394531 6.59375 C 7.175781 6.265625 7.21875 5.765625 7.503906 5.496094 C 12.355469 0.917969 19.644531 0.917969 24.496094 5.496094 C 24.78125 5.765625 24.824219 6.265625 24.605469 6.59375 L 23.394531 8.40625 C 23.175781 8.734375 22.8125 8.742188 22.539062 8.457031 C 19.414062 5.179688 12.585938 5.179688 9.460938 8.457031 C 9.1875 8.742188 8.824219 8.734375 8.605469 8.40625 Z M 8.605469 8.40625 "/>
<path style=" stroke:none;fill-rule:nonzero;fill:rgb(100%,100%,100%);fill-opacity:0.4;" d="M 5.84375 14.023438 C 5.679688 14.023438 5.511719 14.046875 5.34375 14.09375 L 4.378906 14.351562 C 3.390625 14.617188 2.777344 15.570312 2.917969 16.5625 C 3.027344 15.792969 3.582031 15.128906 4.378906 14.914062 L 5.34375 14.65625 C 6.414062 14.367188 7.507812 15 7.796875 16.070312 L 10.125 24.761719 C 10.144531 24.84375 10.160156 24.921875 10.171875 25.003906 C 10.210938 24.742188 10.195312 24.46875 10.125 24.199219 L 7.796875 15.507812 C 7.554688 14.601562 6.738281 14.011719 5.84375 14.023438 Z M 5.84375 14.023438 "/>
<path style=" stroke:none;fill-rule:nonzero;fill:rgb(100%,100%,100%);fill-opacity:0.4;" d="M 26.15625 14.023438 C 25.265625 14.011719 24.449219 14.601562 24.207031 15.507812 L 21.878906 24.199219 C 21.804688 24.46875 21.792969 24.742188 21.828125 25.003906 C 21.839844 24.921875 21.855469 24.84375 21.878906 24.761719 L 24.207031 16.070312 C 24.492188 15 25.585938 14.367188 26.65625 14.65625 L 27.621094 14.914062 C 28.421875 15.128906 28.976562 15.792969 29.085938 16.5625 C 29.226562 15.570312 28.613281 14.617188 27.621094 14.351562 L 26.65625 14.09375 C 26.488281 14.046875 26.320312 14.023438 26.15625 14.023438 Z M 26.15625 14.023438 "/>
<path style=" stroke:none;fill-rule:nonzero;fill:rgb(100%,100%,100%);fill-opacity:0.4;" d="M 16 2.0625 C 12.964844 2.0625 9.929688 3.207031 7.503906 5.496094 C 7.273438 5.71875 7.203125 6.089844 7.300781 6.394531 C 7.339844 6.269531 7.410156 6.152344 7.503906 6.0625 C 12.355469 1.480469 19.644531 1.480469 24.496094 6.0625 C 24.589844 6.152344 24.660156 6.269531 24.699219 6.394531 C 24.796875 6.089844 24.726562 5.71875 24.496094 5.496094 C 22.070312 3.207031 19.035156 2.0625 16 2.0625 Z M 16 2.0625 "/>
<path style=" stroke:none;fill-rule:nonzero;fill:rgb(0%,0%,0%);fill-opacity:0.4;" d="M 2.914062 16.019531 C 2.878906 16.273438 2.894531 16.539062 2.964844 16.800781 L 5.296875 25.492188 C 5.582031 26.5625 6.675781 27.195312 7.742188 26.90625 L 8.710938 26.648438 C 9.691406 26.386719 10.304688 25.441406 10.175781 24.460938 C 10.074219 25.238281 9.515625 25.914062 8.710938 26.128906 L 7.742188 26.390625 C 6.675781 26.675781 5.582031 26.042969 5.296875 24.976562 L 2.964844 16.28125 C 2.941406 16.195312 2.925781 16.105469 2.914062 16.019531 Z M 2.914062 16.019531 "/>
<path style=" stroke:none;fill-rule:nonzero;fill:rgb(0%,0%,0%);fill-opacity:0.4;" d="M 29.085938 16.019531 C 29.078125 16.105469 29.058594 16.195312 29.035156 16.28125 L 26.707031 24.976562 C 26.421875 26.042969 25.328125 26.675781 24.257812 26.390625 L 23.292969 26.128906 C 22.484375 25.914062 21.929688 25.238281 21.828125 24.460938 C 21.695312 25.441406 22.308594 26.386719 23.292969 26.648438 L 24.257812 26.90625 C 25.328125 27.195312 26.421875 26.5625 26.707031 25.492188 L 29.035156 16.800781 C 29.105469 16.539062 29.121094 16.273438 29.085938 16.019531 Z M 29.085938 16.019531 "/>
<path style=" stroke:none;fill-rule:nonzero;fill:rgb(0%,0%,0%);fill-opacity:0.4;" d="M 16 5.523438 C 13.511719 5.523438 11.023438 6.34375 9.460938 7.980469 C 9.1875 8.265625 8.824219 8.257812 8.605469 7.929688 L 7.394531 6.117188 C 7.347656 6.042969 7.3125 5.960938 7.289062 5.875 C 7.222656 6.113281 7.257812 6.386719 7.394531 6.59375 L 8.605469 8.40625 C 8.824219 8.734375 9.1875 8.742188 9.460938 8.457031 C 12.585938 5.179688 19.414062 5.179688 22.539062 8.457031 C 22.808594 8.742188 23.175781 8.734375 23.394531 8.40625 L 24.605469 6.59375 C 24.742188 6.386719 24.777344 6.113281 24.710938 5.875 C 24.6875 5.960938 24.652344 6.042969 24.605469 6.117188 L 23.394531 7.929688 C 23.175781 8.257812 22.808594 8.265625 22.539062 7.980469 C 20.976562 6.34375 18.488281 5.523438 16 5.523438 Z M 16 5.523438 "/>
<path style=" stroke:none;fill-rule:nonzero;fill:url(#linear0);" d="M 16 2.0625 C 12.964844 2.0625 9.929688 3.207031 7.503906 5.496094 C 7.21875 5.765625 7.175781 6.265625 7.394531 6.59375 L 7.40625 6.609375 C 5.410156 8.660156 4.140625 11.421875 4.011719 14.488281 C 3.171875 14.902344 2.714844 15.859375 2.964844 16.800781 L 3.226562 17.765625 L 2.742188 17.894531 C 2.207031 18.039062 1.890625 18.585938 2.035156 19.121094 L 3.328125 23.949219 C 3.472656 24.484375 4.019531 24.800781 4.554688 24.65625 L 5.035156 24.527344 L 5.296875 25.492188 C 5.582031 26.5625 6.675781 27.195312 7.742188 26.90625 L 8.710938 26.648438 C 9.78125 26.363281 10.410156 25.269531 10.125 24.199219 L 7.796875 15.507812 C 7.570312 14.671875 6.859375 14.105469 6.046875 14.03125 C 6.257812 11.84375 7.164062 9.863281 8.546875 8.320312 L 8.605469 8.40625 C 8.824219 8.734375 9.1875 8.742188 9.460938 8.457031 C 12.585938 5.179688 19.414062 5.179688 22.539062 8.457031 C 22.808594 8.742188 23.175781 8.734375 23.394531 8.40625 L 23.453125 8.320312 C 24.835938 9.863281 25.742188 11.84375 25.953125 14.03125 C 25.144531 14.105469 24.429688 14.671875 24.207031 15.507812 L 21.878906 24.199219 C 21.589844 25.269531 22.222656 26.363281 23.292969 26.648438 L 24.257812 26.90625 C 25.328125 27.195312 26.421875 26.5625 26.707031 25.492188 L 26.964844 24.527344 L 27.449219 24.65625 C 27.984375 24.800781 28.53125 24.484375 28.671875 23.949219 L 29.96875 19.121094 C 30.109375 18.585938 29.796875 18.039062 29.261719 17.894531 L 28.777344 17.765625 L 29.035156 16.800781 C 29.289062 15.859375 28.832031 14.898438 27.988281 14.488281 C 27.859375 11.421875 26.589844 8.660156 24.59375 6.609375 L 24.605469 6.59375 C 24.824219 6.265625 24.78125 5.765625 24.496094 5.496094 C 22.070312 3.207031 19.035156 2.0625 16 2.0625 Z M 16 2.0625 "/>
<path style=" stroke:none;fill-rule:nonzero;fill:rgb(0%,0%,0%);fill-opacity:0.2;" d="M 16 6 C 13.511719 6 11.023438 6.820312 9.460938 8.457031 C 9.1875 8.742188 8.824219 8.734375 8.605469 8.40625 L 8.546875 8.320312 C 7.164062 9.863281 6.257812 11.84375 6.046875 14.03125 C 6.082031 14.035156 6.113281 14.039062 6.148438 14.042969 C 6.46875 12.148438 7.320312 10.4375 8.546875 9.066406 L 8.605469 9.152344 C 8.824219 9.480469 9.1875 9.488281 9.460938 9.203125 C 12.585938 5.925781 19.414062 5.925781 22.539062 9.203125 C 22.808594 9.488281 23.175781 9.480469 23.394531 9.152344 L 23.453125 9.066406 C 24.679688 10.4375 25.53125 12.148438 25.855469 14.046875 C 25.886719 14.039062 25.917969 14.035156 25.953125 14.03125 C 25.742188 11.84375 24.835938 9.863281 23.453125 8.320312 L 23.394531 8.40625 C 23.175781 8.734375 22.808594 8.742188 22.539062 8.457031 C 20.976562 6.820312 18.488281 6 16 6 Z M 7.335938 6.484375 C 7.296875 6.570312 7.273438 6.667969 7.261719 6.765625 C 7.308594 6.710938 7.359375 6.660156 7.40625 6.609375 L 7.394531 6.59375 C 7.371094 6.558594 7.351562 6.519531 7.335938 6.484375 Z M 24.664062 6.484375 C 24.648438 6.519531 24.628906 6.558594 24.605469 6.59375 L 24.59375 6.609375 C 24.640625 6.660156 24.691406 6.710938 24.738281 6.765625 C 24.726562 6.667969 24.703125 6.570312 24.664062 6.484375 Z M 2.933594 16.652344 C 2.878906 16.941406 2.882812 17.246094 2.964844 17.546875 L 3.039062 17.816406 L 3.226562 17.765625 L 2.964844 16.800781 C 2.953125 16.75 2.941406 16.703125 2.933594 16.652344 Z M 29.070312 16.652344 C 29.058594 16.703125 29.050781 16.75 29.035156 16.800781 L 28.777344 17.765625 L 28.964844 17.816406 L 29.035156 17.546875 C 29.117188 17.246094 29.125 16.941406 29.070312 16.652344 Z M 2.070312 19.246094 C 1.996094 19.4375 1.976562 19.652344 2.035156 19.867188 L 3.328125 24.695312 C 3.472656 25.230469 4.019531 25.546875 4.554688 25.402344 L 5.035156 25.273438 L 5.296875 26.242188 C 5.582031 27.308594 6.675781 27.941406 7.742188 27.65625 L 8.710938 27.394531 C 9.730469 27.121094 10.351562 26.113281 10.15625 25.089844 C 10.019531 25.820312 9.480469 26.445312 8.710938 26.648438 L 7.742188 26.90625 C 6.675781 27.195312 5.582031 26.5625 5.296875 25.492188 L 5.035156 24.527344 L 4.554688 24.65625 C 4.019531 24.800781 3.472656 24.484375 3.328125 23.949219 Z M 29.933594 19.246094 L 28.671875 23.949219 C 28.53125 24.484375 27.984375 24.800781 27.449219 24.65625 L 26.964844 24.527344 L 26.707031 25.492188 C 26.421875 26.5625 25.328125 27.195312 24.257812 26.90625 L 23.292969 26.648438 C 22.523438 26.445312 21.984375 25.820312 21.84375 25.089844 C 21.648438 26.113281 22.269531 27.121094 23.292969 27.394531 L 24.257812 27.65625 C 25.328125 27.941406 26.421875 27.308594 26.707031 26.242188 L 26.964844 25.273438 L 27.449219 25.402344 C 27.984375 25.546875 28.53125 25.230469 28.671875 24.695312 L 29.96875 19.867188 C 30.023438 19.652344 30.007812 19.4375 29.933594 19.246094 Z M 29.933594 19.246094 "/>
</g>
</svg>
