
<svg xmlns="http://www.w3.org/2000/svg" xmlns:xlink="http://www.w3.org/1999/xlink" width="32" height="32" viewBox="0 0 32 32" version="1.1">
<defs>
<linearGradient id="linear0" gradientUnits="userSpaceOnUse" x1="31.999998" y1="59.999996" x2="31.999998" y2="3.999999" gradientTransform="matrix(0.5,0,0,0.5,-0.00000204094,0)">
<stop offset="0" style="stop-color:rgb(0%,0%,0%);stop-opacity:0.2;"/>
<stop offset="1" style="stop-color:rgb(100%,100%,100%);stop-opacity:0;"/>
</linearGradient>
</defs>
<g id="surface1">
<path style=" stroke:none;fill-rule:nonzero;fill:rgb(40.000001%,73.333335%,41.568628%);fill-opacity:0.996078;" d="M 21 2 L 27 8 L 27 4 C 27 2.890625 26.109375 2 25 2 Z M 21 2 "/>
<path style=" stroke:none;fill-rule:nonzero;fill:rgb(40.000001%,73.333335%,41.568628%);fill-opacity:1;" d="M 20 2 L 6.5 2 C 5.667969 2 5 2.667969 5 3.5 L 5 28.5 C 5 29.332031 5.667969 30 6.5 30 L 25.5 30 C 26.332031 30 27 29.332031 27 28.5 L 27 9 Z M 20 2 "/>
<path style=" stroke:none;fill-rule:nonzero;fill:rgb(100%,100%,100%);fill-opacity:0.4;" d="M 6.5 2 C 5.667969 2 5 2.667969 5 3.5 L 5 4 C 5 3.167969 5.667969 2.5 6.5 2.5 L 20 2.5 L 27 9.5 L 27 9 L 20 2 Z M 6.5 2 "/>
<path style=" stroke:none;fill-rule:nonzero;fill:rgb(0%,0%,0%);fill-opacity:0.2;" d="M 5 28.492188 L 5 29.25 C 5 30.082031 5.667969 30.75 6.5 30.75 L 25.5 30.75 C 26.332031 30.75 27 30.082031 27 29.25 L 27 28.492188 C 27 29.324219 26.332031 29.992188 25.5 29.992188 L 6.5 29.992188 C 5.667969 29.992188 5 29.324219 5 28.492188 Z M 5 28.492188 "/>
<path style=" stroke:none;fill-rule:nonzero;fill:rgb(0%,0%,0%);fill-opacity:0.4;" d="M 5 28.0625 L 5 28.5 C 5 29.332031 5.667969 30 6.5 30 L 25.5 30 C 26.332031 30 27 29.332031 27 28.5 L 27 28.0625 C 27 28.894531 26.332031 29.5625 25.5 29.5625 L 6.5 29.5625 C 5.667969 29.5625 5 28.894531 5 28.0625 Z M 5 28.0625 "/>
<path style=" stroke:none;fill-rule:nonzero;fill:rgb(100%,100%,100%);fill-opacity:0.4;" d="M 21 2 L 21.5 2.5 L 25 2.5 C 26.109375 2.5 27 3.390625 27 4.5 L 27 4 C 27 2.890625 26.109375 2 25 2 Z M 21 2 "/>
<path style=" stroke:none;fill-rule:nonzero;fill:rgb(0.784314%,0.784314%,0.784314%);fill-opacity:0.4;" d="M 21 2 L 27 8 L 27 7.5 L 21.5 2 Z M 21 2 "/>
<path style=" stroke:none;fill-rule:nonzero;fill:rgb(93.333334%,93.333334%,93.333334%);fill-opacity:0.996078;" d="M 8 4 C 7.445312 4 7 4.445312 7 5 L 7 27 C 7 27.554688 7.445312 28 8 28 L 24 28 C 24.554688 28 25 27.554688 25 27 L 25 10 L 19 4 Z M 8 4 "/>
<path style=" stroke:none;fill-rule:nonzero;fill:rgb(100%,100%,100%);fill-opacity:0.8;" d="M 8 4 C 7.445312 4 7 4.445312 7 5 L 7 5.5 C 7 4.945312 7.445312 4.5 8 4.5 L 19 4.5 L 25 10.5 L 25 10 L 19 4 Z M 8 4 "/>
<path style=" stroke:none;fill-rule:nonzero;fill:rgb(5.490196%,5.490196%,5.490196%);fill-opacity:0.4;" d="M 7 27 L 7 27.5 C 7 28.054688 7.445312 28.5 8 28.5 L 24 28.5 C 24.554688 28.5 25 28.054688 25 27.5 L 25 27 C 25 27.554688 24.554688 28 24 28 L 8 28 C 7.445312 28 7 27.554688 7 27 Z M 7 27 "/>
<path style=" stroke:none;fill-rule:nonzero;fill:rgb(100%,100%,100%);fill-opacity:0.8;" d="M 8 4 C 7.445312 4 7 4.445312 7 5 L 7 5.5 C 7 4.945312 7.445312 4.5 8 4.5 L 19 4.5 L 25 10.5 L 25 10 L 19 4 Z M 8 4 "/>
<path style=" stroke:none;fill-rule:nonzero;fill:rgb(40.000001%,73.333335%,41.568628%);fill-opacity:1;" d="M 11.972656 11 C 11.433594 11.011719 11 11.453125 11 12 L 11 13 C 11 13.554688 11.445312 14 12 14 L 13 14 C 13.554688 14 14 13.554688 14 13 L 14 12 C 14 11.445312 13.554688 11 13 11 L 12 11 C 11.992188 11 11.980469 11 11.972656 11 Z M 15.472656 11 C 14.933594 11.011719 14.5 11.453125 14.5 12 L 14.5 13 C 14.5 13.554688 14.945312 14 15.5 14 L 16.5 14 C 17.054688 14 17.5 13.554688 17.5 13 L 17.5 12 C 17.5 11.445312 17.054688 11 16.5 11 L 15.5 11 C 15.492188 11 15.480469 11 15.472656 11 Z M 18.972656 11 C 18.433594 11.011719 18 11.453125 18 12 L 18 13 C 18 13.554688 18.445312 14 19 14 L 20 14 C 20.554688 14 21 13.554688 21 13 L 21 12 C 21 11.445312 20.554688 11 20 11 L 19 11 C 18.992188 11 18.980469 11 18.972656 11 Z M 11.972656 14.5 C 11.433594 14.511719 11 14.953125 11 15.5 L 11 16.5 C 11 17.054688 11.445312 17.5 12 17.5 L 13 17.5 C 13.007812 17.5 13.019531 17.5 13.027344 17.5 C 13.566406 17.488281 14 17.046875 14 16.5 L 14 15.5 C 14 14.996094 13.632812 14.585938 13.152344 14.511719 C 13.101562 14.503906 13.050781 14.5 13 14.5 L 12 14.5 C 11.992188 14.5 11.980469 14.5 11.972656 14.5 Z M 15.472656 14.5 C 15.464844 14.5 15.457031 14.5 15.449219 14.5 C 14.917969 14.527344 14.5 14.964844 14.5 15.5 L 14.5 16.5 C 14.5 17.046875 14.933594 17.488281 15.472656 17.5 C 15.480469 17.5 15.492188 17.5 15.5 17.5 L 16.5 17.5 C 16.507812 17.5 16.519531 17.5 16.527344 17.5 C 17.066406 17.488281 17.5 17.046875 17.5 16.5 L 17.5 15.5 C 17.5 14.996094 17.132812 14.585938 16.652344 14.511719 C 16.601562 14.503906 16.550781 14.5 16.5 14.5 L 15.5 14.5 C 15.492188 14.5 15.480469 14.5 15.472656 14.5 Z M 18.972656 14.5 C 18.964844 14.5 18.957031 14.5 18.949219 14.5 C 18.417969 14.527344 18 14.964844 18 15.5 L 18 16.5 C 18 17.046875 18.433594 17.488281 18.972656 17.5 C 18.980469 17.5 18.992188 17.5 19 17.5 L 20 17.5 C 20.007812 17.5 20.019531 17.5 20.027344 17.5 C 20.566406 17.488281 21 17.046875 21 16.5 L 21 15.5 C 21 14.996094 20.632812 14.585938 20.152344 14.511719 C 20.101562 14.503906 20.050781 14.5 20 14.5 L 19 14.5 C 18.992188 14.5 18.980469 14.5 18.972656 14.5 Z M 11.972656 18 C 11.433594 18.011719 11 18.453125 11 19 L 11 20 C 11 20.554688 11.445312 21 12 21 L 13 21 C 13.007812 21 13.019531 21 13.027344 21 C 13.566406 20.988281 14 20.546875 14 20 L 14 19 C 14 18.496094 13.632812 18.085938 13.152344 18.011719 C 13.101562 18.003906 13.050781 18 13 18 L 12 18 C 11.992188 18 11.980469 18 11.972656 18 Z M 15.472656 18 C 15.464844 18 15.457031 18 15.449219 18 C 14.917969 18.027344 14.5 18.464844 14.5 19 L 14.5 20 C 14.5 20.546875 14.933594 20.988281 15.472656 21 C 15.480469 21 15.492188 21 15.5 21 L 16.5 21 C 16.507812 21 16.519531 21 16.527344 21 C 17.066406 20.988281 17.5 20.546875 17.5 20 L 17.5 19 C 17.5 18.496094 17.132812 18.085938 16.652344 18.011719 C 16.601562 18.003906 16.550781 18 16.5 18 L 15.5 18 C 15.492188 18 15.480469 18 15.472656 18 Z M 18.972656 18 C 18.964844 18 18.957031 18 18.949219 18 C 18.417969 18.027344 18 18.464844 18 19 L 18 20 C 18 20.546875 18.433594 20.988281 18.972656 21 C 18.980469 21 18.992188 21 19 21 L 20 21 C 20.007812 21 20.019531 21 20.027344 21 C 20.566406 20.988281 21 20.546875 21 20 L 21 19 C 21 18.496094 20.632812 18.085938 20.152344 18.011719 C 20.101562 18.003906 20.050781 18 20 18 L 19 18 C 18.992188 18 18.980469 18 18.972656 18 Z M 18.972656 18 "/>
<path style=" stroke:none;fill-rule:nonzero;fill:rgb(0%,0%,0%);fill-opacity:0.4;" d="M 11.972656 11 C 11.433594 11.011719 11 11.453125 11 12 L 11 12.5 C 11 11.953125 11.433594 11.511719 11.972656 11.5 C 11.980469 11.5 11.992188 11.5 12 11.5 L 13 11.5 C 13.554688 11.5 14 11.945312 14 12.5 L 14 12 C 14 11.445312 13.554688 11 13 11 L 12 11 C 11.992188 11 11.980469 11 11.972656 11 Z M 15.472656 11 C 14.933594 11.011719 14.5 11.453125 14.5 12 L 14.5 12.5 C 14.5 11.953125 14.933594 11.511719 15.472656 11.5 C 15.480469 11.5 15.492188 11.5 15.5 11.5 L 16.5 11.5 C 17.054688 11.5 17.5 11.945312 17.5 12.5 L 17.5 12 C 17.5 11.445312 17.054688 11 16.5 11 L 15.5 11 C 15.492188 11 15.480469 11 15.472656 11 Z M 18.972656 11 C 18.433594 11.011719 18 11.453125 18 12 L 18 12.5 C 18 11.953125 18.433594 11.511719 18.972656 11.5 C 18.980469 11.5 18.992188 11.5 19 11.5 L 20 11.5 C 20.554688 11.5 21 11.945312 21 12.5 L 21 12 C 21 11.445312 20.554688 11 20 11 L 19 11 C 18.992188 11 18.980469 11 18.972656 11 Z M 11.972656 14.5 C 11.433594 14.511719 11 14.953125 11 15.5 L 11 16 C 11 15.453125 11.433594 15.011719 11.972656 15 C 11.980469 15 11.992188 15 12 15 L 13 15 C 13.050781 15 13.101562 15.003906 13.152344 15.011719 C 13.632812 15.085938 14 15.496094 14 16 L 14 15.5 C 14 14.996094 13.632812 14.585938 13.152344 14.511719 C 13.101562 14.503906 13.050781 14.5 13 14.5 L 12 14.5 C 11.992188 14.5 11.980469 14.5 11.972656 14.5 Z M 15.472656 14.5 C 15.464844 14.5 15.457031 14.5 15.449219 14.5 C 14.917969 14.527344 14.5 14.964844 14.5 15.5 L 14.5 16 C 14.5 15.464844 14.917969 15.027344 15.449219 15 C 15.457031 15 15.464844 15 15.472656 15 C 15.480469 15 15.492188 15 15.5 15 L 16.5 15 C 16.550781 15 16.601562 15.003906 16.652344 15.011719 C 17.132812 15.085938 17.5 15.496094 17.5 16 L 17.5 15.5 C 17.5 14.996094 17.132812 14.585938 16.652344 14.511719 C 16.601562 14.503906 16.550781 14.5 16.5 14.5 L 15.5 14.5 C 15.492188 14.5 15.480469 14.5 15.472656 14.5 Z M 18.972656 14.5 C 18.964844 14.5 18.957031 14.5 18.949219 14.5 C 18.417969 14.527344 18 14.964844 18 15.5 L 18 16 C 18 15.464844 18.417969 15.027344 18.949219 15 C 18.957031 15 18.964844 15 18.972656 15 C 18.980469 15 18.992188 15 19 15 L 20 15 C 20.050781 15 20.101562 15.003906 20.152344 15.011719 C 20.632812 15.085938 21 15.496094 21 16 L 21 15.5 C 21 14.996094 20.632812 14.585938 20.152344 14.511719 C 20.101562 14.503906 20.050781 14.5 20 14.5 L 19 14.5 C 18.992188 14.5 18.980469 14.5 18.972656 14.5 Z M 11.972656 18 C 11.433594 18.011719 11 18.453125 11 19 L 11 19.5 C 11 18.953125 11.433594 18.511719 11.972656 18.5 C 11.980469 18.5 11.992188 18.5 12 18.5 L 13 18.5 C 13.050781 18.5 13.101562 18.503906 13.152344 18.511719 C 13.632812 18.585938 14 18.996094 14 19.5 L 14 19 C 14 18.496094 13.632812 18.085938 13.152344 18.011719 C 13.101562 18.003906 13.050781 18 13 18 L 12 18 C 11.992188 18 11.980469 18 11.972656 18 Z M 15.472656 18 C 15.464844 18 15.457031 18 15.449219 18 C 14.917969 18.027344 14.5 18.464844 14.5 19 L 14.5 19.5 C 14.5 18.964844 14.917969 18.527344 15.449219 18.5 C 15.457031 18.5 15.464844 18.5 15.472656 18.5 C 15.480469 18.5 15.492188 18.5 15.5 18.5 L 16.5 18.5 C 16.550781 18.5 16.601562 18.503906 16.652344 18.511719 C 17.132812 18.585938 17.5 18.996094 17.5 19.5 L 17.5 19 C 17.5 18.496094 17.132812 18.085938 16.652344 18.011719 C 16.601562 18.003906 16.550781 18 16.5 18 L 15.5 18 C 15.492188 18 15.480469 18 15.472656 18 Z M 18.972656 18 C 18.964844 18 18.957031 18 18.949219 18 C 18.417969 18.027344 18 18.464844 18 19 L 18 19.5 C 18 18.964844 18.417969 18.527344 18.949219 18.5 C 18.957031 18.5 18.964844 18.5 18.972656 18.5 C 18.980469 18.5 18.992188 18.5 19 18.5 L 20 18.5 C 20.050781 18.5 20.101562 18.503906 20.152344 18.511719 C 20.632812 18.585938 21 18.996094 21 19.5 L 21 19 C 21 18.496094 20.632812 18.085938 20.152344 18.011719 C 20.101562 18.003906 20.050781 18 20 18 L 19 18 C 18.992188 18 18.980469 18 18.972656 18 Z M 18.972656 18 "/>
<path style=" stroke:none;fill-rule:nonzero;fill:rgb(100%,100%,100%);fill-opacity:0.8;" d="M 11.972656 21.5 C 11.433594 21.488281 11 21.046875 11 20.5 L 11 20 C 11 20.546875 11.433594 20.988281 11.972656 21 C 11.980469 21 11.992188 21 12 21 L 13 21 C 13.554688 21 14 20.554688 14 20 L 14 20.5 C 14 21.054688 13.554688 21.5 13 21.5 L 12 21.5 C 11.992188 21.5 11.980469 21.5 11.972656 21.5 Z M 15.472656 21.5 C 14.933594 21.488281 14.5 21.046875 14.5 20.5 L 14.5 20 C 14.5 20.546875 14.933594 20.988281 15.472656 21 C 15.480469 21 15.492188 21 15.5 21 L 16.5 21 C 17.054688 21 17.5 20.554688 17.5 20 L 17.5 20.5 C 17.5 21.054688 17.054688 21.5 16.5 21.5 L 15.5 21.5 C 15.492188 21.5 15.480469 21.5 15.472656 21.5 Z M 18.972656 21.5 C 18.433594 21.488281 18 21.046875 18 20.5 L 18 20 C 18 20.546875 18.433594 20.988281 18.972656 21 C 18.980469 21 18.992188 21 19 21 L 20 21 C 20.554688 21 21 20.554688 21 20 L 21 20.5 C 21 21.054688 20.554688 21.5 20 21.5 L 19 21.5 C 18.992188 21.5 18.980469 21.5 18.972656 21.5 Z M 11.972656 18 C 11.433594 17.988281 11 17.546875 11 17 L 11 16.5 C 11 17.046875 11.433594 17.488281 11.972656 17.5 C 11.980469 17.5 11.992188 17.5 12 17.5 L 13 17.5 C 13.050781 17.5 13.101562 17.496094 13.152344 17.488281 C 13.632812 17.414062 14 17.003906 14 16.5 L 14 17 C 14 17.503906 13.632812 17.914062 13.152344 17.988281 C 13.101562 17.996094 13.050781 18 13 18 L 12 18 C 11.992188 18 11.980469 18 11.972656 18 Z M 15.472656 18 C 15.464844 18 15.457031 18 15.449219 18 C 14.917969 17.972656 14.5 17.535156 14.5 17 L 14.5 16.5 C 14.5 17.035156 14.917969 17.472656 15.449219 17.5 C 15.457031 17.5 15.464844 17.5 15.472656 17.5 C 15.480469 17.5 15.492188 17.5 15.5 17.5 L 16.5 17.5 C 16.550781 17.5 16.601562 17.496094 16.652344 17.488281 C 17.132812 17.414062 17.5 17.003906 17.5 16.5 L 17.5 17 C 17.5 17.503906 17.132812 17.914062 16.652344 17.988281 C 16.601562 17.996094 16.550781 18 16.5 18 L 15.5 18 C 15.492188 18 15.480469 18 15.472656 18 Z M 18.972656 18 C 18.964844 18 18.957031 18 18.949219 18 C 18.417969 17.972656 18 17.535156 18 17 L 18 16.5 C 18 17.035156 18.417969 17.472656 18.949219 17.5 C 18.957031 17.5 18.964844 17.5 18.972656 17.5 C 18.980469 17.5 18.992188 17.5 19 17.5 L 20 17.5 C 20.050781 17.5 20.101562 17.496094 20.152344 17.488281 C 20.632812 17.414062 21 17.003906 21 16.5 L 21 17 C 21 17.503906 20.632812 17.914062 20.152344 17.988281 C 20.101562 17.996094 20.050781 18 20 18 L 19 18 C 18.992188 18 18.980469 18 18.972656 18 Z M 11.972656 14.5 C 11.433594 14.488281 11 14.046875 11 13.5 L 11 13 C 11 13.546875 11.433594 13.988281 11.972656 14 C 11.980469 14 11.992188 14 12 14 L 13 14 C 13.050781 14 13.101562 13.996094 13.152344 13.988281 C 13.632812 13.914062 14 13.503906 14 13 L 14 13.5 C 14 14.003906 13.632812 14.414062 13.152344 14.488281 C 13.101562 14.496094 13.050781 14.5 13 14.5 L 12 14.5 C 11.992188 14.5 11.980469 14.5 11.972656 14.5 Z M 15.472656 14.5 C 15.464844 14.5 15.457031 14.5 15.449219 14.5 C 14.917969 14.472656 14.5 14.035156 14.5 13.5 L 14.5 13 C 14.5 13.535156 14.917969 13.972656 15.449219 14 C 15.457031 14 15.464844 14 15.472656 14 C 15.480469 14 15.492188 14 15.5 14 L 16.5 14 C 16.550781 14 16.601562 13.996094 16.652344 13.988281 C 17.132812 13.914062 17.5 13.503906 17.5 13 L 17.5 13.5 C 17.5 14.003906 17.132812 14.414062 16.652344 14.488281 C 16.601562 14.496094 16.550781 14.5 16.5 14.5 L 15.5 14.5 C 15.492188 14.5 15.480469 14.5 15.472656 14.5 Z M 18.972656 14.5 C 18.964844 14.5 18.957031 14.5 18.949219 14.5 C 18.417969 14.472656 18 14.035156 18 13.5 L 18 13 C 18 13.535156 18.417969 13.972656 18.949219 14 C 18.957031 14 18.964844 14 18.972656 14 C 18.980469 14 18.992188 14 19 14 L 20 14 C 20.050781 14 20.101562 13.996094 20.152344 13.988281 C 20.632812 13.914062 21 13.503906 21 13 L 21 13.5 C 21 14.003906 20.632812 14.414062 20.152344 14.488281 C 20.101562 14.496094 20.050781 14.5 20 14.5 L 19 14.5 C 18.992188 14.5 18.980469 14.5 18.972656 14.5 Z M 18.972656 14.5 "/>
<path style=" stroke:none;fill-rule:nonzero;fill:url(#linear0);" d="M 6.5 2 C 5.667969 2 5 2.667969 5 3.5 L 5 28.5 C 5 29.332031 5.667969 30 6.5 30 L 25.5 30 C 26.332031 30 27 29.332031 27 28.5 L 27 9 L 20 2 Z M 21 2 L 27 8 L 27 4 C 27 2.890625 26.109375 2 25 2 Z M 21 2 "/>
</g>
</svg>
