
<svg xmlns="http://www.w3.org/2000/svg" xmlns:xlink="http://www.w3.org/1999/xlink" width="32" height="32" viewBox="0 0 32 32" version="1.1">
<defs>
<linearGradient id="linear0" gradientUnits="userSpaceOnUse" x1="8.466666" y1="-199.125" x2="8.466666" y2="-213.412506" gradientTransform="matrix(1.889764,0,0,1.889764,-0.00000344215,406.299234)">
<stop offset="0" style="stop-color:rgb(0%,0%,0%);stop-opacity:0.2;"/>
<stop offset="1" style="stop-color:rgb(100%,100%,100%);stop-opacity:0;"/>
</linearGradient>
</defs>
<g id="surface1">
<path style=" stroke:none;fill-rule:nonzero;fill:rgb(98.039216%,98.039216%,98.039216%);fill-opacity:1;" d="M 28 23 L 21 30 L 26 30 C 27.109375 30 28 29.109375 28 28 Z M 28 23 "/>
<path style=" stroke:none;fill-rule:nonzero;fill:rgb(98.039216%,98.039216%,98.039216%);fill-opacity:1;" d="M 28 23 L 21 30 L 26 30 C 27.109375 30 28 29.109375 28 28 Z M 28 23 "/>
<path style=" stroke:none;fill-rule:nonzero;fill:rgb(93.333334%,93.333334%,93.333334%);fill-opacity:0.992157;" d="M 4 7 L 4 12 L 6 10 L 10 12 L 12 10 L 15 12 L 17 10 L 19 12 L 20 11 L 22 12 L 26 10 L 28 11 L 28 7 Z M 4 7 "/>
<path style=" stroke:none;fill-rule:nonzero;fill:rgb(0%,0%,0%);fill-opacity:0.2;" d="M 4 28 L 4 28.75 C 4 29.859375 4.890625 30.75 6 30.75 L 26 30.75 C 27.109375 30.75 28 29.859375 28 28.75 L 28 28 C 28 29.109375 27.109375 30 26 30 L 6 30 C 4.890625 30 4 29.109375 4 28 Z M 4 28 "/>
<path style=" stroke:none;fill-rule:nonzero;fill:rgb(87.843138%,87.843138%,87.843138%);fill-opacity:0.996078;" d="M 6 3 L 26 3 C 27.105469 3 28 3.894531 28 5 L 28 28 C 28 29.105469 27.105469 30 26 30 L 6 30 C 4.894531 30 4 29.105469 4 28 L 4 5 C 4 3.894531 4.894531 3 6 3 Z M 6 3 "/>
<path style=" stroke:none;fill-rule:nonzero;fill:rgb(36.078432%,41.960785%,75.294119%);fill-opacity:0.996078;" d="M 6 3 C 4.890625 3 4 3.890625 4 5 L 4 9 L 28 9 L 28 5 C 28 3.890625 27.109375 3 26 3 Z M 6 3 "/>
<path style=" stroke:none;fill-rule:nonzero;fill:rgb(0%,0%,0%);fill-opacity:0.4;" d="M 4 10 L 5 11 L 6 10 L 7 12 L 8 11 L 9 12 L 10 11 L 11 12 L 12 10 L 13 12 L 14 11 L 15 12 L 16 10 L 17 12 L 18 11 L 19 12.25 L 20 10.75 L 20.75 11.5 L 21.75 10.25 L 23.5 11.75 L 24.75 10.75 L 25.5 11.75 L 26.25 10.5 L 27.5 12 L 28 10.5 L 28 9 L 4 9 Z M 4 10 "/>
<path style=" stroke:none;fill-rule:nonzero;fill:rgb(93.333334%,93.333334%,93.333334%);fill-opacity:1;" d="M 4 9.5 L 5 10.5 L 6 9.5 L 7 11.5 L 8 10.5 L 9 11.5 L 10 10.5 L 11 11.5 L 12 9.5 L 13 11.5 L 14 10.5 L 15 11.5 L 16 9.5 L 17 11.5 L 18 10.5 L 19 11.75 L 20 10.25 L 20.75 11 L 21.75 9.75 L 23.5 11.25 L 24.75 10.25 L 25.5 11.25 L 26.25 10 L 27.5 11.5 L 28 10 L 28 8.5 L 4 8.5 Z M 4 9.5 "/>
<path style=" stroke:none;fill-rule:nonzero;fill:rgb(100%,100%,100%);fill-opacity:0.4;" d="M 6 3 C 4.890625 3 4 3.890625 4 5 L 4 5.496094 C 4 4.386719 4.890625 3.496094 6 3.496094 L 26 3.496094 C 27.109375 3.496094 28 4.386719 28 5.496094 L 28 5 C 28 3.890625 27.109375 3 26 3 Z M 6 3 "/>
<path style=" stroke:none;fill-rule:nonzero;fill:rgb(98.039216%,98.039216%,98.039216%);fill-opacity:1;" d="M 28 23 L 21 30 L 26 30 C 27.109375 30 28 29.109375 28 28 Z M 28 23 "/>
<path style=" stroke:none;fill-rule:nonzero;fill:rgb(47.450981%,52.549022%,79.607844%);fill-opacity:1;" d="M 4 8 L 28 8 L 28 9 L 4 9 Z M 4 8 "/>
<path style=" stroke:none;fill-rule:nonzero;fill:rgb(0.784314%,0.784314%,0.784314%);fill-opacity:0.4;" d="M 6 29.996094 C 4.890625 29.996094 4 29.101562 4 27.992188 L 4 27.5 C 4 28.609375 4.890625 29.5 6 29.5 L 26 29.5 C 27.109375 29.5 28 28.609375 28 27.5 L 28 27.992188 C 28 29.101562 27.109375 29.996094 26 29.996094 Z M 6 29.996094 "/>
<path style=" stroke:none;fill-rule:nonzero;fill:rgb(0%,0%,0%);fill-opacity:0.4;" d="M 4 9 L 28 9 L 28 9.5 L 4 9.5 Z M 4 9 "/>
<path style=" stroke:none;fill-rule:nonzero;fill:rgb(61.960787%,61.960787%,61.960787%);fill-opacity:1;" d="M 6.5 12 L 7.5 12 C 7.777344 12 8 12.222656 8 12.5 L 8 13.5 C 8 13.777344 7.777344 14 7.5 14 L 6.5 14 C 6.222656 14 6 13.777344 6 13.5 L 6 12.5 C 6 12.222656 6.222656 12 6.5 12 Z M 6.5 12 "/>
<path style=" stroke:none;fill-rule:nonzero;fill:rgb(61.960787%,61.960787%,61.960787%);fill-opacity:1;" d="M 9.5 12 L 10.5 12 C 10.777344 12 11 12.222656 11 12.5 L 11 13.5 C 11 13.777344 10.777344 14 10.5 14 L 9.5 14 C 9.222656 14 9 13.777344 9 13.5 L 9 12.5 C 9 12.222656 9.222656 12 9.5 12 Z M 9.5 12 "/>
<path style=" stroke:none;fill-rule:nonzero;fill:rgb(61.960787%,61.960787%,61.960787%);fill-opacity:1;" d="M 12.5 12 L 13.5 12 C 13.777344 12 14 12.222656 14 12.5 L 14 13.5 C 14 13.777344 13.777344 14 13.5 14 L 12.5 14 C 12.222656 14 12 13.777344 12 13.5 L 12 12.5 C 12 12.222656 12.222656 12 12.5 12 Z M 12.5 12 "/>
<path style=" stroke:none;fill-rule:nonzero;fill:rgb(61.960787%,61.960787%,61.960787%);fill-opacity:1;" d="M 15.5 12 L 16.5 12 C 16.777344 12 17 12.222656 17 12.5 L 17 13.5 C 17 13.777344 16.777344 14 16.5 14 L 15.5 14 C 15.222656 14 15 13.777344 15 13.5 L 15 12.5 C 15 12.222656 15.222656 12 15.5 12 Z M 15.5 12 "/>
<path style=" stroke:none;fill-rule:nonzero;fill:rgb(38.039216%,38.039216%,38.039216%);fill-opacity:1;" d="M 18.5 12 L 19.5 12 C 19.777344 12 20 12.222656 20 12.5 L 20 13.5 C 20 13.777344 19.777344 14 19.5 14 L 18.5 14 C 18.222656 14 18 13.777344 18 13.5 L 18 12.5 C 18 12.222656 18.222656 12 18.5 12 Z M 18.5 12 "/>
<path style=" stroke:none;fill-rule:nonzero;fill:rgb(95.686275%,26.274511%,21.176471%);fill-opacity:1;" d="M 21.5 12 L 22.5 12 C 22.777344 12 23 12.222656 23 12.5 L 23 13.5 C 23 13.777344 22.777344 14 22.5 14 L 21.5 14 C 21.222656 14 21 13.777344 21 13.5 L 21 12.5 C 21 12.222656 21.222656 12 21.5 12 Z M 21.5 12 "/>
<path style=" stroke:none;fill-rule:nonzero;fill:rgb(95.686275%,26.274511%,21.176471%);fill-opacity:1;" d="M 24.5 12 L 25.5 12 C 25.777344 12 26 12.222656 26 12.5 L 26 13.5 C 26 13.777344 25.777344 14 25.5 14 L 24.5 14 C 24.222656 14 24 13.777344 24 13.5 L 24 12.5 C 24 12.222656 24.222656 12 24.5 12 Z M 24.5 12 "/>
<path style=" stroke:none;fill-rule:nonzero;fill:rgb(38.039216%,38.039216%,38.039216%);fill-opacity:1;" d="M 6.5 15 L 7.5 15 C 7.777344 15 8 15.222656 8 15.5 L 8 16.5 C 8 16.777344 7.777344 17 7.5 17 L 6.5 17 C 6.222656 17 6 16.777344 6 16.5 L 6 15.5 C 6 15.222656 6.222656 15 6.5 15 Z M 6.5 15 "/>
<path style=" stroke:none;fill-rule:nonzero;fill:rgb(38.039216%,38.039216%,38.039216%);fill-opacity:1;" d="M 9.5 15 L 10.5 15 C 10.777344 15 11 15.222656 11 15.5 L 11 16.5 C 11 16.777344 10.777344 17 10.5 17 L 9.5 17 C 9.222656 17 9 16.777344 9 16.5 L 9 15.5 C 9 15.222656 9.222656 15 9.5 15 Z M 9.5 15 "/>
<path style=" stroke:none;fill-rule:nonzero;fill:rgb(38.039216%,38.039216%,38.039216%);fill-opacity:1;" d="M 12.5 15 L 13.5 15 C 13.777344 15 14 15.222656 14 15.5 L 14 16.5 C 14 16.777344 13.777344 17 13.5 17 L 12.5 17 C 12.222656 17 12 16.777344 12 16.5 L 12 15.5 C 12 15.222656 12.222656 15 12.5 15 Z M 12.5 15 "/>
<path style=" stroke:none;fill-rule:nonzero;fill:rgb(38.039216%,38.039216%,38.039216%);fill-opacity:1;" d="M 15.5 15 L 16.5 15 C 16.777344 15 17 15.222656 17 15.5 L 17 16.5 C 17 16.777344 16.777344 17 16.5 17 L 15.5 17 C 15.222656 17 15 16.777344 15 16.5 L 15 15.5 C 15 15.222656 15.222656 15 15.5 15 Z M 15.5 15 "/>
<path style=" stroke:none;fill-rule:nonzero;fill:rgb(38.039216%,38.039216%,38.039216%);fill-opacity:1;" d="M 18.5 15 L 19.5 15 C 19.777344 15 20 15.222656 20 15.5 L 20 16.5 C 20 16.777344 19.777344 17 19.5 17 L 18.5 17 C 18.222656 17 18 16.777344 18 16.5 L 18 15.5 C 18 15.222656 18.222656 15 18.5 15 Z M 18.5 15 "/>
<path style=" stroke:none;fill-rule:nonzero;fill:rgb(95.686275%,26.274511%,21.176471%);fill-opacity:1;" d="M 21.5 15 L 22.5 15 C 22.777344 15 23 15.222656 23 15.5 L 23 16.5 C 23 16.777344 22.777344 17 22.5 17 L 21.5 17 C 21.222656 17 21 16.777344 21 16.5 L 21 15.5 C 21 15.222656 21.222656 15 21.5 15 Z M 21.5 15 "/>
<path style=" stroke:none;fill-rule:nonzero;fill:rgb(95.686275%,26.274511%,21.176471%);fill-opacity:1;" d="M 24.5 15 L 25.5 15 C 25.777344 15 26 15.222656 26 15.5 L 26 16.5 C 26 16.777344 25.777344 17 25.5 17 L 24.5 17 C 24.222656 17 24 16.777344 24 16.5 L 24 15.5 C 24 15.222656 24.222656 15 24.5 15 Z M 24.5 15 "/>
<path style=" stroke:none;fill-rule:nonzero;fill:rgb(38.039216%,38.039216%,38.039216%);fill-opacity:1;" d="M 6.5 18 L 7.5 18 C 7.777344 18 8 18.222656 8 18.5 L 8 19.5 C 8 19.777344 7.777344 20 7.5 20 L 6.5 20 C 6.222656 20 6 19.777344 6 19.5 L 6 18.5 C 6 18.222656 6.222656 18 6.5 18 Z M 6.5 18 "/>
<path style=" stroke:none;fill-rule:nonzero;fill:rgb(38.039216%,38.039216%,38.039216%);fill-opacity:1;" d="M 9.5 18 L 10.5 18 C 10.777344 18 11 18.222656 11 18.5 L 11 19.5 C 11 19.777344 10.777344 20 10.5 20 L 9.5 20 C 9.222656 20 9 19.777344 9 19.5 L 9 18.5 C 9 18.222656 9.222656 18 9.5 18 Z M 9.5 18 "/>
<path style=" stroke:none;fill-rule:nonzero;fill:rgb(38.039216%,38.039216%,38.039216%);fill-opacity:1;" d="M 12.5 18 L 13.5 18 C 13.777344 18 14 18.222656 14 18.5 L 14 19.5 C 14 19.777344 13.777344 20 13.5 20 L 12.5 20 C 12.222656 20 12 19.777344 12 19.5 L 12 18.5 C 12 18.222656 12.222656 18 12.5 18 Z M 12.5 18 "/>
<path style=" stroke:none;fill-rule:nonzero;fill:rgb(38.039216%,38.039216%,38.039216%);fill-opacity:1;" d="M 15.5 18 L 16.5 18 C 16.777344 18 17 18.222656 17 18.5 L 17 19.5 C 17 19.777344 16.777344 20 16.5 20 L 15.5 20 C 15.222656 20 15 19.777344 15 19.5 L 15 18.5 C 15 18.222656 15.222656 18 15.5 18 Z M 15.5 18 "/>
<path style=" stroke:none;fill-rule:nonzero;fill:rgb(38.039216%,38.039216%,38.039216%);fill-opacity:1;" d="M 18.5 18 L 19.5 18 C 19.777344 18 20 18.222656 20 18.5 L 20 19.5 C 20 19.777344 19.777344 20 19.5 20 L 18.5 20 C 18.222656 20 18 19.777344 18 19.5 L 18 18.5 C 18 18.222656 18.222656 18 18.5 18 Z M 18.5 18 "/>
<path style=" stroke:none;fill-rule:nonzero;fill:rgb(95.686275%,26.274511%,21.176471%);fill-opacity:1;" d="M 21.5 18 L 22.5 18 C 22.777344 18 23 18.222656 23 18.5 L 23 19.5 C 23 19.777344 22.777344 20 22.5 20 L 21.5 20 C 21.222656 20 21 19.777344 21 19.5 L 21 18.5 C 21 18.222656 21.222656 18 21.5 18 Z M 21.5 18 "/>
<path style=" stroke:none;fill-rule:nonzero;fill:rgb(95.686275%,26.274511%,21.176471%);fill-opacity:1;" d="M 24.5 18 L 25.5 18 C 25.777344 18 26 18.222656 26 18.5 L 26 19.5 C 26 19.777344 25.777344 20 25.5 20 L 24.5 20 C 24.222656 20 24 19.777344 24 19.5 L 24 18.5 C 24 18.222656 24.222656 18 24.5 18 Z M 24.5 18 "/>
<path style=" stroke:none;fill-rule:nonzero;fill:rgb(38.039216%,38.039216%,38.039216%);fill-opacity:1;" d="M 6.5 21 L 7.5 21 C 7.777344 21 8 21.222656 8 21.5 L 8 22.5 C 8 22.777344 7.777344 23 7.5 23 L 6.5 23 C 6.222656 23 6 22.777344 6 22.5 L 6 21.5 C 6 21.222656 6.222656 21 6.5 21 Z M 6.5 21 "/>
<path style=" stroke:none;fill-rule:nonzero;fill:rgb(38.039216%,38.039216%,38.039216%);fill-opacity:1;" d="M 9.5 21 L 10.5 21 C 10.777344 21 11 21.222656 11 21.5 L 11 22.5 C 11 22.777344 10.777344 23 10.5 23 L 9.5 23 C 9.222656 23 9 22.777344 9 22.5 L 9 21.5 C 9 21.222656 9.222656 21 9.5 21 Z M 9.5 21 "/>
<path style=" stroke:none;fill-rule:nonzero;fill:rgb(38.039216%,38.039216%,38.039216%);fill-opacity:1;" d="M 12.5 21 L 13.5 21 C 13.777344 21 14 21.222656 14 21.5 L 14 22.5 C 14 22.777344 13.777344 23 13.5 23 L 12.5 23 C 12.222656 23 12 22.777344 12 22.5 L 12 21.5 C 12 21.222656 12.222656 21 12.5 21 Z M 12.5 21 "/>
<path style=" stroke:none;fill-rule:nonzero;fill:rgb(38.039216%,38.039216%,38.039216%);fill-opacity:1;" d="M 15.5 21 L 16.5 21 C 16.777344 21 17 21.222656 17 21.5 L 17 22.5 C 17 22.777344 16.777344 23 16.5 23 L 15.5 23 C 15.222656 23 15 22.777344 15 22.5 L 15 21.5 C 15 21.222656 15.222656 21 15.5 21 Z M 15.5 21 "/>
<path style=" stroke:none;fill-rule:nonzero;fill:rgb(38.039216%,38.039216%,38.039216%);fill-opacity:1;" d="M 18.5 21 L 19.5 21 C 19.777344 21 20 21.222656 20 21.5 L 20 22.5 C 20 22.777344 19.777344 23 19.5 23 L 18.5 23 C 18.222656 23 18 22.777344 18 22.5 L 18 21.5 C 18 21.222656 18.222656 21 18.5 21 Z M 18.5 21 "/>
<path style=" stroke:none;fill-rule:nonzero;fill:rgb(95.686275%,26.274511%,21.176471%);fill-opacity:1;" d="M 21.5 21 L 22.5 21 C 22.777344 21 23 21.222656 23 21.5 L 23 22.5 C 23 22.777344 22.777344 23 22.5 23 L 21.5 23 C 21.222656 23 21 22.777344 21 22.5 L 21 21.5 C 21 21.222656 21.222656 21 21.5 21 Z M 21.5 21 "/>
<path style=" stroke:none;fill-rule:nonzero;fill:rgb(95.686275%,26.274511%,21.176471%);fill-opacity:1;" d="M 24.5 21 L 25.5 21 C 25.777344 21 26 21.222656 26 21.5 L 26 22.5 C 26 22.777344 25.777344 23 25.5 23 L 24.5 23 C 24.222656 23 24 22.777344 24 22.5 L 24 21.5 C 24 21.222656 24.222656 21 24.5 21 Z M 24.5 21 "/>
<path style=" stroke:none;fill-rule:nonzero;fill:rgb(38.039216%,38.039216%,38.039216%);fill-opacity:1;" d="M 6.5 24 L 7.5 24 C 7.777344 24 8 24.222656 8 24.5 L 8 25.5 C 8 25.777344 7.777344 26 7.5 26 L 6.5 26 C 6.222656 26 6 25.777344 6 25.5 L 6 24.5 C 6 24.222656 6.222656 24 6.5 24 Z M 6.5 24 "/>
<path style=" stroke:none;fill-rule:nonzero;fill:rgb(38.039216%,38.039216%,38.039216%);fill-opacity:1;" d="M 9.5 24 L 10.5 24 C 10.777344 24 11 24.222656 11 24.5 L 11 25.5 C 11 25.777344 10.777344 26 10.5 26 L 9.5 26 C 9.222656 26 9 25.777344 9 25.5 L 9 24.5 C 9 24.222656 9.222656 24 9.5 24 Z M 9.5 24 "/>
<path style=" stroke:none;fill-rule:nonzero;fill:rgb(38.039216%,38.039216%,38.039216%);fill-opacity:1;" d="M 12.5 24 L 13.5 24 C 13.777344 24 14 24.222656 14 24.5 L 14 25.5 C 14 25.777344 13.777344 26 13.5 26 L 12.5 26 C 12.222656 26 12 25.777344 12 25.5 L 12 24.5 C 12 24.222656 12.222656 24 12.5 24 Z M 12.5 24 "/>
<path style=" stroke:none;fill-rule:nonzero;fill:rgb(38.039216%,38.039216%,38.039216%);fill-opacity:1;" d="M 15.5 24 L 16.5 24 C 16.777344 24 17 24.222656 17 24.5 L 17 25.5 C 17 25.777344 16.777344 26 16.5 26 L 15.5 26 C 15.222656 26 15 25.777344 15 25.5 L 15 24.5 C 15 24.222656 15.222656 24 15.5 24 Z M 15.5 24 "/>
<path style=" stroke:none;fill-rule:nonzero;fill:rgb(38.039216%,38.039216%,38.039216%);fill-opacity:1;" d="M 18.5 24 L 19.5 24 C 19.777344 24 20 24.222656 20 24.5 L 20 25.5 C 20 25.777344 19.777344 26 19.5 26 L 18.5 26 C 18.222656 26 18 25.777344 18 25.5 L 18 24.5 C 18 24.222656 18.222656 24 18.5 24 Z M 18.5 24 "/>
<path style=" stroke:none;fill-rule:nonzero;fill:rgb(61.960787%,61.960787%,61.960787%);fill-opacity:1;" d="M 21.5 24 L 22.5 24 C 22.777344 24 23 24.222656 23 24.5 L 23 25.5 C 23 25.777344 22.777344 26 22.5 26 L 21.5 26 C 21.222656 26 21 25.777344 21 25.5 L 21 24.5 C 21 24.222656 21.222656 24 21.5 24 Z M 21.5 24 "/>
<path style=" stroke:none;fill-rule:nonzero;fill:rgb(61.960787%,61.960787%,61.960787%);fill-opacity:1;" d="M 24.5 24 L 25.5 24 C 25.777344 24 26 24.222656 26 24.5 L 26 25.5 C 26 25.777344 25.777344 26 25.5 26 L 24.5 26 C 24.222656 26 24 25.777344 24 25.5 L 24 24.5 C 24 24.222656 24.222656 24 24.5 24 Z M 24.5 24 "/>
<path style=" stroke:none;fill-rule:nonzero;fill:rgb(100%,100%,100%);fill-opacity:0.6;" d="M 6 13.5 L 6 14 C 6 14.277344 6.222656 14.5 6.5 14.5 L 7.5 14.5 C 7.777344 14.5 8 14.277344 8 14 L 8 13.5 C 8 13.777344 7.777344 14 7.5 14 L 6.5 14 C 6.222656 14 6 13.777344 6 13.5 Z M 9 13.5 L 9 14 C 9 14.277344 9.222656 14.5 9.5 14.5 L 10.5 14.5 C 10.777344 14.5 11 14.277344 11 14 L 11 13.5 C 11 13.777344 10.777344 14 10.5 14 L 9.5 14 C 9.222656 14 9 13.777344 9 13.5 Z M 12 13.5 L 12 14 C 12 14.277344 12.222656 14.5 12.5 14.5 L 13.5 14.5 C 13.777344 14.5 14 14.277344 14 14 L 14 13.5 C 14 13.777344 13.777344 14 13.5 14 L 12.5 14 C 12.222656 14 12 13.777344 12 13.5 Z M 15 13.5 L 15 14 C 15 14.277344 15.222656 14.5 15.5 14.5 L 16.5 14.5 C 16.777344 14.5 17 14.277344 17 14 L 17 13.5 C 17 13.777344 16.777344 14 16.5 14 L 15.5 14 C 15.222656 14 15 13.777344 15 13.5 Z M 18 13.5 L 18 14 C 18 14.277344 18.222656 14.5 18.5 14.5 L 19.5 14.5 C 19.777344 14.5 20 14.277344 20 14 L 20 13.5 C 20 13.777344 19.777344 14 19.5 14 L 18.5 14 C 18.222656 14 18 13.777344 18 13.5 Z M 21 13.5 L 21 14 C 21 14.277344 21.222656 14.5 21.5 14.5 L 22.5 14.5 C 22.777344 14.5 23 14.277344 23 14 L 23 13.5 C 23 13.777344 22.777344 14 22.5 14 L 21.5 14 C 21.222656 14 21 13.777344 21 13.5 Z M 24 13.5 L 24 14 C 24 14.277344 24.222656 14.5 24.5 14.5 L 25.5 14.5 C 25.777344 14.5 26 14.277344 26 14 L 26 13.5 C 26 13.777344 25.777344 14 25.5 14 L 24.5 14 C 24.222656 14 24 13.777344 24 13.5 Z M 6 16.5 L 6 17 C 6 17.277344 6.222656 17.5 6.5 17.5 L 7.5 17.5 C 7.777344 17.5 8 17.277344 8 17 L 8 16.5 C 8 16.777344 7.777344 17 7.5 17 L 6.5 17 C 6.222656 17 6 16.777344 6 16.5 Z M 9 16.5 L 9 17 C 9 17.277344 9.222656 17.5 9.5 17.5 L 10.5 17.5 C 10.777344 17.5 11 17.277344 11 17 L 11 16.5 C 11 16.777344 10.777344 17 10.5 17 L 9.5 17 C 9.222656 17 9 16.777344 9 16.5 Z M 12 16.5 L 12 17 C 12 17.277344 12.222656 17.5 12.5 17.5 L 13.5 17.5 C 13.777344 17.5 14 17.277344 14 17 L 14 16.5 C 14 16.777344 13.777344 17 13.5 17 L 12.5 17 C 12.222656 17 12 16.777344 12 16.5 Z M 15 16.5 L 15 17 C 15 17.277344 15.222656 17.5 15.5 17.5 L 16.5 17.5 C 16.777344 17.5 17 17.277344 17 17 L 17 16.5 C 17 16.777344 16.777344 17 16.5 17 L 15.5 17 C 15.222656 17 15 16.777344 15 16.5 Z M 18 16.5 L 18 17 C 18 17.277344 18.222656 17.5 18.5 17.5 L 19.5 17.5 C 19.777344 17.5 20 17.277344 20 17 L 20 16.5 C 20 16.777344 19.777344 17 19.5 17 L 18.5 17 C 18.222656 17 18 16.777344 18 16.5 Z M 21 16.5 L 21 17 C 21 17.277344 21.222656 17.5 21.5 17.5 L 22.5 17.5 C 22.777344 17.5 23 17.277344 23 17 L 23 16.5 C 23 16.777344 22.777344 17 22.5 17 L 21.5 17 C 21.222656 17 21 16.777344 21 16.5 Z M 24 16.5 L 24 17 C 24 17.277344 24.222656 17.5 24.5 17.5 L 25.5 17.5 C 25.777344 17.5 26 17.277344 26 17 L 26 16.5 C 26 16.777344 25.777344 17 25.5 17 L 24.5 17 C 24.222656 17 24 16.777344 24 16.5 Z M 6 19.5 L 6 20 C 6 20.277344 6.222656 20.5 6.5 20.5 L 7.5 20.5 C 7.777344 20.5 8 20.277344 8 20 L 8 19.5 C 8 19.777344 7.777344 20 7.5 20 L 6.5 20 C 6.222656 20 6 19.777344 6 19.5 Z M 9 19.5 L 9 20 C 9 20.277344 9.222656 20.5 9.5 20.5 L 10.5 20.5 C 10.777344 20.5 11 20.277344 11 20 L 11 19.5 C 11 19.777344 10.777344 20 10.5 20 L 9.5 20 C 9.222656 20 9 19.777344 9 19.5 Z M 12 19.5 L 12 20 C 12 20.277344 12.222656 20.5 12.5 20.5 L 13.5 20.5 C 13.777344 20.5 14 20.277344 14 20 L 14 19.5 C 14 19.777344 13.777344 20 13.5 20 L 12.5 20 C 12.222656 20 12 19.777344 12 19.5 Z M 15 19.5 L 15 20 C 15 20.277344 15.222656 20.5 15.5 20.5 L 16.5 20.5 C 16.777344 20.5 17 20.277344 17 20 L 17 19.5 C 17 19.777344 16.777344 20 16.5 20 L 15.5 20 C 15.222656 20 15 19.777344 15 19.5 Z M 18 19.5 L 18 20 C 18 20.277344 18.222656 20.5 18.5 20.5 L 19.5 20.5 C 19.777344 20.5 20 20.277344 20 20 L 20 19.5 C 20 19.777344 19.777344 20 19.5 20 L 18.5 20 C 18.222656 20 18 19.777344 18 19.5 Z M 21 19.5 L 21 20 C 21 20.277344 21.222656 20.5 21.5 20.5 L 22.5 20.5 C 22.777344 20.5 23 20.277344 23 20 L 23 19.5 C 23 19.777344 22.777344 20 22.5 20 L 21.5 20 C 21.222656 20 21 19.777344 21 19.5 Z M 24 19.5 L 24 20 C 24 20.277344 24.222656 20.5 24.5 20.5 L 25.5 20.5 C 25.777344 20.5 26 20.277344 26 20 L 26 19.5 C 26 19.777344 25.777344 20 25.5 20 L 24.5 20 C 24.222656 20 24 19.777344 24 19.5 Z M 6 22.5 L 6 23 C 6 23.277344 6.222656 23.5 6.5 23.5 L 7.5 23.5 C 7.777344 23.5 8 23.277344 8 23 L 8 22.5 C 8 22.777344 7.777344 23 7.5 23 L 6.5 23 C 6.222656 23 6 22.777344 6 22.5 Z M 9 22.5 L 9 23 C 9 23.277344 9.222656 23.5 9.5 23.5 L 10.5 23.5 C 10.777344 23.5 11 23.277344 11 23 L 11 22.5 C 11 22.777344 10.777344 23 10.5 23 L 9.5 23 C 9.222656 23 9 22.777344 9 22.5 Z M 12 22.5 L 12 23 C 12 23.277344 12.222656 23.5 12.5 23.5 L 13.5 23.5 C 13.777344 23.5 14 23.277344 14 23 L 14 22.5 C 14 22.777344 13.777344 23 13.5 23 L 12.5 23 C 12.222656 23 12 22.777344 12 22.5 Z M 15 22.5 L 15 23 C 15 23.277344 15.222656 23.5 15.5 23.5 L 16.5 23.5 C 16.777344 23.5 17 23.277344 17 23 L 17 22.5 C 17 22.777344 16.777344 23 16.5 23 L 15.5 23 C 15.222656 23 15 22.777344 15 22.5 Z M 18 22.5 L 18 23 C 18 23.277344 18.222656 23.5 18.5 23.5 L 19.5 23.5 C 19.777344 23.5 20 23.277344 20 23 L 20 22.5 C 20 22.777344 19.777344 23 19.5 23 L 18.5 23 C 18.222656 23 18 22.777344 18 22.5 Z M 21 22.5 L 21 23 C 21 23.277344 21.222656 23.5 21.5 23.5 L 22.5 23.5 C 22.777344 23.5 23 23.277344 23 23 L 23 22.5 C 23 22.777344 22.777344 23 22.5 23 L 21.5 23 C 21.222656 23 21 22.777344 21 22.5 Z M 24 22.5 L 24 23 C 24 23.277344 24.222656 23.5 24.5 23.5 L 25.5 23.5 C 25.777344 23.5 26 23.277344 26 23 L 26 22.5 C 26 22.777344 25.777344 23 25.5 23 L 24.5 23 C 24.222656 23 24 22.777344 24 22.5 Z M 6 25.5 L 6 26 C 6 26.277344 6.222656 26.5 6.5 26.5 L 7.5 26.5 C 7.777344 26.5 8 26.277344 8 26 L 8 25.5 C 8 25.777344 7.777344 26 7.5 26 L 6.5 26 C 6.222656 26 6 25.777344 6 25.5 Z M 9 25.5 L 9 26 C 9 26.277344 9.222656 26.5 9.5 26.5 L 10.5 26.5 C 10.777344 26.5 11 26.277344 11 26 L 11 25.5 C 11 25.777344 10.777344 26 10.5 26 L 9.5 26 C 9.222656 26 9 25.777344 9 25.5 Z M 12 25.5 L 12 26 C 12 26.277344 12.222656 26.5 12.5 26.5 L 13.5 26.5 C 13.777344 26.5 14 26.277344 14 26 L 14 25.5 C 14 25.777344 13.777344 26 13.5 26 L 12.5 26 C 12.222656 26 12 25.777344 12 25.5 Z M 15 25.5 L 15 26 C 15 26.277344 15.222656 26.5 15.5 26.5 L 16.5 26.5 C 16.777344 26.5 17 26.277344 17 26 L 17 25.5 C 17 25.777344 16.777344 26 16.5 26 L 15.5 26 C 15.222656 26 15 25.777344 15 25.5 Z M 18 25.5 L 18 26 C 18 26.277344 18.222656 26.5 18.5 26.5 L 19.5 26.5 C 19.777344 26.5 20 26.277344 20 26 L 20 25.5 C 20 25.777344 19.777344 26 19.5 26 L 18.5 26 C 18.222656 26 18 25.777344 18 25.5 Z M 21 25.5 L 21 26 C 21 26.277344 21.222656 26.5 21.5 26.5 L 22.5 26.5 C 22.777344 26.5 23 26.277344 23 26 L 23 25.5 C 23 25.777344 22.777344 26 22.5 26 L 21.5 26 C 21.222656 26 21 25.777344 21 25.5 Z M 24 25.5 L 24 26 C 24 26.277344 24.222656 26.5 24.5 26.5 L 25.5 26.5 C 25.777344 26.5 26 26.277344 26 26 L 26 25.5 C 26 25.777344 25.777344 26 25.5 26 L 24.5 26 C 24.222656 26 24 25.777344 24 25.5 Z M 24 25.5 "/>
<path style=" stroke:none;fill-rule:nonzero;fill:rgb(0%,0%,0%);fill-opacity:0.4;" d="M 6.5 12 C 6.222656 12 6 12.222656 6 12.5 L 6 13 C 6 12.722656 6.222656 12.5 6.5 12.5 L 7.5 12.5 C 7.777344 12.5 8 12.722656 8 13 L 8 12.5 C 8 12.222656 7.777344 12 7.5 12 Z M 9.5 12 C 9.222656 12 9 12.222656 9 12.5 L 9 13 C 9 12.722656 9.222656 12.5 9.5 12.5 L 10.5 12.5 C 10.777344 12.5 11 12.722656 11 13 L 11 12.5 C 11 12.222656 10.777344 12 10.5 12 Z M 12.5 12 C 12.222656 12 12 12.222656 12 12.5 L 12 13 C 12 12.722656 12.222656 12.5 12.5 12.5 L 13.5 12.5 C 13.777344 12.5 14 12.722656 14 13 L 14 12.5 C 14 12.222656 13.777344 12 13.5 12 Z M 15.5 12 C 15.222656 12 15 12.222656 15 12.5 L 15 13 C 15 12.722656 15.222656 12.5 15.5 12.5 L 16.5 12.5 C 16.777344 12.5 17 12.722656 17 13 L 17 12.5 C 17 12.222656 16.777344 12 16.5 12 Z M 18.5 12 C 18.222656 12 18 12.222656 18 12.5 L 18 13 C 18 12.722656 18.222656 12.5 18.5 12.5 L 19.5 12.5 C 19.777344 12.5 20 12.722656 20 13 L 20 12.5 C 20 12.222656 19.777344 12 19.5 12 Z M 21.5 12 C 21.222656 12 21 12.222656 21 12.5 L 21 13 C 21 12.722656 21.222656 12.5 21.5 12.5 L 22.5 12.5 C 22.777344 12.5 23 12.722656 23 13 L 23 12.5 C 23 12.222656 22.777344 12 22.5 12 Z M 24.5 12 C 24.222656 12 24 12.222656 24 12.5 L 24 13 C 24 12.722656 24.222656 12.5 24.5 12.5 L 25.5 12.5 C 25.777344 12.5 26 12.722656 26 13 L 26 12.5 C 26 12.222656 25.777344 12 25.5 12 Z M 6.5 15 C 6.222656 15 6 15.222656 6 15.5 L 6 16 C 6 15.722656 6.222656 15.5 6.5 15.5 L 7.5 15.5 C 7.777344 15.5 8 15.722656 8 16 L 8 15.5 C 8 15.222656 7.777344 15 7.5 15 Z M 9.5 15 C 9.222656 15 9 15.222656 9 15.5 L 9 16 C 9 15.722656 9.222656 15.5 9.5 15.5 L 10.5 15.5 C 10.777344 15.5 11 15.722656 11 16 L 11 15.5 C 11 15.222656 10.777344 15 10.5 15 Z M 12.5 15 C 12.222656 15 12 15.222656 12 15.5 L 12 16 C 12 15.722656 12.222656 15.5 12.5 15.5 L 13.5 15.5 C 13.777344 15.5 14 15.722656 14 16 L 14 15.5 C 14 15.222656 13.777344 15 13.5 15 Z M 15.5 15 C 15.222656 15 15 15.222656 15 15.5 L 15 16 C 15 15.722656 15.222656 15.5 15.5 15.5 L 16.5 15.5 C 16.777344 15.5 17 15.722656 17 16 L 17 15.5 C 17 15.222656 16.777344 15 16.5 15 Z M 18.5 15 C 18.222656 15 18 15.222656 18 15.5 L 18 16 C 18 15.722656 18.222656 15.5 18.5 15.5 L 19.5 15.5 C 19.777344 15.5 20 15.722656 20 16 L 20 15.5 C 20 15.222656 19.777344 15 19.5 15 Z M 21.5 15 C 21.222656 15 21 15.222656 21 15.5 L 21 16 C 21 15.722656 21.222656 15.5 21.5 15.5 L 22.5 15.5 C 22.777344 15.5 23 15.722656 23 16 L 23 15.5 C 23 15.222656 22.777344 15 22.5 15 Z M 24.5 15 C 24.222656 15 24 15.222656 24 15.5 L 24 16 C 24 15.722656 24.222656 15.5 24.5 15.5 L 25.5 15.5 C 25.777344 15.5 26 15.722656 26 16 L 26 15.5 C 26 15.222656 25.777344 15 25.5 15 Z M 6.5 18 C 6.222656 18 6 18.222656 6 18.5 L 6 19 C 6 18.722656 6.222656 18.5 6.5 18.5 L 7.5 18.5 C 7.777344 18.5 8 18.722656 8 19 L 8 18.5 C 8 18.222656 7.777344 18 7.5 18 Z M 9.5 18 C 9.222656 18 9 18.222656 9 18.5 L 9 19 C 9 18.722656 9.222656 18.5 9.5 18.5 L 10.5 18.5 C 10.777344 18.5 11 18.722656 11 19 L 11 18.5 C 11 18.222656 10.777344 18 10.5 18 Z M 12.5 18 C 12.222656 18 12 18.222656 12 18.5 L 12 19 C 12 18.722656 12.222656 18.5 12.5 18.5 L 13.5 18.5 C 13.777344 18.5 14 18.722656 14 19 L 14 18.5 C 14 18.222656 13.777344 18 13.5 18 Z M 15.5 18 C 15.222656 18 15 18.222656 15 18.5 L 15 19 C 15 18.722656 15.222656 18.5 15.5 18.5 L 16.5 18.5 C 16.777344 18.5 17 18.722656 17 19 L 17 18.5 C 17 18.222656 16.777344 18 16.5 18 Z M 18.5 18 C 18.222656 18 18 18.222656 18 18.5 L 18 19 C 18 18.722656 18.222656 18.5 18.5 18.5 L 19.5 18.5 C 19.777344 18.5 20 18.722656 20 19 L 20 18.5 C 20 18.222656 19.777344 18 19.5 18 Z M 21.5 18 C 21.222656 18 21 18.222656 21 18.5 L 21 19 C 21 18.722656 21.222656 18.5 21.5 18.5 L 22.5 18.5 C 22.777344 18.5 23 18.722656 23 19 L 23 18.5 C 23 18.222656 22.777344 18 22.5 18 Z M 24.5 18 C 24.222656 18 24 18.222656 24 18.5 L 24 19 C 24 18.722656 24.222656 18.5 24.5 18.5 L 25.5 18.5 C 25.777344 18.5 26 18.722656 26 19 L 26 18.5 C 26 18.222656 25.777344 18 25.5 18 Z M 6.5 21 C 6.222656 21 6 21.222656 6 21.5 L 6 22 C 6 21.722656 6.222656 21.5 6.5 21.5 L 7.5 21.5 C 7.777344 21.5 8 21.722656 8 22 L 8 21.5 C 8 21.222656 7.777344 21 7.5 21 Z M 9.5 21 C 9.222656 21 9 21.222656 9 21.5 L 9 22 C 9 21.722656 9.222656 21.5 9.5 21.5 L 10.5 21.5 C 10.777344 21.5 11 21.722656 11 22 L 11 21.5 C 11 21.222656 10.777344 21 10.5 21 Z M 12.5 21 C 12.222656 21 12 21.222656 12 21.5 L 12 22 C 12 21.722656 12.222656 21.5 12.5 21.5 L 13.5 21.5 C 13.777344 21.5 14 21.722656 14 22 L 14 21.5 C 14 21.222656 13.777344 21 13.5 21 Z M 15.5 21 C 15.222656 21 15 21.222656 15 21.5 L 15 22 C 15 21.722656 15.222656 21.5 15.5 21.5 L 16.5 21.5 C 16.777344 21.5 17 21.722656 17 22 L 17 21.5 C 17 21.222656 16.777344 21 16.5 21 Z M 18.5 21 C 18.222656 21 18 21.222656 18 21.5 L 18 22 C 18 21.722656 18.222656 21.5 18.5 21.5 L 19.5 21.5 C 19.777344 21.5 20 21.722656 20 22 L 20 21.5 C 20 21.222656 19.777344 21 19.5 21 Z M 21.5 21 C 21.222656 21 21 21.222656 21 21.5 L 21 22 C 21 21.722656 21.222656 21.5 21.5 21.5 L 22.5 21.5 C 22.777344 21.5 23 21.722656 23 22 L 23 21.5 C 23 21.222656 22.777344 21 22.5 21 Z M 24.5 21 C 24.222656 21 24 21.222656 24 21.5 L 24 22 C 24 21.722656 24.222656 21.5 24.5 21.5 L 25.5 21.5 C 25.777344 21.5 26 21.722656 26 22 L 26 21.5 C 26 21.222656 25.777344 21 25.5 21 Z M 6.5 24 C 6.222656 24 6 24.222656 6 24.5 L 6 25 C 6 24.722656 6.222656 24.5 6.5 24.5 L 7.5 24.5 C 7.777344 24.5 8 24.722656 8 25 L 8 24.5 C 8 24.222656 7.777344 24 7.5 24 Z M 9.5 24 C 9.222656 24 9 24.222656 9 24.5 L 9 25 C 9 24.722656 9.222656 24.5 9.5 24.5 L 10.5 24.5 C 10.777344 24.5 11 24.722656 11 25 L 11 24.5 C 11 24.222656 10.777344 24 10.5 24 Z M 12.5 24 C 12.222656 24 12 24.222656 12 24.5 L 12 25 C 12 24.722656 12.222656 24.5 12.5 24.5 L 13.5 24.5 C 13.777344 24.5 14 24.722656 14 25 L 14 24.5 C 14 24.222656 13.777344 24 13.5 24 Z M 15.5 24 C 15.222656 24 15 24.222656 15 24.5 L 15 25 C 15 24.722656 15.222656 24.5 15.5 24.5 L 16.5 24.5 C 16.777344 24.5 17 24.722656 17 25 L 17 24.5 C 17 24.222656 16.777344 24 16.5 24 Z M 18.5 24 C 18.222656 24 18 24.222656 18 24.5 L 18 25 C 18 24.722656 18.222656 24.5 18.5 24.5 L 19.5 24.5 C 19.777344 24.5 20 24.722656 20 25 L 20 24.5 C 20 24.222656 19.777344 24 19.5 24 Z M 21.5 24 C 21.222656 24 21 24.222656 21 24.5 L 21 25 C 21 24.722656 21.222656 24.5 21.5 24.5 L 22.5 24.5 C 22.777344 24.5 23 24.722656 23 25 L 23 24.5 C 23 24.222656 22.777344 24 22.5 24 Z M 24.5 24 C 24.222656 24 24 24.222656 24 24.5 L 24 25 C 24 24.722656 24.222656 24.5 24.5 24.5 L 25.5 24.5 C 25.777344 24.5 26 24.722656 26 25 L 26 24.5 C 26 24.222656 25.777344 24 25.5 24 Z M 24.5 24 "/>
<path style=" stroke:none;fill-rule:nonzero;fill:rgb(87.843138%,87.843138%,87.843138%);fill-opacity:1;" d="M 26 25 L 25 26 L 25.5 26 C 25.777344 26 26 25.777344 26 25.5 Z M 26 25 "/>
<path style=" stroke:none;fill-rule:nonzero;fill:rgb(0.392157%,0.392157%,0.392157%);fill-opacity:0.4;" d="M 7.230469 5.25 C 6.824219 5.261719 6.5 5.589844 6.5 6 C 6.5 6.042969 6.503906 6.085938 6.511719 6.125 C 6.570312 5.769531 6.878906 5.5 7.25 5.5 C 7.621094 5.5 7.929688 5.769531 7.988281 6.125 C 7.996094 6.085938 8 6.042969 8 6 C 8 5.585938 7.664062 5.25 7.25 5.25 C 7.242188 5.25 7.238281 5.25 7.230469 5.25 Z M 7.230469 5.25 "/>
<path style=" stroke:none;fill-rule:nonzero;fill:rgb(0.392157%,0.392157%,0.392157%);fill-opacity:0.4;" d="M 7.25 5.25 C 7.664062 5.25 8 5.585938 8 6 C 8 6.414062 7.664062 6.75 7.25 6.75 C 6.835938 6.75 6.5 6.414062 6.5 6 C 6.5 5.585938 6.835938 5.25 7.25 5.25 Z M 7.25 5.25 "/>
<path style=" stroke:none;fill-rule:nonzero;fill:rgb(74.117649%,74.117649%,74.117649%);fill-opacity:0.996078;" d="M 7.25 2 C 7.386719 2 7.5 2.113281 7.5 2.25 L 7.5 6 C 7.5 6.136719 7.386719 6.25 7.25 6.25 C 7.113281 6.25 7 6.136719 7 6 L 7 2.25 C 7 2.113281 7.113281 2 7.25 2 Z M 7.25 2 "/>
<path style=" stroke:none;fill-rule:nonzero;fill:rgb(100%,100%,100%);fill-opacity:0.4;" d="M 7.238281 2 C 7.105469 2.007812 7 2.117188 7 2.25 L 7 2.488281 C 7.007812 2.359375 7.109375 2.257812 7.238281 2.25 C 7.242188 2.25 7.246094 2.25 7.25 2.25 C 7.382812 2.25 7.492188 2.355469 7.5 2.488281 L 7.5 2.25 C 7.5 2.113281 7.386719 2 7.25 2 C 7.246094 2 7.242188 2 7.238281 2 Z M 7.238281 2 "/>
<path style=" stroke:none;fill-rule:nonzero;fill:rgb(0%,0%,0%);fill-opacity:0.4;" d="M 7 6.011719 L 7 6.25 C 7 6.386719 7.113281 6.5 7.25 6.5 C 7.386719 6.5 7.5 6.386719 7.5 6.25 L 7.5 6.011719 C 7.492188 6.144531 7.382812 6.25 7.25 6.25 C 7.117188 6.25 7.007812 6.144531 7 6.011719 Z M 7 6.011719 "/>
<path style=" stroke:none;fill-rule:nonzero;fill:rgb(100%,100%,100%);fill-opacity:0.4;" d="M 7.230469 7 C 6.824219 6.992188 6.5 6.660156 6.5 6.25 C 6.5 6.207031 6.503906 6.164062 6.511719 6.125 C 6.570312 6.480469 6.878906 6.75 7.25 6.75 C 7.621094 6.75 7.929688 6.480469 7.988281 6.125 C 7.996094 6.164062 8 6.207031 8 6.25 C 8 6.664062 7.664062 7 7.25 7 C 7.242188 7 7.238281 7 7.230469 7 Z M 7.230469 7 "/>
<path style=" stroke:none;fill-rule:nonzero;fill:rgb(0.392157%,0.392157%,0.392157%);fill-opacity:0.4;" d="M 9.730469 5.261719 C 9.324219 5.273438 9 5.605469 9 6.011719 C 9 6.054688 9.003906 6.097656 9.011719 6.136719 C 9.070312 5.78125 9.378906 5.511719 9.75 5.511719 C 10.121094 5.511719 10.429688 5.78125 10.488281 6.136719 C 10.496094 6.097656 10.5 6.054688 10.5 6.011719 C 10.5 5.597656 10.164062 5.261719 9.75 5.261719 C 9.742188 5.261719 9.738281 5.261719 9.730469 5.261719 Z M 9.730469 5.261719 "/>
<path style=" stroke:none;fill-rule:nonzero;fill:rgb(0.392157%,0.392157%,0.392157%);fill-opacity:0.4;" d="M 9.75 5.261719 C 10.164062 5.261719 10.5 5.597656 10.5 6.011719 C 10.5 6.425781 10.164062 6.761719 9.75 6.761719 C 9.335938 6.761719 9 6.425781 9 6.011719 C 9 5.597656 9.335938 5.261719 9.75 5.261719 Z M 9.75 5.261719 "/>
<path style=" stroke:none;fill-rule:nonzero;fill:rgb(74.117649%,74.117649%,74.117649%);fill-opacity:0.996078;" d="M 9.75 2.011719 C 9.886719 2.011719 10 2.125 10 2.261719 L 10 6.011719 C 10 6.152344 9.886719 6.261719 9.75 6.261719 C 9.613281 6.261719 9.5 6.152344 9.5 6.011719 L 9.5 2.261719 C 9.5 2.125 9.613281 2.011719 9.75 2.011719 Z M 9.75 2.011719 "/>
<path style=" stroke:none;fill-rule:nonzero;fill:rgb(100%,100%,100%);fill-opacity:0.4;" d="M 9.738281 2.011719 C 9.605469 2.019531 9.5 2.128906 9.5 2.261719 L 9.5 2.5 C 9.507812 2.371094 9.609375 2.269531 9.738281 2.261719 C 9.742188 2.261719 9.746094 2.261719 9.75 2.261719 C 9.882812 2.261719 9.992188 2.367188 10 2.5 L 10 2.261719 C 10 2.125 9.886719 2.011719 9.75 2.011719 C 9.746094 2.011719 9.742188 2.011719 9.738281 2.011719 Z M 9.738281 2.011719 "/>
<path style=" stroke:none;fill-rule:nonzero;fill:rgb(0%,0%,0%);fill-opacity:0.4;" d="M 9.5 6.023438 L 9.5 6.261719 C 9.5 6.402344 9.613281 6.511719 9.75 6.511719 C 9.886719 6.511719 10 6.402344 10 6.261719 L 10 6.023438 C 9.992188 6.15625 9.882812 6.261719 9.75 6.261719 C 9.617188 6.261719 9.507812 6.15625 9.5 6.023438 Z M 9.5 6.023438 "/>
<path style=" stroke:none;fill-rule:nonzero;fill:rgb(100%,100%,100%);fill-opacity:0.4;" d="M 9.730469 7.011719 C 9.324219 7.003906 9 6.671875 9 6.261719 C 9 6.21875 9.003906 6.179688 9.011719 6.136719 C 9.070312 6.492188 9.378906 6.761719 9.75 6.761719 C 10.121094 6.761719 10.429688 6.492188 10.488281 6.136719 C 10.496094 6.179688 10.5 6.21875 10.5 6.261719 C 10.5 6.679688 10.164062 7.011719 9.75 7.011719 C 9.742188 7.011719 9.738281 7.011719 9.730469 7.011719 Z M 9.730469 7.011719 "/>
<path style=" stroke:none;fill-rule:nonzero;fill:rgb(0.392157%,0.392157%,0.392157%);fill-opacity:0.4;" d="M 12.230469 5.238281 C 11.824219 5.246094 11.5 5.578125 11.5 5.988281 C 11.5 6.03125 11.503906 6.070312 11.511719 6.113281 C 11.570312 5.757812 11.878906 5.488281 12.25 5.488281 C 12.621094 5.488281 12.929688 5.757812 12.988281 6.113281 C 12.996094 6.070312 13 6.03125 13 5.988281 C 13 5.570312 12.664062 5.238281 12.25 5.238281 C 12.242188 5.238281 12.238281 5.238281 12.230469 5.238281 Z M 12.230469 5.238281 "/>
<path style=" stroke:none;fill-rule:nonzero;fill:rgb(0.392157%,0.392157%,0.392157%);fill-opacity:0.4;" d="M 12.25 5.238281 C 12.664062 5.238281 13 5.574219 13 5.988281 C 13 6.402344 12.664062 6.738281 12.25 6.738281 C 11.835938 6.738281 11.5 6.402344 11.5 5.988281 C 11.5 5.574219 11.835938 5.238281 12.25 5.238281 Z M 12.25 5.238281 "/>
<path style=" stroke:none;fill-rule:nonzero;fill:rgb(74.117649%,74.117649%,74.117649%);fill-opacity:0.996078;" d="M 12.25 1.988281 C 12.386719 1.988281 12.5 2.097656 12.5 2.238281 L 12.5 5.988281 C 12.5 6.125 12.386719 6.238281 12.25 6.238281 C 12.113281 6.238281 12 6.125 12 5.988281 L 12 2.238281 C 12 2.097656 12.113281 1.988281 12.25 1.988281 Z M 12.25 1.988281 "/>
<path style=" stroke:none;fill-rule:nonzero;fill:rgb(100%,100%,100%);fill-opacity:0.4;" d="M 12.238281 1.988281 C 12.105469 1.996094 12 2.101562 12 2.238281 L 12 2.476562 C 12.007812 2.347656 12.109375 2.246094 12.238281 2.238281 C 12.242188 2.238281 12.246094 2.238281 12.25 2.238281 C 12.382812 2.238281 12.492188 2.34375 12.5 2.476562 L 12.5 2.238281 C 12.5 2.097656 12.386719 1.988281 12.25 1.988281 C 12.246094 1.988281 12.242188 1.988281 12.238281 1.988281 Z M 12.238281 1.988281 "/>
<path style=" stroke:none;fill-rule:nonzero;fill:rgb(0%,0%,0%);fill-opacity:0.4;" d="M 12 6 L 12 6.238281 C 12 6.375 12.113281 6.488281 12.25 6.488281 C 12.386719 6.488281 12.5 6.375 12.5 6.238281 L 12.5 6 C 12.492188 6.132812 12.382812 6.238281 12.25 6.238281 C 12.117188 6.238281 12.007812 6.132812 12 6 Z M 12 6 "/>
<path style=" stroke:none;fill-rule:nonzero;fill:rgb(100%,100%,100%);fill-opacity:0.4;" d="M 12.230469 6.988281 C 11.824219 6.976562 11.5 6.644531 11.5 6.238281 C 11.5 6.195312 11.503906 6.152344 11.511719 6.113281 C 11.570312 6.46875 11.878906 6.738281 12.25 6.738281 C 12.621094 6.738281 12.929688 6.46875 12.988281 6.113281 C 12.996094 6.152344 13 6.195312 13 6.238281 C 13 6.652344 12.664062 6.988281 12.25 6.988281 C 12.242188 6.988281 12.238281 6.988281 12.230469 6.988281 Z M 12.230469 6.988281 "/>
<path style=" stroke:none;fill-rule:nonzero;fill:rgb(0.392157%,0.392157%,0.392157%);fill-opacity:0.4;" d="M 19.75 5.25 C 19.34375 5.261719 19.019531 5.589844 19.019531 6 C 19.019531 6.042969 19.023438 6.085938 19.03125 6.125 C 19.089844 5.769531 19.398438 5.5 19.769531 5.5 C 20.140625 5.5 20.449219 5.769531 20.507812 6.125 C 20.515625 6.085938 20.519531 6.042969 20.519531 6 C 20.519531 5.585938 20.183594 5.25 19.769531 5.25 C 19.761719 5.25 19.757812 5.25 19.75 5.25 Z M 19.75 5.25 "/>
<path style=" stroke:none;fill-rule:nonzero;fill:rgb(0.392157%,0.392157%,0.392157%);fill-opacity:0.4;" d="M 19.769531 5.25 C 20.183594 5.25 20.519531 5.585938 20.519531 6 C 20.519531 6.414062 20.183594 6.75 19.769531 6.75 C 19.355469 6.75 19.019531 6.414062 19.019531 6 C 19.019531 5.585938 19.355469 5.25 19.769531 5.25 Z M 19.769531 5.25 "/>
<path style=" stroke:none;fill-rule:nonzero;fill:rgb(74.117649%,74.117649%,74.117649%);fill-opacity:0.996078;" d="M 19.769531 2 C 19.90625 2 20.019531 2.113281 20.019531 2.25 L 20.019531 6 C 20.019531 6.136719 19.90625 6.25 19.769531 6.25 C 19.632812 6.25 19.519531 6.136719 19.519531 6 L 19.519531 2.25 C 19.519531 2.113281 19.632812 2 19.769531 2 Z M 19.769531 2 "/>
<path style=" stroke:none;fill-rule:nonzero;fill:rgb(100%,100%,100%);fill-opacity:0.4;" d="M 19.757812 2 C 19.625 2.007812 19.519531 2.117188 19.519531 2.25 L 19.519531 2.488281 C 19.527344 2.359375 19.628906 2.257812 19.757812 2.25 C 19.761719 2.25 19.765625 2.25 19.769531 2.25 C 19.902344 2.25 20.011719 2.355469 20.019531 2.488281 L 20.019531 2.25 C 20.019531 2.113281 19.90625 2 19.769531 2 C 19.765625 2 19.761719 2 19.757812 2 Z M 19.757812 2 "/>
<path style=" stroke:none;fill-rule:nonzero;fill:rgb(0%,0%,0%);fill-opacity:0.4;" d="M 19.519531 6.011719 L 19.519531 6.25 C 19.519531 6.386719 19.632812 6.5 19.769531 6.5 C 19.90625 6.5 20.019531 6.386719 20.019531 6.25 L 20.019531 6.011719 C 20.011719 6.144531 19.902344 6.25 19.769531 6.25 C 19.636719 6.25 19.527344 6.144531 19.519531 6.011719 Z M 19.519531 6.011719 "/>
<path style=" stroke:none;fill-rule:nonzero;fill:rgb(100%,100%,100%);fill-opacity:0.4;" d="M 19.75 7 C 19.34375 6.992188 19.019531 6.660156 19.019531 6.25 C 19.019531 6.207031 19.023438 6.164062 19.03125 6.125 C 19.089844 6.480469 19.398438 6.75 19.769531 6.75 C 20.140625 6.75 20.449219 6.480469 20.507812 6.125 C 20.515625 6.164062 20.519531 6.207031 20.519531 6.25 C 20.519531 6.664062 20.183594 7 19.769531 7 C 19.761719 7 19.757812 7 19.75 7 Z M 19.75 7 "/>
<path style=" stroke:none;fill-rule:nonzero;fill:rgb(0.392157%,0.392157%,0.392157%);fill-opacity:0.4;" d="M 22.25 5.261719 C 21.84375 5.273438 21.519531 5.605469 21.519531 6.011719 C 21.519531 6.054688 21.523438 6.097656 21.53125 6.136719 C 21.589844 5.78125 21.898438 5.511719 22.269531 5.511719 C 22.640625 5.511719 22.949219 5.78125 23.007812 6.136719 C 23.015625 6.097656 23.019531 6.054688 23.019531 6.011719 C 23.019531 5.597656 22.683594 5.261719 22.269531 5.261719 C 22.261719 5.261719 22.257812 5.261719 22.25 5.261719 Z M 22.25 5.261719 "/>
<path style=" stroke:none;fill-rule:nonzero;fill:rgb(0.392157%,0.392157%,0.392157%);fill-opacity:0.4;" d="M 22.269531 5.261719 C 22.683594 5.261719 23.019531 5.597656 23.019531 6.011719 C 23.019531 6.425781 22.683594 6.761719 22.269531 6.761719 C 21.855469 6.761719 21.519531 6.425781 21.519531 6.011719 C 21.519531 5.597656 21.855469 5.261719 22.269531 5.261719 Z M 22.269531 5.261719 "/>
<path style=" stroke:none;fill-rule:nonzero;fill:rgb(74.117649%,74.117649%,74.117649%);fill-opacity:0.996078;" d="M 22.269531 2.011719 C 22.40625 2.011719 22.519531 2.125 22.519531 2.261719 L 22.519531 6.011719 C 22.519531 6.152344 22.40625 6.261719 22.269531 6.261719 C 22.132812 6.261719 22.019531 6.152344 22.019531 6.011719 L 22.019531 2.261719 C 22.019531 2.125 22.132812 2.011719 22.269531 2.011719 Z M 22.269531 2.011719 "/>
<path style=" stroke:none;fill-rule:nonzero;fill:rgb(100%,100%,100%);fill-opacity:0.4;" d="M 22.257812 2.011719 C 22.125 2.019531 22.019531 2.128906 22.019531 2.261719 L 22.019531 2.5 C 22.027344 2.371094 22.128906 2.269531 22.257812 2.261719 C 22.261719 2.261719 22.265625 2.261719 22.269531 2.261719 C 22.402344 2.261719 22.511719 2.367188 22.519531 2.5 L 22.519531 2.261719 C 22.519531 2.125 22.40625 2.011719 22.269531 2.011719 C 22.265625 2.011719 22.261719 2.011719 22.257812 2.011719 Z M 22.257812 2.011719 "/>
<path style=" stroke:none;fill-rule:nonzero;fill:rgb(0%,0%,0%);fill-opacity:0.4;" d="M 22.019531 6.023438 L 22.019531 6.261719 C 22.019531 6.402344 22.132812 6.511719 22.269531 6.511719 C 22.40625 6.511719 22.519531 6.402344 22.519531 6.261719 L 22.519531 6.023438 C 22.511719 6.15625 22.402344 6.261719 22.269531 6.261719 C 22.136719 6.261719 22.027344 6.15625 22.019531 6.023438 Z M 22.019531 6.023438 "/>
<path style=" stroke:none;fill-rule:nonzero;fill:rgb(100%,100%,100%);fill-opacity:0.4;" d="M 22.25 7.011719 C 21.84375 7.003906 21.519531 6.671875 21.519531 6.261719 C 21.519531 6.21875 21.523438 6.179688 21.53125 6.136719 C 21.589844 6.492188 21.898438 6.761719 22.269531 6.761719 C 22.640625 6.761719 22.949219 6.492188 23.007812 6.136719 C 23.015625 6.179688 23.019531 6.21875 23.019531 6.261719 C 23.019531 6.679688 22.683594 7.011719 22.269531 7.011719 C 22.261719 7.011719 22.257812 7.011719 22.25 7.011719 Z M 22.25 7.011719 "/>
<path style=" stroke:none;fill-rule:nonzero;fill:rgb(0.392157%,0.392157%,0.392157%);fill-opacity:0.4;" d="M 24.75 5.238281 C 24.34375 5.246094 24.019531 5.578125 24.019531 5.988281 C 24.019531 6.03125 24.023438 6.070312 24.03125 6.113281 C 24.089844 5.757812 24.398438 5.488281 24.769531 5.488281 C 25.140625 5.488281 25.449219 5.757812 25.507812 6.113281 C 25.515625 6.070312 25.519531 6.03125 25.519531 5.988281 C 25.519531 5.570312 25.183594 5.238281 24.769531 5.238281 C 24.761719 5.238281 24.757812 5.238281 24.75 5.238281 Z M 24.75 5.238281 "/>
<path style=" stroke:none;fill-rule:nonzero;fill:rgb(0.392157%,0.392157%,0.392157%);fill-opacity:0.4;" d="M 24.769531 5.238281 C 25.183594 5.238281 25.519531 5.574219 25.519531 5.988281 C 25.519531 6.402344 25.183594 6.738281 24.769531 6.738281 C 24.355469 6.738281 24.019531 6.402344 24.019531 5.988281 C 24.019531 5.574219 24.355469 5.238281 24.769531 5.238281 Z M 24.769531 5.238281 "/>
<path style=" stroke:none;fill-rule:nonzero;fill:rgb(74.117649%,74.117649%,74.117649%);fill-opacity:0.996078;" d="M 24.769531 1.988281 C 24.90625 1.988281 25.019531 2.097656 25.019531 2.238281 L 25.019531 5.988281 C 25.019531 6.125 24.90625 6.238281 24.769531 6.238281 C 24.632812 6.238281 24.519531 6.125 24.519531 5.988281 L 24.519531 2.238281 C 24.519531 2.097656 24.632812 1.988281 24.769531 1.988281 Z M 24.769531 1.988281 "/>
<path style=" stroke:none;fill-rule:nonzero;fill:rgb(100%,100%,100%);fill-opacity:0.4;" d="M 24.757812 1.988281 C 24.625 1.996094 24.519531 2.101562 24.519531 2.238281 L 24.519531 2.476562 C 24.527344 2.347656 24.628906 2.246094 24.757812 2.238281 C 24.761719 2.238281 24.765625 2.238281 24.769531 2.238281 C 24.902344 2.238281 25.011719 2.34375 25.019531 2.476562 L 25.019531 2.238281 C 25.019531 2.097656 24.90625 1.988281 24.769531 1.988281 C 24.765625 1.988281 24.761719 1.988281 24.757812 1.988281 Z M 24.757812 1.988281 "/>
<path style=" stroke:none;fill-rule:nonzero;fill:rgb(0%,0%,0%);fill-opacity:0.4;" d="M 24.519531 6 L 24.519531 6.238281 C 24.519531 6.375 24.632812 6.488281 24.769531 6.488281 C 24.90625 6.488281 25.019531 6.375 25.019531 6.238281 L 25.019531 6 C 25.011719 6.132812 24.902344 6.238281 24.769531 6.238281 C 24.636719 6.238281 24.527344 6.132812 24.519531 6 Z M 24.519531 6 "/>
<path style=" stroke:none;fill-rule:nonzero;fill:rgb(100%,100%,100%);fill-opacity:0.4;" d="M 24.75 6.988281 C 24.34375 6.976562 24.019531 6.644531 24.019531 6.238281 C 24.019531 6.195312 24.023438 6.152344 24.03125 6.113281 C 24.089844 6.46875 24.398438 6.738281 24.769531 6.738281 C 25.140625 6.738281 25.449219 6.46875 25.507812 6.113281 C 25.515625 6.152344 25.519531 6.195312 25.519531 6.238281 C 25.519531 6.652344 25.183594 6.988281 24.769531 6.988281 C 24.761719 6.988281 24.757812 6.988281 24.75 6.988281 Z M 24.75 6.988281 "/>
<path style=" stroke:none;fill-rule:nonzero;fill:rgb(0.392157%,0.392157%,0.392157%);fill-opacity:0.4;" d="M 14.730469 5.238281 C 14.324219 5.246094 14 5.578125 14 5.988281 C 14 6.03125 14.003906 6.070312 14.011719 6.113281 C 14.070312 5.757812 14.378906 5.488281 14.75 5.488281 C 15.121094 5.488281 15.429688 5.757812 15.488281 6.113281 C 15.496094 6.070312 15.5 6.03125 15.5 5.988281 C 15.5 5.570312 15.164062 5.238281 14.75 5.238281 C 14.742188 5.238281 14.738281 5.238281 14.730469 5.238281 Z M 14.730469 5.238281 "/>
<path style=" stroke:none;fill-rule:nonzero;fill:rgb(0.392157%,0.392157%,0.392157%);fill-opacity:0.4;" d="M 14.75 5.238281 C 15.164062 5.238281 15.5 5.574219 15.5 5.988281 C 15.5 6.402344 15.164062 6.738281 14.75 6.738281 C 14.335938 6.738281 14 6.402344 14 5.988281 C 14 5.574219 14.335938 5.238281 14.75 5.238281 Z M 14.75 5.238281 "/>
<path style=" stroke:none;fill-rule:nonzero;fill:rgb(74.117649%,74.117649%,74.117649%);fill-opacity:0.996078;" d="M 14.75 1.988281 C 14.886719 1.988281 15 2.097656 15 2.238281 L 15 5.988281 C 15 6.125 14.886719 6.238281 14.75 6.238281 C 14.613281 6.238281 14.5 6.125 14.5 5.988281 L 14.5 2.238281 C 14.5 2.097656 14.613281 1.988281 14.75 1.988281 Z M 14.75 1.988281 "/>
<path style=" stroke:none;fill-rule:nonzero;fill:rgb(100%,100%,100%);fill-opacity:0.4;" d="M 14.738281 1.988281 C 14.605469 1.996094 14.5 2.101562 14.5 2.238281 L 14.5 2.476562 C 14.507812 2.347656 14.609375 2.246094 14.738281 2.238281 C 14.742188 2.238281 14.746094 2.238281 14.75 2.238281 C 14.882812 2.238281 14.992188 2.34375 15 2.476562 L 15 2.238281 C 15 2.097656 14.886719 1.988281 14.75 1.988281 C 14.746094 1.988281 14.742188 1.988281 14.738281 1.988281 Z M 14.738281 1.988281 "/>
<path style=" stroke:none;fill-rule:nonzero;fill:rgb(0%,0%,0%);fill-opacity:0.4;" d="M 14.5 6 L 14.5 6.238281 C 14.5 6.375 14.613281 6.488281 14.75 6.488281 C 14.886719 6.488281 15 6.375 15 6.238281 L 15 6 C 14.992188 6.132812 14.882812 6.238281 14.75 6.238281 C 14.617188 6.238281 14.507812 6.132812 14.5 6 Z M 14.5 6 "/>
<path style=" stroke:none;fill-rule:nonzero;fill:rgb(100%,100%,100%);fill-opacity:0.4;" d="M 14.730469 6.988281 C 14.324219 6.976562 14 6.644531 14 6.238281 C 14 6.195312 14.003906 6.152344 14.011719 6.113281 C 14.070312 6.46875 14.378906 6.738281 14.75 6.738281 C 15.121094 6.738281 15.429688 6.46875 15.488281 6.113281 C 15.496094 6.152344 15.5 6.195312 15.5 6.238281 C 15.5 6.652344 15.164062 6.988281 14.75 6.988281 C 14.742188 6.988281 14.738281 6.988281 14.730469 6.988281 Z M 14.730469 6.988281 "/>
<path style=" stroke:none;fill-rule:nonzero;fill:rgb(0.392157%,0.392157%,0.392157%);fill-opacity:0.4;" d="M 17.230469 5.238281 C 16.824219 5.246094 16.5 5.578125 16.5 5.988281 C 16.5 6.03125 16.503906 6.070312 16.511719 6.113281 C 16.570312 5.757812 16.878906 5.488281 17.25 5.488281 C 17.621094 5.488281 17.929688 5.757812 17.988281 6.113281 C 17.996094 6.070312 18 6.03125 18 5.988281 C 18 5.570312 17.664062 5.238281 17.25 5.238281 C 17.242188 5.238281 17.238281 5.238281 17.230469 5.238281 Z M 17.230469 5.238281 "/>
<path style=" stroke:none;fill-rule:nonzero;fill:rgb(0.392157%,0.392157%,0.392157%);fill-opacity:0.4;" d="M 17.25 5.238281 C 17.664062 5.238281 18 5.574219 18 5.988281 C 18 6.402344 17.664062 6.738281 17.25 6.738281 C 16.835938 6.738281 16.5 6.402344 16.5 5.988281 C 16.5 5.574219 16.835938 5.238281 17.25 5.238281 Z M 17.25 5.238281 "/>
<path style=" stroke:none;fill-rule:nonzero;fill:rgb(74.117649%,74.117649%,74.117649%);fill-opacity:0.996078;" d="M 17.25 1.988281 C 17.386719 1.988281 17.5 2.097656 17.5 2.238281 L 17.5 5.988281 C 17.5 6.125 17.386719 6.238281 17.25 6.238281 C 17.113281 6.238281 17 6.125 17 5.988281 L 17 2.238281 C 17 2.097656 17.113281 1.988281 17.25 1.988281 Z M 17.25 1.988281 "/>
<path style=" stroke:none;fill-rule:nonzero;fill:rgb(100%,100%,100%);fill-opacity:0.4;" d="M 17.238281 1.988281 C 17.105469 1.996094 17 2.101562 17 2.238281 L 17 2.476562 C 17.007812 2.347656 17.109375 2.246094 17.238281 2.238281 C 17.242188 2.238281 17.246094 2.238281 17.25 2.238281 C 17.382812 2.238281 17.492188 2.34375 17.5 2.476562 L 17.5 2.238281 C 17.5 2.097656 17.386719 1.988281 17.25 1.988281 C 17.246094 1.988281 17.242188 1.988281 17.238281 1.988281 Z M 17.238281 1.988281 "/>
<path style=" stroke:none;fill-rule:nonzero;fill:rgb(0%,0%,0%);fill-opacity:0.4;" d="M 17 6 L 17 6.238281 C 17 6.375 17.113281 6.488281 17.25 6.488281 C 17.386719 6.488281 17.5 6.375 17.5 6.238281 L 17.5 6 C 17.492188 6.132812 17.382812 6.238281 17.25 6.238281 C 17.117188 6.238281 17.007812 6.132812 17 6 Z M 17 6 "/>
<path style=" stroke:none;fill-rule:nonzero;fill:rgb(100%,100%,100%);fill-opacity:0.4;" d="M 17.230469 6.988281 C 16.824219 6.976562 16.5 6.644531 16.5 6.238281 C 16.5 6.195312 16.503906 6.152344 16.511719 6.113281 C 16.570312 6.46875 16.878906 6.738281 17.25 6.738281 C 17.621094 6.738281 17.929688 6.46875 17.988281 6.113281 C 17.996094 6.152344 18 6.195312 18 6.238281 C 18 6.652344 17.664062 6.988281 17.25 6.988281 C 17.242188 6.988281 17.238281 6.988281 17.230469 6.988281 Z M 17.230469 6.988281 "/>
<path style=" stroke:none;fill-rule:nonzero;fill:url(#linear0);" d="M 6 3 L 26 3 C 27.105469 3 28 3.894531 28 5 L 28 28 C 28 29.105469 27.105469 30 26 30 L 6 30 C 4.894531 30 4 29.105469 4 28 L 4 5 C 4 3.894531 4.894531 3 6 3 Z M 6 3 "/>
</g>
</svg>
