
<svg xmlns="http://www.w3.org/2000/svg" xmlns:xlink="http://www.w3.org/1999/xlink" width="48" height="48" viewBox="0 0 48 48" version="1.1">
<defs>
<linearGradient id="linear0" gradientUnits="userSpaceOnUse" x1="8.466666" y1="-199.125" x2="8.466666" y2="-213.941666" gradientTransform="matrix(2.834646,0,0,2.834646,0,609.448851)">
<stop offset="0" style="stop-color:rgb(0%,0%,0%);stop-opacity:0.2;"/>
<stop offset="1" style="stop-color:rgb(100%,100%,100%);stop-opacity:0;"/>
</linearGradient>
</defs>
<g id="surface1">
<path style=" stroke:none;fill-rule:nonzero;fill:rgb(61.176473%,80.000001%,39.607844%);fill-opacity:1;" d="M 24 2.996094 C 35.601562 2.996094 45.003906 12.398438 45.003906 24 C 45.003906 35.597656 35.601562 45.003906 24 45.003906 C 12.398438 45.003906 2.996094 35.597656 2.996094 24 C 2.996094 12.398438 12.398438 2.996094 24 2.996094 Z M 24 2.996094 "/>
<path style=" stroke:none;fill-rule:nonzero;fill:rgb(0%,0%,0%);fill-opacity:0.2;" d="M 3.011719 24.5625 C 3.003906 24.75 3 24.9375 3 25.125 C 3 36.722656 12.402344 46.125 24 46.125 C 35.597656 46.125 45 36.722656 45 25.125 C 45 24.9375 44.996094 24.75 44.988281 24.5625 C 44.691406 35.898438 35.410156 44.996094 24 44.996094 C 12.589844 44.996094 3.308594 35.898438 3.011719 24.5625 Z M 3.011719 24.5625 "/>
<path style=" stroke:none;fill-rule:nonzero;fill:rgb(0%,0%,0%);fill-opacity:0.4;" d="M 24 6 C 14.027344 6 6 14.027344 6 24 C 6 24.132812 6 24.261719 6.003906 24.394531 C 6.210938 14.601562 14.160156 6.785156 24 6.785156 C 33.839844 6.785156 41.789062 14.601562 41.996094 24.394531 C 42 24.261719 42 24.132812 42 24 C 42 14.027344 33.972656 6 24 6 Z M 24 6 "/>
<path style=" stroke:none;fill-rule:nonzero;fill:rgb(100%,100%,100%);fill-opacity:0.8;" d="M 24 42.75 C 14.027344 42.75 6 34.722656 6 24.75 C 6 24.617188 6 24.488281 6.003906 24.359375 C 6.210938 34.148438 14.160156 41.964844 24 41.964844 C 33.839844 41.964844 41.789062 34.148438 41.996094 24.359375 C 42 24.488281 42 24.617188 42 24.75 C 42 34.722656 33.972656 42.75 24 42.75 Z M 24 42.75 "/>
<path style=" stroke:none;fill-rule:nonzero;fill:rgb(93.333334%,93.333334%,93.333334%);fill-opacity:1;" d="M 24 2.992188 C 12.363281 2.992188 2.996094 12.363281 2.996094 24 C 2.996094 35.636719 12.363281 45.003906 24 45.003906 C 35.636719 45.003906 45.003906 35.636719 45.003906 24 C 45.003906 12.363281 35.636719 2.992188 24 2.992188 Z M 24 6 C 33.972656 6 42 14.027344 42 24 C 42 33.972656 33.972656 42 24 42 C 14.027344 42 6 33.972656 6 24 C 6 14.027344 14.027344 6 24 6 Z M 24 6 "/>
<path style=" stroke:none;fill-rule:nonzero;fill:rgb(99.607843%,99.607843%,99.607843%);fill-opacity:0.8;" d="M 24 42.75 C 14.027344 42.75 6 34.722656 6 24.75 C 6 24.617188 6 24.488281 6.003906 24.359375 C 6.210938 34.148438 14.160156 41.964844 24 41.964844 C 33.839844 41.964844 41.789062 34.148438 41.996094 24.359375 C 42 24.488281 42 24.617188 42 24.75 C 42 34.722656 33.972656 42.75 24 42.75 Z M 24 42.75 "/>
<path style=" stroke:none;fill-rule:nonzero;fill:rgb(0%,0%,0%);fill-opacity:0.4;" d="M 3.011719 23.621094 C 3.007812 23.742188 3 23.867188 3 23.992188 C 3 35.589844 12.402344 44.992188 24 44.992188 C 35.597656 44.992188 45 35.589844 45 23.992188 C 45 23.867188 44.992188 23.742188 44.988281 23.621094 C 44.789062 35.042969 35.472656 44.246094 24 44.246094 C 12.527344 44.246094 3.210938 35.042969 3.011719 23.621094 Z M 3.011719 23.621094 "/>
<path style=" stroke:none;fill-rule:nonzero;fill:rgb(100%,100%,100%);fill-opacity:0.6;" d="M 24 3 C 12.402344 3 3 12.402344 3 24 C 3 24.125 3.003906 24.25 3.007812 24.375 C 3.207031 12.949219 12.527344 3.75 24 3.75 C 35.472656 3.75 44.792969 12.949219 44.996094 24.375 C 44.996094 24.25 45 24.125 45 24 C 45 12.402344 35.597656 3 24 3 Z M 24 3 "/>
<path style=" stroke:none;fill-rule:nonzero;fill:rgb(87.843138%,87.843138%,87.843138%);fill-opacity:0.996078;" d="M 24 10.5 C 20.261719 10.5 16.886719 12.003906 14.445312 14.445312 L 16.570312 16.570312 C 18.464844 14.671875 21.089844 13.5 24 13.5 C 29.816406 13.5 34.5 18.183594 34.5 24 L 31.5 24 L 36 28.5 L 40.5 24 L 37.5 24 C 37.5 16.519531 31.480469 10.5 24 10.5 Z M 12 19.5 L 7.5 24 L 10.5 24 C 10.5 31.480469 16.519531 37.5 24 37.5 C 27.738281 37.5 31.113281 35.996094 33.554688 33.554688 L 31.429688 31.429688 C 29.535156 33.328125 26.910156 34.5 24 34.5 C 18.183594 34.5 13.5 29.816406 13.5 24 L 16.5 24 Z M 12 19.5 "/>
<path style=" stroke:none;fill-rule:nonzero;fill:rgb(100%,100%,100%);fill-opacity:0.6;" d="M 24 10.5 C 20.261719 10.5 16.886719 12.003906 14.445312 14.445312 L 14.828125 14.828125 C 17.234375 12.605469 20.453125 11.25 24 11.25 C 31.480469 11.25 37.5 17.269531 37.5 24.75 L 39.75 24.75 L 40.5 24 L 37.5 24 C 37.5 16.519531 31.480469 10.5 24 10.5 Z M 12 19.5 L 7.5 24 L 8.25 24 L 12 20.25 L 15.75 24 L 16.5 24 Z M 31.5 24 L 32.25 24.75 L 34.5 24.75 C 34.5 24.496094 34.492188 24.246094 34.472656 24 Z M 13.5 24.75 C 13.5 30.566406 18.183594 35.25 24 35.25 C 26.910156 35.25 29.535156 34.078125 31.429688 32.179688 L 33.171875 33.921875 C 33.300781 33.800781 33.429688 33.679688 33.554688 33.554688 L 31.429688 31.429688 C 29.535156 33.328125 26.910156 34.5 24 34.5 C 18.433594 34.5 13.910156 30.214844 13.527344 24.75 Z M 13.5 24.75 "/>
<path style=" stroke:none;fill-rule:nonzero;fill:rgb(0%,0%,0%);fill-opacity:0.4;" d="M 24 13.5 C 21.089844 13.5 18.464844 14.671875 16.570312 16.570312 L 14.828125 14.828125 C 14.699219 14.949219 14.570312 15.070312 14.445312 15.195312 L 16.570312 17.320312 C 18.464844 15.421875 21.089844 14.25 24 14.25 C 29.566406 14.25 34.089844 18.535156 34.472656 24 L 34.5 24 C 34.5 18.183594 29.816406 13.5 24 13.5 Z M 8.25 24 L 7.5 24.75 L 10.5 24.75 C 10.5 32.230469 16.519531 38.25 24 38.25 C 27.738281 38.25 31.113281 36.746094 33.554688 34.304688 L 33.171875 33.921875 C 30.765625 36.144531 27.546875 37.5 24 37.5 C 16.519531 37.5 10.5 31.480469 10.5 24 Z M 13.5 24 C 13.5 24.253906 13.507812 24.503906 13.527344 24.75 L 16.5 24.75 L 15.75 24 Z M 31.5 24.75 L 36 29.25 L 40.5 24.75 L 39.75 24.75 L 36 28.5 L 32.25 24.75 Z M 31.5 24.75 "/>
<path style=" stroke:none;fill-rule:nonzero;fill:url(#linear0);" d="M 24 3 C 35.597656 3 45 12.402344 45 24 C 45 35.597656 35.597656 44.996094 24 44.996094 C 12.402344 44.996094 3 35.597656 3 24 C 3 12.402344 12.402344 3 24 3 Z M 24 3 "/>
</g>
</svg>
