
<svg xmlns="http://www.w3.org/2000/svg" xmlns:xlink="http://www.w3.org/1999/xlink" width="32" height="32" viewBox="0 0 32 32" version="1.1">
<defs>
<linearGradient id="linear0" gradientUnits="userSpaceOnUse" x1="32" y1="59.999996" x2="31.999998" y2="3.999999" gradientTransform="matrix(0.5,0,0,0.5,0,0)">
<stop offset="0" style="stop-color:rgb(0%,0%,0%);stop-opacity:0.2;"/>
<stop offset="1" style="stop-color:rgb(100%,100%,100%);stop-opacity:0;"/>
</linearGradient>
</defs>
<g id="surface1">
<path style=" stroke:none;fill-rule:nonzero;fill:rgb(47.058824%,56.470591%,61.176473%);fill-opacity:0.996078;" d="M 16 2 C 12.675781 2 10 4.675781 10 8 C 10 11.324219 12.675781 14 16 14 C 19.324219 14 22 11.324219 22 8 C 22 4.675781 19.324219 2 16 2 Z M 16 15 C 9.90625 15 5 16.785156 5 19 L 5 28 C 5 29.109375 5.890625 30 7 30 C 8.109375 30 9 29.109375 9 28 L 9 22 C 9 21.726562 9.214844 21.507812 9.488281 21.5 C 9.492188 21.5 9.496094 21.5 9.5 21.5 C 9.777344 21.5 10 21.722656 10 22 L 10 28 C 10 29.109375 10.890625 30 12 30 L 20 30 C 21.109375 30 22 29.109375 22 28 L 22 22 C 22 21.726562 22.214844 21.507812 22.488281 21.5 C 22.492188 21.5 22.496094 21.5 22.5 21.5 C 22.777344 21.5 23 21.722656 23 22 L 23 28 C 23 29.109375 23.890625 30 25 30 C 26.109375 30 27 29.109375 27 28 L 27 19 C 27 16.785156 22.09375 15 16 15 Z M 16 15 "/>
<path style=" stroke:none;fill-rule:nonzero;fill:rgb(100%,100%,100%);fill-opacity:0.4;" d="M 16 2 C 12.675781 2 10 4.675781 10 8 C 10 8.058594 10.007812 8.117188 10.007812 8.175781 C 10.175781 5.003906 12.785156 2.5 16 2.5 C 19.214844 2.5 21.824219 5.003906 21.992188 8.175781 C 21.992188 8.117188 22 8.058594 22 8 C 22 4.675781 19.324219 2 16 2 Z M 16 15 C 9.90625 15 5 16.785156 5 19 L 5 19.5 C 5 17.285156 9.90625 15.5 16 15.5 C 22.09375 15.5 27 17.285156 27 19.5 L 27 19 C 27 16.785156 22.09375 15 16 15 Z M 16 15 "/>
<path style=" stroke:none;fill-rule:nonzero;fill:rgb(0%,0%,0%);fill-opacity:0.4;" d="M 10.007812 7.742188 C 10.003906 7.824219 10 7.90625 10 7.992188 C 10 11.316406 12.675781 13.992188 16 13.992188 C 19.324219 13.992188 22 11.316406 22 7.992188 C 22 7.90625 21.996094 7.824219 21.996094 7.742188 C 21.863281 10.949219 19.238281 13.492188 16 13.492188 C 12.761719 13.492188 10.136719 10.949219 10.007812 7.742188 Z M 9.488281 20.992188 C 9.214844 21 9 21.21875 9 21.492188 L 9 21.992188 C 9 21.71875 9.214844 21.5 9.488281 21.492188 C 9.492188 21.492188 9.496094 21.492188 9.5 21.492188 C 9.777344 21.492188 10 21.714844 10 21.992188 L 10 21.492188 C 10 21.214844 9.777344 20.992188 9.5 20.992188 C 9.496094 20.992188 9.492188 20.992188 9.488281 20.992188 Z M 22.488281 20.992188 C 22.214844 21 22 21.21875 22 21.492188 L 22 21.992188 C 22 21.71875 22.214844 21.5 22.488281 21.492188 C 22.492188 21.492188 22.496094 21.492188 22.5 21.492188 C 22.777344 21.492188 23 21.714844 23 21.992188 L 23 21.492188 C 23 21.214844 22.777344 20.992188 22.5 20.992188 C 22.496094 20.992188 22.492188 20.992188 22.488281 20.992188 Z M 5 27.492188 L 5 27.992188 C 5 29.101562 5.890625 29.992188 7 29.992188 C 8.109375 29.992188 9 29.101562 9 27.992188 L 9 27.492188 C 9 28.601562 8.109375 29.492188 7 29.492188 C 5.890625 29.492188 5 28.601562 5 27.492188 Z M 10 27.492188 L 10 27.992188 C 10 29.101562 10.890625 29.992188 12 29.992188 L 20 29.992188 C 21.109375 29.992188 22 29.101562 22 27.992188 L 22 27.492188 C 22 28.601562 21.109375 29.492188 20 29.492188 L 12 29.492188 C 10.890625 29.492188 10 28.601562 10 27.492188 Z M 23 27.492188 L 23 27.992188 C 23 29.101562 23.890625 29.992188 25 29.992188 C 26.109375 29.992188 27 29.101562 27 27.992188 L 27 27.492188 C 27 28.601562 26.109375 29.492188 25 29.492188 C 23.890625 29.492188 23 28.601562 23 27.492188 Z M 23 27.492188 "/>
<path style=" stroke:none;fill-rule:nonzero;fill:rgb(0%,0%,0%);fill-opacity:0.2;" d="M 10.011719 8.375 C 10.003906 8.5 10 8.625 10 8.75 C 10 12.074219 12.675781 14.75 16 14.75 C 19.324219 14.75 22 12.074219 22 8.75 C 22 8.625 21.996094 8.5 21.988281 8.375 C 21.792969 11.523438 19.199219 14 16 14 C 12.800781 14 10.207031 11.523438 10.011719 8.375 Z M 9.488281 21.5 C 9.214844 21.507812 9 21.726562 9 22 L 9 22.75 C 9 22.476562 9.214844 22.257812 9.488281 22.25 C 9.492188 22.25 9.496094 22.25 9.5 22.25 C 9.777344 22.25 10 22.472656 10 22.75 L 10 22 C 10 21.722656 9.777344 21.5 9.5 21.5 C 9.496094 21.5 9.492188 21.5 9.488281 21.5 Z M 22.488281 21.5 C 22.214844 21.507812 22 21.726562 22 22 L 22 22.75 C 22 22.476562 22.214844 22.257812 22.488281 22.25 C 22.492188 22.25 22.496094 22.25 22.5 22.25 C 22.777344 22.25 23 22.472656 23 22.75 L 23 22 C 23 21.722656 22.777344 21.5 22.5 21.5 C 22.496094 21.5 22.492188 21.5 22.488281 21.5 Z M 5 28 L 5 28.75 C 5 29.859375 5.890625 30.75 7 30.75 C 8.109375 30.75 9 29.859375 9 28.75 L 9 28 C 9 29.109375 8.109375 30 7 30 C 5.890625 30 5 29.109375 5 28 Z M 10 28 L 10 28.75 C 10 29.859375 10.890625 30.75 12 30.75 L 20 30.75 C 21.109375 30.75 22 29.859375 22 28.75 L 22 28 C 22 29.109375 21.109375 30 20 30 L 12 30 C 10.890625 30 10 29.109375 10 28 Z M 23 28 L 23 28.75 C 23 29.859375 23.890625 30.75 25 30.75 C 26.109375 30.75 27 29.859375 27 28.75 L 27 28 C 27 29.109375 26.109375 30 25 30 C 23.890625 30 23 29.109375 23 28 Z M 23 28 "/>
<path style=" stroke:none;fill-rule:nonzero;fill:url(#linear0);" d="M 16 2 C 12.675781 2 10 4.675781 10 8 C 10 11.324219 12.675781 14 16 14 C 19.324219 14 22 11.324219 22 8 C 22 4.675781 19.324219 2 16 2 Z M 16 15 C 9.90625 15 5 16.785156 5 19 L 5 28 C 5 29.109375 5.890625 30 7 30 C 8.109375 30 9 29.109375 9 28 L 9 22 C 9 21.726562 9.214844 21.507812 9.488281 21.5 C 9.492188 21.5 9.496094 21.5 9.5 21.5 C 9.777344 21.5 10 21.722656 10 22 L 10 28 C 10 29.109375 10.890625 30 12 30 L 20 30 C 21.109375 30 22 29.109375 22 28 L 22 22 C 22 21.726562 22.214844 21.507812 22.488281 21.5 C 22.492188 21.5 22.496094 21.5 22.5 21.5 C 22.777344 21.5 23 21.722656 23 22 L 23 28 C 23 29.109375 23.890625 30 25 30 C 26.109375 30 27 29.109375 27 28 L 27 19 C 27 16.785156 22.09375 15 16 15 Z M 16 15 "/>
</g>
</svg>
