
<svg xmlns="http://www.w3.org/2000/svg" xmlns:xlink="http://www.w3.org/1999/xlink" width="32" height="32" viewBox="0 0 32 32" version="1.1">
<defs>
<linearGradient id="linear0" gradientUnits="userSpaceOnUse" x1="31.999998" y1="60" x2="31.999998" y2="4" gradientTransform="matrix(0.5,0,0,0.5,-0.00000136063,0)">
<stop offset="0" style="stop-color:rgb(0%,0%,0%);stop-opacity:0.2;"/>
<stop offset="1" style="stop-color:rgb(100%,100%,100%);stop-opacity:0;"/>
</linearGradient>
</defs>
<g id="surface1">
<path style=" stroke:none;fill-rule:nonzero;fill:rgb(38.039216%,38.039216%,38.039216%);fill-opacity:1;" d="M 20 2 L 6.5 2 C 5.667969 2 5 2.667969 5 3.5 L 5 28.5 C 5 29.332031 5.667969 30 6.5 30 L 25.5 30 C 26.332031 30 27 29.332031 27 28.5 L 27 9 Z M 20 2 "/>
<path style=" stroke:none;fill-rule:nonzero;fill:rgb(0%,0%,0%);fill-opacity:0.4;" d="M 20 7.5 L 20 8 C 20 8.832031 20.667969 9.5 21.5 9.5 L 27 9.5 L 26.5 9 L 21.5 9 C 20.667969 9 20 8.332031 20 7.5 Z M 20 7.5 "/>
<path style=" stroke:none;fill-rule:nonzero;fill:rgb(45.882353%,45.882353%,45.882353%);fill-opacity:0.996078;" d="M 27 9 L 20 2 L 20 7.5 C 20 8.332031 20.667969 9 21.5 9 Z M 27 9 "/>
<path style=" stroke:none;fill-rule:nonzero;fill:rgb(100%,100%,100%);fill-opacity:0.4;" d="M 6.5 2 C 5.667969 2 5 2.667969 5 3.5 L 5 4 C 5 3.167969 5.667969 2.5 6.5 2.5 L 20 2.5 L 27 9.5 L 27 9 L 20 2 Z M 6.5 2 "/>
<path style=" stroke:none;fill-rule:nonzero;fill:rgb(0%,0%,0%);fill-opacity:0.2;" d="M 5 28.492188 L 5 29.25 C 5 30.082031 5.667969 30.75 6.5 30.75 L 25.5 30.75 C 26.332031 30.75 27 30.082031 27 29.25 L 27 28.492188 C 27 29.324219 26.332031 29.992188 25.5 29.992188 L 6.5 29.992188 C 5.667969 29.992188 5 29.324219 5 28.492188 Z M 5 28.492188 "/>
<path style=" stroke:none;fill-rule:nonzero;fill:rgb(0%,0%,0%);fill-opacity:0.4;" d="M 5 28.0625 L 5 28.5 C 5 29.332031 5.667969 30 6.5 30 L 25.5 30 C 26.332031 30 27 29.332031 27 28.5 L 27 28.0625 C 27 28.894531 26.332031 29.5625 25.5 29.5625 L 6.5 29.5625 C 5.667969 29.5625 5 28.894531 5 28.0625 Z M 5 28.0625 "/>
<path style=" stroke:none;fill-rule:nonzero;fill:rgb(61.960787%,61.960787%,61.960787%);fill-opacity:1;" d="M 14.738281 12 C 14.605469 12.007812 14.5 12.117188 14.5 12.25 L 14.5 13 L 14 13 C 12.890625 13 12 13.890625 12 15 L 12 15.5 C 12 16.609375 12.890625 17.5 14 17.5 L 16 17.5 C 16.554688 17.5 17 17.945312 17 18.5 L 17 19 C 17 19.554688 16.554688 20 16 20 L 14 20 C 13.445312 20 13 19.554688 13 19 C 13 18.863281 12.886719 18.75 12.75 18.75 L 12.25 18.75 C 12.113281 18.75 12 18.863281 12 19 C 12 19.003906 12 19.011719 12 19.015625 C 12.007812 20.117188 12.898438 21 14 21 L 14.5 21 L 14.5 21.75 C 14.5 21.886719 14.613281 22 14.75 22 L 15.25 22 C 15.386719 22 15.5 21.886719 15.5 21.75 L 15.5 21 L 16 21 C 17.109375 21 18 20.109375 18 19 L 18 18.5 C 18 17.390625 17.109375 16.5 16 16.5 L 14 16.5 C 13.445312 16.5 13 16.054688 13 15.5 L 13 15 C 13 14.445312 13.445312 14 14 14 L 16 14 C 16.550781 14 16.992188 14.4375 17 14.988281 C 17 14.988281 17 14.992188 17 14.992188 C 17 14.996094 17 14.996094 17 15 C 17 15.136719 17.113281 15.25 17.25 15.25 L 17.75 15.25 C 17.886719 15.25 18 15.136719 18 15 C 18 13.890625 17.109375 13 16 13 L 15.5 13 L 15.5 12.25 C 15.5 12.113281 15.386719 12 15.25 12 L 14.75 12 C 14.746094 12 14.742188 12 14.738281 12 Z M 18.238281 21 C 18.105469 21.007812 18 21.117188 18 21.25 L 18 21.75 C 18 21.886719 18.113281 22 18.25 22 L 19.75 22 C 19.886719 22 20 21.886719 20 21.75 L 20 21.25 C 20 21.113281 19.886719 21 19.75 21 L 18.25 21 C 18.246094 21 18.242188 21 18.238281 21 Z M 18.238281 21 "/>
<path style=" stroke:none;fill-rule:nonzero;fill:rgb(99.215686%,99.215686%,99.215686%);fill-opacity:0.4;" d="M 14.738281 12 C 14.605469 12.007812 14.5 12.117188 14.5 12.25 L 14.5 12.5 C 14.5 12.367188 14.605469 12.257812 14.738281 12.25 C 14.742188 12.25 14.746094 12.25 14.75 12.25 L 15.25 12.25 C 15.386719 12.25 15.5 12.363281 15.5 12.5 L 15.5 12.25 C 15.5 12.113281 15.386719 12 15.25 12 L 14.75 12 C 14.746094 12 14.742188 12 14.738281 12 Z M 14 13 C 12.890625 13 12 13.890625 12 15 L 12 15.25 C 12 14.140625 12.890625 13.25 14 13.25 L 14.5 13.25 L 14.5 13 Z M 15.5 13 L 15.5 13.25 L 16 13.25 C 17.046875 13.25 17.898438 14.042969 17.992188 15.066406 C 17.996094 15.042969 18 15.023438 18 15 C 18 13.890625 17.109375 13 16 13 Z M 13 15.5 L 13 15.75 C 13 16.304688 13.445312 16.75 14 16.75 L 16 16.75 C 17.109375 16.75 18 17.640625 18 18.75 L 18 18.5 C 18 17.390625 17.109375 16.5 16 16.5 L 14 16.5 C 13.445312 16.5 13 16.054688 13 15.5 Z M 12.25 18.75 C 12.113281 18.75 12 18.863281 12 19 C 12 19.003906 12 19.007812 12 19.015625 C 12 19.070312 12.003906 19.125 12.011719 19.179688 C 12.039062 19.078125 12.136719 19 12.25 19 L 12.75 19 C 12.886719 19 13 19.113281 13 19.25 C 13 19.804688 13.445312 20.25 14 20.25 L 16 20.25 C 16.554688 20.25 17 19.804688 17 19.25 L 17 19 C 17 19.554688 16.554688 20 16 20 L 14 20 C 13.445312 20 13 19.554688 13 19 C 13 18.863281 12.886719 18.75 12.75 18.75 Z M 18.238281 21 C 18.105469 21.007812 18 21.117188 18 21.25 L 18 21.5 C 18 21.367188 18.105469 21.257812 18.238281 21.25 C 18.242188 21.25 18.246094 21.25 18.25 21.25 L 19.75 21.25 C 19.886719 21.25 20 21.363281 20 21.5 L 20 21.25 C 20 21.113281 19.886719 21 19.75 21 L 18.25 21 C 18.246094 21 18.242188 21 18.238281 21 Z M 18.238281 21 "/>
<path style=" stroke:none;fill-rule:nonzero;fill:rgb(1.960784%,1.960784%,1.960784%);fill-opacity:0.4;" d="M 14 14 C 13.445312 14 13 14.445312 13 15 L 13 15.25 C 13 14.695312 13.445312 14.25 14 14.25 L 16 14.25 C 16.550781 14.25 16.992188 14.6875 17 15.238281 C 17 15.238281 17 15.242188 17 15.242188 C 17 15.246094 17 15.246094 17 15.25 C 17 15.390625 17.113281 15.5 17.25 15.5 L 17.75 15.5 C 17.886719 15.5 18 15.390625 18 15.25 C 18 15.1875 17.996094 15.128906 17.992188 15.066406 C 17.960938 15.171875 17.863281 15.25 17.75 15.25 L 17.25 15.25 C 17.113281 15.25 17 15.140625 17 15 C 17 14.996094 17 14.996094 17 14.992188 C 17 14.992188 17 14.988281 17 14.988281 C 16.992188 14.4375 16.550781 14 16 14 Z M 12 15.5 L 12 15.75 C 12 16.859375 12.890625 17.75 14 17.75 L 16 17.75 C 16.554688 17.75 17 18.195312 17 18.75 L 17 18.5 C 17 17.945312 16.554688 17.5 16 17.5 L 14 17.5 C 12.890625 17.5 12 16.609375 12 15.5 Z M 18 19 C 18 20.109375 17.109375 21 16 21 L 15.5 21 L 15.5 21.25 L 16 21.25 C 17.109375 21.25 18 20.359375 18 19.25 Z M 12.007812 19.183594 C 12.003906 19.203125 12 19.226562 12 19.25 C 12 19.253906 12 19.257812 12 19.265625 C 12.007812 20.367188 12.898438 21.25 14 21.25 L 14.5 21.25 L 14.5 21 L 14 21 C 12.953125 21 12.101562 20.207031 12.007812 19.183594 Z M 14.5 21.75 L 14.5 22 C 14.5 22.136719 14.613281 22.25 14.75 22.25 L 15.25 22.25 C 15.386719 22.25 15.5 22.136719 15.5 22 L 15.5 21.75 C 15.5 21.886719 15.386719 22 15.25 22 L 14.75 22 C 14.613281 22 14.5 21.886719 14.5 21.75 Z M 18 21.75 L 18 22 C 18 22.136719 18.113281 22.25 18.25 22.25 L 19.75 22.25 C 19.886719 22.25 20 22.136719 20 22 L 20 21.75 C 20 21.886719 19.886719 22 19.75 22 L 18.25 22 C 18.113281 22 18 21.886719 18 21.75 Z M 18 21.75 "/>
<path style=" stroke:none;fill-rule:nonzero;fill:url(#linear0);" d="M 20 2 L 6.5 2 C 5.667969 2 5 2.667969 5 3.5 L 5 28.5 C 5 29.332031 5.667969 30 6.5 30 L 25.5 30 C 26.332031 30 27 29.332031 27 28.5 L 27 9 Z M 20 2 "/>
</g>
</svg>
