
<svg xmlns="http://www.w3.org/2000/svg" xmlns:xlink="http://www.w3.org/1999/xlink" width="48" height="48" viewBox="0 0 48 48" version="1.1">
<defs>
<linearGradient id="linear0" gradientUnits="userSpaceOnUse" x1="8.466666" y1="-199.125" x2="8.466666" y2="-213.412506" gradientTransform="matrix(2.834646,0,0,2.834646,-0.00000306142,609.448851)">
<stop offset="0" style="stop-color:rgb(0%,0%,0%);stop-opacity:0.2;"/>
<stop offset="1" style="stop-color:rgb(100%,100%,100%);stop-opacity:0;"/>
</linearGradient>
</defs>
<g id="surface1">
<path style=" stroke:none;fill-rule:nonzero;fill:rgb(0%,0%,0%);fill-opacity:0.2;" d="M 45 39 C 45 40.660156 43.660156 42 42 42 L 42.964844 42.964844 C 44.148438 42.566406 45 41.449219 45 40.125 Z M 3 42.871094 L 3 43.996094 C 3 45.171875 3.953125 46.125 5.125 46.125 L 42.871094 46.125 C 43.214844 46.121094 43.519531 45.925781 43.664062 45.617188 C 43.808594 45.308594 43.761719 44.945312 43.546875 44.683594 C 43.378906 44.882812 43.132812 45 42.871094 45 L 5.125 45 C 3.953125 45 3 44.046875 3 42.871094 Z M 3 42.871094 "/>
<path style=" stroke:none;fill-rule:nonzero;fill:rgb(25.882354%,64.705884%,96.078432%);fill-opacity:1;" d="M 6 6 L 42 6 C 43.65625 6 45 7.34375 45 9 L 45 39 C 45 40.65625 43.65625 42 42 42 L 6 42 C 4.34375 42 3 40.65625 3 39 L 3 9 C 3 7.34375 4.34375 6 6 6 Z M 6 6 "/>
<path style=" stroke:none;fill-rule:nonzero;fill:rgb(87.843138%,87.843138%,87.843138%);fill-opacity:1;" d="M 11.25 15 C 10.835938 15 10.5 15.335938 10.5 15.75 L 10.5 36.75 C 10.5 37.164062 10.835938 37.5 11.25 37.5 L 38.25 37.5 C 38.664062 37.5 39 37.164062 39 36.75 L 39 15.75 C 39 15.335938 38.664062 15 38.25 15 Z M 11.625 15.75 L 37.875 15.75 C 38.082031 15.75 38.25 15.917969 38.25 16.125 L 38.25 20.625 L 11.25 20.625 L 11.25 16.125 C 11.25 15.917969 11.417969 15.75 11.625 15.75 Z M 11.25 21.375 L 38.25 21.375 L 38.25 36.375 C 38.25 36.582031 38.082031 36.75 37.875 36.75 L 11.625 36.75 C 11.417969 36.75 11.25 36.582031 11.25 36.375 Z M 13.5 24 L 13.5 28.5 L 18 28.5 L 18 24 Z M 19.5 25.5 L 19.5 27 L 34.5 27 L 34.5 25.5 Z M 13.5 30 L 13.5 34.5 L 18 34.5 L 18 30 Z M 19.5 31.5 L 19.5 33 L 34.5 33 L 34.5 31.5 Z M 19.5 31.5 "/>
<path style=" stroke:none;fill-rule:nonzero;fill:rgb(38.039216%,38.039216%,38.039216%);fill-opacity:1;" d="M 6 6 C 4.339844 6 3 7.339844 3 9 L 3 13.5 L 45 13.5 L 45 9 C 45 7.339844 43.664062 6 42 6 Z M 6 6 "/>
<path style=" stroke:none;fill-rule:nonzero;fill:rgb(100%,100%,100%);fill-opacity:0.4;" d="M 6 6 C 4.339844 6 3 7.339844 3 9 L 3 9.75 C 3 8.089844 4.339844 6.75 6 6.75 L 42 6.75 C 43.664062 6.75 45 8.089844 45 9.75 L 45 9 C 45 7.339844 43.664062 6 42 6 Z M 6 6 "/>
<path style=" stroke:none;fill-rule:nonzero;fill:rgb(0%,0%,0%);fill-opacity:0.4;" d="M 3 13.5 L 45 13.5 L 45 14.25 L 3 14.25 Z M 3 13.5 "/>
<path style=" stroke:none;fill-rule:nonzero;fill:rgb(0%,0%,0%);fill-opacity:0.4;" d="M 3 38.253906 L 3 39 C 3 40.660156 4.339844 42 6 42 L 42 42 C 43.660156 42 45 40.660156 45 39 L 45 38.253906 C 45 39.914062 43.660156 41.253906 42 41.253906 L 6 41.253906 C 4.339844 41.253906 3 39.914062 3 38.253906 Z M 3 38.253906 "/>
<path style=" stroke:none;fill-rule:nonzero;fill:rgb(95.686275%,26.274511%,21.176471%);fill-opacity:1;" d="M 42 8.25 C 42.828125 8.25 43.5 8.921875 43.5 9.75 C 43.5 10.578125 42.828125 11.25 42 11.25 C 41.171875 11.25 40.5 10.578125 40.5 9.75 C 40.5 8.921875 41.171875 8.25 42 8.25 Z M 42 8.25 "/>
<path style=" stroke:none;fill-rule:nonzero;fill:rgb(93.333334%,93.333334%,93.333334%);fill-opacity:1;" d="M 37.5 8.25 C 38.328125 8.25 39 8.921875 39 9.75 C 39 10.578125 38.328125 11.25 37.5 11.25 C 36.671875 11.25 36 10.578125 36 9.75 C 36 8.921875 36.671875 8.25 37.5 8.25 Z M 37.5 8.25 "/>
<path style=" stroke:none;fill-rule:nonzero;fill:rgb(40.000001%,73.333335%,41.568628%);fill-opacity:0.988235;" d="M 33 8.25 C 33.828125 8.25 34.5 8.921875 34.5 9.75 C 34.5 10.578125 33.828125 11.25 33 11.25 C 32.171875 11.25 31.5 10.578125 31.5 9.75 C 31.5 8.921875 32.171875 8.25 33 8.25 Z M 33 8.25 "/>
<path style=" stroke:none;fill-rule:nonzero;fill:rgb(93.333334%,93.333334%,93.333334%);fill-opacity:0.988235;" d="M 33 8.25 C 33.828125 8.25 34.5 8.921875 34.5 9.75 C 34.5 10.578125 33.828125 11.25 33 11.25 C 32.171875 11.25 31.5 10.578125 31.5 9.75 C 31.5 8.921875 32.171875 8.25 33 8.25 Z M 33 8.25 "/>
<path style=" stroke:none;fill-rule:nonzero;fill:rgb(100%,100%,100%);fill-opacity:0.4;" d="M 31.511719 9.933594 C 31.503906 9.996094 31.5 10.058594 31.5 10.125 C 31.5 10.953125 32.167969 11.625 33 11.625 C 33.832031 11.625 34.5 10.953125 34.5 10.125 C 34.5 10.058594 34.496094 9.996094 34.488281 9.933594 C 34.398438 10.675781 33.769531 11.25 33 11.25 C 32.230469 11.25 31.601562 10.675781 31.511719 9.933594 Z M 36.011719 9.933594 C 36.003906 9.996094 36 10.058594 36 10.125 C 36 10.953125 36.667969 11.625 37.5 11.625 C 38.332031 11.625 39 10.953125 39 10.125 C 39 10.058594 38.996094 9.996094 38.988281 9.933594 C 38.898438 10.675781 38.269531 11.25 37.5 11.25 C 36.730469 11.25 36.101562 10.675781 36.011719 9.933594 Z M 40.511719 9.933594 C 40.503906 9.996094 40.5 10.058594 40.5 10.125 C 40.5 10.953125 41.167969 11.625 42 11.625 C 42.832031 11.625 43.5 10.953125 43.5 10.125 C 43.5 10.058594 43.496094 9.996094 43.488281 9.933594 C 43.398438 10.675781 42.769531 11.25 42 11.25 C 41.230469 11.25 40.601562 10.675781 40.511719 9.933594 Z M 40.511719 9.933594 "/>
<path style=" stroke:none;fill-rule:nonzero;fill:rgb(0%,0%,0%);fill-opacity:0.4;" d="M 33 8.25 C 32.167969 8.25 31.5 8.921875 31.5 9.75 C 31.5 9.816406 31.503906 9.878906 31.511719 9.941406 C 31.601562 9.199219 32.230469 8.625 33 8.625 C 33.769531 8.625 34.398438 9.199219 34.488281 9.941406 C 34.496094 9.878906 34.5 9.816406 34.5 9.75 C 34.5 8.921875 33.832031 8.25 33 8.25 Z M 37.5 8.25 C 36.667969 8.25 36 8.921875 36 9.75 C 36 9.816406 36.003906 9.878906 36.011719 9.941406 C 36.101562 9.199219 36.730469 8.625 37.5 8.625 C 38.269531 8.625 38.898438 9.199219 38.988281 9.941406 C 38.996094 9.878906 39 9.816406 39 9.75 C 39 8.921875 38.332031 8.25 37.5 8.25 Z M 42 8.25 C 41.167969 8.25 40.5 8.921875 40.5 9.75 C 40.5 9.816406 40.503906 9.878906 40.511719 9.941406 C 40.601562 9.199219 41.230469 8.625 42 8.625 C 42.769531 8.625 43.398438 9.199219 43.488281 9.941406 C 43.496094 9.878906 43.5 9.816406 43.5 9.75 C 43.5 8.921875 42.832031 8.25 42 8.25 Z M 42 8.25 "/>
<path style=" stroke:none;fill-rule:nonzero;fill:rgb(38.039216%,38.039216%,38.039216%);fill-opacity:0.996078;" d="M 8.605469 42.75 C 8.40625 42.761719 8.25 42.921875 8.25 43.125 L 8.25 45 L 9 45 L 9 43.125 C 9 42.917969 8.832031 42.75 8.625 42.75 C 8.617188 42.75 8.613281 42.75 8.605469 42.75 Z M 8.605469 42.75 "/>
<path style=" stroke:none;fill-rule:nonzero;fill:rgb(38.039216%,38.039216%,38.039216%);fill-opacity:0.996078;" d="M 10.105469 42.75 C 9.90625 42.761719 9.75 42.921875 9.75 43.125 L 9.75 45 L 10.5 45 L 10.5 43.125 C 10.5 42.917969 10.332031 42.75 10.125 42.75 C 10.117188 42.75 10.113281 42.75 10.105469 42.75 Z M 10.105469 42.75 "/>
<path style=" stroke:none;fill-rule:nonzero;fill:rgb(38.039216%,38.039216%,38.039216%);fill-opacity:0.996078;" d="M 7.105469 42.75 C 6.90625 42.761719 6.75 42.921875 6.75 43.125 L 6.75 45 L 7.5 45 L 7.5 43.125 C 7.5 42.917969 7.332031 42.75 7.125 42.75 C 7.117188 42.75 7.113281 42.75 7.105469 42.75 Z M 7.105469 42.75 "/>
<path style=" stroke:none;fill-rule:nonzero;fill:rgb(38.039216%,38.039216%,38.039216%);fill-opacity:0.996078;" d="M 11.605469 42.75 C 11.40625 42.761719 11.25 42.921875 11.25 43.125 L 11.25 45 L 12 45 L 12 43.125 C 12 42.917969 11.832031 42.75 11.625 42.75 C 11.617188 42.75 11.613281 42.75 11.605469 42.75 Z M 11.605469 42.75 "/>
<path style=" stroke:none;fill-rule:nonzero;fill:rgb(100%,79.215688%,15.686275%);fill-opacity:1;" d="M 3 5.128906 L 3 42.871094 C 3 44.046875 3.953125 45 5.128906 45 L 42.871094 45 C 43.230469 45 43.550781 44.785156 43.6875 44.457031 C 43.824219 44.125 43.746094 43.746094 43.496094 43.496094 L 4.503906 4.503906 C 4.253906 4.253906 3.875 4.175781 3.542969 4.3125 C 3.214844 4.449219 3 4.769531 3 5.128906 Z M 10.503906 18.753906 L 29.246094 37.496094 C 29.496094 37.746094 29.574219 38.125 29.4375 38.457031 C 29.300781 38.785156 28.980469 39 28.621094 39 L 11.128906 39 C 9.953125 39 9 38.046875 9 36.871094 L 9 19.378906 C 9 19.019531 9.214844 18.699219 9.542969 18.5625 C 9.875 18.425781 10.253906 18.503906 10.503906 18.753906 Z M 10.503906 18.753906 "/>
<path style=" stroke:none;fill-rule:nonzero;fill:rgb(38.039216%,38.039216%,38.039216%);fill-opacity:0.996078;" d="M 20.605469 40.875 C 20.40625 40.886719 20.25 41.046875 20.25 41.25 L 20.25 45 L 21 45 L 21 41.25 C 21 41.042969 20.832031 40.875 20.625 40.875 C 20.617188 40.875 20.613281 40.875 20.605469 40.875 Z M 20.605469 40.875 "/>
<path style=" stroke:none;fill-rule:nonzero;fill:rgb(38.039216%,38.039216%,38.039216%);fill-opacity:0.996078;" d="M 28.125 40.875 C 27.925781 40.886719 27.769531 41.046875 27.769531 41.25 L 27.769531 45 L 28.519531 45 L 28.519531 41.25 C 28.519531 41.042969 28.351562 40.875 28.144531 40.875 C 28.136719 40.875 28.132812 40.875 28.125 40.875 Z M 28.125 40.875 "/>
<path style=" stroke:none;fill-rule:nonzero;fill:rgb(38.039216%,38.039216%,38.039216%);fill-opacity:0.996078;" d="M 35.625 40.875 C 35.425781 40.886719 35.269531 41.046875 35.269531 41.25 L 35.269531 45 L 36.019531 45 L 36.019531 41.25 C 36.019531 41.042969 35.851562 40.875 35.644531 40.875 C 35.636719 40.875 35.632812 40.875 35.625 40.875 Z M 35.625 40.875 "/>
<path style=" stroke:none;fill-rule:nonzero;fill:rgb(38.039216%,38.039216%,38.039216%);fill-opacity:0.996078;" d="M 29.605469 42.75 C 29.40625 42.761719 29.25 42.921875 29.25 43.125 L 29.25 45 L 30 45 L 30 43.125 C 30 42.917969 29.832031 42.75 29.625 42.75 C 29.617188 42.75 29.613281 42.75 29.605469 42.75 Z M 29.605469 42.75 "/>
<path style=" stroke:none;fill-rule:nonzero;fill:rgb(38.039216%,38.039216%,38.039216%);fill-opacity:0.996078;" d="M 34.125 42.75 C 33.925781 42.761719 33.769531 42.921875 33.769531 43.125 L 33.769531 45 L 34.519531 45 L 34.519531 43.125 C 34.519531 42.917969 34.351562 42.75 34.144531 42.75 C 34.136719 42.75 34.132812 42.75 34.125 42.75 Z M 34.125 42.75 "/>
<path style=" stroke:none;fill-rule:nonzero;fill:rgb(38.039216%,38.039216%,38.039216%);fill-opacity:0.996078;" d="M 8.605469 42.75 C 8.40625 42.761719 8.25 42.921875 8.25 43.125 L 8.25 45 L 9 45 L 9 43.125 C 9 42.917969 8.832031 42.75 8.625 42.75 C 8.617188 42.75 8.613281 42.75 8.605469 42.75 Z M 8.605469 42.75 "/>
<path style=" stroke:none;fill-rule:nonzero;fill:rgb(38.039216%,38.039216%,38.039216%);fill-opacity:0.996078;" d="M 10.105469 42.75 C 9.90625 42.761719 9.75 42.921875 9.75 43.125 L 9.75 45 L 10.5 45 L 10.5 43.125 C 10.5 42.917969 10.332031 42.75 10.125 42.75 C 10.117188 42.75 10.113281 42.75 10.105469 42.75 Z M 10.105469 42.75 "/>
<path style=" stroke:none;fill-rule:nonzero;fill:rgb(38.039216%,38.039216%,38.039216%);fill-opacity:0.996078;" d="M 7.105469 42.75 C 6.90625 42.761719 6.75 42.921875 6.75 43.125 L 6.75 45 L 7.5 45 L 7.5 43.125 C 7.5 42.917969 7.332031 42.75 7.125 42.75 C 7.117188 42.75 7.113281 42.75 7.105469 42.75 Z M 7.105469 42.75 "/>
<path style=" stroke:none;fill-rule:nonzero;fill:rgb(38.039216%,38.039216%,38.039216%);fill-opacity:0.996078;" d="M 11.605469 42.75 C 11.40625 42.761719 11.25 42.921875 11.25 43.125 L 11.25 45 L 12 45 L 12 43.125 C 12 42.917969 11.832031 42.75 11.625 42.75 C 11.617188 42.75 11.613281 42.75 11.605469 42.75 Z M 11.605469 42.75 "/>
<path style=" stroke:none;fill-rule:nonzero;fill:rgb(38.039216%,38.039216%,38.039216%);fill-opacity:0.996078;" d="M 16.125 42.75 C 15.925781 42.761719 15.769531 42.921875 15.769531 43.125 L 15.769531 45 L 16.519531 45 L 16.519531 43.125 C 16.519531 42.917969 16.351562 42.75 16.144531 42.75 C 16.136719 42.75 16.132812 42.75 16.125 42.75 Z M 16.125 42.75 "/>
<path style=" stroke:none;fill-rule:nonzero;fill:rgb(38.039216%,38.039216%,38.039216%);fill-opacity:0.996078;" d="M 17.625 42.75 C 17.425781 42.761719 17.269531 42.921875 17.269531 43.125 L 17.269531 45 L 18.019531 45 L 18.019531 43.125 C 18.019531 42.917969 17.851562 42.75 17.644531 42.75 C 17.636719 42.75 17.632812 42.75 17.625 42.75 Z M 17.625 42.75 "/>
<path style=" stroke:none;fill-rule:nonzero;fill:rgb(38.039216%,38.039216%,38.039216%);fill-opacity:0.996078;" d="M 14.625 42.75 C 14.425781 42.761719 14.269531 42.921875 14.269531 43.125 L 14.269531 45 L 15.019531 45 L 15.019531 43.125 C 15.019531 42.917969 14.851562 42.75 14.644531 42.75 C 14.636719 42.75 14.632812 42.75 14.625 42.75 Z M 14.625 42.75 "/>
<path style=" stroke:none;fill-rule:nonzero;fill:rgb(38.039216%,38.039216%,38.039216%);fill-opacity:0.996078;" d="M 19.125 42.75 C 18.925781 42.761719 18.769531 42.921875 18.769531 43.125 L 18.769531 45 L 19.519531 45 L 19.519531 43.125 C 19.519531 42.917969 19.351562 42.75 19.144531 42.75 C 19.136719 42.75 19.132812 42.75 19.125 42.75 Z M 19.125 42.75 "/>
<path style=" stroke:none;fill-rule:nonzero;fill:rgb(38.039216%,38.039216%,38.039216%);fill-opacity:0.996078;" d="M 23.625 42.75 C 23.425781 42.761719 23.269531 42.921875 23.269531 43.125 L 23.269531 45 L 24.019531 45 L 24.019531 43.125 C 24.019531 42.917969 23.851562 42.75 23.644531 42.75 C 23.636719 42.75 23.632812 42.75 23.625 42.75 Z M 23.625 42.75 "/>
<path style=" stroke:none;fill-rule:nonzero;fill:rgb(38.039216%,38.039216%,38.039216%);fill-opacity:0.996078;" d="M 25.125 42.75 C 24.925781 42.761719 24.769531 42.921875 24.769531 43.125 L 24.769531 45 L 25.519531 45 L 25.519531 43.125 C 25.519531 42.917969 25.351562 42.75 25.144531 42.75 C 25.136719 42.75 25.132812 42.75 25.125 42.75 Z M 25.125 42.75 "/>
<path style=" stroke:none;fill-rule:nonzero;fill:rgb(38.039216%,38.039216%,38.039216%);fill-opacity:0.996078;" d="M 22.125 42.75 C 21.925781 42.761719 21.769531 42.921875 21.769531 43.125 L 21.769531 45 L 22.519531 45 L 22.519531 43.125 C 22.519531 42.917969 22.351562 42.75 22.144531 42.75 C 22.136719 42.75 22.132812 42.75 22.125 42.75 Z M 22.125 42.75 "/>
<path style=" stroke:none;fill-rule:nonzero;fill:rgb(38.039216%,38.039216%,38.039216%);fill-opacity:0.996078;" d="M 26.625 42.75 C 26.425781 42.761719 26.269531 42.921875 26.269531 43.125 L 26.269531 45 L 27.019531 45 L 27.019531 43.125 C 27.019531 42.917969 26.851562 42.75 26.644531 42.75 C 26.636719 42.75 26.632812 42.75 26.625 42.75 Z M 26.625 42.75 "/>
<path style=" stroke:none;fill-rule:nonzero;fill:rgb(38.039216%,38.039216%,38.039216%);fill-opacity:0.996078;" d="M 31.125 42.75 C 30.925781 42.761719 30.769531 42.921875 30.769531 43.125 L 30.769531 45 L 31.519531 45 L 31.519531 43.125 C 31.519531 42.917969 31.351562 42.75 31.144531 42.75 C 31.136719 42.75 31.132812 42.75 31.125 42.75 Z M 31.125 42.75 "/>
<path style=" stroke:none;fill-rule:nonzero;fill:rgb(38.039216%,38.039216%,38.039216%);fill-opacity:0.996078;" d="M 32.625 42.75 C 32.425781 42.761719 32.269531 42.921875 32.269531 43.125 L 32.269531 45 L 33.019531 45 L 33.019531 43.125 C 33.019531 42.917969 32.851562 42.75 32.644531 42.75 C 32.636719 42.75 32.632812 42.75 32.625 42.75 Z M 32.625 42.75 "/>
<path style=" stroke:none;fill-rule:nonzero;fill:rgb(38.039216%,38.039216%,38.039216%);fill-opacity:0.996078;" d="M 37.125 42.75 C 36.925781 42.761719 36.769531 42.921875 36.769531 43.125 L 36.769531 45 L 37.519531 45 L 37.519531 43.125 C 37.519531 42.917969 37.351562 42.75 37.144531 42.75 C 37.136719 42.75 37.132812 42.75 37.125 42.75 Z M 37.125 42.75 "/>
<path style=" stroke:none;fill-rule:nonzero;fill:rgb(38.039216%,38.039216%,38.039216%);fill-opacity:0.996078;" d="M 41.644531 42.75 C 41.445312 42.761719 41.289062 42.921875 41.289062 43.125 L 41.289062 45 L 42.039062 45 L 42.039062 43.125 C 42.039062 42.917969 41.871094 42.75 41.664062 42.75 C 41.65625 42.75 41.648438 42.75 41.644531 42.75 Z M 41.644531 42.75 "/>
<path style=" stroke:none;fill-rule:nonzero;fill:rgb(38.039216%,38.039216%,38.039216%);fill-opacity:0.996078;" d="M 38.644531 42.75 C 38.445312 42.761719 38.289062 42.921875 38.289062 43.125 L 38.289062 45 L 39.039062 45 L 39.039062 43.125 C 39.039062 42.917969 38.871094 42.75 38.664062 42.75 C 38.65625 42.75 38.648438 42.75 38.644531 42.75 Z M 38.644531 42.75 "/>
<path style=" stroke:none;fill-rule:nonzero;fill:rgb(38.039216%,38.039216%,38.039216%);fill-opacity:0.996078;" d="M 40.144531 42.75 C 39.945312 42.761719 39.789062 42.921875 39.789062 43.125 L 39.789062 45 L 40.539062 45 L 40.539062 43.125 C 40.539062 42.917969 40.371094 42.75 40.164062 42.75 C 40.15625 42.75 40.148438 42.75 40.144531 42.75 Z M 40.144531 42.75 "/>
<path style=" stroke:none;fill-rule:nonzero;fill:rgb(38.039216%,38.039216%,38.039216%);fill-opacity:0.996078;" d="M 5.605469 40.875 C 5.40625 40.886719 5.25 41.046875 5.25 41.25 L 5.25 45 L 6 45 L 6 41.25 C 6 41.042969 5.832031 40.875 5.625 40.875 C 5.617188 40.875 5.613281 40.875 5.605469 40.875 Z M 5.605469 40.875 "/>
<path style=" stroke:none;fill-rule:nonzero;fill:rgb(38.039216%,38.039216%,38.039216%);fill-opacity:0.996078;" d="M 13.105469 40.875 C 12.90625 40.886719 12.75 41.046875 12.75 41.25 L 12.75 45 L 13.5 45 L 13.5 41.25 C 13.5 41.042969 13.332031 40.875 13.125 40.875 C 13.117188 40.875 13.113281 40.875 13.105469 40.875 Z M 13.105469 40.875 "/>
<path style=" stroke:none;fill-rule:nonzero;fill:rgb(0%,0%,0%);fill-opacity:0.4;" d="M 10.054688 17.777344 C 9.792969 17.722656 9.527344 17.792969 9.320312 17.957031 C 9.117188 18.125 9 18.375 9 18.640625 L 9 19.378906 C 9 19.019531 9.214844 18.699219 9.542969 18.5625 C 9.875 18.425781 10.253906 18.503906 10.503906 18.753906 L 29.246094 37.496094 C 29.316406 37.570312 29.375 37.65625 29.417969 37.75 C 29.570312 37.414062 29.503906 37.019531 29.246094 36.757812 L 10.503906 18.015625 C 10.382812 17.894531 10.222656 17.808594 10.054688 17.777344 Z M 3 42.136719 L 3 42.871094 C 3 44.046875 3.953125 45 5.125 45 L 42.871094 45 C 43.171875 45 43.449219 44.84375 43.609375 44.589844 C 43.773438 44.339844 43.792969 44.019531 43.667969 43.75 C 43.523438 44.058594 43.214844 44.261719 42.871094 44.261719 L 5.125 44.261719 C 3.953125 44.261719 3 43.3125 3 42.136719 Z M 3 42.136719 "/>
<path style=" stroke:none;fill-rule:nonzero;fill:rgb(100%,100%,100%);fill-opacity:0.4;" d="M 4.054688 4.261719 C 3.792969 4.210938 3.527344 4.277344 3.320312 4.445312 C 3.117188 4.613281 3 4.863281 3 5.128906 L 3 6 C 3 5.644531 3.214844 5.320312 3.542969 5.1875 C 3.875 5.050781 4.253906 5.125 4.503906 5.378906 L 43.496094 44.367188 C 43.546875 44.421875 43.59375 44.480469 43.628906 44.542969 C 43.824219 44.203125 43.769531 43.777344 43.496094 43.496094 L 4.503906 4.503906 C 4.382812 4.382812 4.222656 4.296875 4.054688 4.261719 Z M 9 36.871094 L 9 37.746094 C 9 38.921875 9.953125 39.871094 11.128906 39.871094 L 28.621094 39.871094 C 28.9375 39.871094 29.230469 39.703125 29.386719 39.425781 C 29.542969 39.152344 29.539062 38.816406 29.378906 38.542969 C 29.226562 38.820312 28.9375 38.996094 28.621094 39 L 11.128906 39 C 9.953125 39 9 38.046875 9 36.871094 Z M 9 36.871094 "/>
<path style=" stroke:none;fill-rule:nonzero;fill:url(#linear0);" d="M 4.054688 4.261719 C 3.792969 4.210938 3.527344 4.277344 3.320312 4.445312 C 3.117188 4.613281 3 4.863281 3 5.128906 L 3 42.875 C 3 44.046875 3.953125 45 5.125 45 L 42.871094 45 C 43.230469 45 43.550781 44.785156 43.6875 44.457031 C 43.824219 44.125 43.746094 43.746094 43.496094 43.496094 L 42 42 C 43.660156 42 45 40.660156 45 39 L 45 9 C 45 7.339844 43.660156 6 42 6 L 6 6 L 4.503906 4.503906 C 4.382812 4.382812 4.222656 4.296875 4.054688 4.261719 Z M 4.054688 4.261719 "/>
</g>
</svg>
