
<svg xmlns="http://www.w3.org/2000/svg" xmlns:xlink="http://www.w3.org/1999/xlink" width="32" height="32" viewBox="0 0 32 32" version="1.1">
<defs>
<linearGradient id="linear0" gradientUnits="userSpaceOnUse" x1="34" y1="57.999996" x2="34" y2="8" gradientTransform="matrix(0.5,0,0,0.5,0,0)">
<stop offset="0" style="stop-color:rgb(0%,0%,0%);stop-opacity:0.2;"/>
<stop offset="1" style="stop-color:rgb(100%,100%,100%);stop-opacity:0;"/>
</linearGradient>
</defs>
<g id="surface1">
<path style=" stroke:none;fill-rule:nonzero;fill:rgb(38.039216%,38.039216%,38.039216%);fill-opacity:0.996078;" d="M 11 22 L 18 22 C 18.550781 22 19 22.449219 19 23 L 19 25 C 19 25.550781 18.550781 26 18 26 L 11 26 C 10.449219 26 10 25.550781 10 25 L 10 23 C 10 22.449219 10.449219 22 11 22 Z M 11 22 "/>
<path style=" stroke:none;fill-rule:nonzero;fill:rgb(38.039216%,38.039216%,38.039216%);fill-opacity:0.996078;" d="M 22 22 L 25 22 C 25.550781 22 26 22.449219 26 23 L 26 25 C 26 25.550781 25.550781 26 25 26 L 22 26 C 21.449219 26 21 25.550781 21 25 L 21 23 C 21 22.449219 21.449219 22 22 22 Z M 22 22 "/>
<path style=" stroke:none;fill-rule:nonzero;fill:rgb(38.039216%,38.039216%,38.039216%);fill-opacity:0.996078;" d="M 7 8 L 28 8 C 29.105469 8 30 8.894531 30 10 L 30 22 C 30 23.105469 29.105469 24 28 24 L 7 24 C 5.894531 24 5 23.105469 5 22 L 5 10 C 5 8.894531 5.894531 8 7 8 Z M 7 8 "/>
<path style=" stroke:none;fill-rule:nonzero;fill:rgb(0.392157%,0.392157%,0.392157%);fill-opacity:0.4;" d="M 7 24 C 5.890625 24 5 23.109375 5 22 L 5 21.5 C 5 22.609375 5.890625 23.5 7 23.5 L 28 23.5 C 29.109375 23.5 30 22.609375 30 21.5 L 30 22 C 30 23.109375 29.109375 24 28 24 Z M 7 24 "/>
<path style=" stroke:none;fill-rule:nonzero;fill:rgb(100%,100%,100%);fill-opacity:0.4;" d="M 7 8 C 5.890625 8 5 8.890625 5 10 L 5 10.5 C 5 9.390625 5.890625 8.5 7 8.5 L 28 8.5 C 29.109375 8.5 30 9.390625 30 10.5 L 30 10 C 30 8.890625 29.109375 8 28 8 Z M 7 8 "/>
<path style=" stroke:none;fill-rule:nonzero;fill:rgb(87.843138%,87.843138%,87.843138%);fill-opacity:0.996078;" d="M 2.5 4 C 2.222656 4 2 4.222656 2 4.5 L 2 5.5 C 2 5.777344 2.222656 6 2.5 6 L 5 6 L 5 27.5 C 5 27.777344 5.222656 28 5.5 28 L 6.5 28 C 6.777344 28 7 27.777344 7 27.5 L 7 4.5 C 7 4.222656 6.777344 4 6.5 4 Z M 2.5 4 "/>
<path style=" stroke:none;fill-rule:nonzero;fill:rgb(100%,79.215688%,15.686275%);fill-opacity:0.996078;" d="M 11.238281 24.25 C 11.105469 24.257812 11 24.367188 11 24.5 L 11 26 L 12 26 L 12 24.5 C 12 24.363281 11.886719 24.25 11.75 24.25 L 11.25 24.25 C 11.246094 24.25 11.242188 24.25 11.238281 24.25 Z M 11.238281 24.25 "/>
<path style=" stroke:none;fill-rule:nonzero;fill:rgb(100%,100%,100%);fill-opacity:0.4;" d="M 11.238281 24.25 C 11.105469 24.257812 11 24.367188 11 24.5 L 11 24.738281 C 11.007812 24.609375 11.109375 24.507812 11.238281 24.5 C 11.242188 24.5 11.246094 24.5 11.25 24.5 L 11.75 24.5 C 11.882812 24.5 11.992188 24.605469 12 24.738281 L 12 24.5 C 12 24.363281 11.886719 24.25 11.75 24.25 L 11.25 24.25 C 11.246094 24.25 11.242188 24.25 11.238281 24.25 Z M 11.238281 24.25 "/>
<path style=" stroke:none;fill-rule:nonzero;fill:rgb(100%,79.215688%,15.686275%);fill-opacity:0.996078;" d="M 13.238281 24.25 C 13.105469 24.257812 13 24.367188 13 24.5 L 13 26 L 14 26 L 14 24.5 C 14 24.363281 13.886719 24.25 13.75 24.25 L 13.25 24.25 C 13.246094 24.25 13.242188 24.25 13.238281 24.25 Z M 13.238281 24.25 "/>
<path style=" stroke:none;fill-rule:nonzero;fill:rgb(100%,100%,100%);fill-opacity:0.4;" d="M 13.238281 24.25 C 13.105469 24.257812 13 24.367188 13 24.5 L 13 24.738281 C 13.007812 24.609375 13.109375 24.507812 13.238281 24.5 C 13.242188 24.5 13.246094 24.5 13.25 24.5 L 13.75 24.5 C 13.882812 24.5 13.992188 24.605469 14 24.738281 L 14 24.5 C 14 24.363281 13.886719 24.25 13.75 24.25 L 13.25 24.25 C 13.246094 24.25 13.242188 24.25 13.238281 24.25 Z M 13.238281 24.25 "/>
<path style=" stroke:none;fill-rule:nonzero;fill:rgb(100%,79.215688%,15.686275%);fill-opacity:0.996078;" d="M 15.238281 24.25 C 15.105469 24.257812 15 24.367188 15 24.5 L 15 26 L 16 26 L 16 24.5 C 16 24.363281 15.886719 24.25 15.75 24.25 L 15.25 24.25 C 15.246094 24.25 15.242188 24.25 15.238281 24.25 Z M 15.238281 24.25 "/>
<path style=" stroke:none;fill-rule:nonzero;fill:rgb(100%,100%,100%);fill-opacity:0.4;" d="M 15.238281 24.25 C 15.105469 24.257812 15 24.367188 15 24.5 L 15 24.738281 C 15.007812 24.609375 15.109375 24.507812 15.238281 24.5 C 15.242188 24.5 15.246094 24.5 15.25 24.5 L 15.75 24.5 C 15.882812 24.5 15.992188 24.605469 16 24.738281 L 16 24.5 C 16 24.363281 15.886719 24.25 15.75 24.25 L 15.25 24.25 C 15.246094 24.25 15.242188 24.25 15.238281 24.25 Z M 15.238281 24.25 "/>
<path style=" stroke:none;fill-rule:nonzero;fill:rgb(100%,79.215688%,15.686275%);fill-opacity:0.996078;" d="M 17.238281 24.25 C 17.105469 24.257812 17 24.367188 17 24.5 L 17 26 L 18 26 L 18 24.5 C 18 24.363281 17.886719 24.25 17.75 24.25 L 17.25 24.25 C 17.246094 24.25 17.242188 24.25 17.238281 24.25 Z M 17.238281 24.25 "/>
<path style=" stroke:none;fill-rule:nonzero;fill:rgb(100%,100%,100%);fill-opacity:0.4;" d="M 17.238281 24.25 C 17.105469 24.257812 17 24.367188 17 24.5 L 17 24.738281 C 17.007812 24.609375 17.109375 24.507812 17.238281 24.5 C 17.242188 24.5 17.246094 24.5 17.25 24.5 L 17.75 24.5 C 17.882812 24.5 17.992188 24.605469 18 24.738281 L 18 24.5 C 18 24.363281 17.886719 24.25 17.75 24.25 L 17.25 24.25 C 17.246094 24.25 17.242188 24.25 17.238281 24.25 Z M 17.238281 24.25 "/>
<path style=" stroke:none;fill-rule:nonzero;fill:rgb(100%,79.215688%,15.686275%);fill-opacity:0.996078;" d="M 22.238281 24.25 C 22.105469 24.257812 22 24.367188 22 24.5 L 22 26 L 23 26 L 23 24.5 C 23 24.363281 22.886719 24.25 22.75 24.25 L 22.25 24.25 C 22.246094 24.25 22.242188 24.25 22.238281 24.25 Z M 22.238281 24.25 "/>
<path style=" stroke:none;fill-rule:nonzero;fill:rgb(100%,100%,100%);fill-opacity:0.4;" d="M 22.238281 24.25 C 22.105469 24.257812 22 24.367188 22 24.5 L 22 24.738281 C 22.007812 24.609375 22.109375 24.507812 22.238281 24.5 C 22.242188 24.5 22.246094 24.5 22.25 24.5 L 22.75 24.5 C 22.882812 24.5 22.992188 24.605469 23 24.738281 L 23 24.5 C 23 24.363281 22.886719 24.25 22.75 24.25 L 22.25 24.25 C 22.246094 24.25 22.242188 24.25 22.238281 24.25 Z M 22.238281 24.25 "/>
<path style=" stroke:none;fill-rule:nonzero;fill:rgb(100%,79.215688%,15.686275%);fill-opacity:0.996078;" d="M 24.238281 24.25 C 24.105469 24.257812 24 24.367188 24 24.5 L 24 26 L 25 26 L 25 24.5 C 25 24.363281 24.886719 24.25 24.75 24.25 L 24.25 24.25 C 24.246094 24.25 24.242188 24.25 24.238281 24.25 Z M 24.238281 24.25 "/>
<path style=" stroke:none;fill-rule:nonzero;fill:rgb(100%,100%,100%);fill-opacity:0.4;" d="M 24.238281 24.25 C 24.105469 24.257812 24 24.367188 24 24.5 L 24 24.738281 C 24.007812 24.609375 24.109375 24.507812 24.238281 24.5 C 24.242188 24.5 24.246094 24.5 24.25 24.5 L 24.75 24.5 C 24.882812 24.5 24.992188 24.605469 25 24.738281 L 25 24.5 C 25 24.363281 24.886719 24.25 24.75 24.25 L 24.25 24.25 C 24.246094 24.25 24.242188 24.25 24.238281 24.25 Z M 24.238281 24.25 "/>
<path style=" stroke:none;fill-rule:nonzero;fill:rgb(0%,0%,0%);fill-opacity:0.4;" d="M 10 24.5 L 10 25 C 10 25.554688 10.445312 26 11 26 L 18 26 C 18.554688 26 19 25.554688 19 25 L 19 24.5 C 19 25.054688 18.554688 25.5 18 25.5 L 11 25.5 C 10.445312 25.5 10 25.054688 10 24.5 Z M 10 24.5 "/>
<path style=" stroke:none;fill-rule:nonzero;fill:rgb(0%,0%,0%);fill-opacity:0.4;" d="M 21 24.5 L 21 25 C 21 25.554688 21.445312 26 22 26 L 25 26 C 25.554688 26 26 25.554688 26 25 L 26 24.5 C 26 25.054688 25.554688 25.5 25 25.5 L 22 25.5 C 21.445312 25.5 21 25.054688 21 24.5 Z M 21 24.5 "/>
<path style=" stroke:none;fill-rule:nonzero;fill:rgb(0%,0%,0%);fill-opacity:0.2;" d="M 10 24 L 19 24 L 19 24.5 L 10 24.5 Z M 10 24 "/>
<path style=" stroke:none;fill-rule:nonzero;fill:rgb(0%,0%,0%);fill-opacity:0.2;" d="M 21 24 L 26 24 L 26 24.5 L 21 24.5 Z M 21 24 "/>
<path style=" stroke:none;fill-rule:nonzero;fill:rgb(100%,100%,100%);fill-opacity:0.6;" d="M 2.5 4 C 2.222656 4 2 4.222656 2 4.5 L 2 5 C 2 4.722656 2.222656 4.5 2.5 4.5 L 6.5 4.5 C 6.777344 4.5 7 4.722656 7 5 L 7 4.5 C 7 4.222656 6.777344 4 6.5 4 Z M 2.5 4 "/>
<path style=" stroke:none;fill-rule:nonzero;fill:rgb(0%,0%,0%);fill-opacity:0.4;" d="M 2 5 L 2 5.5 C 2 5.777344 2.222656 6 2.5 6 L 5 6 L 5 5.5 L 2.5 5.5 C 2.222656 5.5 2 5.277344 2 5 Z M 5 27 L 5 27.5 C 5 27.777344 5.222656 28 5.5 28 L 6.5 28 C 6.777344 28 7 27.777344 7 27.5 L 7 27 C 7 27.277344 6.777344 27.5 6.5 27.5 L 5.5 27.5 C 5.222656 27.5 5 27.277344 5 27 Z M 5 27 "/>
<path style=" stroke:none;fill-rule:nonzero;fill:rgb(0%,0%,0%);fill-opacity:0.2;" d="M 2 5.5 L 2 6.25 C 2 6.527344 2.222656 6.75 2.5 6.75 L 5 6.75 L 5 6 L 2.5 6 C 2.222656 6 2 5.777344 2 5.5 Z M 30 22 C 30 23.109375 29.109375 24 28 24 L 26 24 L 26 24.75 L 28 24.75 C 29.109375 24.75 30 23.859375 30 22.75 Z M 7 24 L 7 24.75 L 10 24.75 L 10 24 Z M 19 24 L 19 24.75 L 21 24.75 L 21 24 Z M 10 25 L 10 25.75 C 10 26.304688 10.445312 26.75 11 26.75 L 18 26.75 C 18.554688 26.75 19 26.304688 19 25.75 L 19 25 C 19 25.554688 18.554688 26 18 26 L 11 26 C 10.445312 26 10 25.554688 10 25 Z M 21 25 L 21 25.75 C 21 26.304688 21.445312 26.75 22 26.75 L 25 26.75 C 25.554688 26.75 26 26.304688 26 25.75 L 26 25 C 26 25.554688 25.554688 26 25 26 L 22 26 C 21.445312 26 21 25.554688 21 25 Z M 5 27.5 L 5 28.25 C 5 28.527344 5.222656 28.75 5.5 28.75 L 6.5 28.75 C 6.777344 28.75 7 28.527344 7 28.25 L 7 27.5 C 7 27.777344 6.777344 28 6.5 28 L 5.5 28 C 5.222656 28 5 27.777344 5 27.5 Z M 5 27.5 "/>
<path style=" stroke:none;fill-rule:nonzero;fill:rgb(61.960787%,61.960787%,61.960787%);fill-opacity:0.996078;" d="M 7 9 L 7 23 L 28 23 C 28.554688 23 29 22.554688 29 22 L 29 10 C 29 9.445312 28.554688 9 28 9 Z M 7 9 "/>
<path style=" stroke:none;fill-rule:nonzero;fill:rgb(100%,100%,100%);fill-opacity:0.4;" d="M 7 9 L 7 9.496094 L 28 9.496094 C 28.554688 9.496094 29 9.941406 29 10.496094 L 29 10 C 29 9.445312 28.554688 9 28 9 Z M 7 9 "/>
<path style=" stroke:none;fill-rule:nonzero;fill:rgb(0.392157%,0.392157%,0.392157%);fill-opacity:0.2;" d="M 7 23.496094 L 7 23 L 28 23 C 28.554688 23 29 22.554688 29 22 L 29 22.496094 C 29 23.050781 28.554688 23.496094 28 23.496094 Z M 7 23.496094 "/>
<path style=" stroke:none;fill-rule:nonzero;fill:rgb(38.039216%,38.039216%,38.039216%);fill-opacity:0.996078;" d="M 13 11.5 C 15.484375 11.5 17.5 13.515625 17.5 16 C 17.5 18.484375 15.484375 20.5 13 20.5 C 10.515625 20.5 8.5 18.484375 8.5 16 C 8.5 13.515625 10.515625 11.5 13 11.5 Z M 13 11.5 "/>
<path style=" stroke:none;fill-rule:nonzero;fill:rgb(0%,0%,0%);fill-opacity:0.4;" d="M 12.1875 12.34375 C 12.167969 12.347656 12.148438 12.351562 12.132812 12.355469 L 12.910156 15.859375 L 13 16 Z M 13 16 L 13.089844 15.859375 L 13.867188 12.355469 C 13.851562 12.351562 13.832031 12.347656 13.8125 12.34375 Z M 13 16 L 13.0625 15.984375 L 13.066406 15.957031 Z M 13 16 L 13.050781 16.03125 L 13.054688 16.011719 Z M 13 16 L 13.03125 16.132812 L 13.042969 16.066406 Z M 13 16 L 12.957031 16.066406 L 12.96875 16.132812 Z M 13 16 L 12.945312 16.011719 L 12.949219 16.03125 Z M 13 16 L 12.933594 15.957031 L 12.9375 15.984375 Z M 9.746094 13.929688 C 9.703125 13.988281 9.664062 14.050781 9.625 14.113281 L 12.367188 15.859375 L 12.804688 15.957031 L 12.71875 15.820312 Z M 16.253906 13.929688 L 13.28125 15.820312 L 13.195312 15.957031 L 13.632812 15.859375 L 16.375 14.113281 C 16.335938 14.050781 16.296875 13.988281 16.253906 13.929688 Z M 12.855469 16.03125 L 12.695312 16.066406 L 12.792969 16.132812 L 12.882812 16.074219 Z M 13.144531 16.03125 L 13.117188 16.074219 L 13.207031 16.132812 L 13.304688 16.066406 Z M 9.003906 16.132812 C 9 16.175781 9 16.21875 9 16.261719 C 9 16.558594 9.035156 16.851562 9.09375 17.128906 L 12.367188 16.402344 L 12.695312 16.195312 L 12.410156 16.132812 L 9.09375 16.867188 C 9.042969 16.628906 9.011719 16.382812 9.003906 16.132812 Z M 12.917969 16.132812 L 12.882812 16.1875 L 12.949219 16.230469 L 12.957031 16.195312 Z M 13.082031 16.132812 L 13.042969 16.195312 L 13.050781 16.230469 L 13.117188 16.1875 Z M 13.589844 16.132812 L 13.304688 16.195312 L 13.632812 16.402344 L 16.90625 17.128906 C 16.964844 16.851562 17 16.558594 17 16.261719 C 17 16.21875 17 16.175781 16.996094 16.132812 C 16.988281 16.382812 16.957031 16.628906 16.90625 16.867188 Z M 12.855469 16.230469 L 12.804688 16.304688 L 12.9375 16.273438 L 12.945312 16.25 Z M 13.144531 16.230469 L 13.054688 16.25 L 13.0625 16.273438 L 13.195312 16.304688 Z M 12.933594 16.304688 L 12.71875 16.441406 L 10.851562 19.375 C 10.417969 19.101562 10.042969 18.746094 9.746094 18.332031 L 9.625 18.410156 C 9.9375 18.90625 10.355469 19.324219 10.851562 19.640625 L 12.910156 16.402344 Z M 13.066406 16.304688 L 13.089844 16.402344 L 15.148438 19.640625 C 15.644531 19.324219 16.0625 18.90625 16.375 18.410156 L 16.253906 18.332031 C 15.957031 18.746094 15.582031 19.101562 15.148438 19.375 L 13.28125 16.441406 Z M 12.1875 19.917969 L 12.132812 20.167969 C 12.410156 20.226562 12.703125 20.261719 13 20.261719 C 13.296875 20.261719 13.589844 20.226562 13.867188 20.167969 L 13.8125 19.917969 C 13.550781 19.972656 13.277344 20 13 20 C 12.722656 20 12.449219 19.972656 12.1875 19.917969 Z M 12.1875 19.917969 "/>
<path style=" stroke:none;fill-rule:nonzero;fill:rgb(0%,0%,0%);fill-opacity:0.4;" d="M 13 11.5 C 10.507812 11.5 8.5 13.507812 8.5 16 C 8.5 16.082031 8.503906 16.167969 8.507812 16.25 C 8.636719 13.875 10.589844 12 13 12 C 15.410156 12 17.363281 13.875 17.492188 16.25 C 17.496094 16.167969 17.5 16.082031 17.5 16 C 17.5 13.507812 15.492188 11.5 13 11.5 Z M 13 11.5 "/>
<path style=" stroke:none;fill-rule:nonzero;fill:rgb(99.607843%,99.607843%,99.607843%);fill-opacity:0.4;" d="M 13 21 C 10.507812 21 8.5 18.992188 8.5 16.5 C 8.5 16.417969 8.503906 16.332031 8.507812 16.25 C 8.636719 18.625 10.589844 20.5 13 20.5 C 15.410156 20.5 17.363281 18.625 17.492188 16.25 C 17.496094 16.332031 17.5 16.417969 17.5 16.5 C 17.5 18.992188 15.492188 21 13 21 Z M 13 21 "/>
<path style=" stroke:none;fill-rule:nonzero;fill:rgb(0%,58.823532%,53.333336%);fill-opacity:1;" d="M 13 12 C 12.703125 12 12.410156 12.035156 12.132812 12.09375 L 13 16 L 13.867188 12.09375 C 13.589844 12.035156 13.296875 12 13 12 Z M 13 16 L 16.375 13.851562 C 16.0625 13.355469 15.644531 12.9375 15.148438 12.625 Z M 13 16 L 16.90625 16.867188 C 16.964844 16.589844 17 16.296875 17 16 C 17 15.703125 16.964844 15.410156 16.90625 15.132812 Z M 13 16 L 15.148438 19.375 C 15.644531 19.0625 16.0625 18.644531 16.375 18.148438 Z M 13 16 L 12.132812 19.90625 C 12.410156 19.964844 12.703125 20 13 20 C 13.296875 20 13.589844 19.964844 13.867188 19.90625 Z M 13 16 L 9.625 18.148438 C 9.9375 18.644531 10.355469 19.0625 10.851562 19.375 Z M 13 16 L 9.09375 15.132812 C 9.035156 15.410156 9 15.703125 9 16 C 9 16.296875 9.035156 16.589844 9.09375 16.867188 Z M 13 16 L 10.851562 12.625 C 10.355469 12.9375 9.9375 13.355469 9.625 13.851562 Z M 13 16 "/>
<path style=" stroke:none;fill-rule:nonzero;fill:rgb(100%,100%,100%);fill-opacity:0.4;" d="M 13 12 C 12.703125 12 12.410156 12.035156 12.132812 12.09375 L 12.183594 12.335938 C 12.449219 12.28125 12.71875 12.25 13 12.25 C 13.28125 12.25 13.550781 12.28125 13.816406 12.335938 L 13.867188 12.09375 C 13.589844 12.035156 13.296875 12 13 12 Z M 10.851562 12.625 C 10.355469 12.9375 9.9375 13.355469 9.625 13.851562 L 9.742188 13.925781 C 10.039062 13.507812 10.414062 13.148438 10.851562 12.875 L 12.734375 15.828125 L 12.9375 15.960938 L 12.914062 15.867188 Z M 15.148438 12.625 L 13.085938 15.867188 L 13.0625 15.960938 L 13.265625 15.828125 L 15.148438 12.875 C 15.585938 13.148438 15.960938 13.507812 16.257812 13.925781 L 16.375 13.851562 C 16.0625 13.355469 15.644531 12.9375 15.148438 12.625 Z M 9.09375 15.132812 C 9.035156 15.410156 9 15.703125 9 16 C 9 16.039062 9 16.074219 9.003906 16.109375 C 9.011719 15.863281 9.042969 15.617188 9.09375 15.382812 L 12.4375 16.125 L 12.710938 16.0625 L 12.398438 15.867188 Z M 16.90625 15.132812 L 13.601562 15.867188 L 13.289062 16.0625 L 13.5625 16.125 L 16.90625 15.382812 C 16.957031 15.617188 16.988281 15.863281 16.996094 16.109375 C 17 16.074219 17 16.039062 17 16 C 17 15.703125 16.964844 15.410156 16.90625 15.132812 Z M 12.8125 15.960938 L 12.859375 16.03125 L 12.945312 16.011719 L 12.941406 15.988281 Z M 13.1875 15.960938 L 13.058594 15.988281 L 13.054688 16.011719 L 13.140625 16.03125 Z M 12.953125 16.03125 L 12.886719 16.070312 L 12.921875 16.125 L 12.960938 16.0625 Z M 13.046875 16.03125 L 13.039062 16.0625 L 13.078125 16.125 L 13.113281 16.070312 Z M 12.804688 16.125 L 12.710938 16.1875 L 12.859375 16.21875 L 12.886719 16.179688 Z M 12.972656 16.125 L 12.960938 16.1875 L 13 16.25 Z M 13 16.25 L 13.039062 16.1875 L 13.027344 16.125 Z M 13 16.25 L 13.054688 16.238281 L 13.046875 16.21875 Z M 13 16.25 L 13.0625 16.289062 L 13.058594 16.261719 Z M 13 16.25 L 13.8125 19.914062 C 13.832031 19.914062 13.851562 19.910156 13.867188 19.90625 L 13.085938 16.382812 Z M 13 16.25 L 12.914062 16.382812 L 12.132812 19.90625 C 12.148438 19.910156 12.167969 19.914062 12.1875 19.914062 Z M 13 16.25 L 12.941406 16.261719 L 12.9375 16.289062 Z M 13 16.25 L 12.953125 16.21875 L 12.945312 16.238281 Z M 13.195312 16.125 L 13.113281 16.179688 L 13.140625 16.21875 L 13.289062 16.1875 Z M 12.8125 16.289062 L 12.398438 16.382812 L 9.625 18.148438 C 9.660156 18.207031 9.699219 18.265625 9.742188 18.324219 L 12.734375 16.421875 Z M 13.1875 16.289062 L 13.265625 16.421875 L 16.257812 18.324219 C 16.300781 18.265625 16.339844 18.207031 16.375 18.148438 L 13.601562 16.382812 Z M 13.1875 16.289062 "/>
<path style=" stroke:none;fill-rule:nonzero;fill:rgb(14.901961%,65.098041%,60.392159%);fill-opacity:1;" d="M 13 14.5 C 13.828125 14.5 14.5 15.171875 14.5 16 C 14.5 16.828125 13.828125 17.5 13 17.5 C 12.171875 17.5 11.5 16.828125 11.5 16 C 11.5 15.171875 12.171875 14.5 13 14.5 Z M 13 14.5 "/>
<path style=" stroke:none;fill-rule:nonzero;fill:rgb(100%,100%,100%);fill-opacity:0.4;" d="M 12.960938 14.5 C 12.148438 14.519531 11.5 15.183594 11.5 16 C 11.5 16.085938 11.507812 16.167969 11.519531 16.25 C 11.640625 15.539062 12.253906 15 13 15 C 13.746094 15 14.359375 15.539062 14.480469 16.25 C 14.492188 16.167969 14.5 16.085938 14.5 16 C 14.5 15.167969 13.832031 14.5 13 14.5 C 12.988281 14.5 12.972656 14.5 12.960938 14.5 Z M 12.960938 14.5 "/>
<path style=" stroke:none;fill-rule:nonzero;fill:rgb(0%,0%,0%);fill-opacity:0.4;" d="M 11.519531 16.25 C 11.507812 16.332031 11.5 16.414062 11.5 16.5 C 11.5 17.332031 12.167969 18 13 18 C 13.832031 18 14.5 17.332031 14.5 16.5 C 14.5 16.414062 14.492188 16.332031 14.480469 16.25 C 14.359375 16.960938 13.746094 17.5 13 17.5 C 12.253906 17.5 11.640625 16.960938 11.519531 16.25 Z M 11.519531 16.25 "/>
<path style=" stroke:none;fill-rule:nonzero;fill:rgb(38.039216%,38.039216%,38.039216%);fill-opacity:0.996078;" d="M 22.492188 11.5 C 24.976562 11.5 26.992188 13.515625 26.992188 16 C 26.992188 18.484375 24.976562 20.5 22.492188 20.5 C 20.007812 20.5 17.992188 18.484375 17.992188 16 C 17.992188 13.515625 20.007812 11.5 22.492188 11.5 Z M 22.492188 11.5 "/>
<path style=" stroke:none;fill-rule:nonzero;fill:rgb(0%,0%,0%);fill-opacity:0.4;" d="M 21.679688 12.34375 C 21.664062 12.347656 21.644531 12.351562 21.625 12.355469 L 22.402344 15.859375 L 22.492188 16 Z M 22.492188 16 L 22.582031 15.859375 L 23.363281 12.355469 C 23.34375 12.351562 23.324219 12.347656 23.304688 12.34375 Z M 22.492188 16 L 22.554688 15.988281 L 22.5625 15.957031 Z M 22.492188 16 L 22.542969 16.03125 L 22.550781 16.011719 Z M 22.492188 16 L 22.523438 16.128906 L 22.535156 16.066406 Z M 22.492188 16 L 22.449219 16.066406 L 22.464844 16.132812 Z M 22.492188 16 L 22.4375 16.011719 L 22.441406 16.03125 Z M 22.492188 16 L 22.425781 15.957031 L 22.433594 15.988281 Z M 19.242188 13.929688 C 19.199219 13.988281 19.15625 14.050781 19.117188 14.113281 L 21.863281 15.859375 L 22.300781 15.957031 L 22.214844 15.820312 Z M 25.746094 13.929688 L 22.773438 15.820312 L 22.6875 15.957031 L 23.125 15.859375 L 25.871094 14.113281 C 25.832031 14.050781 25.789062 13.988281 25.746094 13.929688 Z M 22.347656 16.03125 L 22.1875 16.066406 L 22.289062 16.132812 L 22.375 16.074219 Z M 22.640625 16.03125 L 22.613281 16.074219 L 22.699219 16.128906 L 22.796875 16.066406 Z M 18.496094 16.132812 C 18.496094 16.175781 18.492188 16.21875 18.492188 16.261719 C 18.492188 16.558594 18.527344 16.851562 18.589844 17.128906 L 21.863281 16.402344 L 22.1875 16.195312 L 21.90625 16.132812 L 18.589844 16.867188 C 18.535156 16.628906 18.503906 16.382812 18.496094 16.132812 Z M 22.410156 16.132812 L 22.375 16.1875 L 22.441406 16.230469 L 22.449219 16.195312 Z M 22.578125 16.132812 L 22.535156 16.195312 L 22.542969 16.230469 L 22.609375 16.1875 Z M 23.082031 16.132812 L 22.796875 16.195312 L 23.125 16.402344 L 26.398438 17.128906 C 26.460938 16.851562 26.492188 16.558594 26.492188 16.261719 C 26.492188 16.21875 26.492188 16.175781 26.492188 16.128906 C 26.480469 16.382812 26.449219 16.628906 26.398438 16.867188 Z M 22.347656 16.230469 L 22.300781 16.304688 L 22.433594 16.277344 L 22.4375 16.25 Z M 22.640625 16.230469 L 22.550781 16.25 L 22.554688 16.273438 L 22.6875 16.304688 Z M 22.425781 16.304688 L 22.214844 16.441406 L 20.34375 19.375 C 19.910156 19.101562 19.539062 18.746094 19.242188 18.332031 L 19.117188 18.410156 C 19.429688 18.90625 19.851562 19.324219 20.34375 19.640625 L 22.402344 16.402344 Z M 22.5625 16.304688 L 22.582031 16.402344 L 24.644531 19.640625 C 25.136719 19.324219 25.554688 18.90625 25.871094 18.410156 L 25.746094 18.332031 C 25.449219 18.746094 25.074219 19.101562 24.644531 19.378906 L 22.773438 16.441406 Z M 21.679688 19.917969 L 21.625 20.167969 C 21.90625 20.226562 22.195312 20.261719 22.492188 20.261719 C 22.792969 20.261719 23.082031 20.226562 23.363281 20.167969 L 23.304688 19.917969 C 23.042969 19.972656 22.773438 20 22.492188 20 C 22.214844 20 21.941406 19.972656 21.679688 19.917969 Z M 21.679688 19.917969 "/>
<path style=" stroke:none;fill-rule:nonzero;fill:rgb(0%,0%,0%);fill-opacity:0.4;" d="M 22.492188 11.5 C 20 11.5 17.992188 13.507812 17.992188 16 C 17.992188 16.082031 17.996094 16.167969 18 16.25 C 18.128906 13.875 20.085938 12 22.492188 12 C 24.902344 12 26.859375 13.875 26.988281 16.25 C 26.992188 16.167969 26.992188 16.082031 26.992188 16 C 26.992188 13.507812 24.984375 11.5 22.492188 11.5 Z M 22.492188 11.5 "/>
<path style=" stroke:none;fill-rule:nonzero;fill:rgb(99.607843%,99.607843%,99.607843%);fill-opacity:0.4;" d="M 22.492188 21 C 20 21 17.992188 18.992188 17.992188 16.5 C 17.992188 16.417969 17.996094 16.332031 18 16.25 C 18.128906 18.625 20.085938 20.5 22.492188 20.5 C 24.902344 20.5 26.859375 18.625 26.988281 16.25 C 26.992188 16.332031 26.992188 16.417969 26.992188 16.5 C 26.992188 18.992188 24.984375 21 22.492188 21 Z M 22.492188 21 "/>
<path style=" stroke:none;fill-rule:nonzero;fill:rgb(0%,58.823532%,53.333336%);fill-opacity:1;" d="M 22.492188 12 C 22.195312 12 21.90625 12.035156 21.625 12.09375 L 22.492188 16 L 23.363281 12.09375 C 23.082031 12.035156 22.792969 12 22.492188 12 Z M 22.492188 16 L 25.871094 13.851562 C 25.554688 13.355469 25.136719 12.9375 24.644531 12.625 Z M 22.492188 16 L 26.398438 16.867188 C 26.460938 16.589844 26.492188 16.296875 26.492188 16 C 26.492188 15.703125 26.460938 15.410156 26.398438 15.132812 Z M 22.492188 16 L 24.644531 19.378906 C 25.136719 19.0625 25.554688 18.644531 25.871094 18.148438 Z M 22.492188 16 L 21.625 19.90625 C 21.90625 19.964844 22.195312 20 22.492188 20 C 22.792969 20 23.082031 19.964844 23.363281 19.90625 Z M 22.492188 16 L 19.117188 18.148438 C 19.429688 18.644531 19.851562 19.0625 20.34375 19.378906 Z M 22.492188 16 L 18.589844 15.132812 C 18.527344 15.410156 18.492188 15.703125 18.492188 16 C 18.492188 16.296875 18.527344 16.589844 18.589844 16.867188 Z M 22.492188 16 L 20.34375 12.625 C 19.851562 12.9375 19.429688 13.355469 19.117188 13.851562 Z M 22.492188 16 "/>
<path style=" stroke:none;fill-rule:nonzero;fill:rgb(100%,100%,100%);fill-opacity:0.4;" d="M 22.492188 12 C 22.195312 12 21.90625 12.035156 21.625 12.09375 L 21.679688 12.332031 C 21.941406 12.28125 22.214844 12.25 22.492188 12.25 C 22.773438 12.25 23.046875 12.28125 23.308594 12.332031 L 23.363281 12.09375 C 23.082031 12.035156 22.792969 12 22.492188 12 Z M 20.34375 12.625 C 19.851562 12.9375 19.429688 13.355469 19.117188 13.851562 L 19.234375 13.925781 C 19.53125 13.507812 19.910156 13.148438 20.34375 12.875 L 22.226562 15.832031 L 22.429688 15.957031 L 22.410156 15.867188 Z M 24.644531 12.625 L 22.578125 15.867188 L 22.558594 15.960938 L 22.761719 15.832031 L 24.644531 12.875 C 25.078125 13.148438 25.453125 13.507812 25.753906 13.925781 L 25.871094 13.851562 C 25.554688 13.355469 25.136719 12.9375 24.644531 12.625 Z M 18.589844 15.132812 C 18.527344 15.410156 18.492188 15.703125 18.492188 16 C 18.492188 16.039062 18.496094 16.074219 18.496094 16.109375 C 18.503906 15.863281 18.535156 15.617188 18.585938 15.382812 L 21.929688 16.125 L 22.203125 16.066406 L 21.890625 15.867188 Z M 26.398438 15.132812 L 23.097656 15.867188 L 22.785156 16.0625 L 23.054688 16.125 L 26.398438 15.382812 C 26.449219 15.617188 26.480469 15.863281 26.492188 16.109375 C 26.492188 16.074219 26.492188 16.039062 26.492188 16 C 26.492188 15.703125 26.460938 15.410156 26.398438 15.132812 Z M 22.308594 15.957031 L 22.355469 16.03125 L 22.441406 16.011719 L 22.433594 15.988281 Z M 22.679688 15.957031 L 22.550781 15.988281 L 22.546875 16.011719 L 22.632812 16.03125 Z M 22.445312 16.03125 L 22.378906 16.070312 L 22.414062 16.125 L 22.453125 16.0625 Z M 22.542969 16.03125 L 22.535156 16.0625 L 22.574219 16.125 L 22.605469 16.070312 Z M 22.296875 16.125 L 22.203125 16.183594 L 22.355469 16.21875 L 22.378906 16.175781 Z M 22.464844 16.125 L 22.453125 16.183594 L 22.492188 16.25 Z M 22.492188 16.25 L 22.535156 16.183594 L 22.519531 16.125 Z M 22.492188 16.25 L 22.546875 16.238281 L 22.542969 16.21875 Z M 22.492188 16.25 L 22.558594 16.289062 L 22.550781 16.261719 Z M 22.492188 16.25 L 23.308594 19.914062 C 23.324219 19.910156 23.34375 19.910156 23.363281 19.90625 L 22.578125 16.382812 Z M 22.492188 16.25 L 22.410156 16.382812 L 21.625 19.90625 C 21.644531 19.910156 21.660156 19.914062 21.679688 19.917969 Z M 22.492188 16.25 L 22.433594 16.261719 L 22.429688 16.292969 Z M 22.492188 16.25 L 22.445312 16.21875 L 22.441406 16.238281 Z M 22.691406 16.125 L 22.605469 16.175781 L 22.632812 16.21875 L 22.785156 16.183594 Z M 22.308594 16.289062 L 21.890625 16.382812 L 19.117188 18.148438 C 19.152344 18.207031 19.195312 18.265625 19.234375 18.324219 L 22.226562 16.417969 Z M 22.679688 16.289062 L 22.761719 16.417969 L 25.753906 18.324219 C 25.792969 18.265625 25.832031 18.207031 25.871094 18.148438 L 23.097656 16.382812 Z M 22.679688 16.289062 "/>
<path style=" stroke:none;fill-rule:nonzero;fill:rgb(14.901961%,65.098041%,60.392159%);fill-opacity:1;" d="M 22.492188 14.5 C 23.320312 14.5 23.992188 15.171875 23.992188 16 C 23.992188 16.828125 23.320312 17.5 22.492188 17.5 C 21.664062 17.5 20.992188 16.828125 20.992188 16 C 20.992188 15.171875 21.664062 14.5 22.492188 14.5 Z M 22.492188 14.5 "/>
<path style=" stroke:none;fill-rule:nonzero;fill:rgb(100%,100%,100%);fill-opacity:0.4;" d="M 22.453125 14.5 C 21.640625 14.519531 20.992188 15.183594 20.992188 16 C 20.992188 16.085938 21 16.167969 21.015625 16.25 C 21.132812 15.539062 21.746094 15 22.492188 15 C 23.238281 15 23.855469 15.539062 23.972656 16.25 C 23.984375 16.167969 23.992188 16.085938 23.992188 16 C 23.992188 15.167969 23.324219 14.5 22.492188 14.5 C 22.480469 14.5 22.46875 14.5 22.453125 14.5 Z M 22.453125 14.5 "/>
<path style=" stroke:none;fill-rule:nonzero;fill:rgb(0%,0%,0%);fill-opacity:0.4;" d="M 21.015625 16.25 C 21 16.332031 20.992188 16.414062 20.992188 16.5 C 20.992188 17.332031 21.664062 18 22.492188 18 C 23.324219 18 23.992188 17.332031 23.992188 16.5 C 23.992188 16.414062 23.984375 16.332031 23.972656 16.25 C 23.855469 16.960938 23.238281 17.5 22.492188 17.5 C 21.746094 17.5 21.132812 16.960938 21.015625 16.25 Z M 21.015625 16.25 "/>
<path style=" stroke:none;fill-rule:nonzero;fill:url(#linear0);" d="M 2.5 4 C 2.222656 4 2 4.222656 2 4.5 L 2 5.5 C 2 5.777344 2.222656 6 2.5 6 L 5 6 L 5 27.5 C 5 27.777344 5.222656 28 5.5 28 L 6.5 28 C 6.777344 28 7 27.777344 7 27.5 L 7 24 L 10 24 L 10 25 C 10 25.554688 10.445312 26 11 26 L 18 26 C 18.554688 26 19 25.554688 19 25 L 19 24 L 21 24 L 21 25 C 21 25.554688 21.445312 26 22 26 L 25 26 C 25.554688 26 26 25.554688 26 25 L 26 24 L 28 24 C 29.109375 24 30 23.109375 30 22 L 30 10 C 30 8.890625 29.109375 8 28 8 L 7 8 L 7 4.5 C 7 4.222656 6.777344 4 6.5 4 Z M 2.5 4 "/>
</g>
</svg>
