
<svg xmlns="http://www.w3.org/2000/svg" xmlns:xlink="http://www.w3.org/1999/xlink" width="32" height="32" viewBox="0 0 32 32" version="1.1">
<defs>
<linearGradient id="linear0" gradientUnits="userSpaceOnUse" x1="8.466666" y1="-199.125" x2="8.466666" y2="-213.941666" gradientTransform="matrix(1.889764,0,0,1.889764,-0.00000631431,406.299234)">
<stop offset="0" style="stop-color:rgb(0%,0%,0%);stop-opacity:0.2;"/>
<stop offset="1" style="stop-color:rgb(100%,100%,100%);stop-opacity:0;"/>
</linearGradient>
</defs>
<g id="surface1">
<path style=" stroke:none;fill-rule:nonzero;fill:rgb(25.882354%,64.705884%,96.078432%);fill-opacity:1;" d="M 4 2 L 28 2 C 29.105469 2 30 2.894531 30 4 L 30 28 C 30 29.105469 29.105469 30 28 30 L 4 30 C 2.894531 30 2 29.105469 2 28 L 2 4 C 2 2.894531 2.894531 2 4 2 Z M 4 2 "/>
<path style=" stroke:none;fill-rule:nonzero;fill:rgb(93.333334%,93.333334%,93.333334%);fill-opacity:1;" d="M 21.679688 18.425781 L 19.464844 24.820312 L 18.339844 22.003906 L 17.296875 22.003906 C 17.28125 22 17.265625 22 17.25 22 L 16.75 22 C 16.613281 22 16.5 22.113281 16.5 22.25 L 16.5 22.75 C 16.5 22.886719 16.613281 23 16.75 23 L 17.660156 23 L 19.53125 27.683594 L 21.820312 21.078125 L 23.753906 25.183594 L 25.222656 22 L 26.667969 25.503906 L 28 25.503906 L 28 25.5 C 28.136719 25.5 28.25 25.386719 28.25 25.25 L 28.25 24.75 C 28.25 24.613281 28.136719 24.5 28 24.5 L 27.5 24.5 C 27.488281 24.5 27.480469 24.5 27.46875 24.5 L 27.335938 24.5 L 25.273438 19.5 L 23.746094 22.820312 Z M 21.679688 18.425781 "/>
<path style=" stroke:none;fill-rule:nonzero;fill:rgb(39.215687%,70.980394%,96.470588%);fill-opacity:1;" d="M 4 2 C 2.890625 2 2 2.890625 2 4 L 2 7 L 30 7 L 30 4 C 30 2.890625 29.109375 2 28 2 Z M 4 2 "/>
<path style=" stroke:none;fill-rule:nonzero;fill:rgb(0%,0%,0%);fill-opacity:0.4;" d="M 2 27.5 L 2 28 C 2 29.109375 2.890625 30 4 30 L 28 30 C 29.109375 30 30 29.109375 30 28 L 30 27.5 C 30 28.609375 29.109375 29.5 28 29.5 L 4 29.5 C 2.890625 29.5 2 28.609375 2 27.5 Z M 2 27.5 "/>
<path style=" stroke:none;fill-rule:nonzero;fill:rgb(0%,0%,0%);fill-opacity:0.2;" d="M 2 28 L 2 28.75 C 2 29.859375 2.890625 30.75 4 30.75 L 28 30.75 C 29.109375 30.75 30 29.859375 30 28.75 L 30 28 C 30 29.109375 29.109375 30 28 30 L 4 30 C 2.890625 30 2 29.109375 2 28 Z M 2 28 "/>
<path style=" stroke:none;fill-rule:nonzero;fill:rgb(84.313726%,80.000001%,78.431374%);fill-opacity:1;" d="M 13 2 L 13 16 L 13.5 15.5 L 14 16 L 14.5 15.25 L 15 16 L 15.5 15.75 L 16 16 L 16.5 15.25 L 17 16 L 17.5 15.5 L 18 16 L 18.5 15.25 L 19 16 L 19 2 Z M 13 2 "/>
<path style=" stroke:none;fill-rule:nonzero;fill:rgb(0%,0%,0%);fill-opacity:0.4;" d="M 14.5 15.25 L 14 16 L 13.5 15.5 L 13 16 L 13 16.25 L 13.5 15.75 L 14 16.25 L 14.5 15.5 L 15 16.25 L 15.5 16 L 16 16.25 L 16.5 15.5 L 17 16.25 L 17.5 15.75 L 18 16.25 L 18.5 15.5 L 19 16.25 L 19 16 L 18.5 15.25 L 18 16 L 17.5 15.5 L 17 16 L 16.5 15.25 L 16 16 L 15.5 15.75 L 15 16 Z M 14.5 15.25 "/>
<path style=" stroke:none;fill-rule:nonzero;fill:rgb(0%,0%,0%);fill-opacity:0.4;" d="M 2 7 L 30 7 L 30 7.265625 L 2 7.265625 Z M 2 7 "/>
<path style=" stroke:none;fill-rule:nonzero;fill:rgb(100%,100%,100%);fill-opacity:0.4;" d="M 4 2 C 2.890625 2 2 2.890625 2 4 L 2 4.492188 C 2 3.382812 2.890625 2.492188 4 2.492188 L 28 2.492188 C 29.109375 2.492188 30 3.382812 30 4.492188 L 30 4 C 30 2.890625 29.109375 2 28 2 Z M 4 2 "/>
<path style=" stroke:none;fill-rule:nonzero;fill:rgb(100%,100%,100%);fill-opacity:0.6;" d="M 21.679688 18.425781 L 19.464844 24.816406 L 18.339844 22 L 17.296875 22 C 17.28125 22 17.265625 22 17.25 22 L 16.75 22 C 16.613281 22 16.5 22.109375 16.5 22.25 L 16.5 22.496094 C 16.5 22.496094 16.5 22.496094 16.5 22.5 L 16.5 22.746094 C 16.5 22.609375 16.613281 22.496094 16.75 22.496094 L 17.25 22.496094 C 17.265625 22.496094 17.28125 22.5 17.296875 22.5 L 18.339844 22.5 L 19.464844 25.316406 L 21.679688 18.921875 L 23.746094 23.316406 L 25.273438 19.996094 L 27.335938 25 L 27.46875 25 C 27.480469 24.996094 27.488281 24.996094 27.5 24.996094 L 28 24.996094 C 28.136719 24.996094 28.25 25.109375 28.25 25.246094 L 28.25 25 C 28.25 24.996094 28.25 24.996094 28.25 24.996094 L 28.25 24.75 C 28.25 24.609375 28.136719 24.5 28 24.5 L 27.5 24.5 C 27.488281 24.5 27.480469 24.5 27.46875 24.5 L 27.335938 24.5 L 25.273438 19.5 L 23.746094 22.816406 Z M 21.679688 18.675781 L 23.746094 23.066406 L 25.273438 19.746094 L 27.335938 24.75 L 27.46875 24.75 C 27.480469 24.746094 27.488281 24.746094 27.5 24.746094 L 28 24.746094 C 28.113281 24.746094 28.207031 24.820312 28.238281 24.921875 C 28.207031 24.820312 28.113281 24.75 28 24.75 L 27.5 24.75 C 27.488281 24.75 27.480469 24.75 27.46875 24.75 L 27.335938 24.75 L 25.273438 19.75 L 23.746094 23.066406 Z M 16.75 22.246094 L 17.25 22.246094 C 17.265625 22.246094 17.28125 22.25 17.296875 22.25 L 18.339844 22.25 L 17.296875 22.25 C 17.28125 22.25 17.265625 22.25 17.25 22.25 L 16.75 22.25 C 16.679688 22.25 16.617188 22.277344 16.574219 22.320312 C 16.617188 22.277344 16.679688 22.246094 16.75 22.246094 Z M 16.75 22.246094 "/>
<path style=" stroke:none;fill-rule:nonzero;fill:rgb(0.392157%,0.392157%,0.392157%);fill-opacity:0.4;" d="M 21.820312 21.078125 L 19.53125 27.683594 L 17.660156 23 L 16.75 23 C 16.613281 23 16.5 22.890625 16.5 22.75 L 16.5 23 C 16.5 23.015625 16.5 23.03125 16.503906 23.042969 C 16.5 23.03125 16.5 23.015625 16.5 23 L 16.5 23.246094 C 16.5 23.382812 16.613281 23.496094 16.75 23.496094 L 17.660156 23.496094 L 19.53125 28.179688 L 21.820312 21.574219 L 23.753906 25.679688 L 25.222656 22.496094 L 26.667969 26 L 28 26 L 28 25.996094 C 28.136719 25.996094 28.25 25.882812 28.25 25.746094 L 28.25 25.5 C 28.25 25.515625 28.25 25.527344 28.246094 25.542969 C 28.25 25.527344 28.25 25.515625 28.25 25.5 L 28.25 25.25 C 28.25 25.386719 28.136719 25.5 28 25.5 L 28 25.503906 L 26.667969 25.503906 L 25.222656 22 L 23.753906 25.1875 Z M 21.820312 21.078125 "/>
<path style=" stroke:none;fill-rule:nonzero;fill:url(#linear0);" d="M 4 2 L 28 2 C 29.105469 2 30 2.894531 30 4 L 30 28 C 30 29.105469 29.105469 30 28 30 L 4 30 C 2.894531 30 2 29.105469 2 28 L 2 4 C 2 2.894531 2.894531 2 4 2 Z M 4 2 "/>
</g>
</svg>
