
<svg xmlns="http://www.w3.org/2000/svg" xmlns:xlink="http://www.w3.org/1999/xlink" width="48" height="48" viewBox="0 0 48 48" version="1.1">
<defs>
<linearGradient id="linear0" gradientUnits="userSpaceOnUse" x1="8.466666" y1="-199.125" x2="8.466666" y2="-213.941666" gradientTransform="matrix(2.834646,0,0,2.834646,-0.00000947146,609.448851)">
<stop offset="0" style="stop-color:rgb(0%,0%,0%);stop-opacity:0.2;"/>
<stop offset="1" style="stop-color:rgb(100%,100%,100%);stop-opacity:0;"/>
</linearGradient>
</defs>
<g id="surface1">
<path style=" stroke:none;fill-rule:nonzero;fill:rgb(95.686275%,26.274511%,21.176471%);fill-opacity:1;" d="M 6 3 L 42 3 C 43.65625 3 45 4.34375 45 6 L 45 42 C 45 43.65625 43.65625 45 42 45 L 6 45 C 4.34375 45 3 43.65625 3 42 L 3 6 C 3 4.34375 4.34375 3 6 3 Z M 6 3 "/>
<path style=" stroke:none;fill-rule:nonzero;fill:rgb(0%,0%,0%);fill-opacity:0.4;" d="M 3 41.25 L 3 42 C 3 43.660156 4.339844 45 6 45 L 42 45 C 43.660156 45 45 43.660156 45 42 L 45 41.25 C 45 42.910156 43.660156 44.25 42 44.25 L 6 44.25 C 4.339844 44.25 3 42.910156 3 41.25 Z M 3 41.25 "/>
<path style=" stroke:none;fill-rule:nonzero;fill:rgb(0%,0%,0%);fill-opacity:0.2;" d="M 3 42 L 3 43.125 C 3 44.785156 4.339844 46.125 6 46.125 L 42 46.125 C 43.660156 46.125 45 44.785156 45 43.125 L 45 42 C 45 43.660156 43.660156 45 42 45 L 6 45 C 4.339844 45 3 43.660156 3 42 Z M 3 42 "/>
<path style=" stroke:none;fill-rule:nonzero;fill:rgb(100%,100%,100%);fill-opacity:0.4;" d="M 6 3 C 4.339844 3 3 4.339844 3 6 L 3 6.738281 C 3 5.078125 4.339844 3.738281 6 3.738281 L 42 3.738281 C 43.660156 3.738281 45 5.078125 45 6.738281 L 45 6 C 45 4.339844 43.660156 3 42 3 Z M 6 3 "/>
<path style=" stroke:none;fill-rule:nonzero;fill:rgb(93.333334%,93.333334%,93.333334%);fill-opacity:1;" d="M 25.5 30 L 22.5 30 C 21.671875 30 21 29.328125 21 28.5 L 21 10.5 C 21 9.671875 21.671875 9 22.5 9 L 25.5 9 C 26.328125 9 27 9.671875 27 10.5 L 27 28.5 C 27 29.328125 26.328125 30 25.5 30 Z M 25.5 30 "/>
<path style=" stroke:none;fill-rule:nonzero;fill:rgb(100%,100%,100%);fill-opacity:0.6;" d="M 22.5 9 C 21.667969 9 21 9.667969 21 10.5 L 21 11.25 C 21 10.417969 21.667969 9.75 22.5 9.75 L 25.5 9.75 C 26.332031 9.75 27 10.417969 27 11.25 L 27 10.5 C 27 9.667969 26.332031 9 25.5 9 Z M 22.5 9 "/>
<path style=" stroke:none;fill-rule:nonzero;fill:rgb(0.392157%,0.392157%,0.392157%);fill-opacity:0.4;" d="M 22.5 30.75 C 21.667969 30.75 21 30.082031 21 29.25 L 21 28.5 C 21 29.332031 21.667969 30 22.5 30 L 25.5 30 C 26.332031 30 27 29.332031 27 28.5 L 27 29.25 C 27 30.082031 26.332031 30.75 25.5 30.75 Z M 22.5 30.75 "/>
<path style=" stroke:none;fill-rule:nonzero;fill:rgb(93.333334%,93.333334%,93.333334%);fill-opacity:1;" d="M 22.5 33 L 25.5 33 C 26.328125 33 27 33.671875 27 34.5 L 27 37.5 C 27 38.328125 26.328125 39 25.5 39 L 22.5 39 C 21.671875 39 21 38.328125 21 37.5 L 21 34.5 C 21 33.671875 21.671875 33 22.5 33 Z M 22.5 33 "/>
<path style=" stroke:none;fill-rule:nonzero;fill:rgb(99.607843%,99.607843%,99.607843%);fill-opacity:0.6;" d="M 22.5 33 C 21.667969 33 21 33.667969 21 34.5 L 21 35.25 C 21 34.417969 21.667969 33.75 22.5 33.75 L 25.5 33.75 C 26.332031 33.75 27 34.417969 27 35.25 L 27 34.5 C 27 33.667969 26.332031 33 25.5 33 Z M 22.5 33 "/>
<path style=" stroke:none;fill-rule:nonzero;fill:rgb(0%,0%,0%);fill-opacity:0.4;" d="M 22.5 39.75 C 21.667969 39.75 21 39.082031 21 38.25 L 21 37.5 C 21 38.332031 21.667969 39 22.5 39 L 25.5 39 C 26.332031 39 27 38.332031 27 37.5 L 27 38.25 C 27 39.082031 26.332031 39.75 25.5 39.75 Z M 22.5 39.75 "/>
<path style=" stroke:none;fill-rule:nonzero;fill:url(#linear0);" d="M 6 3 L 42 3 C 43.65625 3 45 4.34375 45 6 L 45 42 C 45 43.65625 43.65625 45 42 45 L 6 45 C 4.34375 45 3 43.65625 3 42 L 3 6 C 3 4.34375 4.34375 3 6 3 Z M 6 3 "/>
</g>
</svg>
