
<svg xmlns="http://www.w3.org/2000/svg" xmlns:xlink="http://www.w3.org/1999/xlink" width="32" height="32" viewBox="0 0 32 32" version="1.1">
<defs>
<linearGradient id="linear0" gradientUnits="userSpaceOnUse" x1="32" y1="59.999996" x2="31.999998" y2="3.999999" gradientTransform="matrix(0.5,0,0,0.5,0,0)">
<stop offset="0" style="stop-color:rgb(0%,0%,0%);stop-opacity:0.2;"/>
<stop offset="1" style="stop-color:rgb(100%,100%,100%);stop-opacity:0;"/>
</linearGradient>
</defs>
<g id="surface1">
<path style=" stroke:none;fill-rule:nonzero;fill:rgb(38.039216%,38.039216%,38.039216%);fill-opacity:0.996078;" d="M 7 7 L 25 7 C 26.105469 7 27 7.894531 27 9 L 27 22 C 27 23.105469 26.105469 24 25 24 L 7 24 C 5.894531 24 5 23.105469 5 22 L 5 9 C 5 7.894531 5.894531 7 7 7 Z M 7 7 "/>
<path style=" stroke:none;fill-rule:nonzero;fill:rgb(38.039216%,38.039216%,38.039216%);fill-opacity:0.996078;" d="M 5 2 L 27 2 C 28.105469 2 29 2.894531 29 4 L 29 9 C 29 10.105469 28.105469 11 27 11 L 5 11 C 3.894531 11 3 10.105469 3 9 L 3 4 C 3 2.894531 3.894531 2 5 2 Z M 5 2 "/>
<path style=" stroke:none;fill-rule:nonzero;fill:rgb(40.000001%,73.333335%,41.568628%);fill-opacity:0.996078;" d="M 6 5.5 C 6.550781 5.5 7 5.949219 7 6.5 C 7 7.050781 6.550781 7.5 6 7.5 C 5.449219 7.5 5 7.050781 5 6.5 C 5 5.949219 5.449219 5.5 6 5.5 Z M 6 5.5 "/>
<path style=" stroke:none;fill-rule:nonzero;fill:rgb(0%,0%,0%);fill-opacity:0.4;" d="M 5.972656 5.5 C 5.433594 5.511719 5 5.953125 5 6.5 C 5 6.542969 5.003906 6.585938 5.007812 6.625 C 5.070312 6.128906 5.488281 5.75 6 5.75 C 6.511719 5.75 6.929688 6.128906 6.992188 6.625 C 6.996094 6.585938 7 6.542969 7 6.5 C 7 5.945312 6.554688 5.5 6 5.5 C 5.992188 5.5 5.980469 5.5 5.972656 5.5 Z M 5.972656 5.5 "/>
<path style=" stroke:none;fill-rule:nonzero;fill:rgb(100%,100%,100%);fill-opacity:0.4;" d="M 5.972656 7.75 C 5.433594 7.738281 5 7.296875 5 6.75 C 5 6.707031 5.003906 6.664062 5.007812 6.625 C 5.070312 7.121094 5.488281 7.5 6 7.5 C 6.511719 7.5 6.929688 7.121094 6.992188 6.625 C 6.996094 6.664062 7 6.707031 7 6.75 C 7 7.304688 6.554688 7.75 6 7.75 C 5.992188 7.75 5.980469 7.75 5.972656 7.75 Z M 5.972656 7.75 "/>
<path style=" stroke:none;fill-rule:nonzero;fill:rgb(100%,65.490198%,14.901961%);fill-opacity:0.996078;" d="M 9.027344 5.5 C 9.578125 5.5 10.027344 5.949219 10.027344 6.5 C 10.027344 7.050781 9.578125 7.5 9.027344 7.5 C 8.472656 7.5 8.027344 7.050781 8.027344 6.5 C 8.027344 5.949219 8.472656 5.5 9.027344 5.5 Z M 9.027344 5.5 "/>
<path style=" stroke:none;fill-rule:nonzero;fill:rgb(0%,0%,0%);fill-opacity:0.4;" d="M 9 5.5 C 8.457031 5.511719 8.027344 5.953125 8.027344 6.5 C 8.027344 6.542969 8.027344 6.585938 8.035156 6.625 C 8.09375 6.128906 8.515625 5.75 9.027344 5.75 C 9.539062 5.75 9.957031 6.128906 10.019531 6.625 C 10.023438 6.585938 10.027344 6.542969 10.027344 6.5 C 10.027344 5.945312 9.582031 5.5 9.027344 5.5 C 9.019531 5.5 9.007812 5.5 9 5.5 Z M 9 5.5 "/>
<path style=" stroke:none;fill-rule:nonzero;fill:rgb(100%,100%,100%);fill-opacity:0.4;" d="M 9 7.75 C 8.457031 7.738281 8.027344 7.296875 8.027344 6.75 C 8.027344 6.707031 8.027344 6.664062 8.035156 6.625 C 8.09375 7.121094 8.515625 7.5 9.027344 7.5 C 9.539062 7.5 9.957031 7.121094 10.019531 6.625 C 10.023438 6.664062 10.027344 6.707031 10.027344 6.75 C 10.027344 7.304688 9.582031 7.75 9.027344 7.75 C 9.019531 7.75 9.007812 7.75 9 7.75 Z M 9 7.75 "/>
<path style=" stroke:none;fill-rule:nonzero;fill:rgb(95.686275%,26.274511%,21.176471%);fill-opacity:0.996078;" d="M 12.027344 5.5 C 12.578125 5.5 13.027344 5.949219 13.027344 6.5 C 13.027344 7.050781 12.578125 7.5 12.027344 7.5 C 11.472656 7.5 11.027344 7.050781 11.027344 6.5 C 11.027344 5.949219 11.472656 5.5 12.027344 5.5 Z M 12.027344 5.5 "/>
<path style=" stroke:none;fill-rule:nonzero;fill:rgb(0%,0%,0%);fill-opacity:0.4;" d="M 12 5.5 C 11.457031 5.511719 11.027344 5.953125 11.027344 6.5 C 11.027344 6.542969 11.027344 6.585938 11.035156 6.625 C 11.09375 6.128906 11.515625 5.75 12.027344 5.75 C 12.539062 5.75 12.957031 6.128906 13.019531 6.625 C 13.023438 6.585938 13.027344 6.542969 13.027344 6.5 C 13.027344 5.945312 12.582031 5.5 12.027344 5.5 C 12.019531 5.5 12.007812 5.5 12 5.5 Z M 12 5.5 "/>
<path style=" stroke:none;fill-rule:nonzero;fill:rgb(100%,100%,100%);fill-opacity:0.4;" d="M 12 7.75 C 11.457031 7.738281 11.027344 7.296875 11.027344 6.75 C 11.027344 6.707031 11.027344 6.664062 11.035156 6.625 C 11.09375 7.121094 11.515625 7.5 12.027344 7.5 C 12.539062 7.5 12.957031 7.121094 13.019531 6.625 C 13.023438 6.664062 13.027344 6.707031 13.027344 6.75 C 13.027344 7.304688 12.582031 7.75 12.027344 7.75 C 12.019531 7.75 12.007812 7.75 12 7.75 Z M 12 7.75 "/>
<path style=" stroke:none;fill-rule:nonzero;fill:rgb(100%,100%,100%);fill-opacity:0.4;" d="M 5 2 C 3.890625 2 3 2.890625 3 4 L 3 4.5 C 3 3.390625 3.890625 2.5 5 2.5 L 27 2.5 C 28.109375 2.5 29 3.390625 29 4.5 L 29 4 C 29 2.890625 28.109375 2 27 2 Z M 5 2 "/>
<path style=" stroke:none;fill-rule:nonzero;fill:rgb(0%,0%,0%);fill-opacity:0.4;" d="M 5 11.003906 C 3.890625 11.003906 3 10.109375 3 9.003906 L 3 8.503906 C 3 9.609375 3.890625 10.503906 5 10.503906 L 27 10.503906 C 28.109375 10.503906 29 9.609375 29 8.503906 L 29 9.003906 C 29 10.109375 28.109375 11.003906 27 11.003906 Z M 5 11.003906 "/>
<path style=" stroke:none;fill-rule:nonzero;fill:rgb(38.039216%,38.039216%,38.039216%);fill-opacity:0.996078;" d="M 5 21 L 27 21 C 28.105469 21 29 21.894531 29 23 L 29 28 C 29 29.105469 28.105469 30 27 30 L 5 30 C 3.894531 30 3 29.105469 3 28 L 3 23 C 3 21.894531 3.894531 21 5 21 Z M 5 21 "/>
<path style=" stroke:none;fill-rule:nonzero;fill:rgb(38.039216%,38.039216%,38.039216%);fill-opacity:0.996078;" d="M 5 11.5 L 27 11.5 C 28.105469 11.5 29 12.394531 29 13.5 L 29 18.5 C 29 19.605469 28.105469 20.5 27 20.5 L 5 20.5 C 3.894531 20.5 3 19.605469 3 18.5 L 3 13.5 C 3 12.394531 3.894531 11.5 5 11.5 Z M 5 11.5 "/>
<path style=" stroke:none;fill-rule:nonzero;fill:rgb(100%,100%,100%);fill-opacity:0.4;" d="M 5 11.496094 C 3.890625 11.496094 3 12.390625 3 13.496094 L 3 13.996094 C 3 12.890625 3.890625 11.996094 5 11.996094 L 27 11.996094 C 28.109375 11.996094 29 12.890625 29 13.996094 L 29 13.496094 C 29 12.390625 28.109375 11.496094 27 11.496094 Z M 5 11.496094 "/>
<path style=" stroke:none;fill-rule:nonzero;fill:rgb(0%,0%,0%);fill-opacity:0.4;" d="M 5 20.5 C 3.890625 20.5 3 19.609375 3 18.5 L 3 18 C 3 19.109375 3.890625 20 5 20 L 27 20 C 28.109375 20 29 19.109375 29 18 L 29 18.5 C 29 19.609375 28.109375 20.5 27 20.5 Z M 5 20.5 "/>
<path style=" stroke:none;fill-rule:nonzero;fill:rgb(100%,100%,100%);fill-opacity:0.4;" d="M 5 20.980469 C 3.890625 20.980469 3 21.875 3 22.980469 L 3 23.480469 C 3 22.375 3.890625 21.480469 5 21.480469 L 27 21.480469 C 28.109375 21.480469 29 22.375 29 23.480469 L 29 22.980469 C 29 21.875 28.109375 20.980469 27 20.980469 Z M 5 20.980469 "/>
<path style=" stroke:none;fill-rule:nonzero;fill:rgb(0%,0%,0%);fill-opacity:0.4;" d="M 5 29.984375 C 3.890625 29.984375 3 29.09375 3 27.984375 L 3 27.484375 C 3 28.59375 3.890625 29.484375 5 29.484375 L 27 29.484375 C 28.109375 29.484375 29 28.59375 29 27.484375 L 29 27.984375 C 29 29.09375 28.109375 29.984375 27 29.984375 Z M 5 29.984375 "/>
<path style=" stroke:none;fill-rule:nonzero;fill:rgb(40.000001%,73.333335%,41.568628%);fill-opacity:0.996078;" d="M 6 15 C 6.550781 15 7 15.449219 7 16 C 7 16.550781 6.550781 17 6 17 C 5.449219 17 5 16.550781 5 16 C 5 15.449219 5.449219 15 6 15 Z M 6 15 "/>
<path style=" stroke:none;fill-rule:nonzero;fill:rgb(0%,0%,0%);fill-opacity:0.4;" d="M 5.972656 15 C 5.433594 15.011719 5 15.453125 5 16 C 5 16.042969 5.003906 16.085938 5.007812 16.125 C 5.070312 15.628906 5.488281 15.25 6 15.25 C 6.511719 15.25 6.929688 15.628906 6.992188 16.125 C 6.996094 16.085938 7 16.042969 7 16 C 7 15.445312 6.554688 15 6 15 C 5.992188 15 5.980469 15 5.972656 15 Z M 5.972656 15 "/>
<path style=" stroke:none;fill-rule:nonzero;fill:rgb(100%,100%,100%);fill-opacity:0.4;" d="M 5.972656 17.25 C 5.433594 17.238281 5 16.796875 5 16.25 C 5 16.207031 5.003906 16.164062 5.007812 16.125 C 5.070312 16.621094 5.488281 17 6 17 C 6.511719 17 6.929688 16.621094 6.992188 16.125 C 6.996094 16.164062 7 16.207031 7 16.25 C 7 16.804688 6.554688 17.25 6 17.25 C 5.992188 17.25 5.980469 17.25 5.972656 17.25 Z M 5.972656 17.25 "/>
<path style=" stroke:none;fill-rule:nonzero;fill:rgb(100%,65.490198%,14.901961%);fill-opacity:0.996078;" d="M 9.027344 15 C 9.578125 15 10.027344 15.449219 10.027344 16 C 10.027344 16.550781 9.578125 17 9.027344 17 C 8.472656 17 8.027344 16.550781 8.027344 16 C 8.027344 15.449219 8.472656 15 9.027344 15 Z M 9.027344 15 "/>
<path style=" stroke:none;fill-rule:nonzero;fill:rgb(0%,0%,0%);fill-opacity:0.4;" d="M 9 15 C 8.457031 15.011719 8.027344 15.453125 8.027344 16 C 8.027344 16.042969 8.027344 16.085938 8.035156 16.125 C 8.09375 15.628906 8.515625 15.25 9.027344 15.25 C 9.539062 15.25 9.957031 15.628906 10.019531 16.125 C 10.023438 16.085938 10.027344 16.042969 10.027344 16 C 10.027344 15.445312 9.582031 15 9.027344 15 C 9.019531 15 9.007812 15 9 15 Z M 9 15 "/>
<path style=" stroke:none;fill-rule:nonzero;fill:rgb(100%,100%,100%);fill-opacity:0.4;" d="M 9 17.25 C 8.457031 17.238281 8.027344 16.796875 8.027344 16.25 C 8.027344 16.207031 8.027344 16.164062 8.035156 16.125 C 8.09375 16.621094 8.515625 17 9.027344 17 C 9.539062 17 9.957031 16.621094 10.019531 16.125 C 10.023438 16.164062 10.027344 16.207031 10.027344 16.25 C 10.027344 16.804688 9.582031 17.25 9.027344 17.25 C 9.019531 17.25 9.007812 17.25 9 17.25 Z M 9 17.25 "/>
<path style=" stroke:none;fill-rule:nonzero;fill:rgb(95.686275%,26.274511%,21.176471%);fill-opacity:0.996078;" d="M 12.027344 15 C 12.578125 15 13.027344 15.449219 13.027344 16 C 13.027344 16.550781 12.578125 17 12.027344 17 C 11.472656 17 11.027344 16.550781 11.027344 16 C 11.027344 15.449219 11.472656 15 12.027344 15 Z M 12.027344 15 "/>
<path style=" stroke:none;fill-rule:nonzero;fill:rgb(0%,0%,0%);fill-opacity:0.4;" d="M 12 15 C 11.457031 15.011719 11.027344 15.453125 11.027344 16 C 11.027344 16.042969 11.027344 16.085938 11.035156 16.125 C 11.09375 15.628906 11.515625 15.25 12.027344 15.25 C 12.539062 15.25 12.957031 15.628906 13.019531 16.125 C 13.023438 16.085938 13.027344 16.042969 13.027344 16 C 13.027344 15.445312 12.582031 15 12.027344 15 C 12.019531 15 12.007812 15 12 15 Z M 12 15 "/>
<path style=" stroke:none;fill-rule:nonzero;fill:rgb(100%,100%,100%);fill-opacity:0.4;" d="M 12 17.25 C 11.457031 17.238281 11.027344 16.796875 11.027344 16.25 C 11.027344 16.207031 11.027344 16.164062 11.035156 16.125 C 11.09375 16.621094 11.515625 17 12.027344 17 C 12.539062 17 12.957031 16.621094 13.019531 16.125 C 13.023438 16.164062 13.027344 16.207031 13.027344 16.25 C 13.027344 16.804688 12.582031 17.25 12.027344 17.25 C 12.019531 17.25 12.007812 17.25 12 17.25 Z M 12 17.25 "/>
<path style=" stroke:none;fill-rule:nonzero;fill:rgb(40.000001%,73.333335%,41.568628%);fill-opacity:0.996078;" d="M 6 24.5 C 6.550781 24.5 7 24.949219 7 25.5 C 7 26.050781 6.550781 26.5 6 26.5 C 5.449219 26.5 5 26.050781 5 25.5 C 5 24.949219 5.449219 24.5 6 24.5 Z M 6 24.5 "/>
<path style=" stroke:none;fill-rule:nonzero;fill:rgb(0%,0%,0%);fill-opacity:0.4;" d="M 5.972656 24.5 C 5.433594 24.511719 5 24.953125 5 25.5 C 5 25.542969 5.003906 25.585938 5.007812 25.625 C 5.070312 25.128906 5.488281 24.75 6 24.75 C 6.511719 24.75 6.929688 25.128906 6.992188 25.625 C 6.996094 25.585938 7 25.542969 7 25.5 C 7 24.945312 6.554688 24.5 6 24.5 C 5.992188 24.5 5.980469 24.5 5.972656 24.5 Z M 5.972656 24.5 "/>
<path style=" stroke:none;fill-rule:nonzero;fill:rgb(100%,100%,100%);fill-opacity:0.4;" d="M 5.972656 26.75 C 5.433594 26.738281 5 26.296875 5 25.75 C 5 25.707031 5.003906 25.664062 5.007812 25.625 C 5.070312 26.121094 5.488281 26.5 6 26.5 C 6.511719 26.5 6.929688 26.121094 6.992188 25.625 C 6.996094 25.664062 7 25.707031 7 25.75 C 7 26.304688 6.554688 26.75 6 26.75 C 5.992188 26.75 5.980469 26.75 5.972656 26.75 Z M 5.972656 26.75 "/>
<path style=" stroke:none;fill-rule:nonzero;fill:rgb(100%,65.490198%,14.901961%);fill-opacity:0.996078;" d="M 9.027344 24.5 C 9.578125 24.5 10.027344 24.949219 10.027344 25.5 C 10.027344 26.050781 9.578125 26.5 9.027344 26.5 C 8.472656 26.5 8.027344 26.050781 8.027344 25.5 C 8.027344 24.949219 8.472656 24.5 9.027344 24.5 Z M 9.027344 24.5 "/>
<path style=" stroke:none;fill-rule:nonzero;fill:rgb(0%,0%,0%);fill-opacity:0.4;" d="M 9 24.5 C 8.457031 24.511719 8.027344 24.953125 8.027344 25.5 C 8.027344 25.542969 8.027344 25.585938 8.035156 25.625 C 8.09375 25.128906 8.515625 24.75 9.027344 24.75 C 9.539062 24.75 9.957031 25.128906 10.019531 25.625 C 10.023438 25.585938 10.027344 25.542969 10.027344 25.5 C 10.027344 24.945312 9.582031 24.5 9.027344 24.5 C 9.019531 24.5 9.007812 24.5 9 24.5 Z M 9 24.5 "/>
<path style=" stroke:none;fill-rule:nonzero;fill:rgb(100%,100%,100%);fill-opacity:0.4;" d="M 9 26.75 C 8.457031 26.738281 8.027344 26.296875 8.027344 25.75 C 8.027344 25.707031 8.027344 25.664062 8.035156 25.625 C 8.09375 26.121094 8.515625 26.5 9.027344 26.5 C 9.539062 26.5 9.957031 26.121094 10.019531 25.625 C 10.023438 25.664062 10.027344 25.707031 10.027344 25.75 C 10.027344 26.304688 9.582031 26.75 9.027344 26.75 C 9.019531 26.75 9.007812 26.75 9 26.75 Z M 9 26.75 "/>
<path style=" stroke:none;fill-rule:nonzero;fill:rgb(95.686275%,26.274511%,21.176471%);fill-opacity:0.996078;" d="M 12.027344 24.5 C 12.578125 24.5 13.027344 24.949219 13.027344 25.5 C 13.027344 26.050781 12.578125 26.5 12.027344 26.5 C 11.472656 26.5 11.027344 26.050781 11.027344 25.5 C 11.027344 24.949219 11.472656 24.5 12.027344 24.5 Z M 12.027344 24.5 "/>
<path style=" stroke:none;fill-rule:nonzero;fill:rgb(0%,0%,0%);fill-opacity:0.4;" d="M 12 24.5 C 11.457031 24.511719 11.027344 24.953125 11.027344 25.5 C 11.027344 25.542969 11.027344 25.585938 11.035156 25.625 C 11.09375 25.128906 11.515625 24.75 12.027344 24.75 C 12.539062 24.75 12.957031 25.128906 13.019531 25.625 C 13.023438 25.585938 13.027344 25.542969 13.027344 25.5 C 13.027344 24.945312 12.582031 24.5 12.027344 24.5 C 12.019531 24.5 12.007812 24.5 12 24.5 Z M 12 24.5 "/>
<path style=" stroke:none;fill-rule:nonzero;fill:rgb(100%,100%,100%);fill-opacity:0.4;" d="M 12 26.75 C 11.457031 26.738281 11.027344 26.296875 11.027344 25.75 C 11.027344 25.707031 11.027344 25.664062 11.035156 25.625 C 11.09375 26.121094 11.515625 26.5 12.027344 26.5 C 12.539062 26.5 12.957031 26.121094 13.019531 25.625 C 13.023438 25.664062 13.027344 25.707031 13.027344 25.75 C 13.027344 26.304688 12.582031 26.75 12.027344 26.75 C 12.019531 26.75 12.007812 26.75 12 26.75 Z M 12 26.75 "/>
<path style=" stroke:none;fill-rule:nonzero;fill:rgb(0%,0%,0%);fill-opacity:0.2;" d="M 3 28 L 3 28.75 C 3 29.859375 3.890625 30.75 5 30.75 L 27 30.75 C 28.109375 30.75 29 29.859375 29 28.75 L 29 28 C 29 29.109375 28.109375 30 27 30 L 5 30 C 3.890625 30 3 29.109375 3 28 Z M 3 28 "/>
<path style=" stroke:none;fill-rule:nonzero;fill:rgb(0%,0%,0%);fill-opacity:0.4;" d="M 19.5 3 C 19.777344 3 20 3.222656 20 3.5 L 20 9.5 C 20 9.777344 19.777344 10 19.5 10 C 19.222656 10 19 9.777344 19 9.5 L 19 3.5 C 19 3.222656 19.222656 3 19.5 3 Z M 19.5 3 "/>
<path style=" stroke:none;fill-rule:nonzero;fill:rgb(0%,0%,0%);fill-opacity:0.4;" d="M 19.5 3 C 19.222656 3 19 3.222656 19 3.5 L 19 4 C 19 3.722656 19.222656 3.5 19.5 3.5 C 19.777344 3.5 20 3.722656 20 4 L 20 3.5 C 20 3.222656 19.777344 3 19.5 3 Z M 19.5 3 "/>
<path style=" stroke:none;fill-rule:nonzero;fill:rgb(100%,100%,100%);fill-opacity:0.4;" d="M 19.5 10.5 C 19.222656 10.5 19 10.277344 19 10 L 19 9.5 C 19 9.777344 19.222656 10 19.5 10 C 19.777344 10 20 9.777344 20 9.5 L 20 10 C 20 10.277344 19.777344 10.5 19.5 10.5 Z M 19.5 10.5 "/>
<path style=" stroke:none;fill-rule:nonzero;fill:rgb(0%,0%,0%);fill-opacity:0.4;" d="M 21.5 3 C 21.777344 3 22 3.222656 22 3.5 L 22 9.5 C 22 9.777344 21.777344 10 21.5 10 C 21.222656 10 21 9.777344 21 9.5 L 21 3.5 C 21 3.222656 21.222656 3 21.5 3 Z M 21.5 3 "/>
<path style=" stroke:none;fill-rule:nonzero;fill:rgb(0%,0%,0%);fill-opacity:0.4;" d="M 21.5 3 C 21.222656 3 21 3.222656 21 3.5 L 21 4 C 21 3.722656 21.222656 3.5 21.5 3.5 C 21.777344 3.5 22 3.722656 22 4 L 22 3.5 C 22 3.222656 21.777344 3 21.5 3 Z M 21.5 3 "/>
<path style=" stroke:none;fill-rule:nonzero;fill:rgb(100%,100%,100%);fill-opacity:0.4;" d="M 21.5 10.5 C 21.222656 10.5 21 10.277344 21 10 L 21 9.5 C 21 9.777344 21.222656 10 21.5 10 C 21.777344 10 22 9.777344 22 9.5 L 22 10 C 22 10.277344 21.777344 10.5 21.5 10.5 Z M 21.5 10.5 "/>
<path style=" stroke:none;fill-rule:nonzero;fill:rgb(0%,0%,0%);fill-opacity:0.4;" d="M 23.5 3 C 23.777344 3 24 3.222656 24 3.5 L 24 9.5 C 24 9.777344 23.777344 10 23.5 10 C 23.222656 10 23 9.777344 23 9.5 L 23 3.5 C 23 3.222656 23.222656 3 23.5 3 Z M 23.5 3 "/>
<path style=" stroke:none;fill-rule:nonzero;fill:rgb(0%,0%,0%);fill-opacity:0.4;" d="M 23.5 3 C 23.222656 3 23 3.222656 23 3.5 L 23 4 C 23 3.722656 23.222656 3.5 23.5 3.5 C 23.777344 3.5 24 3.722656 24 4 L 24 3.5 C 24 3.222656 23.777344 3 23.5 3 Z M 23.5 3 "/>
<path style=" stroke:none;fill-rule:nonzero;fill:rgb(100%,100%,100%);fill-opacity:0.4;" d="M 23.5 10.5 C 23.222656 10.5 23 10.277344 23 10 L 23 9.5 C 23 9.777344 23.222656 10 23.5 10 C 23.777344 10 24 9.777344 24 9.5 L 24 10 C 24 10.277344 23.777344 10.5 23.5 10.5 Z M 23.5 10.5 "/>
<path style=" stroke:none;fill-rule:nonzero;fill:rgb(0%,0%,0%);fill-opacity:0.4;" d="M 25.5 3 C 25.777344 3 26 3.222656 26 3.5 L 26 9.5 C 26 9.777344 25.777344 10 25.5 10 C 25.222656 10 25 9.777344 25 9.5 L 25 3.5 C 25 3.222656 25.222656 3 25.5 3 Z M 25.5 3 "/>
<path style=" stroke:none;fill-rule:nonzero;fill:rgb(0%,0%,0%);fill-opacity:0.4;" d="M 25.5 3 C 25.222656 3 25 3.222656 25 3.5 L 25 4 C 25 3.722656 25.222656 3.5 25.5 3.5 C 25.777344 3.5 26 3.722656 26 4 L 26 3.5 C 26 3.222656 25.777344 3 25.5 3 Z M 25.5 3 "/>
<path style=" stroke:none;fill-rule:nonzero;fill:rgb(100%,100%,100%);fill-opacity:0.4;" d="M 25.5 10.5 C 25.222656 10.5 25 10.277344 25 10 L 25 9.5 C 25 9.777344 25.222656 10 25.5 10 C 25.777344 10 26 9.777344 26 9.5 L 26 10 C 26 10.277344 25.777344 10.5 25.5 10.5 Z M 25.5 10.5 "/>
<path style=" stroke:none;fill-rule:nonzero;fill:rgb(0%,0%,0%);fill-opacity:0.4;" d="M 19.5 12.5 C 19.777344 12.5 20 12.722656 20 13 L 20 19 C 20 19.277344 19.777344 19.5 19.5 19.5 C 19.222656 19.5 19 19.277344 19 19 L 19 13 C 19 12.722656 19.222656 12.5 19.5 12.5 Z M 19.5 12.5 "/>
<path style=" stroke:none;fill-rule:nonzero;fill:rgb(0%,0%,0%);fill-opacity:0.4;" d="M 19.5 12.5 C 19.222656 12.5 19 12.722656 19 13 L 19 13.5 C 19 13.222656 19.222656 13 19.5 13 C 19.777344 13 20 13.222656 20 13.5 L 20 13 C 20 12.722656 19.777344 12.5 19.5 12.5 Z M 19.5 12.5 "/>
<path style=" stroke:none;fill-rule:nonzero;fill:rgb(100%,100%,100%);fill-opacity:0.4;" d="M 19.5 20 C 19.222656 20 19 19.777344 19 19.5 L 19 19 C 19 19.277344 19.222656 19.5 19.5 19.5 C 19.777344 19.5 20 19.277344 20 19 L 20 19.5 C 20 19.777344 19.777344 20 19.5 20 Z M 19.5 20 "/>
<path style=" stroke:none;fill-rule:nonzero;fill:rgb(0%,0%,0%);fill-opacity:0.4;" d="M 21.5 12.5 C 21.777344 12.5 22 12.722656 22 13 L 22 19 C 22 19.277344 21.777344 19.5 21.5 19.5 C 21.222656 19.5 21 19.277344 21 19 L 21 13 C 21 12.722656 21.222656 12.5 21.5 12.5 Z M 21.5 12.5 "/>
<path style=" stroke:none;fill-rule:nonzero;fill:rgb(0%,0%,0%);fill-opacity:0.4;" d="M 21.5 12.5 C 21.222656 12.5 21 12.722656 21 13 L 21 13.5 C 21 13.222656 21.222656 13 21.5 13 C 21.777344 13 22 13.222656 22 13.5 L 22 13 C 22 12.722656 21.777344 12.5 21.5 12.5 Z M 21.5 12.5 "/>
<path style=" stroke:none;fill-rule:nonzero;fill:rgb(100%,100%,100%);fill-opacity:0.4;" d="M 21.5 20 C 21.222656 20 21 19.777344 21 19.5 L 21 19 C 21 19.277344 21.222656 19.5 21.5 19.5 C 21.777344 19.5 22 19.277344 22 19 L 22 19.5 C 22 19.777344 21.777344 20 21.5 20 Z M 21.5 20 "/>
<path style=" stroke:none;fill-rule:nonzero;fill:rgb(0%,0%,0%);fill-opacity:0.4;" d="M 23.5 12.5 C 23.777344 12.5 24 12.722656 24 13 L 24 19 C 24 19.277344 23.777344 19.5 23.5 19.5 C 23.222656 19.5 23 19.277344 23 19 L 23 13 C 23 12.722656 23.222656 12.5 23.5 12.5 Z M 23.5 12.5 "/>
<path style=" stroke:none;fill-rule:nonzero;fill:rgb(0%,0%,0%);fill-opacity:0.4;" d="M 23.5 12.5 C 23.222656 12.5 23 12.722656 23 13 L 23 13.5 C 23 13.222656 23.222656 13 23.5 13 C 23.777344 13 24 13.222656 24 13.5 L 24 13 C 24 12.722656 23.777344 12.5 23.5 12.5 Z M 23.5 12.5 "/>
<path style=" stroke:none;fill-rule:nonzero;fill:rgb(100%,100%,100%);fill-opacity:0.4;" d="M 23.5 20 C 23.222656 20 23 19.777344 23 19.5 L 23 19 C 23 19.277344 23.222656 19.5 23.5 19.5 C 23.777344 19.5 24 19.277344 24 19 L 24 19.5 C 24 19.777344 23.777344 20 23.5 20 Z M 23.5 20 "/>
<path style=" stroke:none;fill-rule:nonzero;fill:rgb(0%,0%,0%);fill-opacity:0.4;" d="M 25.5 12.5 C 25.777344 12.5 26 12.722656 26 13 L 26 19 C 26 19.277344 25.777344 19.5 25.5 19.5 C 25.222656 19.5 25 19.277344 25 19 L 25 13 C 25 12.722656 25.222656 12.5 25.5 12.5 Z M 25.5 12.5 "/>
<path style=" stroke:none;fill-rule:nonzero;fill:rgb(0%,0%,0%);fill-opacity:0.4;" d="M 25.5 12.5 C 25.222656 12.5 25 12.722656 25 13 L 25 13.5 C 25 13.222656 25.222656 13 25.5 13 C 25.777344 13 26 13.222656 26 13.5 L 26 13 C 26 12.722656 25.777344 12.5 25.5 12.5 Z M 25.5 12.5 "/>
<path style=" stroke:none;fill-rule:nonzero;fill:rgb(100%,100%,100%);fill-opacity:0.4;" d="M 25.5 20 C 25.222656 20 25 19.777344 25 19.5 L 25 19 C 25 19.277344 25.222656 19.5 25.5 19.5 C 25.777344 19.5 26 19.277344 26 19 L 26 19.5 C 26 19.777344 25.777344 20 25.5 20 Z M 25.5 20 "/>
<path style=" stroke:none;fill-rule:nonzero;fill:rgb(0%,0%,0%);fill-opacity:0.4;" d="M 19.5 22 C 19.777344 22 20 22.222656 20 22.5 L 20 28.5 C 20 28.777344 19.777344 29 19.5 29 C 19.222656 29 19 28.777344 19 28.5 L 19 22.5 C 19 22.222656 19.222656 22 19.5 22 Z M 19.5 22 "/>
<path style=" stroke:none;fill-rule:nonzero;fill:rgb(0%,0%,0%);fill-opacity:0.4;" d="M 19.5 22 C 19.222656 22 19 22.222656 19 22.5 L 19 23 C 19 22.722656 19.222656 22.5 19.5 22.5 C 19.777344 22.5 20 22.722656 20 23 L 20 22.5 C 20 22.222656 19.777344 22 19.5 22 Z M 19.5 22 "/>
<path style=" stroke:none;fill-rule:nonzero;fill:rgb(100%,100%,100%);fill-opacity:0.4;" d="M 19.5 29.5 C 19.222656 29.5 19 29.277344 19 29 L 19 28.5 C 19 28.777344 19.222656 29 19.5 29 C 19.777344 29 20 28.777344 20 28.5 L 20 29 C 20 29.277344 19.777344 29.5 19.5 29.5 Z M 19.5 29.5 "/>
<path style=" stroke:none;fill-rule:nonzero;fill:rgb(0%,0%,0%);fill-opacity:0.4;" d="M 21.5 22 C 21.777344 22 22 22.222656 22 22.5 L 22 28.5 C 22 28.777344 21.777344 29 21.5 29 C 21.222656 29 21 28.777344 21 28.5 L 21 22.5 C 21 22.222656 21.222656 22 21.5 22 Z M 21.5 22 "/>
<path style=" stroke:none;fill-rule:nonzero;fill:rgb(0%,0%,0%);fill-opacity:0.4;" d="M 21.5 22 C 21.222656 22 21 22.222656 21 22.5 L 21 23 C 21 22.722656 21.222656 22.5 21.5 22.5 C 21.777344 22.5 22 22.722656 22 23 L 22 22.5 C 22 22.222656 21.777344 22 21.5 22 Z M 21.5 22 "/>
<path style=" stroke:none;fill-rule:nonzero;fill:rgb(100%,100%,100%);fill-opacity:0.4;" d="M 21.5 29.5 C 21.222656 29.5 21 29.277344 21 29 L 21 28.5 C 21 28.777344 21.222656 29 21.5 29 C 21.777344 29 22 28.777344 22 28.5 L 22 29 C 22 29.277344 21.777344 29.5 21.5 29.5 Z M 21.5 29.5 "/>
<path style=" stroke:none;fill-rule:nonzero;fill:rgb(0%,0%,0%);fill-opacity:0.4;" d="M 23.5 22 C 23.777344 22 24 22.222656 24 22.5 L 24 28.5 C 24 28.777344 23.777344 29 23.5 29 C 23.222656 29 23 28.777344 23 28.5 L 23 22.5 C 23 22.222656 23.222656 22 23.5 22 Z M 23.5 22 "/>
<path style=" stroke:none;fill-rule:nonzero;fill:rgb(0%,0%,0%);fill-opacity:0.4;" d="M 23.5 22 C 23.222656 22 23 22.222656 23 22.5 L 23 23 C 23 22.722656 23.222656 22.5 23.5 22.5 C 23.777344 22.5 24 22.722656 24 23 L 24 22.5 C 24 22.222656 23.777344 22 23.5 22 Z M 23.5 22 "/>
<path style=" stroke:none;fill-rule:nonzero;fill:rgb(100%,100%,100%);fill-opacity:0.4;" d="M 23.5 29.5 C 23.222656 29.5 23 29.277344 23 29 L 23 28.5 C 23 28.777344 23.222656 29 23.5 29 C 23.777344 29 24 28.777344 24 28.5 L 24 29 C 24 29.277344 23.777344 29.5 23.5 29.5 Z M 23.5 29.5 "/>
<path style=" stroke:none;fill-rule:nonzero;fill:rgb(0%,0%,0%);fill-opacity:0.4;" d="M 25.5 22 C 25.777344 22 26 22.222656 26 22.5 L 26 28.5 C 26 28.777344 25.777344 29 25.5 29 C 25.222656 29 25 28.777344 25 28.5 L 25 22.5 C 25 22.222656 25.222656 22 25.5 22 Z M 25.5 22 "/>
<path style=" stroke:none;fill-rule:nonzero;fill:rgb(0%,0%,0%);fill-opacity:0.4;" d="M 25.5 22 C 25.222656 22 25 22.222656 25 22.5 L 25 23 C 25 22.722656 25.222656 22.5 25.5 22.5 C 25.777344 22.5 26 22.722656 26 23 L 26 22.5 C 26 22.222656 25.777344 22 25.5 22 Z M 25.5 22 "/>
<path style=" stroke:none;fill-rule:nonzero;fill:rgb(100%,100%,100%);fill-opacity:0.4;" d="M 25.5 29.5 C 25.222656 29.5 25 29.277344 25 29 L 25 28.5 C 25 28.777344 25.222656 29 25.5 29 C 25.777344 29 26 28.777344 26 28.5 L 26 29 C 26 29.277344 25.777344 29.5 25.5 29.5 Z M 25.5 29.5 "/>
<path style=" stroke:none;fill-rule:nonzero;fill:rgb(100%,79.215688%,15.686275%);fill-opacity:1;" d="M 23 16 C 19.121094 16 16 19.121094 16 23 C 16 26.878906 19.121094 30 23 30 C 26.878906 30 30 26.878906 30 23 C 30 19.121094 26.878906 16 23 16 Z M 23 18 C 23.699219 18 24.363281 18.140625 24.96875 18.398438 L 18.035156 22.402344 C 18.328125 19.917969 20.433594 18 23 18 Z M 25.972656 18.976562 C 26.390625 19.285156 26.757812 19.65625 27.0625 20.078125 L 18.4375 25.054688 C 18.230469 24.589844 18.089844 24.085938 18.03125 23.558594 Z M 27.5625 20.945312 C 27.769531 21.410156 27.910156 21.914062 27.96875 22.441406 L 20.027344 27.023438 C 19.609375 26.714844 19.242188 26.34375 18.9375 25.921875 Z M 27.964844 23.597656 C 27.671875 26.082031 25.566406 28 23 28 C 22.300781 28 21.636719 27.859375 21.03125 27.601562 Z M 27.964844 23.597656 "/>
<path style=" stroke:none;fill-rule:nonzero;fill:rgb(100%,100%,100%);fill-opacity:0.4;" d="M 23 16 C 19.121094 16 16 19.121094 16 23 C 16 23.074219 16.003906 23.152344 16.007812 23.226562 C 16.148438 19.476562 19.214844 16.5 23 16.5 C 26.785156 16.5 29.851562 19.476562 29.992188 23.226562 C 29.996094 23.152344 30 23.074219 30 23 C 30 19.121094 26.878906 16 23 16 Z M 24.4375 18.707031 L 18.132812 22.34375 C 18.09375 22.527344 18.058594 22.714844 18.035156 22.902344 L 24.96875 18.898438 C 24.796875 18.824219 24.617188 18.761719 24.4375 18.707031 Z M 26.789062 20.234375 L 18.4375 25.054688 C 18.292969 24.726562 18.179688 24.378906 18.105469 24.015625 L 18.03125 24.058594 C 18.089844 24.585938 18.230469 25.089844 18.4375 25.554688 L 27.0625 20.578125 C 26.976562 20.460938 26.886719 20.34375 26.789062 20.234375 Z M 27.894531 22.484375 L 20.027344 27.023438 C 19.726562 26.804688 19.453125 26.546875 19.210938 26.265625 L 18.9375 26.421875 C 19.242188 26.84375 19.609375 27.214844 20.027344 27.523438 L 27.96875 22.941406 C 27.953125 22.785156 27.925781 22.632812 27.894531 22.484375 Z M 27.964844 24.097656 L 27.863281 24.15625 C 27.34375 26.363281 25.371094 28 23 28 C 22.5 28 22.019531 27.925781 21.566406 27.792969 L 21.03125 28.101562 C 21.636719 28.359375 22.300781 28.5 23 28.5 C 25.566406 28.5 27.671875 26.582031 27.964844 24.097656 Z M 27.964844 24.097656 "/>
<path style=" stroke:none;fill-rule:nonzero;fill:rgb(0%,0%,0%);fill-opacity:0.4;" d="M 18.414062 21 C 18.222656 21.4375 18.09375 21.90625 18.035156 22.398438 L 18.132812 22.34375 C 18.246094 21.863281 18.433594 21.414062 18.671875 21 Z M 22.457031 21 L 18.03125 23.554688 C 18.046875 23.710938 18.074219 23.867188 18.105469 24.015625 L 23.328125 21 Z M 27.390625 21.039062 L 18.9375 25.917969 C 19.023438 26.039062 19.117188 26.152344 19.210938 26.265625 L 27.5625 21.445312 C 27.707031 21.773438 27.820312 22.121094 27.894531 22.480469 L 27.96875 22.4375 C 27.917969 21.96875 27.796875 21.519531 27.625 21.101562 C 27.546875 21.074219 27.472656 21.054688 27.390625 21.039062 Z M 16.003906 23.25 C 16.003906 23.332031 16 23.414062 16 23.5 C 16 26.457031 17.816406 28.96875 20.394531 30 L 25.605469 30 C 27.027344 29.433594 28.21875 28.410156 29 27.113281 L 29 26.609375 C 27.777344 28.640625 25.554688 29.996094 23 29.996094 C 19.207031 29.996094 16.136719 27.007812 16.003906 23.25 Z M 27.964844 23.59375 L 21.03125 27.597656 C 21.207031 27.671875 21.382812 27.738281 21.570312 27.789062 L 27.867188 24.15625 C 27.90625 23.972656 27.941406 23.785156 27.964844 23.59375 Z M 27.964844 23.59375 "/>
<path style=" stroke:none;fill-rule:nonzero;fill:url(#linear0);" d="M 5 2 C 3.890625 2 3 2.890625 3 4 L 3 9 C 3 10.109375 3.890625 11 5 11 L 5 11.5 C 3.890625 11.5 3 12.390625 3 13.5 L 3 18.5 C 3 19.609375 3.890625 20.5 5 20.5 L 5 21 C 3.890625 21 3 21.890625 3 23 L 3 28 C 3 29.109375 3.890625 30 5 30 L 27 30 C 28.109375 30 29 29.109375 29 28 L 29 26.617188 C 29.636719 25.5625 30 24.324219 30 23 C 30 21.59375 29.585938 20.285156 28.878906 19.191406 C 28.957031 18.976562 29 18.742188 29 18.5 L 29 13.5 C 29 12.390625 28.109375 11.5 27 11.5 L 27 11 C 28.109375 11 29 10.109375 29 9 L 29 4 C 29 2.890625 28.109375 2 27 2 Z M 27.5625 20.945312 C 27.582031 20.996094 27.601562 21.046875 27.625 21.097656 C 27.550781 21.074219 27.472656 21.054688 27.398438 21.039062 Z M 27.5625 20.945312 "/>
</g>
</svg>
