
<svg xmlns="http://www.w3.org/2000/svg" xmlns:xlink="http://www.w3.org/1999/xlink" width="32" height="32" viewBox="0 0 32 32" version="1.1">
<defs>
<linearGradient id="linear0" gradientUnits="userSpaceOnUse" x1="10.054166" y1="-199.125" x2="10.054166" y2="-213.941666" gradientTransform="matrix(1.889764,0,0,1.889764,-0.000632289,406.299234)">
<stop offset="0" style="stop-color:rgb(0%,0%,0%);stop-opacity:0.2;"/>
<stop offset="1" style="stop-color:rgb(100%,100%,100%);stop-opacity:0;"/>
</linearGradient>
</defs>
<g id="surface1">
<path style="fill:none;stroke-width:0.264583;stroke-linecap:butt;stroke-linejoin:miter;stroke:rgb(0%,0%,0%);stroke-opacity:1;stroke-miterlimit:4;" d="M 7.408333 -211.192481 L 9.524999 -211.192481 L 8.466666 -206.429981 Z M 7.408333 -211.192481 " transform="matrix(1.889764,0,0,1.889764,0,406.299234)"/>
<path style=" stroke:none;fill-rule:nonzero;fill:rgb(87.843138%,87.843138%,87.843138%);fill-opacity:1;" d="M 4 2 L 28 2 C 29.105469 2 30 2.894531 30 4 L 30 28 C 30 29.105469 29.105469 30 28 30 L 4 30 C 2.894531 30 2 29.105469 2 28 L 2 4 C 2 2.894531 2.894531 2 4 2 Z M 4 2 "/>
<path style=" stroke:none;fill-rule:nonzero;fill:rgb(0%,0%,0%);fill-opacity:0.4;" d="M 2 27.5 L 2 28 C 2 29.109375 2.890625 30 4 30 L 28 30 C 29.109375 30 30 29.109375 30 28 L 30 27.5 C 30 28.609375 29.109375 29.5 28 29.5 L 4 29.5 C 2.890625 29.5 2 28.609375 2 27.5 Z M 2 27.5 "/>
<path style=" stroke:none;fill-rule:nonzero;fill:rgb(0%,0%,0%);fill-opacity:0.2;" d="M 2 28 L 2 28.75 C 2 29.859375 2.890625 30.75 4 30.75 L 28 30.75 C 29.109375 30.75 30 29.859375 30 28.75 L 30 28 C 30 29.109375 29.109375 30 28 30 L 4 30 C 2.890625 30 2 29.109375 2 28 Z M 2 28 "/>
<path style=" stroke:none;fill-rule:nonzero;fill:rgb(100%,100%,100%);fill-opacity:0.4;" d="M 4 2 C 2.890625 2 2 2.890625 2 4 L 2 4.492188 C 2 3.382812 2.890625 2.492188 4 2.492188 L 28 2.492188 C 29.109375 2.492188 30 3.382812 30 4.492188 L 30 4 C 30 2.890625 29.109375 2 28 2 Z M 4 2 "/>
<path style=" stroke:none;fill-rule:nonzero;fill:rgb(93.333334%,93.333334%,93.333334%);fill-opacity:1;" d="M 16 5 C 11.578125 5 7.449219 6.1875 3.898438 8.257812 L 7.933594 15.171875 C 10.300781 13.792969 13.054688 13 16 13 C 18.945312 13 21.699219 13.792969 24.066406 15.171875 L 28.101562 8.257812 C 24.550781 6.1875 20.421875 5 16 5 Z M 16 5 "/>
<path style=" stroke:none;fill-rule:nonzero;fill:rgb(95.686275%,26.274511%,21.176471%);fill-opacity:1;" d="M 19.921875 5.320312 L 17.96875 13.121094 C 20.175781 13.390625 22.234375 14.105469 24.066406 15.171875 L 28.101562 8.257812 C 25.625 6.8125 22.863281 5.800781 19.921875 5.320312 Z M 19.921875 5.320312 "/>
<path style=" stroke:none;fill-rule:nonzero;fill:rgb(0%,0%,0%);fill-opacity:0.4;" d="M 16 5 C 11.578125 5 7.449219 6.1875 3.898438 8.257812 L 4.117188 8.632812 C 7.617188 6.640625 11.667969 5.5 16 5.5 C 20.332031 5.5 24.382812 6.640625 27.882812 8.632812 L 28.101562 8.257812 C 24.550781 6.1875 20.421875 5 16 5 Z M 16 5 "/>
<path style=" stroke:none;fill-rule:nonzero;fill:rgb(100%,100%,100%);fill-opacity:0.6;" d="M 4.117188 8.609375 C 4.042969 8.652344 3.972656 8.695312 3.898438 8.734375 L 7.933594 15.648438 C 10.300781 14.273438 13.054688 13.480469 16 13.480469 C 18.945312 13.480469 21.699219 14.273438 24.066406 15.648438 L 28.101562 8.734375 C 28.027344 8.695312 27.957031 8.652344 27.882812 8.609375 L 24.066406 15.152344 C 21.699219 13.773438 18.945312 12.984375 16 12.984375 C 13.054688 12.984375 10.300781 13.773438 7.933594 15.152344 Z M 4.117188 8.609375 "/>
<path style=" stroke:none;fill-rule:nonzero;fill:rgb(38.039216%,38.039216%,38.039216%);fill-opacity:0.996078;" d="M 5 17 L 27 17 C 27.550781 17 28 17.449219 28 18 L 28 27 C 28 27.550781 27.550781 28 27 28 L 5 28 C 4.449219 28 4 27.550781 4 27 L 4 18 C 4 17.449219 4.449219 17 5 17 Z M 5 17 "/>
<path style=" stroke:none;fill-rule:nonzero;fill:rgb(100%,100%,100%);fill-opacity:0.4;" d="M 5 17 C 4.445312 17 4 17.445312 4 18 L 4 18.5 C 4 17.945312 4.445312 17.5 5 17.5 L 27 17.5 C 27.554688 17.5 28 17.945312 28 18.5 L 28 18 C 28 17.445312 27.554688 17 27 17 Z M 5 17 "/>
<path style=" stroke:none;fill-rule:nonzero;fill:rgb(0%,0%,0%);fill-opacity:0.4;" d="M 5 28.5 C 4.445312 28.5 4 28.054688 4 27.5 L 4 27 C 4 27.554688 4.445312 28 5 28 L 27 28 C 27.554688 28 28 27.554688 28 27 L 28 27.5 C 28 28.054688 27.554688 28.5 27 28.5 Z M 5 28.5 "/>
<path style=" stroke:none;fill-rule:nonzero;fill:rgb(40.000001%,73.333335%,41.568628%);fill-opacity:1;" d="M 20.5 8.207031 L 16.101562 13 C 17.058594 13.007812 17.996094 13.097656 18.90625 13.261719 Z M 20.5 8.207031 "/>
<path style=" stroke:none;fill-rule:nonzero;fill:rgb(100%,100%,100%);fill-opacity:0.4;" d="M 20.5 8.207031 L 16.101562 13 C 16.167969 13 16.230469 13.003906 16.296875 13.003906 L 20.398438 8.535156 Z M 20.5 8.207031 "/>
<path style=" stroke:none;fill-rule:nonzero;fill:rgb(0%,0%,0%);fill-opacity:0.4;" d="M 20.5 8.5 L 20.359375 8.652344 L 18.90625 13.261719 C 18.9375 13.269531 18.96875 13.273438 18.996094 13.28125 Z M 18.234375 13.15625 C 18.273438 13.160156 18.3125 13.164062 18.351562 13.171875 C 18.3125 13.164062 18.273438 13.160156 18.234375 13.15625 Z M 18.234375 13.15625 "/>
<path style=" stroke:none;fill-rule:nonzero;fill:rgb(0%,0%,0%);fill-opacity:0.4;" d="M 5 18 C 5.277344 18 5.5 18.222656 5.5 18.5 C 5.5 18.777344 5.277344 19 5 19 C 4.722656 19 4.5 18.777344 4.5 18.5 C 4.5 18.222656 4.722656 18 5 18 Z M 5 18 "/>
<path style=" stroke:none;fill-rule:nonzero;fill:rgb(0%,0%,0%);fill-opacity:0.4;" d="M 4.988281 18 C 4.714844 18.007812 4.5 18.226562 4.5 18.5 C 4.5 18.542969 4.503906 18.585938 4.515625 18.625 C 4.570312 18.410156 4.765625 18.25 5 18.25 C 5.234375 18.25 5.429688 18.410156 5.484375 18.625 C 5.496094 18.585938 5.5 18.542969 5.5 18.5 C 5.5 18.222656 5.277344 18 5 18 C 4.996094 18 4.992188 18 4.988281 18 Z M 4.988281 18 "/>
<path style=" stroke:none;fill-rule:nonzero;fill:rgb(100%,100%,100%);fill-opacity:0.4;" d="M 4.988281 19.25 C 4.714844 19.242188 4.5 19.023438 4.5 18.75 C 4.5 18.707031 4.503906 18.664062 4.515625 18.625 C 4.570312 18.839844 4.765625 19 5 19 C 5.234375 19 5.429688 18.839844 5.484375 18.625 C 5.496094 18.664062 5.5 18.707031 5.5 18.75 C 5.5 19.027344 5.277344 19.25 5 19.25 C 4.996094 19.25 4.992188 19.25 4.988281 19.25 Z M 4.988281 19.25 "/>
<path style=" stroke:none;fill-rule:nonzero;fill:rgb(0%,0%,0%);fill-opacity:0.4;" d="M 7.015625 18 C 7.292969 18 7.515625 18.222656 7.515625 18.5 C 7.515625 18.777344 7.292969 19 7.015625 19 C 6.738281 19 6.515625 18.777344 6.515625 18.5 C 6.515625 18.222656 6.738281 18 7.015625 18 Z M 7.015625 18 "/>
<path style=" stroke:none;fill-rule:nonzero;fill:rgb(0%,0%,0%);fill-opacity:0.4;" d="M 7.003906 18 C 6.730469 18.007812 6.515625 18.226562 6.515625 18.5 C 6.515625 18.542969 6.519531 18.585938 6.53125 18.625 C 6.585938 18.410156 6.78125 18.25 7.015625 18.25 C 7.25 18.25 7.445312 18.410156 7.5 18.625 C 7.511719 18.585938 7.515625 18.542969 7.515625 18.5 C 7.515625 18.222656 7.292969 18 7.015625 18 C 7.011719 18 7.007812 18 7.003906 18 Z M 7.003906 18 "/>
<path style=" stroke:none;fill-rule:nonzero;fill:rgb(100%,100%,100%);fill-opacity:0.4;" d="M 7.003906 19.25 C 6.730469 19.242188 6.515625 19.023438 6.515625 18.75 C 6.515625 18.707031 6.519531 18.664062 6.53125 18.625 C 6.585938 18.839844 6.78125 19 7.015625 19 C 7.25 19 7.445312 18.839844 7.5 18.625 C 7.511719 18.664062 7.515625 18.707031 7.515625 18.75 C 7.515625 19.027344 7.292969 19.25 7.015625 19.25 C 7.011719 19.25 7.007812 19.25 7.003906 19.25 Z M 7.003906 19.25 "/>
<path style=" stroke:none;fill-rule:nonzero;fill:rgb(0%,0%,0%);fill-opacity:0.4;" d="M 9.015625 18 C 9.292969 18 9.515625 18.222656 9.515625 18.5 C 9.515625 18.777344 9.292969 19 9.015625 19 C 8.738281 19 8.515625 18.777344 8.515625 18.5 C 8.515625 18.222656 8.738281 18 9.015625 18 Z M 9.015625 18 "/>
<path style=" stroke:none;fill-rule:nonzero;fill:rgb(0%,0%,0%);fill-opacity:0.4;" d="M 9.003906 18 C 8.730469 18.007812 8.515625 18.226562 8.515625 18.5 C 8.515625 18.542969 8.519531 18.585938 8.53125 18.625 C 8.585938 18.410156 8.78125 18.25 9.015625 18.25 C 9.25 18.25 9.445312 18.410156 9.5 18.625 C 9.511719 18.585938 9.515625 18.542969 9.515625 18.5 C 9.515625 18.222656 9.292969 18 9.015625 18 C 9.011719 18 9.007812 18 9.003906 18 Z M 9.003906 18 "/>
<path style=" stroke:none;fill-rule:nonzero;fill:rgb(100%,100%,100%);fill-opacity:0.4;" d="M 9.003906 19.25 C 8.730469 19.242188 8.515625 19.023438 8.515625 18.75 C 8.515625 18.707031 8.519531 18.664062 8.53125 18.625 C 8.585938 18.839844 8.78125 19 9.015625 19 C 9.25 19 9.445312 18.839844 9.5 18.625 C 9.511719 18.664062 9.515625 18.707031 9.515625 18.75 C 9.515625 19.027344 9.292969 19.25 9.015625 19.25 C 9.011719 19.25 9.007812 19.25 9.003906 19.25 Z M 9.003906 19.25 "/>
<path style=" stroke:none;fill-rule:nonzero;fill:rgb(0%,0%,0%);fill-opacity:0.4;" d="M 11.03125 18 C 11.308594 18 11.53125 18.222656 11.53125 18.5 C 11.53125 18.777344 11.308594 19 11.03125 19 C 10.753906 19 10.53125 18.777344 10.53125 18.5 C 10.53125 18.222656 10.753906 18 11.03125 18 Z M 11.03125 18 "/>
<path style=" stroke:none;fill-rule:nonzero;fill:rgb(0%,0%,0%);fill-opacity:0.4;" d="M 11.019531 18 C 10.746094 18.007812 10.53125 18.226562 10.53125 18.5 C 10.53125 18.542969 10.535156 18.585938 10.546875 18.625 C 10.601562 18.410156 10.796875 18.25 11.03125 18.25 C 11.265625 18.25 11.460938 18.410156 11.515625 18.625 C 11.527344 18.585938 11.53125 18.542969 11.53125 18.5 C 11.53125 18.222656 11.308594 18 11.03125 18 C 11.027344 18 11.023438 18 11.019531 18 Z M 11.019531 18 "/>
<path style=" stroke:none;fill-rule:nonzero;fill:rgb(100%,100%,100%);fill-opacity:0.4;" d="M 11.019531 19.25 C 10.746094 19.242188 10.53125 19.023438 10.53125 18.75 C 10.53125 18.707031 10.535156 18.664062 10.546875 18.625 C 10.601562 18.839844 10.796875 19 11.03125 19 C 11.265625 19 11.460938 18.839844 11.515625 18.625 C 11.527344 18.664062 11.53125 18.707031 11.53125 18.75 C 11.53125 19.027344 11.308594 19.25 11.03125 19.25 C 11.027344 19.25 11.023438 19.25 11.019531 19.25 Z M 11.019531 19.25 "/>
<path style=" stroke:none;fill-rule:nonzero;fill:rgb(0%,0%,0%);fill-opacity:0.4;" d="M 12.984375 18 C 13.261719 18 13.484375 18.222656 13.484375 18.5 C 13.484375 18.777344 13.261719 19 12.984375 19 C 12.707031 19 12.484375 18.777344 12.484375 18.5 C 12.484375 18.222656 12.707031 18 12.984375 18 Z M 12.984375 18 "/>
<path style=" stroke:none;fill-rule:nonzero;fill:rgb(0%,0%,0%);fill-opacity:0.4;" d="M 12.972656 18 C 12.699219 18.007812 12.484375 18.226562 12.484375 18.5 C 12.484375 18.542969 12.488281 18.585938 12.5 18.625 C 12.554688 18.410156 12.75 18.25 12.984375 18.25 C 13.21875 18.25 13.414062 18.410156 13.46875 18.625 C 13.480469 18.585938 13.484375 18.542969 13.484375 18.5 C 13.484375 18.222656 13.261719 18 12.984375 18 C 12.980469 18 12.976562 18 12.972656 18 Z M 12.972656 18 "/>
<path style=" stroke:none;fill-rule:nonzero;fill:rgb(100%,100%,100%);fill-opacity:0.4;" d="M 12.972656 19.25 C 12.699219 19.242188 12.484375 19.023438 12.484375 18.75 C 12.484375 18.707031 12.488281 18.664062 12.5 18.625 C 12.554688 18.839844 12.75 19 12.984375 19 C 13.21875 19 13.414062 18.839844 13.46875 18.625 C 13.480469 18.664062 13.484375 18.707031 13.484375 18.75 C 13.484375 19.027344 13.261719 19.25 12.984375 19.25 C 12.980469 19.25 12.976562 19.25 12.972656 19.25 Z M 12.972656 19.25 "/>
<path style=" stroke:none;fill-rule:nonzero;fill:rgb(0%,0%,0%);fill-opacity:0.4;" d="M 15 18 C 15.277344 18 15.5 18.222656 15.5 18.5 C 15.5 18.777344 15.277344 19 15 19 C 14.722656 19 14.5 18.777344 14.5 18.5 C 14.5 18.222656 14.722656 18 15 18 Z M 15 18 "/>
<path style=" stroke:none;fill-rule:nonzero;fill:rgb(0%,0%,0%);fill-opacity:0.4;" d="M 14.988281 18 C 14.714844 18.007812 14.5 18.226562 14.5 18.5 C 14.5 18.542969 14.503906 18.585938 14.515625 18.625 C 14.570312 18.410156 14.765625 18.25 15 18.25 C 15.234375 18.25 15.429688 18.410156 15.484375 18.625 C 15.496094 18.585938 15.5 18.542969 15.5 18.5 C 15.5 18.222656 15.277344 18 15 18 C 14.996094 18 14.992188 18 14.988281 18 Z M 14.988281 18 "/>
<path style=" stroke:none;fill-rule:nonzero;fill:rgb(100%,100%,100%);fill-opacity:0.4;" d="M 14.988281 19.25 C 14.714844 19.242188 14.5 19.023438 14.5 18.75 C 14.5 18.707031 14.503906 18.664062 14.515625 18.625 C 14.570312 18.839844 14.765625 19 15 19 C 15.234375 19 15.429688 18.839844 15.484375 18.625 C 15.496094 18.664062 15.5 18.707031 15.5 18.75 C 15.5 19.027344 15.277344 19.25 15 19.25 C 14.996094 19.25 14.992188 19.25 14.988281 19.25 Z M 14.988281 19.25 "/>
<path style=" stroke:none;fill-rule:nonzero;fill:rgb(0%,0%,0%);fill-opacity:0.4;" d="M 17 18 C 17.277344 18 17.5 18.222656 17.5 18.5 C 17.5 18.777344 17.277344 19 17 19 C 16.722656 19 16.5 18.777344 16.5 18.5 C 16.5 18.222656 16.722656 18 17 18 Z M 17 18 "/>
<path style=" stroke:none;fill-rule:nonzero;fill:rgb(0%,0%,0%);fill-opacity:0.4;" d="M 16.988281 18 C 16.714844 18.007812 16.5 18.226562 16.5 18.5 C 16.5 18.542969 16.503906 18.585938 16.515625 18.625 C 16.570312 18.410156 16.765625 18.25 17 18.25 C 17.234375 18.25 17.429688 18.410156 17.484375 18.625 C 17.496094 18.585938 17.5 18.542969 17.5 18.5 C 17.5 18.222656 17.277344 18 17 18 C 16.996094 18 16.992188 18 16.988281 18 Z M 16.988281 18 "/>
<path style=" stroke:none;fill-rule:nonzero;fill:rgb(100%,100%,100%);fill-opacity:0.4;" d="M 16.988281 19.25 C 16.714844 19.242188 16.5 19.023438 16.5 18.75 C 16.5 18.707031 16.503906 18.664062 16.515625 18.625 C 16.570312 18.839844 16.765625 19 17 19 C 17.234375 19 17.429688 18.839844 17.484375 18.625 C 17.496094 18.664062 17.5 18.707031 17.5 18.75 C 17.5 19.027344 17.277344 19.25 17 19.25 C 16.996094 19.25 16.992188 19.25 16.988281 19.25 Z M 16.988281 19.25 "/>
<path style=" stroke:none;fill-rule:nonzero;fill:rgb(0%,0%,0%);fill-opacity:0.4;" d="M 19.015625 18 C 19.292969 18 19.515625 18.222656 19.515625 18.5 C 19.515625 18.777344 19.292969 19 19.015625 19 C 18.738281 19 18.515625 18.777344 18.515625 18.5 C 18.515625 18.222656 18.738281 18 19.015625 18 Z M 19.015625 18 "/>
<path style=" stroke:none;fill-rule:nonzero;fill:rgb(0%,0%,0%);fill-opacity:0.4;" d="M 19.003906 18 C 18.730469 18.007812 18.515625 18.226562 18.515625 18.5 C 18.515625 18.542969 18.519531 18.585938 18.53125 18.625 C 18.585938 18.410156 18.78125 18.25 19.015625 18.25 C 19.25 18.25 19.445312 18.410156 19.5 18.625 C 19.511719 18.585938 19.515625 18.542969 19.515625 18.5 C 19.515625 18.222656 19.292969 18 19.015625 18 C 19.011719 18 19.007812 18 19.003906 18 Z M 19.003906 18 "/>
<path style=" stroke:none;fill-rule:nonzero;fill:rgb(100%,100%,100%);fill-opacity:0.4;" d="M 19.003906 19.25 C 18.730469 19.242188 18.515625 19.023438 18.515625 18.75 C 18.515625 18.707031 18.519531 18.664062 18.53125 18.625 C 18.585938 18.839844 18.78125 19 19.015625 19 C 19.25 19 19.445312 18.839844 19.5 18.625 C 19.511719 18.664062 19.515625 18.707031 19.515625 18.75 C 19.515625 19.027344 19.292969 19.25 19.015625 19.25 C 19.011719 19.25 19.007812 19.25 19.003906 19.25 Z M 19.003906 19.25 "/>
<path style=" stroke:none;fill-rule:nonzero;fill:rgb(0%,0%,0%);fill-opacity:0.4;" d="M 20.984375 18 C 21.261719 18 21.484375 18.222656 21.484375 18.5 C 21.484375 18.777344 21.261719 19 20.984375 19 C 20.707031 19 20.484375 18.777344 20.484375 18.5 C 20.484375 18.222656 20.707031 18 20.984375 18 Z M 20.984375 18 "/>
<path style=" stroke:none;fill-rule:nonzero;fill:rgb(0%,0%,0%);fill-opacity:0.4;" d="M 20.972656 18 C 20.699219 18.007812 20.484375 18.226562 20.484375 18.5 C 20.484375 18.542969 20.488281 18.585938 20.5 18.625 C 20.554688 18.410156 20.75 18.25 20.984375 18.25 C 21.21875 18.25 21.414062 18.410156 21.46875 18.625 C 21.480469 18.585938 21.484375 18.542969 21.484375 18.5 C 21.484375 18.222656 21.261719 18 20.984375 18 C 20.980469 18 20.976562 18 20.972656 18 Z M 20.972656 18 "/>
<path style=" stroke:none;fill-rule:nonzero;fill:rgb(100%,100%,100%);fill-opacity:0.4;" d="M 20.972656 19.25 C 20.699219 19.242188 20.484375 19.023438 20.484375 18.75 C 20.484375 18.707031 20.488281 18.664062 20.5 18.625 C 20.554688 18.839844 20.75 19 20.984375 19 C 21.21875 19 21.414062 18.839844 21.46875 18.625 C 21.480469 18.664062 21.484375 18.707031 21.484375 18.75 C 21.484375 19.027344 21.261719 19.25 20.984375 19.25 C 20.980469 19.25 20.976562 19.25 20.972656 19.25 Z M 20.972656 19.25 "/>
<path style=" stroke:none;fill-rule:nonzero;fill:rgb(0%,0%,0%);fill-opacity:0.4;" d="M 23 18 C 23.277344 18 23.5 18.222656 23.5 18.5 C 23.5 18.777344 23.277344 19 23 19 C 22.722656 19 22.5 18.777344 22.5 18.5 C 22.5 18.222656 22.722656 18 23 18 Z M 23 18 "/>
<path style=" stroke:none;fill-rule:nonzero;fill:rgb(0%,0%,0%);fill-opacity:0.4;" d="M 22.988281 18 C 22.714844 18.007812 22.5 18.226562 22.5 18.5 C 22.5 18.542969 22.503906 18.585938 22.515625 18.625 C 22.570312 18.410156 22.765625 18.25 23 18.25 C 23.234375 18.25 23.429688 18.410156 23.484375 18.625 C 23.496094 18.585938 23.5 18.542969 23.5 18.5 C 23.5 18.222656 23.277344 18 23 18 C 22.996094 18 22.992188 18 22.988281 18 Z M 22.988281 18 "/>
<path style=" stroke:none;fill-rule:nonzero;fill:rgb(100%,100%,100%);fill-opacity:0.4;" d="M 22.988281 19.25 C 22.714844 19.242188 22.5 19.023438 22.5 18.75 C 22.5 18.707031 22.503906 18.664062 22.515625 18.625 C 22.570312 18.839844 22.765625 19 23 19 C 23.234375 19 23.429688 18.839844 23.484375 18.625 C 23.496094 18.664062 23.5 18.707031 23.5 18.75 C 23.5 19.027344 23.277344 19.25 23 19.25 C 22.996094 19.25 22.992188 19.25 22.988281 19.25 Z M 22.988281 19.25 "/>
<path style=" stroke:none;fill-rule:nonzero;fill:rgb(0%,0%,0%);fill-opacity:0.4;" d="M 25 18 C 25.277344 18 25.5 18.222656 25.5 18.5 C 25.5 18.777344 25.277344 19 25 19 C 24.722656 19 24.5 18.777344 24.5 18.5 C 24.5 18.222656 24.722656 18 25 18 Z M 25 18 "/>
<path style=" stroke:none;fill-rule:nonzero;fill:rgb(0%,0%,0%);fill-opacity:0.4;" d="M 24.988281 18 C 24.714844 18.007812 24.5 18.226562 24.5 18.5 C 24.5 18.542969 24.503906 18.585938 24.515625 18.625 C 24.570312 18.410156 24.765625 18.25 25 18.25 C 25.234375 18.25 25.429688 18.410156 25.484375 18.625 C 25.496094 18.585938 25.5 18.542969 25.5 18.5 C 25.5 18.222656 25.277344 18 25 18 C 24.996094 18 24.992188 18 24.988281 18 Z M 24.988281 18 "/>
<path style=" stroke:none;fill-rule:nonzero;fill:rgb(100%,100%,100%);fill-opacity:0.4;" d="M 24.988281 19.25 C 24.714844 19.242188 24.5 19.023438 24.5 18.75 C 24.5 18.707031 24.503906 18.664062 24.515625 18.625 C 24.570312 18.839844 24.765625 19 25 19 C 25.234375 19 25.429688 18.839844 25.484375 18.625 C 25.496094 18.664062 25.5 18.707031 25.5 18.75 C 25.5 19.027344 25.277344 19.25 25 19.25 C 24.996094 19.25 24.992188 19.25 24.988281 19.25 Z M 24.988281 19.25 "/>
<path style=" stroke:none;fill-rule:nonzero;fill:rgb(0%,0%,0%);fill-opacity:0.4;" d="M 27.015625 18 C 27.292969 18 27.515625 18.222656 27.515625 18.5 C 27.515625 18.777344 27.292969 19 27.015625 19 C 26.738281 19 26.515625 18.777344 26.515625 18.5 C 26.515625 18.222656 26.738281 18 27.015625 18 Z M 27.015625 18 "/>
<path style=" stroke:none;fill-rule:nonzero;fill:rgb(0%,0%,0%);fill-opacity:0.4;" d="M 27.003906 18 C 26.730469 18.007812 26.515625 18.226562 26.515625 18.5 C 26.515625 18.542969 26.519531 18.585938 26.53125 18.625 C 26.585938 18.410156 26.78125 18.25 27.015625 18.25 C 27.25 18.25 27.445312 18.410156 27.5 18.625 C 27.511719 18.585938 27.515625 18.542969 27.515625 18.5 C 27.515625 18.222656 27.292969 18 27.015625 18 C 27.011719 18 27.007812 18 27.003906 18 Z M 27.003906 18 "/>
<path style=" stroke:none;fill-rule:nonzero;fill:rgb(100%,100%,100%);fill-opacity:0.4;" d="M 27.003906 19.25 C 26.730469 19.242188 26.515625 19.023438 26.515625 18.75 C 26.515625 18.707031 26.519531 18.664062 26.53125 18.625 C 26.585938 18.839844 26.78125 19 27.015625 19 C 27.25 19 27.445312 18.839844 27.5 18.625 C 27.511719 18.664062 27.515625 18.707031 27.515625 18.75 C 27.515625 19.027344 27.292969 19.25 27.015625 19.25 C 27.011719 19.25 27.007812 19.25 27.003906 19.25 Z M 27.003906 19.25 "/>
<path style=" stroke:none;fill-rule:nonzero;fill:rgb(0%,0%,0%);fill-opacity:0.4;" d="M 5.984375 20 C 6.261719 20 6.484375 20.222656 6.484375 20.5 C 6.484375 20.777344 6.261719 21 5.984375 21 C 5.707031 21 5.484375 20.777344 5.484375 20.5 C 5.484375 20.222656 5.707031 20 5.984375 20 Z M 5.984375 20 "/>
<path style=" stroke:none;fill-rule:nonzero;fill:rgb(0%,0%,0%);fill-opacity:0.4;" d="M 5.972656 20 C 5.699219 20.007812 5.484375 20.226562 5.484375 20.5 C 5.484375 20.542969 5.488281 20.585938 5.5 20.625 C 5.554688 20.410156 5.75 20.25 5.984375 20.25 C 6.21875 20.25 6.414062 20.410156 6.46875 20.625 C 6.480469 20.585938 6.484375 20.542969 6.484375 20.5 C 6.484375 20.222656 6.261719 20 5.984375 20 C 5.980469 20 5.976562 20 5.972656 20 Z M 5.972656 20 "/>
<path style=" stroke:none;fill-rule:nonzero;fill:rgb(100%,100%,100%);fill-opacity:0.4;" d="M 5.972656 21.25 C 5.699219 21.242188 5.484375 21.023438 5.484375 20.75 C 5.484375 20.707031 5.488281 20.664062 5.5 20.625 C 5.554688 20.839844 5.75 21 5.984375 21 C 6.21875 21 6.414062 20.839844 6.46875 20.625 C 6.480469 20.664062 6.484375 20.707031 6.484375 20.75 C 6.484375 21.027344 6.261719 21.25 5.984375 21.25 C 5.980469 21.25 5.976562 21.25 5.972656 21.25 Z M 5.972656 21.25 "/>
<path style=" stroke:none;fill-rule:nonzero;fill:rgb(0%,0%,0%);fill-opacity:0.4;" d="M 7.984375 20 C 8.261719 20 8.484375 20.222656 8.484375 20.5 C 8.484375 20.777344 8.261719 21 7.984375 21 C 7.707031 21 7.484375 20.777344 7.484375 20.5 C 7.484375 20.222656 7.707031 20 7.984375 20 Z M 7.984375 20 "/>
<path style=" stroke:none;fill-rule:nonzero;fill:rgb(0%,0%,0%);fill-opacity:0.4;" d="M 7.972656 20 C 7.699219 20.007812 7.484375 20.226562 7.484375 20.5 C 7.484375 20.542969 7.488281 20.585938 7.5 20.625 C 7.554688 20.410156 7.75 20.25 7.984375 20.25 C 8.21875 20.25 8.414062 20.410156 8.46875 20.625 C 8.480469 20.585938 8.484375 20.542969 8.484375 20.5 C 8.484375 20.222656 8.261719 20 7.984375 20 C 7.980469 20 7.976562 20 7.972656 20 Z M 7.972656 20 "/>
<path style=" stroke:none;fill-rule:nonzero;fill:rgb(100%,100%,100%);fill-opacity:0.4;" d="M 7.972656 21.25 C 7.699219 21.242188 7.484375 21.023438 7.484375 20.75 C 7.484375 20.707031 7.488281 20.664062 7.5 20.625 C 7.554688 20.839844 7.75 21 7.984375 21 C 8.21875 21 8.414062 20.839844 8.46875 20.625 C 8.480469 20.664062 8.484375 20.707031 8.484375 20.75 C 8.484375 21.027344 8.261719 21.25 7.984375 21.25 C 7.980469 21.25 7.976562 21.25 7.972656 21.25 Z M 7.972656 21.25 "/>
<path style=" stroke:none;fill-rule:nonzero;fill:rgb(0%,0%,0%);fill-opacity:0.4;" d="M 10 20 C 10.277344 20 10.5 20.222656 10.5 20.5 C 10.5 20.777344 10.277344 21 10 21 C 9.722656 21 9.5 20.777344 9.5 20.5 C 9.5 20.222656 9.722656 20 10 20 Z M 10 20 "/>
<path style=" stroke:none;fill-rule:nonzero;fill:rgb(0%,0%,0%);fill-opacity:0.4;" d="M 9.988281 20 C 9.714844 20.007812 9.5 20.226562 9.5 20.5 C 9.5 20.542969 9.503906 20.585938 9.515625 20.625 C 9.570312 20.410156 9.765625 20.25 10 20.25 C 10.234375 20.25 10.429688 20.410156 10.484375 20.625 C 10.496094 20.585938 10.5 20.542969 10.5 20.5 C 10.5 20.222656 10.277344 20 10 20 C 9.996094 20 9.992188 20 9.988281 20 Z M 9.988281 20 "/>
<path style=" stroke:none;fill-rule:nonzero;fill:rgb(100%,100%,100%);fill-opacity:0.4;" d="M 9.988281 21.25 C 9.714844 21.242188 9.5 21.023438 9.5 20.75 C 9.5 20.707031 9.503906 20.664062 9.515625 20.625 C 9.570312 20.839844 9.765625 21 10 21 C 10.234375 21 10.429688 20.839844 10.484375 20.625 C 10.496094 20.664062 10.5 20.707031 10.5 20.75 C 10.5 21.027344 10.277344 21.25 10 21.25 C 9.996094 21.25 9.992188 21.25 9.988281 21.25 Z M 9.988281 21.25 "/>
<path style=" stroke:none;fill-rule:nonzero;fill:rgb(0%,0%,0%);fill-opacity:0.4;" d="M 11.953125 20 C 12.230469 20 12.453125 20.222656 12.453125 20.5 C 12.453125 20.777344 12.230469 21 11.953125 21 C 11.675781 21 11.453125 20.777344 11.453125 20.5 C 11.453125 20.222656 11.675781 20 11.953125 20 Z M 11.953125 20 "/>
<path style=" stroke:none;fill-rule:nonzero;fill:rgb(0%,0%,0%);fill-opacity:0.4;" d="M 11.941406 20 C 11.667969 20.007812 11.453125 20.226562 11.453125 20.5 C 11.453125 20.542969 11.457031 20.585938 11.46875 20.625 C 11.523438 20.410156 11.71875 20.25 11.953125 20.25 C 12.1875 20.25 12.382812 20.410156 12.4375 20.625 C 12.449219 20.585938 12.453125 20.542969 12.453125 20.5 C 12.453125 20.222656 12.230469 20 11.953125 20 C 11.949219 20 11.945312 20 11.941406 20 Z M 11.941406 20 "/>
<path style=" stroke:none;fill-rule:nonzero;fill:rgb(100%,100%,100%);fill-opacity:0.4;" d="M 11.941406 21.25 C 11.667969 21.242188 11.453125 21.023438 11.453125 20.75 C 11.453125 20.707031 11.457031 20.664062 11.46875 20.625 C 11.523438 20.839844 11.71875 21 11.953125 21 C 12.1875 21 12.382812 20.839844 12.4375 20.625 C 12.449219 20.664062 12.453125 20.707031 12.453125 20.75 C 12.453125 21.027344 12.230469 21.25 11.953125 21.25 C 11.949219 21.25 11.945312 21.25 11.941406 21.25 Z M 11.941406 21.25 "/>
<path style=" stroke:none;fill-rule:nonzero;fill:rgb(0%,0%,0%);fill-opacity:0.4;" d="M 13.96875 20 C 14.246094 20 14.46875 20.222656 14.46875 20.5 C 14.46875 20.777344 14.246094 21 13.96875 21 C 13.691406 21 13.46875 20.777344 13.46875 20.5 C 13.46875 20.222656 13.691406 20 13.96875 20 Z M 13.96875 20 "/>
<path style=" stroke:none;fill-rule:nonzero;fill:rgb(0%,0%,0%);fill-opacity:0.4;" d="M 13.957031 20 C 13.683594 20.007812 13.46875 20.226562 13.46875 20.5 C 13.46875 20.542969 13.472656 20.585938 13.484375 20.625 C 13.539062 20.410156 13.734375 20.25 13.96875 20.25 C 14.203125 20.25 14.398438 20.410156 14.453125 20.625 C 14.464844 20.585938 14.46875 20.542969 14.46875 20.5 C 14.46875 20.222656 14.246094 20 13.96875 20 C 13.964844 20 13.960938 20 13.957031 20 Z M 13.957031 20 "/>
<path style=" stroke:none;fill-rule:nonzero;fill:rgb(100%,100%,100%);fill-opacity:0.4;" d="M 13.957031 21.25 C 13.683594 21.242188 13.46875 21.023438 13.46875 20.75 C 13.46875 20.707031 13.472656 20.664062 13.484375 20.625 C 13.539062 20.839844 13.734375 21 13.96875 21 C 14.203125 21 14.398438 20.839844 14.453125 20.625 C 14.464844 20.664062 14.46875 20.707031 14.46875 20.75 C 14.46875 21.027344 14.246094 21.25 13.96875 21.25 C 13.964844 21.25 13.960938 21.25 13.957031 21.25 Z M 13.957031 21.25 "/>
<path style=" stroke:none;fill-rule:nonzero;fill:rgb(0%,0%,0%);fill-opacity:0.4;" d="M 15.96875 20 C 16.246094 20 16.46875 20.222656 16.46875 20.5 C 16.46875 20.777344 16.246094 21 15.96875 21 C 15.691406 21 15.46875 20.777344 15.46875 20.5 C 15.46875 20.222656 15.691406 20 15.96875 20 Z M 15.96875 20 "/>
<path style=" stroke:none;fill-rule:nonzero;fill:rgb(0%,0%,0%);fill-opacity:0.4;" d="M 15.957031 20 C 15.683594 20.007812 15.46875 20.226562 15.46875 20.5 C 15.46875 20.542969 15.472656 20.585938 15.484375 20.625 C 15.539062 20.410156 15.734375 20.25 15.96875 20.25 C 16.203125 20.25 16.398438 20.410156 16.453125 20.625 C 16.464844 20.585938 16.46875 20.542969 16.46875 20.5 C 16.46875 20.222656 16.246094 20 15.96875 20 C 15.964844 20 15.960938 20 15.957031 20 Z M 15.957031 20 "/>
<path style=" stroke:none;fill-rule:nonzero;fill:rgb(100%,100%,100%);fill-opacity:0.4;" d="M 15.957031 21.25 C 15.683594 21.242188 15.46875 21.023438 15.46875 20.75 C 15.46875 20.707031 15.472656 20.664062 15.484375 20.625 C 15.539062 20.839844 15.734375 21 15.96875 21 C 16.203125 21 16.398438 20.839844 16.453125 20.625 C 16.464844 20.664062 16.46875 20.707031 16.46875 20.75 C 16.46875 21.027344 16.246094 21.25 15.96875 21.25 C 15.964844 21.25 15.960938 21.25 15.957031 21.25 Z M 15.957031 21.25 "/>
<path style=" stroke:none;fill-rule:nonzero;fill:rgb(0%,0%,0%);fill-opacity:0.4;" d="M 17.984375 20 C 18.261719 20 18.484375 20.222656 18.484375 20.5 C 18.484375 20.777344 18.261719 21 17.984375 21 C 17.707031 21 17.484375 20.777344 17.484375 20.5 C 17.484375 20.222656 17.707031 20 17.984375 20 Z M 17.984375 20 "/>
<path style=" stroke:none;fill-rule:nonzero;fill:rgb(0%,0%,0%);fill-opacity:0.4;" d="M 17.972656 20 C 17.699219 20.007812 17.484375 20.226562 17.484375 20.5 C 17.484375 20.542969 17.488281 20.585938 17.5 20.625 C 17.554688 20.410156 17.75 20.25 17.984375 20.25 C 18.21875 20.25 18.414062 20.410156 18.46875 20.625 C 18.480469 20.585938 18.484375 20.542969 18.484375 20.5 C 18.484375 20.222656 18.261719 20 17.984375 20 C 17.980469 20 17.976562 20 17.972656 20 Z M 17.972656 20 "/>
<path style=" stroke:none;fill-rule:nonzero;fill:rgb(100%,100%,100%);fill-opacity:0.4;" d="M 17.972656 21.25 C 17.699219 21.242188 17.484375 21.023438 17.484375 20.75 C 17.484375 20.707031 17.488281 20.664062 17.5 20.625 C 17.554688 20.839844 17.75 21 17.984375 21 C 18.21875 21 18.414062 20.839844 18.46875 20.625 C 18.480469 20.664062 18.484375 20.707031 18.484375 20.75 C 18.484375 21.027344 18.261719 21.25 17.984375 21.25 C 17.980469 21.25 17.976562 21.25 17.972656 21.25 Z M 17.972656 21.25 "/>
<path style=" stroke:none;fill-rule:nonzero;fill:rgb(0%,0%,0%);fill-opacity:0.4;" d="M 19.953125 20 C 20.230469 20 20.453125 20.222656 20.453125 20.5 C 20.453125 20.777344 20.230469 21 19.953125 21 C 19.675781 21 19.453125 20.777344 19.453125 20.5 C 19.453125 20.222656 19.675781 20 19.953125 20 Z M 19.953125 20 "/>
<path style=" stroke:none;fill-rule:nonzero;fill:rgb(0%,0%,0%);fill-opacity:0.4;" d="M 19.941406 20 C 19.667969 20.007812 19.453125 20.226562 19.453125 20.5 C 19.453125 20.542969 19.457031 20.585938 19.46875 20.625 C 19.523438 20.410156 19.71875 20.25 19.953125 20.25 C 20.1875 20.25 20.382812 20.410156 20.4375 20.625 C 20.449219 20.585938 20.453125 20.542969 20.453125 20.5 C 20.453125 20.222656 20.230469 20 19.953125 20 C 19.949219 20 19.945312 20 19.941406 20 Z M 19.941406 20 "/>
<path style=" stroke:none;fill-rule:nonzero;fill:rgb(100%,100%,100%);fill-opacity:0.4;" d="M 19.941406 21.25 C 19.667969 21.242188 19.453125 21.023438 19.453125 20.75 C 19.453125 20.707031 19.457031 20.664062 19.46875 20.625 C 19.523438 20.839844 19.71875 21 19.953125 21 C 20.1875 21 20.382812 20.839844 20.4375 20.625 C 20.449219 20.664062 20.453125 20.707031 20.453125 20.75 C 20.453125 21.027344 20.230469 21.25 19.953125 21.25 C 19.949219 21.25 19.945312 21.25 19.941406 21.25 Z M 19.941406 21.25 "/>
<path style=" stroke:none;fill-rule:nonzero;fill:rgb(0%,0%,0%);fill-opacity:0.4;" d="M 21.96875 20 C 22.246094 20 22.46875 20.222656 22.46875 20.5 C 22.46875 20.777344 22.246094 21 21.96875 21 C 21.691406 21 21.46875 20.777344 21.46875 20.5 C 21.46875 20.222656 21.691406 20 21.96875 20 Z M 21.96875 20 "/>
<path style=" stroke:none;fill-rule:nonzero;fill:rgb(0%,0%,0%);fill-opacity:0.4;" d="M 21.957031 20 C 21.683594 20.007812 21.46875 20.226562 21.46875 20.5 C 21.46875 20.542969 21.472656 20.585938 21.484375 20.625 C 21.539062 20.410156 21.734375 20.25 21.96875 20.25 C 22.203125 20.25 22.398438 20.410156 22.453125 20.625 C 22.464844 20.585938 22.46875 20.542969 22.46875 20.5 C 22.46875 20.222656 22.246094 20 21.96875 20 C 21.964844 20 21.960938 20 21.957031 20 Z M 21.957031 20 "/>
<path style=" stroke:none;fill-rule:nonzero;fill:rgb(100%,100%,100%);fill-opacity:0.4;" d="M 21.957031 21.25 C 21.683594 21.242188 21.46875 21.023438 21.46875 20.75 C 21.46875 20.707031 21.472656 20.664062 21.484375 20.625 C 21.539062 20.839844 21.734375 21 21.96875 21 C 22.203125 21 22.398438 20.839844 22.453125 20.625 C 22.464844 20.664062 22.46875 20.707031 22.46875 20.75 C 22.46875 21.027344 22.246094 21.25 21.96875 21.25 C 21.964844 21.25 21.960938 21.25 21.957031 21.25 Z M 21.957031 21.25 "/>
<path style=" stroke:none;fill-rule:nonzero;fill:rgb(0%,0%,0%);fill-opacity:0.4;" d="M 23.96875 20 C 24.246094 20 24.46875 20.222656 24.46875 20.5 C 24.46875 20.777344 24.246094 21 23.96875 21 C 23.691406 21 23.46875 20.777344 23.46875 20.5 C 23.46875 20.222656 23.691406 20 23.96875 20 Z M 23.96875 20 "/>
<path style=" stroke:none;fill-rule:nonzero;fill:rgb(0%,0%,0%);fill-opacity:0.4;" d="M 23.957031 20 C 23.683594 20.007812 23.46875 20.226562 23.46875 20.5 C 23.46875 20.542969 23.472656 20.585938 23.484375 20.625 C 23.539062 20.410156 23.734375 20.25 23.96875 20.25 C 24.203125 20.25 24.398438 20.410156 24.453125 20.625 C 24.464844 20.585938 24.46875 20.542969 24.46875 20.5 C 24.46875 20.222656 24.246094 20 23.96875 20 C 23.964844 20 23.960938 20 23.957031 20 Z M 23.957031 20 "/>
<path style=" stroke:none;fill-rule:nonzero;fill:rgb(100%,100%,100%);fill-opacity:0.4;" d="M 23.957031 21.25 C 23.683594 21.242188 23.46875 21.023438 23.46875 20.75 C 23.46875 20.707031 23.472656 20.664062 23.484375 20.625 C 23.539062 20.839844 23.734375 21 23.96875 21 C 24.203125 21 24.398438 20.839844 24.453125 20.625 C 24.464844 20.664062 24.46875 20.707031 24.46875 20.75 C 24.46875 21.027344 24.246094 21.25 23.96875 21.25 C 23.964844 21.25 23.960938 21.25 23.957031 21.25 Z M 23.957031 21.25 "/>
<path style=" stroke:none;fill-rule:nonzero;fill:rgb(0%,0%,0%);fill-opacity:0.4;" d="M 25.984375 20 C 26.261719 20 26.484375 20.222656 26.484375 20.5 C 26.484375 20.777344 26.261719 21 25.984375 21 C 25.707031 21 25.484375 20.777344 25.484375 20.5 C 25.484375 20.222656 25.707031 20 25.984375 20 Z M 25.984375 20 "/>
<path style=" stroke:none;fill-rule:nonzero;fill:rgb(0%,0%,0%);fill-opacity:0.4;" d="M 25.972656 20 C 25.699219 20.007812 25.484375 20.226562 25.484375 20.5 C 25.484375 20.542969 25.488281 20.585938 25.5 20.625 C 25.554688 20.410156 25.75 20.25 25.984375 20.25 C 26.21875 20.25 26.414062 20.410156 26.46875 20.625 C 26.480469 20.585938 26.484375 20.542969 26.484375 20.5 C 26.484375 20.222656 26.261719 20 25.984375 20 C 25.980469 20 25.976562 20 25.972656 20 Z M 25.972656 20 "/>
<path style=" stroke:none;fill-rule:nonzero;fill:rgb(100%,100%,100%);fill-opacity:0.4;" d="M 25.972656 21.25 C 25.699219 21.242188 25.484375 21.023438 25.484375 20.75 C 25.484375 20.707031 25.488281 20.664062 25.5 20.625 C 25.554688 20.839844 25.75 21 25.984375 21 C 26.21875 21 26.414062 20.839844 26.46875 20.625 C 26.480469 20.664062 26.484375 20.707031 26.484375 20.75 C 26.484375 21.027344 26.261719 21.25 25.984375 21.25 C 25.980469 21.25 25.976562 21.25 25.972656 21.25 Z M 25.972656 21.25 "/>
<path style=" stroke:none;fill-rule:nonzero;fill:rgb(0%,0%,0%);fill-opacity:0.4;" d="M 5 22 C 5.277344 22 5.5 22.222656 5.5 22.5 C 5.5 22.777344 5.277344 23 5 23 C 4.722656 23 4.5 22.777344 4.5 22.5 C 4.5 22.222656 4.722656 22 5 22 Z M 5 22 "/>
<path style=" stroke:none;fill-rule:nonzero;fill:rgb(0%,0%,0%);fill-opacity:0.4;" d="M 4.988281 22 C 4.714844 22.007812 4.5 22.226562 4.5 22.5 C 4.5 22.542969 4.503906 22.585938 4.515625 22.625 C 4.570312 22.410156 4.765625 22.25 5 22.25 C 5.234375 22.25 5.429688 22.410156 5.484375 22.625 C 5.496094 22.585938 5.5 22.542969 5.5 22.5 C 5.5 22.222656 5.277344 22 5 22 C 4.996094 22 4.992188 22 4.988281 22 Z M 4.988281 22 "/>
<path style=" stroke:none;fill-rule:nonzero;fill:rgb(100%,100%,100%);fill-opacity:0.4;" d="M 4.988281 23.25 C 4.714844 23.242188 4.5 23.023438 4.5 22.75 C 4.5 22.707031 4.503906 22.664062 4.515625 22.625 C 4.570312 22.839844 4.765625 23 5 23 C 5.234375 23 5.429688 22.839844 5.484375 22.625 C 5.496094 22.664062 5.5 22.707031 5.5 22.75 C 5.5 23.027344 5.277344 23.25 5 23.25 C 4.996094 23.25 4.992188 23.25 4.988281 23.25 Z M 4.988281 23.25 "/>
<path style=" stroke:none;fill-rule:nonzero;fill:rgb(0%,0%,0%);fill-opacity:0.4;" d="M 7.015625 22 C 7.292969 22 7.515625 22.222656 7.515625 22.5 C 7.515625 22.777344 7.292969 23 7.015625 23 C 6.738281 23 6.515625 22.777344 6.515625 22.5 C 6.515625 22.222656 6.738281 22 7.015625 22 Z M 7.015625 22 "/>
<path style=" stroke:none;fill-rule:nonzero;fill:rgb(0%,0%,0%);fill-opacity:0.4;" d="M 7.003906 22 C 6.730469 22.007812 6.515625 22.226562 6.515625 22.5 C 6.515625 22.542969 6.519531 22.585938 6.53125 22.625 C 6.585938 22.410156 6.78125 22.25 7.015625 22.25 C 7.25 22.25 7.445312 22.410156 7.5 22.625 C 7.511719 22.585938 7.515625 22.542969 7.515625 22.5 C 7.515625 22.222656 7.292969 22 7.015625 22 C 7.011719 22 7.007812 22 7.003906 22 Z M 7.003906 22 "/>
<path style=" stroke:none;fill-rule:nonzero;fill:rgb(100%,100%,100%);fill-opacity:0.4;" d="M 7.003906 23.25 C 6.730469 23.242188 6.515625 23.023438 6.515625 22.75 C 6.515625 22.707031 6.519531 22.664062 6.53125 22.625 C 6.585938 22.839844 6.78125 23 7.015625 23 C 7.25 23 7.445312 22.839844 7.5 22.625 C 7.511719 22.664062 7.515625 22.707031 7.515625 22.75 C 7.515625 23.027344 7.292969 23.25 7.015625 23.25 C 7.011719 23.25 7.007812 23.25 7.003906 23.25 Z M 7.003906 23.25 "/>
<path style=" stroke:none;fill-rule:nonzero;fill:rgb(0%,0%,0%);fill-opacity:0.4;" d="M 9.015625 22 C 9.292969 22 9.515625 22.222656 9.515625 22.5 C 9.515625 22.777344 9.292969 23 9.015625 23 C 8.738281 23 8.515625 22.777344 8.515625 22.5 C 8.515625 22.222656 8.738281 22 9.015625 22 Z M 9.015625 22 "/>
<path style=" stroke:none;fill-rule:nonzero;fill:rgb(0%,0%,0%);fill-opacity:0.4;" d="M 9.003906 22 C 8.730469 22.007812 8.515625 22.226562 8.515625 22.5 C 8.515625 22.542969 8.519531 22.585938 8.53125 22.625 C 8.585938 22.410156 8.78125 22.25 9.015625 22.25 C 9.25 22.25 9.445312 22.410156 9.5 22.625 C 9.511719 22.585938 9.515625 22.542969 9.515625 22.5 C 9.515625 22.222656 9.292969 22 9.015625 22 C 9.011719 22 9.007812 22 9.003906 22 Z M 9.003906 22 "/>
<path style=" stroke:none;fill-rule:nonzero;fill:rgb(100%,100%,100%);fill-opacity:0.4;" d="M 9.003906 23.25 C 8.730469 23.242188 8.515625 23.023438 8.515625 22.75 C 8.515625 22.707031 8.519531 22.664062 8.53125 22.625 C 8.585938 22.839844 8.78125 23 9.015625 23 C 9.25 23 9.445312 22.839844 9.5 22.625 C 9.511719 22.664062 9.515625 22.707031 9.515625 22.75 C 9.515625 23.027344 9.292969 23.25 9.015625 23.25 C 9.011719 23.25 9.007812 23.25 9.003906 23.25 Z M 9.003906 23.25 "/>
<path style=" stroke:none;fill-rule:nonzero;fill:rgb(0%,0%,0%);fill-opacity:0.4;" d="M 11.03125 22 C 11.308594 22 11.53125 22.222656 11.53125 22.5 C 11.53125 22.777344 11.308594 23 11.03125 23 C 10.753906 23 10.53125 22.777344 10.53125 22.5 C 10.53125 22.222656 10.753906 22 11.03125 22 Z M 11.03125 22 "/>
<path style=" stroke:none;fill-rule:nonzero;fill:rgb(0%,0%,0%);fill-opacity:0.4;" d="M 11.019531 22 C 10.746094 22.007812 10.53125 22.226562 10.53125 22.5 C 10.53125 22.542969 10.535156 22.585938 10.546875 22.625 C 10.601562 22.410156 10.796875 22.25 11.03125 22.25 C 11.265625 22.25 11.460938 22.410156 11.515625 22.625 C 11.527344 22.585938 11.53125 22.542969 11.53125 22.5 C 11.53125 22.222656 11.308594 22 11.03125 22 C 11.027344 22 11.023438 22 11.019531 22 Z M 11.019531 22 "/>
<path style=" stroke:none;fill-rule:nonzero;fill:rgb(100%,100%,100%);fill-opacity:0.4;" d="M 11.019531 23.25 C 10.746094 23.242188 10.53125 23.023438 10.53125 22.75 C 10.53125 22.707031 10.535156 22.664062 10.546875 22.625 C 10.601562 22.839844 10.796875 23 11.03125 23 C 11.265625 23 11.460938 22.839844 11.515625 22.625 C 11.527344 22.664062 11.53125 22.707031 11.53125 22.75 C 11.53125 23.027344 11.308594 23.25 11.03125 23.25 C 11.027344 23.25 11.023438 23.25 11.019531 23.25 Z M 11.019531 23.25 "/>
<path style=" stroke:none;fill-rule:nonzero;fill:rgb(0%,0%,0%);fill-opacity:0.4;" d="M 12.984375 22 C 13.261719 22 13.484375 22.222656 13.484375 22.5 C 13.484375 22.777344 13.261719 23 12.984375 23 C 12.707031 23 12.484375 22.777344 12.484375 22.5 C 12.484375 22.222656 12.707031 22 12.984375 22 Z M 12.984375 22 "/>
<path style=" stroke:none;fill-rule:nonzero;fill:rgb(0%,0%,0%);fill-opacity:0.4;" d="M 12.972656 22 C 12.699219 22.007812 12.484375 22.226562 12.484375 22.5 C 12.484375 22.542969 12.488281 22.585938 12.5 22.625 C 12.554688 22.410156 12.75 22.25 12.984375 22.25 C 13.21875 22.25 13.414062 22.410156 13.46875 22.625 C 13.480469 22.585938 13.484375 22.542969 13.484375 22.5 C 13.484375 22.222656 13.261719 22 12.984375 22 C 12.980469 22 12.976562 22 12.972656 22 Z M 12.972656 22 "/>
<path style=" stroke:none;fill-rule:nonzero;fill:rgb(100%,100%,100%);fill-opacity:0.4;" d="M 12.972656 23.25 C 12.699219 23.242188 12.484375 23.023438 12.484375 22.75 C 12.484375 22.707031 12.488281 22.664062 12.5 22.625 C 12.554688 22.839844 12.75 23 12.984375 23 C 13.21875 23 13.414062 22.839844 13.46875 22.625 C 13.480469 22.664062 13.484375 22.707031 13.484375 22.75 C 13.484375 23.027344 13.261719 23.25 12.984375 23.25 C 12.980469 23.25 12.976562 23.25 12.972656 23.25 Z M 12.972656 23.25 "/>
<path style=" stroke:none;fill-rule:nonzero;fill:rgb(0%,0%,0%);fill-opacity:0.4;" d="M 15 22 C 15.277344 22 15.5 22.222656 15.5 22.5 C 15.5 22.777344 15.277344 23 15 23 C 14.722656 23 14.5 22.777344 14.5 22.5 C 14.5 22.222656 14.722656 22 15 22 Z M 15 22 "/>
<path style=" stroke:none;fill-rule:nonzero;fill:rgb(0%,0%,0%);fill-opacity:0.4;" d="M 14.988281 22 C 14.714844 22.007812 14.5 22.226562 14.5 22.5 C 14.5 22.542969 14.503906 22.585938 14.515625 22.625 C 14.570312 22.410156 14.765625 22.25 15 22.25 C 15.234375 22.25 15.429688 22.410156 15.484375 22.625 C 15.496094 22.585938 15.5 22.542969 15.5 22.5 C 15.5 22.222656 15.277344 22 15 22 C 14.996094 22 14.992188 22 14.988281 22 Z M 14.988281 22 "/>
<path style=" stroke:none;fill-rule:nonzero;fill:rgb(100%,100%,100%);fill-opacity:0.4;" d="M 14.988281 23.25 C 14.714844 23.242188 14.5 23.023438 14.5 22.75 C 14.5 22.707031 14.503906 22.664062 14.515625 22.625 C 14.570312 22.839844 14.765625 23 15 23 C 15.234375 23 15.429688 22.839844 15.484375 22.625 C 15.496094 22.664062 15.5 22.707031 15.5 22.75 C 15.5 23.027344 15.277344 23.25 15 23.25 C 14.996094 23.25 14.992188 23.25 14.988281 23.25 Z M 14.988281 23.25 "/>
<path style=" stroke:none;fill-rule:nonzero;fill:rgb(0%,0%,0%);fill-opacity:0.4;" d="M 17 22 C 17.277344 22 17.5 22.222656 17.5 22.5 C 17.5 22.777344 17.277344 23 17 23 C 16.722656 23 16.5 22.777344 16.5 22.5 C 16.5 22.222656 16.722656 22 17 22 Z M 17 22 "/>
<path style=" stroke:none;fill-rule:nonzero;fill:rgb(0%,0%,0%);fill-opacity:0.4;" d="M 16.988281 22 C 16.714844 22.007812 16.5 22.226562 16.5 22.5 C 16.5 22.542969 16.503906 22.585938 16.515625 22.625 C 16.570312 22.410156 16.765625 22.25 17 22.25 C 17.234375 22.25 17.429688 22.410156 17.484375 22.625 C 17.496094 22.585938 17.5 22.542969 17.5 22.5 C 17.5 22.222656 17.277344 22 17 22 C 16.996094 22 16.992188 22 16.988281 22 Z M 16.988281 22 "/>
<path style=" stroke:none;fill-rule:nonzero;fill:rgb(100%,100%,100%);fill-opacity:0.4;" d="M 16.988281 23.25 C 16.714844 23.242188 16.5 23.023438 16.5 22.75 C 16.5 22.707031 16.503906 22.664062 16.515625 22.625 C 16.570312 22.839844 16.765625 23 17 23 C 17.234375 23 17.429688 22.839844 17.484375 22.625 C 17.496094 22.664062 17.5 22.707031 17.5 22.75 C 17.5 23.027344 17.277344 23.25 17 23.25 C 16.996094 23.25 16.992188 23.25 16.988281 23.25 Z M 16.988281 23.25 "/>
<path style=" stroke:none;fill-rule:nonzero;fill:rgb(0%,0%,0%);fill-opacity:0.4;" d="M 19.015625 22 C 19.292969 22 19.515625 22.222656 19.515625 22.5 C 19.515625 22.777344 19.292969 23 19.015625 23 C 18.738281 23 18.515625 22.777344 18.515625 22.5 C 18.515625 22.222656 18.738281 22 19.015625 22 Z M 19.015625 22 "/>
<path style=" stroke:none;fill-rule:nonzero;fill:rgb(0%,0%,0%);fill-opacity:0.4;" d="M 19.003906 22 C 18.730469 22.007812 18.515625 22.226562 18.515625 22.5 C 18.515625 22.542969 18.519531 22.585938 18.53125 22.625 C 18.585938 22.410156 18.78125 22.25 19.015625 22.25 C 19.25 22.25 19.445312 22.410156 19.5 22.625 C 19.511719 22.585938 19.515625 22.542969 19.515625 22.5 C 19.515625 22.222656 19.292969 22 19.015625 22 C 19.011719 22 19.007812 22 19.003906 22 Z M 19.003906 22 "/>
<path style=" stroke:none;fill-rule:nonzero;fill:rgb(100%,100%,100%);fill-opacity:0.4;" d="M 19.003906 23.25 C 18.730469 23.242188 18.515625 23.023438 18.515625 22.75 C 18.515625 22.707031 18.519531 22.664062 18.53125 22.625 C 18.585938 22.839844 18.78125 23 19.015625 23 C 19.25 23 19.445312 22.839844 19.5 22.625 C 19.511719 22.664062 19.515625 22.707031 19.515625 22.75 C 19.515625 23.027344 19.292969 23.25 19.015625 23.25 C 19.011719 23.25 19.007812 23.25 19.003906 23.25 Z M 19.003906 23.25 "/>
<path style=" stroke:none;fill-rule:nonzero;fill:rgb(0%,0%,0%);fill-opacity:0.4;" d="M 20.984375 22 C 21.261719 22 21.484375 22.222656 21.484375 22.5 C 21.484375 22.777344 21.261719 23 20.984375 23 C 20.707031 23 20.484375 22.777344 20.484375 22.5 C 20.484375 22.222656 20.707031 22 20.984375 22 Z M 20.984375 22 "/>
<path style=" stroke:none;fill-rule:nonzero;fill:rgb(0%,0%,0%);fill-opacity:0.4;" d="M 20.972656 22 C 20.699219 22.007812 20.484375 22.226562 20.484375 22.5 C 20.484375 22.542969 20.488281 22.585938 20.5 22.625 C 20.554688 22.410156 20.75 22.25 20.984375 22.25 C 21.21875 22.25 21.414062 22.410156 21.46875 22.625 C 21.480469 22.585938 21.484375 22.542969 21.484375 22.5 C 21.484375 22.222656 21.261719 22 20.984375 22 C 20.980469 22 20.976562 22 20.972656 22 Z M 20.972656 22 "/>
<path style=" stroke:none;fill-rule:nonzero;fill:rgb(100%,100%,100%);fill-opacity:0.4;" d="M 20.972656 23.25 C 20.699219 23.242188 20.484375 23.023438 20.484375 22.75 C 20.484375 22.707031 20.488281 22.664062 20.5 22.625 C 20.554688 22.839844 20.75 23 20.984375 23 C 21.21875 23 21.414062 22.839844 21.46875 22.625 C 21.480469 22.664062 21.484375 22.707031 21.484375 22.75 C 21.484375 23.027344 21.261719 23.25 20.984375 23.25 C 20.980469 23.25 20.976562 23.25 20.972656 23.25 Z M 20.972656 23.25 "/>
<path style=" stroke:none;fill-rule:nonzero;fill:rgb(0%,0%,0%);fill-opacity:0.4;" d="M 23 22 C 23.277344 22 23.5 22.222656 23.5 22.5 C 23.5 22.777344 23.277344 23 23 23 C 22.722656 23 22.5 22.777344 22.5 22.5 C 22.5 22.222656 22.722656 22 23 22 Z M 23 22 "/>
<path style=" stroke:none;fill-rule:nonzero;fill:rgb(0%,0%,0%);fill-opacity:0.4;" d="M 22.988281 22 C 22.714844 22.007812 22.5 22.226562 22.5 22.5 C 22.5 22.542969 22.503906 22.585938 22.515625 22.625 C 22.570312 22.410156 22.765625 22.25 23 22.25 C 23.234375 22.25 23.429688 22.410156 23.484375 22.625 C 23.496094 22.585938 23.5 22.542969 23.5 22.5 C 23.5 22.222656 23.277344 22 23 22 C 22.996094 22 22.992188 22 22.988281 22 Z M 22.988281 22 "/>
<path style=" stroke:none;fill-rule:nonzero;fill:rgb(100%,100%,100%);fill-opacity:0.4;" d="M 22.988281 23.25 C 22.714844 23.242188 22.5 23.023438 22.5 22.75 C 22.5 22.707031 22.503906 22.664062 22.515625 22.625 C 22.570312 22.839844 22.765625 23 23 23 C 23.234375 23 23.429688 22.839844 23.484375 22.625 C 23.496094 22.664062 23.5 22.707031 23.5 22.75 C 23.5 23.027344 23.277344 23.25 23 23.25 C 22.996094 23.25 22.992188 23.25 22.988281 23.25 Z M 22.988281 23.25 "/>
<path style=" stroke:none;fill-rule:nonzero;fill:rgb(0%,0%,0%);fill-opacity:0.4;" d="M 25 22 C 25.277344 22 25.5 22.222656 25.5 22.5 C 25.5 22.777344 25.277344 23 25 23 C 24.722656 23 24.5 22.777344 24.5 22.5 C 24.5 22.222656 24.722656 22 25 22 Z M 25 22 "/>
<path style=" stroke:none;fill-rule:nonzero;fill:rgb(0%,0%,0%);fill-opacity:0.4;" d="M 24.988281 22 C 24.714844 22.007812 24.5 22.226562 24.5 22.5 C 24.5 22.542969 24.503906 22.585938 24.515625 22.625 C 24.570312 22.410156 24.765625 22.25 25 22.25 C 25.234375 22.25 25.429688 22.410156 25.484375 22.625 C 25.496094 22.585938 25.5 22.542969 25.5 22.5 C 25.5 22.222656 25.277344 22 25 22 C 24.996094 22 24.992188 22 24.988281 22 Z M 24.988281 22 "/>
<path style=" stroke:none;fill-rule:nonzero;fill:rgb(100%,100%,100%);fill-opacity:0.4;" d="M 24.988281 23.25 C 24.714844 23.242188 24.5 23.023438 24.5 22.75 C 24.5 22.707031 24.503906 22.664062 24.515625 22.625 C 24.570312 22.839844 24.765625 23 25 23 C 25.234375 23 25.429688 22.839844 25.484375 22.625 C 25.496094 22.664062 25.5 22.707031 25.5 22.75 C 25.5 23.027344 25.277344 23.25 25 23.25 C 24.996094 23.25 24.992188 23.25 24.988281 23.25 Z M 24.988281 23.25 "/>
<path style=" stroke:none;fill-rule:nonzero;fill:rgb(0%,0%,0%);fill-opacity:0.4;" d="M 27.015625 22 C 27.292969 22 27.515625 22.222656 27.515625 22.5 C 27.515625 22.777344 27.292969 23 27.015625 23 C 26.738281 23 26.515625 22.777344 26.515625 22.5 C 26.515625 22.222656 26.738281 22 27.015625 22 Z M 27.015625 22 "/>
<path style=" stroke:none;fill-rule:nonzero;fill:rgb(0%,0%,0%);fill-opacity:0.4;" d="M 27.003906 22 C 26.730469 22.007812 26.515625 22.226562 26.515625 22.5 C 26.515625 22.542969 26.519531 22.585938 26.53125 22.625 C 26.585938 22.410156 26.78125 22.25 27.015625 22.25 C 27.25 22.25 27.445312 22.410156 27.5 22.625 C 27.511719 22.585938 27.515625 22.542969 27.515625 22.5 C 27.515625 22.222656 27.292969 22 27.015625 22 C 27.011719 22 27.007812 22 27.003906 22 Z M 27.003906 22 "/>
<path style=" stroke:none;fill-rule:nonzero;fill:rgb(100%,100%,100%);fill-opacity:0.4;" d="M 27.003906 23.25 C 26.730469 23.242188 26.515625 23.023438 26.515625 22.75 C 26.515625 22.707031 26.519531 22.664062 26.53125 22.625 C 26.585938 22.839844 26.78125 23 27.015625 23 C 27.25 23 27.445312 22.839844 27.5 22.625 C 27.511719 22.664062 27.515625 22.707031 27.515625 22.75 C 27.515625 23.027344 27.292969 23.25 27.015625 23.25 C 27.011719 23.25 27.007812 23.25 27.003906 23.25 Z M 27.003906 23.25 "/>
<path style=" stroke:none;fill-rule:nonzero;fill:rgb(0%,0%,0%);fill-opacity:0.4;" d="M 5.984375 24 C 6.261719 24 6.484375 24.222656 6.484375 24.5 C 6.484375 24.777344 6.261719 25 5.984375 25 C 5.707031 25 5.484375 24.777344 5.484375 24.5 C 5.484375 24.222656 5.707031 24 5.984375 24 Z M 5.984375 24 "/>
<path style=" stroke:none;fill-rule:nonzero;fill:rgb(0%,0%,0%);fill-opacity:0.4;" d="M 5.972656 24 C 5.699219 24.007812 5.484375 24.226562 5.484375 24.5 C 5.484375 24.542969 5.488281 24.585938 5.5 24.625 C 5.554688 24.410156 5.75 24.25 5.984375 24.25 C 6.21875 24.25 6.414062 24.410156 6.46875 24.625 C 6.480469 24.585938 6.484375 24.542969 6.484375 24.5 C 6.484375 24.222656 6.261719 24 5.984375 24 C 5.980469 24 5.976562 24 5.972656 24 Z M 5.972656 24 "/>
<path style=" stroke:none;fill-rule:nonzero;fill:rgb(100%,100%,100%);fill-opacity:0.4;" d="M 5.972656 25.25 C 5.699219 25.242188 5.484375 25.023438 5.484375 24.75 C 5.484375 24.707031 5.488281 24.664062 5.5 24.625 C 5.554688 24.839844 5.75 25 5.984375 25 C 6.21875 25 6.414062 24.839844 6.46875 24.625 C 6.480469 24.664062 6.484375 24.707031 6.484375 24.75 C 6.484375 25.027344 6.261719 25.25 5.984375 25.25 C 5.980469 25.25 5.976562 25.25 5.972656 25.25 Z M 5.972656 25.25 "/>
<path style=" stroke:none;fill-rule:nonzero;fill:rgb(0%,0%,0%);fill-opacity:0.4;" d="M 7.984375 24 C 8.261719 24 8.484375 24.222656 8.484375 24.5 C 8.484375 24.777344 8.261719 25 7.984375 25 C 7.707031 25 7.484375 24.777344 7.484375 24.5 C 7.484375 24.222656 7.707031 24 7.984375 24 Z M 7.984375 24 "/>
<path style=" stroke:none;fill-rule:nonzero;fill:rgb(0%,0%,0%);fill-opacity:0.4;" d="M 7.972656 24 C 7.699219 24.007812 7.484375 24.226562 7.484375 24.5 C 7.484375 24.542969 7.488281 24.585938 7.5 24.625 C 7.554688 24.410156 7.75 24.25 7.984375 24.25 C 8.21875 24.25 8.414062 24.410156 8.46875 24.625 C 8.480469 24.585938 8.484375 24.542969 8.484375 24.5 C 8.484375 24.222656 8.261719 24 7.984375 24 C 7.980469 24 7.976562 24 7.972656 24 Z M 7.972656 24 "/>
<path style=" stroke:none;fill-rule:nonzero;fill:rgb(100%,100%,100%);fill-opacity:0.4;" d="M 7.972656 25.25 C 7.699219 25.242188 7.484375 25.023438 7.484375 24.75 C 7.484375 24.707031 7.488281 24.664062 7.5 24.625 C 7.554688 24.839844 7.75 25 7.984375 25 C 8.21875 25 8.414062 24.839844 8.46875 24.625 C 8.480469 24.664062 8.484375 24.707031 8.484375 24.75 C 8.484375 25.027344 8.261719 25.25 7.984375 25.25 C 7.980469 25.25 7.976562 25.25 7.972656 25.25 Z M 7.972656 25.25 "/>
<path style=" stroke:none;fill-rule:nonzero;fill:rgb(0%,0%,0%);fill-opacity:0.4;" d="M 10 24 C 10.277344 24 10.5 24.222656 10.5 24.5 C 10.5 24.777344 10.277344 25 10 25 C 9.722656 25 9.5 24.777344 9.5 24.5 C 9.5 24.222656 9.722656 24 10 24 Z M 10 24 "/>
<path style=" stroke:none;fill-rule:nonzero;fill:rgb(0%,0%,0%);fill-opacity:0.4;" d="M 9.988281 24 C 9.714844 24.007812 9.5 24.226562 9.5 24.5 C 9.5 24.542969 9.503906 24.585938 9.515625 24.625 C 9.570312 24.410156 9.765625 24.25 10 24.25 C 10.234375 24.25 10.429688 24.410156 10.484375 24.625 C 10.496094 24.585938 10.5 24.542969 10.5 24.5 C 10.5 24.222656 10.277344 24 10 24 C 9.996094 24 9.992188 24 9.988281 24 Z M 9.988281 24 "/>
<path style=" stroke:none;fill-rule:nonzero;fill:rgb(100%,100%,100%);fill-opacity:0.4;" d="M 9.988281 25.25 C 9.714844 25.242188 9.5 25.023438 9.5 24.75 C 9.5 24.707031 9.503906 24.664062 9.515625 24.625 C 9.570312 24.839844 9.765625 25 10 25 C 10.234375 25 10.429688 24.839844 10.484375 24.625 C 10.496094 24.664062 10.5 24.707031 10.5 24.75 C 10.5 25.027344 10.277344 25.25 10 25.25 C 9.996094 25.25 9.992188 25.25 9.988281 25.25 Z M 9.988281 25.25 "/>
<path style=" stroke:none;fill-rule:nonzero;fill:rgb(0%,0%,0%);fill-opacity:0.4;" d="M 11.953125 24 C 12.230469 24 12.453125 24.222656 12.453125 24.5 C 12.453125 24.777344 12.230469 25 11.953125 25 C 11.675781 25 11.453125 24.777344 11.453125 24.5 C 11.453125 24.222656 11.675781 24 11.953125 24 Z M 11.953125 24 "/>
<path style=" stroke:none;fill-rule:nonzero;fill:rgb(0%,0%,0%);fill-opacity:0.4;" d="M 11.941406 24 C 11.667969 24.007812 11.453125 24.226562 11.453125 24.5 C 11.453125 24.542969 11.457031 24.585938 11.46875 24.625 C 11.523438 24.410156 11.71875 24.25 11.953125 24.25 C 12.1875 24.25 12.382812 24.410156 12.4375 24.625 C 12.449219 24.585938 12.453125 24.542969 12.453125 24.5 C 12.453125 24.222656 12.230469 24 11.953125 24 C 11.949219 24 11.945312 24 11.941406 24 Z M 11.941406 24 "/>
<path style=" stroke:none;fill-rule:nonzero;fill:rgb(100%,100%,100%);fill-opacity:0.4;" d="M 11.941406 25.25 C 11.667969 25.242188 11.453125 25.023438 11.453125 24.75 C 11.453125 24.707031 11.457031 24.664062 11.46875 24.625 C 11.523438 24.839844 11.71875 25 11.953125 25 C 12.1875 25 12.382812 24.839844 12.4375 24.625 C 12.449219 24.664062 12.453125 24.707031 12.453125 24.75 C 12.453125 25.027344 12.230469 25.25 11.953125 25.25 C 11.949219 25.25 11.945312 25.25 11.941406 25.25 Z M 11.941406 25.25 "/>
<path style=" stroke:none;fill-rule:nonzero;fill:rgb(0%,0%,0%);fill-opacity:0.4;" d="M 13.96875 24 C 14.246094 24 14.46875 24.222656 14.46875 24.5 C 14.46875 24.777344 14.246094 25 13.96875 25 C 13.691406 25 13.46875 24.777344 13.46875 24.5 C 13.46875 24.222656 13.691406 24 13.96875 24 Z M 13.96875 24 "/>
<path style=" stroke:none;fill-rule:nonzero;fill:rgb(0%,0%,0%);fill-opacity:0.4;" d="M 13.957031 24 C 13.683594 24.007812 13.46875 24.226562 13.46875 24.5 C 13.46875 24.542969 13.472656 24.585938 13.484375 24.625 C 13.539062 24.410156 13.734375 24.25 13.96875 24.25 C 14.203125 24.25 14.398438 24.410156 14.453125 24.625 C 14.464844 24.585938 14.46875 24.542969 14.46875 24.5 C 14.46875 24.222656 14.246094 24 13.96875 24 C 13.964844 24 13.960938 24 13.957031 24 Z M 13.957031 24 "/>
<path style=" stroke:none;fill-rule:nonzero;fill:rgb(100%,100%,100%);fill-opacity:0.4;" d="M 13.957031 25.25 C 13.683594 25.242188 13.46875 25.023438 13.46875 24.75 C 13.46875 24.707031 13.472656 24.664062 13.484375 24.625 C 13.539062 24.839844 13.734375 25 13.96875 25 C 14.203125 25 14.398438 24.839844 14.453125 24.625 C 14.464844 24.664062 14.46875 24.707031 14.46875 24.75 C 14.46875 25.027344 14.246094 25.25 13.96875 25.25 C 13.964844 25.25 13.960938 25.25 13.957031 25.25 Z M 13.957031 25.25 "/>
<path style=" stroke:none;fill-rule:nonzero;fill:rgb(0%,0%,0%);fill-opacity:0.4;" d="M 15.96875 24 C 16.246094 24 16.46875 24.222656 16.46875 24.5 C 16.46875 24.777344 16.246094 25 15.96875 25 C 15.691406 25 15.46875 24.777344 15.46875 24.5 C 15.46875 24.222656 15.691406 24 15.96875 24 Z M 15.96875 24 "/>
<path style=" stroke:none;fill-rule:nonzero;fill:rgb(0%,0%,0%);fill-opacity:0.4;" d="M 15.957031 24 C 15.683594 24.007812 15.46875 24.226562 15.46875 24.5 C 15.46875 24.542969 15.472656 24.585938 15.484375 24.625 C 15.539062 24.410156 15.734375 24.25 15.96875 24.25 C 16.203125 24.25 16.398438 24.410156 16.453125 24.625 C 16.464844 24.585938 16.46875 24.542969 16.46875 24.5 C 16.46875 24.222656 16.246094 24 15.96875 24 C 15.964844 24 15.960938 24 15.957031 24 Z M 15.957031 24 "/>
<path style=" stroke:none;fill-rule:nonzero;fill:rgb(100%,100%,100%);fill-opacity:0.4;" d="M 15.957031 25.25 C 15.683594 25.242188 15.46875 25.023438 15.46875 24.75 C 15.46875 24.707031 15.472656 24.664062 15.484375 24.625 C 15.539062 24.839844 15.734375 25 15.96875 25 C 16.203125 25 16.398438 24.839844 16.453125 24.625 C 16.464844 24.664062 16.46875 24.707031 16.46875 24.75 C 16.46875 25.027344 16.246094 25.25 15.96875 25.25 C 15.964844 25.25 15.960938 25.25 15.957031 25.25 Z M 15.957031 25.25 "/>
<path style=" stroke:none;fill-rule:nonzero;fill:rgb(0%,0%,0%);fill-opacity:0.4;" d="M 17.984375 24 C 18.261719 24 18.484375 24.222656 18.484375 24.5 C 18.484375 24.777344 18.261719 25 17.984375 25 C 17.707031 25 17.484375 24.777344 17.484375 24.5 C 17.484375 24.222656 17.707031 24 17.984375 24 Z M 17.984375 24 "/>
<path style=" stroke:none;fill-rule:nonzero;fill:rgb(0%,0%,0%);fill-opacity:0.4;" d="M 17.972656 24 C 17.699219 24.007812 17.484375 24.226562 17.484375 24.5 C 17.484375 24.542969 17.488281 24.585938 17.5 24.625 C 17.554688 24.410156 17.75 24.25 17.984375 24.25 C 18.21875 24.25 18.414062 24.410156 18.46875 24.625 C 18.480469 24.585938 18.484375 24.542969 18.484375 24.5 C 18.484375 24.222656 18.261719 24 17.984375 24 C 17.980469 24 17.976562 24 17.972656 24 Z M 17.972656 24 "/>
<path style=" stroke:none;fill-rule:nonzero;fill:rgb(100%,100%,100%);fill-opacity:0.4;" d="M 17.972656 25.25 C 17.699219 25.242188 17.484375 25.023438 17.484375 24.75 C 17.484375 24.707031 17.488281 24.664062 17.5 24.625 C 17.554688 24.839844 17.75 25 17.984375 25 C 18.21875 25 18.414062 24.839844 18.46875 24.625 C 18.480469 24.664062 18.484375 24.707031 18.484375 24.75 C 18.484375 25.027344 18.261719 25.25 17.984375 25.25 C 17.980469 25.25 17.976562 25.25 17.972656 25.25 Z M 17.972656 25.25 "/>
<path style=" stroke:none;fill-rule:nonzero;fill:rgb(0%,0%,0%);fill-opacity:0.4;" d="M 19.953125 24 C 20.230469 24 20.453125 24.222656 20.453125 24.5 C 20.453125 24.777344 20.230469 25 19.953125 25 C 19.675781 25 19.453125 24.777344 19.453125 24.5 C 19.453125 24.222656 19.675781 24 19.953125 24 Z M 19.953125 24 "/>
<path style=" stroke:none;fill-rule:nonzero;fill:rgb(0%,0%,0%);fill-opacity:0.4;" d="M 19.941406 24 C 19.667969 24.007812 19.453125 24.226562 19.453125 24.5 C 19.453125 24.542969 19.457031 24.585938 19.46875 24.625 C 19.523438 24.410156 19.71875 24.25 19.953125 24.25 C 20.1875 24.25 20.382812 24.410156 20.4375 24.625 C 20.449219 24.585938 20.453125 24.542969 20.453125 24.5 C 20.453125 24.222656 20.230469 24 19.953125 24 C 19.949219 24 19.945312 24 19.941406 24 Z M 19.941406 24 "/>
<path style=" stroke:none;fill-rule:nonzero;fill:rgb(100%,100%,100%);fill-opacity:0.4;" d="M 19.941406 25.25 C 19.667969 25.242188 19.453125 25.023438 19.453125 24.75 C 19.453125 24.707031 19.457031 24.664062 19.46875 24.625 C 19.523438 24.839844 19.71875 25 19.953125 25 C 20.1875 25 20.382812 24.839844 20.4375 24.625 C 20.449219 24.664062 20.453125 24.707031 20.453125 24.75 C 20.453125 25.027344 20.230469 25.25 19.953125 25.25 C 19.949219 25.25 19.945312 25.25 19.941406 25.25 Z M 19.941406 25.25 "/>
<path style=" stroke:none;fill-rule:nonzero;fill:rgb(0%,0%,0%);fill-opacity:0.4;" d="M 21.96875 24 C 22.246094 24 22.46875 24.222656 22.46875 24.5 C 22.46875 24.777344 22.246094 25 21.96875 25 C 21.691406 25 21.46875 24.777344 21.46875 24.5 C 21.46875 24.222656 21.691406 24 21.96875 24 Z M 21.96875 24 "/>
<path style=" stroke:none;fill-rule:nonzero;fill:rgb(0%,0%,0%);fill-opacity:0.4;" d="M 21.957031 24 C 21.683594 24.007812 21.46875 24.226562 21.46875 24.5 C 21.46875 24.542969 21.472656 24.585938 21.484375 24.625 C 21.539062 24.410156 21.734375 24.25 21.96875 24.25 C 22.203125 24.25 22.398438 24.410156 22.453125 24.625 C 22.464844 24.585938 22.46875 24.542969 22.46875 24.5 C 22.46875 24.222656 22.246094 24 21.96875 24 C 21.964844 24 21.960938 24 21.957031 24 Z M 21.957031 24 "/>
<path style=" stroke:none;fill-rule:nonzero;fill:rgb(100%,100%,100%);fill-opacity:0.4;" d="M 21.957031 25.25 C 21.683594 25.242188 21.46875 25.023438 21.46875 24.75 C 21.46875 24.707031 21.472656 24.664062 21.484375 24.625 C 21.539062 24.839844 21.734375 25 21.96875 25 C 22.203125 25 22.398438 24.839844 22.453125 24.625 C 22.464844 24.664062 22.46875 24.707031 22.46875 24.75 C 22.46875 25.027344 22.246094 25.25 21.96875 25.25 C 21.964844 25.25 21.960938 25.25 21.957031 25.25 Z M 21.957031 25.25 "/>
<path style=" stroke:none;fill-rule:nonzero;fill:rgb(0%,0%,0%);fill-opacity:0.4;" d="M 23.96875 24 C 24.246094 24 24.46875 24.222656 24.46875 24.5 C 24.46875 24.777344 24.246094 25 23.96875 25 C 23.691406 25 23.46875 24.777344 23.46875 24.5 C 23.46875 24.222656 23.691406 24 23.96875 24 Z M 23.96875 24 "/>
<path style=" stroke:none;fill-rule:nonzero;fill:rgb(0%,0%,0%);fill-opacity:0.4;" d="M 23.957031 24 C 23.683594 24.007812 23.46875 24.226562 23.46875 24.5 C 23.46875 24.542969 23.472656 24.585938 23.484375 24.625 C 23.539062 24.410156 23.734375 24.25 23.96875 24.25 C 24.203125 24.25 24.398438 24.410156 24.453125 24.625 C 24.464844 24.585938 24.46875 24.542969 24.46875 24.5 C 24.46875 24.222656 24.246094 24 23.96875 24 C 23.964844 24 23.960938 24 23.957031 24 Z M 23.957031 24 "/>
<path style=" stroke:none;fill-rule:nonzero;fill:rgb(100%,100%,100%);fill-opacity:0.4;" d="M 23.957031 25.25 C 23.683594 25.242188 23.46875 25.023438 23.46875 24.75 C 23.46875 24.707031 23.472656 24.664062 23.484375 24.625 C 23.539062 24.839844 23.734375 25 23.96875 25 C 24.203125 25 24.398438 24.839844 24.453125 24.625 C 24.464844 24.664062 24.46875 24.707031 24.46875 24.75 C 24.46875 25.027344 24.246094 25.25 23.96875 25.25 C 23.964844 25.25 23.960938 25.25 23.957031 25.25 Z M 23.957031 25.25 "/>
<path style=" stroke:none;fill-rule:nonzero;fill:rgb(0%,0%,0%);fill-opacity:0.4;" d="M 25.984375 24 C 26.261719 24 26.484375 24.222656 26.484375 24.5 C 26.484375 24.777344 26.261719 25 25.984375 25 C 25.707031 25 25.484375 24.777344 25.484375 24.5 C 25.484375 24.222656 25.707031 24 25.984375 24 Z M 25.984375 24 "/>
<path style=" stroke:none;fill-rule:nonzero;fill:rgb(0%,0%,0%);fill-opacity:0.4;" d="M 25.972656 24 C 25.699219 24.007812 25.484375 24.226562 25.484375 24.5 C 25.484375 24.542969 25.488281 24.585938 25.5 24.625 C 25.554688 24.410156 25.75 24.25 25.984375 24.25 C 26.21875 24.25 26.414062 24.410156 26.46875 24.625 C 26.480469 24.585938 26.484375 24.542969 26.484375 24.5 C 26.484375 24.222656 26.261719 24 25.984375 24 C 25.980469 24 25.976562 24 25.972656 24 Z M 25.972656 24 "/>
<path style=" stroke:none;fill-rule:nonzero;fill:rgb(100%,100%,100%);fill-opacity:0.4;" d="M 25.972656 25.25 C 25.699219 25.242188 25.484375 25.023438 25.484375 24.75 C 25.484375 24.707031 25.488281 24.664062 25.5 24.625 C 25.554688 24.839844 25.75 25 25.984375 25 C 26.21875 25 26.414062 24.839844 26.46875 24.625 C 26.480469 24.664062 26.484375 24.707031 26.484375 24.75 C 26.484375 25.027344 26.261719 25.25 25.984375 25.25 C 25.980469 25.25 25.976562 25.25 25.972656 25.25 Z M 25.972656 25.25 "/>
<path style=" stroke:none;fill-rule:nonzero;fill:rgb(0%,0%,0%);fill-opacity:0.4;" d="M 5 26 C 5.277344 26 5.5 26.222656 5.5 26.5 C 5.5 26.777344 5.277344 27 5 27 C 4.722656 27 4.5 26.777344 4.5 26.5 C 4.5 26.222656 4.722656 26 5 26 Z M 5 26 "/>
<path style=" stroke:none;fill-rule:nonzero;fill:rgb(0%,0%,0%);fill-opacity:0.4;" d="M 4.988281 26 C 4.714844 26.007812 4.5 26.226562 4.5 26.5 C 4.5 26.542969 4.503906 26.585938 4.515625 26.625 C 4.570312 26.410156 4.765625 26.25 5 26.25 C 5.234375 26.25 5.429688 26.410156 5.484375 26.625 C 5.496094 26.585938 5.5 26.542969 5.5 26.5 C 5.5 26.222656 5.277344 26 5 26 C 4.996094 26 4.992188 26 4.988281 26 Z M 4.988281 26 "/>
<path style=" stroke:none;fill-rule:nonzero;fill:rgb(100%,100%,100%);fill-opacity:0.4;" d="M 4.988281 27.25 C 4.714844 27.242188 4.5 27.023438 4.5 26.75 C 4.5 26.707031 4.503906 26.664062 4.515625 26.625 C 4.570312 26.839844 4.765625 27 5 27 C 5.234375 27 5.429688 26.839844 5.484375 26.625 C 5.496094 26.664062 5.5 26.707031 5.5 26.75 C 5.5 27.027344 5.277344 27.25 5 27.25 C 4.996094 27.25 4.992188 27.25 4.988281 27.25 Z M 4.988281 27.25 "/>
<path style=" stroke:none;fill-rule:nonzero;fill:rgb(0%,0%,0%);fill-opacity:0.4;" d="M 7.015625 26 C 7.292969 26 7.515625 26.222656 7.515625 26.5 C 7.515625 26.777344 7.292969 27 7.015625 27 C 6.738281 27 6.515625 26.777344 6.515625 26.5 C 6.515625 26.222656 6.738281 26 7.015625 26 Z M 7.015625 26 "/>
<path style=" stroke:none;fill-rule:nonzero;fill:rgb(0%,0%,0%);fill-opacity:0.4;" d="M 7.003906 26 C 6.730469 26.007812 6.515625 26.226562 6.515625 26.5 C 6.515625 26.542969 6.519531 26.585938 6.53125 26.625 C 6.585938 26.410156 6.78125 26.25 7.015625 26.25 C 7.25 26.25 7.445312 26.410156 7.5 26.625 C 7.511719 26.585938 7.515625 26.542969 7.515625 26.5 C 7.515625 26.222656 7.292969 26 7.015625 26 C 7.011719 26 7.007812 26 7.003906 26 Z M 7.003906 26 "/>
<path style=" stroke:none;fill-rule:nonzero;fill:rgb(100%,100%,100%);fill-opacity:0.4;" d="M 7.003906 27.25 C 6.730469 27.242188 6.515625 27.023438 6.515625 26.75 C 6.515625 26.707031 6.519531 26.664062 6.53125 26.625 C 6.585938 26.839844 6.78125 27 7.015625 27 C 7.25 27 7.445312 26.839844 7.5 26.625 C 7.511719 26.664062 7.515625 26.707031 7.515625 26.75 C 7.515625 27.027344 7.292969 27.25 7.015625 27.25 C 7.011719 27.25 7.007812 27.25 7.003906 27.25 Z M 7.003906 27.25 "/>
<path style=" stroke:none;fill-rule:nonzero;fill:rgb(0%,0%,0%);fill-opacity:0.4;" d="M 9.015625 26 C 9.292969 26 9.515625 26.222656 9.515625 26.5 C 9.515625 26.777344 9.292969 27 9.015625 27 C 8.738281 27 8.515625 26.777344 8.515625 26.5 C 8.515625 26.222656 8.738281 26 9.015625 26 Z M 9.015625 26 "/>
<path style=" stroke:none;fill-rule:nonzero;fill:rgb(0%,0%,0%);fill-opacity:0.4;" d="M 9.003906 26 C 8.730469 26.007812 8.515625 26.226562 8.515625 26.5 C 8.515625 26.542969 8.519531 26.585938 8.53125 26.625 C 8.585938 26.410156 8.78125 26.25 9.015625 26.25 C 9.25 26.25 9.445312 26.410156 9.5 26.625 C 9.511719 26.585938 9.515625 26.542969 9.515625 26.5 C 9.515625 26.222656 9.292969 26 9.015625 26 C 9.011719 26 9.007812 26 9.003906 26 Z M 9.003906 26 "/>
<path style=" stroke:none;fill-rule:nonzero;fill:rgb(100%,100%,100%);fill-opacity:0.4;" d="M 9.003906 27.25 C 8.730469 27.242188 8.515625 27.023438 8.515625 26.75 C 8.515625 26.707031 8.519531 26.664062 8.53125 26.625 C 8.585938 26.839844 8.78125 27 9.015625 27 C 9.25 27 9.445312 26.839844 9.5 26.625 C 9.511719 26.664062 9.515625 26.707031 9.515625 26.75 C 9.515625 27.027344 9.292969 27.25 9.015625 27.25 C 9.011719 27.25 9.007812 27.25 9.003906 27.25 Z M 9.003906 27.25 "/>
<path style=" stroke:none;fill-rule:nonzero;fill:rgb(0%,0%,0%);fill-opacity:0.4;" d="M 11.03125 26 C 11.308594 26 11.53125 26.222656 11.53125 26.5 C 11.53125 26.777344 11.308594 27 11.03125 27 C 10.753906 27 10.53125 26.777344 10.53125 26.5 C 10.53125 26.222656 10.753906 26 11.03125 26 Z M 11.03125 26 "/>
<path style=" stroke:none;fill-rule:nonzero;fill:rgb(0%,0%,0%);fill-opacity:0.4;" d="M 11.019531 26 C 10.746094 26.007812 10.53125 26.226562 10.53125 26.5 C 10.53125 26.542969 10.535156 26.585938 10.546875 26.625 C 10.601562 26.410156 10.796875 26.25 11.03125 26.25 C 11.265625 26.25 11.460938 26.410156 11.515625 26.625 C 11.527344 26.585938 11.53125 26.542969 11.53125 26.5 C 11.53125 26.222656 11.308594 26 11.03125 26 C 11.027344 26 11.023438 26 11.019531 26 Z M 11.019531 26 "/>
<path style=" stroke:none;fill-rule:nonzero;fill:rgb(100%,100%,100%);fill-opacity:0.4;" d="M 11.019531 27.25 C 10.746094 27.242188 10.53125 27.023438 10.53125 26.75 C 10.53125 26.707031 10.535156 26.664062 10.546875 26.625 C 10.601562 26.839844 10.796875 27 11.03125 27 C 11.265625 27 11.460938 26.839844 11.515625 26.625 C 11.527344 26.664062 11.53125 26.707031 11.53125 26.75 C 11.53125 27.027344 11.308594 27.25 11.03125 27.25 C 11.027344 27.25 11.023438 27.25 11.019531 27.25 Z M 11.019531 27.25 "/>
<path style=" stroke:none;fill-rule:nonzero;fill:rgb(0%,0%,0%);fill-opacity:0.4;" d="M 12.984375 26 C 13.261719 26 13.484375 26.222656 13.484375 26.5 C 13.484375 26.777344 13.261719 27 12.984375 27 C 12.707031 27 12.484375 26.777344 12.484375 26.5 C 12.484375 26.222656 12.707031 26 12.984375 26 Z M 12.984375 26 "/>
<path style=" stroke:none;fill-rule:nonzero;fill:rgb(0%,0%,0%);fill-opacity:0.4;" d="M 12.972656 26 C 12.699219 26.007812 12.484375 26.226562 12.484375 26.5 C 12.484375 26.542969 12.488281 26.585938 12.5 26.625 C 12.554688 26.410156 12.75 26.25 12.984375 26.25 C 13.21875 26.25 13.414062 26.410156 13.46875 26.625 C 13.480469 26.585938 13.484375 26.542969 13.484375 26.5 C 13.484375 26.222656 13.261719 26 12.984375 26 C 12.980469 26 12.976562 26 12.972656 26 Z M 12.972656 26 "/>
<path style=" stroke:none;fill-rule:nonzero;fill:rgb(100%,100%,100%);fill-opacity:0.4;" d="M 12.972656 27.25 C 12.699219 27.242188 12.484375 27.023438 12.484375 26.75 C 12.484375 26.707031 12.488281 26.664062 12.5 26.625 C 12.554688 26.839844 12.75 27 12.984375 27 C 13.21875 27 13.414062 26.839844 13.46875 26.625 C 13.480469 26.664062 13.484375 26.707031 13.484375 26.75 C 13.484375 27.027344 13.261719 27.25 12.984375 27.25 C 12.980469 27.25 12.976562 27.25 12.972656 27.25 Z M 12.972656 27.25 "/>
<path style=" stroke:none;fill-rule:nonzero;fill:rgb(0%,0%,0%);fill-opacity:0.4;" d="M 15 26 C 15.277344 26 15.5 26.222656 15.5 26.5 C 15.5 26.777344 15.277344 27 15 27 C 14.722656 27 14.5 26.777344 14.5 26.5 C 14.5 26.222656 14.722656 26 15 26 Z M 15 26 "/>
<path style=" stroke:none;fill-rule:nonzero;fill:rgb(0%,0%,0%);fill-opacity:0.4;" d="M 14.988281 26 C 14.714844 26.007812 14.5 26.226562 14.5 26.5 C 14.5 26.542969 14.503906 26.585938 14.515625 26.625 C 14.570312 26.410156 14.765625 26.25 15 26.25 C 15.234375 26.25 15.429688 26.410156 15.484375 26.625 C 15.496094 26.585938 15.5 26.542969 15.5 26.5 C 15.5 26.222656 15.277344 26 15 26 C 14.996094 26 14.992188 26 14.988281 26 Z M 14.988281 26 "/>
<path style=" stroke:none;fill-rule:nonzero;fill:rgb(100%,100%,100%);fill-opacity:0.4;" d="M 14.988281 27.25 C 14.714844 27.242188 14.5 27.023438 14.5 26.75 C 14.5 26.707031 14.503906 26.664062 14.515625 26.625 C 14.570312 26.839844 14.765625 27 15 27 C 15.234375 27 15.429688 26.839844 15.484375 26.625 C 15.496094 26.664062 15.5 26.707031 15.5 26.75 C 15.5 27.027344 15.277344 27.25 15 27.25 C 14.996094 27.25 14.992188 27.25 14.988281 27.25 Z M 14.988281 27.25 "/>
<path style=" stroke:none;fill-rule:nonzero;fill:rgb(0%,0%,0%);fill-opacity:0.4;" d="M 17 26 C 17.277344 26 17.5 26.222656 17.5 26.5 C 17.5 26.777344 17.277344 27 17 27 C 16.722656 27 16.5 26.777344 16.5 26.5 C 16.5 26.222656 16.722656 26 17 26 Z M 17 26 "/>
<path style=" stroke:none;fill-rule:nonzero;fill:rgb(0%,0%,0%);fill-opacity:0.4;" d="M 16.988281 26 C 16.714844 26.007812 16.5 26.226562 16.5 26.5 C 16.5 26.542969 16.503906 26.585938 16.515625 26.625 C 16.570312 26.410156 16.765625 26.25 17 26.25 C 17.234375 26.25 17.429688 26.410156 17.484375 26.625 C 17.496094 26.585938 17.5 26.542969 17.5 26.5 C 17.5 26.222656 17.277344 26 17 26 C 16.996094 26 16.992188 26 16.988281 26 Z M 16.988281 26 "/>
<path style=" stroke:none;fill-rule:nonzero;fill:rgb(100%,100%,100%);fill-opacity:0.4;" d="M 16.988281 27.25 C 16.714844 27.242188 16.5 27.023438 16.5 26.75 C 16.5 26.707031 16.503906 26.664062 16.515625 26.625 C 16.570312 26.839844 16.765625 27 17 27 C 17.234375 27 17.429688 26.839844 17.484375 26.625 C 17.496094 26.664062 17.5 26.707031 17.5 26.75 C 17.5 27.027344 17.277344 27.25 17 27.25 C 16.996094 27.25 16.992188 27.25 16.988281 27.25 Z M 16.988281 27.25 "/>
<path style=" stroke:none;fill-rule:nonzero;fill:rgb(0%,0%,0%);fill-opacity:0.4;" d="M 19.015625 26 C 19.292969 26 19.515625 26.222656 19.515625 26.5 C 19.515625 26.777344 19.292969 27 19.015625 27 C 18.738281 27 18.515625 26.777344 18.515625 26.5 C 18.515625 26.222656 18.738281 26 19.015625 26 Z M 19.015625 26 "/>
<path style=" stroke:none;fill-rule:nonzero;fill:rgb(0%,0%,0%);fill-opacity:0.4;" d="M 19.003906 26 C 18.730469 26.007812 18.515625 26.226562 18.515625 26.5 C 18.515625 26.542969 18.519531 26.585938 18.53125 26.625 C 18.585938 26.410156 18.78125 26.25 19.015625 26.25 C 19.25 26.25 19.445312 26.410156 19.5 26.625 C 19.511719 26.585938 19.515625 26.542969 19.515625 26.5 C 19.515625 26.222656 19.292969 26 19.015625 26 C 19.011719 26 19.007812 26 19.003906 26 Z M 19.003906 26 "/>
<path style=" stroke:none;fill-rule:nonzero;fill:rgb(100%,100%,100%);fill-opacity:0.4;" d="M 19.003906 27.25 C 18.730469 27.242188 18.515625 27.023438 18.515625 26.75 C 18.515625 26.707031 18.519531 26.664062 18.53125 26.625 C 18.585938 26.839844 18.78125 27 19.015625 27 C 19.25 27 19.445312 26.839844 19.5 26.625 C 19.511719 26.664062 19.515625 26.707031 19.515625 26.75 C 19.515625 27.027344 19.292969 27.25 19.015625 27.25 C 19.011719 27.25 19.007812 27.25 19.003906 27.25 Z M 19.003906 27.25 "/>
<path style=" stroke:none;fill-rule:nonzero;fill:rgb(0%,0%,0%);fill-opacity:0.4;" d="M 20.984375 26 C 21.261719 26 21.484375 26.222656 21.484375 26.5 C 21.484375 26.777344 21.261719 27 20.984375 27 C 20.707031 27 20.484375 26.777344 20.484375 26.5 C 20.484375 26.222656 20.707031 26 20.984375 26 Z M 20.984375 26 "/>
<path style=" stroke:none;fill-rule:nonzero;fill:rgb(0%,0%,0%);fill-opacity:0.4;" d="M 20.972656 26 C 20.699219 26.007812 20.484375 26.226562 20.484375 26.5 C 20.484375 26.542969 20.488281 26.585938 20.5 26.625 C 20.554688 26.410156 20.75 26.25 20.984375 26.25 C 21.21875 26.25 21.414062 26.410156 21.46875 26.625 C 21.480469 26.585938 21.484375 26.542969 21.484375 26.5 C 21.484375 26.222656 21.261719 26 20.984375 26 C 20.980469 26 20.976562 26 20.972656 26 Z M 20.972656 26 "/>
<path style=" stroke:none;fill-rule:nonzero;fill:rgb(100%,100%,100%);fill-opacity:0.4;" d="M 20.972656 27.25 C 20.699219 27.242188 20.484375 27.023438 20.484375 26.75 C 20.484375 26.707031 20.488281 26.664062 20.5 26.625 C 20.554688 26.839844 20.75 27 20.984375 27 C 21.21875 27 21.414062 26.839844 21.46875 26.625 C 21.480469 26.664062 21.484375 26.707031 21.484375 26.75 C 21.484375 27.027344 21.261719 27.25 20.984375 27.25 C 20.980469 27.25 20.976562 27.25 20.972656 27.25 Z M 20.972656 27.25 "/>
<path style=" stroke:none;fill-rule:nonzero;fill:rgb(0%,0%,0%);fill-opacity:0.4;" d="M 23 26 C 23.277344 26 23.5 26.222656 23.5 26.5 C 23.5 26.777344 23.277344 27 23 27 C 22.722656 27 22.5 26.777344 22.5 26.5 C 22.5 26.222656 22.722656 26 23 26 Z M 23 26 "/>
<path style=" stroke:none;fill-rule:nonzero;fill:rgb(0%,0%,0%);fill-opacity:0.4;" d="M 22.988281 26 C 22.714844 26.007812 22.5 26.226562 22.5 26.5 C 22.5 26.542969 22.503906 26.585938 22.515625 26.625 C 22.570312 26.410156 22.765625 26.25 23 26.25 C 23.234375 26.25 23.429688 26.410156 23.484375 26.625 C 23.496094 26.585938 23.5 26.542969 23.5 26.5 C 23.5 26.222656 23.277344 26 23 26 C 22.996094 26 22.992188 26 22.988281 26 Z M 22.988281 26 "/>
<path style=" stroke:none;fill-rule:nonzero;fill:rgb(100%,100%,100%);fill-opacity:0.4;" d="M 22.988281 27.25 C 22.714844 27.242188 22.5 27.023438 22.5 26.75 C 22.5 26.707031 22.503906 26.664062 22.515625 26.625 C 22.570312 26.839844 22.765625 27 23 27 C 23.234375 27 23.429688 26.839844 23.484375 26.625 C 23.496094 26.664062 23.5 26.707031 23.5 26.75 C 23.5 27.027344 23.277344 27.25 23 27.25 C 22.996094 27.25 22.992188 27.25 22.988281 27.25 Z M 22.988281 27.25 "/>
<path style=" stroke:none;fill-rule:nonzero;fill:rgb(0%,0%,0%);fill-opacity:0.4;" d="M 25 26 C 25.277344 26 25.5 26.222656 25.5 26.5 C 25.5 26.777344 25.277344 27 25 27 C 24.722656 27 24.5 26.777344 24.5 26.5 C 24.5 26.222656 24.722656 26 25 26 Z M 25 26 "/>
<path style=" stroke:none;fill-rule:nonzero;fill:rgb(0%,0%,0%);fill-opacity:0.4;" d="M 24.988281 26 C 24.714844 26.007812 24.5 26.226562 24.5 26.5 C 24.5 26.542969 24.503906 26.585938 24.515625 26.625 C 24.570312 26.410156 24.765625 26.25 25 26.25 C 25.234375 26.25 25.429688 26.410156 25.484375 26.625 C 25.496094 26.585938 25.5 26.542969 25.5 26.5 C 25.5 26.222656 25.277344 26 25 26 C 24.996094 26 24.992188 26 24.988281 26 Z M 24.988281 26 "/>
<path style=" stroke:none;fill-rule:nonzero;fill:rgb(100%,100%,100%);fill-opacity:0.4;" d="M 24.988281 27.25 C 24.714844 27.242188 24.5 27.023438 24.5 26.75 C 24.5 26.707031 24.503906 26.664062 24.515625 26.625 C 24.570312 26.839844 24.765625 27 25 27 C 25.234375 27 25.429688 26.839844 25.484375 26.625 C 25.496094 26.664062 25.5 26.707031 25.5 26.75 C 25.5 27.027344 25.277344 27.25 25 27.25 C 24.996094 27.25 24.992188 27.25 24.988281 27.25 Z M 24.988281 27.25 "/>
<path style=" stroke:none;fill-rule:nonzero;fill:rgb(0%,0%,0%);fill-opacity:0.4;" d="M 27.015625 26 C 27.292969 26 27.515625 26.222656 27.515625 26.5 C 27.515625 26.777344 27.292969 27 27.015625 27 C 26.738281 27 26.515625 26.777344 26.515625 26.5 C 26.515625 26.222656 26.738281 26 27.015625 26 Z M 27.015625 26 "/>
<path style=" stroke:none;fill-rule:nonzero;fill:rgb(0%,0%,0%);fill-opacity:0.4;" d="M 27.003906 26 C 26.730469 26.007812 26.515625 26.226562 26.515625 26.5 C 26.515625 26.542969 26.519531 26.585938 26.53125 26.625 C 26.585938 26.410156 26.78125 26.25 27.015625 26.25 C 27.25 26.25 27.445312 26.410156 27.5 26.625 C 27.511719 26.585938 27.515625 26.542969 27.515625 26.5 C 27.515625 26.222656 27.292969 26 27.015625 26 C 27.011719 26 27.007812 26 27.003906 26 Z M 27.003906 26 "/>
<path style=" stroke:none;fill-rule:nonzero;fill:rgb(100%,100%,100%);fill-opacity:0.4;" d="M 27.003906 27.25 C 26.730469 27.242188 26.515625 27.023438 26.515625 26.75 C 26.515625 26.707031 26.519531 26.664062 26.53125 26.625 C 26.585938 26.839844 26.78125 27 27.015625 27 C 27.25 27 27.445312 26.839844 27.5 26.625 C 27.511719 26.664062 27.515625 26.707031 27.515625 26.75 C 27.515625 27.027344 27.292969 27.25 27.015625 27.25 C 27.011719 27.25 27.007812 27.25 27.003906 27.25 Z M 27.003906 27.25 "/>
<path style=" stroke:none;fill-rule:nonzero;fill:url(#linear0);" d="M 4 2 L 28 2 C 29.105469 2 30 2.894531 30 4 L 30 28 C 30 29.105469 29.105469 30 28 30 L 4 30 C 2.894531 30 2 29.105469 2 28 L 2 4 C 2 2.894531 2.894531 2 4 2 Z M 4 2 "/>
</g>
</svg>
