<svg width="50" height="50" xmlns="http://www.w3.org/2000/svg" xmlns:xlink="http://www.w3.org/1999/xlink" xml:space="preserve" overflow="hidden"><g transform="translate(-277 -156)"><path d="M285.9 167.48 285.56 165.91 284 165.91 283.66 167.48 282.26 167.48 284.08 160.9 285.55 160.9 287.36 167.48ZM284.19 165 285.36 165 284.76 162.28Z" fill="#527FFF"/><path d="M292.75 167.48 292.75 164.28C292.761 164.074 292.723 163.869 292.64 163.68 292.569 163.55 292.427 163.476 292.28 163.49 292.053 163.506 291.834 163.586 291.65 163.72 291.655 163.753 291.655 163.787 291.65 163.82L291.65 167.48 290.35 167.48 290.35 164.28C290.366 164.074 290.328 163.867 290.24 163.68 290.169 163.55 290.027 163.476 289.88 163.49 289.656 163.508 289.442 163.588 289.26 163.72L289.26 167.48 288 167.48 288 162.62 289 162.62 289.1 163.06C289.503 162.729 290 162.533 290.52 162.5 290.925 162.483 291.3 162.712 291.47 163.08 291.901 162.722 292.44 162.518 293 162.5 293.315 162.48 293.619 162.618 293.81 162.87 294.011 163.164 294.113 163.514 294.1 163.87L294.1 167.43Z" fill="#527FFF"/><path d="M297.43 167.48 297.32 167C297.203 167.176 297.04 167.318 296.85 167.41 296.661 167.508 296.452 167.559 296.24 167.56 295.89 167.574 295.55 167.435 295.31 167.18 295.089 166.888 294.979 166.526 295 166.16 294.937 165.373 295.524 164.683 296.311 164.62 296.387 164.614 296.464 164.614 296.54 164.62 296.787 164.629 297.032 164.666 297.27 164.73L297.27 164.3C297.294 164.069 297.248 163.836 297.14 163.63 297.024 163.495 296.847 163.427 296.67 163.45 296.189 163.469 295.715 163.574 295.27 163.76L295.27 162.89C295.496 162.757 295.743 162.663 296 162.61 296.298 162.539 296.603 162.502 296.91 162.5 297.345 162.462 297.776 162.599 298.11 162.88 298.383 163.218 298.515 163.647 298.48 164.08L298.48 167.48ZM296.62 166.69C296.858 166.674 297.08 166.567 297.24 166.39L297.24 165.46C297.082 165.409 296.916 165.385 296.75 165.39 296.59 165.382 296.435 165.448 296.33 165.57 296.22 165.712 296.167 165.891 296.18 166.07 296.173 166.232 296.215 166.392 296.3 166.53 296.371 166.636 296.492 166.697 296.62 166.69Z" fill="#527FFF"/><path d="M299.21 167.48 299.21 166.56 301.21 163.62 299.29 163.62 299.29 162.62 302.54 162.62 302.54 163.55 300.54 166.48 302.54 166.48 302.54 167.48Z" fill="#527FFF"/><path d="M305.13 167.6C304.565 167.629 304.021 167.383 303.67 166.94 303.296 166.388 303.116 165.726 303.16 165.06 303.114 164.391 303.293 163.725 303.67 163.17 304.017 162.721 304.563 162.47 305.13 162.5 305.691 162.472 306.23 162.722 306.57 163.17 306.95 163.724 307.133 164.39 307.09 165.06 307.131 165.727 306.948 166.389 306.57 166.94 306.227 167.382 305.689 167.629 305.13 167.6ZM305.13 166.6C305.363 166.6 305.567 166.444 305.63 166.22 305.758 165.841 305.813 165.44 305.79 165.04 305.812 164.637 305.758 164.233 305.63 163.85 305.533 163.574 305.23 163.429 304.954 163.526 304.803 163.579 304.683 163.698 304.63 163.85 304.502 164.233 304.448 164.637 304.47 165.04 304.447 165.44 304.502 165.841 304.63 166.22 304.688 166.45 304.893 166.614 305.13 166.62Z" fill="#527FFF"/><path d="M310.44 167.48 310.44 164.29C310.452 164.081 310.415 163.872 310.33 163.68 310.245 163.549 310.095 163.476 309.94 163.49 309.706 163.504 309.481 163.584 309.29 163.72L309.29 167.48 308 167.48 308 162.62 309.06 162.62 309.16 163.06C309.572 162.725 310.08 162.529 310.61 162.5 310.932 162.478 311.244 162.612 311.45 162.86 311.662 163.171 311.764 163.544 311.74 163.92L311.74 167.48Z" fill="#527FFF"/><path d="M285.9 177 285.56 175.43 284 175.43 283.65 177 282.26 177 284.08 170.4 285.55 170.4 287.36 177ZM284.19 174.46 285.36 174.46 284.76 171.74Z" fill="#527FFF"/><path d="M290.54 177 290.44 176.56C290.049 176.898 289.556 177.095 289.04 177.12 288.725 177.142 288.42 177.003 288.23 176.75 288.039 176.421 287.958 176.039 288 175.66L288 172.12 289.29 172.12 289.29 175.25C289.277 175.479 289.315 175.707 289.4 175.92 289.467 176.05 289.604 176.128 289.75 176.12 289.967 176.107 290.176 176.031 290.35 175.9L290.35 172.12 291.6 172.12 291.6 177Z" fill="#527FFF"/><path d="M292.72 177 292.72 172.12 293.78 172.12 293.93 172.75C294.085 172.548 294.275 172.376 294.49 172.24 294.668 172.134 294.872 172.079 295.08 172.08L295.39 172.08 295.39 173.23C295.222 173.195 295.051 173.178 294.88 173.18 294.578 173.177 294.28 173.256 294.02 173.41L294.02 177Z" fill="#527FFF"/><path d="M297.72 177.1C297.161 177.129 296.623 176.882 296.28 176.44 295.902 175.889 295.719 175.227 295.76 174.56 295.717 173.89 295.9 173.224 296.28 172.67 296.953 171.872 298.145 171.77 298.943 172.443 299.025 172.512 299.101 172.588 299.17 172.67 299.55 173.224 299.733 173.89 299.69 174.56 299.731 175.227 299.548 175.889 299.17 176.44 298.824 176.884 298.282 177.131 297.72 177.1ZM297.72 176.1C297.956 176.101 298.163 175.946 298.23 175.72 298.358 175.341 298.413 174.94 298.39 174.54 298.412 174.137 298.358 173.733 298.23 173.35 298.133 173.074 297.83 172.929 297.554 173.026 297.403 173.079 297.283 173.198 297.23 173.35 297.102 173.733 297.048 174.137 297.07 174.54 297.047 174.94 297.102 175.341 297.23 175.72 297.284 175.949 297.485 176.113 297.72 176.12Z" fill="#527FFF"/><path d="M300.6 177 300.6 172.12 301.66 172.12 301.8 172.75C301.958 172.551 302.147 172.378 302.36 172.24 302.539 172.135 302.743 172.08 302.95 172.08 303.053 172.07 303.157 172.07 303.26 172.08L303.26 173.23C303.096 173.195 302.928 173.178 302.76 173.18 302.455 173.177 302.154 173.256 301.89 173.41L301.89 177Z" fill="#527FFF"/><path d="M306.13 177 306 176.54C305.88 176.714 305.719 176.855 305.53 176.95 305.341 177.047 305.132 177.098 304.92 177.1 304.569 177.118 304.228 176.979 303.99 176.72 303.748 176.421 303.627 176.043 303.65 175.66 303.624 175.243 303.773 174.834 304.06 174.53 304.367 174.249 304.774 174.101 305.19 174.12 305.437 174.129 305.682 174.166 305.92 174.23L305.92 173.8C305.944 173.569 305.898 173.336 305.79 173.13 305.671 172.993 305.49 172.925 305.31 172.95 304.832 172.969 304.361 173.074 303.92 173.26L303.92 172.39C304.142 172.255 304.385 172.16 304.64 172.11 304.938 172.039 305.243 172.002 305.55 172 305.982 171.96 306.411 172.097 306.74 172.38 307.018 172.715 307.151 173.147 307.11 173.58L307.11 177ZM305.31 176.21C305.551 176.196 305.777 176.088 305.94 175.91L305.94 175C305.782 174.949 305.616 174.925 305.45 174.93 305.289 174.917 305.132 174.984 305.03 175.11 304.92 175.252 304.867 175.431 304.88 175.61 304.886 175.748 304.927 175.882 305 176 305.061 176.115 305.18 176.187 305.31 176.19Z" fill="#527FFF"/><path d="M317 176.28C312 176.28 307 177.84 307 180.83L307 201.17C307 204.17 312 205.72 317 205.72 322 205.72 327 204.16 327 201.17L327 180.83C327 177.84 322 176.28 317 176.28ZM317.13 178.28C322.32 178.28 325.13 179.96 325.13 180.83 325.13 181.7 322.3 183.39 317.13 183.39 311.96 183.39 309.13 181.7 309.13 180.83 309.13 179.96 311.93 178.28 317.13 178.28ZM317.13 203.72C311.93 203.72 309.13 202.04 309.13 201.17L309.13 197.75C311.61 198.986 314.36 199.584 317.13 199.49 319.9 199.585 322.65 198.987 325.13 197.75L325.13 201.17C325.15 202 322.32 203.72 317.13 203.72ZM317.13 197.49C311.93 197.49 309.13 195.8 309.13 194.93L309.13 190.77C311.613 191.998 314.361 192.593 317.13 192.5 319.899 192.593 322.647 191.999 325.13 190.77L325.13 194.93C325.15 195.8 322.32 197.49 317.13 197.49ZM317.13 190.49C311.93 190.49 309.13 188.8 309.13 187.93L309.13 183.65C311.61 184.886 314.36 185.484 317.13 185.39 319.9 185.485 322.65 184.887 325.13 183.65L325.13 187.94C325.15 188.81 322.32 190.5 317.13 190.5Z" fill="#527FFF"/><path d="M320.55 156 283.45 156C279.888 156 277 158.888 277 162.45L277 199.55C277 203.112 279.888 206 283.45 206L307 206 307 204 283.45 204C280.995 203.995 279.005 202.005 279 199.55L279 162.45C279.005 159.995 280.995 158.005 283.45 158L320.55 158C323.005 158.005 324.995 159.995 325 162.45L325 177 327 177 327 162.45C327 158.888 324.112 156 320.55 156Z" fill="#527FFF"/></g></svg>