<svg width="49" height="49" xmlns="http://www.w3.org/2000/svg" xmlns:xlink="http://www.w3.org/1999/xlink" xml:space="preserve" overflow="hidden"><g transform="translate(-1005 -400)"><path d="M1017.24 412.858C1020.04 414.916 1025.45 416.003 1030.64 416.003 1035.82 416.003 1041.13 414.945 1043.95 412.916L1043.95 415.513 1045.92 415.513 1045.92 410.202C1045.96 410.012 1045.98 409.818 1045.98 409.624 1045.98 405.439 1039.8 402.636 1030.6 402.636 1022.23 402.636 1015.41 405.625 1015.31 409.32L1015.31 409.624 1015.31 409.624 1015.31 423.775 1017.27 423.775ZM1017.24 409.388C1017.24 407.428 1022.43 404.596 1030.57 404.596 1038.09 404.596 1043.99 406.801 1043.99 409.624 1043.99 411.476 1038.9 414.043 1030.61 414.043 1022.32 414.043 1017.35 411.525 1017.24 409.682ZM1035.28 441.728 1035.58 443.688C1033.93 443.934 1032.27 444.055 1030.61 444.051 1022.97 444.051 1015.25 441.915 1015.25 437.828L1017.21 437.828C1017.21 439.847 1022.71 442.091 1030.61 442.091 1032.18 442.095 1033.75 441.977 1035.31 441.738ZM1053.57 425.98C1053.4 425.643 1053.06 425.43 1052.69 425.431L1047.95 425.431 1051.44 418.414C1051.69 417.931 1051.49 417.342 1051.01 417.098 1050.87 417.03 1050.72 416.994 1050.57 416.993L1041.2 416.993C1040.82 416.994 1040.47 417.22 1040.31 417.571L1035.04 429.165C1034.81 429.656 1035.02 430.238 1035.51 430.466 1035.64 430.526 1035.79 430.557 1035.93 430.556L1040.99 430.556 1037.12 445.139C1037.01 445.59 1037.22 446.062 1037.64 446.266 1038.06 446.469 1038.57 446.35 1038.85 445.982L1053.47 427.009C1053.7 426.712 1053.73 426.314 1053.57 425.98ZM1040.28 440.935 1043.22 429.821C1043.36 429.297 1043.04 428.763 1042.52 428.627 1042.43 428.604 1042.33 428.593 1042.24 428.596L1037.44 428.596 1041.81 418.953 1048.96 418.953 1045.48 425.97C1045.31 426.273 1045.31 426.647 1045.48 426.95 1045.66 427.237 1045.98 427.411 1046.32 427.411L1050.65 427.411ZM1028.24 431.546 1028.24 428.606 1025.3 428.606 1025.3 426.646 1028.24 426.646 1028.24 423.706 1030.2 423.706 1030.2 426.646 1033.14 426.646 1033.14 428.606 1030.2 428.606 1030.2 431.546ZM1022.79 428.606 1006.31 428.606 1006.31 426.646 1022.79 426.646ZM1012.41 434.035 1035.93 434.035 1035.93 435.995 1012.41 435.995Z" fill="#527FFF"/></g></svg>