<svg width="49" height="49" xmlns="http://www.w3.org/2000/svg" xmlns:xlink="http://www.w3.org/1999/xlink" xml:space="preserve" overflow="hidden"><defs><clipPath id="clip0"><rect x="987" y="513" width="49" height="49"/></clipPath></defs><g clip-path="url(#clip0)" transform="translate(-987 -513)"><path d="M1011.5 558.227C1005.33 558.227 999.064 556.581 999.064 553.445L999.064 532.286 1001.02 532.286 1001.02 553.445C1001.02 554.425 1004.72 556.257 1011.49 556.257 1018.26 556.257 1021.97 554.395 1021.97 553.445L1021.97 532.286 1023.93 532.286 1023.93 553.445C1023.96 556.581 1017.69 558.227 1011.5 558.227Z" fill="#527FFF"/><path d="M1005.42 543.566C1001.33 542.753 999.074 541.253 999.074 539.342L1001.03 539.342C1001.03 539.774 1002.2 540.92 1005.82 541.636Z" fill="#527FFF"/><path d="M1018.7 543.311 1018.22 541.42C1020.97 540.724 1021.99 539.783 1021.99 539.352L1023.95 539.352C1023.95 541.048 1022.08 542.459 1018.7 543.311Z" fill="#527FFF"/><path d="M1011.5 537.069C1005.32 537.069 999.054 535.432 999.054 532.286 999.054 529.141 1005.32 527.494 1011.5 527.494 1017.68 527.494 1023.94 529.141 1023.94 532.286 1023.94 535.432 1017.69 537.069 1011.5 537.069ZM1011.5 529.464C1004.72 529.464 1001.02 531.326 1001.02 532.286 1001.02 533.247 1004.74 535.109 1011.5 535.109 1018.26 535.109 1021.97 533.247 1021.97 532.286 1021.97 531.326 1018.29 529.464 1011.5 529.464Z" fill="#527FFF"/><path d="M1011.5 558.227C1005.32 558.227 999.054 556.581 999.054 553.445L999.054 546.389C999.054 545.847 999.493 545.409 1000.03 545.409 1000.58 545.409 1001.01 545.847 1001.01 546.389 1001.01 546.82 1002.19 547.966 1005.8 548.692L1005.4 550.652C1003.87 550.389 1002.39 549.879 1001.01 549.142L1001.01 553.474C1001.01 554.454 1004.72 556.287 1011.5 556.287 1018.28 556.287 1021.97 554.425 1021.97 553.474L1021.97 549.103C1020.94 549.676 1019.83 550.099 1018.68 550.358L1018.2 548.456C1020.95 547.761 1021.97 546.82 1021.97 546.389 1021.97 545.847 1022.41 545.409 1022.95 545.409 1023.49 545.409 1023.93 545.847 1023.93 546.389L1023.93 553.445C1023.95 556.581 1017.69 558.227 1011.5 558.227Z" fill="#527FFF"/><path d="M993.703 541.636 991.743 541.636 991.743 538.882C991.743 538.341 992.182 537.902 992.723 537.902L997.31 537.902 997.31 539.862 993.703 539.862Z" fill="#527FFF"/><path d="M1031.26 542.616 1025.75 542.616 1025.75 540.656 1030.28 540.656 1030.28 539.872 1025.75 539.872 1025.75 537.912 1031.26 537.912C1031.8 537.912 1032.24 538.35 1032.24 538.892L1032.24 541.645C1032.23 542.183 1031.79 542.616 1031.26 542.616Z" fill="#527FFF"/><path d="M1034.04 542.616 1025.75 542.616 1025.75 540.656 1033.06 540.656 1033.06 526.495C1030.97 525.796 1029.84 523.536 1030.54 521.447 1030.94 520.259 1031.87 519.326 1033.06 518.929L1033.06 518.743 989.94 518.743 989.94 518.88C991.626 519.386 992.768 520.952 992.733 522.712 992.75 524.457 991.611 526.003 989.94 526.504L989.94 540.646 997.27 540.646 997.27 542.606 988.96 542.606C988.419 542.606 987.98 542.167 987.98 541.626L987.98 525.662C987.98 525.12 988.419 524.682 988.96 524.682 989.99 524.629 990.784 523.752 990.734 522.722 990.789 521.686 989.996 520.8 988.96 520.742 988.419 520.742 987.98 520.303 987.98 519.762L987.98 517.753C987.98 517.212 988.419 516.773 988.96 516.773L1034.04 516.773C1034.58 516.773 1035.02 517.212 1035.02 517.753L1035.02 519.762C1035.02 520.303 1034.58 520.742 1034.04 520.742 1033.02 520.815 1032.25 521.682 1032.29 522.702 1032.24 523.723 1033.02 524.594 1034.04 524.662 1034.58 524.662 1035.02 525.101 1035.02 525.642L1035.02 541.616C1035.03 542.157 1034.6 542.605 1034.06 542.615 1034.05 542.616 1034.05 542.616 1034.04 542.616Z" fill="#527FFF"/><path d="M1004.71 527.034 1002.75 527.034 1002.75 521.467C1002.75 520.926 1003.19 520.487 1003.73 520.487L1010.15 520.487C1010.69 520.487 1011.13 520.926 1011.13 521.467L1011.13 526.103 1009.17 526.103 1009.17 522.447 1004.71 522.447Z" fill="#527FFF"/><path d="M1020.32 527.034 1018.36 527.034 1018.36 522.447 1013.89 522.447 1013.89 526.103 1011.93 526.103 1011.93 521.467C1011.93 520.926 1012.37 520.487 1012.91 520.487L1019.34 520.487C1019.88 520.487 1020.32 520.926 1020.32 521.467Z" fill="#527FFF"/><path d="M1028.5 536.187 1025.75 536.187 1025.75 534.227 1027.52 534.227 1027.52 522.467 1023.06 522.467 1023.06 527.896 1021.1 527.896 1021.1 521.467C1021.1 520.926 1021.54 520.487 1022.08 520.487L1028.5 520.487C1029.04 520.487 1029.48 520.926 1029.48 521.467L1029.48 535.187C1029.49 535.728 1029.06 536.176 1028.52 536.187 1028.52 536.187 1028.51 536.187 1028.5 536.187Z" fill="#527FFF"/><path d="M997.3 536.187 994.556 536.187C994.015 536.187 993.576 535.748 993.576 535.207L993.576 521.487C993.576 520.946 994.015 520.507 994.556 520.507L1000.97 520.507C1001.52 520.507 1001.95 520.946 1001.95 521.487L1001.95 527.896 999.995 527.896 999.995 522.447 995.536 522.447 995.536 534.207 997.3 534.207Z" fill="#527FFF"/><path d="M1007.36 552.778 1007.36 539.921 1012.12 539.921C1013.22 539.866 1014.29 540.234 1015.13 540.95 1015.89 541.667 1016.3 542.679 1016.25 543.723 1016.27 544.497 1016.05 545.257 1015.62 545.899 1015.16 546.541 1014.51 547.029 1013.77 547.3L1017.06 552.788 1014.82 552.788 1011.88 547.692 1009.61 547.692 1009.61 552.788ZM1009.61 545.918 1011.83 545.918C1012.87 546.064 1013.82 545.343 1013.97 544.309 1013.99 544.134 1013.99 543.957 1013.97 543.782 1014.13 542.766 1013.44 541.813 1012.42 541.653 1012.25 541.625 1012.07 541.623 1011.89 541.645L1009.61 541.645Z" fill="#527FFF"/><path d="M823.83 299.36 1136.94 299.36 1136.94 708.02 823.83 708.02Z" stroke="#43D000" stroke-width="2.94" stroke-miterlimit="10" fill="none"/></g></svg>