<svg width="50" height="50" xmlns="http://www.w3.org/2000/svg" xmlns:xlink="http://www.w3.org/1999/xlink" xml:space="preserve" overflow="hidden"><defs><clipPath id="clip0"><rect x="1142" y="515" width="50" height="50"/></clipPath></defs><g clip-path="url(#clip0)" transform="translate(-1142 -515)"><path d="M1167 561.15C1160.7 561.15 1154.31 559.47 1154.31 556.27L1154.31 534.68 1156.31 534.68 1156.31 556.27C1156.31 557.27 1160.08 559.14 1166.99 559.14 1173.9 559.14 1177.68 557.24 1177.68 556.27L1177.68 534.68 1179.68 534.68 1179.68 556.27C1179.71 559.47 1173.32 561.15 1167 561.15Z" fill="#527FFF"/><path d="M1158.77 545.68C1155.09 544.55 1154.32 542.99 1154.32 541.88L1156.32 541.88C1156.32 542.26 1157.13 543.08 1159.32 543.76Z" fill="#527FFF"/><path d="M1176.29 545.33 1175.56 543.46C1177.25 542.79 1177.7 542.15 1177.7 541.88L1179.7 541.88C1179.71 542.84 1179.12 544.22 1176.29 545.33Z" fill="#527FFF"/><path d="M1158.77 552.88C1155.09 551.75 1154.32 550.18 1154.32 549.07L1156.32 549.07C1156.32 549.45 1157.13 550.27 1159.32 550.96Z" fill="#527FFF"/><path d="M1176.29 552.52 1175.56 550.65C1177.25 549.99 1177.7 549.34 1177.7 549.07L1179.7 549.07C1179.71 550 1179.12 551.41 1176.29 552.52Z" fill="#527FFF"/><path d="M1167 539.56C1160.69 539.56 1154.3 537.89 1154.3 534.68 1154.3 531.47 1160.69 529.79 1167 529.79 1173.31 529.79 1179.69 531.47 1179.69 534.68 1179.69 537.89 1173.32 539.56 1167 539.56ZM1167 531.8C1160.08 531.8 1156.31 533.7 1156.31 534.68 1156.31 535.66 1160.1 537.56 1167 537.56 1173.9 537.56 1177.68 535.66 1177.68 534.68 1177.68 533.7 1173.93 531.8 1167 531.8Z" fill="#527FFF"/><path d="M1148.84 544.47 1146.84 544.47 1146.84 541.63C1146.84 541.078 1147.29 540.63 1147.84 540.63L1152.52 540.63 1152.52 542.63 1148.84 542.63Z" fill="#527FFF"/><path d="M1187.16 545.47 1181.54 545.47 1181.54 543.47 1186.16 543.47 1186.16 542.63 1181.54 542.63 1181.54 540.63 1187.16 540.63C1187.71 540.63 1188.16 541.078 1188.16 541.63L1188.16 544.47C1188.16 545.022 1187.71 545.47 1187.16 545.47Z" fill="#527FFF"/><path d="M1190 545.47 1181.54 545.47 1181.54 543.47 1189 543.47 1189 528.85C1186.85 528.117 1185.7 525.782 1186.44 523.633 1186.85 522.428 1187.79 521.481 1189 521.07L1189 520.86 1145 520.86 1145 521.06C1146.73 521.579 1147.9 523.194 1147.85 525 1147.86 526.777 1146.7 528.349 1145 528.86L1145 543.47 1152.48 543.47 1152.48 545.47 1144 545.47C1143.45 545.47 1143 545.022 1143 544.47L1143 528C1143 527.448 1143.45 527 1144 527 1145.04 526.93 1145.84 526.046 1145.81 525 1145.89 523.932 1145.09 523.001 1144.02 522.921 1144.01 522.921 1144.01 522.92 1144 522.92 1143.45 522.92 1143 522.472 1143 521.92L1143 519.85C1143 519.298 1143.45 518.85 1144 518.85L1190 518.85C1190.55 518.85 1191 519.298 1191 519.85L1191 521.92C1191 522.472 1190.55 522.92 1190 522.92 1188.97 523 1188.18 523.883 1188.22 524.92 1188.13 525.982 1188.93 526.913 1189.99 526.999 1189.99 526.999 1190 527 1190 527 1190.55 527 1191 527.448 1191 528L1191 544.47C1191 545.022 1190.55 545.47 1190 545.47Z" fill="#527FFF"/><path d="M1160.07 529.32 1158.07 529.32 1158.07 523.64C1158.07 523.088 1158.52 522.64 1159.07 522.64L1165.62 522.64C1166.17 522.64 1166.62 523.088 1166.62 523.64L1166.62 528.37 1164.62 528.37 1164.62 524.64 1160.07 524.64Z" fill="#527FFF"/><path d="M1176 529.32 1174 529.32 1174 524.64 1169.44 524.64 1169.44 528.37 1167.44 528.37 1167.44 523.64C1167.44 523.088 1167.89 522.64 1168.44 522.64L1175 522.64C1175.55 522.64 1176 523.088 1176 523.64Z" fill="#527FFF"/><path d="M1184.35 538.85 1181.54 538.85 1181.54 536.85 1183.35 536.85 1183.35 524.64 1178.8 524.64 1178.8 530.27 1176.8 530.27 1176.8 523.64C1176.8 523.088 1177.25 522.64 1177.8 522.64L1184.35 522.64C1184.9 522.64 1185.35 523.088 1185.35 523.64L1185.35 537.84C1185.36 538.392 1184.91 538.844 1184.36 538.85 1184.36 538.85 1184.35 538.85 1184.35 538.85Z" fill="#527FFF"/><path d="M1152.51 538.85 1149.71 538.85C1149.16 538.85 1148.71 538.402 1148.71 537.85L1148.71 523.64C1148.71 523.088 1149.16 522.64 1149.71 522.64L1156.26 522.64C1156.81 522.64 1157.26 523.088 1157.26 523.64L1157.26 530.27 1155.26 530.27 1155.26 524.64 1150.71 524.64 1150.71 536.84 1152.51 536.84Z" fill="#527FFF"/><path d="M1171.68 555.59 1171.68 545.77 1168.31 552.3 1166.25 552.3 1162.99 545.8 1162.99 555.59 1160.89 555.59 1160.89 542.47 1163.44 542.47 1167.34 550.29 1171.31 542.47 1173.78 542.47 1173.78 555.59 1171.68 555.59Z" fill="#527FFF"/><path d="M1115.5 227 1435 227 1435 644 1115.5 644Z" stroke="#43D000" stroke-width="3" stroke-miterlimit="10" fill="none"/></g></svg>