<svg width="50" height="50" xmlns="http://www.w3.org/2000/svg" xmlns:xlink="http://www.w3.org/1999/xlink" xml:space="preserve" overflow="hidden"><g transform="translate(-276 -485)"><path d="M286.42 500.58 286.42 494.51 285 498.44 283.48 498.44 282 494.54 282 500.54 280.46 500.54 280.46 491.92 282.46 491.92 284.25 496.77 286 491.92 288 491.92 288 500.58Z" fill="#527FFF"/><path d="M292.59 500.58 292.44 500C292.282 500.226 292.068 500.409 291.82 500.53 291.571 500.664 291.293 500.733 291.01 500.73 290.55 500.749 290.104 500.566 289.79 500.23 289.468 499.837 289.307 499.337 289.34 498.83 289.313 498.282 289.511 497.747 289.89 497.35 290.291 496.973 290.83 496.777 291.38 496.81 291.718 496.818 292.054 496.868 292.38 496.96L292.38 496.38C292.406 496.077 292.347 495.772 292.21 495.5 292.049 495.327 291.815 495.242 291.58 495.27 290.948 495.295 290.325 495.43 289.74 495.67L289.74 494.54C290.05 494.361 290.388 494.235 290.74 494.17 291.103 494.074 291.475 494.017 291.85 494 292.417 493.951 292.981 494.127 293.42 494.49 293.787 494.934 293.963 495.506 293.91 496.08L293.91 500.55ZM291.51 499.58C291.829 499.562 292.128 499.418 292.34 499.18L292.34 497.92C292.129 497.857 291.91 497.826 291.69 497.83 291.478 497.819 291.273 497.904 291.13 498.06 290.988 498.253 290.921 498.491 290.94 498.73 290.927 498.937 290.98 499.144 291.09 499.32 291.184 499.459 291.342 499.542 291.51 499.54Z" fill="#527FFF"/><path d="M295.36 500.58 295.36 494.19 296.76 494.19 297 495C297.207 494.733 297.457 494.503 297.74 494.32 297.98 494.182 298.253 494.109 298.53 494.11 298.66 494.095 298.79 494.095 298.92 494.11L298.92 495.62C298.702 495.581 298.481 495.561 298.26 495.56 297.86 495.56 297.468 495.663 297.12 495.86L297.12 500.52Z" fill="#527FFF"/><path d="M300.55 493.16C300.278 493.178 300.011 493.084 299.81 492.9 299.625 492.719 299.527 492.468 299.54 492.21 299.525 491.949 299.624 491.694 299.81 491.51 300.013 491.33 300.28 491.24 300.55 491.26 300.814 491.245 301.072 491.335 301.27 491.51 301.464 491.69 301.566 491.946 301.55 492.21 301.563 492.47 301.461 492.723 301.27 492.9 301.074 493.079 300.815 493.172 300.55 493.16ZM299.69 500.58 299.69 494.19 301.4 494.19 301.4 500.58Z" fill="#527FFF"/><path d="M305.92 500.58 305.77 500C305.615 500.226 305.405 500.408 305.16 500.53 304.911 500.663 304.632 500.732 304.35 500.73 303.886 500.752 303.437 500.569 303.12 500.23 302.798 499.837 302.637 499.337 302.67 498.83 302.601 497.794 303.386 496.899 304.422 496.83 304.504 496.825 304.587 496.825 304.67 496.83 305.008 496.836 305.345 496.887 305.67 496.98L305.67 496.4C305.698 496.098 305.643 495.793 305.51 495.52 305.343 495.349 305.107 495.265 304.87 495.29 304.241 495.315 303.622 495.45 303.04 495.69L303.04 494.54C303.337 494.365 303.662 494.24 304 494.17 304.389 494.069 304.788 494.012 305.19 494 305.757 493.951 306.321 494.127 306.76 494.49 307.127 494.934 307.303 495.506 307.25 496.08L307.25 500.55ZM304.85 499.58C305.166 499.562 305.461 499.418 305.67 499.18L305.67 497.92C305.459 497.856 305.24 497.825 305.02 497.83 304.811 497.819 304.609 497.904 304.47 498.06 304.325 498.252 304.254 498.49 304.27 498.73 304.26 498.939 304.316 499.145 304.43 499.32 304.52 499.464 304.681 499.548 304.85 499.54Z" fill="#527FFF"/><path d="M308.81 500.58 308.81 491.92 311.42 491.92C312.365 491.855 313.28 492.259 313.87 493 314.492 493.954 314.787 495.084 314.71 496.22 314.79 497.36 314.503 498.496 313.89 499.46 313.322 500.202 312.423 500.614 311.49 500.56ZM310.56 493.26 310.56 499.26 311.3 499.26C311.805 499.282 312.277 499.009 312.51 498.56 312.821 497.881 312.958 497.135 312.91 496.39L312.91 496.14C312.953 495.406 312.819 494.672 312.52 494 312.279 493.55 311.799 493.281 311.29 493.31Z" fill="#527FFF"/><path d="M316.19 500.58 316.19 491.92 318.8 491.92C319.43 491.895 320.043 492.125 320.5 492.56 320.945 492.995 321.185 493.598 321.16 494.22 321.169 494.606 321.079 494.988 320.9 495.33 320.727 495.638 320.461 495.883 320.14 496.03 320.549 496.175 320.9 496.448 321.14 496.81 321.392 497.207 321.517 497.67 321.5 498.14 321.534 498.812 321.266 499.465 320.77 499.92 320.231 500.38 319.537 500.616 318.83 500.58ZM317.84 493.17 317.84 495.57 318.54 495.57C318.805 495.577 319.059 495.463 319.23 495.26 319.408 495.002 319.496 494.693 319.48 494.38 319.495 494.068 319.419 493.759 319.26 493.49 319.128 493.282 318.896 493.16 318.65 493.17ZM317.84 496.76 317.84 499.33 318.84 499.33C319.12 499.343 319.39 499.224 319.57 499.01 319.755 498.729 319.843 498.395 319.82 498.06 319.851 497.704 319.751 497.349 319.54 497.06 319.337 496.834 319.043 496.713 318.74 496.73Z" fill="#527FFF"/><path d="M316 505.28C311 505.28 306 506.84 306 509.83L306 530.17C306 533.17 311 534.72 316 534.72 321 534.72 326 533.16 326 530.17L326 509.83C326 506.84 321 505.28 316 505.28ZM316.13 507.28C321.32 507.28 324.13 508.96 324.13 509.83 324.13 510.7 321.3 512.39 316.13 512.39 310.96 512.39 308.13 510.7 308.13 509.83 308.13 508.96 310.93 507.28 316.13 507.28ZM316.13 532.72C310.93 532.72 308.13 531.04 308.13 530.17L308.13 526.75C310.61 527.986 313.36 528.584 316.13 528.49 318.9 528.585 321.65 527.987 324.13 526.75L324.13 530.17C324.15 531 321.32 532.72 316.13 532.72ZM316.13 526.49C310.93 526.49 308.13 524.8 308.13 523.93L308.13 519.77C310.613 520.998 313.361 521.593 316.13 521.5 318.899 521.593 321.647 520.999 324.13 519.77L324.13 523.93C324.15 524.8 321.32 526.49 316.13 526.49ZM316.13 519.49C310.93 519.49 308.13 517.8 308.13 516.93L308.13 512.65C310.61 513.886 313.36 514.484 316.13 514.39 318.9 514.485 321.65 513.887 324.13 512.65L324.13 516.94C324.15 517.81 321.32 519.5 316.13 519.5Z" fill="#527FFF"/><path d="M319.55 485 282.45 485C278.888 485 276 487.888 276 491.45L276 528.55C276 532.112 278.888 535 282.45 535L306 535 306 533 282.45 533C279.995 532.995 278.005 531.005 278 528.55L278 491.45C278.005 488.995 279.995 487.005 282.45 487L319.55 487C322.005 487.005 323.995 488.995 324 491.45L324 506 326 506 326 491.45C326 487.888 323.112 485 319.55 485Z" fill="#527FFF"/></g></svg>