<svg width="49" height="49" xmlns="http://www.w3.org/2000/svg" xmlns:xlink="http://www.w3.org/1999/xlink" xml:space="preserve" overflow="hidden"><g transform="translate(-899 -157)"><path d="M913.955 172.856 913.955 164.036 911.965 164.036 910.152 168.976 908.33 164.036 906.291 164.036 906.291 172.856 907.879 172.856 907.879 166.712 909.359 170.681 910.878 170.681 912.367 166.673 912.367 172.856 913.955 172.856Z" fill="#527FFF"/><path d="M916.64 174.072C916.443 174.252 916.181 174.344 915.915 174.326 915.711 174.323 915.509 174.306 915.307 174.277L915.307 175.444C915.667 175.569 916.044 175.635 916.424 175.64 916.857 175.66 917.28 175.509 917.6 175.218 917.95 174.832 918.196 174.363 918.316 173.856L920.462 166.349 918.659 166.349 917.679 171.141 916.699 166.349 914.876 166.349 916.973 172.984 916.973 173.219C916.958 173.532 916.841 173.831 916.64 174.072Z" fill="#527FFF"/><path d="M923.186 171.622C922.857 171.612 922.529 171.573 922.206 171.504 921.846 171.434 921.492 171.336 921.148 171.21L921.148 172.543C921.456 172.711 921.786 172.837 922.128 172.915 922.524 173.004 922.928 173.05 923.333 173.052 924.115 173.097 924.885 172.845 925.489 172.347 926.03 171.843 926.317 171.124 926.273 170.387 926.279 170.025 926.216 169.666 926.087 169.328 925.934 169.032 925.721 168.772 925.46 168.564 925.162 168.291 924.833 168.054 924.48 167.858L923.794 167.486C923.51 167.349 923.254 167.159 923.039 166.927 922.897 166.739 922.828 166.506 922.843 166.271 922.827 165.992 922.939 165.721 923.147 165.536 923.386 165.348 923.686 165.253 923.99 165.271 924.612 165.292 925.226 165.421 925.803 165.653L925.803 164.301C925.19 164.008 924.522 163.851 923.843 163.84 923.351 163.833 922.865 163.94 922.422 164.154 922.017 164.352 921.677 164.661 921.442 165.046 921.201 165.455 921.078 165.923 921.089 166.398 921.069 166.906 921.21 167.406 921.491 167.829 921.854 168.292 922.316 168.667 922.843 168.927L923.529 169.289C923.811 169.426 924.064 169.616 924.274 169.848 924.609 170.302 924.568 170.931 924.176 171.337 923.9 171.565 923.541 171.668 923.186 171.622Z" fill="#527FFF"/><path d="M933.839 171.279C934.252 170.39 934.45 169.416 934.417 168.437 934.476 167.229 934.131 166.036 933.437 165.046 932.209 163.603 930.044 163.43 928.602 164.658 928.462 164.776 928.333 164.906 928.214 165.046 927.537 166.042 927.21 167.235 927.283 168.437 927.214 169.619 927.523 170.793 928.165 171.788 928.741 172.587 929.669 173.058 930.654 173.052 931.123 173.59 931.688 174.035 932.32 174.366 932.928 174.705 933.592 174.934 934.28 175.042L934.28 173.591C933.877 173.55 933.479 173.465 933.094 173.337 932.776 173.217 932.478 173.048 932.212 172.837 932.931 172.541 933.512 171.984 933.839 171.279ZM932.153 170.808C931.818 171.512 930.976 171.81 930.272 171.475 929.98 171.336 929.745 171.1 929.605 170.808 929.272 170.064 929.124 169.25 929.174 168.437 929.126 167.622 929.267 166.807 929.586 166.055 929.826 165.564 930.333 165.26 930.879 165.281 931.423 165.262 931.927 165.565 932.163 166.055 932.491 166.804 932.635 167.621 932.585 168.437 932.63 169.25 932.482 170.063 932.153 170.808Z" fill="#527FFF"/><path d="M935.917 164.036 935.917 172.856 940.709 172.856 940.709 171.445 937.7 171.445 937.7 164.036 935.917 164.036Z" fill="#527FFF"/><path d="M938.2 176.874C933.3 176.874 928.4 178.403 928.4 181.333L928.4 201.267C928.4 204.207 933.3 205.726 938.2 205.726 943.1 205.726 948 204.197 948 201.267L948 181.333C948 178.403 943.1 176.874 938.2 176.874ZM938.327 178.834C943.414 178.834 946.167 180.481 946.167 181.333 946.167 182.186 943.394 183.842 938.327 183.842 933.261 183.842 930.487 182.186 930.487 181.333 930.487 180.481 933.231 178.834 938.327 178.834ZM938.327 203.766C933.231 203.766 930.487 202.119 930.487 201.267L930.487 197.915C932.918 199.127 935.613 199.713 938.327 199.62 941.042 199.713 943.737 199.127 946.167 197.915L946.167 201.267C946.187 202.08 943.414 203.766 938.327 203.766ZM938.327 197.66C933.231 197.66 930.487 196.004 930.487 195.151L930.487 191.075C932.921 192.278 935.614 192.861 938.327 192.77 941.041 192.861 943.734 192.279 946.167 191.075L946.167 195.151C946.187 196.004 943.414 197.66 938.327 197.66ZM938.327 190.8C933.231 190.8 930.487 189.144 930.487 188.291L930.487 184.097C932.918 185.309 935.613 185.895 938.327 185.802 941.042 185.895 943.737 185.309 946.167 184.097L946.167 188.301C946.187 189.154 943.414 190.81 938.327 190.81Z" fill="#527FFF"/><path d="M941.679 157 905.321 157C901.83 157 899 159.83 899 163.321L899 199.679C899 203.17 901.83 206 905.321 206L928.4 206 928.4 204.04 905.321 204.04C902.915 204.035 900.965 202.085 900.96 199.679L900.96 163.321C900.965 160.915 902.915 158.965 905.321 158.96L941.679 158.96C944.085 158.965 946.035 160.915 946.04 163.321L946.04 177.58 948 177.58 948 163.321C948 159.83 945.17 157 941.679 157Z" fill="#527FFF"/></g></svg>