<svg width="49" height="50" xmlns="http://www.w3.org/2000/svg" xmlns:xlink="http://www.w3.org/1999/xlink" xml:space="preserve" overflow="hidden"><g transform="translate(-277 -322)"><path d="M5.635 11.9952C5.54782 10.5609 5.93714 9.13795 6.7424 7.9478 7.48247 6.98711 8.64785 6.45206 9.8588 6.517 11.0688 6.45716 12.2319 6.99117 12.9752 7.9478 13.7805 9.13795 14.1698 10.5609 14.0826 11.9952 14.1698 13.4326 13.7805 14.8586 12.9752 16.0524 12.2329 17.0114 11.0702 17.5489 9.8588 17.493 8.64642 17.5539 7.48146 17.0154 6.7424 16.0524 5.93708 14.8586 5.54785 13.4326 5.635 11.9952ZM7.8204 11.9952C7.76683 12.9639 7.94488 13.9314 8.3398 14.8176 8.74334 15.6565 9.75056 16.0095 10.5895 15.6059 10.9341 15.4402 11.212 15.1622 11.3778 14.8176 11.7727 13.9314 11.9508 12.9639 11.8972 11.9952 11.9532 11.021 11.7786 10.0473 11.3876 9.1532 11.107 8.56903 10.5064 8.20714 9.8588 8.232 9.20837 8.20575 8.60422 8.56747 8.3202 9.1532 7.93993 10.0499 7.77545 11.0233 7.84 11.9952Z" fill="#527FFF" transform="matrix(1 0 0 1.02041 277 322)"/><path d="M15.7388 17.2676 15.7388 9.506 17.4342 9.506 17.6596 10.486C17.9282 10.1619 18.2536 9.88961 18.62 9.6824 18.9187 9.51309 19.2567 9.42523 19.6 9.4276 19.7612 9.42938 19.9219 9.44578 20.0802 9.4766L20.0802 11.3092C19.8148 11.2633 19.5459 11.2403 19.2766 11.2406 18.7921 11.2373 18.3153 11.3625 17.8948 11.6032L17.8948 17.2676Z" fill="#527FFF" transform="matrix(1 0 0 1.02041 277 322)"/><path d="M24.6078 17.2676 24.4216 16.5718C24.2354 16.8475 23.978 17.0676 23.6768 17.2088 23.3781 17.3781 23.0401 17.466 22.6968 17.4636 22.1325 17.4932 21.5851 17.2663 21.2072 16.8462 20.8153 16.3714 20.6191 15.7652 20.6584 15.1508 20.5896 13.8862 21.5589 12.8052 22.8236 12.7363 22.925 12.7308 23.0267 12.732 23.128 12.74 23.5259 12.7561 23.9206 12.8186 24.304 12.9262L24.304 12.2304C24.3395 11.8588 24.2681 11.4848 24.0982 11.1524 23.9023 10.9435 23.6179 10.8414 23.3338 10.878 22.567 10.909 21.8112 11.0714 21.0994 11.3582L21.0994 9.9274C21.4563 9.71214 21.8474 9.55966 22.2558 9.4766 22.7307 9.36212 23.2177 9.30617 23.7062 9.31 24.4135 9.23567 25.1208 9.45137 25.6662 9.9078 26.1152 10.4569 26.3268 11.1623 26.2542 11.8678L26.2542 17.3068ZM23.3044 16.0034C23.6811 15.977 24.0327 15.8047 24.2844 15.5232L24.2844 14.0336C24.0266 13.9587 23.7591 13.9224 23.4906 13.9258 23.2329 13.9078 22.9819 14.0132 22.8144 14.21 22.6418 14.4446 22.5584 14.7329 22.5792 15.0234 22.567 15.2766 22.6357 15.5271 22.7752 15.7388 22.8925 15.9142 23.0937 16.0148 23.3044 16.0034Z" fill="#527FFF" transform="matrix(1 0 0 1.02041 277 322)"/><path d="M32.5654 16.9148C32.3218 17.0835 32.0495 17.2063 31.7618 17.2774 31.4411 17.3571 31.1123 17.3999 30.7818 17.4048 29.8953 17.4692 29.0316 17.1048 28.4592 16.4248 27.88 15.5581 27.6011 14.5253 27.6654 13.4848 27.608 12.4379 27.9049 11.4022 28.5082 10.5448 29.0818 9.8358 29.9591 9.44269 30.87 9.4864 31.4429 9.44947 32.0158 9.55731 32.536 9.8L32.536 11.1916C32.1241 11.0268 31.6859 10.9372 31.2424 10.927 30.7781 10.8859 30.3279 11.0997 30.0664 11.4856 29.7896 12.0373 29.6676 12.6537 29.7136 13.2692L29.7136 13.475C29.6651 14.0896 29.7836 14.7058 30.0566 15.2586 30.3106 15.6312 30.7437 15.8403 31.1934 15.8074 31.6651 15.7963 32.1305 15.6965 32.5654 15.5134Z" fill="#527FFF" transform="matrix(1 0 0 1.02041 277 322)"/><path d="M36.9068 17.1304C36.5203 17.2839 36.1075 17.3605 35.6916 17.3558 35.1739 17.4099 34.6603 17.2218 34.3 16.8462 33.9624 16.4003 33.8018 15.8453 33.8492 15.288L33.8492 6.027 35.966 6.027 35.966 15.0626C35.9549 15.2539 35.9884 15.4451 36.064 15.6212 36.1615 15.7399 36.3137 15.7993 36.4658 15.778 36.6136 15.77 36.7608 15.7536 36.9068 15.729Z" fill="#527FFF" transform="matrix(1 0 0 1.02041 277 322)"/><path d="M39.5724 13.9062C39.5428 14.4585 39.7018 15.0045 40.0232 15.4546 40.3809 15.7921 40.8662 15.9599 41.356 15.9152 41.6469 15.9077 41.9361 15.8683 42.2184 15.7976 42.5515 15.7223 42.8789 15.6241 43.1984 15.5036L43.1984 16.8854C42.875 17.086 42.5207 17.2317 42.1498 17.3166 41.742 17.4137 41.3244 17.4631 40.9052 17.4636 38.7361 17.4636 37.6516 16.1079 37.6516 13.3966 37.5787 12.3232 37.8611 11.2556 38.4552 10.3586 39.0068 9.63897 39.8832 9.24493 40.7876 9.31 42.5026 9.31 43.365 10.3586 43.365 12.4656 43.3697 12.9498 43.3204 13.433 43.218 13.9062ZM40.719 10.7212C39.9938 10.7212 39.6116 11.3484 39.5724 12.6028L41.601 12.6028 41.601 12.25C41.6276 11.8472 41.5571 11.4438 41.3952 11.074 41.2517 10.8412 40.9921 10.7057 40.719 10.7212Z" fill="#527FFF" transform="matrix(1 0 0 1.02041 277 322)"/><path d="M39.2 19.8744C34.3 19.8744 29.4 21.4032 29.4 24.3334L29.4 44.2666C29.4 47.2066 34.3 48.7256 39.2 48.7256 44.1 48.7256 49 47.1968 49 44.2666L49 24.3334C49 21.4032 44.1 19.8744 39.2 19.8744ZM39.3274 21.8344C44.4136 21.8344 47.1674 23.4808 47.1674 24.3334 47.1674 25.186 44.394 26.8422 39.3274 26.8422 34.2608 26.8422 31.4874 25.186 31.4874 24.3334 31.4874 23.4808 34.2314 21.8344 39.3274 21.8344ZM39.3274 46.7656C34.2314 46.7656 31.4874 45.1192 31.4874 44.2666L31.4874 40.915C33.9182 42.1267 36.6129 42.7128 39.3274 42.6202 42.0419 42.7132 44.7367 42.1271 47.1674 40.915L47.1674 44.2666C47.187 45.08 44.4136 46.7656 39.3274 46.7656ZM39.3274 40.6602C34.2314 40.6602 31.4874 39.004 31.4874 38.1514L31.4874 34.0746C33.9207 35.2782 36.6142 35.8607 39.3274 35.77 42.0407 35.8611 44.7342 35.2786 47.1674 34.0746L47.1674 38.1514C47.187 39.004 44.4136 40.6602 39.3274 40.6602ZM39.3274 33.8002C34.2314 33.8002 31.4874 32.144 31.4874 31.2914L31.4874 27.097C33.9182 28.3087 36.6129 28.8948 39.3274 28.8022 42.0419 28.8952 44.7367 28.3091 47.1674 27.097L47.1674 31.3012C47.187 32.1538 44.4136 33.81 39.3274 33.81Z" fill="#527FFF" transform="matrix(1 0 0 1.02041 277 322)"/><path d="M42.679 0 6.321 0C2.83001 0 0 2.83001 0 6.321L0 42.679C0 46.17 2.83001 49 6.321 49L29.4 49 29.4 47.04 6.321 47.04C3.91472 47.0346 1.96539 45.0853 1.96 42.679L1.96 6.321C1.96539 3.91472 3.91472 1.96539 6.321 1.96L42.679 1.96C45.0853 1.96539 47.0346 3.91472 47.04 6.321L47.04 20.58 49 20.58 49 6.321C49 2.83001 46.17 0 42.679 0Z" fill="#527FFF" transform="matrix(1 0 0 1.02041 277 322)"/></g></svg>