<svg width="49" height="49" xmlns="http://www.w3.org/2000/svg" xmlns:xlink="http://www.w3.org/1999/xlink" xml:space="preserve" overflow="hidden"><g transform="translate(-588 -322)"><path d="M592.185 332.535 592.185 335.171 591.263 335.171 591.263 328.38 593.223 328.38C593.569 328.37 593.91 328.462 594.203 328.644 594.489 328.82 594.717 329.076 594.86 329.379 595.014 329.718 595.091 330.086 595.085 330.457 595.109 331.006 594.927 331.544 594.576 331.967 594.244 332.347 593.757 332.556 593.253 332.535ZM592.185 331.78 593.165 331.78C593.447 331.79 593.716 331.658 593.88 331.428 594.073 331.139 594.166 330.794 594.145 330.448 594.165 330.101 594.072 329.757 593.88 329.468 593.711 329.244 593.445 329.116 593.165 329.125L592.185 329.125Z" fill="#527FFF"/><path d="M597.8 335.299C597.24 335.329 596.702 335.074 596.369 334.622 596 334.038 595.828 333.351 595.879 332.662 595.828 331.973 595.999 331.286 596.369 330.702 596.712 330.269 597.249 330.034 597.8 330.075 598.357 330.047 598.891 330.301 599.221 330.751 599.594 331.334 599.769 332.021 599.721 332.711 599.769 333.401 599.594 334.089 599.221 334.671 598.881 335.103 598.348 335.338 597.8 335.299ZM597.8 334.554C598.12 334.562 598.416 334.382 598.555 334.093 598.736 333.646 598.813 333.163 598.78 332.682 598.806 332.199 598.722 331.717 598.535 331.271 598.396 330.992 598.111 330.817 597.8 330.82 597.481 330.805 597.183 330.982 597.045 331.271 596.853 331.715 596.769 332.199 596.8 332.682 596.768 333.165 596.852 333.649 597.045 334.093 597.18 334.386 597.478 334.568 597.8 334.554Z" fill="#527FFF"/><path d="M602.514 333.838C602.514 333.554 602.328 333.329 601.965 333.152L601.328 332.839C600.782 332.616 600.433 332.076 600.456 331.486 600.453 331.119 600.598 330.766 600.858 330.506 601.147 330.239 601.532 330.097 601.926 330.114 602.341 330.116 602.75 330.224 603.112 330.428L603.112 331.094C602.768 330.921 602.389 330.828 602.004 330.82 601.812 330.812 601.624 330.875 601.475 330.996 601.346 331.122 601.278 331.297 601.289 331.477 601.281 331.625 601.326 331.77 601.416 331.888 601.543 332.026 601.696 332.136 601.867 332.212L602.455 332.506C602.725 332.621 602.959 332.807 603.131 333.045 603.275 333.277 603.346 333.546 603.337 333.819 603.355 334.223 603.206 334.616 602.925 334.907 602.62 335.19 602.214 335.338 601.798 335.318 601.313 335.325 600.836 335.199 600.417 334.956L600.417 334.289C600.835 334.472 601.284 334.575 601.74 334.593 601.948 334.609 602.154 334.538 602.308 334.397 602.457 334.251 602.532 334.046 602.514 333.838Z" fill="#527FFF"/><path d="M606.453 335.054C606.171 335.17 605.868 335.23 605.562 335.23 605.226 335.26 604.895 335.138 604.66 334.897 604.445 334.599 604.345 334.234 604.376 333.868L604.376 330.928 603.68 330.928 603.68 330.34 604.415 330.222 604.542 328.86 605.297 328.86 605.297 330.203 606.434 330.203 606.434 330.947 605.297 330.947 605.297 333.76C605.28 333.941 605.322 334.123 605.415 334.279 605.524 334.398 605.685 334.457 605.846 334.436 606.052 334.437 606.258 334.404 606.453 334.338Z" fill="#527FFF"/><path d="M609.844 334.573C609.55 334.878 609.15 335.057 608.727 335.073 608.411 335.078 608.104 334.967 607.865 334.76 607.606 334.53 607.414 334.236 607.306 333.907 607.17 333.49 607.104 333.052 607.11 332.613 607.088 331.961 607.258 331.317 607.6 330.761 607.839 330.331 608.294 330.068 608.786 330.075 609.234 330.093 609.659 330.283 609.972 330.604L610.03 330.203 610.805 330.203 610.805 334.887C610.805 336.504 610.148 337.308 608.845 337.308 608.363 337.312 607.889 337.187 607.473 336.945L607.473 336.239C607.88 336.425 608.319 336.528 608.766 336.543 609.102 336.577 609.431 336.437 609.638 336.171 609.834 335.79 609.919 335.362 609.883 334.936ZM608.992 334.319C609.311 334.298 609.612 334.167 609.844 333.946L609.844 331.183C609.596 330.966 609.282 330.838 608.952 330.82 608.657 330.808 608.383 330.974 608.257 331.241 608.083 331.663 608.006 332.119 608.031 332.574 608.001 333.022 608.085 333.471 608.276 333.878 608.403 334.156 608.686 334.33 608.992 334.319Z" fill="#527FFF"/><path d="M612.069 335.171 612.069 330.203 612.833 330.203 612.921 330.8C613.072 330.601 613.262 330.434 613.48 330.31 613.684 330.21 613.909 330.16 614.137 330.163 614.241 330.153 614.346 330.153 614.45 330.163L614.45 331.016C614.303 331.004 614.156 331.004 614.009 331.016 613.651 331.024 613.306 331.152 613.029 331.379L613.029 335.181Z" fill="#527FFF"/><path d="M615.754 332.888C615.728 333.334 615.837 333.778 616.067 334.162 616.307 334.45 616.675 334.597 617.047 334.554 617.476 334.542 617.897 334.438 618.282 334.25L618.282 334.926C617.863 335.18 617.38 335.309 616.89 335.299 616.318 335.34 615.762 335.098 615.401 334.652 615.035 334.066 614.863 333.38 614.911 332.692 614.865 332.003 615.036 331.318 615.401 330.732 615.724 330.285 616.251 330.03 616.802 330.056 617.254 330.024 617.692 330.214 617.978 330.565 618.27 331.009 618.407 331.535 618.37 332.065 618.376 332.338 618.349 332.611 618.292 332.878ZM616.734 330.771C616.453 330.765 616.189 330.906 616.038 331.143 615.846 331.484 615.748 331.87 615.754 332.261L617.518 332.261C617.518 332.261 617.518 332.182 617.518 332.133L617.518 331.996C617.543 331.673 617.475 331.35 617.322 331.065 617.181 330.887 616.959 330.795 616.734 330.82Z" fill="#527FFF"/><path d="M620.497 331.937C620.113 331.766 619.776 331.503 619.517 331.173 619.312 330.859 619.21 330.489 619.223 330.114 619.203 329.611 619.391 329.122 619.742 328.762 620.111 328.418 620.601 328.235 621.104 328.252 621.613 328.268 622.114 328.388 622.574 328.605L622.574 329.37C622.135 329.166 621.657 329.063 621.173 329.066 620.905 329.051 620.643 329.147 620.448 329.33 620.263 329.53 620.164 329.794 620.173 330.065 620.169 330.286 620.234 330.502 620.36 330.683 620.528 330.886 620.739 331.049 620.977 331.163L621.673 331.516C622.062 331.679 622.4 331.942 622.653 332.28 622.855 332.595 622.957 332.964 622.947 333.339 622.952 333.863 622.748 334.368 622.378 334.74 621.973 335.11 621.437 335.304 620.889 335.279 620.598 335.283 620.307 335.247 620.026 335.171 619.77 335.115 619.524 335.016 619.301 334.877L619.301 334.123C619.793 334.339 620.322 334.456 620.859 334.466 621.395 334.547 621.894 334.179 621.975 333.644 621.99 333.549 621.99 333.453 621.977 333.358 621.966 332.866 621.661 332.429 621.202 332.251Z" fill="#527FFF"/><path d="M623.868 331.8C623.814 330.882 624.051 329.97 624.544 329.193 625.361 328.149 626.87 327.964 627.915 328.781 628.068 328.901 628.207 329.039 628.327 329.193 628.821 329.97 629.057 330.882 629.003 331.8 629.032 332.588 628.871 333.371 628.533 334.083 628.262 334.626 627.78 335.034 627.2 335.21 627.447 335.408 627.721 335.57 628.013 335.691 628.329 335.807 628.658 335.883 628.993 335.916L628.993 336.749C628.499 336.682 628.021 336.526 627.582 336.288 627.124 336.03 626.71 335.699 626.357 335.308 625.879 335.29 625.417 335.126 625.034 334.838 624.65 334.519 624.364 334.098 624.211 333.623 623.994 333.039 623.878 332.423 623.868 331.8ZM624.848 331.8C624.807 332.495 624.942 333.189 625.24 333.819 625.612 334.479 626.448 334.713 627.109 334.341 627.327 334.218 627.508 334.038 627.631 333.819 627.937 333.192 628.075 332.496 628.033 331.8 628.079 331.097 627.94 330.395 627.631 329.762 627.254 329.098 626.411 328.866 625.747 329.243 625.537 329.362 625.363 329.534 625.24 329.742 624.932 330.382 624.794 331.091 624.838 331.8Z" fill="#527FFF"/><path d="M630.316 335.171 630.316 328.38 631.296 328.38 631.296 334.377 633.766 334.377 633.766 335.171Z" fill="#527FFF"/><path d="M627.2 341.874C622.3 341.874 617.4 343.403 617.4 346.333L617.4 366.267C617.4 369.207 622.3 370.726 627.2 370.726 632.1 370.726 637 369.197 637 366.267L637 346.333C637 343.403 632.1 341.874 627.2 341.874ZM627.327 343.834C632.414 343.834 635.167 345.481 635.167 346.333 635.167 347.186 632.394 348.842 627.327 348.842 622.261 348.842 619.487 347.186 619.487 346.333 619.487 345.481 622.231 343.834 627.327 343.834ZM627.327 368.766C622.231 368.766 619.487 367.119 619.487 366.267L619.487 362.915C621.918 364.127 624.613 364.713 627.327 364.62 630.042 364.713 632.737 364.127 635.167 362.915L635.167 366.267C635.187 367.08 632.414 368.766 627.327 368.766ZM627.327 362.66C622.231 362.66 619.487 361.004 619.487 360.151L619.487 356.075C621.921 357.278 624.614 357.861 627.327 357.77 630.041 357.861 632.734 357.279 635.167 356.075L635.167 360.151C635.187 361.004 632.414 362.66 627.327 362.66ZM627.327 355.8C622.231 355.8 619.487 354.144 619.487 353.291L619.487 349.097C621.918 350.309 624.613 350.895 627.327 350.802 630.042 350.895 632.737 350.309 635.167 349.097L635.167 353.301C635.187 354.154 632.414 355.81 627.327 355.81Z" fill="#527FFF"/><path d="M630.679 322 594.321 322C590.83 322 588 324.83 588 328.321L588 364.679C588 368.17 590.83 371 594.321 371L617.4 371 617.4 369.04 594.321 369.04C591.915 369.035 589.965 367.085 589.96 364.679L589.96 328.321C589.965 325.915 591.915 323.965 594.321 323.96L630.679 323.96C633.085 323.965 635.035 325.915 635.04 328.321L635.04 342.58 637 342.58 637 328.321C637 324.83 634.17 322 630.679 322Z" fill="#527FFF"/></g></svg>