<svg width="49" height="50" xmlns="http://www.w3.org/2000/svg" xmlns:xlink="http://www.w3.org/1999/xlink" xml:space="preserve" overflow="hidden"><g transform="translate(-587 -485)"><path d="M4.7628 10.388C4.35637 10.1906 4.00091 9.90222 3.724 9.5452 3.50528 9.22205 3.39541 8.83752 3.4104 8.4476 3.40148 8.07922 3.49658 7.71579 3.6848 7.399 3.86245 7.10389 4.12091 6.86584 4.4296 6.713 4.77222 6.55037 5.14803 6.46984 5.5272 6.4778 6.06181 6.49143 6.58696 6.62188 7.0658 6.86L7.0658 7.84C6.61937 7.66107 6.1451 7.56157 5.6644 7.546 5.43117 7.53536 5.2018 7.60834 5.0176 7.7518 4.85759 7.89617 4.77118 8.10498 4.7824 8.3202 4.768 8.49503 4.80915 8.66994 4.9 8.82 5.06601 9.0007 5.26576 9.14718 5.488 9.2512L6.0172 9.5354C6.30815 9.682 6.57837 9.86654 6.8208 10.0842 7.00993 10.2525 7.16037 10.4598 7.2618 10.6918 7.36557 10.9501 7.41559 11.2269 7.4088 11.5052 7.45911 12.0648 7.25802 12.6178 6.86 13.0144 6.39724 13.4003 5.80541 13.5964 5.2038 13.5632 4.89298 13.5633 4.58342 13.5238 4.2826 13.4456 4.01161 13.3907 3.75055 13.2949 3.5084 13.1614L3.5084 12.1814C3.77282 12.2789 4.04489 12.3543 4.3218 12.4068 4.57963 12.4631 4.84204 12.4959 5.1058 12.5048 5.36402 12.5214 5.61913 12.441 5.8212 12.2794 5.99119 12.1125 6.08055 11.8802 6.0662 11.6424 6.07857 11.4421 6.01169 11.245 5.88 11.0936 5.71873 10.9186 5.52589 10.7757 5.3116 10.6722Z" fill="#527FFF" transform="matrix(1 0 0 1.02041 587 485)"/><path d="M8.2712 10.0156C8.21176 9.08808 8.46352 8.16725 8.9866 7.399 9.4646 6.78096 10.2154 6.43671 10.9956 6.4778 11.7585 6.45445 12.4867 6.79672 12.9556 7.399 13.4912 8.16339 13.7599 9.08307 13.72 10.0156 13.743 10.7662 13.5885 11.5116 13.2692 12.1912 13.0094 12.7411 12.5506 13.1719 11.9854 13.3966 12.1878 13.5585 12.4165 13.6845 12.6616 13.769 12.9548 13.8782 13.2613 13.9474 13.573 13.9748L13.573 15.0822C13.0496 15.0045 12.5447 14.8318 12.0834 14.5726 11.6198 14.3218 11.2049 13.9899 10.8584 13.5926 10.1011 13.5912 9.39045 13.2267 8.9474 12.6126 8.44895 11.842 8.21185 10.9314 8.2712 10.0156ZM9.6824 10.0156C9.6462 10.6411 9.76046 11.2662 10.0156 11.8384 10.2764 12.3796 10.9265 12.607 11.4677 12.3463 11.6896 12.2394 11.8687 12.0603 11.9756 11.8384 12.2268 11.265 12.3409 10.6408 12.3088 10.0156 12.3474 9.38776 12.2365 8.75972 11.9854 8.183 11.6891 7.64176 11.0102 7.44316 10.469 7.73941 10.2818 7.84187 10.1279 7.99581 10.0254 8.183 9.7627 8.75656 9.64492 9.38586 9.6824 10.0156Z" fill="#527FFF" transform="matrix(1 0 0 1.02041 587 485)"/><path d="M14.8764 13.4064 14.8764 6.6248 16.2484 6.6248 16.2484 12.3284 18.5612 12.3284 18.5612 13.4064Z" fill="#527FFF" transform="matrix(1 0 0 1.02041 587 485)"/><path d="M22.4224 10.388C22.0153 10.1873 21.6574 9.89958 21.3738 9.5452 21.1593 9.22009 21.0498 8.83695 21.0602 8.4476 21.0542 8.07827 21.1528 7.71477 21.3444 7.399 21.5221 7.10389 21.7805 6.86584 22.0892 6.713 22.4284 6.55048 22.801 6.46992 23.177 6.4778 23.7149 6.49032 24.2435 6.62079 24.7254 6.86L24.7254 7.84C24.279 7.66107 23.8047 7.56157 23.324 7.546 23.0908 7.53536 22.8614 7.60834 22.6772 7.7518 22.5172 7.89617 22.4308 8.10498 22.442 8.3202 22.4363 8.49823 22.4878 8.6734 22.589 8.82 22.755 9.0007 22.9548 9.14718 23.177 9.2512L23.7062 9.5354C23.9972 9.682 24.2674 9.86654 24.5098 10.0842 24.6989 10.2525 24.8494 10.4598 24.9508 10.6918 25.0512 10.9508 25.0979 11.2276 25.088 11.5052 25.1296 12.0712 24.9136 12.6258 24.5 13.0144 24.0372 13.4003 23.4454 13.5964 22.8438 13.5632 22.5298 13.5627 22.2171 13.5232 21.9128 13.4456 21.6427 13.3877 21.382 13.292 21.1386 13.1614L21.1386 12.1814C21.4068 12.2776 21.682 12.353 21.9618 12.4068 22.2196 12.4631 22.482 12.4959 22.7458 12.5048 23.004 12.5214 23.2591 12.441 23.4612 12.2794 23.6312 12.1125 23.7205 11.8802 23.7062 11.6424 23.7113 11.4567 23.6486 11.2756 23.5298 11.1328 23.3666 10.9557 23.1701 10.8125 22.9516 10.7114Z" fill="#527FFF" transform="matrix(1 0 0 1.02041 587 485)"/><path d="M27.0088 11.2504C26.9967 11.6005 27.1 11.9448 27.3028 12.2304 27.5343 12.4418 27.8428 12.5481 28.1554 12.5244 28.3439 12.5185 28.5312 12.4922 28.714 12.446 28.9367 12.3942 29.156 12.3288 29.3706 12.25L29.3706 13.1418C29.1612 13.2709 28.9331 13.3668 28.6944 13.426 28.4304 13.4839 28.161 13.5134 27.8908 13.5142 26.4894 13.5142 25.7838 12.642 25.7838 10.8976 25.7381 10.2051 25.9205 9.51661 26.3032 8.9376 26.6589 8.48167 27.2154 8.22902 27.7928 8.2614 28.9002 8.2614 29.4588 8.9376 29.4588 10.2998 29.4613 10.629 29.4285 10.9576 29.3608 11.2798ZM27.7438 9.1924C27.2832 9.1924 27.0284 9.5942 27.0088 10.4076L28.322 10.4076 28.322 10.1822C28.3386 9.92006 28.2916 9.65779 28.1848 9.4178 28.0925 9.2651 27.9217 9.1778 27.7438 9.1924Z" fill="#527FFF" transform="matrix(1 0 0 1.02041 587 485)"/><path d="M30.38 13.4064 30.38 8.4084 31.4874 8.4084 31.6344 9.0552C31.7909 8.84289 31.9873 8.66313 32.2126 8.526 32.396 8.41577 32.6062 8.35814 32.8202 8.3594 32.9278 8.34971 33.036 8.34971 33.1436 8.3594L33.1436 9.5746C32.9709 9.55656 32.7969 9.55656 32.6242 9.5746 32.3115 9.57346 32.0039 9.65457 31.7324 9.8098L31.7324 13.4554Z" fill="#527FFF" transform="matrix(1 0 0 1.02041 587 485)"/><path d="M35.0938 13.4064 33.5846 8.4084 35.0154 8.4084 35.7406 11.9756 36.4854 8.4084 37.8672 8.4084 36.358 13.4064Z" fill="#527FFF" transform="matrix(1 0 0 1.02041 587 485)"/><path d="M39.4646 11.2504C39.4612 11.5993 39.5637 11.941 39.7586 12.2304 39.9937 12.4423 40.3054 12.5485 40.621 12.5244 40.8095 12.5185 40.9968 12.4922 41.1796 12.446 41.3995 12.3956 41.6156 12.3301 41.8264 12.25L41.8264 13.1418C41.6188 13.2743 41.3901 13.3704 41.1502 13.426 40.8864 13.4849 40.6169 13.5144 40.3466 13.5142 38.955 13.5142 38.2494 12.642 38.2494 10.8976 38.2037 10.2051 38.3861 9.51661 38.7688 8.9376 39.1203 8.48188 39.674 8.22888 40.2486 8.2614 41.3658 8.2614 41.9146 8.9376 41.9146 10.2998 41.9225 10.6293 41.8896 10.9584 41.8166 11.2798ZM40.18 9.1924C39.7194 9.1924 39.4646 9.5942 39.4352 10.4076L40.7484 10.4076 40.7484 10.1822C40.767 9.92091 40.7233 9.65894 40.621 9.4178 40.5271 9.26681 40.3574 9.18009 40.18 9.1924Z" fill="#527FFF" transform="matrix(1 0 0 1.02041 587 485)"/><path d="M42.8456 13.4064 42.8456 8.4084 43.9334 8.4084 44.0804 9.0552C44.2426 8.8445 44.4418 8.66516 44.6684 8.526 44.8542 8.41304 45.0684 8.35526 45.2858 8.3594 45.3868 8.34975 45.4886 8.34975 45.5896 8.3594L45.5896 9.5746C45.417 9.55574 45.2428 9.55574 45.0702 9.5746 44.7576 9.57481 44.4504 9.65584 44.1784 9.8098L44.1784 13.4554Z" fill="#527FFF" transform="matrix(1 0 0 1.02041 587 485)"/><path d="M39.2 19.8744C34.3 19.8744 29.4 21.4032 29.4 24.3334L29.4 44.2666C29.4 47.2066 34.3 48.7256 39.2 48.7256 44.1 48.7256 49 47.1968 49 44.2666L49 24.3334C49 21.4032 44.1 19.8744 39.2 19.8744ZM39.3274 21.8344C44.4136 21.8344 47.1674 23.4808 47.1674 24.3334 47.1674 25.186 44.394 26.8422 39.3274 26.8422 34.2608 26.8422 31.4874 25.186 31.4874 24.3334 31.4874 23.4808 34.2314 21.8344 39.3274 21.8344ZM39.3274 46.7656C34.2314 46.7656 31.4874 45.1192 31.4874 44.2666L31.4874 40.915C33.9182 42.1267 36.6129 42.7128 39.3274 42.6202 42.0419 42.7132 44.7367 42.1271 47.1674 40.915L47.1674 44.2666C47.187 45.08 44.4136 46.7656 39.3274 46.7656ZM39.3274 40.6602C34.2314 40.6602 31.4874 39.004 31.4874 38.1514L31.4874 34.0746C33.9207 35.2782 36.6142 35.8607 39.3274 35.77 42.0407 35.8611 44.7342 35.2786 47.1674 34.0746L47.1674 38.1514C47.187 39.004 44.4136 40.6602 39.3274 40.6602ZM39.3274 33.8002C34.2314 33.8002 31.4874 32.144 31.4874 31.2914L31.4874 27.097C33.9182 28.3087 36.6129 28.8948 39.3274 28.8022 42.0419 28.8952 44.7367 28.3091 47.1674 27.097L47.1674 31.3012C47.187 32.1538 44.4136 33.81 39.3274 33.81Z" fill="#527FFF" transform="matrix(1 0 0 1.02041 587 485)"/><path d="M42.679 0 6.321 0C2.83001 0 0 2.83001 0 6.321L0 42.679C0 46.17 2.83001 49 6.321 49L29.4 49 29.4 47.04 6.321 47.04C3.91472 47.0346 1.96539 45.0853 1.96 42.679L1.96 6.321C1.96539 3.91472 3.91472 1.96539 6.321 1.96L42.679 1.96C45.0853 1.96539 47.0346 3.91472 47.04 6.321L47.04 20.58 49 20.58 49 6.321C49 2.83001 46.17 0 42.679 0Z" fill="#527FFF" transform="matrix(1 0 0 1.02041 587 485)"/></g></svg>