<svg id="uuid-b59680da-f680-43ed-9120-159a776c58f4" xmlns="http://www.w3.org/2000/svg" width="18" height="18" viewBox="0 0 18 18"><defs><linearGradient id="uuid-ffe24a81-d688-4cfb-92a4-b7cf82f295ca" x1="7.22" y1="10.34" x2="8.87" y2=".06" gradientUnits="userSpaceOnUse"><stop offset=".22" stop-color="#0078d4" /><stop offset=".31" stop-color="#1e85dc" /><stop offset=".41" stop-color="#3a90e4" /><stop offset=".52" stop-color="#4e99ea" /><stop offset=".62" stop-color="#5a9eed" /><stop offset=".73" stop-color="#5ea0ef" /></linearGradient><linearGradient id="uuid-6f2cac89-47f1-4a0f-b06a-5ac4e9064e17" x1="7.35" y1="16.55" x2="7.35" y2="7.71" gradientUnits="userSpaceOnUse"><stop offset="0" stop-color="#198ab3" /><stop offset=".06" stop-color="#1c92ba" /><stop offset=".3" stop-color="#25afd4" /><stop offset=".54" stop-color="#2cc3e6" /><stop offset=".77" stop-color="#31d0f1" /><stop offset="1" stop-color="#32d4f5" /></linearGradient><linearGradient id="uuid-d35eeafa-9cb4-4165-88c5-d9451ab30427" x1="17.74" y1="16.34" x2="11.46" y2="10.05" gradientUnits="userSpaceOnUse"><stop offset="0" stop-color="#198ab3" /><stop offset=".17" stop-color="#1786af" /><stop offset=".32" stop-color="#127ba5" /><stop offset=".47" stop-color="#0b6893" /><stop offset=".51" stop-color="#09638e" /></linearGradient><linearGradient id="uuid-cd71663f-016e-4939-8258-2d8f9787cef4" x1="15.79" y1="9.23" x2="8.51" y2="12.93" gradientUnits="userSpaceOnUse"><stop offset=".07" stop-color="#0078d4" /><stop offset=".49" stop-color="#32bedd" /><stop offset=".91" stop-color="#ffcd0f" /></linearGradient><linearGradient id="uuid-58c45027-3f61-447d-baab-045af6401f61" x1="9.1" y1="14.04" x2="17.76" y2="5.38" gradientUnits="userSpaceOnUse"><stop offset=".04" stop-color="#ff7381" /><stop offset=".08" stop-color="#fb6875" /><stop offset=".15" stop-color="#f65661" /><stop offset=".23" stop-color="#f24953" /><stop offset=".34" stop-color="#f0424b" /><stop offset=".52" stop-color="#f04049" /><stop offset=".57" stop-color="#f1434d" /><stop offset=".62" stop-color="#f44f5a" /><stop offset=".68" stop-color="#fa636f" /><stop offset=".71" stop-color="#ff7381" /></linearGradient><linearGradient id="uuid-bfe8240a-8156-4bef-b77f-58960cec9667" x1="-478.45" y1="-243.86" x2="-33.04" y2="-12.75" gradientUnits="userSpaceOnUse"><stop offset="0" stop-color="#ff7381" /><stop offset="1" stop-color="#f04049" /></linearGradient></defs><path d="M11.99,13.07V2.19c0-.41-.33-.74-.74-.74H2.41c-.41,0-.74.33-.74.74v10.88c0,.41.33.74.74.74h8.84c.41,0,.74-.33.74-.74ZM12.71,2.65h-.23v10.42c0,.68-.55,1.23-1.23,1.23H3.13c.02.39.34.7.74.7h8.84c.41,0,.74-.33.74-.74V3.38c0-.41-.33-.74-.74-.74Z" fill="url(#uuid-ffe24a81-d688-4cfb-92a4-b7cf82f295ca)" /><path d="M1.1,16.55h12.47c.53,0,.96-.52.97-1.17l.04-2.48c.01-.67-.43-1.21-.97-1.21h-2.84c-.19,0-.37-.07-.52-.19l-3.48-3.48c-.27-.21-.58-.32-.9-.32H1.1c-.54,0-.97.53-.97,1.19v6.46c0,.66.43,1.19.97,1.19Z" fill="url(#uuid-6f2cac89-47f1-4a0f-b06a-5ac4e9064e17)" /><path d="M9.9,10.97c0-1.36,1.11-2.47,2.47-2.47s2.47,1.11,2.47,2.47-1.11,2.47-2.47,2.47-2.47-1.11-2.47-2.47ZM12.37,7.51c-1.91,0-3.46,1.55-3.46,3.46s1.55,3.46,3.46,3.46c.78,0,1.49-.26,2.07-.69l2.52,2.52c.19.19.51.19.7,0,.19-.19.19-.51,0-.7l-2.52-2.52c.43-.58.69-1.29.69-2.07,0-1.91-1.55-3.46-3.46-3.46Z" fill="url(#uuid-d35eeafa-9cb4-4165-88c5-d9451ab30427)" /><circle cx="12.37" cy="10.97" r="2.47" fill="#fff" /><path d="M12.37,8.5c-.88,0-1.65.46-2.09,1.16.44-.43,1.05-.7,1.72-.7,1.36,0,2.47,1.11,2.47,2.47,0,.48-.14.93-.38,1.31.46-.45.75-1.07.75-1.77,0-1.36-1.11-2.47-2.47-2.47Z" fill="#c3f1ff" /><path d="M12.37,7.51c-1.91,0-3.46,1.55-3.46,3.46,0,.19.02.37.05.56h0s0,0,0,0c.03.2.08.4.15.59,0,0,0,0,0,0h0c.47,1.35,1.75,2.31,3.26,2.31,1.91,0,3.46-1.55,3.46-3.46s-1.55-3.46-3.46-3.46ZM12.37,13.44c-1.25,0-2.28-.93-2.44-2.14h0s-.01-.09-.01-.14c0-.06,0-.13,0-.19,0-.07,0-.15.01-.22,0-.07.02-.14.03-.21h0c.2-1.16,1.21-2.04,2.43-2.04,1.13,0,2.08.76,2.38,1.8.02.09.04.18.06.27,0,.03,0,.06.01.09,0,.03,0,.07.01.11,0,.06,0,.13,0,.19h0s0,.01,0,.02c0,1.36-1.11,2.47-2.47,2.47Z" fill="url(#uuid-cd71663f-016e-4939-8258-2d8f9787cef4)" /><path d="M7.31,13.17s-.05.07-.05.12v.48s0,.04.02.06c.03.03.09.03.12,0l.86-.86.85-.85c-.07-.19-.12-.39-.15-.59l-1.65,1.65ZM17.85,7.32s-.08-.03-.12,0l-2.22,2.22c.08.18.15.36.2.55l1.02-1.02,1.1-1.09s.05-.07.05-.12v-.47s0-.04-.02-.06Z" fill="url(#uuid-58c45027-3f61-447d-baab-045af6401f61)" /><path d="M14.75,10.3l-.4.4-.74-1.87h0s-.06-.17-.06-.17c-.04-.1-.14-.17-.24-.17-.08,0-.16.04-.21.11-.01.02-.03.04-.04.06l-1.39,3.66-1.02-2.01s-.03-.05-.05-.07c-.1-.1-.27-.1-.37,0l-.29.29c-.02.14-.04.28-.04.43,0,.11.01.22.02.33l.42-.41,1.13,2.22c.03.06.08.1.14.13.14.05.29-.02.34-.15l1.36-3.58.7,1.78c.03.08.1.14.19.16.09.02.18,0,.24-.07l.41-.41c0-.23-.03-.44-.09-.65Z" fill="url(#uuid-bfe8240a-8156-4bef-b77f-58960cec9667)" /></svg>