<svg id="uuid-3e78e15b-4040-4fb3-b4d0-f2f579eb9f48" xmlns="http://www.w3.org/2000/svg" width="18" height="18" viewBox="0 0 18 18"><defs><linearGradient id="uuid-42156e4c-1189-471c-949f-e3e713413e99" x1="-1882.19" y1="4102.22" x2="-1860.63" y2="4102.22" gradientTransform="translate(-1860.8 4106.66) rotate(-180)" gradientUnits="userSpaceOnUse"><stop offset=".43" stop-color="#119fc5" /><stop offset=".63" stop-color="#0583cf" /><stop offset=".75" stop-color="#0078d4" /></linearGradient><linearGradient id="uuid-031c93a7-3eef-4a52-a87f-f1ae7855b40a" x1="-1.24" y1="16.5" x2="18.21" y2="16.5" gradientTransform="translate(-2.76 -2.22) rotate(-.09)" gradientUnits="userSpaceOnUse"><stop offset=".23" stop-color="#119fc5" /><stop offset=".71" stop-color="#0583cf" /><stop offset="1" stop-color="#0078d4" /></linearGradient><linearGradient id="uuid-7891041a-c797-4984-ae54-b63147b2d8e4" x1="-7.94" y1="10.41" x2="18.92" y2="10.41" gradientUnits="userSpaceOnUse"><stop offset=".54" stop-color="#119fc5" /><stop offset=".72" stop-color="#0583cf" /><stop offset=".83" stop-color="#0078d4" /></linearGradient><linearGradient id="uuid-cf2c7e8f-5c2d-43e1-bec8-9df3c2c1d144" x1="8.96" y1="781.41" x2="8.96" y2="787.65" gradientTransform="translate(0 791.52) scale(1 -1)" gradientUnits="userSpaceOnUse"><stop offset="0" stop-color="#119fc5" /><stop offset="1" stop-color="#36dff1" /></linearGradient></defs><path d="M.65,7.64l7.5-4.79c.52-.33,1.18-.33,1.69,0l7.54,4.94c.22.14.39.33.51.54v-1.58h0c-.04-.44-.26-.86-.68-1.14L9.81.79c-.5-.33-1.15-.33-1.65,0L.83,5.47c-.47.3-.7.79-.7,1.29h0v1.44c.12-.22.29-.41.52-.55Z" fill="url(#uuid-42156e4c-1189-471c-949f-e3e713413e99)" /><path d="M15.81,11.63l-6.14,3.93c-.42.27-.96.27-1.38,0l-6.18-4.04c-.18-.12-.32-.27-.41-.44v1.29s0,0,0,0c.03.36.22.71.56.93l6.05,3.95c.41.27.94.27,1.35,0l6-3.85c.38-.25.58-.65.57-1.06h0s0-1.18,0-1.18c-.1.18-.24.33-.43.45Z" fill="#fff" /><path d="M15.81,11.63l-6.14,3.93c-.42.27-.96.27-1.38,0l-6.18-4.04c-.18-.12-.32-.27-.41-.44v1.29s0,0,0,0c.03.36.22.71.56.93l6.05,3.95c.41.27.94.27,1.35,0l6-3.85c.38-.25.58-.65.57-1.06h0s0-1.18,0-1.18c-.1.18-.24.33-.43.45Z" fill="url(#uuid-031c93a7-3eef-4a52-a87f-f1ae7855b40a)" /><path d="M17.35,7.21l-7.5,4.79c-.52.33-1.18.33-1.69,0L.63,7.05c-.22-.14-.39-.33-.51-.54v1.58h0c.04.44.26.86.68,1.14l7.37,4.83c.5.33,1.15.33,1.65,0l7.33-4.69c.47-.3.7-.79.7-1.29h0v-1.44c-.12.22-.29.41-.52.55Z" fill="#fff" /><path d="M17.35,7.21l-2.05,1.31-1.4.9-.07.05-1.3.83-.58.37-1.2.77-.89.57c-.52.33-1.18.33-1.69,0l-.91-.6-1.2-.79-.61-.4-1.3-.85-.04-.02-1.4-.92-2.08-1.36c-.22-.14-.39-.33-.51-.54v1.58h0c.04.44.26.86.68,1.14l.5.33,1.22.8,1.94,1.27,1.2.79,2.52,1.65c.5.33,1.15.33,1.65,0l2.5-1.6,1.2-.77,1.96-1.25,1.21-.77.47-.3c.47-.3.7-.79.7-1.29h0v-1.44c-.12.22-.29.41-.52.55Z" fill="url(#uuid-7891041a-c797-4984-ae54-b63147b2d8e4)" /><path d="M13.36,7.95c-.03-.97-.76-1.77-1.72-1.9-.06-1.36-1.2-2.42-2.57-2.38-1.09-.02-2.06.65-2.44,1.67-1.16.14-2.04,1.11-2.07,2.27.05,1.32,1.16,2.35,2.48,2.3.07,0,.15,0,.22,0h4.01s.07,0,.11-.02c1.07,0,1.95-.86,1.98-1.93Z" fill="url(#uuid-cf2c7e8f-5c2d-43e1-bec8-9df3c2c1d144)" /></svg>