<svg width="18" height="18" viewBox="0 0 18 18" fill="none" xmlns="http://www.w3.org/2000/svg"><path d="M1.15196 14.7868L1.15196 3.21316C1.15196 2.66652 1.36912 2.14226 1.75565 1.75573C2.14219 1.36919 2.66644 1.15204 3.21308 1.15204L14.7868 1.15204C15.3334 1.15204 15.8577 1.36919 16.2442 1.75573C16.6307 2.14226 16.8479 2.66652 16.8479 3.21316L16.8479 14.7868C16.8479 15.3335 16.6307 15.8577 16.2442 16.2443C15.8577 16.6308 15.3334 16.848 14.7868 16.848L3.21309 16.848C2.66644 16.848 2.14219 16.6308 1.75565 16.2443C1.36912 15.8577 1.15196 15.3335 1.15196 14.7868Z" fill="#FF0000" /><path d="M1.15196 14.7868L1.15196 3.21316C1.15196 2.66652 1.36912 2.14226 1.75565 1.75573C2.14219 1.36919 2.66644 1.15204 3.21308 1.15204L14.7868 1.15204C15.3334 1.15204 15.8577 1.36919 16.2442 1.75573C16.6307 2.14226 16.8479 2.66652 16.8479 3.21316L16.8479 14.7868C16.8479 15.3335 16.6307 15.8577 16.2442 16.2443C15.8577 16.6308 15.3334 16.848 14.7868 16.848L3.21309 16.848C2.66644 16.848 2.14219 16.6308 1.75565 16.2443C1.36912 15.8577 1.15196 15.3335 1.15196 14.7868Z" fill="url(#paint0_linear_114_5555)" /><path d="M0.560087 14.7868L0.560087 3.21317C0.560087 2.50957 0.839588 1.8348 1.3371 1.33728C1.83462 0.839771 2.50939 0.560269 3.21298 0.56027L14.7867 0.56027C15.4902 0.560271 16.165 0.83977 16.6625 1.33728C17.1601 1.8348 17.4396 2.50957 17.4395 3.21316V14.7868C17.4395 15.4904 17.1601 16.1652 16.6625 16.6627C16.165 17.1602 15.4902 17.4397 14.7867 17.4397H3.21298C2.50939 17.4397 1.83462 17.1602 1.3371 16.6627C0.839588 16.1652 0.560087 15.4904 0.560087 14.7868ZM0.591588 3.21317L0.591589 14.7868C0.591589 15.4821 0.867771 16.1488 1.35938 16.6404C1.85098 17.132 2.51775 17.4082 3.21298 17.4082L14.7867 17.4082C15.4819 17.4082 16.1487 17.1321 16.6403 16.6404C17.1319 16.1488 17.408 15.4821 17.408 14.7868L17.408 3.21316C17.408 2.51793 17.1319 1.85117 16.6403 1.35956C16.1487 0.867953 15.4819 0.591771 14.7867 0.59177L3.21298 0.591772C2.51774 0.591771 1.85098 0.867953 1.35938 1.35956C0.867771 1.85117 0.591588 2.51793 0.591588 3.21317Z" stroke="url(#paint1_linear_114_5555)" stroke-width="1.12054" stroke-linecap="round" stroke-linejoin="round" /><path fill-rule="evenodd" clip-rule="evenodd" d="M8.98281 2.89355C12.3649 2.89355 15.1066 5.63525 15.1066 9.01731C15.1066 12.3994 12.3649 15.1411 8.98281 15.1411C5.60075 15.1411 2.85905 12.3994 2.85905 9.01731C2.85905 5.63525 5.60075 2.89355 8.98281 2.89355ZM8.98281 14.1204C9.23347 14.1204 9.73517 13.8907 10.235 12.891C10.4444 12.4723 10.624 11.968 10.7587 11.3988H7.2069C7.34162 11.968 7.52123 12.4723 7.73061 12.891C8.23045 13.8907 8.73214 14.1204 8.98281 14.1204ZM7.0246 10.3781C6.97081 9.94697 6.94156 9.49123 6.94156 9.01731C6.94156 8.54338 6.97081 8.08765 7.0246 7.65648H10.941C10.9948 8.08765 11.0241 8.54338 11.0241 9.01731C11.0241 9.49123 10.9948 9.94697 10.941 10.3781H7.0246ZM11.8045 11.3988C11.6118 12.3108 11.3118 13.1101 10.9362 13.7332C12.0374 13.2766 12.944 12.4455 13.4973 11.3988H11.8045ZM13.9025 10.3781H11.9688C12.0185 9.94048 12.0447 9.48502 12.0447 9.01731C12.0447 8.5496 12.0185 8.09413 11.9688 7.65648H13.9025C14.0221 8.08971 14.0859 8.54605 14.0859 9.01731C14.0859 9.48857 14.0221 9.94491 13.9025 10.3781ZM5.9968 10.3781H4.06313C3.94356 9.94491 3.87968 9.48857 3.87968 9.01731C3.87968 8.54605 3.94356 8.08971 4.06313 7.65648H5.9968C5.94715 8.09413 5.92093 8.5496 5.92093 9.01731C5.92093 9.48502 5.94715 9.94048 5.9968 10.3781ZM4.46827 11.3988H6.16109C6.35377 12.3108 6.65378 13.1101 7.02945 13.7332C5.92825 13.2766 5.02158 12.4455 4.46827 11.3988ZM7.2069 6.63585H10.7587C10.624 6.0666 10.4444 5.56236 10.235 5.1436C9.73517 4.14391 9.23347 3.91418 8.98281 3.91418C8.73214 3.91418 8.23045 4.14391 7.73061 5.1436C7.52123 5.56236 7.34162 6.0666 7.2069 6.63585ZM11.8045 6.63585H13.4973C12.944 5.58912 12.0374 4.75802 10.9362 4.30138C11.3118 4.92451 11.6118 5.72377 11.8045 6.63585ZM7.02945 4.30138C6.65378 4.92451 6.35377 5.72377 6.16109 6.63585H4.46827C5.02158 5.58912 5.92825 4.75802 7.02945 4.30138Z" fill="url(#paint2_linear_114_5555)" /><defs><linearGradient id="paint0_linear_114_5555" x1="4.22532" y1="0.603273" x2="10.3894" y2="19.1159" gradientUnits="userSpaceOnUse"><stop stop-color="#0FAFFF" /><stop offset="1" stop-color="#2764E7" /></linearGradient><linearGradient id="paint1_linear_114_5555" x1="3.68842" y1="-0.340946" x2="10.5457" y2="20.2534" gradientUnits="userSpaceOnUse"><stop stop-color="#0094F0" /><stop offset="1" stop-color="#2052CB" /></linearGradient><linearGradient id="paint2_linear_114_5555" x1="8.99551" y1="4.36801" x2="8.99551" y2="19.7973" gradientUnits="userSpaceOnUse"><stop stop-color="#D8F7FF" /><stop offset="1" stop-color="#D8F7FF" stop-opacity="0.5" /></linearGradient></defs></svg>