<svg width="50" height="50" xmlns="http://www.w3.org/2000/svg" xmlns:xlink="http://www.w3.org/1999/xlink" xml:space="preserve" overflow="hidden"><g transform="translate(-1046 -399)"><path d="M1071 449C1057.19 449 1046 437.807 1046 424 1046 410.193 1057.19 399 1071 399 1084.81 399 1096 410.193 1096 424 1096 437.807 1084.81 449 1071 449ZM1071 401C1058.3 401 1048 411.297 1048 424 1048 436.703 1058.3 447 1071 447 1083.7 447 1094 436.703 1094 424 1094 411.297 1083.7 401 1071 401Z" fill="#A166FF"/><path d="M1085.9 431 1084 431 1084 427C1084 426.448 1083.55 426 1083 426L1080 426 1080 422C1080 421.448 1079.55 421 1079 421L1072 421 1072 418 1079 418C1079.55 418 1080 417.552 1080 417L1080 408C1080 407.448 1079.55 407 1079 407L1063 407C1062.45 407 1062 407.448 1062 408L1062 417C1062 417.552 1062.45 418 1063 418L1070 418 1070 421 1063 421C1062.45 421 1062 421.448 1062 422L1062 426 1059 426C1058.45 426 1058 426.448 1058 427L1058 431 1056.1 431C1055.55 431 1055.1 431.448 1055.1 432L1055.1 437C1055.1 437.552 1055.55 438 1056.1 438L1061 438C1061.55 438 1062 437.552 1062 437L1062 432C1062 431.448 1061.55 431 1061 431L1060 431 1060 428 1065 428 1065 431 1064 431C1063.45 431 1063 431.448 1063 432L1063 437C1063 437.552 1063.45 438 1064 438L1069 438C1069.55 438 1070 437.552 1070 437L1070 432C1070 431.448 1069.55 431 1069 431L1067 431 1067 427C1067 426.448 1066.55 426 1066 426L1064 426 1064 423 1078 423 1078 426 1076 426C1075.45 426 1075 426.448 1075 427L1075 431 1073 431C1072.45 431 1072 431.448 1072 432L1072 437C1072 437.552 1072.45 438 1073 438L1078 438C1078.55 438 1079 437.552 1079 437L1079 432C1079 431.448 1078.55 431 1078 431L1077 431 1077 428 1082 428 1082 431 1080.93 431C1080.38 431 1079.93 431.448 1079.93 432L1079.93 437C1079.93 437.552 1080.38 438 1080.93 438L1085.93 438C1086.48 438 1086.93 437.552 1086.93 437L1086.93 432C1086.93 431.448 1086.48 431 1085.93 431 1085.92 431 1085.91 431 1085.9 431ZM1060 436 1057.1 436 1057.1 433 1060 433ZM1068 433 1068 436 1065 436 1065 433ZM1064 416 1064 409 1078 409 1078 416ZM1077 436 1074 436 1074 433 1077 433ZM1084.9 436 1081.9 436 1081.9 433 1084.9 433Z" fill="#A166FF"/></g></svg>