<svg width="49" height="50" xmlns="http://www.w3.org/2000/svg" xmlns:xlink="http://www.w3.org/1999/xlink" xml:space="preserve" overflow="hidden"><g transform="translate(-1048 -478)"><path d="M24.99 14.8862C19.3559 14.9349 14.8281 19.5417 14.8768 25.1758 14.9255 30.8099 19.5323 35.3378 25.1664 35.289 30.7698 35.2406 35.2852 30.6818 35.28 25.0782 35.2476 19.4245 30.6438 14.8645 24.99 14.8862ZM24.99 33.32C20.4384 33.2713 16.7882 29.542 16.8369 24.9905 16.8856 20.4389 20.6148 16.7886 25.1664 16.8373 29.6834 16.8857 33.3197 20.561 33.32 25.0782 33.293 29.6533 29.5651 33.3417 24.99 33.32Z" fill="#A166FF" transform="matrix(1 0 0 1.02041 1048 478)"/><path d="M24.5 0C10.969 0 0 10.969 0 24.5 0 38.031 10.969 49 24.5 49 38.031 49 49 38.031 49 24.5 49 10.969 38.031 0 24.5 0ZM24.5 47.04C12.0515 47.04 1.96 36.9485 1.96 24.5 1.96 12.0515 12.0515 1.96 24.5 1.96 36.9485 1.96 47.04 12.0515 47.04 24.5 47.04 36.9485 36.9485 47.04 24.5 47.04Z" fill="#A166FF" transform="matrix(1 0 0 1.02041 1048 478)"/><path d="M37.9358 13.0242 32.0558 7.1442C31.8709 6.96076 31.6205 6.85849 31.36 6.86L12.74 6.86C12.1988 6.86 11.76 7.29876 11.76 7.84L11.76 40.18C11.76 40.7212 12.1988 41.16 12.74 41.16L37.24 41.16C37.7812 41.16 38.22 40.7212 38.22 40.18L38.22 13.72C38.2215 13.4595 38.1192 13.2091 37.9358 13.0242ZM32.34 10.2018 34.8782 12.74 32.34 12.74ZM36.26 39.2 13.72 39.2 13.72 8.82 30.38 8.82 30.38 13.72C30.38 14.2612 30.8188 14.7 31.36 14.7L36.26 14.7Z" fill="#A166FF" transform="matrix(1 0 0 1.02041 1048 478)"/><path d="M27.93 26.019C27.2326 26.0213 26.5588 26.2714 26.0288 26.7246L23.0006 25.039 23.0006 24.99C23.0106 24.8759 23.0106 24.7611 23.0006 24.647L26.019 23.1378C26.5444 23.6446 27.2491 23.9229 27.979 23.912 29.5486 23.912 30.821 22.6396 30.821 21.07 30.821 19.5004 29.5486 18.228 27.979 18.228 26.4094 18.228 25.137 19.5004 25.137 21.07 25.137 21.1778 25.137 21.2856 25.137 21.3934L22.1284 22.9026C20.9739 21.7609 19.1124 21.7713 17.9707 22.9259 16.829 24.0804 16.8394 25.9419 17.994 27.0836 19.1485 28.2253 21.01 28.2149 22.1517 27.0603 22.2084 27.0029 22.2628 26.9433 22.3146 26.8814L25.0684 28.42C25.0487 28.5795 25.0487 28.7407 25.0684 28.9002 25.0413 30.5237 26.3355 31.8617 27.959 31.8888 29.5825 31.9159 30.9205 30.6217 30.9476 28.9982 30.9746 27.3747 29.6805 26.0367 28.057 26.0096 28.0408 26.0093 28.0246 26.0092 28.0084 26.0092ZM27.93 20.188C28.4171 20.188 28.812 20.5829 28.812 21.07 28.812 21.5571 28.4171 21.952 27.93 21.952 27.4429 21.952 27.048 21.5571 27.048 21.07 27.048 20.5829 27.4429 20.188 27.93 20.188ZM20.09 25.921C19.5488 25.9203 19.1105 25.481 19.1112 24.9398 19.1119 24.3985 19.5512 23.9603 20.0925 23.961 20.6337 23.9617 21.0719 24.401 21.0712 24.9422 21.0712 24.9582 21.0708 24.9741 21.07 24.99 21.0439 25.512 20.6127 25.9217 20.09 25.921ZM27.93 29.841C27.3888 29.8403 26.9506 29.401 26.9512 28.8598 26.9519 28.3185 27.3912 27.8803 27.9325 27.881 28.4737 27.8817 28.9119 28.321 28.9112 28.8622 28.9112 28.8782 28.9108 28.8941 28.91 28.91 28.8839 29.432 28.4527 29.8417 27.93 29.841Z" fill="#A166FF" transform="matrix(1 0 0 1.02041 1048 478)"/></g></svg>