<svg width="49" height="49" xmlns="http://www.w3.org/2000/svg" xmlns:xlink="http://www.w3.org/1999/xlink" xml:space="preserve" overflow="hidden"><defs><clipPath id="clip0"><rect x="788" y="407" width="49" height="49"/></clipPath></defs><g clip-path="url(#clip0)" transform="translate(-788 -407)"><path d="M812.5 454.785 811.902 454.324C808.814 452.094 805.297 450.529 801.573 449.728 793.998 448.376 789.47 444.24 789.47 438.674 789.546 435.975 790.396 433.356 791.92 431.128 792.9 429.413 793.772 427.933 793.772 425.924 793.673 423.229 792.468 420.695 790.44 418.917L789.666 418.29 790.303 417.525C790.303 417.457 795.703 410.979 796.928 409.303L797.624 408.323 798.437 409.185C800.124 411.189 802.564 412.405 805.179 412.547 807.737 412.547 809.756 411.4 811.726 408.833L812.5 407.853 813.274 408.833C815.234 411.4 817.263 412.547 819.821 412.547 822.436 412.405 824.876 411.189 826.563 409.185L827.376 408.323 828.072 409.303C829.297 410.979 834.648 417.457 834.697 417.525L835.334 418.29 834.56 418.917C832.543 420.702 831.34 423.232 831.228 425.924 831.228 427.933 832.09 429.413 833.08 431.128 834.604 433.356 835.454 435.975 835.53 438.674 835.53 444.24 831.002 448.376 823.427 449.728 819.703 450.529 816.186 452.094 813.098 454.324ZM792.39 418.064C794.464 420.155 795.66 422.96 795.732 425.904 795.619 428.123 794.885 430.265 793.615 432.088 792.488 434.048 791.43 435.851 791.43 438.654 791.43 445.377 799.456 447.337 801.916 447.788 805.715 448.577 809.316 450.127 812.5 452.345 815.686 450.134 819.286 448.59 823.084 447.807 825.544 447.356 833.57 445.396 833.57 438.674 833.57 435.871 832.512 434.048 831.385 432.108 830.115 430.285 829.381 428.142 829.268 425.924 829.34 422.98 830.536 420.175 832.61 418.084 831.404 416.604 828.641 413.243 827.2 411.361 825.233 413.305 822.604 414.435 819.84 414.526 816.982 414.53 814.278 413.227 812.5 410.989 810.726 413.222 808.031 414.524 805.179 414.526 802.408 414.44 799.772 413.309 797.8 411.361 796.359 413.243 793.596 416.604 792.39 418.064Z" fill="#A166FF"/><path d="M927.16 881.32 779.18 881.32 773.839 947.47 638.06 947.47 631.2 334.48 927.16 334.48 927.16 881.32Z" stroke="#A166FF" stroke-width="2.94" stroke-miterlimit="10" fill="none"/></g></svg>