<svg width="49" height="49" xmlns="http://www.w3.org/2000/svg" xmlns:xlink="http://www.w3.org/1999/xlink" xml:space="preserve" overflow="hidden"><defs><clipPath id="clip0"><rect x="254" y="519" width="49" height="49"/></clipPath></defs><g clip-path="url(#clip0)" transform="translate(-254 -519)"><path d="M278.5 566.53C265.781 566.53 255.47 556.219 255.47 543.5 255.47 530.781 265.781 520.47 278.5 520.47 291.219 520.47 301.53 530.781 301.53 543.5 301.519 556.215 291.215 566.519 278.5 566.53ZM278.5 522.43C266.863 522.43 257.43 531.863 257.43 543.5 257.43 555.137 266.863 564.57 278.5 564.57 290.137 564.57 299.57 555.137 299.57 543.5 299.559 531.868 290.132 522.441 278.5 522.43Z" fill="#A166FF"/><path d="M281.254 556.426 273.179 556.426 273.179 554.466 280.274 554.466 280.274 534.376 273.179 534.376 273.179 532.416 281.254 532.416C281.795 532.416 282.234 532.855 282.234 533.396L282.234 555.446C282.234 555.987 281.795 556.426 281.254 556.426Z" fill="#A166FF"/><path d="M272.992 543.441 290.446 543.441 290.446 545.401 272.992 545.401Z" fill="#A166FF"/><path d="M266.554 538.051C266.408 538.05 266.264 538.017 266.132 537.953 265.792 537.791 265.575 537.448 265.574 537.071L265.574 529.721C265.575 529.344 265.792 529.001 266.132 528.839 266.472 528.675 266.876 528.721 267.171 528.957L271.758 532.632C271.992 532.817 272.129 533.098 272.13 533.396 272.129 533.694 271.992 533.976 271.758 534.161L267.171 537.836C266.996 537.976 266.778 538.052 266.554 538.051ZM267.534 531.76 267.534 535.033 269.582 533.396Z" fill="#A166FF"/><path d="M266.554 549.076C266.408 549.075 266.264 549.042 266.132 548.978 265.792 548.816 265.575 548.473 265.574 548.096L265.574 540.746C265.575 540.369 265.792 540.026 266.132 539.864 266.472 539.7 266.876 539.746 267.171 539.982L271.758 543.657C271.992 543.842 272.129 544.123 272.13 544.421 272.129 544.719 271.992 545.001 271.758 545.186L267.171 548.861C266.996 549.001 266.778 549.077 266.554 549.076ZM267.534 542.785 267.534 546.058 269.582 544.421Z" fill="#A166FF"/><path d="M291.358 549.988C291.23 549.988 291.104 549.964 290.985 549.919 290.616 549.767 290.376 549.407 290.378 549.008L290.378 539.825C290.374 539.284 290.811 538.842 291.352 538.839 291.615 538.838 291.868 538.942 292.053 539.129L296.65 543.725C297.03 544.108 297.03 544.725 296.65 545.107L292.053 549.703C291.868 549.887 291.618 549.989 291.358 549.988ZM292.338 542.148 292.338 546.607 294.572 544.382Z" fill="#A166FF"/><path d="M266.554 559.18C266.408 559.179 266.264 559.146 266.132 559.082 265.792 558.92 265.575 558.577 265.574 558.2L265.574 550.85C265.572 550.309 266.009 549.869 266.55 549.867 266.776 549.866 266.996 549.943 267.171 550.086L271.758 553.761C272.18 554.099 272.247 554.716 271.909 555.138 271.864 555.194 271.813 555.245 271.758 555.289L267.171 558.964C266.996 559.105 266.778 559.181 266.554 559.18ZM267.534 552.888 267.534 556.162 269.582 554.525Z" fill="#A166FF"/><path d="M393.16 718.92 245.18 718.92 239.839 785.07 104.06 785.07 97.2 172.08 393.16 172.08 393.16 718.92Z" stroke="#A166FF" stroke-width="2.94" stroke-miterlimit="10" fill="none"/></g></svg>