<svg width="49" height="49" xmlns="http://www.w3.org/2000/svg" xmlns:xlink="http://www.w3.org/1999/xlink" xml:space="preserve" overflow="hidden"><g transform="translate(-1048 -561)"><path d="M1072.5 561C1058.97 561 1048 571.969 1048 585.5 1048 599.031 1058.97 610 1072.5 610 1086.03 610 1097 599.031 1097 585.5 1097 571.969 1086.03 561 1072.5 561ZM1072.5 608.04C1060.05 608.04 1049.96 597.948 1049.96 585.5 1049.96 573.052 1060.05 562.96 1072.5 562.96 1084.95 562.96 1095.04 573.052 1095.04 585.5 1095.04 597.948 1084.95 608.04 1072.5 608.04Z" fill="#A166FF"/><path d="M1063.68 591.38 1053.88 591.38C1053.34 591.38 1052.9 590.941 1052.9 590.4L1052.9 580.6C1052.9 580.059 1053.34 579.62 1053.88 579.62L1063.68 579.62C1064.22 579.62 1064.66 580.059 1064.66 580.6L1064.66 590.4C1064.66 590.941 1064.22 591.38 1063.68 591.38ZM1054.86 589.42 1062.7 589.42 1062.7 581.58 1054.86 581.58Z" fill="#A166FF"/><path d="M1086.22 578.64 1080.34 578.64C1079.8 578.64 1079.36 578.201 1079.36 577.66L1079.36 571.78C1079.36 571.239 1079.8 570.8 1080.34 570.8L1086.22 570.8C1086.76 570.8 1087.2 571.239 1087.2 571.78L1087.2 577.66C1087.2 578.201 1086.76 578.64 1086.22 578.64ZM1081.32 576.68 1085.24 576.68 1085.24 572.76 1081.32 572.76Z" fill="#A166FF"/><path d="M1086.22 589.42 1080.34 589.42C1079.8 589.42 1079.36 588.981 1079.36 588.44L1079.36 582.56C1079.36 582.019 1079.8 581.58 1080.34 581.58L1086.22 581.58C1086.76 581.58 1087.2 582.019 1087.2 582.56L1087.2 588.44C1087.2 588.981 1086.76 589.42 1086.22 589.42ZM1081.32 587.46 1085.24 587.46 1085.24 583.54 1081.32 583.54Z" fill="#A166FF"/><path d="M1086.22 600.2 1080.34 600.2C1079.8 600.2 1079.36 599.761 1079.36 599.22L1079.36 593.34C1079.36 592.799 1079.8 592.36 1080.34 592.36L1086.22 592.36C1086.76 592.36 1087.2 592.799 1087.2 593.34L1087.2 599.22C1087.2 599.761 1086.76 600.2 1086.22 600.2ZM1081.32 598.24 1085.24 598.24 1085.24 594.32 1081.32 594.32Z" fill="#A166FF"/><path d="M1078.1 586.196 1074.79 589.489 1073.41 588.107 1075.04 586.48 1066.62 586.48 1066.62 584.52 1075.04 584.52 1073.41 582.893 1074.79 581.511 1078.1 584.804C1078.48 585.185 1078.48 585.806 1078.1 586.19 1078.1 586.192 1078.1 586.194 1078.1 586.196Z" fill="#A166FF"/><path d="M1077.56 575.22 1076.34 579.718 1074.46 579.208 1075.09 576.876 1066.39 581.462 1065.48 579.738 1073.97 575.259 1071.85 574.72 1072.37 572.76 1076.87 573.975C1077.39 574.112 1077.71 574.648 1077.57 575.171 1077.57 575.188 1077.56 575.204 1077.56 575.22Z" fill="#A166FF"/><path d="M1076.87 596.986 1072.37 598.24 1071.85 596.28 1073.96 595.702 1065.47 591.223 1066.38 589.498 1075.08 594.085 1074.46 591.792 1076.35 591.282 1077.57 595.78C1077.71 596.302 1077.4 596.841 1076.88 596.983 1076.88 596.984 1076.87 596.985 1076.87 596.986Z" fill="#A166FF"/></g></svg>