<svg width="49" height="49" xmlns="http://www.w3.org/2000/svg" xmlns:xlink="http://www.w3.org/1999/xlink" xml:space="preserve" overflow="hidden"><defs><clipPath id="clip0"><rect x="816" y="505" width="49" height="49"/></clipPath></defs><g clip-path="url(#clip0)" transform="translate(-816 -505)"><path d="M855.474 552.53 826.074 552.53C825.533 552.53 825.094 552.091 825.094 551.55L825.094 528.579C825.095 528.322 825.198 528.075 825.379 527.893 825.562 527.706 825.812 527.6 826.074 527.599L855.474 527.599C856.016 527.599 856.454 528.038 856.454 528.579L856.454 551.55C856.454 552.091 856.016 552.53 855.474 552.53ZM827.054 550.57 854.494 550.57 854.494 529.569 827.054 529.569Z" fill="#A166FF"/><path d="M840.784 540.035 840.784 540.035C838.543 540.035 836.727 538.219 836.727 535.978 836.727 533.737 838.543 531.921 840.784 531.921L840.784 531.921C843.025 531.918 844.844 533.732 844.846 535.973 844.848 537.052 844.419 538.087 843.656 538.849 842.894 539.611 841.861 540.037 840.784 540.035ZM840.784 533.881C840.228 533.877 839.693 534.1 839.304 534.498 838.487 535.319 838.49 536.647 839.311 537.464 839.702 537.854 840.232 538.073 840.784 538.075L840.784 538.075C841.937 538.08 842.876 537.15 842.881 535.997 842.881 535.991 842.881 535.984 842.881 535.978L842.881 535.978C842.885 535.421 842.662 534.887 842.264 534.498 841.873 534.103 841.34 533.881 840.784 533.881Z" fill="#A166FF"/><path d="M839.804 539.173 841.764 539.173 841.764 545.366 839.804 545.366Z" fill="#A166FF"/><path d="M830.68 523.071 832.64 523.071 832.64 528.589 830.68 528.589Z" fill="#A166FF"/><path d="M849.026 523.071 850.986 523.071 850.986 528.589 849.026 528.589Z" fill="#A166FF"/><path d="M850.986 517.515 849.026 517.515 849.026 517.201C849.026 512.379 845.39 508.45 840.882 508.43 836.224 508.579 832.555 512.453 832.66 517.113L832.66 517.515 830.7 517.515 830.7 517.103C830.601 511.376 835.128 506.636 840.853 506.47 846.62 506.64 851.157 511.453 850.987 517.22 850.987 517.23 850.986 517.24 850.986 517.25Z" fill="#A166FF"/><path d="M856.239 525.58 854.847 524.198 858.767 520.278 854.788 516.446 856.151 515.035 860.845 519.553C861.031 519.738 861.14 519.987 861.149 520.249 861.153 520.513 861.05 520.767 860.864 520.954Z" fill="#A166FF"/><path d="M820.841 519.357 860.325 519.357 860.325 521.317 820.841 521.317Z" fill="#A166FF"/><path d="M824.624 525.58 819.979 520.994C819.595 520.612 819.592 519.992 819.973 519.608 819.975 519.606 819.977 519.604 819.979 519.602L824.624 515.025 825.996 516.417 822.076 520.337 825.996 524.257Z" fill="#A166FF"/><path d="M955.16 567.72 807.18 567.72 801.839 633.87 666.06 633.87 659.2 20.88 955.16 20.88 955.16 567.72Z" stroke="#A166FF" stroke-width="2.94" stroke-miterlimit="10" fill="none"/></g></svg>