<svg width="49" height="49" xmlns="http://www.w3.org/2000/svg" xmlns:xlink="http://www.w3.org/1999/xlink" xml:space="preserve" overflow="hidden"><defs><clipPath id="clip0"><rect x="738" y="390" width="49" height="49"/></clipPath></defs><g clip-path="url(#clip0)" transform="translate(-738 -390)"><path d="M751.24 425.78C744.745 425.774 739.484 420.505 739.49 414.01 739.495 407.515 744.765 402.254 751.26 402.26 756.102 402.264 760.447 405.236 762.206 409.747L764.46 409.747 766.988 407.219C767.371 406.839 767.988 406.839 768.37 407.219L770.899 409.747 771.967 409.747 774.495 407.219C774.68 407.035 774.931 406.933 775.191 406.934L775.191 406.934C775.448 406.935 775.694 407.038 775.877 407.219L778.405 409.747 780.816 409.747C781.054 409.747 781.284 409.834 781.463 409.992L785.216 413.275C785.618 413.629 785.662 414.24 785.314 414.647L782.482 417.93C782.296 418.148 782.024 418.273 781.737 418.273L762.206 418.273C760.464 422.81 756.099 425.797 751.24 425.78ZM751.24 404.22C745.827 404.2 741.424 408.571 741.404 413.984 741.384 419.396 745.755 423.8 751.168 423.82 755.446 423.835 759.24 421.074 760.54 416.999 760.673 416.574 761.076 416.293 761.52 416.313L781.287 416.313 783.178 414.108 780.424 411.707 777.984 411.707C777.724 411.708 777.473 411.606 777.288 411.423L775.171 409.296 773.045 411.423C772.86 411.606 772.609 411.708 772.349 411.707L770.477 411.707C770.217 411.708 769.966 411.606 769.781 411.423L767.665 409.296 765.538 411.423C765.353 411.606 765.103 411.708 764.842 411.707L761.52 411.707C761.076 411.727 760.673 411.446 760.54 411.021 759.248 406.971 755.491 404.216 751.24 404.2ZM747.957 418.273C745.602 418.273 743.694 416.364 743.694 414.01 743.694 411.656 745.602 409.747 747.957 409.747 750.311 409.747 752.22 411.656 752.22 414.01 752.22 416.364 750.311 418.273 747.957 418.273ZM747.957 411.707C746.685 411.707 745.654 412.738 745.654 414.01 745.654 415.282 746.685 416.313 747.957 416.313 749.229 416.313 750.26 415.282 750.26 414.01 750.26 412.738 749.229 411.707 747.957 411.707Z" fill="#FF5252"/><path d="M588.06 381.18 729.18 381.18 728.69 315.03 876.67 316.99 876.67 860.89 588.06 860.89 588.06 381.18Z" stroke="#FF4D4D" stroke-width="2.94" stroke-miterlimit="10" fill="none"/></g></svg>