<svg width="49" height="49" xmlns="http://www.w3.org/2000/svg" xmlns:xlink="http://www.w3.org/1999/xlink" xml:space="preserve" overflow="hidden"><defs><clipPath id="clip0"><rect x="871" y="390" width="49" height="49"/></clipPath></defs><g clip-path="url(#clip0)" transform="translate(-871 -390)"><path d="M885.886 424.231C880.257 424.23 875.695 419.665 875.697 414.037 875.699 408.408 880.263 403.846 885.892 403.847 890.059 403.849 893.806 406.387 895.353 410.257L897.097 410.257 899.214 408.14C899.595 407.756 900.216 407.753 900.6 408.134 900.602 408.136 900.604 408.138 900.606 408.14L902.723 410.257 903.507 410.257 905.623 408.14C906.005 407.756 906.625 407.753 907.009 408.134 907.011 408.136 907.013 408.138 907.015 408.14L909.132 410.257 911.092 410.257C911.33 410.257 911.56 410.344 911.739 410.502L914.943 413.304C915.345 413.658 915.389 414.269 915.041 414.676L912.67 417.44C912.486 417.655 912.218 417.78 911.935 417.783L895.353 417.783C893.829 421.679 890.07 424.24 885.886 424.231ZM885.886 405.807C881.34 405.814 877.66 409.505 877.666 414.052 877.673 418.598 881.364 422.278 885.911 422.271 889.471 422.266 892.624 419.973 893.726 416.587 893.854 416.18 894.231 415.903 894.657 415.901L911.484 415.901 912.964 414.177 910.759 412.217 908.72 412.217C908.463 412.216 908.217 412.113 908.034 411.932L906.28 410.217 904.565 411.932C904.382 412.113 904.136 412.216 903.879 412.217L902.36 412.217C902.101 412.213 901.852 412.111 901.664 411.932L899.91 410.217 898.195 411.932C898.01 412.116 897.76 412.218 897.499 412.217L894.657 412.217C894.231 412.215 893.854 411.938 893.726 411.531 892.649 408.112 889.471 405.792 885.886 405.807ZM883.074 417.822C880.984 417.817 879.295 416.119 879.301 414.03 879.306 411.94 881.004 410.251 883.093 410.257 885.179 410.262 886.866 411.954 886.866 414.039 886.866 416.129 885.173 417.822 883.083 417.822 883.08 417.822 883.077 417.822 883.074 417.822ZM883.074 412.217C882.067 412.222 881.255 413.042 881.261 414.049 881.266 415.056 882.086 415.868 883.093 415.862 884.096 415.857 884.906 415.042 884.906 414.039 884.906 413.033 884.09 412.217 883.083 412.217 883.08 412.217 883.077 412.217 883.074 412.217Z" fill="#FF5252"/><path d="M917.55 428.769 873.45 428.769C872.909 428.769 872.47 428.33 872.47 427.789L872.47 400.231C872.47 399.69 872.909 399.251 873.45 399.251L917.55 399.251C918.091 399.251 918.53 399.69 918.53 400.231L918.53 427.789C918.53 428.33 918.091 428.769 917.55 428.769ZM874.43 426.809 916.57 426.809 916.57 401.211 874.43 401.211Z" fill="#FF5252"/><path d="M858.26 312.58 999.38 312.58 998.89 246.43 1146.87 248.39 1146.87 792.29 858.26 792.29 858.26 312.58Z" stroke="#FF4D4D" stroke-width="2.94" stroke-miterlimit="10" fill="none"/></g></svg>