<svg width="50" height="49" xmlns="http://www.w3.org/2000/svg" xmlns:xlink="http://www.w3.org/1999/xlink" xml:space="preserve" overflow="hidden"><g transform="translate(-791 -412)"><path d="M46.55 45.6876 41.9538 45.6876 41.9538 43.7276 45.57 43.7276 45.57 10.78 3.43 10.78 3.43 43.7276 32.7712 43.7276 32.7712 45.6876 2.45 45.6876C1.90876 45.6876 1.47 45.2488 1.47 44.7076L1.47 9.8C1.47 9.25876 1.90876 8.82 2.45 8.82L46.55 8.82C47.0912 8.82 47.53 9.25876 47.53 9.8L47.53 44.7076C47.53 45.2488 47.0912 45.6876 46.55 45.6876Z" fill="#FF5252" transform="matrix(1.02041 0 0 1 791 412)"/><path d="M46.501 10.78 2.45 10.78C1.90876 10.78 1.47 10.3412 1.47 9.8L1.47 4.2924C1.47 3.75116 1.90876 3.3124 2.45 3.3124L46.55 3.3124C47.0912 3.3124 47.53 3.75116 47.53 4.2924L47.53 9.8C47.5307 10.3412 47.0925 10.7805 46.5512 10.7812 46.5345 10.7812 46.5177 10.7808 46.501 10.78ZM3.43 8.82 45.57 8.82 45.57 5.2724 3.43 5.2724Z" fill="#FF5252" transform="matrix(1.02041 0 0 1 791 412)"/><path d="M24.5 31.9088C19.3907 31.9088 15.2488 27.7669 15.2488 22.6576 15.2488 17.5483 19.3907 13.4064 24.5 13.4064 29.6093 13.4064 33.7512 17.5483 33.7512 22.6576 33.7458 27.7647 29.6071 31.9034 24.5 31.9088ZM24.5 15.3762C20.4732 15.3762 17.2088 18.6406 17.2088 22.6674 17.2088 26.6942 20.4732 29.9586 24.5 29.9586 28.5268 29.9586 31.7912 26.6942 31.7912 22.6674 31.7912 22.6641 31.7912 22.6609 31.7912 22.6576 31.7858 18.6346 28.523 15.3762 24.5 15.3762Z" fill="#FF5252" transform="matrix(1.02041 0 0 1 791 412)"/><path d="M29.0962 42.0224C28.8672 42.0229 28.6453 41.9431 28.469 41.797L24.5 38.5434 20.58 41.797C20.1641 42.1434 19.5462 42.0871 19.1998 41.6712 19.0528 41.4947 18.9724 41.2721 18.9728 41.0424L18.9728 32.7712 20.9328 32.7712 20.9328 38.9648 23.9316 36.5246C24.2914 36.2327 24.8066 36.2327 25.1664 36.5246L28.1652 38.9648 28.1652 32.7712 30.1252 32.7712 30.1252 41.0424C30.1241 41.4194 29.9069 41.7623 29.5666 41.9244 29.419 41.9914 29.2583 42.0249 29.0962 42.0224Z" fill="#FF5252" transform="matrix(1.02041 0 0 1 791 412)"/><path d="M22.9712 27.3224C22.6996 27.3215 22.4405 27.208 22.2558 27.0088L19.1982 23.7944 20.58 22.442 22.932 24.9116 28.42 19.2276 29.8018 20.58 23.6768 27.0088C23.4944 27.2055 23.2394 27.3188 22.9712 27.3224Z" fill="#FF5252" transform="matrix(1.02041 0 0 1 791 412)"/></g></svg>