<svg width="50" height="49" xmlns="http://www.w3.org/2000/svg" xmlns:xlink="http://www.w3.org/1999/xlink" xml:space="preserve" overflow="hidden"><defs><clipPath id="clip0"><rect x="1164" y="544" width="50" height="49"/></clipPath></defs><g clip-path="url(#clip0)" transform="translate(-1164 -544)"><path d="M7.7812 30.9876C7.7812 30.7132 7.7812 30.4486 7.7812 30.1742 7.81105 19.4577 16.5227 10.7945 27.2392 10.8243 37.4005 10.8526 45.8191 18.7154 46.5402 28.8512L44.5802 28.9786C44.0325 19.3601 35.7913 12.0068 26.1728 12.5544 16.8602 13.0847 9.61253 20.8472 9.7216 30.1742 9.7216 30.4192 9.7216 30.6642 9.7216 30.9092Z" fill="#FF5252" transform="matrix(1.02041 0 0 1 1164 544)"/><path d="M8.5554 31.5756C8.5554 31.2424 8.5554 30.4878 8.5554 30.2918 8.58214 25.2553 10.9556 20.5191 14.9744 17.4832L15.0724 17.4146C17.837 15.7972 20.9835 14.948 24.1864 14.9548 31.8414 14.8597 38.6441 19.8191 40.8954 27.1362L39.0138 27.6654C37.0098 21.1681 30.9555 16.7751 24.157 16.8854 21.3251 16.8778 18.542 17.6218 16.0916 19.0414 12.5735 21.7143 10.5012 25.8735 10.486 30.2918 10.486 30.4878 10.486 31.213 10.486 31.5266Z" fill="#FF5252" transform="matrix(1.02041 0 0 1 1164 544)"/><path d="M9.849 37.0734 9.5844 35.1134C11.3213 34.9494 12.9976 34.3896 14.4844 33.4768 17.7282 31.1248 24.5882 30.282 28.2926 30.5368 30.6982 30.897 33.0326 31.631 35.2114 32.7124 36.1756 33.1943 37.1829 33.5848 38.22 33.8786 39.8582 33.9286 41.4976 33.8368 43.12 33.6042L43.2866 33.6042C43.8648 33.5454 44.4332 33.4866 44.982 33.4474L45.5308 33.4474 45.5308 29.9096 45.325 29.9096 43.561 30.0762 42.2282 30.1938 42.0812 28.2338 43.3944 28.126 45.129 27.9594 45.5798 27.9104C46.5047 27.7642 47.3729 28.3955 47.5191 29.3204 47.5335 29.4115 47.5404 29.5037 47.5398 29.596L47.5398 33.6042C47.5262 34.4941 46.8306 35.2238 45.9424 35.28L45.8052 35.28 45.1976 35.329 43.5316 35.4858 43.3552 35.4858C41.5583 35.7499 39.74 35.8385 37.926 35.7504 36.7118 35.4654 35.5345 35.0412 34.4176 34.4862 32.4313 33.5213 30.3099 32.8637 28.126 32.536 24.794 32.2812 18.4338 33.0358 15.6212 35.084 13.8768 36.1845 11.901 36.8655 9.849 37.0734Z" fill="#FF5252" transform="matrix(1.02041 0 0 1 1164 544)"/><path d="M36.6226 30.1644C36.064 29.9978 35.4466 29.7626 34.7312 29.4882 32.352 28.4098 29.7679 27.8582 27.1558 27.8712 22.393 28.1554 20.0802 28.4298 18.3358 28.9296L17.787 27.048C19.747 26.4992 22.1186 26.2052 27.048 25.921 29.9372 25.8813 32.8003 26.4733 35.4368 27.6556 36.1032 27.9202 36.6912 28.1358 37.1616 28.273Z" fill="#FF5252" transform="matrix(1.02041 0 0 1 1164 544)"/><path d="M7.252 37.24C5.1548 37.24 3.087 36.8578 2.0188 35.7896 1.60665 35.4117 1.41158 34.8522 1.4994 34.3 1.7346 33.0554 3.332 32.34 5.5566 31.36 6.5366 30.9582 7.448 30.5368 8.2908 30.0762L9.2708 31.7912C8.3496 32.3008 7.3108 32.7712 6.3798 33.1632 5.42212 33.543 4.49773 34.002 3.6162 34.5352 4.4982 35.1526 6.713 35.5152 9.6236 35.1134L9.8882 37.0734C9.01402 37.1862 8.13342 37.2419 7.252 37.24Z" fill="#FF5252" transform="matrix(1.02041 0 0 1 1164 544)"/><path d="M41.503 31.9088 37.583 31.9088C36.6613 31.9034 35.917 31.1547 35.917 30.233L35.917 28.0868C35.917 27.1667 36.6629 26.4208 37.583 26.4208L41.503 26.4208C42.4231 26.4208 43.169 27.1667 43.169 28.0868L43.169 30.233C43.169 31.1547 42.4247 31.9034 41.503 31.9088ZM37.877 29.9488 41.209 29.9488 41.209 28.42 37.877 28.42Z" fill="#FF5252" transform="matrix(1.02041 0 0 1 1164 544)"/><path d="M16.1602 34.5744C13.2159 34.5547 10.3694 33.5158 8.1046 31.6344L9.408 30.2134C11.3478 31.7837 13.7723 32.6323 16.268 32.6144Z" fill="#FF5252" transform="matrix(1.02041 0 0 1 1164 544)"/><path d="M-149.94-284.2-8.82-284.2-9.31-350.35 138.67-348.39 138.67 195.51-149.94 195.51-149.94-284.2Z" stroke="#FF4D4D" stroke-width="2.94" stroke-miterlimit="10" fill="none" transform="matrix(1.02041 0 0 1 1164 544)"/></g></svg>