<svg width="50" height="49" xmlns="http://www.w3.org/2000/svg" xmlns:xlink="http://www.w3.org/1999/xlink" xml:space="preserve" overflow="hidden"><defs><clipPath id="clip0"><rect x="1166" y="468" width="50" height="49"/></clipPath></defs><g clip-path="url(#clip0)" transform="translate(-1166 -468)"><path d="M40.18 47.53 8.82 47.53C7.30295 47.5246 6.07599 46.2933 6.076 44.7762L6.076 4.2238C6.07599 2.70674 7.30295 1.4754 8.82 1.47L40.18 1.47C41.6971 1.4754 42.924 2.70674 42.924 4.2238L42.924 44.7762C42.924 46.2933 41.6971 47.5246 40.18 47.53ZM8.82 3.43C8.38701 3.42997 8.03597 3.78095 8.03594 4.21394 8.03594 4.21723 8.03596 4.22051 8.036 4.2238L8.036 44.7762C8.03059 45.2092 8.37718 45.5645 8.81014 45.5699 8.81343 45.57 8.81671 45.57 8.82 45.57L40.18 45.57C40.613 45.57 40.964 45.2191 40.9641 44.7861 40.9641 44.7828 40.964 44.7795 40.964 44.7762L40.964 4.2238C40.9694 3.79084 40.6228 3.43547 40.1899 3.43006 40.1866 3.43002 40.1833 3.43 40.18 3.43Z" fill="#FF5252" transform="matrix(1.02041 0 0 1 1166 468)"/><path d="M14.9368 31.3683 16.9165 31.3683 16.9165 43.1772 14.9368 43.1772Z" fill="#FF5252" transform="matrix(0.714359 -0.700071 0.714359 0.700071 1144.09 489.962)"/><path d="M10.0272 36.2879 21.8361 36.2879 21.8361 38.2676 10.0272 38.2676Z" fill="#FF5252" transform="matrix(0.714359 -0.700071 0.714359 0.700071 1144.09 489.962)"/><path d="M14.3962 15.3762C14.1343 15.3751 13.8837 15.2692 13.7004 15.0822L10.0254 11.4072 11.4072 10.0254 14.3472 12.9654 21.0014 6.3112 22.3832 7.693 15.0332 15.043C14.8707 15.2307 14.6431 15.3498 14.3962 15.3762Z" fill="#FF5252" transform="matrix(1.02041 0 0 1 1166 468)"/><path d="M14.3962 27.3224C14.1343 27.3213 13.8837 27.2154 13.7004 27.0284L10.0254 23.3534 11.4072 21.9716 14.3472 24.9116 21.0014 18.2574 22.3832 19.6392 15.0332 26.9892C14.8707 27.177 14.6431 27.296 14.3962 27.3224Z" fill="#FF5252" transform="matrix(1.02041 0 0 1 1166 468)"/><path d="M-12.74-284.2 128.38-284.2 127.89-350.35 275.87-348.39 275.87 195.51-12.74 195.51-12.74-284.2Z" stroke="#FF4D4D" stroke-width="2.94" stroke-miterlimit="10" fill="none" transform="matrix(1.02041 0 0 1 1166 468)"/></g></svg>