<svg width="49" height="49" xmlns="http://www.w3.org/2000/svg" xmlns:xlink="http://www.w3.org/1999/xlink" xml:space="preserve" overflow="hidden"><defs><clipPath id="clip0"><rect x="1166" y="391" width="49" height="49"/></clipPath></defs><g clip-path="url(#clip0)" transform="translate(-1166 -391)"><path d="M1190.5 435.776C1179.3 435.776 1170.22 426.698 1170.22 415.5 1170.22 404.302 1179.3 395.224 1190.5 395.224 1201.7 395.224 1210.78 404.302 1210.78 415.5 1210.77 426.694 1201.69 435.765 1190.5 435.776ZM1190.5 397.184C1180.38 397.184 1172.18 405.384 1172.18 415.5 1172.18 425.616 1180.38 433.816 1190.5 433.816 1200.62 433.816 1208.82 425.616 1208.82 415.5 1208.8 405.391 1200.61 397.2 1190.5 397.184Z" fill="#FF5252"/><text fill="#FF5252" font-family="Arial,Arial_MSFontService,sans-serif" font-weight="400" font-size="15" transform="matrix(0.98 0 0 0.98 1175.8 420)">M</text><text fill="#FF5252" font-family="Arial,Arial_MSFontService,sans-serif" font-weight="400" font-size="15" transform="matrix(0.98 0 0 0.98 1188.3 420)">F</text><text fill="#FF5252" font-family="Arial,Arial_MSFontService,sans-serif" font-weight="400" font-size="15" transform="matrix(0.98 0 0 0.98 1195.26 420)">A</text><path d="M1016.06 175.4 1157.18 175.4 1156.69 109.25 1304.67 111.21 1304.67 655.11 1016.06 655.11 1016.06 175.4Z" stroke="#FF4D4D" stroke-width="2.94" stroke-miterlimit="10" fill="none"/></g></svg>