<?xml version="1.0" encoding="utf-8"?>
<!-- Generator: Adobe Illustrator 20.0.0, SVG Export Plug-In . SVG Version: 6.00 Build 0)  -->
<svg version="1.1"
	 id="svg2" xmlns:cc="http://creativecommons.org/ns#" xmlns:dc="http://purl.org/dc/elements/1.1/" xmlns:rdf="http://www.w3.org/1999/02/22-rdf-syntax-ns#" xmlns:svg="http://www.w3.org/2000/svg"
	 xmlns="http://www.w3.org/2000/svg" xmlns:xlink="http://www.w3.org/1999/xlink" x="0px" y="0px" viewBox="0 0 120 48"
	 style="enable-background:new 0 0 120 48;" xml:space="preserve">
<style type="text/css">
	.st0{fill:#201C1D;}
	.st1{fill:#F7A80D;}
</style>
<path id="path243" class="st0" d="M39.3,18.2c-2.3,0-4.8,0.9-5.4,3.8c-0.1,0.3,0.1,0.5,0.3,0.5l2.3,0.3c0.2,0,0.4-0.2,0.4-0.5
	c0.2-1,1-1.5,1.9-1.5c0.5,0,1.1,0.2,1.3,0.6c0.3,0.5,0.3,1.2,0.3,1.8v0.3c-1.4,0.2-3.2,0.3-4.5,0.8c-1.5,0.7-2.6,2-2.6,4
	c0,2.6,1.6,3.8,3.6,3.8c1.7,0,2.7-0.4,4-1.8c0.4,0.6,0.6,0.9,1.4,1.6c0.2,0.1,0.4,0.1,0.6-0.1v0c0.5-0.4,1.4-1.2,1.8-1.7
	c0.2-0.2,0.2-0.4,0-0.7c-0.4-0.6-0.9-1.1-0.9-2.3v-3.8c0-1.6,0.1-3.1-1-4.2C42,18.5,40.5,18.2,39.3,18.2z M70.8,18.2
	c-2.3,0-4.8,0.9-5.4,3.8c-0.1,0.3,0.1,0.5,0.3,0.5l2.3,0.3c0.2,0,0.4-0.2,0.4-0.5c0.2-1,1-1.5,1.9-1.5c0.5,0,1.1,0.2,1.3,0.6
	c0.3,0.5,0.3,1.2,0.3,1.8v0.3c-1.4,0.2-3.2,0.3-4.5,0.8c-1.5,0.7-2.6,2-2.6,4c0,2.6,1.6,3.8,3.6,3.8c1.7,0,2.6-0.4,4-1.8
	c0.4,0.6,0.6,0.9,1.4,1.6c0.2,0.1,0.4,0.1,0.6-0.1v0c0.5-0.4,1.4-1.2,1.8-1.7c0.2-0.2,0.2-0.4,0-0.7c-0.4-0.6-0.9-1.1-0.9-2.3v-3.8
	c0-1.6,0.1-3.1-1.1-4.2C73.5,18.5,72,18.2,70.8,18.2z M53.1,18.3c-1.5,0-2.6,0.7-3.2,2.3h0V19c0-0.2-0.2-0.4-0.4-0.4h-2.2
	c-0.3,0-0.5,0.2-0.5,0.5v12.7c0,0.2,0.2,0.4,0.4,0.4h2.4c0.3,0,0.5-0.2,0.5-0.5v-6.7c0-1.5-0.1-3.5,1.7-3.5c1.7,0,1.5,2.1,1.5,3.5
	v6.7c0,0.2,0.2,0.5,0.4,0.5H56c0.3,0,0.5-0.2,0.5-0.5v-6.7c0-0.7,0-1.8,0.2-2.4c0.2-0.6,0.9-1.1,1.4-1.1c0.7,0,1.2,0.2,1.4,1.1
	c0.1,0.5,0.1,1.8,0.1,2.4v6.7c0,0.2,0.2,0.5,0.4,0.5h2.4c0.3,0,0.5-0.2,0.5-0.5v-8c0-1.4,0.1-2.9-0.6-4c-0.7-1-1.8-1.4-2.8-1.4
	c-1.4,0-2.7,0.7-3.3,2.3C55.6,19,54.6,18.3,53.1,18.3z M94,18.3c-3.5,0-5.4,3.1-5.4,7c0,3.9,1.9,7.1,5.4,7.1c3.4,0,5.5-3.1,5.5-6.9
	C99.5,21.4,97.6,18.3,94,18.3z M107.7,18.3c-1.7,0-2.6,0.8-3.3,2.6h0v-1.9c0-0.2-0.2-0.3-0.4-0.3h-2.2c-0.2,0-0.4,0.2-0.5,0.4v12.7
	c0,0.2,0.2,0.5,0.4,0.5h2.4c0.3,0,0.5-0.2,0.5-0.5v-6.8c0-0.9,0.1-1.6,0.4-2.4c0.3-0.6,0.8-1,1.4-1c1.7,0,1.5,2,1.5,3.4v6.9
	c0,0.2,0.2,0.4,0.4,0.4h2.4c0.2,0,0.4-0.2,0.5-0.4v-8c0-1.2,0-2.9-0.6-3.9C109.9,18.7,108.8,18.3,107.7,18.3L107.7,18.3z M78.9,18.5
	c-0.2,0-0.4,0.2-0.4,0.5v1.8c0,0.3,0.2,0.5,0.4,0.5H83l-4.7,7c-0.3,0.4-0.3,1-0.3,1.2v1.8c0,0.3,0.3,0.6,0.6,0.4
	c2.7-1.5,5.9-1.3,8.3,0c0.3,0.2,0.6-0.1,0.6-0.4v-1.9c0-0.3-0.1-0.5-0.4-0.7c-1.4-0.8-3-1-4.5-1l4.1-6c0.4-0.5,0.6-0.9,0.6-1.1V19
	c0-0.3-0.2-0.5-0.4-0.5H78.9z M94,20.9c0.8,0,1.3,0.3,1.6,1.2c0.3,1,0.3,2.3,0.3,3.3c0,1.6-0.1,4.3-1.9,4.3c-1.9,0-1.9-3.3-1.9-4.9
	C92.1,23.3,92.2,20.9,94,20.9z M40.6,25.5V26c0,1,0,1.8-0.4,2.6c-0.4,0.7-1,1.1-1.7,1.1C37.6,29.8,37,29,37,28
	C37,25.9,38.9,25.5,40.6,25.5z M72.1,25.5V26c0,1,0,1.8-0.4,2.6c-0.4,0.7-1,1.1-1.7,1.1c-0.9,0-1.5-0.7-1.5-1.8
	C68.5,25.9,70.4,25.5,72.1,25.5z"/>
<path id="path257" d="M87.7,32.5v1.8h1.2v-1.8H87.7z M52.4,32.8v12.9h1.1v-1.2c0.2,0.5,0.5,0.8,0.8,1c0.3,0.2,0.7,0.3,1.1,0.3
	c0.8,0,1.5-0.4,2.2-1.3s0.9-2.1,0.9-3.7c0-1-0.1-1.9-0.4-2.6c-0.3-0.7-0.6-1.3-1.1-1.6c-0.5-0.4-1-0.6-1.5-0.6
	c-0.4,0-0.8,0.1-1.1,0.3c-0.3,0.2-0.6,0.5-0.8,1v-4.6H52.4z M63.9,35.8c-0.8,0-1.5,0.3-2,0.8c-0.5,0.5-0.7,1.1-0.7,1.9
	c0,0.5,0.1,0.9,0.3,1.2s0.4,0.7,0.8,0.9c0.3,0.2,1,0.5,1.9,0.8c0.7,0.2,1,0.4,1.2,0.5c0.2,0.2,0.4,0.5,0.4,0.8
	c0,0.4-0.1,0.8-0.4,1.1c-0.3,0.3-0.7,0.4-1.2,0.4s-1-0.1-1.3-0.5s-0.5-0.8-0.6-1.5L61,42.6c0.3,2,1.3,3,3,3c0.9,0,1.6-0.3,2.2-0.8
	s0.8-1.3,0.8-2.2c0-0.5-0.1-0.9-0.2-1.2c-0.2-0.3-0.4-0.6-0.7-0.8c-0.3-0.2-1-0.5-2-0.8c-0.7-0.3-1.2-0.4-1.3-0.6
	c-0.2-0.2-0.4-0.5-0.4-0.8c0-0.4,0.1-0.7,0.4-0.9c0.3-0.2,0.7-0.3,1.2-0.3c0.9,0,1.5,0.5,1.6,1.5l1.2-0.2c-0.1-0.6-0.2-1.2-0.4-1.5
	s-0.5-0.6-0.9-0.8C64.9,35.9,64.5,35.8,63.9,35.8z M71.4,35.8c-1,0-1.8,0.4-2.4,1.2c-0.6,0.8-0.9,2.1-0.9,3.7c0,1.6,0.3,2.8,0.9,3.6
	c0.6,0.8,1.4,1.2,2.5,1.2c0.8,0,1.5-0.2,2-0.8c0.5-0.5,0.9-1.3,1.2-2.2l-1.2-0.2c-0.4,1.3-1,1.9-1.9,1.9c-0.6,0-1.1-0.2-1.5-0.8
	c-0.4-0.5-0.6-1.3-0.7-2.4h5.4v-0.4c0-1.6-0.3-2.8-0.9-3.6C73.1,36.3,72.3,35.8,71.4,35.8z M78.8,35.8c-0.3,0-0.5,0.1-0.8,0.3
	s-0.5,0.7-0.8,1.3V36h-1.1v9.3h1.2v-4.9c0-0.7,0.1-1.3,0.2-1.9c0.1-0.3,0.3-0.6,0.5-0.8s0.5-0.3,0.7-0.3c0.3,0,0.6,0.1,0.9,0.3
	l0.4-1.5C79.6,36,79.2,35.8,78.8,35.8z M93.7,35.8c-1,0-1.8,0.4-2.4,1.2c-0.6,0.8-0.9,2-0.9,3.7c0,1.6,0.3,2.8,0.9,3.7
	c0.6,0.8,1.4,1.2,2.3,1.2c0.8,0,1.4-0.3,2-0.9c0.6-0.6,0.9-1.4,1-2.6L95.5,42c-0.1,0.8-0.3,1.4-0.6,1.8c-0.3,0.4-0.7,0.6-1.2,0.6
	c-0.6,0-1.1-0.3-1.5-0.8c-0.4-0.6-0.6-1.5-0.6-2.8c0-1.2,0.2-2.1,0.6-2.7s0.9-0.9,1.5-0.9c0.4,0,0.7,0.2,1,0.5
	c0.3,0.3,0.5,0.8,0.6,1.4l1.2-0.2c-0.1-1-0.5-1.7-1-2.2C95.1,36.1,94.5,35.8,93.7,35.8z M100.7,35.8c-1,0-1.8,0.4-2.4,1.2
	s-0.9,2.1-0.9,3.7c0,1.6,0.3,2.8,0.9,3.6c0.6,0.8,1.4,1.2,2.5,1.2c0.8,0,1.5-0.2,2-0.8c0.5-0.5,0.9-1.3,1.2-2.2l-1.2-0.2
	c-0.4,1.3-1,1.9-1.9,1.9c-0.6,0-1.1-0.2-1.5-0.8c-0.4-0.5-0.6-1.3-0.7-2.4h5.4v-0.4c0-1.6-0.3-2.8-0.9-3.6
	C102.4,36.3,101.6,35.8,100.7,35.8z M107.9,35.8c-0.8,0-1.5,0.3-2,0.8c-0.5,0.5-0.7,1.1-0.7,1.9c0,0.5,0.1,0.9,0.2,1.2
	c0.2,0.4,0.4,0.7,0.8,0.9c0.3,0.2,1,0.5,1.9,0.8c0.7,0.2,1.1,0.4,1.2,0.5c0.2,0.2,0.4,0.5,0.4,0.8c0,0.4-0.1,0.8-0.4,1.1
	c-0.3,0.3-0.7,0.4-1.2,0.4c-0.5,0-1-0.1-1.3-0.5c-0.3-0.3-0.5-0.8-0.6-1.5l-1.2,0.2c0.3,2,1.3,3,3,3c0.9,0,1.7-0.3,2.2-0.8
	c0.5-0.6,0.8-1.3,0.8-2.2c0-0.5-0.1-0.9-0.2-1.2c-0.2-0.3-0.4-0.6-0.7-0.8c-0.3-0.2-0.9-0.5-1.9-0.8c-0.7-0.3-1.2-0.4-1.3-0.6
	c-0.2-0.2-0.4-0.5-0.4-0.8c0-0.4,0.1-0.7,0.4-0.9s0.7-0.3,1.2-0.3c0.9,0,1.5,0.5,1.6,1.5l1.2-0.2c-0.1-0.6-0.2-1.2-0.4-1.5
	c-0.2-0.3-0.5-0.6-0.9-0.8C108.9,35.9,108.5,35.8,107.9,35.8z M80,36l2.7,9.3h1.2l2.7-9.3h-1.2l-1.6,5.7c-0.2,0.7-0.4,1.3-0.5,1.8
	c-0.1-0.6-0.3-1.3-0.4-1.9L81.3,36H80z M87.7,36v9.3h1.2V36H87.7z M47.6,36.2c-1,0-1.7,0.4-2.4,1.3c-0.6,0.8-1,2.1-1,3.7
	c0,1.6,0.3,2.7,0.9,3.6c0.6,0.8,1.5,1.2,2.5,1.2c0.8,0,1.5-0.3,2-0.8c0.5-0.5,0.9-1.3,1.1-2.2l-1.2-0.2c-0.4,1.3-1,1.9-1.9,1.9
	c-0.6,0-1.1-0.2-1.5-0.8c-0.4-0.5-0.6-1.3-0.7-2.4h5.3l0-0.4c0-1.6-0.3-2.8-0.9-3.6S48.6,36.2,47.6,36.2z M33.9,36.4l2.2,9.3h1.3
	l1.4-7.2l0.2,1.6l1.2,5.6h1.2l2.2-9.3h-1.2l-1.2,5.4l-0.4,1.8l-0.4-1.8l-1.1-5.4h-1.2l-1.1,5.5l-0.4,1.9l-0.4-2l-1.1-5.4H33.9z
	 M111.7,36.5v0.4h1.2V40h0.5v-3.1h1.2v-0.4H111.7z M115,36.5V40h0.4v-3l1,3h0.4l1-3v3h0.5v-3.6h-0.7l-0.8,2.5
	c-0.1,0.2-0.1,0.4-0.2,0.6l-0.2-0.5l-0.8-2.5H115z M71.4,37.1c0.6,0,1.1,0.3,1.5,0.9c0.3,0.4,0.4,1,0.5,1.8h-4
	c0-0.8,0.3-1.5,0.7-1.9S70.8,37.1,71.4,37.1z M100.7,37.1c0.6,0,1.1,0.3,1.5,0.9c0.3,0.4,0.4,1,0.5,1.8h-4c0-0.8,0.3-1.5,0.7-1.9
	C99.7,37.4,100.1,37.1,100.7,37.1z M47.6,37.5c0.6,0,1.1,0.3,1.5,0.9c0.3,0.4,0.4,1,0.5,1.8h-4c0-0.8,0.2-1.5,0.6-2
	C46.6,37.7,47.1,37.5,47.6,37.5z M55.4,37.5c0.5,0,1,0.3,1.4,0.9c0.4,0.6,0.5,1.5,0.5,2.7c0,1.2-0.2,2.1-0.6,2.7s-0.8,0.9-1.3,0.9
	c-0.4,0-0.7-0.1-1-0.4c-0.3-0.3-0.5-0.6-0.7-1.1c-0.2-0.5-0.2-1.2-0.2-2.2c0-1.1,0.2-2,0.6-2.6S54.9,37.5,55.4,37.5z"/>
<path id="polygon287" class="st1" d="M16.4,27.6l-4.7,2l4.3,1.8l5-1.8L16.4,27.6z M9.4,30.1l-0.2,9l6.8,3v-9.3L9.4,30.1z M23.4,30.1
	l-6.2,2.3v8.8l6.2-2.5V30.1z"/>
<path id="polygon311" class="st1" d="M30.8,2.1l-4.7,2l4.3,1.8l5-1.8L30.8,2.1z M24.2,4.7v9l5.8,1.7l0.2-8.2L24.2,4.7z M37.2,5.2
	l-5.5,2.3v8.8l5.5-2.5V5.2z"/>
<path id="use3387" class="st1" d="M8.7,14.7l-4.7,2l4.3,1.8l5-1.8L8.7,14.7z M1.7,17.2l-0.2,9l6.8,3v-9.3L1.7,17.2z M15.7,17.2
	l-6.2,2.3v8.8l6.2-2.5V17.2z"/>
<path id="use3389" class="st1" d="M23.7,14.4l-4.7,2l4.3,1.8l5-1.8L23.7,14.4z M16.7,16.9l-0.2,9l6.8,3v-9.3L16.7,16.9z M30.7,16.9
	l-6.2,2.3v8.8l6.2-2.5V16.9z"/>
<path id="use3391" class="st1" d="M45.4,2.1l-4.7,2l4.3,1.8l5-1.8L45.4,2.1z M38.4,4.6l-0.2,9l6.8,3V7.2L38.4,4.6z M52.4,4.6
	l-6.2,2.3v8.8l6.2-2.5V4.6z"/>
</svg>
