<?xml version="1.0" encoding="utf-8"?>
<!-- Generator: Adobe Illustrator 19.2.1, SVG Export Plug-In . SVG Version: 6.00 Build 0)  -->
<svg version="1.1" id="Layer_1" xmlns="http://www.w3.org/2000/svg" xmlns:xlink="http://www.w3.org/1999/xlink" x="0px" y="0px"
	 viewBox="0 0 2828.2 846.1" style="enable-background:new 0 0 2828.2 846.1;" xml:space="preserve">
<style type="text/css">
	.st0{fill:#757D81;}
	.st1{fill:#CFCECB;}
	.st2{fill:#F4B51A;}
	.st3{fill:#DD462F;}
	.st4{fill:#517DBF;}
	.st5{fill:#4F71A9;}
	.st6{fill:#C3432F;}
	.st7{fill:#D19D2A;}
	.st8{fill:#FFFFFF;}
	.st9{fill:#CAC8C6;}
	.st10{fill:#4472B8;}
	.st11{fill:#FFFFFF;stroke:#4472B8;stroke-miterlimit:10;}
	.st12{fill:#F3B01C;}
	.st13{fill:#DE482F;}
</style>
<g>
	<path class="st0" d="M2589.6,244.8c7.3-3,7.9-3.6,5.2-11.3c-15.5-44.3-73.9-68.2-123.6-47.4c-39.2,16.4-67.6,57.8-67.6,104.2
		c0,62.5,45.1,118.1,106.4,118.1c28.1,0,48.1-3.9,65.9-15.2c3.8-3.5,25.3-20.7,25.5-24.4c0-0.9-3,1.8-7.7,4.4
		c-13.8,7.3-34.6,10.1-50.9,10.4c-32.9,0.6-59.2-21.9-76.4-48.5c-11-17.2-18.2-36.8-20-57.8c-2.7-32.4,5.2-69.6,41.7-78.7
		c24.3-6.1,47.4,7.6,56.3,31c4.1,10.6,1.6,16.2-8.2,20.2l-88,36.7l30,1.9C2513.9,273.5,2553.9,259.6,2589.6,244.8L2589.6,244.8z"/>
	<path class="st0" d="M2318.8,64.5c22.3,0,43.3,0,65.7,0c-9.1,5.9-12.2,8.4-16.1,14.6c-2.8,4.5-3.5,12.9-4,20.5
		c-3.8,87.7-1.5,176-2.1,263.7c0.4,23.9,9.8,21.1,40.8,20.2c-4.7,4-12.3,11.8-18.2,15.2c-28,0-54.8-0.6-82.8-0.6
		c10.6-10.9,16-17.9,15.3-45.2c0.6-91.6-3.1-179.6,2.5-267.8c-13.1,0.4-25.1,0.2-38.2,0.6C2294,79.3,2305.8,70.3,2318.8,64.5
		L2318.8,64.5z"/>
	<path class="st0" d="M2252.2,397.6c-14.5-10.8-39.5-25.7-37.9-46.2c0.5-7,5.5-14.3,15.4-20.1c17.3-10.2,29.1-23.5,35-39
		c6.2-16.4,5.3-34.3-0.8-50.4c-5.7-15.1-16-28.7-29.5-38.2h32l28.1-18.2c-40-0.3-77.9-0.3-118.7-0.3c-39.3,0-74.7,19-90.6,53.2
		c-7.3,15.8-10.2,35.8-5.6,55.1c9.3,37.9,48.9,63,87.3,57.2c4.2-0.6,5.6-2,3.4,1.9c-8.5,14.9-2.3,37.2,14.4,48.1
		c-11.1-0.8-22.8-1-36,0.5c-47,5.5-99,29.6-96.3,80.3c2.1,39.2,41.8,68,104.6,68.3c50.6-0.2,98.3-16.2,118.3-52
		C2296.2,460.2,2283.8,421.3,2252.2,397.6z M2124.4,282.3c-11-42.9,0.4-70.1,26.8-78.4c31.3-9.8,64.8,18.5,72.4,64.8
		c5,30.4-2.7,59.1-30.1,66.7C2165.5,343.3,2134.4,321.5,2124.4,282.3z M2249,482.3c-2.7,23.8-25.5,42.5-64.5,44.9
		c-41.7,2.5-97.8-14-87.4-68.8c5.5-29.2,44.3-44.3,76.3-45.4c8.9-0.3,17.9,0.4,26.8,0.7c4.7,3.5,9.6,6.8,14.7,10
		C2242.4,441.2,2251.2,462.6,2249,482.3z"/>
	<path class="st0" d="M2055.4,287.9c-3.5-58.7-42.8-108.8-118.2-108.8c-65.2,0-118.4,50.9-118.4,113.2
		c0,71.3,61.9,120.2,132.9,112.6C2010.7,398.7,2058.9,346.4,2055.4,287.9z M1959.7,387.3c-39.5,9.1-81.3-23.6-91.8-79.3
		c-11.5-61.1,7.5-101.2,44.7-111.1c44.2-11.7,89.2,32.9,95.7,98.5C2012.8,338.4,1998.3,378.4,1959.7,387.3z"/>
	<path class="st0" d="M1798.5,287.9c-3.6-58.7-43.3-108.8-119.6-108.8c-66,0-119.8,50.9-119.8,113.2c0,71.3,62.7,120.2,134.5,112.6
		C1753.3,398.7,1802.1,346.4,1798.5,287.9z M1701.8,387.3c-40,9.1-82.3-23.6-92.9-79.3c-11.6-61.1,7.6-101.2,45.3-111.1
		c44.7-11.7,90.2,32.9,96.9,98.5C1755.4,338.4,1740.8,378.4,1701.8,387.3z"/>
	<path class="st0" d="M1489.5,147.8l34.3-34.9c-58.2-48.2-157.9-54.5-224.1-21c-57.5,29.1-99.3,86.8-101.4,151.3
		c-2.1,67.9,37.3,121.6,77.3,148.6c66.1,44.6,180.7,34.6,249.7-0.2l0-6.5h0v-71.1l16.1-18.8h-100.5l-37.2,21l72.3-2.2
		c0,20.3,0,42.4,0,62.7c0,8.9,0.1,10.3-14.5,15.1c-20.6,5.4-43.9,6.5-65.2,4.7c-72.2-6-127.2-63.1-140.3-134.2
		c-12.4-67.5,19.5-131.4,73.3-157.7c26.3-12.9,57.8-18.9,92-8c21.4,6.9,40.9,19.2,57.9,36.3l-11.8,21.5L1489.5,147.8L1489.5,147.8z"
		/>
</g>
<g>
	<path class="st0" d="M1282.1,589.8c-22.6,0-40.4,7.2-53.4,21.7c-13,14.5-19.5,34.3-19.5,59.5c0,25.7,6.1,45.7,18.4,60
		c12.3,14.2,29.8,21.3,52.6,21.3c15.1,0,29-1.9,41.7-5.8v11.1c-11.9,4.2-26.8,6.3-44.7,6.3c-25.3,0-45.3-8.2-59.8-24.6
		c-14.6-16.4-21.8-39.2-21.8-68.6c0-18.3,3.5-34.5,10.4-48.5c7-14,16.9-24.8,30-32.4c13-7.6,28.2-11.4,45.5-11.4
		c17.6,0,33.3,3.3,47.2,9.9l-5.1,11.3C1310.4,593.1,1296.6,589.8,1282.1,589.8z"/>
	<path class="st0" d="M1369,761.4h-12.2V569.4h12.2V761.4z"/>
	<path class="st0" d="M1524.1,694.1c0,21.9-5.3,39-15.9,51.3c-10.6,12.3-25.2,18.4-43.9,18.4c-11.8,0-22.1-2.8-31.1-8.5
		c-9-5.7-15.8-13.8-20.6-24.4c-4.8-10.6-7.2-22.9-7.2-36.8c0-21.9,5.3-38.9,15.9-51.1c10.6-12.2,25.2-18.3,43.7-18.3
		c18.4,0,32.9,6.2,43.4,18.6C1518.9,655.6,1524.1,672.6,1524.1,694.1z M1418.3,694.1c0,18.4,4,32.8,12.2,43.1
		c8.1,10.3,19.6,15.5,34.4,15.5c14.8,0,26.3-5.2,34.4-15.5c8.1-10.3,12.2-24.7,12.2-43.1c0-18.5-4.1-32.9-12.3-43
		c-8.2-10.2-19.7-15.3-34.5-15.3c-14.8,0-26.2,5.1-34.2,15.2C1422.3,661.2,1418.3,675.6,1418.3,694.1z"/>
	<path class="st0" d="M1567.5,627.3v86.8c0,13.5,2.8,23.3,8.5,29.4c5.7,6.1,14.5,9.2,26.4,9.2c16,0,27.7-4,35.2-12.1
		c7.5-8.1,11.3-21.2,11.3-39.4v-74h12.1v134.1h-10.4l-2.2-18.5h-0.7c-8.7,14-24.2,21-46.5,21c-30.5,0-45.8-16.3-45.8-49v-87.6
		H1567.5z"/>
	<path class="st0" d="M1750.7,624.7c9.7,0,18.1,1.8,25.2,5.3c7.1,3.5,13.4,9.6,19,18.1h0.7c-0.5-10.4-0.7-20.5-0.7-30.5v-48.2h12.1
		v191.9h-8l-3.1-20.5h-1c-10.2,15.3-24.8,22.9-43.9,22.9c-18.5,0-32.7-5.8-42.4-17.3c-9.8-11.5-14.7-28.3-14.7-50.3
		c0-23.2,4.9-40.9,14.6-53.2C1718.1,630.8,1732.2,624.7,1750.7,624.7z M1750.7,635.8c-14.6,0-25.6,5.1-33,15.4
		c-7.4,10.3-11,25.2-11,44.8c0,38,14.8,57,44.3,57c15.1,0,26.2-4.4,33.3-13.2c7.1-8.8,10.6-23.3,10.6-43.5v-2.1
		c0-20.7-3.5-35.6-10.4-44.7C1777.5,640.3,1766.2,635.8,1750.7,635.8z"/>
	<path class="st0" d="M2026.9,632.8c0,17.4-5.9,30.8-17.8,40.1c-11.8,9.3-28.6,13.9-50.3,13.9h-27.9v74.5h-12.6V581h44.2
		C2005.4,581,2026.9,598.3,2026.9,632.8z M1930.9,676h24.8c20.3,0,35-3.4,44-10.1c9-6.7,13.6-17.6,13.6-32.6
		c0-13.9-4.3-24.2-12.8-30.9c-8.6-6.7-21.8-10-39.7-10h-29.9V676z"/>
	<path class="st0" d="M2068.7,761.4h-12.2V569.4h12.2V761.4z"/>
	<path class="st0" d="M2196.8,761.4l-3.1-21.2h-1c-6.7,8.6-13.7,14.7-20.8,18.3c-7.1,3.6-15.5,5.4-25.2,5.4
		c-13.2,0-23.4-3.4-30.7-10.1c-7.3-6.7-11-16.1-11-28c0-13.1,5.4-23.2,16.3-30.5c10.9-7.2,26.7-11.1,47.3-11.5l25.5-0.7v-8.9
		c0-12.8-2.6-22.4-7.8-28.9c-5.2-6.5-13.5-9.7-25-9.7c-12.4,0-25.3,3.5-38.6,10.4l-4.6-10.6c14.7-6.9,29.3-10.4,43.7-10.4
		c14.7,0,25.7,3.8,33,11.5c7.3,7.7,10.9,19.6,10.9,35.8v89.2H2196.8z M2147.5,752.7c14.3,0,25.6-4.1,33.9-12.3
		c8.3-8.2,12.4-19.5,12.4-34.1v-13.2l-23.4,1c-18.8,0.9-32.3,3.9-40.3,8.8c-8,5-12,12.7-12,23.2c0,8.4,2.6,14.9,7.7,19.6
		C2130.8,750.4,2138.1,752.7,2147.5,752.7z"/>
	<path class="st0" d="M2283,753c7.7,0,14.5-0.7,20.2-2v9.9c-5.9,2-12.8,3-20.5,3c-11.8,0-20.6-3.2-26.2-9.5
		c-5.6-6.3-8.4-16.3-8.4-29.9v-86.6h-19.9v-7.2l19.9-5.6l6.2-30.3h6.3v32.4h39.4v10.6h-39.4v84.9c0,10.3,1.8,17.9,5.4,22.8
		C2269.6,750.5,2275.2,753,2283,753z"/>
	<path class="st0" d="M2380.4,637.9h-31.6v123.5h-12.2V637.9h-24.9v-7.2l24.9-4.6v-10.4c0-16.4,3-28.5,9.1-36.2
		c6-7.7,15.9-11.5,29.7-11.5c7.4,0,14.8,1.1,22.2,3.3l-2.8,10.6c-6.6-2.1-13.1-3.1-19.6-3.1c-9.6,0-16.3,2.8-20.3,8.4
		c-4,5.6-6,14.8-6,27.4v12.5h31.6V637.9z"/>
	<path class="st0" d="M2516,694.1c0,21.9-5.3,39-15.9,51.3c-10.6,12.3-25.2,18.4-43.9,18.4c-11.8,0-22.1-2.8-31.1-8.5
		c-9-5.7-15.8-13.8-20.6-24.4c-4.8-10.6-7.2-22.9-7.2-36.8c0-21.9,5.3-38.9,15.9-51.1c10.6-12.2,25.2-18.3,43.7-18.3
		c18.4,0,32.9,6.2,43.4,18.6C2510.7,655.6,2516,672.6,2516,694.1z M2410.2,694.1c0,18.4,4,32.8,12.2,43.1
		c8.1,10.3,19.6,15.5,34.4,15.5c14.8,0,26.3-5.2,34.4-15.5c8.1-10.3,12.2-24.7,12.2-43.1c0-18.5-4.1-32.9-12.3-43
		c-8.2-10.2-19.7-15.3-34.5-15.3c-14.8,0-26.2,5.1-34.2,15.2C2414.2,661.2,2410.2,675.6,2410.2,694.1z"/>
	<path class="st0" d="M2603.2,624.7c5.7,0,11.8,0.6,18.3,1.7l-2.4,11.7c-5.6-1.4-11.4-2.1-17.4-2.1c-11.4,0-20.8,4.9-28.1,14.6
		c-7.3,9.7-11,22-11,36.8v74h-12.2V627.3h10.4l1.2,24.2h0.9c5.5-9.9,11.4-16.8,17.6-20.8C2586.7,626.7,2594.3,624.7,2603.2,624.7z"
		/>
	<path class="st0" d="M2816.1,761.4v-88c0-13.1-2.5-22.6-7.6-28.6c-5.1-6-12.9-9-23.4-9c-13.7,0-23.9,3.8-30.5,11.3
		c-6.6,7.6-9.9,19.5-9.9,35.7v78.6h-12.5v-91.7c0-22.6-10.4-33.9-31.1-33.9c-14.1,0-24.3,4.1-30.7,12.3c-6.4,8.2-9.6,21.3-9.6,39.3
		v74h-12.2V627.3h10.1l2.6,18.4h0.7c3.7-6.7,9-11.8,15.8-15.5c6.8-3.7,14.3-5.5,22.6-5.5c21.1,0,34.7,7.9,40.7,23.8h0.5
		c4.3-7.6,10.2-13.5,17.6-17.6c7.4-4.1,15.7-6.2,25.1-6.2c14.6,0,25.6,3.9,32.9,11.7c7.3,7.8,11,20.2,11,37.3v87.7H2816.1z"/>
</g>
<g>
	<polygon class="st1" points="303.7,711.3 135.9,420.6 303.7,129.9 639.4,129.9 807.3,420.6 639.4,711.3 	"/>
	<path class="st2" d="M332.2,674.8L183,419.6l-81.8-139.9c-6-10.3-8.4-24.5-7.5-38l-86,148.9c-10.3,17.8-10.3,47,0,64.8l206.8,358.2
		c10.3,17.8,35.5,32.4,56.1,32.4h246.2c9.9-5.8,18.4-13.7,23.4-22.4l84.3-148.9H332.2z"/>
	<polygon class="st3" points="947.2,390.6 740.4,32.4 824.4,177.9 	"/>
	<path class="st3" d="M947.2,390.6L824.4,177.9c-10.6-6.5-22.8-10.7-33.8-10.7H624.2L768.2,421L624.5,674.8l-84.3,148.9
		c-5,8.7-13.6,16.6-23.4,22.4h167.5c20.6,0,45.8-14.6,56.1-32.4l82.3-142.5l124.6-215.8C957.5,437.6,957.5,408.5,947.2,390.6z"/>
	<path class="st4" d="M740.4,32.4C730.1,14.6,704.9,0,684.3,0H521.6h-251c-20.6,0-45.8,14.6-56.1,32.4L93.7,241.7
		c-0.9,13.5,1.5,27.7,7.5,38L183,419.6L329,167.3h295.2h166.5c10.9,0,23.1,4.1,33.8,10.7L740.4,32.4z"/>
	<polygon class="st1" points="183,419.6 332.2,674.8 624.5,674.8 768.2,421 624.2,167.3 329,167.3 	"/>
	<path class="st5" d="M98.9,232.6l-5.3,9.2c-0.9,13.5,1.5,27.7,7.5,38L183,419.6l43.5-75.2L98.9,232.6z"/>
	<path class="st6" d="M830,187.5l-5.5-9.5c-10.6-6.5-22.8-10.7-33.8-10.7H624.3l43.3,76.4L830,187.5z"/>
	<path class="st7" d="M502.8,846.1h14.3c9.9-5.8,18.4-13.7,23.4-22.4l84.3-148.9h-89.7L502.8,846.1z"/>
	<g>
		<path class="st8" d="M477.2,553.3c-72.1,0-130.8-58.7-130.8-130.8c0-72.1,58.7-130.8,130.8-130.8c72.1,0,130.8,58.7,130.8,130.8
			C608,494.6,549.3,553.3,477.2,553.3z"/>
		<path class="st9" d="M477.2,293.5c71.2,0,129,57.7,129,129c0,71.2-57.7,129-129,129c-71.2,0-129-57.7-129-129
			C348.2,351.2,406,293.5,477.2,293.5 M477.2,289.8c-73.2,0-132.7,59.5-132.7,132.7c0,73.2,59.5,132.7,132.7,132.7
			s132.7-59.5,132.7-132.7C609.9,349.3,550.4,289.8,477.2,289.8L477.2,289.8z"/>
	</g>
	<g>
		<path class="st8" d="M281.3,107.5c-13.9,0-25.2-11.3-25.2-25.2c0-13.9,11.3-25.2,25.2-25.2c13.9,0,25.2,11.3,25.2,25.2
			C306.6,96.2,295.2,107.5,281.3,107.5z"/>
		<path class="st10" d="M281.3,58.9c12.9,0,23.4,10.5,23.4,23.4c0,12.9-10.5,23.4-23.4,23.4c-12.9,0-23.4-10.5-23.4-23.4
			C257.9,69.4,268.4,58.9,281.3,58.9 M281.3,55.2c-15,0-27.1,12.2-27.1,27.1c0,15,12.2,27.1,27.1,27.1c15,0,27.1-12.2,27.1-27.1
			C308.4,67.4,296.3,55.2,281.3,55.2L281.3,55.2z"/>
	</g>
	<circle class="st11" cx="671.6" cy="82.3" r="23.4"/>
	<g>
		<path class="st8" d="M281.3,784.2c-13.9,0-25.2-11.3-25.2-25.2c0-13.9,11.3-25.2,25.2-25.2c13.9,0,25.2,11.3,25.2,25.2
			C306.6,772.8,295.2,784.2,281.3,784.2z"/>
		<path class="st12" d="M281.3,735.6c12.9,0,23.4,10.5,23.4,23.4c0,12.9-10.5,23.4-23.4,23.4c-12.9,0-23.4-10.5-23.4-23.4
			C257.9,746,268.4,735.6,281.3,735.6 M281.3,731.8c-15,0-27.1,12.2-27.1,27.1c0,15,12.2,27.1,27.1,27.1c15,0,27.1-12.2,27.1-27.1
			C308.4,744,296.3,731.8,281.3,731.8L281.3,731.8z"/>
	</g>
	<g>
		<path class="st8" d="M671.6,784.2c-13.9,0-25.2-11.3-25.2-25.2c0-13.9,11.3-25.2,25.2-25.2c13.9,0,25.2,11.3,25.2,25.2
			C696.8,772.8,685.5,784.2,671.6,784.2z"/>
		<path class="st13" d="M671.6,735.6c12.9,0,23.4,10.5,23.4,23.4c0,12.9-10.5,23.4-23.4,23.4c-12.9,0-23.4-10.5-23.4-23.4
			C648.2,746,658.7,735.6,671.6,735.6 M671.6,731.8c-15,0-27.1,12.2-27.1,27.1c0,15,12.2,27.1,27.1,27.1c15,0,27.1-12.2,27.1-27.1
			C698.7,744,686.5,731.8,671.6,731.8L671.6,731.8z"/>
	</g>
	<g>
		<path class="st8" d="M868,447.7c-13.9,0-25.2-11.3-25.2-25.3c0-13.9,11.3-25.2,25.2-25.2c13.9,0,25.2,11.3,25.2,25.2
			C893.3,436.4,882,447.7,868,447.7z"/>
		<path class="st13" d="M868,399.1c12.9,0,23.4,10.5,23.4,23.4c0,12.9-10.5,23.4-23.4,23.4c-12.9,0-23.4-10.5-23.4-23.4
			C844.7,409.6,855.1,399.1,868,399.1 M868,395.4c-15,0-27.1,12.2-27.1,27.1c0,15,12.2,27.1,27.1,27.1c14.9,0,27.1-12.2,27.1-27.1
			C895.2,407.5,883,395.4,868,395.4L868,395.4z"/>
	</g>
	<g>
		<path class="st8" d="M84.5,447.7c-13.9,0-25.2-11.3-25.2-25.3c0-13.9,11.3-25.2,25.2-25.2c13.9,0,25.2,11.3,25.2,25.2
			C109.7,436.4,98.4,447.7,84.5,447.7z"/>
		<path class="st12" d="M84.5,399.1c12.9,0,23.4,10.5,23.4,23.4c0,12.9-10.5,23.4-23.4,23.4c-12.9,0-23.4-10.5-23.4-23.4
			C61.1,409.6,71.6,399.1,84.5,399.1 M84.5,395.4c-15,0-27.1,12.2-27.1,27.1c0,15,12.2,27.1,27.1,27.1c15,0,27.1-12.2,27.1-27.1
			C111.6,407.5,99.5,395.4,84.5,395.4L84.5,395.4z"/>
	</g>
</g>
</svg>
