<?xml version="1.0" encoding="UTF-8" standalone="no"?>
<!-- Created with Inkscape (http://www.inkscape.org/) -->

<svg
   xmlns:dc="http://purl.org/dc/elements/1.1/"
   xmlns:cc="http://creativecommons.org/ns#"
   xmlns:rdf="http://www.w3.org/1999/02/22-rdf-syntax-ns#"
   xmlns:svg="http://www.w3.org/2000/svg"
   xmlns="http://www.w3.org/2000/svg"
   xmlns:sodipodi="http://sodipodi.sourceforge.net/DTD/sodipodi-0.dtd"
   xmlns:inkscape="http://www.inkscape.org/namespaces/inkscape"
   version="1.0"
   width="608.25006"
   height="378.48752"
   viewBox="0 0 17166.168 10681.759"
   id="svg2"
   style="fill-rule:evenodd"
   sodipodi:docname="hewlett-packard.svg"
   inkscape:version="0.92.3 (2405546, 2018-03-11)">
  <metadata
     id="metadata95">
    <rdf:RDF>
      <cc:Work
         rdf:about="">
        <dc:format>image/svg+xml</dc:format>
        <dc:type
           rdf:resource="http://purl.org/dc/dcmitype/StillImage" />
        <dc:title></dc:title>
      </cc:Work>
    </rdf:RDF>
  </metadata>
  <sodipodi:namedview
     pagecolor="#ffffff"
     bordercolor="#666666"
     borderopacity="1"
     objecttolerance="10"
     gridtolerance="10"
     guidetolerance="10"
     inkscape:pageopacity="0"
     inkscape:pageshadow="2"
     inkscape:window-width="2560"
     inkscape:window-height="1514"
     id="namedview93"
     showgrid="false"
     fit-margin-top="0"
     fit-margin-left="0"
     fit-margin-right="0"
     fit-margin-bottom="0"
     inkscape:zoom="0.53155981"
     inkscape:cx="321.95647"
     inkscape:cy="137.46636"
     inkscape:window-x="0"
     inkscape:window-y="28"
     inkscape:window-maximized="1"
     inkscape:current-layer="svg2" />
  <defs
     id="defs887">
    <desc
       id="desc5">Master slide</desc>
    <desc
       id="desc8">Slide</desc>
    <desc
       id="desc12">Group</desc>
    <desc
       id="desc16">Group</desc>
    <desc
       id="desc20">Group</desc>
    <desc
       id="desc24">Drawing</desc>
    <desc
       id="desc36">Drawing</desc>
    <desc
       id="desc48">Drawing</desc>
    <desc
       id="desc60">Drawing</desc>
    <desc
       id="desc72">Drawing</desc>
    <desc
       id="desc84">Drawing</desc>
    <desc
       id="desc96">Drawing</desc>
    <desc
       id="desc108">Drawing</desc>
    <desc
       id="desc120">Drawing</desc>
    <desc
       id="desc132">Drawing</desc>
    <desc
       id="desc144">Drawing</desc>
    <desc
       id="desc156">Drawing</desc>
    <desc
       id="desc168">Drawing</desc>
    <desc
       id="desc180">Drawing</desc>
    <desc
       id="desc192">Drawing</desc>
    <desc
       id="desc204">Drawing</desc>
    <desc
       id="desc216">Drawing</desc>
    <desc
       id="desc228">Drawing</desc>
    <desc
       id="desc240">Drawing</desc>
    <desc
       id="desc252">Drawing</desc>
    <desc
       id="desc264">Drawing</desc>
    <desc
       id="desc276">Drawing</desc>
    <desc
       id="desc288">Drawing</desc>
    <desc
       id="desc300">Drawing</desc>
    <desc
       id="desc312">Drawing</desc>
    <desc
       id="desc324">Drawing</desc>
    <desc
       id="desc336">Drawing</desc>
    <desc
       id="desc348">Drawing</desc>
    <desc
       id="desc360">Drawing</desc>
    <desc
       id="desc372">Drawing</desc>
    <desc
       id="desc384">Drawing</desc>
    <desc
       id="desc396">Drawing</desc>
    <desc
       id="desc408">Drawing</desc>
    <desc
       id="desc420">Drawing</desc>
    <desc
       id="desc432">Drawing</desc>
    <desc
       id="desc444">Drawing</desc>
    <desc
       id="desc456">Drawing</desc>
    <desc
       id="desc468">Drawing</desc>
    <desc
       id="desc480">Drawing</desc>
    <desc
       id="desc492">Drawing</desc>
    <desc
       id="desc504">Drawing</desc>
    <desc
       id="desc516">Drawing</desc>
    <desc
       id="desc528">Drawing</desc>
    <desc
       id="desc540">Drawing</desc>
    <desc
       id="desc552">Drawing</desc>
    <desc
       id="desc564">Drawing</desc>
    <desc
       id="desc576">Drawing</desc>
    <desc
       id="desc588">Drawing</desc>
    <desc
       id="desc600">Drawing</desc>
    <desc
       id="desc612">Drawing</desc>
    <desc
       id="desc624">Drawing</desc>
    <desc
       id="desc636">Drawing</desc>
    <desc
       id="desc648">Drawing</desc>
    <desc
       id="desc660">Drawing</desc>
    <desc
       id="desc672">Drawing</desc>
    <desc
       id="desc684">Drawing</desc>
    <desc
       id="desc696">Drawing</desc>
    <desc
       id="desc708">Drawing</desc>
    <desc
       id="desc720">Drawing</desc>
    <desc
       id="desc732">Drawing</desc>
    <desc
       id="desc744">Drawing</desc>
    <desc
       id="desc756">Drawing</desc>
    <desc
       id="desc768">Drawing</desc>
    <desc
       id="desc780">Drawing</desc>
    <desc
       id="desc792">Drawing</desc>
    <desc
       id="desc804">Drawing</desc>
    <desc
       id="desc816">Drawing</desc>
    <desc
       id="desc828">Drawing</desc>
    <desc
       id="desc840">Drawing</desc>
    <desc
       id="desc852">Drawing</desc>
    <desc
       id="desc864">Drawing</desc>
    <desc
       id="desc876">Drawing</desc>
    <filter
       id="filter6108">
      <feGaussianBlur
         id="feGaussianBlur6110"
         stdDeviation="148.21736"
         inkscape:collect="always" />
    </filter>
  </defs>
  <path
     d="m 2354.7917,890.14655 -94.3681,4.40972 -90.8403,14.11112 -88.1944,24.69444 -84.6667,31.75 -81.1389,40.56947 -75.8472,47.625 -71.4375,54.6805 -66.1458,61.7361 -59.9722,67.9098 -52.9167,73.2013 -46.7431,79.375 -38.8055,82.9028 -30.8681,88.1945 -22.9305,90.8403 -14.1111,95.25 -5.2917,96.1319 v 6975.2986 l 5.2917,98.7778 14.1111,97.0139 22.9305,93.4861 30.8681,89.0764 38.8055,84.6666 46.7431,80.257 52.9167,74.9653 59.9722,69.6736 66.1458,62.618 71.4375,55.5625 75.8472,49.3889 81.1389,40.5695 84.6667,33.5138 88.1944,23.8125 90.8403,14.9931 94.3681,4.4097 h 4579.0558 l 278.694,-724.0764 -301.625,-84.6666 -291.0415,-111.125 -279.5764,-136.7014 -264.5834,-160.5139 -251.3541,-183.4444 -234.5972,-205.4931 -217.8403,-224.8958 -200.2014,-243.4167 -180.7986,-261.0556 -160.5139,-278.6944 -138.4653,-292.8055 -117.2986,-306.0348 -91.7222,-318.3819 -68.7917,-331.6111 -40.5694,-339.5486 -14.1111,-348.3681 12.3472,-324.5555 37.0417,-317.5 59.0902,-308.6806 80.257,-299.8611 102.3055,-290.1597 122.5903,-277.8125 141.1111,-265.4653 160.5139,-251.3541 175.507,-238.125 193.1458,-221.3681 208.1389,-204.6111 222.25,-186.9722 234.5972,-167.5695 247.8264,-148.1666 259.2916,-127.0001 268.9931,-103.1875 238.1252,-618.24305 z m 5266.0898,0 -2186.3399,6132.15975 h 951.6181 l 1045.1038,-2921 h 486.834 l -1033.6392,2921 h 942.7982 l 944.563,-2664.3542 23.812,-75.8472 15.875,-74.0833 7.938,-73.2014 v -69.6736 l -7.056,-67.0278 -14.993,-64.3819 -22.93,-59.9723 -29.986,-55.5625 -37.042,-51.1527 -44.097,-45.8611 -51.153,-40.5695 -59.09,-32.6319 -64.382,-28.2223 -71.438,-18.5208 -77.611,-13.2292 -85.548,-4.4097 h -644.702 l 962.202,-2693.45835 z m 1479.021,0 -199.319,618.24305 27.34,-4.4097 26.458,-1.7639 56.445,-4.4097 107.597,-0.882 370.417,20.2847 358.069,57.3265 346.6035,94.368 330.729,127.882 316.62,161.3958 296.333,190.5 278.694,220.4861 255.764,246.9445 232.834,270.7569 207.256,295.4514 179.917,314.8542 151.695,333.375 120.826,352.7777 89.076,366.007 54.681,381 18.521,390.7014 -18.521,389.8194 -54.681,379.2361 -89.076,366.007 -120.826,351.0138 -151.695,335.1389 -179.917,314.8542 -207.256,294.5694 -232.834,272.5209 -255.764,246.9444 -278.694,220.4861 -296.333,192.2639 -316.62,161.3958 -330.729,128.7639 -346.6035,95.25 -358.069,57.3264 -370.417,20.2847 -217.84,644.7014 h 5909.9095 l 94.369,-4.4097 91.722,-14.9931 88.194,-23.8125 84.667,-33.5138 81.139,-40.5695 75.847,-49.3889 72.319,-55.5625 64.382,-62.618 59.973,-69.6736 54.68,-74.9653 45.861,-80.257 38.806,-84.6666 30.868,-89.0764 22.93,-93.4861 14.112,-97.0139 5.291,-98.7778 V 1843.5285 l -5.291,-96.1319 -14.112,-95.25 -22.93,-90.8403 -30.868,-88.1945 -38.806,-82.9028 -45.861,-79.375 -54.68,-73.2013 -59.973,-67.9098 -64.382,-61.7361 -72.319,-54.6805 -75.847,-47.625 -81.139,-40.56947 -84.667,-31.75 -88.194,-24.69444 -91.722,-14.11112 -94.369,-4.40972 z m 524.757,2682.87505 -2211.916,6218.5902 h 951.618 l 942.798,-2652.8888 h 966.6105 l 79.375,-3.5278 42.334,-4.4097 42.333,-7.9375 41.451,-9.7014 42.334,-12.3473 40.569,-15.875 41.451,-20.2847 38.806,-22.9305 37.924,-27.3403 36.159,-31.75 34.397,-35.2778 30.868,-41.4514 29.104,-45.8611 25.577,-52.0347 22.048,-57.3264 872.243,-2461.5069 26.459,-89.9584 14.993,-82.9027 2.646,-78.4931 -7.938,-70.5555 -18.521,-64.382 -26.458,-59.0903 -35.278,-52.9166 -41.451,-45.8611 -47.625,-41.4514 -52.035,-34.3959 -56.444,-29.9861 -58.209,-23.8125 -61.736,-19.4028 -60.854,-13.2291 -61.736,-7.0556 -59.972,-2.6458 z m 765.5275,516.8194 h 487.716 l -902.2295,2543.5278 h -486.833 z"
     id="path5324"
     style="visibility:visible;fill:#9c9c9c;fill-opacity:1;filter:url(#filter6108)"
     inkscape:connector-curvature="0" />
  <path
     d="m 2150.605,655.33321 -94.3681,4.40972 -90.8403,14.11111 -88.1944,24.69445 -84.6667,31.75 -81.1389,40.56944 -75.8472,47.625 -71.4375,54.68056 -66.1458,61.73611 -59.9722,67.9097 -52.9167,73.2014 -46.7431,79.375 -38.8055,82.9028 -30.8681,88.1944 -22.9305,90.8403 -14.1111,95.25 -5.2917,96.1319 v 6975.2986 l 5.2917,98.7778 14.1111,97.0139 22.9305,93.4861 30.8681,89.0764 38.8055,84.6666 46.7431,80.257 52.9167,74.9653 59.9722,69.6736 66.1458,62.618 71.4375,55.5625 75.8472,49.3889 81.1389,40.5695 84.6667,33.5138 88.1944,23.8125 90.8403,14.9931 94.3681,4.4097 h 4579.0555 l 278.6944,-724.0764 -301.625,-84.6666 -291.0416,-111.125 -279.5764,-136.7014 -264.5834,-160.5139 -251.3541,-183.4444 -234.5972,-205.4931 -217.8403,-224.8958 -200.2014,-243.4167 -180.7986,-261.0556 -160.5139,-278.6944 -138.4653,-292.8055 -117.2986,-306.0348 -91.7222,-318.3819 -68.7917,-331.6111 -40.5694,-339.5486 -14.1111,-348.3681 12.3472,-324.5555 37.0417,-317.5 59.0902,-308.6806 80.257,-299.8611 102.3055,-290.1597 122.5903,-277.8125 141.1111,-265.4653 160.5139,-251.3542 175.5069,-238.1249 193.1459,-221.3681 208.1389,-204.6111 222.25,-186.9722 234.5972,-167.5695 247.8264,-148.1666 259.2916,-127 268.9931,-103.1875 238.125,-618.24309 z m 5266.0902,0 -2186.3403,6132.15969 h 951.6181 l 1045.1041,-2921 h 486.8334 l -1033.6389,2921 h 942.7986 l 944.5625,-2664.3542 23.8125,-75.8472 15.875,-74.0833 7.9375,-73.2014 v -69.6736 l -7.0556,-67.0278 -14.993,-64.3819 -22.9306,-59.9723 -29.9861,-55.5625 -37.0417,-51.1527 -44.0972,-45.8611 -51.1528,-40.5695 -59.0902,-32.6319 -64.382,-28.2223 -71.4375,-18.5208 -77.6111,-13.2292 -85.5486,-4.4097 H 7405.2299 L 8367.4313,655.33321 Z m 1479.0208,0 -199.3194,618.24309 27.3402,-4.4098 26.4584,-1.7639 56.4444,-4.4097 107.5972,-0.8819 370.4167,20.2847 358.0695,57.3264 346.6041,94.368 330.7289,127.882 316.618,161.3958 296.334,190.5 278.694,220.4861 255.764,246.9445 232.833,270.7569 207.257,295.4514 179.917,314.8542 151.694,333.375 120.827,352.7777 89.076,366.007 54.681,381 18.521,390.7014 -18.521,389.8194 -54.681,379.2361 -89.076,366.007 -120.827,351.0138 -151.694,335.1389 -179.917,314.8542 -207.257,294.5694 -232.833,272.5209 -255.764,246.9444 -278.694,220.4861 -296.334,192.2639 -316.618,161.3958 -330.7289,128.7639 -346.6041,95.25 -358.0695,57.3264 -370.4167,20.2847 -217.8402,644.7014 h 5909.9094 l 94.368,-4.4097 91.723,-14.9931 88.194,-23.8125 84.667,-33.5138 81.139,-40.5695 75.847,-49.3889 72.319,-55.5625 64.382,-62.618 59.972,-69.6736 54.681,-74.9653 45.861,-80.257 38.806,-84.6666 30.868,-89.0764 22.93,-93.4861 14.111,-97.0139 5.292,-98.7778 V 1608.7151 l -5.292,-96.1319 -14.111,-95.25 -22.93,-90.8403 -30.868,-88.1944 -38.806,-82.9028 -45.861,-79.375 -54.681,-73.2014 -59.972,-67.9097 -64.382,-61.73611 -72.319,-54.68056 -75.847,-47.625 -81.139,-40.56944 -84.667,-31.75 -88.194,-24.69445 -91.723,-14.11111 -94.368,-4.40972 z M 9420.473,3338.2082 7208.5563,9556.7984 h 951.6181 L 9102.973,6903.9095 h 966.611 l 79.375,-3.5277 42.333,-4.4098 42.334,-7.9375 41.451,-9.7013 42.333,-12.3473 40.57,-15.875 41.451,-20.2847 38.806,-22.9305 37.923,-27.3403 36.16,-31.75 34.396,-35.2778 30.868,-41.4514 29.104,-45.8611 25.577,-52.0347 22.048,-57.3264 872.243,-2461.5069 26.459,-89.9584 14.993,-82.9027 2.644,-78.4931 -7.937,-70.5555 -18.521,-64.382 -26.459,-59.0903 -35.277,-52.9166 -41.452,-45.8611 -47.625,-41.4514 -52.034,-34.3959 -56.445,-29.9861 -58.208,-23.8125 -61.736,-19.4028 -60.853,-13.2291 -61.736,-7.0556 -59.972,-2.6458 z m 765.528,516.8194 h 487.715 l -902.2292,2543.5278 h -486.8333 z"
     id="path762"
     style="visibility:visible;fill:#5580bf;stroke-width:28.22222137"
     inkscape:connector-curvature="0" />
</svg>
