<svg xmlns="http://www.w3.org/2000/svg" viewBox="0 0 181 50.4"><path fill="#231F20" d="M95.617 40.194h.982v9.58h-.931l-5.91-8.133v8.132h-.981v-9.58h1.111l5.73 7.9v-7.9zm4.447 5.094h5.185v-.957h-5.185v-3.168h5.314v-.97h-6.335v9.58h6.387v-.93h-5.366v-3.555zm6.853-4.125h3.594v8.611h1.021v-8.61h3.595v-.97h-8.21v.97zm19.03 6.956l-2.56-7.925h-.88l-2.572 7.924-2.52-7.924h-1.048l3.09 9.644h.891l2.574-7.977 2.586 7.977h.878l3.079-9.644h-.984l-2.534 7.924zm14.08-3.142c0 3.427-1.76 4.953-4.836 4.953-3.064 0-4.809-1.526-4.809-4.953 0-3.412 1.745-4.938 4.81-4.938 3.076 0 4.835 1.526 4.835 4.938zm-1.021.013c0-2.585-1.203-3.981-3.815-3.981-2.599 0-3.787 1.396-3.787 3.98 0 2.6 1.188 3.997 3.787 3.997 2.612 0 3.815-1.397 3.815-3.996zm8.015.84l2.314 3.944h-1.086l-2.274-3.905h-2.87v3.905h-.997v-9.58h4.138c2.224 0 3.232.892 3.232 2.793 0 1.654-.79 2.623-2.457 2.844zm1.435-2.817c0-1.488-.814-1.875-2.236-1.875h-3.116v3.8h3.154c1.357 0 2.198-.412 2.198-1.925zm10.213-2.82h-1.176l-4.848 5.288v-5.288h-.996v9.581h.996v-2.986l1.914-2.095 3.426 5.081h1.15l-3.903-5.819 3.437-3.762zm5.51 4.15c-1.708-.31-2.704-.542-2.704-1.758 0-1.137.738-1.616 2.456-1.616 1.086 0 2.109.298 2.793.75l.544-.827c-.763-.517-1.835-.855-3.337-.855-2.274 0-3.464.725-3.464 2.574 0 1.939 1.396 2.289 3.464 2.651 1.721.31 2.858.503 2.858 1.86 0 1.32-.878 1.876-2.858 1.876-1.15 0-2.274-.246-3.425-.97l-.517.776c1.215.802 2.522 1.099 3.969 1.099 2.611 0 3.827-.918 3.827-2.819 0-2.055-1.513-2.365-3.607-2.74zM177.8.598c1.16 0 2.218.048 3.199.134v3.026a27.562 27.562 0 0 0-3.199-.174c-11.118 0-10.865 5.146-10.865 11.562v20.899h-3.175v-20.9c0-8.513.571-14.547 14.04-14.547zM45.935 22.196c0 6.417.254 11.561-10.862 11.561-11.182 0-11.119-5.144-11.119-11.243V1.296h-3.24v21.155c0 8.26.827 14.293 14.359 14.293 13.467 0 14.039-6.034 14.039-14.548v-20.9h-3.177v20.9zM68.525.6c-13.467 0-14.04 6.034-14.04 14.547v20.9h3.177v-20.9c0-6.416-.255-11.562 10.864-11.562 11.18 0 11.116 5.146 11.116 11.243v21.218h3.24V14.891c0-8.258-.824-14.292-14.356-14.292zm23.362.762h-3.11v34.685h3.11V1.361zm8.933 34.684h-3.11V1.36h16.238c8.052 0 11.704 4.003 11.704 11.117 0 7.162-3.605 11.516-11.748 11.516H100.82v12.05zm0-15.17h13.175c5.61 0 8.399-2.734 8.399-8.258 0-5.521-3.01-8.143-8.538-8.143H100.82v16.4zm58.372-1.728h-26.808c.064 8.45 2.158 14.74 13.15 14.74 5.844 0 8.512-1.589 11.371-3.685l1.777 2.349c-3.175 2.352-6.922 4.194-13.148 4.194-13.721 0-16.264-7.942-16.264-18.168C129.27 8.349 132.193.47 145.28.47c13.53 0 13.975 9.084 13.911 18.677zm-3.113-2.922c-.317-6.925-.763-12.832-10.864-12.832-9.719 0-12.387 5.274-12.767 12.832h23.631zm-144.008 12.8c0 6.414.254 11.562-10.863 11.562-.42 0-.819-.01-1.208-.026v2.996c.39.01.792.015 1.208.015 13.467 0 14.04-6.035 14.04-14.548V1.296h-3.177v27.728zm164.01 4.978a2.194 2.194 0 0 1-4.385 0 2.194 2.194 0 0 1 4.386 0zm-.283 0a1.912 1.912 0 0 0-1.908-1.909c-1.053 0-1.91.857-1.91 1.91 0 1.052.857 1.909 1.91 1.909a1.912 1.912 0 0 0 1.908-1.91zm-1.409.27l.57.992h-.365l-.563-.97h-.702v.97h-.336v-2.52h1.12c.639 0 .885.262.885.76 0 .405-.173.686-.609.768zm.262-.759c0-.364-.191-.448-.551-.448h-.771v.915h.78c.345 0 .542-.1.542-.467z"/></svg>