<?xml version="1.0" encoding="UTF-8" standalone="no"?>
<!-- Created with Inkscape (http://www.inkscape.org/) -->

<svg
   xmlns:dc="http://purl.org/dc/elements/1.1/"
   xmlns:cc="http://creativecommons.org/ns#"
   xmlns:rdf="http://www.w3.org/1999/02/22-rdf-syntax-ns#"
   xmlns:svg="http://www.w3.org/2000/svg"
   xmlns="http://www.w3.org/2000/svg"
   xmlns:sodipodi="http://sodipodi.sourceforge.net/DTD/sodipodi-0.dtd"
   xmlns:inkscape="http://www.inkscape.org/namespaces/inkscape"
   version="1.0"
   width="1133.8583"
   height="226.41731"
   id="svg10140"
   sodipodi:docname="lenovo.svg"
   inkscape:version="0.92.3 (2405546, 2018-03-11)">
  <metadata
     id="metadata16">
    <rdf:RDF>
      <cc:Work
         rdf:about="">
        <dc:format>image/svg+xml</dc:format>
        <dc:type
           rdf:resource="http://purl.org/dc/dcmitype/StillImage" />
        <dc:title></dc:title>
      </cc:Work>
    </rdf:RDF>
  </metadata>
  <sodipodi:namedview
     pagecolor="#ffffff"
     bordercolor="#666666"
     borderopacity="1"
     objecttolerance="10"
     gridtolerance="10"
     guidetolerance="10"
     inkscape:pageopacity="0"
     inkscape:pageshadow="2"
     inkscape:window-width="1532"
     inkscape:window-height="1068"
     id="namedview14"
     showgrid="false"
     inkscape:zoom="0.49266682"
     inkscape:cx="966.99169"
     inkscape:cy="-23.507787"
     inkscape:window-x="0"
     inkscape:window-y="28"
     inkscape:window-maximized="0"
     inkscape:current-layer="svg10140" />
  <defs
     id="defs10142" />
  <path
     d="m 995.95727,138.06554 c 4.83473,-15.64252 4.83473,-24.86503 0.20319,-30.8785 -3.45357,-4.14438 -8.4918,-6.21601 -16.12998,-6.21601 -17.02365,0 -26.45,9.66959 -34.0478,33.88499 -4.87541,15.88609 -4.87541,25.10876 -0.24357,31.08153 3.20969,3.94087 8.53235,6.01298 16.12998,6.01298 16.77993,0 26.49055,-9.46624 34.08818,-33.88499 z m 66.55113,-35.02288 c 6.6631,8.32915 8.0851,18.89322 4.1443,31.81336 -11.0512,35.71337 -52.7372,56.19028 -114.49422,56.19028 -36.85111,0 -61.91932,-7.15055 -73.0114,-20.96469 -6.66342,-8.28829 -7.80115,-19.09577 -3.90033,-32.01607 11.05121,-35.71321 52.73719,-56.190606 114.49402,-56.190606 36.60723,0 61.96003,7.353908 72.76763,21.167726"
     id="path151701"
     style="fill:#005e9d;fill-rule:nonzero;stroke:none;stroke-width:1.61517847"
     inkscape:connector-curvature="0" />
  <path
     d="m 832.1793,85.328186 c 2.07228,0 58.95337,0 65.41344,0 -3.94071,5.282118 -75.08335,100.883404 -76.26146,102.508914 -2.07211,0 -97.18594,0 -100.39578,0 -0.48762,-3.00665 -12.47338,-98.811286 -12.9203,-102.508914 3.90034,0 58.50661,0 61.51327,0 0.44692,3.006655 8.9791,71.873994 8.9791,71.873994 0,0 52.73719,-70.492209 53.67173,-71.873994"
     id="path151703"
     style="fill:#005e9d;fill-rule:nonzero;stroke:none;stroke-width:1.61517847"
     inkscape:connector-curvature="0" />
  <path
     d="m 629.23439,138.06554 c 4.83503,-15.64252 5.07876,-24.86503 0.24405,-30.8785 -3.25038,-4.14438 -8.53234,-6.21601 -15.88641,-6.21601 -17.0642,0 -26.73411,9.66959 -34.08834,33.88499 -5.07845,15.88609 -5.07845,25.10876 -0.24357,31.08153 3.20968,3.94087 8.53218,6.01298 15.88609,6.01298 17.06452,0 26.73459,-9.46624 34.08818,-33.88499 z m 66.79522,-35.02288 c 6.70364,8.32915 8.08542,18.89322 3.94104,31.81336 -11.05122,35.71337 -52.77774,56.19028 -114.25046,56.19028 -36.85079,0 -61.95987,-7.15055 -73.05227,-20.96469 -6.66309,-8.28829 -8.04455,-19.09577 -4.14374,-32.01607 11.29479,-35.71321 52.98093,-56.190606 114.49403,-56.190606 36.85095,0 61.96003,7.353908 73.0114,21.167726"
     id="path151705"
     style="fill:#005e9d;fill-rule:nonzero;stroke:none;stroke-width:1.61517847"
     inkscape:connector-curvature="0" />
  <path
     d="m 503.48547,98.006207 c 2.51904,3.209683 3.90034,6.419363 3.20969,11.051213 l -25.556,78.98384 h -67.72961 l 23.97167,-73.70205 c 0.89384,-3.20984 -0.24389,-5.9726 -2.07211,-8.04471 -3.25038,-3.94104 -10.15737,-6.459911 -33.88515,-4.83488 0,0 -28.07503,85.44391 -28.56249,86.58164 h -67.68891 c 0.64995,-1.82838 31.77218,-96.942203 32.21926,-97.876745 23.52459,-4.144225 54.60612,-8.044558 86.86592,-8.044558 43.75809,0 70.45182,5.281795 79.22773,15.88625"
     id="path151713"
     style="fill:#005e9d;fill-opacity:1;stroke-width:1.61517847"
     inkscape:connector-curvature="0" />
  <path
     d="m 256.3357,119.66171 c 1.38147,-6.46023 -0.69065,-11.2951 -3.00649,-14.05787 -2.51903,-3.25038 -8.08542,-7.394605 -19.58355,-7.394605 -16.33301,0 -28.5625,7.841695 -32.70672,20.964855 l -8.04472,30.18785 z m 56.88142,-0.24389 c 0,4.83488 -1.13757,8.9791 -2.07211,10.80764 -2.07211,0.48747 -120.2229,26.73412 -120.2229,26.73412 0,0 -1.17828,5.76941 3.20984,8.77591 5.76926,4.14438 11.98559,5.28195 22.54935,5.72903 26.04346,1.13757 61.31007,-14.05786 71.18301,-18.40528 -1.58465,5.03807 -11.74202,27.1812 -12.18894,28.31877 -4.38796,1.62519 -28.80639,9.42618 -76.70854,9.66975 -18.2021,0.24389 -50.66525,-2.07212 -64.0323,-18.89258 -6.66326,-8.28845 -7.84153,-20.03048 -3.25039,-34.77884 10.84819,-35.22607 51.39627,-55.500275 110.79689,-55.500275 33.19434,0 54.84984,6.216337 64.76365,18.405285 3.90033,5.07876 5.97244,11.53883 5.97244,19.13647"
     id="path151715"
     style="fill:#005e9d;fill-opacity:1;stroke-width:1.61517847"
     inkscape:connector-curvature="0" />
  <path
     d="m 82.644739,35.354079 c 2.762439,0 62.407271,0 67.038791,0 -1.3813,4.347253 -46.52069,149.923131 -47.25205,152.483021 -2.763083,0 -62.407426,0 -66.998409,0 C 36.81421,183.44899 81.953927,37.87295 82.644739,35.354079"
     id="path151717"
     style="fill:#005e9d;fill-rule:nonzero;stroke:none;stroke-width:1.61517847"
     inkscape:connector-curvature="0" />
</svg>
