<?xml version="1.0" encoding="utf-8"?>
<!-- Generator: Adobe Illustrator 19.2.1, SVG Export Plug-In . SVG Version: 6.00 Build 0)  -->
<svg version="1.1" id="Layer_1" xmlns="http://www.w3.org/2000/svg" xmlns:xlink="http://www.w3.org/1999/xlink" x="0px" y="0px"
	 viewBox="0 0 403.28168 105.46507" style="enable-background:new 0 0 403.28168 105.46507;" xml:space="preserve">
<style type="text/css">
	.st0{fill:#07BFF2;}
	.st1{fill:#01BDF1;}
</style>
<g>
	<g>
		<g>
			<path class="st0" d="M126.18146,88.54282c-1.44402,0.3852-2.88599,0.57047-4.38592,0.55511l-0.03002-0.00031
				c-13.31911-0.15639-26.65837-0.29296-39.9977-0.42954l-9.58946-0.09818l0.05058-4.93974l48.8274,0.49993
				c7.09966,0.07269,12.9025-5.05817,13.5328-11.92207c0.60896-6.73411-4.08917-12.80249-10.95643-14.08288
				c-1.40733-0.26442-2.86841-0.16939-4.10976-0.04208c-0.99107,0.09984-1.71198,0.1825-2.21566-0.43274
				c-0.51375-0.61528-0.32649-1.32336-0.04655-2.29057c1.34957-4.83641,1.84553-9.32156,1.5107-13.73525
				c-0.89407-11.32976-5.73859-20.67983-14.40636-27.77896c-7.3092-5.97511-15.89926-8.94322-25.54153-8.77191
				c-15.54377,0.29083-29.75638,10.23586-35.40526,24.7488c-1.29404,3.31694-1.87693,3.60097-5.21666,2.57673
				c-7.3478-2.20535-15.2912-0.93663-21.80659,3.46692C9.87955,40.26957,5.76853,47.18786,5.11012,54.8415
				c-0.60967,6.80411,1.16795,12.90265,5.24501,18.09462c1.28344,1.62328,1.26685,3.24318,1.23102,4.79288l-0.01085,1.05994
				l0.06355,2.5808l-1.9322-1.74992c-2.33846-2.11402-4.22377-4.53347-5.81439-7.4099
				C-0.93835,63.45-1.28385,53.24592,2.91878,44.21853C7.15154,35.18137,15.20643,28.8835,25.0466,26.96419
				c4.72986-0.94168,9.32822-0.75457,13.71557,0.50043c0.1398,0.02139,0.2095,0.05214,0.26929,0.07277
				c0.00051-0.05005,0.05111-0.10953,0.09232-0.22911C45.06542,13.50841,55.37546,4.76353,69.812,1.27113
				c11.88967-2.83844,23.17064-0.92286,33.50295,5.74333c11.78309,7.57098,18.63023,18.63166,20.32452,32.86978
				c0.49701,4.20532,0.25155,8.64304-0.7354,13.22314c8.84378,0.65057,15.82397,7.50243,16.63335,16.36115
				C140.31993,78.01698,134.5759,86.19865,126.18146,88.54282z"/>
		</g>
		<path class="st1" d="M51.36592,80.10652c-4.05105-0.0415-8.10211-0.10565-12.15316-0.10593
			c-0.84271-0.00006-1.14696-0.16605-1.12999-1.09647c0.10611-5.82008,0.1544-11.64137,0.18737-17.46246
			c0.0041-0.72297,0.1833-1.01949,0.9518-1.11352c7.99253-0.97802,15.98023-1.99556,23.96913-3.00317
			c1.62323-0.20473,1.62364-0.20672,1.60743,1.38358c-0.06818,6.6862-0.17623,13.37243-0.1709,20.05857
			c0.00102,1.28725-0.40693,1.51929-1.58125,1.48583C59.15465,80.14207,55.25966,80.1464,51.36592,80.10652z"/>
		<path class="st1" d="M51.29483,82.43073c4.09485,0.04195,8.18966,0.1022,12.28457,0.10935
			c0.76089,0.00134,0.99377,0.20245,0.98241,0.98682c-0.10157,7.00806-0.17195,14.01666-0.21722,21.02532
			c-0.00508,0.78643-0.20433,1.006-1.0038,0.87933c-8.11596-1.286-16.23569-2.54845-24.35815-3.79275
			c-0.8358-0.12804-1.13817-0.42659-1.12071-1.33775c0.10786-5.62946,0.16772-11.26033,0.17252-16.89079
			c0.00084-0.98662,0.33894-1.13933,1.21249-1.1213C43.26216,82.37185,47.27874,82.3896,51.29483,82.43073z"/>
		<path class="st1" d="M35.88046,70.38087c-0.02905,2.83466-0.08382,5.66943-0.07049,8.5039
			c0.00372,0.78983-0.17374,1.08613-1.03651,1.07125c-5.47181-0.09437-10.94453-0.14853-16.41713-0.16943
			c-0.83335-0.00318-1.05277-0.25326-1.03834-1.07243c0.08598-4.88128,0.13458-9.76346,0.15101-14.64548
			c0.0027-0.80294,0.2542-1.05082,1.05462-1.14507c5.506-0.64834,11.00761-1.33676,16.50302-2.06936
			c0.86487-0.11529,0.97024,0.16953,0.95478,0.90477C35.92101,64.63241,35.90991,67.50683,35.88046,70.38087z"/>
		<path class="st1" d="M35.6632,91.60281c-0.02781,2.71625-0.10895,5.4335-0.05704,8.14823
			c0.02061,1.07777-0.27472,1.33882-1.32459,1.16508c-4.49897-0.74453-9.0089-1.42278-13.51442-2.12791
			c-0.66012-0.10331-1.31768-0.22288-1.9769-0.33203c-1.65364-0.27378-1.65383-0.27312-1.63722-1.89638
			c0.04551-4.44834,0.12179-8.89675,0.11236-13.34497c-0.00204-0.96263,0.30248-1.156,1.20154-1.14007
			c5.35305,0.0949,10.70712,0.15327,16.06096,0.16203c0.94864,0.00155,1.28418,0.19555,1.24478,1.21828
			C35.66814,86.16837,35.69101,88.88657,35.6632,91.60281z"/>
	</g>
</g>
<g>
	<path class="st1" d="M176.44519,85.95301l-7.55988-0.07741l30.00363-70.32992l6.69757,0.06857l28.36551,70.92754l-7.65495-0.07838
		l-7.27318-18.63115l-35.02148-0.35857L176.44519,85.95301z M186.65344,60.91591l29.85425,0.30567l-14.54306-37.66324
		L186.65344,60.91591z"/>
	<path class="st1" d="M270.74103,45.01577l-27.16066,35.73778l27.74849,0.2841l-0.06027,5.88622l-36.36-0.37228l0.04903-4.78883
		l27.0668-35.93843l-25.35669-0.25962l0.05823-5.68654l34.06409,0.34877L270.74103,45.01577z"/>
	<path class="st1" d="M312.41306,87.34513c-0.11496-1.26321-0.19736-2.66187-0.24399-4.19276
		c-0.04828-1.52931-0.06647-2.79472-0.05627-3.79147l-0.1918-0.00197c-1.30499,2.71519-3.39975,4.9031-6.28763,6.57008
		c-2.88788,1.66699-5.9277,2.48415-9.11624,2.4515c-5.67874-0.05814-9.91809-1.8636-12.7197-5.41799
		c-2.80328-3.55441-4.17529-8.2252-4.11606-14.01077l0.29315-28.63078l6.50659,0.06662l-0.26453,25.83702
		c-0.02521,2.4615,0.14377,4.69176,0.50696,6.69077c0.36154,1.99899,0.99811,3.71804,1.90808,5.15713
		c0.90994,1.44068,2.14279,2.56677,3.69858,3.37986c1.55414,0.81467,3.51071,1.23408,5.87137,1.25825
		c1.72296,0.01764,3.40048-0.33102,5.03421-1.04594c1.63538-0.71492,3.09598-1.81503,4.38834-3.29707
		c1.29074-1.48365,2.33148-3.36924,3.12054-5.65518c0.78906-2.28754,1.19876-4.99273,1.23077-8.11873l0.24515-23.94257
		l6.50659,0.06662l-0.37283,36.41302c-0.01294,1.2635,0.00317,2.89313,0.04669,4.88886
		c0.04187,1.99572,0.12021,3.79212,0.23172,5.38918L312.41306,87.34513z"/>
	<path class="st1" d="M332.83438,46.24899c-0.04352-1.99574-0.12186-3.79214-0.23175-5.38918l6.21973,0.06368
		c0.11328,1.26479,0.19406,2.66344,0.24399,4.19277c0.04663,1.53089,0.06647,2.79473,0.05627,3.79147l0.1918,0.00196
		c1.30331-2.7136,3.23907-4.90474,5.80893-6.57498c2.56821-1.67026,5.44739-2.48906,8.63757-2.4564
		c0.82785,0.00848,1.57834,0.0513,2.24814,0.12366c0.66818,0.07394,1.35208,0.21353,2.05331,0.4204l-0.92868,6.47479
		c-0.38062-0.13649-1.01862-0.27562-1.90906-0.41893c-0.89371-0.14174-1.78482-0.21796-2.67664-0.22709
		c-1.72296-0.01764-3.38541,0.29762-4.98727,0.94579c-1.6019,0.64816-2.99948,1.67862-4.19443,3.09137
		c-1.19492,1.41434-2.17099,3.2287-2.92654,5.4447c-0.75552,2.2144-1.15012,4.883-1.18201,7.99941l-0.24457,23.88507
		l-6.50659-0.06662l0.3728-36.41143C332.89233,49.87593,332.87625,48.24471,332.83438,46.24899z"/>
	<path class="st1" d="M403.27991,63.53325c-0.00476,0.46483-0.00989,0.96479-0.01532,1.49671
		c-0.00546,0.53192-0.04404,1.09705-0.11243,1.69381l-37.1264-0.38012c0.03842,2.32956,0.4635,4.52889,1.27191,6.59795
		c0.80676,2.07065,1.93756,3.87783,3.38913,5.4231c1.45154,1.54528,3.16046,2.77528,5.12997,3.69325
		c1.96786,0.91795,4.10098,1.38869,6.39771,1.4122c3.38034,0.03461,6.3067-0.74856,8.77917-2.3543
		c2.47241-1.60255,4.35721-3.46192,5.65607-5.5781l4.83951,4.04013c-2.71643,3.49789-5.69315,5.99467-8.9285,7.49036
		c-3.23862,1.49726-6.70712,2.22695-10.40552,2.18909c-3.31802-0.03397-6.39041-0.68207-9.21555-1.94108
		c-2.82678-1.25903-5.2486-2.99635-7.26712-5.212c-2.02017-2.21566-3.60345-4.82623-4.75314-7.83014
		c-1.14969-3.00551-1.70483-6.27011-1.66876-9.79545c0.0361-3.52374,0.64325-6.77804,1.82141-9.75811
		c1.17984-2.98165,2.79987-5.55942,4.86496-7.73326c2.06348-2.17385,4.47281-3.86012,7.22803-5.06359
		c2.75525-1.20187,5.72714-1.78809,8.91733-1.75542c3.50821,0.03592,6.59698,0.68418,9.26309,1.94156
		c2.66611,1.25898,4.8819,2.94307,6.64734,5.05708c1.76379,2.1124,3.09451,4.57021,3.99216,7.37345
		C402.8793,57.34359,403.31259,60.34016,403.27991,63.53325z M396.69907,61.27089c-0.1452-4.39145-1.46368-8.04727-3.95374-10.96585
		c-2.4917-2.9186-6.06543-4.40254-10.72119-4.45021c-2.16885-0.02221-4.18298,0.37412-6.04068,1.18581
		c-1.85934,0.81327-3.49716,1.92754-4.91342,3.34121c-1.41959,1.41684-2.55267,3.03469-3.39926,4.85518
		c-0.84988,1.82045-1.3465,3.72758-1.49481,5.72136L396.69907,61.27089z"/>
</g>
</svg>
