<?xml version="1.0" encoding="UTF-8" standalone="no"?>
<!-- Created with Inkscape (http://www.inkscape.org/) -->
<svg
   xmlns:dc="http://purl.org/dc/elements/1.1/"
   xmlns:cc="http://creativecommons.org/ns#"
   xmlns:rdf="http://www.w3.org/1999/02/22-rdf-syntax-ns#"
   xmlns:svg="http://www.w3.org/2000/svg"
   xmlns="http://www.w3.org/2000/svg"
   xmlns:sodipodi="http://sodipodi.sourceforge.net/DTD/sodipodi-0.dtd"
   xmlns:inkscape="http://www.inkscape.org/namespaces/inkscape"
   width="167.25003"
   height="158"
   id="svg3912"
   sodipodi:version="0.32"
   inkscape:version="0.46"
   sodipodi:docname="OpenSolaris_Logo2.svg"
   inkscape:output_extension="org.inkscape.output.svg.inkscape"
   version="1.0">
  <defs
     id="defs3914">
    <inkscape:perspective
       sodipodi:type="inkscape:persp3d"
       inkscape:vp_x="0 : 526.18109 : 1"
       inkscape:vp_y="0 : 1000 : 0"
       inkscape:vp_z="744.09448 : 526.18109 : 1"
       inkscape:persp3d-origin="372.04724 : 350.78739 : 1"
       id="perspective3920" />
    <inkscape:perspective
       id="perspective3929"
       inkscape:persp3d-origin="372.04724 : 350.78739 : 1"
       inkscape:vp_z="744.09448 : 526.18109 : 1"
       inkscape:vp_y="0 : 1000 : 0"
       inkscape:vp_x="0 : 526.18109 : 1"
       sodipodi:type="inkscape:persp3d" />
    <inkscape:perspective
       id="perspective3939"
       inkscape:persp3d-origin="372.04724 : 350.78739 : 1"
       inkscape:vp_z="744.09448 : 526.18109 : 1"
       inkscape:vp_y="0 : 1000 : 0"
       inkscape:vp_x="0 : 526.18109 : 1"
       sodipodi:type="inkscape:persp3d" />
  </defs>
  <sodipodi:namedview
     id="base"
     pagecolor="#ffffff"
     bordercolor="#666666"
     borderopacity="1.0"
     inkscape:pageopacity="0.0"
     inkscape:pageshadow="2"
     inkscape:zoom="1.9730807"
     inkscape:cx="67.54343"
     inkscape:cy="67.227874"
     inkscape:document-units="px"
     inkscape:current-layer="g4622"
     showgrid="false"
     inkscape:window-width="1280"
     inkscape:window-height="975"
     inkscape:window-x="-4"
     inkscape:window-y="-4" />
  <metadata
     id="metadata3917">
    <rdf:RDF>
      <cc:Work
         rdf:about="">
        <dc:format>image/svg+xml</dc:format>
        <dc:type
           rdf:resource="http://purl.org/dc/dcmitype/StillImage" />
      </cc:Work>
    </rdf:RDF>
  </metadata>
  <g
     inkscape:groupmode="layer"
     id="layer2"
     inkscape:label="Kreise"
     transform="translate(-509.07121,-262.63987)"
     sodipodi:insensitive="true">
    <g
       id="g4622"
       transform="translate(205.32123,-327.72231)">
      <path
         transform="matrix(0.8287353,0,0,0.8287353,197.3685,300.41994)"
         d="M 330.17962,437.94714 A 26.546474,26.546474 0 1 1 277.08667,437.94714 A 26.546474,26.546474 0 1 1 330.17962,437.94714 z"
         sodipodi:ry="26.546474"
         sodipodi:rx="26.546474"
         sodipodi:cy="437.94714"
         sodipodi:cx="303.63315"
         id="path4624"
         style="fill:#73b1e4;fill-opacity:1;fill-rule:evenodd;stroke:none;stroke-width:1;stroke-linecap:square;marker:none;marker-start:none;marker-mid:none;marker-end:none;stroke-miterlimit:4;stroke-dasharray:none;stroke-dashoffset:0;stroke-opacity:1;visibility:visible;display:inline;overflow:visible;enable-background:accumulate"
         sodipodi:type="arc" />
      <path
         transform="matrix(0.7722306,0,0,0.7722306,136.02519,389.666)"
         d="M 330.17962,437.94714 A 26.546474,26.546474 0 1 1 277.08667,437.94714 A 26.546474,26.546474 0 1 1 330.17962,437.94714 z"
         sodipodi:ry="26.546474"
         sodipodi:rx="26.546474"
         sodipodi:cy="437.94714"
         sodipodi:cx="303.63315"
         id="path4626"
         style="fill:#73b1e4;fill-opacity:1;fill-rule:evenodd;stroke:none;stroke-width:1;stroke-linecap:square;marker:none;marker-start:none;marker-mid:none;marker-end:none;stroke-miterlimit:4;stroke-dasharray:none;stroke-dashoffset:0;stroke-opacity:1;visibility:visible;display:inline;overflow:visible;enable-background:accumulate"
         sodipodi:type="arc" />
      <path
         transform="matrix(0.5838817,0,0,0.5838817,228.71417,418.15287)"
         d="M 330.17962,437.94714 A 26.546474,26.546474 0 1 1 277.08667,437.94714 A 26.546474,26.546474 0 1 1 330.17962,437.94714 z"
         sodipodi:ry="26.546474"
         sodipodi:rx="26.546474"
         sodipodi:cy="437.94714"
         sodipodi:cx="303.63315"
         id="path4628"
         style="fill:#135194;fill-opacity:1;fill-rule:evenodd;stroke:none;stroke-width:1;stroke-linecap:square;marker:none;marker-start:none;marker-mid:none;marker-end:none;stroke-miterlimit:4;stroke-dasharray:none;stroke-dashoffset:0;stroke-opacity:1;visibility:visible;display:inline;overflow:visible;enable-background:accumulate"
         sodipodi:type="arc" />
      <path
         transform="matrix(0.5085421,0,0,0.5085421,219.08976,435.14762)"
         d="M 330.17962,437.94714 A 26.546474,26.546474 0 1 1 277.08667,437.94714 A 26.546474,26.546474 0 1 1 330.17962,437.94714 z"
         sodipodi:ry="26.546474"
         sodipodi:rx="26.546474"
         sodipodi:cy="437.94714"
         sodipodi:cx="303.63315"
         id="path4630"
         style="fill:#73b1e4;fill-opacity:1;fill-rule:evenodd;stroke:none;stroke-width:1;stroke-linecap:square;marker:none;marker-start:none;marker-mid:none;marker-end:none;stroke-miterlimit:4;stroke-dasharray:none;stroke-dashoffset:0;stroke-opacity:1;visibility:visible;display:inline;overflow:visible;enable-background:accumulate"
         sodipodi:type="arc" />
      <path
         transform="matrix(0.4143676,0,0,0.4143676,251.18425,507.89106)"
         d="M 330.17962,437.94714 A 26.546474,26.546474 0 1 1 277.08667,437.94714 A 26.546474,26.546474 0 1 1 330.17962,437.94714 z"
         sodipodi:ry="26.546474"
         sodipodi:rx="26.546474"
         sodipodi:cy="437.94714"
         sodipodi:cx="303.63315"
         id="path4632"
         style="fill:#918f90;fill-opacity:1;fill-rule:evenodd;stroke:none;stroke-width:1;stroke-linecap:square;marker:none;marker-start:none;marker-mid:none;marker-end:none;stroke-miterlimit:4;stroke-dasharray:none;stroke-dashoffset:0;stroke-opacity:1;visibility:visible;display:inline;overflow:visible;enable-background:accumulate"
         sodipodi:type="arc" />
      <g
         id="g4634">
        <path
           style="fill:#135194;fill-opacity:1;fill-rule:evenodd;stroke:none;stroke-width:1;stroke-linecap:square;marker:none;marker-start:none;marker-mid:none;marker-end:none;stroke-miterlimit:4;stroke-dasharray:none;stroke-dashoffset:0;stroke-opacity:1;visibility:visible;display:inline;overflow:visible;enable-background:accumulate"
           d="M 27.75,65.25 C 12.432001,65.25 1.8136938e-14,77.681998 0,93 C 0,108.318 12.432,120.75 27.75,120.75 C 43.067999,120.75 55.5,108.318 55.5,93 C 55.5,77.682001 43.067999,65.249998 27.75,65.25 z M 27.75,73 C 38.79,72.999998 47.75,81.96 47.75,93 C 47.750002,104.04 38.79,113 27.75,113 C 16.71,113 7.75,104.04 7.75,93 C 7.75,81.959998 16.71,73 27.75,73 z"
           transform="translate(303.74998,590.36218)"
           id="path4636" />
      </g>
      <g
         id="g4640">
        <path
           style="fill:#60ba52;fill-opacity:1;fill-rule:evenodd;stroke:none;stroke-width:1;stroke-linecap:square;marker:none;marker-start:none;marker-mid:none;marker-end:none;stroke-miterlimit:4;stroke-dasharray:none;stroke-dashoffset:0;stroke-opacity:1;visibility:visible;display:inline;overflow:visible;enable-background:accumulate"
           d="M 42.75,11 C 30.33,11 20.249999,21.080001 20.25,33.5 C 20.25,45.92 30.330002,55.999999 42.75,56 C 55.17,56 65.250003,45.920002 65.25,33.5 C 65.25,21.08 55.170002,11 42.75,11 z M 42.75,17 C 51.858,17.000001 59.25,24.391999 59.25,33.5 C 59.250001,42.608002 51.858001,50 42.75,50 C 33.641999,49.999999 26.25,42.608001 26.25,33.5 C 26.250001,24.392001 33.641999,17 42.75,17 z"
           transform="translate(303.74998,590.36218)"
           id="path4642" />
      </g>
      <g
         id="g4646">
        <path
           style="fill:#918f90;fill-opacity:1;fill-rule:evenodd;stroke:none;stroke-width:1;stroke-linecap:square;marker:none;marker-start:none;marker-mid:none;marker-end:none;stroke-miterlimit:4;stroke-dasharray:none;stroke-dashoffset:0;stroke-opacity:1;visibility:visible;display:inline;overflow:visible;enable-background:accumulate"
           d="M 102.75,0 C 87.57,0 75.250001,12.320001 75.25,27.5 C 75.25,42.68 87.570001,55.000001 102.75,55 C 117.93,55 130.25,42.680001 130.25,27.5 C 130.25,12.32 117.93,1.3041202e-14 102.75,0 z M 102.75,15 C 109.65,15 115.25,20.6 115.25,27.5 C 115.25,34.4 109.65,40 102.75,40 C 95.850004,39.999998 90.25,34.4 90.25,27.5 C 90.249996,20.600001 95.85,15 102.75,15 z"
           transform="translate(303.74998,590.36218)"
           id="path4648" />
      </g>
      <g
         id="g4652">
        <path
           style="fill:#60ba52;fill-opacity:1;fill-rule:evenodd;stroke:none;stroke-width:1;stroke-linecap:square;marker:none;marker-start:none;marker-mid:none;marker-end:none;stroke-miterlimit:4;stroke-dasharray:none;stroke-dashoffset:0;stroke-opacity:1;visibility:visible;display:inline;overflow:visible;enable-background:accumulate"
           d="M 119.75,103 C 106.778,103 96.250002,113.528 96.25,126.5 C 96.25,139.472 106.778,150 119.75,150 C 132.722,150 143.25,139.472 143.25,126.5 C 143.25,113.528 132.722,103 119.75,103 z M 119.75,116.5 C 125.27,116.5 129.75,120.98 129.75,126.5 C 129.75001,132.02 125.27,136.5 119.75,136.5 C 114.23,136.5 109.75,132.02 109.75,126.5 C 109.75,120.98 114.23,116.5 119.75,116.5 z"
           transform="translate(303.74998,590.36218)"
           id="path4654" />
      </g>
    </g>
  </g>
</svg>
