<?xml version="1.0" encoding="UTF-8" standalone="no"?>
<svg
   version="1.0"
   width="566.92572"
   height="696.2547"
   style="fill:#b3b3b3"
   id="svg2811"
   sodipodi:docname="osx.svg"
   viewBox="0 0 708.65715 870.31837"
   inkscape:version="1.2.2 (b0a8486541, 2022-12-01)"
   xmlns:inkscape="http://www.inkscape.org/namespaces/inkscape"
   xmlns:sodipodi="http://sodipodi.sourceforge.net/DTD/sodipodi-0.dtd"
   xmlns="http://www.w3.org/2000/svg"
   xmlns:svg="http://www.w3.org/2000/svg">
  <defs
     id="defs8" />
  <sodipodi:namedview
     id="namedview6"
     pagecolor="#ffffff"
     bordercolor="#000000"
     borderopacity="0.25"
     inkscape:showpageshadow="2"
     inkscape:pageopacity="0.0"
     inkscape:pagecheckerboard="0"
     inkscape:deskcolor="#d1d1d1"
     showgrid="false"
     inkscape:zoom="1.1791045"
     inkscape:cx="354.50633"
     inkscape:cy="435.5"
     inkscape:window-width="3440"
     inkscape:window-height="1347"
     inkscape:window-x="0"
     inkscape:window-y="28"
     inkscape:window-maximized="1"
     inkscape:current-layer="svg2811" />
  <g
     transform="matrix(54.85,0,0,-54.85,-2485.5326,4815.5103)"
     id="g186">
    <path
       d="m 56.105,79.364 c -0.018,2.008 1.64,2.972 1.715,3.019 -0.933,1.365 -2.385,1.552 -2.903,1.574 -1.235,0.125 -2.411,-0.727 -3.037,-0.727 -0.626,0 -1.594,0.709 -2.618,0.689 -1.348,-0.02 -2.589,-0.783 -3.283,-1.989 -1.399,-2.427 -0.357,-6.024 1.005,-7.994 0.667,-0.963 1.461,-2.048 2.505,-2.008 1.006,0.04 1.386,0.65 2.6,0.65 1.214,0 1.556,-0.65 2.619,-0.631 1.081,0.021 1.767,0.984 2.429,1.95 0.764,1.118 1.08,2.2 1.098,2.257 -0.024,0.01 -2.108,0.809 -2.13,3.21"
       id="path188" />
  </g>
  <path
     d="M 482.28913,138.9887 C 512.67563,102.1843 533.18933,51.0085 527.53923,0 c -43.7736,1.7571 -96.7556,29.1808 -128.1856,65.9852 -28.1373,32.5275 -52.8196,84.6335 -46.131,134.6035 48.8183,3.7847 98.675,-24.8497 129.0665,-61.6"
     id="path190" />
</svg>
