<?xml version="1.0" encoding="UTF-8" standalone="no"?>
<svg
   xmlns:dc="http://purl.org/dc/elements/1.1/"
   xmlns:cc="http://creativecommons.org/ns#"
   xmlns:rdf="http://www.w3.org/1999/02/22-rdf-syntax-ns#"
   xmlns:svg="http://www.w3.org/2000/svg"
   xmlns="http://www.w3.org/2000/svg"
   xmlns:sodipodi="http://sodipodi.sourceforge.net/DTD/sodipodi-0.dtd"
   xmlns:inkscape="http://www.inkscape.org/namespaces/inkscape"
   viewBox="0 0 104.73046 102.18287"
   version="1.1"
   id="svg901"
   sodipodi:docname="redhat.svg"
   width="78.547852pt"
   height="76.637161pt"
   inkscape:version="0.92.3 (2405546, 2018-03-11)">
  <metadata
     id="metadata907">
    <rdf:RDF>
      <cc:Work
         rdf:about="">
        <dc:format>image/svg+xml</dc:format>
        <dc:type
           rdf:resource="http://purl.org/dc/dcmitype/StillImage" />
        <dc:title></dc:title>
      </cc:Work>
    </rdf:RDF>
  </metadata>
  <defs
     id="defs905" />
  <sodipodi:namedview
     pagecolor="#ffffff"
     bordercolor="#666666"
     borderopacity="1"
     objecttolerance="10"
     gridtolerance="10"
     guidetolerance="10"
     inkscape:pageopacity="0"
     inkscape:pageshadow="2"
     inkscape:window-width="2560"
     inkscape:window-height="1514"
     id="namedview903"
     showgrid="false"
     fit-margin-top="0"
     fit-margin-left="0"
     fit-margin-right="0"
     fit-margin-bottom="0"
     units="pt"
     inkscape:zoom="3.2988783"
     inkscape:cx="87.254682"
     inkscape:cy="71.219655"
     inkscape:window-x="0"
     inkscape:window-y="28"
     inkscape:window-maximized="1"
     inkscape:current-layer="svg901" />
  <path
     d="m 93.986,78.859999 c -1.9694,-0.4517 -4.0578,-0.73674 -6.1714,-0.73674 -3.6141,0 -6.9028,0.62507 -9.3273,1.6373 -0.2673,0.13126 -0.45768,0.41056 -0.45768,0.7288 0,0.11669 0.0291,0.23411 0.0734,0.33371 0.28626,0.83003 -0.18447,1.7303 -2.5322,2.2472 -3.4801,0.76427 -5.678,4.3557 -6.9338,5.5486 -1.4772,1.4025 -5.6463,2.2616 -5.019,1.4269 0.49089,-0.65196 2.3667,-2.691 3.5086,-4.8938 1.0207,-1.9691 1.9296,-2.5286 3.1822,-4.4082 0.36692,-0.54822 1.7913,-2.4844 2.2063,-4.0173 0.46497,-1.4924 0.3078,-3.3704 0.48652,-4.1407 0.25621,-1.115 1.307,-3.5314 1.3861,-4.895 0.0458,-0.77343 -3.2224,1.1015 -4.7727,1.1015 -1.5496,0 -3.0604,-0.9306 -4.4455,-0.99708 -1.7148,-0.0784 -2.8162,1.3242 -4.3678,1.0787 -0.88468,-0.14236 -1.6312,-0.92307 -3.179,-0.98065 -2.2048,-0.08 -4.8976,1.2261 -9.9563,1.0632 -4.9747,-0.16261 -9.5712,-6.2884 -10.198,-7.2627 -0.73544,-1.142 -1.6328,-1.142 -2.6112,-0.24391 -0.98,0.8974 -2.1858,0.192 -2.5296,-0.41121 -0.6526,-1.1403 -2.3971,-4.4772 -5.1001,-5.1779 -3.7373,-0.96761 -5.6295,2.0691 -5.3838,4.4871 0.24925,2.4528 1.8346,3.1411 2.5701,4.4459 0.73382,1.3045 1.1093,2.145 2.4916,2.7216 0.97903,0.4112 1.3438,1.0138 1.0527,1.8195 -0.25622,0.69876 -1.2754,0.85853 -1.9453,0.89173 -1.4234,0.068 -2.4214,-0.3176 -3.1496,-0.78322 -0.84711,-0.54094 -1.5351,-1.29 -2.2738,-2.5622 -0.85562,-1.4042 -2.2016,-2.0162 -3.7705,-2.0162 -0.74751,0 -1.4472,0.19734 -2.0688,0.51745 -2.4579,1.2812 -5.3844,2.0365 -8.5353,2.0365 l -3.5529,0.003 c 6.8135,20.208 25.921,34.761001 48.429,34.761001 17.979,0 33.788,-9.284402 42.895,-23.323001"
     id="path889"
     inkscape:connector-curvature="0"
     style="fill:#ffffff" />
  <path
     d="m 102.15039,73.382811 c -1.43,0 -2.58789,1.157032 -2.58789,2.582032 0,1.424 1.15789,2.582031 2.58789,2.582031 1.42,0 2.58008,-1.158031 2.58008,-2.582031 0,-1.425 -1.16008,-2.582032 -2.58008,-2.582032 z m 0,0.457032 c 1.17,0 2.11914,0.951953 2.11914,2.126953 0,1.172 -0.94914,2.119141 -2.11914,2.119141 -1.18,0 -2.13086,-0.947141 -2.13086,-2.119141 0,-1.175 0.95086,-2.126953 2.13086,-2.126953 z m -0.87305,0.804687 v 2.634766 h 0.39844 v -1.140625 h 0.46094 l 0.69531,1.140625 h 0.44727 l -0.75196,-1.162109 c 0.39112,-0.0477 0.68555,-0.251274 0.68555,-0.720704 0,-0.52474 -0.30778,-0.751953 -0.92969,-0.751953 z m 0.39844,0.337891 h 0.54492 c 0.27613,0 0.57422,0.06131 0.57422,0.386719 0,0.40335 -0.29971,0.43164 -0.64062,0.43164 h -0.47852 z"
     id="path891"
     inkscape:connector-curvature="0"
     style="fill:#ffffff" />
  <path
     d="M 51.096,0 C 22.877,0 0,22.874999 0,51.095999 c 0,5.712 0.93668,11.204 2.666,16.332 h 3.5528 c 3.1508,0 6.0772,-0.759 8.5352,-2.037 0.621,-0.32 1.323,-0.516 2.07,-0.516 1.569,0 2.914,0.61 3.77,2.014 0.738,1.273 1.426,2.022 2.273,2.56 0.728,0.467 1.727,0.854 3.151,0.787 0.67,-0.033 1.689,-0.194 1.945,-0.894 0.291,-0.804 -0.074,-1.41 -1.053,-1.817 -1.382,-0.577 -1.758,-1.422 -2.492,-2.726 -0.735,-1.305 -2.321,-1.993 -2.57,-4.445 -0.246,-2.417 1.647,-5.454 5.384,-4.485 2.703,0.699 4.447,4.038 5.1,5.18 0.344,0.601 1.549,1.304 2.529,0.41 0.979,-0.9 1.876,-0.899 2.612,0.244 0.627,0.974 5.224,7.101 10.199,7.262 5.059,0.162 7.75,-1.144 9.955,-1.063 1.548,0.059 2.295,0.836 3.18,0.979 1.551,0.245 2.652,-1.158 4.367,-1.076 1.385,0.068 2.896,0.994 4.445,0.994 1.55,0 4.819,-1.87 4.774,-1.1 -0.08,1.364 -1.131,3.781 -1.387,4.893 -0.179,0.773 -0.021,2.649 -0.486,4.144 -0.415,1.53 -1.839,3.467 -2.206,4.018 -1.252,1.878 -2.162,2.438 -3.183,4.406 -1.142,2.203 -3.017,4.241 -3.508,4.895 -0.627,0.834 3.542,-0.027 5.02,-1.428 1.255,-1.194 3.453,-4.785 6.933,-5.549 2.348,-0.515 2.818,-1.416 2.531,-2.248 -0.044,-0.096 -0.072,-0.217 -0.072,-0.332 0,-0.318 0.19,-0.596 0.457,-0.73 2.425,-1.009 5.712,-1.635 9.326,-1.635 2.114,0 4.203,0.281 6.172,0.736 5.188,-7.998 8.2,-17.532 8.2,-27.773 C 102.19,22.874999 79.316,0 51.096,0 Z"
     id="path893"
     inkscape:connector-curvature="0"
     style="fill:#100f0d" />
  <path
     d="m 62.346,74.179999 c 0.26196,0.25427 0.71585,1.1198 0.16074,2.2123 -0.31006,0.58046 -0.64378,0.98697 -1.2416,1.4649 -0.71868,0.57729 -2.1241,1.2412 -4.0505,0.0202 -1.035,-0.65762 -1.0992,-0.87877 -2.529,-0.69398 -1.0218,0.13443 -1.4282,-0.89651 -1.0613,-1.7556 0.36756,-0.8544 1.8774,-1.5468 3.7532,-0.44635 0.84452,0.49567 2.1611,1.5443 3.3141,0.6156 0.47696,-0.38311 0.76322,-0.63738 1.4259,-1.4058 0.031,-0.0316 0.0727,-0.0512 0.11953,-0.0512 0.0418,0 0.0798,0.0164 0.10883,0.0398"
     id="path897"
     inkscape:connector-curvature="0"
     style="fill:#100f0d" />
  <path
     d="m 58.773,10.534999 c -1.169,0.045 -2.35,0.215 -3.502,0.51 -1.696,0.435 -5.014,2.161 -11.167,0.775 -10.651,-2.3982997 -12.229,2.935 -12.838,5.256 -0.613,2.325 -2.08,8.928 -2.08,8.928 -0.49,2.69 -1.13,7.365 15.406,10.516 7.705,1.466 8.095,3.456 8.435,4.888 0.612,2.566 1.591,4.036 2.692,4.77 1.1,0.736 -10e-4,1.344 -1.223,1.468 -3.281,0.341 -15.407,-3.139 -22.58,-7.214 -5.87,-3.588 -5.967,-6.817 -4.623,-9.557 -8.866,-0.959 -15.521,0.832 -16.727,5.029 -2.0699,7.203 15.835,19.505 36.225,25.68 21.399,6.478 43.409,1.956 45.855,-11.494 1.11,-6.11 -4.036,-10.63 -12.716,-12.588 -0.506,1.697 -1.225,3.866 -4.42,5.506 -0.465,0.239 -0.642,-0.151 -0.428,-0.518 1.208,-2.053 1.422,-2.567 1.773,-3.377 0.492,-1.184 0.748,-2.872 -0.228,-6.384 -1.922,-6.916 -5.931,-16.158 -8.844,-19.157 -2.109,-2.17 -5.502,-3.17 -9.01,-3.037 z m 0.963,2.369 c 0.097,0 0.193,10e-4 0.291,0.002 3.275,0.074 5.898,1.376 5.86,2.906 -0.04,1.533 -2.724,2.714 -6,2.641 -1.06,-0.025 -2.055,-0.179 -2.912,-0.426 -0.101,-0.026 -0.174,-0.112 -0.174,-0.215 0,-0.102 0.072,-0.189 0.176,-0.214 2.042,-0.473 3.423,-1.246 3.326,-1.977 -0.128,-0.968 -2.802,-1.493 -5.971,-1.176 -0.347,0.037 -0.686,0.082 -1.014,0.133 -0.008,0 -0.016,0.002 -0.025,0.002 -0.092,0 -0.166,-0.071 -0.166,-0.154 0,-0.063 0.038,-0.118 0.094,-0.143 1.144,-0.604 2.851,-1.084 4.804,-1.283 0.587,-0.06 1.16,-0.093 1.711,-0.096 z m -24.285,6.155 c 0.523,-0.021 1.006,0.257 1.237,0.543 0.558,0.695 1.752,1.834 3.3,1.793 1.549,-0.042 3.336,-0.366 5.828,-0.366 2.526,0 4.226,0.944 4.321,1.754 0.082,0.692 -0.206,1.344 -3.018,1.547 -5.902,0.427 -6.515,1.064 -7.621,2.242 -1.559,1.66 -3.611,-2.154 -3.611,-2.154 -1.232,-0.26 -2.726,-2.247 -1.92,-4.102 0.397,-0.917 0.961,-1.237 1.484,-1.257 z"
     id="path899"
     inkscape:connector-curvature="0"
     style="fill:#cd1e25" />
</svg>
