<?xml version="1.0" encoding="UTF-8" standalone="no"?>
<!-- Created with Inkscape (http://www.inkscape.org/) by Marsupilami -->
<svg
   xmlns:svg="http://www.w3.org/2000/svg"
   xmlns="http://www.w3.org/2000/svg"
   version="1.0"
   width="1024"
   height="233"
   viewBox="0 0 130.9225 29.797501"
   id="svg2370">
  <defs
     id="defs2372" />
  <g
     transform="translate(-131.5675,-58.965)"
     id="layer1">
    <path
       d="M 7.15625,0 C 5.925,0 4.9375,0.9675 4.9375,2.15625 L 4.9375,9.53125 L 2.21875,9.53125 C 0.98750001,9.5312497 0,10.5025 0,11.6875 L 0,27.65625 C 0,28.845001 0.9875,29.8125 2.21875,29.8125 L 18.71875,29.8125 C 19.95,29.812499 20.96875,28.845 20.96875,27.65625 L 20.96875,25.03125 L 28.59375,25.03125 C 29.82375,25.031251 30.8125,24.06 30.8125,22.875 L 30.8125,6.90625 C 30.8125,5.7199999 29.82375,4.78125 28.59375,4.78125 L 25.875,4.78125 L 25.875,2.15625 C 25.875,0.96750003 24.885,0 23.65625,0 L 7.15625,0 z M 7.15625,1.21875 L 23.65625,1.21875 C 24.194999,1.2187501 24.625,1.63375 24.625,2.15625 L 24.625,4.78125 L 12.09375,4.78125 C 10.865,4.7812499 9.84375,5.72 9.84375,6.90625 L 9.84375,9.53125 L 6.1875,9.53125 L 6.1875,2.15625 C 6.1874998,1.63375 6.61375,1.21875 7.15625,1.21875 z M 12.09375,5.96875 L 24.625,5.96875 L 24.625,18.09375 C 24.625,18.616251 24.195,19.0625 23.65625,19.0625 L 20.96875,19.0625 L 20.96875,11.6875 C 20.968751,10.5025 19.95,9.53125 18.71875,9.53125 L 11.09375,9.53125 L 11.09375,6.90625 C 11.09375,6.3849999 11.555,5.96875 12.09375,5.96875 z M 25.875,5.96875 L 28.59375,5.96875 C 29.13375,5.9687498 29.5625,6.385 29.5625,6.90625 L 29.5625,22.875 C 29.5625,23.39625 29.13375,23.8125 28.59375,23.8125 L 20.96875,23.8125 L 20.96875,20.28125 L 23.65625,20.28125 C 24.884999,20.281249 25.875,19.2825 25.875,18.09375 L 25.875,5.96875 z M 57.78125,9.4375 C 56.3825,9.4375 55.173751,10.005 54.25,10.96875 C 54.1225,10.0825 53.518751,9.5624999 52.5625,9.5625 C 52.50625,9.5625 48.843752,9.5624999 48.84375,9.5625 C 47.8,9.5625 47.373749,10.31375 47.1875,10.875 L 44.78125,18.0625 L 44.75,18.0625 L 42.34375,10.875 C 42.16125,10.31375 41.702501,9.5624999 40.65625,9.5625 C 39.64125,9.5625 38.687501,10.175 38.6875,11.34375 C 38.6875,11.67 38.757499,11.95125 38.9375,12.40625 L 42.71875,21.84375 C 43.08375,22.77875 43.468752,23.34375 44.75,23.34375 C 46.03,23.34375 46.417501,22.778749 46.78125,21.84375 L 50.6875,12.25 L 50.6875,21.34375 C 50.6875,22.55625 51.466251,23.34375 52.5625,23.34375 C 53.6525,23.34375 54.437499,22.55625 54.4375,21.34375 L 54.4375,15 C 54.4375,13.53375 55.103752,12.46875 56.65625,12.46875 C 58.02625,12.46875 58.875001,13.53375 58.875,15 L 58.875,21.34375 C 58.875,22.55625 59.658749,23.34375 60.75,23.34375 C 61.84125,23.34375 62.624999,22.55625 62.625,21.34375 L 62.625,15 C 62.625,13.53375 63.450001,12.46875 64.84375,12.46875 C 66.2125,12.46875 67.062498,13.53375 67.0625,15 L 67.0625,21.34375 C 67.0625,22.55625 67.846253,23.34375 68.9375,23.34375 C 70.03,23.34375 70.812503,22.55625 70.8125,21.34375 L 70.8125,14.34375 C 70.8125,11.16125 68.746253,9.4374997 65.6875,9.4375 C 64.39625,9.4375 62.727499,10.1175 61.6875,11.28125 C 60.695,10.0675 59.357502,9.4374997 57.78125,9.4375 z M 73.03125,9.5625 C 72.24625,9.5625 71.937497,10.12875 71.9375,10.5625 C 71.9375,10.79 72.018749,11.1075 72.125,11.4375 L 75.9375,22.1875 C 76.25,23.0475 76.628749,23.34375 77.28125,23.34375 C 77.90875,23.34375 78.27875,23.047501 78.5625,22.1875 L 81.5625,13.09375 L 81.59375,13.09375 L 84.59375,22.1875 C 84.87875,23.0475 85.25,23.34375 85.875,23.34375 C 86.53125,23.34375 86.907504,23.047501 87.21875,22.1875 L 91.03125,11.4375 C 91.13375,11.11 91.218752,10.79 91.21875,10.5625 C 91.21875,10.13 90.911248,9.5624999 90.125,9.5625 C 89.63125,9.5625 89.155,9.755 88.84375,10.71875 L 85.875,19.9375 L 85.84375,19.9375 L 82.9375,11.0625 C 82.625,10.09875 82.3975,9.5624999 81.5625,9.5625 C 80.72625,9.5625 80.536253,10.09875 80.21875,11.0625 L 77.3125,19.9375 L 77.25,19.9375 L 74.3125,10.71875 C 73.995,9.75375 73.527501,9.5624999 73.03125,9.5625 z M 98.28125,9.5625 C 94.354997,9.5624999 92.15625,12.88625 92.15625,16.46875 C 92.156253,20.051249 94.355,23.34375 98.28125,23.34375 C 99.773747,23.34375 101.1,22.69875 102.09375,21.34375 L 102.125,21.34375 L 102.125,22.28125 C 102.125,23.0625 102.74375,23.34375 103.21875,23.34375 C 103.66375,23.34375 104.28125,23.0625 104.28125,22.28125 L 104.28125,10.65625 C 104.28125,9.8774997 103.66375,9.5625 103.21875,9.5625 C 102.74375,9.5624999 102.125,9.8775 102.125,10.65625 L 102.125,11.375 L 102.09375,11.375 C 101.0225,10.245 99.88,9.5625 98.28125,9.5625 z M 120.9375,9.5625 C 117.04,9.5624999 114.6875,12.8025 114.6875,16.46875 C 114.6875,20.046251 116.64875,23.34375 121.09375,23.34375 C 123.81,23.34375 126.65625,21.715 126.65625,20.625 C 126.65625,19.991249 126.23125,19.625 125.8125,19.625 C 124.9525,19.625 124.155,21.4375 121.09375,21.4375 C 118.51,21.4375 117,19.65375 117,17.34375 L 125.65625,17.34375 C 126.64875,17.34375 126.9375,16.94375 126.9375,16.15625 C 126.9375,12.89875 124.7275,9.5625 120.9375,9.5625 z M 129.40625,9.5625 C 128.56,9.5625 127.875,10.215 127.875,11.03125 C 127.875,11.84875 128.56,12.5 129.40625,12.5 C 130.25,12.5 130.9375,11.84875 130.9375,11.03125 C 130.9375,10.215 130.25,9.5624998 129.40625,9.5625 z M 108.46875,9.59375 C 107.7625,9.59375 107.3125,10.04625 107.3125,10.78125 L 107.3125,22.15625 C 107.3125,22.8925 107.7625,23.34375 108.46875,23.34375 C 109.175,23.34375 109.59375,22.8925 109.59375,22.15625 L 109.59375,15.75 C 109.59375,13.1425 111.265,12.16625 112.625,11.9375 C 113.5925,11.76125 114.0625,11.3525 114.0625,10.71875 C 114.0625,10.0875 113.61875,9.5937498 112.8125,9.59375 C 111.47875,9.59375 110.17625,10.86625 109.65625,11.90625 L 109.59375,11.90625 L 109.59375,10.78125 C 109.59375,10.04625 109.175,9.5937498 108.46875,9.59375 z M 129.40625,9.875 C 130.0475,9.875 130.5625,10.385 130.5625,11.03125 C 130.5625,11.6775 130.0475,12.1875 129.40625,12.1875 C 128.76375,12.1875 128.21875,11.6775 128.21875,11.03125 C 128.21875,10.385 128.76375,9.8750001 129.40625,9.875 z M 128.78125,10.21875 C 128.76562,10.232344 128.75,10.250625 128.75,10.28125 L 128.75,11.75 C 128.75,11.83125 128.81375,11.875 128.90625,11.875 C 128.99875,11.875 129.03126,11.83125 129.03125,11.75 L 129.03125,11.1875 L 129.3125,11.1875 L 129.71875,11.8125 C 129.76125,11.87875 129.79124,11.875 129.875,11.875 C 129.9475,11.875 130.03124,11.8575 130.03125,11.8125 C 130.03125,11.78375 130.0175,11.74375 130,11.71875 L 129.625,11.15625 C 129.8675,11.1275 130.06251,11.00625 130.0625,10.6875 C 130.0625,10.31875 129.83001,10.21875 129.40625,10.21875 L 128.84375,10.21875 C 128.81,10.21875 128.79688,10.205156 128.78125,10.21875 z M 129.03125,10.4375 L 129.375,10.4375 C 129.5575,10.4375 129.78125,10.4525 129.78125,10.65625 C 129.78125,10.89875 129.59,10.9375 129.375,10.9375 L 129.03125,10.9375 L 129.03125,10.4375 z M 2.21875,10.75 L 4.9375,10.75 L 4.9375,18.09375 C 4.9375,19.282501 5.925,20.28125 7.15625,20.28125 L 9.84375,20.28125 L 9.84375,22.875 C 9.8437502,24.06 10.865,25.03125 12.09375,25.03125 L 19.71875,25.03125 L 19.71875,27.65625 C 19.718751,28.177501 19.26125,28.59375 18.71875,28.59375 L 2.21875,28.59375 C 1.6725,28.593749 1.25,28.1775 1.25,27.65625 L 1.25,11.6875 C 1.2500001,11.1675 1.6725,10.75 2.21875,10.75 z M 6.1875,10.75 L 9.84375,10.75 L 9.84375,19.0625 L 7.15625,19.0625 C 6.61375,19.0625 6.1875,18.61625 6.1875,18.09375 L 6.1875,10.75 z M 11.09375,10.75 L 18.71875,10.75 C 19.26125,10.75 19.71875,11.1675 19.71875,11.6875 L 19.71875,19.0625 L 11.09375,19.0625 L 11.09375,10.75 z M 98.28125,11.5 C 101.1075,11.5 102.125,14.18125 102.125,16.46875 C 102.125,18.756249 101.1075,21.4375 98.28125,21.4375 C 95.454997,21.4375 94.46875,18.75625 94.46875,16.46875 C 94.468753,14.181249 95.455,11.5 98.28125,11.5 z M 120.4375,11.5 C 120.60166,11.488776 120.75922,11.49375 120.9375,11.5 C 123.47375,11.5 124.625,13.7225 124.625,15.65625 L 117,15.65625 C 117.07617,13.723828 117.97517,11.668361 120.4375,11.5 z M 11.09375,20.28125 L 19.71875,20.28125 L 19.71875,23.8125 L 12.09375,23.8125 C 11.555,23.8125 11.09375,23.39625 11.09375,22.875 L 11.09375,20.28125 z "
       transform="translate(131.5675,58.965)"
       style="fill:#7498bf;fill-opacity:1;fill-rule:nonzero;stroke:none"
       id="path2985" />
  </g>
</svg>
