<svg width="49" height="49" xmlns="http://www.w3.org/2000/svg" xmlns:xlink="http://www.w3.org/1999/xlink" xml:space="preserve" overflow="hidden"><defs><clipPath id="clip0"><rect x="234" y="520" width="49" height="49"/></clipPath></defs><g clip-path="url(#clip0)" transform="translate(-234 -520)"><path d="M254.747 562.022 247.485 562.022C246.944 562.022 246.505 561.584 246.505 561.042L246.505 553.692C246.505 553.151 246.944 552.712 247.485 552.712L254.747 552.712C255.288 552.712 255.727 553.151 255.727 553.692L255.727 561.042C255.727 561.584 255.288 562.022 254.747 562.022ZM248.465 560.062 253.767 560.062 253.767 554.672 248.465 554.672Z" fill="#6CAE3E"/><path d="M264.38 558.387C261.544 558.397 259.236 556.107 259.225 553.271 259.214 550.435 261.505 548.127 264.341 548.116 267.177 548.105 269.485 550.396 269.496 553.232 269.496 553.238 269.496 553.245 269.496 553.251 269.501 556.082 267.211 558.381 264.38 558.387ZM264.38 550.076C262.626 550.065 261.196 551.478 261.185 553.232 261.174 554.985 262.587 556.416 264.341 556.426 266.094 556.437 267.525 555.025 267.536 553.271 267.536 553.264 267.536 553.258 267.536 553.251 267.541 551.503 266.128 550.082 264.38 550.076Z" fill="#6CAE3E"/><path d="M253.816 549.155 244.633 549.155C244.279 549.154 243.954 548.963 243.78 548.655 243.605 548.352 243.605 547.978 243.78 547.675L248.377 540.012C248.657 539.549 249.26 539.401 249.723 539.682 249.858 539.764 249.971 539.877 250.052 540.012L254.649 547.675C254.824 547.978 254.824 548.352 254.649 548.655 254.479 548.957 254.162 549.147 253.816 549.155ZM246.358 547.195 252.091 547.195 249.229 542.422Z" fill="#6CAE3E"/><path d="M257.197 567.53C250.934 567.53 241.027 566.109 240.899 562.297L236.46 529.359C236.354 528.818 236.707 528.293 237.249 528.188 237.79 528.082 238.314 528.436 238.42 528.977 238.91 530.868 246.309 533.514 257.236 533.514 268.163 533.514 275.552 530.868 276.042 528.977 276.148 528.436 276.672 528.082 277.213 528.188 277.754 528.293 278.108 528.818 278.002 529.359L273.484 562.297C273.484 563.59 272.289 564.698 270.044 565.59 269.048 565.969 268.027 566.277 266.987 566.511 263.77 567.207 260.487 567.549 257.197 567.53ZM238.802 532.025 242.82 562.14C242.82 562.14 242.82 562.228 242.82 562.267 242.82 563.424 248.396 565.619 257.157 565.619 260.3 565.636 263.436 565.307 266.507 564.639 267.45 564.414 268.377 564.123 269.28 563.767 271.093 563.051 271.495 562.405 271.495 562.218L271.495 562.14 275.552 532.074C271.769 534.328 264.145 535.523 257.157 535.523 250.17 535.523 242.575 534.279 238.802 532.025Z" fill="#6CAE3E"/><path d="M257.197 535.474C247.916 535.474 237.499 533.367 236.479 529.477 236.479 529.477 236.479 529.388 236.479 529.349L236.479 528.947C236.475 528.905 236.475 528.862 236.479 528.82 236.479 524.488 247.436 521.47 257.275 521.47 267.114 521.47 277.982 524.488 277.982 528.82L277.982 528.947 277.924 529.349C277.928 529.392 277.928 529.434 277.924 529.477 276.885 533.367 266.467 535.474 257.197 535.474ZM238.39 529.026C238.998 530.917 246.368 533.514 257.197 533.514 268.026 533.514 275.385 530.917 275.993 529.026L275.993 528.761C275.895 526.86 268.163 523.43 257.197 523.43 246.23 523.43 238.498 526.86 238.361 528.761Z" fill="#6CAE3E"/><path d="M278.031 549.028C273.367 549.028 263.155 544.412 256.765 541.276L257.628 539.512C266.448 543.843 276.836 547.861 278.61 547.107 278.472 546.823 277.816 545.941 274.69 544.245L274.533 544.147 275.513 542.442 275.66 542.53C278.806 544.265 280.305 545.598 280.56 546.852 280.661 547.382 280.517 547.93 280.168 548.342 279.588 548.868 278.809 549.118 278.031 549.028Z" fill="#6CAE3E"/><path d="M257.197 542.54C256.022 542.54 255.07 541.588 255.07 540.413 255.07 539.239 256.022 538.287 257.197 538.287 258.371 538.287 259.323 539.239 259.323 540.413 259.318 541.586 258.369 542.535 257.197 542.54ZM257.197 540.247C257.105 540.241 257.026 540.311 257.02 540.403 257.02 540.407 257.02 540.41 257.02 540.413 257.02 540.6 257.363 540.6 257.363 540.413 257.374 540.322 257.309 540.239 257.217 540.228 257.21 540.228 257.204 540.227 257.197 540.227Z" fill="#6CAE3E"/><path d="M84.06 372.02 381.98 372.02 381.98 802.24 84.06 802.24Z" stroke="#6CAE3E" stroke-width="2.94" stroke-miterlimit="10" fill="none"/></g></svg>