<svg width="49" height="49" xmlns="http://www.w3.org/2000/svg" xmlns:xlink="http://www.w3.org/1999/xlink" xml:space="preserve" overflow="hidden"><g transform="translate(-534 -409)"><path d="M579.884 429.002 575.454 429.002 575.454 427.62C575.454 426.294 574.379 425.219 573.053 425.219L568.3 425.219C566.979 425.219 565.909 426.29 565.909 427.61L565.909 429.031 544.976 429.031C543.251 429.047 541.856 430.442 541.84 432.167L541.84 433 537.92 433C537.622 433.002 537.34 433.139 537.156 433.373 536.972 433.605 536.904 433.907 536.969 434.196L537.587 436.92 534.98 436.92C534.439 436.921 534.001 437.361 534.002 437.902 534.002 438.04 534.032 438.176 534.088 438.302L541.928 455.864C542.058 456.249 542.413 456.515 542.82 456.53L582.02 456.53C582.561 456.53 583 456.091 583 455.55L583 432.167C582.985 430.444 581.606 429.044 579.884 429.002ZM543.8 432.157C543.795 431.492 544.33 430.948 544.996 430.942 544.996 430.942 544.996 430.942 544.996 430.942L566.85 430.942C567.391 430.942 567.83 430.503 567.83 429.962L567.83 427.561C567.834 427.318 568.036 427.124 568.279 427.129 568.286 427.129 568.293 427.13 568.3 427.13L573.053 427.13C573.297 427.13 573.494 427.327 573.494 427.571 573.494 427.574 573.494 427.577 573.494 427.581L573.494 429.982C573.494 430.523 573.933 430.962 574.474 430.962L579.864 430.962C580.516 430.983 581.035 431.515 581.04 432.167L581.04 446.808 578.1 433.765C577.997 433.309 577.587 432.989 577.12 433L543.8 433ZM539.145 434.96 576.385 434.96 578.894 445.975 575.121 437.498C574.963 437.147 574.614 436.921 574.229 436.92L539.596 436.92ZM543.457 454.56 536.489 438.88 573.543 438.88 580.511 454.56Z" fill="#6CAE3E"/><path d="M538.9 422.23 538.9 424.19 540.86 424.19 540.86 422.23 541.84 422.23 541.84 424.19 543.8 424.19 543.8 422.23 544.78 422.23 544.78 424.19 546.74 424.19 546.74 422.23C547.281 422.23 547.72 421.791 547.72 421.25L549.68 421.25 549.68 419.29 547.72 419.29 547.72 418.31 549.68 418.31 549.68 416.35 547.72 416.35 547.72 415.37 549.68 415.37 549.68 413.41 547.72 413.41C547.72 412.869 547.281 412.43 546.74 412.43L546.74 410.47 544.78 410.47 544.78 412.43 543.8 412.43 543.8 410.47 541.84 410.47 541.84 412.43 540.86 412.43 540.86 410.47 538.9 410.47 538.9 412.43C538.359 412.43 537.92 412.869 537.92 413.41L535.96 413.41 535.96 415.37 537.92 415.37 537.92 416.35 535.96 416.35 535.96 418.31 537.92 418.31 537.92 419.29 535.96 419.29 535.96 421.25 537.92 421.25C537.92 421.791 538.359 422.23 538.9 422.23ZM539.88 414.39 545.76 414.39 545.76 420.27 539.88 420.27Z" fill="#6CAE3E"/><path d="M555.56 422.23 555.56 424.19 557.52 424.19 557.52 422.23 558.5 422.23 558.5 424.19 560.46 424.19 560.46 422.23 561.44 422.23 561.44 424.19 563.4 424.19 563.4 422.23C563.941 422.23 564.38 421.791 564.38 421.25L566.34 421.25 566.34 419.29 564.38 419.29 564.38 418.31 566.34 418.31 566.34 416.35 564.38 416.35 564.38 415.37 566.34 415.37 566.34 413.41 564.38 413.41C564.38 412.869 563.941 412.43 563.4 412.43L563.4 410.47 561.44 410.47 561.44 412.43 560.46 412.43 560.46 410.47 558.5 410.47 558.5 412.43 557.52 412.43 557.52 410.47 555.56 410.47 555.56 412.43C555.019 412.43 554.58 412.869 554.58 413.41L552.62 413.41 552.62 415.37 554.58 415.37 554.58 416.35 552.62 416.35 552.62 418.31 554.58 418.31 554.58 419.29 552.62 419.29 552.62 421.25 554.58 421.25C554.58 421.791 555.019 422.23 555.56 422.23ZM556.54 414.39 562.42 414.39 562.42 420.27 556.54 420.27Z" fill="#6CAE3E"/><path d="M583 415.37 583 413.41 581.04 413.41C581.04 412.869 580.601 412.43 580.06 412.43L580.06 410.47 578.1 410.47 578.1 412.43 577.12 412.43 577.12 410.47 575.16 410.47 575.16 412.43 574.18 412.43 574.18 410.47 572.22 410.47 572.22 412.43C571.679 412.43 571.24 412.869 571.24 413.41L569.28 413.41 569.28 415.37 571.24 415.37 571.24 416.35 569.28 416.35 569.28 418.31 571.24 418.31 571.24 419.29 569.28 419.29 569.28 421.25 571.24 421.25C571.24 421.791 571.679 422.23 572.22 422.23L572.22 424.19 574.18 424.19 574.18 422.23 575.16 422.23 575.16 424.19 577.12 424.19 577.12 422.23 578.1 422.23 578.1 424.19 580.06 424.19 580.06 422.23C580.601 422.23 581.04 421.791 581.04 421.25L583 421.25 583 419.29 581.04 419.29 581.04 418.31 583 418.31 583 416.35 581.04 416.35 581.04 415.37ZM579.08 420.27 573.2 420.27 573.2 414.39 579.08 414.39Z" fill="#6CAE3E"/></g></svg>