<svg width="50" height="49" xmlns="http://www.w3.org/2000/svg" xmlns:xlink="http://www.w3.org/1999/xlink" xml:space="preserve" overflow="hidden"><defs><clipPath id="clip0"><rect x="288" y="409" width="50" height="49"/></clipPath></defs><g clip-path="url(#clip0)" transform="translate(-288 -409)"><path d="M36.505 8.0262 12.6224 8.0262C12.2315 8.02756 11.8772 7.79648 11.7208 7.4382 11.5641 7.08169 11.6333 6.66621 11.8972 6.3798L16.1406 1.7836C16.3276 1.58193 16.5908 1.46814 16.8658 1.47L32.2616 1.47C32.5332 1.47087 32.7923 1.58444 32.977 1.7836L37.24 6.3798C37.5072 6.66408 37.5804 7.07979 37.4262 7.4382 37.2671 7.80311 36.903 8.0355 36.505 8.0262ZM14.8568 6.0662 34.3 6.0662 31.8304 3.43 17.297 3.43Z" fill="#6CAE3E" transform="matrix(1.02041 0 0 1 288 409)"/><path d="M37.485 13.475 35.525 13.475 35.525 11.7012 13.6024 11.7012 13.6024 13.475 11.6424 13.475 11.6424 10.7212C11.6424 10.18 12.0812 9.7412 12.6224 9.7412L36.505 9.7412C37.0462 9.7412 37.485 10.18 37.485 10.7212Z" fill="#6CAE3E" transform="matrix(1.02041 0 0 1 288 409)"/><path d="M24.5 47.53C19.6 47.53 12.3186 46.4324 12.201 43.4238L8.9278 19.0806C8.82226 18.5394 9.17546 18.015 9.7167 17.9095 10.2579 17.804 10.7823 18.1572 10.8878 18.6984 11.1818 19.992 16.66 21.8638 24.5 21.8638 32.34 21.8638 37.828 19.992 38.22 18.6984 38.3255 18.1572 38.8499 17.804 39.3911 17.9095 39.9323 18.015 40.2855 18.5394 40.18 19.0806L36.8186 43.4238C36.8186 44.492 35.8386 45.3838 34.1138 46.0796 33.3627 46.3606 32.5932 46.5898 31.8108 46.7656 29.4092 47.2875 26.9576 47.5439 24.5 47.53ZM11.2308 21.56 14.1708 43.267C14.1708 43.267 14.1708 43.3552 14.1708 43.4042 14.4158 44.1 18.5416 45.57 24.5 45.57 26.806 45.5845 29.1066 45.3446 31.36 44.8546 32.0463 44.7036 32.7209 44.5038 33.3788 44.2568 34.692 43.7374 34.8488 43.3258 34.8488 43.3258 34.8444 43.29 34.8444 43.2538 34.8488 43.218L37.7888 21.5012C34.5744 23.1672 28.714 23.8238 24.5098 23.8238 20.3056 23.8238 14.455 23.1672 11.2308 21.56Z" fill="#6CAE3E" transform="matrix(1.02041 0 0 1 288 409)"/><path d="M24.5 23.8238C18.7376 23.8238 9.8 22.589 8.9474 19.1982L8.9474 19.0806 8.9474 18.7768C8.9474 18.7278 8.9474 18.6886 8.9474 18.6494 8.9474 15.2488 17.0324 12.9556 24.6274 12.9556 32.2224 12.9556 40.18 15.2488 40.18 18.62L40.18 18.7474 40.18 19.0512 40.18 19.1688C39.2 22.589 30.282 23.8238 24.5 23.8238ZM10.8584 18.7474C11.3092 20.0312 16.7384 21.8638 24.5098 21.8638 32.2812 21.8638 37.7202 20.0312 38.1612 18.7474L38.22 18.62C38.0828 17.493 32.8104 14.9352 24.549 14.9352 16.2876 14.9352 10.976 17.4734 10.8486 18.62Z" fill="#6CAE3E" transform="matrix(1.02041 0 0 1 288 409)"/><path d="M39.9252 33.8198C37.6712 33.8198 33.0652 32.5066 24.0786 28.0868L24.941 26.3228C30.821 29.2138 37.7986 31.9774 39.8664 31.9774 39.1146 31.2983 38.2739 30.7247 37.3674 30.2722L37.24 30.2134 38.22 28.4984 38.3278 28.5572C40.7582 29.8998 41.8852 30.9092 42.0714 31.9382 42.158 32.4052 42.0323 32.8864 41.7284 33.2514 41.2411 33.6984 40.5808 33.9065 39.9252 33.8198Z" fill="#6CAE3E" transform="matrix(1.02041 0 0 1 288 409)"/><path d="M24.5 29.0374C23.4879 29.0374 22.6674 28.2169 22.6674 27.2048 22.6674 26.1927 23.4879 25.3722 24.5 25.3722 25.5121 25.3722 26.3326 26.1927 26.3326 27.2048 26.3326 28.2169 25.5121 29.0374 24.5 29.0374ZM24.5 27.0774C24.4296 27.0774 24.3726 27.1344 24.3726 27.2048 24.3726 27.3518 24.6372 27.3518 24.6372 27.2048 24.6374 27.1344 24.5805 27.0772 24.5102 27.077 24.5068 27.077 24.5034 27.0771 24.5 27.0774Z" fill="#6CAE3E" transform="matrix(1.02041 0 0 1 288 409)"/><path d="M-12.74-10.78 285.18-10.78 285.18 419.44-12.74 419.44Z" stroke="#6CAE3E" stroke-width="2.94" stroke-miterlimit="10" fill="none" transform="matrix(1.02041 0 0 1 288 409)"/></g></svg>