<svg width="50" height="50" xmlns="http://www.w3.org/2000/svg" xmlns:xlink="http://www.w3.org/1999/xlink" xml:space="preserve" overflow="hidden"><defs><clipPath id="clip0"><rect x="608" y="413" width="50" height="50"/></clipPath></defs><g clip-path="url(#clip0)" transform="translate(-608 -413)"><path d="M650.84 461.5 615.22 461.5C614.668 461.5 614.22 461.052 614.22 460.5L614.22 427.69C614.22 427.138 614.668 426.69 615.22 426.69L650.84 426.69C651.392 426.69 651.84 427.138 651.84 427.69L651.84 460.5C651.84 461.052 651.392 461.5 650.84 461.5ZM616.22 459.5 649.84 459.5 649.84 428.69 616.22 428.69Z" fill="#6CAE3E"/><path d="M650.84 424.94 615.16 424.94C614.778 424.941 614.428 424.723 614.26 424.38 614.111 424.053 614.149 423.671 614.36 423.38L620.7 414.9C620.889 414.648 621.185 414.5 621.5 414.5L644.5 414.5C644.815 414.5 645.111 414.648 645.3 414.9L651.64 423.34C651.851 423.631 651.889 424.013 651.74 424.34 651.583 424.699 651.232 424.934 650.84 424.94ZM617.16 422.94 648.84 422.94 644 416.5 622 416.5Z" fill="#6CAE3E"/><path d="M638 437.23C635.235 434.535 630.825 434.535 628.06 437.23L626.66 435.8C630.205 432.348 635.855 432.348 639.4 435.8Z" fill="#6CAE3E"/><path d="M630.72 451.16C626.696 450.117 623.884 446.487 623.88 442.33 623.881 441.435 624.016 440.545 624.28 439.69L626.19 440.28C625.043 444.024 627.148 447.989 630.892 449.136 630.991 449.166 631.09 449.194 631.19 449.22Z" fill="#6CAE3E"/><path d="M635.28 451.16 634.78 449.22C638.57 448.237 640.847 444.368 639.864 440.578 639.838 440.478 639.81 440.379 639.78 440.28L641.69 439.69C641.954 440.545 642.089 441.435 642.09 442.33 642.09 446.479 639.293 450.106 635.28 451.16Z" fill="#6CAE3E"/><path d="M632.03 446.44 634.03 446.44 634.03 454.88 632.03 454.88Z" fill="#6CAE3E"/><path d="M635.927 439.286 643.756 434.767 644.756 436.499 636.926 441.018Z" fill="#6CAE3E"/><path d="M621.331 436.426 622.331 434.686 630.195 439.206 629.195 440.946Z" fill="#6CAE3E"/><path d="M633 447.39C630.205 447.39 627.94 445.125 627.94 442.33 627.94 439.535 630.205 437.27 633 437.27 635.795 437.27 638.06 439.535 638.06 442.33 638.055 445.122 635.792 447.384 633 447.39ZM633 439.27C631.31 439.27 629.94 440.64 629.94 442.33 629.94 444.02 631.31 445.39 633 445.39 634.69 445.39 636.06 444.02 636.06 442.33 636.06 440.64 634.69 439.27 633 439.27Z" fill="#6CAE3E"/><path d="M455 332 759 332 759 771 455 771Z" stroke="#6CAE3E" stroke-width="3" stroke-miterlimit="10" fill="none"/></g></svg>