<svg width="49" height="49" xmlns="http://www.w3.org/2000/svg" xmlns:xlink="http://www.w3.org/1999/xlink" xml:space="preserve" overflow="hidden"><defs><clipPath id="clip0"><rect x="293" y="517" width="49" height="49"/></clipPath></defs><g clip-path="url(#clip0)" transform="translate(-293 -517)"><path d="M334.983 564.53 300.076 564.53C299.534 564.53 299.096 564.091 299.096 563.55L299.096 531.396C299.096 530.855 299.534 530.416 300.076 530.416L334.983 530.416C335.524 530.416 335.963 530.855 335.963 531.396L335.963 563.55C335.963 564.091 335.524 564.53 334.983 564.53ZM301.056 562.57 334.003 562.57 334.003 532.376 301.056 532.376Z" fill="#6CAE3E"/><path d="M334.983 528.701 300.017 528.701C299.642 528.702 299.3 528.489 299.135 528.152 298.989 527.832 299.026 527.458 299.233 527.172L305.446 518.862C305.631 518.615 305.922 518.47 306.23 518.47L328.77 518.47C329.078 518.47 329.369 518.615 329.554 518.862L335.767 527.133C335.974 527.419 336.011 527.793 335.865 528.113 335.712 528.465 335.367 528.695 334.983 528.701ZM301.977 526.741 333.023 526.741 328.28 520.43 306.72 520.43Z" fill="#6CAE3E"/><path d="M143.06 506.22 440.98 506.22 440.98 936.44 143.06 936.44Z" stroke="#6CAE3E" stroke-width="2.94" stroke-miterlimit="10" fill="none"/></g></svg>