<?xml version="1.0" encoding="UTF-8" standalone="no"?>
<!-- Created with Inkscape (http://www.inkscape.org/) -->

<svg
   xmlns:dc="http://purl.org/dc/elements/1.1/"
   xmlns:cc="http://creativecommons.org/ns#"
   xmlns:rdf="http://www.w3.org/1999/02/22-rdf-syntax-ns#"
   xmlns:svg="http://www.w3.org/2000/svg"
   xmlns="http://www.w3.org/2000/svg"
   xmlns:sodipodi="http://sodipodi.sourceforge.net/DTD/sodipodi-0.dtd"
   xmlns:inkscape="http://www.inkscape.org/namespaces/inkscape"
   width="186.2592mm"
   height="35.713654mm"
   viewBox="0 0 186.2592 35.713654"
   version="1.1"
   id="svg8"
   inkscape:version="0.92.3 (2405546, 2018-03-11)"
   sodipodi:docname="dd-wrt.svg">
  <defs
     id="defs2" />
  <sodipodi:namedview
     id="base"
     pagecolor="#ffffff"
     bordercolor="#666666"
     borderopacity="1.0"
     inkscape:pageopacity="0.0"
     inkscape:pageshadow="2"
     inkscape:zoom="1.4"
     inkscape:cx="217.67266"
     inkscape:cy="-131.75196"
     inkscape:document-units="mm"
     inkscape:current-layer="layer1"
     showgrid="false"
     fit-margin-top="0"
     fit-margin-left="0"
     fit-margin-right="0"
     fit-margin-bottom="0"
     inkscape:window-width="2560"
     inkscape:window-height="1514"
     inkscape:window-x="0"
     inkscape:window-y="28"
     inkscape:window-maximized="1" />
  <metadata
     id="metadata5">
    <rdf:RDF>
      <cc:Work
         rdf:about="">
        <dc:format>image/svg+xml</dc:format>
        <dc:type
           rdf:resource="http://purl.org/dc/dcmitype/StillImage" />
        <dc:title></dc:title>
      </cc:Work>
    </rdf:RDF>
  </metadata>
  <g
     inkscape:label="Layer 1"
     inkscape:groupmode="layer"
     id="layer1"
     transform="translate(-51.916171,122.64448)">
    <path
       style="fill:#000000;stroke-width:0.35277778"
       d="m 57.654465,-87.307125 c -2.55971,-0.405871 -4.01716,-1.344351 -4.952,-3.188698 -0.68864,-1.358611 -0.79272,-2.104994 -0.786,-5.636373 0.009,-4.610584 0.51387,-6.257824 2.40741,-7.851134 1.64166,-1.38136 4.07658,-1.77505 10.10845,-1.63435 4.7006,0.10964 5.43943,0.21076 6.61458,0.90528 l 1.32292,0.78185 v -4.59551 -4.5955 l 1.32292,0.10948 1.32291,0.1095 v 12.87638 12.876393 l -1.32291,0.109491 c -1.21524,0.100577 -1.32292,0.03539 -1.32292,-0.800922 v -0.91041 l -1.49931,0.766117 c -1.28953,0.658926 -2.19032,0.78038 -6.43819,0.868056 -2.71639,0.05607 -5.76643,-0.02928 -6.77786,-0.18965 z m 11.88611,-2.753646 c 0.67522,-0.339249 1.60037,-1.172439 2.05588,-1.851536 0.75874,-1.131168 0.8185,-1.537558 0.71259,-4.845618 l -0.11561,-3.610895 -1.32782,-1.32799 -1.32782,-1.328 -5.41667,-0.11235 c -6.1876,-0.12834 -7.50065,0.19246 -8.67559,2.1196 -1.03787,1.70231 -1.03837,7.68794 -7.1e-4,9.389786 1.11182,1.823596 2.32433,2.155507 7.92924,2.170553 4.01752,0.0108 5.16792,-0.101808 6.16658,-0.60355 z m 12.17786,2.791707 c -2.06741,-0.279922 -3.86217,-1.246216 -4.90201,-2.639222 -0.6552,-0.877722 -0.75478,-1.56167 -0.8475,-5.820834 -0.097,-4.45395 -0.0425,-4.9487 0.70555,-6.41374 0.56678,-1.10996 1.28817,-1.8528 2.39813,-2.46945 1.5287,-0.84928 1.82268,-0.88194 7.9375,-0.88194 5.90832,0 6.44129,0.054 7.66251,0.77571 l 1.31251,0.77571 0.0986,-4.47988 0.0986,-4.47987 1.32292,-0.1095 1.32291,-0.10948 v 13.09536 13.095372 l -1.32291,-0.109488 c -1.03171,-0.08539 -1.34621,-0.272563 -1.42871,-0.850275 l -0.10579,-0.740788 -1.45212,0.718453 c -1.21227,0.599786 -2.2436,0.732014 -6.24421,0.80057 -2.63565,0.04517 -5.58584,-0.02537 -6.55598,-0.156708 z m 11.7182,-2.762924 c 2.06136,-0.978185 2.56726,-2.219847 2.56278,-6.290042 -0.004,-3.97387 -0.31699,-4.88723 -2.07926,-6.07483 -1.1097,-0.74782 -1.56267,-0.80434 -6.44711,-0.80434 -7.65854,0 -8.68493,0.68259 -9.0179,5.997226 -0.19822,3.163955 0.33647,5.417718 1.55273,6.544913 1.14105,1.057487 1.47463,1.110855 7.30169,1.168157 3.90615,0.03841 5.13446,-0.07006 6.12707,-0.541084 z m 19.106145,1.382875 c -1.24213,-2.874109 -6.65906,-16.523017 -6.65906,-16.778667 0,-0.13357 0.62359,-0.24286 1.38576,-0.24286 1.36474,0 1.39716,0.0308 2.13693,2.02847 1.39377,3.763798 4.95191,12.607775 5.28281,13.130757 0.1806,0.285422 0.42326,0.42405 0.53925,0.308064 0.11598,-0.11599 1.29328,-3.048265 2.6162,-6.516173 3.771,-9.885278 3.25775,-9.009028 5.20284,-8.882648 1.9087,0.12401 1.29046,-0.98205 5.17976,9.266791 1.24894,3.291131 2.42106,6.033961 2.60472,6.095178 0.18365,0.06122 1.74948,-3.425274 3.47962,-7.747762 l 3.14572,-7.859067 0.18286,2.82222 0.18287,2.82223 0.78919,-1.76389 c 0.43405,-0.97014 1.0163,-2.24014 1.29388,-2.82223 l 0.50469,-1.05833 0.0226,1.20802 0.0225,1.20803 0.82545,-0.77548 c 1.20153,-1.12877 2.7742,-1.46418 6.86531,-1.46418 6.30672,0 8.75078,1.1983 9.79911,4.80444 0.70252,2.416582 0.51445,2.95667 -1.02954,2.95667 -1.13429,0 -1.2136,-0.08057 -1.43364,-1.456661 -0.27499,-1.719669 -1.74955,-3.278599 -3.41653,-3.611999 -2.02783,-0.40557 -7.35276,-0.24292 -8.53469,0.26069 -0.62435,0.26604 -1.53207,0.91342 -2.01714,1.43863 -0.86666,0.93838 -0.88384,1.07056 -0.99152,7.630187 l -0.10957,6.675265 h -1.3812 -1.3812 l -0.0967,-5.883067 -0.0967,-5.883067 -2.30738,5.794872 -2.30737,5.794873 -1.80034,0.105332 -1.80034,0.105333 -1.12177,-2.927555 c -0.61697,-1.610156 -1.92834,-5.07068 -2.91416,-7.690055 -0.98581,-2.619378 -1.90959,-4.896298 -2.05283,-5.059818 -0.21529,-0.24577 -2.87891,6.167226 -5.80135,13.967457 l -0.62782,1.675695 h -1.7285 c -1.72523,0 -1.72986,-0.0032 -2.45269,-1.675695 z m 51.65865,1.330106 c -2.04117,-0.43629 -3.19367,-1.275259 -4.08198,-2.971493 -0.66381,-1.267544 -0.76867,-2.118321 -0.85205,-6.913474 -0.0523,-3.007426 -0.0994,-5.587116 -0.10466,-5.732636 -0.005,-0.14552 -0.48583,-0.26459 -1.06791,-0.26459 -0.97062,0 -1.05833,-0.10047 -1.05833,-1.21237 0,-1.10767 0.0982,-1.22192 1.13699,-1.32291 l 1.137,-0.11055 -0.1086,-3.0868 -0.10859,-3.08681 h 1.44104 1.44104 v 3.175 3.175 h 7.07791 7.07791 l -0.11055,1.14653 -0.11054,1.14653 -6.96736,0.0956 -6.96737,0.0957 0.008,4.666843 c 0.0146,8.106237 0.4468,8.83479 5.35422,9.025774 5.20456,0.202551 7.33734,-0.92449 7.33734,-3.877335 v -1.363536 h 1.55393 1.55394 l -0.18381,1.499306 c -0.27975,2.28195 -1.6011,4.306877 -3.36882,5.162614 -1.74515,0.844811 -7.55874,1.281652 -10.02919,0.753603 z m 14.70729,-1.216046 c 0,-1.284065 0.48411,-1.599402 2.02847,-1.321283 0.63858,0.115002 0.79375,0.37628 0.79375,1.336544 0,1.157344 -0.0429,1.193596 -1.41111,1.193596 -1.37176,0 -1.41111,-0.03373 -1.41111,-1.208857 z m 6.47594,0.859049 c -1.45932,-0.588906 -1.88983,-1.714687 -1.88983,-4.941859 0,-3.428252 0.4186,-4.354819 2.32783,-5.152542 1.39161,-0.581455 6.75866,-0.658745 8.68043,-0.125006 1.40439,0.390045 2.75007,1.787408 2.75007,2.855679 0,1.015901 -1.29011,0.835339 -1.55437,-0.217547 -0.34973,-1.393465 -1.88458,-1.946868 -5.39547,-1.945376 -2.47218,0.0011 -3.3378,0.143669 -4.25085,0.70037 -1.13862,0.694231 -1.14653,0.718376 -1.14653,3.50126 0,4.007823 0.67182,4.549298 5.64444,4.549298 3.57419,0 4.52765,-0.321101 5.04817,-1.700099 0.41821,-1.107976 1.65461,-1.487756 1.65461,-0.50824 0,0.990829 -0.98952,2.483707 -1.93042,2.91241 -1.06927,0.487196 -8.77077,0.54272 -9.93808,0.07165 z m 16.27822,0.03062 c -1.62804,-0.699347 -2.11153,-1.731578 -2.22236,-4.744671 -0.18683,-5.07963 1.21014,-6.089185 8.01333,-5.791063 3.59682,0.157614 3.6954,0.184613 4.67431,1.280203 0.93132,1.042313 1,1.32437 1,4.106661 0,2.801564 -0.064,3.059176 -1.02853,4.139572 l -1.02854,1.152095 -4.35132,0.08013 c -2.39323,0.04407 -4.66883,-0.05625 -5.05689,-0.222945 z m 8.03618,-1.062366 c 1.68042,-0.638905 2.01799,-1.316433 2.01799,-4.050206 0,-2.29385 -0.0942,-2.647658 -0.90888,-3.412995 -0.76635,-0.719945 -1.33542,-0.87322 -3.62868,-0.977364 -1.49588,-0.06793 -3.38252,0.05495 -4.19253,0.273057 -1.27699,0.343856 -1.52122,0.571102 -1.83742,1.709621 -0.81874,2.94802 -0.25565,5.489131 1.40224,6.32798 1.01685,0.514502 5.90217,0.603285 7.14728,0.129893 z m 5.54577,-4.086504 v -5.468055 h 0.88194 c 0.63001,0 0.88194,0.190683 0.88194,0.667526 0,0.649929 0.0349,0.649199 1.32292,-0.02769 1.78366,-0.937338 6.04831,-0.708001 7.5555,0.406308 l 0.99936,0.738861 0.97014,-0.713348 c 1.20685,-0.887409 3.64094,-1.237993 6.29395,-0.906519 1.55245,0.193964 2.26233,0.487563 3.02649,1.251715 0.98568,0.98569 0.99831,1.052227 0.99831,5.258792 0,4.025282 -0.0389,4.260469 -0.70556,4.260469 -0.66439,0 -0.70555,-0.235187 -0.70555,-4.03134 0,-3.977548 -0.013,-4.041528 -0.97014,-4.794839 -0.85372,-0.671873 -1.32316,-0.749029 -3.91175,-0.642934 -4.06257,0.166511 -4.29033,0.465275 -4.29033,5.627638 0,3.606288 -0.0432,3.841475 -0.70556,3.841475 -0.66043,0 -0.70556,-0.235187 -0.70556,-3.677098 0,-3.441224 -0.0586,-3.746726 -0.9133,-4.7625 -0.87893,-1.044551 -1.01895,-1.085402 -3.7202,-1.085402 -2.50979,0 -2.89856,0.09166 -3.67281,0.86591 -0.81483,0.814832 -0.86591,1.095749 -0.86591,4.7625 v 3.89659 h -0.88194 -0.88194 z m -114.65278,-3.175 v -1.234722 h 2.99861 2.99861 v 1.234722 1.234722 h -2.99861 -2.99861 z M 61.786495,-118.89981 c 0,-1.99907 0.14235,-3.35139 0.35277,-3.35139 0.21043,0 0.35278,1.35232 0.35278,3.35139 0,1.99908 -0.14235,3.35139 -0.35278,3.35139 -0.21042,0 -0.35277,-1.35231 -0.35277,-3.35139 z m 7.76111,0 c 0,-2.74382 0.0959,-3.35139 0.52916,-3.35139 0.43324,0 0.52917,0.60757 0.52917,3.35139 0,2.74383 -0.0959,3.35139 -0.52917,3.35139 -0.43323,0 -0.52916,-0.60756 -0.52916,-3.35139 z m 7.64352,3.11621 c -0.12936,-0.12935 -0.23519,-1.63748 -0.23519,-3.35139 0,-3.08877 0.008,-3.11621 0.88195,-3.11621 0.87885,0 0.88194,0.0118 0.88194,3.35139 0,3.01465 -0.065,3.35139 -0.64676,3.35139 -0.35572,0 -0.75259,-0.10583 -0.88194,-0.23518 z m 7.52592,-3.11621 v -3.35139 h 1.05834 1.05833 v 3.35139 3.35139 h -1.05833 -1.05834 z m 7.71711,1.85209 c -0.0242,-0.82462 -0.0639,-2.33272 -0.0882,-3.35134 l -0.0442,-1.85202 1.32292,-6e-5 1.32292,-6e-5 v 3.35139 3.35139 h -1.23472 c -1.21053,0 -1.23559,-0.0294 -1.27873,-1.4993 z m 7.45234,-1.8318 v -3.37168 h 1.600745 1.60073 l -0.10143,3.2632 -0.10143,3.26319 -1.49931,0.10848 -1.499305,0.10848 z m 7.659785,3.11218 c -0.1383,-0.1383 -0.25145,-1.65374 -0.25145,-3.36765 v -3.11621 h 1.95352 1.95351 l -0.10143,3.2632 -0.10143,3.26319 -1.60064,0.10446 c -0.88035,0.0575 -1.71379,-0.009 -1.85208,-0.14699 z m 7.50966,-3.13247 v -3.35139 h 1.94028 1.94028 v 3.35139 3.35139 h -1.94028 -1.94028 z m 7.40833,0 v -3.35139 h 2.29306 2.29305 v 3.35139 3.35139 h -2.29305 -2.29306 z m 7.76111,0 v -3.35139 h 2.46945 2.46944 v 3.35139 3.35139 h -2.46944 -2.46945 z m 7.40834,0 v -3.35139 h 2.82222 2.82222 v 3.35139 3.35139 h -2.82222 -2.82222 z m 7.76111,0.0143 v -3.36565 h 3.01185 3.01185 l -0.10143,3.26319 -0.10144,3.2632 -2.91041,0.10246 -2.91042,0.10246 z m 7.65621,3.11463 c -0.13633,-0.13633 -0.24788,-1.65017 -0.24788,-3.36408 v -3.1162 h 3.36463 3.36463 l -0.10143,3.26319 -0.10144,3.2632 -3.01532,0.10088 c -1.65842,0.0555 -3.12686,-0.0106 -3.26319,-0.14699 z m 7.86601,-3.30528 v -3.55333 l 3.43958,0.10097 3.43959,0.10097 v 3.35139 3.35139 l -3.43959,0.10096 -3.43958,0.10097 z m 7.76111,0 v -3.52778 h 2.99861 2.99861 v 3.52778 3.52777 h -2.99861 -2.99861 z m 7.76111,0 v -3.52778 h 2.64584 2.64583 v 3.52778 3.52777 h -2.64583 -2.64584 z m 7.48376,0.0882 0.10096,-3.43959 2.38125,-0.10431 2.38125,-0.10431 v 3.54389 3.5439 h -2.48221 -2.48222 z m 7.68569,-0.0882 v -3.52778 h 2.11666 2.11667 v 3.52778 3.52777 h -2.11667 -2.11666 z m 7.76111,-0.0193 v -3.54711 l 1.67569,0.10752 1.6757,0.10753 0.10097,3.43958 0.10096,3.43958 h -1.77666 -1.77666 z m 7.40833,-9.6e-4 v -3.54806 l 1.49931,0.10848 1.4993,0.10848 0.10097,3.43958 0.10097,3.43959 h -1.60027 l -1.60028,-1e-5 z m 7.76111,0.0203 v -3.52777 h 1.23472 1.23472 v 3.52777 3.52778 h -1.23472 -1.23472 z m 7.76111,0 c 0,-3.29259 0.047,-3.52777 0.70555,-3.52777 0.65852,0 0.70556,0.23518 0.70556,3.52777 0,3.2926 -0.047,3.52778 -0.70556,3.52778 -0.65852,0 -0.70555,-0.23518 -0.70555,-3.52778 z m 7.69374,3.2632 c -0.06,-0.14552 -0.10902,-1.67918 -0.10902,-3.40813 0,-2.20016 0.13234,-3.18828 0.44097,-3.29259 0.33348,-0.11272 0.44098,0.71808 0.44098,3.40813 0,1.98753 -0.14649,3.55717 -0.33196,3.55717 -0.18258,0 -0.38102,-0.11906 -0.44097,-0.26458 z"
       id="path880"
       inkscape:connector-curvature="0" />
  </g>
</svg>
