<?xml version="1.0" encoding="UTF-8" standalone="no"?>
<!-- Created with Inkscape (http://www.inkscape.org/) -->
<svg
   xmlns:dc="http://purl.org/dc/elements/1.1/"
   xmlns:cc="http://creativecommons.org/ns#"
   xmlns:rdf="http://www.w3.org/1999/02/22-rdf-syntax-ns#"
   xmlns:svg="http://www.w3.org/2000/svg"
   xmlns="http://www.w3.org/2000/svg"
   xmlns:xlink="http://www.w3.org/1999/xlink"
   xmlns:sodipodi="http://sodipodi.sourceforge.net/DTD/sodipodi-0.dtd"
   xmlns:inkscape="http://www.inkscape.org/namespaces/inkscape"
   width="48"
   height="48"
   id="svg2"
   sodipodi:version="0.32"
   inkscape:version="0.46"
   version="1.0"
   sodipodi:docname="network-server-ldap.svg"
   inkscape:output_extension="org.inkscape.output.svg.inkscape"
   inkscape:export-filename="/home/bellaich/Desktop/network-server-ldap.png"
   inkscape:export-xdpi="90"
   inkscape:export-ydpi="90"
   sodipodi:docbase="/home/bellaich/Desktop/network-items/scalable">
  <defs
     id="defs4">
    <inkscape:perspective
       sodipodi:type="inkscape:persp3d"
       inkscape:vp_x="0 : 24 : 1"
       inkscape:vp_y="0 : 1000 : 0"
       inkscape:vp_z="48 : 24 : 1"
       inkscape:persp3d-origin="24 : 16 : 1"
       id="perspective130" />
    <linearGradient
       inkscape:collect="always"
       id="linearGradient4768">
      <stop
         style="stop-color:#ffffff;stop-opacity:1;"
         offset="0"
         id="stop4770" />
      <stop
         style="stop-color:#ffffff;stop-opacity:0;"
         offset="1"
         id="stop4772" />
    </linearGradient>
    <linearGradient
       inkscape:collect="always"
       id="linearGradient3691">
      <stop
         style="stop-color:#555753;stop-opacity:1;"
         offset="0"
         id="stop3693" />
      <stop
         style="stop-color:#555753;stop-opacity:0;"
         offset="1"
         id="stop3695" />
    </linearGradient>
    <linearGradient
       id="linearGradient3683">
      <stop
         style="stop-color:#888a85;stop-opacity:1;"
         offset="0"
         id="stop3685" />
      <stop
         style="stop-color:#888a85;stop-opacity:0;"
         offset="1"
         id="stop3687" />
    </linearGradient>
    <linearGradient
       inkscape:collect="always"
       id="linearGradient4132">
      <stop
         style="stop-color:#eeeeec;stop-opacity:1;"
         offset="0"
         id="stop4134" />
      <stop
         style="stop-color:#eeeeec;stop-opacity:0;"
         offset="1"
         id="stop4136" />
    </linearGradient>
    <linearGradient
       id="linearGradient5048">
      <stop
         id="stop5050"
         offset="0"
         style="stop-color:black;stop-opacity:0;" />
      <stop
         style="stop-color:black;stop-opacity:1;"
         offset="0.5"
         id="stop5056" />
      <stop
         id="stop5052"
         offset="1"
         style="stop-color:black;stop-opacity:0;" />
    </linearGradient>
    <linearGradient
       id="linearGradient5060"
       inkscape:collect="always">
      <stop
         id="stop5062"
         offset="0"
         style="stop-color:black;stop-opacity:1;" />
      <stop
         id="stop5064"
         offset="1"
         style="stop-color:black;stop-opacity:0;" />
    </linearGradient>
    <linearGradient
       inkscape:collect="always"
       xlink:href="#linearGradient4132"
       id="linearGradient4138"
       x1="3.6666656"
       y1="13.666667"
       x2="10.303582"
       y2="20.303581"
       gradientUnits="userSpaceOnUse" />
    <linearGradient
       id="linearGradient3942">
      <stop
         id="stop3944"
         offset="0"
         style="stop-color:#888a85;stop-opacity:1" />
      <stop
         id="stop3946"
         offset="1"
         style="stop-color:#eeeeec;stop-opacity:1" />
    </linearGradient>
    <linearGradient
       id="linearGradient2833">
      <stop
         style="stop-color:#959595;stop-opacity:1;"
         offset="0"
         id="stop2835" />
      <stop
         style="stop-color:white;stop-opacity:0.85576922;"
         offset="1"
         id="stop2837" />
    </linearGradient>
    <linearGradient
       id="linearGradient4175"
       inkscape:collect="always">
      <stop
         id="stop4177"
         offset="0"
         style="stop-color:#d3d7cf;stop-opacity:1" />
      <stop
         id="stop4179"
         offset="1"
         style="stop-color:#eeeeec;stop-opacity:1" />
    </linearGradient>
    <linearGradient
       id="linearGradient4227">
      <stop
         style="stop-color:#d7d7d7;stop-opacity:1;"
         offset="0"
         id="stop4229" />
      <stop
         style="stop-color:#eeeeec;stop-opacity:1"
         offset="1"
         id="stop4231" />
    </linearGradient>
    <linearGradient
       id="linearGradient4233">
      <stop
         style="stop-color:#d7d7d7;stop-opacity:1;"
         offset="0"
         id="stop4235" />
      <stop
         style="stop-color:#eeeeec;stop-opacity:1"
         offset="1"
         id="stop4237" />
    </linearGradient>
    <linearGradient
       id="linearGradient4241"
       inkscape:collect="always">
      <stop
         id="stop4243"
         offset="0"
         style="stop-color:black;stop-opacity:1;" />
      <stop
         id="stop4245"
         offset="1"
         style="stop-color:black;stop-opacity:0;" />
    </linearGradient>
    <linearGradient
       y2="31.250401"
       x2="57.49662"
       y1="38.277283"
       x1="57.49662"
       gradientTransform="translate(10,0)"
       gradientUnits="userSpaceOnUse"
       id="linearGradient3652"
       xlink:href="#linearGradient4241"
       inkscape:collect="always" />
    <linearGradient
       y2="31.250401"
       x2="57.49662"
       y1="38.277283"
       x1="57.49662"
       gradientTransform="translate(8,0)"
       gradientUnits="userSpaceOnUse"
       id="linearGradient3650"
       xlink:href="#linearGradient4241"
       inkscape:collect="always" />
    <linearGradient
       y2="31.250401"
       x2="57.49662"
       y1="38.277283"
       x1="57.49662"
       gradientTransform="translate(6,0)"
       gradientUnits="userSpaceOnUse"
       id="linearGradient3648"
       xlink:href="#linearGradient4241"
       inkscape:collect="always" />
    <linearGradient
       y2="31.250401"
       x2="57.49662"
       y1="38.277283"
       x1="57.49662"
       gradientTransform="translate(4,0)"
       gradientUnits="userSpaceOnUse"
       id="linearGradient3646"
       xlink:href="#linearGradient4241"
       inkscape:collect="always" />
    <linearGradient
       y2="31.250401"
       x2="57.49662"
       y1="38.277283"
       x1="57.49662"
       gradientTransform="translate(2,0)"
       gradientUnits="userSpaceOnUse"
       id="linearGradient3644"
       xlink:href="#linearGradient4241"
       inkscape:collect="always" />
    <linearGradient
       y2="31.250401"
       x2="57.49662"
       y1="38.277283"
       x1="57.49662"
       gradientUnits="userSpaceOnUse"
       id="linearGradient3642"
       xlink:href="#linearGradient4241"
       inkscape:collect="always" />
    <linearGradient
       gradientTransform="translate(-40,-1)"
       y2="6.5458651"
       x2="53.61911"
       y1="6.5458651"
       x1="73.05397"
       gradientUnits="userSpaceOnUse"
       id="linearGradient3640"
       xlink:href="#linearGradient3859"
       inkscape:collect="always" />
    <linearGradient
       gradientTransform="translate(-40,-1)"
       y2="72.082878"
       x2="60.426777"
       y1="18.520107"
       x1="60.426777"
       gradientUnits="userSpaceOnUse"
       id="linearGradient3638"
       xlink:href="#linearGradient4175"
       inkscape:collect="always" />
    <linearGradient
       y2="10.868282"
       x2="24.92893"
       y1="12.001067"
       x1="24.92893"
       gradientTransform="matrix(0.882353,0,0,1,2.70589,1)"
       gradientUnits="userSpaceOnUse"
       id="linearGradient3636"
       xlink:href="#linearGradient4233"
       inkscape:collect="always" />
    <linearGradient
       y2="17.762573"
       x2="24.92893"
       y1="19.00001"
       x1="24.960155"
       gradientTransform="matrix(0.882353,0,0,1,2.70589,1)"
       gradientUnits="userSpaceOnUse"
       id="linearGradient3634"
       xlink:href="#linearGradient4227"
       inkscape:collect="always" />
    <linearGradient
       y2="36.374992"
       x2="12.500004"
       y1="32.593761"
       x1="10.249995"
       gradientTransform="matrix(0.999998,0,0,1.000003,6.00003,-7.000134)"
       gradientUnits="userSpaceOnUse"
       id="linearGradient3632"
       xlink:href="#linearGradient2833"
       inkscape:collect="always" />
    <linearGradient
       gradientTransform="translate(-40,-1)"
       y2="37.256325"
       x2="53.5625"
       y1="4.4916701"
       x1="53.5625"
       gradientUnits="userSpaceOnUse"
       id="linearGradient3630"
       xlink:href="#linearGradient3942"
       inkscape:collect="always" />
    <linearGradient
       id="linearGradient2809">
      <stop
         style="stop-color:#d3d7cf;stop-opacity:1;"
         offset="0"
         id="stop2811" />
      <stop
         style="stop-color:#eeeeec;stop-opacity:0;"
         offset="1"
         id="stop2813" />
    </linearGradient>
    <linearGradient
       id="linearGradient3621">
      <stop
         id="stop3623"
         offset="0"
         style="stop-color:#888a85;stop-opacity:1" />
      <stop
         id="stop3625"
         offset="1"
         style="stop-color:#eeeeec;stop-opacity:1" />
    </linearGradient>
    <linearGradient
       id="linearGradient3859">
      <stop
         id="stop3861"
         offset="0"
         style="stop-color:#d3d7cf;stop-opacity:1" />
      <stop
         id="stop3037"
         offset="0.30973485"
         style="stop-color:#eeeeec;stop-opacity:1;" />
      <stop
         style="stop-color:white;stop-opacity:1;"
         offset="0.88648254"
         id="stop3039" />
      <stop
         id="stop3863"
         offset="1"
         style="stop-color:#d3d7cf;stop-opacity:1" />
    </linearGradient>
    <linearGradient
       y2="24.500002"
       x2="0.055013988"
       y1="24.500002"
       x1="6.5030808"
       gradientTransform="matrix(-0.909091,0,0,1,46.04546,1.999997)"
       gradientUnits="userSpaceOnUse"
       id="linearGradient6849"
       xlink:href="#linearGradient4391"
       inkscape:collect="always" />
    <linearGradient
       y2="27.499998"
       x2="1.0550151"
       y1="27.499998"
       x1="7.5030818"
       gradientTransform="matrix(-0.909091,0,0,1,46.95455,-0.999999)"
       gradientUnits="userSpaceOnUse"
       id="linearGradient6847"
       xlink:href="#linearGradient2809"
       inkscape:collect="always" />
    <linearGradient
       gradientTransform="matrix(0.909091,0,0,1,1.954541,1.999997)"
       gradientUnits="userSpaceOnUse"
       y2="24.500002"
       x2="0.055013988"
       y1="24.500002"
       x1="6.5030808"
       id="linearGradient6843"
       xlink:href="#linearGradient6837"
       inkscape:collect="always" />
    <linearGradient
       gradientTransform="matrix(0.909091,0,0,1,1.045449,-1)"
       y2="27.499998"
       x2="1.0550151"
       y1="27.499998"
       x1="7.5030818"
       gradientUnits="userSpaceOnUse"
       id="linearGradient6835"
       xlink:href="#linearGradient2809"
       inkscape:collect="always" />
    <linearGradient
       id="linearGradient6837"
       inkscape:collect="always">
      <stop
         id="stop6839"
         offset="0"
         style="stop-color:#729fcf;stop-opacity:1" />
      <stop
         id="stop6841"
         offset="1"
         style="stop-color:#729fcf;stop-opacity:0" />
    </linearGradient>
    <linearGradient
       y2="609.50507"
       x2="302.85715"
       y1="366.64789"
       x1="302.85715"
       gradientTransform="matrix(2.774389,0,0,1.969706,-1892.179,-872.8854)"
       gradientUnits="userSpaceOnUse"
       id="linearGradient3607"
       xlink:href="#linearGradient5048"
       inkscape:collect="always" />
    <linearGradient
       id="linearGradient3599">
      <stop
         id="stop3601"
         offset="0"
         style="stop-color:black;stop-opacity:0;" />
      <stop
         style="stop-color:black;stop-opacity:1;"
         offset="0.5"
         id="stop3603" />
      <stop
         id="stop3605"
         offset="1"
         style="stop-color:black;stop-opacity:0;" />
    </linearGradient>
    <radialGradient
       r="117.14286"
       fy="486.64789"
       fx="605.71429"
       cy="486.64789"
       cx="605.71429"
       gradientTransform="matrix(2.774389,0,0,1.969706,-1891.633,-872.8854)"
       gradientUnits="userSpaceOnUse"
       id="radialGradient3597"
       xlink:href="#linearGradient5060"
       inkscape:collect="always" />
    <radialGradient
       r="117.14286"
       fy="486.64789"
       fx="605.71429"
       cy="486.64789"
       cx="605.71429"
       gradientTransform="matrix(-2.774389,0,0,1.969706,112.7623,-872.8854)"
       gradientUnits="userSpaceOnUse"
       id="radialGradient3589"
       xlink:href="#linearGradient5060"
       inkscape:collect="always" />
    <linearGradient
       id="linearGradient3583">
      <stop
         style="stop-color:#959595;stop-opacity:1;"
         offset="0"
         id="stop3585" />
      <stop
         style="stop-color:white;stop-opacity:0.85576922;"
         offset="1"
         id="stop3587" />
    </linearGradient>
    <linearGradient
       id="linearGradient3571">
      <stop
         style="stop-color:#d7d7d7;stop-opacity:1;"
         offset="0"
         id="stop3573" />
      <stop
         style="stop-color:#eeeeec;stop-opacity:1"
         offset="1"
         id="stop3575" />
    </linearGradient>
    <linearGradient
       id="linearGradient3565">
      <stop
         style="stop-color:#d7d7d7;stop-opacity:1;"
         offset="0"
         id="stop3567" />
      <stop
         style="stop-color:#eeeeec;stop-opacity:1"
         offset="1"
         id="stop3569" />
    </linearGradient>
    <linearGradient
       inkscape:collect="always"
       id="linearGradient4391">
      <stop
         style="stop-color:#729fcf;stop-opacity:1"
         offset="0"
         id="stop4393" />
      <stop
         style="stop-color:#729fcf;stop-opacity:0"
         offset="1"
         id="stop4395" />
    </linearGradient>
    <linearGradient
       inkscape:collect="always"
       xlink:href="#linearGradient4175"
       id="linearGradient3732"
       gradientUnits="userSpaceOnUse"
       gradientTransform="matrix(1,0,0,1.0000868,-38,-3.0007409)"
       x1="60.426777"
       y1="18.520107"
       x2="60.426777"
       y2="72.082878" />
    <linearGradient
       inkscape:collect="always"
       xlink:href="#linearGradient3691"
       id="linearGradient4750"
       gradientUnits="userSpaceOnUse"
       gradientTransform="matrix(0.2631579,0,0,0.1857657,17.421054,-25.47195)"
       x1="25"
       y1="12"
       x2="25"
       y2="9" />
    <linearGradient
       inkscape:collect="always"
       xlink:href="#linearGradient3691"
       id="linearGradient4753"
       gradientUnits="userSpaceOnUse"
       gradientTransform="matrix(1,0,0,0.5000011,-0.9999985,16.307612)"
       x1="25"
       y1="12"
       x2="25"
       y2="9" />
    <linearGradient
       inkscape:collect="always"
       xlink:href="#linearGradient3691"
       id="linearGradient4756"
       gradientUnits="userSpaceOnUse"
       gradientTransform="matrix(1,0,0,0.2131501,-0.9999985,15.261924)"
       x1="25"
       y1="12"
       x2="25"
       y2="9" />
    <linearGradient
       inkscape:collect="always"
       xlink:href="#linearGradient3691"
       id="linearGradient4761"
       gradientUnits="userSpaceOnUse"
       gradientTransform="matrix(1,0,0,0.4483318,-0.9999985,8.7925147)"
       x1="25"
       y1="12"
       x2="25"
       y2="9" />
    <linearGradient
       inkscape:collect="always"
       xlink:href="#linearGradient3683"
       id="linearGradient4765"
       gradientUnits="userSpaceOnUse"
       gradientTransform="matrix(0.9523808,0,0,0.9302325,-47.809521,3.953488)"
       x1="15.675483"
       y1="17.250002"
       x2="21.829702"
       y2="17.250002" />
    <linearGradient
       inkscape:collect="always"
       xlink:href="#linearGradient4768"
       id="linearGradient4774"
       x1="22.6607"
       y1="45"
       x2="21.9121"
       y2="8.0439377"
       gradientUnits="userSpaceOnUse" />
    <radialGradient
       inkscape:collect="always"
       xlink:href="#linearGradient5060"
       id="radialGradient2812"
       gradientUnits="userSpaceOnUse"
       gradientTransform="matrix(-4.0992069e-2,0,0,4.5294118e-2,38.807646,20.393007)"
       cx="605.71429"
       cy="486.64789"
       fx="605.71429"
       fy="486.64789"
       r="117.14286" />
    <radialGradient
       inkscape:collect="always"
       xlink:href="#linearGradient5060"
       id="radialGradient2815"
       gradientUnits="userSpaceOnUse"
       gradientTransform="matrix(4.0992069e-2,0,0,4.5294118e-2,9.1923648,20.393007)"
       cx="605.71429"
       cy="486.64789"
       fx="605.71429"
       fy="486.64789"
       r="117.14286" />
    <linearGradient
       inkscape:collect="always"
       xlink:href="#linearGradient5048"
       id="linearGradient2818"
       gradientUnits="userSpaceOnUse"
       gradientTransform="matrix(4.0992069e-2,0,0,4.5294118e-2,9.1842976,20.393007)"
       x1="302.85715"
       y1="366.64789"
       x2="302.85715"
       y2="609.50507" />
    <filter
       inkscape:collect="always"
       x="-0.073985536"
       width="1.1479711"
       y="-0.28206987"
       height="1.5641397"
       id="filter3795">
      <feGaussianBlur
         inkscape:collect="always"
         stdDeviation="0.89736552"
         id="feGaussianBlur3797" />
    </filter>
    <inkscape:perspective
       id="perspective5607"
       inkscape:persp3d-origin="372.04724 : 350.78739 : 1"
       inkscape:vp_z="744.09448 : 526.18109 : 1"
       inkscape:vp_y="0 : 1000 : 0"
       inkscape:vp_x="0 : 526.18109 : 1"
       sodipodi:type="inkscape:persp3d" />
    <inkscape:perspective
       id="perspective5620"
       inkscape:persp3d-origin="372.04724 : 350.78739 : 1"
       inkscape:vp_z="744.09448 : 526.18109 : 1"
       inkscape:vp_y="0 : 1000 : 0"
       inkscape:vp_x="0 : 526.18109 : 1"
       sodipodi:type="inkscape:persp3d" />
    <linearGradient
       id="linearGradient6754"
       inkscape:collect="always">
      <stop
         id="stop6756"
         offset="0"
         style="stop-color:#729fcf;stop-opacity:1" />
      <stop
         id="stop6758"
         offset="1"
         style="stop-color:#729fcf;stop-opacity:0" />
    </linearGradient>
    <linearGradient
       id="linearGradient6394"
       inkscape:collect="always">
      <stop
         id="stop6396"
         offset="0"
         style="stop-color:#729fcf;stop-opacity:1" />
      <stop
         id="stop6398"
         offset="1"
         style="stop-color:#ffffff;stop-opacity:1" />
    </linearGradient>
    <linearGradient
       id="linearGradient3702">
      <stop
         id="stop3704"
         offset="0"
         style="stop-color:black;stop-opacity:0;" />
      <stop
         style="stop-color:black;stop-opacity:1;"
         offset="0.5"
         id="stop3710" />
      <stop
         id="stop3706"
         offset="1"
         style="stop-color:black;stop-opacity:0;" />
    </linearGradient>
    <linearGradient
       id="linearGradient8505"
       inkscape:collect="always">
      <stop
         id="stop8507"
         offset="0"
         style="stop-color:#ffffff;stop-opacity:1;" />
      <stop
         id="stop8509"
         offset="1"
         style="stop-color:#ffffff;stop-opacity:0;" />
    </linearGradient>
    <linearGradient
       id="linearGradient8590"
       inkscape:collect="always">
      <stop
         id="stop8592"
         offset="0"
         style="stop-color:#eeeeec;stop-opacity:1;" />
      <stop
         id="stop8594"
         offset="1"
         style="stop-color:#ffffff;stop-opacity:1" />
    </linearGradient>
    <inkscape:perspective
       id="perspective5672"
       inkscape:persp3d-origin="24 : 16 : 1"
       inkscape:vp_z="48 : 24 : 1"
       inkscape:vp_y="0 : 1000 : 0"
       inkscape:vp_x="0 : 24 : 1"
       sodipodi:type="inkscape:persp3d" />
    <linearGradient
       inkscape:collect="always"
       xlink:href="#linearGradient8590"
       id="linearGradient5797"
       gradientUnits="userSpaceOnUse"
       gradientTransform="matrix(0.5666291,0,0,0.5666291,75.661007,19.423711)"
       x1="-29.375"
       y1="9.25"
       x2="-6.0322471"
       y2="96.366341" />
    <linearGradient
       inkscape:collect="always"
       xlink:href="#linearGradient6394"
       id="linearGradient5799"
       gradientUnits="userSpaceOnUse"
       gradientTransform="matrix(1.1238403,0,0,1.1278347,138.4823,20.59964)"
       x1="-21.478369"
       y1="-0.80551612"
       x2="-21.478369"
       y2="18.005089" />
    <linearGradient
       inkscape:collect="always"
       xlink:href="#linearGradient6754"
       id="linearGradient5801"
       gradientUnits="userSpaceOnUse"
       gradientTransform="matrix(1.1723976,0,0,2.4021876,141.83276,-0.7713251)"
       x1="-21.03125"
       y1="16.187811"
       x2="-21.03125"
       y2="14.13769" />
    <radialGradient
       inkscape:collect="always"
       xlink:href="#linearGradient8505"
       id="radialGradient5803"
       gradientUnits="userSpaceOnUse"
       gradientTransform="matrix(2.8659614,0,0,1.4416275,33.120814,-14.79452)"
       cx="-17.75"
       cy="33.5"
       fx="-17.75"
       fy="33.5"
       r="18" />
    <linearGradient
       inkscape:collect="always"
       xlink:href="#linearGradient8590"
       id="linearGradient5805"
       gradientUnits="userSpaceOnUse"
       gradientTransform="matrix(0.5666291,0,0,0.5666291,75.661007,19.423711)"
       x1="-29.375"
       y1="9.25"
       x2="-6.0322471"
       y2="96.366341" />
    <linearGradient
       inkscape:collect="always"
       xlink:href="#linearGradient6394"
       id="linearGradient5807"
       gradientUnits="userSpaceOnUse"
       gradientTransform="matrix(1.1238403,0,0,1.1278347,138.4823,20.59964)"
       x1="-21.478369"
       y1="-0.80551612"
       x2="-21.478369"
       y2="18.005089" />
    <linearGradient
       inkscape:collect="always"
       xlink:href="#linearGradient6754"
       id="linearGradient5809"
       gradientUnits="userSpaceOnUse"
       gradientTransform="matrix(1.1723976,0,0,2.4021876,141.83276,-0.7713251)"
       x1="-21.03125"
       y1="16.187811"
       x2="-21.03125"
       y2="14.13769" />
    <radialGradient
       inkscape:collect="always"
       xlink:href="#linearGradient8505"
       id="radialGradient5811"
       gradientUnits="userSpaceOnUse"
       gradientTransform="matrix(2.8659614,0,0,1.4416275,33.120814,-14.79452)"
       cx="-17.75"
       cy="33.5"
       fx="-17.75"
       fy="33.5"
       r="18" />
    <linearGradient
       inkscape:collect="always"
       xlink:href="#linearGradient6754"
       id="linearGradient5819"
       gradientUnits="userSpaceOnUse"
       gradientTransform="matrix(1.1599704,0,0,2.0329325,131.04985,1.5060112)"
       x1="-21.03125"
       y1="16.187811"
       x2="-21.03125"
       y2="14.13769" />
    <linearGradient
       inkscape:collect="always"
       xlink:href="#linearGradient6394"
       id="linearGradient5823"
       gradientUnits="userSpaceOnUse"
       gradientTransform="matrix(1.1238403,0,0,1.136345,128.4823,16.562202)"
       x1="-21.478369"
       y1="-0.80551612"
       x2="-21.478369"
       y2="18.005089" />
    <linearGradient
       inkscape:collect="always"
       xlink:href="#linearGradient8590"
       id="linearGradient5826"
       gradientUnits="userSpaceOnUse"
       gradientTransform="matrix(0.5666291,0,0,0.5666291,65.661007,15.423711)"
       x1="-29.375"
       y1="9.25"
       x2="-6.0322471"
       y2="96.366341" />
    <radialGradient
       inkscape:collect="always"
       xlink:href="#linearGradient8505"
       id="radialGradient5828"
       gradientUnits="userSpaceOnUse"
       gradientTransform="matrix(2.8659614,0,0,1.4416275,33.120814,-14.79452)"
       cx="-17.75"
       cy="33.5"
       fx="-17.75"
       fy="33.5"
       r="18" />
    <radialGradient
       inkscape:collect="always"
       xlink:href="#linearGradient8505"
       id="radialGradient5830"
       gradientUnits="userSpaceOnUse"
       gradientTransform="matrix(2.8659614,0,0,1.4416275,33.120814,-14.79452)"
       cx="-17.75"
       cy="33.5"
       fx="-17.75"
       fy="33.5"
       r="18" />
    <linearGradient
       inkscape:collect="always"
       xlink:href="#linearGradient6394"
       id="linearGradient6617"
       gradientUnits="userSpaceOnUse"
       gradientTransform="matrix(1.1238403,0,0,1.136345,128.4823,16.562202)"
       x1="-21.478369"
       y1="-0.80551612"
       x2="-21.478369"
       y2="18.005089" />
    <linearGradient
       inkscape:collect="always"
       xlink:href="#linearGradient6754"
       id="linearGradient6619"
       gradientUnits="userSpaceOnUse"
       gradientTransform="matrix(1.1599704,0,0,2.0329325,131.04985,1.5060112)"
       x1="-21.03125"
       y1="16.187811"
       x2="-21.03125"
       y2="14.13769" />
    <linearGradient
       inkscape:collect="always"
       xlink:href="#linearGradient6754"
       id="linearGradient6625"
       gradientUnits="userSpaceOnUse"
       gradientTransform="matrix(1.2456616,0,0,2.5,121.47669,-5.5000012)"
       x1="-21.03125"
       y1="16.187811"
       x2="-21.03125"
       y2="14.13769" />
    <linearGradient
       inkscape:collect="always"
       xlink:href="#linearGradient6394"
       id="linearGradient6629"
       gradientUnits="userSpaceOnUse"
       gradientTransform="matrix(1.1238403,0,0,1.136345,112.4823,16.562202)"
       x1="-21.478369"
       y1="-0.80551612"
       x2="-21.478369"
       y2="18.005089" />
    <linearGradient
       inkscape:collect="always"
       xlink:href="#linearGradient6394"
       id="linearGradient6639"
       gradientUnits="userSpaceOnUse"
       gradientTransform="matrix(1.1238403,0,0,1.136345,112.4823,16.562202)"
       x1="-21.478369"
       y1="-0.80551612"
       x2="-21.478369"
       y2="18.005089" />
    <linearGradient
       inkscape:collect="always"
       xlink:href="#linearGradient6754"
       id="linearGradient6641"
       gradientUnits="userSpaceOnUse"
       gradientTransform="matrix(1.2456616,0,0,2.5,121.47669,-5.5000012)"
       x1="-21.03125"
       y1="16.187811"
       x2="-21.03125"
       y2="14.13769" />
    <linearGradient
       id="linearGradient2378">
      <stop
         style="stop-color:#ffffff;stop-opacity:1;"
         offset="0"
         id="stop2380" />
      <stop
         id="stop4146"
         offset="0.25"
         style="stop-color:#fefede;stop-opacity:0.91836733;" />
      <stop
         id="stop2386"
         offset="0.5"
         style="stop-color:#f5f328;stop-opacity:1;" />
      <stop
         style="stop-color:#f5f32d;stop-opacity:0.12234043;"
         offset="1"
         id="stop2382" />
    </linearGradient>
    <linearGradient
       id="linearGradient5747">
      <stop
         id="stop5749"
         offset="0"
         style="stop-color:black;stop-opacity:0;" />
      <stop
         style="stop-color:black;stop-opacity:1;"
         offset="0.5"
         id="stop5751" />
      <stop
         id="stop5753"
         offset="1"
         style="stop-color:black;stop-opacity:0;" />
    </linearGradient>
    <linearGradient
       id="linearGradient6732">
      <stop
         id="stop6734"
         offset="0"
         style="stop-color:#ffffff;stop-opacity:1;" />
      <stop
         id="stop6736"
         offset="1"
         style="stop-color:#dddddd;stop-opacity:1;" />
    </linearGradient>
    <linearGradient
       id="linearGradient4585">
      <stop
         id="stop4587"
         offset="0"
         style="stop-color:#9e9e9e;stop-opacity:1;" />
      <stop
         id="stop4589"
         offset="1"
         style="stop-color:#dddddd;stop-opacity:0;" />
    </linearGradient>
    <inkscape:perspective
       id="perspective5738"
       inkscape:persp3d-origin="24 : 16 : 1"
       inkscape:vp_z="48 : 24 : 1"
       inkscape:vp_y="0 : 1000 : 0"
       inkscape:vp_x="0 : 24 : 1"
       sodipodi:type="inkscape:persp3d" />
    <linearGradient
       inkscape:collect="always"
       xlink:href="#linearGradient6732"
       id="linearGradient6037"
       gradientUnits="userSpaceOnUse"
       gradientTransform="matrix(0.858045,0,0,0.8,-0.932219,9.3)"
       x1="11.511479"
       y1="0.75951481"
       x2="31.5"
       y2="36.625" />
    <linearGradient
       inkscape:collect="always"
       xlink:href="#linearGradient4585"
       id="linearGradient6039"
       gradientUnits="userSpaceOnUse"
       x1="9.117774"
       y1="18.345161"
       x2="8.4885712"
       y2="34.608616" />
    <linearGradient
       inkscape:collect="always"
       xlink:href="#linearGradient4585"
       id="linearGradient6051"
       gradientUnits="userSpaceOnUse"
       gradientTransform="matrix(0.9095543,0,0,0.854375,49.330019,6.1339723)"
       x1="9.117774"
       y1="18.345161"
       x2="8.4885712"
       y2="34.608616" />
    <linearGradient
       inkscape:collect="always"
       xlink:href="#linearGradient6732"
       id="linearGradient6070"
       gradientUnits="userSpaceOnUse"
       gradientTransform="matrix(0.7691716,0,0,0.6746665,48.207348,14.439241)"
       x1="11.511479"
       y1="0.75951481"
       x2="31.5"
       y2="36.625" />
    <linearGradient
       inkscape:collect="always"
       xlink:href="#linearGradient6732"
       id="linearGradient6902"
       gradientUnits="userSpaceOnUse"
       gradientTransform="matrix(0.7691716,0,0,0.6746665,48.207348,14.439241)"
       x1="11.511479"
       y1="0.75951481"
       x2="31.5"
       y2="36.625" />
    <linearGradient
       inkscape:collect="always"
       xlink:href="#linearGradient4585"
       id="linearGradient6904"
       gradientUnits="userSpaceOnUse"
       gradientTransform="matrix(0.9095543,0,0,0.854375,49.330019,6.1339723)"
       x1="9.117774"
       y1="18.345161"
       x2="8.4885712"
       y2="34.608616" />
  </defs>
  <sodipodi:namedview
     id="base"
     pagecolor="#ffffff"
     bordercolor="#666666"
     borderopacity="1.0"
     gridtolerance="10000"
     guidetolerance="10"
     objecttolerance="10"
     inkscape:pageopacity="0.0"
     inkscape:pageshadow="2"
     inkscape:zoom="16.764324"
     inkscape:cx="41.341725"
     inkscape:cy="18.060414"
     inkscape:document-units="px"
     inkscape:current-layer="layer1"
     width="48px"
     height="48px"
     showgrid="true"
     inkscape:window-width="1335"
     inkscape:window-height="1302"
     inkscape:window-x="676"
     inkscape:window-y="170"
     showguides="true"
     inkscape:guide-bbox="true"
     inkscape:snap-bbox="true"
     inkscape:object-nodes="true"
     inkscape:object-paths="true"
     inkscape:bbox-paths="true"
     inkscape:bbox-nodes="true"
     inkscape:snap-nodes="false">
    <inkscape:grid
       type="xygrid"
       id="grid5598"
       visible="true"
       enabled="true" />
  </sodipodi:namedview>
  <metadata
     id="metadata7">
    <rdf:RDF>
      <cc:Work
         rdf:about="">
        <dc:format>image/svg+xml</dc:format>
        <dc:type
           rdf:resource="http://purl.org/dc/dcmitype/StillImage" />
        <dc:title>Network Server</dc:title>
        <dc:date>Aug 2007</dc:date>
        <dc:creator>
          <cc:Agent>
            <dc:title>F.Bellaiche &lt;frederic.bellaiche@gmail.com&gt;</dc:title>
          </cc:Agent>
        </dc:creator>
        <cc:license
           rdf:resource="http://creativecommons.org/licenses/GPL/2.0/" />
      </cc:Work>
      <cc:License
         rdf:about="http://creativecommons.org/licenses/GPL/2.0/">
        <cc:permits
           rdf:resource="http://web.resource.org/cc/Reproduction" />
        <cc:permits
           rdf:resource="http://web.resource.org/cc/Distribution" />
        <cc:requires
           rdf:resource="http://web.resource.org/cc/Notice" />
        <cc:permits
           rdf:resource="http://web.resource.org/cc/DerivativeWorks" />
        <cc:requires
           rdf:resource="http://web.resource.org/cc/ShareAlike" />
        <cc:requires
           rdf:resource="http://web.resource.org/cc/SourceCode" />
      </cc:License>
    </rdf:RDF>
  </metadata>
  <g
     inkscape:label="Layer 1"
     inkscape:groupmode="layer"
     id="layer1">
    <path
       sodipodi:type="arc"
       style="opacity:0.4;fill:#2e3436;fill-opacity:0.75;fill-rule:evenodd;stroke:none;stroke-width:1px;stroke-linecap:butt;stroke-linejoin:miter;stroke-opacity:1;filter:url(#filter3795)"
       id="path3789"
       sodipodi:cx="24.456697"
       sodipodi:cy="42.989361"
       sodipodi:rx="14.554718"
       sodipodi:ry="3.8176308"
       d="M 39.011415 42.989361 A 14.554718 3.8176308 0 1 1  9.9019794,42.989361 A 14.554718 3.8176308 0 1 1  39.011415 42.989361 z"
       transform="matrix(0.9652547,0,0,1.0477704,0.4420678,-2.0429786)" />
    <path
       sodipodi:type="arc"
       style="color:#000000;fill:#d3d3d3;fill-opacity:1;fill-rule:evenodd;stroke:#bababa;stroke-width:0.99999994;stroke-linecap:butt;stroke-linejoin:miter;marker:none;marker-start:none;marker-mid:none;marker-end:none;stroke-miterlimit:4;stroke-dasharray:none;stroke-dashoffset:0;stroke-opacity:1;visibility:visible;display:inline;overflow:visible"
       id="path5473"
       sodipodi:cx="29"
       sodipodi:cy="31.5"
       sodipodi:rx="0"
       sodipodi:ry="0.5"
       d="M 29,31.5 A 0,0.5 0 1 1 29,31.5 A 0,0.5 0 1 1 29,31.5 z"
       transform="translate(-319.44822,-27.139104)" />
    <path
       id="path5932"
       d="M -81.5,3.5 L -70.5,3.5"
       style="fill:none;fill-rule:evenodd;stroke:#ffffff;stroke-width:1px;stroke-linecap:butt;stroke-linejoin:miter;stroke-opacity:0.16216215" />
    <path
       style="color:#000000;fill:#eeeeec;fill-opacity:1;fill-rule:nonzero;stroke:#888a85;stroke-width:1;stroke-linecap:round;stroke-linejoin:miter;marker:none;marker-start:none;marker-mid:none;marker-end:none;stroke-miterlimit:4;stroke-dasharray:none;stroke-dashoffset:1.4;stroke-opacity:1;visibility:visible;display:inline;overflow:visible"
       d="M 18.156534,0.49999927 C 17.412477,0.49999927 16.757884,0.81425896 16.281534,1.3149756 L 12.062784,6.5809766 C 11.735158,7.166264 11.531534,7.8341604 11.531534,8.5557269 L 11.531534,41.470522 C 11.531534,43.71064 13.329468,45.514057 15.562784,45.514058 L 32.46875,45.514058 C 34.70207,45.514057 36.5,43.71064 36.5,41.470522 L 36.5,8.5557269 C 36.5,7.8341604 36.29638,7.166264 35.96875,6.5809766 L 31.75,1.3149756 C 31.27365,0.81425896 30.61906,0.49999927 29.875,0.49999927 L 18.156534,0.49999927 z "
       id="path2371"
       sodipodi:nodetypes="ccccccccccccc" />
    <path
       style="opacity:0.7;color:#000000;fill:none;fill-opacity:1;fill-rule:nonzero;stroke:#f9f9f9;stroke-width:1;stroke-linecap:round;stroke-linejoin:round;marker:none;marker-start:none;marker-mid:none;marker-end:none;stroke-miterlimit:4;stroke-dashoffset:1.4;stroke-opacity:1;visibility:visible;display:inline;overflow:visible"
       d="M 18.176953,1.4999992 C 17.719981,1.4999992 17.345649,1.6939863 17.041563,1.9999992 L 17.010024,1.9999992 L 12.910002,7.0624992 C 12.652421,7.5170592 12.5,8.0005802 12.5,8.5312492 L 12.5,34.46875 C 12.5,36.16536 13.846963,37.499999 15.559247,37.5 L 32.440753,37.5 C 34.153043,37.499999 35.5,36.165361 35.5,34.46875 L 35.5,8.5312492 C 35.5,8.0005762 35.347579,7.5170542 35.089998,7.0624992 L 30.989977,1.9999992 C 30.982973,1.9927277 30.965523,2.0071293 30.958438,1.9999992 C 30.65435,1.6939849 30.280023,1.4999992 29.823047,1.4999992 L 18.176953,1.4999992 z "
       id="path4329"
       sodipodi:nodetypes="ccccccccccccscc" />
    <path
       sodipodi:nodetypes="ccccccccc"
       id="rect2377"
       d="M 15.560021,5.4999994 L 32.47148,5.4999994 C 34.149267,5.4999994 35.499975,6.8508254 35.499975,8.5287575 L 35.499975,41.471243 C 35.499975,43.149175 34.149267,44.5 32.47148,44.5 L 15.560021,44.5 C 13.882235,44.5 12.531526,43.149175 12.531526,41.471243 L 12.531526,8.5287575 C 12.531526,6.8508254 13.882235,5.4999994 15.560021,5.4999994 z "
       style="color:#000000;fill:url(#linearGradient3732);fill-opacity:1;fill-rule:nonzero;stroke:url(#linearGradient4774);stroke-width:1.00000012;stroke-linecap:round;stroke-linejoin:miter;marker:none;marker-start:none;marker-mid:none;marker-end:none;stroke-miterlimit:4;stroke-dashoffset:1.4;stroke-opacity:1;visibility:visible;display:inline;overflow:visible" />
    <rect
       ry="1.4"
       y="9.5"
       x="13.500002"
       height="21"
       width="21.000002"
       id="rect3593"
       style="color:#000000;fill:#babdb6;fill-opacity:1;fill-rule:evenodd;stroke:#6d6f6a;stroke-width:0.99999994;stroke-linecap:butt;stroke-linejoin:round;marker:none;marker-start:none;marker-mid:none;marker-end:none;stroke-miterlimit:4;stroke-dasharray:none;stroke-dashoffset:0;stroke-opacity:0.69620254;visibility:visible;display:inline;overflow:visible;enable-background:accumulate"
       inkscape:export-filename="/home/bellaich/rect3593.png"
       inkscape:export-xdpi="90"
       inkscape:export-ydpi="90" />
    <rect
       style="opacity:0.70901639;color:#000000;fill:url(#linearGradient4765);fill-opacity:1;fill-rule:evenodd;stroke:none;stroke-width:0.99999994;stroke-linecap:butt;stroke-linejoin:round;marker:none;marker-start:none;marker-mid:none;marker-end:none;stroke-miterlimit:4;stroke-dasharray:none;stroke-dashoffset:0;stroke-opacity:1;visibility:visible;display:inline;overflow:visible;enable-background:accumulate"
       id="rect3673"
       width="20"
       height="20"
       x="-34"
       y="10"
       ry="0.91154063"
       transform="scale(-1,1)" />
    <rect
       style="color:#000000;fill:none;fill-opacity:1;fill-rule:evenodd;stroke:url(#linearGradient4761);stroke-width:0.99999958;stroke-linecap:butt;stroke-linejoin:miter;marker:none;marker-start:none;marker-mid:none;marker-end:none;stroke-miterlimit:4;stroke-dasharray:none;stroke-dashoffset:0;stroke-opacity:1;visibility:visible;display:inline;overflow:visible;enable-background:accumulate"
       id="rect3629"
       width="19"
       height="0.10333849"
       x="14.500002"
       y="13.44833"
       ry="0"
       rx="0" />
    <rect
       rx="0.46153843"
       ry="1"
       y="12"
       x="18"
       height="2"
       width="12"
       id="rect3641"
       style="color:#000000;fill:#5f615d;fill-opacity:1;fill-rule:evenodd;stroke:none;stroke-width:0.9999997;stroke-linecap:butt;stroke-linejoin:miter;marker:none;marker-start:none;marker-mid:none;marker-end:none;stroke-miterlimit:4;stroke-dasharray:none;stroke-dashoffset:0;stroke-opacity:1;visibility:visible;display:inline;overflow:visible;enable-background:accumulate" />
    <rect
       style="color:#000000;fill:#5f615d;fill-opacity:1;fill-rule:evenodd;stroke:none;stroke-width:0.9999997;stroke-linecap:butt;stroke-linejoin:miter;marker:none;marker-start:none;marker-mid:none;marker-end:none;stroke-miterlimit:4;stroke-dasharray:none;stroke-dashoffset:0;stroke-opacity:1;visibility:visible;display:inline;overflow:visible;enable-background:accumulate"
       id="rect3645"
       width="12"
       height="2"
       x="18"
       y="16"
       ry="1"
       rx="0.46153843" />
    <rect
       rx="0"
       ry="0"
       y="17.475435"
       x="14.500002"
       height="0.049130145"
       width="19"
       id="rect3703"
       style="color:#000000;fill:none;fill-opacity:1;fill-rule:evenodd;stroke:url(#linearGradient4756);stroke-width:0.99999964;stroke-linecap:butt;stroke-linejoin:miter;marker:none;marker-start:none;marker-mid:none;marker-end:none;stroke-miterlimit:4;stroke-dasharray:none;stroke-dashoffset:0;stroke-opacity:1;visibility:visible;display:inline;overflow:visible;enable-background:accumulate" />
    <rect
       style="color:#000000;fill:none;fill-opacity:1;fill-rule:evenodd;stroke:url(#linearGradient4753);stroke-width:0.99999964;stroke-linecap:butt;stroke-linejoin:miter;marker:none;marker-start:none;marker-mid:none;marker-end:none;stroke-miterlimit:4;stroke-dasharray:none;stroke-dashoffset:0;stroke-opacity:1;visibility:visible;display:inline;overflow:visible;enable-background:accumulate"
       id="rect3707"
       width="19"
       height="0.11524805"
       x="14.500002"
       y="21.5"
       ry="0"
       rx="0" />
    <rect
       rx="0"
       ry="0"
       y="-23.54282"
       x="21.500002"
       height="0.042818163"
       width="5.0000005"
       id="rect3717"
       style="color:#000000;fill:none;fill-opacity:1;fill-rule:evenodd;stroke:url(#linearGradient4750);stroke-width:0.99999982;stroke-linecap:butt;stroke-linejoin:miter;marker:none;marker-start:none;marker-mid:none;marker-end:none;stroke-miterlimit:4;stroke-dasharray:none;stroke-dashoffset:0;stroke-opacity:1;visibility:visible;display:inline;overflow:visible;enable-background:accumulate"
       transform="scale(1,-1)" />
    <rect
       transform="scale(1,-1)"
       style="color:#000000;fill:none;fill-opacity:1;fill-rule:evenodd;stroke:#888a85;stroke-width:0.99999976;stroke-linecap:butt;stroke-linejoin:miter;marker:none;marker-start:none;marker-mid:none;marker-end:none;stroke-miterlimit:4;stroke-dasharray:none;stroke-dashoffset:0;stroke-opacity:1;visibility:visible;display:inline;overflow:visible;enable-background:accumulate"
       id="rect3721"
       width="5.0000005"
       height="0.085639469"
       x="15.500001"
       y="-19.54282"
       ry="0"
       rx="0" />
    <rect
       rx="0"
       ry="0"
       y="-19.54282"
       x="22.5"
       height="0.085639469"
       width="2.0000002"
       id="rect3723"
       style="color:#000000;fill:none;fill-opacity:1;fill-rule:evenodd;stroke:#888a85;stroke-width:0.99999976;stroke-linecap:butt;stroke-linejoin:miter;marker:none;marker-start:none;marker-mid:none;marker-end:none;stroke-miterlimit:4;stroke-dasharray:none;stroke-dashoffset:0;stroke-opacity:1;visibility:visible;display:inline;overflow:visible;enable-background:accumulate"
       transform="scale(1,-1)" />
    <rect
       rx="0"
       ry="0"
       y="33.5"
       x="10.5"
       height="1.270324e-06"
       width="19"
       id="rect3731"
       style="opacity:0.1;color:#000000;fill:none;fill-opacity:1;fill-rule:evenodd;stroke:#eeeeec;stroke-width:1;stroke-linecap:round;stroke-linejoin:round;marker:none;marker-start:none;marker-mid:none;marker-end:none;stroke-miterlimit:4;stroke-dasharray:none;stroke-dashoffset:0;stroke-opacity:1;visibility:visible;display:inline;overflow:visible;enable-background:accumulate"
       transform="matrix(0,1,1,0,0,0)" />
    <path
       sodipodi:type="arc"
       style="opacity:0.29918033;color:#000000;fill:#2e3436;fill-opacity:1;fill-rule:evenodd;stroke:#2e3436;stroke-width:1.33333373;stroke-linecap:butt;stroke-linejoin:miter;marker:none;marker-start:none;marker-mid:none;marker-end:none;stroke-miterlimit:4;stroke-dasharray:none;stroke-dashoffset:0;stroke-opacity:1;visibility:visible;display:inline;overflow:visible;enable-background:accumulate"
       id="path3976"
       sodipodi:cx="5"
       sodipodi:cy="15"
       sodipodi:rx="2"
       sodipodi:ry="2"
       d="M 7 15 A 2 2 0 1 1  3,15 A 2 2 0 1 1  7 15 z"
       transform="matrix(0.75,0,0,0.75,20.25,25.75)" />
    <path
       transform="matrix(0.756755,0,0,0.7567552,20.202713,25.63516)"
       d="M 7 15 A 2 2 0 1 1  3,15 A 2 2 0 1 1  7 15 z"
       sodipodi:ry="2"
       sodipodi:rx="2"
       sodipodi:cy="15"
       sodipodi:cx="5"
       id="path4122"
       style="opacity:0.81557378;color:#000000;fill:url(#linearGradient4138);fill-opacity:1;fill-rule:evenodd;stroke:none;stroke-width:1.33333397;stroke-linecap:butt;stroke-linejoin:miter;marker:none;marker-start:none;marker-mid:none;marker-end:none;stroke-miterlimit:4;stroke-dasharray:none;stroke-dashoffset:0;stroke-opacity:1;visibility:visible;display:inline;overflow:visible;enable-background:accumulate"
       sodipodi:type="arc" />
    <rect
       transform="scale(-1,1)"
       style="opacity:0.54918033;color:#000000;fill:#eeeeec;fill-opacity:0.10126582;fill-rule:evenodd;stroke:#000000;stroke-width:0.50000006;stroke-linecap:butt;stroke-linejoin:round;marker:none;marker-start:none;marker-mid:none;marker-end:none;stroke-miterlimit:4;stroke-dasharray:none;stroke-dashoffset:0;stroke-opacity:0.37815127;visibility:visible;display:inline;overflow:visible;enable-background:accumulate"
       id="rect4156"
       width="11.5"
       height="2.5"
       x="-29.75"
       y="40.25"
       ry="0.41666663" />
    <rect
       ry="0.25"
       y="32.25"
       x="-25.75"
       height="1.5000001"
       width="3.5000002"
       id="rect3713"
       style="opacity:1;color:#000000;fill:#eeeeec;fill-opacity:0.10126582;fill-rule:evenodd;stroke:#000000;stroke-width:0.50000006;stroke-linecap:butt;stroke-linejoin:round;marker:none;marker-start:none;marker-mid:none;marker-end:none;stroke-miterlimit:4;stroke-dasharray:none;stroke-dashoffset:0;stroke-opacity:0.37815127;visibility:visible;display:inline;overflow:visible;enable-background:accumulate"
       transform="scale(-1,1)" />
    <rect
       transform="scale(-1,1)"
       style="opacity:1;color:#000000;fill:#fcea4f;fill-opacity:0.65822784;fill-rule:evenodd;stroke:none;stroke-width:0.50000006;stroke-linecap:butt;stroke-linejoin:round;marker:none;marker-start:none;marker-mid:none;marker-end:none;stroke-miterlimit:4;stroke-dasharray:none;stroke-dashoffset:0;stroke-opacity:0.37815127;visibility:visible;display:inline;overflow:visible;enable-background:accumulate"
       id="rect3715"
       width="2"
       height="0.75000012"
       x="-25"
       y="39.25"
       ry="0.12500001" />
    <rect
       transform="scale(1,-1)"
       style="opacity:0.47950816;color:#000000;fill:none;fill-opacity:1;fill-rule:evenodd;stroke:#888a85;stroke-width:0.9999997;stroke-linecap:round;stroke-linejoin:miter;marker:none;marker-start:none;marker-mid:none;marker-end:none;stroke-miterlimit:4;stroke-dasharray:none;stroke-dashoffset:0;stroke-opacity:1;visibility:visible;display:inline;overflow:visible;enable-background:accumulate"
       id="rect3725"
       width="3.0000002"
       height="0.093660474"
       x="22.5"
       y="-41.593658"
       ry="0"
       rx="0" />
    <rect
       transform="scale(-1,1)"
       style="opacity:0.25;color:#000000;fill:none;fill-opacity:1;fill-rule:evenodd;stroke:#eeeeec;stroke-width:1;stroke-linecap:round;stroke-linejoin:round;marker:none;marker-start:none;marker-mid:none;marker-end:none;stroke-miterlimit:4;stroke-dasharray:none;stroke-dashoffset:0;stroke-opacity:1;visibility:visible;display:inline;overflow:visible;enable-background:accumulate"
       id="rect4776"
       width="19"
       height="0.042820565"
       x="-33.5"
       y="29.47859"
       ry="0"
       rx="0" />
    <g
       style="display:inline"
       inkscape:label="Base"
       id="g5782"
       transform="translate(6.082703,42.694401)" />
    <g
       id="g6878"
       transform="translate(-34,0)">
      <rect
         style="fill:url(#linearGradient6902);fill-opacity:1;fill-rule:evenodd;stroke:#939393;stroke-width:1;stroke-linecap:butt;stroke-linejoin:miter;marker:none;marker-start:none;marker-mid:none;marker-end:none;stroke-miterlimit:4;stroke-dasharray:none;stroke-dashoffset:0;stroke-opacity:1;visibility:visible;display:inline;overflow:visible"
         id="rect2373"
         width="30.028919"
         height="20.081545"
         x="51.494968"
         y="20.511236"
         rx="2.4651661"
         ry="2.3191645"
         inkscape:r_cx="true"
         inkscape:r_cy="true" />
      <path
         style="font-size:4.12102222px;font-style:normal;font-variant:normal;font-weight:bold;font-stretch:normal;text-align:start;line-height:120.00000477%;writing-mode:lr-tb;text-anchor:start;fill:#000000;fill-opacity:1;stroke:none;stroke-width:1pt;stroke-linecap:butt;stroke-linejoin:miter;stroke-opacity:1;font-family:Segoe"
         d="M 65.945742,25.520629 C 65.945742,25.815215 65.883631,26.041133 65.759419,26.198386 C 65.635199,26.354589 65.465816,26.432691 65.25126,26.432691 C 65.163742,26.432691 65.079991,26.414345 65,26.377653 L 65,25.959361 C 65.070585,26.019118 65.148688,26.048996 65.234319,26.048996 C 65.339717,26.048996 65.418761,26.005491 65.471463,25.918477 C 65.5251,25.830415 65.551917,25.69885 65.551917,25.523773 L 65.551917,24.128947 L 65.945742,24.128947 L 65.945742,25.520629 M 67.045339,24.715497 C 67.265536,24.7155 67.44104,24.79098 67.571847,24.94194 C 67.702648,25.092904 67.768047,25.29576 67.768047,25.550506 C 67.768047,25.827272 67.69794,26.04323 67.557726,26.198386 C 67.417513,26.352494 67.229311,26.429546 66.993113,26.429546 C 66.775728,26.429546 66.59882,26.353541 66.462366,26.20153 C 66.32686,26.049521 66.259104,25.850335 66.259104,25.603973 C 66.259104,25.32721 66.33015,25.110202 66.47225,24.952948 C 66.614344,24.79465 66.805373,24.7155 67.045339,24.715497 M 67.012873,26.091455 C 67.127679,26.091455 67.220837,26.045851 67.292361,25.954645 C 67.364818,25.86239 67.401049,25.737114 67.401049,25.578813 C 67.401049,25.418416 67.365287,25.29209 67.293771,25.199835 C 67.222246,25.106532 67.130498,25.059881 67.01852,25.05988 C 66.907475,25.059881 66.81337,25.108628 66.736206,25.206124 C 66.659043,25.302573 66.620461,25.429947 66.620461,25.588247 C 66.620461,25.744451 66.658103,25.867633 66.733387,25.957789 C 66.809611,26.046901 66.902768,26.091455 67.012873,26.091455 M 69.411095,26.383944 L 69.032795,26.383944 L 69.032795,25.501758 C 69.032795,25.353943 69.012564,25.247011 68.972102,25.180964 C 68.931633,25.113872 68.862466,25.080323 68.764602,25.080322 C 68.678965,25.080323 68.607918,25.116492 68.551462,25.188827 C 68.494998,25.261164 68.466765,25.353419 68.466765,25.46559 L 68.466765,26.383944 L 68.084235,26.383944 L 68.084235,24 L 68.466765,24 L 68.466765,24.998552 C 68.51852,24.904201 68.582979,24.833438 68.660151,24.786261 C 68.738254,24.739086 68.829062,24.7155 68.932574,24.715497 C 69.091607,24.7155 69.21112,24.770537 69.291111,24.880612 C 69.371095,24.990691 69.411087,25.155806 69.411095,25.375957 L 69.411095,26.383944 M 71.144474,26.383944 L 70.766175,26.383944 L 70.766175,25.501758 C 70.766175,25.353943 70.745942,25.247011 70.705478,25.180964 C 70.665013,25.113872 70.595853,25.080323 70.497982,25.080322 C 70.412347,25.080323 70.341305,25.116492 70.284839,25.188827 C 70.228374,25.261164 70.200145,25.353419 70.200145,25.46559 L 70.200145,26.383944 L 69.817614,26.383944 L 69.817614,24.77368 L 70.200145,24.77368 L 70.200145,24.998552 C 70.251905,24.904201 70.316367,24.833438 70.393531,24.786261 C 70.471627,24.739086 70.562435,24.7155 70.665954,24.715497 C 70.824989,24.7155 70.9445,24.770537 71.024488,24.880612 C 71.104475,24.990691 71.144474,25.155806 71.144474,25.375957 L 71.144474,26.383944 M 72.382399,24.128947 L 73.090995,24.128947 C 73.433528,24.128949 73.690433,24.220679 73.861704,24.404138 C 74.033907,24.587601 74.120009,24.862267 74.120009,25.228139 C 74.120009,25.581433 74.023087,25.86239 73.829236,26.071012 C 73.636317,26.279632 73.374713,26.383944 73.044408,26.383944 L 72.382399,26.383944 L 72.382399,24.128947 M 72.776216,26.036416 L 73.035946,26.036416 C 73.248613,26.036416 73.415652,25.965654 73.537046,25.824125 C 73.659381,25.682599 73.720535,25.489179 73.720544,25.243864 C 73.720535,25.005892 73.661255,24.820859 73.542694,24.688765 C 73.424115,24.556674 73.258967,24.490628 73.047241,24.490627 L 72.776216,24.490627 L 72.776216,26.036416 M 75.130682,24.715497 C 75.350879,24.7155 75.526381,24.79098 75.657187,24.94194 C 75.787984,25.092904 75.853396,25.29576 75.853396,25.550506 C 75.853396,25.827272 75.783286,26.04323 75.643077,26.198386 C 75.502859,26.352494 75.314655,26.429546 75.078456,26.429546 C 74.861073,26.429546 74.684164,26.353541 74.547711,26.20153 C 74.412198,26.049521 74.344446,25.850335 74.344446,25.603973 C 74.344446,25.32721 74.415497,25.110202 74.557589,24.952948 C 74.699681,24.79465 74.890718,24.7155 75.130682,24.715497 M 75.098213,26.091455 C 75.213018,26.091455 75.306184,26.045851 75.3777,25.954645 C 75.450158,25.86239 75.486392,25.737114 75.486392,25.578813 C 75.486392,25.418416 75.450624,25.29209 75.379107,25.199835 C 75.30759,25.106532 75.215842,25.059881 75.103861,25.05988 C 74.992812,25.059881 74.898714,25.108628 74.82155,25.206124 C 74.744385,25.302573 74.705804,25.429947 74.705804,25.588247 C 74.705804,25.744451 74.743444,25.867633 74.818726,25.957789 C 74.894949,26.046901 74.988114,26.091455 75.098213,26.091455 M 77.413155,25.671591 L 76.450477,25.671591 C 76.450477,25.803684 76.486702,25.906421 76.559169,25.979805 C 76.632567,26.052142 76.734195,26.088311 76.86406,26.088308 C 77.007093,26.088311 77.144964,26.040609 77.277643,25.945209 L 77.277643,26.294309 C 77.128962,26.380274 76.962398,26.423257 76.777958,26.423257 C 76.554928,26.423257 76.380376,26.350396 76.254277,26.204675 C 76.129118,26.058955 76.066529,25.859771 76.066529,25.607118 C 76.066529,25.334548 76.133349,25.11754 76.266979,24.956093 C 76.401541,24.793601 76.57846,24.712354 76.797716,24.712353 C 76.990626,24.712354 77.141189,24.779448 77.249414,24.913634 C 77.358572,25.046777 77.413155,25.232858 77.413155,25.47188 L 77.413155,25.671591 M 77.06026,25.388536 C 77.06026,25.276364 77.034856,25.188828 76.984037,25.125927 C 76.93417,25.063027 76.863119,25.031577 76.770895,25.031574 C 76.687151,25.031577 76.614684,25.064074 76.553521,25.12907 C 76.492349,25.193021 76.458007,25.27951 76.450477,25.388536 L 77.06026,25.388536"
         id="path2375"
         inkscape:r_cx="true"
         inkscape:r_cy="true" />
      <rect
         style="opacity:0.3976608;fill:#8d8d8d;fill-opacity:1;fill-rule:evenodd;stroke:none;stroke-width:1;stroke-linecap:butt;stroke-linejoin:miter;marker:none;marker-start:none;marker-mid:none;marker-end:none;stroke-miterlimit:4;stroke-dasharray:none;stroke-dashoffset:0;stroke-opacity:1;visibility:visible;display:inline;overflow:visible"
         id="rect5814"
         width="12.37499"
         height="1"
         x="65"
         y="28"
         rx="0.42429629"
         ry="0.5"
         inkscape:r_cx="true"
         inkscape:r_cy="true" />
      <rect
         ry="0.5"
         rx="0.46647558"
         y="31"
         x="65"
         height="1"
         width="9.9843502"
         id="rect2379"
         style="opacity:0.3976608;fill:#8d8d8d;fill-opacity:1;fill-rule:evenodd;stroke:none;stroke-width:1;stroke-linecap:butt;stroke-linejoin:miter;marker:none;marker-start:none;marker-mid:none;marker-end:none;stroke-miterlimit:4;stroke-dasharray:none;stroke-dashoffset:0;stroke-opacity:1;visibility:visible;display:inline;overflow:visible"
         inkscape:r_cx="true"
         inkscape:r_cy="true" />
      <rect
         inkscape:r_cy="true"
         inkscape:r_cx="true"
         style="opacity:0.48538011;fill:#000000;fill-opacity:1;fill-rule:evenodd;stroke:none;stroke-width:1;stroke-linecap:butt;stroke-linejoin:miter;marker:none;marker-start:none;marker-mid:none;marker-end:none;stroke-miterlimit:4;stroke-dasharray:none;stroke-dashoffset:0;stroke-opacity:1;visibility:visible;display:inline;overflow:visible"
         id="rect2383"
         width="0.82499903"
         height="3.2902544"
         x="54"
         y="35.015198"
         rx="0"
         ry="0" />
      <rect
         inkscape:r_cy="true"
         inkscape:r_cx="true"
         ry="0"
         rx="0"
         y="35"
         x="55.650002"
         height="1.636994"
         width="1.6499985"
         id="rect2385"
         style="opacity:0.48538011;fill:#000000;fill-opacity:1;fill-rule:evenodd;stroke:none;stroke-width:1;stroke-linecap:butt;stroke-linejoin:miter;marker:none;marker-start:none;marker-mid:none;marker-end:none;stroke-miterlimit:4;stroke-dasharray:none;stroke-dashoffset:0;stroke-opacity:1;visibility:visible;display:inline;overflow:visible" />
      <rect
         inkscape:r_cy="true"
         inkscape:r_cx="true"
         style="opacity:0.48538011;fill:#000000;fill-opacity:1;fill-rule:evenodd;stroke:none;stroke-width:1;stroke-linecap:butt;stroke-linejoin:miter;marker:none;marker-start:none;marker-mid:none;marker-end:none;stroke-miterlimit:4;stroke-dasharray:none;stroke-dashoffset:0;stroke-opacity:1;visibility:visible;display:inline;overflow:visible"
         id="rect2387"
         width="0.82499927"
         height="1.636994"
         x="58.124996"
         y="35" />
      <rect
         inkscape:r_cy="true"
         inkscape:r_cx="true"
         style="opacity:0.48538011;fill:#000000;fill-opacity:1;fill-rule:evenodd;stroke:none;stroke-width:1;stroke-linecap:butt;stroke-linejoin:miter;marker:none;marker-start:none;marker-mid:none;marker-end:none;stroke-miterlimit:4;stroke-dasharray:none;stroke-dashoffset:0;stroke-opacity:1;visibility:visible;display:inline;overflow:visible"
         id="rect2389"
         width="1.6499985"
         height="1.636994"
         x="59.774998"
         y="35" />
      <rect
         inkscape:r_cy="true"
         inkscape:r_cx="true"
         style="opacity:0.48538011;fill:#000000;fill-opacity:1;fill-rule:evenodd;stroke:none;stroke-width:1;stroke-linecap:butt;stroke-linejoin:miter;marker:none;marker-start:none;marker-mid:none;marker-end:none;stroke-miterlimit:4;stroke-dasharray:none;stroke-dashoffset:0;stroke-opacity:1;visibility:visible;display:inline;overflow:visible"
         id="rect2393"
         width="0.8174184"
         height="1.636994"
         x="63.074993"
         y="35" />
      <rect
         inkscape:r_cy="true"
         inkscape:r_cx="true"
         style="opacity:0.48538011;fill:#000000;fill-opacity:1;fill-rule:evenodd;stroke:none;stroke-width:1;stroke-linecap:butt;stroke-linejoin:miter;marker:none;marker-start:none;marker-mid:none;marker-end:none;stroke-miterlimit:4;stroke-dasharray:none;stroke-dashoffset:0;stroke-opacity:1;visibility:visible;display:inline;overflow:visible"
         id="rect2397"
         width="1.6499985"
         height="1.636994"
         x="64.724991"
         y="35" />
      <rect
         inkscape:r_cy="true"
         inkscape:r_cx="true"
         style="opacity:0.48538011;fill:#000000;fill-opacity:1;fill-rule:evenodd;stroke:none;stroke-width:1;stroke-linecap:butt;stroke-linejoin:miter;marker:none;marker-start:none;marker-mid:none;marker-end:none;stroke-miterlimit:4;stroke-dasharray:none;stroke-dashoffset:0;stroke-opacity:1;visibility:visible;display:inline;overflow:visible"
         id="rect2399"
         width="1.6499985"
         height="1.636994"
         x="67.199989"
         y="35" />
      <rect
         inkscape:r_cy="true"
         inkscape:r_cx="true"
         style="opacity:0.48538011;fill:#000000;fill-opacity:1;fill-rule:evenodd;stroke:none;stroke-width:1;stroke-linecap:butt;stroke-linejoin:miter;marker:none;marker-start:none;marker-mid:none;marker-end:none;stroke-miterlimit:4;stroke-dasharray:none;stroke-dashoffset:0;stroke-opacity:1;visibility:visible;display:inline;overflow:visible"
         id="rect2401"
         width="0.82499981"
         height="1.636994"
         x="69.674988"
         y="35.015198" />
      <rect
         inkscape:r_cy="true"
         inkscape:r_cx="true"
         style="opacity:0.48538011;fill:#000000;fill-opacity:1;fill-rule:evenodd;stroke:none;stroke-width:1;stroke-linecap:butt;stroke-linejoin:miter;marker:none;marker-start:none;marker-mid:none;marker-end:none;stroke-miterlimit:4;stroke-dasharray:none;stroke-dashoffset:0;stroke-opacity:1;visibility:visible;display:inline;overflow:visible"
         id="rect2403"
         width="0.82499927"
         height="1.636994"
         x="72.149986"
         y="35" />
      <rect
         inkscape:r_cy="true"
         inkscape:r_cx="true"
         style="opacity:0.48538011;fill:#000000;fill-opacity:1;fill-rule:evenodd;stroke:none;stroke-width:1;stroke-linecap:butt;stroke-linejoin:miter;marker:none;marker-start:none;marker-mid:none;marker-end:none;stroke-miterlimit:4;stroke-dasharray:none;stroke-dashoffset:0;stroke-opacity:1;visibility:visible;display:inline;overflow:visible"
         id="rect2407"
         width="1.6499985"
         height="1.636994"
         x="73.799988"
         y="35" />
      <rect
         inkscape:r_cy="true"
         inkscape:r_cx="true"
         style="opacity:0.48538011;fill:#000000;fill-opacity:1;fill-rule:evenodd;stroke:none;stroke-width:1;stroke-linecap:butt;stroke-linejoin:miter;marker:none;marker-start:none;marker-mid:none;marker-end:none;stroke-miterlimit:4;stroke-dasharray:none;stroke-dashoffset:0;stroke-opacity:1;visibility:visible;display:inline;overflow:visible"
         id="rect2411"
         width="0.82499981"
         height="3.2902544"
         x="78.175003"
         y="35.015198" />
      <path
         sodipodi:nodetypes="csssssccsssssccccsssssccsssssccccccsssssssccsssssssccccccccccccccccccccccsssssssccssssssscccsssssssccsssssssccccccsssssssccssssssscccccccsssssssccssssssscccccccccccccccsssssssccssssssscccccccccccccccsssssssccsssssssccssssssscccsssssssssssssssccccccsssssssccssssssscccccccccccccccccccsssssssccsssssssccssssssscccsssssssssssssssccccccsssssssccssssssscccccccccccccccccccssssssscccsssssssssssssssccccccsssssssccssssssscccccccccccsssssssccsssssssccssssssscccsssssssssssssssccccccsssssssccssssssscccccccccccssssssscccsssssssssssssssccccccccc"
         style="font-size:1.58812129px;font-style:normal;font-variant:normal;font-weight:normal;font-stretch:normal;line-height:120.00000477%;writing-mode:lr-tb;text-anchor:start;fill:#000000;fill-opacity:1;stroke:none;stroke-width:1pt;stroke-linecap:butt;stroke-linejoin:miter;stroke-opacity:1;font-family:Bitstream Vera Sans"
         d="M 56.026386,37.833206 C 56.080287,37.843753 56.122296,37.865695 56.152404,37.899032 C 56.182885,37.932372 56.19813,37.973535 56.19813,38.022521 C 56.19813,38.097704 56.169877,38.155877 56.113372,38.197039 C 56.056868,38.238202 55.976575,38.258784 55.872488,38.258784 C 55.837543,38.258784 55.801479,38.255552 55.764312,38.249089 C 55.727509,38.242965 55.689406,38.23361 55.65,38.221023 L 55.65,38.121517 C 55.681229,38.138187 55.71543,38.150775 55.752597,38.159278 C 55.789774,38.167783 55.828619,38.172035 55.869138,38.172035 C 55.939773,38.172035 55.993488,38.159278 56.030291,38.133764 C 56.067459,38.10825 56.086047,38.071169 56.086047,38.022521 C 56.086047,37.977618 56.068761,37.942577 56.034194,37.917403 C 55.999988,37.891888 55.952221,37.879132 55.890891,37.879132 L 55.793865,37.879132 L 55.793865,37.794425 L 55.895348,37.794425 C 55.95074,37.794426 55.993114,37.784389 56.022482,37.764318 C 56.051849,37.743907 56.066532,37.714651 56.066532,37.676549 C 56.066532,37.637427 56.051294,37.60749 56.020813,37.586739 C 55.990697,37.565647 55.947389,37.555101 55.890891,37.555101 C 55.860035,37.555101 55.82695,37.558164 55.791636,37.564286 C 55.756316,37.570409 55.717471,37.579935 55.675095,37.592861 L 55.675095,37.501011 C 55.717845,37.490124 55.757804,37.48196 55.794979,37.476517 C 55.832523,37.471074 55.867837,37.468353 55.900922,37.468352 C 55.986427,37.468353 56.054078,37.486213 56.103895,37.521933 C 56.153706,37.557312 56.178614,37.605279 56.178614,37.665833 C 56.178614,37.708017 56.165411,37.743737 56.139022,37.772992 C 56.112631,37.80191 56.075082,37.821981 56.026386,37.833206 M 56.509273,38.157237 L 56.902385,38.157237 L 56.902385,38.243986 L 56.37377,38.243986 L 56.37377,38.157237 C 56.416527,38.116755 56.4747,38.062495 56.548305,37.994456 C 56.622284,37.926078 56.66875,37.882024 56.687705,37.862293 C 56.723767,37.825212 56.748856,37.793914 56.762984,37.7684 C 56.777481,37.742546 56.784731,37.717202 56.784731,37.692368 C 56.784731,37.651885 56.769119,37.618887 56.737889,37.593373 C 56.707034,37.567858 56.666701,37.555101 56.616891,37.555101 C 56.581577,37.555101 56.544213,37.560715 56.504814,37.57194 C 56.465776,37.583168 56.423963,37.600176 56.379351,37.622969 L 56.379351,37.518871 C 56.424704,37.502202 56.467078,37.489614 56.506483,37.48111 C 56.545889,37.472605 56.581951,37.468353 56.614661,37.468352 C 56.7009,37.468353 56.769671,37.488084 56.820978,37.527545 C 56.872277,37.567008 56.897927,37.619737 56.897927,37.685733 C 56.897927,37.717032 56.891419,37.746799 56.878411,37.775034 C 56.86577,37.80293 56.842536,37.835927 56.80871,37.874028 C 56.799413,37.883894 56.76986,37.912471 56.720049,37.959756 C 56.670238,38.006703 56.599977,38.072529 56.509273,38.157237 M 57.44884,37.57194 L 57.16446,37.978637 L 57.44884,37.978637 L 57.44884,37.57194 M 57.419285,37.48213 L 57.560922,37.48213 L 57.560922,37.978637 L 57.679691,37.978637 L 57.679691,38.064365 L 57.560922,38.064365 L 57.560922,38.243986 L 57.44884,38.243986 L 57.44884,38.064365 L 57.073015,38.064365 L 57.073015,37.96486 L 57.419285,37.48213 M 57.867607,37.48213 L 58.309788,37.48213 L 58.309788,37.568879 L 57.970759,37.568879 L 57.970759,37.755643 C 57.987117,37.75054 58.003476,37.746799 58.019828,37.744417 C 58.036187,37.741696 58.052546,37.740335 58.068897,37.740334 C 58.161831,37.740335 58.235436,37.763638 58.289712,37.810243 C 58.343987,37.85685 58.371125,37.919955 58.371125,37.999559 C 58.371125,38.081545 58.34324,38.14533 58.287482,38.190916 C 58.231717,38.236162 58.153102,38.258784 58.051611,38.258784 C 58.016671,38.258784 57.980983,38.256063 57.944555,38.25062 C 57.908494,38.245177 57.871138,38.237012 57.832473,38.226126 L 57.832473,38.122537 C 57.865931,38.139208 57.900505,38.151624 57.936192,38.159788 C 57.971873,38.167953 58.00961,38.172035 58.049382,38.172035 C 58.113696,38.172035 58.164622,38.156557 58.202171,38.1256 C 58.239715,38.094642 58.25849,38.052628 58.25849,37.999559 C 58.25849,37.946489 58.239715,37.904476 58.202171,37.873519 C 58.164622,37.842561 58.113696,37.827083 58.049382,37.827083 C 58.019274,37.827083 57.98916,37.830145 57.959051,37.836268 C 57.929311,37.842392 57.89883,37.851918 57.867607,37.864844 L 57.867607,37.48213 M 59.198056,37.549997 C 59.140062,37.549998 59.096385,37.576194 59.067018,37.628583 C 59.038018,37.680631 59.023521,37.759046 59.023521,37.863823 C 59.023521,37.968262 59.038018,38.046676 59.067018,38.099064 C 59.096385,38.151114 59.140062,38.177138 59.198056,38.177138 C 59.256415,38.177138 59.300099,38.151114 59.329092,38.099064 C 59.358459,38.046676 59.373143,37.968262 59.373143,37.863823 C 59.373143,37.759046 59.358459,37.680631 59.329092,37.628583 C 59.300099,37.576194 59.256415,37.549998 59.198056,37.549997 M 59.198056,37.468352 C 59.291363,37.468353 59.362552,37.502202 59.41162,37.569899 C 59.461058,37.637257 59.48578,37.735232 59.48578,37.863823 C 59.48578,37.992075 59.461058,38.09005 59.41162,38.157747 C 59.362552,38.225105 59.291363,38.258784 59.198056,38.258784 C 59.104748,38.258784 59.033373,38.225105 58.983937,38.157747 C 58.934866,38.09005 58.910332,37.992075 58.910332,37.863823 C 58.910332,37.735232 58.934866,37.637257 58.983937,37.569899 C 59.033373,37.502202 59.104748,37.468353 59.198056,37.468352 M 59.6854,37.48213 L 60.127582,37.48213 L 60.127582,37.568879 L 59.78856,37.568879 L 59.78856,37.755643 C 59.804919,37.75054 59.82127,37.746799 59.83763,37.744417 C 59.853989,37.741696 59.870341,37.740335 59.886699,37.740334 C 59.979633,37.740335 60.053237,37.763638 60.107512,37.810243 C 60.161782,37.85685 60.18892,37.919955 60.18892,37.999559 C 60.18892,38.081545 60.161041,38.14533 60.105285,38.190916 C 60.049519,38.236162 59.970896,38.258784 59.869412,38.258784 C 59.834473,38.258784 59.798785,38.256063 59.76235,38.25062 C 59.726295,38.245177 59.688931,38.237012 59.650274,38.226126 L 59.650274,38.122537 C 59.683733,38.139208 59.718299,38.151624 59.753987,38.159788 C 59.789675,38.167953 59.827403,38.172035 59.867184,38.172035 C 59.93149,38.172035 59.982423,38.156557 60.019966,38.1256 C 60.057509,38.094642 60.076284,38.052628 60.076284,37.999559 C 60.076284,37.946489 60.057509,37.904476 60.019966,37.873519 C 59.982423,37.842561 59.93149,37.827083 59.867184,37.827083 C 59.837068,37.827083 59.806961,37.830145 59.776854,37.836268 C 59.747113,37.842392 59.716631,37.851918 59.6854,37.864844 L 59.6854,37.48213 M 60.412524,37.48213 L 60.854705,37.48213 L 60.854705,37.568879 L 60.515681,37.568879 L 60.515681,37.755643 C 60.532034,37.75054 60.548393,37.746799 60.564751,37.744417 C 60.581103,37.741696 60.597463,37.740335 60.613821,37.740334 C 60.706754,37.740335 60.780359,37.763638 60.834628,37.810243 C 60.888904,37.85685 60.916042,37.919955 60.916042,37.999559 C 60.916042,38.081545 60.888162,38.14533 60.832398,38.190916 C 60.776641,38.236162 60.698018,38.258784 60.596535,38.258784 C 60.561588,38.258784 60.5259,38.256063 60.489472,38.25062 C 60.45341,38.245177 60.416054,38.237012 60.377397,38.226126 L 60.377397,38.122537 C 60.410848,38.139208 60.445421,38.151624 60.48111,38.159788 C 60.516796,38.167953 60.554527,38.172035 60.594305,38.172035 C 60.658613,38.172035 60.709537,38.156557 60.747087,38.1256 C 60.78463,38.094642 60.803405,38.052628 60.803405,37.999559 C 60.803405,37.946489 60.78463,37.904476 60.747087,37.873519 C 60.709537,37.842561 60.658613,37.827083 60.594305,37.827083 C 60.564191,37.827083 60.534083,37.830145 60.503968,37.836268 C 60.474228,37.842392 60.443746,37.851918 60.412524,37.864844 L 60.412524,37.48213 M 61.11009,37.48213 L 61.645392,37.48213 L 61.645392,37.526015 L 61.343165,38.243986 L 61.225511,38.243986 L 61.509891,37.568879 L 61.11009,37.568879 L 61.11009,37.48213 M 62.230324,37.48213 L 62.672505,37.48213 L 62.672505,37.568879 L 62.333476,37.568879 L 62.333476,37.755643 C 62.349836,37.75054 62.366193,37.746799 62.382545,37.744417 C 62.398904,37.741696 62.415264,37.740335 62.431615,37.740334 C 62.524549,37.740335 62.598153,37.763638 62.652429,37.810243 C 62.706705,37.85685 62.733843,37.919955 62.733843,37.999559 C 62.733843,38.081545 62.705957,38.14533 62.6502,38.190916 C 62.594435,38.236162 62.515812,38.258784 62.414328,38.258784 C 62.379389,38.258784 62.343702,38.256063 62.307272,38.25062 C 62.271211,38.245177 62.233855,38.237012 62.19519,38.226126 L 62.19519,38.122537 C 62.228648,38.139208 62.263222,38.151624 62.29891,38.159788 C 62.334591,38.167953 62.372327,38.172035 62.412099,38.172035 C 62.476414,38.172035 62.527338,38.156557 62.564881,38.1256 C 62.602431,38.094642 62.621199,38.052628 62.621207,37.999559 C 62.621199,37.946489 62.602431,37.904476 62.564881,37.873519 C 62.527338,37.842561 62.476414,37.827083 62.412099,37.827083 C 62.381992,37.827083 62.351877,37.830145 62.321769,37.836268 C 62.292028,37.842392 62.261547,37.851918 62.230324,37.864844 L 62.230324,37.48213 M 62.97584,38.157237 L 63.159852,38.157237 L 63.159852,37.576023 L 62.959668,37.612763 L 62.959668,37.518871 L 63.158737,37.48213 L 63.271373,37.48213 L 63.271373,38.157237 L 63.455385,38.157237 L 63.455385,38.243986 L 62.97584,38.243986 L 62.97584,38.157237 M 63.924329,37.549997 C 63.866336,37.549998 63.82266,37.576194 63.793293,37.628583 C 63.764299,37.680631 63.749803,37.759046 63.749803,37.863823 C 63.749803,37.968262 63.764299,38.046676 63.793293,38.099064 C 63.82266,38.151114 63.866336,38.177138 63.924329,38.177138 C 63.982689,38.177138 64.026374,38.151114 64.055366,38.099064 C 64.084734,38.046676 64.099417,37.968262 64.099417,37.863823 C 64.099417,37.759046 64.084734,37.680631 64.055366,37.628583 C 64.026374,37.576194 63.982689,37.549998 63.924329,37.549997 M 63.924329,37.468352 C 64.017637,37.468353 64.088824,37.502202 64.137894,37.569899 C 64.187332,37.637257 64.212053,37.735232 64.212053,37.863823 C 64.212053,37.992075 64.187332,38.09005 64.137894,38.157747 C 64.088824,38.225105 64.017637,38.258784 63.924329,38.258784 C 63.831023,38.258784 63.759654,38.225105 63.71021,38.157747 C 63.661141,38.09005 63.636606,37.992075 63.636606,37.863823 C 63.636606,37.735232 63.661141,37.637257 63.71021,37.569899 C 63.759654,37.502202 63.831023,37.468353 63.924329,37.468352 M 64.665387,37.82198 C 64.614836,37.821981 64.574683,37.837799 64.544949,37.869437 C 64.515582,37.901074 64.500897,37.944448 64.500897,37.999559 C 64.500897,38.05433 64.515582,38.097704 64.544949,38.129681 C 64.574683,38.161319 64.614836,38.177138 64.665387,38.177138 C 64.715945,38.177138 64.755911,38.161319 64.785278,38.129681 C 64.815013,38.097704 64.829882,38.05433 64.829882,37.999559 C 64.829882,37.944448 64.815013,37.901074 64.785278,37.869437 C 64.755911,37.837799 64.715945,37.821981 64.665387,37.82198 M 64.888991,37.498969 L 64.888991,37.592861 C 64.860739,37.580615 64.832112,37.57126 64.803119,37.564796 C 64.774493,37.558333 64.74606,37.555101 64.717807,37.555101 C 64.643455,37.555101 64.586584,37.578064 64.547177,37.62399 C 64.508147,37.669916 64.48584,37.739315 64.480268,37.832186 C 64.502201,37.80259 64.529705,37.779967 64.56279,37.764318 C 64.595874,37.74833 64.632302,37.740335 64.672081,37.740334 C 64.755724,37.740335 64.821706,37.763638 64.870029,37.810243 C 64.918732,37.85651 64.943078,37.919615 64.943078,37.999559 C 64.943078,38.077804 64.917796,38.140569 64.867246,38.187854 C 64.816687,38.23514 64.749404,38.258784 64.665387,38.258784 C 64.56911,38.258784 64.495505,38.225105 64.444581,38.157747 C 64.393648,38.09005 64.368186,37.992075 64.368186,37.863823 C 64.368186,37.743396 64.399409,37.647463 64.461868,37.576023 C 64.52432,37.504243 64.608142,37.468353 64.713341,37.468352 C 64.741593,37.468353 64.770034,37.470905 64.798661,37.476007 C 64.827654,37.48111 64.857761,37.488765 64.888991,37.498969 M 65.502354,37.48213 L 65.944541,37.48213 L 65.944541,37.568879 L 65.60551,37.568879 L 65.60551,37.755643 C 65.62187,37.75054 65.638229,37.746799 65.65458,37.744417 C 65.67094,37.741696 65.687299,37.740335 65.703651,37.740334 C 65.796584,37.740335 65.870188,37.763638 65.924464,37.810243 C 65.978739,37.85685 66.005878,37.919955 66.005878,37.999559 C 66.005878,38.081545 65.977992,38.14533 65.922234,38.190916 C 65.86647,38.236162 65.787846,38.258784 65.686364,38.258784 C 65.651424,38.258784 65.615736,38.256063 65.579309,38.25062 C 65.543246,38.245177 65.50589,38.237012 65.467227,38.226126 L 65.467227,38.122537 C 65.500687,38.139208 65.535258,38.151624 65.570946,38.159788 C 65.606625,38.167953 65.644363,38.172035 65.684135,38.172035 C 65.748448,38.172035 65.799374,38.156557 65.836916,38.1256 C 65.874467,38.094642 65.893236,38.052628 65.893241,37.999559 C 65.893236,37.946489 65.874467,37.904476 65.836916,37.873519 C 65.799374,37.842561 65.748448,37.827083 65.684135,37.827083 C 65.654026,37.827083 65.623913,37.830145 65.593805,37.836268 C 65.564064,37.842392 65.533582,37.851918 65.502354,37.864844 L 65.502354,37.48213 M 66.537836,37.57194 L 66.253456,37.978637 L 66.537836,37.978637 L 66.537836,37.57194 M 66.508282,37.48213 L 66.649911,37.48213 L 66.649911,37.978637 L 66.76868,37.978637 L 66.76868,38.064365 L 66.649911,38.064365 L 66.649911,38.243986 L 66.537836,38.243986 L 66.537836,38.064365 L 66.162004,38.064365 L 66.162004,37.96486 L 66.508282,37.48213 M 67.196365,37.549997 C 67.138371,37.549998 67.094694,37.576194 67.065329,37.628583 C 67.036334,37.680631 67.021838,37.759046 67.021838,37.863823 C 67.021838,37.968262 67.036334,38.046676 67.065329,38.099064 C 67.094694,38.151114 67.138371,38.177138 67.196365,38.177138 C 67.254725,38.177138 67.298408,38.151114 67.327402,38.099064 C 67.356769,38.046676 67.371452,37.968262 67.371452,37.863823 C 67.371452,37.759046 67.356769,37.680631 67.327402,37.628583 C 67.298408,37.576194 67.254725,37.549998 67.196365,37.549997 M 67.196365,37.468352 C 67.289671,37.468353 67.36086,37.502202 67.409931,37.569899 C 67.459366,37.637257 67.484089,37.735232 67.484089,37.863823 C 67.484089,37.992075 67.459366,38.09005 67.409931,38.157747 C 67.36086,38.225105 67.289671,38.258784 67.196365,38.258784 C 67.103057,38.258784 67.031683,38.225105 66.982245,38.157747 C 66.933176,38.09005 66.908641,37.992075 66.908641,37.863823 C 66.908641,37.735232 66.933176,37.637257 66.982245,37.569899 C 67.031683,37.502202 67.103057,37.468353 67.196365,37.468352 M 67.937422,37.82198 C 67.886871,37.821981 67.846718,37.837799 67.816985,37.869437 C 67.787617,37.901074 67.772934,37.944448 67.772934,37.999559 C 67.772934,38.05433 67.787617,38.097704 67.816985,38.129681 C 67.846718,38.161319 67.886871,38.177138 67.937422,38.177138 C 67.987981,38.177138 68.02794,38.161319 68.057307,38.129681 C 68.087048,38.097704 68.101918,38.05433 68.101918,37.999559 C 68.101918,37.944448 68.087048,37.901074 68.057307,37.869437 C 68.02794,37.837799 67.987981,37.821981 67.937422,37.82198 M 68.161026,37.498969 L 68.161026,37.592861 C 68.132773,37.580615 68.104146,37.57126 68.075153,37.564796 C 68.046527,37.558333 68.018088,37.555101 67.989843,37.555101 C 67.915491,37.555101 67.858618,37.578064 67.819214,37.62399 C 67.780181,37.669916 67.757878,37.739315 67.752296,37.832186 C 67.774228,37.80259 67.80174,37.779967 67.834824,37.764318 C 67.867909,37.74833 67.904338,37.740335 67.944117,37.740334 C 68.02776,37.740335 68.093742,37.763638 68.142063,37.810243 C 68.190767,37.85651 68.215114,37.919615 68.215114,37.999559 C 68.215114,38.077804 68.189832,38.140569 68.13928,38.187854 C 68.088724,38.23514 68.021438,38.258784 67.937422,38.258784 C 67.841146,38.258784 67.76754,38.225105 67.716614,38.157747 C 67.665684,38.09005 67.640221,37.992075 67.640221,37.863823 C 67.640221,37.743396 67.671443,37.647463 67.733895,37.576023 C 67.796347,37.504243 67.880176,37.468353 67.985378,37.468352 C 68.013631,37.468353 68.042069,37.470905 68.070696,37.476007 C 68.09969,37.48111 68.129797,37.488765 68.161026,37.498969 M 68.77439,37.48213 L 69.216578,37.48213 L 69.216578,37.568879 L 68.877548,37.568879 L 68.877548,37.755643 C 68.893907,37.75054 68.910266,37.746799 68.926619,37.744417 C 68.942977,37.741696 68.959329,37.740335 68.975689,37.740334 C 69.068622,37.740335 69.142226,37.763638 69.196501,37.810243 C 69.250778,37.85685 69.277908,37.919955 69.277916,37.999559 C 69.277908,38.081545 69.250031,38.14533 69.194272,38.190916 C 69.138508,38.236162 69.059884,38.258784 68.958402,38.258784 C 68.923462,38.258784 68.887773,38.256063 68.851346,38.25062 C 68.815284,38.245177 68.777927,38.237012 68.739263,38.226126 L 68.739263,38.122537 C 68.772722,38.139208 68.807295,38.151624 68.842976,38.159788 C 68.878663,38.167953 68.9164,38.172035 68.956173,38.172035 C 69.020487,38.172035 69.071411,38.156557 69.108954,38.1256 C 69.146504,38.094642 69.165273,38.052628 69.165273,37.999559 C 69.165273,37.946489 69.146504,37.904476 69.108954,37.873519 C 69.071411,37.842561 69.020487,37.827083 68.956173,37.827083 C 68.926065,37.827083 68.89595,37.830145 68.865843,37.836268 C 68.836101,37.842392 68.805619,37.851918 68.77439,37.864844 L 68.77439,37.48213 M 69.809865,37.57194 L 69.525495,37.978637 L 69.809865,37.978637 L 69.809865,37.57194 M 69.780324,37.48213 L 69.921944,37.48213 L 69.921944,37.978637 L 70.040721,37.978637 L 70.040721,38.064365 L 69.921944,38.064365 L 69.921944,38.243986 L 69.809865,38.243986 L 69.809865,38.064365 L 69.434037,38.064365 L 69.434037,37.96486 L 69.780324,37.48213 M 70.482343,37.82198 C 70.431785,37.821981 70.391638,37.837799 70.361903,37.869437 C 70.332535,37.901074 70.317851,37.944448 70.317851,37.999559 C 70.317851,38.05433 70.332535,38.097704 70.361903,38.129681 C 70.391638,38.161319 70.431785,38.177138 70.482343,38.177138 C 70.532901,38.177138 70.572864,38.161319 70.602232,38.129681 C 70.631967,38.097704 70.646835,38.05433 70.646844,37.999559 C 70.646835,37.944448 70.631967,37.901074 70.602232,37.869437 C 70.572864,37.837799 70.532901,37.821981 70.482343,37.82198 M 70.705939,37.498969 L 70.705939,37.592861 C 70.677691,37.580615 70.649068,37.57126 70.620067,37.564796 C 70.591453,37.558333 70.563013,37.555101 70.534758,37.555101 C 70.460409,37.555101 70.403538,37.578064 70.364127,37.62399 C 70.325101,37.669916 70.30279,37.739315 70.297221,37.832186 C 70.319146,37.80259 70.346659,37.779967 70.379739,37.764318 C 70.412828,37.74833 70.449263,37.740335 70.489033,37.740334 C 70.57268,37.740335 70.638657,37.763638 70.686991,37.810243 C 70.735683,37.85651 70.760033,37.919615 70.760033,37.999559 C 70.760033,38.077804 70.734756,38.140569 70.684197,38.187854 C 70.633639,38.23514 70.566357,38.258784 70.482343,38.258784 C 70.38606,38.258784 70.312457,38.225105 70.261531,38.157747 C 70.210598,38.09005 70.185135,37.992075 70.185135,37.863823 C 70.185135,37.743396 70.216368,37.647463 70.278816,37.576023 C 70.341273,37.504243 70.425096,37.468353 70.5303,37.468352 C 70.558547,37.468353 70.586987,37.470905 70.615611,37.476007 C 70.644601,37.48111 70.674724,37.488765 70.705939,37.498969 M 70.95575,37.48213 L 71.397933,37.48213 L 71.397933,37.568879 L 71.058906,37.568879 L 71.058906,37.755643 C 71.075262,37.75054 71.091627,37.746799 71.107975,37.744417 C 71.12434,37.741696 71.140687,37.740335 71.157043,37.740334 C 71.249981,37.740335 71.323585,37.763638 71.377864,37.810243 C 71.432135,37.85685 71.459269,37.919955 71.459269,37.999559 C 71.459269,38.081545 71.43139,38.14533 71.375631,38.190916 C 71.319862,38.236162 71.241242,38.258784 71.139759,38.258784 C 71.104822,38.258784 71.069134,38.256063 71.032708,38.25062 C 70.996642,38.245177 70.959287,38.237012 70.92062,38.226126 L 70.92062,38.122537 C 70.954077,38.139208 70.988656,38.151624 71.024337,38.159788 C 71.060017,38.167953 71.097756,38.172035 71.137527,38.172035 C 71.20185,38.172035 71.252766,38.156557 71.290312,38.1256 C 71.327866,38.094642 71.34663,38.052628 71.34663,37.999559 C 71.34663,37.946489 71.327866,37.904476 71.290312,37.873519 C 71.252766,37.842561 71.20185,37.827083 71.137527,37.827083 C 71.107423,37.827083 71.077311,37.830145 71.047199,37.836268 C 71.017463,37.842392 70.986974,37.851918 70.95575,37.864844 L 70.95575,37.48213 M 72.016875,37.48213 L 72.552179,37.48213 L 72.552179,37.526015 L 72.249954,38.243986 L 72.132298,38.243986 L 72.416678,37.568879 L 72.016875,37.568879 L 72.016875,37.48213 M 73.013328,37.549997 C 72.955336,37.549998 72.911652,37.576194 72.882285,37.628583 C 72.853284,37.680631 72.838792,37.759046 72.838792,37.863823 C 72.838792,37.968262 72.853284,38.046676 72.882285,38.099064 C 72.911652,38.151114 72.955336,38.177138 73.013328,38.177138 C 73.071686,38.177138 73.115362,38.151114 73.144363,38.099064 C 73.173731,38.046676 73.188415,37.968262 73.188415,37.863823 C 73.188415,37.759046 73.173731,37.680631 73.144363,37.628583 C 73.115362,37.576194 73.071686,37.549998 73.013328,37.549997 M 73.013328,37.468352 C 73.106624,37.468353 73.17781,37.502202 73.22688,37.569899 C 73.276326,37.637257 73.301054,37.735232 73.301054,37.863823 C 73.301054,37.992075 73.276326,38.09005 73.22688,38.157747 C 73.17781,38.225105 73.106624,38.258784 73.013328,38.258784 C 72.920014,38.258784 72.848642,38.225105 72.799197,38.157747 C 72.750127,38.09005 72.725594,37.992075 72.725594,37.863823 C 72.725594,37.735232 72.750127,37.637257 72.799197,37.569899 C 72.848642,37.502202 72.920014,37.468353 73.013328,37.468352 M 73.754382,37.82198 C 73.703824,37.821981 73.663678,37.837799 73.633933,37.869437 C 73.604574,37.901074 73.589891,37.944448 73.589891,37.999559 C 73.589891,38.05433 73.604574,38.097704 73.633933,38.129681 C 73.663678,38.161319 73.703824,38.177138 73.754382,38.177138 C 73.804931,38.177138 73.844903,38.161319 73.874271,38.129681 C 73.903997,38.097704 73.918875,38.05433 73.918875,37.999559 C 73.918875,37.944448 73.903997,37.901074 73.874271,37.869437 C 73.844903,37.837799 73.804931,37.821981 73.754382,37.82198 M 73.977978,37.498969 L 73.977978,37.592861 C 73.949731,37.580615 73.921098,37.57126 73.892106,37.564796 C 73.863492,37.558333 73.835053,37.555101 73.806796,37.555101 C 73.732448,37.555101 73.675569,37.578064 73.636165,37.62399 C 73.597132,37.669916 73.57483,37.739315 73.569262,37.832186 C 73.591187,37.80259 73.618689,37.779967 73.651778,37.764318 C 73.684859,37.74833 73.721302,37.740335 73.761072,37.740334 C 73.84471,37.740335 73.910696,37.763638 73.959021,37.810243 C 74.007722,37.85651 74.032063,37.919615 74.032063,37.999559 C 74.032063,38.077804 74.006794,38.140569 73.956236,38.187854 C 73.905679,38.23514 73.838388,38.258784 73.754382,38.258784 C 73.6581,38.258784 73.584496,38.225105 73.533571,38.157747 C 73.482636,38.09005 73.457173,37.992075 73.457173,37.863823 C 73.457173,37.743396 73.488408,37.647463 73.550856,37.576023 C 73.613303,37.504243 73.697126,37.468353 73.80233,37.468352 C 73.830587,37.468353 73.859025,37.470905 73.88765,37.476007 C 73.916642,37.48111 73.946753,37.488765 73.977978,37.498969 M 74.22779,37.48213 L 74.669972,37.48213 L 74.669972,37.568879 L 74.330945,37.568879 L 74.330945,37.755643 C 74.347301,37.75054 74.363668,37.746799 74.380014,37.744417 C 74.396371,37.741696 74.412736,37.740335 74.429083,37.740334 C 74.52202,37.740335 74.595624,37.763638 74.649894,37.810243 C 74.704174,37.85685 74.731309,37.919955 74.731309,37.999559 C 74.731309,38.081545 74.70343,38.14533 74.64767,38.190916 C 74.591903,38.236162 74.513282,38.258784 74.4118,38.258784 C 74.376853,38.258784 74.341171,38.256063 74.304738,38.25062 C 74.26868,38.245177 74.231327,38.237012 74.19266,38.226126 L 74.19266,38.122537 C 74.226117,38.139208 74.260695,38.151624 74.296376,38.159788 C 74.332057,38.167953 74.369796,38.172035 74.409566,38.172035 C 74.47388,38.172035 74.524806,38.156557 74.56235,38.1256 C 74.599897,38.094642 74.61867,38.052628 74.61868,37.999559 C 74.61867,37.946489 74.599897,37.904476 74.56235,37.873519 C 74.524806,37.842561 74.47388,37.827083 74.409566,37.827083 C 74.379463,37.827083 74.349341,37.830145 74.319238,37.836268 C 74.289493,37.842392 74.259014,37.851918 74.22779,37.864844 L 74.22779,37.48213 M 75.288914,37.48213 L 75.824218,37.48213 L 75.824218,37.526015 L 75.521993,38.243986 L 75.404337,38.243986 L 75.688718,37.568879 L 75.288914,37.568879 L 75.288914,37.48213 M 76.299297,37.82198 C 76.24874,37.821981 76.208594,37.837799 76.178857,37.869437 C 76.14949,37.901074 76.134806,37.944448 76.134806,37.999559 C 76.134806,38.05433 76.14949,38.097704 76.178857,38.129681 C 76.208594,38.161319 76.24874,38.177138 76.299297,38.177138 C 76.349856,38.177138 76.389818,38.161319 76.419186,38.129681 C 76.448922,38.097704 76.463789,38.05433 76.463789,37.999559 C 76.463789,37.944448 76.448922,37.901074 76.419186,37.869437 C 76.389818,37.837799 76.349856,37.821981 76.299297,37.82198 M 76.522904,37.498969 L 76.522904,37.592861 C 76.494646,37.580615 76.466023,37.57126 76.437031,37.564796 C 76.408408,37.558333 76.379968,37.555101 76.351712,37.555101 C 76.277363,37.555101 76.220484,37.578064 76.181081,37.62399 C 76.142048,37.669916 76.119745,37.739315 76.114177,37.832186 C 76.136102,37.80259 76.163613,37.779967 76.196703,37.764318 C 76.229784,37.74833 76.266218,37.740335 76.305996,37.740334 C 76.389626,37.740335 76.455612,37.763638 76.503937,37.810243 C 76.552637,37.85651 76.576979,37.919615 76.576979,37.999559 C 76.576979,38.077804 76.55171,38.140569 76.501152,38.187854 C 76.450594,38.23514 76.383313,38.258784 76.299297,38.258784 C 76.203025,38.258784 76.129421,38.225105 76.078486,38.157747 C 76.027561,38.09005 76.002099,37.992075 76.002099,37.863823 C 76.002099,37.743396 76.033323,37.647463 76.095771,37.576023 C 76.158219,37.504243 76.242051,37.468353 76.347255,37.468352 C 76.375502,37.468353 76.403942,37.470905 76.432565,37.476007 C 76.461566,37.48111 76.491669,37.488765 76.522904,37.498969 M 76.743154,37.48213 L 77.278457,37.48213 L 77.278457,37.526015 L 76.976231,38.243986 L 76.858585,38.243986 L 77.142957,37.568879 L 76.743154,37.568879 L 76.743154,37.48213"
         id="path2413"
         inkscape:r_cx="true"
         inkscape:r_cy="true" />
      <rect
         style="fill:url(#linearGradient6904);fill-opacity:1;fill-rule:evenodd;stroke:none;stroke-width:1;stroke-linecap:butt;stroke-linejoin:miter;marker:none;marker-start:none;marker-mid:none;marker-end:none;stroke-miterlimit:4;stroke-dasharray:none;stroke-dashoffset:0;stroke-opacity:1;visibility:visible;display:inline;overflow:visible"
         id="rect2415"
         width="9.0749922"
         height="10"
         x="53.925007"
         y="23"
         inkscape:r_cx="true"
         inkscape:r_cy="true"
         rx="0.2842356"
         ry="0.26699203" />
      <g
         id="g2417"
         transform="matrix(0.2678839,0,0,0.2791497,48.427014,21.625367)"
         inkscape:r_cx="true"
         inkscape:r_cy="true"
         style="fill:#939393;fill-opacity:1;stroke:none">
        <path
           sodipodi:nodetypes="ccccc"
           id="path2419"
           d="M 50.301157,40.747425 C 51.336796,37.764949 50.477934,31.855136 43.76042,27.258942 L 31.209274,27.258942 C 24.49176,31.501582 23.652283,37.303773 25.198867,40.69397 C 25.198867,40.69397 50.301157,40.747425 50.301157,40.747425 z"
           style="opacity:1;fill:#939393;fill-opacity:1;fill-rule:evenodd;stroke:none;stroke-width:2.29990602px;stroke-linecap:round;stroke-linejoin:round;marker:none;marker-start:none;marker-mid:none;marker-end:none;stroke-miterlimit:4;stroke-dasharray:none;stroke-dashoffset:0;stroke-opacity:1;visibility:visible;display:inline;overflow:visible"
           inkscape:r_cx="true"
           inkscape:r_cy="true" />
        <path
           transform="translate(6.407083,1.742408)"
           d="M 39.774755,19.008621 A 8.6620579,8.6620579 0 1 1 22.45064,19.008621 A 8.6620579,8.6620579 0 1 1 39.774755,19.008621 z"
           sodipodi:ry="8.6620579"
           sodipodi:rx="8.6620579"
           sodipodi:cy="19.008621"
           sodipodi:cx="31.112698"
           id="path2421"
           style="opacity:1;fill:#939393;fill-opacity:1;fill-rule:evenodd;stroke:none;stroke-width:2.29990602px;stroke-linecap:round;stroke-linejoin:round;marker:none;marker-start:none;marker-mid:none;marker-end:none;stroke-miterlimit:4;stroke-dasharray:none;stroke-dashoffset:0;stroke-opacity:1;visibility:visible;display:inline;overflow:visible"
           sodipodi:type="arc"
           inkscape:r_cx="true"
           inkscape:r_cy="true" />
      </g>
      <rect
         inkscape:r_cy="true"
         inkscape:r_cx="true"
         ry="1.5070788"
         rx="1.6054286"
         y="21.501081"
         x="52.53672"
         height="18.092081"
         width="27.96036"
         id="rect2423"
         style="fill:none;fill-opacity:1;fill-rule:evenodd;stroke:#ffffff;stroke-width:1;stroke-linecap:butt;stroke-linejoin:miter;marker:none;marker-start:none;marker-mid:none;marker-end:none;stroke-miterlimit:4;stroke-dasharray:none;stroke-dashoffset:0;stroke-opacity:1;visibility:visible;display:inline;overflow:visible" />
      <rect
         inkscape:r_cy="true"
         inkscape:r_cx="true"
         style="opacity:0.48538011;fill:#000000;fill-opacity:1;fill-rule:evenodd;stroke:none;stroke-width:1;stroke-linecap:butt;stroke-linejoin:miter;marker:none;marker-start:none;marker-mid:none;marker-end:none;stroke-miterlimit:4;stroke-dasharray:none;stroke-dashoffset:0;stroke-opacity:1;visibility:visible;display:inline;overflow:visible"
         id="rect2474"
         width="0.82499927"
         height="1.636994"
         x="76.274979"
         y="35" />
    </g>
  </g>
</svg>
