<?xml version="1.0" encoding="UTF-8" standalone="no"?>
<!-- Created with Inkscape (http://www.inkscape.org/) -->
<svg
   xmlns:dc="http://purl.org/dc/elements/1.1/"
   xmlns:cc="http://web.resource.org/cc/"
   xmlns:rdf="http://www.w3.org/1999/02/22-rdf-syntax-ns#"
   xmlns:svg="http://www.w3.org/2000/svg"
   xmlns="http://www.w3.org/2000/svg"
   xmlns:xlink="http://www.w3.org/1999/xlink"
   xmlns:sodipodi="http://sodipodi.sourceforge.net/DTD/sodipodi-0.dtd"
   xmlns:inkscape="http://www.inkscape.org/namespaces/inkscape"
   sodipodi:docname="cpu.svg"
   sodipodi:docbase="/home/jesusda/docs/themes/iconos/pasodoble"
   inkscape:version="0.44"
   sodipodi:version="0.32"
   id="svg2913"
   height="48px"
   width="48px"
   inkscape:export-filename="/home/jesusda/docs/themes/iconos/pasodoble/cpu.png"
   inkscape:export-xdpi="240"
   inkscape:export-ydpi="240">
  <defs
     id="defs3">
    <linearGradient
       inkscape:collect="always"
       id="linearGradient3738">
      <stop
         style="stop-color:#eeeeec;stop-opacity:1;"
         offset="0"
         id="stop3740" />
      <stop
         style="stop-color:#eeeeec;stop-opacity:0;"
         offset="1"
         id="stop3742" />
    </linearGradient>
    <linearGradient
       id="linearGradient4264"
       inkscape:collect="always">
      <stop
         id="stop4266"
         offset="0"
         style="stop-color:#000000;stop-opacity:1;" />
      <stop
         id="stop4268"
         offset="1"
         style="stop-color:#000000;stop-opacity:0;" />
    </linearGradient>
    <linearGradient
       id="linearGradient4254"
       inkscape:collect="always">
      <stop
         id="stop4256"
         offset="0"
         style="stop-color:#ffffff;stop-opacity:1;" />
      <stop
         id="stop4258"
         offset="1"
         style="stop-color:#ffffff;stop-opacity:0;" />
    </linearGradient>
    <radialGradient
       inkscape:collect="always"
       xlink:href="#linearGradient4264"
       id="radialGradient1464"
       gradientUnits="userSpaceOnUse"
       gradientTransform="matrix(1,0,0,0.651032,0,9.455693)"
       cx="23.201941"
       cy="27.096155"
       fx="23.201941"
       fy="27.096155"
       r="23.555494" />
    <linearGradient
       inkscape:collect="always"
       xlink:href="#linearGradient4254"
       id="linearGradient1507"
       gradientUnits="userSpaceOnUse"
       gradientTransform="translate(0.228553,1.055463)"
       x1="12.378357"
       y1="4.4331360"
       x2="44.096100"
       y2="47.620636" />
    <linearGradient
       inkscape:collect="always"
       xlink:href="#linearGradient3738"
       id="linearGradient3744"
       x1="7.601398"
       y1="35.537243"
       x2="8.5294752"
       y2="38.498253"
       gradientUnits="userSpaceOnUse"
       gradientTransform="translate(0.22097,-2.342291)" />
    <linearGradient
       inkscape:collect="always"
       xlink:href="#linearGradient3738"
       id="linearGradient3748"
       gradientUnits="userSpaceOnUse"
       gradientTransform="translate(19.38136,-2.342291)"
       x1="7.601398"
       y1="35.537243"
       x2="8.5294752"
       y2="38.498253" />
    <linearGradient
       inkscape:collect="always"
       xlink:href="#linearGradient3738"
       id="linearGradient3752"
       gradientUnits="userSpaceOnUse"
       gradientTransform="translate(12.98365,-2.342291)"
       x1="7.601398"
       y1="35.537243"
       x2="8.5294752"
       y2="38.498253" />
    <linearGradient
       inkscape:collect="always"
       xlink:href="#linearGradient3738"
       id="linearGradient3756"
       gradientUnits="userSpaceOnUse"
       gradientTransform="translate(6.585907,-2.342291)"
       x1="7.601398"
       y1="35.537243"
       x2="8.5294752"
       y2="38.498253" />
    <linearGradient
       inkscape:collect="always"
       xlink:href="#linearGradient3738"
       id="linearGradient3760"
       gradientUnits="userSpaceOnUse"
       gradientTransform="translate(25.77907,-2.342291)"
       x1="7.601398"
       y1="35.537243"
       x2="8.5294752"
       y2="38.498253" />
    <linearGradient
       inkscape:collect="always"
       xlink:href="#linearGradient3738"
       id="linearGradient3764"
       gradientUnits="userSpaceOnUse"
       gradientTransform="translate(32.13259,-2.342291)"
       x1="7.601398"
       y1="35.537243"
       x2="8.5294752"
       y2="38.498253" />
  </defs>
  <sodipodi:namedview
     inkscape:window-y="43"
     inkscape:window-x="128"
     inkscape:window-height="768"
     inkscape:window-width="1016"
     inkscape:document-units="px"
     inkscape:grid-bbox="true"
     showgrid="false"
     inkscape:current-layer="layer2"
     inkscape:cy="40.481464"
     inkscape:cx="21.920506"
     inkscape:zoom="2.8284271"
     inkscape:pageshadow="2"
     inkscape:pageopacity="0.0"
     borderopacity="1.0"
     bordercolor="#666666"
     pagecolor="#ffffff"
     id="base"
     inkscape:showpageshadow="false" />
  <metadata
     id="metadata4">
    <rdf:RDF>
      <cc:Work
         rdf:about="">
        <dc:format>image/svg+xml</dc:format>
        <dc:type
           rdf:resource="http://purl.org/dc/dcmitype/StillImage" />
        <dc:title>cpu</dc:title>
        <dc:creator>
          <cc:Agent>
            <dc:title>jEsuSdA</dc:title>
          </cc:Agent>
        </dc:creator>
        <dc:subject>
          <rdf:Bag>
            <rdf:li>cpu</rdf:li>
            <rdf:li>core</rdf:li>
            <rdf:li>gpu</rdf:li>
            <rdf:li>fpu</rdf:li>
            <rdf:li>chip</rdf:li>
            <rdf:li>intel</rdf:li>
            <rdf:li>amd</rdf:li>
            <rdf:li>arm</rdf:li>
          </rdf:Bag>
        </dc:subject>
        <cc:license
           rdf:resource="http://creativecommons.org/licenses/by-sa/2.0/" />
        <dc:identifier />
        <dc:source>http://www.jesusda.com</dc:source>
        <dc:contributor>
          <cc:Agent>
            <dc:title>Jakub Steiner</dc:title>
          </cc:Agent>
        </dc:contributor>
      </cc:Work>
      <cc:License
         rdf:about="http://creativecommons.org/licenses/by-sa/2.0/">
        <cc:permits
           rdf:resource="http://web.resource.org/cc/Reproduction" />
        <cc:permits
           rdf:resource="http://web.resource.org/cc/Distribution" />
        <cc:requires
           rdf:resource="http://web.resource.org/cc/Notice" />
        <cc:requires
           rdf:resource="http://web.resource.org/cc/Attribution" />
        <cc:permits
           rdf:resource="http://web.resource.org/cc/DerivativeWorks" />
        <cc:requires
           rdf:resource="http://web.resource.org/cc/ShareAlike" />
      </cc:License>
    </rdf:RDF>
  </metadata>
  <g
     inkscape:label="pix"
     id="layer2"
     inkscape:groupmode="layer">
    <path
       transform="matrix(1.052533,0,0,0.363113,-0.283204,27.17528)"
       d="M 46.757435 27.096155 A 23.555494 15.335379 0 1 1  -0.35355377,27.096155 A 23.555494 15.335379 0 1 1  46.757435 27.096155 z"
       sodipodi:ry="15.335379"
       sodipodi:rx="23.555494"
       sodipodi:cy="27.096155"
       sodipodi:cx="23.201941"
       id="path4262"
       style="opacity:0.56000001;color:black;fill:url(#radialGradient1464);fill-opacity:1;fill-rule:evenodd;stroke:none;stroke-width:1;stroke-linecap:round;stroke-linejoin:round;marker:none;marker-start:none;marker-mid:none;marker-end:none;stroke-miterlimit:4;stroke-dasharray:none;stroke-dashoffset:0;stroke-opacity:1;visibility:visible;display:inline;overflow:visible"
       sodipodi:type="arc" />
    <path
       sodipodi:nodetypes="cccsccccccccc"
       id="path4196"
       d="M 9.5142434,15.018085 C 8.8892434,15.018085 8.4829944,15.308265 8.2329954,15.861838 C 8.2329944,15.861838 3.7642449,26.965402 3.7642449,26.965402 C 3.7642449,26.965402 3.5142449,27.636961 3.5142449,28.746652 C 3.5142449,28.746652 3.5142449,34.39662 3.5142449,34.39662 C 3.5142449,35.479233 4.1720304,36.021622 5.1704949,36.02162 L 43.732993,36.02162 C 44.717846,36.02162 45.326743,35.30344 45.326743,34.17787 L 45.326743,28.527902 C 45.326743,28.527902 45.432706,27.757479 45.232993,27.215402 L 40.514243,16.018089 C 40.329718,15.506182 39.877338,15.029991 39.389243,15.018085 L 9.5142434,15.018085 z "
       style="fill:#2e3436;fill-opacity:1;fill-rule:evenodd;stroke:#2e3436;stroke-width:2;stroke-linecap:round;stroke-linejoin:round;stroke-miterlimit:4;stroke-dasharray:none;stroke-opacity:1" />
    <path
       sodipodi:nodetypes="ccccccccc"
       id="path4170"
       d="M 3.5021449,28.052276 L 4.266747,27.360061 L 41.876436,27.422561 L 45.338843,27.739859 L 45.338843,34.178391 C 45.338843,35.30396 44.731825,36.021722 43.746972,36.021722 L 5.1639848,36.021722 C 4.1655201,36.021722 3.5021449,35.479671 3.5021449,34.397058 L 3.5021449,28.052276 z "
       style="fill:#555753;fill-opacity:1;fill-rule:evenodd;stroke:none;stroke-width:1.02044296px;stroke-linecap:butt;stroke-linejoin:miter;stroke-opacity:1" />
    <path
       sodipodi:nodetypes="csccccccs"
       id="path3093"
       d="M 3.7776376,26.969868 C 3.0633519,28.434154 3.777022,29.362725 4.8133519,29.362725 C 4.8133519,29.362725 43.81335,29.362725 43.81335,29.362725 C 44.932397,29.338915 45.658588,28.35082 45.241921,27.219867 L 40.527635,16.009162 C 40.343111,15.497255 39.872873,15.021063 39.384778,15.009158 L 9.5276364,15.009158 C 8.9026364,15.009158 8.4919224,15.312731 8.2419234,15.866304 C 8.2419234,15.866304 3.7776376,26.969868 3.7776376,26.969868 z "
       style="fill:#555753;fill-opacity:1;fill-rule:evenodd;stroke:none;stroke-width:1px;stroke-linecap:butt;stroke-linejoin:miter;stroke-opacity:1" />
    <path
       style="fill:none;fill-opacity:1;fill-rule:evenodd;stroke:url(#linearGradient1507);stroke-width:1.00000024;stroke-linecap:round;stroke-linejoin:round;stroke-miterlimit:4;stroke-dasharray:none;stroke-opacity:1"
       d="M 9.8710684,15.47118 C 9.2693764,15.47118 8.8782774,15.750539 8.6376024,16.283467 C 8.6376014,16.283467 4.2225875,26.874196 4.2225875,26.874196 C 4.2225875,26.874196 3.9819107,27.520711 3.9819107,28.589019 C 3.9819107,28.589019 3.9819107,33.879115 3.9819107,33.879115 C 3.9819107,35.233855 4.4259668,35.506014 5.5763948,35.506014 L 43.263299,35.506014 C 44.586425,35.506014 44.797615,35.189617 44.797615,33.668522 L 44.797615,28.378426 C 44.797615,28.378426 44.899625,27.636735 44.70736,27.114873 L 40.114169,16.308891 C 39.936526,15.816075 39.563517,15.482641 39.093624,15.47118 L 9.8710684,15.47118 z "
       id="path4252"
       sodipodi:nodetypes="cccsccccccccc" />
    <path
       sodipodi:nodetypes="cccccccc"
       id="path4201"
       d="M 45.024715,26.684152 C 45.088237,27.934126 44.610712,28.999992 43.702599,29.027902 C 43.702599,29.027902 5.583883,29.027901 5.5838831,29.027902 C 4.2946512,29.027902 3.7161471,28.702955 3.4998324,28.159846 C 3.5915938,29.104178 4.3256498,29.809152 5.5838831,29.809152 C 5.583883,29.809151 43.702599,29.809152 43.702599,29.809152 C 44.778606,29.776081 45.455404,28.385128 45.054763,26.814361 L 45.024715,26.684152 z "
       style="fill:#c2c2c1;fill-opacity:1;fill-rule:evenodd;stroke:none;stroke-width:1px;stroke-linecap:butt;stroke-linejoin:miter;stroke-opacity:1" />
    <rect
       style="opacity:1;fill:#edd400;fill-opacity:1;stroke:#c4a000;stroke-width:1;stroke-linecap:round;stroke-linejoin:round;stroke-miterlimit:4;stroke-dasharray:none;stroke-dashoffset:0;stroke-opacity:1"
       id="rect1944"
       width="3.8890872"
       height="8.485281"
       x="25.049622"
       y="32.486542" />
    <rect
       y="32.486542"
       x="31.424622"
       height="8.485281"
       width="3.8890872"
       id="rect2833"
       style="opacity:1;fill:#edd400;fill-opacity:1;stroke:#c4a000;stroke-width:1;stroke-linecap:round;stroke-linejoin:round;stroke-miterlimit:4;stroke-dasharray:none;stroke-dashoffset:0;stroke-opacity:1" />
    <rect
       style="opacity:1;fill:#edd400;fill-opacity:1;stroke:#c4a000;stroke-width:1;stroke-linecap:round;stroke-linejoin:round;stroke-miterlimit:4;stroke-dasharray:none;stroke-dashoffset:0;stroke-opacity:1"
       id="rect2835"
       width="3.8890872"
       height="8.485281"
       x="37.799622"
       y="32.486542" />
    <rect
       y="32.486542"
       x="5.9246211"
       height="8.485281"
       width="3.8890872"
       id="rect2837"
       style="opacity:1;fill:#edd400;fill-opacity:1;stroke:#c4a000;stroke-width:1;stroke-linecap:round;stroke-linejoin:round;stroke-miterlimit:4;stroke-dasharray:none;stroke-dashoffset:0;stroke-opacity:1" />
    <rect
       style="opacity:1;fill:#edd400;fill-opacity:1;stroke:#c4a000;stroke-width:1;stroke-linecap:round;stroke-linejoin:round;stroke-miterlimit:4;stroke-dasharray:none;stroke-dashoffset:0;stroke-opacity:1"
       id="rect2839"
       width="3.8890872"
       height="8.485281"
       x="12.299622"
       y="32.486542" />
    <rect
       y="32.486542"
       x="18.674622"
       height="8.485281"
       width="3.8890872"
       id="rect2841"
       style="opacity:1;fill:#edd400;fill-opacity:1;stroke:#c4a000;stroke-width:1;stroke-linecap:round;stroke-linejoin:round;stroke-miterlimit:4;stroke-dasharray:none;stroke-dashoffset:0;stroke-opacity:1" />
    <path
       style="fill:url(#linearGradient3744);fill-opacity:1;fill-rule:evenodd;stroke:none;stroke-width:1px;stroke-linecap:butt;stroke-linejoin:miter;stroke-opacity:0"
       d="M 6.5849319,33.28334 C 7.4098898,33.253877 8.2348478,33.268609 9.0598057,33.239146 C 9.0303429,34.417657 9.0008801,35.551975 8.9714173,36.730486 C 8.5294756,33.5927 6.6733203,35.18369 6.5849319,33.28334 z "
       id="path2843"
       sodipodi:nodetypes="cccc" />
    <path
       sodipodi:nodetypes="cccc"
       id="path3746"
       d="M 25.745245,33.28334 C 26.570203,33.253877 27.395161,33.268609 28.220119,33.239146 C 28.190656,34.417657 28.161194,35.551975 28.131731,36.730486 C 27.689789,33.5927 25.833634,35.18369 25.745245,33.28334 z "
       style="fill:url(#linearGradient3748);fill-opacity:1;fill-rule:evenodd;stroke:none;stroke-width:1px;stroke-linecap:butt;stroke-linejoin:miter;stroke-opacity:0" />
    <path
       style="fill:url(#linearGradient3752);fill-opacity:1;fill-rule:evenodd;stroke:none;stroke-width:1px;stroke-linecap:butt;stroke-linejoin:miter;stroke-opacity:0"
       d="M 19.347499,33.28334 C 20.172457,33.253877 20.997415,33.268609 21.822373,33.239146 C 21.79291,34.417657 21.763448,35.551975 21.733985,36.730486 C 21.292043,33.5927 19.435888,35.18369 19.347499,33.28334 z "
       id="path3750"
       sodipodi:nodetypes="cccc" />
    <path
       sodipodi:nodetypes="cccc"
       id="path3754"
       d="M 12.949753,33.28334 C 13.774711,33.253877 14.599669,33.268609 15.424627,33.239146 C 15.395164,34.417657 15.365702,35.551975 15.336239,36.730486 C 14.894297,33.5927 13.038142,35.18369 12.949753,33.28334 z "
       style="fill:url(#linearGradient3756);fill-opacity:1;fill-rule:evenodd;stroke:none;stroke-width:1px;stroke-linecap:butt;stroke-linejoin:miter;stroke-opacity:0" />
    <path
       style="fill:url(#linearGradient3760);fill-opacity:1;fill-rule:evenodd;stroke:none;stroke-width:1px;stroke-linecap:butt;stroke-linejoin:miter;stroke-opacity:0"
       d="M 32.142991,33.28334 C 32.967949,33.253877 33.792907,33.268609 34.617865,33.239146 C 34.588402,34.417657 34.55894,35.551975 34.529477,36.730486 C 34.087535,33.5927 32.23138,35.18369 32.142991,33.28334 z "
       id="path3758"
       sodipodi:nodetypes="cccc" />
    <path
       sodipodi:nodetypes="cccc"
       id="path3762"
       d="M 38.496543,33.28334 C 39.321501,33.253877 40.146459,33.268609 40.971417,33.239146 C 40.941954,34.417657 40.912492,35.551975 40.883029,36.730486 C 40.441087,33.5927 38.584932,35.18369 38.496543,33.28334 z "
       style="fill:url(#linearGradient3764);fill-opacity:1;fill-rule:evenodd;stroke:none;stroke-width:1px;stroke-linecap:butt;stroke-linejoin:miter;stroke-opacity:0" />
  </g>
</svg>
