<?xml version="1.0" encoding="UTF-8" standalone="no"?>
<svg
   xmlns:dc="http://purl.org/dc/elements/1.1/"
   xmlns:cc="http://creativecommons.org/ns#"
   xmlns:rdf="http://www.w3.org/1999/02/22-rdf-syntax-ns#"
   xmlns:svg="http://www.w3.org/2000/svg"
   xmlns="http://www.w3.org/2000/svg"
   xmlns:xlink="http://www.w3.org/1999/xlink"
   xmlns:sodipodi="http://sodipodi.sourceforge.net/DTD/sodipodi-0.dtd"
   xmlns:inkscape="http://www.inkscape.org/namespaces/inkscape"
   version="1.1"
   width="48"
   height="48"
   viewBox="0 0 48.000001 48"
   id="svg3487"
   xml:space="preserve"
   style="overflow:visible"
   sodipodi:docname="windows.svg"
   inkscape:version="0.92.3 (2405546, 2018-03-11)"><metadata
   id="metadata430"><rdf:RDF><cc:Work
       rdf:about=""><dc:format>image/svg+xml</dc:format><dc:type
         rdf:resource="http://purl.org/dc/dcmitype/StillImage" /><dc:title></dc:title></cc:Work></rdf:RDF></metadata><defs
   id="defs428" /><sodipodi:namedview
   pagecolor="#ffffff"
   bordercolor="#666666"
   borderopacity="1"
   objecttolerance="10"
   gridtolerance="10"
   guidetolerance="10"
   inkscape:pageopacity="0"
   inkscape:pageshadow="2"
   inkscape:window-width="2560"
   inkscape:window-height="1514"
   id="namedview426"
   showgrid="false"
   fit-margin-top="0"
   fit-margin-left="0"
   fit-margin-right="0"
   fit-margin-bottom="0"
   inkscape:zoom="12.342612"
   inkscape:cx="12.696072"
   inkscape:cy="20.100159"
   inkscape:window-x="0"
   inkscape:window-y="28"
   inkscape:window-maximized="1"
   inkscape:current-layer="svg3487" />
<g
   transform="matrix(0.27709458,0,0,0.27709458,2.5311117e-4,5.6140527)"
   id="g423">
<path
   d="M 39.674,133.092"
   style="fill:none"
   id="path2"
   inkscape:connector-curvature="0" />
<path
   d="m 170.407,21.106 c -32.996,13.644 -48.867,5.999 -63.164,-3.624 0.033,-0.126 0.092,-0.37 -0.004,-0.604 14.297,9.625 30.486,17.371 63.48,3.729 -0.219,0.201 -0.219,0.301 -0.312,0.499 z"
   style="fill:#83b641"
   id="path4"
   inkscape:connector-curvature="0" />
<polygon
   points="104.723,18.161 105.901,17.319 89.786,73.298 88.544,74.281 88.545,74.152 "
   style="fill:#8aa742;fill-rule:evenodd"
   id="polygon6" />
<linearGradient
   x1="99.226997"
   y1="45.669998"
   x2="97.723"
   y2="45.238998"
   id="XMLID_39_"
   gradientUnits="userSpaceOnUse">
<stop
   style="stop-color:#8aa742;stop-opacity:1"
   offset="0"
   id="stop8" />
<stop
   style="stop-color:#8aa742;stop-opacity:1"
   offset="0.1"
   id="stop10" />
<stop
   style="stop-color:#b7ca33;stop-opacity:1"
   offset="0.25"
   id="stop12" />
<stop
   style="stop-color:#b7ca33;stop-opacity:1"
   offset="0.405"
   id="stop14" />
<stop
   style="stop-color:#8aa742;stop-opacity:1"
   offset="1"
   id="stop16" />
</linearGradient>
<path
   d="m 91,73.923 c -0.502,-0.281 -0.864,-0.847 -1.31,-0.672 l 16.155,-55.907 c 0.248,-0.111 0.873,-0.325 1.463,0.14 z"
   style="fill:url(#XMLID_39_)"
   id="path19"
   inkscape:connector-curvature="0" />
<path
   d="m 106.053,16.956 -0.166,0.4 -1.178,0.851 c 0.1,-0.382 0.998,-1.019 1.275,-1.212 0.052,-0.036 0.069,-0.039 0.069,-0.039 z"
   style="fill:#8aa742;fill-rule:evenodd"
   id="path21"
   inkscape:connector-curvature="0" />
<linearGradient
   x1="107.31"
   y1="17.111"
   x2="105.865"
   y2="17.01"
   id="XMLID_40_"
   gradientUnits="userSpaceOnUse">
<stop
   style="stop-color:#83b641;stop-opacity:1"
   offset="0"
   id="stop23" />
<stop
   style="stop-color:#b7ca33;stop-opacity:1"
   offset="0.2"
   id="stop25" />
<stop
   style="stop-color:#b7ca33;stop-opacity:1"
   offset="0.525"
   id="stop27" />
<stop
   style="stop-color:#8aa742;stop-opacity:1"
   offset="1"
   id="stop29" />
</linearGradient>
<path
   d="m 107.252,17.444 c -0.611,-0.377 -1.162,-0.194 -1.412,-0.086 0.039,-0.119 0.145,-0.363 0.145,-0.363 0.531,-0.336 0.762,-0.352 1.258,-0.115 0.064,0.185 0.091,0.363 0.009,0.564 z"
   style="fill:url(#XMLID_40_)"
   id="path32"
   inkscape:connector-curvature="0" />
<linearGradient
   x1="170.769"
   y1="20.577"
   x2="171.41499"
   y2="21.652"
   id="XMLID_41_"
   gradientUnits="userSpaceOnUse">
<stop
   style="stop-color:#83b641;stop-opacity:1"
   offset="0"
   id="stop34" />
<stop
   style="stop-color:#595e48;stop-opacity:1"
   offset="1"
   id="stop36" />
</linearGradient>
<path
   d="m 171.631,21.522 c 0,0 -0.369,-0.509 -1.252,-0.346 0.078,-0.209 0.078,-0.405 0.34,-0.57 0.531,-0.08 0.789,0.06 0.902,0.169 0.063,0.062 0.082,0.113 0.082,0.113 0.071,0.312 -0.072,0.634 -0.072,0.634 z"
   style="fill:url(#XMLID_41_);fill-rule:evenodd"
   id="path39"
   inkscape:connector-curvature="0" />
<linearGradient
   x1="172.43401"
   y1="21.409"
   x2="172.026"
   y2="21.895"
   id="XMLID_42_"
   gradientUnits="userSpaceOnUse">
<stop
   style="stop-color:#8aa742;stop-opacity:1"
   offset="0"
   id="stop41" />
<stop
   style="stop-color:#595e48;stop-opacity:1"
   offset="1"
   id="stop43" />
</linearGradient>
<path
   d="m 171.622,20.775 1.305,1.047 c 0.078,0.35 -0.09,0.705 -0.09,0.705 l -1.309,-1.051 c 0,0 0.164,-0.39 0.094,-0.701 z"
   style="fill:url(#XMLID_42_);fill-rule:evenodd"
   id="path46"
   inkscape:connector-curvature="0" />
<polygon
   points="156.481,78.712 155.243,77.619 171.555,21.402 172.887,22.461 "
   style="fill:#595e48;fill-rule:evenodd"
   id="polygon48" />
<path
   d="m 156.801,79.119 c 0.035,-0.321 -0.307,-0.586 -0.307,-0.586 L 172.87,22.41 c 0,0 0.26,0.234 0.33,0.403 z"
   style="fill:#767e47;fill-rule:evenodd"
   id="path50"
   inkscape:connector-curvature="0" />
<linearGradient
   x1="173.04201"
   y1="21.805"
   x2="173.04201"
   y2="22.834"
   id="XMLID_43_"
   gradientUnits="userSpaceOnUse">
<stop
   style="stop-color:#8aa742;stop-opacity:1"
   offset="0"
   id="stop52" />
<stop
   style="stop-color:#767e47;stop-opacity:1"
   offset="1"
   id="stop54" />
</linearGradient>
<path
   d="m 173.196,22.834 c 0,0 -0.059,-0.161 -0.338,-0.396 0.127,-0.528 0.043,-0.634 0.043,-0.634 l 0.025,0.017 c 0,10e-4 0.41,0.374 0.27,1.013 z"
   style="fill:url(#XMLID_43_);fill-rule:evenodd"
   id="path57"
   inkscape:connector-curvature="0" />
<path
   d="m 156.254,79.643 c -8.818,4.004 -17.164,6.07 -24.914,6.746 -13.383,1.52 -24.205,-1.391 -33.047,-5.734 -3.438,-1.578 -6.551,-3.364 -9.305,-5.219 l 0.149,-0.129 c 2.792,1.879 5.835,3.715 9.155,5.348 8.984,4.125 20.195,6.848 33.047,5.734 7.32,-0.828 15.406,-2.988 24.355,-6.957 0.252,0.203 0.56,0.211 0.56,0.211 z"
   style="fill:#595e48;fill-rule:evenodd"
   id="path59"
   inkscape:connector-curvature="0" />
<linearGradient
   x1="155.32001"
   y1="77.938004"
   x2="153.91"
   y2="77.838997"
   id="XMLID_44_"
   gradientUnits="userSpaceOnUse">
<stop
   style="stop-color:#767e47;stop-opacity:1"
   offset="0"
   id="stop61" />
<stop
   style="stop-color:#8aa742;stop-opacity:1"
   offset="1"
   id="stop63" />
</linearGradient>
<path
   d="m 154.473,78.599 c 0,0 -0.631,-0.566 -0.516,-1.395 0.848,-0.217 1.391,0.32 1.391,0.32 0,0 -0.156,0.763 -0.875,1.075 z"
   style="fill:url(#XMLID_44_)"
   id="path66"
   inkscape:connector-curvature="0" />
<linearGradient
   x1="155.98199"
   y1="78.063004"
   x2="155.071"
   y2="79.074997"
   id="XMLID_45_"
   gradientUnits="userSpaceOnUse">
<stop
   style="stop-color:#767e47;stop-opacity:1"
   offset="0"
   id="stop68" />
<stop
   style="stop-color:#595e48;stop-opacity:1"
   offset="1"
   id="stop70" />
</linearGradient>
<path
   d="m 155.348,77.525 1.186,1.035 c 0,0 -0.182,0.649 -0.902,0.965 l -1.205,-1.032 c 0.722,-0.316 0.921,-0.968 0.921,-0.968 z"
   style="fill:url(#XMLID_45_);fill-rule:evenodd"
   id="path73"
   inkscape:connector-curvature="0" />
<linearGradient
   x1="90.361"
   y1="79.838997"
   x2="154.649"
   y2="79.838997"
   id="XMLID_46_"
   gradientUnits="userSpaceOnUse">
<stop
   style="stop-color:#8aa742;stop-opacity:1"
   offset="0"
   id="stop75" />
<stop
   style="stop-color:#b7ca33;stop-opacity:1"
   offset="0.4"
   id="stop77" />
<stop
   style="stop-color:#8aa742;stop-opacity:1"
   offset="1"
   id="stop79" />
</linearGradient>
<path
   d="m 154.153,77.187 c -0.115,0.83 0.496,1.436 0.496,1.436 -33.002,13.645 -50.004,5.61 -64.288,-4.066 0.251,-0.184 0.29,-0.182 0.453,-0.764 14.282,9.678 35.87,16.459 63.339,3.394 z"
   style="fill:url(#XMLID_46_)"
   id="path82"
   inkscape:connector-curvature="0" />
<path
   d="m 89.144,75.365 1.227,-0.82 c 14.29,9.2 31.169,17.157 64.136,3.91 l 1.193,1.036 c -31.653,13.964 -51.903,6.187 -66.556,-4.126 z"
   style="fill:#767e47;fill-rule:evenodd"
   id="path84"
   inkscape:connector-curvature="0" />
<path
   d="m 156.801,79.119 c -0.164,0.301 -0.451,0.473 -0.547,0.523 -0.02,0.012 -0.033,0.012 -0.033,0.012 0,0 -0.225,0.031 -0.525,-0.164 0.645,-0.352 0.832,-1.055 0.832,-1.055 0,0 0.375,0.313 0.273,0.684 z"
   style="fill:#767e47;fill-rule:evenodd"
   id="path86"
   inkscape:connector-curvature="0" />
<path
   d="m 89.189,75.349 -0.147,0.121 c 0,0 -0.804,-0.434 -0.496,-1.318 0.072,0.869 0.643,1.197 0.643,1.197 z"
   style="fill:#767e47;fill-rule:evenodd"
   id="path88"
   inkscape:connector-curvature="0" />
<linearGradient
   x1="89.969002"
   y1="74.917"
   x2="88.950996"
   y2="73.786003"
   id="XMLID_47_"
   gradientUnits="userSpaceOnUse">
<stop
   style="stop-color:#767e47;stop-opacity:1"
   offset="0"
   id="stop90" />
<stop
   style="stop-color:#767e47;stop-opacity:1"
   offset="0.1"
   id="stop92" />
<stop
   style="stop-color:#83b641;stop-opacity:1"
   offset="0.65"
   id="stop94" />
<stop
   style="stop-color:#8aa742;stop-opacity:1"
   offset="1"
   id="stop96" />
</linearGradient>
<path
   d="m 88.545,74.152 1.184,-0.936 c -0.069,0.902 0.711,1.277 0.711,1.277 l -1.204,0.926 c 0,0 -0.759,-0.363 -0.691,-1.267 z"
   style="fill:url(#XMLID_47_)"
   id="path99"
   inkscape:connector-curvature="0" />
<linearGradient
   x1="89.935997"
   y1="73.086998"
   x2="90.676003"
   y2="74.424004"
   id="XMLID_48_"
   gradientUnits="userSpaceOnUse">
<stop
   style="stop-color:#8aa742;stop-opacity:1"
   offset="0"
   id="stop101" />
<stop
   style="stop-color:#83b641;stop-opacity:1"
   offset="0.405"
   id="stop103" />
<stop
   style="stop-color:#8aa742;stop-opacity:1"
   offset="0.8"
   id="stop105" />
<stop
   style="stop-color:#8aa742;stop-opacity:1"
   offset="1"
   id="stop107" />
</linearGradient>
<path
   d="m 89.703,73.216 c 0.405,-0.123 0.771,0.297 1.267,0.682 -0.161,0.584 -0.303,0.484 -0.554,0.67 -0.294,-0.176 -0.788,-0.61 -0.713,-1.352 z"
   style="fill:url(#XMLID_48_)"
   id="path110"
   inkscape:connector-curvature="0" />
<linearGradient
   x1="163.58501"
   y1="49.528999"
   x2="162.08701"
   y2="49.099998"
   id="XMLID_49_"
   gradientUnits="userSpaceOnUse">
<stop
   style="stop-color:#595e48;stop-opacity:1"
   offset="0"
   id="stop112" />
<stop
   style="stop-color:#83b641;stop-opacity:1"
   offset="1"
   id="stop114" />
</linearGradient>
<path
   d="m 153.997,77.314 16.332,-56.189 c 0.883,-0.163 1.305,0.337 1.305,0.337 l -16.285,56.063 c -10e-4,0 -0.653,-0.5 -1.352,-0.211 z"
   style="fill:url(#XMLID_49_)"
   id="path117"
   inkscape:connector-curvature="0" />
<defs
   id="defs120">
<path
   d="m 107.254,17.442 c 14.297,9.621 30.156,17.29 63.152,3.648 L 154.15,77.255 c -27.541,12.922 -49.002,6.278 -63.283,-3.398 z"
   id="XMLID_12_"
   inkscape:connector-curvature="0" />
</defs>
<clipPath
   id="clipPath124">
<use
   x="0"
   y="0"
   width="812.04401"
   height="152.966"
   xlink:href="#XMLID_12_"
   id="use122" />
</clipPath>
<linearGradient
   x1="159.869"
   y1="57.84"
   x2="100.46"
   y2="40.804001"
   id="XMLID_51_"
   gradientUnits="userSpaceOnUse">
<stop
   style="stop-color:#6fbc48;stop-opacity:1"
   offset="0"
   id="stop126" />
<stop
   style="stop-color:#98c74f;stop-opacity:1"
   offset="0.333"
   id="stop128" />
<stop
   style="stop-color:#80c046;stop-opacity:1"
   offset="0.667"
   id="stop130" />
<stop
   style="stop-color:#607d3a;stop-opacity:1"
   offset="1"
   id="stop132" />
</linearGradient>
<path
   d="m 170.407,21.09 c -32.996,13.642 -48.861,5.973 -63.16,-3.65 L 90.969,73.902 c 14.285,9.678 31.531,17.635 63.188,3.463 z"
   style="fill:url(#XMLID_51_)"
   id="path135"
   inkscape:connector-curvature="0" />
<path
   d="m 1.36,132.346 c 0.108,0.016 0.307,-0.078 0.307,-0.078 0.229,0.156 0.411,0.266 0.411,0.266 0,0 -0.358,0.085 -0.718,-0.188 z"
   style="fill:#313c7e;fill-rule:evenodd"
   id="path137"
   inkscape:connector-curvature="0" />
<path
   d="m 62.57,135.236 c 0,0 0.219,0.203 0.471,0.133 l -0.989,0.586 c -0.316,0.141 -0.641,-0.082 -0.641,-0.082 z"
   style="fill:#313c7e"
   id="path139"
   inkscape:connector-curvature="0" />
<path
   d="m 1.68,132.275 c 0,0 -0.193,0.098 -0.302,0.082 l -1.085,-0.828 -0.025,-0.023 c 0.157,0.055 0.338,0.027 0.411,0.012 z"
   style="fill:#313c7e"
   id="path141"
   inkscape:connector-curvature="0" />
<path
   d="m 63.125,134.428 c 0.113,0.082 0.232,0.172 0.344,0.398 -0.063,0.297 -0.311,0.449 -0.451,0.559 -0.202,0.047 -0.485,-0.145 -0.485,-0.145 0.158,-0.133 0.428,-0.324 0.592,-0.812 z"
   style="fill:#2e499e"
   id="path143"
   inkscape:connector-curvature="0" />
<rect
   width="0.324"
   height="0.017999999"
   x="16.084"
   y="74.602997"
   style="fill:#2e499e;fill-rule:evenodd"
   id="rect145" />
<polygon
   points="0.023,130.752 16.086,74.56 16.267,74.611 0.207,130.799 "
   style="fill:#2e499e;fill-rule:evenodd"
   id="polygon147" />
<path
   d="m 0.293,131.529 c -0.208,-0.18 -0.352,-0.488 -0.271,-0.777 l 0.193,-0.074 c -0.081,0.418 0.226,0.719 0.45,0.848 0.002,-0.001 -0.162,0.081 -0.372,0.003 z"
   style="fill:#2e499e;fill-rule:evenodd"
   id="path149"
   inkscape:connector-curvature="0" />
<linearGradient
   x1="0.18700001"
   y1="129.19099"
   x2="63.144001"
   y2="129.19099"
   id="XMLID_52_"
   gradientUnits="userSpaceOnUse">
<stop
   style="stop-color:#76a5d8;stop-opacity:1"
   offset="0"
   id="stop151" />
<stop
   style="stop-color:#dae3ec;stop-opacity:1"
   offset="0.45"
   id="stop153" />
<stop
   style="stop-color:#3f87c7;stop-opacity:1"
   offset="1"
   id="stop155" />
</linearGradient>
<path
   d="M 62.56,135.275 C 48.228,125.63 33.375,118.263 0.686,131.545 0.461,131.412 0.119,131.092 0.199,130.67 c 33.192,-14.129 48.613,-5.875 62.945,3.773 -0.146,0.512 -0.426,0.703 -0.584,0.832 z"
   style="fill:url(#XMLID_52_)"
   id="path158"
   inkscape:connector-curvature="0" />
<path
   d="m 1.615,132.232 c 31.464,-12.301 45.567,-5.602 59.892,3.621 -8.58,-5.523 -17.41,-9.945 -29.594,-10.02 -8.154,-0.047 -17.791,2.023 -29.851,6.699 0,10e-4 -0.249,-0.093 -0.447,-0.3 z"
   style="fill:#313c7e;fill-rule:evenodd"
   id="path160"
   inkscape:connector-curvature="0" />
<path
   d="m 62.577,135.271 -1.159,0.605 C 47.093,126.653 32.595,120.278 1.681,132.274 l -1.022,-0.746 c 32.689,-13.284 47.587,-5.905 61.918,3.743 z"
   style="fill:#2e499e;fill-rule:evenodd"
   id="path162"
   inkscape:connector-curvature="0" />
<path
   d="M 63.115,134.459 79.642,77.892 c 0.177,0.123 0.271,0.219 0.363,0.324 l -16.542,56.637 c -0.093,-0.238 -0.348,-0.394 -0.348,-0.394 z"
   style="fill:#313c7e;fill-rule:evenodd"
   id="path164"
   inkscape:connector-curvature="0" />
<path
   d="M 79.635,77.919 C 65.317,68.215 49.168,61.191 16.232,74.634 16.314,74.353 16.381,74.22 16.381,74.22 49.462,60.542 65.437,67.804 79.754,77.509 Z"
   style="fill:#3f87c7;fill-rule:evenodd"
   id="path166"
   inkscape:connector-curvature="0" />
<defs
   id="defs169">
<path
   d="M 63.135,134.475 C 48.804,124.827 33.267,117.01 0.193,130.682 L 16.238,74.603 c 33.079,-13.68 49.107,-6.4 63.426,3.303 z"
   id="XMLID_16_"
   inkscape:connector-curvature="0" />
</defs>
<clipPath
   id="XMLID_53_">
<use
   x="0"
   y="0"
   width="812.04401"
   height="152.966"
   xlink:href="#XMLID_16_"
   id="use171" />
</clipPath>
<g
   clip-path="url(#XMLID_53_)"
   id="g187">
<linearGradient
   x1="70.161003"
   y1="110.956"
   x2="10.682"
   y2="93.901001"
   id="XMLID_54_"
   gradientUnits="userSpaceOnUse">
<stop
   style="stop-color:#2e499e;stop-opacity:1"
   offset="0"
   id="stop174" />
<stop
   style="stop-color:#4496d1;stop-opacity:1"
   offset="0.4"
   id="stop176" />
<stop
   style="stop-color:#a5cded;stop-opacity:1"
   offset="0.725"
   id="stop178" />
<stop
   style="stop-color:#007fc4;stop-opacity:1"
   offset="1"
   id="stop180" />
</linearGradient>
<path
   d="M 63.141,134.596 C 48.81,124.951 33.231,117.018 0.157,130.694 L 16.352,74.127 c 33.081,-13.678 48.973,-5.938 63.29,3.766 z"
   style="fill:url(#XMLID_54_)"
   id="path183"
   inkscape:connector-curvature="0" />
<path
   d="M 63.141,134.596 C 48.81,124.951 33.231,117.018 0.157,130.694 L 16.352,74.127 c 33.081,-13.678 48.973,-5.938 63.29,3.766 z"
   style="fill:none"
   id="path185"
   inkscape:connector-curvature="0" />
</g>
<path
   d="m 79.749,77.505 0.027,0.016 c 0.204,0.145 0.287,0.426 0.229,0.695 l -0.012,0.035 c -0.091,-0.104 -0.186,-0.203 -0.362,-0.326 z"
   style="fill:#313c7e;fill-rule:evenodd"
   id="path189"
   inkscape:connector-curvature="0" />
<linearGradient
   x1="16.247"
   y1="74.211998"
   x2="16.247"
   y2="74.621002"
   id="XMLID_55_"
   gradientUnits="userSpaceOnUse">
<stop
   style="stop-color:#76a5d8;stop-opacity:1"
   offset="0"
   id="stop191" />
<stop
   style="stop-color:#2e499e;stop-opacity:1"
   offset="1"
   id="stop193" />
</linearGradient>
<path
   d="m 16.265,74.621 -0.181,-0.053 c 0.069,-0.238 0.232,-0.32 0.297,-0.348 l 0.027,-0.008 c 10e-4,0 -0.06,0.125 -0.143,0.409 z"
   style="fill:url(#XMLID_55_);fill-rule:evenodd"
   id="path196"
   inkscape:connector-curvature="0" />
<path
   d="M 81.828,68.497 C 66.43,57.811 47.556,51.1 19.527,65.029 l 1.146,0.809 C 51.3,53.321 67.278,60.096 80.714,68.946 Z"
   style="fill:#d75329;fill-rule:evenodd"
   id="path198"
   inkscape:connector-curvature="0" />
<path
   d="m 82.368,67.668 16.27,-56.174 c 0.176,0.12 0.262,0.236 0.355,0.34 L 82.716,68.056 C 82.623,67.82 82.368,67.668 82.368,67.668 Z"
   style="fill:#ab4533;fill-rule:evenodd"
   id="path200"
   inkscape:connector-curvature="0" />
<path
   d="m 20.683,65.82 c 5.212,-2.138 10.039,-3.725 14.518,-4.814 1.086,-0.263 2.051,-0.501 3.197,-0.722 1.055,-0.21 2.097,-0.415 3.116,-0.565 1.597,-0.244 3.146,-0.445 4.654,-0.561 1.29,-0.102 2.545,-0.177 3.774,-0.188 1.188,-0.014 2.349,0.002 3.483,0.067 1.01,0.058 1.998,0.131 2.971,0.246 0.822,0.096 1.626,0.197 2.421,0.334 1.679,0.288 3.301,0.642 4.869,1.087 6.332,1.791 11.956,4.844 17.127,8.292 -0.034,0.016 -0.158,-0.036 -0.212,-0.065 -0.05,-0.024 -0.073,-0.026 -0.117,-0.056 -6.991,-4.432 -14.502,-8.286 -23.77,-9.423 -9.486,-1.166 -20.54,0.467 -35.433,6.378 0,0 -0.347,0.147 -0.479,0.171 -0.119,0.019 -0.097,-0.072 -0.119,-0.181 z"
   style="fill:#ab4533;fill-rule:evenodd"
   id="path202"
   inkscape:connector-curvature="0" />
<path
   d="m 81.802,68.487 c 0,0 0.221,0.155 0.471,0.098 l -1.027,0.453 c -0.277,0.081 -0.606,-0.09 -0.606,-0.09 z"
   style="fill:#ab4533"
   id="path204"
   inkscape:connector-curvature="0" />
<path
   d="m 20.697,65.83 c 0,0 0.063,0.105 0.105,0.173 -0.101,0.014 -0.113,0.04 -0.362,-0.071 -0.033,-0.013 -0.083,-0.054 -0.124,-0.072 l -1.063,-0.836 -0.096,-0.079 c 0.145,-0.01 0.256,0.06 0.329,0.046 z"
   style="fill:#ab4533"
   id="path206"
   inkscape:connector-curvature="0" />
<path
   d="m 82.379,67.67 c 0.114,0.076 0.25,0.121 0.345,0.357 -0.063,0.299 -0.317,0.449 -0.459,0.559 -0.252,0.071 -0.501,-0.123 -0.501,-0.123 0.159,-0.127 0.451,-0.307 0.615,-0.793 z"
   style="fill:#d75329"
   id="path208"
   inkscape:connector-curvature="0" />
<path
   d="m 98.747,11.129 0.02,0.012 c 0.201,0.144 0.285,0.426 0.227,0.693 l -0.01,0.036 C 98.89,11.765 98.83,11.661 98.646,11.522 Z"
   style="fill:#d75329;fill-rule:evenodd"
   id="path210"
   inkscape:connector-curvature="0" />
<path
   d="M 19.179,64.975 C 19.025,64.854 18.87,64.381 18.95,64.093 l 0.216,-0.075 c -0.08,0.417 0.178,0.892 0.402,1.021 10e-4,0 -0.157,0.089 -0.389,-0.064 z"
   style="fill:#d75329;fill-rule:evenodd"
   id="path212"
   inkscape:connector-curvature="0" />
<defs
   id="defs215">
<path
   d="M 35.432,7.781 35.25,7.729 c 0.07,-0.238 0.234,-0.323 0.298,-0.35 l 0.027,-0.008 c 10e-4,10e-4 -0.06,0.126 -0.143,0.41 z"
   id="XMLID_20_"
   inkscape:connector-curvature="0" />
</defs>
<clipPath
   id="XMLID_56_">
<use
   x="0"
   y="0"
   width="812.04401"
   height="152.966"
   xlink:href="#XMLID_20_"
   id="use217" />
</clipPath>
<rect
   width="0.32499999"
   height="0.024"
   x="35.25"
   y="7.3720002"
   clip-path="url(#XMLID_56_)"
   style="fill:#faaa4f;fill-rule:evenodd"
   id="rect220" />
<rect
   width="0.32499999"
   height="0.027000001"
   x="35.25"
   y="7.3959999"
   clip-path="url(#XMLID_56_)"
   style="fill:#f6a34c;fill-rule:evenodd"
   id="rect222" />
<rect
   width="0.32499999"
   height="0.024"
   x="35.25"
   y="7.4229999"
   clip-path="url(#XMLID_56_)"
   style="fill:#f39d48;fill-rule:evenodd"
   id="rect224" />
<rect
   width="0.32499999"
   height="0.027000001"
   x="35.25"
   y="7.448"
   clip-path="url(#XMLID_56_)"
   style="fill:#f09745;fill-rule:evenodd"
   id="rect226" />
<rect
   width="0.32499999"
   height="0.025"
   x="35.25"
   y="7.4749999"
   clip-path="url(#XMLID_56_)"
   style="fill:#ed9142;fill-rule:evenodd"
   id="rect228" />
<rect
   width="0.32499999"
   height="0.024"
   x="35.25"
   y="7.5"
   clip-path="url(#XMLID_56_)"
   style="fill:#eb8c3f;fill-rule:evenodd"
   id="rect230" />
<rect
   width="0.32499999"
   height="0.025"
   x="35.25"
   y="7.5250001"
   clip-path="url(#XMLID_56_)"
   style="fill:#e8863c;fill-rule:evenodd"
   id="rect232" />
<rect
   width="0.32499999"
   height="0.024"
   x="35.25"
   y="7.5500002"
   clip-path="url(#XMLID_56_)"
   style="fill:#e68139;fill-rule:evenodd"
   id="rect234" />
<rect
   width="0.32499999"
   height="0.025"
   x="35.25"
   y="7.5749998"
   clip-path="url(#XMLID_56_)"
   style="fill:#e57b37;fill-rule:evenodd"
   id="rect236" />
<rect
   width="0.32499999"
   height="0.025"
   x="35.25"
   y="7.5999999"
   clip-path="url(#XMLID_56_)"
   style="fill:#e27634;fill-rule:evenodd"
   id="rect238" />
<rect
   width="0.32499999"
   height="0.026000001"
   x="35.25"
   y="7.625"
   clip-path="url(#XMLID_56_)"
   style="fill:#e07132;fill-rule:evenodd"
   id="rect240" />
<rect
   width="0.32499999"
   height="0.025"
   x="35.25"
   y="7.652"
   clip-path="url(#XMLID_56_)"
   style="fill:#df6b30;fill-rule:evenodd"
   id="rect242" />
<rect
   width="0.32499999"
   height="0.024"
   x="35.25"
   y="7.677"
   clip-path="url(#XMLID_56_)"
   style="fill:#dc662e;fill-rule:evenodd"
   id="rect244" />
<rect
   width="0.32499999"
   height="0.027000001"
   x="35.25"
   y="7.7020001"
   clip-path="url(#XMLID_56_)"
   style="fill:#db602c;fill-rule:evenodd"
   id="rect246" />
<rect
   width="0.32499999"
   height="0.024"
   x="35.25"
   y="7.7290001"
   clip-path="url(#XMLID_56_)"
   style="fill:#d95a2a;fill-rule:evenodd"
   id="rect248" />
<rect
   width="0.32499999"
   height="0.027000001"
   x="35.25"
   y="7.7529998"
   clip-path="url(#XMLID_56_)"
   style="fill:#d75329;fill-rule:evenodd"
   id="rect250" />
<linearGradient
   x1="19.111"
   y1="62.354"
   x2="82.387001"
   y2="62.354"
   id="XMLID_57_"
   gradientUnits="userSpaceOnUse">
<stop
   style="stop-color:#faab4f;stop-opacity:1"
   offset="0"
   id="stop252" />
<stop
   style="stop-color:#faab4f;stop-opacity:1"
   offset="0.25"
   id="stop254" />
<stop
   style="stop-color:#fcc193;stop-opacity:1"
   offset="0.475"
   id="stop256" />
<stop
   style="stop-color:#fcc193;stop-opacity:1"
   offset="0.525"
   id="stop258" />
<stop
   style="stop-color:#f89c3e;stop-opacity:1"
   offset="0.75"
   id="stop260" />
<stop
   style="stop-color:#f89c3e;stop-opacity:1"
   offset="1"
   id="stop262" />
</linearGradient>
<path
   d="M 81.798,68.491 C 72.984,62.729 64.733,57.959 51.668,57.583 42.114,57.772 34.79,58.989 19.555,65.04 c -0.225,-0.128 -0.51,-0.447 -0.431,-0.866 13.191,-5.617 23.663,-8.04 32.354,-7.955 13.16,0.131 22.283,5.637 30.909,11.44 -0.146,0.508 -0.43,0.703 -0.589,0.832 z"
   style="fill:url(#XMLID_57_)"
   id="path265"
   inkscape:connector-curvature="0" />
<path
   d="m 35.255,7.719 0.151,0.048 -16.245,56.388 c -0.037,-0.016 -0.21,-0.062 -0.21,-0.062 z"
   style="fill:#d75329;fill-rule:evenodd"
   id="path267"
   inkscape:connector-curvature="0" />
<path
   d="M 98.641,11.559 C 84.333,1.864 68.303,-5.622 35.39,7.811 35.474,7.529 35.548,7.379 35.548,7.379 68.607,-6.288 84.455,1.442 98.766,11.141 Z"
   style="fill:#f89c3e;fill-rule:evenodd"
   id="path269"
   inkscape:connector-curvature="0" />
<linearGradient
   x1="89.186996"
   y1="44.528999"
   x2="29.653999"
   y2="27.458"
   id="XMLID_58_"
   gradientUnits="userSpaceOnUse">
<stop
   style="stop-color:#cd2b2b;stop-opacity:1"
   offset="0"
   id="stop271" />
<stop
   style="stop-color:#f2692a;stop-opacity:1"
   offset="0.4"
   id="stop273" />
<stop
   style="stop-color:#fcb544;stop-opacity:1"
   offset="0.725"
   id="stop275" />
<stop
   style="stop-color:#f37237;stop-opacity:1"
   offset="1"
   id="stop277" />
</linearGradient>
<path
   d="M 82.392,67.68 C 73.764,61.87 64.485,56.447 51.307,56.347 42.612,56.28 32.262,58.75 19.123,64.183 L 35.406,7.761 C 68.465,-5.908 84.344,1.828 98.651,11.525 Z"
   style="fill:url(#XMLID_58_)"
   id="path280"
   inkscape:connector-curvature="0" />
<linearGradient
   x1="137.679"
   y1="144.478"
   x2="137.342"
   y2="145.73599"
   id="XMLID_59_"
   gradientUnits="userSpaceOnUse">
<stop
   style="stop-color:#d4a52e;stop-opacity:1"
   offset="0"
   id="stop282" />
<stop
   style="stop-color:#a87c3c;stop-opacity:1"
   offset="1"
   id="stop284" />
</linearGradient>
<path
   d="m 137.993,145.178 c -0.16,0.297 -0.449,0.473 -0.545,0.523 -0.021,0.012 -0.035,0.012 -0.035,0.012 0,0 -0.275,0.035 -0.525,-0.164 0.645,-0.352 0.836,-1.059 0.836,-1.059 0,0 0.372,0.317 0.269,0.688 z"
   style="fill:url(#XMLID_59_);fill-rule:evenodd"
   id="path287"
   inkscape:connector-curvature="0" />
<path
   d="m 137.993,145.178 c 0.039,-0.32 -0.305,-0.59 -0.305,-0.59 l 15.668,-54.613 c 0,0 0.262,0.23 0.334,0.402 z"
   style="fill:#d4a52e;fill-rule:evenodd"
   id="path289"
   inkscape:connector-curvature="0" />
<linearGradient
   x1="153.52901"
   y1="89.364998"
   x2="153.52901"
   y2="90.400002"
   id="XMLID_60_"
   gradientUnits="userSpaceOnUse">
<stop
   style="stop-color:#c19236;stop-opacity:1"
   offset="0.006"
   id="stop291" />
<stop
   style="stop-color:#d4a52e;stop-opacity:1"
   offset="1"
   id="stop293" />
</linearGradient>
<path
   d="m 153.68,90.4 c 0,0 -0.051,-0.156 -0.332,-0.391 0.129,-0.531 0.039,-0.645 0.039,-0.645 l 0.025,0.016 c 0.001,0.001 0.413,0.38 0.268,1.02 z"
   style="fill:url(#XMLID_60_);fill-rule:evenodd"
   id="path296"
   inkscape:connector-curvature="0" />
<linearGradient
   x1="151.23"
   y1="88.141998"
   x2="151.881"
   y2="89.225998"
   id="XMLID_61_"
   gradientUnits="userSpaceOnUse">
<stop
   style="stop-color:#ffcd02;stop-opacity:1"
   offset="0.006"
   id="stop298" />
<stop
   style="stop-color:#a87c3c;stop-opacity:1"
   offset="1"
   id="stop300" />
</linearGradient>
<path
   d="m 152.118,89.084 c 0,0 -0.434,-0.527 -1.316,-0.363 0.047,-0.199 0.121,-0.441 0.402,-0.555 0.533,-0.082 0.789,0.059 0.902,0.168 0.064,0.066 0.082,0.113 0.082,0.113 0.07,0.313 -0.07,0.637 -0.07,0.637 z"
   style="fill:url(#XMLID_61_);fill-rule:evenodd"
   id="path303"
   inkscape:connector-curvature="0" />
<linearGradient
   x1="152.927"
   y1="88.973"
   x2="152.528"
   y2="89.447998"
   id="XMLID_62_"
   gradientUnits="userSpaceOnUse">
<stop
   style="stop-color:#ffcd02;stop-opacity:1"
   offset="0.006"
   id="stop305" />
<stop
   style="stop-color:#a87c3c;stop-opacity:1"
   offset="1"
   id="stop307" />
</linearGradient>
<path
   d="m 152.106,88.334 1.307,1.047 c 0.076,0.355 -0.064,0.707 -0.064,0.707 l -1.301,-1.043 c -0.001,0 0.128,-0.399 0.058,-0.711 z"
   style="fill:url(#XMLID_62_);fill-rule:evenodd"
   id="path310"
   inkscape:connector-curvature="0" />
<polygon
   points="136.288,143.584 152.042,88.963 153.372,90.025 137.723,144.619 137.661,144.768 "
   style="fill:#a87c3c;fill-rule:evenodd"
   id="polygon312" />
<linearGradient
   x1="136.367"
   y1="143.903"
   x2="134.95399"
   y2="143.80499"
   id="XMLID_63_"
   gradientUnits="userSpaceOnUse">
<stop
   style="stop-color:#c19236;stop-opacity:1"
   offset="0"
   id="stop314" />
<stop
   style="stop-color:#ffcd02;stop-opacity:1"
   offset="1"
   id="stop316" />
</linearGradient>
<path
   d="m 135.516,144.564 c 0,0 -0.629,-0.563 -0.516,-1.395 0.848,-0.215 1.395,0.32 1.395,0.32 0,0 -0.156,0.759 -0.879,1.075 z"
   style="fill:url(#XMLID_63_)"
   id="path319"
   inkscape:connector-curvature="0" />
<path
   d="m 150.856,88.775 c -33.176,11.301 -48.441,4.547 -62.754,-5.086 0.034,-0.129 0.122,-0.34 0.025,-0.578 14.313,9.633 30.143,16.211 63.076,5.055 -0.249,0.172 -0.281,0.406 -0.347,0.609 z"
   style="fill:#ffcd02"
   id="path321"
   inkscape:connector-curvature="0" />
<polygon
   points="85.601,84.389 86.778,83.533 70.757,139.26 69.513,140.244 69.516,140.111 "
   style="fill:#d4a52e;fill-rule:evenodd"
   id="polygon323" />
<linearGradient
   x1="80.170998"
   y1="111.635"
   x2="78.693001"
   y2="111.211"
   id="XMLID_64_"
   gradientUnits="userSpaceOnUse">
<stop
   style="stop-color:#d4a52e;stop-opacity:1"
   offset="0"
   id="stop325" />
<stop
   style="stop-color:#d4a52e;stop-opacity:1"
   offset="0.1"
   id="stop327" />
<stop
   style="stop-color:#ffc222;stop-opacity:1"
   offset="0.2"
   id="stop329" />
<stop
   style="stop-color:#ffc222;stop-opacity:1"
   offset="0.35"
   id="stop331" />
<stop
   style="stop-color:#d4a52e;stop-opacity:1"
   offset="1"
   id="stop333" />
</linearGradient>
<path
   d="m 72.12,139.525 c -0.467,-0.277 -1.011,-0.488 -1.457,-0.309 l 16.063,-55.66 c 0.25,-0.105 0.844,-0.27 1.453,0.156 z"
   style="fill:url(#XMLID_64_)"
   id="path336"
   inkscape:connector-curvature="0" />
<linearGradient
   x1="144.299"
   y1="116.277"
   x2="142.89799"
   y2="115.876"
   id="XMLID_65_"
   gradientUnits="userSpaceOnUse">
<stop
   style="stop-color:#a87c3c;stop-opacity:1"
   offset="0"
   id="stop338" />
<stop
   style="stop-color:#ffd200;stop-opacity:1"
   offset="1"
   id="stop340" />
</linearGradient>
<path
   d="m 135.04,143.283 15.758,-54.582 c 0.029,-0.008 0.068,-0.047 0.094,-0.051 0.838,-0.086 1.227,0.359 1.227,0.359 l -15.715,54.496 c -0.001,0.001 -0.665,-0.515 -1.364,-0.222 z"
   style="fill:url(#XMLID_65_)"
   id="path343"
   inkscape:connector-curvature="0" />
<path
   d="m 137.448,145.701 c -32.396,13.848 -53.176,5.332 -67.489,-4.305 l 0.15,-0.125 c 14.313,9.633 36.339,17.656 66.778,4.219 0.252,0.199 0.561,0.211 0.561,0.211 z"
   style="fill:#a87c3c;fill-rule:evenodd"
   id="path345"
   inkscape:connector-curvature="0" />
<linearGradient
   x1="136.955"
   y1="143.748"
   x2="136.25101"
   y2="145.32899"
   id="XMLID_66_"
   gradientUnits="userSpaceOnUse">
<stop
   style="stop-color:#c19236;stop-opacity:1"
   offset="0"
   id="stop347" />
<stop
   style="stop-color:#d4a52e;stop-opacity:1"
   offset="1"
   id="stop349" />
</linearGradient>
<path
   d="m 136.393,143.498 1.334,1.121 c 0,0 -0.18,0.648 -0.902,0.965 l -1.355,-1.125 c 0.722,-0.316 0.923,-0.961 0.923,-0.961 z"
   style="fill:url(#XMLID_66_);fill-rule:evenodd"
   id="path352"
   inkscape:connector-curvature="0" />
<linearGradient
   x1="71.436996"
   y1="145.625"
   x2="135.694"
   y2="145.625"
   id="XMLID_67_"
   gradientUnits="userSpaceOnUse">
<stop
   style="stop-color:#d4a52e;stop-opacity:1"
   offset="0"
   id="stop354" />
<stop
   style="stop-color:#ffd200;stop-opacity:1"
   offset="0.4"
   id="stop356" />
<stop
   style="stop-color:#d4a52e;stop-opacity:1"
   offset="1"
   id="stop358" />
</linearGradient>
<path
   d="m 135.196,143.154 c -0.113,0.832 0.498,1.434 0.498,1.434 -33.037,13.664 -49.957,5.473 -64.257,-4.219 0.252,-0.184 0.375,-0.344 0.536,-0.922 0.021,0.012 0.221,-0.02 0.241,-0.008 14.761,9.09 33.654,16.274 62.982,3.715 z"
   style="fill:url(#XMLID_67_)"
   id="path361"
   inkscape:connector-curvature="0" />
<path
   d="m 70.115,141.326 1.322,-0.957 c 13.117,8.18 31.501,17.141 64.114,4.055 l 1.348,1.125 c -30.313,13.426 -52.471,5.414 -66.784,-4.223 z"
   style="fill:#c19236;fill-rule:evenodd"
   id="path363"
   inkscape:connector-curvature="0" />
<path
   d="m 70.227,141.369 -0.15,0.105 c 0,0 -0.87,-0.48 -0.561,-1.363 0.071,0.871 0.711,1.258 0.711,1.258 z"
   style="fill:#d4a52e;fill-rule:evenodd"
   id="path365"
   inkscape:connector-curvature="0" />
<linearGradient
   x1="70.991997"
   y1="140.86301"
   x2="69.957001"
   y2="139.714"
   id="XMLID_68_"
   gradientUnits="userSpaceOnUse">
<stop
   style="stop-color:#d4a52e;stop-opacity:1"
   offset="0"
   id="stop367" />
<stop
   style="stop-color:#d4a52e;stop-opacity:1"
   offset="0.1"
   id="stop369" />
<stop
   style="stop-color:#ffd200;stop-opacity:1"
   offset="0.7"
   id="stop371" />
<stop
   style="stop-color:#d4a52e;stop-opacity:1"
   offset="1"
   id="stop373" />
</linearGradient>
<path
   d="m 69.516,140.111 1.242,-1.016 c -0.068,0.91 0.813,1.246 0.813,1.246 l -1.364,1.043 c 0.001,0.001 -0.76,-0.366 -0.691,-1.273 z"
   style="fill:url(#XMLID_68_)"
   id="path376"
   inkscape:connector-curvature="0" />
<linearGradient
   x1="71.022003"
   y1="138.93401"
   x2="71.754997"
   y2="140.255"
   id="XMLID_69_"
   gradientUnits="userSpaceOnUse">
<stop
   style="stop-color:#d4a52e;stop-opacity:1"
   offset="0"
   id="stop378" />
<stop
   style="stop-color:#ffc222;stop-opacity:1"
   offset="0.4"
   id="stop380" />
<stop
   style="stop-color:#ffcd02;stop-opacity:1"
   offset="0.8"
   id="stop382" />
<stop
   style="stop-color:#d4a52e;stop-opacity:1"
   offset="1"
   id="stop384" />
</linearGradient>
<path
   d="m 70.666,139.131 c 0.445,-0.18 0.862,0.031 1.331,0.305 -0.163,0.582 -0.261,0.785 -0.513,0.969 -0.294,-0.176 -0.893,-0.536 -0.818,-1.274 z"
   style="fill:url(#XMLID_69_)"
   id="path387"
   inkscape:connector-curvature="0" />
<defs
   id="defs390">
<path
   d="m 88.131,83.682 c 14.313,9.633 29.822,16.309 62.76,4.969 l -15.703,54.578 c -28.98,12.742 -48.541,5.09 -63.201,-3.77 z"
   id="XMLID_35_"
   inkscape:connector-curvature="0" />
</defs>
<clipPath
   id="XMLID_70_">
<use
   x="0"
   y="0"
   width="812.04401"
   height="152.966"
   xlink:href="#XMLID_35_"
   id="use392" />
</clipPath>
<linearGradient
   x1="140.966"
   y1="123.625"
   x2="81.422997"
   y2="106.551"
   id="XMLID_71_"
   gradientUnits="userSpaceOnUse">
<stop
   style="stop-color:#ffc907;stop-opacity:1"
   offset="0"
   id="stop395" />
<stop
   style="stop-color:#ffd200;stop-opacity:1"
   offset="0.167"
   id="stop397" />
<stop
   style="stop-color:#ffd952;stop-opacity:1"
   offset="0.333"
   id="stop399" />
<stop
   style="stop-color:#ffcd02;stop-opacity:1"
   offset="0.625"
   id="stop401" />
<stop
   style="stop-color:#b77a36;stop-opacity:1"
   offset="1"
   id="stop403" />
</linearGradient>
<path
   d="m 88.226,83.334 c 14.313,9.637 30.212,17.313 63.243,3.66 l -16.281,56.234 c -33.037,13.664 -48.903,5.926 -63.201,-3.77 z"
   clip-path="url(#XMLID_70_)"
   style="fill:url(#XMLID_71_)"
   id="path406"
   inkscape:connector-curvature="0" />
<path
   d="m 88.226,83.334 c 14.313,9.637 30.212,17.313 63.243,3.66 l -16.281,56.234 c -33.037,13.664 -48.903,5.926 -63.201,-3.77 z"
   clip-path="url(#XMLID_70_)"
   style="fill:none"
   id="path408"
   inkscape:connector-curvature="0" />
<path
   d="m 86.933,83.182 -0.17,0.398 -1.178,0.852 c 0.076,-0.355 0.984,-1.012 1.264,-1.207 0.037,-0.028 0.084,-0.043 0.084,-0.043 z"
   style="fill:#ffcd02;fill-rule:evenodd"
   id="path410"
   inkscape:connector-curvature="0" />
<linearGradient
   x1="88.188004"
   y1="83.367996"
   x2="86.717003"
   y2="83.264999"
   id="XMLID_72_"
   gradientUnits="userSpaceOnUse">
<stop
   style="stop-color:#ffc222;stop-opacity:1"
   offset="0"
   id="stop412" />
<stop
   style="stop-color:#ffc222;stop-opacity:1"
   offset="0.2"
   id="stop414" />
<stop
   style="stop-color:#ffd200;stop-opacity:1"
   offset="0.525"
   id="stop416" />
<stop
   style="stop-color:#d4a52e;stop-opacity:1"
   offset="1"
   id="stop418" />
</linearGradient>
<path
   d="m 88.133,83.686 c -0.657,-0.383 -1.193,-0.152 -1.443,-0.043 0.039,-0.121 0.174,-0.426 0.174,-0.426 0.532,-0.34 0.774,-0.34 1.271,-0.102 0.096,0.235 0.033,0.422 -0.002,0.571 z"
   style="fill:url(#XMLID_72_)"
   id="path421"
   inkscape:connector-curvature="0" />
</g>
</svg>