<svg width="50" height="49" xmlns="http://www.w3.org/2000/svg" xmlns:xlink="http://www.w3.org/1999/xlink" xml:space="preserve" overflow="hidden"><defs><clipPath id="clip0"><rect x="267" y="502" width="50" height="49"/></clipPath></defs><g clip-path="url(#clip0)" transform="translate(-267 -502)"><path d="M46.06 49 10.78 49C10.2388 49 9.8 48.5612 9.8 48.02L9.8 0.98C9.8 0.438761 10.2388 0 10.78 0L46.06 0C46.6012 0 47.04 0.438761 47.04 0.98L47.04 48.02C47.04 48.5612 46.6012 49 46.06 49ZM11.76 47.04 45.08 47.04 45.08 1.96 11.76 1.96Z" fill="#A166FF" transform="matrix(1.02041 0 0 1 267 502)"/><path d="M7.84 49 5.0176 49C3.32893 49 1.96 47.6311 1.96 45.9424L1.96 3.0772C1.96538 1.37994 3.33994 0.0053802 5.0372 0L7.84 0 7.84 1.96 5.0274 1.96C4.41802 1.96532 3.92532 2.45802 3.92 3.0674L3.92 45.9228C3.92 46.5398 4.42019 47.04 5.0372 47.04L7.84 47.04Z" fill="#A166FF" transform="matrix(1.02041 0 0 1 267 502)"/><path d="M15.68 4.9 42.14 4.9 42.14 6.86 15.68 6.86Z" fill="#A166FF" transform="matrix(1.02041 0 0 1 267 502)"/><path d="M15.68 8.82 42.14 8.82 42.14 10.78 15.68 10.78Z" fill="#A166FF" transform="matrix(1.02041 0 0 1 267 502)"/><path d="M15.68 39.2 42.14 39.2 42.14 41.16 15.68 41.16Z" fill="#A166FF" transform="matrix(1.02041 0 0 1 267 502)"/><path d="M15.68 43.12 42.14 43.12 42.14 45.08 15.68 45.08Z" fill="#A166FF" transform="matrix(1.02041 0 0 1 267 502)"/><path d="M28.42 36.75C27.5193 36.7197 26.6445 36.4417 25.8916 35.9464 25.6112 35.7665 25.4414 35.4564 25.4408 35.1232L25.4408 31.7422 17.7478 16.4934 19.4922 15.6016 27.3322 31.066C27.4022 31.2025 27.4391 31.3536 27.44 31.507L27.44 34.5352C28.0495 34.8736 28.7905 34.8736 29.4 34.5352L29.4 31.4678C29.4009 31.3144 29.4378 31.1633 29.5078 31.0268L37.3478 15.5624 39.0922 16.4542 31.36 31.703 31.36 35.1232C31.3573 35.4457 31.196 35.7462 30.9288 35.9268 30.1929 36.4444 29.3195 36.731 28.42 36.75Z" fill="#A166FF" transform="matrix(1.02041 0 0 1 267 502)"/><path d="M28.469 19.3844C26.6756 19.3844 17.689 19.2276 17.689 16.1308 17.689 13.034 26.6462 12.887 28.469 12.887 30.2918 12.887 39.249 13.0438 39.249 16.1308 39.249 19.2178 30.2624 19.3844 28.469 19.3844ZM19.8744 16.1308C20.7662 16.66 23.716 17.4244 28.469 17.4244 33.222 17.4244 36.1816 16.66 37.0636 16.1308 36.1816 15.6114 33.2318 14.847 28.469 14.847 23.7062 14.847 20.7662 15.6114 19.8744 16.1308Z" fill="#A166FF" transform="matrix(1.02041 0 0 1 267 502)"/><path d="M125.44-22.54 125.44-78.4 270.48-78.4 270.48-12.74 125.44-12.74 125.44 60.76-9.8 60.76-9.8-8.82 116.62-8.82 125.44-22.54Z" stroke="#F495EB" stroke-width="0.98" stroke-miterlimit="10" fill="none" transform="matrix(1.02041 0 0 1 267 502)"/></g></svg>