<svg width="50" height="49" xmlns="http://www.w3.org/2000/svg" xmlns:xlink="http://www.w3.org/1999/xlink" xml:space="preserve" overflow="hidden"><defs><clipPath id="clip0"><rect x="267" y="406" width="50" height="49"/></clipPath></defs><g clip-path="url(#clip0)" transform="translate(-267 -406)"><path d="M47.2556 0 1.1956 0C0.654361 0 0.2156 0.438761 0.2156 0.98L0.2156 32.34C0.2156 32.8812 0.654361 33.32 1.1956 33.32L19.8156 33.32 19.8156 31.36 16.8756 31.36 16.8756 25.48 21.7756 25.48 21.7756 23.52 16.8756 23.52 16.8756 16.66 46.2756 16.66 46.2756 21.56 48.2356 21.56 48.2356 0.98C48.2356 0.438761 47.7968 0 47.2556 0ZM5.1156 31.36 2.1756 31.36 2.1756 8.82 5.1156 8.82ZM5.1156 6.86 2.1756 6.86 2.1756 1.96 5.1156 1.96ZM14.9156 31.36 7.0756 31.36 7.0756 25.48 14.9156 25.48ZM14.9156 23.52 7.0756 23.52 7.0756 16.66 14.9156 16.66ZM14.9156 14.7 7.0756 14.7 7.0756 8.82 14.9156 8.82ZM7.0756 6.86 7.0756 1.96 46.2756 1.96 46.2756 6.86ZM16.8756 14.7 16.8756 8.82 46.2756 8.82 46.2756 14.7Z" fill="#A166FF" transform="matrix(1.02041 0 0 1 267 406)"/><path d="M46.2658 42.14C45.5545 41.6275 44.7315 41.2916 43.8648 41.16 44.1808 39.9707 44.3389 38.745 44.3352 37.5144 44.3352 37.3772 44.3352 37.24 44.3352 37.1126 45.0986 37.0169 45.8226 36.7192 46.4324 36.2502 47.809 35.1387 48.664 33.5068 48.7942 31.7422L46.8342 31.5364C46.7582 32.7582 46.1843 33.8953 45.2466 34.6822 44.9231 34.9318 44.5425 35.0968 44.1392 35.1624 43.9011 33.595 43.3798 32.0841 42.6006 30.7034 44.9095 29.7398 46.3426 27.4067 46.158 24.9116L44.198 24.9802C44.2666 27.0774 43.0122 28.8512 41.3756 28.9786 41.077 28.64 40.7491 28.3285 40.3956 28.0476 40.3542 26.9608 40.0731 25.8966 39.5724 24.9312 40.3346 23.6796 40.7568 22.2507 40.7974 20.7858 41.7348 20.2445 42.0559 19.0457 41.5145 18.1083 40.9732 17.1709 39.7744 16.8499 38.837 17.3912 38.2392 17.7364 37.8671 18.3707 37.8574 19.061 37.8685 19.75 38.2406 20.3825 38.8374 20.727 38.7767 21.5781 38.5952 22.4162 38.2984 23.2162 36.8044 21.6493 34.3231 21.5902 32.7563 23.0841 32.7112 23.1271 32.6672 23.1711 32.6242 23.2162 32.3188 22.4183 32.1339 21.5794 32.0754 20.727 32.9967 20.1587 33.2829 18.9511 32.7146 18.0298 32.1463 17.1085 30.9387 16.8224 30.0174 17.3907 29.4381 17.748 29.0856 18.3803 29.0864 19.061 29.0847 19.787 29.4844 20.4544 30.1252 20.7956 30.1534 22.2761 30.58 23.7216 31.36 24.9802 30.8638 25.9474 30.5829 27.0105 30.5368 28.0966 30.1818 28.3937 29.8539 28.7216 29.5568 29.0766 27.93 28.9002 26.6952 27.1166 26.7932 25.0096L24.8332 24.9214C24.6075 27.4396 26.0331 29.8155 28.3612 30.8014 27.587 32.1659 27.0689 33.6605 26.8324 35.2114 26.4317 35.1534 26.0532 34.9912 25.7348 34.741 24.7971 33.9541 24.2232 32.817 24.1472 31.5952L22.1872 31.801C22.3174 33.5656 23.1724 35.1975 24.549 36.309 25.1563 36.776 25.8766 37.0736 26.6364 37.1714 26.6364 37.2988 26.6364 37.436 26.6364 37.5732 26.6337 38.8308 26.7984 40.0831 27.1264 41.2972 24.8359 41.5297 22.9705 43.2397 22.54 45.5014L24.5 45.766C24.8771 44.2592 26.2298 43.2013 27.783 43.1984 27.93 43.5414 28.0966 43.8844 28.273 44.1784 29.9488 47.2164 32.536 48.9608 35.3584 48.9608 38.4874 48.811 41.2911 46.9818 42.6888 44.1784 42.8877 43.8373 43.0645 43.4838 43.218 43.12 43.9215 43.1508 44.6015 43.382 45.178 43.7864 45.8776 44.2238 46.3612 44.935 46.5108 45.7464L48.4708 45.4818C48.2452 44.1047 47.4431 42.8891 46.2658 42.14ZM35.4858 24.01C36.6324 24.01 37.7104 25.1566 38.2004 26.6854 38.0333 26.6025 37.8595 26.5337 37.681 26.4796 37.0378 26.3307 36.3619 26.4862 35.8484 26.901 35.7357 26.9688 35.6276 27.0441 35.525 27.1264 35.3846 27.0635 35.2501 26.9881 35.1232 26.901 34.6106 26.508 33.9495 26.3643 33.32 26.509 33.1446 26.5632 32.9742 26.632 32.8104 26.7148 33.32 25.186 34.349 24.0394 35.4956 24.0394ZM28.6258 37.5438C28.6258 33.271 30.8014 29.449 33.81 28.3808L34.1138 28.567C34.2412 28.6454 34.3784 28.7336 34.5352 28.812L34.5352 39.0628C34.3505 39.1209 34.1729 39.1998 34.006 39.298L29.4 41.9538C28.8635 40.5562 28.5942 39.0702 28.6062 37.5732ZM35.3682 47.04C33.4082 47.04 31.5952 45.864 30.2624 43.7276L34.9664 41.0032C35.2933 40.8121 35.6979 40.8121 36.0248 41.0032L40.7092 43.708C39.6134 45.6566 37.6002 46.9126 35.3682 47.04ZM41.5814 41.9636 37.0048 39.3176C36.8379 39.2194 36.6603 39.1405 36.4756 39.0824L36.4756 28.8512 36.9068 28.5964 37.24 28.42C40.2486 29.4882 42.4144 33.32 42.4144 37.583 42.4127 39.0792 42.1301 40.5618 41.5814 41.9538Z" fill="#A166FF" transform="matrix(1.02041 0 0 1 267 406)"/><path d="M-11.76 46.06-11.76-9.8 133.28-9.8 133.28 55.86-11.76 55.86-11.76 129.36-147 129.36-147 59.78-20.58 59.78-11.76 46.06Z" stroke="#F495EB" stroke-width="0.98" stroke-miterlimit="10" fill="none" transform="matrix(1.02041 0 0 1 267 406)"/></g></svg>