<svg width="49" height="49" xmlns="http://www.w3.org/2000/svg" xmlns:xlink="http://www.w3.org/1999/xlink" xml:space="preserve" overflow="hidden"><g transform="translate(-536 -411)"><path d="M569.046 452.072C569.046 453.963 565.841 455.737 560.872 456.58 559.638 456.795 558.315 456.952 556.952 457.05 556.394 457.05 555.835 457.119 555.267 457.138 554.13 457.138 552.944 457.138 551.807 457.138 551.239 457.138 550.68 457.138 550.122 457.05 548.769 456.952 547.446 456.795 546.202 456.58 541.233 455.737 538.029 453.963 538.029 452.072L538.029 445.418C541.086 447.456 547.319 448.358 553.532 448.358L553.532 446.398C543.409 446.398 538.029 444.085 538.029 442.409L538.029 434.089C541.214 436.215 547.829 437.215 554.061 437.215L554.061 435.255C544.124 435.255 538.029 432.854 538.029 431.139L538.029 422.878C541.096 425.024 547.329 426.131 553.532 426.131 559.736 426.131 565.959 425.024 569.026 422.878L569.026 426.376 570.986 426.376 570.986 418.928C570.986 414.842 563.646 411.872 553.532 411.872 543.419 411.872 536.088 414.842 536.088 418.928L536.088 452.072C536.088 455.11 539.655 457.462 545.888 458.52 547.182 458.736 548.564 458.902 549.985 459 550.563 459 551.141 459.079 551.739 459.098 552.337 459.118 552.925 459.098 553.542 459.098 554.159 459.098 554.747 459.098 555.335 459.098 555.923 459.098 556.511 459.04 557.09 459 558.511 458.902 559.892 458.736 561.186 458.52 567.429 457.462 570.986 455.11 570.986 452.072L570.986 451.092 569.026 451.092ZM538.048 418.928C538.048 416.468 544.271 413.832 553.552 413.832 562.832 413.832 569.046 416.468 569.046 418.928L569.046 419.82C569.046 421.633 563.166 424.171 553.552 424.171 543.938 424.171 538.048 421.633 538.048 419.82ZM584.912 443.644 584.912 445.604C584.647 445.604 584.245 446.476 584.01 446.995 583.52 448.064 582.844 449.524 581.325 449.524 579.806 449.524 579.12 448.064 578.63 446.995 578.395 446.476 577.993 445.604 577.728 445.604 577.464 445.604 577.062 446.476 576.827 446.995 576.337 448.064 575.67 449.524 574.142 449.524 572.613 449.524 571.946 448.064 571.456 446.995 571.221 446.476 570.819 445.604 570.555 445.604 570.29 445.604 569.888 446.476 569.653 446.995 569.163 448.064 568.497 449.524 566.968 449.524 565.439 449.524 564.773 448.064 564.283 446.995 564.048 446.476 563.646 445.604 563.381 445.604 563.117 445.604 562.715 446.476 562.48 446.995 561.99 448.064 561.323 449.524 559.794 449.524 558.266 449.524 557.56 448.064 557.109 446.995 556.874 446.476 556.472 445.604 556.208 445.604L556.208 443.644C557.727 443.644 558.403 445.104 558.893 446.172 559.128 446.692 559.52 447.564 559.794 447.564 560.069 447.564 560.461 446.692 560.696 446.172 561.186 445.104 561.852 443.644 563.381 443.644 564.91 443.644 565.576 445.104 566.066 446.172 566.302 446.692 566.703 447.564 566.968 447.564 567.233 447.564 567.634 446.692 567.87 446.172 568.36 445.104 569.026 443.644 570.555 443.644 572.084 443.644 572.75 445.104 573.24 446.172 573.475 446.692 573.877 447.564 574.142 447.564 574.406 447.564 574.808 446.692 575.043 446.172 575.533 445.104 576.2 443.644 577.728 443.644 579.257 443.644 579.924 445.104 580.414 446.172 580.659 446.692 581.051 447.564 581.325 447.564 581.599 447.564 581.991 446.692 582.227 446.172 582.717 445.104 583.383 443.644 584.912 443.644ZM584.912 436.157 584.912 438.117C584.647 438.117 584.245 438.989 584.01 439.508 583.52 440.576 582.844 442.037 581.325 442.037 579.806 442.037 579.12 440.576 578.63 439.508 578.395 438.989 577.993 438.117 577.728 438.117 577.464 438.117 577.062 438.989 576.827 439.508 576.337 440.576 575.67 442.037 574.142 442.037 572.613 442.037 571.946 440.576 571.456 439.508 571.221 438.989 570.819 438.117 570.555 438.117 570.29 438.117 569.888 438.989 569.653 439.508 569.163 440.576 568.497 442.037 566.968 442.037 565.439 442.037 564.773 440.576 564.283 439.508 564.048 438.989 563.646 438.117 563.381 438.117 563.117 438.117 562.715 438.989 562.48 439.508 561.99 440.576 561.323 442.037 559.794 442.037 558.266 442.037 557.56 440.576 557.109 439.508 556.874 438.989 556.472 438.117 556.208 438.117L556.208 436.157C557.727 436.157 558.403 437.617 558.893 438.685 559.128 439.204 559.52 440.077 559.794 440.077 560.069 440.077 560.461 439.204 560.696 438.695 561.186 437.617 561.852 436.157 563.381 436.157 564.91 436.157 565.576 437.617 566.066 438.695 566.302 439.204 566.703 440.077 566.968 440.077 567.233 440.077 567.634 439.204 567.87 438.695 568.36 437.617 569.026 436.157 570.555 436.157 572.084 436.157 572.75 437.627 573.24 438.695 573.475 439.214 573.877 440.077 574.142 440.077 574.406 440.077 574.808 439.204 575.043 438.685 575.533 437.617 576.2 436.157 577.728 436.157 579.257 436.157 579.924 437.617 580.414 438.695 580.659 439.204 581.051 440.077 581.325 440.077 581.599 440.077 581.991 439.204 582.227 438.695 582.717 437.617 583.383 436.157 584.912 436.157ZM584.912 428.679 584.912 430.639C584.647 430.639 584.245 431.511 584.01 432.031 583.52 433.099 582.844 434.52 581.325 434.52 579.806 434.52 579.12 433.099 578.63 432.031 578.395 431.511 577.993 430.639 577.728 430.639 577.464 430.639 577.062 431.502 576.827 432.021 576.337 433.099 575.67 434.559 574.142 434.559 572.613 434.559 571.946 433.099 571.456 432.021 571.221 431.511 570.819 430.639 570.555 430.639 570.29 430.639 569.888 431.511 569.653 432.021 569.163 433.099 568.497 434.559 566.968 434.559 565.439 434.559 564.773 433.099 564.283 432.021 564.048 431.511 563.646 430.639 563.381 430.639 563.117 430.639 562.715 431.511 562.48 432.021 561.99 433.099 561.323 434.559 559.794 434.559 558.266 434.559 557.56 433.099 557.109 432.021 556.874 431.502 556.472 430.639 556.208 430.639L556.208 428.64C557.727 428.64 558.403 430.1 558.893 431.168 559.128 431.688 559.52 432.56 559.794 432.56 560.069 432.56 560.461 431.688 560.696 431.168 561.186 430.1 561.852 428.64 563.381 428.64 564.91 428.64 565.576 430.1 566.066 431.168 566.302 431.688 566.703 432.56 566.968 432.56 567.233 432.56 567.634 431.688 567.87 431.168 568.34 430.139 569.026 428.64 570.555 428.64 572.084 428.64 572.75 430.139 573.24 431.208 573.475 431.727 573.877 432.599 574.142 432.599 574.406 432.599 574.808 431.727 575.043 431.208 575.533 430.139 576.18 428.64 577.728 428.64 579.277 428.64 579.924 430.1 580.414 431.168 580.659 431.688 581.051 432.56 581.325 432.56 581.599 432.56 581.991 431.688 582.227 431.168 582.717 430.139 583.383 428.64 584.912 428.64Z" fill="#A166FF"/></g></svg>