<svg width="49" height="49" xmlns="http://www.w3.org/2000/svg" xmlns:xlink="http://www.w3.org/1999/xlink" xml:space="preserve" overflow="hidden"><defs><clipPath id="clip0"><rect x="706" y="415" width="49" height="49"/></clipPath></defs><g clip-path="url(#clip0)" transform="translate(-706 -415)"><path d="M737.576 457.022 730.196 457.022C727.595 457.029 725.433 455.021 725.247 452.426L714.644 452.426C713.226 452.432 712.072 451.286 712.066 449.868 712.066 449.868 712.066 449.868 712.066 449.868L712.066 433.208C712.072 431.547 713.423 430.204 715.085 430.21 715.088 430.21 715.091 430.21 715.094 430.21L720.298 430.21 720.298 429.122C720.304 427.713 721.447 426.574 722.856 426.574L732.587 426.574C734 426.568 735.15 427.709 735.155 429.122 735.155 429.122 735.155 429.122 735.155 429.122L735.155 430.18 739.506 430.18C741.169 430.175 742.524 431.516 742.534 433.179L742.534 434.002 745.102 434.002 745.102 433.306C745.113 431.639 746.473 430.297 748.14 430.308 748.14 430.308 748.14 430.308 748.14 430.308L750.512 430.308C752.173 430.297 753.529 431.635 753.54 433.297 753.54 433.3 753.54 433.303 753.54 433.306L753.54 451.26C753.534 452.922 752.183 454.264 750.521 454.259 750.518 454.259 750.515 454.259 750.512 454.259L748.14 454.259C746.486 454.253 745.147 452.914 745.141 451.26L745.141 450.584 742.505 450.584 742.505 452.103C742.516 454.809 740.331 457.012 737.625 457.022 737.608 457.023 737.592 457.022 737.576 457.022ZM715.094 432.14C714.515 432.129 714.037 432.59 714.026 433.169 714.026 433.172 714.026 433.176 714.026 433.179L714.026 449.839C714.032 450.175 714.308 450.442 714.643 450.437 714.643 450.437 714.644 450.437 714.644 450.437L726.217 450.437C726.759 450.437 727.197 450.876 727.197 451.417L727.197 452.073C727.197 453.697 728.513 455.014 730.137 455.014 730.157 455.014 730.176 455.014 730.196 455.013L737.576 455.013C739.199 455.013 740.516 453.697 740.516 452.073L740.516 449.604C740.516 449.063 740.954 448.624 741.496 448.624L746.092 448.624C746.633 448.624 747.072 449.063 747.072 449.604L747.072 451.26C747.077 451.839 747.551 452.304 748.13 452.299 748.133 452.299 748.137 452.299 748.14 452.299L750.472 452.299C751.051 452.326 751.542 451.879 751.569 451.3 751.57 451.287 751.57 451.273 751.57 451.26L751.57 433.306C751.565 432.727 751.091 432.262 750.512 432.267 750.508 432.267 750.505 432.268 750.502 432.268L748.14 432.268C747.561 432.257 747.083 432.717 747.072 433.296 747.072 433.3 747.072 433.303 747.072 433.306L747.072 434.982C747.072 435.523 746.633 435.962 746.092 435.962L741.554 435.962C741.013 435.962 740.574 435.523 740.574 434.982L740.574 433.179C740.569 432.6 740.095 432.135 739.516 432.14 739.513 432.14 739.51 432.14 739.506 432.14L734.175 432.14C733.634 432.14 733.195 431.701 733.195 431.16L733.195 429.122C733.19 428.792 732.918 428.528 732.588 428.534 732.588 428.534 732.587 428.534 732.587 428.534L722.856 428.534C722.531 428.528 722.264 428.787 722.258 429.112 722.258 429.115 722.258 429.118 722.258 429.122L722.258 431.16C722.258 431.701 721.819 432.14 721.278 432.14Z" fill="#A166FF"/><path d="M707.47 431.229 709.43 431.229 709.43 451.446 707.47 451.446Z" fill="#A166FF"/><path d="M708.45 440.362 713.046 440.362 713.046 442.322 708.45 442.322Z" fill="#A166FF"/><path d="M721.317 421.987 734.185 421.987 734.185 423.947 721.317 423.947Z" fill="#A166FF"/><path d="M726.766 422.967 728.726 422.967 728.726 427.564 726.766 427.564Z" fill="#A166FF"/><path d="M846.63 678.13 695.71 678.13 695.71 745.75 548.71 745.75 546.75 334.15 846.63 334.15 846.63 678.13Z" stroke="#8FFF2E" stroke-width="2.94" stroke-miterlimit="10" fill="none"/></g></svg>