<svg width="49" height="49" xmlns="http://www.w3.org/2000/svg" xmlns:xlink="http://www.w3.org/1999/xlink" xml:space="preserve" overflow="hidden"><defs><clipPath id="clip0"><rect x="461" y="412" width="49" height="49"/></clipPath></defs><g clip-path="url(#clip0)" transform="translate(-461 -412)"><path d="M478.011 427.243 485.795 420.924 487.03 422.446 479.246 428.765Z" fill="#A166FF"/><path d="M478.326 446.013 479.562 444.492 487.04 450.565 485.805 452.086Z" fill="#A166FF"/><path d="M478.766 438.951 479.387 437.091 499.597 443.834 498.977 445.693Z" fill="#A166FF"/><path d="M478.852 433.999 499.092 427.182 499.719 429.044 479.479 435.861Z" fill="#A166FF"/><path d="M488.36 423.27 489.978 422.164 501.92 439.618 500.303 440.724Z" fill="#A166FF"/><path d="M502.64 425.328C499.347 422.741 494.163 418.958 494.114 418.919L495.3 417.331C495.359 417.331 500.572 421.173 503.895 423.789Z" fill="#A166FF"/><path d="M494.692 423.701 486.421 423.701C485.88 423.701 485.441 423.262 485.441 422.721L485.441 414.45C485.441 413.909 485.88 413.47 486.421 413.47L494.692 413.47C495.234 413.47 495.672 413.909 495.672 414.45L495.672 422.721C495.672 423.262 495.234 423.701 494.692 423.701ZM487.401 421.741 493.712 421.741 493.712 415.43 487.401 415.43Z" fill="#A166FF"/><path d="M488.367 449.731 500.306 432.275 501.924 433.381 489.985 450.837Z" fill="#A166FF"/><path d="M495.3 455.669 494.153 454.081C494.202 454.081 499.387 450.259 502.679 447.672L503.855 449.24C500.533 451.827 495.3 455.63 495.3 455.669Z" fill="#A166FF"/><path d="M494.692 459.53 486.421 459.53C485.88 459.53 485.441 459.091 485.441 458.55L485.441 450.279C485.441 449.738 485.88 449.299 486.421 449.299L494.692 449.299C495.234 449.299 495.672 449.738 495.672 450.279L495.672 458.55C495.672 459.091 495.234 459.53 494.692 459.53ZM487.401 457.57 493.712 457.57 493.712 451.259 487.401 451.259Z" fill="#A166FF"/><path d="M507.55 449.426 499.279 449.426C498.738 449.426 498.299 448.987 498.299 448.446L498.299 440.175C498.299 439.634 498.738 439.195 499.279 439.195L507.55 439.195C508.091 439.195 508.53 439.634 508.53 440.175L508.53 448.446C508.53 448.987 508.091 449.426 507.55 449.426ZM500.259 447.466 506.57 447.466 506.57 441.155 500.259 441.155Z" fill="#A166FF"/><path d="M507.55 433.805 499.279 433.805C498.738 433.805 498.299 433.366 498.299 432.825L498.299 424.554C498.299 424.013 498.738 423.574 499.279 423.574L507.55 423.574C508.091 423.574 508.53 424.013 508.53 424.554L508.53 432.825C508.53 433.366 508.091 433.805 507.55 433.805ZM500.259 431.845 506.57 431.845 506.57 425.534 500.259 425.534Z" fill="#A166FF"/><path d="M471.261 448.505C467.027 448.505 462.441 447.329 462.441 444.752L462.441 428.905C462.441 426.328 466.998 425.152 471.261 425.152 475.524 425.152 480.081 426.328 480.081 428.905L480.081 444.752C480.051 447.329 475.494 448.505 471.261 448.505ZM471.261 427.112C466.782 427.112 464.401 428.444 464.401 428.905L464.401 444.752C464.401 445.212 466.753 446.545 471.261 446.545 475.769 446.545 478.121 445.212 478.121 444.752L478.121 428.905C478.091 428.444 475.7 427.112 471.261 427.112Z" fill="#A166FF"/><path d="M471.261 432.178C467.027 432.178 462.441 431.002 462.441 428.425L464.401 428.425C464.401 428.885 466.753 430.218 471.261 430.218 475.769 430.218 478.121 428.885 478.121 428.425L480.081 428.425C480.051 431.002 475.494 432.178 471.261 432.178Z" fill="#A166FF"/><path d="M738.83 606.53 587.91 606.53 587.91 674.15 440.91 674.15 438.95 262.55 738.83 262.55 738.83 606.53Z" stroke="#8FFF2E" stroke-width="2.94" stroke-miterlimit="10" fill="none"/></g></svg>