<svg width="50" height="49" xmlns="http://www.w3.org/2000/svg" xmlns:xlink="http://www.w3.org/1999/xlink" xml:space="preserve" overflow="hidden"><defs><clipPath id="clip0"><rect x="269" y="407" width="50" height="49"/></clipPath></defs><g clip-path="url(#clip0)" transform="translate(-269 -407)"><path d="M41.1012 11.6424 39.1412 11.6424 39.1412 3.43 9.8588 3.43 9.8588 11.6424 7.8988 11.6424 7.8988 1.47 41.1012 1.47 41.1012 11.6424Z" fill="#A166FF" transform="matrix(1.02041 0 0 1 269 407)"/><path d="M41.1012 47.53 7.8988 47.53 7.8988 21.7462 9.8588 21.7462 9.8588 45.57 39.1412 45.57 39.1412 21.7462 41.1012 21.7462 41.1012 47.53Z" fill="#A166FF" transform="matrix(1.02041 0 0 1 269 407)"/><path d="M12.5538 6.9874 36.4462 6.9874 36.4462 8.9474 12.5538 8.9474Z" fill="#A166FF" transform="matrix(1.02041 0 0 1 269 407)"/><path d="M12.6714 12.495 36.4462 12.495 36.4462 14.455 12.6714 14.455Z" fill="#A166FF" transform="matrix(1.02041 0 0 1 269 407)"/><path d="M12.5538 18.0124 36.4462 18.0124 36.4462 19.9724 12.5538 19.9724Z" fill="#A166FF" transform="matrix(1.02041 0 0 1 269 407)"/><path d="M12.5538 23.52 36.4462 23.52 36.4462 25.48 12.5538 25.48Z" fill="#A166FF" transform="matrix(1.02041 0 0 1 269 407)"/><path d="M12.5538 29.0374 36.4462 29.0374 36.4462 30.9974 12.5538 30.9974Z" fill="#A166FF" transform="matrix(1.02041 0 0 1 269 407)"/><path d="M12.5538 34.545 36.4462 34.545 36.4462 36.505 12.5538 36.505Z" fill="#A166FF" transform="matrix(1.02041 0 0 1 269 407)"/><path d="M12.5538 40.0624 36.4462 40.0624 36.4462 42.0224 12.5538 42.0224Z" fill="#A166FF" transform="matrix(1.02041 0 0 1 269 407)"/><path d="M5.2038 21.805C5.05306 21.8078 4.90427 21.7706 4.7726 21.6972 4.43924 21.5339 4.22677 21.1962 4.2238 20.825L4.2238 12.5538C4.2238 12.0126 4.66256 11.5738 5.2038 11.5738 5.41584 11.5738 5.62217 11.6426 5.7918 11.7698L11.3092 15.9054C11.556 16.0905 11.7012 16.3809 11.7012 16.6894 11.7012 16.9979 11.556 17.2883 11.3092 17.4734L5.7918 21.609C5.62217 21.7362 5.41584 21.805 5.2038 21.805ZM6.1838 14.5138 6.1838 18.865 9.1238 16.6894Z" fill="#A166FF" transform="matrix(1.02041 0 0 1 269 407)"/><path d="M43.7962 21.805C43.5842 21.805 43.3778 21.7362 43.2082 21.609L37.6908 17.4734C37.444 17.2883 37.2988 16.9979 37.2988 16.6894 37.2988 16.3809 37.444 16.0905 37.6908 15.9054L43.2082 11.76C43.6412 11.4353 44.2555 11.523 44.5802 11.956 44.7074 12.1256 44.7762 12.332 44.7762 12.544L44.7762 20.8152C44.7732 21.1864 44.5608 21.5241 44.2274 21.6874 44.0967 21.7642 43.9478 21.8048 43.7962 21.805ZM39.8762 16.6894 42.8162 18.865 42.8162 14.5138Z" fill="#A166FF" transform="matrix(1.02041 0 0 1 269 407)"/><path d="M277.83 331.73 126.91 331.73 126.91 399.35-20.09 399.35-22.05-12.25 277.83-12.25 277.83 331.73Z" stroke="#8FFF2E" stroke-width="2.94" stroke-miterlimit="10" fill="none" transform="matrix(1.02041 0 0 1 269 407)"/></g></svg>