<svg width="49" height="49" xmlns="http://www.w3.org/2000/svg" xmlns:xlink="http://www.w3.org/1999/xlink" xml:space="preserve" overflow="hidden"><defs><clipPath id="clip0"><rect x="707" y="124" width="49" height="49"/></clipPath></defs><g clip-path="url(#clip0)" transform="translate(-707 -124)"><path d="M736.4 133.633 731.5 128.733 726.6 133.633 725.189 132.252 730.804 126.636C731.185 126.252 731.806 126.249 732.19 126.631 732.192 126.632 732.194 126.634 732.196 126.636L737.801 132.252Z" fill="#FF9900"/><path d="M730.52 127.332 732.48 127.332 732.48 137.916 730.52 137.916Z" fill="#FF9900"/><path d="M731.5 170.648C731.24 170.65 730.989 170.547 730.804 170.364L725.189 164.748 726.6 163.367 731.5 168.267 736.4 163.367 737.782 164.748 732.176 170.364C731.996 170.542 731.754 170.644 731.5 170.648Z" fill="#FF9900"/><path d="M730.52 159.084 732.48 159.084 732.48 169.668 730.52 169.668Z" fill="#FF9900"/><path d="M736.998 155.654 726.002 155.654C725.088 155.654 724.346 154.912 724.346 153.998L724.346 143.002C724.346 142.088 725.088 141.346 726.002 141.346L736.998 141.346C737.912 141.346 738.654 142.088 738.654 143.002L738.654 153.998C738.654 154.912 737.912 155.654 736.998 155.654ZM726.306 153.694 736.694 153.694 736.694 143.306 726.306 143.306Z" fill="#FF9900"/><path d="M725.228 139.68 727.188 139.68 727.188 142.326 725.228 142.326Z" fill="#FF9900"/><path d="M728.756 139.68 730.716 139.68 730.716 142.326 728.756 142.326Z" fill="#FF9900"/><path d="M732.284 139.68 734.244 139.68 734.244 142.326 732.284 142.326Z" fill="#FF9900"/><path d="M735.812 139.68 737.772 139.68 737.772 142.326 735.812 142.326Z" fill="#FF9900"/><path d="M725.228 154.674 727.188 154.674 727.188 157.32 725.228 157.32Z" fill="#FF9900"/><path d="M728.756 154.674 730.716 154.674 730.716 157.32 728.756 157.32Z" fill="#FF9900"/><path d="M732.284 154.674 734.244 154.674 734.244 157.32 732.284 157.32Z" fill="#FF9900"/><path d="M735.812 154.674 737.772 154.674 737.772 157.32 735.812 157.32Z" fill="#FF9900"/><path d="M722.68 152.812 725.326 152.812 725.326 154.772 722.68 154.772Z" fill="#FF9900"/><path d="M722.68 149.284 725.326 149.284 725.326 151.244 722.68 151.244Z" fill="#FF9900"/><path d="M722.68 145.756 725.326 145.756 725.326 147.716 722.68 147.716Z" fill="#FF9900"/><path d="M722.68 142.228 725.326 142.228 725.326 144.188 722.68 144.188Z" fill="#FF9900"/><path d="M737.674 152.812 740.32 152.812 740.32 154.772 737.674 154.772Z" fill="#FF9900"/><path d="M737.674 149.284 740.32 149.284 740.32 151.244 737.674 151.244Z" fill="#FF9900"/><path d="M737.674 145.756 740.32 145.756 740.32 147.716 737.674 147.716Z" fill="#FF9900"/><path d="M737.674 142.228 740.32 142.228 740.32 144.188 737.674 144.188Z" fill="#FF9900"/><path d="M715.056 154.87 713.664 153.478 718.564 148.578 713.664 143.678 715.056 142.297 720.661 147.902C721.045 148.283 721.048 148.904 720.667 149.288 720.665 149.29 720.663 149.292 720.661 149.294Z" fill="#FF9900"/><path d="M709.45 147.52 720.034 147.52 720.034 149.48 709.45 149.48Z" fill="#FF9900"/><path d="M747.944 154.87 742.329 149.255C741.945 148.873 741.942 148.253 742.323 147.869 742.325 147.867 742.327 147.865 742.329 147.863L747.944 142.257 749.326 143.6 744.426 148.5 749.326 153.4Z" fill="#FF9900"/><path d="M742.966 147.52 753.55 147.52 753.55 149.48 742.966 149.48Z" fill="#FF9900"/><path d="M535.5 117.63 846.16 117.63 857.273 1691.51 697.406 1691.51 697.465 1762.56 522.76 1762.56 535.5 117.63Z" stroke="#FF9900" stroke-width="2.94" stroke-miterlimit="10" fill="none"/></g></svg>