<svg width="49" height="49" xmlns="http://www.w3.org/2000/svg" xmlns:xlink="http://www.w3.org/1999/xlink" xml:space="preserve" overflow="hidden"><defs><clipPath id="clip0"><rect x="779" y="523" width="49" height="49"/></clipPath></defs><g clip-path="url(#clip0)" transform="translate(-779 -523)"><path d="M820.042 570.53 786.958 570.53C786.416 570.53 785.978 570.091 785.978 569.55L785.978 525.45C785.978 524.909 786.416 524.47 786.958 524.47L820.042 524.47C820.584 524.47 821.022 524.909 821.022 525.45L821.022 569.55C821.022 570.091 820.584 570.53 820.042 570.53ZM787.938 568.57 819.062 568.57 819.062 526.43 787.938 526.43Z" fill="#FF9900"/><path d="M797.052 537.465 791.544 537.465C791.003 537.465 790.564 537.026 790.564 536.485L790.564 530.967C790.564 530.426 791.003 529.987 791.544 529.987L797.052 529.987C797.593 529.987 798.032 530.426 798.032 530.967L798.032 536.485C798.032 537.026 797.593 537.465 797.052 537.465ZM792.524 535.505 796.072 535.505 796.072 531.947 792.524 531.947Z" fill="#FF9900"/><path d="M797.052 550.322 791.544 550.322C791.003 550.322 790.564 549.884 790.564 549.342L790.564 543.825C790.564 543.284 791.003 542.845 791.544 542.845L797.052 542.845C797.593 542.845 798.032 543.284 798.032 543.825L798.032 549.342C798.032 549.884 797.593 550.322 797.052 550.322ZM792.524 548.362 796.072 548.362 796.072 544.805 792.524 544.805Z" fill="#FF9900"/><path d="M797.052 563.18 791.544 563.18C791.003 563.18 790.564 562.741 790.564 562.2L790.564 556.692C790.564 556.151 791.003 555.712 791.544 555.712L797.052 555.712C797.593 555.712 798.032 556.151 798.032 556.692L798.032 562.2C798.032 562.741 797.593 563.18 797.052 563.18ZM792.524 561.22 796.072 561.22 796.072 557.672 792.524 557.672Z" fill="#FF9900"/><path d="M799.825 532.741 816.367 532.741 816.367 534.701 799.825 534.701Z" fill="#FF9900"/><path d="M799.825 545.599 816.367 545.599 816.367 547.559 799.825 547.559Z" fill="#FF9900"/><path d="M799.825 558.466 816.367 558.466 816.367 560.426 799.825 560.426Z" fill="#FF9900"/><path d="M769.906 516.14 915.759 516.14 915.759 580.065 769.906 580.065Z" stroke="#F495EB" stroke-width="0.98" stroke-miterlimit="10" fill="none"/></g></svg>