<svg width="50" height="49" xmlns="http://www.w3.org/2000/svg" xmlns:xlink="http://www.w3.org/1999/xlink" xml:space="preserve" overflow="hidden"><defs><clipPath id="clip0"><rect x="911" y="523" width="50" height="49"/></clipPath></defs><g clip-path="url(#clip0)" transform="translate(-911 -523)"><path d="M-17.7478-6.9678 128.106-6.9678 128.106 56.9576-17.7478 56.9576Z" stroke="#F495EB" stroke-width="0.98" stroke-miterlimit="10" fill="none" transform="matrix(1.02041 0 0 1 911 523)"/><path d="M42.287 47.53 15.827 47.53C15.2858 47.53 14.847 47.0912 14.847 46.55L14.847 11.27C14.847 10.7288 15.2858 10.29 15.827 10.29L42.287 10.29C42.8282 10.29 43.267 10.7288 43.267 11.27L43.267 46.55C43.267 47.0912 42.8282 47.53 42.287 47.53ZM16.807 45.57 41.307 45.57 41.307 12.25 16.807 12.25Z" fill="#FF9900" transform="matrix(1.02041 0 0 1 911 523)"/><path d="M23.9022 21.07 19.4922 21.07C18.951 21.07 18.5122 20.6312 18.5122 20.09L18.5122 15.68C18.5122 15.1388 18.951 14.7 19.4922 14.7L23.9022 14.7C24.4434 14.7 24.8822 15.1388 24.8822 15.68L24.8822 20.09C24.8822 20.6312 24.4434 21.07 23.9022 21.07ZM20.4722 19.11 22.9222 19.11 22.9222 16.66 20.4722 16.66Z" fill="#FF9900" transform="matrix(1.02041 0 0 1 911 523)"/><path d="M23.9022 31.36 19.4922 31.36C18.951 31.36 18.5122 30.9212 18.5122 30.38L18.5122 25.97C18.5122 25.4288 18.951 24.99 19.4922 24.99L23.9022 24.99C24.4434 24.99 24.8822 25.4288 24.8822 25.97L24.8822 30.38C24.8822 30.9212 24.4434 31.36 23.9022 31.36ZM20.4722 29.4 22.9222 29.4 22.9222 26.95 20.4722 26.95Z" fill="#FF9900" transform="matrix(1.02041 0 0 1 911 523)"/><path d="M23.9022 41.6598 19.4922 41.6598C18.951 41.6598 18.5122 41.221 18.5122 40.6798L18.5122 36.26C18.5122 35.7188 18.951 35.28 19.4922 35.28L23.9022 35.28C24.4434 35.28 24.8822 35.7188 24.8822 36.26L24.8822 40.6798C24.8822 41.221 24.4434 41.6598 23.9022 41.6598ZM20.4722 39.6998 22.9222 39.6998 22.9222 37.24 20.4722 37.24Z" fill="#FF9900" transform="matrix(1.02041 0 0 1 911 523)"/><path d="M26.117 16.905 39.3568 16.905 39.3568 18.865 26.117 18.865Z" fill="#FF9900" transform="matrix(1.02041 0 0 1 911 523)"/><path d="M26.117 27.1852 39.3568 27.1852 39.3568 29.1452 26.117 29.1452Z" fill="#FF9900" transform="matrix(1.02041 0 0 1 911 523)"/><path d="M26.117 37.485 39.3568 37.485 39.3568 39.445 26.117 39.445Z" fill="#FF9900" transform="matrix(1.02041 0 0 1 911 523)"/><path d="M15.827 43.12 11.417 43.12C10.8758 43.12 10.437 42.6812 10.437 42.14L10.437 6.86C10.437 6.31876 10.8758 5.88 11.417 5.88L37.877 5.88C38.4182 5.88 38.857 6.31876 38.857 6.86L38.857 11.27 36.897 11.27 36.897 7.84 12.397 7.84 12.397 41.16 15.827 41.16Z" fill="#FF9900" transform="matrix(1.02041 0 0 1 911 523)"/><path d="M11.123 38.7198 6.713 38.7198C6.17176 38.7198 5.733 38.281 5.733 37.7398L5.733 2.45C5.733 1.90876 6.17176 1.47 6.713 1.47L33.173 1.47C33.7142 1.47 34.153 1.90876 34.153 2.45L34.153 6.86 32.193 6.86 32.193 3.43 7.693 3.43 7.693 36.75 11.123 36.75Z" fill="#FF9900" transform="matrix(1.02041 0 0 1 911 523)"/></g></svg>