<svg width="49" height="49" xmlns="http://www.w3.org/2000/svg" xmlns:xlink="http://www.w3.org/1999/xlink" xml:space="preserve" overflow="hidden"><defs><clipPath id="clip0"><rect x="259" y="395" width="49" height="49"/></clipPath></defs><g clip-path="url(#clip0)" transform="translate(-259 -395)"><path d="M305.55 414.972 261.45 414.972C260.909 414.972 260.47 414.534 260.47 413.992L260.47 409.396 262.43 409.396 262.43 413.012 304.57 413.012 304.57 404.859 275.229 404.859 275.229 402.899 305.55 402.899C306.091 402.899 306.53 403.338 306.53 403.879L306.53 413.992C306.53 414.534 306.091 414.972 305.55 414.972Z" fill="#FF4F8B"/><path d="M305.55 428.751 303.59 428.751 303.59 426.791 304.57 426.791 304.57 425.811 306.53 425.811 306.53 427.771C306.53 428.312 306.091 428.751 305.55 428.751Z" fill="#FF4F8B"/><path d="M301.767 428.751 298.112 428.751 298.112 426.791 301.767 426.791ZM296.289 428.751 292.634 428.751 292.634 426.791 296.289 426.791ZM290.811 428.751 287.155 428.751 287.155 426.791 290.811 426.791ZM285.323 428.751 281.677 428.751 281.677 426.791 285.323 426.791ZM279.845 428.751 276.199 428.751 276.199 426.791 279.845 426.791ZM274.366 428.751 270.76 428.751 270.76 426.791 274.406 426.791ZM268.888 428.751 265.233 428.751 265.233 426.791 268.888 426.791Z" fill="#FF4F8B"/><path d="M263.41 428.751 261.45 428.751C260.909 428.751 260.47 428.312 260.47 427.771L260.47 425.811 262.43 425.811 262.43 426.791 263.41 426.791Z" fill="#FF4F8B"/><path d="M260.47 421.166 262.43 421.166 262.43 424.263 260.47 424.263Z" fill="#FF4F8B"/><path d="M262.43 419.627 260.47 419.627 260.47 417.667C260.47 417.126 260.909 416.687 261.45 416.687L263.41 416.687 263.41 418.647 262.43 418.647Z" fill="#FF4F8B"/><path d="M301.767 418.647 298.112 418.647 298.112 416.687 301.767 416.687ZM296.279 418.647 292.634 418.647 292.634 416.687 296.24 416.687ZM290.801 418.647 287.155 418.647 287.155 416.687 290.801 416.687ZM285.323 418.647 281.677 418.647 281.677 416.687 285.323 416.687ZM279.845 418.647 276.189 418.647 276.189 416.687 279.845 416.687ZM274.366 418.647 270.76 418.647 270.76 416.687 274.415 416.687ZM268.888 418.647 265.233 418.647 265.233 416.687 268.888 416.687Z" fill="#FF4F8B"/><path d="M306.53 419.627 304.57 419.627 304.57 418.647 303.59 418.647 303.59 416.687 305.55 416.687C306.091 416.687 306.53 417.126 306.53 417.667Z" fill="#FF4F8B"/><path d="M304.57 421.166 306.53 421.166 306.53 424.263 304.57 424.263Z" fill="#FF4F8B"/><path d="M305.55 442.53 303.59 442.53 303.59 440.57 304.57 440.57 304.57 439.59 306.53 439.59 306.53 441.55C306.53 442.091 306.091 442.53 305.55 442.53Z" fill="#FF4F8B"/><path d="M301.767 442.53 298.112 442.53 298.112 440.57 301.767 440.57ZM296.289 442.53 292.634 442.53 292.634 440.57 296.289 440.57ZM290.811 442.53 287.155 442.53 287.155 440.57 290.811 440.57ZM285.323 442.53 281.677 442.53 281.677 440.57 285.323 440.57ZM279.845 442.53 276.199 442.53 276.199 440.57 279.845 440.57ZM274.366 442.53 270.76 442.53 270.76 440.57 274.406 440.57ZM268.888 442.53 265.233 442.53 265.233 440.57 268.888 440.57Z" fill="#FF4F8B"/><path d="M263.41 442.53 261.45 442.53C260.909 442.53 260.47 442.091 260.47 441.55L260.47 439.59 262.43 439.59 262.43 440.57 263.41 440.57Z" fill="#FF4F8B"/><path d="M260.47 434.955 262.43 434.955 262.43 438.051 260.47 438.051Z" fill="#FF4F8B"/><path d="M262.43 433.406 260.47 433.406 260.47 431.446C260.47 430.905 260.909 430.466 261.45 430.466L263.41 430.466 263.41 432.426 262.43 432.426Z" fill="#FF4F8B"/><path d="M301.767 432.426 298.112 432.426 298.112 430.466 301.767 430.466ZM296.279 432.426 292.634 432.426 292.634 430.466 296.24 430.466ZM290.801 432.426 287.155 432.426 287.155 430.466 290.801 430.466ZM285.323 432.426 281.677 432.426 281.677 430.466 285.323 430.466ZM279.845 432.426 276.189 432.426 276.189 430.466 279.845 430.466ZM274.366 432.426 270.76 432.426 270.76 430.466 274.415 430.466ZM268.888 432.426 265.233 432.426 265.233 430.466 268.888 430.466Z" fill="#FF4F8B"/><path d="M306.53 433.406 304.57 433.406 304.57 432.426 303.59 432.426 303.59 430.466 305.55 430.466C306.091 430.466 306.53 430.905 306.53 431.446Z" fill="#FF4F8B"/><path d="M304.57 434.955 306.53 434.955 306.53 438.051 304.57 438.051Z" fill="#FF4F8B"/><text fill="#FF4F8B" font-family="Arial,Arial_MSFontService,sans-serif" font-weight="400" font-size="9.375" transform="matrix(0.98 0 0 0.98 275.689 412)">EMAIL</text><path d="M266.967 409.455C263.379 409.46 260.466 406.556 260.46 402.967 260.455 399.379 263.359 396.466 266.948 396.46 270.536 396.455 273.45 399.359 273.455 402.948 273.455 402.954 273.455 402.961 273.455 402.967 273.45 406.548 270.548 409.45 266.967 409.455ZM266.967 398.43C264.461 398.425 262.426 400.452 262.42 402.958 262.415 405.464 264.442 407.499 266.948 407.505 269.454 407.51 271.49 405.483 271.495 402.977 271.495 402.974 271.495 402.971 271.495 402.967 271.495 400.465 269.47 398.435 266.967 398.43Z" fill="#FF4F8B"/><path d="M399.63 383.73 248.71 383.73 248.71 451.35 101.71 451.35 99.75 39.75 399.63 39.75 399.63 383.73Z" stroke="#8FFF2E" stroke-width="2.94" stroke-miterlimit="10" fill="none"/><path d="M398.65 588.55 99.75 588.55 99.75 460.17 255.178 460.17 254.59 390.59 395.71 390.59 398.65 588.55Z" stroke="#CC31FF" stroke-width="2.94" stroke-miterlimit="10" fill="none"/></g></svg>