<svg width="49" height="49" xmlns="http://www.w3.org/2000/svg" xmlns:xlink="http://www.w3.org/1999/xlink" xml:space="preserve" overflow="hidden"><defs><clipPath id="clip0"><rect x="266" y="484" width="49" height="49"/></clipPath></defs><g clip-path="url(#clip0)" transform="translate(-266 -484)"><path d="M312.55 503.972 268.45 503.972C267.909 503.972 267.47 503.534 267.47 502.992L267.47 498.396 269.43 498.396 269.43 502.012 311.57 502.012 311.57 493.859 282.229 493.859 282.229 491.899 312.55 491.899C313.091 491.899 313.53 492.338 313.53 492.879L313.53 502.992C313.53 503.534 313.091 503.972 312.55 503.972Z" fill="#FF4F8B"/><path d="M312.55 517.751 310.59 517.751 310.59 515.791 311.57 515.791 311.57 514.811 313.53 514.811 313.53 516.771C313.53 517.312 313.091 517.751 312.55 517.751Z" fill="#FF4F8B"/><path d="M308.767 517.751 305.112 517.751 305.112 515.791 308.767 515.791ZM303.289 517.751 299.634 517.751 299.634 515.791 303.289 515.791ZM297.801 517.751 294.155 517.751 294.155 515.791 297.801 515.791ZM292.323 517.751 288.677 517.751 288.677 515.791 292.323 515.791ZM286.845 517.751 283.199 517.751 283.199 515.791 286.845 515.791ZM281.366 517.751 277.76 517.751 277.76 515.791 281.415 515.791ZM275.888 517.751 272.233 517.751 272.233 515.791 275.888 515.791Z" fill="#FF4F8B"/><path d="M270.41 517.751 268.45 517.751C267.909 517.751 267.47 517.312 267.47 516.771L267.47 514.811 269.43 514.811 269.43 515.791 270.41 515.791Z" fill="#FF4F8B"/><path d="M267.47 510.166 269.43 510.166 269.43 513.263 267.47 513.263Z" fill="#FF4F8B"/><path d="M269.43 508.627 267.47 508.627 267.47 506.667C267.47 506.126 267.909 505.687 268.45 505.687L270.41 505.687 270.41 507.647 269.43 507.647Z" fill="#FF4F8B"/><path d="M308.767 507.647 305.112 507.647 305.112 505.687 308.767 505.687ZM303.289 507.647 299.634 507.647 299.634 505.687 303.289 505.687ZM297.801 507.647 294.155 507.647 294.155 505.687 297.801 505.687ZM292.323 507.647 288.677 507.647 288.677 505.687 292.323 505.687ZM286.845 507.647 283.199 507.647 283.199 505.687 286.845 505.687ZM281.366 507.647 277.76 507.647 277.76 505.687 281.415 505.687ZM275.888 507.647 272.233 507.647 272.233 505.687 275.888 505.687Z" fill="#FF4F8B"/><path d="M313.53 508.627 311.57 508.627 311.57 507.647 310.59 507.647 310.59 505.687 312.55 505.687C313.091 505.687 313.53 506.126 313.53 506.667Z" fill="#FF4F8B"/><path d="M311.57 510.166 313.53 510.166 313.53 513.263 311.57 513.263Z" fill="#FF4F8B"/><path d="M312.55 531.53 310.59 531.53 310.59 529.57 311.57 529.57 311.57 528.59 313.53 528.59 313.53 530.55C313.53 531.091 313.091 531.53 312.55 531.53Z" fill="#FF4F8B"/><path d="M308.767 531.53 305.112 531.53 305.112 529.57 308.767 529.57ZM303.289 531.53 299.634 531.53 299.634 529.57 303.289 529.57ZM297.801 531.53 294.155 531.53 294.155 529.57 297.801 529.57ZM292.323 531.53 288.677 531.53 288.677 529.57 292.323 529.57ZM286.845 531.53 283.199 531.53 283.199 529.57 286.845 529.57ZM281.366 531.53 277.76 531.53 277.76 529.57 281.415 529.57ZM275.888 531.53 272.233 531.53 272.233 529.57 275.888 529.57Z" fill="#FF4F8B"/><path d="M270.41 531.53 268.45 531.53C267.909 531.53 267.47 531.091 267.47 530.55L267.47 528.59 269.43 528.59 269.43 529.57 270.41 529.57Z" fill="#FF4F8B"/><path d="M267.47 523.955 269.43 523.955 269.43 527.051 267.47 527.051Z" fill="#FF4F8B"/><path d="M269.43 522.406 267.47 522.406 267.47 520.446C267.47 519.905 267.909 519.466 268.45 519.466L270.41 519.466 270.41 521.426 269.43 521.426Z" fill="#FF4F8B"/><path d="M308.767 521.426 305.112 521.426 305.112 519.466 308.767 519.466ZM303.289 521.426 299.634 521.426 299.634 519.466 303.289 519.466ZM297.801 521.426 294.155 521.426 294.155 519.466 297.801 519.466ZM292.323 521.426 288.677 521.426 288.677 519.466 292.323 519.466ZM286.845 521.426 283.199 521.426 283.199 519.466 286.845 519.466ZM281.366 521.426 277.76 521.426 277.76 519.466 281.415 519.466ZM275.888 521.426 272.233 521.426 272.233 519.466 275.888 519.466Z" fill="#FF4F8B"/><path d="M313.53 522.406 311.57 522.406 311.57 521.426 310.59 521.426 310.59 519.466 312.55 519.466C313.091 519.466 313.53 519.905 313.53 520.446Z" fill="#FF4F8B"/><path d="M311.57 523.955 313.53 523.955 313.53 527.051 311.57 527.051Z" fill="#FF4F8B"/><text fill="#FF4F8B" font-family="Arial,Arial_MSFontService,sans-serif" font-weight="400" font-size="9.375" transform="matrix(0.98 0 0 0.98 283.611 501)">H</text><text fill="#FF4F8B" font-family="Arial,Arial_MSFontService,sans-serif" font-weight="400" font-size="9.375" transform="matrix(0.98 0 0 0.98 290.206 501)">T</text><text fill="#FF4F8B" font-family="Arial,Arial_MSFontService,sans-serif" font-weight="400" font-size="9.375" transform="matrix(0.98 0 0 0.98 295.753 501)">TP</text><path d="M273.967 498.455C270.379 498.46 267.466 495.556 267.46 491.967 267.455 488.379 270.359 485.466 273.948 485.46 277.536 485.455 280.45 488.359 280.455 491.948 280.455 491.954 280.455 491.961 280.455 491.967 280.45 495.548 277.548 498.45 273.967 498.455ZM273.967 487.43C271.461 487.425 269.426 489.452 269.42 491.958 269.415 494.464 271.442 496.499 273.948 496.505 276.454 496.51 278.49 494.483 278.495 491.977 278.495 491.974 278.495 491.971 278.495 491.967 278.495 489.465 276.47 487.435 273.967 487.43Z" fill="#FF4F8B"/><path d="M542.85 608.95 243.95 608.95 243.95 480.57 399.378 480.57 398.79 410.99 539.91 410.99 542.85 608.95Z" stroke="#CC31FF" stroke-width="2.94" stroke-miterlimit="10" fill="none"/></g></svg>