<svg width="49" height="50" xmlns="http://www.w3.org/2000/svg" xmlns:xlink="http://www.w3.org/1999/xlink" xml:space="preserve" overflow="hidden"><defs><clipPath id="clip0"><rect x="266" y="566" width="49" height="50"/></clipPath></defs><g clip-path="url(#clip0)" transform="translate(-266 -566)"><path d="M46.55 16.7482 2.45 16.7482C1.90876 16.7482 1.47 16.3094 1.47 15.7682L1.47 5.6644C1.47 5.12316 1.90876 4.6844 2.45 4.6844L46.55 4.6844C47.0912 4.6844 47.53 5.12316 47.53 5.6644L47.53 15.7682C47.53 16.3094 47.0912 16.7482 46.55 16.7482ZM3.43 14.7882 45.57 14.7882 45.57 6.6444 3.43 6.6444Z" fill="#FF4F8B" transform="matrix(1 0 0 1.02041 266 566)"/><path d="M46.55 30.5368 44.59 30.5368 44.59 28.5768 45.57 28.5768 45.57 27.5968 47.53 27.5968 47.53 29.5568C47.53 30.098 47.0912 30.5368 46.55 30.5368Z" fill="#FF4F8B" transform="matrix(1 0 0 1.02041 266 566)"/><path d="M42.7672 30.5368 39.1118 30.5368 39.1118 28.5768 42.7672 28.5768ZM37.289 30.5368 33.6336 30.5368 33.6336 28.5768 37.289 28.5768ZM31.8108 30.5368 28.1554 30.5368 28.1554 28.5768 31.8108 28.5768ZM26.3228 30.5368 22.6772 30.5368 22.6772 28.5768 26.3228 28.5768ZM20.8446 30.5368 17.199 30.5368 17.199 28.5768 20.8446 28.5768ZM15.3664 30.5368 11.76 30.5368 11.76 28.5768 15.4056 28.5768ZM9.8882 30.5368 6.2328 30.5368 6.2328 28.5768 9.8882 28.5768Z" fill="#FF4F8B" transform="matrix(1 0 0 1.02041 266 566)"/><path d="M4.41 30.5368 2.45 30.5368C1.90876 30.5368 1.47 30.098 1.47 29.5568L1.47 27.5968 3.43 27.5968 3.43 28.5768 4.41 28.5768Z" fill="#FF4F8B" transform="matrix(1 0 0 1.02041 266 566)"/><path d="M1.47 22.9516 3.43 22.9516 3.43 26.0484 1.47 26.0484Z" fill="#FF4F8B" transform="matrix(1 0 0 1.02041 266 566)"/><path d="M3.43 21.4032 1.47 21.4032 1.47 19.4432C1.47 18.902 1.90876 18.4632 2.45 18.4632L4.41 18.4632 4.41 20.4232 3.43 20.4232Z" fill="#FF4F8B" transform="matrix(1 0 0 1.02041 266 566)"/><path d="M42.7672 20.4232 39.1118 20.4232 39.1118 18.4632 42.7672 18.4632ZM37.2792 20.4232 33.6336 20.4232 33.6336 18.4632 37.24 18.4632ZM31.801 20.4232 28.1554 20.4232 28.1554 18.4632 31.801 18.4632ZM26.3228 20.4232 22.6772 20.4232 22.6772 18.4632 26.3228 18.4632ZM20.8446 20.4232 17.1892 20.4232 17.1892 18.4632 20.8446 18.4632ZM15.3664 20.4232 11.76 20.4232 11.76 18.4632 15.4154 18.4632ZM9.8882 20.4232 6.2328 20.4232 6.2328 18.4632 9.8882 18.4632Z" fill="#FF4F8B" transform="matrix(1 0 0 1.02041 266 566)"/><path d="M47.53 21.4032 45.57 21.4032 45.57 20.4232 44.59 20.4232 44.59 18.4632 46.55 18.4632C47.0912 18.4632 47.53 18.902 47.53 19.4432Z" fill="#FF4F8B" transform="matrix(1 0 0 1.02041 266 566)"/><path d="M45.57 22.9516 47.53 22.9516 47.53 26.0484 45.57 26.0484Z" fill="#FF4F8B" transform="matrix(1 0 0 1.02041 266 566)"/><path d="M46.55 44.3156 44.59 44.3156 44.59 42.3556 45.57 42.3556 45.57 41.3756 47.53 41.3756 47.53 43.3356C47.53 43.8768 47.0912 44.3156 46.55 44.3156Z" fill="#FF4F8B" transform="matrix(1 0 0 1.02041 266 566)"/><path d="M42.7672 44.3156 39.1118 44.3156 39.1118 42.3556 42.7672 42.3556ZM37.289 44.3156 33.6336 44.3156 33.6336 42.3556 37.289 42.3556ZM31.8108 44.3156 28.1554 44.3156 28.1554 42.3556 31.8108 42.3556ZM26.3228 44.3156 22.6772 44.3156 22.6772 42.3556 26.3228 42.3556ZM20.8446 44.3156 17.199 44.3156 17.199 42.3556 20.8446 42.3556ZM15.3664 44.3156 11.76 44.3156 11.76 42.3556 15.4056 42.3556ZM9.8882 44.3156 6.2328 44.3156 6.2328 42.3556 9.8882 42.3556Z" fill="#FF4F8B" transform="matrix(1 0 0 1.02041 266 566)"/><path d="M4.41 44.3156 2.45 44.3156C1.90876 44.3156 1.47 43.8768 1.47 43.3356L1.47 41.3756 3.43 41.3756 3.43 42.3556 4.41 42.3556Z" fill="#FF4F8B" transform="matrix(1 0 0 1.02041 266 566)"/><path d="M1.47 36.7304 3.43 36.7304 3.43 39.8272 1.47 39.8272Z" fill="#FF4F8B" transform="matrix(1 0 0 1.02041 266 566)"/><path d="M3.43 35.1918 1.47 35.1918 1.47 33.2318C1.47 32.6906 1.90876 32.2518 2.45 32.2518L4.41 32.2518 4.41 34.2118 3.43 34.2118Z" fill="#FF4F8B" transform="matrix(1 0 0 1.02041 266 566)"/><path d="M42.7672 34.2118 39.1118 34.2118 39.1118 32.2518 42.7672 32.2518ZM37.2792 34.2118 33.6336 34.2118 33.6336 32.2518 37.24 32.2518ZM31.801 34.2118 28.1554 34.2118 28.1554 32.2518 31.801 32.2518ZM26.3228 34.2118 22.6772 34.2118 22.6772 32.2518 26.3228 32.2518ZM20.8446 34.2118 17.1892 34.2118 17.1892 32.2518 20.8446 32.2518ZM15.3664 34.2118 11.76 34.2118 11.76 32.2518 15.4154 32.2518ZM9.8882 34.2118 6.2328 34.2118 6.2328 32.2518 9.8882 32.2518Z" fill="#FF4F8B" transform="matrix(1 0 0 1.02041 266 566)"/><path d="M47.53 35.1918 45.57 35.1918 45.57 34.2118 44.59 34.2118 44.59 32.2518 46.55 32.2518C47.0912 32.2518 47.53 32.6906 47.53 33.2318Z" fill="#FF4F8B" transform="matrix(1 0 0 1.02041 266 566)"/><path d="M45.57 36.7304 47.53 36.7304 47.53 39.8272 45.57 39.8272Z" fill="#FF4F8B" transform="matrix(1 0 0 1.02041 266 566)"/><path d="M139.65 124.95-159.25 124.95-159.25-3.43-3.822-3.43-4.41-73.01 136.71-73.01 139.65 124.95Z" stroke="#CC31FF" stroke-width="2.94" stroke-miterlimit="10" fill="none" transform="matrix(1 0 0 1.02041 266 566)"/></g></svg>