<svg width="49" height="50" xmlns="http://www.w3.org/2000/svg" xmlns:xlink="http://www.w3.org/1999/xlink" xml:space="preserve" overflow="hidden"><defs><clipPath id="clip0"><rect x="496" y="406" width="49" height="50"/></clipPath></defs><g clip-path="url(#clip0)" transform="translate(-496 -406)"><path d="M14.8568 47.53 2.94 47.53C2.39876 47.53 1.96 47.0912 1.96 46.55L1.96 2.45C1.96 1.90876 2.39876 1.47 2.94 1.47L14.8568 1.47C15.398 1.47 15.8368 1.90876 15.8368 2.45L15.8368 46.55C15.8368 47.0912 15.398 47.53 14.8568 47.53ZM3.92 45.57 13.8768 45.57 13.8768 3.43 3.92 3.43Z" fill="#FF4F8B" transform="matrix(1 0 0 1.02041 496 406)"/><path d="M31.4482 4.41 29.4882 4.41 29.4882 3.43 28.5082 3.43 28.5082 1.47 30.4682 1.47C31.0094 1.47 31.4482 1.90876 31.4482 2.45Z" fill="#FF4F8B" transform="matrix(1 0 0 1.02041 496 406)"/><path d="M31.4482 42.7672 29.4882 42.7672 29.4882 39.1118 31.4482 39.1118ZM31.4482 37.289 29.4882 37.289 29.4882 33.6336 31.4482 33.6336ZM31.4482 31.801 29.4882 31.801 29.4882 28.1554 31.4482 28.1554ZM31.4482 26.3228 29.4882 26.3228 29.4882 22.6772 31.4482 22.6772ZM31.4482 20.8446 29.4882 20.8446 29.4882 17.199 31.4482 17.199ZM31.4482 15.3664 29.4882 15.3664 29.4882 11.76 31.4482 11.76ZM31.4482 9.8882 29.4882 9.8882 29.4882 6.2328 31.4482 6.2328Z" fill="#FF4F8B" transform="matrix(1 0 0 1.02041 496 406)"/><path d="M30.4682 47.53 28.5082 47.53 28.5082 45.57 29.4882 45.57 29.4882 44.59 31.4482 44.59 31.4482 46.55C31.4482 47.0912 31.0094 47.53 30.4682 47.53Z" fill="#FF4F8B" transform="matrix(1 0 0 1.02041 496 406)"/><path d="M22.491 45.57 26.4992 45.57 26.4992 47.53 22.491 47.53Z" fill="#FF4F8B" transform="matrix(1 0 0 1.02041 496 406)"/><path d="M20.4918 47.53 18.5318 47.53C17.9906 47.53 17.5518 47.0912 17.5518 46.55L17.5518 44.59 19.5118 44.59 19.5118 45.57 20.4918 45.57Z" fill="#FF4F8B" transform="matrix(1 0 0 1.02041 496 406)"/><path d="M19.5118 42.7672 17.5518 42.7672 17.5518 39.1118 19.5118 39.1118ZM19.5118 37.289 17.5518 37.289 17.5518 33.6336 19.5118 33.6336ZM19.5118 31.801 17.5518 31.801 17.5518 28.1554 19.5118 28.1554ZM19.5118 26.3228 17.5518 26.3228 17.5518 22.6772 19.5118 22.6772ZM19.5118 20.8446 17.5518 20.8446 17.5518 17.199 19.5118 17.199ZM19.5118 15.3664 17.5518 15.3664 17.5518 11.76 19.5118 11.76ZM19.5118 9.8882 17.5518 9.8882 17.5518 6.2328 19.5118 6.2328Z" fill="#FF4F8B" transform="matrix(1 0 0 1.02041 496 406)"/><path d="M19.5118 4.41 17.5518 4.41 17.5518 2.45C17.5518 1.90876 17.9906 1.47 18.5318 1.47L20.4918 1.47 20.4918 3.43 19.5118 3.43Z" fill="#FF4F8B" transform="matrix(1 0 0 1.02041 496 406)"/><path d="M22.491 1.47 26.4992 1.47 26.4992 3.43 22.491 3.43Z" fill="#FF4F8B" transform="matrix(1 0 0 1.02041 496 406)"/><path d="M47.04 4.41 45.08 4.41 45.08 3.43 44.1 3.43 44.1 1.47 46.06 1.47C46.6012 1.47 47.04 1.90876 47.04 2.45Z" fill="#FF4F8B" transform="matrix(1 0 0 1.02041 496 406)"/><path d="M47.04 42.7672 45.08 42.7672 45.08 39.1118 47.04 39.1118ZM47.04 37.289 45.08 37.289 45.08 33.6336 47.04 33.6336ZM47.04 31.801 45.08 31.801 45.08 28.1554 47.04 28.1554ZM47.04 26.3228 45.08 26.3228 45.08 22.6772 47.04 22.6772ZM47.04 20.8446 45.08 20.8446 45.08 17.199 47.04 17.199ZM47.04 15.3664 45.08 15.3664 45.08 11.76 47.04 11.76ZM47.04 9.8882 45.08 9.8882 45.08 6.2328 47.04 6.2328Z" fill="#FF4F8B" transform="matrix(1 0 0 1.02041 496 406)"/><path d="M46.06 47.53 44.1 47.53 44.1 45.57 45.08 45.57 45.08 44.59 47.04 44.59 47.04 46.55C47.04 47.0912 46.6012 47.53 46.06 47.53Z" fill="#FF4F8B" transform="matrix(1 0 0 1.02041 496 406)"/><path d="M38.1122 45.57 42.1204 45.57 42.1204 47.53 38.1122 47.53Z" fill="#FF4F8B" transform="matrix(1 0 0 1.02041 496 406)"/><path d="M36.1032 47.53 34.1432 47.53C33.602 47.53 33.1632 47.0912 33.1632 46.55L33.1632 44.59 35.1232 44.59 35.1232 45.57 36.1032 45.57Z" fill="#FF4F8B" transform="matrix(1 0 0 1.02041 496 406)"/><path d="M35.1232 42.7672 33.1632 42.7672 33.1632 39.1118 35.1232 39.1118ZM35.1232 37.289 33.1632 37.289 33.1632 33.6336 35.1232 33.6336ZM35.1232 31.801 33.1632 31.801 33.1632 28.1554 35.1232 28.1554ZM35.1232 26.3228 33.1632 26.3228 33.1632 22.6772 35.1232 22.6772ZM35.1232 20.8446 33.1632 20.8446 33.1632 17.199 35.1232 17.199ZM35.1232 15.3664 33.1632 15.3664 33.1632 11.76 35.1232 11.76ZM35.1232 9.8882 33.1632 9.8882 33.1632 6.2328 35.1232 6.2328Z" fill="#FF4F8B" transform="matrix(1 0 0 1.02041 496 406)"/><path d="M35.1232 4.41 33.1632 4.41 33.1632 2.45C33.1632 1.90876 33.602 1.47 34.1432 1.47L36.1032 1.47 36.1032 3.43 35.1232 3.43Z" fill="#FF4F8B" transform="matrix(1 0 0 1.02041 496 406)"/><path d="M38.1122 1.47 42.1204 1.47 42.1204 3.43 38.1122 3.43Z" fill="#FF4F8B" transform="matrix(1 0 0 1.02041 496 406)"/><path d="M276.85 56.35-22.05 56.35-22.05-72.03 133.378-72.03 132.79-141.61 273.91-141.61 276.85 56.35Z" stroke="#CC31FF" stroke-width="2.94" stroke-miterlimit="10" fill="none" transform="matrix(1 0 0 1.02041 496 406)"/></g></svg>