<svg width="49" height="49" xmlns="http://www.w3.org/2000/svg" xmlns:xlink="http://www.w3.org/1999/xlink" xml:space="preserve" overflow="hidden"><defs><clipPath id="clip0"><rect x="496" y="488" width="49" height="49"/></clipPath></defs><g clip-path="url(#clip0)" transform="translate(-496 -488)"><path d="M542.55 526.347 498.45 526.347C497.909 526.347 497.47 525.909 497.47 525.367L497.47 499.642C497.47 499.101 497.909 498.662 498.45 498.662L542.55 498.662C543.091 498.662 543.53 499.101 543.53 499.642L543.53 525.367C543.53 525.909 543.091 526.347 542.55 526.347ZM499.43 524.387 541.57 524.387 541.57 500.622 499.43 500.622Z" fill="#FF4F8B"/><path d="M514.012 502.396 515.972 502.396 515.972 522.614 514.012 522.614Z" fill="#FF4F8B"/><path d="M519.52 502.396 521.48 502.396 521.48 522.614 519.52 522.614Z" fill="#FF4F8B"/><path d="M525.037 502.396 526.997 502.396 526.997 522.614 525.037 522.614Z" fill="#FF4F8B"/><path d="M505.8 517.282C505.658 517.283 505.518 517.253 505.388 517.194 505.041 517.033 504.819 516.685 504.82 516.302L504.82 508.698C504.819 508.156 505.257 507.717 505.798 507.716 506.028 507.716 506.251 507.796 506.427 507.943L510.994 511.745C511.411 512.091 511.469 512.709 511.123 513.125 511.084 513.172 511.041 513.216 510.994 513.255L506.427 517.057C506.251 517.203 506.029 517.283 505.8 517.282ZM506.78 510.795 506.78 514.205 508.828 512.5Z" fill="#FF4F8B"/><path d="M535.2 517.282C534.971 517.283 534.749 517.203 534.573 517.057L530.006 513.255C529.589 512.909 529.531 512.291 529.877 511.875 529.916 511.828 529.959 511.784 530.006 511.745L534.573 507.943C534.989 507.597 535.607 507.653 535.953 508.069 536.1 508.245 536.18 508.468 536.18 508.698L536.18 516.302C536.181 516.685 535.959 517.033 535.612 517.194 535.482 517.253 535.342 517.283 535.2 517.282ZM532.172 512.5 534.22 514.205 534.22 510.795Z" fill="#FF4F8B"/><path d="M635.65 544.35 336.75 544.35 336.75 415.97 492.178 415.97 491.59 346.39 632.71 346.39 635.65 544.35Z" stroke="#CC31FF" stroke-width="2.94" stroke-miterlimit="10" fill="none"/></g></svg>