
<svg xmlns="http://www.w3.org/2000/svg" xmlns:xlink="http://www.w3.org/1999/xlink" width="64" height="64" viewBox="0 0 64 64" version="1.1">
<defs>
<linearGradient id="linear0" gradientUnits="userSpaceOnUse" x1="8.466666" y1="-199.125" x2="8.466666" y2="-213.941666" gradientTransform="matrix(3.779528,0,0,3.779528,-0.281745,812.594562)">
<stop offset="0" style="stop-color:rgb(0%,0%,0%);stop-opacity:0.2;"/>
<stop offset="1" style="stop-color:rgb(100%,100%,100%);stop-opacity:0;"/>
</linearGradient>
</defs>
<g id="surface1">
<path style=" stroke:none;fill-rule:nonzero;fill:rgb(87.843138%,87.843138%,87.843138%);fill-opacity:1;" d="M 6.28125 8.214844 C 22.914062 2.761719 41.085938 2.761719 57.71875 8.214844 C 58.984375 8.628906 60.003906 10.082031 59.957031 11.414062 C 59.257812 30.910156 50.164062 52.285156 34.234375 59.585938 C 33.023438 60.140625 30.976562 60.140625 29.765625 59.585938 C 13.835938 52.285156 4.742188 30.910156 4.042969 11.414062 C 3.996094 10.082031 5.015625 8.628906 6.28125 8.214844 Z M 6.28125 8.214844 "/>
<path style=" stroke:none;fill-rule:nonzero;fill:rgb(100%,100%,100%);fill-opacity:0.6;" d="M 32 4.125 C 23.300781 4.125 14.597656 5.488281 6.28125 8.214844 C 5.015625 8.628906 3.996094 10.082031 4.042969 11.410156 C 4.050781 11.605469 4.058594 11.804688 4.070312 12 C 4.226562 10.804688 5.15625 9.613281 6.28125 9.246094 C 22.914062 3.792969 41.085938 3.792969 57.71875 9.246094 C 58.84375 9.613281 59.773438 10.804688 59.933594 12 C 59.941406 11.804688 59.949219 11.605469 59.957031 11.410156 C 60.003906 10.082031 58.984375 8.628906 57.71875 8.214844 C 49.402344 5.488281 40.699219 4.125 32 4.125 Z M 32 4.125 "/>
<path style=" stroke:none;fill-rule:nonzero;fill:rgb(0.392157%,0.392157%,0.392157%);fill-opacity:0.4;" d="M 4.070312 10.96875 C 4.050781 11.117188 4.039062 11.265625 4.042969 11.410156 C 4.742188 30.910156 13.835938 52.285156 29.765625 59.585938 C 30.980469 60.140625 33.019531 60.140625 34.234375 59.585938 C 50.164062 52.285156 59.257812 30.910156 59.957031 11.410156 C 59.960938 11.265625 59.949219 11.121094 59.933594 10.972656 C 59.078125 30.3125 50.007812 51.339844 34.234375 58.570312 C 33.019531 59.125 30.980469 59.125 29.765625 58.570312 C 13.992188 51.339844 4.921875 30.3125 4.070312 10.96875 Z M 4.070312 10.96875 "/>
<path style=" stroke:none;fill-rule:nonzero;fill:rgb(0%,0%,0%);fill-opacity:0.2;" d="M 4.085938 12.359375 C 4.050781 12.542969 4.035156 12.726562 4.042969 12.910156 C 4.742188 32.40625 13.835938 53.78125 29.765625 61.082031 C 30.980469 61.640625 33.019531 61.640625 34.234375 61.082031 C 50.164062 53.78125 59.257812 32.40625 59.957031 12.910156 C 59.964844 12.726562 59.949219 12.542969 59.917969 12.359375 C 58.964844 31.597656 49.90625 52.402344 34.234375 59.585938 C 33.019531 60.140625 30.980469 60.140625 29.765625 59.585938 C 14.09375 52.402344 5.035156 31.597656 4.085938 12.359375 Z M 4.085938 12.359375 "/>
<path style=" stroke:none;fill-rule:nonzero;fill:rgb(93.725491%,32.549021%,31.37255%);fill-opacity:1;" d="M 32 7.996094 C 24.503906 7.996094 17.011719 9.171875 9.84375 11.519531 C 8.753906 11.878906 7.875 13.125 7.917969 14.273438 C 8.097656 19.320312 8.9375 24.511719 10.386719 29.480469 C 13.761719 41.039062 20.476562 51.375 30.078125 55.773438 C 30.597656 56.011719 31.300781 56.128906 32 56.128906 Z M 32 7.996094 "/>
<path style=" stroke:none;fill-rule:nonzero;fill:rgb(95.686275%,26.274511%,21.176471%);fill-opacity:1;" d="M 32 7.996094 L 32 56.128906 C 32.699219 56.128906 33.402344 56.011719 33.921875 55.773438 C 43.523438 51.375 50.238281 41.039062 53.613281 29.480469 C 55.0625 24.511719 55.902344 19.320312 56.082031 14.273438 C 56.125 13.125 55.246094 11.878906 54.15625 11.519531 C 46.988281 9.171875 39.496094 7.996094 32 7.996094 Z M 32 7.996094 "/>
<path style=" stroke:none;fill-rule:nonzero;fill:rgb(100%,100%,100%);fill-opacity:0.4;" d="M 32 7.996094 L 32 9 C 24.503906 9 17.011719 10.175781 9.84375 12.523438 C 8.894531 12.835938 8.105469 13.824219 7.945312 14.832031 C 7.9375 14.644531 7.925781 14.460938 7.917969 14.273438 C 7.875 13.125 8.753906 11.878906 9.847656 11.519531 C 17.011719 9.171875 24.503906 7.996094 32 7.996094 Z M 32 7.996094 "/>
<path style=" stroke:none;fill-rule:nonzero;fill:rgb(100%,100%,100%);fill-opacity:0.4;" d="M 32 7.996094 C 39.496094 7.996094 46.988281 9.171875 54.15625 11.519531 C 55.246094 11.878906 56.125 13.125 56.082031 14.273438 C 56.074219 14.460938 56.0625 14.644531 56.054688 14.832031 C 55.894531 13.824219 55.105469 12.835938 54.15625 12.523438 C 46.988281 10.175781 39.496094 9 32 9 Z M 32 7.996094 "/>
<path style=" stroke:none;fill-rule:nonzero;fill:rgb(0%,0%,0%);fill-opacity:0.4;" d="M 56.0625 14.753906 C 55.328125 31.421875 47.515625 49.542969 33.921875 55.769531 C 33.402344 56.011719 32.699219 56.128906 32 56.128906 L 32 57 C 32.699219 57 33.402344 56.882812 33.921875 56.640625 C 47.648438 50.351562 55.480469 31.9375 56.082031 15.140625 C 56.085938 15.015625 56.078125 14.886719 56.0625 14.753906 Z M 56.0625 14.753906 "/>
<path style=" stroke:none;fill-rule:nonzero;fill:rgb(0%,0%,0%);fill-opacity:0.4;" d="M 7.9375 14.753906 C 7.921875 14.886719 7.914062 15.015625 7.917969 15.140625 C 8.519531 31.9375 16.351562 50.351562 30.078125 56.640625 C 30.597656 56.882812 31.300781 57 32 57 L 32 56.128906 C 31.300781 56.128906 30.597656 56.011719 30.078125 55.769531 C 16.484375 49.542969 8.671875 31.421875 7.9375 14.753906 Z M 7.9375 14.753906 "/>
<path style=" stroke:none;fill-rule:nonzero;fill:rgb(100%,100%,100%);fill-opacity:0.4;" d="M 13.777344 12.957031 C 13.179688 13.132812 12.589844 13.316406 12 13.511719 C 11.015625 13.832031 10.222656 14.960938 10.261719 16 C 10.320312 17.707031 10.46875 19.433594 10.695312 21.160156 C 11.3125 20.980469 11.976562 20.792969 12.636719 20.621094 C 12.539062 19.609375 12.46875 18.605469 12.433594 17.605469 C 12.398438 16.671875 13.113281 15.65625 14 15.363281 C 14.339844 15.253906 14.683594 15.144531 15.027344 15.042969 Z M 13.777344 12.957031 "/>
<path style=" stroke:none;fill-rule:nonzero;fill:rgb(93.333334%,93.333334%,93.333334%);fill-opacity:1;" d="M 25.769531 18.109375 L 21.230469 39.890625 C 21.175781 40.164062 21.242188 40.445312 21.417969 40.660156 C 21.59375 40.875 21.855469 41 22.132812 41 L 24.867188 41 C 25.527344 41 26.09375 40.535156 26.222656 39.890625 L 27.277344 34.609375 C 27.40625 33.964844 27.972656 33.5 28.632812 33.5 L 35.367188 33.5 C 36.027344 33.5 36.59375 33.964844 36.722656 34.609375 L 37.777344 39.890625 C 37.90625 40.535156 38.472656 41 39.132812 41 L 41.867188 41 C 42.144531 41 42.40625 40.875 42.582031 40.660156 C 42.757812 40.445312 42.824219 40.164062 42.769531 39.890625 L 38.230469 18.109375 C 38.097656 17.460938 37.527344 17 36.867188 17 L 27.132812 17 C 26.472656 17 25.902344 17.460938 25.769531 18.109375 Z M 31.132812 21 L 32.867188 21 C 33.527344 21 34.09375 21.464844 34.222656 22.109375 L 35.378906 27.890625 C 35.433594 28.164062 35.363281 28.445312 35.183594 28.660156 C 35.007812 28.875 34.746094 29 34.46875 29 L 29.53125 29 C 29.253906 29 28.992188 28.875 28.816406 28.660156 C 28.636719 28.445312 28.566406 28.164062 28.621094 27.890625 L 29.777344 22.109375 C 29.90625 21.464844 30.472656 21 31.132812 21 Z M 31.132812 21 "/>
<path style=" stroke:none;fill-rule:nonzero;fill:rgb(100%,100%,100%);fill-opacity:0.6;" d="M 27.132812 17 C 26.472656 17 25.90625 17.460938 25.769531 18.109375 L 21.230469 39.890625 C 21.191406 40.09375 21.21875 40.304688 21.3125 40.488281 L 25.769531 19.109375 C 25.90625 18.460938 26.472656 18 27.132812 18 L 36.867188 18 C 37.527344 18 38.09375 18.460938 38.230469 19.109375 L 42.6875 40.496094 C 42.78125 40.308594 42.8125 40.097656 42.769531 39.890625 L 38.230469 18.109375 C 38.09375 17.460938 37.527344 17 36.867188 17 Z M 28.703125 28.476562 L 28.625 28.890625 C 28.570312 29.164062 28.640625 29.445312 28.816406 29.660156 C 28.992188 29.875 29.253906 30 29.53125 30 L 34.46875 30 C 34.746094 30 35.007812 29.875 35.183594 29.660156 C 35.359375 29.445312 35.429688 29.164062 35.375 28.890625 L 35.296875 28.484375 C 35.140625 28.800781 34.820312 29 34.46875 29 L 29.53125 29 C 29.179688 28.996094 28.859375 28.792969 28.703125 28.476562 Z M 28.703125 28.476562 "/>
<path style=" stroke:none;fill-rule:nonzero;fill:rgb(0%,0%,0%);fill-opacity:0.4;" d="M 31.132812 21 C 30.472656 21 29.90625 21.464844 29.777344 22.109375 L 28.625 27.890625 C 28.585938 28.089844 28.613281 28.296875 28.703125 28.476562 L 29.777344 23.109375 C 29.90625 22.464844 30.472656 22 31.132812 22 L 32.867188 22 C 33.527344 22 34.09375 22.464844 34.222656 23.109375 L 35.296875 28.484375 C 35.390625 28.300781 35.417969 28.09375 35.375 27.890625 L 34.222656 22.109375 C 34.09375 21.464844 33.527344 21 32.867188 21 Z M 28.632812 33.5 C 27.972656 33.5 27.40625 33.964844 27.277344 34.609375 L 26.222656 39.890625 C 26.09375 40.535156 25.527344 41 24.867188 41 L 22.132812 41 C 21.785156 40.996094 21.46875 40.800781 21.3125 40.488281 L 21.230469 40.890625 C 21.175781 41.164062 21.242188 41.445312 21.417969 41.660156 C 21.59375 41.875 21.855469 42 22.132812 42 L 24.867188 42 C 25.527344 42 26.09375 41.535156 26.222656 40.890625 L 27.277344 35.609375 C 27.40625 34.964844 27.972656 34.5 28.632812 34.5 L 35.367188 34.5 C 36.027344 34.5 36.59375 34.964844 36.722656 35.609375 L 37.777344 40.890625 C 37.90625 41.535156 38.472656 42 39.132812 42 L 41.867188 42 C 42.144531 42 42.40625 41.875 42.582031 41.660156 C 42.757812 41.445312 42.824219 41.164062 42.769531 40.890625 L 42.6875 40.496094 C 42.53125 40.804688 42.214844 41 41.867188 41 L 39.132812 41 C 38.472656 41 37.90625 40.535156 37.777344 39.890625 L 36.722656 34.609375 C 36.59375 33.964844 36.027344 33.5 35.367188 33.5 Z M 28.632812 33.5 "/>
<path style=" stroke:none;fill-rule:nonzero;fill:url(#linear0);" d="M 6 8.210938 C 22.632812 2.757812 40.804688 2.757812 57.4375 8.210938 C 58.703125 8.625 59.722656 10.078125 59.675781 11.410156 C 58.976562 30.90625 49.882812 52.28125 33.949219 59.582031 C 32.738281 60.136719 30.695312 60.136719 29.484375 59.582031 C 13.554688 52.28125 4.460938 30.90625 3.761719 11.410156 C 3.714844 10.078125 4.734375 8.625 6 8.210938 Z M 6 8.210938 "/>
</g>
</svg>
