
<svg xmlns="http://www.w3.org/2000/svg" xmlns:xlink="http://www.w3.org/1999/xlink" width="64" height="64" viewBox="0 0 64 64" version="1.1">
<defs>
<linearGradient id="linear0" gradientUnits="userSpaceOnUse" x1="8.466666" y1="-199.125" x2="8.466666" y2="-213.941666" gradientTransform="matrix(3.779528,0,0,3.779528,0,812.598468)">
<stop offset="0" style="stop-color:rgb(0%,0%,0%);stop-opacity:0.2;"/>
<stop offset="1" style="stop-color:rgb(100%,100%,100%);stop-opacity:0;"/>
</linearGradient>
</defs>
<g id="surface1">
<path style=" stroke:none;fill-rule:evenodd;fill:rgb(25.882354%,64.705884%,96.078432%);fill-opacity:1;" d="M 32 4.019531 C 29.535156 10.058594 28.050781 14.011719 25.308594 19.871094 C 26.988281 21.652344 28.820312 23.738281 32 25.648438 C 28.820312 24.375 26.34375 23.101562 24.503906 21.554688 C 20.996094 28.878906 15.171875 39.949219 4.007812 60 C 12.78125 54.9375 19.214844 51.179688 25.550781 49.988281 C 24.175781 44.882812 26.273438 35.828125 32 35.828125 C 37.726562 35.828125 39.773438 44.515625 38.582031 50.027344 C 44.851562 51.253906 51.335938 55.003906 59.992188 60 C 58.285156 56.859375 56.449219 53.390625 54.996094 50.695312 C 52.703125 48.917969 50.449219 46.640625 45.996094 44.730469 C 49.175781 45.367188 51.1875 45.980469 53.058594 47.105469 C 38.269531 19.578125 37.074219 15.917969 32 4.019531 Z M 32 4.019531 "/>
<path style=" stroke:none;fill-rule:evenodd;fill:rgb(100%,100%,100%);fill-opacity:0.4;" d="M 32 4.019531 C 29.535156 10.058594 28.050781 14.011719 25.308594 19.871094 C 25.402344 19.972656 25.511719 20.085938 25.609375 20.191406 C 28.15625 14.695312 29.632812 10.804688 32 5 C 36.984375 16.683594 38.257812 20.476562 52.3125 46.6875 C 52.5625 46.820312 52.8125 46.957031 53.058594 47.105469 C 38.269531 19.574219 37.074219 15.917969 32 4.019531 Z M 24.503906 21.554688 C 20.996094 28.878906 15.171875 39.949219 4.007812 60 C 4.285156 59.839844 4.539062 59.695312 4.808594 59.539062 C 15.425781 40.4375 21.085938 29.671875 24.503906 22.535156 C 26.34375 24.078125 28.820312 25.355469 32 26.625 C 30.648438 25.816406 29.542969 24.972656 28.585938 24.136719 C 26.980469 23.335938 25.625 22.496094 24.503906 21.554688 Z M 45.996094 45.714844 C 50.449219 47.621094 52.703125 49.898438 54.996094 51.671875 C 56.234375 53.972656 57.746094 56.820312 59.222656 59.558594 C 59.484375 59.707031 59.726562 59.847656 59.988281 60 C 58.285156 56.859375 56.449219 53.390625 54.996094 50.695312 C 53.40625 49.464844 51.832031 47.992188 49.53125 46.566406 C 48.511719 46.257812 47.367188 45.988281 45.996094 45.714844 Z M 25.15625 47.074219 C 25.121094 48.105469 25.183594 49.109375 25.34375 50.027344 C 25.414062 50.015625 25.484375 50 25.550781 49.984375 C 25.316406 49.109375 25.183594 48.117188 25.15625 47.074219 Z M 38.898438 47.285156 C 38.871094 48.246094 38.765625 49.175781 38.582031 50.03125 C 38.636719 50.039062 38.691406 50.054688 38.75 50.0625 C 38.875 49.183594 38.921875 48.242188 38.898438 47.285156 Z M 38.898438 47.285156 "/>
<path style=" stroke:none;fill-rule:evenodd;fill:rgb(0%,0%,0%);fill-opacity:0.4;" d="M 25.617188 19.199219 C 25.511719 19.425781 25.414062 19.636719 25.308594 19.871094 C 26.261719 20.878906 27.261719 21.988281 28.53125 23.105469 C 29.578125 23.632812 30.730469 24.140625 32 24.648438 C 29.007812 22.851562 27.21875 20.90625 25.617188 19.199219 Z M 32 34.828125 C 27.253906 34.828125 25.003906 41.046875 25.15625 46.082031 C 25.308594 41.261719 27.566406 35.828125 32 35.828125 C 36.539062 35.828125 38.761719 41.28125 38.898438 46.292969 C 39.050781 41.039062 36.84375 34.828125 32 34.828125 Z M 45.996094 43.734375 C 47.390625 44.332031 48.570312 44.964844 49.605469 45.609375 C 50.917969 46.011719 52.015625 46.476562 53.058594 47.105469 C 52.789062 46.601562 52.558594 46.164062 52.296875 45.679688 C 50.628906 44.816406 48.75 44.285156 45.996094 43.734375 Z M 25.34375 49.03125 C 19.273438 50.222656 13.078125 53.765625 4.824219 58.53125 C 4.542969 59.035156 4.296875 59.480469 4.007812 60 C 12.78125 54.9375 19.214844 51.175781 25.550781 49.984375 C 25.46875 49.679688 25.398438 49.359375 25.34375 49.03125 Z M 38.75 49.0625 C 38.707031 49.394531 38.648438 49.71875 38.582031 50.03125 C 44.851562 51.253906 51.335938 55.003906 59.988281 60 C 59.730469 59.523438 59.46875 59.035156 59.207031 58.546875 C 51.027344 53.828125 44.773438 50.285156 38.75 49.0625 Z M 38.75 49.0625 "/>
<path style=" stroke:none;fill-rule:evenodd;fill:rgb(0%,0%,0%);fill-opacity:0.2;" d="M 25.769531 20.359375 C 25.617188 20.699219 25.46875 21.019531 25.308594 21.371094 C 25.933594 22.03125 26.578125 22.738281 27.308594 23.460938 C 28.65625 24.222656 30.21875 24.9375 32 25.648438 C 29.101562 23.910156 27.335938 22.03125 25.769531 20.359375 Z M 32 35.828125 C 27.164062 35.828125 24.914062 42.285156 25.160156 47.371094 C 25.375 42.601562 27.628906 37.328125 32 37.328125 C 36.449219 37.328125 38.675781 42.570312 38.890625 47.496094 C 39.109375 42.199219 36.90625 35.828125 32 35.828125 Z M 45.996094 44.734375 C 48.144531 45.652344 49.777344 46.660156 51.152344 47.65625 C 51.824219 47.929688 52.449219 48.238281 53.058594 48.605469 C 52.660156 47.863281 52.308594 47.203125 51.933594 46.5 C 50.351562 45.742188 48.550781 45.242188 45.996094 44.734375 Z M 25.265625 50.042969 C 19.324219 51.230469 13.246094 54.671875 5.234375 59.296875 C 4.816406 60.046875 4.441406 60.722656 4.007812 61.5 C 12.78125 56.4375 19.214844 52.675781 25.550781 51.484375 C 25.429688 51.035156 25.335938 50.550781 25.265625 50.042969 Z M 38.8125 50.078125 C 38.757812 50.578125 38.683594 51.066406 38.582031 51.53125 C 44.851562 52.753906 51.335938 56.503906 59.988281 61.5 C 59.605469 60.789062 59.210938 60.058594 58.816406 59.324219 C 50.855469 54.734375 44.714844 51.289062 38.8125 50.078125 Z M 38.8125 50.078125 "/>
<path style=" stroke:none;fill-rule:evenodd;fill:url(#linear0);" d="M 32 4.019531 C 29.535156 10.058594 28.050781 14.011719 25.308594 19.871094 C 26.988281 21.652344 28.820312 23.738281 32 25.648438 C 28.820312 24.375 26.34375 23.101562 24.503906 21.554688 C 20.996094 28.878906 15.171875 39.949219 4.007812 60 C 12.78125 54.9375 19.214844 51.179688 25.550781 49.988281 C 24.175781 44.882812 26.273438 35.828125 32 35.828125 C 37.726562 35.828125 39.773438 44.515625 38.582031 50.027344 C 44.851562 51.253906 51.335938 55.003906 59.992188 60 C 58.285156 56.859375 56.449219 53.390625 54.996094 50.695312 C 52.703125 48.917969 50.449219 46.640625 45.996094 44.730469 C 49.175781 45.367188 51.1875 45.980469 53.058594 47.105469 C 38.269531 19.578125 37.074219 15.917969 32 4.019531 Z M 32 4.019531 "/>
</g>
</svg>
