<?xml version="1.0" encoding="utf-8"?>
<!DOCTYPE svg PUBLIC "-//W3C//DTD SVG 1.1//EN" "http://www.w3.org/Graphics/SVG/1.1/DTD/svg11.dtd">
<svg version="1.1" id="Ebene_1" xmlns="http://www.w3.org/2000/svg" xmlns:xlink="http://www.w3.org/1999/xlink" x="0px" y="0px"
	 width="450px" height="450px" viewBox="0 0 450 450" enable-background="new 0 0 450 450" xml:space="preserve">
<g id="circle">
	<path id="lower_part_in_brighter_blue" fill="#6AD0FF" d="M225,435.305c-44.197,0-86.488-13.557-122.301-39.204
		c-35.045-25.099-61.226-59.719-75.71-100.116l-0.945-2.637h397.912l-0.945,2.637c-14.485,40.397-40.664,75.018-75.711,100.116
		C311.487,421.748,269.197,435.305,225,435.305L225,435.305z"/>
	<path id="upper_part_in_darker_blue" fill="#00A4EF" d="M20.926,275.978l-0.364-1.51c-3.893-16.145-5.867-32.788-5.867-49.468
		c0-56.175,21.875-108.987,61.597-148.708C116.013,36.57,168.825,14.695,225,14.695S333.987,36.57,373.708,76.292
		c39.722,39.722,61.598,92.534,61.598,148.708c0,16.677-1.974,33.32-5.867,49.468l-0.364,1.51H20.926z"/>
	<path id="white_contour" fill="#FFFFFF" d="M225,0C100.735,0,0,100.735,0,225c0,16.833,1.863,33.229,5.368,49.006
		c1.609,7.242,3.567,14.353,5.855,21.313C40.752,385.142,125.295,450,225,450c99.705,0,184.248-64.858,213.776-154.681
		c2.289-6.961,4.247-14.071,5.855-21.313C448.137,258.229,450,241.833,450,225C450,100.735,349.264,0,225,0z M225,433.334
		c-90.381,0-167.308-57.559-196.154-138.015h392.309C392.308,375.775,315.381,433.334,225,433.334z M22.479,274.006
		c-3.79-15.718-5.812-32.124-5.812-49.006C16.667,109.94,109.94,16.667,225,16.667S433.334,109.94,433.334,225
		c0,16.882-2.023,33.288-5.813,49.006H22.479z"/>
</g>
<g id="CBL_-_Mariner">
	<path fill="#FFFFFF" d="M98.414,261.141c-1.773,0.915-5.489,1.829-10.178,1.829c-10.863,0-18.982-6.861-18.982-19.554
		c0-12.121,8.176-20.24,20.125-20.24c4.746,0,7.833,1.029,9.148,1.716l-1.258,4.06c-1.83-0.915-4.517-1.602-7.719-1.602
		c-9.033,0-15.037,5.774-15.037,15.896c0,9.49,5.431,15.493,14.751,15.493c3.087,0,6.174-0.628,8.175-1.601L98.414,261.141z"/>
	<path fill="#FFFFFF" d="M104.703,224.377c2.173-0.515,5.661-0.857,9.091-0.857c4.974,0,8.176,0.857,10.52,2.802
		c2.001,1.486,3.259,3.773,3.259,6.803c0,3.774-2.516,7.032-6.518,8.462v0.172c3.659,0.857,7.947,3.888,7.947,9.605
		c0,3.316-1.315,5.889-3.316,7.719c-2.63,2.459-6.975,3.602-13.264,3.602c-3.431,0-6.061-0.228-7.719-0.457V224.377z
		 M109.677,240.156h4.517c5.203,0,8.291-2.801,8.291-6.517c0-4.461-3.374-6.29-8.404-6.29c-2.288,0-3.603,0.172-4.403,0.343V240.156
		z M109.677,258.567c1.029,0.171,2.402,0.229,4.174,0.229c5.146,0,9.892-1.888,9.892-7.49c0-5.203-4.517-7.433-9.949-7.433h-4.117
		V258.567z"/>
	<path fill="#FFFFFF" d="M135.635,223.806h5.031v34.361h16.467v4.174h-21.498V223.806z"/>
	<path fill="#FFFFFF" d="M186.292,245.074v3.659h-14.123v-3.659H186.292z"/>
	<path fill="#FFFFFF" d="M235.69,245.417c-0.285-5.374-0.628-11.893-0.628-16.638h-0.115c-1.372,4.46-2.916,9.319-4.859,14.637
		l-6.804,18.696h-3.773l-6.29-18.354c-1.83-5.488-3.316-10.405-4.402-14.979h-0.114c-0.114,4.803-0.4,11.206-0.743,17.038
		l-1.029,16.523h-4.746l2.688-38.535h6.346l6.575,18.639c1.601,4.745,2.859,8.976,3.888,12.979h0.114
		c1.029-3.888,2.402-8.119,4.116-12.979l6.861-18.639h6.348l2.4,38.535h-4.917L235.69,245.417z"/>
	<path fill="#FFFFFF" d="M266.794,255.709c0,2.401,0.114,4.745,0.4,6.632h-4.518l-0.4-3.487h-0.171
		c-1.543,2.173-4.518,4.116-8.462,4.116c-5.604,0-8.462-3.945-8.462-7.947c0-6.689,5.946-10.349,16.638-10.291v-0.572
		c0-2.229-0.629-6.403-6.289-6.347c-2.63,0-5.317,0.743-7.261,2.059l-1.144-3.374c2.287-1.428,5.66-2.4,9.147-2.4
		c8.462,0,10.521,5.774,10.521,11.264V255.709z M261.934,248.22c-5.488-0.115-11.721,0.856-11.721,6.231
		c0,3.316,2.173,4.803,4.688,4.803c3.659,0,6.004-2.287,6.805-4.632c0.171-0.571,0.228-1.144,0.228-1.601V248.22z"/>
	<path fill="#FFFFFF" d="M274.113,243.302c0-3.259-0.058-6.061-0.229-8.634h4.402l0.229,5.488h0.171
		c1.258-3.716,4.345-6.06,7.719-6.06c0.515,0,0.915,0.057,1.372,0.114v4.745c-0.515-0.114-1.029-0.114-1.716-0.114
		c-3.544,0-6.06,2.63-6.746,6.403c-0.114,0.687-0.172,1.545-0.172,2.345v14.751h-5.03V243.302z"/>
	<path fill="#FFFFFF" d="M298.069,226.893c0,1.716-1.2,3.088-3.201,3.088c-1.83,0-3.031-1.372-3.031-3.088s1.259-3.146,3.146-3.146
		C296.812,223.747,298.069,225.12,298.069,226.893z M292.467,262.341v-27.673h5.031v27.673H292.467z"/>
	<path fill="#FFFFFF" d="M305.273,242.158c0-2.916-0.058-5.202-0.229-7.49h4.46l0.286,4.574h0.114
		c1.373-2.572,4.573-5.146,9.148-5.146c3.83,0,9.776,2.287,9.776,11.777v16.467h-5.031V246.39c0-4.46-1.658-8.177-6.404-8.177
		c-3.259,0-5.832,2.345-6.746,5.146c-0.229,0.63-0.343,1.486-0.343,2.345v16.638h-5.031V242.158z"/>
	<path fill="#FFFFFF" d="M339.235,249.42c0.114,6.804,4.402,9.604,9.491,9.604c3.602,0,5.831-0.629,7.661-1.429l0.915,3.602
		c-1.772,0.801-4.86,1.772-9.263,1.772c-8.519,0-13.607-5.66-13.607-14.007c0-8.348,4.917-14.866,12.979-14.866
		c9.091,0,11.435,7.89,11.435,12.979c0,1.029-0.058,1.772-0.172,2.345H339.235z M353.986,245.817
		c0.058-3.145-1.315-8.118-6.975-8.118c-5.146,0-7.318,4.63-7.72,8.118H353.986z"/>
	<path fill="#FFFFFF" d="M364.508,243.302c0-3.259-0.059-6.061-0.229-8.634h4.402l0.229,5.488h0.171
		c1.258-3.716,4.345-6.06,7.718-6.06c0.516,0,0.916,0.057,1.373,0.114v4.745c-0.515-0.114-1.029-0.114-1.716-0.114
		c-3.544,0-6.06,2.63-6.746,6.403c-0.114,0.687-0.172,1.545-0.172,2.345v14.751h-5.03V243.302z"/>
</g>
</svg>
