<svg id="Layer_1" data-name="Layer 1" xmlns="http://www.w3.org/2000/svg" viewBox="0 0 637.78 494"><defs><style>.cls-1{fill:#0089d6;}</style></defs><title>Microsoft Azure Logo Vector</title><path class="cls-1" d="M476.15,720.59,626.57,694l1.39-.32-77.34-92q-38.89-46-77.35-92.45c0-.45,79.87-220.41,80.33-221.19.13-.26,54.5,93.58,131.75,227.48L817.88,745.25l1,1.75L573,747l-245.85,0,149-26.32Zm-295-28c0-.13,36.46-63.41,81-140.63l81-140.41,94.39-79.22c51.92-43.56,94.53-79.27,94.72-79.33a16.38,16.38,0,0,1-1.52,3.82L428.19,476.69,327.51,692.59l-73.2.1c-40.24.07-73.2,0-73.2-.13Z" transform="translate(-181.11 -253)"/></svg>