
<svg xmlns="http://www.w3.org/2000/svg" xmlns:xlink="http://www.w3.org/1999/xlink" width="64" height="64" viewBox="0 0 64 64" version="1.1">
<defs>
<linearGradient id="linear0" gradientUnits="userSpaceOnUse" x1="31.999998" y1="57.999996" x2="31.999998" y2="8" gradientTransform="matrix(1,0,0,1,-0.000000680315,0)">
<stop offset="0" style="stop-color:rgb(0%,0%,0%);stop-opacity:0.2;"/>
<stop offset="1" style="stop-color:rgb(100%,100%,100%);stop-opacity:0;"/>
</linearGradient>
</defs>
<g id="surface1">
<path style=" stroke:none;fill-rule:nonzero;fill:rgb(36.078432%,41.960785%,75.294119%);fill-opacity:1;" d="M 8 8 L 56 8 C 58.210938 8 60 9.789062 60 12 L 60 52 C 60 54.210938 58.210938 56 56 56 L 8 56 C 5.789062 56 4 54.210938 4 52 L 4 12 C 4 9.789062 5.789062 8 8 8 Z M 8 8 "/>
<path style=" stroke:none;fill-rule:nonzero;fill:rgb(25.882354%,64.705884%,96.078432%);fill-opacity:1;" d="M 4.523438 10.019531 L 32 32 L 5.40625 55.046875 C 4.546875 54.3125 4 53.222656 4 52 L 4 12 C 4 11.277344 4.191406 10.601562 4.523438 10.019531 Z M 4.523438 10.019531 "/>
<path style=" stroke:none;fill-rule:nonzero;fill:rgb(47.058824%,56.470591%,61.176473%);fill-opacity:1;" d="M 32 32 L 5.261719 54.914062 C 5.976562 55.585938 6.9375 56 8 56 L 56 56 C 57.0625 56 58.023438 55.585938 58.738281 54.914062 Z M 32 32 "/>
<path style=" stroke:none;fill-rule:nonzero;fill:rgb(92.54902%,25.098041%,47.843137%);fill-opacity:1;" d="M 59.476562 10.019531 L 32 32 L 58.589844 55.046875 C 59.453125 54.3125 60 53.222656 60 52 L 60 12 C 60 11.277344 59.808594 10.601562 59.476562 10.019531 Z M 59.476562 10.019531 "/>
<path style=" stroke:none;fill-rule:nonzero;fill:rgb(0.392157%,0.392157%,0.392157%);fill-opacity:0.4;" d="M 4 51 L 4 52 C 4 54.214844 5.785156 56 8 56 L 56 56 C 58.214844 56 60 54.214844 60 52 L 60 51 C 60 53.214844 58.214844 55 56 55 L 8 55 C 5.785156 55 4 53.214844 4 51 Z M 4 51 "/>
<path style=" stroke:none;fill-rule:nonzero;fill:rgb(87.843138%,87.843138%,87.843138%);fill-opacity:1;" d="M 10 48 L 54 48 C 55.105469 48 56 48.894531 56 50 L 56 56 C 56 57.105469 55.105469 58 54 58 L 10 58 C 8.894531 58 8 57.105469 8 56 L 8 50 C 8 48.894531 8.894531 48 10 48 Z M 10 48 "/>
<path style=" stroke:none;fill-rule:nonzero;fill:rgb(87.843138%,87.843138%,87.843138%);fill-opacity:1;" d="M 8 8 C 5.785156 8 4 9.785156 4 12 L 60 12 C 60 9.785156 58.214844 8 56 8 Z M 8 8 "/>
<path style=" stroke:none;fill-rule:nonzero;fill:rgb(0%,0%,0%);fill-opacity:0.4;" d="M 4 12 L 4 13 L 60 13 L 60 12 Z M 8 55 L 8 56 C 8 57.109375 8.890625 58 10 58 L 54 58 C 55.109375 58 56 57.109375 56 56 L 56 55 C 56 56.109375 55.109375 57 54 57 L 10 57 C 8.890625 57 8 56.109375 8 55 Z M 8 55 "/>
<path style=" stroke:none;fill-rule:nonzero;fill:rgb(100%,100%,100%);fill-opacity:0.8;" d="M 8 8 C 5.785156 8 4 9.785156 4 12 L 4.125 12 C 4.554688 10.257812 6.121094 8.972656 8 8.972656 L 56 8.972656 C 57.878906 8.972656 59.445312 10.257812 59.875 12 L 60 12 C 60 9.785156 58.214844 8 56 8 Z M 10 48 C 8.890625 48 8 48.890625 8 50 L 8 50.972656 C 8 49.863281 8.890625 48.972656 10 48.972656 L 54 48.972656 C 55.109375 48.972656 56 49.863281 56 50.972656 L 56 50 C 56 48.890625 55.109375 48 54 48 Z M 10 48 "/>
<path style=" stroke:none;fill-rule:nonzero;fill:rgb(0%,0%,0%);fill-opacity:0.2;" d="M 4 52 L 4 53.5 C 4 55.71875 5.785156 57.5 8 57.5 C 8 58.609375 8.890625 59.5 10 59.5 L 54 59.5 C 55.109375 59.5 56 58.609375 56 57.5 C 58.214844 57.5 60 55.71875 60 53.5 L 60 52 C 60 54.214844 58.214844 56 56 56 C 56 57.109375 55.109375 58 54 58 L 10 58 C 8.890625 58 8 57.109375 8 56 C 5.785156 56 4 54.214844 4 52 Z M 4 52 "/>
<path style=" stroke:none;fill-rule:nonzero;fill:rgb(93.333334%,93.333334%,93.333334%);fill-opacity:0.996078;" d="M 10 32 L 28 32 C 29.105469 32 30 32.894531 30 34 L 30 44 C 30 45.105469 29.105469 46 28 46 L 10 46 C 8.894531 46 8 45.105469 8 44 L 8 34 C 8 32.894531 8.894531 32 10 32 Z M 10 32 "/>
<path style=" stroke:none;fill-rule:nonzero;fill:rgb(100%,100%,100%);fill-opacity:0.8;" d="M 10 32 C 8.890625 32 8 32.890625 8 34 L 8 35 C 8 33.890625 8.890625 33 10 33 L 28 33 C 29.109375 33 30 33.890625 30 35 L 30 34 C 30 32.890625 29.109375 32 28 32 Z M 10 32 "/>
<path style=" stroke:none;fill-rule:nonzero;fill:rgb(0%,0%,0%);fill-opacity:0.4;" d="M 10 47 C 8.890625 47 8 46.109375 8 45 L 8 44 C 8 45.109375 8.890625 46 10 46 L 28 46 C 29.109375 46 30 45.109375 30 44 L 30 45 C 30 46.109375 29.109375 47 28 47 Z M 10 47 "/>
<path style=" stroke:none;fill-rule:nonzero;fill:url(#linear0);" d="M 8 8 C 5.785156 8 4 9.785156 4 12 L 4 52 C 4 54.214844 5.785156 56 8 56 C 8 57.109375 8.890625 58 10 58 L 54 58 C 55.109375 58 56 57.109375 56 56 C 58.214844 56 60 54.214844 60 52 L 60 12 C 60 9.785156 58.214844 8 56 8 Z M 8 8 "/>
</g>
</svg>
