
<svg xmlns="http://www.w3.org/2000/svg" xmlns:xlink="http://www.w3.org/1999/xlink" width="64" height="64" viewBox="0 0 64 64" version="1.1">
<defs>
<linearGradient id="linear0" gradientUnits="userSpaceOnUse" x1="8.466666" y1="-199.125" x2="8.466666" y2="-213.941666" gradientTransform="matrix(3.779528,0,0,3.779528,0,812.598468)">
<stop offset="0" style="stop-color:rgb(0%,0%,0%);stop-opacity:0.2;"/>
<stop offset="1" style="stop-color:rgb(100%,100%,100%);stop-opacity:0;"/>
</linearGradient>
</defs>
<g id="surface1">
<path style=" stroke:none;fill-rule:nonzero;fill:rgb(92.54902%,25.098041%,47.843137%);fill-opacity:1;" d="M 32 4 C 47.464844 4 60 16.535156 60 32 C 60 47.464844 47.464844 60 32 60 C 16.535156 60 4 47.464844 4 32 C 4 16.535156 16.535156 4 32 4 Z M 32 4 "/>
<path style=" stroke:none;fill-rule:nonzero;fill:rgb(87.843138%,87.843138%,87.843138%);fill-opacity:1;" d="M 14.394531 24.753906 C 14.628906 24.023438 14.671875 23.582031 14.761719 23.15625 C 14.113281 24 14.464844 24.183594 14.394531 24.757812 M 15.59375 19.667969 C 15.710938 20.765625 14.78125 21.191406 15.796875 20.464844 C 16.34375 19.214844 15.585938 20.121094 15.59375 19.667969 M 33.367188 10.042969 C 33.871094 9.855469 34.609375 9.941406 35.148438 9.816406 C 34.449219 9.875 33.75 9.910156 33.0625 10 L 33.367188 10.042969 M 49.632812 30.570312 L 49.523438 30.851562 C 49.324219 32.308594 48.886719 33.75 48.21875 35.089844 C 48.957031 33.679688 49.433594 32.132812 49.632812 30.570312 M 29.046875 35.125 C 28.785156 34.832031 28.636719 34.480469 28.460938 34.125 C 28.625 34.746094 28.964844 35.277344 29.28125 35.816406 L 29.046875 35.128906 M 27.886719 35.167969 L 27.78125 35.703125 C 28.273438 36.382812 28.664062 37.121094 29.292969 37.652344 C 28.839844 36.753906 28.503906 36.382812 27.886719 35.167969 M 34.015625 10.632812 L 33.734375 10.691406 L 33.996094 10.660156 L 34.019531 10.625 M 33.222656 10.402344 C 33.621094 10.472656 34.085938 10.53125 34.019531 10.628906 C 34.457031 10.527344 34.558594 10.441406 33.222656 10.402344 M 41.5625 29.167969 C 41.652344 27.792969 41.296875 28.230469 41.175781 28.75 C 41.316406 28.828125 41.425781 29.71875 41.5625 29.167969 M 40.078125 33.097656 C 40.527344 32.472656 40.851562 31.785156 40.964844 31.074219 C 40.867188 31.582031 40.597656 32.015625 40.34375 32.480469 C 38.941406 33.375 40.210938 31.945312 40.339844 31.402344 C 38.835938 33.332031 40.132812 32.558594 40.078125 33.097656 M 36.0625 34.117188 C 35.3125 34.125 36.203125 34.507812 37.179688 34.664062 C 37.449219 34.445312 37.695312 34.230469 37.914062 34.019531 C 37.304688 34.171875 36.6875 34.175781 36.0625 34.117188 M 14.402344 24.75 C 14.636719 24.015625 14.679688 23.574219 14.769531 23.148438 C 14.121094 23.992188 14.46875 24.175781 14.402344 24.75 M 15.597656 19.660156 C 15.714844 20.757812 14.785156 21.183594 15.804688 20.460938 C 16.347656 19.207031 15.589844 20.113281 15.597656 19.660156 M 33.371094 10.035156 C 33.875 9.847656 34.613281 9.929688 35.152344 9.804688 C 34.453125 9.867188 33.753906 9.902344 33.066406 9.992188 L 33.371094 10.03125 M 49.640625 30.5625 L 49.527344 30.84375 C 49.328125 32.300781 48.890625 33.742188 48.222656 35.082031 C 48.960938 33.671875 49.4375 32.125 49.636719 30.5625 M 29.050781 35.117188 C 28.792969 34.824219 28.636719 34.46875 28.464844 34.121094 C 28.628906 34.738281 28.96875 35.269531 29.285156 35.808594 L 29.050781 35.117188 M 27.890625 35.160156 L 27.785156 35.695312 C 28.277344 36.375 28.667969 37.113281 29.292969 37.644531 C 28.84375 36.746094 28.507812 36.375 27.890625 35.160156 M 34.019531 10.621094 L 33.738281 10.679688 L 34 10.652344 L 34.023438 10.617188 M 45.1875 29.726562 C 45.230469 30.882812 44.863281 31.441406 44.535156 32.433594 L 43.941406 32.738281 C 43.457031 33.71875 43.988281 33.359375 43.640625 34.140625 C 42.882812 34.839844 41.34375 36.332031 40.851562 36.46875 C 40.492188 36.460938 41.097656 36.023438 41.175781 35.855469 C 40.160156 36.578125 40.363281 36.941406 38.8125 37.382812 L 38.765625 37.277344 C 34.945312 39.148438 29.636719 35.441406 29.707031 30.382812 C 29.664062 30.703125 29.589844 30.625 29.503906 30.753906 C 29.308594 28.152344 30.660156 25.539062 32.941406 24.472656 C 35.171875 23.324219 37.789062 23.792969 39.386719 25.34375 C 38.507812 24.148438 36.761719 22.878906 34.691406 22.996094 C 32.664062 23.03125 30.765625 24.371094 30.132812 25.828125 C 29.09375 26.507812 28.972656 28.449219 28.519531 28.808594 C 27.910156 33.464844 29.664062 35.476562 32.632812 37.84375 C 33.101562 38.171875 32.765625 38.21875 32.828125 38.46875 C 31.839844 37.988281 30.9375 37.265625 30.195312 36.375 C 30.589844 36.976562 31.015625 37.558594 31.566406 38.015625 C 30.632812 37.691406 29.390625 35.671875 29.03125 35.589844 C 30.632812 38.578125 35.535156 40.828125 38.101562 39.710938 C 36.914062 39.753906 35.40625 39.742188 34.070312 39.222656 C 33.507812 38.921875 32.746094 38.300781 32.882812 38.1875 C 36.386719 39.546875 40.003906 39.214844 43.035156 36.6875 C 43.808594 36.0625 44.648438 35 44.894531 34.988281 C 44.527344 35.5625 44.957031 35.261719 44.675781 35.769531 C 45.441406 34.480469 44.339844 35.246094 45.46875 33.542969 L 45.886719 34.140625 C 45.730469 33.070312 47.164062 31.769531 47.015625 30.078125 C 47.347656 29.5625 47.382812 30.636719 47.035156 31.824219 C 47.515625 30.503906 47.160156 30.292969 47.285156 29.203125 C 47.417969 29.570312 47.597656 29.957031 47.6875 30.34375 C 47.371094 29.070312 48.007812 28.195312 48.167969 27.453125 C 48.011719 27.382812 47.679688 28.019531 47.605469 26.511719 C 47.617188 25.855469 47.78125 26.167969 47.84375 26.007812 C 47.722656 25.933594 47.394531 25.429688 47.199219 24.46875 C 47.339844 24.242188 47.582031 25.054688 47.777344 25.085938 C 47.648438 24.324219 47.433594 23.738281 47.425781 23.152344 C 46.855469 21.914062 47.226562 23.316406 46.765625 22.621094 C 46.160156 20.65625 47.265625 22.164062 47.339844 21.273438 C 48.257812 22.65625 48.78125 24.796875 49.023438 25.683594 C 48.839844 24.601562 48.542969 23.554688 48.179688 22.539062 C 48.460938 22.664062 47.730469 20.316406 48.542969 21.871094 C 47.671875 18.554688 44.832031 15.460938 42.222656 14.007812 C 42.539062 14.3125 42.945312 14.691406 42.800781 14.753906 C 41.5 13.949219 41.726562 13.886719 41.542969 13.546875 C 40.484375 13.097656 40.414062 13.582031 39.710938 13.546875 C 37.71875 12.445312 37.332031 12.5625 35.496094 11.871094 L 35.582031 12.277344 C 34.257812 11.820312 34.039062 12.453125 32.613281 12.28125 C 32.527344 12.210938 33.070312 12.023438 33.519531 11.957031 C 32.242188 12.132812 32.300781 11.695312 31.050781 12.003906 C 31.359375 11.78125 31.683594 11.632812 32.011719 11.441406 C 30.972656 11.503906 29.523438 12.070312 29.96875 11.554688 C 28.269531 12.347656 25.25 13.453125 23.558594 15.105469 L 23.503906 14.734375 C 22.726562 15.703125 20.117188 17.628906 19.910156 18.886719 L 19.703125 18.933594 C 19.300781 19.648438 19.039062 20.453125 18.71875 21.183594 C 18.1875 22.121094 17.941406 21.546875 18.019531 21.691406 C 16.980469 23.882812 16.460938 25.726562 16.015625 27.234375 C 16.332031 27.730469 16.023438 30.210938 16.144531 32.195312 C 15.621094 42 22.757812 51.515625 30.558594 53.710938 C 31.703125 54.140625 33.402344 54.121094 34.847656 54.164062 C 33.140625 53.65625 32.921875 53.898438 31.257812 53.292969 C 30.0625 52.707031 29.796875 52.035156 28.949219 51.269531 L 29.285156 51.886719 C 27.621094 51.273438 28.316406 51.128906 26.960938 50.683594 L 27.320312 50.195312 C 26.78125 50.152344 25.894531 49.25 25.648438 48.746094 L 25.058594 48.777344 C 24.347656 47.867188 23.96875 47.210938 24 46.703125 L 23.808594 47.054688 C 23.589844 46.671875 21.195312 43.640625 22.4375 44.347656 C 22.207031 44.128906 21.902344 43.988281 21.570312 43.359375 L 21.820312 43.058594 C 21.222656 42.257812 20.722656 41.234375 20.757812 40.890625 C 21.078125 41.339844 21.300781 41.425781 21.519531 41.5 C 20.007812 37.605469 19.925781 41.285156 18.78125 37.535156 L 19.023438 37.511719 C 18.835938 37.222656 18.722656 36.90625 18.574219 36.597656 L 18.679688 35.507812 C 17.59375 34.199219 18.378906 29.949219 18.535156 27.617188 C 18.644531 26.667969 19.441406 25.660156 20.046875 24.078125 L 19.679688 24.011719 C 20.386719 22.730469 23.714844 18.859375 25.261719 19.054688 C 26.007812 18.082031 25.113281 19.050781 24.964844 18.808594 C 26.605469 17.039062 27.125 17.558594 28.230469 17.242188 C 29.425781 16.503906 27.207031 17.527344 27.773438 16.960938 C 29.839844 16.414062 29.234375 15.714844 31.929688 15.433594 C 32.214844 15.601562 31.269531 15.695312 31.035156 15.914062 C 32.753906 15.035156 36.480469 15.238281 38.898438 16.398438 C 41.707031 17.765625 44.863281 21.796875 44.988281 25.59375 L 45.128906 25.632812 C 45.054688 27.140625 45.351562 28.886719 44.839844 30.488281 L 45.183594 29.730469 M 33.222656 10.394531 C 33.625 10.46875 34.085938 10.523438 34.019531 10.621094 C 34.460938 10.519531 34.558594 10.433594 33.222656 10.394531 M 41.566406 29.164062 C 41.65625 27.789062 41.300781 28.222656 41.179688 28.746094 C 41.320312 28.824219 41.429688 29.714844 41.566406 29.164062 M 40.082031 33.09375 C 40.527344 32.464844 40.851562 31.78125 40.96875 31.070312 C 40.867188 31.578125 40.597656 32.011719 40.34375 32.472656 C 38.945312 33.371094 40.210938 31.941406 40.34375 31.398438 C 38.839844 33.328125 40.136719 32.554688 40.082031 33.09375 M 36.0625 34.113281 C 35.316406 34.121094 36.203125 34.507812 37.183594 34.660156 C 37.453125 34.445312 37.695312 34.226562 37.914062 34.015625 C 37.308594 34.167969 36.6875 34.171875 36.0625 34.113281 "/>
<path style=" stroke:none;fill-rule:nonzero;fill:rgb(100%,100%,100%);fill-opacity:0.4;" d="M 32 4 C 16.488281 4 4 16.488281 4 32 C 4 32.164062 4.003906 32.328125 4.007812 32.492188 C 4.265625 17.210938 16.652344 4.984375 32 4.984375 C 47.347656 4.984375 59.734375 17.210938 59.996094 32.492188 C 59.996094 32.328125 60 32.164062 60 32 C 60 16.488281 47.511719 4 32 4 Z M 32 4 "/>
<path style=" stroke:none;fill-rule:nonzero;fill:rgb(0%,0%,0%);fill-opacity:0.4;" d="M 4.007812 31.496094 C 4.003906 31.664062 4 31.832031 4 32 C 4 47.511719 16.488281 60 32 60 C 47.511719 60 60 47.511719 60 32 C 60 31.832031 59.996094 31.664062 59.996094 31.496094 C 59.726562 46.773438 47.34375 58.996094 32 58.996094 C 16.65625 58.996094 4.273438 46.773438 4.007812 31.496094 Z M 4.007812 31.496094 "/>
<path style=" stroke:none;fill-rule:nonzero;fill:rgb(0%,0%,0%);fill-opacity:0.4;" d="M 4.019531 33 C 4.007812 33.332031 4 33.664062 4 34 C 4 34.203125 4.011719 34.40625 4.015625 34.609375 C 4.015625 34.5625 4.019531 34.515625 4.019531 34.46875 C 4.542969 49.511719 16.824219 61.46875 32 61.46875 C 47.175781 61.46875 59.457031 49.511719 59.980469 34.46875 C 59.980469 34.515625 59.984375 34.5625 59.984375 34.609375 C 59.988281 34.40625 60 34.203125 60 34 C 60 33.664062 59.992188 33.332031 59.980469 33 C 59.457031 48.042969 47.175781 60 32 60 C 16.824219 60 4.542969 48.042969 4.019531 33 Z M 4.019531 33 "/>
<path style=" stroke:none;fill-rule:nonzero;fill:rgb(100%,100%,100%);fill-opacity:0.6;" d="M 35.152344 9.804688 C 34.453125 9.867188 33.757812 9.902344 33.066406 9.992188 L 33.105469 9.996094 C 33.089844 9.996094 33.074219 10 33.0625 10 L 33.367188 10.042969 C 33.871094 9.855469 34.609375 9.941406 35.148438 9.816406 C 35.117188 9.820312 35.089844 9.820312 35.058594 9.824219 C 35.089844 9.820312 35.121094 9.8125 35.152344 9.804688 Z M 33.222656 10.394531 C 33.238281 10.398438 33.253906 10.398438 33.269531 10.402344 C 33.253906 10.402344 33.242188 10.402344 33.222656 10.402344 C 33.609375 10.472656 34.050781 10.527344 34.019531 10.617188 C 34.042969 10.617188 34.058594 10.613281 34.078125 10.609375 C 34.214844 10.578125 34.308594 10.546875 34.3125 10.515625 C 34.332031 10.460938 34.058594 10.417969 33.222656 10.394531 Z M 34.011719 10.640625 C 33.945312 10.648438 33.886719 10.65625 33.824219 10.660156 L 33.738281 10.679688 L 33.847656 10.667969 L 33.734375 10.691406 L 34 10.660156 Z M 32.011719 11.4375 C 30.96875 11.503906 29.523438 12.070312 29.96875 11.558594 C 28.269531 12.347656 25.25 13.453125 23.558594 15.105469 L 23.503906 14.734375 C 22.726562 15.707031 20.117188 17.628906 19.910156 18.886719 L 19.703125 18.9375 C 19.300781 19.648438 19.035156 20.453125 18.71875 21.183594 C 18.1875 22.121094 17.941406 21.546875 18.015625 21.691406 C 16.976562 23.882812 16.460938 25.726562 16.015625 27.234375 C 16.066406 27.3125 16.097656 27.441406 16.121094 27.601562 C 16.546875 26.15625 17.054688 24.441406 18.015625 22.414062 C 17.941406 22.265625 18.1875 22.84375 18.71875 21.90625 C 19.035156 21.175781 19.300781 20.367188 19.703125 19.65625 L 19.910156 19.609375 C 20.117188 18.351562 22.726562 16.425781 23.503906 15.457031 L 23.558594 15.828125 C 25.25 14.171875 28.269531 13.066406 29.96875 12.277344 C 29.523438 12.792969 30.96875 12.226562 32.011719 12.160156 C 31.683594 12.351562 31.355469 12.5 31.046875 12.726562 C 32.300781 12.414062 32.242188 12.851562 33.519531 12.675781 C 33.070312 12.746094 32.527344 12.929688 32.613281 13 C 34.042969 13.171875 34.257812 12.542969 35.578125 13 L 35.5 12.59375 C 37.332031 13.28125 37.71875 13.167969 39.714844 14.265625 C 40.414062 14.304688 40.480469 13.816406 41.542969 14.265625 C 41.726562 14.605469 41.5 14.667969 42.800781 15.472656 C 42.945312 15.414062 42.539062 15.03125 42.21875 14.730469 C 44.519531 16.007812 46.996094 18.558594 48.148438 21.410156 C 48.160156 21.261719 48.253906 21.316406 48.542969 21.871094 C 47.671875 18.558594 44.832031 15.457031 42.21875 14.003906 C 42.539062 14.308594 42.945312 14.691406 42.800781 14.75 C 41.5 13.949219 41.726562 13.886719 41.542969 13.546875 C 40.480469 13.097656 40.414062 13.582031 39.714844 13.546875 C 37.71875 12.445312 37.332031 12.5625 35.5 11.875 L 35.578125 12.28125 C 34.257812 11.820312 34.042969 12.453125 32.613281 12.28125 C 32.527344 12.210938 33.070312 12.023438 33.519531 11.957031 C 32.242188 12.132812 32.300781 11.695312 31.046875 12.003906 C 31.355469 11.78125 31.683594 11.628906 32.011719 11.4375 Z M 15.597656 19.65625 C 15.601562 19.6875 15.601562 19.710938 15.601562 19.738281 C 15.59375 19.722656 15.589844 19.695312 15.59375 19.667969 C 15.636719 20.078125 15.535156 20.394531 15.441406 20.59375 C 15.441406 20.597656 15.4375 20.597656 15.4375 20.601562 C 15.304688 20.878906 15.21875 20.898438 15.601562 20.609375 C 15.601562 20.539062 15.601562 20.464844 15.59375 20.386719 C 15.589844 20.417969 15.59375 20.441406 15.601562 20.460938 C 15.601562 20.433594 15.601562 20.40625 15.597656 20.378906 C 15.59375 20.507812 15.65625 20.527344 15.730469 20.515625 C 15.757812 20.496094 15.769531 20.488281 15.796875 20.46875 C 15.800781 20.464844 15.800781 20.460938 15.800781 20.457031 C 16.347656 19.207031 15.589844 20.113281 15.597656 19.65625 Z M 48.183594 22.058594 C 48.121094 22.054688 48.148438 22.285156 48.183594 22.542969 C 48.273438 22.574219 48.25 22.339844 48.214844 22.074219 C 48.203125 22.0625 48.191406 22.058594 48.183594 22.058594 Z M 46.667969 22.285156 C 46.550781 22.347656 46.53125 22.589844 46.765625 23.34375 C 47.222656 24.039062 46.855469 22.636719 47.425781 23.875 C 47.429688 24.195312 47.5 24.523438 47.578125 24.875 C 47.648438 24.984375 47.714844 25.078125 47.777344 25.089844 C 47.648438 24.324219 47.433594 23.738281 47.425781 23.152344 C 46.855469 21.917969 47.222656 23.316406 46.765625 22.621094 C 46.726562 22.496094 46.695312 22.382812 46.667969 22.285156 Z M 48.183594 22.554688 C 48.214844 22.769531 48.25 22.996094 48.246094 23.136719 C 48.625 24.148438 48.875 25.148438 49.019531 25.6875 C 48.839844 24.609375 48.542969 23.566406 48.183594 22.554688 Z M 34.882812 22.988281 C 34.820312 22.992188 34.757812 22.996094 34.691406 23 C 32.664062 23.03125 30.765625 24.371094 30.128906 25.828125 C 29.09375 26.507812 28.972656 28.449219 28.519531 28.808594 C 28.421875 29.5625 28.386719 30.25 28.40625 30.878906 C 28.421875 30.453125 28.457031 30.003906 28.519531 29.527344 C 28.972656 29.171875 29.09375 27.230469 30.128906 26.546875 C 30.765625 25.09375 32.664062 23.753906 34.691406 23.71875 C 35.207031 23.691406 35.699219 23.746094 36.164062 23.863281 C 37.386719 23.996094 38.53125 24.515625 39.386719 25.34375 C 38.535156 24.183594 36.867188 22.960938 34.882812 22.988281 Z M 14.765625 23.152344 C 14.726562 23.203125 14.691406 23.253906 14.65625 23.300781 C 14.65625 23.304688 14.652344 23.304688 14.652344 23.308594 C 14.621094 23.351562 14.59375 23.398438 14.566406 23.4375 C 14.257812 23.945312 14.382812 24.171875 14.402344 24.519531 C 14.429688 24.414062 14.480469 24.300781 14.5625 24.164062 C 14.664062 23.757812 14.707031 23.449219 14.765625 23.152344 Z M 19.96875 24.273438 C 19.851562 24.445312 19.75 24.605469 19.675781 24.734375 L 19.765625 24.75 C 19.835938 24.59375 19.902344 24.4375 19.96875 24.273438 Z M 47.257812 25.152344 C 47.238281 25.148438 47.21875 25.160156 47.199219 25.1875 C 47.316406 25.753906 47.472656 26.15625 47.609375 26.410156 C 47.636719 25.902344 47.785156 26.15625 47.84375 26.003906 C 47.773438 25.964844 47.640625 25.78125 47.5 25.457031 C 47.410156 25.300781 47.328125 25.152344 47.257812 25.152344 Z M 45.121094 26.347656 C 45.121094 26.417969 45.121094 26.488281 45.121094 26.5625 C 45.121094 26.492188 45.125 26.421875 45.128906 26.351562 Z M 47.636719 26.910156 C 47.621094 26.976562 47.609375 27.074219 47.605469 27.234375 C 47.648438 28.09375 47.773438 28.253906 47.90625 28.25 C 48.011719 27.964844 48.117188 27.699219 48.167969 27.453125 C 48.027344 27.390625 47.75 27.886719 47.636719 26.910156 Z M 41.453125 28.246094 C 41.429688 28.246094 41.402344 28.261719 41.375 28.289062 C 41.375 28.289062 41.375 28.292969 41.375 28.292969 C 41.363281 28.304688 41.351562 28.320312 41.34375 28.335938 C 41.277344 28.429688 41.214844 28.585938 41.175781 28.75 C 41.230469 28.78125 41.28125 28.929688 41.328125 29.074219 C 41.332031 29.066406 41.339844 29.0625 41.34375 29.058594 C 41.351562 29.039062 41.363281 29.023438 41.375 29.011719 C 41.453125 28.929688 41.53125 28.953125 41.5625 29.175781 C 41.5625 29.171875 41.566406 29.167969 41.566406 29.160156 C 41.613281 28.476562 41.542969 28.242188 41.453125 28.246094 Z M 45.140625 28.3125 C 45.128906 29.046875 45.066406 29.78125 44.839844 30.488281 L 45.09375 29.925781 C 45.152344 29.390625 45.152344 28.847656 45.140625 28.3125 Z M 16.160156 28.828125 C 16.148438 29.613281 16.105469 30.570312 16.121094 31.496094 C 16.128906 30.496094 16.179688 29.515625 16.160156 28.828125 Z M 47.625 30 C 47.621094 30.03125 47.617188 30.058594 47.613281 30.089844 C 47.640625 30.175781 47.667969 30.261719 47.6875 30.34375 C 47.660156 30.226562 47.640625 30.113281 47.625 30 Z M 47.273438 30.0625 C 47.269531 30.089844 47.265625 30.113281 47.265625 30.140625 C 47.285156 30.261719 47.28125 30.441406 47.265625 30.65625 C 47.269531 30.730469 47.273438 30.800781 47.277344 30.875 C 47.3125 30.570312 47.292969 30.328125 47.273438 30.0625 Z M 29.703125 30.386719 C 29.664062 30.707031 29.589844 30.625 29.503906 30.753906 C 29.503906 30.707031 29.5 30.660156 29.496094 30.609375 C 29.480469 30.898438 29.484375 31.1875 29.503906 31.472656 C 29.589844 31.347656 29.664062 31.425781 29.703125 31.105469 C 29.636719 36.160156 34.945312 39.867188 38.765625 38 L 38.8125 38.105469 C 40.363281 37.664062 40.164062 37.300781 41.175781 36.578125 C 41.097656 36.746094 40.492188 37.179688 40.855469 37.1875 C 41.347656 37.050781 42.882812 35.5625 43.640625 34.859375 C 43.988281 34.082031 43.457031 34.4375 43.941406 33.457031 L 44.535156 33.15625 C 44.863281 32.164062 45.230469 31.601562 45.1875 30.449219 L 45.140625 30.546875 C 45.035156 31.210938 44.777344 31.707031 44.535156 32.433594 L 43.941406 32.738281 C 43.457031 33.71875 43.988281 33.359375 43.640625 34.140625 C 42.882812 34.839844 41.347656 36.332031 40.855469 36.46875 C 40.492188 36.460938 41.097656 36.023438 41.175781 35.855469 C 40.164062 36.578125 40.363281 36.941406 38.8125 37.382812 L 38.765625 37.277344 C 34.945312 39.148438 29.636719 35.441406 29.703125 30.386719 Z M 49.640625 30.5625 L 49.636719 30.566406 L 49.527344 30.847656 C 49.347656 32.125 48.992188 33.390625 48.457031 34.582031 C 48.382812 34.75 48.304688 34.914062 48.222656 35.078125 C 48.3125 34.902344 48.40625 34.726562 48.488281 34.546875 C 48.570312 34.367188 48.648438 34.1875 48.722656 34.007812 C 48.722656 34.003906 48.726562 34.003906 48.726562 34 C 48.800781 33.820312 48.871094 33.636719 48.9375 33.453125 C 48.9375 33.449219 48.941406 33.445312 48.941406 33.441406 C 49.277344 32.507812 49.511719 31.539062 49.640625 30.5625 Z M 47.25 30.777344 C 47.214844 31.085938 47.144531 31.445312 47.03125 31.828125 C 47.171875 31.445312 47.242188 31.15625 47.273438 30.910156 C 47.269531 30.855469 47.261719 30.8125 47.25 30.777344 Z M 40.964844 31.09375 C 40.949219 31.148438 40.9375 31.203125 40.921875 31.257812 C 40.921875 31.257812 40.921875 31.261719 40.921875 31.261719 C 40.902344 31.320312 40.882812 31.382812 40.863281 31.4375 C 40.851562 31.46875 40.839844 31.5 40.828125 31.53125 C 40.816406 31.558594 40.804688 31.585938 40.792969 31.613281 C 40.792969 31.617188 40.792969 31.621094 40.792969 31.621094 C 40.714844 31.792969 40.628906 31.960938 40.535156 32.128906 C 40.535156 32.132812 40.535156 32.136719 40.53125 32.136719 C 40.472656 32.25 40.40625 32.359375 40.34375 32.472656 C 40.253906 32.53125 40.171875 32.582031 40.105469 32.621094 C 40.097656 32.628906 40.097656 32.636719 40.09375 32.640625 C 40.089844 32.644531 40.089844 32.644531 40.089844 32.644531 C 40.042969 32.726562 39.992188 32.804688 39.949219 32.886719 C 40.03125 32.917969 40.089844 32.972656 40.078125 33.097656 C 40.191406 32.941406 40.296875 32.777344 40.390625 32.613281 C 40.4375 32.53125 40.484375 32.449219 40.527344 32.371094 C 40.527344 32.371094 40.527344 32.367188 40.527344 32.367188 C 40.527344 32.367188 40.527344 32.363281 40.527344 32.363281 C 40.570312 32.285156 40.609375 32.199219 40.644531 32.117188 C 40.648438 32.117188 40.648438 32.113281 40.648438 32.113281 C 40.6875 32.03125 40.71875 31.945312 40.75 31.859375 C 40.753906 31.859375 40.753906 31.859375 40.753906 31.859375 C 40.785156 31.773438 40.816406 31.6875 40.84375 31.605469 C 40.84375 31.601562 40.84375 31.601562 40.84375 31.597656 C 40.851562 31.570312 40.859375 31.539062 40.871094 31.507812 C 40.886719 31.449219 40.902344 31.394531 40.914062 31.335938 C 40.933594 31.253906 40.949219 31.171875 40.964844 31.09375 Z M 40.34375 31.394531 C 40.25 31.515625 40.167969 31.628906 40.09375 31.730469 C 40.09375 31.730469 40.09375 31.730469 40.09375 31.734375 C 40.019531 31.832031 39.957031 31.921875 39.902344 32 C 39.902344 32.003906 39.902344 32.003906 39.902344 32.003906 C 39.847656 32.085938 39.800781 32.160156 39.765625 32.222656 C 39.765625 32.226562 39.765625 32.226562 39.765625 32.230469 C 39.726562 32.292969 39.699219 32.351562 39.675781 32.402344 C 39.675781 32.402344 39.675781 32.402344 39.671875 32.40625 C 39.652344 32.453125 39.636719 32.5 39.625 32.535156 C 39.570312 32.757812 39.691406 32.808594 39.828125 32.84375 C 39.851562 32.804688 39.871094 32.769531 39.902344 32.726562 C 39.902344 32.726562 39.902344 32.722656 39.902344 32.722656 C 39.695312 32.808594 39.660156 32.738281 39.71875 32.589844 C 39.730469 32.5625 39.742188 32.53125 39.757812 32.5 C 39.761719 32.496094 39.765625 32.484375 39.765625 32.480469 C 39.765625 32.480469 39.769531 32.476562 39.769531 32.476562 C 39.808594 32.398438 39.859375 32.3125 39.917969 32.21875 C 39.917969 32.21875 39.917969 32.214844 39.917969 32.214844 C 39.972656 32.121094 40.03125 32.023438 40.089844 31.925781 C 40.089844 31.925781 40.089844 31.921875 40.09375 31.921875 C 40.148438 31.824219 40.203125 31.730469 40.246094 31.640625 C 40.246094 31.640625 40.25 31.640625 40.25 31.640625 C 40.25 31.640625 40.25 31.636719 40.25 31.636719 C 40.269531 31.59375 40.289062 31.554688 40.304688 31.515625 C 40.304688 31.511719 40.304688 31.511719 40.308594 31.511719 C 40.324219 31.46875 40.335938 31.429688 40.34375 31.394531 Z M 16.128906 32.570312 C 16.117188 32.90625 16.113281 33.238281 16.121094 33.570312 C 16.125 33.351562 16.132812 33.132812 16.144531 32.917969 C 16.136719 32.804688 16.132812 32.6875 16.128906 32.570312 Z M 18.121094 33.191406 C 18.089844 34.441406 18.191406 35.546875 18.621094 36.144531 L 18.683594 35.503906 C 18.292969 35.039062 18.144531 34.191406 18.121094 33.191406 Z M 37.917969 34.015625 C 37.308594 34.167969 36.6875 34.171875 36.0625 34.113281 C 35.925781 34.113281 35.839844 34.132812 35.800781 34.15625 C 35.792969 34.164062 35.785156 34.171875 35.785156 34.183594 C 35.785156 34.183594 35.78125 34.183594 35.78125 34.183594 C 35.761719 34.300781 36.445312 34.546875 37.179688 34.660156 C 37.179688 34.660156 37.183594 34.660156 37.183594 34.660156 C 37.453125 34.445312 37.695312 34.230469 37.910156 34.019531 C 37.914062 34.019531 37.914062 34.015625 37.917969 34.015625 Z M 28.464844 34.121094 C 28.46875 34.132812 28.472656 34.148438 28.480469 34.160156 C 28.472656 34.148438 28.464844 34.140625 28.460938 34.125 C 28.617188 34.710938 28.929688 35.214844 29.226562 35.726562 C 29.148438 35.652344 29.078125 35.601562 29.03125 35.589844 C 29.332031 36.15625 29.757812 36.699219 30.261719 37.191406 C 30.238281 37.160156 30.214844 37.128906 30.195312 37.097656 C 30.253906 37.167969 30.316406 37.234375 30.375 37.304688 C 31.085938 37.976562 31.941406 38.566406 32.84375 39.015625 C 32.851562 38.992188 32.859375 38.96875 32.871094 38.941406 C 32.871094 38.933594 32.875 38.921875 32.878906 38.917969 C 32.902344 38.828125 32.878906 38.734375 32.636719 38.5625 C 32.296875 38.292969 31.976562 38.027344 31.671875 37.765625 C 31.132812 37.367188 30.636719 36.902344 30.195312 36.375 C 30.589844 36.976562 31.015625 37.558594 31.5625 38.015625 C 30.785156 37.742188 29.785156 36.28125 29.269531 35.769531 L 29.050781 35.117188 C 28.792969 34.824219 28.636719 34.46875 28.464844 34.121094 Z M 32.878906 38.917969 C 32.875 38.925781 32.871094 38.933594 32.871094 38.941406 C 32.867188 38.972656 32.886719 39.007812 32.917969 39.050781 C 34.746094 39.953125 36.746094 40.300781 38.101562 39.710938 C 37.425781 39.734375 36.644531 39.738281 35.851562 39.640625 C 35.773438 39.632812 35.695312 39.625 35.613281 39.613281 C 34.703125 39.5 33.792969 39.257812 32.886719 38.90625 C 32.882812 38.910156 32.882812 38.914062 32.878906 38.917969 Z M 27.890625 35.160156 L 27.886719 35.171875 L 27.78125 35.703125 C 28.273438 36.382812 28.664062 37.121094 29.292969 37.652344 C 29.289062 37.644531 29.28125 37.636719 29.28125 37.628906 C 29.285156 37.636719 29.289062 37.640625 29.296875 37.644531 C 28.84375 36.746094 28.507812 36.375 27.890625 35.160156 Z M 18.632812 36.722656 L 18.578125 37.316406 C 18.714844 37.609375 18.828125 37.90625 18.996094 38.183594 C 18.925781 37.996094 18.855469 37.78125 18.78125 37.535156 L 19.023438 37.511719 C 18.863281 37.261719 18.753906 36.992188 18.632812 36.722656 Z M 19.015625 38.234375 L 18.78125 38.253906 C 19.8125 41.644531 19.984375 38.96875 21.121094 41.292969 C 21.265625 41.410156 21.394531 41.457031 21.519531 41.5 C 20.117188 37.886719 19.945312 40.789062 19.015625 38.234375 Z M 20.761719 41.613281 C 20.722656 41.953125 21.226562 42.980469 21.824219 43.78125 L 21.566406 44.082031 C 21.894531 44.699219 22.195312 44.84375 22.421875 45.054688 C 22.050781 44.457031 21.890625 44.035156 22.4375 44.34375 C 22.207031 44.125 21.902344 43.988281 21.566406 43.359375 L 21.824219 43.0625 C 21.585938 42.746094 21.367188 42.394531 21.1875 42.0625 C 21.0625 41.976562 20.925781 41.84375 20.761719 41.613281 Z M 22.179688 44.960938 C 21.625 44.90625 23.609375 47.425781 23.808594 47.777344 L 24 47.421875 C 23.96875 47.933594 24.347656 48.589844 25.058594 49.5 L 25.648438 49.46875 C 25.894531 49.96875 26.78125 50.875 27.320312 50.917969 L 26.960938 51.402344 C 28.316406 51.847656 27.621094 51.996094 29.285156 52.609375 L 28.949219 51.988281 C 29.707031 52.675781 30 53.28125 30.90625 53.824219 C 32.03125 54.136719 33.542969 54.128906 34.847656 54.167969 C 33.140625 53.65625 32.921875 53.898438 31.261719 53.296875 C 30.0625 52.707031 29.796875 52.035156 28.949219 51.269531 L 29.285156 51.886719 C 27.621094 51.273438 28.316406 51.128906 26.960938 50.683594 L 27.320312 50.195312 C 26.78125 50.152344 25.894531 49.25 25.648438 48.75 L 25.058594 48.777344 C 24.347656 47.867188 23.96875 47.210938 24 46.703125 L 23.808594 47.058594 C 23.6875 46.84375 22.898438 45.8125 22.429688 45.0625 C 22.320312 45 22.234375 44.964844 22.179688 44.960938 Z M 22.179688 44.960938 "/>
<path style=" stroke:none;fill-rule:nonzero;fill:rgb(0%,0%,0%);fill-opacity:0.4;" d="M 35.152344 10.871094 C 34.453125 10.929688 33.757812 10.964844 33.066406 11.054688 L 33.105469 11.0625 C 33.089844 11.0625 33.074219 11.0625 33.0625 11.0625 L 33.367188 11.109375 C 33.871094 10.917969 34.609375 11.003906 35.148438 10.878906 C 35.117188 10.882812 35.089844 10.886719 35.058594 10.890625 C 35.089844 10.882812 35.121094 10.878906 35.152344 10.871094 Z M 33.222656 11.457031 C 33.242188 11.460938 33.261719 11.464844 33.28125 11.46875 C 33.257812 11.46875 33.246094 11.46875 33.222656 11.46875 C 33.609375 11.539062 34.050781 11.589844 34.019531 11.683594 L 34.015625 11.6875 L 34.019531 11.6875 C 34.019531 11.6875 34.019531 11.691406 34.019531 11.691406 C 34.191406 11.652344 34.308594 11.617188 34.3125 11.582031 C 34.34375 11.527344 34.078125 11.484375 33.222656 11.457031 Z M 34.015625 11.6875 L 33.738281 11.746094 L 33.835938 11.734375 L 33.734375 11.753906 L 34 11.726562 L 34.015625 11.695312 L 34.011719 11.699219 Z M 34.167969 15.371094 C 32.921875 15.351562 31.785156 15.527344 31.03125 15.910156 C 31.269531 15.695312 32.214844 15.605469 31.929688 15.4375 C 29.234375 15.714844 29.835938 16.414062 27.769531 16.960938 C 27.207031 17.527344 29.425781 16.503906 28.230469 17.238281 C 27.121094 17.558594 26.605469 17.042969 24.964844 18.808594 C 25.109375 19.054688 26.007812 18.082031 25.261719 19.058594 C 23.714844 18.859375 20.386719 22.730469 19.675781 24.011719 L 20.046875 24.078125 C 19.441406 25.660156 18.644531 26.667969 18.535156 27.617188 C 18.429688 29.164062 18.050781 31.554688 18.125 33.375 C 18.183594 31.757812 18.449219 29.941406 18.535156 28.683594 C 18.644531 27.734375 19.441406 26.726562 20.046875 25.140625 L 19.675781 25.078125 C 20.386719 23.792969 23.714844 19.921875 25.261719 20.121094 C 26.007812 19.144531 25.109375 20.117188 24.964844 19.875 C 26.605469 18.105469 27.121094 18.625 28.230469 18.308594 C 29.425781 17.570312 27.207031 18.59375 27.769531 18.027344 C 29.835938 17.476562 29.234375 16.777344 31.929688 16.5 C 32.214844 16.667969 31.269531 16.761719 31.03125 16.980469 C 32.753906 16.101562 36.480469 16.300781 38.902344 17.464844 C 41.707031 18.828125 44.863281 22.863281 44.984375 26.65625 L 45.125 26.695312 C 45.117188 26.332031 45.113281 25.972656 45.128906 25.628906 L 44.984375 25.59375 C 44.863281 21.796875 41.707031 17.765625 38.902344 16.398438 C 37.539062 15.746094 35.765625 15.394531 34.167969 15.371094 Z M 15.597656 20.722656 C 15.601562 20.753906 15.601562 20.777344 15.601562 20.804688 C 15.59375 20.785156 15.589844 20.761719 15.59375 20.730469 C 15.648438 21.28125 15.449219 21.664062 15.359375 21.816406 C 15.339844 21.847656 15.324219 21.871094 15.324219 21.878906 C 15.304688 21.917969 15.402344 21.8125 15.796875 21.53125 C 15.800781 21.53125 15.800781 21.527344 15.800781 21.527344 C 16.347656 20.273438 15.589844 21.179688 15.597656 20.722656 Z M 47.34375 21.273438 C 47.265625 22.164062 46.164062 20.664062 46.761719 22.609375 C 46.851562 22.613281 46.964844 22.644531 47.066406 22.652344 C 47.085938 22.617188 47.105469 22.605469 47.148438 22.644531 C 47.246094 22.628906 47.324219 22.550781 47.34375 22.339844 C 48.257812 23.71875 48.78125 25.863281 49.019531 26.75 C 48.839844 25.667969 48.542969 24.621094 48.179688 23.605469 C 48.289062 23.652344 48.246094 23.332031 48.199219 23.011719 C 47.964844 22.394531 47.679688 21.78125 47.34375 21.273438 Z M 48.1875 21.855469 C 48.21875 22.078125 48.253906 22.316406 48.246094 22.445312 C 48.304688 22.511719 48.398438 22.660156 48.542969 22.9375 C 48.449219 22.570312 48.328125 22.210938 48.1875 21.855469 Z M 34.882812 24.054688 C 34.820312 24.054688 34.757812 24.058594 34.691406 24.0625 C 34.253906 24.070312 33.820312 24.140625 33.40625 24.257812 C 33.25 24.320312 33.09375 24.390625 32.941406 24.46875 C 30.660156 25.539062 29.308594 28.152344 29.503906 30.753906 C 29.507812 30.75 29.507812 30.75 29.511719 30.75 C 29.699219 28.527344 30.972656 26.457031 32.941406 25.535156 C 35.171875 24.386719 37.789062 24.859375 39.386719 26.40625 C 38.535156 25.25 36.867188 24.023438 34.882812 24.054688 Z M 14.765625 24.214844 C 14.726562 24.269531 14.691406 24.316406 14.65625 24.363281 C 14.65625 24.367188 14.652344 24.371094 14.652344 24.375 C 14.621094 24.417969 14.59375 24.460938 14.566406 24.5 C 14.195312 25.113281 14.453125 25.3125 14.394531 25.8125 C 14.398438 25.808594 14.402344 25.800781 14.402344 25.796875 C 14.402344 25.800781 14.402344 25.808594 14.402344 25.8125 C 14.636719 25.078125 14.679688 24.640625 14.765625 24.214844 Z M 14.394531 25.8125 C 14.394531 25.816406 14.394531 25.816406 14.394531 25.820312 C 14.398438 25.816406 14.394531 25.816406 14.394531 25.8125 Z M 47.257812 24.425781 C 47.238281 24.425781 47.21875 24.441406 47.199219 24.46875 C 47.347656 25.203125 47.574219 25.667969 47.726562 25.878906 C 47.640625 25.4375 47.53125 25.054688 47.472656 24.6875 C 47.394531 24.550781 47.320312 24.429688 47.257812 24.425781 Z M 47.746094 26.0625 C 47.726562 26.066406 47.707031 26.074219 47.6875 26.089844 C 47.71875 26.121094 47.746094 26.148438 47.777344 26.152344 C 47.769531 26.121094 47.765625 26.09375 47.761719 26.0625 C 47.753906 26.066406 47.75 26.0625 47.746094 26.0625 Z M 47.621094 26.777344 C 47.636719 26.9375 47.65625 27.066406 47.675781 27.167969 C 47.730469 27.097656 47.804688 27.171875 47.84375 27.074219 C 47.796875 27.042969 47.710938 26.941406 47.621094 26.777344 Z M 45.125 26.808594 C 45.105469 27.335938 45.128906 27.890625 45.140625 28.457031 C 45.15625 27.902344 45.136719 27.347656 45.125 26.808594 Z M 16.148438 27.855469 C 16.105469 28.003906 16.058594 28.160156 16.015625 28.300781 C 16.097656 28.429688 16.140625 28.699219 16.15625 29.054688 C 16.167969 28.589844 16.171875 28.175781 16.148438 27.855469 Z M 48.136719 28.515625 C 48.042969 28.515625 47.914062 28.660156 47.800781 28.546875 C 47.648438 29.011719 47.535156 29.539062 47.652344 30.171875 C 47.773438 29.519531 48.066406 28.992188 48.167969 28.519531 C 48.15625 28.515625 48.148438 28.511719 48.136719 28.515625 Z M 47.285156 29.203125 C 47.234375 29.667969 47.265625 29.96875 47.285156 30.265625 C 47.417969 30.632812 47.597656 31.023438 47.6875 31.410156 C 47.578125 30.960938 47.582031 30.5625 47.644531 30.203125 C 47.550781 29.863281 47.402344 29.523438 47.285156 29.203125 Z M 41.429688 29.316406 C 41.414062 29.324219 41.394531 29.335938 41.375 29.355469 C 41.363281 29.367188 41.351562 29.382812 41.34375 29.402344 C 41.277344 29.492188 41.214844 29.648438 41.175781 29.816406 C 41.292969 29.878906 41.386719 30.496094 41.492188 30.402344 C 41.5 30.394531 41.503906 30.386719 41.511719 30.375 C 41.511719 30.375 41.515625 30.375 41.515625 30.375 C 41.515625 30.375 41.515625 30.371094 41.515625 30.371094 C 41.53125 30.34375 41.550781 30.296875 41.566406 30.230469 C 41.605469 29.65625 41.5625 29.402344 41.496094 29.332031 C 41.496094 29.332031 41.492188 29.335938 41.492188 29.335938 C 41.472656 29.355469 41.449219 29.34375 41.429688 29.316406 Z M 45.1875 29.730469 L 45.128906 29.855469 C 45.097656 30.425781 45.015625 31 44.839844 31.550781 L 44.921875 31.378906 C 45.089844 30.894531 45.210938 30.417969 45.1875 29.730469 Z M 47.171875 29.945312 C 47.128906 29.941406 47.078125 29.980469 47.015625 30.078125 C 47.164062 31.769531 45.730469 33.070312 45.886719 34.140625 L 45.46875 33.542969 C 44.339844 35.242188 45.441406 34.480469 44.671875 35.769531 C 44.957031 35.261719 44.527344 35.558594 44.894531 34.984375 C 44.652344 35 43.808594 36.0625 43.035156 36.6875 C 40.007812 39.214844 36.386719 39.546875 32.886719 38.1875 C 32.882812 38.1875 32.882812 38.191406 32.878906 38.191406 C 32.875 38.203125 32.871094 38.214844 32.871094 38.222656 C 32.867188 38.398438 33.550781 38.945312 34.070312 39.222656 C 35.40625 39.742188 36.914062 39.753906 38.101562 39.710938 C 36.675781 40.332031 34.535156 39.914062 32.636719 38.90625 C 32.878906 39.082031 32.902344 39.175781 32.878906 39.265625 C 32.882812 39.261719 32.882812 39.253906 32.886719 39.25 C 36.386719 40.613281 40.007812 40.28125 43.035156 37.753906 C 43.808594 37.128906 44.652344 36.066406 44.894531 36.050781 C 44.527344 36.625 44.957031 36.328125 44.671875 36.832031 C 45.441406 35.546875 44.339844 36.308594 45.46875 34.609375 L 45.886719 35.203125 C 45.730469 34.132812 47.164062 32.835938 47.015625 31.140625 C 47.105469 31.007812 47.167969 30.984375 47.214844 31.042969 C 47.234375 30.921875 47.246094 30.808594 47.257812 30.703125 C 47.257812 30.589844 47.265625 30.476562 47.277344 30.34375 C 47.277344 30.105469 47.242188 29.953125 47.171875 29.945312 Z M 32.878906 39.265625 C 32.875 39.269531 32.871094 39.277344 32.871094 39.285156 C 32.871094 39.277344 32.875 39.273438 32.878906 39.265625 Z M 32.871094 39.285156 C 32.84375 39.359375 32.800781 39.429688 32.828125 39.535156 C 31.839844 39.054688 30.9375 38.328125 30.195312 37.441406 C 30.589844 38.042969 31.015625 38.625 31.5625 39.082031 C 30.78125 38.808594 29.785156 37.347656 29.269531 36.832031 L 29.050781 36.183594 C 28.792969 35.886719 28.636719 35.535156 28.464844 35.183594 C 28.46875 35.199219 28.472656 35.210938 28.480469 35.226562 C 28.472656 35.214844 28.464844 35.203125 28.460938 35.191406 C 28.617188 35.773438 28.929688 36.28125 29.226562 36.792969 C 29.148438 36.714844 29.078125 36.667969 29.03125 36.65625 C 30.632812 39.640625 35.535156 41.894531 38.101562 40.777344 C 36.914062 40.816406 35.40625 40.808594 34.070312 40.289062 C 33.550781 40.011719 32.863281 39.460938 32.871094 39.285156 Z M 32.871094 38.222656 C 32.871094 38.210938 32.871094 38.203125 32.878906 38.191406 C 32.902344 38.105469 32.875 38.011719 32.636719 37.84375 C 30.1875 35.894531 28.566406 34.183594 28.410156 31.042969 C 28.261719 34.207031 29.390625 36.027344 31.304688 37.78125 C 30.878906 37.363281 30.523438 36.878906 30.195312 36.375 C 30.9375 37.265625 31.839844 37.988281 32.828125 38.46875 C 32.800781 38.363281 32.84375 38.292969 32.871094 38.222656 Z M 47.265625 30.984375 C 47.257812 31.019531 47.25 31.0625 47.242188 31.101562 C 47.328125 31.351562 47.269531 32.09375 47.03125 32.890625 C 47.390625 31.917969 47.292969 31.546875 47.265625 30.984375 Z M 16.121094 31.601562 C 16.113281 31.984375 16.113281 32.367188 16.125 32.746094 C 16.128906 32.5625 16.136719 32.378906 16.144531 32.195312 C 16.132812 32.003906 16.125 31.800781 16.121094 31.601562 Z M 49.640625 31.628906 L 49.53125 31.90625 L 49.527344 31.917969 C 49.347656 33.191406 48.992188 34.457031 48.457031 35.648438 C 48.382812 35.816406 48.304688 35.980469 48.222656 36.144531 C 48.3125 35.96875 48.40625 35.792969 48.488281 35.609375 C 48.570312 35.433594 48.648438 35.253906 48.722656 35.074219 C 48.722656 35.070312 48.726562 35.066406 48.726562 35.0625 C 48.800781 34.882812 48.871094 34.699219 48.9375 34.515625 C 48.9375 34.511719 48.941406 34.511719 48.941406 34.507812 C 49.277344 33.574219 49.511719 32.605469 49.640625 31.628906 Z M 40.964844 32.15625 C 40.949219 32.210938 40.9375 32.265625 40.921875 32.324219 C 40.921875 32.324219 40.921875 32.328125 40.921875 32.328125 C 40.902344 32.386719 40.882812 32.445312 40.863281 32.503906 C 40.863281 32.503906 40.863281 32.507812 40.859375 32.507812 C 40.839844 32.566406 40.816406 32.625 40.792969 32.683594 C 40.789062 32.6875 40.789062 32.691406 40.785156 32.699219 C 40.710938 32.867188 40.625 33.03125 40.535156 33.199219 C 40.535156 33.199219 40.535156 33.199219 40.53125 33.203125 C 40.472656 33.3125 40.40625 33.425781 40.34375 33.539062 C 39.734375 33.929688 39.632812 33.878906 39.71875 33.65625 C 39.71875 33.652344 39.71875 33.652344 39.71875 33.652344 C 39.734375 33.617188 39.75 33.582031 39.765625 33.546875 C 39.765625 33.546875 39.769531 33.542969 39.769531 33.542969 C 39.808594 33.464844 39.859375 33.375 39.917969 33.28125 C 39.96875 33.195312 40.023438 33.105469 40.074219 33.015625 C 40.0625 32.972656 40.039062 32.941406 40.007812 32.917969 C 39.910156 33.058594 39.824219 33.1875 39.765625 33.289062 C 39.765625 33.289062 39.765625 33.292969 39.765625 33.292969 C 39.726562 33.355469 39.699219 33.417969 39.675781 33.46875 C 39.65625 33.507812 39.648438 33.542969 39.636719 33.574219 C 39.632812 33.582031 39.628906 33.59375 39.625 33.601562 C 39.511719 34.042969 40.117188 33.792969 40.078125 34.164062 C 40.136719 34.085938 40.191406 34.003906 40.242188 33.921875 C 40.292969 33.84375 40.34375 33.761719 40.390625 33.683594 C 40.390625 33.679688 40.390625 33.679688 40.390625 33.675781 C 40.4375 33.597656 40.484375 33.515625 40.527344 33.4375 C 40.527344 33.433594 40.527344 33.429688 40.527344 33.429688 C 40.570312 33.347656 40.609375 33.265625 40.644531 33.183594 C 40.648438 33.183594 40.648438 33.179688 40.648438 33.175781 C 40.683594 33.09375 40.71875 33.011719 40.75 32.925781 C 40.753906 32.925781 40.753906 32.921875 40.753906 32.921875 C 40.757812 32.914062 40.761719 32.902344 40.765625 32.894531 C 40.792969 32.816406 40.820312 32.742188 40.84375 32.664062 C 40.871094 32.578125 40.894531 32.492188 40.914062 32.40625 C 40.914062 32.40625 40.914062 32.402344 40.914062 32.402344 C 40.933594 32.320312 40.949219 32.238281 40.964844 32.15625 Z M 40.34375 32.46875 C 40.335938 32.472656 40.332031 32.476562 40.328125 32.484375 C 40.332031 32.480469 40.335938 32.480469 40.339844 32.480469 C 40.339844 32.476562 40.339844 32.46875 40.34375 32.46875 Z M 16.125 33.71875 C 15.847656 43.359375 22.878906 52.613281 30.558594 54.777344 C 31.703125 55.203125 33.402344 55.1875 34.847656 55.230469 C 33.140625 54.722656 32.921875 54.960938 31.261719 54.359375 C 30.765625 54.117188 30.433594 53.859375 30.152344 53.589844 C 22.914062 51.308594 16.363281 42.796875 16.125 33.71875 Z M 37.910156 35.082031 C 37.304688 35.234375 36.6875 35.238281 36.0625 35.179688 C 35.878906 35.179688 35.792969 35.207031 35.785156 35.246094 C 35.785156 35.246094 35.78125 35.25 35.78125 35.25 C 35.761719 35.367188 36.445312 35.613281 37.179688 35.730469 C 37.449219 35.511719 37.695312 35.296875 37.910156 35.082031 Z M 27.890625 36.222656 L 27.886719 36.234375 L 27.78125 36.765625 C 28.273438 37.449219 28.664062 38.1875 29.292969 38.71875 C 29.285156 38.710938 29.28125 38.703125 29.277344 38.691406 C 29.285156 38.699219 29.289062 38.703125 29.296875 38.707031 C 28.84375 37.8125 28.507812 37.441406 27.890625 36.222656 Z M 18.589844 36.449219 L 18.578125 36.59375 C 18.605469 36.660156 18.632812 36.722656 18.660156 36.785156 L 18.683594 36.570312 C 18.648438 36.53125 18.617188 36.492188 18.589844 36.449219 Z M 20.765625 41.019531 C 20.8125 41.347656 21.101562 41.957031 21.472656 42.546875 C 21.488281 42.554688 21.503906 42.5625 21.519531 42.566406 C 21.21875 41.789062 20.972656 41.316406 20.765625 41.019531 Z M 20.765625 41.019531 "/>
<path style=" stroke:none;fill-rule:nonzero;fill:url(#linear0);" d="M 32 4 C 47.464844 4 60 16.535156 60 32 C 60 47.464844 47.464844 60 32 60 C 16.535156 60 4 47.464844 4 32 C 4 16.535156 16.535156 4 32 4 Z M 32 4 "/>
</g>
</svg>
