<?xml version="1.0" encoding="UTF-8" standalone="no"?>
<!-- Generator: Adobe Illustrator 25.2.0, SVG Export Plug-In . SVG Version: 6.00 Build 0)  -->

<svg
   version="1.1"
   id="Layer_1"
   x="0px"
   y="0px"
   viewBox="0 0 500 180"
   xml:space="preserve"
   sodipodi:docname="extreme_networks.svg"
   width="500"
   height="180"
   inkscape:version="1.3 (0e150ed, 2023-07-21)"
   xmlns:inkscape="http://www.inkscape.org/namespaces/inkscape"
   xmlns:sodipodi="http://sodipodi.sourceforge.net/DTD/sodipodi-0.dtd"
   xmlns="http://www.w3.org/2000/svg"
   xmlns:svg="http://www.w3.org/2000/svg"><defs
   id="defs106" /><sodipodi:namedview
   id="namedview106"
   pagecolor="#ffffff"
   bordercolor="#111111"
   borderopacity="1"
   inkscape:showpageshadow="0"
   inkscape:pageopacity="0"
   inkscape:pagecheckerboard="1"
   inkscape:deskcolor="#d1d1d1"
   inkscape:zoom="2"
   inkscape:cx="221"
   inkscape:cy="85.25"
   inkscape:window-width="1312"
   inkscape:window-height="812"
   inkscape:window-x="74"
   inkscape:window-y="25"
   inkscape:window-maximized="0"
   inkscape:current-layer="Layer_1" />&#10;&#10;<g
   id="g92"
   transform="translate(-250,-413.095)">&#10;</g>&#10;<polygon
   style="fill:#2e087e"
   points="270.996,499.344 270.996,460.091 344.33,460.091 344.33,439.095 250,439.095 250,520.34 270.692,540.424 344.33,540.424 344.905,519.897 251.037,519.897 "
   id="polygon92"
   transform="translate(-246,-409.095)" /><rect
   x="45.208008"
   y="70.319"
   style="fill:#2e087e"
   width="40.116001"
   height="20.372"
   id="rect92" /><polygon
   style="fill:#2e087e"
   points="423.783,486.441 390.874,486.441 390.874,465.623 427.544,465.623 427.544,459.355 390.874,459.355 383.666,459.355 383.666,465.623 383.666,513.889 383.666,520.158 390.874,520.158 427.544,520.158 427.544,513.889 390.874,513.889 390.874,492.709 423.783,492.709 "
   id="polygon93"
   transform="translate(-250,-413.095)" /><polygon
   style="fill:#2e087e"
   points="458.468,492.709 445.618,475.234 437.26,475.234 454.603,497.696 436.738,520.158 444.364,520.158 458.729,502.398 471.945,520.158 480.198,520.158 462.229,497.278 479.572,475.234 471.736,475.234 "
   id="polygon94"
   transform="translate(-250,-413.095)" /><path
   style="fill:#2e087e"
   d="m 250.048,48.663 h -6.686 l -0.084,13.477 h -6.393 v 6.373 h 6.477 c 0,0 0,17.969 0,27.581 0,9.612 7.522,11.805 12.224,11.805 4.701,0 8.253,-1.567 8.253,-1.567 v -6.164 c -3.657,1.985 -6.268,1.881 -6.268,1.881 -6.895,0 -7.417,-6.791 -7.417,-6.791 v -26.85 h 14.208 V 62.14 H 250.049 V 48.663 Z"
   id="path94" /><path
   style="fill:#2e087e"
   d="m 363.783,120.749 h -3.006 l -0.038,6.059 h -2.875 v 2.865 h 2.913 c 0,0 0,8.079 0,12.401 0,4.322 3.382,5.308 5.496,5.308 2.114,0 3.711,-0.705 3.711,-0.705 v -2.771 c -1.644,0.892 -2.818,0.846 -2.818,0.846 -3.1,0 -3.335,-3.053 -3.335,-3.053 v -12.072 h 6.388 v -2.818 h -6.435 v -6.06 z"
   id="path95" /><path
   style="fill:#2e087e"
   d="M 282.644,73.527 V 62.139 h -6.895 v 44.923 h 6.791 V 87.108 c 0,0 0.418,-18.387 18.283,-18.596 v -7.104 c -10e-4,0 -10.866,-2.089 -18.179,12.119 z"
   id="path96" /><path
   style="fill:#2e087e"
   d="m 434.655,131.689 v -5.18 h -3.137 v 20.437 h 3.089 v -9.078 c 0,0 0.19,-8.365 8.317,-8.46 v -3.232 c 0.001,0 -4.942,-0.951 -8.269,5.513 z"
   id="path97" /><path
   style="fill:#2e087e"
   d="m 346.999,99.854 -3.866,-4.075 c 0,0 -4.806,6.686 -14.104,6.686 -9.298,0 -15.671,-7.94 -15.775,-15.044 h 35.834 c 0,0 1.776,-26.122 -20.79,-26.122 -22.566,0 -21.835,23.928 -21.835,24.764 0,0.836 1.358,21.835 22.88,21.835 0,0.001 9.925,1.045 17.656,-8.044 z M 327.567,66.945 c 13.477,0 14.313,14.94 14.313,14.94 h -28.626 c 10e-4,0 0.836,-14.94 14.313,-14.94 z"
   id="path98" /><path
   style="fill:#2e087e"
   d="m 346.699,126.385 c -10.242,0 -9.91,10.86 -9.91,11.239 0,0.379 0.616,9.91 10.384,9.91 0,0 4.505,0.474 8.013,-3.651 l -1.755,-1.849 c 0,0 -2.181,3.035 -6.401,3.035 -4.22,0 -7.112,-3.604 -7.16,-6.828 h 16.264 c 10e-4,0 0.807,-11.856 -9.435,-11.856 z m -6.828,9.343 c 0,0 0.379,-6.78 6.496,-6.78 6.117,0 6.496,6.78 6.496,6.78 z"
   id="path99" /><path
   style="fill:#2e087e"
   d="m 461.815,61.3 c -22.566,0 -21.835,23.928 -21.835,24.764 0,0.836 1.358,21.835 22.88,21.835 0,0 9.925,1.045 17.656,-8.044 L 476.65,95.78 c 0,0 -4.806,6.686 -14.104,6.686 -9.298,0 -15.671,-7.94 -15.775,-15.044 h 35.834 c 0,0 1.776,-26.122 -20.79,-26.122 z m -15.044,20.585 c 0,0 0.836,-14.94 14.313,-14.94 13.477,0 14.313,14.94 14.313,14.94 z"
   id="path100" /><path
   style="fill:#2e087e"
   d="m 411.773,61.3 c -10.97,0 -15.671,8.675 -15.671,8.675 -5.433,-9.925 -14.626,-8.675 -14.626,-8.675 -8.041,0 -12.391,5.178 -14.208,8.092 v -7.357 h -6.895 v 44.819 h 6.895 v -27.45 c 0.994,-4.853 3.863,-12.459 12.119,-12.459 11.214,0 11.705,11.073 11.716,12.729 v 27.18 h 6.895 V 79.9 c 0,-2.507 1.134,-12.537 12.313,-12.537 11.179,0 11.507,10.865 11.507,10.865 v 28.626 h 6.895 V 77.079 h -0.098 C 428.116,68.671 422.261,61.3 411.773,61.3 Z"
   id="path101" /><path
   style="fill:#2e087e"
   d="m 324.381,126.26 c -3.593,0 -5.828,1.917 -6.973,3.283 v -2.891 h -3.291 v 20.294 h 3.291 v -13.643 c 0.769,-2.277 2.59,-4.431 6.343,-4.431 4.623,0 5.253,6.007 5.253,6.007 v 12.067 h 3.291 v -13.712 h -0.107 c -0.506,-3.935 -2.909,-6.974 -7.807,-6.974 z"
   id="path104" /><polygon
   style="fill:#2e087e"
   points="645.684,555.966 640.277,539.825 637.535,539.825 632.128,555.966 626.879,539.825 623.353,539.825 630.483,560.646 633.46,560.646 638.788,544.448 644.352,560.646 647.251,560.646 654.224,539.825 650.855,539.825 "
   id="polygon104"
   transform="translate(-250,-413.095)" /><path
   style="fill:#2e087e"
   d="m 416.555,126.127 c -5.988,0 -10.842,4.854 -10.842,10.842 0,5.988 4.854,10.842 10.842,10.842 5.988,0 10.842,-4.854 10.842,-10.842 -10e-4,-5.988 -4.855,-10.842 -10.842,-10.842 z m 0,18.791 c -4.39,0 -7.949,-3.559 -7.949,-7.949 0,-4.391 3.559,-7.95 7.949,-7.95 4.391,0 7.95,3.559 7.95,7.95 -10e-4,4.39 -3.56,7.949 -7.95,7.949 z"
   id="path105" /><polygon
   style="fill:#2e087e"
   points="699.853,550.968 699.853,531.128 696.771,531.128 696.771,560.041 699.853,560.041 699.853,554.941 703.875,550.873 711.241,560.041 715.211,560.041 706.226,548.575 714.793,539.799 710.823,539.799 "
   id="polygon105"
   transform="translate(-250,-413.095)" /><path
   style="fill:#2e087e"
   d="m 477.173,135.95 c -5.433,-1.985 -6.634,-2.716 -6.634,-4.127 0,-1.41 1.88,-3.082 4.074,-3.082 2.194,0 5.955,2.246 5.955,2.246 l 1.411,-1.968 c -1.201,-1.185 -4.701,-2.892 -7.209,-2.892 -2.508,0 -7.156,1.674 -7.156,5.853 0,4.179 3.552,5.276 5.38,5.746 1.828,0.47 6.634,0.94 6.634,4.074 0,3.134 -4.179,3.118 -4.179,3.118 -4.545,0 -7.052,-2.439 -7.052,-2.439 l -1.828,2.142 c 0,0 2.978,2.873 8.985,2.873 6.007,0 6.843,-4.806 6.843,-5.694 0,-0.888 0.208,-3.865 -5.224,-5.85 z"
   id="path106" />&#10;</svg>
