
<svg xmlns="http://www.w3.org/2000/svg" xmlns:xlink="http://www.w3.org/1999/xlink" width="64" height="64" viewBox="0 0 64 64" version="1.1">
<defs>
<linearGradient id="linear0" gradientUnits="userSpaceOnUse" x1="32" y1="59.999996" x2="31.999998" y2="3.999999" gradientTransform="matrix(1,0,0,1,-0.00000265208,-0.00000321987)">
<stop offset="0" style="stop-color:rgb(0%,0%,0%);stop-opacity:0.2;"/>
<stop offset="1" style="stop-color:rgb(100%,100%,100%);stop-opacity:0;"/>
</linearGradient>
</defs>
<g id="surface1">
<path style=" stroke:none;fill-rule:nonzero;fill:rgb(36.078432%,41.960785%,75.294119%);fill-opacity:1;" d="M 31.953125 4 C 16.441406 4 3.953125 16.488281 3.953125 32 L 3.953125 56.183594 C 3.953125 58.296875 5.65625 60 7.773438 60 L 32 60 L 32 59.996094 C 47.492188 59.972656 59.957031 47.496094 59.957031 32 C 59.957031 16.488281 47.46875 4 31.953125 4 Z M 31.953125 4 "/>
<path style=" stroke:none;fill-rule:nonzero;fill:rgb(47.450981%,52.549022%,79.607844%);fill-opacity:1;" d="M 40.703125 12 C 34.472656 12 29.453125 17.015625 29.453125 23.25 C 29.453125 29.484375 34.472656 34.5 40.703125 34.5 C 46.9375 34.5 51.953125 29.484375 51.953125 23.25 C 51.953125 17.015625 46.9375 12 40.703125 12 Z M 40.703125 17 C 44.167969 17 46.953125 19.789062 46.953125 23.25 C 46.953125 26.710938 44.167969 29.5 40.703125 29.5 C 37.242188 29.5 34.453125 26.710938 34.453125 23.25 C 34.453125 19.789062 37.242188 17 40.703125 17 Z M 40.703125 17 "/>
<path style=" stroke:none;fill-rule:nonzero;fill:rgb(47.450981%,52.549022%,79.607844%);fill-opacity:1;" d="M 23.203125 29.5 C 16.972656 29.5 11.953125 34.515625 11.953125 40.75 C 11.953125 46.984375 16.972656 52 23.203125 52 C 29.4375 52 34.453125 46.984375 34.453125 40.75 C 34.453125 34.515625 29.4375 29.5 23.203125 29.5 Z M 23.203125 34.5 C 26.667969 34.5 29.453125 37.289062 29.453125 40.75 C 29.453125 44.210938 26.667969 47 23.203125 47 C 19.742188 47 16.953125 44.210938 16.953125 40.75 C 16.953125 37.289062 19.742188 34.5 23.203125 34.5 Z M 23.203125 34.5 "/>
<path style=" stroke:none;fill-rule:nonzero;fill:rgb(93.333334%,93.333334%,93.333334%);fill-opacity:1;" d="M 40.707031 12 C 34.472656 12 29.453125 17.015625 29.453125 23.25 L 29.453125 29.5 L 23.203125 29.5 C 21.820312 29.5 20.703125 30.613281 20.703125 32 C 20.703125 33.386719 21.820312 34.5 23.203125 34.5 L 29.453125 34.5 L 29.453125 40.75 C 29.453125 44.210938 26.667969 47 23.203125 47 C 21.820312 47 20.703125 48.113281 20.703125 49.5 C 20.703125 50.886719 21.820312 52 23.203125 52 C 29.4375 52 34.457031 46.984375 34.457031 40.75 L 34.457031 34.5 L 40.707031 34.5 C 42.089844 34.5 43.207031 33.386719 43.207031 32 C 43.207031 30.613281 42.089844 29.5 40.707031 29.5 L 34.457031 29.5 L 34.457031 23.25 C 34.457031 19.789062 37.242188 17 40.707031 17 C 42.089844 17 43.207031 15.886719 43.207031 14.5 C 43.207031 13.113281 42.089844 12 40.707031 12 Z M 40.707031 12 "/>
<path style=" stroke:none;fill-rule:nonzero;fill:rgb(36.078432%,41.960785%,75.294119%);fill-opacity:1;" d="M 34.5 23.726562 L 40.863281 23.726562 L 40.863281 29.453125 L 34.5 29.453125 Z M 34.5 23.726562 "/>
<path style=" stroke:none;fill-rule:nonzero;fill:rgb(36.078432%,41.960785%,75.294119%);fill-opacity:1;" d="M 23.046875 34.546875 L 29.410156 34.546875 L 29.410156 40.910156 L 23.046875 40.910156 Z M 23.046875 34.546875 "/>
<path style=" stroke:none;fill-rule:nonzero;fill:rgb(100%,100%,100%);fill-opacity:0.6;" d="M 40.707031 12 C 34.472656 12 29.453125 17.015625 29.453125 23.25 L 29.453125 24.25 C 29.453125 18.015625 34.472656 13 40.707031 13 C 41.953125 13 42.933594 13.921875 43.128906 15.109375 C 43.175781 14.914062 43.207031 14.710938 43.207031 14.5 C 43.207031 13.113281 42.089844 12 40.707031 12 Z M 23.203125 29.5 C 21.820312 29.5 20.703125 30.613281 20.703125 32 C 20.703125 32.210938 20.734375 32.414062 20.78125 32.609375 C 20.976562 31.421875 21.957031 30.5 23.203125 30.5 L 29.453125 30.5 L 29.453125 29.5 Z M 34.457031 29.5 L 34.457031 30.5 L 40.707031 30.5 C 41.953125 30.5 42.933594 31.421875 43.128906 32.609375 C 43.175781 32.414062 43.207031 32.210938 43.207031 32 C 43.207031 30.613281 42.089844 29.5 40.707031 29.5 Z M 29.453125 40.75 C 29.453125 44.210938 26.667969 47 23.203125 47 C 21.820312 47 20.703125 48.113281 20.703125 49.5 C 20.703125 49.710938 20.734375 49.914062 20.78125 50.113281 C 20.976562 48.921875 21.957031 48 23.203125 48 C 26.667969 48 29.453125 45.210938 29.453125 41.75 Z M 29.453125 40.75 "/>
<path style=" stroke:none;fill-rule:nonzero;fill:rgb(0%,0%,0%);fill-opacity:0.4;" d="M 43.105469 15 C 42.867188 16.136719 41.914062 17 40.707031 17 C 37.242188 17 34.457031 19.789062 34.457031 23.25 L 34.457031 24.25 C 34.457031 20.789062 37.242188 18 40.707031 18 C 42.089844 18 43.207031 16.886719 43.207031 15.5 C 43.207031 15.324219 43.140625 15.167969 43.105469 15 Z M 20.804688 32.5 C 20.769531 32.667969 20.703125 32.824219 20.703125 33 C 20.703125 34.386719 21.820312 35.5 23.203125 35.5 L 29.453125 35.5 L 29.453125 34.5 L 23.203125 34.5 C 21.996094 34.5 21.042969 33.636719 20.804688 32.5 Z M 43.105469 32.5 C 42.867188 33.636719 41.914062 34.5 40.707031 34.5 L 34.457031 34.5 L 34.457031 35.5 L 40.707031 35.5 C 42.089844 35.5 43.207031 34.386719 43.207031 33 C 43.207031 32.824219 43.140625 32.667969 43.105469 32.5 Z M 34.457031 40.75 C 34.457031 46.984375 29.4375 52 23.203125 52 C 21.996094 52 21.042969 51.136719 20.804688 50 C 20.769531 50.167969 20.703125 50.324219 20.703125 50.5 C 20.703125 51.886719 21.820312 53 23.203125 53 C 29.4375 53 34.457031 47.984375 34.457031 41.75 Z M 34.457031 40.75 "/>
<path style=" stroke:none;fill-rule:nonzero;fill:rgb(100%,100%,100%);fill-opacity:0.4;" d="M 31.953125 4 C 16.441406 4 3.953125 16.488281 3.953125 32 L 3.953125 33 C 3.953125 17.488281 16.441406 5 31.953125 5 C 47.398438 5 59.824219 17.378906 59.9375 32.792969 C 59.941406 32.53125 59.957031 32.265625 59.957031 32 C 59.957031 16.488281 47.46875 4 31.953125 4 Z M 59.921875 33.34375 C 59.90625 34.378906 59.738281 35.367188 59.617188 36.371094 C 59.769531 35.378906 59.871094 34.367188 59.921875 33.34375 Z M 59.921875 33.34375 "/>
<path style=" stroke:none;fill-rule:nonzero;fill:rgb(0%,0%,0%);fill-opacity:0.4;" d="M 4.289062 27.644531 C 4.136719 28.632812 4.039062 29.640625 3.988281 30.660156 C 4.003906 29.628906 4.171875 28.644531 4.289062 27.644531 Z M 59.621094 27.644531 C 59.738281 28.644531 59.90625 29.628906 59.921875 30.660156 C 59.871094 29.640625 59.773438 28.632812 59.621094 27.644531 Z M 59.9375 31.207031 C 59.824219 46.605469 47.421875 58.976562 32 59 L 32 59.003906 L 7.773438 59.003906 C 5.65625 59.003906 3.953125 57.300781 3.953125 55.1875 L 3.953125 56.183594 C 3.953125 58.296875 5.65625 60 7.773438 60 L 32 60 L 32 59.996094 C 47.492188 59.972656 59.957031 47.496094 59.957031 32 C 59.957031 31.734375 59.941406 31.472656 59.9375 31.207031 Z M 59.9375 31.207031 "/>
<path style=" stroke:none;fill-rule:nonzero;fill:rgb(0%,0%,0%);fill-opacity:0.2;" d="M 59.882812 32.753906 C 59.476562 47.890625 47.234375 59.976562 32 60 L 32 60.003906 L 7.773438 60.003906 C 5.65625 60.003906 3.953125 58.300781 3.953125 56.1875 L 3.953125 57.6875 C 3.953125 59.800781 5.65625 61.503906 7.773438 61.503906 L 32 61.503906 L 32 61.5 C 47.492188 61.476562 59.957031 49 59.957031 33.503906 C 59.957031 33.246094 59.886719 33.007812 59.882812 32.753906 Z M 59.882812 32.753906 "/>
<path style=" stroke:none;fill-rule:nonzero;fill:url(#linear0);" d="M 31.953125 4 C 16.441406 4 3.953125 16.488281 3.953125 32 L 3.953125 56.183594 C 3.953125 58.296875 5.65625 60 7.773438 60 L 32 60 L 32 59.996094 C 47.492188 59.972656 59.957031 47.496094 59.957031 32 C 59.957031 16.488281 47.46875 4 31.953125 4 Z M 31.953125 4 "/>
</g>
</svg>
