
<svg xmlns="http://www.w3.org/2000/svg" xmlns:xlink="http://www.w3.org/1999/xlink" width="64" height="64" viewBox="0 0 64 64" version="1.1">
<defs>
<linearGradient id="linear0" gradientUnits="userSpaceOnUse" x1="8.466666" y1="-199.125" x2="8.466666" y2="-213.941666" gradientTransform="matrix(3.779528,0,0,3.779528,0,812.598468)">
<stop offset="0" style="stop-color:rgb(0%,0%,0%);stop-opacity:0.2;"/>
<stop offset="1" style="stop-color:rgb(100%,100%,100%);stop-opacity:0;"/>
</linearGradient>
</defs>
<g id="surface1">
<path style=" stroke:none;fill-rule:nonzero;fill:rgb(47.058824%,56.470591%,61.176473%);fill-opacity:1;" d="M 8 4 L 56 4 C 58.210938 4 60 5.789062 60 8 L 60 56 C 60 58.210938 58.210938 60 56 60 L 8 60 C 5.789062 60 4 58.210938 4 56 L 4 8 C 4 5.789062 5.789062 4 8 4 Z M 8 4 "/>
<path style=" stroke:none;fill-rule:nonzero;fill:rgb(0%,0%,0%);fill-opacity:0.4;" d="M 4 55 L 4 56 C 4 58.214844 5.785156 60 8 60 L 56 60 C 58.214844 60 60 58.214844 60 56 L 60 55 C 60 57.214844 58.214844 59 56 59 L 8 59 C 5.785156 59 4 57.214844 4 55 Z M 4 55 "/>
<path style=" stroke:none;fill-rule:nonzero;fill:rgb(0%,0%,0%);fill-opacity:0.2;" d="M 4 56 L 4 57.5 C 4 59.714844 5.785156 61.5 8 61.5 L 56 61.5 C 58.214844 61.5 60 59.714844 60 57.5 L 60 56 C 60 58.214844 58.214844 60 56 60 L 8 60 C 5.785156 60 4 58.214844 4 56 Z M 4 56 "/>
<path style=" stroke:none;fill-rule:nonzero;fill:rgb(100%,100%,100%);fill-opacity:0.4;" d="M 8 4 C 5.785156 4 4 5.785156 4 8 L 4 8.984375 C 4 6.769531 5.785156 4.984375 8 4.984375 L 56 4.984375 C 58.214844 4.984375 60 6.769531 60 8.984375 L 60 8 C 60 5.785156 58.214844 4 56 4 Z M 8 4 "/>
<path style=" stroke:none;fill-rule:nonzero;fill:rgb(100%,43.921569%,26.274511%);fill-opacity:1;" d="M 4.535156 6 C 4.195312 6.589844 4 7.269531 4 8 L 4 22 L 10 22 C 11.109375 22 12 21.109375 12 20 L 12 8 C 12 6.890625 11.109375 6 10 6 Z M 16 6 C 14.890625 6 14 6.890625 14 8 L 14 20 C 14 21.109375 14.890625 22 16 22 L 48 22 C 49.109375 22 50 21.109375 50 20 L 50 8 C 50 6.890625 49.109375 6 48 6 Z M 54 6 C 52.890625 6 52 6.890625 52 8 L 52 20 C 52 21.109375 52.890625 22 54 22 L 60 22 L 60 8 C 60 7.269531 59.804688 6.589844 59.464844 6 Z M 4 24 L 4 40 L 29 40 C 30.109375 40 31 39.109375 31 38 L 31 26 C 31 24.890625 30.109375 24 29 24 Z M 35 24 C 33.890625 24 33 24.890625 33 26 L 33 38 C 33 39.109375 33.890625 40 35 40 L 60 40 L 60 24 Z M 4 42 L 4 56 C 4 56.730469 4.195312 57.410156 4.535156 58 L 10 58 C 11.109375 58 12 57.109375 12 56 L 12 44 C 12 42.890625 11.109375 42 10 42 Z M 16 42 C 14.890625 42 14 42.890625 14 44 L 14 56 C 14 57.109375 14.890625 58 16 58 L 48 58 C 49.109375 58 50 57.109375 50 56 L 50 44 C 50 42.890625 49.109375 42 48 42 Z M 54 42 C 52.890625 42 52 42.890625 52 44 L 52 56 C 52 57.109375 52.890625 58 54 58 L 59.464844 58 C 59.804688 57.410156 60 56.730469 60 56 L 60 42 Z M 54 42 "/>
<path style=" stroke:none;fill-rule:nonzero;fill:rgb(100%,100%,100%);fill-opacity:0.4;" d="M 4.535156 6 C 4.195312 6.589844 4 7.269531 4 8 L 4 9 C 4 8.269531 4.195312 7.589844 4.535156 7 L 10 7 C 11.109375 7 12 7.890625 12 9 L 12 8 C 12 6.890625 11.109375 6 10 6 Z M 16 6 C 14.890625 6 14 6.890625 14 8 L 14 9 C 14 7.890625 14.890625 7 16 7 L 48 7 C 49.109375 7 50 7.890625 50 9 L 50 8 C 50 6.890625 49.109375 6 48 6 Z M 54 6 C 52.890625 6 52 6.890625 52 8 L 52 9 C 52 7.890625 52.890625 7 54 7 L 59.464844 7 C 59.804688 7.589844 60 8.269531 60 9 L 60 8 C 60 7.269531 59.804688 6.589844 59.464844 6 Z M 4 24 L 4 25 L 29 25 C 30.109375 25 31 25.890625 31 27 L 31 26 C 31 24.890625 30.109375 24 29 24 Z M 35 24 C 33.890625 24 33 24.890625 33 26 L 33 27 C 33 25.890625 33.890625 25 35 25 L 60 25 L 60 24 Z M 4 42 L 4 43 L 10 43 C 11.109375 43 12 43.890625 12 45 L 12 44 C 12 42.890625 11.109375 42 10 42 Z M 16 42 C 14.890625 42 14 42.890625 14 44 L 14 45 C 14 43.890625 14.890625 43 16 43 L 48 43 C 49.109375 43 50 43.890625 50 45 L 50 44 C 50 42.890625 49.109375 42 48 42 Z M 54 42 C 52.890625 42 52 42.890625 52 44 L 52 45 C 52 43.890625 52.890625 43 54 43 L 60 43 L 60 42 Z M 54 42 "/>
<path style=" stroke:none;fill-rule:nonzero;fill:rgb(0%,0%,0%);fill-opacity:0.4;" d="M 4.535156 59 C 4.195312 58.410156 4 57.730469 4 57 L 4 56 C 4 56.730469 4.195312 57.410156 4.535156 58 L 10 58 C 11.109375 58 12 57.109375 12 56 L 12 57 C 12 58.109375 11.109375 59 10 59 Z M 16 59 C 14.890625 59 14 58.109375 14 57 L 14 56 C 14 57.109375 14.890625 58 16 58 L 48 58 C 49.109375 58 50 57.109375 50 56 L 50 57 C 50 58.109375 49.109375 59 48 59 Z M 54 59 C 52.890625 59 52 58.109375 52 57 L 52 56 C 52 57.109375 52.890625 58 54 58 L 59.464844 58 C 59.804688 57.410156 60 56.730469 60 56 L 60 57 C 60 57.730469 59.804688 58.410156 59.464844 59 Z M 4 41 L 4 40 L 29 40 C 30.109375 40 31 39.109375 31 38 L 31 39 C 31 40.109375 30.109375 41 29 41 Z M 35 41 C 33.890625 41 33 40.109375 33 39 L 33 38 C 33 39.109375 33.890625 40 35 40 L 60 40 L 60 41 Z M 4 23 L 4 22 L 10 22 C 11.109375 22 12 21.109375 12 20 L 12 21 C 12 22.109375 11.109375 23 10 23 Z M 16 23 C 14.890625 23 14 22.109375 14 21 L 14 20 C 14 21.109375 14.890625 22 16 22 L 48 22 C 49.109375 22 50 21.109375 50 20 L 50 21 C 50 22.109375 49.109375 23 48 23 Z M 54 23 C 52.890625 23 52 22.109375 52 21 L 52 20 C 52 21.109375 52.890625 22 54 22 L 60 22 L 60 23 Z M 54 23 "/>
<path style=" stroke:none;fill-rule:nonzero;fill:url(#linear0);" d="M 8 4 L 56 4 C 58.210938 4 60 5.789062 60 8 L 60 56 C 60 58.210938 58.210938 60 56 60 L 8 60 C 5.789062 60 4 58.210938 4 56 L 4 8 C 4 5.789062 5.789062 4 8 4 Z M 8 4 "/>
</g>
</svg>
