
<svg xmlns="http://www.w3.org/2000/svg" xmlns:xlink="http://www.w3.org/1999/xlink" width="64" height="64" viewBox="0 0 64 64" version="1.1">
<defs>
<linearGradient id="linear0" gradientUnits="userSpaceOnUse" x1="34" y1="57.999996" x2="34" y2="8" >
<stop offset="0" style="stop-color:rgb(0%,0%,0%);stop-opacity:0.2;"/>
<stop offset="1" style="stop-color:rgb(100%,100%,100%);stop-opacity:0;"/>
</linearGradient>
</defs>
<g id="surface1">
<path style=" stroke:none;fill-rule:nonzero;fill:rgb(12.941177%,58.823532%,95.294118%);fill-opacity:0.996078;" d="M 22 44 L 36 44 C 37.105469 44 38 44.894531 38 46 L 38 50 C 38 51.105469 37.105469 52 36 52 L 22 52 C 20.894531 52 20 51.105469 20 50 L 20 46 C 20 44.894531 20.894531 44 22 44 Z M 22 44 "/>
<path style=" stroke:none;fill-rule:nonzero;fill:rgb(12.941177%,58.823532%,95.294118%);fill-opacity:0.996078;" d="M 44 44 L 50 44 C 51.105469 44 52 44.894531 52 46 L 52 50 C 52 51.105469 51.105469 52 50 52 L 44 52 C 42.894531 52 42 51.105469 42 50 L 42 46 C 42 44.894531 42.894531 44 44 44 Z M 44 44 "/>
<path style=" stroke:none;fill-rule:nonzero;fill:rgb(25.882354%,64.705884%,96.078432%);fill-opacity:0.996078;" d="M 14 16 L 56 16 C 58.210938 16 60 17.789062 60 20 L 60 44 C 60 46.210938 58.210938 48 56 48 L 14 48 C 11.789062 48 10 46.210938 10 44 L 10 20 C 10 17.789062 11.789062 16 14 16 Z M 14 16 "/>
<path style=" stroke:none;fill-rule:nonzero;fill:rgb(38.039216%,38.039216%,38.039216%);fill-opacity:1;" d="M 13 29 L 17 29 C 17.550781 29 18 29.449219 18 30 L 18 34 C 18 34.550781 17.550781 35 17 35 L 13 35 C 12.449219 35 12 34.550781 12 34 L 12 30 C 12 29.449219 12.449219 29 13 29 Z M 13 29 "/>
<path style=" stroke:none;fill-rule:nonzero;fill:rgb(100%,100%,100%);fill-opacity:0.4;" d="M 13 29 C 12.445312 29 12 29.445312 12 30 L 12 31 C 12 30.445312 12.445312 30 13 30 L 17 30 C 17.554688 30 18 30.445312 18 31 L 18 30 C 18 29.445312 17.554688 29 17 29 Z M 13 29 "/>
<path style=" stroke:none;fill-rule:nonzero;fill:rgb(0.392157%,0.392157%,0.392157%);fill-opacity:0.4;" d="M 13 36 C 12.445312 36 12 35.554688 12 35 L 12 34 C 12 34.554688 12.445312 35 13 35 L 17 35 C 17.554688 35 18 34.554688 18 34 L 18 35 C 18 35.554688 17.554688 36 17 36 Z M 13 36 "/>
<path style=" stroke:none;fill-rule:nonzero;fill:rgb(38.039216%,38.039216%,38.039216%);fill-opacity:1;" d="M 13 38 L 17 38 C 17.550781 38 18 38.449219 18 39 L 18 43 C 18 43.550781 17.550781 44 17 44 L 13 44 C 12.449219 44 12 43.550781 12 43 L 12 39 C 12 38.449219 12.449219 38 13 38 Z M 13 38 "/>
<path style=" stroke:none;fill-rule:nonzero;fill:rgb(100%,100%,100%);fill-opacity:0.4;" d="M 13 38 C 12.445312 38 12 38.445312 12 39 L 12 40 C 12 39.445312 12.445312 39 13 39 L 17 39 C 17.554688 39 18 39.445312 18 40 L 18 39 C 18 38.445312 17.554688 38 17 38 Z M 13 38 "/>
<path style=" stroke:none;fill-rule:nonzero;fill:rgb(0.392157%,0.392157%,0.392157%);fill-opacity:0.4;" d="M 13 45 C 12.445312 45 12 44.554688 12 44 L 12 43 C 12 43.554688 12.445312 44 13 44 L 17 44 C 17.554688 44 18 43.554688 18 43 L 18 44 C 18 44.554688 17.554688 45 17 45 Z M 13 45 "/>
<path style=" stroke:none;fill-rule:nonzero;fill:rgb(38.039216%,38.039216%,38.039216%);fill-opacity:1;" d="M 13 20 L 17 20 C 17.550781 20 18 20.449219 18 21 L 18 25 C 18 25.550781 17.550781 26 17 26 L 13 26 C 12.449219 26 12 25.550781 12 25 L 12 21 C 12 20.449219 12.449219 20 13 20 Z M 13 20 "/>
<path style=" stroke:none;fill-rule:nonzero;fill:rgb(100%,100%,100%);fill-opacity:0.4;" d="M 13 20 C 12.445312 20 12 20.445312 12 21 L 12 22 C 12 21.445312 12.445312 21 13 21 L 17 21 C 17.554688 21 18 21.445312 18 22 L 18 21 C 18 20.445312 17.554688 20 17 20 Z M 13 20 "/>
<path style=" stroke:none;fill-rule:nonzero;fill:rgb(0.392157%,0.392157%,0.392157%);fill-opacity:0.4;" d="M 13 27 C 12.445312 27 12 26.554688 12 26 L 12 25 C 12 25.554688 12.445312 26 13 26 L 17 26 C 17.554688 26 18 25.554688 18 25 L 18 26 C 18 26.554688 17.554688 27 17 27 Z M 13 27 "/>
<path style=" stroke:none;fill-rule:nonzero;fill:rgb(0.392157%,0.392157%,0.392157%);fill-opacity:0.4;" d="M 28 44.488281 C 27.722656 44.488281 27.5 44.265625 27.5 43.988281 L 27.5 43.488281 C 27.5 43.765625 27.722656 43.988281 28 43.988281 C 28.277344 43.988281 28.5 43.765625 28.5 43.488281 L 28.5 43.988281 C 28.5 44.265625 28.277344 44.488281 28 44.488281 Z M 30 44.488281 C 29.722656 44.488281 29.5 44.265625 29.5 43.988281 L 29.5 43.488281 C 29.5 43.765625 29.722656 43.988281 30 43.988281 C 30.277344 43.988281 30.5 43.765625 30.5 43.488281 L 30.5 43.988281 C 30.5 44.265625 30.277344 44.488281 30 44.488281 Z M 32 44.488281 C 31.722656 44.488281 31.5 44.265625 31.5 43.988281 L 31.5 43.488281 C 31.5 43.765625 31.722656 43.988281 32 43.988281 C 32.277344 43.988281 32.5 43.765625 32.5 43.488281 L 32.5 43.988281 C 32.5 44.265625 32.277344 44.488281 32 44.488281 Z M 34 44.488281 C 33.722656 44.488281 33.5 44.265625 33.5 43.988281 L 33.5 43.488281 C 33.5 43.765625 33.722656 43.988281 34 43.988281 C 34.277344 43.988281 34.5 43.765625 34.5 43.488281 L 34.5 43.988281 C 34.5 44.265625 34.277344 44.488281 34 44.488281 Z M 36 44.488281 C 35.722656 44.488281 35.5 44.265625 35.5 43.988281 L 35.5 43.488281 C 35.5 43.765625 35.722656 43.988281 36 43.988281 C 36.277344 43.988281 36.5 43.765625 36.5 43.488281 L 36.5 43.988281 C 36.5 44.265625 36.277344 44.488281 36 44.488281 Z M 38 44.488281 C 37.722656 44.488281 37.5 44.265625 37.5 43.988281 L 37.5 43.488281 C 37.5 43.765625 37.722656 43.988281 38 43.988281 C 38.277344 43.988281 38.5 43.765625 38.5 43.488281 L 38.5 43.988281 C 38.5 44.265625 38.277344 44.488281 38 44.488281 Z M 40 44.488281 C 39.722656 44.488281 39.5 44.265625 39.5 43.988281 L 39.5 43.488281 C 39.5 43.765625 39.722656 43.988281 40 43.988281 C 40.277344 43.988281 40.5 43.765625 40.5 43.488281 L 40.5 43.988281 C 40.5 44.265625 40.277344 44.488281 40 44.488281 Z M 42 44.488281 C 41.722656 44.488281 41.5 44.265625 41.5 43.988281 L 41.5 43.488281 C 41.5 43.765625 41.722656 43.988281 42 43.988281 C 42.277344 43.988281 42.5 43.765625 42.5 43.488281 L 42.5 43.988281 C 42.5 44.265625 42.277344 44.488281 42 44.488281 Z M 44 44.488281 C 43.722656 44.488281 43.5 44.265625 43.5 43.988281 L 43.5 43.488281 C 43.5 43.765625 43.722656 43.988281 44 43.988281 C 44.277344 43.988281 44.5 43.765625 44.5 43.488281 L 44.5 43.988281 C 44.5 44.265625 44.277344 44.488281 44 44.488281 Z M 24.5 40.988281 C 24.222656 40.988281 24 40.765625 24 40.488281 C 24 40.398438 24.027344 40.316406 24.070312 40.242188 C 24.15625 40.390625 24.316406 40.488281 24.5 40.488281 L 27.5 40.488281 L 27.5 40.988281 Z M 28.5 40.988281 L 28.5 40.488281 L 29.5 40.488281 L 29.5 40.988281 Z M 30.5 40.988281 L 30.5 40.488281 L 31.5 40.488281 L 31.5 40.988281 Z M 32.5 40.988281 L 32.5 40.488281 L 33.5 40.488281 L 33.5 40.988281 Z M 34.5 40.988281 L 34.5 40.488281 L 35.5 40.488281 L 35.5 40.988281 Z M 36.5 40.988281 L 36.5 40.488281 L 37.5 40.488281 L 37.5 40.988281 Z M 38.5 40.988281 L 38.5 40.488281 L 39.5 40.488281 L 39.5 40.988281 Z M 40.5 40.988281 L 40.5 40.488281 L 41.5 40.488281 L 41.5 40.988281 Z M 42.5 40.988281 L 42.5 40.488281 L 43.5 40.488281 L 43.5 40.988281 Z M 44.5 40.988281 L 44.5 40.488281 L 47.5 40.488281 C 47.683594 40.488281 47.84375 40.390625 47.933594 40.242188 C 47.972656 40.316406 48 40.398438 48 40.488281 C 48 40.765625 47.777344 40.988281 47.5 40.988281 Z M 24.5 38.988281 C 24.222656 38.988281 24 38.765625 24 38.488281 C 24 38.398438 24.027344 38.316406 24.070312 38.242188 C 24.15625 38.390625 24.316406 38.488281 24.5 38.488281 L 27.5 38.488281 L 27.5 38.988281 Z M 28.5 38.988281 L 28.5 38.488281 L 29.5 38.488281 L 29.5 38.988281 Z M 30.5 38.988281 L 30.5 38.488281 L 31.5 38.488281 L 31.5 38.988281 Z M 32.5 38.988281 L 32.5 38.488281 L 33.5 38.488281 L 33.5 38.988281 Z M 34.5 38.988281 L 34.5 38.488281 L 35.5 38.488281 L 35.5 38.988281 Z M 36.5 38.988281 L 36.5 38.488281 L 37.5 38.488281 L 37.5 38.988281 Z M 38.5 38.988281 L 38.5 38.488281 L 39.5 38.488281 L 39.5 38.988281 Z M 40.5 38.988281 L 40.5 38.488281 L 41.5 38.488281 L 41.5 38.988281 Z M 42.5 38.988281 L 42.5 38.488281 L 43.5 38.488281 L 43.5 38.988281 Z M 44.5 38.988281 L 44.5 38.488281 L 47.5 38.488281 C 47.683594 38.488281 47.84375 38.390625 47.933594 38.242188 C 47.972656 38.316406 48 38.398438 48 38.488281 C 48 38.765625 47.777344 38.988281 47.5 38.988281 Z M 24.5 36.988281 C 24.222656 36.988281 24 36.765625 24 36.488281 C 24 36.398438 24.027344 36.316406 24.070312 36.242188 C 24.15625 36.390625 24.316406 36.488281 24.5 36.488281 L 27.5 36.488281 L 27.5 36.988281 Z M 28.5 36.988281 L 28.5 36.488281 L 29.5 36.488281 L 29.5 36.988281 Z M 30.5 36.988281 L 30.5 36.488281 L 31.5 36.488281 L 31.5 36.988281 Z M 32.5 36.988281 L 32.5 36.488281 L 33.5 36.488281 L 33.5 36.988281 Z M 34.5 36.988281 L 34.5 36.488281 L 35.5 36.488281 L 35.5 36.988281 Z M 36.5 36.988281 L 36.5 36.488281 L 37.5 36.488281 L 37.5 36.988281 Z M 38.5 36.988281 L 38.5 36.488281 L 39.5 36.488281 L 39.5 36.988281 Z M 40.5 36.988281 L 40.5 36.488281 L 41.5 36.488281 L 41.5 36.988281 Z M 42.5 36.988281 L 42.5 36.488281 L 43.5 36.488281 L 43.5 36.988281 Z M 44.5 36.988281 L 44.5 36.488281 L 47.5 36.488281 C 47.683594 36.488281 47.84375 36.390625 47.933594 36.242188 C 47.972656 36.316406 48 36.398438 48 36.488281 C 48 36.765625 47.777344 36.988281 47.5 36.988281 Z M 24.5 34.988281 C 24.222656 34.988281 24 34.765625 24 34.488281 C 24 34.398438 24.027344 34.316406 24.070312 34.242188 C 24.15625 34.390625 24.316406 34.488281 24.5 34.488281 L 27.5 34.488281 L 27.5 34.988281 Z M 28.5 34.988281 L 28.5 34.488281 L 29.5 34.488281 L 29.5 34.988281 Z M 30.5 34.988281 L 30.5 34.488281 L 31.5 34.488281 L 31.5 34.988281 Z M 32.5 34.988281 L 32.5 34.488281 L 33.5 34.488281 L 33.5 34.988281 Z M 34.5 34.988281 L 34.5 34.488281 L 35.5 34.488281 L 35.5 34.988281 Z M 36.5 34.988281 L 36.5 34.488281 L 37.5 34.488281 L 37.5 34.988281 Z M 38.5 34.988281 L 38.5 34.488281 L 39.5 34.488281 L 39.5 34.988281 Z M 40.5 34.988281 L 40.5 34.488281 L 41.5 34.488281 L 41.5 34.988281 Z M 42.5 34.988281 L 42.5 34.488281 L 43.5 34.488281 L 43.5 34.988281 Z M 44.5 34.988281 L 44.5 34.488281 L 47.5 34.488281 C 47.683594 34.488281 47.84375 34.390625 47.933594 34.242188 C 47.972656 34.316406 48 34.398438 48 34.488281 C 48 34.765625 47.777344 34.988281 47.5 34.988281 Z M 24.5 32.988281 C 24.222656 32.988281 24 32.765625 24 32.488281 C 24 32.398438 24.027344 32.316406 24.070312 32.242188 C 24.15625 32.390625 24.316406 32.488281 24.5 32.488281 L 27.5 32.488281 L 27.5 32.988281 Z M 28.5 32.988281 L 28.5 32.488281 L 29.5 32.488281 L 29.5 32.988281 Z M 30.5 32.988281 L 30.5 32.488281 L 31.5 32.488281 L 31.5 32.988281 Z M 32.5 32.988281 L 32.5 32.488281 L 33.5 32.488281 L 33.5 32.988281 Z M 34.5 32.988281 L 34.5 32.488281 L 35.5 32.488281 L 35.5 32.988281 Z M 36.5 32.988281 L 36.5 32.488281 L 37.5 32.488281 L 37.5 32.988281 Z M 38.5 32.988281 L 38.5 32.488281 L 39.5 32.488281 L 39.5 32.988281 Z M 40.5 32.988281 L 40.5 32.488281 L 41.5 32.488281 L 41.5 32.988281 Z M 42.5 32.988281 L 42.5 32.488281 L 43.5 32.488281 L 43.5 32.988281 Z M 44.5 32.988281 L 44.5 32.488281 L 47.5 32.488281 C 47.683594 32.488281 47.84375 32.390625 47.933594 32.242188 C 47.972656 32.316406 48 32.398438 48 32.488281 C 48 32.765625 47.777344 32.988281 47.5 32.988281 Z M 24.5 30.988281 C 24.222656 30.988281 24 30.765625 24 30.488281 C 24 30.398438 24.027344 30.316406 24.070312 30.242188 C 24.15625 30.390625 24.316406 30.488281 24.5 30.488281 L 27.5 30.488281 L 27.5 30.988281 Z M 28.5 30.988281 L 28.5 30.488281 L 29.5 30.488281 L 29.5 30.988281 Z M 30.5 30.988281 L 30.5 30.488281 L 31.5 30.488281 L 31.5 30.988281 Z M 32.5 30.988281 L 32.5 30.488281 L 33.5 30.488281 L 33.5 30.988281 Z M 34.5 30.988281 L 34.5 30.488281 L 35.5 30.488281 L 35.5 30.988281 Z M 36.5 30.988281 L 36.5 30.488281 L 37.5 30.488281 L 37.5 30.988281 Z M 38.5 30.988281 L 38.5 30.488281 L 39.5 30.488281 L 39.5 30.988281 Z M 40.5 30.988281 L 40.5 30.488281 L 41.5 30.488281 L 41.5 30.988281 Z M 42.5 30.988281 L 42.5 30.488281 L 43.5 30.488281 L 43.5 30.988281 Z M 44.5 30.988281 L 44.5 30.488281 L 47.5 30.488281 C 47.683594 30.488281 47.84375 30.390625 47.933594 30.242188 C 47.972656 30.316406 48 30.398438 48 30.488281 C 48 30.765625 47.777344 30.988281 47.5 30.988281 Z M 24.5 28.988281 C 24.222656 28.988281 24 28.765625 24 28.488281 C 24 28.398438 24.027344 28.316406 24.070312 28.242188 C 24.15625 28.390625 24.316406 28.488281 24.5 28.488281 L 27.5 28.488281 L 27.5 28.988281 Z M 28.5 28.988281 L 28.5 28.488281 L 29.5 28.488281 L 29.5 28.988281 Z M 30.5 28.988281 L 30.5 28.488281 L 31.5 28.488281 L 31.5 28.988281 Z M 32.5 28.988281 L 32.5 28.488281 L 33.5 28.488281 L 33.5 28.988281 Z M 34.5 28.988281 L 34.5 28.488281 L 35.5 28.488281 L 35.5 28.988281 Z M 36.5 28.988281 L 36.5 28.488281 L 37.5 28.488281 L 37.5 28.988281 Z M 38.5 28.988281 L 38.5 28.488281 L 39.5 28.488281 L 39.5 28.988281 Z M 40.5 28.988281 L 40.5 28.488281 L 41.5 28.488281 L 41.5 28.988281 Z M 42.5 28.988281 L 42.5 28.488281 L 43.5 28.488281 L 43.5 28.988281 Z M 44.5 28.988281 L 44.5 28.488281 L 47.5 28.488281 C 47.683594 28.488281 47.84375 28.390625 47.933594 28.242188 C 47.972656 28.316406 48 28.398438 48 28.488281 C 48 28.765625 47.777344 28.988281 47.5 28.988281 Z M 24.5 26.988281 C 24.222656 26.988281 24 26.765625 24 26.488281 C 24 26.398438 24.027344 26.316406 24.070312 26.242188 C 24.15625 26.390625 24.316406 26.488281 24.5 26.488281 L 27.5 26.488281 L 27.5 26.988281 Z M 28.5 26.988281 L 28.5 26.488281 L 29.5 26.488281 L 29.5 26.988281 Z M 30.5 26.988281 L 30.5 26.488281 L 31.5 26.488281 L 31.5 26.988281 Z M 32.5 26.988281 L 32.5 26.488281 L 33.5 26.488281 L 33.5 26.988281 Z M 34.5 26.988281 L 34.5 26.488281 L 35.5 26.488281 L 35.5 26.988281 Z M 36.5 26.988281 L 36.5 26.488281 L 37.5 26.488281 L 37.5 26.988281 Z M 38.5 26.988281 L 38.5 26.488281 L 39.5 26.488281 L 39.5 26.988281 Z M 40.5 26.988281 L 40.5 26.488281 L 41.5 26.488281 L 41.5 26.988281 Z M 42.5 26.988281 L 42.5 26.488281 L 43.5 26.488281 L 43.5 26.988281 Z M 44.5 26.988281 L 44.5 26.488281 L 47.5 26.488281 C 47.683594 26.488281 47.84375 26.390625 47.933594 26.242188 C 47.972656 26.316406 48 26.398438 48 26.488281 C 48 26.765625 47.777344 26.988281 47.5 26.988281 Z M 24.5 24.988281 C 24.222656 24.988281 24 24.765625 24 24.488281 C 24 24.398438 24.027344 24.316406 24.070312 24.242188 C 24.15625 24.390625 24.316406 24.488281 24.5 24.488281 L 27.5 24.488281 L 27.5 24.988281 Z M 28.5 24.988281 L 28.5 24.488281 L 29.5 24.488281 L 29.5 24.988281 Z M 30.5 24.988281 L 30.5 24.488281 L 31.5 24.488281 L 31.5 24.988281 Z M 32.5 24.988281 L 32.5 24.488281 L 33.5 24.488281 L 33.5 24.988281 Z M 34.5 24.988281 L 34.5 24.488281 L 35.5 24.488281 L 35.5 24.988281 Z M 36.5 24.988281 L 36.5 24.488281 L 37.5 24.488281 L 37.5 24.988281 Z M 38.5 24.988281 L 38.5 24.488281 L 39.5 24.488281 L 39.5 24.988281 Z M 40.5 24.988281 L 40.5 24.488281 L 41.5 24.488281 L 41.5 24.988281 Z M 42.5 24.988281 L 42.5 24.488281 L 43.5 24.488281 L 43.5 24.988281 Z M 44.5 24.988281 L 44.5 24.488281 L 47.5 24.488281 C 47.683594 24.488281 47.84375 24.390625 47.933594 24.242188 C 47.972656 24.316406 48 24.398438 48 24.488281 C 48 24.765625 47.777344 24.988281 47.5 24.988281 Z M 44.5 24.988281 "/>
<path style=" stroke:none;fill-rule:nonzero;fill:rgb(0.392157%,0.392157%,0.392157%);fill-opacity:0.4;" d="M 14 48 C 11.785156 48 10 46.214844 10 44 L 10 43 C 10 45.214844 11.785156 47 14 47 L 56 47 C 58.214844 47 60 45.214844 60 43 L 60 44 C 60 46.214844 58.214844 48 56 48 Z M 14 48 "/>
<path style=" stroke:none;fill-rule:nonzero;fill:rgb(74.117649%,74.117649%,74.117649%);fill-opacity:0.996078;" d="M 28 20 C 27.722656 20 27.5 20.222656 27.5 20.5 L 27.5 23.5 L 24.5 23.5 C 24.222656 23.5 24 23.722656 24 24 C 24 24.277344 24.222656 24.5 24.5 24.5 L 27.5 24.5 L 27.5 25.5 L 24.5 25.5 C 24.222656 25.5 24 25.722656 24 26 C 24 26.277344 24.222656 26.5 24.5 26.5 L 27.5 26.5 L 27.5 27.5 L 24.5 27.5 C 24.222656 27.5 24 27.722656 24 28 C 24 28.277344 24.222656 28.5 24.5 28.5 L 27.5 28.5 L 27.5 29.5 L 24.5 29.5 C 24.222656 29.5 24 29.722656 24 30 C 24 30.277344 24.222656 30.5 24.5 30.5 L 27.5 30.5 L 27.5 31.5 L 24.5 31.5 C 24.222656 31.5 24 31.722656 24 32 C 24 32.277344 24.222656 32.5 24.5 32.5 L 27.5 32.5 L 27.5 33.5 L 24.5 33.5 C 24.222656 33.5 24 33.722656 24 34 C 24 34.277344 24.222656 34.5 24.5 34.5 L 27.5 34.5 L 27.5 35.5 L 24.5 35.5 C 24.222656 35.5 24 35.722656 24 36 C 24 36.277344 24.222656 36.5 24.5 36.5 L 27.5 36.5 L 27.5 37.5 L 24.5 37.5 C 24.222656 37.5 24 37.722656 24 38 C 24 38.277344 24.222656 38.5 24.5 38.5 L 27.5 38.5 L 27.5 39.5 L 24.5 39.5 C 24.222656 39.5 24 39.722656 24 40 C 24 40.277344 24.222656 40.5 24.5 40.5 L 27.5 40.5 L 27.5 43.5 C 27.5 43.777344 27.722656 44 28 44 C 28.277344 44 28.5 43.777344 28.5 43.5 L 28.5 40.5 L 29.5 40.5 L 29.5 43.5 C 29.5 43.777344 29.722656 44 30 44 C 30.277344 44 30.5 43.777344 30.5 43.5 L 30.5 40.5 L 31.5 40.5 L 31.5 43.5 C 31.5 43.777344 31.722656 44 32 44 C 32.277344 44 32.5 43.777344 32.5 43.5 L 32.5 40.5 L 33.5 40.5 L 33.5 43.5 C 33.5 43.777344 33.722656 44 34 44 C 34.277344 44 34.5 43.777344 34.5 43.5 L 34.5 40.5 L 35.5 40.5 L 35.5 43.5 C 35.5 43.777344 35.722656 44 36 44 C 36.277344 44 36.5 43.777344 36.5 43.5 L 36.5 40.5 L 37.5 40.5 L 37.5 43.5 C 37.5 43.777344 37.722656 44 38 44 C 38.277344 44 38.5 43.777344 38.5 43.5 L 38.5 40.5 L 39.5 40.5 L 39.5 43.5 C 39.5 43.777344 39.722656 44 40 44 C 40.277344 44 40.5 43.777344 40.5 43.5 L 40.5 40.5 L 41.5 40.5 L 41.5 43.5 C 41.5 43.777344 41.722656 44 42 44 C 42.277344 44 42.5 43.777344 42.5 43.5 L 42.5 40.5 L 43.5 40.5 L 43.5 43.5 C 43.5 43.777344 43.722656 44 44 44 C 44.277344 44 44.5 43.777344 44.5 43.5 L 44.5 40.5 L 47.5 40.5 C 47.777344 40.5 48 40.277344 48 40 C 48 39.722656 47.777344 39.5 47.5 39.5 L 44.5 39.5 L 44.5 38.5 L 47.5 38.5 C 47.777344 38.5 48 38.277344 48 38 C 48 37.722656 47.777344 37.5 47.5 37.5 L 44.5 37.5 L 44.5 36.5 L 47.5 36.5 C 47.777344 36.5 48 36.277344 48 36 C 48 35.722656 47.777344 35.5 47.5 35.5 L 44.5 35.5 L 44.5 34.5 L 47.5 34.5 C 47.777344 34.5 48 34.277344 48 34 C 48 33.722656 47.777344 33.5 47.5 33.5 L 44.5 33.5 L 44.5 32.5 L 47.5 32.5 C 47.777344 32.5 48 32.277344 48 32 C 48 31.722656 47.777344 31.5 47.5 31.5 L 44.5 31.5 L 44.5 30.5 L 47.5 30.5 C 47.777344 30.5 48 30.277344 48 30 C 48 29.722656 47.777344 29.5 47.5 29.5 L 44.5 29.5 L 44.5 28.5 L 47.5 28.5 C 47.777344 28.5 48 28.277344 48 28 C 48 27.722656 47.777344 27.5 47.5 27.5 L 44.5 27.5 L 44.5 26.5 L 47.5 26.5 C 47.777344 26.5 48 26.277344 48 26 C 48 25.722656 47.777344 25.5 47.5 25.5 L 44.5 25.5 L 44.5 24.5 L 47.5 24.5 C 47.777344 24.5 48 24.277344 48 24 C 48 23.722656 47.777344 23.5 47.5 23.5 L 44.5 23.5 L 44.5 20.5 C 44.5 20.222656 44.277344 20 44 20 C 43.722656 20 43.5 20.222656 43.5 20.5 L 43.5 23.5 L 42.5 23.5 L 42.5 20.5 C 42.5 20.222656 42.277344 20 42 20 C 41.722656 20 41.5 20.222656 41.5 20.5 L 41.5 23.5 L 40.5 23.5 L 40.5 20.5 C 40.5 20.222656 40.277344 20 40 20 C 39.722656 20 39.5 20.222656 39.5 20.5 L 39.5 23.5 L 38.5 23.5 L 38.5 20.5 C 38.5 20.222656 38.277344 20 38 20 C 37.722656 20 37.5 20.222656 37.5 20.5 L 37.5 23.5 L 36.5 23.5 L 36.5 20.5 C 36.5 20.222656 36.277344 20 36 20 C 35.722656 20 35.5 20.222656 35.5 20.5 L 35.5 23.5 L 34.5 23.5 L 34.5 20.5 C 34.5 20.222656 34.277344 20 34 20 C 33.722656 20 33.5 20.222656 33.5 20.5 L 33.5 23.5 L 32.5 23.5 L 32.5 20.5 C 32.5 20.222656 32.277344 20 32 20 C 31.722656 20 31.5 20.222656 31.5 20.5 L 31.5 23.5 L 30.5 23.5 L 30.5 20.5 C 30.5 20.222656 30.277344 20 30 20 C 29.722656 20 29.5 20.222656 29.5 20.5 L 29.5 23.5 L 28.5 23.5 L 28.5 20.5 C 28.5 20.222656 28.277344 20 28 20 Z M 28.5 24.5 L 29.5 24.5 L 29.5 25.5 L 28.5 25.5 Z M 30.5 24.5 L 31.5 24.5 L 31.5 25.5 L 30.5 25.5 Z M 32.5 24.5 L 33.5 24.5 L 33.5 25.5 L 32.5 25.5 Z M 34.5 24.5 L 35.5 24.5 L 35.5 25.5 L 34.5 25.5 Z M 36.5 24.5 L 37.5 24.5 L 37.5 25.5 L 36.5 25.5 Z M 38.5 24.5 L 39.5 24.5 L 39.5 25.5 L 38.5 25.5 Z M 40.5 24.5 L 41.5 24.5 L 41.5 25.5 L 40.5 25.5 Z M 42.5 24.5 L 43.5 24.5 L 43.5 25.5 L 42.5 25.5 Z M 28.5 26.5 L 29.5 26.5 L 29.5 27.5 L 28.5 27.5 Z M 30.5 26.5 L 31.5 26.5 L 31.5 27.5 L 30.5 27.5 Z M 32.5 26.5 L 33.5 26.5 L 33.5 27.5 L 32.5 27.5 Z M 34.5 26.5 L 35.5 26.5 L 35.5 27.5 L 34.5 27.5 Z M 36.5 26.5 L 37.5 26.5 L 37.5 27.5 L 36.5 27.5 Z M 38.5 26.5 L 39.5 26.5 L 39.5 27.5 L 38.5 27.5 Z M 40.5 26.5 L 41.5 26.5 L 41.5 27.5 L 40.5 27.5 Z M 42.5 26.5 L 43.5 26.5 L 43.5 27.5 L 42.5 27.5 Z M 28.5 28.5 L 29.5 28.5 L 29.5 29.5 L 28.5 29.5 Z M 30.5 28.5 L 31.5 28.5 L 31.5 29.5 L 30.5 29.5 Z M 32.5 28.5 L 33.5 28.5 L 33.5 29.5 L 32.5 29.5 Z M 34.5 28.5 L 35.5 28.5 L 35.5 29.5 L 34.5 29.5 Z M 36.5 28.5 L 37.5 28.5 L 37.5 29.5 L 36.5 29.5 Z M 38.5 28.5 L 39.5 28.5 L 39.5 29.5 L 38.5 29.5 Z M 40.5 28.5 L 41.5 28.5 L 41.5 29.5 L 40.5 29.5 Z M 42.5 28.5 L 43.5 28.5 L 43.5 29.5 L 42.5 29.5 Z M 28.5 30.5 L 29.5 30.5 L 29.5 31.5 L 28.5 31.5 Z M 30.5 30.5 L 31.5 30.5 L 31.5 31.5 L 30.5 31.5 Z M 32.5 30.5 L 33.5 30.5 L 33.5 31.5 L 32.5 31.5 Z M 34.5 30.5 L 35.5 30.5 L 35.5 31.5 L 34.5 31.5 Z M 36.5 30.5 L 37.5 30.5 L 37.5 31.5 L 36.5 31.5 Z M 38.5 30.5 L 39.5 30.5 L 39.5 31.5 L 38.5 31.5 Z M 40.5 30.5 L 41.5 30.5 L 41.5 31.5 L 40.5 31.5 Z M 42.5 30.5 L 43.5 30.5 L 43.5 31.5 L 42.5 31.5 Z M 28.5 32.5 L 29.5 32.5 L 29.5 33.5 L 28.5 33.5 Z M 30.5 32.5 L 31.5 32.5 L 31.5 33.5 L 30.5 33.5 Z M 32.5 32.5 L 33.5 32.5 L 33.5 33.5 L 32.5 33.5 Z M 34.5 32.5 L 35.5 32.5 L 35.5 33.5 L 34.5 33.5 Z M 36.5 32.5 L 37.5 32.5 L 37.5 33.5 L 36.5 33.5 Z M 38.5 32.5 L 39.5 32.5 L 39.5 33.5 L 38.5 33.5 Z M 40.5 32.5 L 41.5 32.5 L 41.5 33.5 L 40.5 33.5 Z M 42.5 32.5 L 43.5 32.5 L 43.5 33.5 L 42.5 33.5 Z M 28.5 34.5 L 29.5 34.5 L 29.5 35.5 L 28.5 35.5 Z M 30.5 34.5 L 31.5 34.5 L 31.5 35.5 L 30.5 35.5 Z M 32.5 34.5 L 33.5 34.5 L 33.5 35.5 L 32.5 35.5 Z M 34.5 34.5 L 35.5 34.5 L 35.5 35.5 L 34.5 35.5 Z M 36.5 34.5 L 37.5 34.5 L 37.5 35.5 L 36.5 35.5 Z M 38.5 34.5 L 39.5 34.5 L 39.5 35.5 L 38.5 35.5 Z M 40.5 34.5 L 41.5 34.5 L 41.5 35.5 L 40.5 35.5 Z M 42.5 34.5 L 43.5 34.5 L 43.5 35.5 L 42.5 35.5 Z M 28.5 36.5 L 29.5 36.5 L 29.5 37.5 L 28.5 37.5 Z M 30.5 36.5 L 31.5 36.5 L 31.5 37.5 L 30.5 37.5 Z M 32.5 36.5 L 33.5 36.5 L 33.5 37.5 L 32.5 37.5 Z M 34.5 36.5 L 35.5 36.5 L 35.5 37.5 L 34.5 37.5 Z M 36.5 36.5 L 37.5 36.5 L 37.5 37.5 L 36.5 37.5 Z M 38.5 36.5 L 39.5 36.5 L 39.5 37.5 L 38.5 37.5 Z M 40.5 36.5 L 41.5 36.5 L 41.5 37.5 L 40.5 37.5 Z M 42.5 36.5 L 43.5 36.5 L 43.5 37.5 L 42.5 37.5 Z M 28.5 38.5 L 29.5 38.5 L 29.5 39.5 L 28.5 39.5 Z M 30.5 38.5 L 31.5 38.5 L 31.5 39.5 L 30.5 39.5 Z M 32.5 38.5 L 33.5 38.5 L 33.5 39.5 L 32.5 39.5 Z M 34.5 38.5 L 35.5 38.5 L 35.5 39.5 L 34.5 39.5 Z M 36.5 38.5 L 37.5 38.5 L 37.5 39.5 L 36.5 39.5 Z M 38.5 38.5 L 39.5 38.5 L 39.5 39.5 L 38.5 39.5 Z M 40.5 38.5 L 41.5 38.5 L 41.5 39.5 L 40.5 39.5 Z M 42.5 38.5 L 43.5 38.5 L 43.5 39.5 L 42.5 39.5 Z M 42.5 38.5 "/>
<path style=" stroke:none;fill-rule:nonzero;fill:rgb(100%,100%,100%);fill-opacity:0.4;" d="M 14 16 C 11.785156 16 10 17.785156 10 20 L 10 21 C 10 18.785156 11.785156 17 14 17 L 56 17 C 58.214844 17 60 18.785156 60 21 L 60 20 C 60 17.785156 58.214844 16 56 16 Z M 14 16 "/>
<path style=" stroke:none;fill-rule:nonzero;fill:rgb(100%,100%,100%);fill-opacity:0.4;" d="M 28 20 C 27.722656 20 27.5 20.222656 27.5 20.5 L 27.5 21 C 27.5 20.722656 27.722656 20.5 28 20.5 C 28.277344 20.5 28.5 20.722656 28.5 21 L 28.5 20.5 C 28.5 20.222656 28.277344 20 28 20 Z M 30 20 C 29.722656 20 29.5 20.222656 29.5 20.5 L 29.5 21 C 29.5 20.722656 29.722656 20.5 30 20.5 C 30.277344 20.5 30.5 20.722656 30.5 21 L 30.5 20.5 C 30.5 20.222656 30.277344 20 30 20 Z M 32 20 C 31.722656 20 31.5 20.222656 31.5 20.5 L 31.5 21 C 31.5 20.722656 31.722656 20.5 32 20.5 C 32.277344 20.5 32.5 20.722656 32.5 21 L 32.5 20.5 C 32.5 20.222656 32.277344 20 32 20 Z M 34 20 C 33.722656 20 33.5 20.222656 33.5 20.5 L 33.5 21 C 33.5 20.722656 33.722656 20.5 34 20.5 C 34.277344 20.5 34.5 20.722656 34.5 21 L 34.5 20.5 C 34.5 20.222656 34.277344 20 34 20 Z M 36 20 C 35.722656 20 35.5 20.222656 35.5 20.5 L 35.5 21 C 35.5 20.722656 35.722656 20.5 36 20.5 C 36.277344 20.5 36.5 20.722656 36.5 21 L 36.5 20.5 C 36.5 20.222656 36.277344 20 36 20 Z M 38 20 C 37.722656 20 37.5 20.222656 37.5 20.5 L 37.5 21 C 37.5 20.722656 37.722656 20.5 38 20.5 C 38.277344 20.5 38.5 20.722656 38.5 21 L 38.5 20.5 C 38.5 20.222656 38.277344 20 38 20 Z M 40 20 C 39.722656 20 39.5 20.222656 39.5 20.5 L 39.5 21 C 39.5 20.722656 39.722656 20.5 40 20.5 C 40.277344 20.5 40.5 20.722656 40.5 21 L 40.5 20.5 C 40.5 20.222656 40.277344 20 40 20 Z M 42 20 C 41.722656 20 41.5 20.222656 41.5 20.5 L 41.5 21 C 41.5 20.722656 41.722656 20.5 42 20.5 C 42.277344 20.5 42.5 20.722656 42.5 21 L 42.5 20.5 C 42.5 20.222656 42.277344 20 42 20 Z M 44 20 C 43.722656 20 43.5 20.222656 43.5 20.5 L 43.5 21 C 43.5 20.722656 43.722656 20.5 44 20.5 C 44.277344 20.5 44.5 20.722656 44.5 21 L 44.5 20.5 C 44.5 20.222656 44.277344 20 44 20 Z M 24.5 23.5 C 24.222656 23.5 24 23.722656 24 24 C 24 24.089844 24.027344 24.175781 24.066406 24.25 C 24.15625 24.101562 24.316406 24 24.5 24 L 27.5 24 L 27.5 23.5 Z M 28.5 23.5 L 28.5 24 L 29.5 24 L 29.5 23.5 Z M 30.5 23.5 L 30.5 24 L 31.5 24 L 31.5 23.5 Z M 32.5 23.5 L 32.5 24 L 33.5 24 L 33.5 23.5 Z M 34.5 23.5 L 34.5 24 L 35.5 24 L 35.5 23.5 Z M 36.5 23.5 L 36.5 24 L 37.5 24 L 37.5 23.5 Z M 38.5 23.5 L 38.5 24 L 39.5 24 L 39.5 23.5 Z M 40.5 23.5 L 40.5 24 L 41.5 24 L 41.5 23.5 Z M 42.5 23.5 L 42.5 24 L 43.5 24 L 43.5 23.5 Z M 44.5 23.5 L 44.5 24 L 47.5 24 C 47.683594 24 47.84375 24.101562 47.933594 24.25 C 47.972656 24.175781 48 24.089844 48 24 C 48 23.722656 47.777344 23.5 47.5 23.5 Z M 24.5 25.5 C 24.222656 25.5 24 25.722656 24 26 C 24 26.089844 24.027344 26.175781 24.066406 26.25 C 24.15625 26.101562 24.316406 26 24.5 26 L 27.5 26 L 27.5 25.5 Z M 28.5 25.5 L 28.5 26 L 29.5 26 L 29.5 25.5 Z M 30.5 25.5 L 30.5 26 L 31.5 26 L 31.5 25.5 Z M 32.5 25.5 L 32.5 26 L 33.5 26 L 33.5 25.5 Z M 34.5 25.5 L 34.5 26 L 35.5 26 L 35.5 25.5 Z M 36.5 25.5 L 36.5 26 L 37.5 26 L 37.5 25.5 Z M 38.5 25.5 L 38.5 26 L 39.5 26 L 39.5 25.5 Z M 40.5 25.5 L 40.5 26 L 41.5 26 L 41.5 25.5 Z M 42.5 25.5 L 42.5 26 L 43.5 26 L 43.5 25.5 Z M 44.5 25.5 L 44.5 26 L 47.5 26 C 47.683594 26 47.84375 26.101562 47.933594 26.25 C 47.972656 26.175781 48 26.089844 48 26 C 48 25.722656 47.777344 25.5 47.5 25.5 Z M 24.5 27.5 C 24.222656 27.5 24 27.722656 24 28 C 24 28.089844 24.027344 28.175781 24.066406 28.25 C 24.15625 28.101562 24.316406 28 24.5 28 L 27.5 28 L 27.5 27.5 Z M 28.5 27.5 L 28.5 28 L 29.5 28 L 29.5 27.5 Z M 30.5 27.5 L 30.5 28 L 31.5 28 L 31.5 27.5 Z M 32.5 27.5 L 32.5 28 L 33.5 28 L 33.5 27.5 Z M 34.5 27.5 L 34.5 28 L 35.5 28 L 35.5 27.5 Z M 36.5 27.5 L 36.5 28 L 37.5 28 L 37.5 27.5 Z M 38.5 27.5 L 38.5 28 L 39.5 28 L 39.5 27.5 Z M 40.5 27.5 L 40.5 28 L 41.5 28 L 41.5 27.5 Z M 42.5 27.5 L 42.5 28 L 43.5 28 L 43.5 27.5 Z M 44.5 27.5 L 44.5 28 L 47.5 28 C 47.683594 28 47.84375 28.101562 47.933594 28.25 C 47.972656 28.175781 48 28.089844 48 28 C 48 27.722656 47.777344 27.5 47.5 27.5 Z M 24.5 29.5 C 24.222656 29.5 24 29.722656 24 30 C 24 30.089844 24.027344 30.175781 24.066406 30.25 C 24.15625 30.101562 24.316406 30 24.5 30 L 27.5 30 L 27.5 29.5 Z M 28.5 29.5 L 28.5 30 L 29.5 30 L 29.5 29.5 Z M 30.5 29.5 L 30.5 30 L 31.5 30 L 31.5 29.5 Z M 32.5 29.5 L 32.5 30 L 33.5 30 L 33.5 29.5 Z M 34.5 29.5 L 34.5 30 L 35.5 30 L 35.5 29.5 Z M 36.5 29.5 L 36.5 30 L 37.5 30 L 37.5 29.5 Z M 38.5 29.5 L 38.5 30 L 39.5 30 L 39.5 29.5 Z M 40.5 29.5 L 40.5 30 L 41.5 30 L 41.5 29.5 Z M 42.5 29.5 L 42.5 30 L 43.5 30 L 43.5 29.5 Z M 44.5 29.5 L 44.5 30 L 47.5 30 C 47.683594 30 47.84375 30.101562 47.933594 30.25 C 47.972656 30.175781 48 30.089844 48 30 C 48 29.722656 47.777344 29.5 47.5 29.5 Z M 24.5 31.5 C 24.222656 31.5 24 31.722656 24 32 C 24 32.089844 24.027344 32.175781 24.066406 32.25 C 24.15625 32.101562 24.316406 32 24.5 32 L 27.5 32 L 27.5 31.5 Z M 28.5 31.5 L 28.5 32 L 29.5 32 L 29.5 31.5 Z M 30.5 31.5 L 30.5 32 L 31.5 32 L 31.5 31.5 Z M 32.5 31.5 L 32.5 32 L 33.5 32 L 33.5 31.5 Z M 34.5 31.5 L 34.5 32 L 35.5 32 L 35.5 31.5 Z M 36.5 31.5 L 36.5 32 L 37.5 32 L 37.5 31.5 Z M 38.5 31.5 L 38.5 32 L 39.5 32 L 39.5 31.5 Z M 40.5 31.5 L 40.5 32 L 41.5 32 L 41.5 31.5 Z M 42.5 31.5 L 42.5 32 L 43.5 32 L 43.5 31.5 Z M 44.5 31.5 L 44.5 32 L 47.5 32 C 47.683594 32 47.84375 32.101562 47.933594 32.25 C 47.972656 32.175781 48 32.089844 48 32 C 48 31.722656 47.777344 31.5 47.5 31.5 Z M 24.5 33.5 C 24.222656 33.5 24 33.722656 24 34 C 24 34.089844 24.027344 34.175781 24.066406 34.25 C 24.15625 34.101562 24.316406 34 24.5 34 L 27.5 34 L 27.5 33.5 Z M 28.5 33.5 L 28.5 34 L 29.5 34 L 29.5 33.5 Z M 30.5 33.5 L 30.5 34 L 31.5 34 L 31.5 33.5 Z M 32.5 33.5 L 32.5 34 L 33.5 34 L 33.5 33.5 Z M 34.5 33.5 L 34.5 34 L 35.5 34 L 35.5 33.5 Z M 36.5 33.5 L 36.5 34 L 37.5 34 L 37.5 33.5 Z M 38.5 33.5 L 38.5 34 L 39.5 34 L 39.5 33.5 Z M 40.5 33.5 L 40.5 34 L 41.5 34 L 41.5 33.5 Z M 42.5 33.5 L 42.5 34 L 43.5 34 L 43.5 33.5 Z M 44.5 33.5 L 44.5 34 L 47.5 34 C 47.683594 34 47.84375 34.101562 47.933594 34.25 C 47.972656 34.175781 48 34.089844 48 34 C 48 33.722656 47.777344 33.5 47.5 33.5 Z M 24.5 35.5 C 24.222656 35.5 24 35.722656 24 36 C 24 36.089844 24.027344 36.175781 24.066406 36.25 C 24.15625 36.101562 24.316406 36 24.5 36 L 27.5 36 L 27.5 35.5 Z M 28.5 35.5 L 28.5 36 L 29.5 36 L 29.5 35.5 Z M 30.5 35.5 L 30.5 36 L 31.5 36 L 31.5 35.5 Z M 32.5 35.5 L 32.5 36 L 33.5 36 L 33.5 35.5 Z M 34.5 35.5 L 34.5 36 L 35.5 36 L 35.5 35.5 Z M 36.5 35.5 L 36.5 36 L 37.5 36 L 37.5 35.5 Z M 38.5 35.5 L 38.5 36 L 39.5 36 L 39.5 35.5 Z M 40.5 35.5 L 40.5 36 L 41.5 36 L 41.5 35.5 Z M 42.5 35.5 L 42.5 36 L 43.5 36 L 43.5 35.5 Z M 44.5 35.5 L 44.5 36 L 47.5 36 C 47.683594 36 47.84375 36.101562 47.933594 36.25 C 47.972656 36.175781 48 36.089844 48 36 C 48 35.722656 47.777344 35.5 47.5 35.5 Z M 24.5 37.5 C 24.222656 37.5 24 37.722656 24 38 C 24 38.089844 24.027344 38.175781 24.066406 38.25 C 24.15625 38.101562 24.316406 38 24.5 38 L 27.5 38 L 27.5 37.5 Z M 28.5 37.5 L 28.5 38 L 29.5 38 L 29.5 37.5 Z M 30.5 37.5 L 30.5 38 L 31.5 38 L 31.5 37.5 Z M 32.5 37.5 L 32.5 38 L 33.5 38 L 33.5 37.5 Z M 34.5 37.5 L 34.5 38 L 35.5 38 L 35.5 37.5 Z M 36.5 37.5 L 36.5 38 L 37.5 38 L 37.5 37.5 Z M 38.5 37.5 L 38.5 38 L 39.5 38 L 39.5 37.5 Z M 40.5 37.5 L 40.5 38 L 41.5 38 L 41.5 37.5 Z M 42.5 37.5 L 42.5 38 L 43.5 38 L 43.5 37.5 Z M 44.5 37.5 L 44.5 38 L 47.5 38 C 47.683594 38 47.84375 38.101562 47.933594 38.25 C 47.972656 38.175781 48 38.089844 48 38 C 48 37.722656 47.777344 37.5 47.5 37.5 Z M 24.5 39.5 C 24.222656 39.5 24 39.722656 24 40 C 24 40.089844 24.027344 40.175781 24.066406 40.25 C 24.15625 40.101562 24.316406 40 24.5 40 L 27.5 40 L 27.5 39.5 Z M 28.5 39.5 L 28.5 40 L 29.5 40 L 29.5 39.5 Z M 30.5 39.5 L 30.5 40 L 31.5 40 L 31.5 39.5 Z M 32.5 39.5 L 32.5 40 L 33.5 40 L 33.5 39.5 Z M 34.5 39.5 L 34.5 40 L 35.5 40 L 35.5 39.5 Z M 36.5 39.5 L 36.5 40 L 37.5 40 L 37.5 39.5 Z M 38.5 39.5 L 38.5 40 L 39.5 40 L 39.5 39.5 Z M 40.5 39.5 L 40.5 40 L 41.5 40 L 41.5 39.5 Z M 42.5 39.5 L 42.5 40 L 43.5 40 L 43.5 39.5 Z M 44.5 39.5 L 44.5 40 L 47.5 40 C 47.683594 40 47.84375 40.101562 47.933594 40.25 C 47.972656 40.175781 48 40.089844 48 40 C 48 39.722656 47.777344 39.5 47.5 39.5 Z M 44.5 39.5 "/>
<path style=" stroke:none;fill-rule:nonzero;fill:rgb(87.843138%,87.843138%,87.843138%);fill-opacity:0.996078;" d="M 5 8 C 4.445312 8 4 8.445312 4 9 L 4 11 C 4 11.554688 4.445312 12 5 12 L 10 12 L 10 55 C 10 55.554688 10.445312 56 11 56 L 13 56 C 13.554688 56 14 55.554688 14 55 L 14 9 C 14 8.445312 13.554688 8 13 8 Z M 5 8 "/>
<path style=" stroke:none;fill-rule:nonzero;fill:rgb(100%,79.215688%,15.686275%);fill-opacity:0.996078;" d="M 22.472656 48.5 C 22.210938 48.511719 22 48.730469 22 49 L 22 52 L 24 52 L 24 49 C 24 48.722656 23.777344 48.5 23.5 48.5 L 22.5 48.5 C 22.492188 48.5 22.484375 48.5 22.472656 48.5 Z M 22.472656 48.5 "/>
<path style=" stroke:none;fill-rule:nonzero;fill:rgb(100%,100%,100%);fill-opacity:0.4;" d="M 22.472656 48.5 C 22.210938 48.511719 22 48.730469 22 49 L 22 49.472656 C 22.011719 49.21875 22.21875 49.015625 22.472656 49 C 22.484375 49 22.492188 49 22.5 49 L 23.5 49 C 23.769531 49 23.988281 49.210938 24 49.472656 L 24 49 C 24 48.722656 23.777344 48.5 23.5 48.5 L 22.5 48.5 C 22.492188 48.5 22.484375 48.5 22.472656 48.5 Z M 22.472656 48.5 "/>
<path style=" stroke:none;fill-rule:nonzero;fill:rgb(100%,79.215688%,15.686275%);fill-opacity:0.996078;" d="M 26.472656 48.5 C 26.210938 48.511719 26 48.730469 26 49 L 26 52 L 28 52 L 28 49 C 28 48.722656 27.777344 48.5 27.5 48.5 L 26.5 48.5 C 26.492188 48.5 26.484375 48.5 26.472656 48.5 Z M 26.472656 48.5 "/>
<path style=" stroke:none;fill-rule:nonzero;fill:rgb(100%,100%,100%);fill-opacity:0.4;" d="M 26.472656 48.5 C 26.210938 48.511719 26 48.730469 26 49 L 26 49.472656 C 26.011719 49.21875 26.21875 49.015625 26.472656 49 C 26.484375 49 26.492188 49 26.5 49 L 27.5 49 C 27.769531 49 27.988281 49.210938 28 49.472656 L 28 49 C 28 48.722656 27.777344 48.5 27.5 48.5 L 26.5 48.5 C 26.492188 48.5 26.484375 48.5 26.472656 48.5 Z M 26.472656 48.5 "/>
<path style=" stroke:none;fill-rule:nonzero;fill:rgb(100%,79.215688%,15.686275%);fill-opacity:0.996078;" d="M 30.472656 48.5 C 30.210938 48.511719 30 48.730469 30 49 L 30 52 L 32 52 L 32 49 C 32 48.722656 31.777344 48.5 31.5 48.5 L 30.5 48.5 C 30.492188 48.5 30.484375 48.5 30.472656 48.5 Z M 30.472656 48.5 "/>
<path style=" stroke:none;fill-rule:nonzero;fill:rgb(100%,100%,100%);fill-opacity:0.4;" d="M 30.472656 48.5 C 30.210938 48.511719 30 48.730469 30 49 L 30 49.472656 C 30.011719 49.21875 30.21875 49.015625 30.472656 49 C 30.484375 49 30.492188 49 30.5 49 L 31.5 49 C 31.769531 49 31.988281 49.210938 32 49.472656 L 32 49 C 32 48.722656 31.777344 48.5 31.5 48.5 L 30.5 48.5 C 30.492188 48.5 30.484375 48.5 30.472656 48.5 Z M 30.472656 48.5 "/>
<path style=" stroke:none;fill-rule:nonzero;fill:rgb(100%,79.215688%,15.686275%);fill-opacity:0.996078;" d="M 34.472656 48.5 C 34.210938 48.511719 34 48.730469 34 49 L 34 52 L 36 52 L 36 49 C 36 48.722656 35.777344 48.5 35.5 48.5 L 34.5 48.5 C 34.492188 48.5 34.484375 48.5 34.476562 48.5 Z M 34.472656 48.5 "/>
<path style=" stroke:none;fill-rule:nonzero;fill:rgb(100%,100%,100%);fill-opacity:0.4;" d="M 34.472656 48.5 C 34.210938 48.511719 34 48.730469 34 49 L 34 49.472656 C 34.011719 49.21875 34.21875 49.015625 34.472656 49 C 34.484375 49 34.492188 49 34.5 49 L 35.5 49 C 35.769531 49 35.988281 49.210938 36 49.472656 L 36 49 C 36 48.722656 35.777344 48.5 35.5 48.5 L 34.5 48.5 C 34.492188 48.5 34.484375 48.5 34.472656 48.5 Z M 34.472656 48.5 "/>
<path style=" stroke:none;fill-rule:nonzero;fill:rgb(100%,79.215688%,15.686275%);fill-opacity:0.996078;" d="M 44.476562 48.5 C 44.210938 48.511719 44 48.730469 44 49 L 44 52 L 46 52 L 46 49 C 46 48.722656 45.777344 48.5 45.5 48.5 L 44.5 48.5 C 44.492188 48.5 44.484375 48.5 44.476562 48.5 Z M 44.476562 48.5 "/>
<path style=" stroke:none;fill-rule:nonzero;fill:rgb(100%,100%,100%);fill-opacity:0.4;" d="M 44.476562 48.5 C 44.210938 48.511719 44 48.730469 44 49 L 44 49.472656 C 44.011719 49.21875 44.21875 49.015625 44.476562 49 C 44.484375 49 44.492188 49 44.5 49 L 45.5 49 C 45.769531 49 45.988281 49.210938 46 49.472656 L 46 49 C 46 48.722656 45.777344 48.5 45.5 48.5 L 44.5 48.5 C 44.492188 48.5 44.484375 48.5 44.476562 48.5 Z M 44.476562 48.5 "/>
<path style=" stroke:none;fill-rule:nonzero;fill:rgb(100%,79.215688%,15.686275%);fill-opacity:0.996078;" d="M 48.472656 48.5 C 48.210938 48.511719 48 48.730469 48 49 L 48 52 L 50 52 L 50 49 C 50 48.722656 49.777344 48.5 49.5 48.5 L 48.5 48.5 C 48.492188 48.5 48.484375 48.5 48.472656 48.5 Z M 48.472656 48.5 "/>
<path style=" stroke:none;fill-rule:nonzero;fill:rgb(100%,100%,100%);fill-opacity:0.4;" d="M 48.472656 48.5 C 48.210938 48.511719 48 48.730469 48 49 L 48 49.472656 C 48.011719 49.21875 48.21875 49.015625 48.472656 49 C 48.484375 49 48.492188 49 48.5 49 L 49.5 49 C 49.769531 49 49.988281 49.210938 50 49.472656 L 50 49 C 50 48.722656 49.777344 48.5 49.5 48.5 L 48.5 48.5 C 48.492188 48.5 48.484375 48.5 48.472656 48.5 Z M 48.472656 48.5 "/>
<path style=" stroke:none;fill-rule:nonzero;fill:rgb(0%,0%,0%);fill-opacity:0.4;" d="M 20 49 L 20 50 C 20 51.109375 20.890625 52 22 52 L 36 52 C 37.109375 52 38 51.109375 38 50 L 38 49 C 38 50.109375 37.109375 51 36 51 L 22 51 C 20.890625 51 20 50.109375 20 49 Z M 20 49 "/>
<path style=" stroke:none;fill-rule:nonzero;fill:rgb(0%,0%,0%);fill-opacity:0.4;" d="M 42 49 L 42 50 C 42 51.109375 42.890625 52 44 52 L 50 52 C 51.109375 52 52 51.109375 52 50 L 52 49 C 52 50.109375 51.109375 51 50 51 L 44 51 C 42.890625 51 42 50.109375 42 49 Z M 42 49 "/>
<path style=" stroke:none;fill-rule:nonzero;fill:rgb(0%,0%,0%);fill-opacity:0.2;" d="M 20 48 L 38 48 L 38 49 L 20 49 Z M 20 48 "/>
<path style=" stroke:none;fill-rule:nonzero;fill:rgb(0%,0%,0%);fill-opacity:0.2;" d="M 42 48 L 52 48 L 52 49 L 42 49 Z M 42 48 "/>
<path style=" stroke:none;fill-rule:nonzero;fill:rgb(100%,100%,100%);fill-opacity:0.6;" d="M 5 8 C 4.445312 8 4 8.445312 4 9 L 4 10 C 4 9.445312 4.445312 9 5 9 L 13 9 C 13.554688 9 14 9.445312 14 10 L 14 9 C 14 8.445312 13.554688 8 13 8 Z M 5 8 "/>
<path style=" stroke:none;fill-rule:nonzero;fill:rgb(0%,0%,0%);fill-opacity:0.4;" d="M 4 10 L 4 11 C 4 11.554688 4.445312 12 5 12 L 10 12 L 10 11 L 5 11 C 4.445312 11 4 10.554688 4 10 Z M 10 54 L 10 55 C 10 55.554688 10.445312 56 11 56 L 13 56 C 13.554688 56 14 55.554688 14 55 L 14 54 C 14 54.554688 13.554688 55 13 55 L 11 55 C 10.445312 55 10 54.554688 10 54 Z M 10 54 "/>
<path style=" stroke:none;fill-rule:nonzero;fill:rgb(38.039216%,38.039216%,38.039216%);fill-opacity:1;" d="M 28 22 L 44 22 C 45.105469 22 46 22.894531 46 24 L 46 40 C 46 41.105469 45.105469 42 44 42 L 28 42 C 26.894531 42 26 41.105469 26 40 L 26 24 C 26 22.894531 26.894531 22 28 22 Z M 28 22 "/>
<path style=" stroke:none;fill-rule:nonzero;fill:rgb(100%,100%,100%);fill-opacity:0.4;" d="M 28 22 C 26.890625 22 26 22.890625 26 24 L 26 25 C 26 23.890625 26.890625 23 28 23 L 44 23 C 45.109375 23 46 23.890625 46 25 L 46 24 C 46 22.890625 45.109375 22 44 22 Z M 28 22 "/>
<path style=" stroke:none;fill-rule:nonzero;fill:rgb(0%,0%,0%);fill-opacity:0.4;" d="M 28 43 C 26.890625 43 26 42.109375 26 41 L 26 40 C 26 41.109375 26.890625 42 28 42 L 44 42 C 45.109375 42 46 41.109375 46 40 L 46 41 C 46 42.109375 45.109375 43 44 43 Z M 28 43 "/>
<path style=" stroke:none;fill-rule:nonzero;fill:rgb(38.039216%,38.039216%,38.039216%);fill-opacity:1;" d="M 53 22 L 55 22 C 55.550781 22 56 22.449219 56 23 L 56 29 C 56 29.550781 55.550781 30 55 30 L 53 30 C 52.449219 30 52 29.550781 52 29 L 52 23 C 52 22.449219 52.449219 22 53 22 Z M 53 22 "/>
<path style=" stroke:none;fill-rule:nonzero;fill:rgb(100%,100%,100%);fill-opacity:0.4;" d="M 53 22 C 52.445312 22 52 22.445312 52 23 L 52 24 C 52 23.445312 52.445312 23 53 23 L 55 23 C 55.554688 23 56 23.445312 56 24 L 56 23 C 56 22.445312 55.554688 22 55 22 Z M 53 22 "/>
<path style=" stroke:none;fill-rule:nonzero;fill:rgb(0%,0%,0%);fill-opacity:0.4;" d="M 53 31 C 52.445312 31 52 30.554688 52 30 L 52 29 C 52 29.554688 52.445312 30 53 30 L 55 30 C 55.554688 30 56 29.554688 56 29 L 56 30 C 56 30.554688 55.554688 31 55 31 Z M 53 31 "/>
<path style=" stroke:none;fill-rule:nonzero;fill:url(#linear0);" d="M 5 8 C 4.445312 8 4 8.445312 4 9 L 4 11 C 4 11.554688 4.445312 12 5 12 L 10 12 L 10 55 C 10 55.554688 10.445312 56 11 56 L 13 56 C 13.554688 56 14 55.554688 14 55 L 14 48 L 20 48 L 20 50 C 20 51.109375 20.890625 52 22 52 L 36 52 C 37.109375 52 38 51.109375 38 50 L 38 48 L 42 48 L 42 50 C 42 51.109375 42.890625 52 44 52 L 50 52 C 51.109375 52 52 51.109375 52 50 L 52 48 L 56 48 C 58.214844 48 60 46.214844 60 44 L 60 20 C 60 17.785156 58.214844 16 56 16 L 14 16 L 14 9 C 14 8.445312 13.554688 8 13 8 Z M 5 8 "/>
<path style=" stroke:none;fill-rule:nonzero;fill:rgb(0%,0%,0%);fill-opacity:0.2;" d="M 4 11 L 4 12.5 C 4 13.054688 4.445312 13.5 5 13.5 L 10 13.5 L 10 12 L 5 12 C 4.445312 12 4 11.554688 4 11 Z M 60 44 C 60 46.214844 58.214844 48 56 48 L 52 48 L 52 49.5 L 56 49.5 C 58.214844 49.5 60 47.714844 60 45.5 Z M 14 48 L 14 49.5 L 20 49.5 L 20 48 Z M 38 48 L 38 49.5 L 42 49.5 L 42 48 Z M 20 50 L 20 51.5 C 20 52.609375 20.890625 53.5 22 53.5 L 36 53.5 C 37.109375 53.5 38 52.609375 38 51.5 L 38 50 C 38 51.109375 37.109375 52 36 52 L 22 52 C 20.890625 52 20 51.109375 20 50 Z M 42 50 L 42 51.5 C 42 52.609375 42.890625 53.5 44 53.5 L 50 53.5 C 51.109375 53.5 52 52.609375 52 51.5 L 52 50 C 52 51.109375 51.109375 52 50 52 L 44 52 C 42.890625 52 42 51.109375 42 50 Z M 10 55 L 10 56.5 C 10 57.054688 10.445312 57.5 11 57.5 L 13 57.5 C 13.554688 57.5 14 57.054688 14 56.5 L 14 55 C 14 55.554688 13.554688 56 13 56 L 11 56 C 10.445312 56 10 55.554688 10 55 Z M 10 55 "/>
</g>
</svg>
