<svg xmlns="http://www.w3.org/2000/svg" shape-rendering="geometricPrecision" text-rendering="geometricPrecision" image-rendering="optimizeQuality" fill-rule="evenodd" clip-rule="evenodd" viewBox="0 0 425 512"><path d="M118.74 56.1c17.92-10.27 37.48-17.83 57.59-22.04C177.87 14.99 193.83 0 213.29 0c19.58 0 35.6 15.17 36.98 34.4 20.08 4.39 39.57 12.11 57.4 22.52 14.52-13.93 37.58-13.75 51.87.54 13.11 13.1 14.35 33.57 3.74 48.07 12.09 15.84 21.28 33.55 26.53 52.52 19.6.98 35.19 17.18 35.19 37.03 0 20.47-16.6 37.07-37.07 37.07-20.48 0-37.08-16.6-37.08-37.07 0-16.36 10.59-30.24 25.29-35.16-4.7-16.15-12.58-31.31-22.83-45.01-14.35 9.2-33.65 7.53-46.19-5.02-11.33-11.32-13.79-28.14-7.41-41.86-15.9-9.14-33.19-15.98-50.99-20-4.67 15.13-18.77 26.12-35.43 26.12-16.78 0-30.96-11.16-35.53-26.45-17.84 3.87-35.2 10.58-51.19 19.6 6.17 13.65 3.65 30.26-7.57 41.48-12.6 12.6-32.01 14.23-46.38 4.9-10.4 13.62-18.44 28.71-23.33 44.81 14.47 5.05 24.86 18.81 24.86 35.01 0 20.48-16.6 37.08-37.08 37.08C16.6 230.58 0 213.98 0 193.5c0-20 15.83-36.29 35.65-37.04 5.45-18.89 14.82-36.5 27.06-52.21-10.48-14.49-9.19-34.85 3.86-47.9 14.39-14.39 37.67-14.48 52.17-.25zm197.84 323.73h55.3c.49 0 .89.4.89.89v13.22c0 .49-.4.9-.89.9h-55.3c-.49 0-.89-.4-.89-.9v-13.22c0-.49.4-.89.89-.89zM141.36 152.79c-3 2.57-7.51 2.22-10.07-.78-2.57-3-2.22-7.51.78-10.07 24.55-21.04 52.37-31.84 80.58-31.6 27.5.24 55.18 10.98 80.34 32.96 2.96 2.59 3.26 7.11.67 10.07a7.129 7.129 0 0 1-10.07.67c-22.47-19.63-46.94-29.22-71.05-29.43-24.71-.21-49.29 9.43-71.18 28.18zm71.14 55.95c7.06 0 12.78 5.73 12.78 12.79 0 7.05-5.72 12.78-12.78 12.78s-12.78-5.73-12.78-12.78c0-7.06 5.72-12.79 12.78-12.79zm-25.92-8.91a7.132 7.132 0 0 1-10.04-1.04c-2.49-3.05-2.03-7.55 1.03-10.04 10.96-8.91 22.9-13.54 35.05-13.58 11.86-.03 23.71 4.33 34.81 13.4a7.142 7.142 0 0 1 1.04 10.04 7.154 7.154 0 0 1-10.05 1.04c-8.46-6.91-17.23-10.23-25.8-10.21-8.78.02-17.65 3.57-26.04 10.39zm-22-22.15a7.126 7.126 0 0 1-10.07-.61 7.126 7.126 0 0 1 .61-10.07c18.41-16.28 37.97-24.61 57.85-24.28 19.37.33 38.67 8.85 57.08 26.19 2.87 2.7 3 7.23.3 10.1-2.7 2.87-7.22 3.01-10.1.31-15.7-14.8-31.75-22.06-47.5-22.33-16.2-.27-32.5 6.83-48.17 20.69zm152 280.26h55.3c.49 0 .89.41.89.89v13.22c0 .49-.4.9-.89.9h-55.3c-.49 0-.89-.4-.89-.9v-13.22c0-.49.4-.89.89-.89zm0-39.06h55.3a.9.9 0 0 1 .89.9V433c0 .49-.4.89-.89.89h-55.3c-.49 0-.89-.4-.89-.89v-13.22c0-.49.4-.9.89-.9zm-30.27 84.69V265.68l-148.29-.03v237.92h148.29zm-156.72 0V330.32l-97.64-15.08v188.33h97.64zM27.73 512c-2.34 0-4.21-1.9-4.21-4.22V312.99c0-3.43 2.78-6.21 6.2-6.21l99.87 15.08v-57.24c0-4.12 3.22-7.4 7.41-7.4l150.33.03c4.07 0 7.44 3.34 7.44 7.41v57.2l100.51-15.08c3.4 0 6.2 2.81 6.2 6.21v194.79c0 2.34-1.9 4.22-4.21 4.22H27.73zm24.21-53.71h55.66c.38 0 .7.24.7.5v13.76c0 .26-.32.53-.7.53H51.94c-.38 0-.7-.24-.7-.53v-13.76c0-.26.32-.5.7-.5zM156.93 282l110.49.05c1.85 0 3.37 1.52 3.37 3.36v61.39c0 1.85-1.52 3.37-3.37 3.37H156.93c-1.84 0-3.37-1.52-3.37-3.37v-61.44c-.02-1.86 1.52-3.36 3.37-3.36zM51.94 419.12h55.66c.38 0 .7.23.7.53v13.75c0 .27-.32.53-.7.53H51.94c-.38 0-.7-.23-.7-.53v-13.75c0-.33.32-.53.7-.53zm0-39.21h55.66c.38 0 .7.24.7.53v13.76c0 .27-.32.53-.7.53H51.94c-.38 0-.7-.23-.7-.53v-13.76c0-.29.32-.53.7-.53zm190.51 55.49h24.86c.38 0 .7.32.7.7v33.96c0 .38-.32.7-.7.7h-24.86c-.38 0-.7-.32-.7-.7V436.1c0-.38.32-.7.7-.7zm-42.72 0h24.86c.38 0 .71.32.71.7v33.96c0 .38-.33.7-.71.7h-24.86c-.38 0-.7-.32-.7-.7V436.1c0-.38.32-.7.7-.7zm-42.71 0h24.86c.38 0 .7.32.7.7v33.96c0 .38-.32.7-.7.7h-24.86c-.38 0-.7-.32-.7-.7V436.1c0-.38.32-.7.7-.7zm85.43-57.36h24.86c.38 0 .7.32.7.7v33.97c0 .38-.32.7-.7.7h-24.86a.71.71 0 0 1-.7-.71v-33.96c0-.38.32-.7.7-.7zm-42.72 0h24.86c.38 0 .71.32.71.7v33.97c0 .38-.33.7-.71.7h-24.86a.71.71 0 0 1-.7-.71v-33.96c0-.38.32-.7.7-.7zm-42.71 0h24.86c.38 0 .7.32.7.7v33.97c0 .38-.32.7-.7.7h-24.86a.71.71 0 0 1-.7-.71v-33.96c0-.38.32-.7.7-.7zm230.91-208.85c14.29 0 25.88 11.59 25.88 25.88 0 14.3-11.59 25.89-25.88 25.89-14.3 0-25.89-11.59-25.89-25.89 0-14.29 11.59-25.88 25.89-25.88zm-174.64-158c14.29 0 25.88 11.59 25.88 25.88 0 14.3-11.59 25.89-25.88 25.89-14.3 0-25.89-11.59-25.89-25.89 0-14.29 11.59-25.88 25.89-25.88zM92.79 56.68c14.29 0 25.88 11.59 25.88 25.89 0 14.29-11.59 25.88-25.88 25.88-14.3 0-25.89-11.59-25.89-25.88 0-14.3 11.59-25.89 25.89-25.89zM37.07 167.62c14.3 0 25.89 11.59 25.89 25.88 0 14.3-11.59 25.89-25.89 25.89-14.29 0-25.88-11.59-25.88-25.89 0-14.29 11.59-25.88 25.88-25.88zM333.33 57.8c14.29 0 25.88 11.58 25.88 25.88 0 14.3-11.59 25.89-25.88 25.89-14.3 0-25.89-11.59-25.89-25.89s11.59-25.88 25.89-25.88z"/></svg>