<?xml version="1.0" encoding="utf-8"?><svg version="1.1" id="Layer_1" xmlns="http://www.w3.org/2000/svg" xmlns:xlink="http://www.w3.org/1999/xlink" x="0px" y="0px" viewBox="0 0 122.75 125.28" style="enable-background:new 0 0 122.75 125.28" xml:space="preserve"><style type="text/css"><![CDATA[
	.st0{fill-rule:evenodd;clip-rule:evenodd;}
]]></style><g><path class="st0" d="M111.09,6.23c3.85,3.85,6.23,9.16,6.23,15.04s-2.38,11.19-6.23,15.04c-3.85,3.85-9.16,6.23-15.03,6.23 c-3.02,0-5.89-0.63-8.49-1.76l-1.97,3.72c6.61,4.42,10.97,11.95,10.97,20.49c0,7.21-3.1,13.7-8.04,18.21l2.03,2.6 c3.2-1.92,6.94-3.03,10.94-3.03c5.87,0,11.19,2.38,15.03,6.23c3.85,3.85,6.23,9.16,6.23,15.04s-2.38,11.19-6.23,15.04 c-3.85,3.85-9.16,6.23-15.03,6.23s-11.19-2.38-15.04-6.23s-6.23-9.16-6.23-15.04s2.38-11.19,6.23-15.04 c0.12-0.12,0.24-0.23,0.36-0.35l-1.98-2.67c-3.75,2.31-8.17,3.64-12.9,3.64c-8.76,0-16.46-4.58-20.82-11.47l-11.85,6.15 c2.06,3.28,3.25,7.15,3.25,11.31c0,5.87-2.38,11.19-6.23,15.03c-3.85,3.85-9.16,6.23-15.04,6.23c-5.87,0-11.19-2.38-15.03-6.23 C2.38,106.78,0,101.46,0,95.59S2.38,84.4,6.23,80.55s9.16-6.23,15.03-6.23s11.19,2.38,15.04,6.23l0.03,0.04l12.69-6.59 c-1.1-2.79-1.7-5.84-1.7-9.02c0-4.61,1.27-8.93,3.48-12.62l-8.07-6.27c-0.2,0.22-0.41,0.44-0.62,0.65 c-3.85,3.85-9.16,6.23-15.03,6.23s-11.19-2.38-15.03-6.23c-3.85-3.85-6.23-9.16-6.23-15.04s2.38-11.19,6.23-15.03 c3.85-3.85,9.16-6.23,15.03-6.23s11.19,2.38,15.03,6.23c3.85,3.85,6.23,9.16,6.23,15.03c0,3.89-1.04,7.53-2.86,10.67l8.06,6.26 c4.51-5.07,11.08-8.27,18.41-8.27c3.4,0,6.63,0.69,9.58,1.93l2.03-3.82c-0.9-0.65-1.74-1.38-2.52-2.16 c-3.85-3.85-6.23-9.16-6.23-15.04s2.38-11.19,6.23-15.04C84.87,2.38,90.19,0,96.06,0S107.25,2.38,111.09,6.23L111.09,6.23z M74.95,71.04c0.65,0.65,1.05,1.54,1.05,2.53c0,0.98-0.4,1.88-1.05,2.53c-0.65,0.65-1.54,1.05-2.52,1.05 c-0.99,0-1.88-0.4-2.53-1.05c-0.65-0.65-1.05-1.54-1.05-2.53c0-0.98,0.4-1.88,1.05-2.53c0.65-0.65,1.54-1.05,2.53-1.05 C73.4,69.99,74.3,70.39,74.95,71.04L74.95,71.04z M79.33,55.48c2.18,1.01,4.34,2.49,6.45,4.48c0.34,0.32,0.51,0.74,0.53,1.17 c0.01,0.43-0.14,0.86-0.45,1.2l-0.04,0.04c-0.31,0.31-0.72,0.47-1.13,0.48c-0.43,0.01-0.86-0.14-1.19-0.45l-0.03-0.03 c-1.8-1.69-3.63-2.96-5.45-3.81c-1.85-0.86-3.7-1.3-5.53-1.33c-1.86-0.03-3.72,0.36-5.58,1.15c-1.87,0.8-3.73,2.01-5.55,3.62 c-0.03,0.03-0.06,0.06-0.1,0.08c-0.34,0.27-0.75,0.39-1.14,0.36c-0.41-0.02-0.82-0.2-1.12-0.53c-0.03-0.03-0.06-0.06-0.08-0.1 c-0.27-0.33-0.39-0.75-0.36-1.15c0.03-0.43,0.22-0.84,0.56-1.15c2.13-1.89,4.33-3.31,6.58-4.26c2.25-0.95,4.54-1.41,6.85-1.37 C74.81,53.92,77.08,54.44,79.33,55.48L79.33,55.48z M76.61,62.46c1.33,0.51,2.64,1.28,3.9,2.31l0.04,0.03 c0.34,0.29,0.54,0.69,0.58,1.11c0.04,0.41-0.07,0.85-0.35,1.2l-0.04,0.05c-0.29,0.34-0.69,0.54-1.11,0.59 c-0.42,0.04-0.87-0.08-1.23-0.37c-0.98-0.8-1.97-1.39-2.97-1.78c-1-0.39-2.01-0.59-3.01-0.58c-1,0-2.02,0.21-3.02,0.61 c-1.02,0.4-2.03,1.01-3.01,1.8c-0.36,0.29-0.8,0.41-1.23,0.37c-0.42-0.04-0.83-0.25-1.13-0.61c-0.29-0.36-0.41-0.8-0.37-1.23 l0-0.03c0.05-0.42,0.25-0.81,0.6-1.1c1.27-1.03,2.59-1.81,3.95-2.34c1.37-0.53,2.77-0.81,4.19-0.81 C73.84,61.67,75.24,61.93,76.61,62.46L76.61,62.46z M74.95,76.09L74.95,76.09L74.95,76.09z M19.03,29.04h1.55V26.9 c0-1.77,0.72-3.37,1.89-4.53l0,0c1.16-1.16,2.77-1.89,4.54-1.89c1.77,0,3.37,0.72,4.53,1.89l0,0c1.16,1.16,1.89,2.77,1.89,4.53 v2.14h1.23c0.27,0,0.5,0.23,0.5,0.5v10.57c0,0.27-0.23,0.5-0.5,0.5H19.02c-0.27,0-0.5-0.23-0.5-0.5V29.54 C18.52,29.26,18.75,29.04,19.03,29.04L19.03,29.04L19.03,29.04L19.03,29.04z M23.07,29.04h7.85v-2.18c0-1.08-0.44-2.06-1.15-2.77 l0,0c-0.71-0.71-1.7-1.15-2.77-1.15c-1.08,0-2.06,0.44-2.77,1.15c-0.71,0.71-1.15,1.7-1.15,2.77V29.04L23.07,29.04L23.07,29.04 L23.07,29.04z M21.26,84.63L9.73,95.93l2.81,1.48l8.65-9.07l8.79,9.07l2.81-1.48L21.26,84.63L21.26,84.63L21.26,84.63z M13.16,98.58L13.16,98.58l8.12-8.12l8.09,8.12l0,0v7.96h-5.91h-4.44h-5.86V98.58L13.16,98.58L13.16,98.58z M20.45,101.19 l-1.07,2.8h3.75l-0.99-2.84c0.63-0.32,1.06-0.97,1.06-1.74c0-1.08-0.88-1.95-1.95-1.95c-1.08,0-1.95,0.88-1.95,1.95 C19.32,100.2,19.79,100.88,20.45,101.19L20.45,101.19L20.45,101.19L20.45,101.19z M108.13,101.39c-0.19,0.09-0.38,0.2-0.57,0.31 c-0.57,0.33-1.13,0.74-1.71,1.21l-1.23-1.4c0.42-0.39,0.88-0.75,1.37-1.07c0.39-0.25,0.79-0.48,1.21-0.67 c0.17-0.08,0.33-0.16,0.5-0.23c-0.81-1.43-1.97-2.46-3.29-3.09c-1.31-0.63-2.79-0.87-4.22-0.74c-1.42,0.14-2.81,0.66-3.96,1.55 c-1.32,1.03-2.33,2.56-2.72,4.59l-0.12,0.64l-0.63,0.11c-0.62,0.11-1.17,0.26-1.66,0.45c-0.47,0.18-0.89,0.41-1.26,0.67 c-0.29,0.21-0.55,0.45-0.76,0.71c-0.67,0.8-0.98,1.8-0.97,2.81c0.01,1.03,0.34,2.07,0.96,2.92c0.23,0.32,0.5,0.61,0.8,0.86 c0.31,0.26,0.66,0.47,1.05,0.63c0.39,0.16,0.81,0.27,1.29,0.34h18.37c0.9-0.22,1.68-0.51,2.35-0.88c0.67-0.37,1.21-0.83,1.62-1.37 c0.63-0.84,0.95-2.04,0.96-3.26c0.02-1.28-0.3-2.57-0.91-3.51c-0.17-0.27-0.37-0.51-0.57-0.73c-0.92-0.99-2.08-1.41-3.28-1.42 C109.89,100.8,108.99,101.01,108.13,101.39L108.13,101.39L108.13,101.39L108.13,101.39z M88.75,20.45 c-0.57-1.22-0.89-2.49-0.88-3.8c0.01-1.31,0.34-2.66,1.07-4.06c0-0.01,0.01-0.02,0.01-0.03l0,0c0.95-1.61,2.28-2.69,3.76-3.29 c1.24-0.51,2.59-0.68,3.91-0.56c1.32,0.12,2.61,0.54,3.74,1.2c1.43,0.85,2.61,2.11,3.26,3.7c0.35,0.86,0.59,1.82,0.62,2.87 c0.03,1.05-0.15,2.18-0.63,3.37l-3.6,5.6l-7.51,1.08c-0.37-1.1-0.96-2.32-1.72-3.2C89.96,22.42,89.28,21.58,88.75,20.45 L88.75,20.45z M93.25,31.2c-0.35-0.96-0.32-1.56-0.62-2.87l7.89-1.17c-0.3,1.4-0.03,2.12-0.24,3.22 C99.63,33.85,94.45,34.41,93.25,31.2L93.25,31.2z M114.15,91.36c-3.24-3.24-7.71-5.24-12.66-5.24s-9.42,2-12.66,5.24 s-5.24,7.72-5.24,12.66s2,9.42,5.24,12.66s7.72,5.24,12.66,5.24s9.42-2,12.66-5.24c3.24-3.24,5.24-7.72,5.24-12.66 S117.39,94.6,114.15,91.36L114.15,91.36z M108.72,8.6c-3.24-3.24-7.71-5.24-12.66-5.24c-4.94,0-9.42,2-12.66,5.24 c-3.24,3.24-5.24,7.71-5.24,12.66s2,9.42,5.24,12.66c3.24,3.24,7.71,5.24,12.66,5.24c4.94,0,9.42-2,12.66-5.24 c3.24-3.24,5.24-7.72,5.24-12.66S111.96,11.84,108.72,8.6L108.72,8.6z M39.73,19.03c-3.24-3.24-7.71-5.24-12.66-5.24 s-9.42,2-12.66,5.24c-3.24,3.24-5.24,7.72-5.24,12.66c0,4.94,2,9.42,5.24,12.66c3.24,3.24,7.71,5.24,12.66,5.24 c4.94,0,9.42-2,12.66-5.24c3.24-3.24,5.24-7.71,5.24-12.66C44.98,26.75,42.97,22.27,39.73,19.03L39.73,19.03z M33.92,82.93 c-3.24-3.24-7.72-5.24-12.66-5.24c-4.94,0-9.42,2-12.66,5.24s-5.24,7.71-5.24,12.66c0,4.94,2,9.42,5.24,12.66 c3.24,3.24,7.71,5.24,12.66,5.24c4.94,0,9.42-2,12.66-5.24c3.24-3.24,5.24-7.71,5.24-12.66C39.17,90.64,37.16,86.17,33.92,82.93 L33.92,82.93z"/></g></svg>