
<svg xmlns="http://www.w3.org/2000/svg" xmlns:xlink="http://www.w3.org/1999/xlink" width="64" height="64" viewBox="0 0 64 64" version="1.1">
<defs>
<linearGradient id="linear0" gradientUnits="userSpaceOnUse" x1="8.995832" y1="-201.241669" x2="8.995832" y2="-210.766663" gradientTransform="matrix(3.779528,0,0,3.779528,0.00000807763,812.598468)">
<stop offset="0" style="stop-color:rgb(0%,0%,0%);stop-opacity:0.2;"/>
<stop offset="1" style="stop-color:rgb(100%,100%,100%);stop-opacity:0;"/>
</linearGradient>
</defs>
<g id="surface1">
<path style=" stroke:none;fill-rule:nonzero;fill:rgb(74.117649%,74.117649%,74.117649%);fill-opacity:0.996078;" d="M 30.972656 14 C 30.710938 14.011719 30.5 14.230469 30.5 14.5 L 31 14.5 L 31 15 L 30.5 15 L 30.5 15.5 L 31 15.5 L 31 16 L 30.5 16 L 30.5 17 C 30.5 17.277344 30.722656 17.5 31 17.5 L 33 17.5 C 33.277344 17.5 33.5 17.277344 33.5 17 L 33.5 16 L 33 16 L 33 15.5 L 33.5 15.5 L 33.5 15 L 33 15 L 33 14.5 L 33.5 14.5 C 33.5 14.222656 33.277344 14 33 14 L 31 14 C 30.992188 14 30.984375 14 30.972656 14 Z M 30.972656 14 "/>
<path style=" stroke:none;fill-rule:nonzero;fill:rgb(87.843138%,87.843138%,87.843138%);fill-opacity:1;" d="M 8 16 L 56 16 C 58.210938 16 60 17.789062 60 20 L 60 48 C 60 50.210938 58.210938 52 56 52 L 8 52 C 5.789062 52 4 50.210938 4 48 L 4 20 C 4 17.789062 5.789062 16 8 16 Z M 8 16 "/>
<path style=" stroke:none;fill-rule:nonzero;fill:rgb(38.039216%,38.039216%,38.039216%);fill-opacity:1;" d="M 8 18 L 56 18 C 57.105469 18 58 18.894531 58 20 L 58 48 C 58 49.105469 57.105469 50 56 50 L 8 50 C 6.894531 50 6 49.105469 6 48 L 6 20 C 6 18.894531 6.894531 18 8 18 Z M 8 18 "/>
<path style=" stroke:none;fill-rule:nonzero;fill:rgb(95.686275%,26.274511%,21.176471%);fill-opacity:1;" d="M 9 20 L 11 20 C 11.550781 20 12 20.449219 12 21 L 12 23 C 12 23.550781 11.550781 24 11 24 L 9 24 C 8.449219 24 8 23.550781 8 23 L 8 21 C 8 20.449219 8.449219 20 9 20 Z M 9 20 "/>
<path style=" stroke:none;fill-rule:nonzero;fill:rgb(100%,100%,100%);fill-opacity:0.4;" d="M 9 20 C 8.445312 20 8 20.445312 8 21 L 8 22 C 8 21.445312 8.445312 21 9 21 L 11 21 C 11.554688 21 12 21.445312 12 22 L 12 21 C 12 20.445312 11.554688 20 11 20 Z M 9 20 "/>
<path style=" stroke:none;fill-rule:nonzero;fill:rgb(87.843138%,87.843138%,87.843138%);fill-opacity:1;" d="M 15 20 L 17 20 C 17.550781 20 18 20.449219 18 21 L 18 23 C 18 23.550781 17.550781 24 17 24 L 15 24 C 14.449219 24 14 23.550781 14 23 L 14 21 C 14 20.449219 14.449219 20 15 20 Z M 15 20 "/>
<path style=" stroke:none;fill-rule:nonzero;fill:rgb(61.960787%,61.960787%,61.960787%);fill-opacity:1;" d="M 9 26 L 13 26 C 13.550781 26 14 26.449219 14 27 L 14 29 C 14 29.550781 13.550781 30 13 30 L 9 30 C 8.449219 30 8 29.550781 8 29 L 8 27 C 8 26.449219 8.449219 26 9 26 Z M 9 26 "/>
<path style=" stroke:none;fill-rule:nonzero;fill:rgb(61.960787%,61.960787%,61.960787%);fill-opacity:1;" d="M 9 32 L 15 32 C 15.550781 32 16 32.449219 16 33 L 16 35 C 16 35.550781 15.550781 36 15 36 L 9 36 C 8.449219 36 8 35.550781 8 35 L 8 33 C 8 32.449219 8.449219 32 9 32 Z M 9 32 "/>
<path style=" stroke:none;fill-rule:nonzero;fill:rgb(61.960787%,61.960787%,61.960787%);fill-opacity:1;" d="M 9 44 L 13 44 C 13.550781 44 14 44.449219 14 45 L 14 47 C 14 47.550781 13.550781 48 13 48 L 9 48 C 8.449219 48 8 47.550781 8 47 L 8 45 C 8 44.449219 8.449219 44 9 44 Z M 9 44 "/>
<path style=" stroke:none;fill-rule:nonzero;fill:rgb(87.843138%,87.843138%,87.843138%);fill-opacity:1;" d="M 21 20 L 23 20 C 23.550781 20 24 20.449219 24 21 L 24 23 C 24 23.550781 23.550781 24 23 24 L 21 24 C 20.449219 24 20 23.550781 20 23 L 20 21 C 20 20.449219 20.449219 20 21 20 Z M 21 20 "/>
<path style=" stroke:none;fill-rule:nonzero;fill:rgb(87.843138%,87.843138%,87.843138%);fill-opacity:1;" d="M 27 20 L 29 20 C 29.550781 20 30 20.449219 30 21 L 30 23 C 30 23.550781 29.550781 24 29 24 L 27 24 C 26.449219 24 26 23.550781 26 23 L 26 21 C 26 20.449219 26.449219 20 27 20 Z M 27 20 "/>
<path style=" stroke:none;fill-rule:nonzero;fill:rgb(87.843138%,87.843138%,87.843138%);fill-opacity:1;" d="M 33 20 L 35 20 C 35.550781 20 36 20.449219 36 21 L 36 23 C 36 23.550781 35.550781 24 35 24 L 33 24 C 32.449219 24 32 23.550781 32 23 L 32 21 C 32 20.449219 32.449219 20 33 20 Z M 33 20 "/>
<path style=" stroke:none;fill-rule:nonzero;fill:rgb(87.843138%,87.843138%,87.843138%);fill-opacity:1;" d="M 39 20 L 41 20 C 41.550781 20 42 20.449219 42 21 L 42 23 C 42 23.550781 41.550781 24 41 24 L 39 24 C 38.449219 24 38 23.550781 38 23 L 38 21 C 38 20.449219 38.449219 20 39 20 Z M 39 20 "/>
<path style=" stroke:none;fill-rule:nonzero;fill:rgb(87.843138%,87.843138%,87.843138%);fill-opacity:1;" d="M 45 20 L 47 20 C 47.550781 20 48 20.449219 48 21 L 48 23 C 48 23.550781 47.550781 24 47 24 L 45 24 C 44.449219 24 44 23.550781 44 23 L 44 21 C 44 20.449219 44.449219 20 45 20 Z M 45 20 "/>
<path style=" stroke:none;fill-rule:nonzero;fill:rgb(61.960787%,61.960787%,61.960787%);fill-opacity:1;" d="M 51 20 L 55 20 C 55.550781 20 56 20.449219 56 21 L 56 23 C 56 23.550781 55.550781 24 55 24 L 51 24 C 50.449219 24 50 23.550781 50 23 L 50 21 C 50 20.449219 50.449219 20 51 20 Z M 51 20 "/>
<path style=" stroke:none;fill-rule:nonzero;fill:rgb(87.843138%,87.843138%,87.843138%);fill-opacity:1;" d="M 17 26 L 19 26 C 19.550781 26 20 26.449219 20 27 L 20 29 C 20 29.550781 19.550781 30 19 30 L 17 30 C 16.449219 30 16 29.550781 16 29 L 16 27 C 16 26.449219 16.449219 26 17 26 Z M 17 26 "/>
<path style=" stroke:none;fill-rule:nonzero;fill:rgb(87.843138%,87.843138%,87.843138%);fill-opacity:1;" d="M 23 26 L 25 26 C 25.550781 26 26 26.449219 26 27 L 26 29 C 26 29.550781 25.550781 30 25 30 L 23 30 C 22.449219 30 22 29.550781 22 29 L 22 27 C 22 26.449219 22.449219 26 23 26 Z M 23 26 "/>
<path style=" stroke:none;fill-rule:nonzero;fill:rgb(87.843138%,87.843138%,87.843138%);fill-opacity:1;" d="M 29 26 L 31 26 C 31.550781 26 32 26.449219 32 27 L 32 29 C 32 29.550781 31.550781 30 31 30 L 29 30 C 28.449219 30 28 29.550781 28 29 L 28 27 C 28 26.449219 28.449219 26 29 26 Z M 29 26 "/>
<path style=" stroke:none;fill-rule:nonzero;fill:rgb(87.843138%,87.843138%,87.843138%);fill-opacity:1;" d="M 35 26 L 37 26 C 37.550781 26 38 26.449219 38 27 L 38 29 C 38 29.550781 37.550781 30 37 30 L 35 30 C 34.449219 30 34 29.550781 34 29 L 34 27 C 34 26.449219 34.449219 26 35 26 Z M 35 26 "/>
<path style=" stroke:none;fill-rule:nonzero;fill:rgb(87.843138%,87.843138%,87.843138%);fill-opacity:1;" d="M 41 26 L 43 26 C 43.550781 26 44 26.449219 44 27 L 44 29 C 44 29.550781 43.550781 30 43 30 L 41 30 C 40.449219 30 40 29.550781 40 29 L 40 27 C 40 26.449219 40.449219 26 41 26 Z M 41 26 "/>
<path style=" stroke:none;fill-rule:nonzero;fill:rgb(61.960787%,61.960787%,61.960787%);fill-opacity:1;" d="M 53 26 L 55 26 C 55.550781 26 56 26.449219 56 27 L 56 29 C 56 29.550781 55.550781 30 55 30 L 53 30 C 52.449219 30 52 29.550781 52 29 L 52 27 C 52 26.449219 52.449219 26 53 26 Z M 53 26 "/>
<path style=" stroke:none;fill-rule:nonzero;fill:rgb(87.843138%,87.843138%,87.843138%);fill-opacity:1;" d="M 19 32 L 21 32 C 21.550781 32 22 32.449219 22 33 L 22 35 C 22 35.550781 21.550781 36 21 36 L 19 36 C 18.449219 36 18 35.550781 18 35 L 18 33 C 18 32.449219 18.449219 32 19 32 Z M 19 32 "/>
<path style=" stroke:none;fill-rule:nonzero;fill:rgb(87.843138%,87.843138%,87.843138%);fill-opacity:1;" d="M 25 32 L 27 32 C 27.550781 32 28 32.449219 28 33 L 28 35 C 28 35.550781 27.550781 36 27 36 L 25 36 C 24.449219 36 24 35.550781 24 35 L 24 33 C 24 32.449219 24.449219 32 25 32 Z M 25 32 "/>
<path style=" stroke:none;fill-rule:nonzero;fill:rgb(87.843138%,87.843138%,87.843138%);fill-opacity:1;" d="M 31 32 L 33 32 C 33.550781 32 34 32.449219 34 33 L 34 35 C 34 35.550781 33.550781 36 33 36 L 31 36 C 30.449219 36 30 35.550781 30 35 L 30 33 C 30 32.449219 30.449219 32 31 32 Z M 31 32 "/>
<path style=" stroke:none;fill-rule:nonzero;fill:rgb(61.960787%,61.960787%,61.960787%);fill-opacity:1;" d="M 49 32 L 55 32 C 55.550781 32 56 32.449219 56 33 L 56 35 C 56 35.550781 55.550781 36 55 36 L 49 36 C 48.449219 36 48 35.550781 48 35 L 48 33 C 48 32.449219 48.449219 32 49 32 Z M 49 32 "/>
<path style=" stroke:none;fill-rule:nonzero;fill:rgb(87.843138%,87.843138%,87.843138%);fill-opacity:1;" d="M 21 38 L 23 38 C 23.550781 38 24 38.449219 24 39 L 24 41 C 24 41.550781 23.550781 42 23 42 L 21 42 C 20.449219 42 20 41.550781 20 41 L 20 39 C 20 38.449219 20.449219 38 21 38 Z M 21 38 "/>
<path style=" stroke:none;fill-rule:nonzero;fill:rgb(87.843138%,87.843138%,87.843138%);fill-opacity:1;" d="M 27 38 L 29 38 C 29.550781 38 30 38.449219 30 39 L 30 41 C 30 41.550781 29.550781 42 29 42 L 27 42 C 26.449219 42 26 41.550781 26 41 L 26 39 C 26 38.449219 26.449219 38 27 38 Z M 27 38 "/>
<path style=" stroke:none;fill-rule:nonzero;fill:rgb(87.843138%,87.843138%,87.843138%);fill-opacity:1;" d="M 33 38 L 35 38 C 35.550781 38 36 38.449219 36 39 L 36 41 C 36 41.550781 35.550781 42 35 42 L 33 42 C 32.449219 42 32 41.550781 32 41 L 32 39 C 32 38.449219 32.449219 38 33 38 Z M 33 38 "/>
<path style=" stroke:none;fill-rule:nonzero;fill:rgb(87.843138%,87.843138%,87.843138%);fill-opacity:1;" d="M 39 38 L 41 38 C 41.550781 38 42 38.449219 42 39 L 42 41 C 42 41.550781 41.550781 42 41 42 L 39 42 C 38.449219 42 38 41.550781 38 41 L 38 39 C 38 38.449219 38.449219 38 39 38 Z M 39 38 "/>
<path style=" stroke:none;fill-rule:nonzero;fill:rgb(87.843138%,87.843138%,87.843138%);fill-opacity:1;" d="M 43 32 L 45 32 C 45.550781 32 46 32.449219 46 33 L 46 35 C 46 35.550781 45.550781 36 45 36 L 43 36 C 42.449219 36 42 35.550781 42 35 L 42 33 C 42 32.449219 42.449219 32 43 32 Z M 43 32 "/>
<path style=" stroke:none;fill-rule:nonzero;fill:rgb(87.843138%,87.843138%,87.843138%);fill-opacity:1;" d="M 47 26 L 49 26 C 49.550781 26 50 26.449219 50 27 L 50 29 C 50 29.550781 49.550781 30 49 30 L 47 30 C 46.449219 30 46 29.550781 46 29 L 46 27 C 46 26.449219 46.449219 26 47 26 Z M 47 26 "/>
<path style=" stroke:none;fill-rule:nonzero;fill:rgb(61.960787%,61.960787%,61.960787%);fill-opacity:1;" d="M 45 38 L 55 38 C 55.550781 38 56 38.449219 56 39 L 56 41 C 56 41.550781 55.550781 42 55 42 L 45 42 C 44.449219 42 44 41.550781 44 41 L 44 39 C 44 38.449219 44.449219 38 45 38 Z M 45 38 "/>
<path style=" stroke:none;fill-rule:nonzero;fill:rgb(87.843138%,87.843138%,87.843138%);fill-opacity:1;" d="M 17 44 L 21 44 C 21.550781 44 22 44.449219 22 45 L 22 47 C 22 47.550781 21.550781 48 21 48 L 17 48 C 16.449219 48 16 47.550781 16 47 L 16 45 C 16 44.449219 16.449219 44 17 44 Z M 17 44 "/>
<path style=" stroke:none;fill-rule:nonzero;fill:rgb(61.960787%,61.960787%,61.960787%);fill-opacity:1;" d="M 51 44 L 55 44 C 55.550781 44 56 44.449219 56 45 L 56 47 C 56 47.550781 55.550781 48 55 48 L 51 48 C 50.449219 48 50 47.550781 50 47 L 50 45 C 50 44.449219 50.449219 44 51 44 Z M 51 44 "/>
<path style=" stroke:none;fill-rule:nonzero;fill:rgb(87.843138%,87.843138%,87.843138%);fill-opacity:1;" d="M 43 44 L 47 44 C 47.550781 44 48 44.449219 48 45 L 48 47 C 48 47.550781 47.550781 48 47 48 L 43 48 C 42.449219 48 42 47.550781 42 47 L 42 45 C 42 44.449219 42.449219 44 43 44 Z M 43 44 "/>
<path style=" stroke:none;fill-rule:nonzero;fill:rgb(87.843138%,87.843138%,87.843138%);fill-opacity:1;" d="M 25 44 L 39 44 C 39.550781 44 40 44.449219 40 45 L 40 47 C 40 47.550781 39.550781 48 39 48 L 25 48 C 24.449219 48 24 47.550781 24 47 L 24 45 C 24 44.449219 24.449219 44 25 44 Z M 25 44 "/>
<path style=" stroke:none;fill-rule:nonzero;fill:rgb(0%,0%,0%);fill-opacity:0.4;" d="M 8 23 L 8 24 C 8 24.554688 8.445312 25 9 25 L 11 25 C 11.554688 25 12 24.554688 12 24 L 12 23 C 12 23.554688 11.554688 24 11 24 L 9 24 C 8.445312 24 8 23.554688 8 23 Z M 14 23 L 14 24 C 14 24.554688 14.445312 25 15 25 L 17 25 C 17.554688 25 18 24.554688 18 24 L 18 23 C 18 23.554688 17.554688 24 17 24 L 15 24 C 14.445312 24 14 23.554688 14 23 Z M 20 23 L 20 24 C 20 24.554688 20.445312 25 21 25 L 23 25 C 23.554688 25 24 24.554688 24 24 L 24 23 C 24 23.554688 23.554688 24 23 24 L 21 24 C 20.445312 24 20 23.554688 20 23 Z M 26 23 L 26 24 C 26 24.554688 26.445312 25 27 25 L 29 25 C 29.554688 25 30 24.554688 30 24 L 30 23 C 30 23.554688 29.554688 24 29 24 L 27 24 C 26.445312 24 26 23.554688 26 23 Z M 32 23 L 32 24 C 32 24.554688 32.445312 25 33 25 L 35 25 C 35.554688 25 36 24.554688 36 24 L 36 23 C 36 23.554688 35.554688 24 35 24 L 33 24 C 32.445312 24 32 23.554688 32 23 Z M 38 23 L 38 24 C 38 24.554688 38.445312 25 39 25 L 41 25 C 41.554688 25 42 24.554688 42 24 L 42 23 C 42 23.554688 41.554688 24 41 24 L 39 24 C 38.445312 24 38 23.554688 38 23 Z M 44 23 L 44 24 C 44 24.554688 44.445312 25 45 25 L 47 25 C 47.554688 25 48 24.554688 48 24 L 48 23 C 48 23.554688 47.554688 24 47 24 L 45 24 C 44.445312 24 44 23.554688 44 23 Z M 50 23 L 50 24 C 50 24.554688 50.445312 25 51 25 L 55 25 C 55.554688 25 56 24.554688 56 24 L 56 23 C 56 23.554688 55.554688 24 55 24 L 51 24 C 50.445312 24 50 23.554688 50 23 Z M 8 29 L 8 30 C 8 30.554688 8.445312 31 9 31 L 13 31 C 13.554688 31 14 30.554688 14 30 L 14 29 C 14 29.554688 13.554688 30 13 30 L 9 30 C 8.445312 30 8 29.554688 8 29 Z M 16 29 L 16 30 C 16 30.554688 16.445312 31 17 31 L 19 31 C 19.554688 31 20 30.554688 20 30 L 20 29 C 20 29.554688 19.554688 30 19 30 L 17 30 C 16.445312 30 16 29.554688 16 29 Z M 22 29 L 22 30 C 22 30.554688 22.445312 31 23 31 L 25 31 C 25.554688 31 26 30.554688 26 30 L 26 29 C 26 29.554688 25.554688 30 25 30 L 23 30 C 22.445312 30 22 29.554688 22 29 Z M 28 29 L 28 30 C 28 30.554688 28.445312 31 29 31 L 31 31 C 31.554688 31 32 30.554688 32 30 L 32 29 C 32 29.554688 31.554688 30 31 30 L 29 30 C 28.445312 30 28 29.554688 28 29 Z M 34 29 L 34 30 C 34 30.554688 34.445312 31 35 31 L 37 31 C 37.554688 31 38 30.554688 38 30 L 38 29 C 38 29.554688 37.554688 30 37 30 L 35 30 C 34.445312 30 34 29.554688 34 29 Z M 40 29 L 40 30 C 40 30.554688 40.445312 31 41 31 L 43 31 C 43.554688 31 44 30.554688 44 30 L 44 29 C 44 29.554688 43.554688 30 43 30 L 41 30 C 40.445312 30 40 29.554688 40 29 Z M 46 29 L 46 30 C 46 30.554688 46.445312 31 47 31 L 49 31 C 49.554688 31 50 30.554688 50 30 L 50 29 C 50 29.554688 49.554688 30 49 30 L 47 30 C 46.445312 30 46 29.554688 46 29 Z M 52 29 L 52 30 C 52 30.554688 52.445312 31 53 31 L 55 31 C 55.554688 31 56 30.554688 56 30 L 56 29 C 56 29.554688 55.554688 30 55 30 L 53 30 C 52.445312 30 52 29.554688 52 29 Z M 8 35 L 8 36 C 8 36.554688 8.445312 37 9 37 L 15 37 C 15.554688 37 16 36.554688 16 36 L 16 35 C 16 35.554688 15.554688 36 15 36 L 9 36 C 8.445312 36 8 35.554688 8 35 Z M 18 35 L 18 36 C 18 36.554688 18.445312 37 19 37 L 21 37 C 21.554688 37 22 36.554688 22 36 L 22 35 C 22 35.554688 21.554688 36 21 36 L 19 36 C 18.445312 36 18 35.554688 18 35 Z M 24 35 L 24 36 C 24 36.554688 24.445312 37 25 37 L 27 37 C 27.554688 37 28 36.554688 28 36 L 28 35 C 28 35.554688 27.554688 36 27 36 L 25 36 C 24.445312 36 24 35.554688 24 35 Z M 30 35 L 30 36 C 30 36.554688 30.445312 37 31 37 L 33 37 C 33.554688 37 34 36.554688 34 36 L 34 35 C 34 35.554688 33.554688 36 33 36 L 31 36 C 30.445312 36 30 35.554688 30 35 Z M 36 35 L 36 36 C 36 36.554688 36.445312 37 37 37 L 39 37 C 39.554688 37 40 36.554688 40 36 L 40 35 C 40 35.554688 39.554688 36 39 36 L 37 36 C 36.445312 36 36 35.554688 36 35 Z M 42 35 L 42 36 C 42 36.554688 42.445312 37 43 37 L 45 37 C 45.554688 37 46 36.554688 46 36 L 46 35 C 46 35.554688 45.554688 36 45 36 L 43 36 C 42.445312 36 42 35.554688 42 35 Z M 48 35 L 48 36 C 48 36.554688 48.445312 37 49 37 L 55 37 C 55.554688 37 56 36.554688 56 36 L 56 35 C 56 35.554688 55.554688 36 55 36 L 49 36 C 48.445312 36 48 35.554688 48 35 Z M 8 41 L 8 42 C 8 42.554688 8.445312 43 9 43 L 17 43 C 17.554688 43 18 42.554688 18 42 L 18 41 C 18 41.554688 17.554688 42 17 42 L 9 42 C 8.445312 42 8 41.554688 8 41 Z M 20 41 L 20 42 C 20 42.554688 20.445312 43 21 43 L 23 43 C 23.554688 43 24 42.554688 24 42 L 24 41 C 24 41.554688 23.554688 42 23 42 L 21 42 C 20.445312 42 20 41.554688 20 41 Z M 26 41 L 26 42 C 26 42.554688 26.445312 43 27 43 L 29 43 C 29.554688 43 30 42.554688 30 42 L 30 41 C 30 41.554688 29.554688 42 29 42 L 27 42 C 26.445312 42 26 41.554688 26 41 Z M 32 41 L 32 42 C 32 42.554688 32.445312 43 33 43 L 35 43 C 35.554688 43 36 42.554688 36 42 L 36 41 C 36 41.554688 35.554688 42 35 42 L 33 42 C 32.445312 42 32 41.554688 32 41 Z M 38 41 L 38 42 C 38 42.554688 38.445312 43 39 43 L 41 43 C 41.554688 43 42 42.554688 42 42 L 42 41 C 42 41.554688 41.554688 42 41 42 L 39 42 C 38.445312 42 38 41.554688 38 41 Z M 44 41 L 44 42 C 44 42.554688 44.445312 43 45 43 L 55 43 C 55.554688 43 56 42.554688 56 42 L 56 41 C 56 41.554688 55.554688 42 55 42 L 45 42 C 44.445312 42 44 41.554688 44 41 Z M 8 47 L 8 48 C 8 48.554688 8.445312 49 9 49 L 13 49 C 13.554688 49 14 48.554688 14 48 L 14 47 C 14 47.554688 13.554688 48 13 48 L 9 48 C 8.445312 48 8 47.554688 8 47 Z M 16 47 L 16 48 C 16 48.554688 16.445312 49 17 49 L 21 49 C 21.554688 49 22 48.554688 22 48 L 22 47 C 22 47.554688 21.554688 48 21 48 L 17 48 C 16.445312 48 16 47.554688 16 47 Z M 24 47 L 24 48 C 24 48.554688 24.445312 49 25 49 L 39 49 C 39.554688 49 40 48.554688 40 48 L 40 47 C 40 47.554688 39.554688 48 39 48 L 25 48 C 24.445312 48 24 47.554688 24 47 Z M 42 47 L 42 48 C 42 48.554688 42.445312 49 43 49 L 47 49 C 47.554688 49 48 48.554688 48 48 L 48 47 C 48 47.554688 47.554688 48 47 48 L 43 48 C 42.445312 48 42 47.554688 42 47 Z M 50 47 L 50 48 C 50 48.554688 50.445312 49 51 49 L 55 49 C 55.554688 49 56 48.554688 56 48 L 56 47 C 56 47.554688 55.554688 48 55 48 L 51 48 C 50.445312 48 50 47.554688 50 47 Z M 50 47 "/>
<path style=" stroke:none;fill-rule:nonzero;fill:rgb(100%,100%,100%);fill-opacity:0.6;" d="M 15 20 C 14.445312 20 14 20.445312 14 21 L 14 22 C 14 21.445312 14.445312 21 15 21 L 17 21 C 17.554688 21 18 21.445312 18 22 L 18 21 C 18 20.445312 17.554688 20 17 20 Z M 21 20 C 20.445312 20 20 20.445312 20 21 L 20 22 C 20 21.445312 20.445312 21 21 21 L 23 21 C 23.554688 21 24 21.445312 24 22 L 24 21 C 24 20.445312 23.554688 20 23 20 Z M 27 20 C 26.445312 20 26 20.445312 26 21 L 26 22 C 26 21.445312 26.445312 21 27 21 L 29 21 C 29.554688 21 30 21.445312 30 22 L 30 21 C 30 20.445312 29.554688 20 29 20 Z M 33 20 C 32.445312 20 32 20.445312 32 21 L 32 22 C 32 21.445312 32.445312 21 33 21 L 35 21 C 35.554688 21 36 21.445312 36 22 L 36 21 C 36 20.445312 35.554688 20 35 20 Z M 39 20 C 38.445312 20 38 20.445312 38 21 L 38 22 C 38 21.445312 38.445312 21 39 21 L 41 21 C 41.554688 21 42 21.445312 42 22 L 42 21 C 42 20.445312 41.554688 20 41 20 Z M 45 20 C 44.445312 20 44 20.445312 44 21 L 44 22 C 44 21.445312 44.445312 21 45 21 L 47 21 C 47.554688 21 48 21.445312 48 22 L 48 21 C 48 20.445312 47.554688 20 47 20 Z M 17 26 C 16.445312 26 16 26.445312 16 27 L 16 28 C 16 27.445312 16.445312 27 17 27 L 19 27 C 19.554688 27 20 27.445312 20 28 L 20 27 C 20 26.445312 19.554688 26 19 26 Z M 23 26 C 22.445312 26 22 26.445312 22 27 L 22 28 C 22 27.445312 22.445312 27 23 27 L 25 27 C 25.554688 27 26 27.445312 26 28 L 26 27 C 26 26.445312 25.554688 26 25 26 Z M 29 26 C 28.445312 26 28 26.445312 28 27 L 28 28 C 28 27.445312 28.445312 27 29 27 L 31 27 C 31.554688 27 32 27.445312 32 28 L 32 27 C 32 26.445312 31.554688 26 31 26 Z M 35 26 C 34.445312 26 34 26.445312 34 27 L 34 28 C 34 27.445312 34.445312 27 35 27 L 37 27 C 37.554688 27 38 27.445312 38 28 L 38 27 C 38 26.445312 37.554688 26 37 26 Z M 41 26 C 40.445312 26 40 26.445312 40 27 L 40 28 C 40 27.445312 40.445312 27 41 27 L 43 27 C 43.554688 27 44 27.445312 44 28 L 44 27 C 44 26.445312 43.554688 26 43 26 Z M 47 26 C 46.445312 26 46 26.445312 46 27 L 46 28 C 46 27.445312 46.445312 27 47 27 L 49 27 C 49.554688 27 50 27.445312 50 28 L 50 27 C 50 26.445312 49.554688 26 49 26 Z M 19 32 C 18.445312 32 18 32.445312 18 33 L 18 34 C 18 33.445312 18.445312 33 19 33 L 21 33 C 21.554688 33 22 33.445312 22 34 L 22 33 C 22 32.445312 21.554688 32 21 32 Z M 25 32 C 24.445312 32 24 32.445312 24 33 L 24 34 C 24 33.445312 24.445312 33 25 33 L 27 33 C 27.554688 33 28 33.445312 28 34 L 28 33 C 28 32.445312 27.554688 32 27 32 Z M 31 32 C 30.445312 32 30 32.445312 30 33 L 30 34 C 30 33.445312 30.445312 33 31 33 L 33 33 C 33.554688 33 34 33.445312 34 34 L 34 33 C 34 32.445312 33.554688 32 33 32 Z M 43 32 C 42.445312 32 42 32.445312 42 33 L 42 34 C 42 33.445312 42.445312 33 43 33 L 45 33 C 45.554688 33 46 33.445312 46 34 L 46 33 C 46 32.445312 45.554688 32 45 32 Z M 21 38 C 20.445312 38 20 38.445312 20 39 L 20 40 C 20 39.445312 20.445312 39 21 39 L 23 39 C 23.554688 39 24 39.445312 24 40 L 24 39 C 24 38.445312 23.554688 38 23 38 Z M 27 38 C 26.445312 38 26 38.445312 26 39 L 26 40 C 26 39.445312 26.445312 39 27 39 L 29 39 C 29.554688 39 30 39.445312 30 40 L 30 39 C 30 38.445312 29.554688 38 29 38 Z M 33 38 C 32.445312 38 32 38.445312 32 39 L 32 40 C 32 39.445312 32.445312 39 33 39 L 35 39 C 35.554688 39 36 39.445312 36 40 L 36 39 C 36 38.445312 35.554688 38 35 38 Z M 39 38 C 38.445312 38 38 38.445312 38 39 L 38 40 C 38 39.445312 38.445312 39 39 39 L 41 39 C 41.554688 39 42 39.445312 42 40 L 42 39 C 42 38.445312 41.554688 38 41 38 Z M 17 44 C 16.445312 44 16 44.445312 16 45 L 16 46 C 16 45.445312 16.445312 45 17 45 L 21 45 C 21.554688 45 22 45.445312 22 46 L 22 45 C 22 44.445312 21.554688 44 21 44 Z M 25 44 C 24.445312 44 24 44.445312 24 45 L 24 46 C 24 45.445312 24.445312 45 25 45 L 39 45 C 39.554688 45 40 45.445312 40 46 L 40 45 C 40 44.445312 39.554688 44 39 44 Z M 43 44 C 42.445312 44 42 44.445312 42 45 L 42 46 C 42 45.445312 42.445312 45 43 45 L 47 45 C 47.554688 45 48 45.445312 48 46 L 48 45 C 48 44.445312 47.554688 44 47 44 Z M 43 44 "/>
<path style=" stroke:none;fill-rule:nonzero;fill:rgb(0%,0%,0%);fill-opacity:0.2;" d="M 4 48 L 4 49.5 C 4 51.714844 5.785156 53.5 8 53.5 L 56 53.5 C 58.214844 53.5 60 51.714844 60 49.5 L 60 48 C 60 50.214844 58.214844 52 56 52 L 8 52 C 5.785156 52 4 50.214844 4 48 Z M 4 48 "/>
<path style=" stroke:none;fill-rule:nonzero;fill:rgb(0%,0%,0%);fill-opacity:0.4;" d="M 4 47 L 4 48 C 4 50.214844 5.785156 52 8 52 L 56 52 C 58.214844 52 60 50.214844 60 48 L 60 47 C 60 49.214844 58.214844 51 56 51 L 8 51 C 5.785156 51 4 49.214844 4 47 Z M 4 47 "/>
<path style=" stroke:none;fill-rule:nonzero;fill:rgb(99.607843%,99.607843%,99.607843%);fill-opacity:0.6;" d="M 4 20.96875 L 4 19.96875 C 4 17.753906 5.785156 15.96875 8 15.96875 L 56 15.96875 C 58.214844 15.96875 60 17.753906 60 19.96875 L 60 20.96875 C 60 18.753906 58.214844 16.96875 56 16.96875 L 8 16.96875 C 5.785156 16.96875 4 18.753906 4 20.96875 Z M 4 20.96875 "/>
<path style=" stroke:none;fill-rule:nonzero;fill:rgb(98.039216%,98.039216%,98.039216%);fill-opacity:0.4;" d="M 30.972656 14 C 30.710938 14.011719 30.5 14.230469 30.5 14.5 L 33 14.5 C 33.007812 14.5 33.015625 14.5 33.027344 14.5 L 33.5 14.5 C 33.5 14.222656 33.277344 14 33 14 L 31 14 C 30.992188 14 30.984375 14 30.972656 14 Z M 30.5 15 L 30.5 15.5 L 31 15.5 L 31 15 Z M 33 15 L 33 15.5 L 33.5 15.5 L 33.5 15 Z M 30.5 16 L 30.5 16.5 L 31 16.5 L 31 16 Z M 33 16 L 33 16.5 L 33.5 16.5 L 33.5 16 Z M 33 16 "/>
<path style="fill:none;stroke-width:0.264583;stroke-linecap:butt;stroke-linejoin:miter;stroke:rgb(38.039216%,38.039216%,38.039216%);stroke-opacity:1;stroke-miterlimit:4;" d="M 8.466666 -211.295834 C 8.466666 -211.295834 8.466666 -212.883333 9.657291 -211.825 C 10.715624 -210.898959 10.583333 -213.941667 10.583333 -213.941667 " transform="matrix(3.779528,0,0,3.779528,0,812.598468)"/>
<path style=" stroke:none;fill-rule:nonzero;fill:rgb(87.843138%,87.843138%,87.843138%);fill-opacity:0.976471;" d="M 30.5 15 L 33.5 15 L 33.5 15.5 L 30.5 15.5 Z M 30.5 15 "/>
<path style=" stroke:none;fill-rule:nonzero;fill:rgb(61.960787%,61.960787%,61.960787%);fill-opacity:1;" d="M 9 38 L 17 38 C 17.550781 38 18 38.449219 18 39 L 18 41 C 18 41.550781 17.550781 42 17 42 L 9 42 C 8.449219 42 8 41.550781 8 41 L 8 39 C 8 38.449219 8.449219 38 9 38 Z M 9 38 "/>
<path style=" stroke:none;fill-rule:nonzero;fill:rgb(87.843138%,87.843138%,87.843138%);fill-opacity:1;" d="M 37 32 L 39 32 C 39.550781 32 40 32.449219 40 33 L 40 35 C 40 35.550781 39.550781 36 39 36 L 37 36 C 36.449219 36 36 35.550781 36 35 L 36 33 C 36 32.449219 36.449219 32 37 32 Z M 37 32 "/>
<path style=" stroke:none;fill-rule:nonzero;fill:rgb(100%,100%,100%);fill-opacity:0.4;" d="M 9 38 C 8.445312 38 8 38.445312 8 39 L 8 40 C 8 39.445312 8.445312 39 9 39 L 17 39 C 17.554688 39 18 39.445312 18 40 L 18 39 C 18 38.445312 17.554688 38 17 38 Z M 9 38 "/>
<path style=" stroke:none;fill-rule:nonzero;fill:rgb(100%,100%,100%);fill-opacity:0.4;" d="M 37 32 C 36.445312 32 36 32.445312 36 33 L 36 34 C 36 33.445312 36.445312 33 37 33 L 39 33 C 39.554688 33 40 33.445312 40 34 L 40 33 C 40 32.445312 39.554688 32 39 32 Z M 37 32 "/>
<path style=" stroke:none;fill-rule:nonzero;fill:rgb(100%,100%,100%);fill-opacity:0.4;" d="M 9 26 C 8.445312 26 8 26.445312 8 27 L 8 28 C 8 27.445312 8.445312 27 9 27 L 13 27 C 13.554688 27 14 27.445312 14 28 L 14 27 C 14 26.445312 13.554688 26 13 26 Z M 9 26 "/>
<path style=" stroke:none;fill-rule:nonzero;fill:rgb(100%,100%,100%);fill-opacity:0.4;" d="M 9 26 C 8.445312 26 8 26.445312 8 27 L 8 28 C 8 27.445312 8.445312 27 9 27 L 13 27 C 13.554688 27 14 27.445312 14 28 L 14 27 C 14 26.445312 13.554688 26 13 26 Z M 9 26 "/>
<path style=" stroke:none;fill-rule:nonzero;fill:rgb(100%,100%,100%);fill-opacity:0.4;" d="M 9 32 C 8.445312 32 8 32.445312 8 33 L 8 34 C 8 33.445312 8.445312 33 9 33 L 15 33 C 15.554688 33 16 33.445312 16 34 L 16 33 C 16 32.445312 15.554688 32 15 32 Z M 9 32 "/>
<path style=" stroke:none;fill-rule:nonzero;fill:rgb(100%,100%,100%);fill-opacity:0.4;" d="M 49 32 C 48.445312 32 48 32.445312 48 33 L 48 34 C 48 33.445312 48.445312 33 49 33 L 55 33 C 55.554688 33 56 33.445312 56 34 L 56 33 C 56 32.445312 55.554688 32 55 32 Z M 49 32 "/>
<path style=" stroke:none;fill-rule:nonzero;fill:rgb(100%,100%,100%);fill-opacity:0.4;" d="M 45 38 C 44.445312 38 44 38.445312 44 39 L 44 40 C 44 39.445312 44.445312 39 45 39 L 55 39 C 55.554688 39 56 39.445312 56 40 L 56 39 C 56 38.445312 55.554688 38 55 38 Z M 45 38 "/>
<path style=" stroke:none;fill-rule:nonzero;fill:rgb(100%,100%,100%);fill-opacity:0.4;" d="M 9 44 C 8.445312 44 8 44.445312 8 45 L 8 46 C 8 45.445312 8.445312 45 9 45 L 13 45 C 13.554688 45 14 45.445312 14 46 L 14 45 C 14 44.445312 13.554688 44 13 44 Z M 9 44 "/>
<path style=" stroke:none;fill-rule:nonzero;fill:rgb(100%,100%,100%);fill-opacity:0.4;" d="M 51 44 C 50.445312 44 50 44.445312 50 45 L 50 46 C 50 45.445312 50.445312 45 51 45 L 55 45 C 55.554688 45 56 45.445312 56 46 L 56 45 C 56 44.445312 55.554688 44 55 44 Z M 51 44 "/>
<path style=" stroke:none;fill-rule:nonzero;fill:rgb(100%,100%,100%);fill-opacity:0.4;" d="M 53 26 C 52.445312 26 52 26.445312 52 27 L 52 28 C 52 27.445312 52.445312 27 53 27 L 55 27 C 55.554688 27 56 27.445312 56 28 L 56 27 C 56 26.445312 55.554688 26 55 26 Z M 53 26 "/>
<path style=" stroke:none;fill-rule:nonzero;fill:rgb(100%,100%,100%);fill-opacity:0.4;" d="M 51 20 C 50.445312 20 50 20.445312 50 21 L 50 22 C 50 21.445312 50.445312 21 51 21 L 55 21 C 55.554688 21 56 21.445312 56 22 L 56 21 C 56 20.445312 55.554688 20 55 20 Z M 51 20 "/>
<path style=" stroke:none;fill-rule:nonzero;fill:url(#linear0);" d="M 8 16 L 56 16 C 58.210938 16 60 17.789062 60 20 L 60 48 C 60 50.210938 58.210938 52 56 52 L 8 52 C 5.789062 52 4 50.210938 4 48 L 4 20 C 4 17.789062 5.789062 16 8 16 Z M 8 16 "/>
</g>
</svg>
