<?xml version="1.0" encoding="UTF-8"?>
<!-- Generated by Pixelmator Pro 3.3.11 -->
<svg width="1020" height="1159" viewBox="0 0 1020 1159" xmlns="http://www.w3.org/2000/svg">
    <g id="layer1">
        <path id="path36" fill="#43b0e8" stroke="none" d="M 1574.886719 575.931946 C 1624.730713 625.545227 1649.638428 686.068237 1649.638428 757.558594 C 1649.638428 828.52948 1624.730713 888.706116 1574.886719 938.059631 C 1525.04248 987.413086 1464.144287 1012.089844 1392.16333 1012.089844 C 1320.21106 1012.089844 1259.312866 987.413086 1209.46875 938.059631 C 1159.653442 888.706116 1134.717041 828.52948 1134.717041 757.558594 C 1134.717041 686.068237 1159.653442 625.545227 1209.46875 575.931946 C 1259.312866 526.347595 1320.21106 501.55542 1392.16333 501.55542 C 1464.144287 501.55542 1525.04248 526.347595 1574.886719 575.931946 M 1504.117798 872.774414 C 1534.537964 842.152161 1549.719238 803.737305 1549.719238 757.558594 C 1549.719238 711.351013 1534.537964 672.705261 1504.117798 641.592285 C 1473.755371 610.4505 1436.437134 594.894104 1392.16333 594.894104 C 1347.947144 594.894104 1310.600098 610.4505 1280.237671 641.592285 C 1249.846313 672.705261 1234.63623 711.351013 1234.63623 757.558594 C 1234.63623 803.737305 1249.846313 842.152161 1280.237671 872.774414 C 1310.600098 903.425598 1347.947144 918.72229 1392.16333 918.72229 C 1436.437134 918.72229 1473.755371 903.425598 1504.117798 872.774414"/>
        <path id="path40" fill="#43b0e8" stroke="none" d="M 2071.52417 681.332031 C 2107.255127 718.044067 2125.120361 764.107422 2125.120361 819.550659 C 2125.120361 874.965149 2107.370361 920.912964 2071.870605 957.394104 C 2036.399536 993.846497 1994.550171 1012.087036 1946.437866 1012.087036 C 1898.787109 1012.087036 1858.669189 998.954895 1826.084473 972.690857 L 1826.084473 1125.138184 L 1729.830566 1125.138184 L 1729.830566 637.202515 L 1826.084473 637.202515 L 1826.084473 666.381714 C 1858.178711 639.626892 1898.296509 626.263977 1946.437866 626.263977 C 1994.088135 626.263977 2035.793213 644.619995 2071.52417 681.332031 M 2002.977783 898.689453 C 2022.170654 878.976929 2031.781616 852.59729 2031.781616 819.550659 C 2031.781616 786.47522 2022.170654 759.980164 2002.977783 740.036743 C 1983.755859 720.093384 1959.310059 710.135986 1929.640015 710.135986 C 1902.423584 710.135986 1878.353027 720.353149 1857.457031 740.787109 C 1836.532227 761.192322 1826.084473 787.456543 1826.084473 819.550659 C 1826.084473 851.616089 1836.532227 877.764771 1857.457031 897.939026 C 1878.353027 918.113403 1902.423584 928.214966 1929.640015 928.214966 C 1959.310059 928.214966 1983.755859 918.373169 2002.977783 898.689453"/>
        <path id="path44" fill="#43b0e8" stroke="none" d="M 2541.542725 845.067261 L 2264.383789 845.067261 C 2269.261475 870.84082 2280.055664 891.36145 2296.853027 906.687012 C 2313.621826 922.012573 2333.189941 929.689758 2355.557861 929.689758 C 2396.887939 929.689758 2427.048096 913.61377 2445.981689 881.519531 L 2532.047363 899.760132 C 2516.490967 936.731995 2493.401123 964.670105 2462.778809 983.632202 C 2432.12793 1002.623291 2396.397217 1012.089844 2355.557861 1012.089844 C 2303.05835 1012.089844 2258.813232 994.109009 2222.822998 958.11853 C 2186.83252 922.128052 2168.851563 875.949219 2168.851563 819.553467 C 2168.851563 763.128906 2186.947998 716.834717 2223.169434 680.613342 C 2259.419434 644.363037 2304.010986 626.266846 2357.000977 626.266846 C 2406.614502 626.266846 2449.271729 643.641541 2485.031494 678.390991 C 2520.762207 713.169312 2539.609131 757.789551 2541.542725 812.251526 Z M 2301.211426 727.629028 C 2283.952148 739.317993 2272.666992 755.855835 2267.327637 777.24231 L 2443.066406 777.24231 C 2437.236572 754.87439 2426.557861 738.105835 2411.001221 726.907471 C 2395.44458 715.738037 2377.435303 710.138855 2357.000977 710.138855 C 2337.086182 710.138855 2318.470703 715.968872 2301.211426 727.629028"/>
        <path id="path48" fill="#43b0e8" stroke="none" d="M 2930.976318 668.932983 C 2957.731201 697.361816 2971.094238 734.189331 2971.094238 779.415527 L 2971.094238 1001.159912 L 2874.811523 1001.159912 L 2874.811523 799.849609 C 2874.811523 774.076111 2868.144531 753.411255 2854.752686 737.854736 C 2841.389648 722.298218 2823.52417 714.505615 2801.15625 714.505615 C 2740.864258 714.505615 2710.703857 756.326233 2710.703857 839.967407 L 2710.703857 1001.159912 L 2614.450195 1001.159912 L 2614.450195 637.213989 L 2710.703857 637.213989 L 2710.703857 670.029785 C 2739.883057 640.850586 2778.067139 626.246582 2825.227051 626.246582 C 2868.981445 626.246582 2904.250488 640.475403 2930.976318 668.932983"/>
        <path id="path52" fill="#43b0e8" stroke="none" d="M 3564.735596 1001.148315 L 3458.264648 1001.148315 L 3363.454102 671.490112 L 3267.893066 1001.148315 L 3162.143799 1001.148315 L 3019.91333 512.491089 L 3123.468994 512.491089 L 3216.836914 849.451294 L 3315.312744 512.491089 L 3410.844971 512.491089 L 3509.321045 849.451294 L 3602.659912 512.491089 L 3706.96582 512.491089 Z"/>
        <path id="path64" fill="#43b0e8" stroke="none" d="M 4006.66626 635.023499 L 4001.557617 727.640625 L 3980.401855 727.640625 C 3893.845703 727.640625 3850.582275 779.678223 3850.582275 883.72467 L 3850.582275 1001.134033 L 3754.299805 1001.134033 L 3754.299805 637.21698 L 3850.582275 637.21698 L 3850.582275 703.569946 C 3883.657471 655.919312 3927.181152 632.108398 3981.1521 632.108398 C 3992.321777 632.108398 4000.835938 633.060547 4006.66626 635.023376"/>
        <path id="path68" fill="#43b0e8" stroke="none" d="M 4339.210449 985.101318 C 4305.67334 1003.110962 4274.069824 1012.087036 4244.399902 1012.087036 C 4199.664063 1012.087036 4164.654785 1000.051697 4139.37207 975.981079 C 4114.089355 951.910522 4101.447754 915.573547 4101.447754 866.941589 L 4101.447754 715.966064 L 4023.405518 715.966064 L 4023.405518 637.202515 L 4101.447754 637.202515 L 4101.447754 527.066345 L 4197.730469 527.066345 L 4197.730469 637.202515 L 4316.611816 637.202515 L 4316.611816 715.966064 L 4197.730469 715.966064 L 4197.730469 859.639648 C 4197.730469 901.460205 4215.480469 922.384888 4250.95166 922.384888 C 4269.451172 922.384888 4289.625977 916.526367 4311.503418 904.865845 Z"/>
        <path id="path72" fill="#072342" stroke="none" d="M 2051.187988 1176.615967 L 2023.047729 1176.615967 L 2005.240112 1110.811279 L 1987.287964 1176.615967 L 1959.292358 1176.615967 L 1928.929688 1070.116333 L 1955.799927 1070.116333 L 1974.415894 1137.190918 L 1992.685303 1070.116333 L 2017.650635 1070.116333 L 2035.920166 1137.190918 L 2054.535889 1070.116333 L 2081.550781 1070.116333 Z"/>
        <path id="path74" fill="#072342" stroke="none" d="M 2123.555664 1176.604492 L 2149.791016 1176.604492 L 2149.791016 1070.104858 L 2123.555664 1070.104858 Z"/>
        <path id="path86" fill="#072342" stroke="none" d="M 2266.00293 1176.615967 L 2233.879883 1140.048218 L 2226.260742 1140.048218 L 2226.260742 1176.615967 L 2200.025391 1176.615967 L 2200.025391 1070.116333 L 2253.910156 1070.116333 C 2265.454834 1070.116333 2274.748535 1073.320068 2281.73291 1079.727295 C 2288.746582 1086.134766 2292.238525 1094.533325 2292.238525 1104.923462 C 2292.238525 1113.61084 2289.727539 1120.941772 2284.763184 1126.944946 C 2279.770264 1132.919678 2272.95874 1136.873413 2264.242432 1138.778198 L 2297.635254 1176.615967 Z M 2251.052734 1118.113281 C 2255.728027 1118.113281 2259.451172 1116.930298 2262.279785 1114.620605 C 2265.07959 1112.282471 2266.493896 1109.165405 2266.493896 1105.240723 C 2266.493896 1101.4021 2265.078857 1098.34314 2262.279785 1096.005005 C 2259.451416 1093.696289 2255.728027 1092.512451 2251.052734 1092.512451 L 2226.260498 1092.512451 L 2226.260498 1118.112671 Z"/>
        <path id="path90" fill="#072342" stroke="none" d="M 2422.767822 1176.615967 L 2339.790283 1176.615967 L 2339.790283 1070.116333 L 2422.276855 1070.116333 L 2422.276855 1092.686157 L 2366.025635 1092.686157 L 2366.025635 1112.716187 L 2417.688232 1112.716187 L 2417.688232 1134.016113 L 2366.025635 1134.016113 L 2366.025635 1154.046143 L 2422.767822 1154.046143 Z"/>
        <path id="path94" fill="#072342" stroke="none" d="M 2549.644043 1176.615967 L 2470.938232 1176.615967 L 2470.938232 1070.116333 L 2497.202148 1070.116333 L 2497.202148 1153.728638 L 2549.644043 1153.728638 Z"/>
        <path id="path98" fill="#072342" stroke="none" d="M 2679.071045 1176.615967 L 2596.093994 1176.615967 L 2596.093994 1070.116333 L 2678.580566 1070.116333 L 2678.580566 1092.686157 L 2622.329102 1092.686157 L 2622.329102 1112.716187 L 2673.991455 1112.716187 L 2673.991455 1134.016113 L 2622.329102 1134.016113 L 2622.329102 1154.046143 L 2679.071045 1154.046143 Z"/>
        <path id="path110" fill="#072342" stroke="none" d="M 2798.322266 1075.897339 C 2806.173096 1081.352539 2811.079346 1088.91394 2813.099365 1098.553711 L 2787.354736 1103.806885 C 2786.403564 1099.044678 2784.150879 1095.350464 2780.65918 1092.75293 C 2777.195801 1090.155396 2773.184082 1088.856201 2768.739258 1088.856201 C 2764.496338 1088.856201 2761.062012 1089.895264 2758.406738 1091.94458 C 2755.751221 1094.022705 2754.424316 1096.591553 2754.424316 1099.679199 C 2754.424316 1104.32605 2757.310547 1107.298462 2763.024902 1108.568481 L 2785.104248 1113.503418 C 2804.614746 1117.833008 2814.369873 1128.194092 2814.369873 1144.500977 C 2814.369873 1155.410645 2810.185303 1163.895996 2801.815186 1169.928101 C 2793.445313 1175.960083 2782.997314 1178.990601 2770.500244 1178.990601 C 2758.089844 1178.990601 2747.583984 1176.162354 2738.954346 1170.505371 C 2730.295654 1164.819458 2725.30249 1156.911499 2723.91748 1146.723389 L 2750.931885 1141.499634 C 2753.500977 1151.976318 2760.485107 1157.229248 2771.914307 1157.229248 C 2776.791992 1157.229248 2780.659668 1156.218994 2783.458984 1154.198853 C 2786.258789 1152.178955 2787.67334 1149.523315 2787.67334 1146.262329 C 2787.67334 1143.722778 2786.953125 1141.702026 2785.508301 1140.201538 C 2784.093262 1138.729858 2781.525635 1137.604004 2777.80249 1136.882446 L 2755.550049 1132.091431 C 2736.472656 1127.761963 2726.948242 1117.487549 2726.948242 1101.267212 C 2726.948242 1090.963623 2730.81543 1082.824585 2738.550537 1076.763672 C 2746.286133 1070.731567 2756.444824 1067.72998 2769.057129 1067.72998 C 2780.746582 1067.72998 2790.472656 1070.442871 2798.322998 1075.898071"/>
        <path id="path114" fill="#072342" stroke="none" d="M 2930.286621 1075.897339 C 2938.137451 1081.352539 2943.072266 1088.91394 2945.092773 1098.553711 L 2919.318848 1103.806885 C 2918.366211 1099.044678 2916.144043 1095.350464 2912.6521 1092.75293 C 2909.159668 1090.155396 2905.176758 1088.856201 2900.732178 1088.856201 C 2896.489502 1088.856201 2893.026367 1089.895264 2890.399658 1091.94458 C 2887.745117 1094.022705 2886.41748 1096.591553 2886.41748 1099.679199 C 2886.41748 1104.32605 2889.275146 1107.298462 2894.989258 1108.568481 L 2917.097168 1113.503418 C 2936.578857 1117.833008 2946.333984 1128.194092 2946.333984 1144.500977 C 2946.333984 1155.410645 2942.177734 1163.895996 2933.779053 1169.928101 C 2925.409424 1175.960083 2914.961426 1178.990601 2902.464355 1178.990601 C 2890.08252 1178.990601 2879.548096 1176.162354 2870.918457 1170.505371 C 2862.288818 1164.819458 2857.266846 1156.911499 2855.881592 1146.723389 L 2882.925049 1141.499634 C 2885.464111 1151.976318 2892.449219 1157.229248 2903.907471 1157.229248 C 2908.784912 1157.229248 2912.623291 1156.218994 2915.422852 1154.198853 C 2918.251465 1152.178955 2919.636963 1149.523315 2919.636963 1146.262329 C 2919.636963 1143.722778 2918.916992 1141.702026 2917.500977 1140.201538 C 2916.057861 1138.729858 2913.489014 1137.604004 2909.79541 1136.882446 L 2887.542969 1132.091431 C 2868.436279 1127.761963 2858.912109 1117.487549 2858.912109 1101.267212 C 2858.912109 1090.963623 2862.779541 1082.824585 2870.514404 1076.763672 C 2878.249512 1070.731567 2888.437256 1067.72998 2901.02124 1067.72998 C 2912.710205 1067.72998 2922.465576 1070.442871 2930.287109 1075.898071"/>
        <path id="path118" fill="#072342" stroke="none" d="M 3088.658936 1115.570435 L 3138.560791 1115.570435 L 3138.560791 1138.457764 L 3088.658936 1138.457764 L 3088.658936 1176.612915 L 3062.423584 1176.612915 L 3062.423584 1070.113281 L 3144.766113 1070.113281 L 3144.766113 1093.14502 L 3088.658936 1093.14502 Z"/>
        <path id="path130" fill="#072342" stroke="none" d="M 3255.292236 1176.615967 L 3223.169189 1140.048218 L 3215.549805 1140.048218 L 3215.549805 1176.615967 L 3189.314697 1176.615967 L 3189.314697 1070.116333 L 3243.199463 1070.116333 C 3254.743896 1070.116333 3264.008789 1073.320068 3271.022217 1079.727295 C 3278.035889 1086.134766 3281.527832 1094.533325 3281.527832 1104.923462 C 3281.527832 1113.61084 3279.01709 1120.941772 3274.02417 1126.944946 C 3269.05957 1132.919678 3262.219482 1136.873413 3253.532227 1138.778198 L 3286.925049 1176.615967 Z M 3240.312988 1118.113281 C 3245.01709 1118.113281 3248.740967 1116.930298 3251.540283 1114.620605 C 3254.340088 1112.282471 3255.753906 1109.165405 3255.753906 1105.240723 C 3255.753906 1101.4021 3254.338623 1098.34314 3251.540283 1096.005005 C 3248.740967 1093.696289 3245.017334 1092.512451 3240.312988 1092.512451 L 3215.549805 1092.512451 L 3215.549805 1118.112671 Z"/>
        <path id="path134" fill="#072342" stroke="none" d="M 3412.057373 1176.615967 L 3329.079834 1176.615967 L 3329.079834 1070.116333 L 3411.56665 1070.116333 L 3411.56665 1092.686157 L 3355.314941 1092.686157 L 3355.314941 1112.716187 L 3406.94873 1112.716187 L 3406.94873 1134.016113 L 3355.314941 1134.016113 L 3355.314941 1154.046143 L 3412.057373 1154.046143 Z"/>
        <path id="path138" fill="#072342" stroke="none" d="M 3543.230469 1176.615967 L 3460.253174 1176.615967 L 3460.253174 1070.116333 L 3542.739746 1070.116333 L 3542.739746 1092.686157 L 3486.459961 1092.686157 L 3486.459961 1112.716187 L 3538.150879 1112.716187 L 3538.150879 1134.016113 L 3486.459961 1134.016113 L 3486.459961 1154.046143 L 3543.230469 1154.046143 Z"/>
        <path id="path150" fill="#072342" stroke="none" d="M 3633.536133 1070.101929 C 3651.026367 1070.101929 3665.11084 1075.008179 3675.818604 1084.821289 C 3686.526367 1094.605469 3691.865723 1107.477661 3691.865723 1123.351685 C 3691.865723 1139.254517 3686.526855 1152.098022 3675.818604 1161.910889 C 3665.11084 1171.723877 3651.026367 1176.60144 3633.536133 1176.60144 L 3591.397949 1176.60144 L 3591.397949 1070.101929 Z M 3632.584961 1153.887329 C 3642.542236 1153.887329 3650.507813 1151.087769 3656.51123 1145.546387 C 3662.486084 1139.975708 3665.487061 1132.587402 3665.487061 1123.351685 C 3665.487061 1114.144775 3662.485352 1106.756226 3656.51123 1101.185913 C 3650.507813 1095.615234 3642.542236 1092.844849 3632.584961 1092.844849 L 3617.634766 1092.844849 L 3617.634766 1153.887329 Z"/>
        <path id="path154" fill="#072342" stroke="none" d="M 3831.876709 1083.929565 C 3842.844238 1094.752686 3848.327881 1107.942383 3848.327881 1123.52771 C 3848.327881 1138.997681 3842.843994 1152.10083 3831.876709 1162.866211 C 3820.90918 1173.631592 3807.488525 1178.999878 3791.585693 1178.999878 C 3775.683105 1178.999878 3762.262207 1173.631348 3751.294922 1162.866211 C 3740.327393 1152.10083 3734.84375 1138.997681 3734.84375 1123.52771 C 3734.84375 1107.942383 3740.327393 1094.752686 3751.294922 1083.929565 C 3762.262207 1073.135254 3775.683105 1067.709229 3791.585693 1067.709229 C 3807.488525 1067.709229 3820.90918 1073.13501 3831.876709 1083.929565 M 3813.376221 1146.010986 C 3819.206299 1140.036255 3822.121582 1132.532593 3822.121582 1123.52771 C 3822.121582 1114.407349 3819.206543 1106.816895 3813.376221 1100.784668 C 3807.517578 1094.752686 3800.272949 1091.722168 3791.585693 1091.722168 C 3782.898682 1091.722168 3775.625244 1094.752441 3769.823975 1100.784668 C 3763.965332 1106.816772 3761.050049 1114.407349 3761.050049 1123.52771 C 3761.050049 1132.532593 3763.964844 1140.036621 3769.823975 1146.010986 C 3775.625488 1152.014404 3782.898682 1155.015869 3791.585693 1155.015869 C 3800.272949 1155.015869 3807.517334 1152.01416 3813.376221 1146.010986"/>
        <path id="path158" fill="#072342" stroke="none" d="M 4017.829102 1176.615967 L 3992.4021 1176.615967 L 3992.4021 1123.510498 L 3964.579346 1176.615967 L 3948.359375 1176.615967 L 3920.392334 1123.192993 L 3920.392334 1176.615967 L 3894.936523 1176.615967 L 3894.936523 1070.116333 L 3920.680664 1070.116333 L 3956.469482 1136.094116 L 3992.229004 1070.116333 L 4017.829102 1070.116333 Z"/>
        <g id="g168">
            <path id="path170" fill="#43b0e8" stroke="none" d="M 517.177795 599.304199 C 476.078766 599.304199 442.628052 632.754883 442.628052 673.853943 C 442.628052 714.953003 476.078766 748.403687 517.177795 748.403687 C 558.276855 748.403687 591.727539 714.953003 591.727539 673.853943 C 591.727539 632.754883 558.276855 599.304199 517.177795 599.304199"/>
        </g>
        <g id="g172">
            <path id="path174" fill="#43b0e8" stroke="none" d="M 60 216.678955 L 137.493637 294.172607 C 234.757523 196.879822 369.050995 136.645508 517.169189 136.645508 C 665.287354 136.645508 799.580811 196.879822 896.873596 294.172607 L 974.367188 216.678955 C 857.24646 99.558228 695.505554 26.999878 517.169189 26.999878 C 338.861633 26.999878 177.149597 99.558228 60 216.678955"/>
        </g>
        <g id="g176">
            <path id="path178" fill="#43b0e8" stroke="none" d="M 199.488556 356.156006 L 276.982208 433.649597 C 338.51532 372.116516 423.484131 333.990234 517.169189 333.990234 C 610.883057 333.990234 695.851929 372.116516 757.38501 433.649597 L 834.878662 356.156006 C 753.488708 274.765991 641.101257 224.344666 517.169189 224.344666 C 393.237091 224.344666 280.87854 274.765991 199.488556 356.156006"/>
        </g>
        <g id="g180">
            <path id="path182" fill="#43b0e8" stroke="none" d="M 338.962677 495.635864 L 416.456299 573.129517 C 442.258667 547.327148 477.873993 531.337769 517.183594 531.337769 C 556.493225 531.337769 592.108521 547.327148 617.910889 573.129517 L 695.404541 495.635864 C 649.745361 449.976685 586.682556 421.6922 517.183594 421.6922 C 447.655792 421.6922 384.621857 449.976685 338.962677 495.635864"/>
        </g>
        <g id="g184">
            <path id="path186" fill="#072342" stroke="none" d="M 791.730469 473.854004 C 832.74292 530.01886 857.044495 599.142578 857.044495 673.865479 C 857.044495 861.264465 704.568176 1013.711914 517.16925 1013.711914 C 329.770233 1013.711914 177.293961 861.264465 177.293961 673.865479 C 177.293961 599.142578 201.595474 530.01886 242.636826 473.854004 L 164.47937 395.696533 C 103.927551 472.295471 67.677254 568.895508 67.677254 673.865479 C 67.677254 921.700806 269.305023 1123.357422 517.16925 1123.357422 C 765.033386 1123.357422 966.690063 921.700806 966.690063 673.865479 C 966.690063 568.895508 930.410889 472.295471 869.887939 395.696533 Z"/>
        </g>
        <path id="path190" fill="#43b0e8" stroke="none" d="M 4423.893555 501.685364 C 4423.893555 508.669678 4422.595703 515.163696 4419.968262 521.195862 C 4417.341797 527.227905 4413.762695 532.509644 4409.231445 537.040894 C 4404.671875 541.601135 4399.36084 545.179688 4393.242676 547.777466 C 4387.123535 550.403625 4380.601074 551.731445 4373.587891 551.731445 C 4366.603027 551.731445 4360.108887 550.403564 4354.07666 547.777466 C 4348.044434 545.179932 4342.763184 541.60144 4338.231934 537.040894 C 4333.671387 532.509338 4330.093262 527.227905 4327.495117 521.195862 C 4324.869141 515.163818 4323.541016 508.669861 4323.541016 501.685364 C 4323.541016 494.700989 4324.868652 488.14917 4327.495117 482.030518 C 4330.092773 475.911682 4333.670898 470.601257 4338.231934 466.041077 C 4342.763672 461.509521 4348.044434 457.93103 4354.07666 455.304626 C 4360.108887 452.678406 4366.603027 451.379211 4373.587891 451.379211 C 4380.600098 451.379211 4387.123535 452.678406 4393.242676 455.304626 C 4399.361328 457.930786 4404.671875 461.510071 4409.231445 466.041077 C 4413.763184 470.601379 4417.341309 475.911804 4419.968262 482.030518 C 4422.594238 488.149292 4423.893555 494.700867 4423.893555 501.685364 M 4415.783691 501.685364 C 4415.783691 495.912598 4414.6875 490.458069 4412.493164 485.29187 C 4410.300293 480.154846 4407.297852 475.652039 4403.459473 471.813477 C 4399.620605 467.974792 4395.117676 464.944458 4389.95166 462.779785 C 4384.814453 460.586426 4379.359863 459.489319 4373.587402 459.489319 C 4367.813965 459.489319 4362.359863 460.585571 4357.223145 462.779785 C 4352.085449 464.94458 4347.554199 467.974915 4343.744629 471.813477 C 4339.876953 475.652161 4336.875488 480.154541 4334.682129 485.29187 C 4332.48877 490.458374 4331.420898 495.912964 4331.420898 501.685364 C 4331.420898 507.428589 4332.489258 512.912537 4334.682129 518.049927 C 4336.875488 523.21637 4339.876953 527.689697 4343.744629 531.55719 C 4347.554688 535.395813 4352.084961 538.397522 4357.223145 540.590881 C 4362.36084 542.784302 4367.814453 543.851929 4373.587402 543.851929 C 4379.359863 543.851929 4384.814453 542.784363 4389.95166 540.590881 C 4395.118164 538.397461 4399.620605 535.395813 4403.459473 531.55719 C 4407.297852 527.68988 4410.300293 523.216125 4412.493164 518.049927 C 4414.686523 512.912903 4415.783691 507.428833 4415.783691 501.685364 M 4383.285156 522.379211 L 4383.285156 510.574768 C 4383.285156 508.323303 4382.794922 506.70752 4381.841797 505.755188 C 4380.889648 504.774292 4379.013672 504.312012 4376.214355 504.312012 L 4365.996582 504.312012 L 4365.996582 522.379456 L 4356.559082 522.379456 L 4356.559082 476.518188 L 4379.879395 476.518188 C 4384.237305 476.518188 4387.701172 477.787842 4390.211914 480.328186 C 4392.751465 482.867676 4394.021484 486.042847 4394.021484 489.88147 C 4394.021484 492.335083 4393.440918 494.470337 4392.319336 496.317688 C 4391.193359 498.135559 4389.491699 499.492859 4387.210938 500.358398 C 4389.317383 501.07843 4390.76123 502.060974 4391.540527 503.388733 C 4392.318359 504.687744 4392.723145 506.649841 4392.723145 509.276794 L 4392.723145 522.380005 Z M 4365.996582 484.397217 L 4365.996582 496.692261 L 4378.032715 496.692261 C 4380.48584 496.692261 4382.274902 496.144043 4383.400879 494.989746 C 4384.555176 493.864075 4385.132813 492.420776 4385.132813 490.689636 C 4385.132813 488.755615 4384.617676 487.226501 4383.545898 486.100769 C 4382.505371 484.975098 4380.745605 484.398254 4378.29248 484.398254 Z"/>
    </g>
<div xmlns="" id="divScriptsUsed" style="display: none"/><script xmlns="" id="globalVarsDetection" src="moz-extension://988954a5-4571-47b7-8811-234b4eee0106/js/wrs_env.js"/></svg>