
<svg xmlns="http://www.w3.org/2000/svg" xmlns:xlink="http://www.w3.org/1999/xlink" width="64" height="64" viewBox="0 0 64 64" version="1.1">
<defs>
<linearGradient id="linear0" gradientUnits="userSpaceOnUse" x1="10.054166" y1="-199.125" x2="10.054166" y2="-213.941666" gradientTransform="matrix(3.779528,0,0,3.779528,-0.00126458,812.598468)">
<stop offset="0" style="stop-color:rgb(0%,0%,0%);stop-opacity:0.2;"/>
<stop offset="1" style="stop-color:rgb(100%,100%,100%);stop-opacity:0;"/>
</linearGradient>
</defs>
<g id="surface1">
<path style=" stroke:none;fill-rule:nonzero;fill:rgb(61.176473%,80.000001%,39.607844%);fill-opacity:1;" d="M 8 4 L 56 4 C 58.210938 4 60 5.789062 60 8 L 60 56 C 60 58.210938 58.210938 60 56 60 L 8 60 C 5.789062 60 4 58.210938 4 56 L 4 8 C 4 5.789062 5.789062 4 8 4 Z M 8 4 "/>
<path style=" stroke:none;fill-rule:nonzero;fill:rgb(0%,0%,0%);fill-opacity:0.4;" d="M 4 55 L 4 56 C 4 58.214844 5.785156 60 8 60 L 56 60 C 58.214844 60 60 58.214844 60 56 L 60 55 C 60 57.214844 58.214844 59 56 59 L 8 59 C 5.785156 59 4 57.214844 4 55 Z M 4 55 "/>
<path style=" stroke:none;fill-rule:nonzero;fill:rgb(0%,0%,0%);fill-opacity:0.2;" d="M 4 56 L 4 57.5 C 4 59.714844 5.785156 61.5 8 61.5 L 56 61.5 C 58.214844 61.5 60 59.714844 60 57.5 L 60 56 C 60 58.214844 58.214844 60 56 60 L 8 60 C 5.785156 60 4 58.214844 4 56 Z M 4 56 "/>
<path style=" stroke:none;fill-rule:nonzero;fill:rgb(100%,100%,100%);fill-opacity:0.4;" d="M 8 4 C 5.785156 4 4 5.785156 4 8 L 4 8.984375 C 4 6.769531 5.785156 4.984375 8 4.984375 L 56 4.984375 C 58.214844 4.984375 60 6.769531 60 8.984375 L 60 8 C 60 5.785156 58.214844 4 56 4 Z M 8 4 "/>
<path style=" stroke:none;fill-rule:nonzero;fill:rgb(93.333334%,93.333334%,93.333334%);fill-opacity:1;" d="M 11 12 L 11 44 C 11 48.433594 14.566406 52 19 52 L 45 52 C 49.433594 52 53 48.433594 53 44 L 53 30 L 52.941406 30 C 52.980469 29.671875 53 29.339844 53 29 L 53 27 C 53 22.015625 48.984375 18 44 18 C 41.691406 18 39.589844 18.859375 38 20.28125 C 36.410156 18.859375 34.308594 18 32 18 C 27.015625 18 23 22.015625 23 27 L 23 29 C 23 29.339844 23.019531 29.671875 23.058594 30 L 23 30 L 23 40 L 29 40 L 29 27 C 29 25.339844 30.339844 24 32 24 C 33.660156 24 35 25.339844 35 27 L 35 40 L 41 40 L 41 27 C 41 25.339844 42.339844 24 44 24 C 45.660156 24 47 25.339844 47 27 L 47 42 C 47 44.214844 45.214844 46 43 46 L 21 46 C 18.785156 46 17 44.214844 17 42 L 17 12 Z M 11 12 "/>
<path style=" stroke:none;fill-rule:nonzero;fill:rgb(100%,100%,100%);fill-opacity:0.6;" d="M 11 12 L 11 13 L 17 13 L 17 12 Z M 32 18 C 27.015625 18 23 22.015625 23 27 L 23 28 C 23 23.015625 27.015625 19 32 19 C 34.308594 19 36.410156 19.859375 38 21.28125 C 39.589844 19.859375 41.691406 19 44 19 C 48.984375 19 53 23.015625 53 28 L 53 27 C 53 22.015625 48.984375 18 44 18 C 41.691406 18 39.589844 18.859375 38 20.28125 C 36.410156 18.859375 34.308594 18 32 18 Z M 23 30 L 23 31 L 23.058594 31 C 23.019531 30.671875 23 30.339844 23 30 Z M 53 30 C 53 30.339844 52.980469 30.671875 52.941406 31 L 53 31 Z M 17 42 L 17 43 C 17 45.214844 18.785156 47 21 47 L 43 47 C 45.214844 47 47 45.214844 47 43 L 47 42 C 47 44.214844 45.214844 46 43 46 L 21 46 C 18.785156 46 17 44.214844 17 42 Z M 17 42 "/>
<path style=" stroke:none;fill-rule:nonzero;fill:rgb(0%,0%,0%);fill-opacity:0.4;" d="M 32 24 C 30.339844 24 29 25.339844 29 27 L 29 28 C 29 26.339844 30.339844 25 32 25 C 33.660156 25 35 26.339844 35 28 L 35 27 C 35 25.339844 33.660156 24 32 24 Z M 44 24 C 42.339844 24 41 25.339844 41 27 L 41 28 C 41 26.339844 42.339844 25 44 25 C 45.660156 25 47 26.339844 47 28 L 47 27 C 47 25.339844 45.660156 24 44 24 Z M 23 29 L 23 30 L 23.058594 30 C 23.019531 29.671875 23 29.339844 23 29 Z M 53 29 C 53 29.339844 52.980469 29.671875 52.941406 30 L 53 30 Z M 23 40 L 23 41 L 29 41 L 29 40 Z M 35 40 L 35 41 L 41 41 L 41 40 Z M 11 44 L 11 45 C 11 49.433594 14.566406 53 19 53 L 45 53 C 49.433594 53 53 49.433594 53 45 L 53 44 C 53 48.433594 49.433594 52 45 52 L 19 52 C 14.566406 52 11 48.433594 11 44 Z M 11 44 "/>
<path style=" stroke:none;fill-rule:nonzero;fill:url(#linear0);" d="M 8 4 L 56 4 C 58.210938 4 60 5.789062 60 8 L 60 56 C 60 58.210938 58.210938 60 56 60 L 8 60 C 5.789062 60 4 58.210938 4 56 L 4 8 C 4 5.789062 5.789062 4 8 4 Z M 8 4 "/>
</g>
</svg>
