
<svg xmlns="http://www.w3.org/2000/svg" xmlns:xlink="http://www.w3.org/1999/xlink" width="64" height="64" viewBox="0 0 64 64" version="1.1">
<defs>
<linearGradient id="linear0" gradientUnits="userSpaceOnUse" x1="8.995832" y1="-199.125" x2="8.995832" y2="-213.941666" gradientTransform="matrix(3.779528,0,0,3.779528,0,812.598468)">
<stop offset="0" style="stop-color:rgb(0%,0%,0%);stop-opacity:0.2;"/>
<stop offset="1" style="stop-color:rgb(100%,100%,100%);stop-opacity:0;"/>
</linearGradient>
</defs>
<g id="surface1">
<path style=" stroke:none;fill-rule:nonzero;fill:rgb(38.039216%,38.039216%,38.039216%);fill-opacity:0.996078;" d="M 8 8 L 56 8 C 58.210938 8 60 9.789062 60 12 L 60 52 C 60 54.210938 58.210938 56 56 56 L 8 56 C 5.789062 56 4 54.210938 4 52 L 4 12 C 4 9.789062 5.789062 8 8 8 Z M 8 8 "/>
<path style=" stroke:none;fill-rule:nonzero;fill:rgb(87.843138%,87.843138%,87.843138%);fill-opacity:1;" d="M 4 52 C 4 54.214844 5.785156 56 8 56 L 56 56 C 58.214844 56 60 54.214844 60 52 Z M 4 52 "/>
<path style=" stroke:none;fill-rule:nonzero;fill:rgb(0.392157%,0.392157%,0.392157%);fill-opacity:0.4;" d="M 4 51 L 4 52 C 4 54.214844 5.785156 56 8 56 L 56 56 C 58.214844 56 60 54.214844 60 52 L 60 51 C 60 53.214844 58.214844 55 56 55 L 8 55 C 5.785156 55 4 53.214844 4 51 Z M 4 51 "/>
<path style=" stroke:none;fill-rule:nonzero;fill:rgb(87.843138%,87.843138%,87.843138%);fill-opacity:1;" d="M 8 8 C 5.785156 8 4 9.785156 4 12 L 8 12 L 8 15 C 8 15.554688 8.445312 16 9 16 L 15 16 C 15.554688 16 16 15.554688 16 15 L 16 12 L 60 12 C 60 9.785156 58.214844 8 56 8 Z M 11.972656 13 C 11.984375 13 11.992188 13 12 13 C 12.554688 13 13 13.445312 13 14 C 13 14.554688 12.554688 15 12 15 C 11.445312 15 11 14.554688 11 14 C 11 13.453125 11.433594 13.011719 11.972656 13 Z M 11.972656 13 "/>
<path style=" stroke:none;fill-rule:nonzero;fill:rgb(87.843138%,87.843138%,87.843138%);fill-opacity:1;" d="M 31 46 L 33 46 C 33.550781 46 34 46.449219 34 47 L 34 49 C 34 49.550781 33.550781 50 33 50 L 31 50 C 30.449219 50 30 49.550781 30 49 L 30 47 C 30 46.449219 30.449219 46 31 46 Z M 31 46 "/>
<path style=" stroke:none;fill-rule:nonzero;fill:rgb(87.843138%,87.843138%,87.843138%);fill-opacity:1;" d="M 23 46 L 25 46 C 25.550781 46 26 46.449219 26 47 L 26 49 C 26 49.550781 25.550781 50 25 50 L 23 50 C 22.449219 50 22 49.550781 22 49 L 22 47 C 22 46.449219 22.449219 46 23 46 Z M 23 46 "/>
<path style=" stroke:none;fill-rule:nonzero;fill:rgb(87.843138%,87.843138%,87.843138%);fill-opacity:1;" d="M 39 46 L 41 46 C 41.550781 46 42 46.449219 42 47 L 42 49 C 42 49.550781 41.550781 50 41 50 L 39 50 C 38.449219 50 38 49.550781 38 49 L 38 47 C 38 46.449219 38.449219 46 39 46 Z M 39 46 "/>
<path style=" stroke:none;fill-rule:nonzero;fill:rgb(100%,100%,100%);fill-opacity:0.4;" d="M 4 12.980469 L 4 11.980469 C 4 9.761719 5.785156 7.980469 8 7.980469 L 56 7.980469 C 58.214844 7.980469 60 9.761719 60 11.980469 L 60 12.980469 C 60 10.761719 58.214844 8.980469 56 8.980469 L 8 8.980469 C 5.785156 8.980469 4 10.761719 4 12.980469 Z M 4 12.980469 "/>
<path style=" stroke:none;fill-rule:nonzero;fill:rgb(0%,0%,0%);fill-opacity:0.2;" d="M 4 52 L 4 53.5 C 4 55.714844 5.785156 57.5 8 57.5 L 56 57.5 C 58.214844 57.5 60 55.714844 60 53.5 L 60 52 C 60 54.214844 58.214844 56 56 56 L 8 56 C 5.785156 56 4 54.214844 4 52 Z M 4 52 "/>
<path style=" stroke:none;fill-rule:nonzero;fill:rgb(0%,0%,0%);fill-opacity:0.4;" d="M 4.03125 12 C 4.011719 12.164062 4 12.332031 4 12.5 L 8 12.5 L 8 12 Z M 16 12 L 16 12.5 L 60 12.5 C 60 12.332031 59.988281 12.164062 59.96875 12 Z M 11.972656 13 C 11.433594 13.011719 11 13.453125 11 14 C 11 14.085938 11.011719 14.171875 11.03125 14.25 C 11.140625 13.824219 11.519531 13.511719 11.972656 13.5 C 11.984375 13.5 11.992188 13.5 12 13.5 C 12.46875 13.5 12.859375 13.816406 12.96875 14.25 C 12.988281 14.171875 13 14.085938 13 14 C 13 13.445312 12.554688 13 12 13 C 11.992188 13 11.984375 13 11.972656 13 Z M 8 15 L 8 15.5 C 8 16.054688 8.445312 16.5 9 16.5 L 15 16.5 C 15.554688 16.5 16 16.054688 16 15.5 L 16 15 C 16 15.554688 15.554688 16 15 16 L 9 16 C 8.445312 16 8 15.554688 8 15 Z M 8 15 "/>
<path style=" stroke:none;fill-rule:nonzero;fill:rgb(100%,100%,100%);fill-opacity:0.8;" d="M 4 52 C 4 52.167969 4.015625 52.335938 4.035156 52.5 L 59.964844 52.5 C 59.984375 52.335938 60 52.167969 60 52 Z M 4 52 "/>
<path style=" stroke:none;fill-rule:nonzero;fill:url(#linear0);" d="M 8 8 L 56 8 C 58.210938 8 60 9.789062 60 12 L 60 52 C 60 54.210938 58.210938 56 56 56 L 8 56 C 5.789062 56 4 54.210938 4 52 L 4 12 C 4 9.789062 5.789062 8 8 8 Z M 8 8 "/>
</g>
</svg>
