
<svg xmlns="http://www.w3.org/2000/svg" xmlns:xlink="http://www.w3.org/1999/xlink" width="48" height="48" viewBox="0 0 48 48" version="1.1">
<defs>
<linearGradient id="linear0" gradientUnits="userSpaceOnUse" x1="10.054166" y1="-199.125" x2="10.054166" y2="-213.941666" gradientTransform="matrix(2.834646,0,0,2.834646,-0.000948433,609.448851)">
<stop offset="0" style="stop-color:rgb(0%,0%,0%);stop-opacity:0.2;"/>
<stop offset="1" style="stop-color:rgb(100%,100%,100%);stop-opacity:0;"/>
</linearGradient>
</defs>
<g id="surface1">
<path style=" stroke:none;fill-rule:nonzero;fill:rgb(61.176473%,80.000001%,39.607844%);fill-opacity:1;" d="M 6 3 L 42 3 C 43.65625 3 45 4.34375 45 6 L 45 42 C 45 43.65625 43.65625 45 42 45 L 6 45 C 4.34375 45 3 43.65625 3 42 L 3 6 C 3 4.34375 4.34375 3 6 3 Z M 6 3 "/>
<path style=" stroke:none;fill-rule:nonzero;fill:rgb(0%,0%,0%);fill-opacity:0.4;" d="M 3 41.25 L 3 42 C 3 43.660156 4.339844 45 6 45 L 42 45 C 43.660156 45 45 43.660156 45 42 L 45 41.25 C 45 42.910156 43.660156 44.25 42 44.25 L 6 44.25 C 4.339844 44.25 3 42.910156 3 41.25 Z M 3 41.25 "/>
<path style=" stroke:none;fill-rule:nonzero;fill:rgb(0%,0%,0%);fill-opacity:0.2;" d="M 3 42 L 3 43.125 C 3 44.785156 4.339844 46.125 6 46.125 L 42 46.125 C 43.660156 46.125 45 44.785156 45 43.125 L 45 42 C 45 43.660156 43.660156 45 42 45 L 6 45 C 4.339844 45 3 43.660156 3 42 Z M 3 42 "/>
<path style=" stroke:none;fill-rule:nonzero;fill:rgb(100%,100%,100%);fill-opacity:0.4;" d="M 6 3 C 4.339844 3 3 4.339844 3 6 L 3 6.738281 C 3 5.078125 4.339844 3.738281 6 3.738281 L 42 3.738281 C 43.660156 3.738281 45 5.078125 45 6.738281 L 45 6 C 45 4.339844 43.660156 3 42 3 Z M 6 3 "/>
<path style=" stroke:none;fill-rule:nonzero;fill:rgb(93.333334%,93.333334%,93.333334%);fill-opacity:1;" d="M 8.25 9 L 8.25 33 C 8.25 36.324219 10.925781 39 14.25 39 L 33.75 39 C 37.074219 39 39.75 36.324219 39.75 33 L 39.75 22.5 L 39.707031 22.5 C 39.734375 22.253906 39.75 22.003906 39.75 21.75 L 39.75 20.25 C 39.75 16.511719 36.738281 13.5 33 13.5 C 31.269531 13.5 29.691406 14.144531 28.5 15.210938 C 27.308594 14.144531 25.730469 13.5 24 13.5 C 20.261719 13.5 17.25 16.511719 17.25 20.25 L 17.25 21.75 C 17.25 22.003906 17.265625 22.253906 17.292969 22.5 L 17.25 22.5 L 17.25 30 L 21.75 30 L 21.75 20.25 C 21.75 19.003906 22.753906 18 24 18 C 25.246094 18 26.25 19.003906 26.25 20.25 L 26.25 30 L 30.75 30 L 30.75 20.25 C 30.75 19.003906 31.753906 18 33 18 C 34.246094 18 35.25 19.003906 35.25 20.25 L 35.25 31.5 C 35.25 33.160156 33.910156 34.5 32.25 34.5 L 15.75 34.5 C 14.089844 34.5 12.75 33.160156 12.75 31.5 L 12.75 9 Z M 8.25 9 "/>
<path style=" stroke:none;fill-rule:nonzero;fill:rgb(100%,100%,100%);fill-opacity:0.6;" d="M 8.25 9 L 8.25 9.75 L 12.75 9.75 L 12.75 9 Z M 24 13.5 C 20.261719 13.5 17.25 16.511719 17.25 20.25 L 17.25 21 C 17.25 17.261719 20.261719 14.25 24 14.25 C 25.730469 14.25 27.308594 14.894531 28.5 15.960938 C 29.691406 14.894531 31.269531 14.25 33 14.25 C 36.738281 14.25 39.75 17.261719 39.75 21 L 39.75 20.25 C 39.75 16.511719 36.738281 13.5 33 13.5 C 31.269531 13.5 29.691406 14.144531 28.5 15.210938 C 27.308594 14.144531 25.730469 13.5 24 13.5 Z M 17.25 22.5 L 17.25 23.25 L 17.292969 23.25 C 17.265625 23.003906 17.25 22.753906 17.25 22.5 Z M 39.75 22.5 C 39.75 22.753906 39.734375 23.003906 39.707031 23.25 L 39.75 23.25 Z M 12.75 31.5 L 12.75 32.25 C 12.75 33.910156 14.089844 35.25 15.75 35.25 L 32.25 35.25 C 33.910156 35.25 35.25 33.910156 35.25 32.25 L 35.25 31.5 C 35.25 33.160156 33.910156 34.5 32.25 34.5 L 15.75 34.5 C 14.089844 34.5 12.75 33.160156 12.75 31.5 Z M 12.75 31.5 "/>
<path style=" stroke:none;fill-rule:nonzero;fill:rgb(0%,0%,0%);fill-opacity:0.4;" d="M 24 18 C 22.753906 18 21.75 19.003906 21.75 20.25 L 21.75 21 C 21.75 19.753906 22.753906 18.75 24 18.75 C 25.246094 18.75 26.25 19.753906 26.25 21 L 26.25 20.25 C 26.25 19.003906 25.246094 18 24 18 Z M 33 18 C 31.753906 18 30.75 19.003906 30.75 20.25 L 30.75 21 C 30.75 19.753906 31.753906 18.75 33 18.75 C 34.246094 18.75 35.25 19.753906 35.25 21 L 35.25 20.25 C 35.25 19.003906 34.246094 18 33 18 Z M 17.25 21.75 L 17.25 22.5 L 17.292969 22.5 C 17.265625 22.253906 17.25 22.003906 17.25 21.75 Z M 39.75 21.75 C 39.75 22.003906 39.734375 22.253906 39.707031 22.5 L 39.75 22.5 Z M 17.25 30 L 17.25 30.75 L 21.75 30.75 L 21.75 30 Z M 26.25 30 L 26.25 30.75 L 30.75 30.75 L 30.75 30 Z M 8.25 33 L 8.25 33.75 C 8.25 37.074219 10.925781 39.75 14.25 39.75 L 33.75 39.75 C 37.074219 39.75 39.75 37.074219 39.75 33.75 L 39.75 33 C 39.75 36.324219 37.074219 39 33.75 39 L 14.25 39 C 10.925781 39 8.25 36.324219 8.25 33 Z M 8.25 33 "/>
<path style=" stroke:none;fill-rule:nonzero;fill:url(#linear0);" d="M 6 3 L 42 3 C 43.65625 3 45 4.34375 45 6 L 45 42 C 45 43.65625 43.65625 45 42 45 L 6 45 C 4.34375 45 3 43.65625 3 42 L 3 6 C 3 4.34375 4.34375 3 6 3 Z M 6 3 "/>
</g>
</svg>
