
<svg xmlns="http://www.w3.org/2000/svg" xmlns:xlink="http://www.w3.org/1999/xlink" width="64" height="64" viewBox="0 0 64 64" version="1.1">
<defs>
<linearGradient id="linear0" gradientUnits="userSpaceOnUse" x1="34" y1="59.999996" x2="34" y2="3.999999" >
<stop offset="0" style="stop-color:rgb(0%,0%,0%);stop-opacity:0.2;"/>
<stop offset="1" style="stop-color:rgb(100%,100%,100%);stop-opacity:0;"/>
</linearGradient>
</defs>
<g id="surface1">
<path style=" stroke:none;fill-rule:nonzero;fill:rgb(0%,0%,0%);fill-opacity:0.2;" d="M 4 50 L 4 51.5 C 4 53.714844 5.785156 55.5 8 55.5 L 8 54 C 5.785156 54 4 52.214844 4 50 Z M 60 50 C 60 52.214844 58.214844 54 56 54 L 56 55.5 C 58.214844 55.5 60 53.714844 60 51.5 Z M 8 56 L 8 57.5 C 8 58.609375 8.890625 59.5 10 59.5 L 54 59.5 C 55.109375 59.5 56 58.609375 56 57.5 L 56 56 C 56 57.109375 55.109375 58 54 58 L 10 58 C 8.890625 58 8 57.109375 8 56 Z M 8 56 "/>
<path style=" stroke:none;fill-rule:nonzero;fill:rgb(61.960787%,61.960787%,61.960787%);fill-opacity:0.996078;" d="M 13 22 L 51 22 C 52.105469 22 53 22.894531 53 24 L 53 34 C 53 35.105469 52.105469 36 51 36 L 13 36 C 11.894531 36 11 35.105469 11 34 L 11 24 C 11 22.894531 11.894531 22 13 22 Z M 13 22 "/>
<path style=" stroke:none;fill-rule:nonzero;fill:rgb(93.333334%,93.333334%,93.333334%);fill-opacity:0.996078;" d="M 14 4 L 50 4 C 51.105469 4 52 4.894531 52 6 L 52 48 C 52 49.105469 51.105469 50 50 50 L 14 50 C 12.894531 50 12 49.105469 12 48 L 12 6 C 12 4.894531 12.894531 4 14 4 Z M 14 4 "/>
<path style=" stroke:none;fill-rule:nonzero;fill:rgb(38.039216%,38.039216%,38.039216%);fill-opacity:0.996078;" d="M 51 30 L 53 30 C 53.550781 30 54 30.449219 54 31 L 54 36.5 C 54 37.050781 53.550781 37.5 53 37.5 L 51 37.5 C 50.449219 37.5 50 37.050781 50 36.5 L 50 31 C 50 30.449219 50.449219 30 51 30 Z M 51 30 "/>
<path style=" stroke:none;fill-rule:nonzero;fill:rgb(38.039216%,38.039216%,38.039216%);fill-opacity:0.996078;" d="M 11 30 L 13 30 C 13.550781 30 14 30.449219 14 31 L 14 36.5 C 14 37.050781 13.550781 37.5 13 37.5 L 11 37.5 C 10.449219 37.5 10 37.050781 10 36.5 L 10 31 C 10 30.449219 10.449219 30 11 30 Z M 11 30 "/>
<path style=" stroke:none;fill-rule:nonzero;fill:rgb(61.960787%,61.960787%,61.960787%);fill-opacity:0.996078;" d="M 8 36 L 56 36 C 58.210938 36 60 37.789062 60 40 L 60 50 C 60 52.210938 58.210938 54 56 54 L 8 54 C 5.789062 54 4 52.210938 4 50 L 4 40 C 4 37.789062 5.789062 36 8 36 Z M 8 36 "/>
<path style=" stroke:none;fill-rule:nonzero;fill:rgb(38.039216%,38.039216%,38.039216%);fill-opacity:0.992157;" d="M 4 40.5 L 60 40.5 L 60 41 L 4 41 Z M 4 40.5 "/>
<path style=" stroke:none;fill-rule:nonzero;fill:rgb(100%,100%,100%);fill-opacity:0.4;" d="M 4 41 L 60 41 L 60 41.5 L 4 41.5 Z M 4 41 "/>
<path style=" stroke:none;fill-rule:nonzero;fill:rgb(61.960787%,61.960787%,61.960787%);fill-opacity:0.996078;" d="M 10 44 L 54 44 C 55.105469 44 56 44.894531 56 46 L 56 56 C 56 57.105469 55.105469 58 54 58 L 10 58 C 8.894531 58 8 57.105469 8 56 L 8 46 C 8 44.894531 8.894531 44 10 44 Z M 10 44 "/>
<path style=" stroke:none;fill-rule:nonzero;fill:rgb(0%,0%,0%);fill-opacity:0.4;" d="M 8 55 L 8 56 C 8 57.109375 8.890625 58 10 58 L 54 58 C 55.109375 58 56 57.109375 56 56 L 56 55 C 56 56.109375 55.109375 57 54 57 L 10 57 C 8.890625 57 8 56.109375 8 55 Z M 8 55 "/>
<path style=" stroke:none;fill-rule:nonzero;fill:rgb(1.960784%,1.960784%,1.960784%);fill-opacity:0.4;" d="M 4 49 L 4 50 C 4 52.214844 5.785156 54 8 54 L 10 54 L 10 53 L 8 53 C 5.785156 53 4 51.214844 4 49 Z M 60 49 C 60 51.214844 58.214844 53 56 53 L 54 53 L 54 54 L 56 54 C 58.214844 54 60 52.214844 60 50 Z M 60 49 "/>
<path style=" stroke:none;fill-rule:nonzero;fill:rgb(38.039216%,38.039216%,38.039216%);fill-opacity:1;" d="M 14 48 C 11.785156 48 10 49.785156 10 52 L 10 58 L 54 58 L 54 52 C 54 49.785156 52.214844 48 50 48 Z M 14 48 "/>
<path style=" stroke:none;fill-rule:nonzero;fill:rgb(93.333334%,93.333334%,93.333334%);fill-opacity:0.996078;" d="M 14 50 L 50 50 C 51.105469 50 52 50.894531 52 52 L 52 58 C 52 59.105469 51.105469 60 50 60 L 14 60 C 12.894531 60 12 59.105469 12 58 L 12 52 C 12 50.894531 12.894531 50 14 50 Z M 14 50 "/>
<path style=" stroke:none;fill-rule:nonzero;fill:rgb(0%,0%,0%);fill-opacity:0.2;" d="M 4 40 L 60 40 L 60 40.5 L 4 40.5 Z M 4 40 "/>
<path style=" stroke:none;fill-rule:nonzero;fill:rgb(100%,100%,100%);fill-opacity:0.6;" d="M 14 4 C 12.890625 4 12 4.890625 12 6 L 12 6.5 C 12 5.390625 12.890625 4.5 14 4.5 L 50 4.5 C 51.109375 4.5 52 5.390625 52 6.5 L 52 6 C 52 4.890625 51.109375 4 50 4 Z M 14 4 "/>
<path style=" stroke:none;fill-rule:nonzero;fill:rgb(100%,100%,100%);fill-opacity:0.6;" d="M 14 50 C 12.890625 50 12 50.890625 12 52 L 12 52.5 C 12 51.390625 12.890625 50.5 14 50.5 L 50 50.5 C 51.109375 50.5 52 51.390625 52 52.5 L 52 52 C 52 50.890625 51.109375 50 50 50 Z M 14 50 "/>
<path style=" stroke:none;fill-rule:nonzero;fill:rgb(100%,100%,100%);fill-opacity:0.4;" d="M 11 30 C 10.445312 30 10 30.445312 10 31 L 10 32 C 10 31.445312 10.445312 31 11 31 L 13 31 C 13.554688 31 14 31.445312 14 32 L 14 31 C 14 30.445312 13.554688 30 13 30 Z M 51 30 C 50.445312 30 50 30.445312 50 31 L 50 32 C 50 31.445312 50.445312 31 51 31 L 53 31 C 53.554688 31 54 31.445312 54 32 L 54 31 C 54 30.445312 53.554688 30 53 30 Z M 51 30 "/>
<path style=" stroke:none;fill-rule:nonzero;fill:rgb(100%,100%,100%);fill-opacity:0.4;" d="M 8 36 C 5.785156 36 4 37.785156 4 40 L 4 41 C 4 38.785156 5.785156 37 8 37 L 56 37 C 58.214844 37 60 38.785156 60 41 L 60 40 C 60 37.785156 58.214844 36 56 36 Z M 8 36 "/>
<path style=" stroke:none;fill-rule:nonzero;fill:rgb(0%,0%,0%);fill-opacity:0.4;" d="M 14 48 C 11.785156 48 10 49.785156 10 52 L 10 53.015625 C 10 50.800781 11.785156 49.015625 14 49.015625 L 50 49.015625 C 52.214844 49.015625 54 50.800781 54 53.015625 L 54 52 C 54 49.785156 52.214844 48 50 48 Z M 14 48 "/>
<path style=" stroke:none;fill-rule:nonzero;fill:rgb(0%,0%,0%);fill-opacity:0.4;" d="M 12 57.5 L 12 58 C 12 59.109375 12.890625 60 14 60 L 50 60 C 51.109375 60 52 59.109375 52 58 L 52 57.5 C 52 58.609375 51.109375 59.5 50 59.5 L 14 59.5 C 12.890625 59.5 12 58.609375 12 57.5 Z M 12 57.5 "/>
<path style=" stroke:none;fill-rule:nonzero;fill:rgb(14.901961%,77.64706%,85.490197%);fill-opacity:1;" d="M 14 50 L 14 57 C 14 57.554688 14.445312 58 15 58 L 49 58 C 49.554688 58 50 57.554688 50 57 L 50 50 Z M 14 50 "/>
<path style=" stroke:none;fill-rule:nonzero;fill:rgb(100%,65.490198%,14.901961%);fill-opacity:1;" d="M 36 50 C 36 52.214844 37.785156 54 40 54 C 42.214844 54 44 52.214844 44 50 Z M 36 50 "/>
<path style=" stroke:none;fill-rule:nonzero;fill:rgb(100%,100%,100%);fill-opacity:0.4;" d="M 12 52 L 52 52 L 52 54 L 12 54 Z M 12 52 "/>
<path style=" stroke:none;fill-rule:nonzero;fill:rgb(40.000001%,73.333335%,41.568628%);fill-opacity:0.996078;" d="M 9.007812 42 C 9.554688 42 10 42.445312 10 42.992188 C 10 43.539062 9.554688 43.984375 9.007812 43.984375 C 8.460938 43.984375 8.015625 43.539062 8.015625 42.992188 C 8.015625 42.445312 8.460938 42 9.007812 42 Z M 9.007812 42 "/>
<path style=" stroke:none;fill-rule:nonzero;fill:rgb(0%,0%,0%);fill-opacity:0.4;" d="M 8.984375 42 C 8.445312 42.011719 8.015625 42.449219 8.015625 42.992188 C 8.015625 43.078125 8.027344 43.160156 8.046875 43.238281 C 8.15625 42.8125 8.546875 42.5 9.007812 42.5 C 9.46875 42.5 9.859375 42.8125 9.96875 43.238281 C 9.988281 43.160156 10 43.078125 10 42.992188 C 10 42.441406 9.558594 42 9.007812 42 C 9 42 8.992188 42 8.984375 42 Z M 8.984375 42 "/>
<path style=" stroke:none;fill-rule:nonzero;fill:rgb(100%,100%,100%);fill-opacity:0.4;" d="M 8.984375 44.5 C 8.445312 44.484375 8.015625 44.050781 8.015625 43.507812 C 8.015625 43.421875 8.027344 43.339844 8.046875 43.261719 C 8.15625 43.6875 8.546875 44 9.007812 44 C 9.46875 44 9.859375 43.6875 9.96875 43.261719 C 9.988281 43.339844 10 43.421875 10 43.507812 C 10 44.058594 9.558594 44.5 9.007812 44.5 C 9 44.5 8.992188 44.5 8.984375 44.5 Z M 8.984375 44.5 "/>
<path style=" stroke:none;fill-rule:nonzero;fill:rgb(40.000001%,73.333335%,41.568628%);fill-opacity:0.996078;" d="M 13.039062 42 C 13.585938 42 14.03125 42.445312 14.03125 42.992188 C 14.03125 43.539062 13.585938 43.984375 13.039062 43.984375 C 12.492188 43.984375 12.046875 43.539062 12.046875 42.992188 C 12.046875 42.445312 12.492188 42 13.039062 42 Z M 13.039062 42 "/>
<path style=" stroke:none;fill-rule:nonzero;fill:rgb(0%,0%,0%);fill-opacity:0.4;" d="M 13.011719 42 C 12.476562 42.015625 12.046875 42.449219 12.046875 42.992188 C 12.046875 43.078125 12.058594 43.160156 12.078125 43.238281 C 12.1875 42.8125 12.578125 42.5 13.039062 42.5 C 13.5 42.5 13.890625 42.8125 14 43.238281 C 14.019531 43.160156 14.03125 43.078125 14.03125 42.992188 C 14.03125 42.441406 13.589844 42 13.039062 42 C 13.03125 42 13.023438 42 13.011719 42 Z M 13.011719 42 "/>
<path style=" stroke:none;fill-rule:nonzero;fill:rgb(100%,100%,100%);fill-opacity:0.4;" d="M 13.011719 44.5 C 12.476562 44.484375 12.046875 44.050781 12.046875 43.507812 C 12.046875 43.421875 12.058594 43.339844 12.078125 43.261719 C 12.1875 43.6875 12.578125 44 13.039062 44 C 13.5 44 13.890625 43.6875 14 43.261719 C 14.019531 43.339844 14.03125 43.421875 14.03125 43.507812 C 14.03125 44.058594 13.589844 44.5 13.039062 44.5 C 13.03125 44.5 13.023438 44.5 13.011719 44.5 Z M 13.011719 44.5 "/>
<path style=" stroke:none;fill-rule:nonzero;fill:rgb(95.686275%,26.274511%,21.176471%);fill-opacity:0.996078;" d="M 55.039062 42 C 55.585938 42 56.03125 42.445312 56.03125 42.992188 C 56.03125 43.539062 55.585938 43.984375 55.039062 43.984375 C 54.492188 43.984375 54.046875 43.539062 54.046875 42.992188 C 54.046875 42.445312 54.492188 42 55.039062 42 Z M 55.039062 42 "/>
<path style=" stroke:none;fill-rule:nonzero;fill:rgb(0%,0%,0%);fill-opacity:0.4;" d="M 55.011719 42 C 54.476562 42.015625 54.046875 42.449219 54.046875 42.992188 C 54.046875 43.078125 54.058594 43.160156 54.078125 43.238281 C 54.1875 42.8125 54.578125 42.5 55.039062 42.5 C 55.5 42.5 55.890625 42.8125 56 43.238281 C 56.019531 43.160156 56.03125 43.078125 56.03125 42.992188 C 56.03125 42.441406 55.589844 42 55.039062 42 C 55.03125 42 55.023438 42 55.015625 42 Z M 55.011719 42 "/>
<path style=" stroke:none;fill-rule:nonzero;fill:rgb(100%,100%,100%);fill-opacity:0.4;" d="M 55.011719 44.5 C 54.476562 44.484375 54.046875 44.050781 54.046875 43.507812 C 54.046875 43.421875 54.058594 43.339844 54.078125 43.261719 C 54.1875 43.6875 54.578125 44 55.039062 44 C 55.5 44 55.890625 43.6875 56 43.261719 C 56.019531 43.339844 56.03125 43.421875 56.03125 43.507812 C 56.03125 44.058594 55.589844 44.5 55.039062 44.5 C 55.03125 44.5 55.023438 44.5 55.015625 44.5 Z M 55.011719 44.5 "/>
<path style=" stroke:none;fill-rule:nonzero;fill:rgb(38.039216%,38.039216%,38.039216%);fill-opacity:1;" d="M 31 10 C 26.015625 10 22 14.015625 22 19 C 22 23.984375 26.015625 28 31 28 C 33.292969 28 35.378906 27.152344 36.964844 25.753906 L 43.855469 29.734375 C 44.574219 30.148438 45.492188 29.902344 45.90625 29.183594 L 46.40625 28.316406 C 46.820312 27.597656 46.574219 26.683594 45.855469 26.269531 L 39.304688 22.484375 C 39.753906 21.414062 40 20.238281 40 19 C 40 14.015625 35.984375 10 31 10 Z M 31 12 C 34.878906 12 38 15.121094 38 19 C 38 22.878906 34.878906 26 31 26 C 27.121094 26 24 22.878906 24 19 C 24 15.121094 27.121094 12 31 12 Z M 31 13 C 27.675781 13 25 15.675781 25 19 L 27 19 C 27 16.785156 28.785156 15 31 15 Z M 31 13 "/>
<path style=" stroke:none;fill-rule:nonzero;fill:rgb(0%,0%,0%);fill-opacity:0.4;" d="M 31 11.996094 C 27.121094 11.996094 24 15.117188 24 18.996094 C 24 19.074219 24.003906 19.152344 24.003906 19.230469 C 24.003906 19.316406 24 19.40625 24 19.492188 C 24 19.578125 24.003906 19.660156 24.003906 19.746094 C 24.136719 15.984375 27.207031 12.996094 31 12.996094 C 34.792969 12.996094 37.863281 15.984375 37.996094 19.746094 C 37.996094 19.660156 38 19.578125 38 19.492188 C 38 19.40625 37.996094 19.316406 37.996094 19.230469 C 37.996094 19.152344 38 19.074219 38 18.996094 C 38 15.117188 34.878906 11.996094 31 11.996094 Z M 31 14.996094 C 28.785156 14.996094 27 16.777344 27 18.996094 L 25.023438 18.996094 C 25.007812 19.160156 25 19.328125 25 19.5 L 25.023438 19.5 C 25.011719 19.664062 25 19.828125 25 19.996094 L 27 19.996094 C 27 17.78125 28.785156 15.996094 31 15.996094 Z M 40 19.246094 C 39.96875 20.390625 39.722656 21.480469 39.304688 22.480469 L 39.464844 22.566406 C 39.414062 22.707031 39.359375 22.84375 39.304688 22.976562 L 39.464844 23.066406 C 39.8125 22.109375 40 21.074219 40 19.996094 C 40 19.910156 40 19.828125 40 19.742188 C 39.996094 19.863281 39.988281 19.980469 39.980469 20.101562 C 39.976562 20.167969 39.96875 20.234375 39.964844 20.296875 C 39.960938 20.363281 39.953125 20.429688 39.945312 20.496094 C 39.9375 20.5625 39.929688 20.625 39.921875 20.691406 C 39.914062 20.75 39.90625 20.804688 39.898438 20.859375 C 39.90625 20.804688 39.914062 20.746094 39.921875 20.691406 C 39.929688 20.625 39.9375 20.5625 39.945312 20.496094 C 39.953125 20.429688 39.960938 20.363281 39.964844 20.296875 C 39.96875 20.234375 39.976562 20.167969 39.980469 20.101562 C 39.992188 19.902344 40 19.699219 40 19.5 C 40 19.414062 40 19.328125 40 19.246094 Z M 22 19.246094 C 22 19.328125 22 19.414062 22 19.5 C 22 19.582031 22 19.664062 22 19.746094 C 22 19.828125 22 19.910156 22 19.996094 C 22 24.980469 26.015625 28.996094 31 28.996094 C 33.292969 28.996094 35.378906 28.148438 36.964844 26.75 L 43.855469 30.730469 C 44.574219 31.144531 45.492188 30.898438 45.90625 30.179688 L 46.40625 29.3125 C 46.589844 28.996094 46.644531 28.644531 46.585938 28.3125 C 46.613281 28.140625 46.613281 27.972656 46.585938 27.808594 C 46.558594 27.980469 46.5 28.148438 46.40625 28.3125 L 45.90625 29.175781 C 45.492188 29.898438 44.574219 30.140625 43.855469 29.726562 L 36.964844 25.746094 C 35.378906 27.144531 33.292969 27.996094 31 27.996094 C 26.097656 27.996094 22.132812 24.113281 22 19.246094 Z M 22.027344 20.199219 C 22.042969 20.421875 22.066406 20.644531 22.101562 20.863281 C 22.066406 20.644531 22.042969 20.421875 22.027344 20.199219 Z M 22.027344 20.199219 "/>
<path style=" stroke:none;fill-rule:nonzero;fill:rgb(99.607843%,99.607843%,99.607843%);fill-opacity:0.4;" d="M 31 10 C 26.015625 10 22 14.015625 22 19 C 22 19.082031 22 19.167969 22 19.25 C 22 19.332031 22 19.417969 22 19.5 C 22 19.582031 22 19.667969 22 19.75 C 22.132812 14.878906 26.097656 11 31 11 C 35.902344 11 39.867188 14.878906 40 19.75 C 40 19.664062 40 19.582031 40 19.5 C 40 19.414062 40 19.332031 40 19.25 C 40 19.164062 40 19.082031 40 19 C 40 14.015625 35.984375 10 31 10 Z M 29.625 10.605469 C 29.550781 10.613281 29.476562 10.628906 29.402344 10.640625 C 29.476562 10.628906 29.550781 10.613281 29.625 10.605469 Z M 32.375 10.605469 C 32.449219 10.613281 32.523438 10.628906 32.597656 10.640625 C 32.523438 10.628906 32.449219 10.613281 32.375 10.605469 Z M 33.253906 10.78125 C 33.324219 10.800781 33.398438 10.820312 33.46875 10.839844 C 33.398438 10.820312 33.324219 10.800781 33.253906 10.78125 Z M 27.878906 11.050781 C 27.816406 11.074219 27.753906 11.097656 27.691406 11.125 C 27.753906 11.097656 27.816406 11.074219 27.878906 11.050781 Z M 34.164062 11.066406 C 34.210938 11.085938 34.257812 11.105469 34.308594 11.125 C 34.257812 11.105469 34.210938 11.085938 34.164062 11.066406 Z M 27.28125 11.296875 C 27.21875 11.324219 27.15625 11.355469 27.09375 11.386719 C 27.15625 11.355469 27.21875 11.324219 27.28125 11.296875 Z M 34.746094 11.3125 C 34.800781 11.335938 34.855469 11.359375 34.90625 11.386719 C 34.972656 11.417969 35.039062 11.449219 35.105469 11.484375 C 35.039062 11.449219 34.972656 11.417969 34.90625 11.386719 C 34.855469 11.359375 34.800781 11.335938 34.746094 11.3125 Z M 26.703125 11.582031 C 26.640625 11.617188 26.578125 11.652344 26.515625 11.6875 C 26.578125 11.652344 26.640625 11.617188 26.703125 11.582031 Z M 35.296875 11.582031 C 35.359375 11.617188 35.421875 11.652344 35.484375 11.6875 C 35.421875 11.652344 35.359375 11.617188 35.296875 11.582031 Z M 25.78125 12.15625 C 25.722656 12.199219 25.667969 12.238281 25.609375 12.28125 C 25.667969 12.242188 25.726562 12.199219 25.78125 12.15625 Z M 36.21875 12.15625 C 36.273438 12.199219 36.332031 12.242188 36.390625 12.28125 C 36.445312 12.324219 36.5 12.363281 36.550781 12.40625 C 36.5 12.363281 36.445312 12.324219 36.390625 12.28125 C 36.332031 12.238281 36.277344 12.199219 36.21875 12.15625 Z M 24.941406 12.832031 C 24.890625 12.878906 24.835938 12.929688 24.785156 12.980469 C 24.734375 13.03125 24.683594 13.078125 24.628906 13.128906 C 24.683594 13.078125 24.734375 13.03125 24.785156 12.980469 C 24.835938 12.929688 24.890625 12.878906 24.941406 12.832031 Z M 37.214844 12.980469 C 37.265625 13.03125 37.316406 13.078125 37.371094 13.128906 C 37.421875 13.179688 37.46875 13.234375 37.519531 13.285156 C 37.566406 13.335938 37.613281 13.386719 37.660156 13.4375 C 37.613281 13.386719 37.566406 13.335938 37.519531 13.285156 C 37.46875 13.234375 37.421875 13.183594 37.371094 13.128906 C 37.316406 13.078125 37.265625 13.03125 37.214844 12.980469 Z M 31 13 C 27.675781 13 25 15.675781 25 19 L 25.019531 19 C 25.007812 19.164062 25 19.332031 25 19.5 L 25.019531 19.5 C 25.273438 16.410156 27.84375 14 31 14 Z M 24.480469 13.285156 C 24.429688 13.335938 24.378906 13.390625 24.332031 13.441406 C 24.285156 13.496094 24.238281 13.550781 24.1875 13.605469 C 24.140625 13.65625 24.097656 13.714844 24.050781 13.769531 C 24.003906 13.824219 23.957031 13.882812 23.914062 13.9375 C 23.871094 13.992188 23.828125 14.050781 23.78125 14.109375 C 23.746094 14.160156 23.707031 14.210938 23.671875 14.261719 C 23.707031 14.210938 23.746094 14.160156 23.78125 14.109375 C 23.828125 14.050781 23.871094 13.996094 23.914062 13.9375 C 23.957031 13.878906 24.003906 13.824219 24.050781 13.769531 C 24.097656 13.714844 24.140625 13.65625 24.1875 13.605469 C 24.234375 13.550781 24.285156 13.496094 24.332031 13.441406 C 24.378906 13.390625 24.429688 13.335938 24.480469 13.285156 Z M 30.578125 13.515625 C 30.511719 13.519531 30.449219 13.523438 30.386719 13.53125 C 30.449219 13.523438 30.511719 13.519531 30.578125 13.515625 Z M 37.8125 13.605469 C 37.859375 13.65625 37.902344 13.714844 37.949219 13.769531 C 37.984375 13.8125 38.023438 13.859375 38.058594 13.90625 C 38.023438 13.859375 37.984375 13.8125 37.949219 13.769531 C 37.902344 13.714844 37.859375 13.65625 37.8125 13.605469 Z M 29.421875 13.707031 C 29.351562 13.726562 29.285156 13.746094 29.21875 13.765625 C 29.285156 13.746094 29.351562 13.726562 29.421875 13.707031 Z M 29.195312 13.777344 C 29.117188 13.800781 29.042969 13.824219 28.96875 13.851562 C 29.042969 13.824219 29.121094 13.800781 29.195312 13.777344 Z M 28.871094 13.890625 C 28.8125 13.910156 28.757812 13.929688 28.703125 13.953125 C 28.757812 13.929688 28.8125 13.910156 28.871094 13.890625 Z M 28.609375 13.996094 C 28.554688 14.015625 28.503906 14.039062 28.453125 14.0625 C 28.503906 14.039062 28.554688 14.015625 28.609375 13.996094 Z M 38.21875 14.109375 C 38.261719 14.167969 38.300781 14.222656 38.34375 14.28125 C 38.386719 14.34375 38.425781 14.402344 38.46875 14.460938 C 38.425781 14.402344 38.386719 14.34375 38.34375 14.28125 C 38.300781 14.222656 38.261719 14.167969 38.21875 14.109375 Z M 28.074219 14.257812 C 28.027344 14.28125 27.980469 14.308594 27.9375 14.335938 C 27.980469 14.308594 28.027344 14.285156 28.074219 14.257812 Z M 27.847656 14.390625 C 27.808594 14.414062 27.773438 14.4375 27.734375 14.464844 C 27.773438 14.4375 27.808594 14.414062 27.847656 14.390625 Z M 23.53125 14.460938 C 23.492188 14.519531 23.453125 14.582031 23.414062 14.640625 C 23.453125 14.582031 23.492188 14.519531 23.53125 14.460938 Z M 38.585938 14.640625 C 38.625 14.703125 38.664062 14.765625 38.703125 14.828125 C 38.738281 14.886719 38.773438 14.949219 38.8125 15.015625 C 38.847656 15.078125 38.882812 15.140625 38.917969 15.203125 C 38.949219 15.265625 38.984375 15.332031 39.015625 15.394531 C 39.046875 15.453125 39.074219 15.511719 39.105469 15.566406 C 39.074219 15.511719 39.046875 15.453125 39.015625 15.394531 C 38.984375 15.332031 38.949219 15.265625 38.917969 15.203125 C 38.882812 15.140625 38.847656 15.078125 38.8125 15.015625 C 38.773438 14.949219 38.738281 14.886719 38.703125 14.828125 C 38.664062 14.765625 38.625 14.703125 38.585938 14.640625 Z M 27.164062 14.878906 C 27.125 14.914062 27.085938 14.945312 27.046875 14.980469 C 27.085938 14.945312 27.125 14.914062 27.164062 14.878906 Z M 23.1875 15.015625 C 23.152344 15.078125 23.117188 15.140625 23.082031 15.203125 C 23.050781 15.265625 23.015625 15.332031 22.984375 15.394531 C 22.949219 15.460938 22.917969 15.527344 22.886719 15.59375 C 22.820312 15.722656 22.761719 15.855469 22.703125 15.988281 C 22.648438 16.125 22.59375 16.261719 22.546875 16.398438 C 22.59375 16.261719 22.648438 16.125 22.703125 15.988281 C 22.761719 15.855469 22.820312 15.722656 22.886719 15.59375 C 22.917969 15.527344 22.949219 15.460938 22.984375 15.394531 C 23.015625 15.332031 23.050781 15.265625 23.082031 15.203125 C 23.117188 15.140625 23.152344 15.078125 23.1875 15.015625 Z M 39.296875 15.988281 C 39.324219 16.058594 39.351562 16.125 39.375 16.191406 C 39.402344 16.261719 39.429688 16.328125 39.453125 16.398438 C 39.429688 16.328125 39.402344 16.261719 39.375 16.191406 C 39.351562 16.125 39.324219 16.058594 39.296875 15.988281 Z M 39.53125 16.609375 C 39.554688 16.675781 39.574219 16.746094 39.597656 16.816406 C 39.621094 16.890625 39.640625 16.960938 39.660156 17.03125 C 39.640625 16.960938 39.621094 16.890625 39.597656 16.816406 C 39.574219 16.746094 39.554688 16.675781 39.53125 16.609375 Z M 39.667969 17.046875 C 39.703125 17.183594 39.738281 17.324219 39.769531 17.464844 C 39.785156 17.535156 39.804688 17.609375 39.816406 17.683594 C 39.804688 17.609375 39.785156 17.535156 39.769531 17.464844 C 39.738281 17.324219 39.703125 17.1875 39.667969 17.046875 Z M 22.332031 17.050781 C 22.277344 17.257812 22.226562 17.464844 22.183594 17.675781 C 22.226562 17.464844 22.277344 17.257812 22.332031 17.050781 Z M 25.328125 17.53125 C 25.316406 17.574219 25.300781 17.617188 25.285156 17.660156 C 25.300781 17.617188 25.316406 17.574219 25.328125 17.53125 Z M 39.820312 17.6875 C 39.894531 18.050781 39.945312 18.417969 39.972656 18.796875 C 39.945312 18.417969 39.894531 18.050781 39.820312 17.6875 Z M 25.246094 17.796875 C 25.234375 17.835938 25.222656 17.871094 25.214844 17.910156 C 25.222656 17.871094 25.234375 17.835938 25.246094 17.796875 Z M 22.140625 17.90625 C 22.085938 18.199219 22.046875 18.496094 22.027344 18.796875 C 22.046875 18.496094 22.085938 18.199219 22.140625 17.90625 Z M 24.003906 19.25 C 24.003906 19.332031 24 19.417969 24 19.5 C 24 19.589844 24.003906 19.675781 24.003906 19.765625 C 24.003906 19.84375 24 19.921875 24 20 C 24 23.878906 27.121094 27 31 27 C 34.878906 27 38 23.878906 38 20 C 38 19.921875 37.996094 19.84375 37.996094 19.765625 C 37.992188 19.757812 37.996094 19.753906 37.996094 19.75 C 37.996094 19.667969 38 19.582031 38 19.5 C 38 19.417969 37.996094 19.332031 37.996094 19.25 C 37.863281 23.011719 34.792969 26 31 26 C 27.207031 26 24.136719 23.011719 24.003906 19.25 Z M 39.464844 22.578125 C 39.414062 22.714844 39.359375 22.851562 39.304688 22.984375 L 39.464844 23.078125 C 39.414062 23.214844 39.359375 23.351562 39.304688 23.484375 L 45.855469 27.265625 C 46.257812 27.5 46.511719 27.886719 46.585938 28.3125 C 46.640625 27.972656 46.578125 27.628906 46.417969 27.335938 C 46.382812 27.277344 46.347656 27.21875 46.308594 27.167969 C 46.347656 27.21875 46.382812 27.277344 46.417969 27.335938 C 46.5 27.484375 46.558594 27.644531 46.585938 27.8125 C 46.683594 27.210938 46.414062 26.589844 45.855469 26.265625 Z M 25.851562 24.25 C 25.894531 24.296875 25.9375 24.339844 25.984375 24.386719 C 25.9375 24.339844 25.894531 24.292969 25.851562 24.25 Z M 36.148438 24.25 C 36.105469 24.292969 36.0625 24.339844 36.015625 24.386719 C 36.0625 24.339844 36.105469 24.296875 36.148438 24.25 Z M 26.09375 24.5 C 26.128906 24.535156 26.171875 24.574219 26.210938 24.609375 C 26.171875 24.574219 26.132812 24.535156 26.09375 24.5 Z M 35.90625 24.5 C 35.875 24.53125 35.839844 24.5625 35.808594 24.59375 C 35.839844 24.5625 35.875 24.53125 35.90625 24.5 Z M 26.316406 24.710938 C 26.378906 24.765625 26.441406 24.820312 26.503906 24.871094 C 26.441406 24.820312 26.378906 24.765625 26.316406 24.710938 Z M 27.367188 25.488281 C 27.410156 25.511719 27.449219 25.539062 27.488281 25.5625 C 27.449219 25.539062 27.40625 25.511719 27.367188 25.488281 Z M 34.632812 25.488281 C 34.59375 25.511719 34.550781 25.539062 34.511719 25.5625 C 34.550781 25.539062 34.589844 25.511719 34.632812 25.488281 Z M 29.757812 26.390625 C 29.816406 26.402344 29.875 26.410156 29.933594 26.421875 C 29.875 26.410156 29.816406 26.402344 29.757812 26.390625 Z M 32.242188 26.390625 C 32.183594 26.402344 32.125 26.410156 32.066406 26.421875 C 32.125 26.410156 32.183594 26.402344 32.242188 26.390625 Z M 29.953125 26.421875 C 30.0625 26.441406 30.171875 26.453125 30.28125 26.464844 C 30.171875 26.453125 30.0625 26.441406 29.953125 26.421875 Z M 32.046875 26.421875 C 31.9375 26.441406 31.828125 26.453125 31.71875 26.464844 C 31.828125 26.453125 31.9375 26.441406 32.046875 26.421875 Z M 30.457031 26.480469 C 30.574219 26.488281 30.6875 26.496094 30.804688 26.5 C 30.6875 26.496094 30.574219 26.488281 30.457031 26.480469 Z M 31.542969 26.480469 C 31.425781 26.488281 31.3125 26.496094 31.195312 26.5 C 31.3125 26.496094 31.425781 26.488281 31.542969 26.480469 Z M 45.855469 26.765625 C 45.890625 26.789062 45.925781 26.808594 45.957031 26.832031 C 45.988281 26.855469 46.019531 26.878906 46.050781 26.902344 C 46.019531 26.878906 45.988281 26.855469 45.957031 26.832031 C 45.925781 26.808594 45.890625 26.789062 45.855469 26.765625 Z M 46.21875 27.0625 C 46.238281 27.082031 46.257812 27.105469 46.277344 27.128906 C 46.257812 27.105469 46.238281 27.082031 46.21875 27.0625 Z M 46.21875 27.0625 "/>
<path style=" stroke:none;fill-rule:nonzero;fill:url(#linear0);" d="M 14 4 C 12.890625 4 12 4.890625 12 6 L 12 22.265625 C 11.402344 22.613281 11 23.257812 11 24 L 11 30 C 10.445312 30 10 30.445312 10 31 L 10 36 L 8 36 C 5.785156 36 4 37.785156 4 40 L 4 50 C 4 52.214844 5.785156 54 8 54 L 8 56 C 8 57.109375 8.890625 58 10 58 L 12 58 C 12 59.109375 12.890625 60 14 60 L 50 60 C 51.109375 60 52 59.109375 52 58 L 54 58 C 55.109375 58 56 57.109375 56 56 L 56 54 C 58.214844 54 60 52.214844 60 50 L 60 40 C 60 37.785156 58.214844 36 56 36 L 54 36 L 54 31 C 54 30.445312 53.554688 30 53 30 L 53 24 C 53 23.257812 52.597656 22.613281 52 22.265625 L 52 6 C 52 4.890625 51.109375 4 50 4 Z M 14 4 "/>
</g>
</svg>
