
<svg xmlns="http://www.w3.org/2000/svg" xmlns:xlink="http://www.w3.org/1999/xlink" width="64" height="64" viewBox="0 0 64 64" version="1.1">
<defs>
<linearGradient id="linear0" gradientUnits="userSpaceOnUse" x1="34" y1="59.999996" x2="34" y2="3.999999" >
<stop offset="0" style="stop-color:rgb(0%,0%,0%);stop-opacity:0.2;"/>
<stop offset="1" style="stop-color:rgb(100%,100%,100%);stop-opacity:0;"/>
</linearGradient>
</defs>
<g id="surface1">
<path style=" stroke:none;fill-rule:nonzero;fill:rgb(0%,0%,0%);fill-opacity:0.2;" d="M 4 50 L 4 51.5 C 4 53.714844 5.785156 55.5 8 55.5 L 8 54 C 5.785156 54 4 52.214844 4 50 Z M 60 50 C 60 52.214844 58.214844 54 56 54 L 56 55.5 C 58.214844 55.5 60 53.714844 60 51.5 Z M 8 56 L 8 57.5 C 8 58.609375 8.890625 59.5 10 59.5 L 54 59.5 C 55.109375 59.5 56 58.609375 56 57.5 L 56 56 C 56 57.109375 55.109375 58 54 58 L 10 58 C 8.890625 58 8 57.109375 8 56 Z M 8 56 "/>
<path style=" stroke:none;fill-rule:nonzero;fill:rgb(61.960787%,61.960787%,61.960787%);fill-opacity:0.996078;" d="M 13 22 L 51 22 C 52.105469 22 53 22.894531 53 24 L 53 34 C 53 35.105469 52.105469 36 51 36 L 13 36 C 11.894531 36 11 35.105469 11 34 L 11 24 C 11 22.894531 11.894531 22 13 22 Z M 13 22 "/>
<path style=" stroke:none;fill-rule:nonzero;fill:rgb(93.333334%,93.333334%,93.333334%);fill-opacity:0.996078;" d="M 14 4 L 50 4 C 51.105469 4 52 4.894531 52 6 L 52 48 C 52 49.105469 51.105469 50 50 50 L 14 50 C 12.894531 50 12 49.105469 12 48 L 12 6 C 12 4.894531 12.894531 4 14 4 Z M 14 4 "/>
<path style=" stroke:none;fill-rule:nonzero;fill:rgb(38.039216%,38.039216%,38.039216%);fill-opacity:0.996078;" d="M 51 30 L 53 30 C 53.550781 30 54 30.449219 54 31 L 54 36.5 C 54 37.050781 53.550781 37.5 53 37.5 L 51 37.5 C 50.449219 37.5 50 37.050781 50 36.5 L 50 31 C 50 30.449219 50.449219 30 51 30 Z M 51 30 "/>
<path style=" stroke:none;fill-rule:nonzero;fill:rgb(38.039216%,38.039216%,38.039216%);fill-opacity:0.996078;" d="M 11 30 L 13 30 C 13.550781 30 14 30.449219 14 31 L 14 36.5 C 14 37.050781 13.550781 37.5 13 37.5 L 11 37.5 C 10.449219 37.5 10 37.050781 10 36.5 L 10 31 C 10 30.449219 10.449219 30 11 30 Z M 11 30 "/>
<path style=" stroke:none;fill-rule:nonzero;fill:rgb(61.960787%,61.960787%,61.960787%);fill-opacity:0.996078;" d="M 8 36 L 56 36 C 58.210938 36 60 37.789062 60 40 L 60 50 C 60 52.210938 58.210938 54 56 54 L 8 54 C 5.789062 54 4 52.210938 4 50 L 4 40 C 4 37.789062 5.789062 36 8 36 Z M 8 36 "/>
<path style=" stroke:none;fill-rule:nonzero;fill:rgb(38.039216%,38.039216%,38.039216%);fill-opacity:0.992157;" d="M 4 40.5 L 60 40.5 L 60 41 L 4 41 Z M 4 40.5 "/>
<path style=" stroke:none;fill-rule:nonzero;fill:rgb(100%,100%,100%);fill-opacity:0.4;" d="M 4 41 L 60 41 L 60 41.5 L 4 41.5 Z M 4 41 "/>
<path style=" stroke:none;fill-rule:nonzero;fill:rgb(61.960787%,61.960787%,61.960787%);fill-opacity:0.996078;" d="M 10 44 L 54 44 C 55.105469 44 56 44.894531 56 46 L 56 56 C 56 57.105469 55.105469 58 54 58 L 10 58 C 8.894531 58 8 57.105469 8 56 L 8 46 C 8 44.894531 8.894531 44 10 44 Z M 10 44 "/>
<path style=" stroke:none;fill-rule:nonzero;fill:rgb(0%,0%,0%);fill-opacity:0.4;" d="M 8 55 L 8 56 C 8 57.109375 8.890625 58 10 58 L 54 58 C 55.109375 58 56 57.109375 56 56 L 56 55 C 56 56.109375 55.109375 57 54 57 L 10 57 C 8.890625 57 8 56.109375 8 55 Z M 8 55 "/>
<path style=" stroke:none;fill-rule:nonzero;fill:rgb(1.960784%,1.960784%,1.960784%);fill-opacity:0.4;" d="M 4 49 L 4 50 C 4 52.214844 5.785156 54 8 54 L 10 54 L 10 53 L 8 53 C 5.785156 53 4 51.214844 4 49 Z M 60 49 C 60 51.214844 58.214844 53 56 53 L 54 53 L 54 54 L 56 54 C 58.214844 54 60 52.214844 60 50 Z M 60 49 "/>
<path style=" stroke:none;fill-rule:nonzero;fill:rgb(38.039216%,38.039216%,38.039216%);fill-opacity:1;" d="M 14 48 C 11.785156 48 10 49.785156 10 52 L 10 58 L 54 58 L 54 52 C 54 49.785156 52.214844 48 50 48 Z M 14 48 "/>
<path style=" stroke:none;fill-rule:nonzero;fill:rgb(93.333334%,93.333334%,93.333334%);fill-opacity:0.996078;" d="M 14 50 L 50 50 C 51.105469 50 52 50.894531 52 52 L 52 58 C 52 59.105469 51.105469 60 50 60 L 14 60 C 12.894531 60 12 59.105469 12 58 L 12 52 C 12 50.894531 12.894531 50 14 50 Z M 14 50 "/>
<path style=" stroke:none;fill-rule:nonzero;fill:rgb(0%,0%,0%);fill-opacity:0.2;" d="M 4 40 L 60 40 L 60 40.5 L 4 40.5 Z M 4 40 "/>
<path style=" stroke:none;fill-rule:nonzero;fill:rgb(100%,100%,100%);fill-opacity:0.6;" d="M 14 4 C 12.890625 4 12 4.890625 12 6 L 12 6.5 C 12 5.390625 12.890625 4.5 14 4.5 L 50 4.5 C 51.109375 4.5 52 5.390625 52 6.5 L 52 6 C 52 4.890625 51.109375 4 50 4 Z M 14 4 "/>
<path style=" stroke:none;fill-rule:nonzero;fill:rgb(100%,100%,100%);fill-opacity:0.6;" d="M 14 50 C 12.890625 50 12 50.890625 12 52 L 12 52.5 C 12 51.390625 12.890625 50.5 14 50.5 L 50 50.5 C 51.109375 50.5 52 51.390625 52 52.5 L 52 52 C 52 50.890625 51.109375 50 50 50 Z M 14 50 "/>
<path style=" stroke:none;fill-rule:nonzero;fill:rgb(100%,100%,100%);fill-opacity:0.4;" d="M 11 30 C 10.445312 30 10 30.445312 10 31 L 10 32 C 10 31.445312 10.445312 31 11 31 L 13 31 C 13.554688 31 14 31.445312 14 32 L 14 31 C 14 30.445312 13.554688 30 13 30 Z M 51 30 C 50.445312 30 50 30.445312 50 31 L 50 32 C 50 31.445312 50.445312 31 51 31 L 53 31 C 53.554688 31 54 31.445312 54 32 L 54 31 C 54 30.445312 53.554688 30 53 30 Z M 51 30 "/>
<path style=" stroke:none;fill-rule:nonzero;fill:rgb(100%,100%,100%);fill-opacity:0.4;" d="M 8 36 C 5.785156 36 4 37.785156 4 40 L 4 41 C 4 38.785156 5.785156 37 8 37 L 56 37 C 58.214844 37 60 38.785156 60 41 L 60 40 C 60 37.785156 58.214844 36 56 36 Z M 8 36 "/>
<path style=" stroke:none;fill-rule:nonzero;fill:rgb(0%,0%,0%);fill-opacity:0.4;" d="M 14 48 C 11.785156 48 10 49.785156 10 52 L 10 53.015625 C 10 50.800781 11.785156 49.015625 14 49.015625 L 50 49.015625 C 52.214844 49.015625 54 50.800781 54 53.015625 L 54 52 C 54 49.785156 52.214844 48 50 48 Z M 14 48 "/>
<path style=" stroke:none;fill-rule:nonzero;fill:rgb(0%,0%,0%);fill-opacity:0.4;" d="M 12 57.5 L 12 58 C 12 59.109375 12.890625 60 14 60 L 50 60 C 51.109375 60 52 59.109375 52 58 L 52 57.5 C 52 58.609375 51.109375 59.5 50 59.5 L 14 59.5 C 12.890625 59.5 12 58.609375 12 57.5 Z M 12 57.5 "/>
<path style=" stroke:none;fill-rule:nonzero;fill:rgb(14.901961%,77.64706%,85.490197%);fill-opacity:1;" d="M 14 50 L 14 57 C 14 57.554688 14.445312 58 15 58 L 49 58 C 49.554688 58 50 57.554688 50 57 L 50 50 Z M 14 50 "/>
<path style=" stroke:none;fill-rule:nonzero;fill:rgb(100%,65.490198%,14.901961%);fill-opacity:1;" d="M 36 50 C 36 52.214844 37.785156 54 40 54 C 42.214844 54 44 52.214844 44 50 Z M 36 50 "/>
<path style=" stroke:none;fill-rule:nonzero;fill:rgb(100%,100%,100%);fill-opacity:0.4;" d="M 12 52 L 52 52 L 52 54 L 12 54 Z M 12 52 "/>
<path style=" stroke:none;fill-rule:nonzero;fill:rgb(40.000001%,73.333335%,41.568628%);fill-opacity:0.996078;" d="M 9.007812 42 C 9.554688 42 10 42.445312 10 42.992188 C 10 43.539062 9.554688 43.984375 9.007812 43.984375 C 8.460938 43.984375 8.015625 43.539062 8.015625 42.992188 C 8.015625 42.445312 8.460938 42 9.007812 42 Z M 9.007812 42 "/>
<path style=" stroke:none;fill-rule:nonzero;fill:rgb(0%,0%,0%);fill-opacity:0.4;" d="M 8.984375 42 C 8.445312 42.011719 8.015625 42.449219 8.015625 42.992188 C 8.015625 43.078125 8.027344 43.160156 8.046875 43.238281 C 8.15625 42.8125 8.546875 42.5 9.007812 42.5 C 9.46875 42.5 9.859375 42.8125 9.96875 43.238281 C 9.988281 43.160156 10 43.078125 10 42.992188 C 10 42.441406 9.558594 42 9.007812 42 C 9 42 8.992188 42 8.984375 42 Z M 8.984375 42 "/>
<path style=" stroke:none;fill-rule:nonzero;fill:rgb(100%,100%,100%);fill-opacity:0.4;" d="M 8.984375 44.5 C 8.445312 44.484375 8.015625 44.050781 8.015625 43.507812 C 8.015625 43.421875 8.027344 43.339844 8.046875 43.261719 C 8.15625 43.6875 8.546875 44 9.007812 44 C 9.46875 44 9.859375 43.6875 9.96875 43.261719 C 9.988281 43.339844 10 43.421875 10 43.507812 C 10 44.058594 9.558594 44.5 9.007812 44.5 C 9 44.5 8.992188 44.5 8.984375 44.5 Z M 8.984375 44.5 "/>
<path style=" stroke:none;fill-rule:nonzero;fill:rgb(40.000001%,73.333335%,41.568628%);fill-opacity:0.996078;" d="M 13.039062 42 C 13.585938 42 14.03125 42.445312 14.03125 42.992188 C 14.03125 43.539062 13.585938 43.984375 13.039062 43.984375 C 12.492188 43.984375 12.046875 43.539062 12.046875 42.992188 C 12.046875 42.445312 12.492188 42 13.039062 42 Z M 13.039062 42 "/>
<path style=" stroke:none;fill-rule:nonzero;fill:rgb(0%,0%,0%);fill-opacity:0.4;" d="M 13.011719 42 C 12.476562 42.015625 12.046875 42.449219 12.046875 42.992188 C 12.046875 43.078125 12.058594 43.160156 12.078125 43.238281 C 12.1875 42.8125 12.578125 42.5 13.039062 42.5 C 13.5 42.5 13.890625 42.8125 14 43.238281 C 14.019531 43.160156 14.03125 43.078125 14.03125 42.992188 C 14.03125 42.441406 13.589844 42 13.039062 42 C 13.03125 42 13.023438 42 13.011719 42 Z M 13.011719 42 "/>
<path style=" stroke:none;fill-rule:nonzero;fill:rgb(100%,100%,100%);fill-opacity:0.4;" d="M 13.011719 44.5 C 12.476562 44.484375 12.046875 44.050781 12.046875 43.507812 C 12.046875 43.421875 12.058594 43.339844 12.078125 43.261719 C 12.1875 43.6875 12.578125 44 13.039062 44 C 13.5 44 13.890625 43.6875 14 43.261719 C 14.019531 43.339844 14.03125 43.421875 14.03125 43.507812 C 14.03125 44.058594 13.589844 44.5 13.039062 44.5 C 13.03125 44.5 13.023438 44.5 13.011719 44.5 Z M 13.011719 44.5 "/>
<path style=" stroke:none;fill-rule:nonzero;fill:rgb(95.686275%,26.274511%,21.176471%);fill-opacity:0.996078;" d="M 55.039062 42 C 55.585938 42 56.03125 42.445312 56.03125 42.992188 C 56.03125 43.539062 55.585938 43.984375 55.039062 43.984375 C 54.492188 43.984375 54.046875 43.539062 54.046875 42.992188 C 54.046875 42.445312 54.492188 42 55.039062 42 Z M 55.039062 42 "/>
<path style=" stroke:none;fill-rule:nonzero;fill:rgb(0%,0%,0%);fill-opacity:0.4;" d="M 55.011719 42 C 54.476562 42.015625 54.046875 42.449219 54.046875 42.992188 C 54.046875 43.078125 54.058594 43.160156 54.078125 43.238281 C 54.1875 42.8125 54.578125 42.5 55.039062 42.5 C 55.5 42.5 55.890625 42.8125 56 43.238281 C 56.019531 43.160156 56.03125 43.078125 56.03125 42.992188 C 56.03125 42.441406 55.589844 42 55.039062 42 C 55.03125 42 55.023438 42 55.015625 42 Z M 55.011719 42 "/>
<path style=" stroke:none;fill-rule:nonzero;fill:rgb(100%,100%,100%);fill-opacity:0.4;" d="M 55.011719 44.5 C 54.476562 44.484375 54.046875 44.050781 54.046875 43.507812 C 54.046875 43.421875 54.058594 43.339844 54.078125 43.261719 C 54.1875 43.6875 54.578125 44 55.039062 44 C 55.5 44 55.890625 43.6875 56 43.261719 C 56.019531 43.339844 56.03125 43.421875 56.03125 43.507812 C 56.03125 44.058594 55.589844 44.5 55.039062 44.5 C 55.03125 44.5 55.023438 44.5 55.015625 44.5 Z M 55.011719 44.5 "/>
<path style=" stroke:none;fill-rule:nonzero;fill:url(#linear0);" d="M 14 4 C 12.890625 4 12 4.890625 12 6 L 12 22.265625 C 11.402344 22.613281 11 23.257812 11 24 L 11 30 C 10.445312 30 10 30.445312 10 31 L 10 36 L 8 36 C 5.785156 36 4 37.785156 4 40 L 4 50 C 4 52.214844 5.785156 54 8 54 L 8 56 C 8 57.109375 8.890625 58 10 58 L 12 58 C 12 59.109375 12.890625 60 14 60 L 50 60 C 51.109375 60 52 59.109375 52 58 L 54 58 C 55.109375 58 56 57.109375 56 56 L 56 54 C 58.214844 54 60 52.214844 60 50 L 60 40 C 60 37.785156 58.214844 36 56 36 L 54 36 L 54 31 C 54 30.445312 53.554688 30 53 30 L 53 24 C 53 23.257812 52.597656 22.613281 52 22.265625 L 52 6 C 52 4.890625 51.109375 4 50 4 Z M 14 4 "/>
</g>
</svg>
