<svg enable-background="new 0 0 1024 1024" viewBox="0 0 1024 1024" xmlns="http://www.w3.org/2000/svg"><circle cx="512" cy="512" fill="#e57000" r="512"/><g fill="#fff" transform="matrix(.85286594 0 0 .85286594 -2204.7964 -970.06495)"><path d="m-1736.7 977.1 197.7-217.4c-7.7-7.7-16.6-13.7-26.8-18.1s-21.1-6.6-32.9-6.7c-12.4.1-23.8 2.6-34.2 7.4s-19.3 11.5-27 19.9l-76.8 83.9-76.3-83.9c-7.9-8.4-17.1-15.1-27.6-19.9s-21.9-7.3-34.1-7.4c-11.7.1-22.7 2.3-32.9 6.7s-19.1 10.4-26.8 18.1z" transform="matrix(-.99791979 0 0 .99791979 1452.3586 746.04784)"/><path d="m2289.4-525.1 197.6-217.4c-7.7-7.7-16.6-13.7-26.8-18.1s-21.1-6.6-32.9-6.7c-12.4.1-23.8 2.6-34.2 7.4s-19.3 11.5-27 19.9l-76.8 83.9-76.3-83.9c-7.9-8.4-17.1-15.1-27.6-19.9s-21.9-7.3-34.1-7.4c-11.7.1-22.7 2.3-32.9 6.7s-19.1 10.4-26.8 18.1z" transform="matrix(.99791979 0 0 -.99791979 900.89604 1230.3576)"/><path d="m3168.9 1737.7-148.6-163c-8.6-9.2-18.7-16.5-30.2-21.8s-23.9-8-37.2-8.1c-12.8.1-24.8 2.5-35.9 7.3s-20.9 11.4-29.3 19.7l150.8 165.7-150.8 165.7c8.4 8.6 18.1 15.4 29.3 20.2 11.1 4.8 23.1 7.3 35.9 7.4 13.4-.1 25.8-2.8 37.4-8.1s21.6-12.5 30-21.8z"/><path d="m3202.1 1737.7 148.6-163c8.6-9.2 18.7-16.5 30.2-21.8s23.9-8 37.2-8.1c12.8.1 24.8 2.5 35.9 7.3s20.9 11.4 29.3 19.7l-150.8 165.7 150.8 165.7c-8.4 8.6-18.1 15.4-29.3 20.2s-23.1 7.3-35.9 7.4c-13.4-.1-25.8-2.8-37.4-8.1s-21.6-12.5-30-21.8z"/></g></svg>