
<svg xmlns="http://www.w3.org/2000/svg" xmlns:xlink="http://www.w3.org/1999/xlink" width="64" height="64" viewBox="0 0 64 64" version="1.1">
<defs>
<linearGradient id="linear0" gradientUnits="userSpaceOnUse" x1="8.466666" y1="-199.125" x2="8.466666" y2="-213.941666" gradientTransform="matrix(3.779528,0,0,3.779528,0,812.598468)">
<stop offset="0" style="stop-color:rgb(0%,0%,0%);stop-opacity:0.2;"/>
<stop offset="1" style="stop-color:rgb(100%,100%,100%);stop-opacity:0;"/>
</linearGradient>
</defs>
<g id="surface1">
<path style=" stroke:none;fill-rule:nonzero;fill:rgb(38.039216%,38.039216%,38.039216%);fill-opacity:1;" d="M 41.542969 3.996094 C 41.273438 3.996094 41.007812 4.046875 40.753906 4.140625 C 40.539062 4.222656 40.339844 4.3125 40.148438 4.40625 C 39.53125 4.195312 38.847656 4.265625 38.28125 4.597656 C 38.199219 4.644531 38.117188 4.699219 38.035156 4.75 C 37.363281 4.605469 36.660156 4.78125 36.128906 5.21875 C 35.917969 5.390625 35.730469 5.566406 35.558594 5.734375 C 34.957031 5.730469 34.378906 5.960938 33.953125 6.382812 C 33.238281 7.089844 32.507812 7.992188 31.933594 9.074219 C 31.355469 7.992188 30.628906 7.089844 29.914062 6.382812 C 29.484375 5.960938 28.90625 5.730469 28.308594 5.734375 C 28.132812 5.566406 27.945312 5.390625 27.734375 5.21875 C 27.203125 4.777344 26.5 4.605469 25.828125 4.75 C 25.746094 4.699219 25.664062 4.644531 25.582031 4.597656 C 25.015625 4.265625 24.335938 4.195312 23.714844 4.40625 C 23.523438 4.3125 23.324219 4.222656 23.109375 4.140625 C 22.488281 3.910156 21.800781 3.957031 21.222656 4.277344 C 21.023438 4.226562 20.816406 4.175781 20.601562 4.132812 C 19.96875 4.011719 19.316406 4.164062 18.808594 4.554688 C 18.78125 4.550781 18.753906 4.546875 18.730469 4.542969 C 18.085938 4.457031 17.4375 4.648438 16.949219 5.074219 C 16.5 5.074219 16.023438 5.125 15.511719 5.261719 C 15.105469 5.375 14.734375 5.601562 14.449219 5.914062 C 14.375 5.914062 14.300781 5.914062 14.226562 5.914062 C 12.640625 5.941406 11.574219 7.558594 12.179688 9.027344 C 11.835938 9.65625 11.808594 10.40625 12.109375 11.054688 C 12.171875 11.195312 12.242188 11.324219 12.3125 11.449219 C 12.21875 11.921875 12.277344 12.414062 12.480469 12.851562 C 12.621094 13.144531 12.773438 13.394531 12.929688 13.625 C 12.867188 14.257812 13.078125 14.882812 13.503906 15.355469 C 13.609375 15.464844 13.71875 15.574219 13.828125 15.683594 C 13.847656 16.246094 14.078125 16.785156 14.476562 17.1875 C 14.742188 17.453125 15.007812 17.679688 15.273438 17.875 C 15.386719 18.335938 15.640625 18.75 16.003906 19.054688 C 16.425781 19.414062 16.839844 19.664062 17.238281 19.855469 C 17.414062 20.207031 17.683594 20.507812 18.011719 20.726562 C 17.632812 20.996094 17.277344 21.296875 16.945312 21.632812 C 15.226562 23.363281 14.28125 25.886719 14.367188 28.71875 C 14.371094 28.75 14.371094 28.789062 14.375 28.824219 C 14.378906 28.898438 14.394531 28.980469 14.410156 29.0625 C 11.679688 30.796875 10.40625 33.648438 10.324219 36.234375 C 10.238281 38.914062 11.148438 41.449219 13.113281 43.054688 C 13.265625 43.179688 13.433594 43.285156 13.613281 43.367188 C 13.617188 43.367188 13.621094 43.367188 13.625 43.371094 C 13.566406 43.800781 13.542969 44.238281 13.546875 44.679688 C 13.558594 46.3125 14.007812 48.117188 14.984375 49.894531 C 15.019531 49.957031 15.058594 50.019531 15.101562 50.082031 C 16.546875 52.195312 18.398438 53.492188 20.203125 54.066406 C 21.398438 54.445312 22.5625 54.566406 23.648438 54.339844 L 23.648438 54.199219 C 23.648438 54.207031 23.648438 54.210938 23.648438 54.21875 C 23.648438 54.257812 23.648438 54.296875 23.648438 54.339844 C 23.632812 55.703125 24.203125 56.148438 24.671875 56.699219 C 25.160156 57.269531 25.75 57.789062 26.460938 58.273438 C 27.859375 59.230469 29.714844 60.070312 31.886719 59.996094 C 34.015625 60.015625 35.84375 59.152344 37.246094 58.140625 C 37.957031 57.628906 38.5625 57.074219 39.050781 56.445312 C 39.453125 55.933594 39.871094 55.402344 39.988281 54.527344 C 40.9375 54.6875 41.953125 54.601562 42.992188 54.324219 C 44.890625 53.816406 46.855469 52.523438 48.421875 50.335938 C 49.808594 48.523438 50.15625 46.378906 50.085938 44.519531 C 50.0625 43.992188 50.027344 43.488281 49.960938 43.003906 C 50.007812 42.972656 50.050781 42.9375 50.097656 42.902344 C 52.058594 41.292969 52.96875 38.761719 52.886719 36.082031 C 52.804688 33.5 51.539062 30.65625 48.820312 28.921875 C 48.820312 28.90625 48.820312 28.886719 48.820312 28.871094 C 48.90625 26.039062 47.960938 23.515625 46.246094 21.785156 C 45.960938 21.5 45.65625 21.238281 45.339844 21 C 45.46875 20.9375 45.601562 20.871094 45.734375 20.796875 C 46.117188 20.578125 46.425781 20.25 46.625 19.855469 C 47.023438 19.664062 47.4375 19.414062 47.859375 19.054688 C 48.222656 18.75 48.476562 18.335938 48.589844 17.875 C 48.855469 17.679688 49.121094 17.453125 49.386719 17.183594 C 49.785156 16.785156 50.015625 16.246094 50.035156 15.679688 C 50.144531 15.574219 50.253906 15.464844 50.359375 15.355469 C 50.785156 14.882812 50.996094 14.257812 50.9375 13.625 C 51.089844 13.394531 51.242188 13.144531 51.382812 12.851562 C 51.585938 12.414062 51.648438 11.921875 51.550781 11.445312 C 51.625 11.324219 51.691406 11.195312 51.753906 11.054688 C 52.054688 10.40625 52.027344 9.65625 51.683594 9.027344 C 52.289062 7.558594 51.226562 5.941406 49.636719 5.914062 C 49.5625 5.914062 49.492188 5.914062 49.414062 5.914062 C 49.128906 5.601562 48.761719 5.375 48.351562 5.261719 C 47.84375 5.125 47.363281 5.074219 46.917969 5.074219 C 46.425781 4.648438 45.777344 4.453125 45.136719 4.542969 C 45.109375 4.546875 45.082031 4.550781 45.058594 4.554688 C 44.546875 4.164062 43.894531 4.011719 43.265625 4.132812 C 43.046875 4.175781 42.839844 4.226562 42.640625 4.277344 C 42.304688 4.09375 41.925781 3.996094 41.542969 3.996094 Z M 31.933594 16.085938 C 32.394531 16.667969 33 17.167969 33.691406 17.542969 C 33.765625 17.773438 33.855469 17.996094 33.953125 18.207031 C 33.269531 18.035156 32.5625 17.9375 31.828125 17.945312 L 31.914062 17.949219 C 31.851562 17.945312 31.789062 17.945312 31.726562 17.945312 C 31.101562 17.945312 30.507812 18.019531 29.941406 18.148438 C 30.027344 17.953125 30.105469 17.75 30.171875 17.542969 C 30.863281 17.167969 31.46875 16.667969 31.933594 16.085938 Z M 40.023438 53.878906 L 40.027344 53.949219 C 40.027344 53.9375 40.023438 53.929688 40.023438 53.921875 C 40.023438 53.90625 40.023438 53.898438 40.023438 53.882812 Z M 40.023438 53.878906 "/>
<path style=" stroke:none;fill-rule:nonzero;fill:rgb(61.176473%,80.000001%,39.607844%);fill-opacity:1;" d="M 18.425781 9.933594 C 23.515625 12.601562 26.476562 14.765625 28.097656 16.605469 C 27.265625 19.992188 22.933594 20.144531 21.351562 20.050781 C 21.675781 19.898438 21.945312 19.710938 22.042969 19.429688 C 21.644531 19.144531 20.234375 19.398438 19.25 18.835938 C 19.628906 18.757812 19.804688 18.679688 19.984375 18.394531 C 19.054688 18.09375 18.050781 17.835938 17.464844 17.335938 C 17.78125 17.339844 18.078125 17.40625 18.492188 17.113281 C 17.660156 16.65625 16.773438 16.296875 16.082031 15.597656 C 16.511719 15.585938 16.976562 15.59375 17.109375 15.433594 C 16.347656 14.953125 15.707031 14.417969 15.175781 13.832031 C 15.777344 13.90625 16.03125 13.839844 16.175781 13.738281 C 15.601562 13.136719 14.871094 12.628906 14.523438 11.890625 C 14.972656 12.046875 15.378906 12.105469 15.675781 11.878906 C 15.480469 11.429688 14.640625 11.164062 14.15625 10.113281 C 14.628906 10.160156 15.128906 10.21875 15.226562 10.113281 C 15.007812 9.207031 14.632812 8.699219 14.265625 8.171875 C 15.273438 8.15625 16.800781 8.175781 16.730469 8.085938 L 16.109375 7.441406 C 17.09375 7.171875 18.101562 7.484375 18.832031 7.714844 C 19.160156 7.453125 18.828125 7.117188 18.425781 6.777344 C 19.261719 6.890625 20.015625 7.085938 20.699219 7.355469 C 21.066406 7.019531 20.464844 6.6875 20.171875 6.351562 C 21.464844 6.601562 22.011719 6.949219 22.554688 7.300781 C 22.953125 6.917969 22.578125 6.589844 22.3125 6.253906 C 23.289062 6.621094 23.789062 7.09375 24.316406 7.5625 C 24.496094 7.316406 24.773438 7.136719 24.441406 6.542969 C 25.132812 6.949219 25.652344 7.429688 26.039062 7.964844 C 26.464844 7.6875 26.292969 7.308594 26.296875 6.957031 C 27.015625 7.550781 27.472656 8.1875 28.027344 8.804688 C 28.140625 8.722656 28.242188 8.4375 28.328125 7.992188 C 30.042969 9.683594 32.464844 13.949219 28.949219 15.640625 C 25.960938 13.128906 22.386719 11.304688 18.425781 9.933594 Z M 18.425781 9.933594 "/>
<path style=" stroke:none;fill-rule:nonzero;fill:rgb(61.176473%,80.000001%,39.607844%);fill-opacity:1;" d="M 45.4375 9.933594 C 40.347656 12.601562 37.386719 14.765625 35.765625 16.605469 C 36.597656 19.992188 40.929688 20.144531 42.511719 20.050781 C 42.1875 19.898438 41.917969 19.710938 41.820312 19.429688 C 42.21875 19.144531 43.628906 19.398438 44.613281 18.835938 C 44.234375 18.757812 44.058594 18.679688 43.882812 18.394531 C 44.8125 18.09375 45.8125 17.835938 46.402344 17.335938 C 46.082031 17.339844 45.785156 17.40625 45.371094 17.113281 C 46.203125 16.65625 47.09375 16.296875 47.78125 15.597656 C 47.351562 15.585938 46.886719 15.59375 46.753906 15.433594 C 47.515625 14.953125 48.15625 14.417969 48.691406 13.832031 C 48.085938 13.90625 47.832031 13.839844 47.6875 13.738281 C 48.265625 13.136719 48.992188 12.628906 49.339844 11.890625 C 48.894531 12.046875 48.484375 12.105469 48.1875 11.878906 C 48.386719 11.429688 49.222656 11.164062 49.707031 10.113281 C 49.234375 10.160156 48.734375 10.21875 48.636719 10.113281 C 48.855469 9.207031 49.230469 8.699219 49.597656 8.171875 C 48.589844 8.15625 47.0625 8.175781 47.132812 8.085938 L 47.753906 7.441406 C 46.769531 7.171875 45.765625 7.484375 45.03125 7.714844 C 44.703125 7.453125 45.035156 7.117188 45.4375 6.777344 C 44.601562 6.890625 43.847656 7.085938 43.164062 7.355469 C 42.796875 7.019531 43.398438 6.6875 43.691406 6.351562 C 42.398438 6.601562 41.851562 6.949219 41.308594 7.300781 C 40.914062 6.917969 41.285156 6.589844 41.550781 6.253906 C 40.578125 6.621094 40.074219 7.09375 39.546875 7.5625 C 39.367188 7.316406 39.089844 7.136719 39.425781 6.542969 C 38.734375 6.949219 38.210938 7.429688 37.824219 7.964844 C 37.398438 7.6875 37.570312 7.308594 37.570312 6.957031 C 36.847656 7.550781 36.394531 8.1875 35.835938 8.804688 C 35.722656 8.722656 35.625 8.4375 35.535156 7.992188 C 33.820312 9.683594 31.398438 13.949219 34.914062 15.640625 C 37.90625 13.128906 41.480469 11.304688 45.4375 9.933594 Z M 45.4375 9.933594 "/>
<path style=" stroke:none;fill-rule:nonzero;fill:rgb(92.54902%,25.098041%,47.843137%);fill-opacity:1;" d="M 31.722656 20.199219 C 28.960938 20.195312 26.347656 22.34375 26.339844 23.597656 C 26.332031 25.148438 28.5625 26.730469 31.875 26.773438 C 35.253906 26.800781 37.410156 25.503906 37.421875 23.90625 C 37.433594 22.097656 34.347656 20.175781 31.855469 20.203125 C 31.808594 20.203125 31.765625 20.199219 31.722656 20.199219 Z M 23.578125 21.277344 C 19.574219 21.257812 16.484375 24.019531 16.625 28.648438 C 16.777344 30.640625 26.824219 21.710938 25.089844 21.414062 C 24.578125 21.328125 24.070312 21.28125 23.578125 21.277344 Z M 39.613281 21.429688 C 39.121094 21.433594 38.613281 21.480469 38.097656 21.566406 C 36.363281 21.863281 46.414062 30.792969 46.566406 28.800781 C 46.707031 24.171875 43.617188 21.410156 39.613281 21.429688 Z M 37.941406 26.972656 C 36.96875 26.972656 36.046875 27.246094 35.269531 27.765625 C 33.632812 28.855469 32.796875 30.90625 33.082031 33.148438 C 33.363281 35.390625 34.722656 37.480469 36.640625 38.632812 C 38.5625 39.78125 40.75 39.816406 42.386719 38.722656 C 44.472656 37.335938 45.199219 34.433594 44.152344 31.664062 C 43.105469 28.898438 40.550781 26.96875 37.941406 26.972656 Z M 25.796875 27.277344 C 23.1875 27.273438 20.632812 29.203125 19.585938 31.972656 C 18.539062 34.738281 19.265625 37.640625 21.355469 39.03125 C 22.988281 40.121094 25.179688 40.085938 27.097656 38.9375 C 29.019531 37.785156 30.375 35.695312 30.660156 33.453125 C 30.941406 31.210938 30.105469 29.160156 28.46875 28.070312 C 27.691406 27.550781 26.773438 27.277344 25.796875 27.277344 Z M 47.125 30.640625 C 44.753906 30.679688 46.515625 42.128906 48.667969 41.15625 C 51.109375 39.15625 51.894531 33.304688 47.367188 30.671875 C 47.285156 30.652344 47.203125 30.640625 47.125 30.640625 Z M 16.085938 30.792969 C 16.007812 30.792969 15.925781 30.800781 15.839844 30.828125 C 11.316406 33.457031 12.101562 39.3125 14.542969 41.308594 C 16.691406 42.28125 18.457031 30.835938 16.085938 30.792969 Z M 32 38.695312 C 28.628906 38.695312 25.898438 41.257812 25.902344 44.417969 C 25.898438 46.464844 27.058594 48.355469 28.949219 49.382812 C 30.835938 50.40625 33.164062 50.40625 35.050781 49.382812 C 36.9375 48.355469 38.101562 46.464844 38.097656 44.417969 C 38.097656 41.257812 35.367188 38.695312 32 38.695312 Z M 45.566406 40.828125 C 44.121094 40.808594 42.378906 42.203125 40.726562 44.101562 C 38.839844 46.351562 37.789062 50.453125 39.164062 51.777344 C 40.480469 52.804688 44.015625 52.660156 46.625 48.972656 C 48.519531 46.5 47.886719 42.363281 46.800781 41.265625 C 46.425781 40.96875 46.011719 40.832031 45.566406 40.828125 Z M 18.007812 41.703125 C 17.53125 41.699219 17.085938 41.808594 16.691406 42.050781 C 15.566406 42.921875 15.359375 45.890625 16.960938 48.804688 C 19.339844 52.28125 22.683594 52.628906 24.058594 51.785156 C 25.515625 50.675781 24.722656 46.917969 22.976562 44.78125 C 21.445312 42.972656 19.5625 41.722656 18.007812 41.703125 Z M 32.492188 51.941406 C 32.335938 51.9375 32.179688 51.941406 32.027344 51.949219 C 29.589844 51.886719 25.855469 52.941406 25.902344 54.292969 C 25.863281 55.210938 28.835938 57.871094 31.863281 57.738281 C 34.789062 57.789062 37.8125 55.136719 37.769531 53.960938 C 37.761719 52.828125 34.875 51.953125 32.492188 51.9375 Z M 32.492188 51.941406 "/>
<path style=" stroke:none;fill-rule:nonzero;fill:rgb(100%,100%,100%);fill-opacity:0.4;" d="M 31.722656 20.203125 C 28.960938 20.199219 26.347656 22.34375 26.34375 23.597656 C 26.339844 23.75 26.359375 23.902344 26.402344 24.050781 C 26.804688 22.785156 29.203125 20.996094 31.722656 21 C 31.765625 21 31.808594 21 31.855469 21 C 34.164062 20.976562 36.980469 22.621094 37.375 24.300781 C 37.402344 24.171875 37.421875 24.042969 37.421875 23.90625 C 37.433594 22.097656 34.347656 20.175781 31.855469 20.203125 C 31.808594 20.203125 31.765625 20.203125 31.722656 20.203125 Z M 23.578125 21.28125 C 19.574219 21.257812 16.484375 24.019531 16.625 28.644531 C 16.625 28.664062 16.628906 28.675781 16.628906 28.691406 C 16.832031 24.519531 19.796875 22.058594 23.578125 22.078125 C 24.058594 22.082031 24.558594 22.125 25.0625 22.210938 C 25.335938 21.765625 25.382812 21.464844 25.09375 21.414062 C 24.578125 21.324219 24.070312 21.28125 23.578125 21.28125 Z M 39.609375 21.433594 C 39.121094 21.433594 38.613281 21.476562 38.097656 21.566406 C 37.808594 21.617188 37.855469 21.917969 38.125 22.363281 C 38.632812 22.277344 39.128906 22.234375 39.609375 22.230469 C 43.390625 22.210938 46.359375 24.671875 46.558594 28.84375 C 46.5625 28.828125 46.566406 28.816406 46.566406 28.800781 C 46.707031 24.175781 43.617188 21.410156 39.609375 21.433594 Z M 37.941406 26.972656 C 36.96875 26.972656 36.046875 27.246094 35.269531 27.765625 C 33.753906 28.78125 32.921875 30.628906 33.050781 32.703125 C 33.152344 30.949219 33.960938 29.441406 35.269531 28.566406 C 36.046875 28.046875 36.96875 27.773438 37.941406 27.769531 C 39.546875 27.773438 41.183594 28.511719 42.449219 29.808594 C 43.714844 31.105469 44.496094 32.839844 44.605469 34.59375 C 44.714844 32.738281 44.027344 30.796875 42.734375 29.316406 C 41.4375 27.835938 39.675781 26.972656 37.941406 26.972656 Z M 25.796875 27.277344 C 24.0625 27.277344 22.300781 28.140625 21.007812 29.621094 C 19.710938 31.101562 19.023438 33.042969 19.136719 34.894531 C 19.242188 33.144531 20.023438 31.410156 21.289062 30.113281 C 22.558594 28.816406 24.191406 28.078125 25.796875 28.078125 C 26.773438 28.078125 27.691406 28.351562 28.46875 28.871094 C 29.777344 29.746094 30.585938 31.25 30.6875 33 C 30.816406 30.929688 29.984375 29.085938 28.46875 28.074219 C 27.691406 27.550781 26.773438 27.277344 25.796875 27.277344 Z M 47.125 30.640625 C 46.261719 30.65625 45.949219 32.1875 46 34.078125 C 46.050781 32.570312 46.386719 31.453125 47.125 31.4375 C 47.203125 31.4375 47.285156 31.449219 47.371094 31.472656 C 49.570312 32.75 50.511719 34.792969 50.621094 36.78125 C 50.742188 34.558594 49.867188 32.125 47.371094 30.671875 C 47.285156 30.652344 47.203125 30.640625 47.125 30.640625 Z M 16.082031 30.792969 C 16.007812 30.792969 15.925781 30.800781 15.84375 30.828125 C 13.339844 32.28125 12.460938 34.714844 12.589844 36.941406 C 12.695312 34.953125 13.636719 32.90625 15.84375 31.625 C 15.925781 31.601562 16.007812 31.589844 16.082031 31.59375 C 16.820312 31.605469 17.15625 32.71875 17.207031 34.21875 C 17.257812 32.332031 16.945312 30.808594 16.082031 30.796875 Z M 32 38.691406 C 28.628906 38.691406 25.898438 41.257812 25.902344 44.417969 C 25.90625 44.550781 25.914062 44.679688 25.929688 44.8125 C 26.15625 41.820312 28.804688 39.5 32 39.492188 C 35.167969 39.492188 37.804688 41.769531 38.074219 44.730469 C 38.085938 44.625 38.09375 44.523438 38.097656 44.417969 C 38.097656 41.257812 35.367188 38.695312 32 38.691406 Z M 45.566406 40.828125 C 44.121094 40.808594 42.378906 42.203125 40.726562 44.101562 C 39.339844 45.753906 38.40625 48.40625 38.550781 50.21875 C 38.675781 48.488281 39.53125 46.324219 40.726562 44.902344 C 42.378906 43.003906 44.121094 41.605469 45.566406 41.625 C 46.007812 41.628906 46.425781 41.769531 46.800781 42.066406 C 47.335938 42.609375 47.761719 43.886719 47.828125 45.34375 C 47.910156 43.574219 47.433594 41.90625 46.800781 41.265625 C 46.425781 40.972656 46.007812 40.832031 45.566406 40.828125 Z M 18.003906 41.703125 C 17.53125 41.699219 17.085938 41.804688 16.691406 42.050781 C 16.074219 42.527344 15.734375 43.636719 15.816406 45.015625 C 15.882812 44.015625 16.199219 43.230469 16.691406 42.847656 C 17.085938 42.605469 17.53125 42.5 18.003906 42.5 C 19.558594 42.519531 21.445312 43.769531 22.976562 45.578125 C 23.996094 46.832031 24.691406 48.632812 24.800781 50.136719 C 24.9375 48.519531 24.183594 46.261719 22.976562 44.78125 C 21.445312 42.972656 19.558594 41.722656 18.003906 41.703125 Z M 32.496094 51.9375 C 32.335938 51.9375 32.179688 51.941406 32.027344 51.949219 C 29.589844 51.886719 25.855469 52.941406 25.902344 54.292969 C 25.898438 54.398438 25.9375 54.53125 26.011719 54.675781 C 26.628906 53.53125 29.84375 52.691406 32.027344 52.746094 C 32.179688 52.742188 32.335938 52.738281 32.496094 52.738281 C 34.621094 52.75 37.152344 53.449219 37.671875 54.40625 C 37.738281 54.242188 37.773438 54.09375 37.769531 53.960938 C 37.761719 52.828125 34.875 51.953125 32.496094 51.9375 Z M 32.496094 51.9375 "/>
<path style=" stroke:none;fill-rule:nonzero;fill:rgb(0%,0%,0%);fill-opacity:0.4;" d="M 24.925781 22.417969 C 23.339844 24.710938 17.03125 30.015625 16.640625 28.738281 C 16.621094 29.042969 16.613281 29.355469 16.625 29.675781 C 16.777344 31.667969 26.824219 22.738281 25.09375 22.441406 C 25.035156 22.433594 24.984375 22.425781 24.925781 22.417969 Z M 38.261719 22.570312 C 38.207031 22.578125 38.152344 22.585938 38.097656 22.59375 C 36.367188 22.890625 46.410156 31.820312 46.566406 29.828125 C 46.574219 29.507812 46.570312 29.195312 46.546875 28.890625 C 46.160156 30.167969 39.851562 24.863281 38.261719 22.570312 Z M 26.4375 24.175781 C 26.378906 24.335938 26.34375 24.488281 26.34375 24.625 C 26.332031 26.175781 28.5625 27.761719 31.875 27.800781 C 35.253906 27.828125 37.410156 26.53125 37.421875 24.933594 C 37.421875 24.761719 37.394531 24.585938 37.34375 24.410156 C 36.929688 25.769531 34.886719 26.796875 31.875 26.769531 C 28.976562 26.734375 26.90625 25.519531 26.4375 24.175781 Z M 33.058594 32.808594 C 32.871094 35.226562 34.050781 37.757812 36.074219 39.261719 C 38.09375 40.765625 40.570312 40.957031 42.386719 39.75 C 43.925781 38.722656 44.753906 36.832031 44.59375 34.722656 C 44.460938 36.421875 43.660156 37.871094 42.386719 38.722656 C 40.707031 39.839844 38.449219 39.765625 36.503906 38.53125 C 34.558594 37.300781 33.234375 35.101562 33.058594 32.808594 Z M 30.683594 33.105469 C 30.507812 35.398438 29.1875 37.597656 27.238281 38.835938 C 25.292969 40.070312 23.035156 40.144531 21.355469 39.03125 C 20.082031 38.175781 19.28125 36.726562 19.144531 35.03125 C 18.984375 37.136719 19.816406 39.027344 21.355469 40.058594 C 23.171875 41.265625 25.648438 41.070312 27.671875 39.566406 C 29.691406 38.058594 30.875 35.523438 30.683594 33.105469 Z M 46.003906 34.242188 C 45.875 37.566406 47.175781 42.855469 48.667969 42.183594 C 49.941406 41.140625 50.761719 39.046875 50.613281 36.910156 C 50.488281 38.667969 49.734375 40.28125 48.667969 41.15625 C 47.324219 41.765625 46.128906 37.519531 46.003906 34.242188 Z M 17.203125 34.375 C 17.082031 37.65625 15.890625 41.917969 14.542969 41.3125 C 13.476562 40.4375 12.722656 38.824219 12.59375 37.070312 C 12.449219 39.203125 13.269531 41.296875 14.542969 42.339844 C 16.035156 43.011719 17.339844 37.699219 17.203125 34.375 Z M 38.0625 44.863281 C 37.75 47.773438 35.148438 49.992188 32.03125 50.007812 C 28.914062 50.023438 26.285156 47.832031 25.9375 44.925781 C 25.917969 45.097656 25.902344 45.273438 25.902344 45.449219 C 25.902344 48.609375 28.628906 51.171875 32 51.171875 C 35.367188 51.171875 38.097656 48.609375 38.097656 45.449219 C 38.097656 45.253906 38.085938 45.058594 38.0625 44.863281 Z M 15.824219 45.152344 C 15.714844 46.457031 16.039062 48.152344 16.964844 49.832031 C 19.339844 53.308594 22.683594 53.65625 24.0625 52.8125 C 24.6875 52.332031 24.898438 51.359375 24.792969 50.238281 C 24.71875 50.910156 24.484375 51.460938 24.0625 51.78125 C 22.683594 52.628906 19.339844 52.28125 16.964844 48.808594 C 16.265625 47.539062 15.910156 46.261719 15.824219 45.152344 Z M 47.820312 45.46875 C 47.742188 46.703125 47.390625 47.972656 46.625 48.972656 C 44.015625 52.660156 40.480469 52.800781 39.164062 51.777344 C 38.820312 51.445312 38.628906 50.941406 38.5625 50.335938 C 38.46875 51.390625 38.640625 52.300781 39.164062 52.804688 C 40.480469 53.832031 44.015625 53.6875 46.625 50 C 47.609375 48.71875 47.90625 46.988281 47.820312 45.46875 Z M 37.609375 54.535156 C 36.957031 55.832031 34.375 57.78125 31.863281 57.738281 C 29.28125 57.851562 26.742188 55.9375 26.074219 54.796875 C 25.957031 54.964844 25.894531 55.140625 25.902344 55.316406 C 25.863281 56.238281 28.835938 58.898438 31.863281 58.765625 C 34.789062 58.816406 37.8125 56.164062 37.769531 54.988281 C 37.769531 54.832031 37.710938 54.679688 37.609375 54.535156 Z M 37.609375 54.535156 "/>
<path style=" stroke:none;fill-rule:nonzero;fill:rgb(0%,0%,0%);fill-opacity:0.4;" d="M 22.3125 6.824219 C 22.417969 6.957031 22.539062 7.089844 22.625 7.226562 C 22.683594 7.148438 22.714844 7.074219 22.722656 7 C 22.597656 6.941406 22.460938 6.878906 22.3125 6.824219 Z M 20.171875 6.921875 C 20.285156 7.050781 20.445312 7.179688 20.578125 7.3125 C 20.617188 7.328125 20.660156 7.339844 20.703125 7.359375 C 20.808594 7.261719 20.832031 7.160156 20.808594 7.0625 C 20.617188 7.011719 20.40625 6.964844 20.171875 6.921875 Z M 24.4375 7.113281 C 24.476562 7.175781 24.5 7.234375 24.523438 7.289062 C 24.542969 7.257812 24.554688 7.226562 24.566406 7.191406 C 24.523438 7.164062 24.484375 7.136719 24.4375 7.113281 Z M 18.425781 7.347656 C 18.570312 7.46875 18.699219 7.589844 18.796875 7.703125 C 18.808594 7.707031 18.820312 7.710938 18.832031 7.714844 C 18.941406 7.628906 18.972656 7.535156 18.960938 7.4375 C 18.785156 7.402344 18.609375 7.371094 18.425781 7.347656 Z M 26.296875 7.527344 C 26.292969 7.5625 26.296875 7.601562 26.296875 7.640625 C 26.308594 7.609375 26.316406 7.578125 26.320312 7.546875 C 26.3125 7.542969 26.304688 7.535156 26.296875 7.527344 Z M 16.574219 7.921875 C 16.417969 7.941406 16.265625 7.96875 16.109375 8.007812 L 16.242188 8.148438 C 16.554688 8.136719 16.757812 8.121094 16.734375 8.085938 Z M 14.648438 8.734375 C 14.519531 8.738281 14.382812 8.738281 14.265625 8.742188 C 14.554688 9.15625 14.851562 9.5625 15.074219 10.164062 C 15.144531 10.15625 15.203125 10.140625 15.230469 10.113281 C 15.085938 9.523438 14.878906 9.105469 14.648438 8.734375 Z M 18.453125 9.945312 C 19.753906 10.628906 20.917969 11.28125 21.953125 11.902344 C 24.523438 13.0625 26.878906 14.46875 28.953125 16.210938 C 30.386719 15.519531 30.828125 14.402344 30.738281 13.207031 C 30.660156 14.183594 30.15625 15.0625 28.953125 15.640625 C 25.96875 13.136719 22.402344 11.3125 18.453125 9.945312 Z M 14.15625 10.683594 C 14.480469 11.382812 14.957031 11.734375 15.300781 12.023438 C 15.4375 12.007812 15.566406 11.964844 15.675781 11.878906 C 15.523438 11.53125 14.992188 11.292969 14.53125 10.71875 C 14.410156 10.710938 14.285156 10.695312 14.15625 10.683594 Z M 14.523438 12.457031 C 14.78125 13.011719 15.253906 13.433594 15.71875 13.863281 C 15.953125 13.851562 16.085938 13.800781 16.175781 13.734375 C 15.796875 13.34375 15.355469 12.988281 15 12.582031 C 14.847656 12.5625 14.6875 12.515625 14.523438 12.457031 Z M 15.171875 14.40625 C 15.558594 14.824219 16 15.21875 16.5 15.585938 C 16.777344 15.574219 17.019531 15.539062 17.109375 15.433594 C 16.617188 15.121094 16.171875 14.785156 15.777344 14.425781 C 15.625 14.441406 15.433594 14.4375 15.171875 14.40625 Z M 16.738281 16.140625 C 16.546875 16.160156 16.308594 16.160156 16.082031 16.167969 C 16.59375 16.683594 17.214844 17.019531 17.839844 17.34375 C 18.035156 17.335938 18.242188 17.292969 18.492188 17.113281 C 17.90625 16.792969 17.292969 16.515625 16.738281 16.140625 Z M 27.96875 17.03125 C 27.023438 19.636719 23.8125 20.066406 22.015625 20.066406 C 21.898438 20.3125 21.648438 20.480469 21.351562 20.621094 C 22.933594 20.714844 27.265625 20.5625 28.097656 17.171875 C 28.054688 17.125 28.011719 17.078125 27.96875 17.03125 Z M 18.277344 17.8125 C 17.96875 17.957031 17.722656 17.90625 17.464844 17.90625 C 17.9375 18.304688 18.679688 18.554688 19.433594 18.792969 C 19.691406 18.722656 19.835938 18.628906 19.984375 18.394531 C 19.402344 18.207031 18.796875 18.035156 18.277344 17.8125 Z M 19.894531 19.089844 C 19.742188 19.273438 19.566406 19.34375 19.25 19.40625 C 20.027344 19.851562 21.0625 19.785156 21.660156 19.875 C 21.839844 19.757812 21.976562 19.613281 22.042969 19.429688 C 21.726562 19.199219 20.769531 19.316406 19.894531 19.089844 Z M 19.894531 19.089844 "/>
<path style=" stroke:none;fill-rule:nonzero;fill:rgb(0%,0%,0%);fill-opacity:0.4;" d="M 41.550781 6.824219 C 41.402344 6.878906 41.265625 6.9375 41.140625 7 C 41.148438 7.070312 41.175781 7.148438 41.238281 7.226562 C 41.324219 7.089844 41.445312 6.957031 41.550781 6.824219 Z M 43.691406 6.921875 C 43.457031 6.964844 43.25 7.011719 43.058594 7.0625 C 43.03125 7.160156 43.058594 7.261719 43.164062 7.359375 C 43.207031 7.339844 43.246094 7.328125 43.289062 7.3125 C 43.421875 7.179688 43.578125 7.050781 43.691406 6.921875 Z M 39.421875 7.113281 C 39.378906 7.136719 39.339844 7.164062 39.296875 7.191406 C 39.308594 7.226562 39.324219 7.257812 39.339844 7.289062 C 39.363281 7.234375 39.390625 7.175781 39.421875 7.113281 Z M 45.4375 7.347656 C 45.257812 7.371094 45.078125 7.402344 44.902344 7.4375 C 44.890625 7.535156 44.925781 7.628906 45.03125 7.714844 C 45.042969 7.710938 45.054688 7.707031 45.0625 7.703125 C 45.164062 7.589844 45.296875 7.46875 45.4375 7.347656 Z M 37.566406 7.527344 C 37.558594 7.535156 37.554688 7.539062 37.546875 7.546875 C 37.550781 7.578125 37.554688 7.609375 37.5625 7.640625 C 37.566406 7.601562 37.570312 7.5625 37.566406 7.527344 Z M 47.292969 7.921875 L 47.132812 8.085938 C 47.105469 8.121094 47.308594 8.136719 47.625 8.148438 L 47.753906 8.007812 C 47.601562 7.96875 47.445312 7.941406 47.292969 7.921875 Z M 49.214844 8.734375 C 48.984375 9.105469 48.777344 9.523438 48.636719 10.113281 C 48.664062 10.140625 48.71875 10.15625 48.792969 10.164062 C 49.011719 9.5625 49.308594 9.15625 49.597656 8.742188 C 49.480469 8.738281 49.34375 8.738281 49.214844 8.734375 Z M 45.417969 9.945312 C 41.464844 11.3125 37.898438 13.136719 34.914062 15.640625 C 33.710938 15.0625 33.203125 14.183594 33.125 13.207031 C 33.035156 14.402344 33.480469 15.519531 34.914062 16.210938 C 36.988281 14.46875 39.339844 13.0625 41.90625 11.902344 C 42.945312 11.28125 44.113281 10.628906 45.417969 9.945312 Z M 49.707031 10.683594 C 49.582031 10.695312 49.453125 10.710938 49.332031 10.71875 C 48.875 11.292969 48.339844 11.53125 48.1875 11.878906 C 48.300781 11.964844 48.425781 12.007812 48.5625 12.023438 C 48.90625 11.734375 49.386719 11.382812 49.707031 10.683594 Z M 49.339844 12.457031 C 49.175781 12.515625 49.015625 12.5625 48.867188 12.582031 C 48.507812 12.988281 48.066406 13.34375 47.6875 13.734375 C 47.777344 13.800781 47.910156 13.851562 48.144531 13.863281 C 48.609375 13.433594 49.082031 13.011719 49.339844 12.457031 Z M 48.6875 14.40625 C 48.429688 14.4375 48.238281 14.441406 48.089844 14.425781 C 47.691406 14.785156 47.25 15.121094 46.753906 15.433594 C 46.84375 15.539062 47.085938 15.574219 47.363281 15.585938 C 47.867188 15.21875 48.304688 14.824219 48.6875 14.40625 Z M 47.125 16.140625 C 46.574219 16.515625 45.957031 16.792969 45.371094 17.113281 C 45.621094 17.292969 45.828125 17.335938 46.023438 17.34375 C 46.648438 17.019531 47.269531 16.683594 47.78125 16.167969 C 47.554688 16.160156 47.320312 16.160156 47.125 16.140625 Z M 35.894531 17.03125 C 35.851562 17.078125 35.808594 17.125 35.765625 17.171875 C 36.597656 20.5625 40.929688 20.714844 42.515625 20.621094 C 42.214844 20.480469 41.964844 20.3125 41.847656 20.066406 C 40.050781 20.0625 36.839844 19.636719 35.894531 17.03125 Z M 45.589844 17.8125 C 45.070312 18.035156 44.460938 18.207031 43.878906 18.394531 C 44.027344 18.628906 44.171875 18.722656 44.429688 18.792969 C 45.183594 18.554688 45.925781 18.304688 46.402344 17.90625 C 46.140625 17.90625 45.894531 17.953125 45.589844 17.8125 Z M 43.96875 19.089844 C 43.097656 19.316406 42.140625 19.199219 41.824219 19.429688 C 41.886719 19.613281 42.023438 19.757812 42.203125 19.875 C 42.804688 19.785156 43.839844 19.851562 44.613281 19.40625 C 44.296875 19.34375 44.121094 19.273438 43.96875 19.089844 Z M 43.96875 19.089844 "/>
<path style=" stroke:none;fill-rule:nonzero;fill:rgb(100%,100%,100%);fill-opacity:0.4;" d="M 22.3125 6.253906 C 22.496094 6.488281 22.734375 6.71875 22.730469 6.96875 C 23.441406 7.304688 23.871094 7.703125 24.316406 8.101562 C 24.476562 7.882812 24.707031 7.71875 24.53125 7.273438 C 24.472656 7.378906 24.390625 7.46875 24.316406 7.5625 C 23.789062 7.097656 23.285156 6.621094 22.3125 6.253906 Z M 20.171875 6.351562 C 20.367188 6.578125 20.707031 6.804688 20.792969 7.03125 C 21.65625 7.261719 22.109375 7.550781 22.558594 7.835938 C 22.785156 7.613281 22.753906 7.410156 22.636719 7.210938 C 22.613281 7.242188 22.589844 7.273438 22.558594 7.304688 C 22.011719 6.953125 21.464844 6.601562 20.171875 6.351562 Z M 24.4375 6.542969 C 24.597656 6.828125 24.617188 7.015625 24.578125 7.164062 C 25.199219 7.550781 25.675781 8 26.035156 8.5 C 26.410156 8.257812 26.328125 7.941406 26.300781 7.632812 C 26.265625 7.75 26.191406 7.863281 26.035156 7.960938 C 25.652344 7.425781 25.132812 6.949219 24.4375 6.542969 Z M 18.425781 6.777344 C 18.679688 6.992188 18.90625 7.207031 18.953125 7.398438 C 19.582031 7.515625 20.164062 7.679688 20.703125 7.890625 C 20.90625 7.703125 20.808594 7.519531 20.628906 7.328125 C 19.964844 7.074219 19.234375 6.886719 18.425781 6.777344 Z M 26.296875 6.957031 C 26.292969 7.140625 26.34375 7.335938 26.324219 7.515625 C 27.027344 8.105469 27.476562 8.730469 28.03125 9.34375 C 28.140625 9.257812 28.238281 8.976562 28.328125 8.527344 C 29.34375 9.53125 30.613281 11.445312 30.738281 13.1875 C 30.878906 11.316406 29.449219 9.101562 28.328125 7.992188 C 28.238281 8.4375 28.140625 8.722656 28.03125 8.804688 C 27.472656 8.1875 27.015625 7.550781 26.296875 6.957031 Z M 16.84375 7.335938 C 16.601562 7.339844 16.355469 7.371094 16.109375 7.4375 L 16.546875 7.890625 C 17.382812 7.796875 18.207031 8.054688 18.832031 8.25 C 19.03125 8.09375 18.988281 7.910156 18.832031 7.710938 C 18.832031 7.714844 18.832031 7.714844 18.832031 7.714844 C 18.285156 7.539062 17.578125 7.320312 16.84375 7.335938 Z M 16.273438 8.148438 C 15.757812 8.164062 14.90625 8.160156 14.265625 8.171875 C 14.386719 8.34375 14.507812 8.519531 14.625 8.703125 C 15.601562 8.695312 16.792969 8.699219 16.734375 8.625 Z M 14.15625 10.113281 C 14.261719 10.335938 14.378906 10.523438 14.503906 10.6875 C 14.851562 10.71875 15.152344 10.730469 15.230469 10.652344 C 15.1875 10.472656 15.136719 10.3125 15.082031 10.164062 C 14.878906 10.191406 14.511719 10.148438 14.15625 10.113281 Z M 18.441406 10.476562 C 23.398438 13.078125 26.332031 15.195312 27.976562 17.003906 C 28.023438 16.878906 28.0625 16.742188 28.097656 16.605469 C 26.863281 15.203125 24.855469 13.617188 21.726562 11.765625 C 20.664062 11.296875 19.570312 10.867188 18.441406 10.476562 Z M 14.523438 11.890625 C 14.636719 12.128906 14.789062 12.34375 14.960938 12.546875 C 15.234375 12.589844 15.480469 12.566406 15.675781 12.414062 C 15.613281 12.273438 15.492188 12.152344 15.332031 12.015625 C 15.09375 12.050781 14.816406 11.992188 14.523438 11.890625 Z M 15.171875 13.832031 C 15.351562 14.027344 15.542969 14.214844 15.742188 14.394531 C 15.960938 14.382812 16.089844 14.335938 16.175781 14.273438 C 16.039062 14.132812 15.894531 13.996094 15.75 13.859375 C 15.605469 13.867188 15.417969 13.863281 15.171875 13.832031 Z M 16.546875 15.582031 C 16.398438 15.59375 16.238281 15.59375 16.082031 15.597656 C 16.273438 15.789062 16.480469 15.957031 16.695312 16.109375 C 16.886719 16.089844 17.042969 16.050781 17.109375 15.96875 C 16.914062 15.84375 16.726562 15.714844 16.546875 15.582031 Z M 17.464844 17.332031 C 17.675781 17.515625 17.941406 17.664062 18.234375 17.792969 C 18.316406 17.757812 18.402344 17.714844 18.492188 17.652344 C 18.296875 17.542969 18.097656 17.441406 17.894531 17.339844 C 17.746094 17.347656 17.605469 17.335938 17.464844 17.332031 Z M 19.496094 18.777344 C 19.421875 18.800781 19.34375 18.820312 19.25 18.839844 C 19.445312 18.949219 19.65625 19.027344 19.871094 19.082031 C 19.910156 19.039062 19.945312 18.992188 19.984375 18.933594 C 19.820312 18.878906 19.65625 18.828125 19.496094 18.777344 Z M 21.703125 19.851562 C 21.597656 19.925781 21.480469 19.992188 21.351562 20.050781 C 21.535156 20.0625 21.753906 20.070312 22 20.066406 C 22.015625 20.035156 22.027344 20.003906 22.042969 19.96875 C 21.964844 19.910156 21.847656 19.875 21.703125 19.851562 Z M 21.703125 19.851562 "/>
<path style=" stroke:none;fill-rule:nonzero;fill:rgb(100%,100%,100%);fill-opacity:0.4;" d="M 41.550781 6.253906 C 40.578125 6.621094 40.074219 7.097656 39.546875 7.5625 C 39.484375 7.480469 39.414062 7.402344 39.359375 7.316406 C 39.136719 7.808594 39.382812 7.980469 39.546875 8.207031 C 39.996094 7.808594 40.429688 7.402344 41.152344 7.0625 C 41.066406 6.777344 41.34375 6.519531 41.550781 6.253906 Z M 43.691406 6.351562 C 42.398438 6.601562 41.851562 6.953125 41.308594 7.304688 C 41.292969 7.289062 41.277344 7.273438 41.265625 7.257812 C 41.117188 7.476562 41.054688 7.699219 41.308594 7.945312 C 41.75 7.660156 42.199219 7.375 43.046875 7.140625 C 43.039062 6.878906 43.460938 6.617188 43.691406 6.351562 Z M 39.421875 6.542969 C 38.730469 6.949219 38.210938 7.425781 37.828125 7.960938 C 37.679688 7.867188 37.601562 7.761719 37.566406 7.648438 C 37.554688 7.984375 37.417969 8.34375 37.828125 8.609375 C 38.191406 8.097656 38.679688 7.640625 39.320312 7.25 C 39.242188 7.089844 39.230469 6.886719 39.421875 6.542969 Z M 45.4375 6.777344 C 44.707031 6.878906 44.035156 7.039062 43.417969 7.261719 C 43.148438 7.507812 42.894531 7.753906 43.164062 8 C 43.699219 7.789062 44.273438 7.625 44.902344 7.507812 C 44.871094 7.285156 45.136719 7.035156 45.4375 6.777344 Z M 37.566406 6.957031 C 36.847656 7.550781 36.390625 8.1875 35.832031 8.804688 C 35.722656 8.722656 35.625 8.4375 35.535156 7.992188 C 34.402344 9.113281 32.957031 11.363281 33.128906 13.246094 C 33.277344 11.515625 34.527344 9.628906 35.535156 8.632812 C 35.625 9.082031 35.722656 9.363281 35.832031 9.445312 C 36.390625 8.832031 36.84375 8.203125 37.558594 7.609375 C 37.503906 7.402344 37.570312 7.175781 37.566406 6.957031 Z M 47.015625 7.335938 C 46.339844 7.320312 45.6875 7.507812 45.160156 7.671875 C 45.160156 7.675781 45.160156 7.675781 45.15625 7.675781 C 44.910156 7.925781 44.789062 8.164062 45.03125 8.359375 C 45.632812 8.167969 46.417969 7.921875 47.226562 7.992188 L 47.753906 7.4375 C 47.507812 7.371094 47.261719 7.339844 47.015625 7.335938 Z M 47.6875 8.148438 L 47.132812 8.730469 C 47.074219 8.804688 48.207031 8.800781 49.171875 8.808594 C 49.308594 8.582031 49.453125 8.378906 49.597656 8.171875 C 48.996094 8.160156 48.210938 8.164062 47.6875 8.148438 Z M 49.707031 10.113281 C 49.375 10.144531 49.027344 10.183594 48.816406 10.167969 C 48.75 10.34375 48.6875 10.539062 48.636719 10.757812 C 48.707031 10.828125 48.960938 10.824219 49.265625 10.796875 C 49.425781 10.613281 49.578125 10.390625 49.707031 10.113281 Z M 45.417969 10.585938 C 44.03125 11.066406 42.691406 11.601562 41.410156 12.203125 C 38.691406 13.871094 36.902344 15.316406 35.765625 16.605469 C 35.808594 16.769531 35.859375 16.929688 35.917969 17.082031 C 37.566406 15.28125 40.492188 13.171875 45.417969 10.585938 Z M 49.339844 11.890625 C 49.089844 11.976562 48.855469 12.035156 48.640625 12.03125 C 48.433594 12.203125 48.265625 12.347656 48.1875 12.519531 C 48.359375 12.652344 48.5625 12.6875 48.792969 12.667969 C 49.011719 12.429688 49.203125 12.179688 49.339844 11.890625 Z M 48.6875 13.832031 C 48.503906 13.855469 48.351562 13.863281 48.222656 13.863281 C 48.042969 14.03125 47.859375 14.203125 47.6875 14.378906 C 47.761719 14.433594 47.859375 14.472656 48.015625 14.496094 C 48.257812 14.28125 48.480469 14.0625 48.6875 13.832031 Z M 47.457031 15.589844 C 47.234375 15.757812 47 15.921875 46.753906 16.078125 C 46.804688 16.136719 46.90625 16.175781 47.035156 16.199219 C 47.300781 16.023438 47.554688 15.828125 47.78125 15.597656 C 47.675781 15.59375 47.5625 15.59375 47.457031 15.589844 Z M 46.402344 17.332031 C 46.320312 17.335938 46.242188 17.339844 46.160156 17.34375 C 45.898438 17.480469 45.632812 17.613281 45.371094 17.757812 C 45.417969 17.792969 45.464844 17.820312 45.511719 17.84375 C 45.851562 17.699219 46.160156 17.539062 46.402344 17.332031 Z M 44.558594 18.824219 C 44.332031 18.894531 44.105469 18.964844 43.878906 19.039062 C 43.894531 19.0625 43.910156 19.082031 43.921875 19.105469 C 44.164062 19.042969 44.398438 18.960938 44.613281 18.839844 C 44.59375 18.832031 44.574219 18.828125 44.558594 18.824219 Z M 42.296875 19.9375 C 42.09375 19.960938 41.929688 20 41.828125 20.066406 C 42.089844 20.070312 42.320312 20.0625 42.515625 20.050781 C 42.4375 20.015625 42.363281 19.976562 42.296875 19.9375 Z M 42.296875 19.9375 "/>
<path style=" stroke:none;fill-rule:nonzero;fill:rgb(0%,0%,0%);fill-opacity:0.4;" d="M 12.066406 7.65625 C 12.011719 7.894531 11.996094 8.140625 12.023438 8.390625 C 12.066406 8.265625 12.113281 8.140625 12.179688 8.023438 C 12.128906 7.902344 12.097656 7.777344 12.066406 7.65625 Z M 51.796875 7.65625 C 51.765625 7.777344 51.734375 7.902344 51.683594 8.023438 C 51.75 8.140625 51.796875 8.265625 51.839844 8.390625 C 51.863281 8.140625 51.851562 7.890625 51.796875 7.65625 Z M 51.902344 9.609375 C 51.867188 9.757812 51.820312 9.910156 51.753906 10.050781 C 51.691406 10.1875 51.625 10.316406 51.550781 10.441406 C 51.648438 10.914062 51.589844 11.40625 51.382812 11.84375 C 51.246094 12.136719 51.089844 12.390625 50.9375 12.621094 C 50.996094 13.25 50.785156 13.878906 50.359375 14.347656 C 50.253906 14.460938 50.144531 14.566406 50.035156 14.675781 C 50.015625 15.242188 49.785156 15.777344 49.386719 16.179688 C 49.121094 16.445312 48.855469 16.671875 48.59375 16.871094 C 48.476562 17.328125 48.222656 17.742188 47.859375 18.050781 C 47.4375 18.410156 47.023438 18.660156 46.625 18.847656 C 46.429688 19.242188 46.117188 19.570312 45.734375 19.792969 C 45.597656 19.867188 45.46875 19.933594 45.339844 19.992188 C 45.582031 20.175781 45.820312 20.371094 46.042969 20.578125 C 46.285156 20.382812 46.484375 20.136719 46.625 19.855469 C 47.023438 19.664062 47.4375 19.414062 47.859375 19.058594 C 48.222656 18.75 48.476562 18.335938 48.59375 17.875 C 48.855469 17.679688 49.121094 17.453125 49.386719 17.1875 C 49.785156 16.785156 50.015625 16.246094 50.035156 15.683594 C 50.144531 15.574219 50.253906 15.464844 50.359375 15.355469 C 50.785156 14.882812 50.996094 14.257812 50.9375 13.625 C 51.089844 13.394531 51.246094 13.144531 51.382812 12.847656 C 51.589844 12.414062 51.648438 11.921875 51.550781 11.449219 C 51.625 11.324219 51.691406 11.195312 51.753906 11.058594 C 51.964844 10.597656 52.011719 10.089844 51.902344 9.609375 Z M 11.964844 9.613281 C 11.851562 10.09375 11.898438 10.597656 12.109375 11.058594 C 12.171875 11.195312 12.242188 11.324219 12.3125 11.449219 C 12.21875 11.921875 12.277344 12.414062 12.484375 12.847656 C 12.621094 13.144531 12.773438 13.394531 12.925781 13.625 C 12.867188 14.257812 13.078125 14.882812 13.503906 15.355469 C 13.609375 15.464844 13.71875 15.574219 13.828125 15.683594 C 13.847656 16.246094 14.078125 16.785156 14.476562 17.1875 C 14.742188 17.453125 15.011719 17.679688 15.273438 17.875 C 15.386719 18.335938 15.640625 18.75 16.003906 19.058594 C 16.425781 19.417969 16.839844 19.664062 17.238281 19.855469 C 17.292969 19.964844 17.359375 20.070312 17.433594 20.171875 C 17.621094 20.011719 17.816406 19.863281 18.015625 19.71875 C 17.683594 19.5 17.417969 19.203125 17.238281 18.847656 C 16.839844 18.660156 16.425781 18.410156 16.003906 18.050781 C 15.640625 17.742188 15.386719 17.328125 15.273438 16.871094 C 15.011719 16.671875 14.742188 16.445312 14.476562 16.179688 C 14.078125 15.777344 13.847656 15.242188 13.828125 14.675781 C 13.71875 14.566406 13.609375 14.460938 13.503906 14.347656 C 13.078125 13.878906 12.867188 13.25 12.925781 12.621094 C 12.773438 12.390625 12.621094 12.136719 12.484375 11.84375 C 12.277344 11.40625 12.21875 10.914062 12.3125 10.441406 C 12.242188 10.316406 12.171875 10.1875 12.109375 10.050781 C 12.042969 9.910156 11.996094 9.761719 11.964844 9.613281 Z M 31.933594 15.078125 C 31.46875 15.660156 30.867188 16.160156 30.171875 16.535156 C 30.105469 16.746094 30.027344 16.945312 29.941406 17.140625 C 30.296875 17.0625 30.660156 17.007812 31.03125 16.972656 C 31.371094 16.707031 31.671875 16.410156 31.933594 16.082031 C 32.199219 16.417969 32.511719 16.726562 32.863281 17 C 33.234375 17.042969 33.597656 17.109375 33.953125 17.203125 C 33.851562 16.988281 33.765625 16.765625 33.691406 16.535156 C 33 16.160156 32.394531 15.660156 31.933594 15.078125 Z M 14.378906 27.84375 C 14.375 27.921875 14.371094 28.003906 14.371094 28.085938 C 14.382812 28.078125 14.394531 28.066406 14.410156 28.058594 C 14.394531 27.984375 14.386719 27.910156 14.378906 27.84375 Z M 52.875 35.921875 C 52.761719 38.28125 51.851562 40.460938 50.09375 41.894531 C 50.050781 41.933594 50.007812 41.964844 49.960938 42 C 50.003906 42.304688 50.027344 42.617188 50.050781 42.9375 C 50.066406 42.925781 50.082031 42.914062 50.09375 42.902344 C 52.058594 41.292969 52.972656 38.761719 52.886719 36.082031 C 52.886719 36.027344 52.878906 35.976562 52.875 35.921875 Z M 10.332031 36.074219 C 10.332031 36.128906 10.324219 36.179688 10.324219 36.234375 C 10.238281 38.914062 11.148438 41.445312 13.113281 43.054688 C 13.246094 43.164062 13.394531 43.257812 13.550781 43.335938 C 13.558594 43.007812 13.578125 42.683594 13.625 42.363281 C 13.621094 42.363281 13.617188 42.359375 13.613281 42.359375 C 13.433594 42.277344 13.265625 42.171875 13.113281 42.046875 C 11.355469 40.609375 10.449219 38.433594 10.332031 36.074219 Z M 13.5625 44.078125 C 13.550781 44.277344 13.546875 44.476562 13.546875 44.675781 C 13.558594 46.3125 14.007812 48.117188 14.984375 49.894531 C 15.019531 49.957031 15.058594 50.019531 15.097656 50.078125 C 16.546875 52.195312 18.398438 53.492188 20.203125 54.066406 C 21.398438 54.445312 22.5625 54.566406 23.648438 54.339844 C 23.648438 54.339844 23.652344 54.339844 23.652344 54.339844 C 23.632812 55.703125 24.207031 56.148438 24.671875 56.703125 C 25.160156 57.273438 25.75 57.792969 26.457031 58.277344 C 27.859375 59.230469 29.714844 60.066406 31.886719 59.996094 C 34.019531 60.011719 35.84375 59.15625 37.25 58.140625 C 37.957031 57.632812 38.5625 57.074219 39.050781 56.445312 C 39.453125 55.933594 39.871094 55.402344 39.988281 54.527344 C 40.9375 54.6875 41.953125 54.601562 42.992188 54.324219 C 44.886719 53.8125 46.855469 52.523438 48.421875 50.335938 C 49.808594 48.523438 50.15625 46.378906 50.082031 44.515625 C 50.082031 44.5 50.082031 44.480469 50.078125 44.464844 C 50.007812 46.078125 49.578125 47.820312 48.421875 49.328125 C 46.855469 51.519531 44.886719 52.808594 42.992188 53.316406 C 41.953125 53.59375 40.9375 53.679688 39.988281 53.519531 C 39.871094 54.394531 39.453125 54.925781 39.050781 55.4375 C 38.5625 56.066406 37.957031 56.625 37.25 57.136719 C 35.84375 58.148438 34.019531 59.007812 31.886719 58.988281 C 29.714844 59.0625 27.859375 58.226562 26.457031 57.269531 C 25.75 56.785156 25.160156 56.265625 24.671875 55.695312 C 24.207031 55.144531 23.632812 54.699219 23.652344 53.332031 C 23.652344 53.332031 23.648438 53.332031 23.648438 53.332031 C 22.5625 53.5625 21.398438 53.441406 20.203125 53.0625 C 18.398438 52.484375 16.546875 51.191406 15.097656 49.074219 C 15.058594 49.015625 15.019531 48.953125 14.984375 48.890625 C 14.089844 47.257812 13.636719 45.605469 13.5625 44.078125 Z M 40.023438 52.875 C 40.023438 52.890625 40.023438 52.902344 40.023438 52.917969 C 40.023438 52.925781 40.027344 52.933594 40.027344 52.941406 Z M 40.023438 53.878906 L 40.027344 53.949219 C 40.027344 53.9375 40.023438 53.929688 40.023438 53.921875 C 40.023438 53.910156 40.023438 53.894531 40.023438 53.878906 Z M 40.023438 53.878906 "/>
<path style=" stroke:none;fill-rule:nonzero;fill:rgb(100%,100%,100%);fill-opacity:0.4;" d="M 41.542969 3.996094 C 41.273438 3.996094 41.007812 4.046875 40.753906 4.140625 C 40.539062 4.222656 40.34375 4.3125 40.152344 4.40625 C 39.53125 4.195312 38.847656 4.265625 38.28125 4.59375 C 38.199219 4.644531 38.117188 4.699219 38.035156 4.75 C 37.363281 4.605469 36.660156 4.78125 36.128906 5.21875 C 35.921875 5.394531 35.730469 5.566406 35.558594 5.734375 C 34.957031 5.730469 34.378906 5.964844 33.953125 6.382812 C 33.234375 7.089844 32.507812 7.992188 31.933594 9.070312 C 31.355469 7.992188 30.628906 7.089844 29.910156 6.382812 C 29.484375 5.964844 28.90625 5.730469 28.308594 5.734375 C 28.132812 5.566406 27.945312 5.394531 27.734375 5.21875 C 27.203125 4.78125 26.5 4.605469 25.828125 4.75 C 25.746094 4.699219 25.664062 4.644531 25.578125 4.59375 C 25.015625 4.265625 24.335938 4.195312 23.714844 4.40625 C 23.523438 4.3125 23.324219 4.222656 23.109375 4.140625 C 22.492188 3.910156 21.800781 3.957031 21.222656 4.277344 C 21.023438 4.226562 20.816406 4.175781 20.597656 4.132812 C 19.96875 4.011719 19.316406 4.164062 18.808594 4.554688 C 18.78125 4.550781 18.753906 4.546875 18.730469 4.542969 C 18.085938 4.457031 17.4375 4.648438 16.949219 5.074219 C 16.5 5.074219 16.023438 5.125 15.515625 5.265625 C 15.105469 5.375 14.734375 5.601562 14.449219 5.914062 C 14.371094 5.914062 14.300781 5.914062 14.230469 5.914062 C 12.773438 5.9375 11.757812 7.300781 12.066406 8.660156 C 12.292969 7.703125 13.136719 6.9375 14.230469 6.917969 C 14.300781 6.917969 14.371094 6.917969 14.449219 6.914062 C 14.734375 6.605469 15.105469 6.378906 15.515625 6.265625 C 16.023438 6.128906 16.5 6.078125 16.949219 6.078125 C 17.4375 5.652344 18.085938 5.457031 18.730469 5.546875 C 18.753906 5.546875 18.78125 5.554688 18.808594 5.554688 C 19.316406 5.167969 19.96875 5.015625 20.597656 5.136719 C 20.816406 5.179688 21.023438 5.230469 21.222656 5.28125 C 21.800781 4.960938 22.492188 4.910156 23.109375 5.144531 C 23.324219 5.226562 23.523438 5.316406 23.714844 5.410156 C 24.335938 5.199219 25.015625 5.269531 25.578125 5.601562 C 25.664062 5.648438 25.746094 5.699219 25.828125 5.75 C 26.5 5.609375 27.203125 5.78125 27.734375 6.21875 C 27.945312 6.394531 28.132812 6.570312 28.308594 6.738281 C 28.90625 6.734375 29.484375 6.964844 29.910156 7.386719 C 30.628906 8.09375 31.355469 8.996094 31.933594 10.078125 C 32.507812 8.996094 33.234375 8.09375 33.953125 7.386719 C 34.378906 6.964844 34.957031 6.734375 35.558594 6.738281 C 35.730469 6.570312 35.921875 6.394531 36.128906 6.21875 C 36.660156 5.78125 37.363281 5.609375 38.035156 5.75 C 38.117188 5.699219 38.199219 5.648438 38.28125 5.601562 C 38.847656 5.269531 39.53125 5.199219 40.152344 5.410156 C 40.34375 5.316406 40.539062 5.226562 40.753906 5.144531 C 41.007812 5.050781 41.273438 5 41.542969 5 C 41.925781 5 42.304688 5.09375 42.640625 5.28125 C 42.839844 5.230469 43.046875 5.179688 43.265625 5.136719 C 43.894531 5.015625 44.546875 5.167969 45.058594 5.554688 C 45.082031 5.554688 45.109375 5.546875 45.136719 5.546875 C 45.777344 5.457031 46.425781 5.652344 46.917969 6.078125 C 47.363281 6.078125 47.84375 6.125 48.351562 6.265625 C 48.761719 6.378906 49.128906 6.605469 49.417969 6.914062 C 49.492188 6.917969 49.5625 6.917969 49.636719 6.917969 C 50.726562 6.9375 51.570312 7.703125 51.796875 8.660156 C 52.105469 7.300781 51.089844 5.9375 49.636719 5.914062 C 49.5625 5.914062 49.492188 5.914062 49.417969 5.914062 C 49.128906 5.601562 48.761719 5.375 48.351562 5.265625 C 47.84375 5.125 47.363281 5.074219 46.917969 5.070312 C 46.425781 4.648438 45.777344 4.457031 45.136719 4.542969 C 45.109375 4.546875 45.082031 4.550781 45.058594 4.554688 C 44.546875 4.164062 43.894531 4.011719 43.265625 4.132812 C 43.046875 4.175781 42.839844 4.226562 42.640625 4.277344 C 42.304688 4.089844 41.925781 3.996094 41.542969 3.996094 Z M 51.839844 9.394531 C 51.820312 9.605469 51.769531 9.820312 51.683594 10.03125 C 51.785156 10.214844 51.855469 10.414062 51.902344 10.613281 C 51.996094 10.210938 51.972656 9.789062 51.839844 9.394531 Z M 12.023438 9.398438 C 11.890625 9.792969 11.867188 10.214844 11.960938 10.617188 C 12.007812 10.414062 12.078125 10.21875 12.179688 10.03125 C 12.09375 9.824219 12.046875 9.609375 12.023438 9.398438 Z M 31.726562 17.945312 C 31.488281 17.945312 31.257812 17.957031 31.03125 17.980469 C 30.761719 18.1875 30.476562 18.378906 30.171875 18.546875 C 30.105469 18.753906 30.027344 18.957031 29.941406 19.152344 C 30.507812 19.023438 31.105469 18.945312 31.726562 18.949219 C 31.761719 18.949219 31.792969 18.949219 31.828125 18.949219 C 32.558594 18.941406 33.269531 19.039062 33.953125 19.210938 C 33.851562 18.996094 33.765625 18.777344 33.691406 18.546875 C 33.398438 18.386719 33.125 18.207031 32.871094 18.003906 C 32.554688 17.96875 32.238281 17.945312 31.914062 17.949219 L 31.828125 17.949219 C 31.792969 17.945312 31.761719 17.945312 31.726562 17.945312 Z M 17.4375 21.175781 C 17.265625 21.324219 17.101562 21.472656 16.945312 21.632812 C 15.226562 23.363281 14.285156 25.886719 14.371094 28.71875 C 14.371094 28.75 14.371094 28.789062 14.375 28.824219 C 14.375 28.832031 14.378906 28.839844 14.378906 28.847656 C 14.492188 26.375 15.40625 24.1875 16.945312 22.636719 C 17.277344 22.300781 17.636719 22 18.015625 21.730469 C 17.789062 21.582031 17.59375 21.394531 17.4375 21.175781 Z M 46.042969 21.585938 C 45.945312 21.664062 45.839844 21.734375 45.734375 21.796875 C 45.597656 21.875 45.46875 21.941406 45.339844 22 C 45.660156 22.242188 45.960938 22.5 46.246094 22.785156 C 47.964844 24.519531 48.90625 27.042969 48.824219 29.875 C 48.820312 29.890625 48.820312 29.910156 48.820312 29.925781 C 51.484375 31.625 52.75 34.386719 52.875 36.925781 C 52.890625 36.644531 52.894531 36.367188 52.886719 36.082031 C 52.804688 33.5 51.539062 30.65625 48.820312 28.921875 C 48.820312 28.90625 48.820312 28.886719 48.824219 28.871094 C 48.90625 26.039062 47.964844 23.515625 46.246094 21.785156 C 46.179688 21.71875 46.109375 21.652344 46.042969 21.585938 Z M 14.371094 29.09375 C 11.664062 30.828125 10.40625 33.660156 10.324219 36.234375 C 10.316406 36.515625 10.320312 36.800781 10.332031 37.078125 C 10.460938 34.535156 11.734375 31.761719 14.410156 30.066406 C 14.390625 29.984375 14.378906 29.902344 14.375 29.828125 C 14.371094 29.789062 14.371094 29.753906 14.371094 29.71875 C 14.363281 29.507812 14.363281 29.300781 14.371094 29.09375 Z M 50.050781 43.941406 C 50.019531 43.964844 49.992188 43.988281 49.960938 44.011719 C 50.027344 44.476562 50.058594 44.960938 50.078125 45.46875 C 50.09375 45.144531 50.097656 44.828125 50.082031 44.515625 C 50.078125 44.320312 50.0625 44.132812 50.050781 43.941406 Z M 13.550781 44.339844 C 13.546875 44.453125 13.546875 44.566406 13.546875 44.675781 C 13.546875 44.8125 13.554688 44.949219 13.5625 45.085938 C 13.574219 44.847656 13.589844 44.609375 13.625 44.375 C 13.621094 44.371094 13.617188 44.371094 13.613281 44.371094 C 13.59375 44.359375 13.570312 44.351562 13.550781 44.339844 Z M 13.550781 44.339844 "/>
<path style=" stroke:none;fill-rule:nonzero;fill:url(#linear0);" d="M 41.542969 3.996094 C 41.273438 3.996094 41.007812 4.046875 40.753906 4.140625 C 40.539062 4.222656 40.339844 4.3125 40.148438 4.40625 C 39.53125 4.195312 38.847656 4.265625 38.28125 4.597656 C 38.199219 4.644531 38.117188 4.699219 38.035156 4.75 C 37.363281 4.605469 36.660156 4.78125 36.128906 5.21875 C 35.917969 5.390625 35.730469 5.566406 35.558594 5.734375 C 34.957031 5.730469 34.378906 5.960938 33.953125 6.382812 C 33.238281 7.089844 32.507812 7.992188 31.933594 9.074219 C 31.355469 7.992188 30.628906 7.089844 29.914062 6.382812 C 29.484375 5.960938 28.90625 5.730469 28.308594 5.734375 C 28.132812 5.566406 27.945312 5.390625 27.734375 5.21875 C 27.203125 4.777344 26.5 4.605469 25.828125 4.75 C 25.746094 4.699219 25.664062 4.644531 25.582031 4.597656 C 25.015625 4.265625 24.335938 4.195312 23.714844 4.40625 C 23.523438 4.3125 23.324219 4.222656 23.109375 4.140625 C 22.488281 3.910156 21.800781 3.957031 21.222656 4.277344 C 21.023438 4.226562 20.816406 4.175781 20.601562 4.132812 C 19.96875 4.011719 19.316406 4.164062 18.808594 4.554688 C 18.78125 4.550781 18.753906 4.546875 18.730469 4.542969 C 18.085938 4.457031 17.4375 4.648438 16.949219 5.074219 C 16.5 5.074219 16.023438 5.125 15.511719 5.261719 C 15.105469 5.375 14.734375 5.601562 14.449219 5.914062 C 14.375 5.914062 14.300781 5.914062 14.226562 5.914062 C 12.640625 5.941406 11.574219 7.558594 12.179688 9.027344 C 11.835938 9.65625 11.808594 10.40625 12.109375 11.054688 C 12.171875 11.195312 12.242188 11.324219 12.3125 11.449219 C 12.21875 11.921875 12.277344 12.414062 12.480469 12.851562 C 12.621094 13.144531 12.773438 13.394531 12.929688 13.625 C 12.867188 14.257812 13.078125 14.882812 13.503906 15.355469 C 13.609375 15.464844 13.71875 15.574219 13.828125 15.683594 C 13.847656 16.246094 14.078125 16.785156 14.476562 17.1875 C 14.742188 17.453125 15.007812 17.679688 15.273438 17.875 C 15.386719 18.335938 15.640625 18.75 16.003906 19.054688 C 16.425781 19.414062 16.839844 19.664062 17.238281 19.855469 C 17.414062 20.207031 17.683594 20.507812 18.011719 20.726562 C 17.632812 20.996094 17.277344 21.296875 16.945312 21.632812 C 15.226562 23.363281 14.28125 25.886719 14.367188 28.71875 C 14.371094 28.75 14.371094 28.789062 14.375 28.824219 C 14.378906 28.898438 14.394531 28.980469 14.410156 29.0625 C 11.679688 30.796875 10.40625 33.648438 10.324219 36.234375 C 10.238281 38.914062 11.148438 41.449219 13.113281 43.054688 C 13.265625 43.179688 13.433594 43.285156 13.613281 43.367188 C 13.617188 43.367188 13.621094 43.367188 13.625 43.371094 C 13.566406 43.800781 13.542969 44.238281 13.546875 44.679688 C 13.558594 46.3125 14.007812 48.117188 14.984375 49.894531 C 15.019531 49.957031 15.058594 50.019531 15.101562 50.082031 C 16.546875 52.195312 18.398438 53.492188 20.203125 54.066406 C 21.398438 54.445312 22.5625 54.566406 23.648438 54.339844 L 23.648438 54.199219 C 23.648438 54.207031 23.648438 54.210938 23.648438 54.21875 C 23.648438 54.257812 23.648438 54.296875 23.648438 54.339844 C 23.632812 55.703125 24.203125 56.148438 24.671875 56.699219 C 25.160156 57.269531 25.75 57.789062 26.460938 58.273438 C 27.859375 59.230469 29.714844 60.070312 31.886719 59.996094 C 34.015625 60.015625 35.84375 59.152344 37.246094 58.140625 C 37.957031 57.628906 38.5625 57.074219 39.050781 56.445312 C 39.453125 55.933594 39.871094 55.402344 39.988281 54.527344 C 40.9375 54.6875 41.953125 54.601562 42.992188 54.324219 C 44.890625 53.816406 46.855469 52.523438 48.421875 50.335938 C 49.808594 48.523438 50.15625 46.378906 50.085938 44.519531 C 50.0625 43.992188 50.027344 43.488281 49.960938 43.003906 C 50.007812 42.972656 50.050781 42.9375 50.097656 42.902344 C 52.058594 41.292969 52.96875 38.761719 52.886719 36.082031 C 52.804688 33.5 51.539062 30.65625 48.820312 28.921875 C 48.820312 28.90625 48.820312 28.886719 48.820312 28.871094 C 48.90625 26.039062 47.960938 23.515625 46.246094 21.785156 C 45.960938 21.5 45.65625 21.238281 45.339844 21 C 45.46875 20.9375 45.601562 20.871094 45.734375 20.796875 C 46.117188 20.578125 46.425781 20.25 46.625 19.855469 C 47.023438 19.664062 47.4375 19.414062 47.859375 19.054688 C 48.222656 18.75 48.476562 18.335938 48.589844 17.875 C 48.855469 17.679688 49.121094 17.453125 49.386719 17.183594 C 49.785156 16.785156 50.015625 16.246094 50.035156 15.679688 C 50.144531 15.574219 50.253906 15.464844 50.359375 15.355469 C 50.785156 14.882812 50.996094 14.257812 50.9375 13.625 C 51.089844 13.394531 51.242188 13.144531 51.382812 12.851562 C 51.585938 12.414062 51.648438 11.921875 51.550781 11.445312 C 51.625 11.324219 51.691406 11.195312 51.753906 11.054688 C 52.054688 10.40625 52.027344 9.65625 51.683594 9.027344 C 52.289062 7.558594 51.226562 5.941406 49.636719 5.914062 C 49.5625 5.914062 49.492188 5.914062 49.414062 5.914062 C 49.128906 5.601562 48.761719 5.375 48.351562 5.261719 C 47.84375 5.125 47.363281 5.074219 46.917969 5.074219 C 46.425781 4.648438 45.777344 4.453125 45.136719 4.542969 C 45.109375 4.546875 45.082031 4.550781 45.058594 4.554688 C 44.546875 4.164062 43.894531 4.011719 43.265625 4.132812 C 43.046875 4.175781 42.839844 4.226562 42.640625 4.277344 C 42.304688 4.09375 41.925781 3.996094 41.542969 3.996094 Z M 31.933594 16.085938 C 32.394531 16.667969 33 17.167969 33.691406 17.542969 C 33.765625 17.773438 33.855469 17.996094 33.953125 18.207031 C 33.269531 18.035156 32.5625 17.9375 31.828125 17.945312 L 31.914062 17.949219 C 31.851562 17.945312 31.789062 17.945312 31.726562 17.945312 C 31.101562 17.945312 30.507812 18.019531 29.941406 18.148438 C 30.027344 17.953125 30.105469 17.75 30.171875 17.542969 C 30.863281 17.167969 31.46875 16.667969 31.933594 16.085938 Z M 40.023438 53.878906 L 40.027344 53.949219 C 40.027344 53.9375 40.023438 53.929688 40.023438 53.921875 C 40.023438 53.90625 40.023438 53.898438 40.023438 53.882812 Z M 40.023438 53.878906 "/>
<path style=" stroke:none;fill-rule:nonzero;fill:rgb(0%,0%,0%);fill-opacity:0.2;" d="M 12.136719 8.902344 C 12.082031 9.058594 12.042969 9.222656 12.023438 9.390625 C 12.066406 9.261719 12.113281 9.140625 12.179688 9.023438 C 12.164062 8.980469 12.152344 8.941406 12.136719 8.902344 Z M 51.730469 8.90625 C 51.714844 8.941406 51.699219 8.984375 51.683594 9.023438 C 51.746094 9.136719 51.796875 9.257812 51.839844 9.382812 C 51.820312 9.21875 51.78125 9.058594 51.730469 8.90625 Z M 12.03125 10.847656 C 11.839844 11.394531 11.863281 11.996094 12.109375 12.53125 C 12.171875 12.667969 12.242188 12.796875 12.3125 12.921875 C 12.21875 13.394531 12.277344 13.886719 12.484375 14.324219 C 12.621094 14.617188 12.773438 14.871094 12.925781 15.097656 C 12.867188 15.730469 13.078125 16.359375 13.503906 16.828125 C 13.609375 16.941406 13.71875 17.046875 13.828125 17.15625 C 13.847656 17.722656 14.078125 18.257812 14.476562 18.660156 C 14.742188 18.925781 15.011719 19.152344 15.273438 19.347656 C 15.386719 19.808594 15.640625 20.222656 16.003906 20.53125 C 16.425781 20.890625 16.839844 21.140625 17.238281 21.328125 C 17.238281 21.332031 17.242188 21.335938 17.246094 21.339844 C 17.488281 21.117188 17.746094 20.910156 18.015625 20.71875 C 17.683594 20.5 17.417969 20.199219 17.238281 19.847656 C 16.839844 19.65625 16.425781 19.410156 16.003906 19.046875 C 15.640625 18.742188 15.386719 18.328125 15.273438 17.867188 C 15.011719 17.671875 14.742188 17.445312 14.476562 17.175781 C 14.078125 16.777344 13.847656 16.238281 13.828125 15.671875 C 13.71875 15.566406 13.609375 15.457031 13.503906 15.34375 C 13.078125 14.875 12.867188 14.25 12.925781 13.617188 C 12.773438 13.386719 12.621094 13.136719 12.484375 12.84375 C 12.277344 12.40625 12.21875 11.914062 12.3125 11.4375 C 12.242188 11.316406 12.171875 11.1875 12.109375 11.046875 C 12.078125 10.984375 12.054688 10.917969 12.03125 10.847656 Z M 51.832031 10.847656 C 51.8125 10.917969 51.785156 10.984375 51.753906 11.046875 C 51.691406 11.1875 51.625 11.316406 51.550781 11.4375 C 51.648438 11.914062 51.589844 12.40625 51.382812 12.84375 C 51.246094 13.136719 51.089844 13.386719 50.9375 13.617188 C 50.996094 14.25 50.785156 14.875 50.359375 15.34375 C 50.253906 15.457031 50.144531 15.566406 50.035156 15.671875 C 50.015625 16.238281 49.785156 16.777344 49.386719 17.175781 C 49.121094 17.445312 48.855469 17.671875 48.59375 17.867188 C 48.476562 18.328125 48.222656 18.738281 47.859375 19.046875 C 47.4375 19.40625 47.023438 19.65625 46.625 19.847656 C 46.429688 20.242188 46.117188 20.566406 45.734375 20.785156 C 45.597656 20.863281 45.46875 20.929688 45.339844 20.988281 C 45.660156 21.230469 45.960938 21.488281 46.246094 21.777344 C 46.261719 21.789062 46.273438 21.804688 46.285156 21.820312 C 46.421875 21.671875 46.535156 21.507812 46.625 21.328125 C 47.023438 21.140625 47.4375 20.890625 47.859375 20.53125 C 48.222656 20.222656 48.476562 19.808594 48.59375 19.347656 C 48.855469 19.152344 49.121094 18.925781 49.386719 18.660156 C 49.785156 18.257812 50.015625 17.722656 50.035156 17.15625 C 50.144531 17.046875 50.253906 16.941406 50.359375 16.828125 C 50.785156 16.359375 50.996094 15.730469 50.9375 15.097656 C 51.089844 14.871094 51.246094 14.617188 51.382812 14.324219 C 51.589844 13.886719 51.648438 13.394531 51.550781 12.921875 C 51.625 12.796875 51.691406 12.667969 51.753906 12.53125 C 52 11.996094 52.023438 11.394531 51.832031 10.847656 Z M 31.933594 16.078125 C 31.46875 16.660156 30.867188 17.160156 30.171875 17.53125 C 30.105469 17.742188 30.027344 17.945312 29.941406 18.140625 C 30.46875 18.023438 31.023438 17.949219 31.597656 17.9375 C 31.714844 17.816406 31.828125 17.691406 31.933594 17.558594 C 32.039062 17.691406 32.152344 17.824219 32.273438 17.949219 C 32.847656 17.972656 33.410156 18.0625 33.953125 18.199219 C 33.851562 17.984375 33.765625 17.765625 33.691406 17.53125 C 33 17.160156 32.394531 16.660156 31.933594 16.078125 Z M 14.398438 28.980469 C 14.394531 29.007812 14.394531 29.035156 14.390625 29.066406 C 14.398438 29.0625 14.402344 29.058594 14.410156 29.054688 C 14.40625 29.027344 14.402344 29.003906 14.398438 28.980469 Z M 52.863281 37.160156 C 52.699219 39.429688 51.792969 41.507812 50.09375 42.894531 C 50.050781 42.929688 50.007812 42.964844 49.960938 43 C 50.023438 43.445312 50.054688 43.90625 50.078125 44.390625 C 50.082031 44.386719 50.089844 44.382812 50.09375 44.375 C 52.058594 42.769531 52.972656 40.238281 52.886719 37.558594 C 52.882812 37.425781 52.875 37.292969 52.863281 37.160156 Z M 10.347656 37.316406 C 10.335938 37.449219 10.328125 37.578125 10.324219 37.707031 C 10.238281 40.390625 11.148438 42.921875 13.113281 44.53125 C 13.246094 44.640625 13.394531 44.734375 13.550781 44.808594 C 13.550781 44.761719 13.546875 44.714844 13.546875 44.671875 C 13.542969 44.230469 13.566406 43.789062 13.625 43.359375 C 13.621094 43.359375 13.617188 43.359375 13.613281 43.359375 C 13.433594 43.277344 13.265625 43.171875 13.113281 43.046875 C 11.417969 41.660156 10.511719 39.582031 10.347656 37.316406 Z M 13.578125 45.328125 C 13.554688 45.601562 13.546875 45.875 13.546875 46.152344 C 13.558594 47.789062 14.007812 49.59375 14.984375 51.371094 C 15.019531 51.433594 15.058594 51.496094 15.097656 51.554688 C 16.546875 53.671875 18.398438 54.964844 20.203125 55.542969 C 21.398438 55.921875 22.5625 56.042969 23.648438 55.8125 C 23.648438 55.8125 23.652344 55.8125 23.652344 55.8125 C 23.632812 57.179688 24.207031 57.625 24.671875 58.175781 C 25.160156 58.746094 25.75 59.265625 26.457031 59.75 C 27.859375 60.707031 29.714844 61.542969 31.886719 61.46875 C 34.019531 61.488281 35.84375 60.628906 37.25 59.617188 C 37.957031 59.105469 38.5625 58.546875 39.050781 57.921875 C 39.453125 57.40625 39.871094 56.875 39.988281 56 C 40.9375 56.160156 41.953125 56.074219 42.992188 55.796875 C 44.886719 55.289062 46.855469 54 48.421875 51.8125 C 49.808594 49.996094 50.15625 47.851562 50.082031 45.992188 C 50.082031 45.894531 50.074219 45.804688 50.066406 45.707031 C 49.964844 47.253906 49.519531 48.894531 48.421875 50.328125 C 46.855469 52.515625 44.886719 53.804688 42.992188 54.3125 C 41.953125 54.59375 40.9375 54.679688 39.988281 54.515625 C 39.871094 55.394531 39.453125 55.925781 39.050781 56.4375 C 38.5625 57.066406 37.957031 57.621094 37.25 58.132812 C 35.84375 59.144531 34.019531 60.003906 31.886719 59.984375 C 29.714844 60.058594 27.859375 59.222656 26.457031 58.265625 C 25.75 57.78125 25.160156 57.265625 24.671875 56.691406 C 24.207031 56.140625 23.632812 55.695312 23.652344 54.328125 C 23.652344 54.328125 23.648438 54.328125 23.648438 54.328125 C 22.5625 54.558594 21.398438 54.4375 20.203125 54.058594 C 18.398438 53.480469 16.546875 52.1875 15.097656 50.074219 C 15.058594 50.011719 15.019531 49.949219 14.984375 49.886719 C 14.136719 48.34375 13.6875 46.78125 13.578125 45.328125 Z M 40.023438 53.875 C 40.023438 53.886719 40.023438 53.898438 40.023438 53.914062 C 40.023438 53.921875 40.027344 53.929688 40.027344 53.941406 Z M 40.023438 55.355469 L 40.027344 55.421875 C 40.027344 55.414062 40.023438 55.40625 40.023438 55.398438 C 40.023438 55.382812 40.023438 55.371094 40.023438 55.355469 Z M 40.023438 55.355469 "/>
</g>
</svg>
