
<svg xmlns="http://www.w3.org/2000/svg" xmlns:xlink="http://www.w3.org/1999/xlink" width="48" height="48" viewBox="0 0 48 48" version="1.1">
<defs>
<linearGradient id="linear0" gradientUnits="userSpaceOnUse" x1="34" y1="59.999996" x2="34" y2="3.999999" gradientTransform="matrix(0.75,0,0,0.75,-0.000000368504,0.000000000000085265)">
<stop offset="0" style="stop-color:rgb(0%,0%,0%);stop-opacity:0.2;"/>
<stop offset="1" style="stop-color:rgb(100%,100%,100%);stop-opacity:0;"/>
</linearGradient>
</defs>
<g id="surface1">
<path style=" stroke:none;fill-rule:nonzero;fill:rgb(87.843138%,87.843138%,87.843138%);fill-opacity:0.996078;" d="M 10.5 3 L 37.5 3 C 39.15625 3 40.5 4.34375 40.5 6 L 40.5 42 C 40.5 43.65625 39.15625 45 37.5 45 L 10.5 45 C 8.84375 45 7.5 43.65625 7.5 42 L 7.5 6 C 7.5 4.34375 8.84375 3 10.5 3 Z M 10.5 3 "/>
<path style=" stroke:none;fill-rule:nonzero;fill:rgb(56.470591%,79.215688%,97.647059%);fill-opacity:0.996078;" d="M 12 6 L 36 6 C 36.828125 6 37.5 6.671875 37.5 7.5 L 37.5 40.5 C 37.5 41.328125 36.828125 42 36 42 L 12 42 C 11.171875 42 10.5 41.328125 10.5 40.5 L 10.5 7.5 C 10.5 6.671875 11.171875 6 12 6 Z M 12 6 "/>
<path style=" stroke:none;fill-rule:nonzero;fill:rgb(38.039216%,38.039216%,38.039216%);fill-opacity:1;" d="M 15 10.5 L 33 10.5 C 33.828125 10.5 34.5 11.171875 34.5 12 L 34.5 21 C 34.5 21.828125 33.828125 22.5 33 22.5 L 15 22.5 C 14.171875 22.5 13.5 21.828125 13.5 21 L 13.5 12 C 13.5 11.171875 14.171875 10.5 15 10.5 Z M 15 10.5 "/>
<path style=" stroke:none;fill-rule:nonzero;fill:rgb(25.882354%,64.705884%,96.078432%);fill-opacity:1;" d="M 36.738281 24 C 27.0625 24 18.066406 25.398438 10.5 27.808594 L 10.5 40.5 C 10.5 41.332031 11.167969 42 12 42 L 36 42 C 36.832031 42 37.5 41.332031 37.5 40.5 L 37.5 24.003906 C 37.246094 24.003906 36.992188 24 36.738281 24 Z M 36.738281 24 "/>
<path style=" stroke:none;fill-rule:nonzero;fill:rgb(93.333334%,93.333334%,93.333334%);fill-opacity:1;" d="M 15 10.5 L 33 10.5 C 33.828125 10.5 34.5 11.171875 34.5 12 L 34.5 36 C 34.5 36.828125 33.828125 37.5 33 37.5 L 15 37.5 C 14.171875 37.5 13.5 36.828125 13.5 36 L 13.5 12 C 13.5 11.171875 14.171875 10.5 15 10.5 Z M 15 10.5 "/>
<path style=" stroke:none;fill-rule:nonzero;fill:rgb(100%,100%,100%);fill-opacity:0.4;" d="M 10.5 3 C 8.839844 3 7.5 4.339844 7.5 6 L 7.5 6.75 C 7.5 5.089844 8.839844 3.75 10.5 3.75 L 37.5 3.75 C 39.160156 3.75 40.5 5.089844 40.5 6.75 L 40.5 6 C 40.5 4.339844 39.160156 3 37.5 3 Z M 10.5 3 "/>
<path style=" stroke:none;fill-rule:nonzero;fill:rgb(0%,0%,0%);fill-opacity:0.4;" d="M 12 6 C 11.167969 6 10.5 6.667969 10.5 7.5 L 10.5 8.238281 C 10.5 7.40625 11.167969 6.738281 12 6.738281 L 36 6.738281 C 36.832031 6.738281 37.5 7.40625 37.5 8.238281 L 37.5 7.5 C 37.5 6.667969 36.832031 6 36 6 Z M 12 6 "/>
<path style=" stroke:none;fill-rule:nonzero;fill:rgb(99.215686%,99.215686%,99.215686%);fill-opacity:0.4;" d="M 12 42.738281 C 11.167969 42.738281 10.5 42.066406 10.5 41.238281 L 10.5 40.5 C 10.5 41.332031 11.167969 42 12 42 L 36 42 C 36.832031 42 37.5 41.332031 37.5 40.5 L 37.5 41.238281 C 37.5 42.066406 36.832031 42.738281 36 42.738281 Z M 12 42.738281 "/>
<path style=" stroke:none;fill-rule:nonzero;fill:rgb(95.686275%,26.274511%,21.176471%);fill-opacity:1;" d="M 20.25 13.5 L 30.75 13.5 C 31.164062 13.5 31.5 13.835938 31.5 14.25 C 31.5 14.664062 31.164062 15 30.75 15 L 20.25 15 C 19.835938 15 19.5 14.664062 19.5 14.25 C 19.5 13.835938 19.835938 13.5 20.25 13.5 Z M 20.25 13.5 "/>
<path style=" stroke:none;fill-rule:nonzero;fill:rgb(95.686275%,26.274511%,21.176471%);fill-opacity:1;" d="M 17.25 16.5 L 30.75 16.5 C 31.164062 16.5 31.5 16.835938 31.5 17.25 C 31.5 17.664062 31.164062 18 30.75 18 L 17.25 18 C 16.835938 18 16.5 17.664062 16.5 17.25 C 16.5 16.835938 16.835938 16.5 17.25 16.5 Z M 17.25 16.5 "/>
<path style=" stroke:none;fill-rule:nonzero;fill:rgb(38.039216%,38.039216%,38.039216%);fill-opacity:1;" d="M 17.25 24 L 30.75 24 C 31.164062 24 31.5 24.335938 31.5 24.75 C 31.5 25.164062 31.164062 25.5 30.75 25.5 L 17.25 25.5 C 16.835938 25.5 16.5 25.164062 16.5 24.75 C 16.5 24.335938 16.835938 24 17.25 24 Z M 17.25 24 "/>
<path style=" stroke:none;fill-rule:nonzero;fill:rgb(38.039216%,38.039216%,38.039216%);fill-opacity:1;" d="M 17.25 27 L 30.75 27 C 31.164062 27 31.5 27.335938 31.5 27.75 C 31.5 28.164062 31.164062 28.5 30.75 28.5 L 17.25 28.5 C 16.835938 28.5 16.5 28.164062 16.5 27.75 C 16.5 27.335938 16.835938 27 17.25 27 Z M 17.25 27 "/>
<path style=" stroke:none;fill-rule:nonzero;fill:rgb(38.039216%,38.039216%,38.039216%);fill-opacity:1;" d="M 17.25 30 L 30.75 30 C 31.164062 30 31.5 30.335938 31.5 30.75 C 31.5 31.164062 31.164062 31.5 30.75 31.5 L 17.25 31.5 C 16.835938 31.5 16.5 31.164062 16.5 30.75 C 16.5 30.335938 16.835938 30 17.25 30 Z M 17.25 30 "/>
<path style=" stroke:none;fill-rule:nonzero;fill:rgb(87.843138%,87.843138%,87.843138%);fill-opacity:1;" d="M 18 40.5 C 17.167969 40.5 16.5 41.167969 16.5 42 L 16.5 45 L 31.5 45 L 31.5 42 C 31.5 41.167969 30.832031 40.5 30 40.5 Z M 18 40.5 "/>
<path style=" stroke:none;fill-rule:nonzero;fill:rgb(95.686275%,26.274511%,21.176471%);fill-opacity:1;" d="M 18.75 42 C 19.164062 42 19.5 42.335938 19.5 42.75 C 19.5 43.164062 19.164062 43.5 18.75 43.5 C 18.335938 43.5 18 43.164062 18 42.75 C 18 42.335938 18.335938 42 18.75 42 Z M 18.75 42 "/>
<path style=" stroke:none;fill-rule:nonzero;fill:rgb(95.686275%,26.274511%,21.176471%);fill-opacity:1;" d="M 21.75 42 C 22.164062 42 22.5 42.335938 22.5 42.75 C 22.5 43.164062 22.164062 43.5 21.75 43.5 C 21.335938 43.5 21 43.164062 21 42.75 C 21 42.335938 21.335938 42 21.75 42 Z M 21.75 42 "/>
<path style=" stroke:none;fill-rule:nonzero;fill:rgb(100%,100%,100%);fill-opacity:0.4;" d="M 18 40.5 C 17.167969 40.5 16.5 41.167969 16.5 42 L 16.5 42.75 C 16.5 41.917969 17.167969 41.25 18 41.25 L 30 41.25 C 30.832031 41.25 31.5 41.917969 31.5 42.75 L 31.5 42 C 31.5 41.167969 30.832031 40.5 30 40.5 Z M 18 40.5 "/>
<path style=" stroke:none;fill-rule:nonzero;fill:rgb(0%,0%,0%);fill-opacity:0.4;" d="M 10.5 44.996094 C 8.839844 44.996094 7.5 43.65625 7.5 41.996094 L 7.5 41.246094 C 7.5 42.90625 8.839844 44.246094 10.5 44.246094 L 37.5 44.246094 C 39.160156 44.246094 40.5 42.90625 40.5 41.246094 L 40.5 41.996094 C 40.5 43.65625 39.160156 44.996094 37.5 44.996094 Z M 10.5 44.996094 "/>
<path style=" stroke:none;fill-rule:nonzero;fill:rgb(0.784314%,0.784314%,0.784314%);fill-opacity:0.4;" d="M 18.730469 42 C 18.324219 42.011719 18 42.339844 18 42.75 C 18 42.816406 18.007812 42.878906 18.023438 42.9375 C 18.105469 42.613281 18.398438 42.375 18.75 42.375 C 19.101562 42.375 19.394531 42.613281 19.476562 42.9375 C 19.492188 42.878906 19.5 42.816406 19.5 42.75 C 19.5 42.335938 19.164062 42 18.75 42 C 18.742188 42 18.738281 42 18.730469 42 Z M 18.730469 42 "/>
<path style=" stroke:none;fill-rule:nonzero;fill:rgb(0.784314%,0.784314%,0.784314%);fill-opacity:0.4;" d="M 21.730469 42 C 21.324219 42.011719 21 42.339844 21 42.75 C 21 42.816406 21.007812 42.878906 21.023438 42.9375 C 21.105469 42.613281 21.398438 42.375 21.75 42.375 C 22.101562 42.375 22.394531 42.613281 22.476562 42.9375 C 22.492188 42.878906 22.5 42.816406 22.5 42.75 C 22.5 42.335938 22.164062 42 21.75 42 C 21.742188 42 21.738281 42 21.730469 42 Z M 21.730469 42 "/>
<path style=" stroke:none;fill-rule:nonzero;fill:rgb(100%,100%,100%);fill-opacity:0.4;" d="M 18.023438 42.9375 C 18.007812 42.996094 18 43.058594 18 43.125 C 18 43.539062 18.335938 43.875 18.75 43.875 C 19.164062 43.875 19.5 43.539062 19.5 43.125 C 19.5 43.058594 19.492188 42.996094 19.476562 42.9375 C 19.394531 43.261719 19.101562 43.5 18.75 43.5 C 18.398438 43.5 18.105469 43.261719 18.023438 42.9375 Z M 18.023438 42.9375 "/>
<path style=" stroke:none;fill-rule:nonzero;fill:rgb(100%,100%,100%);fill-opacity:0.4;" d="M 21.023438 42.9375 C 21.007812 42.996094 21 43.058594 21 43.125 C 21 43.539062 21.335938 43.875 21.75 43.875 C 22.164062 43.875 22.5 43.539062 22.5 43.125 C 22.5 43.058594 22.492188 42.996094 22.476562 42.9375 C 22.394531 43.261719 22.101562 43.5 21.75 43.5 C 21.398438 43.5 21.105469 43.261719 21.023438 42.9375 Z M 21.023438 42.9375 "/>
<path style=" stroke:none;fill-rule:nonzero;fill:url(#linear0);" d="M 10.5 3 C 8.839844 3 7.5 4.339844 7.5 6 L 7.5 42 C 7.5 43.660156 8.839844 45 10.5 45 L 37.5 45 C 39.160156 45 40.5 43.660156 40.5 42 L 40.5 6 C 40.5 4.339844 39.160156 3 37.5 3 Z M 10.5 3 "/>
<path style=" stroke:none;fill-rule:nonzero;fill:rgb(93.725491%,32.549021%,31.37255%);fill-opacity:0.996078;" d="M 12 19.5 L 36 19.5 L 36 22.5 L 12 22.5 Z M 12 19.5 "/>
<path style=" stroke:none;fill-rule:nonzero;fill:rgb(95.686275%,26.274511%,21.176471%);fill-opacity:0.996078;" d="M 12 19.5 L 36 19.5 L 36 20.25 L 12 20.25 Z M 12 19.5 "/>
<path style=" stroke:none;fill-rule:nonzero;fill:rgb(93.725491%,60.392159%,60.392159%);fill-opacity:0.996078;" d="M 12 20.25 L 36 20.25 L 36 21 L 12 21 Z M 12 20.25 "/>
<path style=" stroke:none;fill-rule:nonzero;fill:rgb(95.686275%,26.274511%,21.176471%);fill-opacity:0.996078;" d="M 12 21.75 L 36 21.75 L 36 22.5 L 12 22.5 Z M 12 21.75 "/>
<path style=" stroke:none;fill-rule:nonzero;fill:rgb(100%,100%,100%);fill-opacity:0.6;" d="M 15 10.5 C 14.167969 10.5 13.5 11.167969 13.5 12 L 13.5 12.375 C 13.5 11.542969 14.167969 10.875 15 10.875 L 33 10.875 C 33.832031 10.875 34.5 11.542969 34.5 12.375 L 34.5 12 C 34.5 11.167969 33.832031 10.5 33 10.5 Z M 15 10.5 "/>
<path style=" stroke:none;fill-rule:nonzero;fill:rgb(0%,0%,0%);fill-opacity:0.4;" d="M 15 37.875 C 14.167969 37.875 13.5 37.207031 13.5 36.375 L 13.5 36 C 13.5 36.832031 14.167969 37.5 15 37.5 L 33 37.5 C 33.832031 37.5 34.5 36.832031 34.5 36 L 34.5 36.375 C 34.5 37.207031 33.832031 37.875 33 37.875 Z M 15 37.875 "/>
<path style=" stroke:none;fill-rule:nonzero;fill:rgb(0%,0%,0%);fill-opacity:0.4;" d="M 12 22.5 L 36 22.5 L 36 23.25 L 12 23.25 Z M 12 22.5 "/>
<path style=" stroke:none;fill-rule:nonzero;fill:rgb(100%,100%,100%);fill-opacity:0.4;" d="M 20.25 13.5 C 19.835938 13.5 19.5 13.835938 19.5 14.25 C 19.5 14.316406 19.507812 14.378906 19.523438 14.4375 C 19.605469 14.113281 19.898438 13.875 20.25 13.875 L 30.75 13.875 C 31.101562 13.875 31.394531 14.113281 31.476562 14.4375 C 31.492188 14.378906 31.5 14.316406 31.5 14.25 C 31.5 13.835938 31.164062 13.5 30.75 13.5 Z M 20.25 13.5 "/>
<path style=" stroke:none;fill-rule:nonzero;fill:rgb(100%,100%,100%);fill-opacity:0.4;" d="M 17.25 16.5 C 16.835938 16.5 16.5 16.835938 16.5 17.25 C 16.5 17.316406 16.507812 17.378906 16.523438 17.4375 C 16.605469 17.113281 16.898438 16.875 17.25 16.875 L 30.75 16.875 C 31.101562 16.875 31.394531 17.113281 31.476562 17.4375 C 31.492188 17.378906 31.5 17.316406 31.5 17.25 C 31.5 16.835938 31.164062 16.5 30.75 16.5 Z M 17.25 16.5 "/>
<path style=" stroke:none;fill-rule:nonzero;fill:rgb(0%,0%,0%);fill-opacity:0.4;" d="M 20.25 15.382812 C 19.835938 15.382812 19.5 15.046875 19.5 14.632812 C 19.5 14.566406 19.507812 14.503906 19.523438 14.445312 C 19.605469 14.769531 19.898438 15.007812 20.25 15.007812 L 30.75 15.007812 C 31.101562 15.007812 31.394531 14.769531 31.476562 14.445312 C 31.492188 14.503906 31.5 14.566406 31.5 14.632812 C 31.5 15.046875 31.164062 15.382812 30.75 15.382812 Z M 20.25 15.382812 "/>
<path style=" stroke:none;fill-rule:nonzero;fill:rgb(0.392157%,0.392157%,0.392157%);fill-opacity:0.4;" d="M 17.25 18.378906 C 16.835938 18.378906 16.5 18.046875 16.5 17.628906 C 16.5 17.566406 16.507812 17.503906 16.523438 17.441406 C 16.605469 17.765625 16.898438 18.003906 17.25 18.003906 L 30.75 18.003906 C 31.101562 18.003906 31.394531 17.765625 31.476562 17.441406 C 31.492188 17.503906 31.5 17.566406 31.5 17.628906 C 31.5 18.046875 31.164062 18.378906 30.75 18.378906 Z M 17.25 18.378906 "/>
<path style=" stroke:none;fill-rule:nonzero;fill:rgb(100%,100%,100%);fill-opacity:0.4;" d="M 17.25 23.992188 C 16.835938 23.992188 16.5 24.324219 16.5 24.742188 C 16.5 24.804688 16.507812 24.867188 16.523438 24.929688 C 16.605469 24.605469 16.898438 24.367188 17.25 24.367188 L 30.75 24.367188 C 31.101562 24.367188 31.394531 24.605469 31.476562 24.929688 C 31.492188 24.867188 31.5 24.804688 31.5 24.742188 C 31.5 24.324219 31.164062 23.992188 30.75 23.992188 Z M 17.25 23.992188 "/>
<path style=" stroke:none;fill-rule:nonzero;fill:rgb(0.392157%,0.392157%,0.392157%);fill-opacity:0.4;" d="M 17.25 25.871094 C 16.835938 25.871094 16.5 25.535156 16.5 25.121094 C 16.5 25.054688 16.507812 24.992188 16.523438 24.933594 C 16.605469 25.257812 16.898438 25.496094 17.25 25.496094 L 30.75 25.496094 C 31.101562 25.496094 31.394531 25.257812 31.476562 24.933594 C 31.492188 24.996094 31.5 25.058594 31.5 25.121094 C 31.5 25.535156 31.164062 25.871094 30.75 25.871094 Z M 17.25 25.871094 "/>
<path style=" stroke:none;fill-rule:nonzero;fill:rgb(100%,100%,100%);fill-opacity:0.4;" d="M 17.25 27 C 16.835938 27 16.5 27.332031 16.5 27.75 C 16.5 27.8125 16.507812 27.875 16.523438 27.9375 C 16.605469 27.613281 16.898438 27.375 17.25 27.375 L 30.75 27.375 C 31.101562 27.375 31.394531 27.613281 31.476562 27.9375 C 31.492188 27.875 31.5 27.8125 31.5 27.75 C 31.5 27.332031 31.164062 27 30.75 27 Z M 17.25 27 "/>
<path style=" stroke:none;fill-rule:nonzero;fill:rgb(0.392157%,0.392157%,0.392157%);fill-opacity:0.4;" d="M 17.25 28.878906 C 16.835938 28.878906 16.5 28.542969 16.5 28.128906 C 16.5 28.0625 16.507812 28 16.523438 27.941406 C 16.605469 28.265625 16.898438 28.503906 17.25 28.503906 L 30.75 28.503906 C 31.101562 28.503906 31.394531 28.265625 31.476562 27.941406 C 31.492188 28 31.5 28.066406 31.5 28.128906 C 31.5 28.542969 31.164062 28.878906 30.75 28.878906 Z M 17.25 28.878906 "/>
<path style=" stroke:none;fill-rule:nonzero;fill:rgb(100%,100%,100%);fill-opacity:0.4;" d="M 17.25 30 C 16.835938 30 16.5 30.335938 16.5 30.75 C 16.5 30.816406 16.507812 30.878906 16.523438 30.9375 C 16.605469 30.613281 16.898438 30.375 17.25 30.375 L 30.75 30.375 C 31.101562 30.375 31.394531 30.613281 31.476562 30.9375 C 31.492188 30.878906 31.5 30.816406 31.5 30.75 C 31.5 30.335938 31.164062 30 30.75 30 Z M 17.25 30 "/>
<path style=" stroke:none;fill-rule:nonzero;fill:rgb(0.392157%,0.392157%,0.392157%);fill-opacity:0.4;" d="M 17.25 31.878906 C 16.835938 31.878906 16.5 31.546875 16.5 31.128906 C 16.5 31.066406 16.507812 31.003906 16.523438 30.941406 C 16.605469 31.265625 16.898438 31.503906 17.25 31.503906 L 30.75 31.503906 C 31.101562 31.503906 31.394531 31.265625 31.476562 30.941406 C 31.492188 31.003906 31.5 31.066406 31.5 31.128906 C 31.5 31.546875 31.164062 31.878906 30.75 31.878906 Z M 17.25 31.878906 "/>
</g>
</svg>
