
<svg xmlns="http://www.w3.org/2000/svg" xmlns:xlink="http://www.w3.org/1999/xlink" width="64" height="64" viewBox="0 0 64 64" version="1.1">
<defs>
<linearGradient id="linear0" gradientUnits="userSpaceOnUse" x1="31.999998" y1="59.999996" x2="32" y2="4" gradientTransform="matrix(1,0,0,1,-0.00000234331,0)">
<stop offset="0" style="stop-color:rgb(0%,0%,0%);stop-opacity:0.2;"/>
<stop offset="1" style="stop-color:rgb(100%,100%,100%);stop-opacity:0;"/>
</linearGradient>
</defs>
<g id="surface1">
<path style=" stroke:none;fill-rule:nonzero;fill:rgb(38.039216%,38.039216%,38.039216%);fill-opacity:0.996078;" d="M 14 14 L 50 14 C 52.210938 14 54 15.789062 54 18 L 54 44 C 54 46.210938 52.210938 48 50 48 L 14 48 C 11.789062 48 10 46.210938 10 44 L 10 18 C 10 15.789062 11.789062 14 14 14 Z M 14 14 "/>
<path style=" stroke:none;fill-rule:nonzero;fill:rgb(38.039216%,38.039216%,38.039216%);fill-opacity:0.996078;" d="M 10 4 L 54 4 C 56.210938 4 58 5.789062 58 8 L 58 18 C 58 20.210938 56.210938 22 54 22 L 10 22 C 7.789062 22 6 20.210938 6 18 L 6 8 C 6 5.789062 7.789062 4 10 4 Z M 10 4 "/>
<path style=" stroke:none;fill-rule:nonzero;fill:rgb(40.000001%,73.333335%,41.568628%);fill-opacity:0.996078;" d="M 12 11 C 13.105469 11 14 11.894531 14 13 C 14 14.105469 13.105469 15 12 15 C 10.894531 15 10 14.105469 10 13 C 10 11.894531 10.894531 11 12 11 Z M 12 11 "/>
<path style=" stroke:none;fill-rule:nonzero;fill:rgb(0%,0%,0%);fill-opacity:0.4;" d="M 11.949219 11 C 10.863281 11.027344 10 11.910156 10 13 C 10 13.085938 10.003906 13.167969 10.015625 13.25 C 10.136719 12.261719 10.976562 11.5 12 11.5 C 13.023438 11.5 13.863281 12.261719 13.984375 13.25 C 13.996094 13.167969 14 13.085938 14 13 C 14 11.890625 13.109375 11 12 11 C 11.984375 11 11.964844 11 11.945312 11 Z M 11.949219 11 "/>
<path style=" stroke:none;fill-rule:nonzero;fill:rgb(100%,100%,100%);fill-opacity:0.4;" d="M 11.949219 15.5 C 10.863281 15.472656 10 14.589844 10 13.5 C 10 13.414062 10.003906 13.332031 10.015625 13.25 C 10.136719 14.238281 10.976562 15 12 15 C 13.023438 15 13.863281 14.238281 13.984375 13.25 C 13.996094 13.332031 14 13.414062 14 13.5 C 14 14.609375 13.109375 15.5 12 15.5 C 11.984375 15.5 11.964844 15.5 11.945312 15.5 Z M 11.949219 15.5 "/>
<path style=" stroke:none;fill-rule:nonzero;fill:rgb(100%,65.490198%,14.901961%);fill-opacity:0.996078;" d="M 18.050781 11 C 19.15625 11 20.050781 11.894531 20.050781 13 C 20.050781 14.105469 19.15625 15 18.050781 15 C 16.949219 15 16.050781 14.105469 16.050781 13 C 16.050781 11.894531 16.949219 11 18.050781 11 Z M 18.050781 11 "/>
<path style=" stroke:none;fill-rule:nonzero;fill:rgb(0%,0%,0%);fill-opacity:0.4;" d="M 18 11 C 16.917969 11.027344 16.050781 11.910156 16.050781 13 C 16.050781 13.085938 16.058594 13.167969 16.066406 13.25 C 16.191406 12.261719 17.03125 11.5 18.050781 11.5 C 19.074219 11.5 19.914062 12.261719 20.035156 13.25 C 20.046875 13.167969 20.050781 13.085938 20.050781 13 C 20.050781 11.890625 19.160156 11 18.050781 11 C 18.035156 11 18.015625 11 18 11 Z M 18 11 "/>
<path style=" stroke:none;fill-rule:nonzero;fill:rgb(100%,100%,100%);fill-opacity:0.4;" d="M 18 15.5 C 16.917969 15.472656 16.050781 14.589844 16.050781 13.5 C 16.050781 13.414062 16.058594 13.332031 16.066406 13.25 C 16.191406 14.238281 17.03125 15 18.050781 15 C 19.074219 15 19.914062 14.238281 20.035156 13.25 C 20.046875 13.332031 20.050781 13.414062 20.050781 13.5 C 20.050781 14.609375 19.160156 15.5 18.050781 15.5 C 18.035156 15.5 18.015625 15.5 18 15.5 Z M 18 15.5 "/>
<path style=" stroke:none;fill-rule:nonzero;fill:rgb(95.686275%,26.274511%,21.176471%);fill-opacity:0.996078;" d="M 24.050781 11 C 25.15625 11 26.050781 11.894531 26.050781 13 C 26.050781 14.105469 25.15625 15 24.050781 15 C 22.949219 15 22.050781 14.105469 22.050781 13 C 22.050781 11.894531 22.949219 11 24.050781 11 Z M 24.050781 11 "/>
<path style=" stroke:none;fill-rule:nonzero;fill:rgb(0%,0%,0%);fill-opacity:0.4;" d="M 24 11 C 22.917969 11.027344 22.050781 11.910156 22.050781 13 C 22.050781 13.085938 22.058594 13.167969 22.066406 13.25 C 22.191406 12.261719 23.03125 11.5 24.050781 11.5 C 25.074219 11.5 25.914062 12.261719 26.035156 13.25 C 26.046875 13.167969 26.050781 13.085938 26.050781 13 C 26.050781 11.890625 25.160156 11 24.050781 11 C 24.035156 11 24.015625 11 24 11 Z M 24 11 "/>
<path style=" stroke:none;fill-rule:nonzero;fill:rgb(100%,100%,100%);fill-opacity:0.4;" d="M 24 15.5 C 22.917969 15.472656 22.050781 14.589844 22.050781 13.5 C 22.050781 13.414062 22.058594 13.332031 22.066406 13.25 C 22.191406 14.238281 23.03125 15 24.050781 15 C 25.074219 15 25.914062 14.238281 26.035156 13.25 C 26.046875 13.332031 26.050781 13.414062 26.050781 13.5 C 26.050781 14.609375 25.160156 15.5 24.050781 15.5 C 24.035156 15.5 24.015625 15.5 24 15.5 Z M 24 15.5 "/>
<path style=" stroke:none;fill-rule:nonzero;fill:rgb(100%,100%,100%);fill-opacity:0.4;" d="M 10 4 C 7.785156 4 6 5.785156 6 8 L 6 9 C 6 6.785156 7.785156 5 10 5 L 54 5 C 56.214844 5 58 6.785156 58 9 L 58 8 C 58 5.785156 56.214844 4 54 4 Z M 10 4 "/>
<path style=" stroke:none;fill-rule:nonzero;fill:rgb(0%,0%,0%);fill-opacity:0.4;" d="M 10 22.003906 C 7.785156 22.003906 6 20.222656 6 18.003906 L 6 17.003906 C 6 19.222656 7.785156 21.003906 10 21.003906 L 54 21.003906 C 56.214844 21.003906 58 19.222656 58 17.003906 L 58 18.003906 C 58 20.222656 56.214844 22.003906 54 22.003906 Z M 10 22.003906 "/>
<path style=" stroke:none;fill-rule:nonzero;fill:rgb(38.039216%,38.039216%,38.039216%);fill-opacity:0.996078;" d="M 10 42 L 54 42 C 56.210938 42 58 43.789062 58 46 L 58 56 C 58 58.210938 56.210938 60 54 60 L 10 60 C 7.789062 60 6 58.210938 6 56 L 6 46 C 6 43.789062 7.789062 42 10 42 Z M 10 42 "/>
<path style=" stroke:none;fill-rule:nonzero;fill:rgb(38.039216%,38.039216%,38.039216%);fill-opacity:0.996078;" d="M 10 23 L 54 23 C 56.210938 23 58 24.789062 58 27 L 58 37 C 58 39.210938 56.210938 41 54 41 L 10 41 C 7.789062 41 6 39.210938 6 37 L 6 27 C 6 24.789062 7.789062 23 10 23 Z M 10 23 "/>
<path style=" stroke:none;fill-rule:nonzero;fill:rgb(100%,100%,100%);fill-opacity:0.4;" d="M 10 22.996094 C 7.785156 22.996094 6 24.777344 6 26.996094 L 6 27.996094 C 6 25.777344 7.785156 23.996094 10 23.996094 L 54 23.996094 C 56.214844 23.996094 58 25.777344 58 27.996094 L 58 26.996094 C 58 24.777344 56.214844 22.996094 54 22.996094 Z M 10 22.996094 "/>
<path style=" stroke:none;fill-rule:nonzero;fill:rgb(0%,0%,0%);fill-opacity:0.4;" d="M 10 41 C 7.785156 41 6 39.214844 6 37 L 6 36 C 6 38.214844 7.785156 40 10 40 L 54 40 C 56.214844 40 58 38.214844 58 36 L 58 37 C 58 39.214844 56.214844 41 54 41 Z M 10 41 "/>
<path style=" stroke:none;fill-rule:nonzero;fill:rgb(100%,100%,100%);fill-opacity:0.4;" d="M 10 41.964844 C 7.785156 41.964844 6 43.746094 6 45.964844 L 6 46.964844 C 6 44.746094 7.785156 42.964844 10 42.964844 L 54 42.964844 C 56.214844 42.964844 58 44.746094 58 46.964844 L 58 45.964844 C 58 43.746094 56.214844 41.964844 54 41.964844 Z M 10 41.964844 "/>
<path style=" stroke:none;fill-rule:nonzero;fill:rgb(0%,0%,0%);fill-opacity:0.4;" d="M 10 59.96875 C 7.785156 59.96875 6 58.183594 6 55.96875 L 6 54.96875 C 6 57.183594 7.785156 58.96875 10 58.96875 L 54 58.96875 C 56.214844 58.96875 58 57.183594 58 54.96875 L 58 55.96875 C 58 58.183594 56.214844 59.96875 54 59.96875 Z M 10 59.96875 "/>
<path style=" stroke:none;fill-rule:nonzero;fill:rgb(40.000001%,73.333335%,41.568628%);fill-opacity:0.996078;" d="M 12 30 C 13.105469 30 14 30.894531 14 32 C 14 33.105469 13.105469 34 12 34 C 10.894531 34 10 33.105469 10 32 C 10 30.894531 10.894531 30 12 30 Z M 12 30 "/>
<path style=" stroke:none;fill-rule:nonzero;fill:rgb(0%,0%,0%);fill-opacity:0.4;" d="M 11.949219 30 C 10.863281 30.027344 10 30.910156 10 32 C 10 32.085938 10.003906 32.167969 10.015625 32.25 C 10.136719 31.261719 10.976562 30.5 12 30.5 C 13.023438 30.5 13.863281 31.261719 13.984375 32.25 C 13.996094 32.167969 14 32.085938 14 32 C 14 30.890625 13.109375 30 12 30 C 11.984375 30 11.964844 30 11.945312 30 Z M 11.949219 30 "/>
<path style=" stroke:none;fill-rule:nonzero;fill:rgb(100%,100%,100%);fill-opacity:0.4;" d="M 11.949219 34.5 C 10.863281 34.472656 10 33.589844 10 32.5 C 10 32.414062 10.003906 32.332031 10.015625 32.25 C 10.136719 33.238281 10.976562 34 12 34 C 13.023438 34 13.863281 33.238281 13.984375 32.25 C 13.996094 32.332031 14 32.414062 14 32.5 C 14 33.609375 13.109375 34.5 12 34.5 C 11.984375 34.5 11.964844 34.5 11.945312 34.5 Z M 11.949219 34.5 "/>
<path style=" stroke:none;fill-rule:nonzero;fill:rgb(100%,65.490198%,14.901961%);fill-opacity:0.996078;" d="M 18.050781 30 C 19.15625 30 20.050781 30.894531 20.050781 32 C 20.050781 33.105469 19.15625 34 18.050781 34 C 16.949219 34 16.050781 33.105469 16.050781 32 C 16.050781 30.894531 16.949219 30 18.050781 30 Z M 18.050781 30 "/>
<path style=" stroke:none;fill-rule:nonzero;fill:rgb(0%,0%,0%);fill-opacity:0.4;" d="M 18 30 C 16.917969 30.027344 16.050781 30.910156 16.050781 32 C 16.050781 32.085938 16.058594 32.167969 16.066406 32.25 C 16.191406 31.261719 17.03125 30.5 18.050781 30.5 C 19.074219 30.5 19.914062 31.261719 20.035156 32.25 C 20.046875 32.167969 20.050781 32.085938 20.050781 32 C 20.050781 30.890625 19.160156 30 18.050781 30 C 18.035156 30 18.015625 30 18 30 Z M 18 30 "/>
<path style=" stroke:none;fill-rule:nonzero;fill:rgb(100%,100%,100%);fill-opacity:0.4;" d="M 18 34.5 C 16.917969 34.472656 16.050781 33.589844 16.050781 32.5 C 16.050781 32.414062 16.058594 32.332031 16.066406 32.25 C 16.191406 33.238281 17.03125 34 18.050781 34 C 19.074219 34 19.914062 33.238281 20.035156 32.25 C 20.046875 32.332031 20.050781 32.414062 20.050781 32.5 C 20.050781 33.609375 19.160156 34.5 18.050781 34.5 C 18.035156 34.5 18.015625 34.5 18 34.5 Z M 18 34.5 "/>
<path style=" stroke:none;fill-rule:nonzero;fill:rgb(95.686275%,26.274511%,21.176471%);fill-opacity:0.996078;" d="M 24.050781 30 C 25.15625 30 26.050781 30.894531 26.050781 32 C 26.050781 33.105469 25.15625 34 24.050781 34 C 22.949219 34 22.050781 33.105469 22.050781 32 C 22.050781 30.894531 22.949219 30 24.050781 30 Z M 24.050781 30 "/>
<path style=" stroke:none;fill-rule:nonzero;fill:rgb(0%,0%,0%);fill-opacity:0.4;" d="M 24 30 C 22.917969 30.027344 22.050781 30.910156 22.050781 32 C 22.050781 32.085938 22.058594 32.167969 22.066406 32.25 C 22.191406 31.261719 23.03125 30.5 24.050781 30.5 C 25.074219 30.5 25.914062 31.261719 26.035156 32.25 C 26.046875 32.167969 26.050781 32.085938 26.050781 32 C 26.050781 30.890625 25.160156 30 24.050781 30 C 24.035156 30 24.015625 30 24 30 Z M 24 30 "/>
<path style=" stroke:none;fill-rule:nonzero;fill:rgb(100%,100%,100%);fill-opacity:0.4;" d="M 24 34.5 C 22.917969 34.472656 22.050781 33.589844 22.050781 32.5 C 22.050781 32.414062 22.058594 32.332031 22.066406 32.25 C 22.191406 33.238281 23.03125 34 24.050781 34 C 25.074219 34 25.914062 33.238281 26.035156 32.25 C 26.046875 32.332031 26.050781 32.414062 26.050781 32.5 C 26.050781 33.609375 25.160156 34.5 24.050781 34.5 C 24.035156 34.5 24.015625 34.5 24 34.5 Z M 24 34.5 "/>
<path style=" stroke:none;fill-rule:nonzero;fill:rgb(40.000001%,73.333335%,41.568628%);fill-opacity:0.996078;" d="M 12 49 C 13.105469 49 14 49.894531 14 51 C 14 52.105469 13.105469 53 12 53 C 10.894531 53 10 52.105469 10 51 C 10 49.894531 10.894531 49 12 49 Z M 12 49 "/>
<path style=" stroke:none;fill-rule:nonzero;fill:rgb(0%,0%,0%);fill-opacity:0.4;" d="M 11.949219 49 C 10.863281 49.027344 10 49.910156 10 51 C 10 51.085938 10.003906 51.167969 10.015625 51.25 C 10.136719 50.261719 10.976562 49.5 12 49.5 C 13.023438 49.5 13.863281 50.261719 13.984375 51.25 C 13.996094 51.167969 14 51.085938 14 51 C 14 49.890625 13.109375 49 12 49 C 11.984375 49 11.964844 49 11.945312 49 Z M 11.949219 49 "/>
<path style=" stroke:none;fill-rule:nonzero;fill:rgb(100%,100%,100%);fill-opacity:0.4;" d="M 11.949219 53.5 C 10.863281 53.472656 10 52.589844 10 51.5 C 10 51.414062 10.003906 51.332031 10.015625 51.25 C 10.136719 52.238281 10.976562 53 12 53 C 13.023438 53 13.863281 52.238281 13.984375 51.25 C 13.996094 51.332031 14 51.414062 14 51.5 C 14 52.609375 13.109375 53.5 12 53.5 C 11.984375 53.5 11.964844 53.5 11.945312 53.5 Z M 11.949219 53.5 "/>
<path style=" stroke:none;fill-rule:nonzero;fill:rgb(100%,65.490198%,14.901961%);fill-opacity:0.996078;" d="M 18.050781 49 C 19.15625 49 20.050781 49.894531 20.050781 51 C 20.050781 52.105469 19.15625 53 18.050781 53 C 16.949219 53 16.050781 52.105469 16.050781 51 C 16.050781 49.894531 16.949219 49 18.050781 49 Z M 18.050781 49 "/>
<path style=" stroke:none;fill-rule:nonzero;fill:rgb(0%,0%,0%);fill-opacity:0.4;" d="M 18 49 C 16.917969 49.027344 16.050781 49.910156 16.050781 51 C 16.050781 51.085938 16.058594 51.167969 16.066406 51.25 C 16.191406 50.261719 17.03125 49.5 18.050781 49.5 C 19.074219 49.5 19.914062 50.261719 20.035156 51.25 C 20.046875 51.167969 20.050781 51.085938 20.050781 51 C 20.050781 49.890625 19.160156 49 18.050781 49 C 18.035156 49 18.015625 49 18 49 Z M 18 49 "/>
<path style=" stroke:none;fill-rule:nonzero;fill:rgb(100%,100%,100%);fill-opacity:0.4;" d="M 18 53.5 C 16.917969 53.472656 16.050781 52.589844 16.050781 51.5 C 16.050781 51.414062 16.058594 51.332031 16.066406 51.25 C 16.191406 52.238281 17.03125 53 18.050781 53 C 19.074219 53 19.914062 52.238281 20.035156 51.25 C 20.046875 51.332031 20.050781 51.414062 20.050781 51.5 C 20.050781 52.609375 19.160156 53.5 18.050781 53.5 C 18.035156 53.5 18.015625 53.5 18 53.5 Z M 18 53.5 "/>
<path style=" stroke:none;fill-rule:nonzero;fill:rgb(95.686275%,26.274511%,21.176471%);fill-opacity:0.996078;" d="M 24.050781 49 C 25.15625 49 26.050781 49.894531 26.050781 51 C 26.050781 52.105469 25.15625 53 24.050781 53 C 22.949219 53 22.050781 52.105469 22.050781 51 C 22.050781 49.894531 22.949219 49 24.050781 49 Z M 24.050781 49 "/>
<path style=" stroke:none;fill-rule:nonzero;fill:rgb(0%,0%,0%);fill-opacity:0.4;" d="M 24 49 C 22.917969 49.027344 22.050781 49.910156 22.050781 51 C 22.050781 51.085938 22.058594 51.167969 22.066406 51.25 C 22.191406 50.261719 23.03125 49.5 24.050781 49.5 C 25.074219 49.5 25.914062 50.261719 26.035156 51.25 C 26.046875 51.167969 26.050781 51.085938 26.050781 51 C 26.050781 49.890625 25.160156 49 24.050781 49 C 24.035156 49 24.015625 49 24 49 Z M 24 49 "/>
<path style=" stroke:none;fill-rule:nonzero;fill:rgb(100%,100%,100%);fill-opacity:0.4;" d="M 24 53.5 C 22.917969 53.472656 22.050781 52.589844 22.050781 51.5 C 22.050781 51.414062 22.058594 51.332031 22.066406 51.25 C 22.191406 52.238281 23.03125 53 24.050781 53 C 25.074219 53 25.914062 52.238281 26.035156 51.25 C 26.046875 51.332031 26.050781 51.414062 26.050781 51.5 C 26.050781 52.609375 25.160156 53.5 24.050781 53.5 C 24.035156 53.5 24.015625 53.5 24 53.5 Z M 24 53.5 "/>
<path style=" stroke:none;fill-rule:nonzero;fill:rgb(0%,0%,0%);fill-opacity:0.2;" d="M 6 56 L 6 57.5 C 6 59.714844 7.785156 61.5 10 61.5 L 54 61.5 C 56.214844 61.5 58 59.714844 58 57.5 L 58 56 C 58 58.214844 56.214844 60 54 60 L 10 60 C 7.785156 60 6 58.214844 6 56 Z M 6 56 "/>
<path style=" stroke:none;fill-rule:nonzero;fill:rgb(0%,0%,0%);fill-opacity:0.4;" d="M 39 6 C 39.550781 6 40 6.449219 40 7 L 40 19 C 40 19.550781 39.550781 20 39 20 C 38.449219 20 38 19.550781 38 19 L 38 7 C 38 6.449219 38.449219 6 39 6 Z M 39 6 "/>
<path style=" stroke:none;fill-rule:nonzero;fill:rgb(0%,0%,0%);fill-opacity:0.4;" d="M 39 6 C 38.445312 6 38 6.445312 38 7 L 38 8 C 38 7.445312 38.445312 7 39 7 C 39.554688 7 40 7.445312 40 8 L 40 7 C 40 6.445312 39.554688 6 39 6 Z M 39 6 "/>
<path style=" stroke:none;fill-rule:nonzero;fill:rgb(100%,100%,100%);fill-opacity:0.4;" d="M 39 21 C 38.445312 21 38 20.554688 38 20 L 38 19 C 38 19.554688 38.445312 20 39 20 C 39.554688 20 40 19.554688 40 19 L 40 20 C 40 20.554688 39.554688 21 39 21 Z M 39 21 "/>
<path style=" stroke:none;fill-rule:nonzero;fill:rgb(0%,0%,0%);fill-opacity:0.4;" d="M 43 6 C 43.550781 6 44 6.449219 44 7 L 44 19 C 44 19.550781 43.550781 20 43 20 C 42.449219 20 42 19.550781 42 19 L 42 7 C 42 6.449219 42.449219 6 43 6 Z M 43 6 "/>
<path style=" stroke:none;fill-rule:nonzero;fill:rgb(0%,0%,0%);fill-opacity:0.4;" d="M 43 6 C 42.445312 6 42 6.445312 42 7 L 42 8 C 42 7.445312 42.445312 7 43 7 C 43.554688 7 44 7.445312 44 8 L 44 7 C 44 6.445312 43.554688 6 43 6 Z M 43 6 "/>
<path style=" stroke:none;fill-rule:nonzero;fill:rgb(100%,100%,100%);fill-opacity:0.4;" d="M 43 21 C 42.445312 21 42 20.554688 42 20 L 42 19 C 42 19.554688 42.445312 20 43 20 C 43.554688 20 44 19.554688 44 19 L 44 20 C 44 20.554688 43.554688 21 43 21 Z M 43 21 "/>
<path style=" stroke:none;fill-rule:nonzero;fill:rgb(0%,0%,0%);fill-opacity:0.4;" d="M 47 6 C 47.550781 6 48 6.449219 48 7 L 48 19 C 48 19.550781 47.550781 20 47 20 C 46.449219 20 46 19.550781 46 19 L 46 7 C 46 6.449219 46.449219 6 47 6 Z M 47 6 "/>
<path style=" stroke:none;fill-rule:nonzero;fill:rgb(0%,0%,0%);fill-opacity:0.4;" d="M 47 6 C 46.445312 6 46 6.445312 46 7 L 46 8 C 46 7.445312 46.445312 7 47 7 C 47.554688 7 48 7.445312 48 8 L 48 7 C 48 6.445312 47.554688 6 47 6 Z M 47 6 "/>
<path style=" stroke:none;fill-rule:nonzero;fill:rgb(100%,100%,100%);fill-opacity:0.4;" d="M 47 21 C 46.445312 21 46 20.554688 46 20 L 46 19 C 46 19.554688 46.445312 20 47 20 C 47.554688 20 48 19.554688 48 19 L 48 20 C 48 20.554688 47.554688 21 47 21 Z M 47 21 "/>
<path style=" stroke:none;fill-rule:nonzero;fill:rgb(0%,0%,0%);fill-opacity:0.4;" d="M 51 6 C 51.550781 6 52 6.449219 52 7 L 52 19 C 52 19.550781 51.550781 20 51 20 C 50.449219 20 50 19.550781 50 19 L 50 7 C 50 6.449219 50.449219 6 51 6 Z M 51 6 "/>
<path style=" stroke:none;fill-rule:nonzero;fill:rgb(0%,0%,0%);fill-opacity:0.4;" d="M 51 6 C 50.445312 6 50 6.445312 50 7 L 50 8 C 50 7.445312 50.445312 7 51 7 C 51.554688 7 52 7.445312 52 8 L 52 7 C 52 6.445312 51.554688 6 51 6 Z M 51 6 "/>
<path style=" stroke:none;fill-rule:nonzero;fill:rgb(100%,100%,100%);fill-opacity:0.4;" d="M 51 21 C 50.445312 21 50 20.554688 50 20 L 50 19 C 50 19.554688 50.445312 20 51 20 C 51.554688 20 52 19.554688 52 19 L 52 20 C 52 20.554688 51.554688 21 51 21 Z M 51 21 "/>
<path style=" stroke:none;fill-rule:nonzero;fill:rgb(0%,0%,0%);fill-opacity:0.4;" d="M 39 25 C 39.550781 25 40 25.449219 40 26 L 40 38 C 40 38.550781 39.550781 39 39 39 C 38.449219 39 38 38.550781 38 38 L 38 26 C 38 25.449219 38.449219 25 39 25 Z M 39 25 "/>
<path style=" stroke:none;fill-rule:nonzero;fill:rgb(0%,0%,0%);fill-opacity:0.4;" d="M 39 25 C 38.445312 25 38 25.445312 38 26 L 38 27 C 38 26.445312 38.445312 26 39 26 C 39.554688 26 40 26.445312 40 27 L 40 26 C 40 25.445312 39.554688 25 39 25 Z M 39 25 "/>
<path style=" stroke:none;fill-rule:nonzero;fill:rgb(100%,100%,100%);fill-opacity:0.4;" d="M 39 40 C 38.445312 40 38 39.554688 38 39 L 38 38 C 38 38.554688 38.445312 39 39 39 C 39.554688 39 40 38.554688 40 38 L 40 39 C 40 39.554688 39.554688 40 39 40 Z M 39 40 "/>
<path style=" stroke:none;fill-rule:nonzero;fill:rgb(0%,0%,0%);fill-opacity:0.4;" d="M 43 25 C 43.550781 25 44 25.449219 44 26 L 44 38 C 44 38.550781 43.550781 39 43 39 C 42.449219 39 42 38.550781 42 38 L 42 26 C 42 25.449219 42.449219 25 43 25 Z M 43 25 "/>
<path style=" stroke:none;fill-rule:nonzero;fill:rgb(0%,0%,0%);fill-opacity:0.4;" d="M 43 25 C 42.445312 25 42 25.445312 42 26 L 42 27 C 42 26.445312 42.445312 26 43 26 C 43.554688 26 44 26.445312 44 27 L 44 26 C 44 25.445312 43.554688 25 43 25 Z M 43 25 "/>
<path style=" stroke:none;fill-rule:nonzero;fill:rgb(100%,100%,100%);fill-opacity:0.4;" d="M 43 40 C 42.445312 40 42 39.554688 42 39 L 42 38 C 42 38.554688 42.445312 39 43 39 C 43.554688 39 44 38.554688 44 38 L 44 39 C 44 39.554688 43.554688 40 43 40 Z M 43 40 "/>
<path style=" stroke:none;fill-rule:nonzero;fill:rgb(0%,0%,0%);fill-opacity:0.4;" d="M 47 25 C 47.550781 25 48 25.449219 48 26 L 48 38 C 48 38.550781 47.550781 39 47 39 C 46.449219 39 46 38.550781 46 38 L 46 26 C 46 25.449219 46.449219 25 47 25 Z M 47 25 "/>
<path style=" stroke:none;fill-rule:nonzero;fill:rgb(0%,0%,0%);fill-opacity:0.4;" d="M 47 25 C 46.445312 25 46 25.445312 46 26 L 46 27 C 46 26.445312 46.445312 26 47 26 C 47.554688 26 48 26.445312 48 27 L 48 26 C 48 25.445312 47.554688 25 47 25 Z M 47 25 "/>
<path style=" stroke:none;fill-rule:nonzero;fill:rgb(100%,100%,100%);fill-opacity:0.4;" d="M 47 40 C 46.445312 40 46 39.554688 46 39 L 46 38 C 46 38.554688 46.445312 39 47 39 C 47.554688 39 48 38.554688 48 38 L 48 39 C 48 39.554688 47.554688 40 47 40 Z M 47 40 "/>
<path style=" stroke:none;fill-rule:nonzero;fill:rgb(0%,0%,0%);fill-opacity:0.4;" d="M 51 25 C 51.550781 25 52 25.449219 52 26 L 52 38 C 52 38.550781 51.550781 39 51 39 C 50.449219 39 50 38.550781 50 38 L 50 26 C 50 25.449219 50.449219 25 51 25 Z M 51 25 "/>
<path style=" stroke:none;fill-rule:nonzero;fill:rgb(0%,0%,0%);fill-opacity:0.4;" d="M 51 25 C 50.445312 25 50 25.445312 50 26 L 50 27 C 50 26.445312 50.445312 26 51 26 C 51.554688 26 52 26.445312 52 27 L 52 26 C 52 25.445312 51.554688 25 51 25 Z M 51 25 "/>
<path style=" stroke:none;fill-rule:nonzero;fill:rgb(100%,100%,100%);fill-opacity:0.4;" d="M 51 40 C 50.445312 40 50 39.554688 50 39 L 50 38 C 50 38.554688 50.445312 39 51 39 C 51.554688 39 52 38.554688 52 38 L 52 39 C 52 39.554688 51.554688 40 51 40 Z M 51 40 "/>
<path style=" stroke:none;fill-rule:nonzero;fill:rgb(0%,0%,0%);fill-opacity:0.4;" d="M 39 44 C 39.550781 44 40 44.449219 40 45 L 40 57 C 40 57.550781 39.550781 58 39 58 C 38.449219 58 38 57.550781 38 57 L 38 45 C 38 44.449219 38.449219 44 39 44 Z M 39 44 "/>
<path style=" stroke:none;fill-rule:nonzero;fill:rgb(0%,0%,0%);fill-opacity:0.4;" d="M 39 44 C 38.445312 44 38 44.445312 38 45 L 38 46 C 38 45.445312 38.445312 45 39 45 C 39.554688 45 40 45.445312 40 46 L 40 45 C 40 44.445312 39.554688 44 39 44 Z M 39 44 "/>
<path style=" stroke:none;fill-rule:nonzero;fill:rgb(100%,100%,100%);fill-opacity:0.4;" d="M 39 59 C 38.445312 59 38 58.554688 38 58 L 38 57 C 38 57.554688 38.445312 58 39 58 C 39.554688 58 40 57.554688 40 57 L 40 58 C 40 58.554688 39.554688 59 39 59 Z M 39 59 "/>
<path style=" stroke:none;fill-rule:nonzero;fill:rgb(0%,0%,0%);fill-opacity:0.4;" d="M 43 44 C 43.550781 44 44 44.449219 44 45 L 44 57 C 44 57.550781 43.550781 58 43 58 C 42.449219 58 42 57.550781 42 57 L 42 45 C 42 44.449219 42.449219 44 43 44 Z M 43 44 "/>
<path style=" stroke:none;fill-rule:nonzero;fill:rgb(0%,0%,0%);fill-opacity:0.4;" d="M 43 44 C 42.445312 44 42 44.445312 42 45 L 42 46 C 42 45.445312 42.445312 45 43 45 C 43.554688 45 44 45.445312 44 46 L 44 45 C 44 44.445312 43.554688 44 43 44 Z M 43 44 "/>
<path style=" stroke:none;fill-rule:nonzero;fill:rgb(100%,100%,100%);fill-opacity:0.4;" d="M 43 59 C 42.445312 59 42 58.554688 42 58 L 42 57 C 42 57.554688 42.445312 58 43 58 C 43.554688 58 44 57.554688 44 57 L 44 58 C 44 58.554688 43.554688 59 43 59 Z M 43 59 "/>
<path style=" stroke:none;fill-rule:nonzero;fill:rgb(0%,0%,0%);fill-opacity:0.4;" d="M 47 44 C 47.550781 44 48 44.449219 48 45 L 48 57 C 48 57.550781 47.550781 58 47 58 C 46.449219 58 46 57.550781 46 57 L 46 45 C 46 44.449219 46.449219 44 47 44 Z M 47 44 "/>
<path style=" stroke:none;fill-rule:nonzero;fill:rgb(0%,0%,0%);fill-opacity:0.4;" d="M 47 44 C 46.445312 44 46 44.445312 46 45 L 46 46 C 46 45.445312 46.445312 45 47 45 C 47.554688 45 48 45.445312 48 46 L 48 45 C 48 44.445312 47.554688 44 47 44 Z M 47 44 "/>
<path style=" stroke:none;fill-rule:nonzero;fill:rgb(100%,100%,100%);fill-opacity:0.4;" d="M 47 59 C 46.445312 59 46 58.554688 46 58 L 46 57 C 46 57.554688 46.445312 58 47 58 C 47.554688 58 48 57.554688 48 57 L 48 58 C 48 58.554688 47.554688 59 47 59 Z M 47 59 "/>
<path style=" stroke:none;fill-rule:nonzero;fill:rgb(0%,0%,0%);fill-opacity:0.4;" d="M 51 44 C 51.550781 44 52 44.449219 52 45 L 52 57 C 52 57.550781 51.550781 58 51 58 C 50.449219 58 50 57.550781 50 57 L 50 45 C 50 44.449219 50.449219 44 51 44 Z M 51 44 "/>
<path style=" stroke:none;fill-rule:nonzero;fill:rgb(0%,0%,0%);fill-opacity:0.4;" d="M 51 44 C 50.445312 44 50 44.445312 50 45 L 50 46 C 50 45.445312 50.445312 45 51 45 C 51.554688 45 52 45.445312 52 46 L 52 45 C 52 44.445312 51.554688 44 51 44 Z M 51 44 "/>
<path style=" stroke:none;fill-rule:nonzero;fill:rgb(100%,100%,100%);fill-opacity:0.4;" d="M 51 59 C 50.445312 59 50 58.554688 50 58 L 50 57 C 50 57.554688 50.445312 58 51 58 C 51.554688 58 52 57.554688 52 57 L 52 58 C 52 58.554688 51.554688 59 51 59 Z M 51 59 "/>
<path style=" stroke:none;fill-rule:nonzero;fill:url(#linear0);" d="M 10 4 C 7.785156 4 6 5.785156 6 8 L 6 18 C 6 20.214844 7.785156 22 10 22 L 10 23 C 7.785156 23 6 24.785156 6 27 L 6 37 C 6 39.214844 7.785156 41 10 41 L 10 42 C 7.785156 42 6 43.785156 6 46 L 6 56 C 6 58.214844 7.785156 60 10 60 L 54 60 C 56.214844 60 58 58.214844 58 56 L 58 46 C 58 43.785156 56.214844 42 54 42 L 54 41 C 56.214844 41 58 39.214844 58 37 L 58 27 C 58 24.785156 56.214844 23 54 23 L 54 22 C 56.214844 22 58 20.214844 58 18 L 58 8 C 58 5.785156 56.214844 4 54 4 Z M 10 4 "/>
</g>
</svg>
