<svg xmlns="http://www.w3.org/2000/svg" viewBox="0 0 48 48"><defs><linearGradient y1="545.8" x2="0" y2="517.8" gradientUnits="userSpaceOnUse"><stop stop-color="#3889e9"/><stop offset="1" stop-color="#5ea5fb"/></linearGradient><linearGradient id="0" gradientUnits="userSpaceOnUse" y1="545.14" x2="0" y2="518.14"><stop stop-color="#4da70e"/><stop offset="1" stop-color="#9ded46"/></linearGradient><linearGradient x1="25.425" y1="1043.02" x2="23.12" y2="1015.56" gradientUnits="userSpaceOnUse"><stop stop-color="#dfe2e3"/><stop offset="1" stop-color="#fdfdfe"/></linearGradient></defs><circle r="14" cy="531.8" cx="400.57" fill="url(#0)" transform="matrix(1.71428 0 0 1.71428-662.71-887.65)"/><path d="m483.94 236.08c-4.27-1.399-6.215-5.831-4.25-9.688.891-1.75 2.067-2.715 3.988-3.275 2.506-.731 5.255.278 6.698 2.459.988 1.493 1.101 3.891.259 5.468-1.978 3.703-7.402 3.624-8.835-.129-.832-2.178.131-4.449 2.225-5.249 2.124-.811 4.354.488 4.601 2.68.104.923.019 1.218-.544 1.887-1.216 1.445-3.21 1.278-3.942-.33-.389-.854-.098-1.016.698-.39.842.662 1.464.671 2.106.029.66-.66.632-1.321-.093-2.164-1.349-1.568-3.961-.294-4.01 1.956-.028 1.271.585 2.253 1.764 2.827 2.989 1.454 6.291-1.826 5.076-5.04-.335-.886-1.386-2.01-2.355-2.514-1.959-1.023-4.96-.078-6.33 1.993-.571.864-.683 1.302-.683 2.696 0 1.416.113 1.847.757 2.889.47.76 1.222 1.512 1.983 1.982 1.069.66 1.453.756 2.996.748 3.654-.02 6.161-2.365 6.917-6.47.536-2.908-.525-6.211-2.662-8.288-.762-.741-1.108-1.285-1.108-1.742 0-.763-.405-1.632-.76-1.632-.136 0-.241.93-.241 2.133v2.133l1.126.68c1.235.746 1.522 1.56.551 1.56-.317 0-.701-.125-.854-.278-.153-.153-.992-.524-1.864-.824-1.621-.558-2.106-1.201-1.023-1.355.484-.069.563-.231.563-1.158v-1.078l-1.399-.116c-1.576-.131-1.844-.386-1.85-1.76-.003-.516-.103-.938-.223-.938-.561 0-.881.936-.983 2.875-.107 2.04-.096 2.089.481 2.171 1.139.162.856.907-.589 1.545-.74.327-1.761.96-2.27 1.407-.926.813-1.675.882-1.675.154 0-.204.507-.794 1.126-1.312 1.11-.928 1.126-.963 1.126-2.478 0-1.912-.634-2.97-2.312-3.86l-1.175-.623-1.087 1.067-1.087 1.067-4.99-.068c-4.961-.068-4.99-.071-5.07-.631l-.08-.563h3.865c3.131 0 3.925-.071 4.177-.375.275-.331-.217-.375-4.193-.375-3.303 0-4.574-.084-4.764-.313-.285-.343-.015-2.289.488-3.523.806-1.898 2.153-3.688 3.766-5.02 1.37-1.132 5.355-2.437 6.316-2.068.309.119.389.585.389 2.284 0 1.174.09 2.135.2 2.135.491 0 .801-.693.801-1.792 0-1.188.004-1.192 1.064-1.489 1.65-.461 5.52-.335 7.767.253 6.182 1.618 10.696 5.944 12.218 11.708.691 2.618.749 6.85.122 8.962-1.148 3.867-3.637 6.948-6.816 8.436-1.329.622-2.075.801-3.575.86-1.043.041-2.178-.018-2.523-.131m-7.744-15.14c-.217-.57-.393-.639-1.815-.706-1.416-.067-1.583-.132-1.655-.638-.076-.536 0-.563 1.616-.563 1.609 0 1.743-.046 2.617-.9.797-.778.993-.861 1.449-.617.721.386.666.725-.274 1.694-.491.507-.806 1.092-.813 1.509-.015.925-.8 1.078-1.126.22" fill="#fff" fill-opacity=".847" transform="matrix(.95008 0 0 .95008-432.45-185.49)" stroke-width="1.317"/></svg>