
<svg xmlns="http://www.w3.org/2000/svg" xmlns:xlink="http://www.w3.org/1999/xlink" width="64" height="64" viewBox="0 0 64 64" version="1.1">
<defs>
<linearGradient id="linear0" gradientUnits="userSpaceOnUse" x1="2.645833" y1="-211.03125" x2="14.287498" y2="-211.03125" gradientTransform="matrix(4.466715,0,0,1.889785,-5.818182,413.303711)">
<stop offset="0" style="stop-color:rgb(100%,100%,100%);stop-opacity:0;"/>
<stop offset="0.498862" style="stop-color:rgb(100%,100%,100%);stop-opacity:0.2;"/>
<stop offset="1" style="stop-color:rgb(95.686275%,26.274511%,21.176471%);stop-opacity:0;"/>
</linearGradient>
<linearGradient id="linear1" gradientUnits="userSpaceOnUse" x1="8.466666" y1="-200.183334" x2="8.466666" y2="-212.883331" gradientTransform="matrix(3.779528,0,0,3.779528,-4.000006,812.598468)">
<stop offset="0" style="stop-color:rgb(0%,0%,0%);stop-opacity:0.2;"/>
<stop offset="1" style="stop-color:rgb(100%,100%,100%);stop-opacity:0;"/>
</linearGradient>
<linearGradient id="linear2" gradientUnits="userSpaceOnUse" x1="9.657291" y1="-204.416672" x2="9.657291" y2="-208.649994" gradientTransform="matrix(3.779528,0,0,3.779528,-14.500003,805.491041)">
<stop offset="0" style="stop-color:rgb(0%,0%,0%);stop-opacity:0.2;"/>
<stop offset="1" style="stop-color:rgb(100%,100%,100%);stop-opacity:0;"/>
</linearGradient>
</defs>
<g id="surface1">
<path style=" stroke:none;fill-rule:nonzero;fill:rgb(38.039216%,38.039216%,38.039216%);fill-opacity:1;" d="M 8 8 L 56 8 C 58.210938 8 60 9.789062 60 12 L 60 52 C 60 54.210938 58.210938 56 56 56 L 8 56 C 5.789062 56 4 54.210938 4 52 L 4 12 C 4 9.789062 5.789062 8 8 8 Z M 8 8 "/>
<path style=" stroke:none;fill-rule:nonzero;fill:url(#linear0);" d="M 32 14 C 17.597656 14 6 14.222656 6 14.5 C 6 14.777344 17.597656 15 32 15 C 46.402344 15 58 14.777344 58 14.5 C 58 14.222656 46.402344 14 32 14 Z M 32 17 C 17.597656 17 6 17.222656 6 17.5 C 6 17.777344 17.597656 18 32 18 C 46.402344 18 58 17.777344 58 17.5 C 58 17.222656 46.402344 17 32 17 Z M 32 20 C 17.597656 20 6 20.222656 6 20.5 C 6 20.777344 17.597656 21 32 21 C 46.402344 21 58 20.777344 58 20.5 C 58 20.222656 46.402344 20 32 20 Z M 32 23 C 17.597656 23 6 23.222656 6 23.5 C 6 23.777344 17.597656 24 32 24 C 46.402344 24 58 23.777344 58 23.5 C 58 23.222656 46.402344 23 32 23 Z M 32 26 C 17.597656 26 6 26.222656 6 26.5 C 6 26.777344 17.597656 27 32 27 C 46.402344 27 58 26.777344 58 26.5 C 58 26.222656 46.402344 26 32 26 Z M 32 29 C 17.597656 29 6 29.222656 6 29.5 C 6 29.777344 17.597656 30 32 30 C 46.402344 30 58 29.777344 58 29.5 C 58 29.222656 46.402344 29 32 29 Z M 32 32 C 17.597656 32 6 32.222656 6 32.5 C 6 32.777344 17.597656 33 32 33 C 46.402344 33 58 32.777344 58 32.5 C 58 32.222656 46.402344 32 32 32 Z M 32 35 C 17.597656 35 6 35.222656 6 35.5 C 6 35.777344 17.597656 36 32 36 C 46.402344 36 58 35.777344 58 35.5 C 58 35.222656 46.402344 35 32 35 Z M 32 38 C 17.597656 38 6 38.222656 6 38.5 C 6 38.777344 17.597656 39 32 39 C 46.402344 39 58 38.777344 58 38.5 C 58 38.222656 46.402344 38 32 38 Z M 32 41 C 17.597656 41 6 41.222656 6 41.5 C 6 41.777344 17.597656 42 32 42 C 46.402344 42 58 41.777344 58 41.5 C 58 41.222656 46.402344 41 32 41 Z M 32 44 C 17.597656 44 6 44.222656 6 44.5 C 6 44.777344 17.597656 45 32 45 C 46.402344 45 58 44.777344 58 44.5 C 58 44.222656 46.402344 44 32 44 Z M 32 47 C 17.597656 47 6 47.222656 6 47.5 C 6 47.777344 17.597656 48 32 48 C 46.402344 48 58 47.777344 58 47.5 C 58 47.222656 46.402344 47 32 47 Z M 32 50 C 17.597656 50 6 50.222656 6 50.5 C 6 50.777344 17.597656 51 32 51 C 46.402344 51 58 50.777344 58 50.5 C 58 50.222656 46.402344 50 32 50 Z M 32 50 "/>
<path style=" stroke:none;fill-rule:nonzero;fill:url(#linear1);" d="M 8 8 L 56 8 C 58.210938 8 60 9.789062 60 12 L 60 52 C 60 54.210938 58.210938 56 56 56 L 8 56 C 5.789062 56 4 54.210938 4 52 L 4 12 C 4 9.789062 5.789062 8 8 8 Z M 8 8 "/>
<path style=" stroke:none;fill-rule:nonzero;fill:rgb(61.176473%,80.000001%,39.607844%);fill-opacity:1;" d="M 14.5 16.894531 C 14.222656 16.894531 14 17.117188 14 17.394531 L 14 18.984375 C 11.945312 19.34375 10.625 20.789062 10.625 22.390625 C 10.625 23.992188 11.945312 25.441406 14 25.800781 L 14 28.71875 C 13.203125 28.414062 12.832031 27.839844 12.832031 27.839844 C 12.683594 27.617188 12.457031 27.464844 12.195312 27.410156 C 11.9375 27.359375 11.667969 27.410156 11.445312 27.558594 C 11.222656 27.707031 11.070312 27.933594 11.015625 28.195312 C 10.964844 28.453125 11.015625 28.722656 11.164062 28.945312 C 11.164062 28.945312 12.152344 30.363281 14 30.777344 L 14 32.394531 C 14 32.667969 14.222656 32.894531 14.5 32.894531 L 15.5 32.894531 C 15.777344 32.894531 16 32.667969 16 32.394531 L 16 30.808594 C 18.054688 30.449219 19.371094 29 19.371094 27.398438 C 19.371094 25.792969 18.054688 24.339844 16 23.980469 L 16 21.070312 C 16.800781 21.367188 17.164062 21.949219 17.164062 21.949219 C 17.472656 22.40625 18.09375 22.527344 18.550781 22.21875 C 19.007812 21.914062 19.132812 21.300781 18.832031 20.839844 C 18.832031 20.839844 17.851562 19.421875 16 19.007812 L 16 17.390625 C 16 17.117188 15.777344 16.890625 15.5 16.890625 L 15 16.890625 Z M 14 21.003906 L 14 23.78125 C 12.945312 23.535156 12.625 22.902344 12.625 22.390625 C 12.625 21.878906 12.945312 21.246094 14 21.003906 Z M 16 26 C 17.054688 26.246094 17.371094 26.882812 17.371094 27.398438 C 17.371094 27.910156 17.054688 28.539062 16 28.785156 Z M 20.5 30.894531 C 20.222656 30.894531 20 31.117188 20 31.394531 L 20 32.394531 C 20 32.667969 20.222656 32.894531 20.5 32.894531 L 25.5 32.894531 C 25.777344 32.894531 26 32.667969 26 32.394531 L 26 31.394531 C 26 31.117188 25.777344 30.894531 25.5 30.894531 Z M 20.5 30.894531 "/>
<path style=" stroke:none;fill-rule:nonzero;fill:url(#linear2);" d="M 14.5 16.894531 C 14.222656 16.894531 14 17.117188 14 17.394531 L 14 18.984375 C 11.945312 19.34375 10.625 20.789062 10.625 22.390625 C 10.625 23.992188 11.945312 25.441406 14 25.800781 L 14 28.71875 C 13.203125 28.414062 12.832031 27.839844 12.832031 27.839844 C 12.683594 27.617188 12.457031 27.464844 12.195312 27.410156 C 11.9375 27.359375 11.667969 27.410156 11.445312 27.558594 C 11.222656 27.707031 11.070312 27.933594 11.015625 28.195312 C 10.964844 28.453125 11.015625 28.722656 11.164062 28.945312 C 11.164062 28.945312 12.152344 30.363281 14 30.777344 L 14 32.394531 C 14 32.667969 14.222656 32.894531 14.5 32.894531 L 15.5 32.894531 C 15.777344 32.894531 16 32.667969 16 32.394531 L 16 30.808594 C 18.054688 30.449219 19.371094 29 19.371094 27.398438 C 19.371094 25.792969 18.054688 24.339844 16 23.980469 L 16 21.070312 C 16.800781 21.367188 17.164062 21.949219 17.164062 21.949219 C 17.472656 22.40625 18.09375 22.527344 18.550781 22.21875 C 19.007812 21.914062 19.132812 21.300781 18.832031 20.839844 C 18.832031 20.839844 17.851562 19.421875 16 19.007812 L 16 17.390625 C 16 17.117188 15.777344 16.890625 15.5 16.890625 L 15 16.890625 Z M 14 21.003906 L 14 23.78125 C 12.945312 23.535156 12.625 22.902344 12.625 22.390625 C 12.625 21.878906 12.945312 21.246094 14 21.003906 Z M 16 26 C 17.054688 26.246094 17.371094 26.882812 17.371094 27.398438 C 17.371094 27.910156 17.054688 28.539062 16 28.785156 Z M 20.5 30.894531 C 20.222656 30.894531 20 31.117188 20 31.394531 L 20 32.394531 C 20 32.667969 20.222656 32.894531 20.5 32.894531 L 25.5 32.894531 C 25.777344 32.894531 26 32.667969 26 32.394531 L 26 31.394531 C 26 31.117188 25.777344 30.894531 25.5 30.894531 Z M 20.5 30.894531 "/>
<path style=" stroke:none;fill-rule:nonzero;fill:rgb(0%,0%,0%);fill-opacity:0.4;" d="M 14 21.003906 C 12.945312 21.25 12.625 21.878906 12.625 22.390625 C 12.625 22.472656 12.652344 22.554688 12.667969 22.640625 C 12.761719 22.1875 13.113281 21.710938 14 21.503906 Z M 16 21.070312 L 16 21.570312 C 16.800781 21.867188 17.164062 22.449219 17.164062 22.449219 C 17.472656 22.90625 18.09375 23.027344 18.550781 22.722656 C 18.90625 22.484375 19.070312 22.050781 18.964844 21.640625 C 18.902344 21.878906 18.757812 22.085938 18.550781 22.222656 C 18.09375 22.527344 17.472656 22.40625 17.164062 21.949219 C 17.164062 21.949219 16.800781 21.367188 16 21.070312 Z M 10.648438 22.640625 C 10.644531 22.722656 10.625 22.804688 10.625 22.890625 C 10.625 24.492188 11.945312 25.941406 14 26.300781 L 14 25.800781 C 12.054688 25.460938 10.78125 24.140625 10.652344 22.640625 Z M 16 26 L 16 26.5 C 16.890625 26.707031 17.238281 27.191406 17.332031 27.648438 C 17.347656 27.5625 17.371094 27.476562 17.371094 27.398438 C 17.371094 26.882812 17.054688 26.246094 16 26 Z M 19.347656 27.648438 C 19.21875 29.148438 17.949219 30.46875 16 30.808594 L 16 31.308594 C 18.054688 30.949219 19.375 29.5 19.375 27.898438 C 19.375 27.8125 19.355469 27.730469 19.347656 27.648438 Z M 11.027344 28.644531 C 10.957031 28.917969 11.007812 29.210938 11.164062 29.445312 C 11.164062 29.445312 12.152344 30.863281 14 31.277344 L 14 30.777344 C 12.152344 30.363281 11.164062 28.945312 11.164062 28.945312 C 11.101562 28.851562 11.058594 28.75 11.027344 28.644531 Z M 14 32.394531 L 14 32.894531 C 14 33.167969 14.222656 33.394531 14.5 33.394531 L 15.5 33.394531 C 15.777344 33.394531 16 33.167969 16 32.894531 L 16 32.394531 C 16 32.667969 15.777344 32.894531 15.5 32.894531 L 14.5 32.894531 C 14.222656 32.894531 14 32.667969 14 32.394531 Z M 20 32.394531 L 20 32.894531 C 20 33.167969 20.222656 33.394531 20.5 33.394531 L 25.5 33.394531 C 25.777344 33.394531 26 33.167969 26 32.894531 L 26 32.394531 C 26 32.667969 25.777344 32.894531 25.5 32.894531 L 20.5 32.894531 C 20.222656 32.894531 20 32.667969 20 32.394531 Z M 20 32.394531 "/>
<path style=" stroke:none;fill-rule:nonzero;fill:rgb(99.607843%,99.607843%,99.607843%);fill-opacity:0.4;" d="M 14.5 16.894531 C 14.222656 16.894531 14 17.117188 14 17.394531 L 14 17.894531 C 14 17.617188 14.222656 17.394531 14.5 17.394531 L 15.5 17.394531 C 15.777344 17.394531 16 17.617188 16 17.894531 L 16 17.394531 C 16 17.117188 15.777344 16.894531 15.5 16.894531 Z M 14 18.984375 C 11.945312 19.34375 10.625 20.789062 10.625 22.390625 C 10.625 22.476562 10.644531 22.558594 10.648438 22.640625 C 10.78125 21.140625 12.054688 19.824219 14 19.484375 Z M 16 19.007812 L 16 19.507812 C 17.851562 19.917969 18.832031 21.339844 18.832031 21.339844 C 18.894531 21.433594 18.9375 21.53125 18.964844 21.636719 C 19.035156 21.367188 18.988281 21.078125 18.832031 20.839844 C 18.832031 20.839844 17.851562 19.417969 16 19.007812 Z M 12.667969 22.640625 C 12.652344 22.722656 12.628906 22.808594 12.628906 22.890625 C 12.628906 23.402344 12.945312 24.03125 14 24.277344 L 14 23.777344 C 13.113281 23.570312 12.761719 23.09375 12.667969 22.640625 Z M 16 23.976562 L 16 24.476562 C 17.949219 24.820312 19.21875 26.144531 19.347656 27.644531 C 19.355469 27.5625 19.371094 27.480469 19.371094 27.394531 C 19.371094 25.792969 18.054688 24.339844 16 23.976562 Z M 11.972656 27.390625 C 11.785156 27.394531 11.601562 27.453125 11.445312 27.558594 C 11.089844 27.792969 10.921875 28.230469 11.027344 28.640625 C 11.089844 28.402344 11.238281 28.195312 11.445312 28.058594 C 11.667969 27.910156 11.9375 27.859375 12.195312 27.910156 C 12.457031 27.964844 12.683594 28.117188 12.832031 28.339844 C 12.832031 28.339844 13.203125 28.914062 14 29.214844 L 14 28.714844 C 13.203125 28.414062 12.832031 27.839844 12.832031 27.839844 C 12.640625 27.550781 12.316406 27.382812 11.972656 27.390625 Z M 17.332031 27.644531 C 17.238281 28.097656 16.890625 28.578125 16 28.785156 L 16 29.285156 C 17.054688 29.039062 17.371094 28.410156 17.371094 27.894531 C 17.371094 27.816406 17.347656 27.730469 17.332031 27.644531 Z M 20.5 30.890625 C 20.222656 30.890625 20 31.113281 20 31.390625 L 20 31.890625 C 20 31.613281 20.222656 31.390625 20.5 31.390625 L 25.5 31.390625 C 25.777344 31.390625 26 31.613281 26 31.890625 L 26 31.390625 C 26 31.113281 25.777344 30.890625 25.5 30.890625 Z M 20.5 30.890625 "/>
<path style=" stroke:none;fill-rule:nonzero;fill:rgb(0%,0%,0%);fill-opacity:0.4;" d="M 7 10 C 7.550781 10 8 10.449219 8 11 C 8 11.550781 7.550781 12 7 12 C 6.449219 12 6 11.550781 6 11 C 6 10.449219 6.449219 10 7 10 Z M 7 10 "/>
<path style=" stroke:none;fill-rule:nonzero;fill:rgb(0%,0%,0%);fill-opacity:0.4;" d="M 7 10 C 6.445312 10 6 10.445312 6 11 C 6 11.089844 6.03125 11.167969 6.050781 11.25 C 6.164062 10.820312 6.535156 10.5 7 10.5 C 7.464844 10.5 7.835938 10.820312 7.949219 11.25 C 7.96875 11.167969 8 11.089844 8 11 C 8 10.445312 7.554688 10 7 10 Z M 7 10 "/>
<path style=" stroke:none;fill-rule:nonzero;fill:rgb(100%,100%,100%);fill-opacity:0.4;" d="M 7 12.5 C 6.445312 12.5 6 12.054688 6 11.5 C 6 11.410156 6.027344 11.332031 6.050781 11.25 C 6.164062 11.679688 6.535156 12 7 12 C 7.464844 12 7.835938 11.679688 7.949219 11.25 C 7.96875 11.332031 8 11.410156 8 11.5 C 8 12.054688 7.554688 12.5 7 12.5 Z M 7 12.5 "/>
<path style=" stroke:none;fill-rule:nonzero;fill:rgb(0%,0%,0%);fill-opacity:0.4;" d="M 57.050781 10 C 57.601562 10 58.050781 10.449219 58.050781 11 C 58.050781 11.550781 57.601562 12 57.050781 12 C 56.5 12 56.050781 11.550781 56.050781 11 C 56.050781 10.449219 56.5 10 57.050781 10 Z M 57.050781 10 "/>
<path style=" stroke:none;fill-rule:nonzero;fill:rgb(0%,0%,0%);fill-opacity:0.4;" d="M 57.050781 10 C 56.496094 10 56.050781 10.445312 56.050781 11 C 56.050781 11.089844 56.082031 11.167969 56.101562 11.25 C 56.214844 10.820312 56.585938 10.5 57.050781 10.5 C 57.515625 10.5 57.886719 10.820312 58 11.25 C 58.023438 11.167969 58.050781 11.089844 58.050781 11 C 58.050781 10.445312 57.605469 10 57.050781 10 Z M 57.050781 10 "/>
<path style=" stroke:none;fill-rule:nonzero;fill:rgb(100%,100%,100%);fill-opacity:0.4;" d="M 57.050781 12.5 C 56.496094 12.5 56.050781 12.054688 56.050781 11.5 C 56.050781 11.410156 56.078125 11.332031 56.101562 11.25 C 56.214844 11.679688 56.585938 12 57.050781 12 C 57.515625 12 57.886719 11.679688 58 11.25 C 58.023438 11.332031 58.050781 11.410156 58.050781 11.5 C 58.050781 12.054688 57.605469 12.5 57.050781 12.5 Z M 57.050781 12.5 "/>
<path style=" stroke:none;fill-rule:nonzero;fill:rgb(0%,0%,0%);fill-opacity:0.4;" d="M 7 51.5 C 7.550781 51.5 8 51.949219 8 52.5 C 8 53.050781 7.550781 53.5 7 53.5 C 6.449219 53.5 6 53.050781 6 52.5 C 6 51.949219 6.449219 51.5 7 51.5 Z M 7 51.5 "/>
<path style=" stroke:none;fill-rule:nonzero;fill:rgb(0%,0%,0%);fill-opacity:0.4;" d="M 7 51.5 C 6.445312 51.5 6 51.945312 6 52.5 C 6 52.589844 6.027344 52.667969 6.050781 52.75 C 6.164062 52.320312 6.535156 52 7 52 C 7.464844 52 7.835938 52.320312 7.949219 52.75 C 7.96875 52.667969 8 52.589844 8 52.5 C 8 51.945312 7.554688 51.5 7 51.5 Z M 7 51.5 "/>
<path style=" stroke:none;fill-rule:nonzero;fill:rgb(100%,100%,100%);fill-opacity:0.4;" d="M 7 54 C 6.445312 54 6 53.554688 6 53 C 6 52.910156 6.027344 52.832031 6.050781 52.75 C 6.164062 53.179688 6.535156 53.5 7 53.5 C 7.464844 53.5 7.835938 53.179688 7.949219 52.75 C 7.96875 52.832031 8 52.910156 8 53 C 8 53.554688 7.554688 54 7 54 Z M 7 54 "/>
<path style=" stroke:none;fill-rule:nonzero;fill:rgb(0%,0%,0%);fill-opacity:0.4;" d="M 57.050781 51.5 C 57.601562 51.5 58.050781 51.949219 58.050781 52.5 C 58.050781 53.050781 57.601562 53.5 57.050781 53.5 C 56.5 53.5 56.050781 53.050781 56.050781 52.5 C 56.050781 51.949219 56.5 51.5 57.050781 51.5 Z M 57.050781 51.5 "/>
<path style=" stroke:none;fill-rule:nonzero;fill:rgb(0%,0%,0%);fill-opacity:0.4;" d="M 57.050781 51.5 C 56.496094 51.5 56.050781 51.945312 56.050781 52.5 C 56.050781 52.589844 56.082031 52.667969 56.101562 52.75 C 56.214844 52.320312 56.585938 52 57.050781 52 C 57.515625 52 57.886719 52.320312 58 52.75 C 58.023438 52.667969 58.050781 52.589844 58.050781 52.5 C 58.050781 51.945312 57.605469 51.5 57.050781 51.5 Z M 57.050781 51.5 "/>
<path style=" stroke:none;fill-rule:nonzero;fill:rgb(100%,100%,100%);fill-opacity:0.4;" d="M 57.050781 54 C 56.496094 54 56.050781 53.554688 56.050781 53 C 56.050781 52.910156 56.078125 52.832031 56.101562 52.75 C 56.214844 53.179688 56.585938 53.5 57.050781 53.5 C 57.515625 53.5 57.886719 53.179688 58 52.75 C 58.023438 52.832031 58.050781 52.910156 58.050781 53 C 58.050781 53.554688 57.605469 54 57.050781 54 Z M 57.050781 54 "/>
<path style=" stroke:none;fill-rule:nonzero;fill:rgb(100%,100%,100%);fill-opacity:0.4;" d="M 8 8 C 5.785156 8 4 9.785156 4 12 L 4 12.96875 C 4 10.753906 5.785156 8.96875 8 8.96875 L 56 8.96875 C 58.214844 8.96875 60 10.753906 60 12.96875 L 60 12 C 60 9.785156 58.214844 8 56 8 Z M 8 8 "/>
<path style=" stroke:none;fill-rule:nonzero;fill:rgb(0.392157%,0.392157%,0.392157%);fill-opacity:0.4;" d="M 8 55.992188 C 5.785156 55.992188 4 54.207031 4 51.992188 L 4 51.023438 C 4 53.238281 5.785156 55.023438 8 55.023438 L 56 55.023438 C 58.214844 55.023438 60 53.238281 60 51.023438 L 60 51.992188 C 60 54.207031 58.214844 55.992188 56 55.992188 Z M 8 55.992188 "/>
<path style=" stroke:none;fill-rule:nonzero;fill:rgb(0%,0%,0%);fill-opacity:0.2;" d="M 4 52 L 4 53.5 C 4 55.714844 5.785156 57.5 8 57.5 L 56 57.5 C 58.214844 57.5 60 55.714844 60 53.5 L 60 52 C 60 54.214844 58.214844 56 56 56 L 8 56 C 5.785156 56 4 54.214844 4 52 Z M 4 52 "/>
</g>
</svg>
