
<svg xmlns="http://www.w3.org/2000/svg" xmlns:xlink="http://www.w3.org/1999/xlink" width="64" height="64" viewBox="0 0 64 64" version="1.1">
<defs>
<radialGradient id="radial0" gradientUnits="userSpaceOnUse" cx="8.466666" cy="-207.59166" fx="8.466666" fy="-207.59166" r="2.116667" gradientTransform="matrix(1.889764,0,0,1.889764,15.999998,422.29925)">
<stop offset="0" style="stop-color:rgb(100%,100%,100%);stop-opacity:1;"/>
<stop offset="1" style="stop-color:rgb(100%,100%,100%);stop-opacity:0;"/>
</radialGradient>
<linearGradient id="linear0" gradientUnits="userSpaceOnUse" x1="8.466666" y1="-199.125" x2="8.466666" y2="-213.941666" gradientTransform="matrix(3.779528,0,0,3.779528,0,812.598468)">
<stop offset="0" style="stop-color:rgb(0%,0%,0%);stop-opacity:0.2;"/>
<stop offset="1" style="stop-color:rgb(100%,100%,100%);stop-opacity:0;"/>
</linearGradient>
</defs>
<g id="surface1">
<path style=" stroke:none;fill-rule:nonzero;fill:rgb(38.039216%,38.039216%,38.039216%);fill-opacity:1;" d="M 32 4 C 47.460938 4 60 16.535156 60 32 C 60 47.460938 47.460938 59.996094 32 59.996094 C 16.539062 59.996094 4 47.460938 4 32 C 4 16.535156 16.539062 4 32 4 Z M 32 4 "/>
<path style=" stroke:none;fill-rule:nonzero;fill:rgb(93.333334%,93.333334%,93.333334%);fill-opacity:1;" d="M 32 8 C 45.253906 8 56 18.746094 56 32 C 56 45.25 45.253906 55.996094 32 55.996094 C 18.746094 55.996094 8 45.25 8 32 C 8 18.746094 18.746094 8 32 8 Z M 32 8 "/>
<path style=" stroke:none;fill-rule:nonzero;fill:rgb(0%,0%,0%);fill-opacity:0.2;" d="M 4.015625 32.796875 C 4.007812 33.050781 4 33.304688 4 33.5625 C 4 49.023438 16.539062 61.558594 32 61.558594 C 47.460938 61.558594 60 49.023438 60 33.5625 C 60 33.304688 59.992188 33.050781 59.984375 32.796875 C 59.582031 47.902344 47.207031 60.027344 32 60.027344 C 16.792969 60.027344 4.417969 47.902344 4.015625 32.796875 Z M 4.015625 32.796875 "/>
<path style=" stroke:none;fill-rule:nonzero;fill:rgb(0%,0%,0%);fill-opacity:0.4;" d="M 18.519531 20.308594 C 18.402344 20.800781 18.53125 21.339844 18.917969 21.722656 L 29.878906 32.6875 L 30.066406 32.496094 C 30.03125 32.367188 30.011719 32.234375 30 32.101562 L 18.917969 21.015625 C 18.714844 20.816406 18.585938 20.566406 18.519531 20.308594 Z M 46.09375 25.335938 C 45.992188 25.894531 45.65625 26.40625 45.125 26.710938 L 33 33.710938 L 33 34.417969 L 45.125 27.417969 C 45.875 26.984375 46.238281 26.140625 46.09375 25.335938 Z M 46.09375 25.335938 "/>
<path style=" stroke:none;fill-rule:nonzero;fill:rgb(38.039216%,38.039216%,38.039216%);fill-opacity:1;" d="M 31.472656 9.5 C 31.210938 9.511719 31 9.730469 31 10 L 31 16 C 31 16.277344 31.222656 16.5 31.5 16.5 L 32.5 16.5 C 32.777344 16.5 33 16.277344 33 16 L 33 10 C 33 9.722656 32.777344 9.5 32.5 9.5 L 31.5 9.5 C 31.492188 9.5 31.484375 9.5 31.472656 9.5 Z M 21.421875 12.199219 C 21.339844 12.199219 21.257812 12.21875 21.183594 12.265625 L 20.316406 12.765625 C 20.078125 12.902344 19.996094 13.207031 20.136719 13.449219 L 21.886719 16.480469 C 22.023438 16.71875 22.328125 16.800781 22.566406 16.660156 L 23.433594 16.160156 C 23.671875 16.023438 23.753906 15.71875 23.613281 15.480469 L 21.863281 12.449219 C 21.769531 12.28125 21.597656 12.191406 21.421875 12.199219 Z M 42.53125 12.199219 C 42.371094 12.207031 42.222656 12.296875 42.136719 12.449219 L 40.386719 15.480469 C 40.246094 15.71875 40.328125 16.023438 40.566406 16.160156 L 41.433594 16.660156 C 41.671875 16.800781 41.976562 16.71875 42.113281 16.480469 L 43.863281 13.449219 C 44.003906 13.207031 43.921875 12.902344 43.683594 12.765625 L 42.816406 12.265625 C 42.726562 12.210938 42.628906 12.191406 42.53125 12.199219 Z M 13.1875 20.066406 C 13.015625 20.070312 12.855469 20.160156 12.765625 20.316406 L 12.265625 21.183594 C 12.125 21.421875 12.207031 21.726562 12.449219 21.863281 L 15.480469 23.613281 C 15.71875 23.753906 16.023438 23.671875 16.160156 23.433594 L 16.660156 22.566406 C 16.800781 22.328125 16.71875 22.023438 16.480469 21.886719 L 13.449219 20.136719 C 13.363281 20.085938 13.273438 20.066406 13.1875 20.066406 Z M 50.789062 20.066406 C 50.707031 20.070312 50.628906 20.089844 50.550781 20.136719 L 47.519531 21.886719 C 47.28125 22.023438 47.199219 22.328125 47.339844 22.566406 L 47.839844 23.433594 C 47.976562 23.671875 48.28125 23.753906 48.519531 23.613281 L 51.550781 21.863281 C 51.792969 21.726562 51.875 21.421875 51.734375 21.183594 L 51.234375 20.316406 C 51.140625 20.152344 50.964844 20.0625 50.789062 20.066406 Z M 9.976562 31 C 9.710938 31.011719 9.5 31.230469 9.5 31.5 L 9.5 32.5 C 9.5 32.777344 9.722656 33 10 33 L 16 33 C 16.277344 33 16.5 32.777344 16.5 32.5 L 16.5 31.5 C 16.5 31.222656 16.277344 31 16 31 L 10 31 C 9.992188 31 9.984375 31 9.976562 31 Z M 47.972656 31 C 47.710938 31.011719 47.5 31.230469 47.5 31.5 L 47.5 32.5 C 47.5 32.777344 47.722656 33 48 33 L 54 33 C 54.277344 33 54.5 32.777344 54.5 32.5 L 54.5 31.5 C 54.5 31.222656 54.277344 31 54 31 L 48 31 C 47.992188 31 47.984375 31 47.972656 31 Z M 15.714844 40.316406 C 15.632812 40.320312 15.554688 40.339844 15.480469 40.386719 L 12.449219 42.136719 C 12.207031 42.273438 12.125 42.578125 12.265625 42.816406 L 12.765625 43.683594 C 12.902344 43.921875 13.207031 44.003906 13.449219 43.863281 L 16.480469 42.113281 C 16.71875 41.976562 16.800781 41.671875 16.660156 41.433594 L 16.160156 40.566406 C 16.066406 40.402344 15.890625 40.3125 15.714844 40.316406 Z M 48.261719 40.316406 C 48.089844 40.320312 47.929688 40.410156 47.839844 40.566406 L 47.339844 41.433594 C 47.199219 41.671875 47.28125 41.976562 47.519531 42.113281 L 50.550781 43.863281 C 50.792969 44.003906 51.097656 43.921875 51.234375 43.683594 L 51.734375 42.816406 C 51.875 42.578125 51.792969 42.273438 51.550781 42.136719 L 48.519531 40.386719 C 48.4375 40.335938 48.347656 40.316406 48.261719 40.316406 Z M 22.28125 47.269531 C 22.121094 47.28125 21.972656 47.371094 21.886719 47.519531 L 20.136719 50.550781 C 19.996094 50.792969 20.078125 51.097656 20.316406 51.234375 L 21.183594 51.734375 C 21.421875 51.875 21.726562 51.792969 21.863281 51.550781 L 23.613281 48.519531 C 23.753906 48.28125 23.671875 47.976562 23.433594 47.839844 L 22.566406 47.339844 C 22.476562 47.285156 22.378906 47.265625 22.28125 47.269531 Z M 41.671875 47.269531 C 41.589844 47.273438 41.507812 47.292969 41.433594 47.339844 L 40.566406 47.839844 C 40.328125 47.976562 40.246094 48.28125 40.386719 48.519531 L 42.136719 51.550781 C 42.273438 51.792969 42.578125 51.875 42.816406 51.734375 L 43.683594 51.234375 C 43.921875 51.097656 44.003906 50.792969 43.863281 50.550781 L 42.113281 47.519531 C 42.019531 47.355469 41.847656 47.265625 41.671875 47.269531 Z M 31.472656 47.5 C 31.210938 47.511719 31 47.730469 31 48 L 31 54 C 31 54.277344 31.222656 54.5 31.5 54.5 L 32.5 54.5 C 32.777344 54.5 33 54.277344 33 54 L 33 48 C 33 47.722656 32.777344 47.5 32.5 47.5 L 31.5 47.5 C 31.492188 47.5 31.484375 47.5 31.472656 47.5 Z M 31.472656 47.5 "/>
<path style=" stroke:none;fill-rule:nonzero;fill:rgb(100%,100%,100%);fill-opacity:0.4;" d="M 32 4 C 16.539062 4 4 16.535156 4 32 C 4 32.164062 4.003906 32.332031 4.007812 32.5 C 4.273438 17.265625 16.703125 5 32 5 C 47.296875 5 59.726562 17.265625 59.992188 32.5 C 59.996094 32.332031 60 32.164062 60 32 C 60 16.535156 47.460938 4 32 4 Z M 32 4 "/>
<path style=" stroke:none;fill-rule:nonzero;fill:rgb(0.392157%,0.392157%,0.392157%);fill-opacity:0.4;" d="M 32 60 C 16.539062 60 4.003906 47.464844 4.003906 32 C 4.003906 31.835938 4.003906 31.667969 4.007812 31.5 C 4.273438 46.734375 16.703125 59 32 59 C 47.296875 59 59.726562 46.734375 59.992188 31.5 C 59.996094 31.667969 59.996094 31.835938 59.996094 32 C 59.996094 47.464844 47.460938 60 32 60 Z M 32 60 "/>
<path style=" stroke:none;fill-rule:nonzero;fill:rgb(0%,0%,0%);fill-opacity:0.4;" d="M 32 8 C 18.746094 8 8 18.746094 8 32 C 8 32.164062 8.003906 32.332031 8.007812 32.5 C 8.273438 19.476562 18.914062 9 32 9 C 45.085938 9 55.726562 19.476562 55.992188 32.5 C 55.996094 32.332031 56 32.164062 56 32 C 56 18.746094 45.253906 8 32 8 Z M 32 8 "/>
<path style=" stroke:none;fill-rule:nonzero;fill:rgb(100%,100%,100%);fill-opacity:0.4;" d="M 8.007812 32.460938 C 8.003906 32.617188 8 32.769531 8 32.925781 C 8 46.179688 18.746094 56.921875 32 56.921875 C 45.253906 56.921875 56 46.179688 56 32.925781 C 56 32.769531 55.996094 32.617188 55.992188 32.460938 C 55.746094 45.5 45.097656 55.996094 32 55.996094 C 18.902344 55.996094 8.253906 45.5 8.007812 32.460938 Z M 8.007812 32.460938 "/>
<path style=" stroke:none;fill-rule:nonzero;fill:rgb(100%,100%,100%);fill-opacity:0.4;" d="M 31.472656 9.5 C 31.210938 9.511719 31 9.730469 31 10 L 31 10.5 C 31 10.230469 31.210938 10.015625 31.472656 10 C 31.484375 10 31.492188 10 31.5 10 L 32.5 10 C 32.777344 10 33 10.222656 33 10.5 L 33 10 C 33 9.722656 32.777344 9.5 32.5 9.5 L 31.5 9.5 C 31.492188 9.5 31.484375 9.5 31.472656 9.5 Z M 21.421875 12.199219 C 21.339844 12.199219 21.257812 12.21875 21.183594 12.265625 L 20.316406 12.765625 C 20.078125 12.902344 19.996094 13.207031 20.136719 13.449219 C 20.175781 13.375 20.238281 13.308594 20.316406 13.265625 L 21.183594 12.765625 C 21.257812 12.71875 21.339844 12.699219 21.421875 12.699219 C 21.597656 12.691406 21.769531 12.78125 21.863281 12.949219 L 23.609375 15.96875 C 23.695312 15.820312 23.707031 15.636719 23.613281 15.480469 L 21.863281 12.449219 C 21.769531 12.28125 21.597656 12.191406 21.421875 12.199219 Z M 42.53125 12.199219 C 42.371094 12.207031 42.222656 12.296875 42.136719 12.449219 L 40.386719 15.480469 C 40.292969 15.636719 40.304688 15.820312 40.390625 15.96875 L 42.136719 12.949219 C 42.222656 12.796875 42.371094 12.707031 42.53125 12.699219 C 42.628906 12.691406 42.726562 12.710938 42.816406 12.765625 L 43.683594 13.265625 C 43.761719 13.308594 43.824219 13.375 43.863281 13.449219 C 44.003906 13.207031 43.921875 12.902344 43.683594 12.765625 L 42.816406 12.265625 C 42.726562 12.210938 42.628906 12.191406 42.53125 12.199219 Z M 13.1875 20.066406 C 13.015625 20.070312 12.855469 20.160156 12.765625 20.316406 L 12.265625 21.183594 C 12.171875 21.34375 12.1875 21.527344 12.269531 21.671875 L 12.765625 20.816406 C 12.855469 20.660156 13.015625 20.570312 13.1875 20.566406 C 13.273438 20.566406 13.363281 20.585938 13.449219 20.636719 L 16.480469 22.386719 C 16.558594 22.429688 16.617188 22.496094 16.660156 22.570312 L 16.660156 22.566406 C 16.800781 22.328125 16.71875 22.023438 16.480469 21.886719 L 13.449219 20.136719 C 13.363281 20.085938 13.273438 20.066406 13.1875 20.066406 Z M 50.789062 20.066406 C 50.707031 20.070312 50.628906 20.089844 50.550781 20.136719 L 47.519531 21.886719 C 47.28125 22.023438 47.199219 22.328125 47.339844 22.566406 L 47.339844 22.570312 C 47.382812 22.496094 47.441406 22.429688 47.519531 22.386719 L 50.550781 20.636719 C 50.628906 20.59375 50.707031 20.570312 50.789062 20.566406 C 50.964844 20.5625 51.140625 20.652344 51.234375 20.816406 L 51.730469 21.671875 C 51.8125 21.527344 51.828125 21.34375 51.734375 21.183594 L 51.234375 20.316406 C 51.140625 20.152344 50.964844 20.0625 50.789062 20.066406 Z M 9.976562 31 C 9.710938 31.011719 9.5 31.230469 9.5 31.5 L 9.5 32 C 9.5 31.730469 9.710938 31.515625 9.976562 31.5 C 9.984375 31.5 9.992188 31.5 10 31.5 L 16 31.5 C 16.277344 31.5 16.5 31.722656 16.5 32 L 16.5 31.5 C 16.5 31.222656 16.277344 31 16 31 L 10 31 C 9.992188 31 9.984375 31 9.976562 31 Z M 47.972656 31 C 47.710938 31.011719 47.5 31.230469 47.5 31.5 L 47.5 32 C 47.5 31.730469 47.710938 31.515625 47.972656 31.5 C 47.984375 31.5 47.992188 31.5 48 31.5 L 54 31.5 C 54.277344 31.5 54.5 31.722656 54.5 32 L 54.5 31.5 C 54.5 31.222656 54.277344 31 54 31 L 48 31 C 47.992188 31 47.984375 31 47.972656 31 Z M 15.714844 40.316406 C 15.632812 40.320312 15.554688 40.339844 15.480469 40.386719 L 12.449219 42.136719 C 12.207031 42.273438 12.125 42.578125 12.265625 42.816406 L 12.265625 42.820312 C 12.308594 42.746094 12.367188 42.679688 12.449219 42.636719 L 15.480469 40.886719 C 15.554688 40.84375 15.632812 40.820312 15.714844 40.816406 C 15.890625 40.8125 16.066406 40.902344 16.160156 41.066406 L 16.65625 41.921875 C 16.738281 41.777344 16.753906 41.59375 16.660156 41.433594 L 16.160156 40.566406 C 16.066406 40.402344 15.890625 40.3125 15.714844 40.316406 Z M 48.261719 40.316406 C 48.089844 40.320312 47.929688 40.410156 47.839844 40.566406 L 47.339844 41.433594 C 47.246094 41.59375 47.261719 41.777344 47.34375 41.921875 L 47.839844 41.066406 C 47.929688 40.910156 48.089844 40.820312 48.261719 40.816406 C 48.347656 40.816406 48.4375 40.835938 48.519531 40.886719 L 51.550781 42.636719 C 51.632812 42.679688 51.691406 42.746094 51.734375 42.820312 L 51.734375 42.816406 C 51.875 42.578125 51.792969 42.273438 51.550781 42.136719 L 48.519531 40.386719 C 48.4375 40.335938 48.347656 40.316406 48.261719 40.316406 Z M 22.28125 47.269531 C 22.121094 47.28125 21.972656 47.371094 21.886719 47.519531 L 20.136719 50.550781 C 20.042969 50.710938 20.054688 50.894531 20.140625 51.046875 L 21.886719 48.019531 C 21.972656 47.871094 22.121094 47.78125 22.28125 47.769531 C 22.378906 47.765625 22.476562 47.785156 22.566406 47.839844 L 23.433594 48.339844 C 23.511719 48.382812 23.574219 48.449219 23.613281 48.519531 C 23.753906 48.28125 23.671875 47.976562 23.433594 47.839844 L 22.566406 47.339844 C 22.476562 47.285156 22.378906 47.265625 22.28125 47.269531 Z M 41.671875 47.269531 C 41.589844 47.273438 41.507812 47.292969 41.433594 47.339844 L 40.566406 47.839844 C 40.328125 47.976562 40.246094 48.28125 40.386719 48.519531 C 40.425781 48.449219 40.488281 48.382812 40.566406 48.339844 L 41.433594 47.839844 C 41.507812 47.792969 41.589844 47.773438 41.671875 47.769531 C 41.847656 47.765625 42.019531 47.855469 42.113281 48.019531 L 43.859375 51.046875 C 43.945312 50.894531 43.957031 50.710938 43.863281 50.550781 L 42.113281 47.519531 C 42.019531 47.355469 41.847656 47.265625 41.671875 47.269531 Z M 31.472656 47.5 C 31.210938 47.511719 31 47.730469 31 48 L 31 48.5 C 31 48.230469 31.210938 48.015625 31.472656 48 C 31.484375 48 31.492188 48 31.5 48 L 32.5 48 C 32.777344 48 33 48.222656 33 48.5 L 33 48 C 33 47.722656 32.777344 47.5 32.5 47.5 L 31.5 47.5 C 31.492188 47.5 31.484375 47.5 31.472656 47.5 Z M 31.472656 47.5 "/>
<path style=" stroke:none;fill-rule:nonzero;fill:rgb(40.000001%,73.333335%,41.568628%);fill-opacity:1;" d="M 18.917969 18.917969 C 19.503906 18.332031 20.453125 18.332031 21.039062 18.917969 L 33.0625 30.9375 C 33.644531 31.523438 33.644531 32.476562 33.0625 33.0625 C 32.476562 33.644531 31.523438 33.644531 30.9375 33.0625 L 18.917969 21.039062 C 18.332031 20.453125 18.332031 19.503906 18.917969 18.917969 Z M 18.917969 18.917969 "/>
<path style=" stroke:none;fill-rule:nonzero;fill:rgb(40.000001%,73.333335%,41.568628%);fill-opacity:1;" d="M 45.855469 24 C 46.410156 24.957031 46.082031 26.179688 45.125 26.730469 L 33 33.730469 C 32.042969 34.285156 30.820312 33.957031 30.269531 33 C 29.714844 32.042969 30.042969 30.820312 31 30.269531 L 43.125 23.269531 C 44.082031 22.714844 45.304688 23.042969 45.855469 24 Z M 45.855469 24 "/>
<path style=" stroke:none;fill-rule:nonzero;fill:rgb(100%,100%,100%);fill-opacity:0.4;" d="M 19.980469 18.480469 C 19.59375 18.480469 19.210938 18.625 18.917969 18.917969 C 18.53125 19.304688 18.402344 19.847656 18.527344 20.339844 C 18.59375 20.089844 18.722656 19.855469 18.917969 19.65625 C 19.210938 19.363281 19.59375 19.21875 19.980469 19.21875 C 20.363281 19.21875 20.746094 19.363281 21.039062 19.65625 L 31.878906 30.5 L 43.125 24.007812 C 44.085938 23.453125 45.300781 23.78125 45.855469 24.738281 C 45.96875 24.9375 46.042969 25.144531 46.085938 25.355469 C 46.167969 24.90625 46.101562 24.429688 45.855469 24 C 45.300781 23.039062 44.085938 22.714844 43.125 23.265625 L 31.878906 29.761719 L 21.039062 18.917969 C 20.746094 18.625 20.363281 18.480469 19.980469 18.480469 Z M 29.863281 32.722656 L 30.066406 33.257812 L 30 32.863281 Z M 29.863281 32.722656 "/>
<path style=" stroke:none;fill-rule:nonzero;fill:rgb(0%,0%,0%);fill-opacity:0.4;" d="M 31.476562 55 C 31.210938 54.984375 31 54.769531 31 54.5 L 31 54 C 31 54.269531 31.210938 54.484375 31.476562 54.5 C 31.484375 54.5 31.492188 54.5 31.5 54.5 L 32.5 54.5 C 32.777344 54.5 33 54.277344 33 54 L 33 54.5 C 33 54.777344 32.777344 55 32.5 55 L 31.5 55 C 31.492188 55 31.484375 55 31.472656 55 Z M 21.421875 52.304688 C 21.339844 52.300781 21.257812 52.28125 21.183594 52.238281 L 20.316406 51.738281 C 20.078125 51.597656 19.996094 51.292969 20.136719 51.054688 C 20.175781 51.125 20.238281 51.191406 20.316406 51.238281 L 21.183594 51.738281 C 21.257812 51.78125 21.339844 51.800781 21.421875 51.804688 C 21.597656 51.808594 21.769531 51.71875 21.867188 51.554688 L 23.613281 48.53125 C 23.695312 48.679688 23.707031 48.863281 23.613281 49.023438 L 21.863281 52.054688 C 21.769531 52.21875 21.597656 52.308594 21.417969 52.304688 Z M 42.53125 52.304688 C 42.371094 52.292969 42.222656 52.203125 42.136719 52.054688 L 40.386719 49.023438 C 40.292969 48.863281 40.304688 48.679688 40.386719 48.53125 L 42.132812 51.554688 C 42.222656 51.703125 42.371094 51.792969 42.53125 51.804688 C 42.628906 51.808594 42.726562 51.789062 42.816406 51.738281 L 43.683594 51.238281 C 43.761719 51.191406 43.824219 51.125 43.863281 51.050781 C 44.003906 51.292969 43.921875 51.597656 43.683594 51.734375 L 42.816406 52.234375 C 42.726562 52.289062 42.628906 52.308594 42.53125 52.304688 Z M 13.1875 44.433594 C 13.015625 44.429688 12.855469 44.339844 12.765625 44.183594 L 12.265625 43.316406 C 12.171875 43.15625 12.1875 42.976562 12.269531 42.828125 L 12.761719 43.683594 C 12.855469 43.839844 13.015625 43.929688 13.183594 43.933594 C 13.273438 43.9375 13.363281 43.914062 13.445312 43.867188 L 16.476562 42.117188 C 16.558594 42.070312 16.617188 42.003906 16.660156 41.929688 L 16.660156 41.933594 C 16.800781 42.171875 16.71875 42.476562 16.476562 42.613281 L 13.445312 44.363281 C 13.363281 44.414062 13.273438 44.433594 13.183594 44.433594 Z M 50.789062 44.433594 C 50.707031 44.429688 50.628906 44.40625 50.550781 44.367188 L 47.519531 42.617188 C 47.28125 42.476562 47.199219 42.171875 47.339844 41.933594 L 47.339844 41.929688 C 47.382812 42.003906 47.441406 42.070312 47.523438 42.117188 L 50.554688 43.867188 C 50.628906 43.90625 50.707031 43.933594 50.789062 43.933594 C 50.964844 43.9375 51.140625 43.847656 51.238281 43.683594 L 51.730469 42.828125 C 51.8125 42.976562 51.828125 43.15625 51.734375 43.316406 L 51.234375 44.183594 C 51.140625 44.347656 50.964844 44.4375 50.789062 44.433594 Z M 9.976562 33.5 C 9.710938 33.484375 9.5 33.269531 9.5 33 L 9.5 32.5 C 9.5 32.769531 9.710938 32.984375 9.976562 33 C 9.984375 33 9.992188 33 10 33 L 16 33 C 16.277344 33 16.5 32.777344 16.5 32.5 L 16.5 33 C 16.5 33.277344 16.277344 33.5 16 33.5 L 10 33.5 C 9.992188 33.5 9.984375 33.5 9.976562 33.5 Z M 47.976562 33.5 C 47.710938 33.484375 47.5 33.269531 47.5 33 L 47.5 32.5 C 47.5 32.769531 47.710938 32.984375 47.976562 33 C 47.984375 33 47.992188 33 48 33 L 54 33 C 54.277344 33 54.5 32.777344 54.5 32.5 L 54.5 33 C 54.5 33.277344 54.277344 33.5 54 33.5 L 48 33.5 C 47.992188 33.5 47.984375 33.5 47.976562 33.5 Z M 15.714844 24.183594 C 15.632812 24.179688 15.554688 24.15625 15.480469 24.117188 L 12.449219 22.367188 C 12.207031 22.226562 12.125 21.921875 12.265625 21.683594 L 12.265625 21.679688 C 12.308594 21.753906 12.367188 21.820312 12.449219 21.867188 L 15.480469 23.617188 C 15.554688 23.65625 15.632812 23.683594 15.714844 23.683594 C 15.890625 23.6875 16.066406 23.597656 16.160156 23.433594 L 16.65625 22.578125 C 16.738281 22.726562 16.753906 22.90625 16.660156 23.066406 L 16.160156 23.933594 C 16.066406 24.097656 15.890625 24.1875 15.714844 24.183594 Z M 48.261719 24.183594 C 48.089844 24.179688 47.929688 24.089844 47.839844 23.933594 L 47.339844 23.066406 C 47.246094 22.90625 47.261719 22.726562 47.34375 22.578125 L 47.835938 23.433594 C 47.929688 23.589844 48.089844 23.679688 48.257812 23.683594 C 48.347656 23.6875 48.4375 23.664062 48.519531 23.617188 L 51.550781 21.867188 C 51.632812 21.820312 51.691406 21.753906 51.734375 21.679688 L 51.734375 21.683594 C 51.875 21.921875 51.792969 22.226562 51.550781 22.363281 L 48.519531 24.113281 C 48.4375 24.164062 48.347656 24.183594 48.257812 24.183594 Z M 22.28125 17.230469 C 22.121094 17.21875 21.972656 17.128906 21.886719 16.980469 L 20.136719 13.949219 C 20.042969 13.789062 20.054688 13.605469 20.136719 13.457031 L 21.882812 16.480469 C 21.972656 16.628906 22.121094 16.71875 22.28125 16.730469 C 22.378906 16.734375 22.476562 16.714844 22.566406 16.664062 L 23.433594 16.164062 C 23.511719 16.117188 23.574219 16.050781 23.613281 15.976562 C 23.753906 16.21875 23.671875 16.523438 23.433594 16.660156 L 22.566406 17.160156 C 22.476562 17.214844 22.378906 17.234375 22.28125 17.230469 Z M 41.671875 17.230469 C 41.589844 17.226562 41.507812 17.207031 41.433594 17.164062 L 40.566406 16.664062 C 40.328125 16.523438 40.246094 16.21875 40.382812 15.980469 C 40.425781 16.050781 40.488281 16.117188 40.566406 16.164062 L 41.433594 16.664062 C 41.507812 16.707031 41.589844 16.726562 41.671875 16.730469 C 41.847656 16.734375 42.019531 16.644531 42.117188 16.480469 L 43.863281 13.457031 C 43.945312 13.605469 43.957031 13.789062 43.863281 13.949219 L 42.113281 16.980469 C 42.019531 17.144531 41.847656 17.234375 41.667969 17.230469 Z M 31.476562 17 C 31.210938 16.984375 31 16.769531 31 16.5 L 31 16 C 31 16.269531 31.210938 16.484375 31.476562 16.5 C 31.484375 16.5 31.492188 16.5 31.5 16.5 L 32.5 16.5 C 32.777344 16.5 33 16.277344 33 16 L 33 16.5 C 33 16.777344 32.777344 17 32.5 17 L 31.5 17 C 31.492188 17 31.484375 17 31.472656 17 Z M 31.476562 17 "/>
<path style=" stroke:none;fill-rule:nonzero;fill:rgb(74.117649%,74.117649%,74.117649%);fill-opacity:1;" d="M 32 28 C 34.210938 28 36 29.789062 36 32 C 36 34.210938 34.210938 36 32 36 C 29.789062 36 28 34.210938 28 32 C 28 29.789062 29.789062 28 32 28 Z M 32 28 "/>
<path style=" stroke:none;fill-rule:nonzero;fill:rgb(74.117649%,74.117649%,74.117649%);fill-opacity:0.996078;" d="M 32 28 C 34.210938 28 36 29.789062 36 32 C 36 34.210938 34.210938 36 32 36 C 29.789062 36 28 34.210938 28 32 C 28 29.789062 29.789062 28 32 28 Z M 32 28 "/>
<path style=" stroke:none;fill-rule:nonzero;fill:rgb(0%,0%,0%);fill-opacity:0.4;" d="M 28.03125 32.5 C 28.007812 32.664062 28 32.832031 28 33 C 28 35.214844 29.785156 37 32 37 C 34.214844 37 36 35.214844 36 33 C 36 32.832031 35.992188 32.664062 35.96875 32.5 C 35.726562 34.480469 34.046875 36 32 36 C 29.953125 36 28.273438 34.480469 28.03125 32.5 Z M 28.03125 32.5 "/>
<path style=" stroke:none;fill-rule:nonzero;fill:rgb(0%,0%,0%);fill-opacity:0.4;" d="M 28.03125 32.5 C 28.007812 32.664062 28 32.832031 28 33 C 28 35.214844 29.785156 37 32 37 C 34.214844 37 36 35.214844 36 33 C 36 32.832031 35.992188 32.664062 35.96875 32.5 C 35.726562 34.480469 34.046875 36 32 36 C 29.953125 36 28.273438 34.480469 28.03125 32.5 Z M 28.03125 32.5 "/>
<path style=" stroke:none;fill-rule:nonzero;fill:rgb(99.607843%,99.607843%,99.607843%);fill-opacity:0.4;" d="M 28.03125 32.5 C 28.007812 32.335938 28 32.167969 28 32 C 28 29.785156 29.785156 28 32 28 C 34.214844 28 36 29.785156 36 32 C 36 32.167969 35.992188 32.335938 35.972656 32.5 C 35.726562 30.519531 34.046875 29 32 29 C 29.953125 29 28.273438 30.519531 28.03125 32.5 Z M 28.03125 32.5 "/>
<path style=" stroke:none;fill-rule:nonzero;fill:url(#radial0);" d="M 32 28 C 34.210938 28 36 29.789062 36 32 C 36 34.210938 34.210938 36 32 36 C 29.789062 36 28 34.210938 28 32 C 28 29.789062 29.789062 28 32 28 Z M 32 28 "/>
<path style=" stroke:none;fill-rule:nonzero;fill:url(#linear0);" d="M 32 4 C 47.460938 4 60 16.535156 60 32 C 60 47.460938 47.460938 59.996094 32 59.996094 C 16.539062 59.996094 4 47.460938 4 32 C 4 16.535156 16.539062 4 32 4 Z M 32 4 "/>
</g>
</svg>
