
<svg xmlns="http://www.w3.org/2000/svg" xmlns:xlink="http://www.w3.org/1999/xlink" width="64" height="64" viewBox="0 0 64 64" version="1.1">
<defs>
<linearGradient id="linear0" gradientUnits="userSpaceOnUse" x1="8.466666" y1="-199.125" x2="8.466666" y2="-213.941666" gradientTransform="matrix(3.779528,0,0,3.779528,0,812.598468)">
<stop offset="0" style="stop-color:rgb(0%,0%,0%);stop-opacity:0.2;"/>
<stop offset="1" style="stop-color:rgb(100%,100%,100%);stop-opacity:0;"/>
</linearGradient>
</defs>
<g id="surface1">
<path style=" stroke:none;fill-rule:nonzero;fill:rgb(100%,43.137255%,25.882354%);fill-opacity:1;" d="M 46 7.753906 C 59.394531 15.484375 63.980469 32.609375 56.246094 46 C 48.519531 59.390625 31.394531 63.980469 18.003906 56.246094 C 4.613281 48.515625 0.0234375 31.390625 7.757812 18.003906 C 15.488281 4.609375 32.609375 0.0234375 46 7.753906 Z M 46 7.753906 "/>
<path style=" stroke:none;fill-rule:nonzero;fill:rgb(100%,100%,100%);fill-opacity:0.4;" d="M 32 4 C 16.539062 4 4 16.535156 4 32 C 4 32.164062 4.003906 32.332031 4.007812 32.5 C 4.273438 17.265625 16.703125 5 32 5 C 47.296875 5 59.726562 17.265625 59.992188 32.5 C 59.996094 32.332031 60 32.164062 60 32 C 60 16.535156 47.460938 4 32 4 Z M 32 4 "/>
<path style=" stroke:none;fill-rule:nonzero;fill:rgb(0%,0%,0%);fill-opacity:0.4;" d="M 4.015625 31.492188 C 4.011719 31.660156 4 31.824219 4 31.988281 C 4 47.453125 16.539062 59.988281 32 59.988281 C 47.460938 59.988281 59.996094 47.453125 59.996094 31.988281 C 59.996094 31.824219 59.988281 31.660156 59.984375 31.492188 C 59.71875 46.726562 47.296875 58.996094 32 58.996094 C 16.703125 58.996094 4.28125 46.726562 4.015625 31.492188 Z M 4.015625 31.492188 "/>
<path style=" stroke:none;fill-rule:nonzero;fill:rgb(0%,0%,0%);fill-opacity:0.2;" d="M 4.015625 32.75 C 4.007812 33 4 33.25 4 33.5 C 4 48.960938 16.539062 61.5 32 61.5 C 47.460938 61.5 60 48.960938 60 33.5 C 60 33.25 59.992188 33 59.984375 32.75 C 59.585938 47.863281 47.210938 59.996094 32 59.996094 C 16.789062 59.996094 4.414062 47.863281 4.015625 32.75 Z M 4.015625 32.75 "/>
<path style=" stroke:none;fill-rule:nonzero;fill:rgb(87.843138%,87.843138%,87.843138%);fill-opacity:1;" d="M 40.921875 12.75 C 39.597656 12.746094 38.316406 13.429688 37.605469 14.660156 C 36.546875 16.492188 37.171875 18.820312 39.003906 19.878906 C 40.832031 20.933594 43.160156 20.308594 44.21875 18.480469 C 45.273438 16.648438 44.648438 14.320312 42.820312 13.265625 C 42.21875 12.917969 41.566406 12.75 40.921875 12.75 Z M 31.980469 15.441406 C 29.507812 15.445312 27.070312 16.003906 24.851562 17.066406 L 27.40625 21.5 C 30.621094 20.089844 34.441406 20.183594 37.730469 22.078125 C 41.015625 23.976562 43.003906 27.238281 43.394531 30.726562 L 48.515625 30.726562 C 48.222656 26.988281 46.664062 23.394531 44.011719 20.609375 C 42.429688 21.832031 40.207031 22.042969 38.363281 20.980469 C 36.519531 19.914062 35.59375 17.886719 35.859375 15.902344 C 34.574219 15.59375 33.273438 15.441406 31.980469 15.441406 Z M 22.644531 18.34375 C 20.667969 19.699219 18.957031 21.507812 17.671875 23.730469 C 17.007812 24.878906 16.496094 26.074219 16.132812 27.292969 C 16.335938 27.378906 16.535156 27.472656 16.722656 27.582031 C 18.253906 28.460938 19.277344 30.109375 19.277344 32 C 19.277344 34.132812 17.976562 35.949219 16.125 36.707031 C 17.171875 40.246094 19.40625 43.433594 22.652344 45.648438 L 25.207031 41.222656 C 20.550781 37.808594 19.125 31.394531 22.082031 26.273438 C 22.902344 24.855469 23.972656 23.679688 25.203125 22.769531 Z M 14.089844 28.183594 C 12.019531 28.234375 10.371094 29.917969 10.371094 32 C 10.371094 34.117188 12.070312 35.816406 14.1875 35.816406 C 16.304688 35.816406 18.003906 34.117188 18.003906 32 C 18.003906 29.886719 16.304688 28.183594 14.1875 28.183594 C 14.15625 28.183594 14.121094 28.183594 14.089844 28.183594 Z M 43.394531 33.277344 C 43.222656 34.796875 42.738281 36.3125 41.921875 37.730469 C 38.964844 42.851562 32.703125 44.820312 27.414062 42.496094 L 24.855469 46.921875 C 28.394531 48.625 32.277344 48.964844 35.859375 48.105469 C 35.59375 46.121094 36.519531 44.089844 38.363281 43.023438 C 40.003906 42.078125 41.945312 42.140625 43.46875 43.023438 C 43.65625 43.136719 43.839844 43.253906 44.011719 43.390625 C 44.882812 42.464844 45.664062 41.425781 46.328125 40.269531 C 47.613281 38.050781 48.324219 35.660156 48.511719 33.277344 Z M 40.875 43.609375 C 40.5625 43.613281 40.242188 43.660156 39.921875 43.746094 C 37.878906 44.289062 36.679688 46.375 37.222656 48.417969 C 37.769531 50.460938 39.855469 51.664062 41.902344 51.117188 C 43.941406 50.574219 45.144531 48.484375 44.597656 46.441406 C 44.132812 44.714844 42.578125 43.589844 40.875 43.609375 Z M 40.875 43.609375 "/>
<path style=" stroke:none;fill-rule:nonzero;fill:rgb(100%,100%,100%);fill-opacity:0.6;" d="M 40.921875 12.75 C 39.597656 12.746094 38.316406 13.429688 37.605469 14.660156 C 37.167969 15.417969 37.023438 16.257812 37.125 17.0625 C 37.191406 16.585938 37.347656 16.113281 37.605469 15.671875 C 38.316406 14.4375 39.597656 13.753906 40.921875 13.757812 C 41.566406 13.757812 42.21875 13.925781 42.820312 14.273438 C 43.890625 14.890625 44.546875 15.941406 44.699219 17.074219 C 44.894531 15.585938 44.203125 14.0625 42.820312 13.265625 C 42.21875 12.917969 41.566406 12.75 40.921875 12.75 Z M 31.980469 15.441406 C 29.507812 15.445312 27.070312 16.003906 24.851562 17.066406 L 25.3125 17.863281 C 27.40625 16.9375 29.675781 16.453125 31.980469 16.453125 C 33.265625 16.449219 34.5625 16.597656 35.839844 16.90625 C 35.816406 16.570312 35.816406 16.238281 35.859375 15.902344 C 34.574219 15.59375 33.273438 15.441406 31.980469 15.441406 Z M 35.847656 17.027344 C 35.632812 18.972656 36.554688 20.945312 38.363281 21.984375 C 40.207031 23.050781 42.429688 22.839844 44.011719 21.621094 C 46.425781 24.152344 47.933594 27.355469 48.40625 30.726562 L 48.515625 30.726562 C 48.222656 26.988281 46.664062 23.394531 44.011719 20.609375 C 42.429688 21.832031 40.207031 22.042969 38.363281 20.980469 C 36.867188 20.117188 35.992188 18.621094 35.847656 17.027344 Z M 22.644531 18.34375 C 20.667969 19.699219 18.957031 21.507812 17.671875 23.730469 C 17.007812 24.878906 16.496094 26.074219 16.132812 27.292969 C 16.230469 27.335938 16.324219 27.386719 16.421875 27.433594 C 16.75 26.515625 17.167969 25.613281 17.671875 24.738281 C 18.957031 22.515625 20.667969 20.707031 22.644531 19.347656 L 24.800781 23.082031 C 24.933594 22.976562 25.070312 22.871094 25.203125 22.769531 Z M 14.089844 28.183594 C 12.019531 28.234375 10.371094 29.917969 10.371094 32 C 10.371094 32.171875 10.382812 32.332031 10.40625 32.496094 C 10.648438 30.65625 12.191406 29.238281 14.089844 29.191406 C 14.121094 29.191406 14.15625 29.191406 14.1875 29.191406 C 16.128906 29.191406 17.71875 30.625 17.96875 32.492188 C 17.988281 32.332031 18.003906 32.167969 18.003906 32 C 18.003906 29.886719 16.304688 28.183594 14.1875 28.183594 C 14.15625 28.183594 14.121094 28.183594 14.089844 28.183594 Z M 20.550781 32.484375 C 20.386719 36.054688 21.90625 39.59375 24.804688 41.921875 L 25.207031 41.222656 C 22.332031 39.113281 20.695312 35.863281 20.550781 32.484375 Z M 19.25 32.503906 C 19.0625 34.414062 17.832031 36.011719 16.125 36.707031 C 16.210938 37.003906 16.3125 37.292969 16.417969 37.582031 C 18.109375 36.761719 19.277344 35.027344 19.277344 33.011719 C 19.277344 32.839844 19.265625 32.671875 19.25 32.503906 Z M 43.394531 33.277344 C 43.222656 34.796875 42.738281 36.3125 41.921875 37.730469 C 38.964844 42.851562 32.703125 44.820312 27.414062 42.496094 L 24.855469 46.921875 C 25.007812 46.996094 25.164062 47.066406 25.316406 47.132812 L 27.414062 43.503906 C 32.703125 45.828125 38.964844 43.859375 41.921875 38.734375 C 42.738281 37.320312 43.222656 35.804688 43.394531 34.28125 L 48.398438 34.28125 C 48.445312 33.949219 48.484375 33.613281 48.511719 33.277344 Z M 40.875 43.609375 C 40.5625 43.613281 40.242188 43.660156 39.921875 43.746094 C 38.050781 44.242188 36.886719 46.039062 37.125 47.910156 C 37.332031 46.4375 38.390625 45.160156 39.921875 44.75 C 40.242188 44.667969 40.5625 44.621094 40.875 44.621094 C 42.578125 44.597656 44.132812 45.722656 44.597656 47.449219 C 44.640625 47.617188 44.671875 47.78125 44.695312 47.949219 C 44.761719 47.457031 44.734375 46.949219 44.597656 46.441406 C 44.132812 44.714844 42.578125 43.589844 40.875 43.609375 Z M 35.84375 47.933594 C 35.835938 47.992188 35.832031 48.050781 35.828125 48.109375 C 35.839844 48.105469 35.851562 48.105469 35.859375 48.105469 C 35.855469 48.046875 35.847656 47.988281 35.84375 47.933594 Z M 35.84375 47.933594 "/>
<path style=" stroke:none;fill-rule:nonzero;fill:rgb(0%,0%,0%);fill-opacity:0.4;" d="M 35.832031 16.9375 C 35.835938 16.992188 35.839844 17.046875 35.84375 17.097656 C 35.851562 17.046875 35.855469 16.996094 35.859375 16.945312 C 35.851562 16.941406 35.839844 16.941406 35.832031 16.9375 Z M 44.695312 17.09375 C 44.628906 17.566406 44.472656 18.039062 44.21875 18.480469 C 43.160156 20.308594 40.832031 20.933594 39.003906 19.878906 C 37.9375 19.261719 37.285156 18.21875 37.125 17.09375 C 36.917969 18.585938 37.613281 20.121094 39.003906 20.921875 C 40.832031 21.980469 43.160156 21.355469 44.21875 19.527344 C 44.660156 18.757812 44.808594 17.902344 44.695312 17.09375 Z M 25.328125 17.890625 C 25.167969 17.964844 25.007812 18.039062 24.851562 18.113281 L 27.40625 22.542969 C 30.621094 21.132812 34.441406 21.226562 37.730469 23.125 C 41.015625 25.023438 43.003906 28.285156 43.394531 31.769531 L 48.515625 31.769531 C 48.488281 31.421875 48.449219 31.074219 48.398438 30.726562 L 43.394531 30.726562 C 43.003906 27.238281 41.015625 23.976562 37.730469 22.078125 C 34.441406 20.183594 30.621094 20.089844 27.40625 21.5 Z M 24.785156 23.09375 C 23.730469 23.953125 22.808594 25.019531 22.082031 26.273438 C 20.941406 28.25 20.453125 30.417969 20.550781 32.53125 C 20.632812 30.753906 21.128906 28.96875 22.082031 27.316406 C 22.902344 25.902344 23.972656 24.726562 25.203125 23.816406 Z M 16.433594 27.429688 C 16.324219 27.730469 16.222656 28.035156 16.132812 28.339844 C 16.335938 28.425781 16.535156 28.519531 16.722656 28.625 C 18.113281 29.425781 19.082031 30.859375 19.25 32.53125 C 19.265625 32.359375 19.277344 32.179688 19.277344 32 C 19.277344 30.109375 18.253906 28.460938 16.722656 27.582031 C 16.628906 27.527344 16.53125 27.476562 16.433594 27.429688 Z M 17.96875 32.523438 C 17.714844 34.390625 16.125 35.816406 14.1875 35.816406 C 12.25 35.816406 10.660156 34.394531 10.40625 32.53125 C 10.382812 32.699219 10.371094 32.871094 10.371094 33.046875 C 10.371094 35.164062 12.070312 36.863281 14.1875 36.863281 C 16.304688 36.863281 18.003906 35.164062 18.003906 33.046875 C 18.003906 32.871094 17.992188 32.695312 17.96875 32.523438 Z M 48.394531 34.316406 C 48.105469 36.355469 47.425781 38.375 46.328125 40.269531 C 45.664062 41.425781 44.882812 42.464844 44.011719 43.390625 C 43.839844 43.257812 43.65625 43.136719 43.46875 43.023438 C 41.945312 42.140625 40.003906 42.078125 38.363281 43.023438 C 36.566406 44.0625 35.644531 46.015625 35.84375 47.953125 C 36.007812 46.386719 36.890625 44.921875 38.363281 44.066406 C 40.003906 43.121094 41.945312 43.183594 43.46875 44.066406 C 43.65625 44.179688 43.839844 44.300781 44.011719 44.433594 C 44.882812 43.507812 45.664062 42.46875 46.328125 41.3125 C 47.613281 39.09375 48.324219 36.703125 48.511719 34.316406 Z M 16.421875 37.617188 C 16.324219 37.664062 16.226562 37.710938 16.125 37.753906 C 17.171875 41.289062 19.40625 44.480469 22.652344 46.691406 L 25.207031 42.265625 C 25.066406 42.164062 24.925781 42.054688 24.792969 41.945312 L 22.652344 45.648438 C 19.6875 43.625 17.566406 40.789062 16.421875 37.617188 Z M 25.332031 47.140625 L 24.855469 47.96875 C 28.394531 49.671875 32.277344 50.007812 35.859375 49.148438 C 35.816406 48.800781 35.808594 48.453125 35.832031 48.109375 C 32.414062 48.921875 28.730469 48.648438 25.332031 47.140625 Z M 37.128906 47.9375 C 37.058594 48.433594 37.085938 48.949219 37.222656 49.464844 C 37.769531 51.507812 39.855469 52.707031 41.902344 52.160156 C 43.78125 51.65625 44.949219 49.847656 44.691406 47.96875 C 44.488281 49.4375 43.425781 50.710938 41.902344 51.117188 C 39.855469 51.664062 37.769531 50.460938 37.222656 48.417969 C 37.179688 48.257812 37.152344 48.097656 37.128906 47.9375 Z M 37.128906 47.9375 "/>
<path style=" stroke:none;fill-rule:nonzero;fill:url(#linear0);" d="M 32 4 C 47.460938 4 60 16.535156 60 32 C 60 47.460938 47.460938 59.996094 32 59.996094 C 16.539062 59.996094 4 47.460938 4 32 C 4 16.535156 16.539062 4 32 4 Z M 32 4 "/>
</g>
</svg>
