
<svg xmlns="http://www.w3.org/2000/svg" xmlns:xlink="http://www.w3.org/1999/xlink" width="64" height="64" viewBox="0 0 64 64" version="1.1">
<defs>
<linearGradient id="linear0" gradientUnits="userSpaceOnUse" x1="31.999998" y1="57.999996" x2="31.999998" y2="8" gradientTransform="matrix(1,0,0,1,-0.00000166299,0)">
<stop offset="0" style="stop-color:rgb(0%,0%,0%);stop-opacity:0.2;"/>
<stop offset="1" style="stop-color:rgb(100%,100%,100%);stop-opacity:0;"/>
</linearGradient>
</defs>
<g id="surface1">
<path style=" stroke:none;fill-rule:nonzero;fill:rgb(38.039216%,38.039216%,38.039216%);fill-opacity:0.996078;" d="M 8 8 L 56 8 C 58.210938 8 60 9.789062 60 12 L 60 52 C 60 54.210938 58.210938 56 56 56 L 8 56 C 5.789062 56 4 54.210938 4 52 L 4 12 C 4 9.789062 5.789062 8 8 8 Z M 8 8 "/>
<path style=" stroke:none;fill-rule:nonzero;fill:rgb(0.392157%,0.392157%,0.392157%);fill-opacity:0.4;" d="M 4 51 L 4 52 C 4 54.214844 5.785156 56 8 56 L 56 56 C 58.214844 56 60 54.214844 60 52 L 60 51 C 60 53.214844 58.214844 55 56 55 L 8 55 C 5.785156 55 4 53.214844 4 51 Z M 4 51 "/>
<path style=" stroke:none;fill-rule:nonzero;fill:rgb(87.843138%,87.843138%,87.843138%);fill-opacity:1;" d="M 10 48 L 54 48 C 55.105469 48 56 48.894531 56 50 L 56 56 C 56 57.105469 55.105469 58 54 58 L 10 58 C 8.894531 58 8 57.105469 8 56 L 8 50 C 8 48.894531 8.894531 48 10 48 Z M 10 48 "/>
<path style=" stroke:none;fill-rule:nonzero;fill:rgb(87.843138%,87.843138%,87.843138%);fill-opacity:1;" d="M 8 8 C 5.785156 8 4 9.785156 4 12 L 60 12 C 60 9.785156 58.214844 8 56 8 Z M 8 8 "/>
<path style=" stroke:none;fill-rule:nonzero;fill:rgb(0%,0%,0%);fill-opacity:0.4;" d="M 4 12 L 4 13 L 60 13 L 60 12 Z M 8 55 L 8 56 C 8 57.109375 8.890625 58 10 58 L 54 58 C 55.109375 58 56 57.109375 56 56 L 56 55 C 56 56.109375 55.109375 57 54 57 L 10 57 C 8.890625 57 8 56.109375 8 55 Z M 8 55 "/>
<path style=" stroke:none;fill-rule:nonzero;fill:rgb(100%,100%,100%);fill-opacity:0.8;" d="M 8 8 C 5.785156 8 4 9.785156 4 12 L 4.125 12 C 4.554688 10.257812 6.121094 8.972656 8 8.972656 L 56 8.972656 C 57.878906 8.972656 59.445312 10.257812 59.875 12 L 60 12 C 60 9.785156 58.214844 8 56 8 Z M 10 48 C 8.890625 48 8 48.890625 8 50 L 8 50.972656 C 8 49.863281 8.890625 48.972656 10 48.972656 L 54 48.972656 C 55.109375 48.972656 56 49.863281 56 50.972656 L 56 50 C 56 48.890625 55.109375 48 54 48 Z M 10 48 "/>
<path style=" stroke:none;fill-rule:nonzero;fill:rgb(0%,0%,0%);fill-opacity:0.2;" d="M 4 52 L 4 53.5 C 4 55.71875 5.785156 57.5 8 57.5 C 8 58.609375 8.890625 59.5 10 59.5 L 54 59.5 C 55.109375 59.5 56 58.609375 56 57.5 C 58.214844 57.5 60 55.71875 60 53.5 L 60 52 C 60 54.214844 58.214844 56 56 56 C 56 57.109375 55.109375 58 54 58 L 10 58 C 8.890625 58 8 57.109375 8 56 C 5.785156 56 4 54.214844 4 52 Z M 4 52 "/>
<path style=" stroke:none;fill-rule:nonzero;fill:url(#linear0);" d="M 8 8 C 5.785156 8 4 9.785156 4 12 L 4 52 C 4 54.214844 5.785156 56 8 56 C 8 57.109375 8.890625 58 10 58 L 54 58 C 55.109375 58 56 57.109375 56 56 C 58.214844 56 60 54.214844 60 52 L 60 12 C 60 9.785156 58.214844 8 56 8 Z M 8 8 "/>
</g>
</svg>
