<?xml version="1.0" encoding="UTF-8" standalone="no"?>
<svg
   viewBox="0 0 400 400"
   version="1.1"
   id="svg3"
   sodipodi:docname="vmware_esxi.svg"
   inkscape:version="1.3 (0e150ed, 2023-07-21)"
   xmlns:inkscape="http://www.inkscape.org/namespaces/inkscape"
   xmlns:sodipodi="http://sodipodi.sourceforge.net/DTD/sodipodi-0.dtd"
   xmlns="http://www.w3.org/2000/svg"
   xmlns:svg="http://www.w3.org/2000/svg">
  <defs
     id="defs3" />
  <sodipodi:namedview
     id="namedview3"
     pagecolor="#ffffff"
     bordercolor="#000000"
     borderopacity="0.25"
     inkscape:showpageshadow="2"
     inkscape:pageopacity="0.0"
     inkscape:pagecheckerboard="0"
     inkscape:deskcolor="#d1d1d1"
     inkscape:zoom="1.715"
     inkscape:cx="199.41691"
     inkscape:cy="200"
     inkscape:window-width="1648"
     inkscape:window-height="1123"
     inkscape:window-x="2208"
     inkscape:window-y="56"
     inkscape:window-maximized="0"
     inkscape:current-layer="svg3" />
  <path
     d="m 301.23992,46.064134 h -83.50324 l -12.38483,12.384845 h 95.88807 a 40.356774,40.356774 0 0 1 40.31109,40.311112 V 302.9892 a 40.356774,40.356774 0 0 1 -40.31109,40.31109 h -80.95274 l -12.38484,12.38485 h 93.33758 A 52.756321,52.756321 0 0 0 353.93586,302.9892 V 98.760091 A 52.756321,52.756321 0 0 0 301.23992,46.064134 Z"
     fill="#78be20"
     id="path1"
     style="stroke-width:0.774053" />
  <path
     d="M 192.88419,343.30029 H 97.010816 A 40.356774,40.356774 0 0 1 56.699715,302.9892 V 98.760091 A 40.356774,40.356774 0 0 1 97.010816,58.448979 H 177.94962 L 190.33445,46.064134 H 97.010816 A 52.756321,52.756321 0 0 0 44.314871,98.760091 V 302.9892 a 52.756321,52.756321 0 0 0 52.695945,52.69594 h 83.488524 z"
     fill="#00c1d5"
     id="path2"
     style="stroke-width:0.774053" />
  <path
     d="M 292.60226,319.0291 H 158.52554 A 24.364075,24.364075 0 0 1 134.18855,294.69291 V 157.27459 a 24.364075,24.364075 0 0 1 24.33699,-24.33699 h 134.07672 a 24.364075,24.364075 0 0 1 24.33622,24.33699 V 294.68981 A 24.364075,24.364075 0 0 1 292.60226,319.0291 Z M 158.52554,145.32245 a 11.966078,11.966078 0 0 0 -11.95214,11.95214 v 137.41522 a 11.965303,11.965303 0 0 0 11.95214,11.95137 H 292.60226 A 11.964529,11.964529 0 0 0 304.5513,294.68981 V 157.27459 A 11.965303,11.965303 0 0 0 292.59993,145.32245 Z M 122.19694,256.0197 H 104.9108 A 11.965303,11.965303 0 0 1 92.959423,244.06678 V 106.64923 A 11.964529,11.964529 0 0 1 104.9108,94.697861 h 134.07827 a 11.964529,11.964529 0 0 1 11.95136,11.951369 v 13.97476 h 12.38485 V 106.64923 A 24.364075,24.364075 0 0 0 238.98907,82.313014 H 104.9108 A 24.364075,24.364075 0 0 0 80.5746,106.64923 v 137.41755 a 24.364075,24.364075 0 0 0 24.3362,24.33697 h 17.28614 z"
     fill="#0091da"
     id="path3"
     style="stroke-width:0.774053" />
</svg>
