
<svg xmlns="http://www.w3.org/2000/svg" xmlns:xlink="http://www.w3.org/1999/xlink" width="48" height="48" viewBox="0 0 48 48" version="1.1">
<defs>
<linearGradient id="linear0" gradientUnits="userSpaceOnUse" x1="10.054166" y1="-199.125" x2="10.054166" y2="-213.941666" gradientTransform="matrix(2.834646,0,0,2.834646,-0.000948433,609.448851)">
<stop offset="0" style="stop-color:rgb(0%,0%,0%);stop-opacity:0.2;"/>
<stop offset="1" style="stop-color:rgb(100%,100%,100%);stop-opacity:0;"/>
</linearGradient>
</defs>
<g id="surface1">
<path style=" stroke:none;fill-rule:nonzero;fill:rgb(14.901961%,65.098041%,60.392159%);fill-opacity:1;" d="M 6 3 L 42 3 C 43.65625 3 45 4.34375 45 6 L 45 42 C 45 43.65625 43.65625 45 42 45 L 6 45 C 4.34375 45 3 43.65625 3 42 L 3 6 C 3 4.34375 4.34375 3 6 3 Z M 6 3 "/>
<path style=" stroke:none;fill-rule:nonzero;fill:rgb(0%,0%,0%);fill-opacity:0.4;" d="M 3 41.25 L 3 42 C 3 43.660156 4.339844 45 6 45 L 42 45 C 43.660156 45 45 43.660156 45 42 L 45 41.25 C 45 42.910156 43.660156 44.25 42 44.25 L 6 44.25 C 4.339844 44.25 3 42.910156 3 41.25 Z M 3 41.25 "/>
<path style=" stroke:none;fill-rule:nonzero;fill:rgb(0%,0%,0%);fill-opacity:0.2;" d="M 3 42 L 3 43.125 C 3 44.785156 4.339844 46.125 6 46.125 L 42 46.125 C 43.660156 46.125 45 44.785156 45 43.125 L 45 42 C 45 43.660156 43.660156 45 42 45 L 6 45 C 4.339844 45 3 43.660156 3 42 Z M 3 42 "/>
<path style=" stroke:none;fill-rule:nonzero;fill:rgb(100%,100%,100%);fill-opacity:0.4;" d="M 6 3 C 4.339844 3 3 4.339844 3 6 L 3 6.738281 C 3 5.078125 4.339844 3.738281 6 3.738281 L 42 3.738281 C 43.660156 3.738281 45 5.078125 45 6.738281 L 45 6 C 45 4.339844 43.660156 3 42 3 Z M 6 3 "/>
<path style=" stroke:none;fill-rule:nonzero;fill:rgb(93.333334%,93.333334%,93.333334%);fill-opacity:0.996078;" d="M 24 9 C 21.507812 9 19.5 11.007812 19.5 13.5 C 19.5 15.738281 21.117188 17.582031 23.25 17.9375 L 23.25 25.5 L 12.75 25.5 L 12.75 20.90625 C 14.046875 20.574219 15 19.402344 15 18 C 15 16.339844 13.660156 15 12 15 C 10.339844 15 9 16.339844 9 18 C 9 19.402344 9.953125 20.574219 11.25 20.90625 L 11.25 25.5 L 10.5 25.5 C 9.667969 25.5 9 26.167969 9 27 L 9 36 C 9 36.832031 9.667969 37.5 10.5 37.5 L 37.5 37.5 C 38.332031 37.5 39 36.832031 39 36 L 39 27 C 39 26.167969 38.332031 25.5 37.5 25.5 L 36.75 25.5 L 36.75 20.90625 C 38.046875 20.574219 39 19.402344 39 18 C 39 16.339844 37.660156 15 36 15 C 34.339844 15 33 16.339844 33 18 C 33 19.402344 33.953125 20.574219 35.25 20.90625 L 35.25 25.5 L 24.75 25.5 L 24.75 17.9375 C 26.882812 17.582031 28.5 15.738281 28.5 13.5 C 28.5 11.007812 26.492188 9 24 9 Z M 24 10.5 C 25.660156 10.5 27 11.839844 27 13.5 C 27 15.160156 25.660156 16.5 24 16.5 C 22.339844 16.5 21 15.160156 21 13.5 C 21 11.839844 22.339844 10.5 24 10.5 Z M 12 16.5 C 12.832031 16.5 13.5 17.167969 13.5 18 C 13.5 18.832031 12.832031 19.5 12 19.5 C 11.167969 19.5 10.5 18.832031 10.5 18 C 10.5 17.167969 11.167969 16.5 12 16.5 Z M 36 16.5 C 36.832031 16.5 37.5 17.167969 37.5 18 C 37.5 18.832031 36.832031 19.5 36 19.5 C 35.167969 19.5 34.5 18.832031 34.5 18 C 34.5 17.167969 35.167969 16.5 36 16.5 Z M 13.460938 30 C 13.472656 30 13.488281 30 13.5 30 C 14.332031 30 15 30.667969 15 31.5 C 15 32.332031 14.332031 33 13.5 33 C 12.667969 33 12 32.332031 12 31.5 C 12 30.683594 12.648438 30.019531 13.460938 30 Z M 17.960938 30 C 17.972656 30 17.988281 30 18 30 C 18.832031 30 19.5 30.667969 19.5 31.5 C 19.5 32.332031 18.832031 33 18 33 C 17.167969 33 16.5 32.332031 16.5 31.5 C 16.5 30.683594 17.148438 30.019531 17.960938 30 Z M 22.460938 30 C 22.472656 30 22.488281 30 22.5 30 C 23.332031 30 24 30.667969 24 31.5 C 24 32.332031 23.332031 33 22.5 33 C 21.667969 33 21 32.332031 21 31.5 C 21 30.683594 21.648438 30.019531 22.460938 30 Z M 22.460938 30 "/>
<path style=" stroke:none;fill-rule:nonzero;fill:rgb(100%,100%,100%);fill-opacity:0.6;" d="M 24 9 C 21.507812 9 19.5 11.007812 19.5 13.5 C 19.5 13.625 19.507812 13.75 19.519531 13.871094 C 19.707031 11.558594 21.632812 9.75 24 9.75 C 26.367188 9.75 28.292969 11.558594 28.480469 13.871094 C 28.492188 13.75 28.5 13.625 28.5 13.5 C 28.5 11.007812 26.492188 9 24 9 Z M 21.023438 13.871094 C 21.007812 13.992188 21 14.121094 21 14.25 C 21 15.910156 22.339844 17.25 24 17.25 C 25.660156 17.25 27 15.910156 27 14.25 C 27 14.121094 26.992188 13.992188 26.976562 13.871094 C 26.792969 15.355469 25.535156 16.5 24 16.5 C 22.464844 16.5 21.207031 15.355469 21.023438 13.871094 Z M 12 15 C 10.339844 15 9 16.339844 9 18 C 9 18.125 9.011719 18.25 9.023438 18.371094 C 9.210938 16.886719 10.46875 15.75 12 15.75 C 13.53125 15.75 14.789062 16.886719 14.976562 18.371094 C 14.988281 18.25 15 18.125 15 18 C 15 16.339844 13.660156 15 12 15 Z M 36 15 C 34.339844 15 33 16.339844 33 18 C 33 18.125 33.011719 18.25 33.023438 18.371094 C 33.210938 16.886719 34.46875 15.75 36 15.75 C 37.53125 15.75 38.789062 16.886719 38.976562 18.371094 C 38.988281 18.25 39 18.125 39 18 C 39 16.339844 37.660156 15 36 15 Z M 10.550781 18.367188 C 10.519531 18.488281 10.5 18.617188 10.5 18.75 C 10.5 19.582031 11.167969 20.25 12 20.25 C 12.832031 20.25 13.5 19.582031 13.5 18.75 C 13.5 18.617188 13.480469 18.488281 13.449219 18.367188 C 13.285156 19.019531 12.703125 19.5 12 19.5 C 11.296875 19.5 10.714844 19.019531 10.550781 18.367188 Z M 34.550781 18.367188 C 34.519531 18.488281 34.5 18.617188 34.5 18.75 C 34.5 19.582031 35.167969 20.25 36 20.25 C 36.832031 20.25 37.5 19.582031 37.5 18.75 C 37.5 18.617188 37.480469 18.488281 37.449219 18.367188 C 37.285156 19.019531 36.703125 19.5 36 19.5 C 35.296875 19.5 34.714844 19.019531 34.550781 18.367188 Z M 10.5 25.5 C 9.667969 25.5 9 26.167969 9 27 L 9 27.75 C 9 26.917969 9.667969 26.25 10.5 26.25 L 11.25 26.25 L 11.25 25.5 Z M 12.75 25.5 L 12.75 26.25 L 23.25 26.25 L 23.25 25.5 Z M 24.75 25.5 L 24.75 26.25 L 35.25 26.25 L 35.25 25.5 Z M 36.75 25.5 L 36.75 26.25 L 37.5 26.25 C 38.332031 26.25 39 26.917969 39 27.75 L 39 27 C 39 26.167969 38.332031 25.5 37.5 25.5 Z M 12.050781 31.867188 C 12.019531 31.988281 12 32.117188 12 32.25 C 12 33.082031 12.667969 33.75 13.5 33.75 C 14.332031 33.75 15 33.082031 15 32.25 C 15 32.117188 14.980469 31.988281 14.949219 31.867188 C 14.785156 32.519531 14.203125 33 13.5 33 C 12.796875 33 12.214844 32.519531 12.050781 31.867188 Z M 16.550781 31.867188 C 16.519531 31.988281 16.5 32.117188 16.5 32.25 C 16.5 33.082031 17.167969 33.75 18 33.75 C 18.832031 33.75 19.5 33.082031 19.5 32.25 C 19.5 32.117188 19.480469 31.988281 19.449219 31.867188 C 19.285156 32.519531 18.703125 33 18 33 C 17.296875 33 16.714844 32.519531 16.550781 31.867188 Z M 21.050781 31.867188 C 21.019531 31.988281 21 32.117188 21 32.25 C 21 33.082031 21.667969 33.75 22.5 33.75 C 23.332031 33.75 24 33.082031 24 32.25 C 24 32.117188 23.980469 31.988281 23.949219 31.867188 C 23.785156 32.519531 23.203125 33 22.5 33 C 21.796875 33 21.214844 32.519531 21.050781 31.867188 Z M 21.050781 31.867188 "/>
<path style=" stroke:none;fill-rule:nonzero;fill:rgb(0%,0%,0%);fill-opacity:0.4;" d="M 24 10.5 C 22.339844 10.5 21 11.839844 21 13.5 C 21 13.628906 21.007812 13.753906 21.023438 13.875 C 21.207031 12.390625 22.464844 11.25 24 11.25 C 25.535156 11.25 26.792969 12.390625 26.976562 13.875 C 26.992188 13.753906 27 13.628906 27 13.5 C 27 11.839844 25.660156 10.5 24 10.5 Z M 19.515625 13.878906 C 19.507812 14 19.5 14.125 19.5 14.25 C 19.5 16.488281 21.117188 18.332031 23.25 18.6875 L 23.25 17.9375 C 21.238281 17.605469 19.6875 15.941406 19.515625 13.878906 Z M 28.484375 13.878906 C 28.3125 15.941406 26.761719 17.605469 24.75 17.9375 L 24.75 18.6875 C 26.882812 18.332031 28.5 16.488281 28.5 14.25 C 28.5 14.125 28.492188 14 28.484375 13.878906 Z M 12 16.5 C 11.167969 16.5 10.5 17.167969 10.5 18 C 10.5 18.128906 10.519531 18.253906 10.550781 18.375 C 10.714844 17.726562 11.300781 17.25 12 17.25 C 12.699219 17.25 13.285156 17.726562 13.449219 18.375 C 13.480469 18.253906 13.5 18.128906 13.5 18 C 13.5 17.167969 12.832031 16.5 12 16.5 Z M 36 16.5 C 35.167969 16.5 34.5 17.167969 34.5 18 C 34.5 18.128906 34.519531 18.253906 34.550781 18.375 C 34.714844 17.726562 35.300781 17.25 36 17.25 C 36.699219 17.25 37.285156 17.726562 37.449219 18.375 C 37.480469 18.253906 37.5 18.128906 37.5 18 C 37.5 17.167969 36.832031 16.5 36 16.5 Z M 9.023438 18.371094 C 9.007812 18.492188 9 18.621094 9 18.75 C 9 20.152344 9.953125 21.324219 11.25 21.65625 L 11.25 20.90625 C 10.070312 20.605469 9.175781 19.605469 9.023438 18.371094 Z M 14.976562 18.371094 C 14.824219 19.605469 13.933594 20.605469 12.75 20.90625 L 12.75 21.65625 C 14.046875 21.324219 15 20.152344 15 18.75 C 15 18.621094 14.992188 18.492188 14.976562 18.371094 Z M 33.023438 18.371094 C 33.007812 18.492188 33 18.621094 33 18.75 C 33 20.152344 33.953125 21.324219 35.25 21.65625 L 35.25 20.90625 C 34.070312 20.605469 33.175781 19.605469 33.023438 18.371094 Z M 38.976562 18.371094 C 38.824219 19.605469 37.929688 20.605469 36.75 20.90625 L 36.75 21.65625 C 38.046875 21.324219 39 20.152344 39 18.75 C 39 18.621094 38.992188 18.492188 38.976562 18.371094 Z M 13.460938 30 C 12.648438 30.019531 12 30.683594 12 31.5 C 12 31.628906 12.019531 31.753906 12.046875 31.875 C 12.210938 31.238281 12.777344 30.765625 13.460938 30.75 C 13.472656 30.75 13.488281 30.75 13.5 30.75 C 14.199219 30.75 14.785156 31.226562 14.949219 31.875 C 14.980469 31.753906 15 31.628906 15 31.5 C 15 30.667969 14.332031 30 13.5 30 C 13.488281 30 13.472656 30 13.460938 30 Z M 17.960938 30 C 17.148438 30.019531 16.5 30.683594 16.5 31.5 C 16.5 31.628906 16.519531 31.753906 16.546875 31.875 C 16.710938 31.238281 17.277344 30.765625 17.960938 30.75 C 17.972656 30.75 17.988281 30.75 18 30.75 C 18.699219 30.75 19.285156 31.226562 19.449219 31.875 C 19.480469 31.753906 19.5 31.628906 19.5 31.5 C 19.5 30.667969 18.832031 30 18 30 C 17.988281 30 17.972656 30 17.960938 30 Z M 22.460938 30 C 21.648438 30.019531 21 30.683594 21 31.5 C 21 31.628906 21.019531 31.753906 21.046875 31.875 C 21.210938 31.238281 21.777344 30.765625 22.460938 30.75 C 22.472656 30.75 22.488281 30.75 22.5 30.75 C 23.199219 30.75 23.785156 31.226562 23.949219 31.875 C 23.980469 31.753906 24 31.628906 24 31.5 C 24 30.667969 23.332031 30 22.5 30 C 22.488281 30 22.472656 30 22.460938 30 Z M 9 36 L 9 36.75 C 9 37.582031 9.667969 38.25 10.5 38.25 L 37.5 38.25 C 38.332031 38.25 39 37.582031 39 36.75 L 39 36 C 39 36.832031 38.332031 37.5 37.5 37.5 L 10.5 37.5 C 9.667969 37.5 9 36.832031 9 36 Z M 9 36 "/>
<path style=" stroke:none;fill-rule:nonzero;fill:url(#linear0);" d="M 6 3 L 42 3 C 43.65625 3 45 4.34375 45 6 L 45 42 C 45 43.65625 43.65625 45 42 45 L 6 45 C 4.34375 45 3 43.65625 3 42 L 3 6 C 3 4.34375 4.34375 3 6 3 Z M 6 3 "/>
</g>
</svg>
