
<svg xmlns="http://www.w3.org/2000/svg" xmlns:xlink="http://www.w3.org/1999/xlink" width="64" height="64" viewBox="0 0 64 64" version="1.1">
<defs>
<linearGradient id="linear0" gradientUnits="userSpaceOnUse" x1="32" y1="59.999996" x2="31.999998" y2="3.999999" >
<stop offset="0" style="stop-color:rgb(0%,0%,0%);stop-opacity:0.2;"/>
<stop offset="1" style="stop-color:rgb(100%,100%,100%);stop-opacity:0;"/>
</linearGradient>
</defs>
<g id="surface1">
<path style=" stroke:none;fill-rule:nonzero;fill:rgb(38.039216%,38.039216%,38.039216%);fill-opacity:1;" d="M 26 50 L 38 50 L 38 56 L 26 56 Z M 26 50 "/>
<path style=" stroke:none;fill-rule:nonzero;fill:rgb(38.039216%,38.039216%,38.039216%);fill-opacity:0.996078;" d="M 10 26.5 L 54 26.5 L 54 29 L 10 29 Z M 10 26.5 "/>
<path style=" stroke:none;fill-rule:nonzero;fill:rgb(74.117649%,74.117649%,74.117649%);fill-opacity:0.996078;" d="M 6 54 L 58 54 C 59.105469 54 60 54.894531 60 56 L 60 58 C 60 59.105469 59.105469 60 58 60 L 6 60 C 4.894531 60 4 59.105469 4 58 L 4 56 C 4 54.894531 4.894531 54 6 54 Z M 6 54 "/>
<path style=" stroke:none;fill-rule:nonzero;fill:rgb(38.039216%,38.039216%,38.039216%);fill-opacity:1;" d="M 8.085938 26 C 8.03125 26.660156 8 27.324219 8 28 C 8 41.296875 18.703125 52 32 52 C 45.296875 52 56 41.296875 56 28 C 56 27.324219 55.96875 26.660156 55.917969 26 L 53 26 L 53 28 L 52.992188 28 C 52.996094 39.628906 43.628906 48.996094 32 48.996094 C 20.371094 48.996094 11.003906 39.628906 11.003906 28 L 11 28 L 11 26 Z M 8.085938 26 "/>
<path style=" stroke:none;fill-rule:nonzero;fill:rgb(74.117649%,74.117649%,74.117649%);fill-opacity:1;" d="M 32 4 C 19.71875 4 9.652344 13.128906 8.183594 25 L 12 25 L 12 28 C 12 39.078125 20.921875 48 32 48 C 43.078125 48 52 39.078125 52 28 L 52 25 L 55.816406 25 C 54.347656 13.128906 44.28125 4 32 4 Z M 32 4 "/>
<path style=" stroke:none;fill-rule:nonzero;fill:rgb(87.843138%,87.843138%,87.843138%);fill-opacity:1;" d="M 20.585938 12.085938 C 21.367188 12.867188 20.734375 14.765625 19.171875 16.328125 C 17.609375 17.890625 15.710938 18.523438 14.929688 17.742188 C 14.148438 16.960938 14.78125 15.0625 16.34375 13.5 C 17.90625 11.9375 19.804688 11.304688 20.585938 12.085938 Z M 20.585938 12.085938 "/>
<path style=" stroke:none;fill-rule:nonzero;fill:rgb(38.039216%,38.039216%,38.039216%);fill-opacity:1;" d="M 32 4 C 29.191406 4 26.5 4.484375 24 5.359375 L 24 20 C 24 24.433594 27.566406 28 32 28 C 36.433594 28 40 24.433594 40 20 L 40 5.359375 C 37.5 4.484375 34.808594 4 32 4 Z M 32 4 "/>
<path style=" stroke:none;fill-rule:nonzero;fill:rgb(74.117649%,74.117649%,74.117649%);fill-opacity:0.996078;" d="M 32 13 C 39.730469 13 46 19.269531 46 27 C 46 34.730469 39.730469 41 32 41 C 24.269531 41 18 34.730469 18 27 C 18 19.269531 24.269531 13 32 13 Z M 32 13 "/>
<path style=" stroke:none;fill-rule:nonzero;fill:rgb(61.960787%,61.960787%,61.960787%);fill-opacity:0.996078;" d="M 32 15 C 38.628906 15 44 20.371094 44 27 C 44 33.628906 38.628906 39 32 39 C 25.371094 39 20 33.628906 20 27 C 20 20.371094 25.371094 15 32 15 Z M 32 15 "/>
<path style=" stroke:none;fill-rule:nonzero;fill:rgb(38.039216%,38.039216%,38.039216%);fill-opacity:0.996078;" d="M 32 17 C 37.523438 17 42 21.476562 42 27 C 42 32.523438 37.523438 37 32 37 C 26.476562 37 22 32.523438 22 27 C 22 21.476562 26.476562 17 32 17 Z M 32 17 "/>
<path style=" stroke:none;fill-rule:nonzero;fill:rgb(45.882353%,45.882353%,45.882353%);fill-opacity:0.996078;" d="M 32 19 C 36.417969 19 40 22.582031 40 27 C 40 31.417969 36.417969 35 32 35 C 27.582031 35 24 31.417969 24 27 C 24 22.582031 27.582031 19 32 19 Z M 32 19 "/>
<path style=" stroke:none;fill-rule:nonzero;fill:rgb(25.882354%,25.882354%,25.882354%);fill-opacity:0.996078;" d="M 32 23 C 34.210938 23 36 24.789062 36 27 C 36 29.210938 34.210938 31 32 31 C 29.789062 31 28 29.210938 28 27 C 28 24.789062 29.789062 23 32 23 Z M 32 23 "/>
<path style=" stroke:none;fill-rule:nonzero;fill:rgb(74.117649%,74.117649%,74.117649%);fill-opacity:0.996078;" d="M 31.148438 24.375 C 31.507812 24.582031 31.464844 25.332031 31.050781 26.050781 C 30.636719 26.765625 30.007812 27.179688 29.648438 26.972656 C 29.289062 26.765625 29.335938 26.015625 29.75 25.300781 C 30.164062 24.582031 30.789062 24.167969 31.148438 24.375 Z M 31.148438 24.375 "/>
<path style=" stroke:none;fill-rule:nonzero;fill:rgb(100%,100%,100%);fill-opacity:0.4;" d="M 32 13 C 24.242188 13 18 19.242188 18 27 C 18 27.167969 18.003906 27.335938 18.011719 27.5 C 18.269531 19.976562 24.410156 14 32 14 C 39.589844 14 45.730469 19.976562 45.988281 27.5 C 45.996094 27.335938 46 27.167969 46 27 C 46 19.242188 39.757812 13 32 13 Z M 32 13 "/>
<path style=" stroke:none;fill-rule:nonzero;fill:rgb(0.784314%,0.784314%,0.784314%);fill-opacity:0.4;" d="M 32 42 C 24.242188 42 18 35.757812 18 28 C 18 27.832031 18.003906 27.664062 18.007812 27.5 C 18.269531 35.023438 24.410156 41 32 41 C 39.589844 41 45.730469 35.023438 45.988281 27.5 C 45.996094 27.664062 46 27.832031 46 28 C 46 35.757812 39.757812 42 32 42 Z M 32 42 "/>
<path style=" stroke:none;fill-rule:nonzero;fill:rgb(0%,0%,0%);fill-opacity:0.4;" d="M 32 17 C 26.460938 17 22 21.460938 22 27 C 22 27.167969 22.003906 27.335938 22.015625 27.5 C 22.273438 22.195312 26.628906 18 32 18 C 37.371094 18 41.726562 22.195312 41.988281 27.5 C 41.996094 27.335938 42 27.167969 42 27 C 42 21.460938 37.539062 17 32 17 Z M 32 17 "/>
<path style=" stroke:none;fill-rule:nonzero;fill:rgb(100%,100%,100%);fill-opacity:0.4;" d="M 32 38 C 26.460938 38 22 33.539062 22 28 C 22 27.832031 22.003906 27.664062 22.015625 27.5 C 22.273438 32.804688 26.628906 37 32 37 C 37.371094 37 41.726562 32.804688 41.988281 27.5 C 41.996094 27.664062 42 27.832031 42 28 C 42 33.539062 37.539062 38 32 38 Z M 32 38 "/>
<path style=" stroke:none;fill-rule:nonzero;fill:rgb(100%,100%,100%);fill-opacity:0.4;" d="M 24.003906 27.25 C 24 27.332031 24 27.417969 24 27.5 C 24 31.933594 27.566406 35.5 32 35.5 C 36.433594 35.5 40 31.933594 40 27.5 C 40 27.414062 40 27.332031 39.996094 27.25 C 39.863281 31.566406 36.347656 35 32 35 C 27.652344 35 24.136719 31.566406 24.003906 27.25 Z M 24.003906 27.25 "/>
<path style=" stroke:none;fill-rule:nonzero;fill:rgb(0.392157%,0.392157%,0.392157%);fill-opacity:0.4;" d="M 24.003906 27 C 24 26.917969 24 26.832031 24 26.75 C 24 22.316406 27.566406 18.75 32 18.75 C 36.433594 18.75 40 22.316406 40 26.75 C 40 26.835938 40 26.917969 39.996094 27 C 39.863281 22.683594 36.347656 19.25 32 19.25 C 27.652344 19.25 24.136719 22.683594 24.003906 27 Z M 24.003906 27 "/>
<path style=" stroke:none;fill-rule:nonzero;fill:rgb(0%,0%,0%);fill-opacity:0.4;" d="M 32 15 C 25.351562 15 20 20.351562 20 27 C 20 27.167969 20.003906 27.335938 20.011719 27.5 C 20.273438 21.085938 25.519531 16 32 16 C 38.480469 16 43.726562 21.085938 43.988281 27.5 C 43.996094 27.335938 44 27.167969 44 27 C 44 20.351562 38.648438 15 32 15 Z M 32 15 "/>
<path style=" stroke:none;fill-rule:nonzero;fill:rgb(100%,100%,100%);fill-opacity:0.4;" d="M 32 40 C 25.351562 40 20 34.648438 20 28 C 20 27.832031 20.003906 27.664062 20.011719 27.5 C 20.273438 33.914062 25.519531 39 32 39 C 38.480469 39 43.726562 33.914062 43.988281 27.5 C 43.996094 27.664062 44 27.832031 44 28 C 44 34.648438 38.648438 40 32 40 Z M 32 40 "/>
<path style=" stroke:none;fill-rule:nonzero;fill:rgb(99.607843%,99.607843%,99.607843%);fill-opacity:0.4;" d="M 28.039062 27.25 C 28.03125 27.332031 28.03125 27.414062 28.03125 27.5 C 28.03125 29.714844 29.8125 31.5 32.03125 31.5 C 34.246094 31.5 36.03125 29.714844 36.03125 27.5 C 36.03125 27.414062 36.027344 27.332031 36.023438 27.25 C 35.894531 29.347656 34.160156 31 32.03125 31 C 29.898438 31 28.164062 29.347656 28.039062 27.25 Z M 28.039062 27.25 "/>
<path style=" stroke:none;fill-rule:nonzero;fill:rgb(0.784314%,0.784314%,0.784314%);fill-opacity:0.4;" d="M 32.03125 23 C 29.8125 23 28.03125 24.785156 28.03125 27 C 28.03125 27.085938 28.03125 27.167969 28.035156 27.253906 C 28.164062 25.152344 29.898438 23.5 32.027344 23.5 C 34.160156 23.5 35.894531 25.152344 36.019531 27.253906 C 36.027344 27.167969 36.027344 27.085938 36.027344 27 C 36.027344 24.785156 34.246094 23 32.027344 23 Z M 32.03125 23 "/>
<path style=" stroke:none;fill-rule:nonzero;fill:rgb(100%,100%,100%);fill-opacity:0.4;" d="M 32 4 C 19.71875 4 9.652344 13.128906 8.183594 25 L 8.328125 25 C 10.222656 13.621094 20.066406 5 32 5 C 43.933594 5 53.777344 13.621094 55.671875 25 L 55.816406 25 C 54.347656 13.128906 44.28125 4 32 4 Z M 8.085938 26 C 8.03125 26.660156 8 27.324219 8 28 C 8 28.125 8.007812 28.25 8.007812 28.375 C 8.023438 27.914062 8.046875 27.457031 8.085938 27 L 11 27 L 11 26 Z M 53 26 L 53 27 L 55.917969 27 C 55.953125 27.457031 55.976562 27.914062 55.988281 28.375 C 55.992188 28.25 56 28.125 56 28 C 56 27.324219 55.96875 26.660156 55.917969 26 Z M 11 28 L 11 29 L 11.003906 29 C 11.003906 40.628906 20.371094 49.996094 32 49.996094 C 43.628906 49.996094 52.996094 40.628906 52.996094 29 L 53 29 L 53 28 L 52.996094 28 C 52.996094 38.671875 45.109375 47.429688 34.824219 48.800781 C 34.640625 48.828125 34.457031 48.851562 34.269531 48.871094 C 34.214844 48.875 34.164062 48.886719 34.109375 48.890625 C 33.414062 48.960938 32.710938 49 32 49 C 31.289062 49 30.585938 48.960938 29.890625 48.890625 C 29.835938 48.886719 29.785156 48.875 29.730469 48.871094 C 29.542969 48.851562 29.359375 48.828125 29.175781 48.800781 C 18.890625 47.429688 11.003906 38.671875 11.003906 28 Z M 11 28 "/>
<path style=" stroke:none;fill-rule:nonzero;fill:rgb(0%,0%,0%);fill-opacity:0.4;" d="M 8.332031 23.984375 C 8.277344 24.316406 8.226562 24.648438 8.1875 24.984375 L 11 24.984375 L 11 25 L 12 25 L 12 23.984375 Z M 52 23.984375 L 52 25 L 53 25 L 53 24.984375 L 55.8125 24.984375 C 55.773438 24.648438 55.722656 24.316406 55.667969 23.984375 Z M 12 26.984375 L 12 28 C 12 37.652344 18.769531 45.664062 27.839844 47.566406 C 27.984375 47.597656 28.128906 47.625 28.277344 47.652344 C 29.484375 47.863281 30.726562 47.980469 32 47.980469 C 33.273438 47.980469 34.519531 47.863281 35.726562 47.652344 C 35.871094 47.625 36.015625 47.597656 36.160156 47.566406 C 45.230469 45.664062 52 37.652344 52 28 L 52 26.984375 C 52 38.0625 43.078125 46.984375 32 46.984375 C 20.921875 46.984375 12 38.0625 12 26.984375 Z M 8.007812 27.613281 C 8.003906 27.742188 8 27.871094 8 28 C 8 41.296875 18.703125 52 32 52 C 45.296875 52 56 41.296875 56 28 C 56 27.871094 55.996094 27.742188 55.992188 27.613281 C 55.660156 40.617188 45.085938 50.984375 32 50.984375 C 18.914062 50.984375 8.339844 40.617188 8.007812 27.613281 Z M 8.007812 27.613281 "/>
<path style=" stroke:none;fill-rule:nonzero;fill:rgb(100%,100%,100%);fill-opacity:0.4;" d="M 6 54 C 4.890625 54 4 54.890625 4 56 L 4 56.9375 C 4 55.828125 4.890625 54.9375 6 54.9375 L 58 54.9375 C 59.109375 54.9375 60 55.828125 60 56.9375 L 60 56 C 60 54.890625 59.109375 54 58 54 Z M 6 54 "/>
<path style=" stroke:none;fill-rule:nonzero;fill:rgb(0.392157%,0.392157%,0.392157%);fill-opacity:0.4;" d="M 6 59.984375 C 4.890625 59.984375 4 59.09375 4 57.984375 L 4 57.046875 C 4 58.15625 4.890625 59.046875 6 59.046875 L 58 59.046875 C 59.109375 59.046875 60 58.15625 60 57.046875 L 60 57.984375 C 60 59.09375 59.109375 59.984375 58 59.984375 Z M 6 59.984375 "/>
<path style=" stroke:none;fill-rule:nonzero;fill:rgb(0%,0%,0%);fill-opacity:0.2;" d="M 4 57.96875 L 4 59.5 C 4 60.609375 4.890625 61.5 6 61.5 L 58 61.5 C 59.109375 61.5 60 60.609375 60 59.5 L 60 57.96875 C 60 59.078125 59.109375 59.96875 58 59.96875 L 6 59.96875 C 4.890625 59.96875 4 59.078125 4 57.96875 Z M 4 57.96875 "/>
<path style=" stroke:none;fill-rule:nonzero;fill:rgb(73.725492%,73.725492%,73.725492%);fill-opacity:1;" d="M 32 6 C 33.105469 6 34 6.894531 34 8 C 34 9.105469 33.105469 10 32 10 C 30.894531 10 30 9.105469 30 8 C 30 6.894531 30.894531 6 32 6 Z M 32 6 "/>
<path style=" stroke:none;fill-rule:nonzero;fill:rgb(100%,100%,100%);fill-opacity:0.4;" d="M 31.949219 6 C 30.863281 6.027344 30 6.910156 30 8 C 30 8.085938 30.003906 8.167969 30.015625 8.25 C 30.136719 7.261719 30.976562 6.5 32 6.5 C 33.023438 6.5 33.863281 7.261719 33.984375 8.25 C 33.996094 8.167969 34 8.085938 34 8 C 34 6.890625 33.109375 6 32 6 C 31.984375 6 31.964844 6 31.949219 6 Z M 31.949219 6 "/>
<path style=" stroke:none;fill-rule:nonzero;fill:rgb(0.392157%,0.392157%,0.392157%);fill-opacity:0.4;" d="M 31.949219 10.5 C 30.863281 10.472656 30 9.589844 30 8.5 C 30 8.414062 30.003906 8.332031 30.015625 8.25 C 30.136719 9.238281 30.976562 10 32 10 C 33.023438 10 33.863281 9.238281 33.984375 8.25 C 33.996094 8.332031 34 8.414062 34 8.5 C 34 9.609375 33.109375 10.5 32 10.5 C 31.984375 10.5 31.964844 10.5 31.945312 10.5 Z M 31.949219 10.5 "/>
<path style=" stroke:none;fill-rule:nonzero;fill:rgb(95.686275%,26.274511%,21.176471%);fill-opacity:1;" d="M 32 7 C 32.550781 7 33 7.449219 33 8 C 33 8.550781 32.550781 9 32 9 C 31.449219 9 31 8.550781 31 8 C 31 7.449219 31.449219 7 32 7 Z M 32 7 "/>
<path style=" stroke:none;fill-rule:nonzero;fill:rgb(0%,0%,0%);fill-opacity:0.4;" d="M 31.972656 7 C 31.433594 7.011719 31 7.453125 31 8 C 31 8.085938 31.011719 8.171875 31.03125 8.25 C 31.140625 7.816406 31.53125 7.5 32 7.5 C 32.46875 7.5 32.859375 7.816406 32.96875 8.25 C 32.988281 8.171875 33 8.085938 33 8 C 33 7.445312 32.554688 7 32 7 C 31.992188 7 31.984375 7 31.972656 7 Z M 31.972656 7 "/>
<path style=" stroke:none;fill-rule:nonzero;fill:rgb(99.215686%,99.215686%,99.215686%);fill-opacity:0.4;" d="M 31.976562 9.5 C 31.433594 9.484375 31 9.046875 31 8.5 C 31 8.414062 31.011719 8.328125 31.03125 8.25 C 31.140625 8.683594 31.53125 9 32 9 C 32.46875 9 32.859375 8.683594 32.96875 8.25 C 32.988281 8.332031 33 8.414062 33 8.5 C 33 9.054688 32.554688 9.5 32 9.5 C 31.992188 9.5 31.984375 9.5 31.976562 9.5 Z M 31.976562 9.5 "/>
<path style=" stroke:none;fill-rule:nonzero;fill:rgb(0%,0%,0%);fill-opacity:0.2;" d="M 26 51.25 L 26 52.265625 C 27.917969 52.753906 29.925781 53.015625 32 53.015625 C 34.074219 53.015625 36.082031 52.753906 38 52.265625 L 38 51.25 C 36.082031 51.738281 34.074219 52 32 52 C 29.925781 52 27.917969 51.738281 26 51.25 Z M 26 51.25 "/>
<path style=" stroke:none;fill-rule:nonzero;fill:url(#linear0);" d="M 32 4 C 19.71875 4 9.652344 13.128906 8.183594 25 L 12 25 L 12 28 C 12 39.078125 20.921875 48 32 48 C 43.078125 48 52 39.078125 52 28 L 52 25 L 55.816406 25 C 54.347656 13.128906 44.28125 4 32 4 Z M 8.085938 26 C 8.03125 26.660156 8 27.324219 8 28 C 8 39.222656 15.625 48.597656 26 51.25 L 26 54 L 6 54 C 4.890625 54 4 54.890625 4 56 L 4 58 C 4 59.109375 4.890625 60 6 60 L 58 60 C 59.109375 60 60 59.109375 60 58 L 60 56 C 60 54.890625 59.109375 54 58 54 L 38 54 L 38 51.25 C 48.375 48.597656 56 39.222656 56 28 C 56 27.324219 55.96875 26.660156 55.917969 26 L 53 26 L 53 28 L 52.996094 28 C 52.996094 39.628906 43.628906 48.996094 32 48.996094 C 20.371094 48.996094 11.003906 39.628906 11.003906 28 L 11 28 L 11 26 Z M 8.085938 26 "/>
</g>
</svg>
