<svg xmlns="http://www.w3.org/2000/svg" height="146.030" width="251.439">
  <path d="m 5.0128969,93.058 h -0.0452 c -2.6688,2.76666 -4.1718659,6.797887 -4.1718659,11.66151 0,0 -0.0016,0.83694 -0.0016,1.0072 0.4150659,0 5.8213329,0 6.2358659,0 0,-0.16666 0.0079,-1 0.0079,-1 0.03387,-3.3796 1.0082661,-6.18431 2.5688001,-8.01565 1.5416,-1.81093 3.741066,-2.7276 6.539466,-2.7276 2.6396,0 4.705733,0.82814 6.1412,2.46614 1.450533,1.65466 2.184933,4.20418 2.184933,7.25631 0,3.0188 -0.841733,5.3792 -2.506266,7.01987 -1.665067,1.63533 -4.065067,2.54787 -7.133867,2.54787 0,0 -2.359866,0 -2.577066,0 0,0.21773 0,4.94426 0,5.162 0.2208,0 3.658266,0 3.658266,0 3.2376,0 5.772933,0.9812 7.531333,2.752 1.759867,1.77346 2.652,4.3272 2.652,7.5912 0,3.6812 -0.9244,6.88173 -2.671866,8.9416 -1.727067,2.03493 -4.273867,3.112 -7.3568,3.112 -3.2708,0 -5.784267,-1.1604 -7.472267,-3.45467 -1.398533,-1.89587 -2.190133,-4.724 -2.190133,-7.66867 0,0 -0.02093,-1.7256 -0.02093,-1.9 -0.221334,0 -6.1556,0 -6.3848,0 0.0057,0.178 0.01867,1.9296 0.01867,1.9296 0.198,5.19174 1.696933,9.24067 4.449999,12.03387 2.760534,2.80213 6.6636,4.2172 11.599467,4.2172 5.040133,0 9.213066,-1.5984 12.072933,-4.62347 2.852667,-3.02346 4.361466,-7.426 4.361466,-12.73853 0,-3.45253 -0.962933,-6.54627 -2.784399,-8.9516 -1.461334,-1.926 -3.4708,-3.36813 -5.809334,-4.16667 l -0.276,-0.0911 0.264534,-0.124 c 2.139066,-0.988 3.781333,-2.488 4.974533,-4.4568 1.3016,-2.1448 1.8692,-4.75094 1.8692,-7.74374 0,-4.24325 -1.345733,-7.83338 -3.979067,-10.38125 -2.6292,-2.54266 -6.240133,-3.8896 -10.615733,-3.8896 -4.702533,0 -8.4618659,1.464 -11.1333329,4.23494"/>
  <path d="m 76.867162,127.80911 c -0.06467,0.80574 -0.0079,0.44107 -0.124,1.20987 -1.560933,10.31773 -7.7464,17.0088 -17.141733,17.0088 -11.540533,0 -18.341599,-8.03387 -18.341599,-28.6416 0,-18.96618 6.801066,-28.54592 18.857332,-28.54592 9.621334,0 15.473867,5.488 16.704667,15.36459 0.088,0.6964 0.0864,0.77706 0.125466,1.51986 h -6.180666 c -0.0568,-0.68906 -0.06773,-0.70893 -0.1604,-1.33226 -1.061467,-7.17619 -4.426133,-10.39859 -10.489067,-10.39859 -6.697999,0 -12.261466,4.12507 -12.261466,23.49899 0,20.59906 5.868133,23.38133 11.6396,23.38133 5.734266,0 9.583333,-3.8584 10.997866,-11.81613 0.134934,-0.762 0.102134,-0.4104 0.1932,-1.24894 h 6.1808"/>
  <path d="m 92.681695,117.38618 c 0,-17.413083 5.352135,-23.39232 12.263075,-23.39232 6.89573,0 12.25413,5.979237 12.25413,23.39232 0,17.51667 -5.3584,23.488 -12.25413,23.488 -6.91094,0 -12.263075,-5.97133 -12.263075,-23.488 z m -6.59946,0 c 0,19.05413 6.79733,28.6416 18.862535,28.6416 12.04533,0 18.84667,-9.58747 18.84667,-28.6416 0,-18.96618 -6.80134,-28.54592 -18.84667,-28.54592 -12.065205,0 -18.862535,9.57974 -18.862535,28.54592"/>
  <path d="m 161.75944,94.71266 c -0.54667,-0.67346 -4.70667,-5.93226 -12.69867,-5.93226 -8.81867,0 -15.99334,5.80826 -15.99334,15.27245 v 41.2448 h 6.51334 v -40.598 c 0,-8.72659 6.628,-10.45832 9.48,-10.45832 5.75867,0 9.48,4.3916 9.48,10.26045 v 40.78747 l 6.464,0.004 0.0107,-40.7916 c 0,-5.70845 3.54666,-10.26045 9.47466,-10.26045 2.85733,0 9.48534,1.54427 9.48534,10.27245 v 40.7796 h 6.51333 v -41.42707 c 0,-9.35418 -7.44933,-15.08591 -15.99867,-15.08591 -7.81466,0 -12.15466,5.2552 -12.73066,5.93226"/>
  <path d="m 230.09543,19.178798 c 4.74933,10.34 5.97999,17.830662 6.82534,24.852002 1.35466,11.18933 -2.11467,21.564 -10.01467,21.564 -5.39867,0 -9.92133,-4.088 -14.04533,-9.808 -3.15467,-4.37734 -6.664,-11.55067 -8.93468,-18.656 -2.48132,-7.764002 -3.29332,-14.750669 -3.29332,-19.809335 0,-9.9186611 3.484,-17.32399498 10.91999,-17.32399498 7.204,0 13.956,9.19999988 18.54267,19.18132798 z M 212.38343,8.86147 c -1.21466,-0.553333 -2.07066,-0.349333 -2.596,0.919997 -0.49333,1.191998 -0.95066,3.538665 -0.95066,8.342665 0,3.999999 1.15065,10.625333 3.35733,17.201328 3.03732,9.08934 7.84666,18.236 12.72399,21.26934 1.58667,0.98933 2.31201,1.16666 3.29067,-0.588 2.05467,-3.69734 1.04933,-11.71734 0.87601,-13.41467 -0.21334,-2.1 -1.56935,-9.956 -5.31867,-18.565332 -3.19867,-7.337333 -7.73733,-13.504 -11.38267,-15.165328"/>
  <path d="m 175.65544,18.518798 c -3.86135,0 -13.06267,0.902667 -22.62,5.069333 -1.82934,-5.589333 -9.70667,-18.7946611 -22.51335,-18.797327 -4.43599,0 -8.29199,1.665333 -11.52532,4.337333 -6.75987,5.590661 -10.67867,16.002661 -10.67867,27.690663 0,4.66 1.01,11.03733 3.374,17.01333 3.85734,9.73733 11.13534,18.59733 22.19399,18.59733 13.74668,0 19.36268,-15.48533 19.36268,-15.48533 0,0 7.03467,-1.54667 14.892,-5.092 10.388,-4.68933 23.06665,-13.492 23.06665,-23.237332 0,-8.584 -10.89198,-10.096 -15.55198,-10.096 z m 7.304,11.32 c -0.388,1.822667 -2.17734,4.102662 -6.112,7.282662 -12.82,10.35467 -31.37467,13.69867 -39.45734,12.38667 -3.54534,-0.576 -4.288,-2.34133 -1.17201,-6.18133 2.53467,-3.12934 5.36001,-5.084 7.79201,-6.744 l 0.29867,-0.188 c -0.288,-2.404 -1.03733,-5.413335 -1.952,-7.744002 -0.02,0.01733 -0.52267,0.316 -0.61467,0.369333 -5.49733,3.166669 -16.58533,11.790669 -15.412,20.089329 1.23334,8.736 13.36934,9.46934 17.436,9.06267 0,0 -4.40267,6.17867 -9.70933,6.17867 -11.34133,0 -18.01573,-15.65067 -18.01573,-27.53334 0,-10.161329 4.7024,-23.709328 15.06639,-23.709328 6.39466,0 11.92001,6.561333 14.65734,14.065333 1.24267,3.418666 2.61333,7.331995 2.50667,15.353335 -0.009,0.83466 -0.0573,1.6 -0.124,2.29466 -0.028,0.27867 -0.084,0.79734 -0.0947,0.83867 2.61733,-0.35467 5.60533,-1.116 8.012,-1.84533 0,0 0.0187,-0.53734 0.0307,-0.83067 0.136,-4.416 -0.044,-8.73067 -0.808,-12.129332 2.136,-0.810667 11.86133,-4.257333 19.17333,-4.236 4.90133,0.012 7.19467,0.934667 8.192,1.937333 0.30667,0.38 0.40533,0.825334 0.30667,1.282667"/>
  <path d="m 243.69542,59.05613 h -4.77866 v 0.87733 h 1.856 v 5.14667 h 1.06801 v -5.14667 h 1.85465 z m 2.68934,0 h -1.64 v 6.024 h 1.06934 v -4.89867 h 0.0267 l 1.88666,4.89867 h 0.73067 l 1.88667,-4.89867 h 0.028 v 4.89867 h 1.06666 v -6.024 h -1.63466 l -1.69734,4.428 -1.72266,-4.428"/>
<div xmlns="" id="divScriptsUsed" style="display: none"/><script xmlns="" id="globalVarsDetection" src="moz-extension://988954a5-4571-47b7-8811-234b4eee0106/js/wrs_env.js"/></svg>