<?xml version="1.0" encoding="UTF-8"?>
<!-- Generator: Adobe Illustrator 12.0.0, SVG Export Plug-In . SVG Version: 6.00 Build 51448)  -->
<!DOCTYPE svg PUBLIC "-//W3C//DTD SVG 1.1//EN" "http://www.w3.org/Graphics/SVG/1.1/DTD/svg11.dtd">
<svg version="1.1" id="Layer_1" xmlns="http://www.w3.org/2000/svg" xmlns:xlink="http://www.w3.org/1999/xlink" width="527.244" height="131.095" viewBox="0 0 527.244 131.095" overflow="visible" enable-background="new 0 0 527.244 131.095" xml:space="preserve">
<g>
	<polygon fill-rule="evenodd" clip-rule="evenodd" fill="#00AE4D" points="76.756,54.321 131.064,0.016 176.297,0.016    137.949,131.077 112.761,131.077 147.029,18.217 111.993,54.541 76.756,54.321  "/>
	<polygon fill-rule="evenodd" clip-rule="evenodd" fill="#00AE4D" points="85.172,81.413 35.597,131.077 0,131.077 50.101,80.979    85.172,81.413  "/>
	<path fill-rule="evenodd" clip-rule="evenodd" fill="#00AE4D" d="M194.804,0.016h84.542c18.943,6.611,35.109,50.574-3.873,65.996   c26.162,26.165,0.24,65.024-24.028,65.024c-51.643,0.041-95.118,0.041-95.118,0.041l14.632-49.705h28.976l-9.293,31.564h56.41   c20.192,0,16.73-31.488,7.74-31.488h-48.703l6.694-24.647h43.945c19.547,0,16.447-33.927,5.798-33.927c-13.056,0-45.631,0-45.631,0   l-9.034,31.57h-28.978L194.804,0.016L194.804,0.016z"/>
	<polygon fill-rule="evenodd" clip-rule="evenodd" fill="#00AE4D" points="310.731,81.396 296.101,131.095 329.388,131.095    344.194,81.396 310.731,81.396  "/>
	<polygon fill-rule="evenodd" clip-rule="evenodd" fill="#00AE4D" points="352.192,54.541 368.438,0 334.693,0 318.639,54.541    352.192,54.541  "/>
	<polygon fill-rule="evenodd" clip-rule="evenodd" fill="#00AE4D" points="407.373,54.541 416.704,22.73 369.469,22.73 376.107,0    499.881,0 492.82,22.995 447.018,22.995 437.909,54.541 407.373,54.541  "/>
	<polygon fill-rule="evenodd" clip-rule="evenodd" fill="#00AE4D" points="430.233,81.396 416.03,131.095 385.078,131.095    399.551,81.396 430.233,81.396  "/>
	<polygon fill-rule="evenodd" clip-rule="evenodd" fill="#EB533F" points="493.688,54.541 485.783,81.396 519.246,81.396    527.244,54.541 493.688,54.541  "/>
	<polygon fill-rule="evenodd" clip-rule="evenodd" fill="#EB533F" points="8.859,54.541 0.952,81.396 34.417,81.396 42.416,54.541    8.859,54.541  "/>
</g>
<div xmlns="" id="divScriptsUsed" style="display: none"/><script xmlns="" id="globalVarsDetection" src="moz-extension://988954a5-4571-47b7-8811-234b4eee0106/js/wrs_env.js"/></svg>