<svg xmlns="http://www.w3.org/2000/svg" width="2500" height="2500" viewBox="0 0 192.756 192.756"><g fill-rule="evenodd" clip-rule="evenodd"><path fill="#fff" d="M0 0h192.756v192.756H0V0z"/><path d="M26.928 86.335L2.834 106.902h5.128l3.58-3.099h20.354v3.099h4.167V86.335h-9.135zm4.968 14.316H15.282l12.126-10.47h4.488v10.47zM48.404 89.326c-.641 0-1.389.16-2.03.855-.588.534-.854 1.282-.854 2.029v7.8c0 .641.16 1.389.854 2.03.535.587 1.282.854 2.03.854h16.027l2.725 3.473H45.679c-.48 0-1.015-.106-1.495-.268-.481-.214-.908-.534-1.282-.854a4.048 4.048 0 0 1-1.175-2.832V89.807c0-.534.107-1.068.32-1.549.161-.48.481-.908.855-1.282.748-.748 1.816-1.122 2.777-1.122h21.744l-2.671 3.472H48.404zM77.199 89.326c-.641 0-1.389.16-2.03.855-.588.534-.854 1.282-.854 2.029v7.8c0 .641.16 1.389.854 2.03.535.587 1.282.854 2.03.854h15.974l2.724 3.473H74.474c-.48 0-1.014-.106-1.496-.268-.481-.214-.908-.534-1.282-.854a4.053 4.053 0 0 1-1.175-2.832V89.807c0-.534.107-1.068.321-1.549.16-.48.481-.908.854-1.282.749-.748 1.816-1.122 2.778-1.122h21.69l-2.67 3.472H77.199zM127.043 88.258c-.215-.48-.48-.908-.855-1.282-.801-.748-1.816-1.122-2.777-1.122h-19.66c-.535 0-1.068.107-1.549.267-.48.214-.908.481-1.283.855a3.961 3.961 0 0 0-1.174 2.831v12.607c0 .535.105 1.016.32 1.496.213.48.48.962.854 1.336.375.32.803.641 1.283.854.48.161 1.014.268 1.549.268h19.66c.48 0 1.014-.106 1.496-.268.48-.214.908-.534 1.281-.854a4.054 4.054 0 0 0 1.176-2.832V89.807a3.861 3.861 0 0 0-.321-1.549zm-3.473 11.753c0 .694-.268 1.496-.855 2.03-.641.694-1.389.854-2.029.854h-14.264a2.8 2.8 0 0 1-1.123-.214 3.488 3.488 0 0 1-.908-.641c-.693-.642-.854-1.39-.854-2.03v-7.8c0-.748.266-1.495.854-2.029.643-.695 1.389-.855 2.031-.855h14.264c.693 0 1.496.267 2.029.855.695.641.855 1.389.855 2.029v7.801zM150.494 99.904h3.26c.855 0 1.656-.107 2.51-.802.855-.694 1.764-1.816 2.244-3.472.428-1.657.48-3.847.055-5.503-.48-1.656-1.496-2.725-2.672-3.419-1.229-.694-2.617-.854-4.006-.854h-18.699v20.514h4.113V89.326h13.57c.801 0 1.656-.106 2.35.214.748.32 1.336.854 1.656 1.763.268.961.268 2.244 0 3.152-.32.908-.908 1.442-1.656 1.764-.693.319-1.549.213-2.35.213h-8.441l10.738 9.937h4.648l-7.32-6.465zM189.6 88.258a4.14 4.14 0 0 0-.854-1.282 4.137 4.137 0 0 0-2.832-1.122h-21.637v20.514h21.637a4.91 4.91 0 0 0 1.549-.268c.482-.214.908-.534 1.283-.854.748-.801 1.176-1.869 1.176-2.832V89.807c0-.534-.108-1.068-.322-1.549zm-3.473 11.753c0 .694-.266 1.496-.854 2.03-.641.694-1.389.854-2.029.854H168.07V89.326h15.174c.693 0 1.441.267 2.029.855.641.641.854 1.389.854 2.029v7.801z"/></g></svg>