<?xml version="1.0" encoding="UTF-8" standalone="no"?>
<svg xmlns:dc="http://purl.org/dc/elements/1.1/" xmlns:cc="http://creativecommons.org/ns#" xmlns:rdf="http://www.w3.org/1999/02/22-rdf-syntax-ns#" xmlns:svg="http://www.w3.org/2000/svg" xmlns="http://www.w3.org/2000/svg" version="1.1" id="svg4626" viewBox="0 0 1316.7829 353.68223" height="99.816986mm" width="371.6254mm">
  <defs id="defs4628"/>
  <metadata id="metadata4631">
    <rdf:RDF>
      <cc:Work rdf:about="">
        <dc:format>image/svg+xml</dc:format>
        <dc:type rdf:resource="http://purl.org/dc/dcmitype/StillImage"/>
        <dc:title/>
      </cc:Work>
    </rdf:RDF>
  </metadata>
  <g transform="translate(324.10575,-675.48605)" id="layer1">
    <g id="g5322">
      <g id="g4156" transform="matrix(9.7851732,0,0,-9.7851732,992.67718,814.18109)">
        <path d="m 0,0 c 0,-7.826 -6.348,-14.174 -14.177,-14.174 -7.827,0 -14.171,6.348 -14.171,14.174 0,7.829 6.344,14.174 14.171,14.174 C -6.348,14.174 0,7.829 0,0" style="fill:#6b489d;fill-opacity:1;fill-rule:nonzero;stroke:none" id="path4158"/>
      </g>
      <g id="g4160" transform="matrix(9.7851732,0,0,-9.7851732,915.64148,853.17798)">
        <path d="m 0,0 c -1.36,-1.579 -2.911,-2.561 -4.067,-3.038 -1.197,-0.489 -1.73,-0.505 -1.784,0.835 -0.102,2.579 1.045,7.362 2.221,11.656 1.016,3.72 1.156,4.365 -0.61,4.94 -1.337,0.429 -2.287,0.133 -4.25,-1.676 -2.536,-2.335 -6.396,-7.638 -8.338,-11.676 0.497,-0.441 1.048,-0.875 1.458,-1.172 0.441,-0.318 0.79,-0.219 1.115,0.284 1.439,2.238 3.833,4.631 6.602,6.31 0.128,0.457 0.263,0.909 0.398,1.349 -2.29,-1.079 -4.164,-2.47 -4.164,-2.47 2.37,4.347 5.804,7.867 6.432,7.591 0.402,-0.173 -0.974,-3.678 -1.959,-7.251 -1.129,-4.091 -1.699,-7.211 -1.523,-9.495 0.162,-2.078 1.792,-2.63 4.222,-1.566 1.829,0.805 3.559,2.368 4.823,4.274 L 0.025,0.023 C 0.02,0.017 0.01,0.004 0,0 M -0.698,9.1 C -1.36,9.226 -2.049,9.252 -2.776,9.18 -2.828,8.997 -2.887,8.781 -2.949,8.539 -1.121,8.961 0.536,8.713 1.631,7.142 2.704,5.592 2.046,3.179 0.957,1.341 L 1.433,0.395 C 1.438,0.408 1.448,0.416 1.452,0.43 4.41,6.547 1.115,8.767 -0.698,9.1" style="fill:#ffffff;fill-opacity:1;fill-rule:nonzero;stroke:none" id="path4162"/>
      </g>
      <g id="g4164" transform="matrix(9.7851732,0,0,-9.7851732,181.37383,814.18109)">
        <path d="m 0,0 c 0,-0.781 -0.632,-1.414 -1.415,-1.414 -0.787,0 -1.422,0.633 -1.422,1.414 0,0.785 0.635,1.423 1.422,1.423 C -0.632,1.423 0,0.785 0,0" style="fill:#6b489d;fill-opacity:1;fill-rule:nonzero;stroke:none" id="path4166"/>
      </g>
      <g id="g4168" transform="matrix(9.7851732,0,0,-9.7851732,-278.21031,766.30717)">
        <path d="m 0,0 -1.683,-6.032 3.354,0 L 0,0 Z m 2.798,-9.783 -0.691,2.234 -4.236,0 -0.688,-2.234 -1.753,0 3.513,11.35 2.151,0 3.464,-11.35 -1.76,0 z m 36.856,11.35 1.637,0 0,-11.35 -1.637,0 0,11.35 z m -3.311,-6.46 c 0,0.221 0.054,0.937 -0.287,1.588 -0.181,0.326 -0.663,1.092 -1.746,1.082 -0.47,0 -0.899,-0.148 -1.24,-0.436 -0.863,-0.737 -0.918,-1.948 -0.937,-2.234 l 4.21,0 z m -4.191,-1.094 c 0.033,-0.377 0.107,-0.629 0.163,-0.773 0.25,-0.777 0.845,-1.407 1.599,-1.692 0.307,-0.112 0.74,-0.231 1.479,-0.231 0.427,0 1.096,0.033 2.045,0.373 l -0.015,-1.314 c -0.395,-0.142 -1.169,-0.359 -2.281,-0.359 -0.325,0 -1.428,0 -2.398,0.486 -0.917,0.452 -2.286,1.619 -2.266,4.122 0,0.323 0.018,1.134 0.345,1.96 0.283,0.705 1.2,2.467 3.506,2.467 2.196,0 3.602,-1.635 3.602,-3.778 0,-0.359 -0.021,-0.597 -0.182,-1.261 l -5.597,0 z m -2.409,3.467 -2.431,0 0,-4.456 c 0,-0.074 -0.014,-0.487 0.055,-0.773 0.251,-0.862 1.187,-0.834 1.404,-0.834 0.304,0 0.576,0.019 1.15,0.172 l -0.017,-1.355 c -0.521,-0.109 -0.939,-0.162 -1.476,-0.162 -0.213,0 -0.989,0 -1.618,0.344 -1.097,0.589 -1.134,1.745 -1.134,2.805 l 0,7.26 1.636,1.274 0,-2.918 2.431,0 0,-1.357 z m -7.722,-2.91 c -0.969,0 -2.324,-0.035 -3.129,-0.705 -0.381,-0.306 -0.579,-0.697 -0.579,-1.204 0,-0.305 0.073,-0.577 0.257,-0.79 0.34,-0.435 0.952,-0.608 2.032,-0.608 0.25,0 0.795,0.013 1.419,0.126 l 0,3.181 z m -4.624,3.726 c 0.18,0.085 0.373,0.179 0.571,0.27 0.418,0.163 1.338,0.486 2.526,0.486 1.225,0 1.923,-0.323 2.338,-0.687 0.088,-0.069 0.376,-0.323 0.523,-0.649 0.162,-0.34 0.27,-0.733 0.27,-1.598 L 23.607,-9.66 c -1.314,-0.289 -2.646,-0.323 -3.075,-0.323 -0.724,0 -1.28,0.073 -1.553,0.127 -0.499,0.09 -2.283,0.486 -2.283,2.405 0,0.421 0.07,1.265 0.903,1.966 1.219,1.062 2.949,1.131 4.422,1.131 l 0,0.398 c 0,0.504 -0.017,0.686 -0.108,0.903 -0.175,0.413 -0.663,0.81 -1.669,0.81 -0.774,0 -1.674,-0.239 -2.361,-0.56 -0.179,-0.073 -0.344,-0.176 -0.503,-0.269 l 0.017,1.368 z m -1.908,-1.188 -0.018,0 c -0.179,0.127 -0.193,0.141 -0.307,0.196 -0.572,0.325 -1.202,0.344 -1.42,0.344 -0.217,0 -0.701,-0.019 -1.223,-0.272 -0.631,-0.287 -1.637,-1.059 -1.637,-2.786 0,-0.258 0,-0.725 0.217,-1.284 0.435,-1.166 1.451,-1.889 2.699,-1.889 0.879,0 1.478,0.365 1.743,0.53 l 0.023,-1.388 c -0.148,-0.092 -0.324,-0.202 -0.49,-0.254 -0.229,-0.109 -0.826,-0.288 -1.579,-0.288 -2.613,0.019 -4.321,2.034 -4.321,4.573 0,0.305 0.017,1.039 0.323,1.814 0.322,0.866 1.366,2.648 3.922,2.648 0.451,0 1.137,-0.036 2.068,-0.486 l 0,-1.458 z m -9.716,4.459 1.634,0 0,-11.35 -1.634,0 0,11.35 z m 90.067,-4.087 -2.428,0 0,-4.456 c 0,-0.074 -0.017,-0.487 0.057,-0.773 0.254,-0.862 1.185,-0.834 1.401,-0.834 0.307,0 0.577,0.019 1.149,0.172 l -0.014,-1.355 c -0.521,-0.109 -0.938,-0.162 -1.475,-0.162 -0.221,0 -0.991,0 -1.623,0.344 -1.096,0.589 -1.133,1.745 -1.133,2.805 l 0,7.26 1.638,1.274 0,-2.918 2.428,0 0,-1.357 z m -11.965,1.371 0,-1.692 c 0.093,0.201 0.232,0.489 0.359,0.667 0.788,1.116 1.834,1.226 2.337,1.226 0.311,0 1.137,-0.036 1.838,-0.558 1.078,-0.813 1.113,-2.035 1.113,-3.241 l 0,-5.036 -1.635,0 0,4.838 c 0,0.76 -0.019,1.512 -0.613,2.069 -0.161,0.166 -0.559,0.437 -1.187,0.437 -0.236,0 -0.756,-0.058 -1.26,-0.453 -0.898,-0.736 -0.879,-1.981 -0.879,-3.005 l 0,-3.886 -1.638,0 0,8.634 1.565,0 z m -4.968,-3.744 c 0,0.221 0.054,0.937 -0.287,1.588 -0.181,0.326 -0.671,1.092 -1.743,1.082 -0.469,0 -0.901,-0.148 -1.244,-0.436 -0.865,-0.737 -0.917,-1.948 -0.937,-2.234 l 4.211,0 z m -4.191,-1.094 c 0.032,-0.377 0.109,-0.629 0.163,-0.773 0.244,-0.777 0.843,-1.407 1.602,-1.692 0.306,-0.112 0.732,-0.231 1.468,-0.231 0.433,0 1.102,0.033 2.054,0.373 l -0.018,-1.314 c -0.394,-0.142 -1.171,-0.359 -2.284,-0.359 -0.323,0 -1.418,0 -2.395,0.486 -0.917,0.452 -2.282,1.619 -2.265,4.122 0,0.323 0.015,1.134 0.341,1.96 0.29,0.705 1.203,2.467 3.509,2.467 2.196,0 3.597,-1.635 3.597,-3.778 0,-0.359 -0.016,-0.597 -0.176,-1.261 l -5.596,0 z m -2.848,3.095 -0.019,0 c -0.176,0.127 -0.196,0.141 -0.302,0.196 -0.575,0.325 -1.204,0.344 -1.423,0.344 -0.215,0 -0.7,-0.019 -1.222,-0.272 -0.632,-0.287 -1.637,-1.059 -1.637,-2.786 0,-0.258 0,-0.725 0.214,-1.284 0.435,-1.166 1.457,-1.889 2.702,-1.889 0.879,0 1.472,0.365 1.744,0.53 l 0.019,-1.388 c -0.141,-0.092 -0.324,-0.202 -0.488,-0.254 -0.232,-0.109 -0.825,-0.288 -1.584,-0.288 -2.607,0.019 -4.321,2.034 -4.321,4.573 0,0.305 0.023,1.039 0.328,1.814 0.321,0.866 1.366,2.648 3.923,2.648 0.445,0 1.134,-0.036 2.066,-0.486 l 0,-1.458 z m -13.405,1.743 0,-4.896 c 0,-0.787 0.02,-1.65 0.758,-2.157 0.197,-0.142 0.629,-0.341 1.258,-0.341 0.681,0.02 1.01,0.183 1.243,0.363 0.717,0.592 0.664,1.653 0.664,2.465 l 0,4.566 1.637,0 0,-4.566 c 0,-1.064 -0.019,-1.462 -0.161,-2.004 -0.13,-0.43 -0.395,-1.219 -1.385,-1.778 -0.827,-0.486 -1.693,-0.486 -2.033,-0.486 -0.54,0 -0.991,0.073 -1.171,0.127 -0.953,0.232 -1.819,0.882 -2.176,1.803 -0.25,0.642 -0.271,1.415 -0.271,2.14 l 0,4.764 1.637,0 z m -7.012,2.716 0,-9.822 4.504,0 0,-1.528 -6.144,0 0,11.35 1.64,0 z" style="fill:#000000;fill-opacity:1;fill-rule:nonzero;stroke:none" id="path4170"/>
      </g>
      <g id="g4448" transform="matrix(9.7851732,0,0,-9.7851732,-324.10575,1008.2319)">
        <path d="m 0,0 0,8.299 3.879,0 0,-0.704 -3.068,0 0,-3.046 2.834,0 0,-0.67 -2.834,0 0,-3.151 3.068,0 L 3.879,0 0,0 Z" style="fill:#292829;fill-opacity:1;fill-rule:nonzero;stroke:none" id="path4450"/>
      </g>
      <g id="g4452" transform="matrix(9.7851732,0,0,-9.7851732,-236.33369,1008.2319)">
        <path d="m 0,0 0,3.291 c 0,0.13 -0.012,0.259 -0.012,0.389 0,0.788 -0.517,1.386 -1.328,1.386 -0.353,0 -0.694,-0.117 -0.964,-0.34 -0.658,-0.541 -0.624,-1.435 -0.624,-2.21 l 0,-2.516 -0.763,0 0,5.643 0.729,0 0,-1.058 c 0.317,0.751 0.916,1.199 1.74,1.199 C -0.635,5.784 0,5.561 0.353,5.066 0.729,4.526 0.764,4.02 0.764,3.374 L 0.764,0 0,0 Z" style="fill:#292829;fill-opacity:1;fill-rule:nonzero;stroke:none" id="path4454"/>
      </g>
      <g id="g4456" transform="matrix(9.7851732,0,0,-9.7851732,-197.11369,1009.0391)">
        <path d="m 0,0 c -1.175,0 -1.576,0.552 -1.576,1.658 l 0,5.266 0.765,0.482 0,-1.681 1.611,0 0,-0.693 -1.611,0 0,-3.351 c 0,-0.647 0.153,-1.023 0.87,-1.023 0.305,0 0.587,0.047 0.881,0.118 l 0,-0.659 C 0.635,0.036 0.318,0 0,0" style="fill:#292829;fill-opacity:1;fill-rule:nonzero;stroke:none" id="path4458"/>
      </g>
      <g id="g4460" transform="matrix(9.7851732,0,0,-9.7851732,-139.61406,983.16023)">
        <path d="m 0,0 -3.785,0 c 0,-0.246 0.058,-0.483 0.141,-0.717 0.318,-0.905 1.165,-1.316 2.081,-1.316 0.459,0 0.917,0.082 1.34,0.247 l -0.011,-0.682 c -0.435,-0.165 -0.895,-0.236 -1.353,-0.236 -1.916,0 -2.998,1.141 -2.998,3.058 0,1.468 0.858,2.868 2.458,2.868 1.352,0 2.234,-1.093 2.234,-2.398 C 0.107,0.542 0.059,0.271 0,0 m -2.198,2.575 c -0.741,0 -1.246,-0.541 -1.469,-1.21 C -3.75,1.129 -3.785,0.882 -3.809,0.635 l 3.14,0 0,0.2 c 0.023,0.94 -0.518,1.74 -1.529,1.74" style="fill:#292829;fill-opacity:1;fill-rule:nonzero;stroke:none" id="path4462"/>
      </g>
      <g id="g4464" transform="matrix(9.7851732,0,0,-9.7851732,-101.88541,959.34414)">
        <path d="m 0,0 c -0.458,0 -0.893,-0.189 -1.211,-0.517 -0.434,-0.448 -0.54,-1.011 -0.54,-1.611 l 0,-2.868 -0.764,0 0,5.642 0.717,0 0,-1.27 c 0.282,0.824 0.917,1.376 1.81,1.376 0.224,0 0.423,-0.046 0.636,-0.106 l 0,-0.752 C 0.435,-0.036 0.224,0 0,0" style="fill:#292829;fill-opacity:1;fill-rule:nonzero;stroke:none" id="path4466"/>
      </g>
      <g id="g4468" transform="matrix(9.7851732,0,0,-9.7851732,-63.007974,1009.6175)">
        <path d="m 0,0 c -0.716,0 -1.316,0.318 -1.681,0.94 l 0,-2.938 -0.764,0 0,7.782 0.717,0 0,-1.081 c 0.365,0.706 0.976,1.223 1.811,1.223 1.551,0 2.362,-1.552 2.362,-2.928 C 2.445,1.563 1.611,0 0,0 m -0.011,5.255 c -0.271,0 -0.506,-0.082 -0.73,-0.223 C -1.434,4.609 -1.704,3.704 -1.704,2.94 -1.704,2.21 -1.48,1.399 -0.858,0.965 -0.61,0.788 -0.305,0.671 0,0.671 c 1.176,0 1.658,1.339 1.658,2.327 0,0.976 -0.518,2.257 -1.669,2.257" style="fill:#292829;fill-opacity:1;fill-rule:nonzero;stroke:none" id="path4470"/>
      </g>
      <g id="g4472" transform="matrix(9.7851732,0,0,-9.7851732,-2.3829546,959.34414)">
        <path d="m 0,0 c -0.458,0 -0.894,-0.189 -1.211,-0.517 -0.435,-0.448 -0.54,-1.011 -0.54,-1.611 l 0,-2.868 -0.765,0 0,5.642 0.717,0 0,-1.27 c 0.282,0.824 0.918,1.376 1.81,1.376 0.224,0 0.424,-0.046 0.635,-0.106 l 0,-0.752 C 0.435,-0.036 0.223,0 0,0" style="fill:#292829;fill-opacity:1;fill-rule:nonzero;stroke:none" id="path4474"/>
      </g>
      <g id="g4476" transform="matrix(9.7851732,0,0,-9.7851732,16.245119,942.77878)">
        <path d="m 0,0 c -0.318,0 -0.483,0.152 -0.483,0.471 0,0.34 0.142,0.505 0.494,0.505 0.33,0 0.495,-0.154 0.495,-0.494 C 0.506,0.142 0.33,0 0,0 m -0.364,-1.046 0.764,0 0,-5.643 -0.764,0 0,5.643 z" style="fill:#292829;fill-opacity:1;fill-rule:nonzero;stroke:none" id="path4478"/>
      </g>
      <g id="g4480" transform="matrix(9.7851732,0,0,-9.7851732,49.835661,1009.6175)">
        <path d="m 0,0 c -0.53,0 -1.117,0.07 -1.611,0.224 l 0,0.682 c 0.494,-0.164 1.012,-0.224 1.529,-0.224 0.6,0 1.352,0.165 1.352,0.905 0,1.353 -2.975,1.047 -2.975,2.833 0,1.046 0.999,1.506 1.904,1.506 0.565,0 1.106,-0.082 1.646,-0.224 l 0,-0.682 C 1.305,5.162 0.751,5.244 0.199,5.244 -0.294,5.244 -0.94,5.032 -0.94,4.432 -0.94,3.221 2.069,3.468 2.069,1.563 2.069,0.411 0.987,0 0,0" style="fill:#292829;fill-opacity:1;fill-rule:nonzero;stroke:none" id="path4482"/>
      </g>
      <g id="g4484" transform="matrix(9.7851732,0,0,-9.7851732,123.45242,983.16023)">
        <path d="m 0,0 -3.786,0 c 0,-0.246 0.059,-0.483 0.141,-0.717 0.318,-0.905 1.164,-1.316 2.081,-1.316 0.459,0 0.917,0.082 1.34,0.247 l -0.012,-0.682 c -0.435,-0.165 -0.893,-0.236 -1.351,-0.236 -1.917,0 -2.998,1.141 -2.998,3.058 0,1.468 0.858,2.868 2.456,2.868 1.353,0 2.235,-1.093 2.235,-2.398 C 0.106,0.542 0.058,0.271 0,0 m -2.199,2.575 c -0.74,0 -1.245,-0.541 -1.469,-1.21 C -3.75,1.129 -3.786,0.882 -3.809,0.635 l 3.138,0 0,0.2 c 0.024,0.94 -0.517,1.74 -1.528,1.74" style="fill:#292829;fill-opacity:1;fill-rule:nonzero;stroke:none" id="path4486"/>
      </g>
    </g>
  </g>
<div xmlns="" id="divScriptsUsed" style="display: none"/><script xmlns="" id="globalVarsDetection" src="moz-extension://988954a5-4571-47b7-8811-234b4eee0106/js/wrs_env.js"/></svg>