<?xml version="1.0" encoding="utf-8"?>
<!-- Generator: Adobe Illustrator 25.0.1, SVG Export Plug-In . SVG Version: 6.00 Build 0)  -->
<svg version="1.0"
	 id="svg2918" sodipodi:docname="Alien_Technology_logo.svg" xmlns:cc="http://creativecommons.org/ns#" xmlns:dc="http://purl.org/dc/elements/1.1/" xmlns:inkscape="http://www.inkscape.org/namespaces/inkscape" xmlns:rdf="http://www.w3.org/1999/02/22-rdf-syntax-ns#" xmlns:sodipodi="http://sodipodi.sourceforge.net/DTD/sodipodi-0.dtd" xmlns:svg="http://www.w3.org/2000/svg"
	 xmlns="http://www.w3.org/2000/svg" xmlns:xlink="http://www.w3.org/1999/xlink" x="0px" y="0px" viewBox="0 0 436 311"
	 style="enable-background:new 0 0 436 311;" xml:space="preserve">
<style type="text/css">
	.st0{fill:#B50042;}
</style>
<defs>
	
		<inkscape:perspective  id="perspective2958" inkscape:persp3d-origin="360.11017 : 222.80436 : 1" inkscape:vp_x="0 : 334.20654 : 1" inkscape:vp_y="0 : 1000 : 0" inkscape:vp_z="720.22034 : 334.20654 : 1" sodipodi:type="inkscape:persp3d">
		</inkscape:perspective>
</defs>
<sodipodi:namedview  bordercolor="#666666" borderopacity="1" gridtolerance="10" guidetolerance="10" id="namedview2952" inkscape:current-layer="svg2918" inkscape:cx="121" inkscape:cy="117.40574" inkscape:pageopacity="0" inkscape:pageshadow="2" inkscape:window-height="689" inkscape:window-maximized="1" inkscape:window-width="1024" inkscape:window-x="0" inkscape:window-y="27" inkscape:zoom="2.1010384" objecttolerance="10" pagecolor="#ffffff" showgrid="false">
	</sodipodi:namedview>
<g id="g3787" transform="matrix(0.33318137,0,0,0.33318137,0.77073558,0.87175471)">
	<g id="g3783">
		<path id="path3779" d="M1001.8,777.7c-1.7,0-3.4,0.5-5.1,1.3c-1.6,0.9-2.9,2.2-3.9,3.8c-0.9,1.6-1.4,3.4-1.4,5.2
			c0,1.8,0.4,3.5,1.3,5.1s2.2,2.9,3.8,3.8c1.6,0.9,3.4,1.3,5.2,1.3c1.8,0,3.5-0.4,5.1-1.3c1.6-0.9,2.9-2.2,3.8-3.8
			c0.9-1.6,1.4-3.3,1.4-5.1c0-1.8-0.5-3.5-1.4-5.2c-0.9-1.7-2.2-2.9-3.9-3.8C1005.2,778.2,1003.6,777.7,1001.8,777.7z M1001.8,779.5
			c1.4,0,2.8,0.3,4.2,1.1c1.4,0.7,2.5,1.8,3.2,3.2c0.8,1.4,1.2,2.8,1.2,4.3c0,1.5-0.4,2.9-1.1,4.3c-0.8,1.4-1.8,2.4-3.2,3.2
			c-1.4,0.8-2.8,1.1-4.3,1.1c-1.5,0-2.9-0.4-4.3-1.1c-1.4-0.8-2.4-1.8-3.2-3.2c-0.8-1.4-1.2-2.8-1.2-4.3c0-1.5,0.4-2.9,1.2-4.3
			c0.8-1.4,1.9-2.4,3.2-3.2C999,779.8,1000.4,779.5,1001.8,779.5z"/>
		<path id="path3775" d="M997.3,782.7v11.1h1.8v-4.7h1.1c0.6,0,1.1,0.1,1.4,0.4c0.5,0.3,1.1,1.2,1.9,2.6l1,1.8h2.2l-1.3-2.2
			c-0.6-1-1.2-1.8-1.6-2.2c-0.2-0.2-0.6-0.4-1-0.6c1-0.1,1.7-0.4,2.3-1c0.6-0.6,0.9-1.3,0.9-2.1c0-0.6-0.2-1.1-0.5-1.6
			c-0.3-0.5-0.8-0.9-1.4-1.1c-0.6-0.2-1.5-0.3-2.8-0.3H997.3z M999.1,784.2h2.1c0.9,0,1.5,0.1,1.8,0.2c0.3,0.1,0.6,0.3,0.8,0.6
			c0.2,0.3,0.3,0.5,0.3,0.9c0,0.5-0.2,0.9-0.6,1.2c-0.4,0.3-1.1,0.5-2.1,0.5h-2.2V784.2z"/>
	</g>
	<g id="g3754">
		<path id="path2921" class="st0" d="M318.4,497.1l30.9,16.8L713,496.2L318.4,497.1z"/>
		<path id="path2923" class="st0" d="M343.3,541.6l30.9,16.8l363.8-17.6L343.3,541.6z"/>
		<path id="path2925" class="st0" d="M367.7,585.3l30.9,16.8l363.8-17.6L367.7,585.3z"/>
		<path id="path2927" class="st0" d="M914.7,612.2l-0.9-35.1L716.6,270.9L914.7,612.2z"/>
		<path id="path2929" class="st0" d="M889.1,655.3l-0.9-35.1L691,314L889.1,655.3z"/>
		<path id="path2931" class="st0" d="M863,699.1l-0.9-35.1L664.9,357.8L863,699.1z"/>
		<path id="path2933" class="st0" d="M512.8,470.8l179.6-304.5v-36.5L512.8,470.8z"/>
		<path id="path2935" class="st0" d="M565,470.8l179.6-304.5v-36.5L565,470.8z"/>
		<path id="path2937" class="st0" d="M460.6,470.8l179.6-304.5v-36.5L460.6,470.8z"/>
	</g>
	<g id="g3747">
		<path id="path2939" d="M436.7,796.6h24l-73.9-71.1h-21.9l-73.1,71.1h97.9l-66.2-8.3l52.7-53.2
			C376.3,735.2,436.7,796.6,436.7,796.6z"/>
		<path id="path2941" d="M627.2,796.6h19.6v-71.1h-19.6V796.6z"/>
		<path id="path2945" d="M513.9,788.4v-62.9h-19.6v71.1h101.5v-8.2H513.9z"/>
		<path id="path2947" d="M719.9,756v-21.5h84.5v-9h-84.5h-19.6v71.1h19.6h87.8v-8.2h-87.8V765h79.9v-9H719.9z"/>
		<path id="path2949" d="M916.6,725.5l46.2,9.3v50.7l-85.7-60h-7.1h-19.6v71.1h19.6v-59.8l85.5,59.8h7.3h19.6v-71.1h-19.6H916.6z"/>
	</g>
	<g id="Layer_x0020_1">
	</g>
</g>
</svg>
