<?xml version="1.0" encoding="UTF-8" standalone="no"?>
<!-- Created with Inkscape (http://www.inkscape.org/) -->
<svg xmlns:svg="http://www.w3.org/2000/svg" xmlns="http://www.w3.org/2000/svg" version="1.1" width="1201.225" height="672.84564" id="svg2">
  <defs id="defs4"/>
  <g id="g2862">
    <path d="m 541.66574,632.02446 c -32.17763,-3.66527 -48.66436,-18.09683 -50.42023,-44.13478 l -0.52008,-7.71162 10.70637,0 10.70637,0 0,4.24668 c 0,9.61405 4.76164,19.04576 12.05375,23.87587 16.23705,10.75502 61.15057,10.64468 75.34938,-0.18507 12.10486,-9.23271 10.8495,-22.26481 -2.81787,-29.2526 -7.02973,-3.59414 -15.64736,-5.60251 -45.36617,-10.57249 -36.76494,-6.14832 -44.87809,-8.52632 -52.78986,-15.47294 -5.8529,-5.13894 -7.52566,-15.43769 -3.40977,-20.99279 2.93606,-3.9628 8.63129,-7.73621 14.18876,-9.40095 l 5.32569,-1.59529 -5.95302,-5.51156 c -11.49736,-10.64477 -15.52899,-25.98533 -12.01399,-45.71403 3.9888,-22.38819 18.68917,-33.85374 48.01914,-37.45282 4.10752,-0.50403 23.7717,-0.9164 43.69826,-0.9164 l 36.23006,0 -0.41087,5.06763 c -0.22597,2.7872 -0.7947,5.31432 -1.26383,5.61573 -0.46913,0.30142 -4.38628,1.03089 -8.70469,1.62112 -4.31851,0.59014 -8.85726,1.34182 -10.0861,1.67047 l -2.23425,0.59754 4.64856,3.0694 c 5.97867,3.94764 9.72678,8.96751 12.29259,16.46399 1.72996,5.05424 2.05472,7.79173 2.07006,17.45179 0.0203,12.63436 -1.01115,18.20867 -4.90344,26.50479 -4.95562,10.56262 -16.42804,18.46082 -32.09417,22.09524 -9.02859,2.09456 -39.5807,2.33684 -49.57196,0.39316 -18.49378,-3.59784 -28.41312,8.64917 -12.02386,14.84544 5.33185,2.01577 15.15954,3.98633 28.98669,5.812 17.54926,2.3171 36.53888,5.64499 45.12671,7.90816 14.66098,3.86374 25.0766,10.40407 30.05531,18.87292 l 2.37483,4.03966 0,9.71311 0,9.7132 -2.89666,5.88401 c -6.47591,13.15435 -21.45082,20.77043 -46.28417,23.53947 -9.88127,1.10184 -27.98885,1.05998 -38.06754,-0.0881 z m 37.74727,-116.92734 c 9.10649,-3.28683 14.71059,-8.62573 17.97556,-17.12526 1.04957,-2.7322 1.44758,-6.89031 1.49535,-15.62118 l 0.0652,-11.89793 -2.08285,-4.6067 c -5.18264,-11.46308 -17.66656,-16.97252 -38.45823,-16.97252 -18.24366,0 -30.68449,4.24791 -36.01026,12.29576 -3.9636,5.98941 -5.22962,12.32034 -4.7486,23.74632 0.6491,15.41909 4.15361,22.46293 13.78353,27.70418 7.26708,3.95523 13.74554,4.98523 29.17865,4.63922 11.13637,-0.24976 14.61056,-0.64927 18.8018,-2.16189 z m -194.01603,58.84784 c -18.01645,-2.33904 -32.98113,-11.5751 -38.43109,-23.71926 -5.96333,-13.28805 -3.86691,-31.91623 4.59278,-40.81033 5.86365,-6.16488 17.65246,-11.36066 33.23919,-14.64996 6.55267,-1.3828 63.93495,-8.88942 67.95266,-8.88942 0.32997,0 0.3617,-3.07363 0.0705,-6.83029 -1.21358,-15.65406 -7.59448,-24.8627 -20.32958,-29.33879 -6.92697,-2.43458 -19.2519,-3.79676 -28.49051,-3.14872 -22.3763,1.56938 -33.92997,11.06305 -36.02762,29.60372 l -0.60045,5.30744 -10.0214,0 -10.02149,0 0.015,-4.18631 c 0.0212,-5.82584 2.03375,-14.70398 4.69536,-20.71393 2.45424,-5.54197 9.62895,-13.74413 15.01051,-17.16033 11.56708,-7.3427 30.78302,-10.62855 52.63219,-8.99995 30.77147,2.29366 45.78366,12.19714 51.34898,33.87463 2.71713,10.58342 3.20883,20.47307 3.20883,64.53417 l 0,44.30981 -6.00784,0 -6.00792,0 -2.14436,-13.77982 -2.14445,-13.77992 -3.47349,5.05548 c -12.0689,17.56547 -40.21023,27.06804 -69.06604,23.32178 z m 34.16185,-17.93352 c 16.36758,-4.51963 28.27987,-15.97574 32.1794,-30.94721 1.3434,-5.15744 1.93486,-23.32434 0.75944,-23.32434 -4.97951,0 -60.95061,8.52914 -66.83003,10.18392 -14.48621,4.07711 -20.71121,10.27416 -20.71121,20.61822 0,6.43836 1.498,10.87506 5.08765,15.06886 3.59476,4.19961 9.35414,7.30347 16.06422,8.65728 2.66602,0.53796 5.6405,1.1615 6.60996,1.3858 3.46644,0.80192 22.12256,-0.33975 26.84057,-1.64253 z m 272.01504,17.875 c -9.32137,-1.19605 -16.12486,-3.17992 -24.18672,-7.05265 -9.44308,-4.53628 -18.57354,-13.32074 -23.26388,-22.38229 -11.65733,-22.52171 -12.13712,-59.94033 -1.06368,-82.96291 3.76142,-7.82046 12.415,-17.4049 19.72218,-21.84371 11.56716,-7.02674 30.08139,-10.84923 48.00196,-9.9107 40.14483,2.1024 59.58348,25.80192 59.58348,72.64361 l 0,9.0567 -56.82872,0 -56.82881,0 0.51576,4.18631 c 2.16383,17.56513 8.67614,29.40145 19.87852,36.13021 2.61887,1.57308 8.09676,3.70352 12.17308,4.73432 9.87704,2.49768 28.32076,2.04168 36.58312,-0.90442 11.08746,-3.95355 19.23427,-12.28289 21.5809,-22.06448 l 1.06878,-4.45538 10.92873,0 c 8.54703,0 10.92864,0.25735 10.92864,1.18098 0,3.07372 -3.74458,15.28795 -5.90225,19.25243 -5.39143,9.90577 -16.82895,18.14328 -30.27184,21.80229 -12.21415,3.32454 -28.96176,4.34221 -42.61925,2.58969 z m 56.76015,-84.08167 c 0,-2.68637 -0.62795,-7.94129 -1.3955,-11.67759 -4.21512,-20.5189 -16.81282,-30.58657 -39.58624,-31.63614 -30.36148,-1.39929 -46.42817,12.55204 -50.17769,43.57126 l -0.55938,4.62697 45.85945,0 45.85936,0 0,-4.8845 z m 90.31151,84.16707 c -27.79796,-3.63512 -44.80988,-18.46144 -51.53133,-44.91079 -2.47556,-9.74132 -3.37954,-31.69845 -1.78706,-43.40627 4.05463,-29.81021 19.74861,-48.07282 46.09846,-53.64343 9.50768,-2.00996 28.67779,-2.43528 37.65033,-0.83532 26.11479,4.65685 41.67217,18.87989 48.19611,44.06251 3.88234,14.98592 3.80002,39.46286 -0.1857,55.24392 -2.42039,9.5832 -8.66609,20.82648 -15.11873,27.21593 -13.54451,13.41187 -37.71131,19.62258 -63.32208,16.27345 z m 27.583,-18.03699 c 15.68147,-3.69726 26.03504,-14.50666 30.80558,-32.16177 2.23619,-8.27575 2.19521,-35.03163 -0.0661,-43.18506 -6.23566,-22.4832 -20.31337,-32.84039 -44.63731,-32.84039 -24.37453,0 -38.63265,10.47229 -44.71258,32.84039 -2.25206,8.28554 -2.19451,35.86696 0.092,44.06639 2.52068,9.03899 5.83985,15.00187 11.55844,20.764 8.53099,8.59611 17.01553,11.70042 32.1808,11.77409 5.25157,0.0256 11.64366,-0.51839 14.77916,-1.25765 z m -794.754246,-70.94019 0,-88.13278 10.575934,0 10.575933,0 0,88.13278 0,88.13278 -10.575933,0 -10.575934,0 0,-88.13278 z m 52.879666,17.18589 0,-70.94688 4.35464,0 c 2.3951,0 4.59454,0.38822 4.88785,0.86273 0.29321,0.47442 1.74776,4.93614 3.23227,9.91494 1.4845,4.9787 2.89956,9.3849 3.14448,9.79146 0.24501,0.40656 1.5522,-1.19861 2.90486,-3.567 6.62882,-11.60664 18.97666,-17.4836 38.76221,-18.44883 22.11101,-1.07866 36.64693,5.80636 43.82235,20.75659 l 2.66963,5.56215 2.23355,-4.87877 c 4.34626,-9.49349 13.02082,-16.30042 24.86534,-19.5118 2.90838,-0.78853 9.84883,-1.65619 15.42323,-1.92817 17.12138,-0.83524 28.71463,2.72524 37.50905,11.51957 7.685,7.685 11.71672,17.90787 13.58038,34.43418 0.49196,4.36257 0.89772,28.05927 0.90168,52.65933 l 0.009,44.72739 -10.57594,0 -10.57593,0 0,-44.88391 c 0,-44.93229 -0.49231,-54.42816 -3.24179,-62.5265 -4.1678,-12.27602 -13.26768,-17.84407 -29.36734,-17.96922 -18.85548,-0.14656 -28.47931,6.47776 -32.98228,22.70265 l -1.71286,6.17159 -0.34504,48.25269 -0.34495,48.2527 -10.50992,0 -10.50992,0 -0.015,-47.81203 c -0.0159,-50.79938 -0.3223,-55.25934 -4.33172,-63.11841 -2.46041,-4.82289 -7.44661,-9.66957 -12.03691,-11.70006 -5.50645,-2.43573 -16.00324,-3.54946 -23.47108,-2.49037 -11.24786,1.59529 -18.12645,5.98659 -22.36352,14.27707 -4.53849,8.88008 -4.73529,11.4919 -4.7493,63.03177 l -0.0132,47.81203 -10.57593,0 -10.57594,0 0,-70.94689 z m 816.99085,0 0,-70.94688 4.75688,0 4.75688,0 2.92169,11.89792 c 1.60692,6.54386 3.13488,11.89008 3.3954,11.88048 0.26052,-0.01 1.66351,-2.03816 3.1177,-4.50782 5.34878,-9.08393 15.73761,-15.65626 29.96514,-18.95692 10.74931,-2.49372 33.65311,-2.2874 43.01701,0.38752 20.9352,5.98043 30.6232,17.76396 34.5665,42.04321 1.0109,6.22456 1.289,17.74942 1.2918,53.54067 l 0,45.60871 -10.0682,0 -10.0683,0 -0.3738,-47.37137 -0.374,-47.37137 -1.4889,-5.72863 c -3.2446,-12.48383 -9.6645,-19.4754 -21.2525,-23.14534 -5.1403,-1.6279 -8.2274,-1.95531 -18.5079,-1.96316 -13.20502,-0.01 -19.2014,1.01706 -26.09383,4.46913 -8.78525,4.4002 -13.74236,10.90132 -16.80322,22.03707 l -1.91724,6.97492 -0.36125,46.04937 -0.36135,46.04938 -10.06097,0 -10.06106,0 0,-70.94689 z m 126.9112,-93.81937 0,-15.82186 -5.5083,-0.26237 -5.5083,-0.26237 0,-2.20332 0,-2.20332 13.4403,-0.24324 13.4402,-0.24334 0,2.66699 0,2.66689 -5.288,0 -5.2879,0 0,15.8639 0,15.8639 -2.644,0 -2.644,0 0,-15.82186 z m 19.3892,-2.7367 0,-18.55855 3.724,0.271 3.7239,0.27101 6.5992,14.32158 c 3.6296,7.87687 6.8122,14.31117 7.0723,14.29848 0.2602,-0.0123 3.255,-6.45748 6.655,-14.32157 l 6.1818,-14.29849 4.1738,-0.26863 4.1737,-0.26863 0,18.55618 0,18.55618 -2.6439,0 -2.644,0 0,-14.15324 c 0,-7.78433 -0.3294,-13.94974 -0.7319,-13.70094 -0.4025,0.2488 -3.4761,6.6163 -6.8303,14.14998 l -6.0984,13.69768 -2.2809,0 -2.2809,0 -6.5324,-14.27557 -6.5324,-14.27557 -0.2421,14.27557 -0.2421,14.27557 -2.6223,0 -2.6221,0 0,-18.55856 z M 81.182462,237.5744 c 5.270605,-12.97341 23.981718,-59.17384 41.580168,-102.66767 l 31.99713,-79.079672 29.96514,-0.0071 29.96515,-0.007 45.12248,101.119702 c 24.8174,55.61582 45.3838,101.8137 45.70302,102.66198 l 0.58053,1.54232 -27.6447,0 -27.64461,0 -8.3638,-20.0502 -8.36371,-20.05012 -46.26971,-0.22368 -46.26971,-0.22377 -7.57351,20.05364 -7.57352,20.05356 -27.396686,0.23285 -27.396603,0.23275 9.582941,-23.58794 z M 218.65602,184.88134 c 0,-0.66361 -30.81844,-74.45629 -32.19754,-77.09493 l -1.15164,-2.20332 -1.02057,2.64398 c -0.74129,1.92051 -25.06109,65.98204 -28.85749,76.01452 -0.32874,0.86868 6.31268,1.10166 31.40514,1.10166 17.5022,0 31.8221,-0.20786 31.8221,-0.46191 z m 111.92863,-26.41859 0,-102.674682 22.3436,0 22.3436,0 32.95972,37.889286 c 18.12785,20.839096 33.18261,37.892796 33.45511,37.897096 0.27242,0.004 15.32312,-17.04589 33.44595,-37.889288 l 32.95073,-37.897094 22.29795,0 22.29794,0 0,102.674682 0,102.67466 -25.55269,0 -25.55277,0 -0.22606,-63.89052 -0.22615,-63.89056 -27.7427,32.16276 -27.7427,32.16275 -3.9851,-0.0227 -3.9851,-0.0227 -27.32116,-31.69938 c -15.02664,-17.4346 -27.61861,-31.70189 -27.98216,-31.70503 -0.36355,-0.004 -0.661,28.54931 -0.661,63.44989 l 0,63.45557 -25.5585,0 -25.55851,0 0,-102.67466 z m 261.75435,-0.059 0,-102.733784 55.30332,0.37096 c 59.69771,0.400422 60.16525,0.433516 78.21784,5.53717 26.7758,7.569769 49.05488,25.469853 60.80342,48.852374 7.56329,15.05274 11.02691,30.39174 11.02127,48.8088 -0.0176,57.36777 -34.17983,93.28452 -96.03802,100.97031 -4.44903,0.55277 -28.05372,0.92787 -58.38797,0.92787 l -50.91986,0 0,-102.73374 z m 104.43734,63.59261 c 30.51466,-6.89895 48.00928,-30.05069 48.00928,-63.53353 0,-29.05194 -13.65644,-51.02012 -37.22817,-59.886496 -10.28844,-3.869999 -19.09529,-4.891132 -42.1837,-4.891132 l -21.03641,0 0,65.329158 0,65.32915 23.13486,-0.47618 c 16.39895,-0.33755 24.93117,-0.8823 29.30414,-1.87097 z" id="path3155" style="fill:#221e1f"/>
    <path d="m 833.74702,276.56064 c -0.0414,-0.48473 -0.0954,-21.44967 -0.11995,-46.58875 l -0.0449,-45.70742 33.61067,-33.61062 33.61058,-33.61062 0,46.92926 0,46.92923 46.56099,0 46.56099,0 -33.15441,33.04733 -33.15432,33.04732 -46.8973,0.2228 c -30.78839,0.1463 -46.92312,-0.0802 -46.97265,-0.65853 l 3e-4,0 z m 205.61218,-33.68205 -31.9814,-31.5362 -0.1871,-53.3203 -0.187,-53.32033 -53.32031,-0.16652 -53.32033,-0.16653 -32.60913,-32.181609 -32.60912,-32.181613 118.53858,-0.04072 118.53861,-0.04072 -0.2211,75.133272 c -0.1217,41.3233 -0.32,94.08368 -0.4407,117.24541 l -0.2195,42.11204 -31.9815,-31.53611 0,-7e-5 z" id="path3157" style="fill:#00a66e"/>
  </g>
<div xmlns="" id="divScriptsUsed" style="display: none"/><script xmlns="" id="globalVarsDetection" src="moz-extension://988954a5-4571-47b7-8811-234b4eee0106/js/wrs_env.js"/></svg>