<svg xmlns="http://www.w3.org/2000/svg" width="2500" height="2500" viewBox="0 0 192.756 192.756"><g fill-rule="evenodd" clip-rule="evenodd"><path fill="#fff" d="M0 0h192.756v192.756H0V0z"/><path d="M2.834 69.23h54.624v54.678H2.834V69.23z"/><path fill="#fff" d="M11.028 115.715V77.424l38.237 19.173-38.237 19.118z"/><path d="M70.022 92.445l7.975-23.16h3.66l8.193 23.16h-3.386l-2.349-6.664h-8.521l-2.185 6.664h-3.387zm6.227-9.395h6.828l-3.113-9.723-3.715 9.723zm14.093 9.395v-23.16h3.714l11.143 18.681V69.285h2.895v23.16h-3.385L93.346 74.092v18.354h-3.004v-.001zm19.228 0l7.975-23.16h3.66l8.193 23.16h-3.387l-2.35-6.664h-8.521l-2.184 6.664h-3.386zm6.282-9.395h6.773l-3.113-9.723-3.66 9.723zm15.349 9.395v-23.16h3.168v20.429h10.814v2.731h-13.982zm13.764-12.454c0-4.916 3.824-10.925 10.926-10.925 4.807 0 10.652 2.95 10.869 11.908 0 6.555-3.822 12.126-11.58 12.126-6.828.001-10.215-5.352-10.215-13.109zm2.896 1.53c.273 2.95 1.475 8.521 7.318 8.958 4.316.546 8.686-2.949 8.467-10.706-.273-4.261-3.168-7.975-7.756-7.975-3.66 0-8.029 2.731-8.029 9.723zm20.157-1.967c.709-5.462 3.877-10.487 11.416-10.706 4.588 0 8.74 3.168 8.957 7.429h-2.895c-.273-1.966-2.949-4.697-6.336-4.697-3.879 0-8.193 2.731-8.193 9.177 0 4.479 1.365 9.505 7.756 9.505 2.404 0 7.43-1.202 7.211-7.539h-6.992v-2.731h9.668v12.454h-2.184l-.492-2.731c-7.211 6.882-18.901 2.73-17.916-10.161zM70.513 100.311h8.412c3.879 0 8.467 3.441 8.467 10.762 0 5.135-1.802 11.853-8.467 11.853h-8.412v-22.615zm2.732 19.774h6.337c6.172 0 6.609-17.098-.875-17.098h-5.462v17.098zm17.37 2.84v-22.614h14.584v2.459H93.346v7.265h11.363v2.731H93.346v7.538h12.345v2.621H90.615zm23.379 0l-7.539-22.614h2.951l6.227 19.01 5.844-19.01h3.006l-7.539 22.614h-2.95zm13.328 0v-22.614h2.73v22.614h-2.73zm6.391-10.87c.219-5.135 2.295-11.525 9.561-11.962 2.512 0 7.1 1.201 8.412 7.593h-2.896c-2.131-7.812-11.908-6.118-12.072 3.823 0 13.001 12.072 10.979 12.455 3.223h3.004c-.49 4.151-3.715 8.85-8.686 8.85-6.61.272-9.778-5.245-9.778-11.527zm22.014 10.87v-22.614h14.529v2.459h-11.854v7.265h11.363v2.731h-11.363v7.538h12.346v2.621h-15.021zm17.316-7.265h2.785c0 7.047 10.215 6.828 10.871 1.967.709-7.319-13.656-1.748-12.947-11.689.219-3.168 2.678-5.845 7.484-5.845s7.975 2.458 7.756 6.827h-2.676c.383-5.353-9.615-6.062-9.887-.546.709 5.135 12.562 1.748 13.492 9.833.491 9.559-17.097 10.542-16.878-.547z"/></g></svg>