<svg height="612" viewBox="0 .01 120.092 29.369" width="2500" xmlns="http://www.w3.org/2000/svg"><path d="m19.954.236 5.736 15.763c-1.961 2.039-6.109 5.026-10.748 6.769-3.378 1.265-6.857 1.69-9.807 1.831l-5.135-15.415c3.394-.361 7.275-1.208 10.15-2.469 4.618-2.021 7.683-4.495 9.801-6.483z" fill="#cc1526"/><path d="m97.695 23.31h-4.268l8.212-18.744h4.267zm5.916-23.3h4.332l-1.488 3.424h-4.333zm-7.592 0h4.267l-10.216 23.3h-4.267zm-10.826 8.919c0-.775-.387-1.292-1.291-1.292-1.229 0-3.202 1.519-5.013 4.136a14.425 14.425 0 0 0 -.905 1.52c3.945-.259 7.209-2.069 7.209-4.364zm-8.888 9.048c0 1.325.549 1.938 1.744 1.938 1.553 0 3.459-1.098 5.787-3.359l1.486 3.263c-2.067 2.231-4.945 3.944-7.726 3.944-3.426 0-5.302-1.874-5.302-5.075 0-2.325.938-5.072 2.748-7.852 2.554-3.942 6.013-6.722 9.601-6.722 2.782 0 4.527 1.679 4.527 4.331 0 4.653-4.882 7.918-12.609 8.209-.16.549-.256 1.034-.256 1.323zm-6.138-8.468c0-.937-.451-1.453-1.583-1.453-1.358 0-3.169 1.325-4.752 3.491-1.939 2.649-2.91 4.943-2.91 6.752 0 .938.549 1.52 1.52 1.52 1.551 0 3.813-1.743 5.818-4.555l1.648 3.458c-1.876 2.521-4.688 5.042-8.211 5.042-3.103 0-4.882-2.133-4.882-5.075 0-3.229 1.584-6.334 3.717-9.079 2.652-3.427 5.754-5.495 8.728-5.495 3.072 0 4.657 1.81 4.657 4.492 0 .68-.098 1.454-.26 2.037l-3.814.548c.195-.55.324-1.165.324-1.683zm-10.986-5.234c.775 0 1.422.227 2.134.648l-2.263 3.974c-.357-.098-.55-.163-1.165-.163-2.392 0-4.752 2.554-6.691 6.981l-3.331 7.594h-4.267l8.212-18.744h4.202l-1.55 3.523c1.615-2.52 2.746-3.813 4.719-3.813zm-25.538 14.382c0 1.001.485 1.58 1.552 1.58 1.714 0 3.686-1.841 5.076-4.392.193-.357.387-.743.549-1.099-5.27.322-7.177 1.971-7.177 3.911zm8.664-9.018c0-1.131-.388-1.679-1.422-1.679-1.455 0-3.686 1.39-5.754 3.425l-.97-3.619c2.069-1.939 4.881-3.652 7.565-3.652 2.779 0 4.526 1.874 4.526 4.783 0 2.293-1.067 5.494-2.489 7.981-2.102 3.717-5.108 6.885-8.955 6.885-3.071 0-5.108-1.906-5.108-4.782 0-4.525 4.171-7.046 12.318-7.369.191-.712.289-1.358.289-1.973zm19.099 14.962 1.126 3.091c-.385.403-1.198.987-2.108 1.329-.661.249-1.344.333-1.923.358l-1.007-3.023c.667-.069 1.427-.234 1.991-.482a6.601 6.601 0 0 0 1.921-1.273zm43.913-1.291h-4.268l10.217-23.3h4.267l-4.558 10.341 8.049-6.528 1.066 3.62-7.273 5.654 1.778 10.212h-3.912l-1.39-9.146z"/></svg>