<?xml version="1.0" encoding="UTF-8"?>
<!-- Generator: Adobe Illustrator 16.0.0, SVG Export Plug-In . SVG Version: 6.00 Build 0)  -->
<!DOCTYPE svg PUBLIC "-//W3C//DTD SVG 1.1//EN" "http://www.w3.org/Graphics/SVG/1.1/DTD/svg11.dtd">
<svg version="1.1" id="Layer_1" xmlns="http://www.w3.org/2000/svg" xmlns:xlink="http://www.w3.org/1999/xlink" x="0px" y="0px" width="1115px" height="175px" viewBox="0 0 1115 175" enable-background="new 0 0 1115 175" xml:space="preserve">
<g>
	<g>
		<g>
			<path fill="#16325B" d="M391.027,103.426c36.994,0,55.491-25.688,55.491-51.378c0-25.688-18.498-50.353-57.546-50.353     c-28.773-1.029-134.617-1.029-134.617-1.029v173.668h32.879V28.413c25.691,0,90.43,0,103.79,0     c18.496,0,27.745,6.163,27.745,23.635c0,14.385-9.247,22.606-26.718,22.606h-86.315l102.761,98.648h40.078l-73.991-71.932     C381.78,103.426,390,103.426,391.027,103.426z"/>
			<rect x="480.429" y="0.669" fill="#16325B" width="31.856" height="173.665"/>
			<polygon fill="#16325B" points="916.137,27.387 916.137,0.669 848.313,0.669 816.457,0.669 759.938,0.669 741.441,27.387      816.457,27.387 816.457,174.334 848.313,174.334 848.313,27.387    "/>
			<path fill="#16325B" d="M678.756,72.6c-16.441,0-57.543,0-81.182,0c-16.438,0-25.689-7.192-25.689-21.58     c0-16.44,11.305-23.633,25.689-23.633c22.609,0,110.98,0,110.98,0l14.387-26.718c0,0-107.898,0-126.395,0     c-28.775,0-52.407,21.577-52.407,51.382c0,26.715,22.608,48.294,53.434,48.294c17.473,0,69.877,0,81.182,0     c18.5,0,28.775,8.224,28.775,23.637c0,13.357-11.305,22.608-28.775,22.608H566.748l-16.44,27.744c0,0,98.649,0,132.558,0     c33.912,0,52.406-24.658,52.406-52.404C735.275,96.233,713.695,72.6,678.756,72.6z"/>
			<path fill="#16325B" d="M104.325,11.972C97.133,23.272,1.564,174.334,1.564,174.334h33.91l31.858-51.381h67.822l17.47-27.746     H84.8l36.993-59.602l86.321,137.697h33.911c0,0-94.542-149.001-102.765-162.359C130.013-2.413,113.574-1.387,104.325,11.972z"/>
			<path fill="#16325B" d="M1079.523,174.334h33.912c0,0-94.539-149.003-102.764-162.362c-9.244-15.415-25.689-14.385-34.938-1.028     c-7.195,11.301-102.762,162.359-102.762,162.359h33.91l31.855-51.378h68.852l17.467-27.746h-67.82l36.996-59.603     L1079.523,174.334z"/>
		</g>
	</g>
</g>
<div xmlns="" id="divScriptsUsed" style="display: none"/><script xmlns="" id="globalVarsDetection" src="moz-extension://988954a5-4571-47b7-8811-234b4eee0106/js/wrs_env.js"/></svg>