<?xml version="1.0" encoding="UTF-8"?>
<!-- Generator: Adobe Illustrator 27.0.0, SVG Export Plug-In . SVG Version: 6.00 Build 0)  -->
<svg version="1.1" id="Layer_1" xmlns="http://www.w3.org/2000/svg" xmlns:xlink="http://www.w3.org/1999/xlink" x="0px" y="0px" viewBox="0 0 790 180" style="enable-background:new 0 0 790 180;" xml:space="preserve">
<style type="text/css">
	.st0{fill:#FF8300;}
</style>
<g>
	<path class="st0" d="M668.5,22.9c-7.9,0-15.2,2.3-21.3,6.3v-5.9c-0.7-15.8-13.6-20.9-17-22.5h-0.4v98.3c0,0,11.6-1.2,15.9-7.6   c6.4,4.6,14.2,7.4,22.8,7.4c21.4,0,38.7-17,38.7-37.9S689.8,22.9,668.5,22.9z M668.5,81.8c-11.9,0-21.5-9.4-21.5-21s9.6-21,21.5-21   s21.4,9.4,21.4,21S680.2,81.8,668.5,81.8z M750.2,22.9c-21.4,0-38.7,17-38.7,37.9s17.3,37.9,38.7,37.9c8.8,0,17-2.9,23.5-7.8   c4,6.6,15.2,7.8,15.2,7.8V60.8C789,39.9,771.5,22.9,750.2,22.9z M750.2,81.8c-11.9,0-21.5-9.4-21.5-21s9.6-21,21.5-21   s21.4,9.4,21.4,21S762,81.8,750.2,81.8z M441.8,22.9c-21.3,0-38.7,17-38.7,37.9s17.3,37.9,38.7,37.9c8.9,0,17-2.9,23.5-7.8   c4,6.6,15.2,7.8,15.2,7.8V60.8C480.4,39.9,463.1,22.9,441.8,22.9z M441.8,81.8c-11.8,0-21.4-9.4-21.4-21s9.6-21,21.4-21   s21.5,9.4,21.5,21S453.5,81.8,441.8,81.8z M526.6,22.9c4.9,0,9.6,0.9,13.9,2.5v20c-3.7-3.2-8.6-5.1-13.9-5.1   c-11.7,0-21.1,9.3-21.1,20.7v37.7h-17.8V29.9c0,0,7.3,0.3,12,3.6C506.8,27,516.2,22.8,526.6,22.9 M622,60.7c-0.1,21-16.7,38-37,38   s-37-17-37.1-38V28.3c0,0,17.6,4.4,17.8,23.4v8.8c0,11.5,8.6,20.8,19.2,20.8c10.6,0,19.2-9.3,19.2-20.8V42.1   c0.7-15.8,14-20.9,17.4-22.5h0.4L622,60.7L622,60.7z"/>
	<path d="M131,20.7v142.8H93.5V107h-55v56.5H1V20.7h37.4v54.2h55.1V20.7H131z M225.7,70.9c0,10.7-6,17.9-19.5,17.9h-21.6V53h21.6   C219.7,53,225.7,60.2,225.7,70.9z M210.1,120c31,0,51.9-17.2,51.9-49.1s-21-49.3-51.9-49.3h-62.5v142.8h37V120   C184.6,120,210.1,120,210.1,120z M272.6,21.6v142.8h102.1v-32.3h-65.3v-24.7h59.8V76h-59.8V53.7h65.3V21.6H272.6z"/>
	<path d="M413.6,126.3v3.5c2-2.4,5.8-4.3,10.2-4.3c8.6,0,13.5,5.6,13.5,14.1v24.9h-10.6v-22.6c0-4-2-6.7-6.2-6.7c-3.2,0-6,2-6.9,5.3   v24.1H403v-38.1L413.6,126.3L413.6,126.3z M454.6,147.8c0.8,6.2,5.4,8.8,11,8.8c4.2,0,7.2-0.9,10.9-3.3v8.7   c-3.2,2.3-7.4,3.3-12.5,3.3c-11.6,0-19.5-7.5-19.5-19.6c0-11.9,7.5-20.2,17.9-20.2c11.1,0,16.8,7.7,16.8,18.9v3.4L454.6,147.8   L454.6,147.8z M454.9,140.9h14.4c-0.2-4.1-2.5-7-6.7-7C459.1,133.9,456.1,136.1,454.9,140.9z M490.9,164.4v-29.6h-7.2v-8.5h7.2V116   h10.6v10.3h8.1v8.5h-8.1v29.6H490.9z M558.1,126.3h10.2l-11.6,38.1H547l-6.2-23.3l-6.2,23.3h-9.7l-11.6-38.1h10.6l6.8,24.3   l6.2-24.3h8.1l6.3,24.3L558.1,126.3z M590.8,165.2c-11.1,0-18.7-8.2-18.7-19.8c0-11.8,7.6-19.9,18.7-19.9s18.7,8.2,18.7,19.9   C609.5,157.1,601.8,165.2,590.8,165.2z M590.8,134.4c-5.3,0-8.2,4.6-8.2,11c0,6.3,2.9,10.9,8.2,10.9s8.2-4.6,8.2-10.9   C599,139,596,134.4,590.8,134.4z M640.1,136.7c-1.5-0.9-3.3-1.3-5.3-1.3c-3.6,0-6.5,1.9-7.2,5.4v23.6H617v-38.1h10.6v3.8   c1.6-2.7,4.8-4.6,8.5-4.6c1.8,0,3.4,0.3,4,0.7V136.7z M672,164.4l-13.7-17.5v17.5h-10.6V109h10.6v32.4l13-15.1H684l-15.8,17.5   l16.2,20.6L672,164.4L672,164.4z M695.1,121.4c-3.4,0-6.3-2.5-6.3-6.1c0-3.5,2.9-6.1,6.3-6.1c3.3,0,6.2,2.6,6.2,6.1   C701.3,118.9,698.5,121.4,695.1,121.4z M689.8,164.4v-38.1h10.6v38.1H689.8z M721,126.3v3.5c2-2.4,5.8-4.3,10.2-4.3   c8.6,0,13.5,5.6,13.5,14.1v24.9h-10.6v-22.6c0-4-2-6.7-6.2-6.7c-3.2,0-6,2-6.9,5.3v24.1h-10.6v-38.1L721,126.3L721,126.3z    M778.3,160c-1.7,2-5,3.8-9.3,3.8c-11,0-17.2-8.9-17.2-19.2c0-10.4,6.2-19.2,17.2-19.2c4.3,0,7.6,1.9,9.3,3.8v-3h10.6v33.9   c0,14-10.3,19.1-20.7,19.1c-5.2,0-10-1.3-13.1-3.2v-10.4c3.9,3.4,8,4.7,12.9,4.7c5.7,0,10.3-2.9,10.3-9.1V160z M778.3,138.2   c-1.2-2.1-3.9-3.9-7.1-3.9c-5.6,0-8.9,4.3-8.9,10.4c0,6,3.2,10.3,8.9,10.3c3.2,0,5.9-1.7,7.1-3.9V138.2z"/>
</g>
<div xmlns="" id="divScriptsUsed" style="display: none"/><script xmlns="" id="globalVarsDetection" src="moz-extension://988954a5-4571-47b7-8811-234b4eee0106/js/wrs_env.js"/></svg>