<svg height="433" width="2500" xmlns="http://www.w3.org/2000/svg" viewBox="0.525 -0.124 999.759 176.371"><path d="M.87 172.575c-.345-.366.626-3.008 2.158-5.87C6.15 160.872 72.408 33.55 76.732 25.072 80.975 16.755 90.04 7.598 97.83 3.762L104.452.5 146.87.2l42.417-.302-.738 68.534-.738 68.534 61.845-.623c68.506-.69 65.867-.42 71.68-7.329 5.672-6.742 3.62-16.956-4.21-20.95-3.862-1.97-5.671-2.065-39.835-2.081-39.383-.02-44.52-.563-55.961-5.916-11.897-5.568-23.284-18.847-27.432-31.995-2.55-8.08-2.74-21.845-.42-30.497 4.7-17.53 18.047-30.039 37.576-35.215C236.716.859 245.005.604 299.25.264L361-.124V37h-55.599c-62.21 0-60.246-.214-65.076 7.085-3.615 5.463-4.062 10.76-1.377 16.309 4.116 8.5 3.457 8.372 45.552 8.884 30.329.37 38.17.753 43.485 2.13 21.005 5.438 36.396 19.38 40.47 36.66 1.896 8.047 1.903 12.568.034 21.432-3.948 18.722-17.1 33.528-35.887 40.402L325.5 172.5l-92.743.284-92.743.285-.257-66.285L139.5 40.5l-3.433-.327c-10.57-1.007-15.781 3.38-23.996 20.194-3.26 6.673-16.541 34.167-29.514 61.098-12.973 26.93-23.918 49.286-24.322 49.679-.952.923-56.535 2.31-57.364 1.431zM376 85.954V-.092l56.75.296L489.5.5l8.476 2.957c11.849 4.134 21.865 11.056 26.892 18.584 5.02 7.516 6.5 14.004 5.968 26.162-.36 8.218-.854 10.392-3.667 16.106-5.685 11.548-15.254 18.295-32.482 22.903l-4.813 1.288 7.674 5c10.669 6.951 18.892 16.023 23.535 25.962 4.893 10.476 7.001 20.876 7.66 37.788l.537 13.75h-54.997l-.588-10.75c-.995-18.207-5.432-30.13-14.628-39.305-8.405-8.387-18.106-12.234-34.244-13.58l-7.823-.653V172h-41zM469.5 64.5c7.508-3.754 9.589-13.502 4.061-19.03-3.807-3.807-8.666-4.459-33.311-4.464L417 41V67.182l24.25-.341c21.841-.307 24.647-.54 28.25-2.341zm130.483 106.474c-20.44-2.395-39.115-10.618-52.458-23.1-39.175-36.646-14.962-90.85 45.725-102.362 11.137-2.113 30.073-1.937 41.25.382 29.22 6.062 52.397 23.67 60.032 45.606 2.27 6.526 3.006 19.59 1.509 26.803-7.018 33.807-51.038 57.944-96.058 52.67zm22.482-28.507c15.838-4.125 25.828-14.453 28.609-29.578.99-5.389.916-7.406-.477-12.889-2.87-11.293-9.881-19.43-21.384-24.822-5.11-2.395-6.874-2.678-16.713-2.678-9.989 0-11.517.254-16.624 2.763-8.275 4.065-14.319 9.86-17.924 17.184-10.228 20.775 1.729 44.242 25.548 50.144 6.895 1.708 12.06 1.675 18.965-.124zm-17.662-8.811c-24.713-6.943-28.224-38.174-5.594-49.773 5.896-3.022 16.83-3.695 23.582-1.452 6.08 2.019 13.49 8.29 16.471 13.94 3.437 6.513 3.11 16.519-.769 23.568-6.17 11.213-21.044 17.269-33.69 13.717zm185.044 37.242c-37.3-2.873-67.481-16.885-81.15-37.676-6.464-9.832-8.197-15.165-8.197-25.222 0-10.022 1.735-15.392 8.101-25.078 9.76-14.848 26.64-26.197 48.37-32.52 15.804-4.6 24.842-5.611 54.779-6.133l28.25-.493v29.908l-19.25.656c-10.643.362-22.367 1.324-26.221 2.152-14.49 3.11-28.108 11.875-32.48 20.905-2.763 5.71-2.751 14.521.03 20.265 4.25 8.78 17.063 17.408 31.01 20.883 4.26 1.062 13.203 1.787 26.661 2.162l20.25.564V172l-19.75-.14c-10.863-.078-24.544-.511-30.403-.962zM846 86V0h53v76h8.79c20.93 0 35.183-8.142 43.22-24.687l3.49-7.188 21.281-.062c24.427-.072 22.74-.813 22.638 9.937-.13 13.728-9.678 26.754-26.254 35.819l-5.023 2.747 6.893 5.39c18.03 14.1 24.655 29.132 25.69 58.294l.559 15.75h-50.045l-.7-10.75c-1.677-25.781-8.42-39.656-22.645-46.592-6.298-3.07-13.805-4.658-22.03-4.658H899v62h-53z" fill="#79bd28"/></svg>