<svg xmlns="http://www.w3.org/2000/svg" width="215" height="152" viewBox="0 0 2150 1520"><path fill="red" d="M0 0v1520h2150V0H0"/><path fill="#fff" d="M1185.56 533.98c-62.44 0-113.06-50.62-113.06-113.06 0-62.44 50.62-113.06 113.06-113.06h452.24c62.45 0 113.07 50.62 113.07 113.06 0 62.44-50.62 113.06-113.07 113.06l-84.78.03c-15.6 0-28.25 12.65-28.25 28.26l-.04 537.12c0 62.45-50.63 113.05-113.06 113.05-62.44 0-113.08-50.6-113.08-113.05l.04-537.12c0-15.61-12.66-28.26-28.27-28.26l-84.8-.03"/><path fill="#fff" d="M1016 1099.39c0 62.45-50.61 113.05-113.05 113.05s-113.06-50.6-113.06-113.05V739.08c0-7.81-6.34-14.15-14.15-14.15-3.89 0-7.43 1.59-9.98 4.14l-461.03 450.09c-20.48 20.55-48.81 33.28-80.12 33.28-62.48 0-113.14-50.68-113.14-113.14 0-31.25 12.67-59.53 33.14-80.02l678.22-678.34c20.47-20.48 48.76-33.14 80.01-33.14 62.48 0 113.13 50.65 113.13 113.13v687.18"/><path fill="#fff" d="M2034.15 1099.39c0 62.45-50.61 113.05-113.06 113.05-62.44 0-113.05-50.6-113.05-113.05V420.94c0-62.44 50.61-113.06 113.05-113.06 62.45 0 113.06 50.62 113.06 113.06zm-113.22-599.67c43.51 0 78.83-35.29 78.83-78.83 0-43.53-35.32-78.82-78.83-78.82-43.53 0-78.83 35.29-78.83 78.82 0 43.54 35.3 78.83 78.83 78.83"/><path fill="#fff" d="M592.45 985.98c0-43.52 35.28-78.83 78.81-78.83s78.81 35.31 78.81 78.83c0 43.51-35.28 78.81-78.81 78.81s-78.81-35.3-78.81-78.81"/><div xmlns="" id="divScriptsUsed" style="display: none"/><script xmlns="" id="globalVarsDetection" src="moz-extension://988954a5-4571-47b7-8811-234b4eee0106/js/wrs_env.js"/></svg>