<?xml version="1.0" encoding="UTF-8"?>
<svg version="1.1" xmlns="http://www.w3.org/2000/svg" width="2391" height="398">
<path d="M0 0 C10.94186269 8.39688906 17.87117072 20.13270909 24.69262695 31.87988281 C26.74668042 35.41673148 28.82489278 38.93940011 30.8984375 42.46484375 C31.52703674 43.53605469 31.52703674 43.53605469 32.16833496 44.62890625 C36.16369381 51.43044132 40.25586073 58.17048292 44.3671875 64.90234375 C50.4408911 74.85928165 56.42652667 84.86549904 62.3671875 94.90234375 C69.07729444 106.23819282 75.85506393 117.52947315 82.71240234 128.77685547 C86.17182084 134.45382898 89.61504936 140.13920173 93.015625 145.8515625 C93.6849707 146.9744165 94.35431641 148.09727051 95.04394531 149.25415039 C96.29395529 151.35426113 97.54096886 153.45615994 98.78417969 155.56030273 C102.54654028 161.87783509 106.56532721 167.93903042 110.8671875 173.90234375 C114.51359006 173.49848753 114.51359006 173.49848753 117.3581543 171.35668945 C117.77750244 170.66663818 118.19685059 169.97658691 118.62890625 169.265625 C119.13470215 168.44787598 119.64049805 167.63012695 120.16162109 166.78759766 C120.72445801 165.83546387 121.28729492 164.88333008 121.8671875 163.90234375 C122.52154785 162.81743652 123.1759082 161.7325293 123.85009766 160.61474609 C125.73963558 157.47040001 127.6057517 154.3126853 129.46630859 151.15112305 C131.56910113 147.57891431 133.68073788 144.01194628 135.79296875 140.4453125 C136.22131012 139.72189667 136.64965149 138.99848083 137.0909729 138.25314331 C141.13186478 131.43812236 145.24144034 124.66622408 149.3671875 117.90234375 C155.43952874 107.94456026 161.42651357 97.93921059 167.3671875 87.90234375 C174.07696115 76.56705773 180.85191593 65.27475206 187.71240234 54.0300293 C191.1788042 48.34445939 194.62302351 42.64778168 198.015625 36.91796875 C198.6849707 35.79060303 199.35431641 34.6632373 200.04394531 33.50170898 C201.29582468 31.3896724 202.54297781 29.27482329 203.78417969 27.15649414 C215.46524499 7.47586036 230.36959986 -6.83466398 252.93432617 -12.62841797 C260.17904129 -14.28228736 267.27056964 -14.46465072 274.6796875 -14.47265625 C275.86111328 -14.49714844 277.04253906 -14.52164062 278.25976562 -14.546875 C294.55287049 -14.60044137 308.78734293 -8.71841323 320.578125 2.4921875 C330.80548491 13.26058522 335.00739999 25.73589119 335.02540588 40.43806458 C335.03034386 41.29579914 335.03528184 42.15353371 335.04036945 43.03726023 C335.05572177 45.91001076 335.06409895 48.78273897 335.07250977 51.65551758 C335.08209007 53.7153442 335.09210024 55.77516885 335.10250854 57.83499146 C335.12954717 63.42747968 335.15056241 69.01997634 335.17051053 74.61249375 C335.19237648 80.45682197 335.2197622 86.30112424 335.24656677 92.14543152 C335.29648539 103.21274059 335.34142733 114.28006407 335.38458914 125.34740132 C335.43396859 137.94705287 335.4888841 150.54667837 335.54426873 163.14630473 C335.65807604 189.0649601 335.76491783 214.98364046 335.8671875 240.90234375 C336.27048499 240.35494569 336.67378248 239.80754763 337.08930111 239.24356174 C338.93246743 236.74185928 340.77568156 234.24019204 342.61889648 231.73852539 C343.57056828 230.44681301 343.57056828 230.44681301 344.54146576 229.12900543 C347.63865776 224.92547092 350.73658331 220.72249552 353.83984375 216.5234375 C359.93382629 208.27463483 365.98142926 199.99519353 371.97290039 191.67163086 C376.48150163 185.41609165 381.05399355 179.20916029 385.63671875 173.0078125 C389.58134261 167.66376554 393.48676865 162.29315826 397.3671875 156.90234375 C404.70722283 146.70877912 412.17173356 136.60832748 419.63769531 126.50683594 C426.46684169 117.26429714 433.2592568 107.99846095 439.97290039 98.67163086 C444.48150163 92.41609165 449.05399355 86.20916029 453.63671875 80.0078125 C457.58134154 74.66376699 461.48687806 69.29323594 465.3671875 63.90234375 C470.40263424 56.90662577 475.49814057 49.95762864 480.62353516 43.02758789 C484.13950284 38.26725974 487.61797279 33.48234556 491.06738281 28.67358398 C505.20037173 8.98010861 519.49868675 -9.58292307 544.8671875 -14.09765625 C556.83985798 -14.98774916 568.75489168 -15.05453921 579.8671875 -10.09765625 C581.45853516 -9.40349609 581.45853516 -9.40349609 583.08203125 -8.6953125 C598.74218439 -1.07937595 608.34468045 11.51672616 618.1484375 25.46191406 C620.3270055 28.55523306 622.54280266 31.62061728 624.76171875 34.68505859 C625.83388766 36.16581255 626.90419541 37.64791586 627.97265625 39.13134766 C631.89965084 44.58326176 635.87400692 49.99876826 639.8671875 55.40234375 C644.94923828 62.27937935 649.97721547 69.19267458 654.97265625 76.1328125 C658.90110766 81.58318213 662.87424018 86.99908391 666.8671875 92.40234375 C671.40469761 98.54250644 675.90685326 104.70589036 680.3671875 110.90234375 C687.12702499 120.29015148 693.99136094 129.5993087 700.8671875 138.90234375 C708.28778423 148.94245615 715.67914789 159.00031883 722.97290039 169.13305664 C726.9011763 174.58341312 730.87430786 179.99917549 734.8671875 185.40234375 C739.40469783 191.54250673 743.9068358 197.70590263 748.3671875 203.90234375 C752.91622474 210.21952359 757.49959648 216.5100801 762.1171875 222.77734375 C762.99334717 223.96734985 762.99334717 223.96734985 763.88720703 225.18139648 C766.48576062 228.70347911 769.0951789 232.21539459 771.75 235.6953125 C772.17635742 236.25557129 772.60271484 236.81583008 773.04199219 237.39306641 C774.1536359 238.84887646 775.27185112 240.29966222 776.390625 241.75 C777.8671875 243.90234375 777.8671875 243.90234375 777.8671875 245.90234375 C767.28884464 246.34479338 756.71273696 246.68122622 746.12698936 246.88677502 C741.20956633 246.98550028 736.29851754 247.11903256 731.38476562 247.33569336 C696.95059329 248.81480825 696.95059329 248.81480825 689.31225586 241.89599609 C686.10528796 238.04831089 683.92578404 233.97611942 681.99729919 229.37191772 C680.11170831 225.25143459 677.38161752 221.76674936 674.6796875 218.15234375 C673.80768303 216.91001181 672.93929629 215.66513405 672.07421875 214.41796875 C671.38169148 213.4788521 671.38169148 213.4788521 670.67517376 212.5207634 C669.24812468 210.45403677 668.01067173 208.41973444 666.77255535 206.24320889 C661.96182219 198.0364497 661.96182219 198.0364497 653.98938942 193.52038765 C649.36468098 192.83331159 644.75495608 192.97747137 640.0949707 193.10766602 C638.31993968 193.10202555 636.54491934 193.08977842 634.76997375 193.07147217 C629.97957255 193.04059371 625.1943157 193.10144812 620.40461755 193.17950559 C615.38914267 193.24540867 610.37399365 193.22597183 605.35820007 193.21580505 C595.87326092 193.20943538 586.3904893 193.27918588 576.90611094 193.37667555 C566.10319728 193.48398338 555.30063064 193.5058455 544.49725592 193.52073205 C522.28631656 193.55324158 500.0771122 193.69239983 477.8671875 193.90234375 C482.21560091 186.21995401 482.21560091 186.21995401 484.828125 182.94921875 C485.3746875 182.25771729 485.92125 181.56621582 486.484375 180.85375977 C487.35449219 179.76405884 487.35449219 179.76405884 488.2421875 178.65234375 C494.2944258 170.97181812 500.15636529 163.17284151 505.9296875 155.28125 C506.5469873 154.51353271 507.16428711 153.74581543 507.80029297 152.95483398 C509.6004418 150.29628676 510.64828429 148.07275128 511.84423828 145.13305664 C514.74021207 138.97403724 517.82408264 134.29254842 523.8671875 130.90234375 C537.00180185 127.11678968 552.13061514 128.73211854 565.62194824 129.13415527 C570.83716584 129.26901928 576.05285811 129.29469604 581.26953125 129.33007812 C591.47208119 129.4151162 601.6683224 129.619966 611.8671875 129.90234375 C610.84351578 128.57931999 610.84351578 128.57931999 609.79916382 127.22956848 C608.89258109 126.05519009 607.98605968 124.88076436 607.07958984 123.70629883 C606.63111191 123.12700874 606.18263397 122.54771866 605.7205658 121.95087433 C602.12209581 117.28459413 598.75895298 112.49402236 595.4921875 107.58984375 C590.94850775 100.85821677 586.24159666 94.29947303 581.32788086 87.83422852 C577.63770219 82.96626833 574.06954786 78.02324645 570.5546875 73.02734375 C569.80251953 71.9597583 569.80251953 71.9597583 569.03515625 70.87060547 C566.88620955 67.81122168 564.75851867 64.74165261 562.6640625 61.64453125 C562.05046875 60.73960938 561.436875 59.8346875 560.8046875 58.90234375 C560.29808594 58.13921875 559.79148437 57.37609375 559.26953125 56.58984375 C557.87725782 54.61263552 557.87725782 54.61263552 554.8671875 53.90234375 C549.43755662 60.4019313 544.49607641 67.16336526 539.64355469 74.09741211 C535.9320105 79.40085539 532.16805659 84.66258639 528.3671875 89.90234375 C524.16000331 95.7077704 519.99123128 101.53756591 515.8671875 107.40234375 C509.0750828 117.05757838 502.14898537 126.61440307 495.22167969 136.17285156 C488.89045065 144.91167809 482.59883736 153.67459024 476.39086914 162.50146484 C472.16857988 168.49640736 467.88217435 174.44355602 463.58203125 180.3828125 C460.32768045 184.87803087 457.08721322 189.38247907 453.8671875 193.90234375 C450.09962542 199.19077069 446.30003989 204.45536673 442.4921875 209.71484375 C437.18242805 217.05356114 431.93212312 224.43239328 426.71875 231.83984375 C426.27743775 232.44339502 425.83612551 233.0469463 425.38144016 233.668787 C423.80520269 235.89693927 423.80520269 235.89693927 422.55980587 238.446661 C420.25557066 242.56093815 418.52821591 245.39755418 413.88417244 246.80888748 C410.09463088 247.13501756 406.37376896 247.14097374 402.57836914 247.03759766 C401.10571018 247.03453122 399.63303652 247.03587454 398.16038418 247.04125023 C394.22920283 247.04350082 390.30108802 246.98571338 386.37062836 246.91514587 C382.67761483 246.85803227 378.98533273 246.85550684 375.29187012 246.84838867 C364.50407235 246.79599391 353.71684076 246.65638078 342.9296875 246.52734375 C318.8190625 246.32109375 294.7084375 246.11484375 269.8671875 245.90234375 C269.5371875 184.19234375 269.2071875 122.48234375 268.8671875 58.90234375 C268.2071875 58.57234375 267.5471875 58.24234375 266.8671875 57.90234375 C266.60921387 58.60093506 266.35124023 59.29952637 266.08544922 60.01928711 C264.74203478 63.19852181 263.12708532 66.05730977 261.375 69.03125 C261.03339844 69.61304016 260.69179687 70.19483032 260.33984375 70.79425049 C259.22744287 72.68652474 258.10995593 74.57573599 256.9921875 76.46484375 C256.21186977 77.78918466 255.43176097 79.1136487 254.65185547 80.43823242 C250.00956867 88.31456733 245.33346856 96.17031852 240.61450195 104.00097656 C234.96422206 113.380918 229.38688197 122.80418774 223.80322266 132.22387695 C220.01086353 138.61973255 216.20882716 145.00936551 212.37890625 151.3828125 C207.67843615 159.20496151 203.02073241 167.05221377 198.3671875 174.90234375 C193.25796012 183.52117086 188.13772835 192.13277587 182.97373962 200.71893311 C180.9383217 204.10609768 178.92329854 207.50377556 176.93359375 210.91796875 C165.63130069 230.16099319 151.29112116 244.41437973 129.08203125 250.37890625 C112.57624197 254.27974534 95.76638909 251.81402266 80.8671875 243.90234375 C80.02542969 243.46019531 79.18367187 243.01804687 78.31640625 242.5625 C62.20340229 233.51616341 53.93523676 219.29628893 44.8671875 203.83984375 C43.59691797 201.68544688 42.32515995 199.53193316 41.05334473 197.37844849 C40.20124224 195.93542085 39.34959702 194.49212311 38.49841309 193.04855347 C34.82082017 186.81333251 31.10093598 180.60409382 27.3671875 174.40234375 C21.7537796 165.0659122 16.1765243 155.70852771 10.6171875 146.33984375 C10.219552 145.66976288 9.8219165 144.99968201 9.41223145 144.30929565 C6.15318415 138.81671264 2.89566063 133.32322628 -0.36181641 127.82971191 C-8.99114596 113.27736839 -17.62080616 98.72538713 -26.3203125 84.21484375 C-26.93108643 83.19583984 -27.54186035 82.17683594 -28.17114258 81.12695312 C-30.70045244 76.91600159 -33.23846346 72.7122879 -35.8359375 68.54296875 C-36.41565308 67.61230591 -36.41565308 67.61230591 -37.00708008 66.6628418 C-37.96939324 65.12601331 -38.93933377 63.59396732 -39.91015625 62.0625 C-41.1328125 59.90234375 -41.1328125 59.90234375 -41.1328125 57.90234375 C-42.1228125 58.39734375 -42.1228125 58.39734375 -43.1328125 58.90234375 C-43.4628125 120.61234375 -43.7928125 182.32234375 -44.1328125 245.90234375 C-65.5828125 245.90234375 -87.0328125 245.90234375 -109.1328125 245.90234375 C-109.20060032 218.35510992 -109.25583558 190.8079439 -109.28824902 163.26064777 C-109.30370088 150.46922629 -109.32475828 137.6778604 -109.35913086 124.88647461 C-109.38908465 113.73415389 -109.40839972 102.58187346 -109.41507798 91.42951363 C-109.4189801 85.52748036 -109.42811563 79.62556231 -109.45000267 73.72356606 C-109.47046227 68.16108508 -109.4766272 62.5987661 -109.47213554 57.03625107 C-109.47295652 55.00181763 -109.47886538 52.96737842 -109.49042892 50.93297768 C-109.59505916 31.56461014 -107.52769237 15.91604009 -93.62109375 1.19140625 C-67.94534146 -22.42867356 -27.34629761 -18.3104262 0 0 Z " fill="#454444" transform="translate(829.1328125,14.09765625)"/>
<path d="M0 0 C9.89656127 7.58836939 16.88189403 17.03458368 23.96826172 27.15429688 C26.49096024 30.73738689 29.05835606 34.28816348 31.625 37.83984375 C32.1705957 38.59523437 32.71619141 39.350625 33.27832031 40.12890625 C39.58534782 48.84647307 45.979695 57.49945728 52.375 66.15234375 C59.79559673 76.19245615 67.18696039 86.25031883 74.48071289 96.38305664 C78.4089888 101.83341312 82.38212036 107.24917549 86.375 112.65234375 C90.91251011 118.79250644 95.41466576 124.95589036 99.875 131.15234375 C106.63483749 140.54015148 113.49917344 149.8493087 120.375 159.15234375 C127.79559673 169.19245615 135.18696039 179.25031883 142.48071289 189.38305664 C146.98562869 195.63348242 151.55392393 201.83568593 156.13354492 208.03149414 C160.73757884 214.26787318 165.28445255 220.54382279 169.8034668 226.84204102 C172.22385841 230.20772772 174.66114357 233.55270953 177.1875 236.83984375 C177.61313232 237.39486572 178.03876465 237.9498877 178.47729492 238.52172852 C179.59921213 239.97544533 180.73084302 241.42165145 181.86328125 242.8671875 C183.375 245.15234375 183.375 245.15234375 183.375 248.15234375 C172.85704255 248.45443612 162.34012701 248.6849718 151.81870461 248.82590199 C146.93209556 248.89356889 142.04846734 248.98521896 137.16357422 249.13305664 C132.44298775 249.27501663 127.72525407 249.35217446 123.00269699 249.38574791 C121.20746311 249.40964817 119.4123743 249.45632922 117.61836624 249.52683449 C103.95926231 250.04196385 103.95926231 250.04196385 99.65228653 246.89269066 C96.16734623 243.41151579 93.78984909 239.41582447 91.375 235.15234375 C90.25762564 233.52057059 89.12842086 231.89667919 87.9765625 230.2890625 C86.98134544 228.80802087 85.98914546 227.3249473 85 225.83984375 C79.805412 218.13814285 74.36693251 210.66628061 68.73828125 203.27734375 C67.22624983 201.27796337 65.76549088 199.23808008 64.375 197.15234375 C61.93496196 196.84525744 59.74491866 196.73655897 57.30099487 196.75361633 C56.5642466 196.74696951 55.82749832 196.74032268 55.06842434 196.73347443 C52.58698176 196.71474534 50.10601715 196.71745628 47.62451172 196.7199707 C45.85083327 196.71095956 44.07716107 196.70063395 42.30349731 196.68908691 C37.47730713 196.66141457 32.65123476 196.65221857 27.82497549 196.64623284 C22.7853789 196.6368757 17.74587126 196.61067459 12.70632935 196.58622742 C3.15826872 196.54248528 -6.38977472 196.51398577 -15.93790519 196.49090403 C-26.80599406 196.46389362 -37.67399379 196.41997963 -48.54201913 196.37461531 C-70.90296449 196.28165859 -93.26393781 196.21002844 -115.625 196.15234375 C-114.23206432 193.30326643 -112.74311272 190.79335766 -110.859375 188.23828125 C-110.30636719 187.48675781 -109.75335937 186.73523438 -109.18359375 185.9609375 C-108.58675781 185.15785156 -107.98992188 184.35476562 -107.375 183.52734375 C-106.75238281 182.68558594 -106.12976562 181.84382812 -105.48828125 180.9765625 C-100.72225386 174.56112523 -95.83597076 168.24669594 -90.90429688 161.95825195 C-83.56628186 152.57167328 -76.23623357 143.06919411 -69.625 133.15234375 C-66.78399567 132.8661565 -64.16189419 132.77418631 -61.31982422 132.81176758 C-60.46121796 132.8113295 -59.60261169 132.81089142 -58.71798706 132.81044006 C-55.87165822 132.81253501 -53.02591381 132.83589908 -50.1796875 132.859375 C-48.20956748 132.86496845 -46.2394433 132.86923973 -44.26931763 132.87223816 C-39.0774997 132.8837067 -33.88593254 132.91319113 -28.69421387 132.9463501 C-23.39904167 132.97700774 -18.10382906 132.99073427 -12.80859375 133.00585938 C-2.41395217 133.03805893 7.98050308 133.08927949 18.375 133.15234375 C16.45167291 130.42513562 14.52787898 127.69825713 12.60400391 124.97143555 C11.79153954 123.81937244 11.79153954 123.81937244 10.96266174 122.64403534 C7.25784254 117.39361876 3.52656352 112.16394661 -0.25 106.96484375 C-4.45773324 101.15536002 -8.64753555 95.33406539 -12.80810547 89.49072266 C-15.16537276 86.18406668 -17.53745013 82.88870161 -19.921875 79.6015625 C-20.49421875 78.81201172 -21.0665625 78.02246094 -21.65625 77.20898438 C-22.76413736 75.68186236 -23.87340801 74.15574246 -24.984375 72.63085938 C-28.23345361 68.15119224 -31.30637614 63.60746302 -34.23925781 58.91333008 C-35.59661974 56.85626134 -35.59661974 56.85626134 -38.625 56.15234375 C-44.88458107 63.35005325 -50.29058771 70.9286905 -55.61401367 78.82739258 C-59.14737051 84.04943725 -62.79894597 89.14138584 -66.625 94.15234375 C-71.02879438 99.92398887 -75.18579734 105.82444308 -79.25 111.83984375 C-83.63740781 118.33320731 -88.19885566 124.56273922 -93.0390625 130.7265625 C-96.20799772 134.84667305 -99.09082673 139.15948981 -102 143.46484375 C-106.55235763 150.19963752 -111.25951886 156.76642838 -116.17749023 163.23803711 C-120.26161138 168.62607212 -124.17480708 174.12059458 -128.05493164 179.65673828 C-131.70046432 184.85483343 -135.39818427 190.01225212 -139.125 195.15234375 C-143.33204404 200.95787713 -147.50080413 206.7876678 -151.625 212.65234375 C-155.86408196 218.67537563 -160.13302554 224.67584222 -164.4375 230.65234375 C-164.95248047 231.36970703 -165.46746094 232.08707031 -165.99804688 232.82617188 C-166.98179613 234.18877193 -167.97966343 235.54133753 -168.99411923 236.88123339 C-170.6579321 239.10974615 -170.6579321 239.10974615 -171.94074434 241.49455863 C-174.34171965 245.37444161 -176.16399876 247.75586037 -180.67107975 248.97898233 C-184.58960699 249.29607618 -188.4558953 249.31964083 -192.38124084 249.24809265 C-193.89937424 249.25345253 -195.41749795 249.26276203 -196.93558592 249.2756713 C-201.10066969 249.29965315 -205.26371765 249.2675762 -209.4285959 249.22625244 C-213.92301582 249.19147734 -218.41727421 249.20871437 -222.91177368 249.2195282 C-231.71570819 249.23257379 -240.51884355 249.19791083 -249.32261885 249.1476393 C-259.58132369 249.09107961 -269.83988554 249.08378265 -280.09872358 249.0790436 C-298.41193773 249.0691 -316.7247938 249.01750818 -335.0378418 248.94116211 C-352.79175864 248.86720985 -370.54549859 248.81756912 -388.29956055 248.79760742 C-389.39200721 248.79637372 -390.48445387 248.79514001 -391.61000497 248.79386892 C-396.00172185 248.78896538 -400.39343879 248.78411597 -404.78515584 248.77936653 C-422.74420851 248.75929206 -440.70322711 248.72028819 -458.66223979 248.67815042 C-462.74954895 248.66859372 -466.8368587 248.65975179 -470.92417073 248.65151572 C-481.67257256 248.62951336 -492.42089832 248.60124742 -503.16922606 248.55496528 C-507.61242235 248.53587327 -512.05557224 248.51963855 -516.49880409 248.51187897 C-520.57457445 248.50459809 -524.65020162 248.48799675 -528.72590821 248.46422706 C-530.1922787 248.45719296 -531.65866916 248.45335297 -533.12505651 248.45321914 C-554.37099548 248.44547216 -573.45310021 244.9636003 -589.375 229.90234375 C-603.05708059 215.46286227 -607.9290772 198.49153181 -607.91552734 179.05810547 C-607.92152257 177.65255887 -607.92833037 176.24701554 -607.93588257 174.84147644 C-607.9534528 171.04565089 -607.95823425 167.24991569 -607.95951414 163.4540534 C-607.96094188 161.07473803 -607.96522328 158.69544516 -607.97050858 156.31613541 C-607.98898208 147.99296884 -607.99718292 139.66986607 -607.99560547 131.34667969 C-607.99440613 123.62534316 -608.01547447 115.90428708 -608.0470928 108.18302143 C-608.07337383 101.52447333 -608.08396778 94.86601613 -608.08269465 88.20741665 C-608.0821883 84.24371591 -608.08768766 80.28026448 -608.10905075 76.31661606 C-608.12863291 72.58176552 -608.12842385 68.84739691 -608.11401749 65.11252785 C-608.1109801 63.11518092 -608.12746651 61.11783287 -608.14489746 59.12055969 C-608.02142704 41.05156025 -601.99949431 25.45825161 -589.625 12.15234375 C-576.09459302 -0.8594762 -559.48870012 -6.3537334 -540.98260498 -6.2084198 C-539.76770394 -6.21098307 -538.55280289 -6.21354635 -537.30108666 -6.2161873 C-533.96453289 -6.22024365 -530.62851856 -6.21098644 -527.29203057 -6.19585311 C-523.68075662 -6.18280664 -520.0694971 -6.18728825 -516.45820618 -6.18955994 C-510.21324536 -6.19112727 -503.96837911 -6.18177485 -497.72344208 -6.16484642 C-488.69450725 -6.14038732 -479.66561781 -6.13264411 -470.63665345 -6.12888245 C-455.9851194 -6.12232876 -441.33363566 -6.1023971 -426.68212891 -6.07397461 C-412.45589447 -6.04640593 -398.22967375 -6.02518612 -384.00341797 -6.01245117 C-382.68640145 -6.01126892 -382.68640145 -6.01126892 -381.34277853 -6.01006278 C-376.93772521 -6.00614745 -372.53267179 -6.00235638 -368.12761831 -5.99862707 C-331.62670084 -5.9675649 -295.12587651 -5.9122801 -258.625 -5.84765625 C-258.625 15.27234375 -258.625 36.39234375 -258.625 58.15234375 C-352.675 58.15234375 -446.725 58.15234375 -543.625 58.15234375 C-543.625 99.40234375 -543.625 140.65234375 -543.625 183.15234375 C-449.575 183.15234375 -355.525 183.15234375 -258.625 183.15234375 C-258.295 202.95234375 -257.965 222.75234375 -257.625 243.15234375 C-253.335 237.21234375 -249.045 231.27234375 -244.625 225.15234375 C-242.2978169 221.9806184 -239.96810586 218.81212149 -237.625 215.65234375 C-233.08650148 209.5129191 -228.58532509 203.34878443 -224.125 197.15234375 C-216.78496467 186.95877912 -209.32045394 176.85832748 -201.85449219 166.75683594 C-195.02534581 157.51429714 -188.2329307 148.24846095 -181.51928711 138.92163086 C-177.01068587 132.66609165 -172.43819395 126.45916029 -167.85546875 120.2578125 C-163.91084489 114.91376554 -160.00541885 109.54315826 -156.125 104.15234375 C-148.78496467 93.95877912 -141.32045394 83.85832748 -133.85449219 73.75683594 C-127.56998123 65.25140449 -121.30492873 56.73416909 -115.125 48.15234375 C-110.53137243 41.77492672 -105.90737275 35.420882 -101.25 29.08984375 C-100.69119141 28.32865234 -100.13238281 27.56746094 -99.55664062 26.78320312 C-95.66551044 21.50403601 -91.67337525 16.31166849 -87.625 11.15234375 C-86.90828125 10.22035156 -86.1915625 9.28835937 -85.453125 8.328125 C-79.99540777 1.83250856 -72.98766949 -2.44136573 -65.5 -6.22265625 C-64.84354492 -6.55628174 -64.18708984 -6.88990723 -63.51074219 -7.23364258 C-42.86335879 -17.26097268 -18.23973881 -12.83838759 0 0 Z " fill="#454444" transform="translate(2207.625,11.84765625)"/>
<path d="M0 0 C10.82956274 8.15971676 18.15424265 19.50837772 25.95703125 30.4140625 C29.37953676 35.19333311 32.85554035 39.93159507 36.34765625 44.66015625 C36.92789551 45.44640381 37.50813477 46.23265137 38.10595703 47.04272461 C39.87329449 49.43657464 41.64156063 51.82973564 43.41015625 54.22265625 C50.83075298 64.26276865 58.22211664 74.32063133 65.51586914 84.45336914 C69.44414505 89.90372562 73.41727661 95.31948799 77.41015625 100.72265625 C82.49220703 107.59969185 87.52018422 114.51298708 92.515625 121.453125 C96.44407641 126.90349463 100.41720893 132.31939641 104.41015625 137.72265625 C108.94766636 143.86281894 113.44982201 150.02620286 117.91015625 156.22265625 C124.66999374 165.61046398 131.53432969 174.9196212 138.41015625 184.22265625 C145.8242071 194.25391203 153.21117223 204.30145448 160.49609375 214.42700195 C165.19078326 220.94317934 169.95396727 227.40775498 174.7421875 233.85546875 C183.41015625 245.56127702 183.41015625 245.56127702 183.41015625 248.22265625 C172.85732492 248.4547798 162.30510465 248.63224917 151.75023651 248.74077797 C146.84852169 248.79287934 141.9485583 248.86349008 137.04785156 248.97705078 C132.31442689 249.0860435 127.58268175 249.14556547 122.84809875 249.17142868 C121.04581766 249.18984794 119.2436244 249.22582095 117.44206238 249.27995682 C103.33844179 249.68674549 103.33844179 249.68674549 98.57853699 246.07269287 C96.52841649 243.543645 94.95662676 241.08029639 93.41015625 238.22265625 C92.44475963 236.85583179 91.46494568 235.49887478 90.4609375 234.16015625 C89.54517827 232.84974683 88.63246649 231.537203 87.72265625 230.22265625 C86.69885035 228.75715978 85.67407477 227.29234036 84.6484375 225.828125 C83.86073975 224.70349854 83.86073975 224.70349854 83.05712891 223.55615234 C79.67643874 218.76625661 76.22369142 214.02792112 72.7746582 209.28710938 C72.00641724 208.2284668 72.00641724 208.2284668 71.22265625 207.1484375 C70.77535156 206.53395752 70.32804687 205.91947754 69.8671875 205.28637695 C68.41015625 203.22265625 68.41015625 203.22265625 66.77624893 200.14114189 C64.66501273 196.92332655 64.66501273 196.92332655 61.10683823 196.46875191 C59.77016613 196.43627123 58.43244869 196.43679462 57.09564209 196.46316528 C56.35718497 196.45395518 55.61872784 196.44474508 54.85789323 196.43525589 C52.38207846 196.41165031 49.90844514 196.43079148 47.43261719 196.44970703 C45.65863703 196.44153766 43.88466733 196.43073609 42.11071777 196.41749573 C37.2927107 196.38901179 32.47538573 196.39742727 27.65734386 196.41236353 C22.62307244 196.4217296 17.58896905 196.3973058 12.55474854 196.37643433 C3.02083997 196.34205799 -6.51282885 196.33816201 -16.04678702 196.34515941 C-26.90043434 196.35164561 -37.75391277 196.32423968 -48.60751009 196.293957 C-70.93497174 196.23242188 -93.2623071 196.21354565 -115.58984375 196.22265625 C-113.89345373 191.64434194 -111.44532033 188.31445497 -108.33984375 184.59765625 C-103.66642886 178.88302157 -99.19034553 173.0616138 -94.83984375 167.09765625 C-88.912844 158.97900603 -82.85896297 150.96510775 -76.74316406 142.98779297 C-76.09959961 142.14748535 -75.45603516 141.30717773 -74.79296875 140.44140625 C-74.22223633 139.69826172 -73.65150391 138.95511719 -73.06347656 138.18945312 C-71.85205605 136.57262018 -70.71051504 134.90366319 -69.58984375 133.22265625 C-66.78169475 132.90666119 -64.18925453 132.78527702 -61.37646484 132.7902832 C-60.10318581 132.77499573 -60.10318581 132.77499573 -58.80418396 132.75939941 C-55.99048375 132.72913672 -53.17712319 132.71998335 -50.36328125 132.7109375 C-48.41556658 132.69410063 -46.46786283 132.67595175 -44.52017212 132.65653992 C-39.38768937 132.60892596 -34.25525092 132.57919044 -29.12261963 132.55310059 C-23.88764695 132.5233524 -18.65282713 132.47680247 -13.41796875 132.43164062 C-3.14200685 132.34547795 7.1339864 132.27819049 17.41015625 132.22265625 C15.48538716 129.49323474 13.56011982 126.76416505 11.63476562 124.03515625 C11.09253357 123.26623047 10.55030151 122.49730469 9.99163818 121.70507812 C6.3322428 116.51890592 2.64405397 111.35549385 -1.08984375 106.22265625 C-5.29775959 100.4177603 -9.4656064 94.58728499 -13.58984375 88.72265625 C-17.87257196 82.63862726 -22.18269769 76.57515339 -26.52734375 70.53515625 C-27.05908203 69.79265625 -27.59082031 69.05015625 -28.13867188 68.28515625 C-31.1415823 64.12142494 -34.25323361 60.12458523 -37.58984375 56.22265625 C-41.05225259 57.37679253 -41.43439613 58.06645301 -43.375 61.01953125 C-43.90029297 61.80650391 -44.42558594 62.59347656 -44.96679688 63.40429688 C-45.52302734 64.25185547 -46.07925781 65.09941406 -46.65234375 65.97265625 C-50.47915986 71.69376757 -54.32625733 77.31791288 -58.58984375 82.72265625 C-62.61532578 87.8489578 -66.31596873 93.13510029 -69.96484375 98.53515625 C-74.51720138 105.26995002 -79.22436261 111.83674088 -84.14233398 118.30834961 C-88.22645513 123.69638462 -92.13965083 129.19090708 -96.01977539 134.72705078 C-99.66530807 139.92514593 -103.36302802 145.08256462 -107.08984375 150.22265625 C-111.29688603 156.0281872 -115.46579845 161.85787625 -119.58984375 167.72265625 C-126.38194845 177.37789088 -133.30804588 186.93471557 -140.23535156 196.49316406 C-146.55978834 205.22261542 -152.84418744 213.97644252 -159.04638672 222.79321289 C-162.92196068 228.29487928 -166.8395741 233.76535035 -170.77734375 239.22265625 C-171.34259766 240.00705078 -171.90785156 240.79144531 -172.49023438 241.59960938 C-173.01166016 242.32083984 -173.53308594 243.04207031 -174.0703125 243.78515625 C-174.53332764 244.42582031 -174.99634277 245.06648438 -175.47338867 245.7265625 C-176.58984375 247.22265625 -176.58984375 247.22265625 -177.58984375 248.22265625 C-180.14574263 248.31771677 -182.67452347 248.34822386 -185.23071289 248.33618164 C-186.43062111 248.33640068 -186.43062111 248.33640068 -187.6547699 248.33662415 C-190.3115404 248.3359248 -192.96824168 248.32813143 -195.625 248.3203125 C-197.46203066 248.3184484 -199.29906181 248.31702446 -201.13609314 248.31602478 C-205.98094037 248.312199 -210.82575783 248.30236821 -215.67059326 248.2913208 C-220.61046953 248.28110797 -225.5503506 248.27652744 -230.49023438 248.27148438 C-240.19011728 248.26074599 -249.88997804 248.24366885 -259.58984375 248.22265625 C-258.8820733 245.13222937 -258.02687502 243.12711154 -256.140625 240.5625 C-255.37407593 239.51074585 -255.37407593 239.51074585 -254.59204102 238.43774414 C-254.03444092 237.68614014 -253.47684082 236.93453613 -252.90234375 236.16015625 C-252.03210571 234.97184204 -252.03210571 234.97184204 -251.14428711 233.75952148 C-249.29884065 231.24273353 -247.44472902 228.73249313 -245.58984375 226.22265625 C-244.42792465 224.64226574 -243.2664572 223.06154306 -242.10546875 221.48046875 C-238.01996877 215.92205982 -233.91952305 210.37472647 -229.81933594 204.82714844 C-222.99018956 195.58460964 -216.19777445 186.31877345 -209.48413086 176.99194336 C-204.97552962 170.73640415 -200.4030377 164.52947279 -195.8203125 158.328125 C-191.87568864 152.98407804 -187.9702626 147.61347076 -184.08984375 142.22265625 C-176.74980842 132.02909162 -169.28529769 121.92863998 -161.81933594 111.82714844 C-154.99018956 102.58460964 -148.19777445 93.31877345 -141.48413086 83.99194336 C-136.97552962 77.73640415 -132.4030377 71.52947279 -127.8203125 65.328125 C-123.8756874 59.98407636 -119.97038725 54.61338236 -116.08984375 49.22265625 C-109.85092496 40.56209575 -103.55563342 31.9447167 -97.18847656 23.37792969 C-96.17110774 22.00631516 -95.1570582 20.63222776 -94.14746094 19.25488281 C-71.27957842 -11.9376386 -33.24102323 -22.81246692 0 0 Z " fill="#454444" transform="translate(259.58984375,11.77734375)"/>
<path d="M0 0 C115.17 0 230.34 0 349 0 C349 21.12 349 42.24 349 64 C233.83 64 118.66 64 0 64 C0 42.88 0 21.76 0 0 Z " fill="#454545" transform="translate(341,6)"/>
<path d="M0 0 C379.5 0 759 0 1150 0 C1150 2.97 1150 5.94 1150 9 C770.5 9 391 9 0 9 C0 6.03 0 3.06 0 0 Z " fill="#EC1C24" transform="translate(0,389)"/>
<path d="M0 0 C21.12 0 42.24 0 64 0 C64 52.47 64 104.94 64 159 C42.88 159 21.76 159 0 159 C0 106.53 0 54.06 0 0 Z " fill="#454545" transform="translate(483,101)"/>
<path d="M0 0 C50.5387931 0 50.5387931 0 59.28125 7.2734375 C65.61124329 13.63220349 67.5194055 20.71346049 68.3125 29.4375 C67.52597895 38.40384 64.7941721 44.95780423 58 51 C56.02085712 52.36410089 54.02425731 53.7037901 52 55 C53.66304084 58.35597593 55.33056068 61.70970253 57 65.0625 C57.49604736 66.05934814 57.99209473 67.05619629 58.50317383 68.08325195 C61.77728611 74.63411224 65.13324062 81.12814701 68.71289062 87.51782227 C70.21911161 90.25919223 71 91.81128524 71 95 C63.74 95 56.48 95 49 95 C46.75609376 90.53518884 44.51344449 86.06979055 42.27392578 81.6027832 C41.51228292 80.08451467 40.74992122 78.56660652 39.98681641 77.04907227 C38.88773765 74.8630949 37.79128209 72.67581876 36.6953125 70.48828125 C36.3556546 69.81412674 36.0159967 69.13997223 35.66604614 68.44538879 C33.94190078 64.9975048 32.43529018 61.58822545 31 58 C27.04 57.67 23.08 57.34 19 57 C19 69.54 19 82.08 19 95 C12.73 95 6.46 95 0 95 C0 63.65 0 32.3 0 0 Z M19 17 C19 24.92 19 32.84 19 41 C22.34125 41.0825 25.6825 41.165 29.125 41.25 C30.68758545 41.30462402 30.68758545 41.30462402 32.28173828 41.36035156 C38.03094319 41.42891296 41.51620346 40.98241354 46 37 C48.69512623 32.95731066 48.77781883 29.7479358 48 25 C46.21624589 21.22544889 43.81342913 19.29995199 39.875 17.84765625 C35.48739033 16.88786663 31.52711533 16.77631999 27.0625 16.875 C24.401875 16.91625 21.74125 16.9575 19 17 Z " fill="#EC1C24" transform="translate(1567,303)"/>
<path d="M0 0 C142.23 0 284.46 0 431 0 C431 2.97 431 5.94 431 9 C288.77 9 146.54 9 0 9 C0 6.03 0 3.06 0 0 Z " fill="#ED1C24" transform="translate(1960,389)"/>
<path d="M0 0 C10 0 10 0 12.22338867 1.64379883 C12.7207251 2.46904053 13.21806152 3.29428223 13.73046875 4.14453125 C14.37290527 5.15209473 15.0153418 6.1596582 15.67724609 7.19775391 C16.03542419 7.78961487 16.39360229 8.38147583 16.76263428 8.99127197 C18.17796496 11.28890666 19.66383147 13.53080439 21.16259766 15.77490234 C24.91254442 21.39077569 28.61401356 27.0376476 32.3125 32.6875 C34.21287062 35.58829617 36.11410479 38.4885139 38.01737976 41.3874054 C39.19248967 43.17741951 40.36601544 44.96847532 41.53742981 46.76091003 C46.90041452 54.93391524 52.45681428 62.93718441 58 71 C58.33 47.57 58.66 24.14 59 0 C62.63 0 66.26 0 70 0 C70 31.35 70 62.7 70 95 C59 95 59 95 55.37475586 91.3894043 C54.28180721 89.7263977 53.23072847 88.03538967 52.21484375 86.32421875 C51.62941299 85.41162796 51.04398224 84.49903717 50.44081116 83.55879211 C48.56892542 80.62349358 46.7527589 77.65807766 44.9375 74.6875 C43.74649448 72.79391955 42.55185805 70.90261775 41.35351562 69.01367188 C37.55903255 63.01541495 33.77981377 57.00751161 30 51 C24.06 42.09 18.12 33.18 12 24 C11.67 47.43 11.34 70.86 11 95 C7.37 95 3.74 95 0 95 C0 63.65 0 32.3 0 0 Z " fill="#454444" transform="translate(1741,303)"/>
<path d="M0 0 C22.77 0 45.54 0 69 0 C69 5.61 69 11.22 69 17 C60.75 17 52.5 17 44 17 C44 42.74 44 68.48 44 95 C37.73 95 31.46 95 25 95 C25 69.26 25 43.52 25 17 C16.75 17 8.5 17 0 17 C0 11.39 0 5.78 0 0 Z " fill="#EC1C24" transform="translate(1484,303)"/>
<path d="M0 0 C3.63 0 7.26 0 11 0 C11.33 16.83 11.66 33.66 12 51 C22.25959447 38.541921 32.47962903 26.05595261 42.6328125 13.51171875 C43.22763428 12.77767822 43.82245605 12.0436377 44.43530273 11.28735352 C45.57904039 9.8758885 46.72182533 8.46365079 47.86352539 7.05053711 C48.3764917 6.41768799 48.88945801 5.78483887 49.41796875 5.1328125 C49.86938232 4.57480957 50.3207959 4.01680664 50.78588867 3.44189453 C52 2 52 2 54 0 C57.0390625 -0.1953125 57.0390625 -0.1953125 60.625 -0.125 C62.40777344 -0.09792969 62.40777344 -0.09792969 64.2265625 -0.0703125 C65.14179687 -0.04710937 66.05703125 -0.02390625 67 0 C65.6685435 2.878418 64.16701678 5.19196251 62.12890625 7.6171875 C61.55938232 8.30022949 60.9898584 8.98327148 60.40307617 9.68701172 C59.79568604 10.40904785 59.1882959 11.13108398 58.5625 11.875 C57.29833623 13.39488342 56.03533223 14.91573216 54.7734375 16.4375 C54.14147461 17.19933594 53.50951172 17.96117187 52.85839844 18.74609375 C50.09818572 22.09374007 47.38074885 25.47333627 44.6875 28.875 C43.99539429 29.73907471 43.99539429 29.73907471 43.28930664 30.62060547 C41.34938707 33.08285385 40.00049656 34.99851033 39 38 C40.05904676 40.50487342 40.05904676 40.50487342 41.7265625 43.20703125 C42.34039795 44.25850342 42.9542334 45.30997559 43.58666992 46.39331055 C44.25931885 47.52164307 44.93196777 48.64997559 45.625 49.8125 C46.311197 50.97969933 46.99649153 52.14742967 47.6809082 53.31567383 C49.43477511 56.30384315 51.20049363 59.28481176 52.96990967 62.26379395 C54.57043944 64.96146948 56.16182491 67.6645199 57.75390625 70.3671875 C59.92744283 74.05446941 62.10723472 77.73790635 64.29296875 81.41796875 C65.19556078 82.94516579 66.09792202 84.47249926 67 86 C67.4120166 86.6904541 67.8240332 87.3809082 68.24853516 88.09228516 C71 92.77206527 71 92.77206527 71 95 C66.71 95 62.42 95 58 95 C57.22398438 93.618125 56.44796875 92.23625 55.6484375 90.8125 C54.55773832 88.87474853 53.46655364 86.93727028 52.375 85 C51.80048096 83.98010986 51.22596191 82.96021973 50.6340332 81.90942383 C45.63284247 73.06002159 40.5129833 64.28300602 35.31982422 55.54492188 C34.75408691 54.58521484 34.18834961 53.62550781 33.60546875 52.63671875 C33.10168701 51.78811279 32.59790527 50.93950684 32.07885742 50.06518555 C31 48 31 48 31 46 C30.34 46 29.68 46 29 46 C28.72599365 46.59167969 28.4519873 47.18335938 28.16967773 47.79296875 C27.04348203 49.91795501 25.86440667 51.50979358 24.28515625 53.3125 C23.76373047 53.91320312 23.24230469 54.51390625 22.70507812 55.1328125 C22.16302734 55.74898438 21.62097656 56.36515625 21.0625 57 C19.98976315 58.22818734 18.91811687 59.45732824 17.84765625 60.6875 C17.1362146 61.49767578 17.1362146 61.49767578 16.41040039 62.32421875 C15.94496826 62.87722656 15.47953613 63.43023437 15 64 C14.18523193 64.8976709 14.18523193 64.8976709 13.35400391 65.81347656 C11.54924608 68.72790338 11.56878946 70.883327 11.48828125 74.296875 C11.45283203 75.50214844 11.41738281 76.70742188 11.38085938 77.94921875 C11.34702148 79.83060547 11.34702148 79.83060547 11.3125 81.75 C11.27833984 83.01972656 11.24417969 84.28945313 11.20898438 85.59765625 C11.12650999 88.73168274 11.05735516 91.86542955 11 95 C7.37 95 3.74 95 0 95 C0 63.65 0 32.3 0 0 Z " fill="#454444" transform="translate(1874,303)"/>
<path d="M0 0 C7.97797956 7.54724357 10.15935235 16.43612474 10.51187134 27.13304138 C10.57607018 30.67519483 10.58785731 34.21515605 10.57104492 37.7578125 C10.56253818 40.48774801 10.59136865 43.21558266 10.62304688 45.9453125 C10.66609095 56.74630585 10.67045485 68.44989351 3.9375 77.5625 C-5.8554327 86.48494979 -14.52198041 88.72927706 -27.4453125 88.43359375 C-35.77201249 88.01147875 -42.06870475 84.86866599 -48.1171875 79.1875 C-54.93209818 71.19133813 -56.02959726 62.6691895 -56.078125 52.58203125 C-56.08667511 51.19657356 -56.08667511 51.19657356 -56.09539795 49.78312683 C-56.10482648 47.83060849 -56.11137338 45.87807439 -56.11523438 43.92553711 C-56.12490998 40.96504297 -56.15594155 38.00525242 -56.1875 35.04492188 C-56.19403401 33.14062909 -56.19928292 31.23633137 -56.203125 29.33203125 C-56.2154718 28.45875687 -56.2278186 27.58548248 -56.24053955 26.68574524 C-56.20591401 16.94800987 -53.87292509 8.16826801 -46.875 1.125 C-33.15416522 -9.76455141 -14.13955029 -11.4377254 0 0 Z M-40.1484375 9.8203125 C-44.62677594 15.79818508 -45.33003087 22.96466271 -45.2734375 30.21875 C-45.27630768 31.05031616 -45.27917786 31.88188232 -45.28213501 32.73864746 C-45.28416123 34.48316129 -45.27873326 36.22769861 -45.26611328 37.97216797 C-45.25003834 40.61868853 -45.26601092 43.2636823 -45.28515625 45.91015625 C-45.28317356 47.61719082 -45.27932936 49.32422445 -45.2734375 51.03125 C-45.27951019 51.80964233 -45.28558289 52.58803467 -45.2918396 53.39001465 C-45.21038877 59.8592405 -44.14114808 66.33768439 -39.97265625 71.46484375 C-39.30105469 71.99207031 -38.62945313 72.51929688 -37.9375 73.0625 C-36.93396484 73.88041016 -36.93396484 73.88041016 -35.91015625 74.71484375 C-30.75241037 78.28863696 -25.62478502 79.72355723 -19.37890625 78.7265625 C-12.04285795 76.82834604 -7.03339091 73.57842546 -3 67.125 C-0.91246291 61.55823442 -0.71627077 56.05502946 -0.70703125 50.1640625 C-0.70370285 49.414664 -0.70037445 48.6652655 -0.69694519 47.89315796 C-0.69190538 46.31484588 -0.68953595 44.73652324 -0.68969727 43.15820312 C-0.6875129 40.76414145 -0.6693319 38.37054274 -0.65039062 35.9765625 C-0.64745551 34.43489739 -0.64547151 32.89323012 -0.64453125 31.3515625 C-0.63734573 30.64609283 -0.63016022 29.94062317 -0.62275696 29.21377563 C-0.6624359 20.43414343 -2.68775985 13.31224015 -9.0625 6.9375 C-20.11976745 -0.18829458 -30.34556252 1.71176159 -40.1484375 9.8203125 Z " fill="#454444" transform="translate(1707.875,309.875)"/>
<path d="M0 0 C3.63 0 7.26 0 11 0 C11.33 16.5 11.66 33 12 50 C21.05836853 39.48222687 21.05836853 39.48222687 29.80859375 28.7578125 C31.55943898 26.55443151 33.32282977 24.36367897 35.09765625 22.1796875 C35.65267822 21.49632324 36.2077002 20.81295898 36.77954102 20.10888672 C37.92231622 18.70810734 39.06991817 17.31125126 40.22241211 15.91845703 C42.68776467 12.92657637 45.01005864 9.98483915 47.15625 6.75 C48.9708761 4.04343904 50.40472052 1.97426618 53 0 C57.4591426 -0.79480088 61.52737886 -0.6136218 66 0 C64.52751709 4.67883623 61.77875491 7.85399106 58.5625 11.4375 C53.67134731 17.00221295 49.00934511 22.69491704 44.47875977 28.55639648 C42.7307607 30.8142423 41.0216536 32.9783464 39 35 C39.27609731 39.85241024 40.93474489 43.00249047 43.5 47.0625 C44.30959714 48.36575814 45.11664341 49.67060255 45.921875 50.9765625 C46.39302734 51.7387207 46.86417969 52.50087891 47.34960938 53.28613281 C51.28268352 59.75359615 55.05619916 66.31830722 58.86938477 72.85696411 C59.94832948 74.7060412 61.02852095 76.55438217 62.109375 78.40234375 C62.4499292 78.98550858 62.7904834 79.5686734 63.14135742 80.16950989 C65.03868343 83.40573381 66.9919905 86.59535719 69.015625 89.75390625 C71 93 71 93 71 95 C66.45182684 95.81118332 62.52778352 96.02832627 58 95 C54.78899187 91.99295791 53.11767928 88.34536374 51.21240234 84.41601562 C49.20165325 80.40909395 46.95938966 76.53343154 44.75170898 72.63256836 C42.9397432 69.42703659 41.15190971 66.20903894 39.3671875 62.98828125 C36.35723917 57.58900147 33.21998751 52.27634524 30 47 C29.31421875 47.69996094 28.6284375 48.39992188 27.921875 49.12109375 C25.93281029 51.12909525 23.86333146 52.96428536 21.703125 54.78515625 C14.00270777 61.82168775 11.2717481 67.51624596 10.73925781 78.05834961 C10.66378053 83.71522936 10.72257728 89.34921263 11 95 C7.37 95 3.74 95 0 95 C0 63.65 0 32.3 0 0 Z " fill="#454444" transform="translate(1409,303)"/>
<path d="M0 0 C19.8 0 39.6 0 60 0 C60 3.3 60 6.6 60 10 C43.83 10 27.66 10 11 10 C11 20.56 11 31.12 11 42 C24.53 42 38.06 42 52 42 C52 45.3 52 48.6 52 52 C38.47 52 24.94 52 11 52 C11 62.89 11 73.78 11 85 C27.17 85 43.34 85 60 85 C60 88.3 60 91.6 60 95 C40.2 95 20.4 95 0 95 C0 63.65 0 32.3 0 0 Z " fill="#454444" transform="translate(1175,303)"/>
<path d="M0 0 C19.47 0 38.94 0 59 0 C59 3.3 59 6.6 59 10 C43.16 10 27.32 10 11 10 C11 20.56 11 31.12 11 42 C24.53 42 38.06 42 52 42 C52 45.3 52 48.6 52 52 C38.47 52 24.94 52 11 52 C11 62.89 11 73.78 11 85 C26.84 85 42.68 85 59 85 C59 88.3 59 91.6 59 95 C39.53 95 20.06 95 0 95 C0 63.65 0 32.3 0 0 Z " fill="#454545" transform="translate(1330,303)"/>
<path d="M0 0 C3.63 0 7.26 0 11 0 C11 28.05 11 56.1 11 85 C26.84 85 42.68 85 59 85 C59 88.3 59 91.6 59 95 C39.53 95 20.06 95 0 95 C0 63.65 0 32.3 0 0 Z " fill="#454545" transform="translate(1254,303)"/>
<path d="M0 0 C3.63 0 7.26 0 11 0 C11 31.35 11 62.7 11 95 C7.37 95 3.74 95 0 95 C0 63.65 0 32.3 0 0 Z " fill="#454545" transform="translate(1837,303)"/>
<path d="M0 0 C3.63 0 7.26 0 11 0 C11 3.63 11 7.26 11 11 C7.37 11 3.74 11 0 11 C0 7.37 0 3.74 0 0 Z " fill="#454444" transform="translate(1837,283)"/>
</svg>
