<?xml version="1.0" encoding="UTF-8" standalone="no"?>
<!-- Created with Inkscape (http://www.inkscape.org/) -->
<svg
   xmlns:svg="http://www.w3.org/2000/svg"
   xmlns="http://www.w3.org/2000/svg"
   version="1.0"
   width="523.18481"
   height="278.40283"
   id="svg2758">
  <defs
     id="defs2760">
    <clipPath
       id="clipPath77">
      <path
         d="M -6.29411,-18.3629 L 7.6703,-18.3629 L 7.6703,7.8804 L -6.29411,7.8804 L -6.29411,-18.3629 z"
         id="path79" />
    </clipPath>
    <clipPath
       id="clipPath67">
      <path
         d="M 0,0 L 1440,0 L 1440,1440 L 0,1440 L 0,0 z"
         id="path69" />
    </clipPath>
    <clipPath
       id="clipPath59">
      <path
         d="M 727.545,1152.791 L 856.503,1152.791 L 856.503,1239.5 L 727.545,1239.5 L 727.545,1152.791 z"
         id="path61" />
    </clipPath>
  </defs>
  <g
     transform="translate(-386.97903,-78.06652)"
     id="layer1">
    <path
       d="M 743.11095,176.29285 C 674.73069,140.24085 601.06627,144.58379 572.97124,186.70478 C 583.22566,198.5922 596.40992,209.6166 611.94851,218.63656 C 662.48817,247.95143 718.88749,245.08397 737.93142,212.2335 C 744.105,201.62669 745.56992,189.21033 743.11095,176.29285"
       id="path81"
       style="fill:#967e72;fill-opacity:1;fill-rule:nonzero;stroke:none" />
    <path
       d="M 554.34586,104.71779 C 545.50404,119.89026 546.2365,138.82104 554.50282,157.6683 C 581.97002,160.73063 605.82725,152.76857 616.55254,134.28322 C 625.81291,118.33125 623.40626,97.785783 612.05315,78.075497 C 586.36477,77.741425 564.75724,86.733546 554.34586,104.71779"
       id="path83"
       style="fill:#967e72;fill-opacity:1;fill-rule:nonzero;stroke:none" />
    <path
       d="M 739.13475,159.56138 C 729.82206,137.06716 709.5748,114.46157 681.68905,98.286891 C 661.23252,86.427313 639.78194,79.829379 620.26715,78.38173 C 626.85928,101.12651 646.47871,124.92918 674.78301,141.35442 C 696.44286,153.90998 719.30604,159.92329 739.13475,159.56138"
       id="path85"
       style="fill:#967e72;fill-opacity:1;fill-rule:nonzero;stroke:none" />
    <path
       d="M 560.20553,176.71044 C 559.47307,174.03786 557.43265,171.97775 554.4505,170.89201 C 548.17228,168.58134 539.38277,171.39312 534.77875,177.15587 C 532.3721,180.19037 531.48268,183.64245 532.31978,186.62126 C 533.10456,189.29384 535.14498,191.35396 538.07481,192.43969 C 544.35303,194.72252 553.19485,191.91075 557.74656,186.17583 C 560.15321,183.14134 561.04263,179.68926 560.20553,176.71044"
       id="path87"
       style="fill:#e32739;fill-opacity:1;fill-rule:nonzero;stroke:none" />
    <path
       d="M 442.90749,270.89108 L 430.14178,270.89108 L 386.97903,354.49276 L 401.68052,354.49276 C 401.68052,354.49276 411.25481,335.11655 411.67335,334.30921 C 412.61509,334.30921 460.17259,334.30921 461.11432,334.30921 C 461.53287,335.11655 471.10715,354.49276 471.10715,354.49276 L 486.17488,354.49276 L 443.37836,270.89108 L 442.90749,270.89108 z M 434.58885,289.26508 L 436.05377,285.86867 C 436.05377,285.86867 436.26304,285.33973 436.47232,284.7551 C 436.52463,285.08917 436.68159,285.59028 436.68159,285.59028 C 436.73391,285.64596 437.67564,287.78959 437.67564,287.78959 L 438.56506,289.84971 C 438.61737,289.87755 452.42945,317.49422 455.35929,323.25697 C 453.05728,323.25697 419.62576,323.25697 417.32375,323.25697 C 418.37012,321.14118 434.06567,290.35082 434.06567,290.35082 C 434.06567,290.32298 434.58885,289.26508 434.58885,289.26508"
       id="path89"
       style="fill:#e32739;fill-opacity:1;fill-rule:nonzero;stroke:none" />
    <path
       d="M 540.69074,296.30844 L 527.82039,296.30844 C 527.82039,296.30844 506.73604,338.2624 505.42808,340.85146 C 504.12012,338.2624 483.402,296.30844 483.402,296.30844 L 469.48528,296.30844 L 498.78363,354.49276 L 512.02021,354.49276 L 541.94638,296.30844"
       id="path91"
       style="fill:#e32739;fill-opacity:1;fill-rule:nonzero;stroke:none" />
    <path
       d="M 575.90108,294.91647 L 575.79644,294.91647 C 553.71804,295.05567 538.23177,308.00099 538.23177,326.4585 C 538.23177,344.5541 553.14254,356.24664 576.16267,356.24664 C 594.945,356.24664 613.83198,346.78125 613.83198,325.65116 C 613.83198,317.46638 611.11142,310.61789 605.77493,305.30057 C 598.97353,298.53559 588.35287,294.8608 575.90108,294.91647 z M 576.73817,345.52848 C 561.30422,345.52848 550.94516,337.59425 550.94516,325.76251 C 550.94516,315.85169 558.47902,305.746 575.37789,305.52328 C 583.85349,305.38408 591.07344,307.86179 595.7821,312.48313 C 599.28744,315.93521 601.1709,320.50087 601.1709,325.65116 C 601.1709,338.70783 588.87606,345.52848 576.73817,345.52848"
       id="path93"
       style="fill:#e32739;fill-opacity:1;fill-rule:nonzero;stroke:none" />
    <path
       d="M 681.42746,335.08871 L 681.16587,335.53414 C 679.49167,338.03968 678.02676,339.98844 674.52142,342.15991 C 670.33594,344.72114 664.21468,346.22446 658.19805,346.22446 C 643.3396,346.22446 632.98054,337.95617 632.98054,326.09659 C 632.98054,311.64795 646.06016,305.05001 658.19805,305.05001 C 666.67365,305.05001 672.27172,308.05666 674.25983,309.33728 C 677.8698,311.64795 679.33472,314.18133 680.38109,315.85169 L 680.85195,316.68687 L 692.88521,313.23479 L 692.41434,312.37177 C 690.94942,309.75487 688.28118,304.88297 681.47978,300.62355 C 673.42273,295.47326 663.4299,294.69376 658.19805,294.69376 C 635.17792,294.69376 619.74397,306.94309 619.74397,325.17789 C 619.74397,338.70783 626.85928,349.09192 639.3634,353.62974 C 644.69988,355.55066 650.71651,356.46936 657.88414,356.46936 C 665.73191,356.46936 676.98039,355.02171 685.71757,348.06186 C 689.53682,344.97169 690.8971,342.60534 692.98984,339.06974 L 693.51303,338.17888 L 692.51898,337.90049"
       id="path95"
       style="fill:#e32739;fill-opacity:1;fill-rule:nonzero;stroke:none" />
    <path
       d="M 767.90991,326.65337 C 767.43905,307.69475 752.68523,294.44321 732.07175,294.44321 C 711.09204,294.44321 696.96605,306.74821 696.96605,325.06653 C 696.96605,346.58638 714.80665,356.24664 732.43798,356.24664 C 737.82678,356.24664 748.08121,355.35578 756.76607,349.48167 C 762.62575,345.41712 764.61385,341.63096 766.65427,337.59425 L 767.12513,336.75907 L 755.03957,333.44619 L 754.67334,334.11433 C 753.10378,336.89827 751.7435,339.3203 748.02889,341.82584 C 744.15732,344.4149 738.97779,345.89039 733.85058,345.89039 C 725.6889,345.89039 717.99808,342.60534 713.76028,337.3437 C 710.9874,333.91945 710.30726,330.41169 709.88871,327.46072 C 711.61522,327.46072 767.96223,327.46072 767.96223,327.46072 L 767.90991,326.65337 z M 710.51654,317.66125 C 712.4,313.45751 717.47489,304.24267 732.80421,304.24267 C 747.24411,304.24267 751.90046,313.48535 753.57465,317.66125 C 751.48191,317.66125 712.66159,317.66125 710.51654,317.66125"
       id="path97"
       style="fill:#e32739;fill-opacity:1;fill-rule:nonzero;stroke:none" />
    <path
       d="M 811.64816,294.5824 C 805.73618,294.5824 800.45201,295.5011 795.58639,297.42202 C 791.40091,299.00886 789.30817,300.51219 787.21543,302.26607 C 787.21543,300.37299 787.21543,296.30844 787.21543,296.30844 L 774.659,296.30844 L 774.659,354.49276 L 787.21543,354.49276 L 787.21543,326.79257 C 787.21543,321.14118 787.21543,312.62232 797.57449,308.00099 C 802.44011,305.91303 806.31168,305.63464 809.7647,305.63464 C 813.95018,305.63464 820.07144,306.08007 824.83242,309.97758 C 829.80268,313.93078 829.90732,318.94186 830.01195,323.75808 L 830.01195,354.49276 L 842.46375,354.49276 L 842.46375,323.08993 C 842.46375,317.32718 842.46375,310.78492 837.75509,304.85514 C 832.47092,298.22936 823.15823,294.5824 811.64816,294.5824"
       id="path99"
       style="fill:#e32739;fill-opacity:1;fill-rule:nonzero;stroke:none" />
    <path
       d="M 891.64313,306.33062 L 891.64313,296.19709 C 891.64313,296.19709 865.32693,296.19709 863.86201,296.19709 C 863.86201,294.74944 863.86201,269.74967 863.86201,269.74967 L 863.12955,269.74967 L 851.41021,269.74967 L 851.41021,338.17888 C 851.41021,338.17888 851.46253,338.54079 851.46253,338.54079 C 851.56717,346.78125 851.6718,355.3001 867.73358,355.3001 C 871.44819,355.3001 887.09142,354.91035 890.80603,354.54844 L 891.48617,354.46492 L 891.48617,343.10645 L 890.59676,343.27349 C 887.77156,343.80244 873.85484,344.13651 870.66341,344.13651 C 863.80969,344.13651 863.75737,340.85146 863.65274,335.42278 L 863.65274,335.03303 C 863.65274,335.03303 863.75737,310.78492 863.75737,306.33062 C 865.22229,306.33062 891.64313,306.33062 891.64313,306.33062"
       id="path101"
       style="fill:#e32739;fill-opacity:1;fill-rule:nonzero;stroke:none" />
    <path
       d="M 904.09493,342.96726 C 907.44331,342.96726 910.16387,345.69551 910.16387,349.11976 C 910.16387,352.59968 907.44331,355.32794 904.04261,355.32794 C 900.69422,355.32794 897.92134,352.59968 897.92134,349.11976 C 897.92134,345.69551 900.69422,342.96726 904.04261,342.96726 L 904.09493,342.96726 z M 904.04261,343.91379 C 901.32205,343.91379 899.12467,346.2523 899.12467,349.11976 C 899.12467,352.04289 901.32205,354.35356 904.09493,354.35356 C 906.81549,354.3814 909.01286,352.04289 909.01286,349.1476 C 909.01286,346.2523 906.81549,343.91379 904.09493,343.91379 L 904.04261,343.91379 z M 902.8916,352.71104 L 901.79291,352.71104 L 901.79291,345.83471 C 902.36842,345.75119 902.94392,345.66768 903.78102,345.66768 C 904.77507,345.66768 905.45521,345.89039 905.87375,346.19662 C 906.2923,346.50286 906.50158,346.94829 906.50158,347.61643 C 906.50158,348.53513 905.92607,349.06408 905.19361,349.2868 L 905.19361,349.34247 C 905.76912,349.45383 906.18767,350.01062 906.34462,351.01284 C 906.50158,352.07073 906.65853,352.48833 906.76317,352.71104 L 905.61216,352.71104 C 905.45521,352.48833 905.29825,351.87586 905.1413,350.95716 C 904.98434,350.09414 904.56579,349.76007 903.67638,349.76007 L 902.8916,349.76007 L 902.8916,352.71104 z M 902.8916,348.89704 L 903.67638,348.89704 C 904.61811,348.89704 905.35057,348.56297 905.35057,347.72779 C 905.35057,347.11532 904.93202,346.5307 903.67638,346.5307 C 903.36247,346.5307 903.10087,346.55854 902.8916,346.58638"
       id="path103"
       style="fill:#e32739;fill-opacity:1;fill-rule:nonzero;stroke:none" />
    <path
       d="M 904.09493,342.96726 C 907.44331,342.96726 910.16387,345.69551 910.16387,349.11976 C 910.16387,352.59968 907.44331,355.32794 904.04261,355.32794 C 900.69422,355.32794 897.92134,352.59968 897.92134,349.11976 C 897.92134,345.69551 900.69422,342.96726 904.04261,342.96726 L 904.09493,342.96726 z M 904.04261,343.91379 C 901.32205,343.91379 899.12467,346.2523 899.12467,349.11976 C 899.12467,352.04289 901.32205,354.35356 904.09493,354.35356 C 906.81549,354.3814 909.01286,352.04289 909.01286,349.1476 C 909.01286,346.2523 906.81549,343.91379 904.09493,343.91379 L 904.04261,343.91379 z M 902.8916,352.71104 L 901.79291,352.71104 L 901.79291,345.83471 C 902.36842,345.75119 902.94392,345.66768 903.78102,345.66768 C 904.77507,345.66768 905.45521,345.89039 905.87375,346.19662 C 906.2923,346.50286 906.50158,346.94829 906.50158,347.61643 C 906.50158,348.53513 905.92607,349.06408 905.19361,349.2868 L 905.19361,349.34247 C 905.76912,349.45383 906.18767,350.01062 906.34462,351.01284 C 906.50158,352.07073 906.65853,352.48833 906.76317,352.71104 L 905.61216,352.71104 C 905.45521,352.48833 905.29825,351.87586 905.1413,350.95716 C 904.98434,350.09414 904.56579,349.76007 903.67638,349.76007 L 902.8916,349.76007 L 902.8916,352.71104 z M 902.8916,348.89704 L 903.67638,348.89704 C 904.61811,348.89704 905.35057,348.56297 905.35057,347.72779 C 905.35057,347.11532 904.93202,346.5307 903.67638,346.5307 C 903.36247,346.5307 903.10087,346.55854 902.8916,346.58638"
       id="path105"
       style="fill:#e32739;fill-opacity:1;fill-rule:nonzero;stroke:none" />
  </g>
</svg>
