<?xml version="1.0" encoding="UTF-8"?>
<svg id="Layer_1" enable-background="new 0 0 200 72" version="1.1" viewBox="0 0 200 72" xml:space="preserve" xmlns="http://www.w3.org/2000/svg" xmlns:xlink="http://www.w3.org/1999/xlink">
        <image alt="Axis Communications Logo" src="/themes/custom/axiscom/logo.png" xlink:href=""/>
        <style type="text/css">
          .st0{fill:#FFCC33;}
          .st1{fill:#FF0033;}
        </style>
        <path class="site-logo__front" d="m83.6 12.2h9.9c0.1 0 0.1 0.1 0.1 0.1v42.7c0 0.1-0.1 0.1-0.1 0.1h-9.9c-0.1 0-0.1-0.1-0.1-0.1v-42.6c0-0.1 0.1-0.2 0.1-0.2z"/>
        <path class="site-logo__front" d="m80.4 12.2c0.1 0 0.1 0.1 0.1 0.2l-13 21.1c-0.1 0.2-0.1 0.4 0 0.6l13 20.9c0.1 0.1 0 0.2 0 0.2h-12.2c-0.1 0-0.2-0.1-0.3-0.2l-7.9-12.9c-0.1-0.1-0.2-0.1-0.2 0l-7.4 12.9c-0.1 0.1-0.2 0.2-0.3 0.2h-11.5c-0.1 0-0.2 0-0.1-0.2l13.5-22c0.1-0.2 0.1-0.5 0-0.7l-11.8-19.9c0-0.1 0-0.2 0.1-0.2h11.8c0.1 0 0.2 0.1 0.2 0.2l7.1 12c0.1 0.1 0.2 0.1 0.3 0l7.3-12c0.1-0.1 0.1-0.2 0.3-0.2h11z"/>
        <polygon class="st0" points="142.7 34.1 164.6 0 200 55.2 175.9 55.2 162.4 34.1"/>
        <path class="site-logo__front" d="m37 12.2h-9.2c-0.1 0-0.2 0.1-0.3 0.2l-27.5 42.7v0.1h11.2c0.1 0 0.2 0 0.2-0.1l3.7-5.8c0.1-0.1 0.1-0.1 0.2-0.1h11.7c0.1 0 0.1 0.1 0.1 0.1v5.7c0 0.1 0 0.2 0.1 0.2h9.8c0.1 0 0.1-0.1 0.1-0.2v-42.6c0-0.1 0-0.2-0.1-0.2zm-9.7 28.5v0l-7.3 0.1s-0.1 0 0-0.1l7.7-12.3c0-0.1 0.1 0 0.1 0l-0.5 12.3z"/>
        <path class="site-logo__front" d="m99.4 55.2h12.9c1.6 0 3.3-0.3 4.9-0.8 6-1.9 9.1-7.8 9.1-12.9 0-8.1-6.3-10.9-13.8-14.1-1.3-0.6-2.9-1.3-2.9-3.1s1.7-2.7 3.6-2.7h10.2c0.1 0 0.1-0.1 0.1-0.1v-9.3c0-0.1-0.1-0.1-0.1-0.1h-10.7c-8.9 0-14.2 5.3-14.2 12.7 0 6.5 4.1 9.6 10.1 12 4.2 1.7 6.9 2.4 6.9 5.8 0 1.8-1.1 3.5-3.3 3.5h-12.9c-0.1 0-0.1 0.1-0.1 0.1v9h0.2z"/>
        <path class="site-logo__front" d="m131.9 12c-2 0-3.6 1.6-3.6 3.6s1.6 3.6 3.6 3.6 3.6-1.6 3.6-3.6-1.6-3.6-3.6-3.6zm0 6.8c-1.8 0-3.2-1.5-3.2-3.2 0-1.8 1.5-3.2 3.2-3.2 1.8 0 3.2 1.5 3.2 3.2s-1.4 3.2-3.2 3.2z"/>
        <path class="site-logo__front" d="m133.6 17.6-0.8-1.9c0.5-0.1 0.8-0.6 0.8-1.1 0-0.4-0.2-0.7-0.4-0.9-0.3-0.2-0.6-0.3-1-0.3h-1.6v4.2h0.5v-1.8h1.2l0.8 1.8h0.5zm-2.5-2.2v-1.5h1c0.2 0 0.4 0 0.6 0.1s0.3 0.3 0.3 0.6c0 0.2-0.1 0.4-0.2 0.5-0.2 0.2-0.4 0.2-0.7 0.2h-1z"/>
        <path class="site-logo__front" d="m8.6 71.2c-1.2 0.6-2.1 0.8-3.3 0.8-3.3 0-5-2.1-5-4.3s1.9-4.3 5.2-4.3c1.2 0 2.3 0.2 3.1 0.7v1.9c-0.9-0.5-1.9-0.9-3-0.9-1.8 0-3.1 1.1-3.1 2.5 0 1.5 1.3 2.6 3.1 2.6 1.1 0 1.9-0.3 3.1-0.9v1.9z"/>
        <path class="site-logo__front" d="m21 72c-3.2 0-4.9-2.2-4.9-4.3 0-2 1.7-4.3 4.9-4.3s4.9 2.3 4.9 4.3c0 2.2-1.8 4.3-4.9 4.3zm0-6.8c-1.6 0-2.7 1-2.7 2.5s1.1 2.5 2.7 2.5 2.7-1 2.7-2.5-1.1-2.5-2.7-2.5z"/>
        <path class="site-logo__front" d="m40.7 63.6h1.9v8.4h-2.1v-5.2l-2.3 2.6h-0.3l-2.3-2.6v5.2h-2.1v-8.4h1.9l2.8 3.1 2.5-3.1z"/>
        <path class="site-logo__front" d="m58.4 63.6h1.9v8.4h-2.1v-5.2l-2.3 2.6h-0.3l-2.3-2.6v5.2h-2.3v-8.4h1.9l2.8 3.1 2.7-3.1z"/>
        <path class="site-logo__front" d="m76.6 63.6v4.7c0 2.8-1.9 3.7-4.3 3.7-2.5 0-4.3-1.1-4.3-3.7v-4.8h2.1v4.8c0 1.2 0.9 1.9 2.1 1.9 1.1 0 2.2-0.6 2.2-2.1v-4.7h2.2z"/>
        <path class="site-logo__front" d="m93.2 71.9h-1.8l-4.8-5.4v5.4h-2.1v-8.4h2l4.6 5.1v-5.1h2.1v8.4z"/>
        <path class="site-logo__front" d="m103.5 71.9h-2.1v-8.4h2.1v8.4z"/>
        <path class="site-logo__front" d="m118.9 71.2c-1.2 0.6-2.1 0.8-3.4 0.8-3.3 0-5-2.1-5-4.3s1.9-4.3 5.2-4.3c1.2 0 2.3 0.2 3.1 0.7v1.9c-0.9-0.5-1.9-0.9-3-0.9-1.8 0-3.1 1.1-3.1 2.5 0 1.5 1.3 2.6 3.1 2.6 1.1 0 1.9-0.3 3.1-0.9v1.9z"/>
        <path class="site-logo__front" d="m134.3 71.9h-2.3l-0.7-1.7h-3.8l-0.6 1.7h-2.3l3.5-8.4h2.5l3.7 8.4zm-5-6.4-1.3 3.2h2.6l-1.3-3.2z"/>
        <path class="site-logo__front" d="m146.9 65.1h-3.1v6.8h-2.1v-6.8h-3.1v-1.5h8.4v1.5z"/>
        <path class="site-logo__front" d="m155.6 71.9h-2.1v-8.4h2.1v8.4z"/>
        <path class="site-logo__front" d="m167 72c-3.2 0-4.9-2.2-4.9-4.3 0-2 1.7-4.3 4.9-4.3s4.9 2.3 4.9 4.3c0 2.2-1.8 4.3-4.9 4.3zm0-6.8c-1.6 0-2.7 1-2.7 2.5s1.1 2.5 2.7 2.5 2.7-1 2.7-2.5-1.1-2.5-2.7-2.5z"/>
        <path class="site-logo__front" d="m187 71.9h-1.8l-4.8-5.4v5.4h-2.1v-8.4h2l4.6 5.1v-5.1h2.1v8.4z"/>
        <path class="site-logo__front" d="m199.5 65.7c-1.2-0.5-2-0.7-2.7-0.7-0.8 0-1.3 0.3-1.3 0.7 0 1.3 4.4 0.9 4.4 3.8 0 1.6-1.4 2.5-3.3 2.5-1.5 0-2.2-0.4-3.1-0.8v-1.8c1.2 0.8 2 1.1 2.9 1.1 0.8 0 1.3-0.3 1.3-0.8 0-1.4-4.4-0.9-4.4-3.9 0-1.4 1.3-2.4 3.3-2.4 1 0 1.8 0.2 2.9 0.6v1.7z"/>
        <polygon points="162.4 34.1 158.8 34.1 172.4 55.2 175.9 55.2"/>
        <polygon class="st1" points="158.8 34.1 172.4 55.2 129.2 55.2 142.7 34.1"/>
</svg>
