<?xml version="1.0" encoding="UTF-8" standalone="no"?>
<svg
   width="1886pt"
   height="526pt"
   viewBox="0 0 1886 526"
   version="1.1"
   id="svg29"
   xmlns="http://www.w3.org/2000/svg"
   xmlns:svg="http://www.w3.org/2000/svg">
  <defs
     id="defs33">
    <clipPath
       id="Clip0">
      <path
         d="M 0,0 H 258.543 V 22.9813 H 0 Z"
         id="path2" />
    </clipPath>
  </defs>
  <path
     style="fill:#005ba9;fill-rule:nonzero;stroke:none;stroke-width:12.3646"
     d="m 414.73404,364.0403 c -12.72901,-10.29492 -33.33788,-12.71725 -56.66823,-8.1692 v 29.36461 h 68.18497 c -1.2123,-8.47816 -4.84915,-15.74515 -11.51674,-21.19541 z m -56.66823,-39.65949 v -36.94059 c 40.90851,-12.71725 79.70168,-16.05412 109.69959,-8.78713 v 71.16221 c -3.03071,-6.66144 -7.27373,-12.42064 -13.33515,-17.26533 -20.60887,-16.95633 -56.35897,-19.06969 -96.36444,-8.16916 z m 0,-66.00856 v -36.64398 c 23.03345,-7.87256 45.75766,-14.225 67.57881,-18.16748 L 378.36545,137.8612 358.06581,166.01463 V 125.44055 H 467.7654 v 136.86178 l -15.75972,-21.80098 c -28.78564,0.60557 -60.60199,6.66141 -93.93987,17.8709 z m 0,97.49885 c -21.52427,4.23908 -45.76999,14.22504 -68.1973,29.36461 h 68.1973 z m 0,-230.43055 v 40.57408 L 301.08835,245.346 c 19.08733,-9.08373 38.18703,-16.95632 56.97746,-23.61773 v 36.64398 c -33.04098,10.90049 -66.98503,26.94225 -100.01365,47.23548 l -48.1946,67.2197 c 6.06146,-5.45023 12.43214,-10.91285 19.0997,-16.05411 41.21778,-32.39251 86.36927,-56.01028 129.10855,-69.3331 v 36.94059 c -33.94402,9.08374 -70.62188,27.25121 -103.65053,53.27895 -3.03071,2.42233 -6.06142,5.15362 -9.09213,7.57595 h -37.5809 V 125.44055 Z"
     id="path7" />
  <path
     style="fill:#005ba9;fill-rule:nonzero;stroke:none;stroke-width:12.3646"
     d="m 637.48926,282.28782 -1.50918,-52.98235 -14.54745,25.12553 v -62.67169 l 0.60617,-0.60557 h 50.00065 l 1.8184,17.8585 12.72901,129.59479 h -47.58843 l -0.59377,-24.22331 h -16.97203 v -32.0959 z M 621.43263,254.431 605.06678,282.28782 h 16.36585 v 32.0959 h -34.85941 l -13.94132,24.22331 h -46.67303 l 95.47376,-146.84772 z"
     id="path9" />
  <path
     style="fill:#005ba9;fill-rule:nonzero;stroke:none;stroke-width:12.3646"
     d="m 699.92204,232.02444 h 112.13653 l -6.37069,23.91435 -69.39724,54.81145 h 57.27437 l -1.21227,27.85682 H 679.31317 l 7.27373,-26.34903 66.06963,-52.37677 H 705.0681 Z"
     id="path11" />
  <path
     style="fill:#005ba9;fill-rule:nonzero;stroke:none;stroke-width:12.3646"
     d="m 905.09936,338.60581 h -38.18703 l 4.84912,-17.25294 c -7.5706,6.95802 -14.84433,12.09932 -21.51188,15.12722 -6.66759,3.02793 -14.25058,4.54805 -22.73658,4.54805 -11.20747,0 -19.08727,-3.32451 -23.63952,-10.29492 -4.53991,-6.66141 -5.14605,-16.95633 -1.2123,-30.88472 l 18.7904,-67.82531 h 41.21774 l -16.05662,58.44493 c -1.81841,6.66144 -1.81841,11.5061 -0.30933,14.22503 1.81844,2.7313 4.84915,4.23908 9.40143,4.23908 4.84915,0 9.38903,-1.81675 13.63205,-5.74687 3.94611,-3.63347 7.58295,-10.29488 10.00753,-19.98422 l 14.23819,-51.17795 h 40.90824 z"
     id="path13" />
  <path
     style="fill:#005ba9;fill-rule:nonzero;stroke:none;stroke-width:12.3646"
     d="m 949.34758,232.02441 h 37.89017 l -4.55228,17.5619 c 5.75219,-7.57595 10.91057,-12.71725 15.45049,-15.74515 4.84914,-2.71893 10.00754,-4.23908 15.75974,-4.23908 6.0614,0 12.1229,1.81675 18.1843,5.45026 l -20.6089,29.36458 c -4.243,-2.11336 -7.8799,-3.02791 -10.6013,-3.02791 -5.45532,0 -9.99521,2.12573 -14.25058,6.66141 -6.06142,6.05584 -11.20748,17.87091 -15.74736,34.8272 l -10.00757,35.72941 h -40.90848 z"
     id="path15" />
  <path
     style="fill:#005ba9;fill-rule:nonzero;stroke:none;stroke-width:12.3646"
     d="m 1097.8514,275.62641 c 1.5091,-7.87259 0.9154,-13.32285 -1.8185,-16.64736 -2.4245,-3.3369 -6.6675,-4.85702 -12.1228,-4.85702 -2.1153,0 -3.9338,0 -5.7522,0.61793 v -24.53231 c 3.3276,-0.29644 6.9645,-0.60557 10.6013,-0.60557 15.4629,0 26.6703,2.42233 34.5502,6.97038 7.5706,4.53569 12.4322,11.19713 14.5476,19.98426 2.4245,8.77477 1.5215,20.28084 -2.4246,34.20926 l -1.2124,4.53569 h -36.9748 -19.0873 v -19.67526 z m -19.6935,64.1918 v -25.43449 c 0.2967,0 0.6061,-0.309 0.903,-0.309 2.4246,-1.21118 12.1229,-9.98595 15.4629,-13.32282 l 33.0286,10.29488 c -9.0921,10.60389 -18.7904,18.47648 -28.7856,23.01217 -5.7646,2.73129 -12.7414,4.54805 -20.6089,5.75923 z m 0,-85.07825 c -4.243,0.90219 -8.486,3.32451 -12.1229,6.95802 -3.3399,3.02794 -6.0614,7.56362 -8.486,13.92843 h 20.6089 v 19.67526 h -26.0642 c -1.2123,6.66141 -0.6061,11.50607 1.2123,14.84297 2.7215,4.53569 7.2737,6.95801 13.632,6.95801 3.6369,0 7.2738,-0.90218 11.2199,-2.71893 v 25.43449 c -5.7646,0.60557 -12.1229,1.21115 -18.7905,1.21115 -14.2505,0 -24.8518,-2.12572 -31.8287,-6.0558 -6.9644,-3.94248 -11.8136,-10.29492 -14.8443,-19.08205 -3.0307,-8.46581 -2.7338,-18.76073 0.2968,-30.27918 4.5523,-16.64733 13.6444,-30.26679 27.2764,-40.56171 10.9106,-8.18156 23.3428,-13.32282 37.8902,-14.84297 z"
     id="path17" />
  <path
     style="fill:#005ba9;fill-rule:nonzero;stroke:none;stroke-width:12.3646"
     d="m 1399.4041,288.04083 c -6.3584,1.81676 -12.7291,3.63351 -19.3966,5.15366 -0.6064,0.29677 -1.5093,0.59321 -2.1154,0.59321 v -19.06969 c 5.146,-0.90218 8.7829,-1.81675 11.2073,-2.42232 4.8492,-1.21115 10.3047,-2.7313 15.76,-4.84466 1.5215,-4.84465 1.5215,-8.47816 0,-10.59152 -1.5215,-1.82912 -5.1463,-2.7313 -10.3044,-2.7313 -6.6678,0 -12.123,0.90218 -16.0568,3.0279 l -0.6061,0.60558 v -26.94225 c 5.7521,-0.91457 11.8137,-1.22354 17.8751,-1.22354 12.432,0 22.1303,0.61793 29.0949,2.12572 7.2736,1.21118 12.7288,4.23908 16.3658,8.47816 2.734,3.02791 4.243,7.26699 4.8491,13.01386 0.6064,5.45026 0,10.60388 -1.509,15.74518 l -12.7291,46.93887 c -1.5215,5.14126 -2.1276,9.08373 -2.4248,11.80267 0,2.73129 0.2975,6.3648 1.2,10.90049 h -38.4838 c -0.6061,-2.71893 -1.2123,-4.84465 -1.2123,-6.35244 0,-1.52012 0,-3.63348 0.6062,-6.66141 -4.8492,3.32454 -9.389,6.35244 -13.6321,8.47816 v -17.87087 c 0.9029,-0.29677 2.1154,-0.90221 3.0305,-1.50778 4.5402,-2.12572 8.1768,-4.84466 10.9109,-7.87259 2.4122,-3.02791 4.243,-7.26699 5.752,-12.42064 z m -21.512,5.74687 c -7.88,2.12572 -13.0384,3.94248 -15.4628,6.05584 -3.0309,2.12572 -4.8492,4.54805 -5.7524,7.26698 -0.9151,3.3369 -0.3074,6.05584 1.5093,7.87259 1.5215,2.12572 4.5524,3.02794 9.0922,3.02794 3.6369,0 6.9768,-0.60561 10.6137,-1.81676 v 17.87087 c -1.8186,0.90222 -3.6369,1.81676 -5.4552,2.42233 -8.1893,3.02793 -16.9722,4.53569 -26.6704,4.53569 -12.729,0 -21.8212,-3.0279 -26.6703,-8.77477 -5.1584,-6.05584 -6.3707,-13.32282 -3.9461,-21.80099 2.1277,-8.18155 6.3707,-14.84296 12.4321,-19.98423 6.3583,-5.15365 16.0566,-9.08377 29.7011,-11.50609 8.4858,-1.81676 15.1536,-3.02791 20.6088,-4.23909 z m 0,-62.96826 v 26.94225 c -3.6369,2.42232 -12.123,10.90049 -14.8567,15.43621 l -31.5195,-10.59152 c 3.34,-6.97041 6.9769,-12.42064 10.6137,-16.35076 3.9339,-3.93011 8.783,-7.26702 14.8444,-9.98595 4.552,-2.12572 10.0076,-3.63351 16.9719,-4.84466 1.2125,-0.309 2.734,-0.60557 3.9462,-0.60557 z"
     id="path19" />
  <path
     style="fill:#005ba9;fill-rule:nonzero;stroke:none;stroke-width:12.3646"
     d="m 1453.0452,232.02444 h 42.4302 l 2.4244,67.51635 40.0054,-67.51635 h 41.2179 l -74.5556,106.58262 h -36.3687 z"
     id="path21" />
  <path
     style="fill:#005ba9;fill-rule:nonzero;stroke:none;stroke-width:12.3646"
     d="m 1640.6498,275.62641 c 1.2122,-7.87259 0.6061,-13.32285 -2.128,-16.64736 -2.4122,-3.3369 -6.3581,-4.85702 -12.1105,-4.85702 -2.1276,0 -3.9459,0 -5.7646,0.61793 v -24.53231 c 3.3402,-0.29644 6.9772,-0.60557 10.6138,-0.60557 15.4506,0 26.9672,2.42233 34.5501,6.97038 7.5707,4.53569 12.4195,11.19713 14.5349,19.98426 2.437,8.77477 1.5216,20.28084 -2.4247,34.20926 l -1.1993,4.53569 h -56.0748 v -19.67526 z m -20.0031,64.1918 v -25.43449 c 0.3107,0 0.6065,-0.309 0.9155,-0.309 2.7215,-1.21118 12.123,-9.98595 15.4506,-13.32282 l 33.0287,10.29488 c -9.0922,10.60389 -18.4812,18.47648 -28.4888,23.01217 -6.0614,2.73129 -13.026,4.54805 -20.906,5.75923 z m 0,-85.07825 c -4.2427,0.90219 -8.1767,3.32451 -11.8133,6.95802 -3.3402,3.02794 -6.3707,7.56362 -8.7955,13.92843 h 20.6088 v 19.67526 h -26.064 c -1.2122,6.66141 -0.6061,11.50607 1.2122,14.84297 2.7341,4.53569 7.2739,6.95801 13.6446,6.95801 3.6369,0 7.2735,-0.90218 11.2072,-2.71893 v 25.43449 c -5.752,0.60557 -11.8133,1.21115 -18.7901,1.21115 -13.9414,0 -24.5429,-2.12572 -31.5197,-6.0558 -7.2735,-3.94248 -12.1227,-10.29492 -15.1535,-19.08205 -3.0309,-8.46581 -2.7215,-18.76073 0.3106,-30.27918 4.5399,-16.64733 13.6321,-30.26679 27.2763,-40.56171 10.9108,-8.18156 23.6396,-13.32282 37.8778,-14.84297 z"
     id="path23" />
  <path
     style="fill:#005ba9;fill-rule:nonzero;stroke:none;stroke-width:12.3646"
     d="m 1150.586,198.11179 h 42.1207 l -0.6061,79.62798 38.187,-79.62798 h 41.8239 l 6.0615,80.23359 31.5194,-80.23359 h 41.824 L 1290.902,341.635 h -43.6424 l -6.9644,-90.54087 -43.3454,90.54087 h -43.3331 z"
     id="path25" />
</svg>
