<?xml version="1.0" encoding="utf-8"?>
<!-- Generator: Adobe Illustrator 26.0.3, SVG Export Plug-In . SVG Version: 6.00 Build 0)  -->
<svg version="1.0" id="Layer_1" xmlns="http://www.w3.org/2000/svg" xmlns:xlink="http://www.w3.org/1999/xlink" x="0px" y="0px"
	 viewBox="0 0 884 565.3" style="enable-background:new 0 0 884 565.3;" xml:space="preserve">
<style type="text/css">
	.st0{fill:#EF3B40;}
</style>
<g id="g2901">
	<path id="path5" class="st0" d="M179.2,346.2h-77.8c0,0-4.5-5.4,8.1-18c12-12,28.3-19.5,37.1-22.6c10.4-3.7,32.7-9.1,43.6,0.7
		c9.8,8.8,2.8,22.3-0.5,27.6C184.2,342.6,179.2,346.2,179.2,346.2L179.2,346.2z"/>
	<path id="path7" class="st0" d="M166.9,286.8c25.9,1.3,39.6,22.8,31.8,38c-7.4,14.5-15.8,21.4-15.8,21.4h32c6.1,0,8.6-5,6.1-9
		l-69.2-116.4c-3-5-8.8-4.7-11.9,0.3l-39.3,66.5c0,0,37.8-29.3,68.4-24.3C189,266.6,166.9,286.8,166.9,286.8L166.9,286.8z"/>
	<path id="path9" class="st0" d="M165.7,286.7c0,0,10.5-12.4,4.3-15.9c-4.6-2.6-18.4-0.4-37.4,9.4c-20.5,10.6-69.5,47.4-59.3,66
		c0,0,0.3-11,14.6-24c16.7-15,32-27.6,64.8-34.3C157,287.1,161.4,286.7,165.7,286.7L165.7,286.7z"/>
	<path id="path11" d="M292,279.2c3.7,1.2,5.6,3.8,5.6,7.6c0,3.5-1.4,5.9-4.2,7.2c-3.5,1.5-7.2,2.2-11,2H257V278h22.6
		C283.8,277.9,287.9,278.3,292,279.2z M293.1,311.1c4.4,1.6,6.6,4.5,6.6,8.8c0,5.1-2.3,8.5-6.9,10.3c-3.4,1.1-7,1.6-10.5,1.5H257
		v-22h25.6C286.2,309.6,289.7,310.1,293.1,311.1L293.1,311.1z M236.5,263.6V346h46.6c4.9,0,9.8-0.3,14.6-1.1c4.1-0.6,8.1-2,11.7-4.1
		c2.8-1.7,5.3-3.9,7.3-6.5c3-3.7,4.6-8.4,4.6-13.1c0.1-4.4-1.3-8.6-4-12.1c-2.7-3.3-6.6-5.8-11.9-7.3c2.9-1.1,5.5-2.7,7.8-4.7
		c3.2-3.1,4.7-7.1,4.8-12.1c0.1-4.6-1.6-9.1-4.8-12.6c-5.3-5.7-14.2-8.6-26.8-8.8L236.5,263.6z"/>
	<polygon id="polygon13" points="352.6,263.6 352.6,346 331.2,346 331.2,263.6 	"/>
	<path id="path15" d="M456,320.6h20.5c0.6,3.8,1.9,6.6,3.8,8.4c3.5,3.4,9.5,5.1,17.9,5.1c4.2,0.1,8.3-0.4,12.4-1.4
		c6-1.7,9-4.9,9-9.5c0-2.7-1.5-4.8-4.5-6.3s-7.7-2.7-14-3.8l-10.9-2c-10.7-1.9-18.1-4-22.2-6.3c-6.9-3.8-10.4-9.8-10.4-17.8
		c0-7.4,3.4-13.5,10.1-18.4s16.6-7.3,29.5-7.3c10.8,0,20.1,2.3,27.8,6.9c7.7,4.6,11.7,11.3,12,20h-20.7c-0.4-5-3.1-8.5-8.1-10.6
		c-4-1.5-8.2-2.2-12.5-2.1c-5.5,0-10,0.9-13.3,2.7s-5,4.3-5,7.5c0,3,1.6,5.1,4.9,6.6c2.1,1,6.6,2.1,13.4,3.4l17.7,3.4
		c7.8,1.5,13.6,3.5,17.6,6c5.9,3.5,9.5,9.9,9.2,16.8c0,7.5-3.6,13.8-10.8,18.8s-17.4,7.5-30.5,7.5c-13.4,0-24-2.5-31.6-7.4
		C459.8,335.9,456,329.1,456,320.6z"/>
	<polygon id="polygon17" points="573.5,346 573.5,278.2 542.6,278.2 542.6,263.6 542.6,263.6 626,263.6 626,278.2 595.2,278.2 
		595.2,346 	"/>
	<path id="path19" d="M676.6,314.9h-26.1l13.3-32.4L676.6,314.9z M637.5,346l7.1-16.9h38l6.6,16.9h23.3l-36.5-82.4h-24.3L615.1,346
		H637.5z"/>
	<path id="path21" d="M782.6,279.4c4.1,1.7,6.2,5.1,6.2,10.1c0,4.6-2.2,7.7-6.4,9.3c-2.4,0.9-6,1.3-10.9,1.3h-24.4V278h25
		C776.8,278,780.3,278.5,782.6,279.4L782.6,279.4z M726.1,263.6V346h21v-32.3h21l19,32.3H812l-21.1-35c7-0.2,13.5-7.6,16-11.4
		c2.3-3.8,3.5-8.1,3.5-12.6c0.1-3-0.6-6-1.9-8.7c-1.4-2.6-3.2-4.9-5.3-6.9c-2.8-2.6-6.2-4.6-9.9-5.8c-3.9-1.3-9.5-2-16.7-2.1
		L726.1,263.6z"/>
	<path id="path23" d="M405.6,261.2c-23.9,0-43.2,19.3-43.2,43.2s19.3,43.2,43.2,43.2s43.2-19.3,43.2-43.2
		C448.7,280.6,429.4,261.2,405.6,261.2z M415.4,307.4c-2.6,0.3-5.2,2-6,6l-3.7,34.1l-4.3-33.8c0-3.5-2-5.2-6.1-6l-32.3-3.7l32.3-4.1
		c3.5-0.8,6.1-3,6.1-6l4-32l3.7,32.3c0,2.5,2.3,4.9,6,5.7l33.7,4.5L415.4,307.4L415.4,307.4z"/>
</g>
</svg>
