<?xml version="1.0" encoding="UTF-8"?>
<svg version="1.1" xmlns="http://www.w3.org/2000/svg" width="200" height="98">
<path d="M0 0 C66 0 132 0 200 0 C200 32.34 200 64.68 200 98 C134 98 68 98 0 98 C0 65.66 0 33.32 0 0 Z " fill="#FBFEFE" transform="translate(0,0)"/>
<path d="M0 0 C0.66 0 1.32 0 2 0 C2.495 9.405 2.495 9.405 3 19 C8.05784182 20.68594727 11.84666137 21.33016381 17.0234375 21.4140625 C17.76961334 21.43342865 18.51578918 21.4527948 19.28457642 21.4727478 C21.64793777 21.53212065 24.01134897 21.5787578 26.375 21.625 C27.98569732 21.66321884 29.59637506 21.7022728 31.20703125 21.7421875 C35.13786016 21.83778676 39.06878463 21.921972 43 22 C42.98839844 20.92878906 42.97679687 19.85757813 42.96484375 18.75390625 C42.95546701 17.35677257 42.94636669 15.95963701 42.9375 14.5625 C42.92912109 13.85544922 42.92074219 13.14839844 42.91210938 12.41992188 C42.90346412 10.61306441 42.94779989 8.80612397 43 7 C44 6 44 6 46.5625 5.9375 C47.7690625 5.9684375 47.7690625 5.9684375 49 6 C48.98259766 7.60681641 48.98259766 7.60681641 48.96484375 9.24609375 C48.95546701 10.64322743 48.94636669 12.04036299 48.9375 13.4375 C48.92912109 14.14455078 48.92074219 14.85160156 48.91210938 15.58007812 C48.90346412 17.38693559 48.94779989 19.19387603 49 21 C49.33 21.33 49.66 21.66 50 22 C52.83110289 21.98819144 55.61350191 21.90140851 58.4375 21.75 C59.22705078 21.72292969 60.01660156 21.69585937 60.83007812 21.66796875 C62.89585264 21.55878033 64.95160003 21.28879758 67 21 C67.99 19.515 67.99 19.515 69 18 C69.66 18 70.32 18 71 18 C71.99 20.97 71.99 20.97 73 24 C75.31 23.67 77.62 23.34 80 23 C79.95875 21.9275 79.9175 20.855 79.875 19.75 C79.9885825 16.34252515 80.21273364 14.79260369 82 12 C82.33 12 82.66 12 83 12 C83 25.2 83 38.4 83 52 C17 52 -49 52 -117 52 C-117 41.77 -117 31.54 -117 21 C-107.375 20.625 -107.375 20.625 -104.37646484 20.52197266 C-99.58079913 20.30773329 -95.50239872 19.83985064 -91 18 C-90.67 19.32 -90.34 20.64 -90 22 C-87.36 22.33 -84.72 22.66 -82 23 C-81.96261719 22.14277344 -81.92523438 21.28554687 -81.88671875 20.40234375 C-81.51561297 13.94801388 -81.06490552 8.73004075 -78 3 C-76.35 3 -74.7 3 -73 3 C-73 8.28 -73 13.56 -73 19 C-72.01 19 -71.02 19 -70 19 C-69.34 19.99 -68.68 20.98 -68 22 C-65.47305748 22.44144243 -65.47305748 22.44144243 -62.625 22.3125 C-61.66851562 22.30863281 -60.71203125 22.30476563 -59.7265625 22.30078125 C-56.97138959 21.99684384 -55.31621223 21.49348526 -53 20 C-51.73195434 17.9664052 -51.73195434 17.9664052 -51 16 C-50.01 16 -49.02 16 -48 16 C-48 16.66 -48 17.32 -48 18 C-47.01 18 -46.02 18 -45 18 C-45 18.66 -45 19.32 -45 20 C-38.73 20.66 -32.46 21.32 -26 22 C-26 19.69 -26 17.38 -26 15 C-25.34 14.67 -24.68 14.34 -24 14 C-24 15.32 -24 16.64 -24 18 C-23.01 18 -22.02 18 -21 18 C-21 18.66 -21 19.32 -21 20 C-18.36 20.33 -15.72 20.66 -13 21 C-13 20.34 -13 19.68 -13 19 C-14.485 18.505 -14.485 18.505 -16 18 C-18.52531449 14.54430649 -18.4367764 11.14937577 -18 7 C-16.3125 4.0625 -16.3125 4.0625 -14 2 C-11.35546875 1.87109375 -11.35546875 1.87109375 -9 2 C-9.14120016 4.58366245 -9.28778333 7.16682885 -9.4375 9.75 C-9.47681641 10.47960938 -9.51613281 11.20921875 -9.55664062 11.9609375 C-9.76147098 15.4272973 -10.0852002 18.65333026 -11 22 C-8.69 22 -6.38 22 -4 22 C-3.87882812 20.91460937 -3.75765625 19.82921875 -3.6328125 18.7109375 C-3.46387531 17.26558596 -3.29458575 15.82027558 -3.125 14.375 C-3.04636719 13.66214844 -2.96773438 12.94929688 -2.88671875 12.21484375 C-2.37424854 7.91797815 -1.53115573 4.078793 0 0 Z " fill="#FCFEFE" transform="translate(117,46)"/>
<path d="M0 0 C1.9375 1 1.9375 1 3 3 C3.37616681 6.47067113 3.59492803 9.81014393 2 13 C6.95 13 11.9 13 17 13 C16.85901714 16.08362514 16.71240852 19.16680684 16.5625 22.25 C16.52318359 23.12269531 16.48386719 23.99539062 16.44335938 24.89453125 C16.40146484 25.73886719 16.35957031 26.58320312 16.31640625 27.453125 C16.27974854 28.22817383 16.24309082 29.00322266 16.20532227 29.80175781 C16.00396985 31.9574976 15.58270703 33.91801475 15 36 C12.54126232 35.85941524 10.08314825 35.71277001 7.625 35.5625 C6.92632812 35.52318359 6.22765625 35.48386719 5.5078125 35.44335938 C0.2265625 35.11328125 0.2265625 35.11328125 -2 34 C-2 33.34 -2 32.68 -2 32 C-2.99 32 -3.98 32 -5 32 C-5 31.34 -5 30.68 -5 30 C-5.99 30 -6.98 30 -8 30 C-8.37125 31.175625 -8.37125 31.175625 -8.75 32.375 C-10.22262751 35.46751777 -10.86015459 35.83868731 -14 37 C-16.796875 37.1953125 -16.796875 37.1953125 -19.75 37.125 C-21.22726563 37.09792969 -21.22726563 37.09792969 -22.734375 37.0703125 C-23.48203125 37.04710937 -24.2296875 37.02390625 -25 37 C-25.66 35.68 -26.32 34.36 -27 33 C-27.99 33 -28.98 33 -30 33 C-30 27.72 -30 22.44 -30 17 C-31.65 17.33 -33.3 17.66 -35 18 C-36.96846451 22.8555458 -37.40774115 27.43809229 -37.75390625 32.609375 C-38 35 -38 35 -39 37 C-41.64 37 -44.28 37 -47 37 C-47.66 35.68 -48.32 34.36 -49 33 C-49.91845703 33.49113281 -49.91845703 33.49113281 -50.85546875 33.9921875 C-55.35693769 35.43489432 -59.62090487 35.2105426 -64.3125 35.125 C-69.1078125 35.063125 -69.1078125 35.063125 -74 35 C-73.01 24.77 -72.02 14.54 -71 4 C-68.298125 3.938125 -65.59625 3.87625 -62.8125 3.8125 C-61.97050049 3.78518799 -61.12850098 3.75787598 -60.26098633 3.72973633 C-55.71831947 3.67952023 -52.62834775 3.9430456 -49 7 C-48.4375 9.9375 -48.4375 9.9375 -49 13 C-51 15.375 -51 15.375 -53 17 C-50.8614515 19.1385485 -49.86724686 19.42655063 -47 20 C-46.87625 19.030625 -46.7525 18.06125 -46.625 17.0625 C-46.315625 15.5465625 -46.315625 15.5465625 -46 14 C-43.51744285 12.75872142 -41.89848329 12.90132413 -39.125 12.9375 C-38.13886719 12.94523437 -37.15273438 12.95296875 -36.13671875 12.9609375 C-34.07681803 12.98659006 -32.01692197 13.01261974 -29.95703125 13.0390625 C-23.56642779 13.08866615 -17.34356075 12.78592788 -11 12 C-10.92809448 11.00770386 -10.92809448 11.00770386 -10.85473633 9.99536133 C-10.38511786 3.51462653 -10.38511786 3.51462653 -8.67578125 1.23046875 C-5.86801449 -0.83117818 -3.34713149 -0.35862123 0 0 Z " fill="#21ADDE" transform="translate(74,32)"/>
<path d="M0 0 C0.66 0 1.32 0 2 0 C4.78637633 4.1795645 3.79562512 6.14668677 3 11 C3.60062256 10.99476318 4.20124512 10.98952637 4.82006836 10.98413086 C7.52586838 10.96341986 10.23165177 10.95035875 12.9375 10.9375 C14.35579102 10.92493164 14.35579102 10.92493164 15.80273438 10.91210938 C17.15141602 10.90727539 17.15141602 10.90727539 18.52734375 10.90234375 C19.35999756 10.89710693 20.19265137 10.89187012 21.05053711 10.88647461 C23 11 23 11 24 12 C24.5968537 19.52313264 23.58958718 26.66235205 22 34 C20.35 34 18.7 34 17 34 C17 28.06 17 22.12 17 16 C15.02 16 13.04 16 11 16 C10.67 22.27 10.34 28.54 10 35 C5.24845449 35.09201487 0.50001885 35.1715883 -4.25170898 35.21972656 C-5.86672458 35.23979892 -7.48166789 35.2670633 -9.09643555 35.30175781 C-11.42254501 35.35047215 -13.74769093 35.37301154 -16.07421875 35.390625 C-16.79212082 35.41127014 -17.51002289 35.43191528 -18.24967957 35.45318604 C-21.89253743 35.45480378 -23.84485457 35.10047711 -26.93286133 33.10058594 C-31.08298533 28.88331099 -30.19727631 24.57823811 -30.16796875 18.91015625 C-29.92209905 13.18653832 -29.04669195 7.62596923 -28 2 C-25.69 2 -23.38 2 -21 2 C-20.90459186 9.35702764 -20.88301944 16.60346374 -21.78125 23.9140625 C-22.06953132 26.3134681 -22.06953132 26.3134681 -22 30 C-15.565 29.505 -15.565 29.505 -9 29 C-7.56729218 22.98262715 -6.5864318 17.1575339 -6 11 C-5.34 11 -4.68 11 -4 11 C-4 8.03 -4 5.06 -4 2 C-2.68 2 -1.36 2 0 2 C0 1.34 0 0.68 0 0 Z " fill="#CEF7FD" transform="translate(150,33)"/>
<path d="M0 0 C2.701875 -0.061875 5.40375 -0.12375 8.1875 -0.1875 C9.02949951 -0.21481201 9.87149902 -0.24212402 10.73901367 -0.27026367 C15.28168053 -0.32047977 18.37165225 -0.0569544 22 3 C22.5625 5.9375 22.5625 5.9375 22 9 C20 11.375 20 11.375 18 13 C18.66 13.495 19.32 13.99 20 14.5 C22.44996222 17.56245278 22.59282402 19.27795438 22.38671875 23.1015625 C21.77749625 26.09229116 20.45495604 27.27489576 18 29 C13.61966635 31.2545835 9.49841597 31.23591166 4.6875 31.125 C0.8821875 31.063125 0.8821875 31.063125 -3 31 C-2.01 20.77 -1.02 10.54 0 0 Z " fill="#18A5D7" transform="translate(3,36)"/>
<path d="M0 0 C1.76923828 0.01353516 1.76923828 0.01353516 3.57421875 0.02734375 C4.47785156 0.03894531 5.38148437 0.05054688 6.3125 0.0625 C6.17145309 2.97947011 6.02485186 5.8959802 5.875 8.8125 C5.83568359 9.6375 5.79636719 10.4625 5.75585938 11.3125 C5.71396484 12.11171875 5.67207031 12.9109375 5.62890625 13.734375 C5.59224854 14.4675293 5.55559082 15.20068359 5.51782227 15.95605469 C5.31135215 18.07427605 4.88117914 20.0144456 4.3125 22.0625 C1.87327639 21.97549202 -0.56228414 21.86863998 -3 21.75 C-3.69029297 21.72744141 -4.38058594 21.70488281 -5.09179688 21.68164062 C-10.22944827 21.40862533 -10.22944827 21.40862533 -12.58984375 19.625 C-12.95207031 19.109375 -13.31429687 18.59375 -13.6875 18.0625 C-14.1 17.505625 -14.5125 16.94875 -14.9375 16.375 C-16.09080587 12.81897355 -15.78123078 9.5735848 -14.6875 6.0625 C-10.20791442 0.52195994 -6.89062724 -0.06822403 0 0 Z " fill="#31B1E2" transform="translate(84.6875,45.9375)"/>
<path d="M0 0 C1.98 0 3.96 0 6 0 C6 7.26 6 14.52 6 22 C9.12509495 17.73198819 9.12509495 17.73198819 12.22167969 13.44335938 C13.38850218 11.888229 14.69416183 10.44037908 16 9 C17.32 9 18.64 9 20 9 C18.36 13.66769231 18.36 13.66769231 16.375 15.5 C14.79044927 16.95305381 14.79044927 16.95305381 14.625 19.3125 C15.08867613 22.63551225 16.48132238 25.02592298 18 28 C18 29.32 18 30.64 18 32 C16.02 32 14.04 32 12 32 C10.5393715 29.35261084 10 28.10551666 10 25 C9.195625 25.804375 8.39125 26.60875 7.5625 27.4375 C4 31 4 31 0.4375 31.0625 C-0.696875 31.041875 -1.83125 31.02125 -3 31 C-2.69323321 26.58291545 -2.37859951 22.16642571 -2.0625 17.75 C-1.97548828 16.49574219 -1.88847656 15.24148437 -1.79882812 13.94921875 C-1.71181641 12.74394531 -1.62480469 11.53867187 -1.53515625 10.296875 C-1.456604 9.18666992 -1.37805176 8.07646484 -1.29711914 6.93261719 C-1.05146878 4.50800573 -0.67756941 2.33302286 0 0 Z " fill="#34ACD7" transform="translate(179,36)"/>
<path d="M0 0 C1.9375 1 1.9375 1 3 3 C3.37616681 6.47067113 3.59492803 9.81014393 2 13 C6.95 13 11.9 13 17 13 C17 13.33 17 13.66 17 14 C15.67935547 14.07347656 15.67935547 14.07347656 14.33203125 14.1484375 C12.58986328 14.26058594 12.58986328 14.26058594 10.8125 14.375 C9.08966797 14.47941406 9.08966797 14.47941406 7.33203125 14.5859375 C4.14733478 14.98169111 1.8299447 15.50683845 -1 17 C-4.25611854 22.42686424 -4.18337024 25.86799058 -3 32 C-3.66 32 -4.32 32 -5 32 C-5 31.34 -5 30.68 -5 30 C-5.99 30 -6.98 30 -8 30 C-8.2475 30.78375 -8.495 31.5675 -8.75 32.375 C-10.22262751 35.46751777 -10.86015459 35.83868731 -14 37 C-16.796875 37.1953125 -16.796875 37.1953125 -19.75 37.125 C-21.22726563 37.09792969 -21.22726563 37.09792969 -22.734375 37.0703125 C-23.48203125 37.04710937 -24.2296875 37.02390625 -25 37 C-25.66 35.68 -26.32 34.36 -27 33 C-26.01 33.33 -25.02 33.66 -24 34 C-18.64519163 34.34547151 -15.3615957 34.46362011 -11 31 C-8.31324635 26.96986952 -8.33258314 23.73181437 -9 19 C-10.33333333 16.33333333 -10.33333333 16.33333333 -13 15 C-15.70491771 14.40120142 -18.21787101 14.18547527 -21 14 C-21 13.67 -21 13.34 -21 13 C-17.7 12.67 -14.4 12.34 -11 12 C-10.896875 10.576875 -10.79375 9.15375 -10.6875 7.6875 C-10.48905126 4.94890745 -10.33220659 3.44392208 -8.67578125 1.23046875 C-5.86801449 -0.83117818 -3.34713149 -0.35862123 0 0 Z " fill="#DFFAFD" transform="translate(74,32)"/>
<path d="M0 0 C0.71220703 -0.00386719 1.42441406 -0.00773437 2.15820312 -0.01171875 C5.96030929 -0.00468433 9.49237007 0.210292 13.1875 1.125 C12.8575 1.785 12.5275 2.445 12.1875 3.125 C11.5275 3.125 10.8675 3.125 10.1875 3.125 C7.63438083 7.91209845 7.78496664 12.83589889 8.1875 18.125 C8.5175 18.785 8.8475 19.445 9.1875 20.125 C8.1975 20.125 7.2075 20.125 6.1875 20.125 C6.1875 14.845 6.1875 9.565 6.1875 4.125 C4.5375 4.455 2.8875 4.785 1.1875 5.125 C-0.78096451 9.9805458 -1.22024115 14.56309229 -1.56640625 19.734375 C-1.8125 22.125 -1.8125 22.125 -2.8125 24.125 C-5.4525 24.125 -8.0925 24.125 -10.8125 24.125 C-11.4725 22.805 -12.1325 21.485 -12.8125 20.125 C-13.555 20.475625 -14.2975 20.82625 -15.0625 21.1875 C-17.9447726 22.17009293 -19.02426345 22.1576802 -21.8125 21.125 C-20.678125 20.856875 -19.54375 20.58875 -18.375 20.3125 C-17.199375 19.920625 -16.02375 19.52875 -14.8125 19.125 C-13.85179566 16.24288698 -13.70668117 14.42649956 -13.75 11.4375 C-13.75902344 10.62925781 -13.76804687 9.82101563 -13.77734375 8.98828125 C-13.78894531 8.37339844 -13.80054688 7.75851563 -13.8125 7.125 C-12.8225 7.125 -11.8325 7.125 -10.8125 7.125 C-10.68875 6.155625 -10.565 5.18625 -10.4375 4.1875 C-10.23125 3.176875 -10.025 2.16625 -9.8125 1.125 C-6.70033541 -0.43108229 -3.4117342 -0.01822832 0 0 Z " fill="#D2FBFE" transform="translate(37.8125,44.875)"/>
<path d="M0 0 C1.98 0 3.96 0 6 0 C6.23652909 6.93818663 5.93250323 13.68398797 5.0625 20.5625 C4.97564941 21.25279297 4.88879883 21.94308594 4.79931641 22.65429688 C4.40957349 25.56764322 3.93207226 28.20378323 3 31 C1.02 31 -0.96 31 -3 31 C-2.34 24.73 -1.68 18.46 -1 12 C-6.98538237 13.31297122 -6.98538237 13.31297122 -9 17 C-9.30427702 21.18380896 -9.44266449 24.47170685 -7 28 C-6.34 28.33 -5.68 28.66 -5 29 C-5 29.66 -5 30.32 -5 31 C-8.34134421 31.30375856 -10.40654286 31.32796316 -13.375 29.6875 C-15.94266885 25.44097075 -15.78933604 20.83557217 -15 16 C-12.81648313 12.41631835 -11.0146119 11.21371988 -7 10 C-5.0075675 9.62406934 -3.0081326 9.28020455 -1 9 C-0.67 6.03 -0.34 3.06 0 0 Z " fill="#1CA9DE" transform="translate(109,36)"/>
<path d="M0 0 C0.78955078 -0.01224609 1.57910156 -0.02449219 2.39257812 -0.03710938 C4.45057435 -0.04237279 6.50812009 0.06543715 8.5625 0.1875 C10.5625 2.1875 10.5625 2.1875 10.8125 6.125 C10.70568949 11.59013771 9.67975411 16.85061653 8.5625 22.1875 C6.9125 22.1875 5.2625 22.1875 3.5625 22.1875 C3.5625 16.2475 3.5625 10.3075 3.5625 4.1875 C1.5825 4.1875 -0.3975 4.1875 -2.4375 4.1875 C-3.0975 10.1275 -3.7575 16.0675 -4.4375 22.1875 C-6.4175 22.1875 -8.3975 22.1875 -10.4375 22.1875 C-10.55760487 15.16803779 -10.59519615 8.13367691 -9.4375 1.1875 C-7.33618615 -0.91381385 -2.89603678 0.00235259 0 0 Z " fill="#35AFDA" transform="translate(163.4375,44.8125)"/>
<path d="M0 0 C1.98 0 3.96 0 6 0 C5.9278125 0.93199219 5.855625 1.86398438 5.78125 2.82421875 C5.16838232 11.24263733 4.90507436 19.55161826 5 28 C9.29 28 13.58 28 18 28 C18 29.32 18 30.64 18 32 C15.77191841 32.10853983 13.54230068 32.18583307 11.3125 32.25 C10.07113281 32.29640625 8.82976562 32.3428125 7.55078125 32.390625 C3.4303313 31.93733018 1.89212108 30.89748679 -1 28 C-4.82143724 20.35712553 -1.64750623 8.03159287 0 0 Z " fill="#12AEE5" transform="translate(122,36)"/>
<path d="M0 0 C0.66 0 1.32 0 2 0 C1.73850707 3.93305157 1.47185416 7.86571601 1.20043945 11.7980957 C1.06383896 13.79294644 0.93131328 15.78807485 0.79882812 17.78320312 C0.71181641 19.03681641 0.62480469 20.29042969 0.53515625 21.58203125 C0.456604 22.73936768 0.37805176 23.8967041 0.29711914 25.08911133 C0 28 0 28 -1 31 C3.82194643 30.67495741 3.82194643 30.67495741 7.9375 28.4375 C8.288125 27.963125 8.63875 27.48875 9 27 C8.01 29.475 8.01 29.475 7 32 C4.20880221 32.22114415 1.4178788 32.42743301 -1.375 32.625 C-2.1690625 32.68945312 -2.963125 32.75390625 -3.78125 32.8203125 C-5.85028224 32.96058587 -7.92625536 32.98758237 -10 33 C-12 31 -12 31 -12.23046875 28.79296875 C-12.08669596 20.07510987 -12.08669596 20.07510987 -11 16 C-12.98 16.33 -14.96 16.66 -17 17 C-16.67 15.35 -16.34 13.7 -16 12 C-14.00045254 11.95745644 -11.99958364 11.95919217 -10 12 C-9 13 -9 13 -8.8671875 15.00390625 C-8.88375476 20.42968519 -9.20472922 25.63192227 -10 31 C-8.35 31 -6.7 31 -5 31 C-4.34 24.4 -3.68 17.8 -3 11 C-2.67 12.32 -2.34 13.64 -2 15 C-1.34 15 -0.68 15 0 15 C0 10.05 0 5.1 0 0 Z " fill="#E2FEFF" transform="translate(177,36)"/>
<path d="M0 0 C2.908125 -0.04125 5.81625 -0.0825 8.8125 -0.125 C10.18112183 -0.15231201 10.18112183 -0.15231201 11.57739258 -0.18017578 C12.30079834 -0.1851709 13.0242041 -0.19016602 13.76953125 -0.1953125 C14.50792236 -0.20578613 15.24631348 -0.21625977 16.00708008 -0.22705078 C18 0 18 0 21 2 C21.4114439 5.22297721 21.53669566 7.16812172 19.75 9.9375 C18 11 18 11 15.8125 10.6875 C15.214375 10.460625 14.61625 10.23375 14 10 C14 8.02 14 6.04 14 4 C11.59454362 2.79727181 10.05003047 2.89928528 7.375 2.9375 C6.55773438 2.94652344 5.74046875 2.95554688 4.8984375 2.96484375 C4.27195312 2.97644531 3.64546875 2.98804688 3 3 C3.02320313 3.54785156 3.04640625 4.09570312 3.0703125 4.66015625 C3.25072345 12.58535134 2.16806244 20.17815332 1 28 C0.01 27.67 -0.98 27.34 -2 27 C-1.34 18.09 -0.68 9.18 0 0 Z " fill="#1EA8D8" transform="translate(4,37)"/>
<path d="M0 0 C4.95 0 9.9 0 15 0 C15 0.66 15 1.32 15 2 C13.906875 2.061875 12.81375 2.12375 11.6875 2.1875 C7.95722728 2.60644994 7.95722728 2.60644994 6.3125 5.09375 C4.72481941 8.60932845 4.49215661 11.46784846 4.3125 15.3125 C4.24675781 16.56675781 4.18101563 17.82101563 4.11328125 19.11328125 C4.07589844 20.06589844 4.03851563 21.01851562 4 22 C2.02 22 0.04 22 -2 22 C-1.85895309 19.08302989 -1.71235186 16.1665198 -1.5625 13.25 C-1.50352539 12.0125 -1.50352539 12.0125 -1.44335938 10.75 C-1.40146484 9.95078125 -1.35957031 9.1515625 -1.31640625 8.328125 C-1.27974854 7.5949707 -1.24309082 6.86181641 -1.20532227 6.10644531 C-1 4 -1 4 0 0 Z " fill="#11A5E1" transform="translate(30,46)"/>
<path d="M0 0 C0.969375 0.165 1.93875 0.33 2.9375 0.5 C5.4290904 4.2373856 5.39543285 6.07331583 4.9375 10.5 C3.25 13.4375 3.25 13.4375 0.9375 15.5 C-1.6875 15.9375 -1.6875 15.9375 -4.0625 15.5 C-6.0625 13.5 -6.0625 13.5 -6.375 9.6875 C-6.2190333 4.65069292 -5.48933648 0.8962182 0 0 Z " fill="#D0F4FD" transform="translate(56.0625,48.5)"/>
<path d="M0 0 C1.98 0 3.96 0 6 0 C6.26442904 7.59498961 5.60881575 14.57359158 4 22 C2.02 22 0.04 22 -2 22 C-1.34 14.74 -0.68 7.48 0 0 Z " fill="#3CB0DC" transform="translate(145,45)"/>
<path d="M0 0 C1.65 0.33 3.3 0.66 5 1 C5.05425226 3.39614126 5.09379027 5.79103853 5.125 8.1875 C5.15013672 9.19780273 5.15013672 9.19780273 5.17578125 10.22851562 C5.21583177 14.33369345 4.67422545 17.27731047 3 21 C2.96154557 22.99963028 2.95455719 25.00051633 3 27 C2 28 2 28 -1.4375 28.25 C-2.613125 28.1675 -3.78875 28.085 -5 28 C-7 25 -7 25 -7 22 C-7.66 22 -8.32 22 -9 22 C-8.505 20.515 -8.505 20.515 -8 19 C-7.34 19 -6.68 19 -6 19 C-5.34 20.98 -4.68 22.96 -4 25 C-2.02 25.33 -0.04 25.66 2 26 C1.52449439 24.51965236 1.04448784 23.04074979 0.5625 21.5625 C0.29566406 20.73878906 0.02882812 19.91507813 -0.24609375 19.06640625 C-0.82155494 17.03780412 -0.82155494 17.03780412 -2 16 C-2.32893979 12.98300535 -2.23796544 11.40581606 -0.6875 8.76171875 C-0.130625 8.07722656 0.42625 7.39273438 1 6.6875 C1.556875 5.99011719 2.11375 5.29273438 2.6875 4.57421875 C3.120625 4.05472656 3.55375 3.53523438 4 3 C2.68 3 1.36 3 0 3 C-0.33 3.99 -0.66 4.98 -1 6 C-1.33 5.01 -1.66 4.02 -2 3 C-1.34 2.01 -0.68 1.02 0 0 Z " fill="#EAFBFC" transform="translate(195,42)"/>
<path d="M0 0 C1.9375 1.125 1.9375 1.125 3 3 C3.38976435 6.11811483 3.50422245 8.11019567 1.9375 10.875 C-1.14071911 12.66235303 -3.52906068 12.43386742 -7 12 C-9.42061048 9.89172636 -9.9127007 8.59654522 -10.375 5.4375 C-10 3 -10 3 -8.9375 1.1875 C-5.90624457 -0.67036623 -3.46577141 -0.37133265 0 0 Z " fill="#19AAE3" transform="translate(74,32)"/>
<path d="M0 0 C-0.14086602 2.60452271 -0.28748464 5.20850197 -0.4375 7.8125 C-0.49647461 8.91948242 -0.49647461 8.91948242 -0.55664062 10.04882812 C-0.74381035 13.23071342 -0.98720793 15.96162378 -2 19 C-2.66 19 -3.32 19 -4 19 C-4 18.34 -4 17.68 -4 17 C-4.99 16.67 -5.98 16.34 -7 16 C-9.52531449 12.54430649 -9.4367764 9.14937577 -9 5 C-6.42201077 0.51238912 -5.03452341 -0.27552118 0 0 Z " fill="#B5EEFC" transform="translate(108,48)"/>
<path d="M0 0 C-1.64 4.66769231 -1.64 4.66769231 -3.625 6.5 C-5.20955073 7.95305381 -5.20955073 7.95305381 -5.375 10.3125 C-4.91132387 13.63551225 -3.51867762 16.02592298 -2 19 C-2 20.32 -2 21.64 -2 23 C-3.98 23 -5.96 23 -8 23 C-11.92255125 13.52050114 -11.92255125 13.52050114 -11 9 C-5.57331137 0 -5.57331137 0 0 0 Z " fill="#3BB4DF" transform="translate(199,45)"/>
<path d="M0 0 C1.258125 -0.04125 2.51625 -0.0825 3.8125 -0.125 C4.52019531 -0.14820313 5.22789063 -0.17140625 5.95703125 -0.1953125 C8 0 8 0 11 2 C11.5 4.875 11.5 4.875 11 8 C8.9375 10.375 8.9375 10.375 6 12 C2.1875 12.25 2.1875 12.25 -1 12 C-1.14285714 3.42857143 -1.14285714 3.42857143 0 0 Z " fill="#E5FCFD" transform="translate(8,52)"/>
<path d="M0 0 C0.02715383 1.74991334 0.04646551 3.49994945 0.0625 5.25 C0.07410156 6.22453125 0.08570312 7.1990625 0.09765625 8.203125 C0.01195577 10.65758678 -0.29293934 12.66168914 -1 15 C-2.98 15 -4.96 15 -7 15 C-7 14.34 -7 13.68 -7 13 C-7.66 13 -8.32 13 -9 13 C-9.29915966 4.02521008 -9.29915966 4.02521008 -7 1 C-4 0 -4 0 0 0 Z " fill="#ECFCFC" transform="translate(84,49)"/>
<path d="M0 0 C0.33 0 0.66 0 1 0 C1 6.93 1 13.86 1 21 C5.29 21 9.58 21 14 21 C14 22.32 14 23.64 14 25 C1.40717489 25.76681614 1.40717489 25.76681614 -2.04296875 23.88671875 C-3.375 22.5 -3.375 22.5 -5 20 C-3.68 20 -2.36 20 -1 20 C-1.00523682 19.42967041 -1.01047363 18.85934082 -1.01586914 18.27172852 C-1.03658221 15.70199677 -1.0496419 13.13228253 -1.0625 10.5625 C-1.07087891 9.66466797 -1.07925781 8.76683594 -1.08789062 7.84179688 C-1.09111328 6.98779297 -1.09433594 6.13378906 -1.09765625 5.25390625 C-1.10289307 4.46314697 -1.10812988 3.6723877 -1.11352539 2.85766602 C-1 1 -1 1 0 0 Z " fill="#3BB3DF" transform="translate(126,43)"/>
<path d="M0 0 C0.66 0 1.32 0 2 0 C2 8.91 2 17.82 2 27 C0.02 27.33 -1.96 27.66 -4 28 C-4 25.69 -4 23.38 -4 21 C-3.34 21 -2.68 21 -2 21 C-2.01160156 20.31035156 -2.02320313 19.62070312 -2.03515625 18.91015625 C-2.09339241 12.84527604 -1.87183583 7.00598017 -1 1 C-0.67 0.67 -0.34 0.34 0 0 Z " fill="#05AAEA" transform="translate(181,38)"/>
<path d="M0 0 C1.65 0.33 3.3 0.66 5 1 C5.02697137 3.60423592 5.04682489 6.20819244 5.0625 8.8125 C5.07087891 9.55048828 5.07925781 10.28847656 5.08789062 11.04882812 C5.10259828 14.29922068 5.03531702 16.89404895 4 20 C2.35 20 0.7 20 -1 20 C-1.09765625 13.84765625 -1.09765625 13.84765625 -1 12 C-0.67 11.67 -0.34 11.34 0 11 C0.07226502 9.14712498 0.0838122 7.29166122 0.0625 5.4375 C0.05347656 4.42558594 0.04445312 3.41367187 0.03515625 2.37109375 C0.02355469 1.58863281 0.01195312 0.80617187 0 0 Z " fill="#12A6DF" transform="translate(168,47)"/>
<path d="M0 0 C1.98 0 3.96 0 6 0 C6.23652909 6.93818663 5.93250323 13.68398797 5.0625 20.5625 C4.97564941 21.25279297 4.88879883 21.94308594 4.79931641 22.65429688 C4.40957349 25.56764322 3.93207226 28.20378323 3 31 C1.02 31 -0.96 31 -3 31 C-2.34 25.06 -1.68 19.12 -1 13 C-0.67 13 -0.34 13 0 13 C0.02725341 14.7290774 0.04650987 16.45828176 0.0625 18.1875 C0.07410156 19.15042969 0.08570312 20.11335938 0.09765625 21.10546875 C0.00486622 23.85576513 -0.37888315 26.32479591 -1 29 C-0.01 29 0.98 29 2 29 C1.98839844 28.28972656 1.97679688 27.57945313 1.96484375 26.84765625 C1.95130859 25.46900391 1.95130859 25.46900391 1.9375 24.0625 C1.92589844 23.14597656 1.91429688 22.22945312 1.90234375 21.28515625 C2 19 2 19 3 18 C3.400383 15.14471393 3.7518227 12.30263513 4.0625 9.4375 C4.15337891 8.63119141 4.24425781 7.82488281 4.33789062 6.99414062 C4.56247449 4.99652623 4.78173236 2.9983144 5 1 C3.68 1 2.36 1 1 1 C1 3.64 1 6.28 1 9 C0.67 9 0.34 9 0 9 C0 6.03 0 3.06 0 0 Z " fill="#2DABD9" transform="translate(109,36)"/>
<path d="M0 0 C0.66 0 1.32 0 2 0 C4.79921583 4.19882375 3.86558093 6.12127113 3 11 C2 12 2 12 -1.5625 12.0625 C-2.696875 12.041875 -3.83125 12.02125 -5 12 C-5 14.64 -5 17.28 -5 20 C-5.33 20 -5.66 20 -6 20 C-6 17.03 -6 14.06 -6 11 C-5.34 11 -4.68 11 -4 11 C-4 8.03 -4 5.06 -4 2 C-2.68 2 -1.36 2 0 2 C0 1.34 0 0.68 0 0 Z " fill="#D7FAFE" transform="translate(150,33)"/>
<path d="M0 0 C2 3 2 3 1.625 6.1875 C1.41875 7.115625 1.2125 8.04375 1 9 C-2.375 9.625 -2.375 9.625 -6 10 C-8 8 -8 8 -8.125 4.375 C-8.08375 3.26125 -8.0425 2.1475 -8 1 C-5.21136993 -0.39431504 -3.07921132 -0.25660094 0 0 Z " fill="#27AAD4" transform="translate(92,23)"/>
<path d="M0 0 C6.625 -0.25 6.625 -0.25 10 2 C10.375 4.5 10.375 4.5 10 7 C6.3558226 9.4294516 4.28758728 9.16179575 0 9 C0 6.03 0 3.06 0 0 Z " fill="#D9FAFC" transform="translate(9,39)"/>
<path d="M0 0 C0.87454834 0.00523682 1.74909668 0.01047363 2.65014648 0.01586914 C3.59438477 0.0190918 4.53862305 0.02231445 5.51147461 0.02563477 C6.50469727 0.03401367 7.49791992 0.04239258 8.52124023 0.05102539 C9.51833008 0.05553711 10.51541992 0.06004883 11.54272461 0.06469727 C14.01478872 0.07652532 16.48673541 0.0930069 18.95874023 0.11352539 C18.95874023 1.10352539 18.95874023 2.09352539 18.95874023 3.11352539 C18.62874023 2.78352539 18.29874023 2.45352539 17.95874023 2.11352539 C15.09606456 2.04027371 12.25802124 2.02114334 9.39624023 2.05102539 C8.58993164 2.05553711 7.78362305 2.06004883 6.95288086 2.06469727 C4.95480267 2.07652021 2.9567624 2.09445625 0.95874023 2.11352539 C0.8259668 3.1615332 0.69319336 4.20954102 0.55639648 5.28930664 C0.37816789 6.66823317 0.19977382 8.04713832 0.02124023 9.42602539 C-0.06577148 10.11631836 -0.1527832 10.80661133 -0.24243164 11.51782227 C-0.63336112 14.51494827 -1.08276016 17.23802658 -2.04125977 20.11352539 C-2.70125977 20.11352539 -3.36125977 20.11352539 -4.04125977 20.11352539 C-3.90303778 16.96730857 -3.75440892 13.82166973 -3.60375977 10.67602539 C-3.56444336 9.77819336 -3.52512695 8.88036133 -3.48461914 7.95532227 C-3.44272461 7.10131836 -3.40083008 6.24731445 -3.35766602 5.36743164 C-3.3210083 4.57667236 -3.28435059 3.78591309 -3.24658203 2.97119141 C-2.95585558 0.34082571 -2.649235 0.14733815 0 0 Z " fill="#DCFDFF" transform="translate(154.041259765625,43.886474609375)"/>
<path d="M0 0 C2.5625718 -0.02710123 5.12485365 -0.04688771 7.6875 -0.0625 C8.40873047 -0.07087891 9.12996094 -0.07925781 9.87304688 -0.08789062 C13.71555382 -0.10543632 17.26639526 0.06475779 21 1 C20.67 1.66 20.34 2.32 20 3 C19.34 3 18.68 3 18 3 C15.44688083 7.78709845 15.59746664 12.71089889 16 18 C16.33 18.66 16.66 19.32 17 20 C16.01 20 15.02 20 14 20 C14 14.72 14 9.44 14 4 C12.35 4.33 10.7 4.66 9 5 C8.67 5.66 8.34 6.32 8 7 C7.34 7 6.68 7 6 7 C5.67 9.31 5.34 11.62 5 14 C4.67 14 4.34 14 4 14 C4.59701493 6.71641791 4.59701493 6.71641791 6.125 4 C9.04186663 2.4443378 11.76628217 2.81695937 15 3 C15 2.34 15 1.68 15 1 C10.05 1 5.1 1 0 1 C0 0.67 0 0.34 0 0 Z " fill="#A2E5F5" transform="translate(30,45)"/>
<path d="M0 0 C0.66 0 1.32 0 2 0 C1.34 9.24 0.68 18.48 0 28 C-0.66 28 -1.32 28 -2 28 C-2.33 28.99 -2.66 29.98 -3 31 C-3.94148531 28.17554408 -4.07311695 26.85828382 -3.87890625 23.98828125 C-3.83056641 23.23095703 -3.78222656 22.47363281 -3.73242188 21.69335938 C-3.67634766 20.90767578 -3.62027344 20.12199219 -3.5625 19.3125 C-3.48418945 18.11657227 -3.48418945 18.11657227 -3.40429688 16.89648438 C-3.27480978 14.93063478 -3.13809959 12.96526335 -3 11 C-2.67 12.32 -2.34 13.64 -2 15 C-1.34 15 -0.68 15 0 15 C0 10.05 0 5.1 0 0 Z " fill="#C4F6FD" transform="translate(177,36)"/>
<path d="M0 0 C1.670625 0.061875 1.670625 0.061875 3.375 0.125 C4.52316394 2.94322057 4.43152601 3.97869738 3.3125 6.875 C1.375 9.125 1.375 9.125 -1.8125 9.4375 C-2.740625 9.334375 -3.66875 9.23125 -4.625 9.125 C-5.25 5.75 -5.25 5.75 -5.625 2.125 C-3.625 0.125 -3.625 0.125 0 0 Z " fill="#DCFCFF" transform="translate(121.625,17.875)"/>
<path d="M0 0 C2.0625 0.4375 2.0625 0.4375 4 1 C3.6889315 3.06271639 3.37608484 5.12516466 3.0625 7.1875 C2.88847656 8.33605469 2.71445313 9.48460937 2.53515625 10.66796875 C2.08620687 13.46325212 1.57917838 16.22933586 1 19 C0.01 19 -0.98 19 -2 19 C-1.85982174 16.02046641 -1.71313658 13.04150696 -1.5625 10.0625 C-1.52318359 9.21236328 -1.48386719 8.36222656 -1.44335938 7.48632812 C-1.40146484 6.67744141 -1.35957031 5.86855469 -1.31640625 5.03515625 C-1.27974854 4.2862915 -1.24309082 3.53742676 -1.20532227 2.76586914 C-1 1 -1 1 0 0 Z " fill="#04ABE7" transform="translate(156,47)"/>
<path d="M0 0 C1.32 0.33 2.64 0.66 4 1 C3.01 1.495 3.01 1.495 2 2 C2.02320313 2.54785156 2.04640625 3.09570312 2.0703125 3.66015625 C2.25072345 11.58535134 1.16806244 19.17815332 0 27 C-0.99 26.67 -1.98 26.34 -3 26 C-2.69270217 22.41620061 -2.37825744 18.83306316 -2.0625 15.25 C-1.97548828 14.23421875 -1.88847656 13.2184375 -1.79882812 12.171875 C-1.71181641 11.1921875 -1.62480469 10.2125 -1.53515625 9.203125 C-1.456604 8.30239258 -1.37805176 7.40166016 -1.29711914 6.47363281 C-1.02860561 4.23815288 -0.60337582 2.16596449 0 0 Z " fill="#02ADED" transform="translate(5,38)"/>
<path d="M0 0 C0.90105469 0.01804688 1.80210938 0.03609375 2.73046875 0.0546875 C3.41753906 0.07789063 4.10460938 0.10109375 4.8125 0.125 C4.4825 1.115 4.1525 2.105 3.8125 3.125 C2.719375 3.2075 1.62625 3.29 0.5 3.375 C-3.22026664 3.76189209 -3.22026664 3.76189209 -5.125 6.1875 C-5.475625 6.826875 -5.82625 7.46625 -6.1875 8.125 C-6.5175 7.135 -6.8475 6.145 -7.1875 5.125 C-9.43578052 9.62156104 -9.35432272 13.20372966 -9.1875 18.125 C-9.8475 17.795 -10.5075 17.465 -11.1875 17.125 C-11.75239945 6.35006602 -11.75239945 6.35006602 -8.1875 2.125 C-4.87379 -0.08414 -3.8428979 -0.09981553 0 0 Z " fill="#2EAFD7" transform="translate(56.1875,45.875)"/>
<path d="M0 0 C0.66 0 1.32 0 2 0 C2 5.61 2 11.22 2 17 C0.68 17.33 -0.64 17.66 -2 18 C-2.20852314 11.59370576 -2.1583195 6.07027358 0 0 Z " fill="#03ACE7" transform="translate(147,47)"/>
<path d="M0 0 C1.18851563 0.00902344 2.37703125 0.01804688 3.6015625 0.02734375 C4.51679687 0.03894531 5.43203125 0.05054688 6.375 0.0625 C6.23424795 3.00032469 6.0876162 5.93765171 5.9375 8.875 C5.87852539 10.12506836 5.87852539 10.12506836 5.81835938 11.40039062 C5.77646484 12.20283203 5.73457031 13.00527344 5.69140625 13.83203125 C5.63641968 14.93961792 5.63641968 14.93961792 5.58032227 16.06958008 C5.375 18.0625 5.375 18.0625 4.375 21.0625 C3.055 20.7325 1.735 20.4025 0.375 20.0625 C1.035 20.0625 1.695 20.0625 2.375 20.0625 C3.035 13.7925 3.695 7.5225 4.375 1.0625 C2.725 1.7225 1.075 2.3825 -0.625 3.0625 C-2.9570802 3.13896165 -5.29345878 3.15393299 -7.625 3.0625 C-7.955 2.4025 -8.285 1.7425 -8.625 1.0625 C-5.74084117 -0.37957941 -3.20778472 -0.03144887 0 0 Z " fill="#29A7D8" transform="translate(84.625,45.9375)"/>
<path d="M0 0 C0.66 0 1.32 0 2 0 C2 2.64 2 5.28 2 8 C3.093125 7.835 4.18625 7.67 5.3125 7.5 C9 7 9 7 12 7 C12.99 8.485 12.99 8.485 14 10 C12.02 10 10.04 10 8 10 C7.67 10.66 7.34 11.32 7 12 C5.02 12 3.04 12 1 12 C0.67 13.32 0.34 14.64 0 16 C-1.30267176 10.49983036 -0.71033431 5.52967941 0 0 Z " fill="#38B6E5" transform="translate(7,40)"/>
<path d="M0 0 C5.61 0 11.22 0 17 0 C17 0.33 17 0.66 17 1 C11.72 1 6.44 1 1 1 C1.01160156 2.15757813 1.02320313 3.31515625 1.03515625 4.5078125 C1.04454077 6.04687338 1.05364026 7.58593601 1.0625 9.125 C1.07087891 9.88554688 1.07925781 10.64609375 1.08789062 11.4296875 C1.10646509 15.7389644 0.86117265 19.75516474 0 24 C-0.66 24 -1.32 24 -2 24 C-1.85739034 21.49977963 -1.71098536 18.9998729 -1.5625 16.5 C-1.52318359 15.80390625 -1.48386719 15.1078125 -1.44335938 14.390625 C-1.38051758 13.34648438 -1.38051758 13.34648438 -1.31640625 12.28125 C-1.27974854 11.65283203 -1.24309082 11.02441406 -1.20532227 10.37695312 C-0.9056408 6.90763239 -0.43191871 3.4553497 0 0 Z " fill="#34ACD7" transform="translate(3,36)"/>
<path d="M0 0 C0.66 0 1.32 0 2 0 C2.09765625 6.15234375 2.09765625 6.15234375 2 8 C1.67 8.33 1.34 8.66 1 9 C0.76712992 10.68183948 0.58735834 12.3712416 0.4375 14.0625 C0.31181641 15.44115234 0.31181641 15.44115234 0.18359375 16.84765625 C0.12300781 17.55792969 0.06242187 18.26820312 0 19 C-0.99 19 -1.98 19 -3 19 C-2.88608368 16.39491364 -2.75934452 13.79154454 -2.625 11.1875 C-2.5940625 10.44951172 -2.563125 9.71152344 -2.53125 8.95117188 C-2.32653852 5.18106885 -2.13566173 3.20349259 0 0 Z " fill="#04ACE9" transform="translate(111,46)"/>
<path d="M0 0 C2.5 0.125 2.5 0.125 3.5 1.125 C3.21269945 3.46444736 2.88063221 5.7989143 2.5 8.125 C0.125 8.25 0.125 8.25 -2.5 8.125 C-3.16 7.465 -3.82 6.805 -4.5 6.125 C-3.77607362 0.18880368 -3.77607362 0.18880368 0 0 Z " fill="#25ADE0" transform="translate(105.5,17.875)"/>
<path d="M0 0 C0.99 0 1.98 0 3 0 C2.48484207 9.34956835 1.94590721 18.68180768 1 28 C0.67 28 0.34 28 0 28 C0 18.76 0 9.52 0 0 Z " fill="#CCF9FE" transform="translate(0,36)"/>
<path d="M0 0 C0.99 0.66 1.98 1.32 3 2 C3.3125 5 3.3125 5 3 8 C1 10 1 10 -1.625 10.125 C-2.40875 10.08375 -3.1925 10.0425 -4 10 C-3.51171875 3.9453125 -3.51171875 3.9453125 -3 2 C-2.01 1.34 -1.02 0.68 0 0 Z " fill="#F2FDFA" transform="translate(56,54)"/>
<path d="M0 0 C0.33 0 0.66 0 1 0 C1 2.64 1 5.28 1 8 C1.66 8 2.32 8 3 8 C3.33 11.3 3.66 14.6 4 18 C3.34 18 2.68 18 2 18 C1.67 17.01 1.34 16.02 1 15 C0.67 17.31 0.34 19.62 0 22 C-0.66 22 -1.32 22 -2 22 C-1.85811015 19.45805839 -1.71160845 16.91652007 -1.5625 14.375 C-1.52318359 13.66214844 -1.48386719 12.94929688 -1.44335938 12.21484375 C-1.19690319 8.08196318 -0.76529947 4.07730976 0 0 Z " fill="#C5F3FC" transform="translate(91,46)"/>
<path d="M0 0 C0.33 0 0.66 0 1 0 C1 3.96 1 7.92 1 12 C5.455 11.505 5.455 11.505 10 11 C9 13 9 13 7.296875 13.62109375 C4.57835155 14.06955765 2.00442923 14.09529082 -0.75 14.0625 C-1.73484375 14.05347656 -2.7196875 14.04445313 -3.734375 14.03515625 C-4.48203125 14.02355469 -5.2296875 14.01195313 -6 14 C-5.67 12.02 -5.34 10.04 -5 8 C-4.34 8 -3.68 8 -3 8 C-3 9.32 -3 10.64 -3 12 C-2.34 12.33 -1.68 12.66 -1 13 C-0.67 8.71 -0.34 4.42 0 0 Z " fill="#25AFE2" transform="translate(6,52)"/>
<path d="M0 0 C-1.63295269 4.64763458 -1.63295269 4.64763458 -3.5625 6.5 C-5.48593335 8.50706089 -5.63468585 10.29667526 -6 13 C-6.33 12.34 -6.66 11.68 -7 11 C-8.32 11 -9.64 11 -11 11 C-9.79157171 8.25357207 -8.27300466 5.7498963 -6.625 3.25 C-6.22539062 2.63640625 -5.82578125 2.0228125 -5.4140625 1.390625 C-4 0 -4 0 0 0 Z " fill="#2CAADA" transform="translate(199,45)"/>
<path d="M0 0 C2.64 0 5.28 0 8 0 C9.45225428 4.84084759 9.20896463 10.12096416 8 15 C7.01 15.66 6.02 16.32 5 17 C5.33 11.72 5.66 6.44 6 1 C4.02 1 2.04 1 0 1 C0 0.67 0 0.34 0 0 Z " fill="#D4F9FD" transform="translate(179,35)"/>
<path d="M0 0 C0.33 0 0.66 0 1 0 C1.3690205 12.66970387 1.3690205 12.66970387 -1 18 C-1.99 18 -2.98 18 -4 18 C-3 9.42857143 -3 9.42857143 -2 6 C-1.34 6 -0.68 6 0 6 C0 4.02 0 2.04 0 0 Z " fill="#02ADE8" transform="translate(88,48)"/>
<path d="M0 0 C0.33 0.66 0.66 1.32 1 2 C0.01 3.485 0.01 3.485 -1 5 C-3.93597539 5.38384509 -6.68027373 5.603843 -9.625 5.6875 C-10.42679688 5.72166016 -11.22859375 5.75582031 -12.0546875 5.79101562 C-14.03596318 5.87356878 -16.01796037 5.93845916 -18 6 C-18.33 4.35 -18.66 2.7 -19 1 C-18.67 1.99 -18.34 2.98 -18 4 C-16.35 4 -14.7 4 -13 4 C-13 3.01 -13 2.02 -13 1 C-11.68 1 -10.36 1 -9 1 C-9 1.99 -9 2.98 -9 4 C-5.56769552 3.73606499 -5.56769552 3.73606499 -2 3 C-1.34 2.01 -0.68 1.02 0 0 Z " fill="#ACE7F7" transform="translate(185,63)"/>
<path d="M0 0 C1.32 0 2.64 0 4 0 C3.73958333 1.953125 3.47916667 3.90625 3.21875 5.859375 C2.93222643 8.30458395 2.93222643 8.30458395 3 12 C2.01 12 1.02 12 0 12 C-1.29449495 8.11651516 -1.13203312 5.09302664 -1 1 C-0.67 0.67 -0.34 0.34 0 0 Z " fill="#F9FEFA" transform="translate(102,51)"/>
<path d="M0 0 C1.12758089 3.38274266 0.81750262 4.76778223 0.0625 8.1875 C-0.13214844 9.08855469 -0.32679687 9.98960938 -0.52734375 10.91796875 C-0.68332031 11.60503906 -0.83929688 12.29210938 -1 13 C-0.34 13 0.32 13 1 13 C1 13.66 1 14.32 1 15 C-2 14 -2 14 -4 12 C-4.30943643 7.82260824 -4.43879349 4.5227017 -2 1 C-1.34 0.67 -0.68 0.34 0 0 Z " fill="#04A7E1" transform="translate(99,50)"/>
<path d="M0 0 C0.33 0 0.66 0 1 0 C1 5.28 1 10.56 1 16 C1.66 16 2.32 16 3 16 C3.33 14.02 3.66 12.04 4 10 C4.33 10 4.66 10 5 10 C5 12.64 5 15.28 5 18 C3.02 18 1.04 18 -1 18 C-0.505 9.09 -0.505 9.09 0 0 Z " fill="#44B5D7" transform="translate(29,50)"/>
<path d="M0 0 C4.875 0.875 4.875 0.875 6 2 C6.04080783 3.99958364 6.04254356 6.00045254 6 8 C1.25 9.125 1.25 9.125 -1 8 C-1 7.34 -1 6.68 -1 6 C0.32 6 1.64 6 3 6 C2.67 5.01 2.34 4.02 2 3 C1.01 3 0.02 3 -1 3 C-0.67 2.01 -0.34 1.02 0 0 Z " fill="#02ADF3" transform="translate(68,34)"/>
<path d="M0 0 C0.33 0 0.66 0 1 0 C1 2.97 1 5.94 1 9 C-4.61 9 -10.22 9 -16 9 C-16 8.67 -16 8.34 -16 8 C-14.02 8 -12.04 8 -10 8 C-10 7.01 -10 6.02 -10 5 C-9.01 5 -8.02 5 -7 5 C-6.67 4.01 -6.34 3.02 -6 2 C-6 3.98 -6 5.96 -6 8 C-4.02 8 -2.04 8 0 8 C0 5.36 0 2.72 0 0 Z " fill="#A7E8F9" transform="translate(159,59)"/>
<path d="M0 0 C0.66 0.33 1.32 0.66 2 1 C1.34 5.62 0.68 10.24 0 15 C-3 12 -3 12 -3.375 8.0625 C-3.25787287 4.52916477 -2.56417383 2.56417383 0 0 Z " fill="#06ABE8" transform="translate(74,49)"/>
<path d="M0 0 C0.66 0 1.32 0 2 0 C2 2.97 2 5.94 2 9 C0.54494642 9.52992692 -0.91418127 10.0486789 -2.375 10.5625 C-3.59316406 10.99755859 -3.59316406 10.99755859 -4.8359375 11.44140625 C-7 12 -7 12 -9 11 C-8.67 10.01 -8.34 9.02 -8 8 C-5.36 8 -2.72 8 0 8 C0 5.36 0 2.72 0 0 Z " fill="#B7EFFB" transform="translate(107,36)"/>
<path d="M0 0 C0.66 0 1.32 0 2 0 C2.66 1.98 3.32 3.96 4 6 C6.97 6.495 6.97 6.495 10 7 C9.67 4.69 9.34 2.38 9 0 C11 2 11 2 11.1875 5.0625 C11 8 11 8 10 9 C6.5625 9.25 6.5625 9.25 3 9 C1 6 1 6 1 3 C0.34 3 -0.32 3 -1 3 C-0.67 2.01 -0.34 1.02 0 0 Z " fill="#D3FCFE" transform="translate(187,61)"/>
<path d="M0 0 C0.33 0 0.66 0 1 0 C1.33 3.3 1.66 6.6 2 10 C2.66 10 3.32 10 4 10 C3.38722388 12.96175123 2.74627478 14.38058783 1 17 C-2.625 17.1875 -2.625 17.1875 -6 17 C-5.505 15.515 -5.505 15.515 -5 14 C-4.67 14.33 -4.34 14.66 -4 15 C-2.33382885 15.04063832 -0.66611905 15.042721 1 15 C0.67 14.34 0.34 13.68 0 13 C-0.07092842 10.7927077 -0.08415025 8.58332548 -0.0625 6.375 C-0.05347656 5.18648437 -0.04445312 3.99796875 -0.03515625 2.7734375 C-0.02355469 1.85820313 -0.01195312 0.94296875 0 0 Z " fill="#1EA9D8" transform="translate(182,50)"/>
<path d="M0 0 C0.99 0.33 1.98 0.66 3 1 C3 6.94 3 12.88 3 19 C2.01 19 1.02 19 0 19 C0 12.73 0 6.46 0 0 Z " fill="#04ACE7" transform="translate(168,47)"/>
<path d="M0 0 C1.5625 1 1.5625 1 3 3 C2.96726452 5.76614782 2.49404328 8.26030547 2 11 C1.34 10.360625 0.68 9.72125 0 9.0625 C-3.85690912 6.41087498 -6.37840033 6.31332879 -11 6 C-11 5.67 -11 5.34 -11 5 C-7.7 4.67 -4.4 4.34 -1 4 C-0.67 2.68 -0.34 1.36 0 0 Z " fill="#C3EDFC" transform="translate(64,40)"/>
<path d="M0 0 C0.33 0 0.66 0 1 0 C1.144375 1.0725 1.28875 2.145 1.4375 3.25 C1.86835708 6.73385712 1.86835708 6.73385712 2.59375 8.96875 C3.30476713 12.52383563 1.97479115 15.55956064 1 19 C0.34 19 -0.32 19 -1 19 C-0.67 12.73 -0.34 6.46 0 0 Z " fill="#D1F9FD" transform="translate(151,45)"/>
<path d="M0 0 C1.32 0 2.64 0 4 0 C4 1.98 4 3.96 4 6 C1.69 6.33 -0.62 6.66 -3 7 C-2.25 2.25 -2.25 2.25 0 0 Z " fill="#7ECFEA" transform="translate(132,21)"/>
<path d="M0 0 C1.67542976 0.28604898 3.34385343 0.61781233 5 1 C5 2.65 5 4.3 5 6 C3.34385343 6.38218767 1.67542976 6.71395102 0 7 C-1 6 -1 6 -1.125 3.5 C-1 1 -1 1 0 0 Z " fill="#31AEDB" transform="translate(118,18)"/>
<path d="M0 0 C1.65 0.33 3.3 0.66 5 1 C5.125 4.375 5.125 4.375 5 8 C4.34 8.66 3.68 9.32 3 10 C2.01 9.67 1.02 9.34 0 9 C1.32 7.02 2.64 5.04 4 3 C2.68 3 1.36 3 0 3 C-0.33 3.99 -0.66 4.98 -1 6 C-1.33 5.01 -1.66 4.02 -2 3 C-1.34 2.01 -0.68 1.02 0 0 Z " fill="#D9F9FD" transform="translate(195,42)"/>
<path d="M0 0 C0.33 0.66 0.66 1.32 1 2 C0.67 2.66 0.34 3.32 0 4 C4.95 4 9.9 4 15 4 C15 4.33 15 4.66 15 5 C14.10796875 5.06058594 13.2159375 5.12117188 12.296875 5.18359375 C10.54117188 5.30927734 10.54117188 5.30927734 8.75 5.4375 C7.58984375 5.51871094 6.4296875 5.59992187 5.234375 5.68359375 C2.69022624 5.93247787 0.44046752 6.28114942 -2 7 C-2 6.01 -2 5.02 -2 4 C-3.98 4 -5.96 4 -8 4 C-8 3.67 -8 3.34 -8 3 C-6.865625 2.690625 -5.73125 2.38125 -4.5625 2.0625 C-1.21224901 1.37075469 -1.21224901 1.37075469 0 0 Z " fill="#9AE1F4" transform="translate(76,41)"/>
<path d="M0 0 C0.33 0 0.66 0 1 0 C0.67 4.62 0.34 9.24 0 14 C-0.99 13.67 -1.98 13.34 -3 13 C-2.88490339 11.58249437 -2.75746342 10.16598831 -2.625 8.75 C-2.55539063 7.96109375 -2.48578125 7.1721875 -2.4140625 6.359375 C-1.98492887 3.914123 -1.21399362 2.15163097 0 0 Z " fill="#05A8E4" transform="translate(49,49)"/>
<path d="M0 0 C1.98 0 3.96 0 6 0 C5.67 1.32 5.34 2.64 5 4 C5 3.34 5 2.68 5 2 C4.01 2 3.02 2 2 2 C1.34 5.3 0.68 8.6 0 12 C-0.33 12 -0.66 12 -1 12 C-1.14285714 3.42857143 -1.14285714 3.42857143 0 0 Z " fill="#2EACD8" transform="translate(122,36)"/>
<path d="M0 0 C1.2065625 0.0309375 1.2065625 0.0309375 2.4375 0.0625 C2.4375 1.7125 2.4375 3.3625 2.4375 5.0625 C0.7875 5.3925 -0.8625 5.7225 -2.5625 6.0625 C-2.94468767 4.40635343 -3.27645102 2.73792976 -3.5625 1.0625 C-2.5625 0.0625 -2.5625 0.0625 0 0 Z " fill="#38B0D7" transform="translate(149.5625,35.9375)"/>
<path d="M0 0 C0.33 0 0.66 0 1 0 C1.66 1.98 2.32 3.96 3 6 C5.31 6 7.62 6 10 6 C10.33 5.34 10.66 4.68 11 4 C11 5.32 11 6.64 11 8 C7.95699684 9.52150158 5.345915 9.23899393 2 9 C-0.29013653 5.5647952 -0.17842973 4.014669 0 0 Z " fill="#C3F1FA" transform="translate(83,26)"/>
<path d="M0 0 C0.33 0 0.66 0 1 0 C1 1.98 1 3.96 1 6 C1.66 6 2.32 6 3 6 C3.33 6.66 3.66 7.32 4 8 C4.99 8.33 5.98 8.66 7 9 C7 9.66 7 10.32 7 11 C4.69 11 2.38 11 0 11 C0 7.37 0 3.74 0 0 Z " fill="#26A8D6" transform="translate(74,56)"/>
<path d="M0 0 C2.475 0.495 2.475 0.495 5 1 C5.33 1.99 5.66 2.98 6 4 C5.67 4.66 5.34 5.32 5 6 C3.35 6 1.7 6 0 6 C0 4.02 0 2.04 0 0 Z " fill="#04ABF2" transform="translate(86,25)"/>
<path d="M0 0 C0.33 0 0.66 0 1 0 C1.061875 1.2375 1.12375 2.475 1.1875 3.75 C1.60356929 7.30550124 1.84255104 7.84639125 4.5625 10.5 C5.366875 10.995 6.17125 11.49 7 12 C4.36 12 1.72 12 -1 12 C-1.33 11.01 -1.66 10.02 -2 9 C-1.34 9 -0.68 9 0 9 C0 6.03 0 3.06 0 0 Z " fill="#1CA7D9" transform="translate(49,54)"/>
<path d="M0 0 C1.32 0 2.64 0 4 0 C4.33 2.31 4.66 4.62 5 7 C3.68 6.67 2.36 6.34 1 6 C0.67 4.02 0.34 2.04 0 0 Z " fill="#06AAE7" transform="translate(188,56)"/>
<path d="M0 0 C0.33 0 0.66 0 1 0 C1.33 3.63 1.66 7.26 2 11 C3.32 11 4.64 11 6 11 C6.33 10.34 6.66 9.68 7 9 C7 9.99 7 10.98 7 12 C5.02 12 3.04 12 1 12 C1 11.34 1 10.68 1 10 C0.34 10 -0.32 10 -1 10 C-1.125 2.25 -1.125 2.25 0 0 Z " fill="#BEF4FE" transform="translate(76,52)"/>
<path d="M0 0 C1.99954746 -0.04254356 4.00041636 -0.04080783 6 0 C7 1 7 1 7.09765625 3.28515625 C7.08605469 4.20167969 7.07445312 5.11820313 7.0625 6.0625 C7.05347656 6.98160156 7.04445312 7.90070312 7.03515625 8.84765625 C7.02355469 9.55792969 7.01195312 10.26820312 7 11 C6.67 11 6.34 11 6 11 C6 8.03 6 5.06 6 2 C3.02934491 2.34227572 3.02934491 2.34227572 0 3 C-0.33 3.66 -0.66 4.32 -1 5 C-0.67 3.35 -0.34 1.7 0 0 Z " fill="#A2E6F6" transform="translate(161,48)"/>
<path d="M0 0 C0.66 0.33 1.32 0.66 2 1 C2.35789474 6.36842105 2.35789474 6.36842105 0.9375 8.875 C-2.00227124 10.58196395 -4.67870803 10.18799766 -8 10 C-8 9.67 -8 9.34 -8 9 C-4.535 8.505 -4.535 8.505 -1 8 C-0.67 5.36 -0.34 2.72 0 0 Z " fill="#33B0D8" transform="translate(75,34)"/>
<path d="M0 0 C0.33 0 0.66 0 1 0 C1 3.3 1 6.6 1 10 C-4.41538462 13.07692308 -4.41538462 13.07692308 -7.375 12.6875 C-7.91125 12.460625 -8.4475 12.23375 -9 12 C-6.69 11.34 -4.38 10.68 -2 10 C-1.34 6.7 -0.68 3.4 0 0 Z " fill="#ACE9F9" transform="translate(25,54)"/>
<path d="M0 0 C2.475 0.495 2.475 0.495 5 1 C5 3.64 5 6.28 5 9 C3.35 9.66 1.7 10.32 0 11 C0.66 10.01 1.32 9.02 2 8 C2.39013716 6.0103005 2.73202649 4.00980131 3 2 C2.01 1.67 1.02 1.34 0 1 C0 0.67 0 0.34 0 0 Z " fill="#2FB2E2" transform="translate(16,52)"/>
<path d="M0 0 C2.33294775 -0.04241723 4.66702567 -0.04092937 7 0 C7.33 0.33 7.66 0.66 8 1 C7.91062197 2.52519276 7.75462854 4.04681929 7.5625 5.5625 C7.46066406 6.38878906 7.35882813 7.21507812 7.25390625 8.06640625 C7.12822266 9.02353516 7.12822266 9.02353516 7 10 C6.67 10 6.34 10 6 10 C6 7.36 6 4.72 6 2 C4.02 2 2.04 2 0 2 C0 1.34 0 0.68 0 0 Z " fill="#CDF9FE" transform="translate(109,34)"/>
<path d="M0 0 C0.99 0 1.98 0 3 0 C3 2.31 3 4.62 3 7 C1.68 7 0.36 7 -1 7 C-1.04254356 5.00045254 -1.04080783 2.99958364 -1 1 C-0.67 0.67 -0.34 0.34 0 0 Z " fill="#07A6EA" transform="translate(122,56)"/>
<path d="M0 0 C6.6 0 13.2 0 20 0 C20.33 0.99 20.66 1.98 21 3 C20.42475586 2.84152588 19.84951172 2.68305176 19.25683594 2.51977539 C17.09060223 2.02086674 15.10677317 1.80111676 12.890625 1.68359375 C12.13652344 1.64169922 11.38242188 1.59980469 10.60546875 1.55664062 C9.43951172 1.49766602 9.43951172 1.49766602 8.25 1.4375 C7.06083984 1.37272461 7.06083984 1.37272461 5.84765625 1.30664062 C3.89862185 1.20097009 1.94933252 1.10002034 0 1 C0 0.67 0 0.34 0 0 Z " fill="#C4F7FD" transform="translate(3,35)"/>
<path d="M0 0 C2 3 2 3 3 5.125 C3.85860158 7.17044538 3.85860158 7.17044538 6 8 C6 8.66 6 9.32 6 10 C4.02 10 2.04 10 0 10 C0 9.34 0 8.68 0 8 C0.66 8 1.32 8 2 8 C2 7.34 2 6.68 2 6 C1.34 6 0.68 6 0 6 C0 4.02 0 2.04 0 0 Z " fill="#27AFD6" transform="translate(98,57)"/>
<path d="M0 0 C1.65 0 3.3 0 5 0 C5 2.64 5 5.28 5 8 C4.34 6.68 3.68 5.36 3 4 C1.35 4 -0.3 4 -2 4 C-1.34 2.68 -0.68 1.36 0 0 Z " fill="#A0E3F6" transform="translate(103,48)"/>
<path d="M0 0 C0.33 0 0.66 0 1 0 C1 2.97 1 5.94 1 9 C2.32 8.67 3.64 8.34 5 8 C5 8.99 5 9.98 5 11 C3.02 11 1.04 11 -1 11 C-0.67 7.37 -0.34 3.74 0 0 Z " fill="#27A5D4" transform="translate(144,56)"/>
<path d="M0 0 C2.31 0.33 4.62 0.66 7 1 C6.43628586 4.26954202 5.50037734 5.82575883 3 8 C3 6.02 3 4.04 3 2 C2.01 2 1.02 2 0 2 C0 1.34 0 0.68 0 0 Z " fill="#E4FCFE" transform="translate(67,44)"/>
<path d="M0 0 C0.33 0 0.66 0 1 0 C1.0825 0.94875 1.165 1.8975 1.25 2.875 C1.65074923 6.10461791 1.65074923 6.10461791 4.0625 7.375 C4.701875 7.58125 5.34125 7.7875 6 8 C0.25 8.125 0.25 8.125 -2 7 C-2 6.34 -2 5.68 -2 5 C-2.99 4.67 -3.98 4.34 -5 4 C-3.35 4 -1.7 4 0 4 C0 2.68 0 1.36 0 0 Z " fill="#5CC6EA" transform="translate(83,60)"/>
<path d="M0 0 C0.33 0 0.66 0 1 0 C1.33 1.98 1.66 3.96 2 6 C2.99 5.34 3.98 4.68 5 4 C5.33 5.65 5.66 7.3 6 9 C5.01 9.33 4.02 9.66 3 10 C3 9.34 3 8.68 3 8 C2.01 8.33 1.02 8.66 0 9 C0 6.03 0 3.06 0 0 Z " fill="#56C6E9" transform="translate(183,52)"/>
<path d="M0 0 C2.33294775 -0.04241723 4.66702567 -0.04092937 7 0 C8 1 8 1 8.0625 3.5625 C8.041875 4.366875 8.02125 5.17125 8 6 C7.62875 5.525625 7.2575 5.05125 6.875 4.5625 C4.37353038 2.47794198 2.18406582 2.35378509 -1 2 C-0.67 1.34 -0.34 0.68 0 0 Z " fill="#23ADDD" transform="translate(67,32)"/>
<path d="M0 0 C2.64 0 5.28 0 8 0 C8.33 1.65 8.66 3.3 9 5 C8.34 4.34 7.68 3.68 7 3 C3.41656024 2.83322718 3.41656024 2.83322718 0 3 C0 2.01 0 1.02 0 0 Z " fill="#C3F5FD" transform="translate(85,21)"/>
<path d="M0 0 C1.32 0 2.64 0 4 0 C3.34 1.65 2.68 3.3 2 5 C-1 5 -1 5 -3 4 C-1.75 2 -1.75 2 0 0 Z " fill="#50B2D7" transform="translate(195,45)"/>
<path d="M0 0 C1.32 0.33 2.64 0.66 4 1 C3.67 2.65 3.34 4.3 3 6 C2.01 6 1.02 6 0 6 C0 4.02 0 2.04 0 0 Z " fill="#04ACE8" transform="translate(20,39)"/>
<path d="M0 0 C4.95 0.99 4.95 0.99 10 2 C9.67 2.66 9.34 3.32 9 4 C6.69 4 4.38 4 2 4 C1.34 2.68 0.68 1.36 0 0 Z " fill="#BCF0FA" transform="translate(47,65)"/>
<path d="M0 0 C0.33 0 0.66 0 1 0 C1.18041261 3.96907752 1.07632075 6.58017758 -1 10 C-1.33 10.66 -1.66 11.32 -2 12 C-2.99 10.68 -3.98 9.36 -5 8 C-3.68 7.67 -2.36 7.34 -1 7 C-0.67 4.69 -0.34 2.38 0 0 Z " fill="#B2EFFB" transform="translate(25,40)"/>
<path d="M0 0 C0.625 1.875 0.625 1.875 1 4 C-1 6 -1 6 -4.625 6.125 C-5.73875 6.08375 -6.8525 6.0425 -8 6 C-7.67 4.68 -7.34 3.36 -7 2 C-7 2.99 -7 3.98 -7 5 C-5.35 5 -3.7 5 -2 5 C-2 4.01 -2 3.02 -2 2 C-1.34 2 -0.68 2 0 2 C0 1.34 0 0.68 0 0 Z " fill="#DAFEFF" transform="translate(17,42)"/>
<path d="M0 0 C1.98 0.99 1.98 0.99 4 2 C4 3.98 4 5.96 4 8 C3.34 8 2.68 8 2 8 C1.34 5.36 0.68 2.72 0 0 Z " fill="#01AEF0" transform="translate(20,52)"/>
<path d="M0 0 C0.66 0.66 1.32 1.32 2 2 C-0.95664519 3.4783226 -3.74229737 3.06032783 -7 3 C-7.33 2.34 -7.66 1.68 -8 1 C-5.23749964 -0.38125018 -3.05268901 -0.19079306 0 0 Z " fill="#13A6D4" transform="translate(84,46)"/>
<path d="M0 0 C1.98 0.495 1.98 0.495 4 1 C3.67 2.65 3.34 4.3 3 6 C1.68 6.33 0.36 6.66 -1 7 C-0.34 6.67 0.32 6.34 1 6 C0.67 4.02 0.34 2.04 0 0 Z " fill="#C2EFF9" transform="translate(122,18)"/>
<path d="M0 0 C0.99 0 1.98 0 3 0 C3.33 1.32 3.66 2.64 4 4 C2.02 4.33 0.04 4.66 -2 5 C-1.34 3.35 -0.68 1.7 0 0 Z " fill="#02AEEF" transform="translate(179,61)"/>
<path d="M0 0 C0.99 0 1.98 0 3 0 C3 1.65 3 3.3 3 5 C2.01 5.33 1.02 5.66 0 6 C0 4.02 0 2.04 0 0 Z " fill="#07A9EA" transform="translate(124,38)"/>
</svg>
