<svg id="logosandtypes_com" data-name="logosandtypes com" xmlns="http://www.w3.org/2000/svg" viewBox="0 0 150 150"><defs><style>.cls-1{fill:none;}.cls-2{fill:#680051;}.cls-3{fill:#003a5e;fill-rule:evenodd;}</style></defs><path class="cls-1" d="M0,.2H150v150H0Z" transform="translate(0 -0.2)"/><path id="path7198" class="cls-2" d="M59.76,101.37H77.64V92H59.76Zm-44.73,0H42V92H15ZM59.76,55H77.64V45.68H59.76ZM15,55H42V45.68H15ZM64.17,41.39h9.34V10.82H64.17Zm0,46.33h9.34V59.32H64.17Zm0,51.91h9.34v-34H64.17Zm17.92-26.5h9.35V81.32H82.09Zm0-49.67h9.35V37.29H82.09Zm0,76.17h9.35v-8.22H82.09Zm0-120.23h9.35V10.82H82.09ZM46.26,113.13H55.6V81.32H46.26Zm0-93.73H55.6V10.82H46.26Zm0,120.23H55.6v-8.22H46.26Zm0-76.17H55.6V37.29H46.26Z" transform="translate(0 -0.2)"/><path id="path7206" class="cls-3" d="M28.15,23.7V41.36h9.53v-8.3H59.77V23.7H28.15m9.53,35.63H28.15V87.72h9.53V77.11H59.77V67.78H37.68V59.33m0,46.31H28.15v21.12H59.77v-9.34H37.68V105.64m82.18-34C127,66.66,131.28,60,131.28,51a26.89,26.89,0,0,0-12.13-22.18C112,24.26,104,23.7,95.73,23.7H77.64v9.36H93.91c6.13-.28,13.53-.15,18.83,3.06,4.74,2.94,8.23,8.64,8.23,14.22s-3.35,11.72-8.37,14.37c-5.86,3.21-13,3.07-19.53,3.07H77.64v9.33H92.8c6.83,0,14.36-.13,20.77,2.1a18.76,18.76,0,0,1,12.84,18.55c.13,6.54-4.2,13.52-10,16.59-6.27,3.21-14.78,3.21-21.75,3.07h-17v9.34H95.86c10.32-.14,19.24.14,28.31-5.57a28.12,28.12,0,0,0,12.7-23.57c0-11.86-6.14-21.47-17-25.94" transform="translate(0 -0.2)"/><div xmlns="" id="divScriptsUsed" style="display: none"/><script xmlns="" id="globalVarsDetection" src="moz-extension://988954a5-4571-47b7-8811-234b4eee0106/js/wrs_env.js"/></svg>