<?xml version="1.0" encoding="utf-8"?>
<!-- Generator: Adobe Illustrator 26.0.3, SVG Export Plug-In . SVG Version: 6.00 Build 0)  -->
<svg version="1.0" id="katman_1" xmlns="http://www.w3.org/2000/svg" xmlns:xlink="http://www.w3.org/1999/xlink" x="0px" y="0px"
	 viewBox="0 0 600 450" style="enable-background:new 0 0 600 450;" xml:space="preserve">
<style type="text/css">
	.st0{fill:#CC1517;}
</style>
<path class="st0" d="M272.6,271.4l-16.4-60.7c-2.9-9.6-12-16.9-22.7-16.9c-2.9,0-5.3,0.5-8.2,1.4l-36.1,12.5h37.1l6.3,23.1
	c-6.3-5.3-14-8.2-22.7-8.2c-17.3,0-31.3,11.1-31.3,25.1c0,14,14,25.5,31.3,25.5c12.5,0,23.6-5.8,30.4-14.9l3.9,13.5h28.4V271.4z
	 M221.5,262.2c-7.7,0-14.5-6.3-14.5-14c0-7.7,6.7-14,14.5-14c8.2,0,14.5,6.3,14.5,14C236.4,256,229.7,262.2,221.5,262.2 M341,193.8
	c-2.4,0-4.3,0.5-6.3,1.4l-23.1,10.6c-1-6.7-7.2-11.6-14.5-11.6c-1.9,0-4.3,0.5-6.3,1.4l-28.4,13h19.8v63.6h28.9V215
	c0-3.9,3.4-7.2,7.2-7.2c3.9,0,7.2,3.4,7.2,7.2v56.4h28.9v-63.1C355.5,200.1,348.7,193.8,341,193.8 M522.7,193.8
	c-1.9,0-4.3,0.5-6.3,1.4l-23.1,10.6c-1-6.7-7.2-11.6-14.5-11.6c-2.4,0-4.3,0.5-6.3,1.4l-28,13h19.8v63.6h28.9V215
	c0-3.9,3.4-7.2,7.2-7.2s7.2,3.4,7.2,7.2v56.4h28.9v-63.1C537.2,200.1,530.9,193.8,522.7,193.8"/>
<path class="st0" d="M449.5,233.8c0,22.2-18.3,40-41,40c-22.7,0-41-17.8-41-40s18.3-40,41-40C431.2,193.8,449.5,211.6,449.5,233.8
	 M410.4,205.9c-1.4-4.8-6.3-7.7-11.1-6.3s-7.7,6.3-6.3,10.6l14,51.1c1.4,4.8,6.3,7.2,11.1,6.3c4.8-1.4,7.7-6.3,6.3-10.6
	C424.4,256.9,410.4,205.9,410.4,205.9z M141,264.6c-22.2,0-40-17.3-40-39c0-21.2,17.8-39,40-39c7.7,0,14.9,2.4,21.2,5.8L141,225.1
	l40-22.2c-4.3-6.7-10.6-12.5-18.3-16.9c-9.6-5.8-22.7-9.2-37.6-9.2c-20.7,0-39,7.2-49.6,18.3c-7.7,8.2-12,18.3-12,29.9
	c0,11.1,4.3,21.7,12,29.9c10.1,11.1,28.4,18.3,48.7,18.3c20.7,0,38.6-7.2,49.2-18.3c0.5-0.5,1-1.4,1.4-1.9l-1.4-5.3
	C166.1,257.9,154.5,264.6,141,264.6"/>
</svg>
