<?xml version="1.0" encoding="UTF-8"?>
<svg version="1.1" xmlns="http://www.w3.org/2000/svg" width="2048" height="1536">
<path d="M0 0 C675.84 0 1351.68 0 2048 0 C2048 506.88 2048 1013.76 2048 1536 C1372.16 1536 696.32 1536 0 1536 C0 1029.12 0 522.24 0 0 Z " fill="#FEFEFE" transform="translate(0,0)"/>
<path d="M0 0 C1.06105957 0.36085693 1.06105957 0.36085693 2.14355469 0.72900391 C27.58177001 9.55366167 49.0217254 26.59983995 60.97265625 50.921875 C71.0976007 72.50593627 73.53892951 95.38781845 73.44604492 118.95947266 C73.43754482 122.23273971 73.46640973 125.5042478 73.49804688 128.77734375 C73.60480503 160.46578064 66.96076295 192.98271075 45 217 C44.22914063 217.86367188 43.45828125 218.72734375 42.6640625 219.6171875 C36.52894808 226.1493967 29.81665404 230.67465545 22 235 C20.75089844 235.70769531 20.75089844 235.70769531 19.4765625 236.4296875 C1.28144742 246.16195836 -19.24356174 249.33954556 -39.625 249.5 C-40.84243896 249.51844971 -42.05987793 249.53689941 -43.31420898 249.5559082 C-56.96305434 249.4670451 -69.1289854 247.05496513 -83 245 C-83.33 276.35 -83.66 307.7 -84 340 C-94.23 341.65 -104.46 343.3 -115 345 C-123.26601959 346.56973182 -123.26601959 346.56973182 -131.51953125 348.203125 C-136.30822493 349.05481943 -141.16029514 349.51602951 -146 350 C-146 241.43 -146 132.86 -146 21 C-127.75949008 11.87974504 -110.46645691 4.39103486 -90.68554688 -0.35058594 C-88.98424234 -0.76199231 -87.28686356 -1.19030489 -85.59570312 -1.64160156 C-59.79514984 -8.46479902 -25.2621722 -8.95212898 0 0 Z " fill="#1A8DCA" transform="translate(1208,628)"/>
<path d="M0 0 C0.64114746 0.16097168 1.28229492 0.32194336 1.94287109 0.48779297 C25.68936914 6.50388069 44.11679553 21.16213443 57.1875 41.8125 C62.4353568 50.98167203 66.27246149 60.81280799 69 71 C69.25523437 71.88171875 69.51046875 72.7634375 69.7734375 73.671875 C76.97602903 98.91660177 75 123.22020564 75 150 C23.85 150 -27.3 150 -80 150 C-77.01324705 167.92051769 -74.53011378 181.76199341 -60.1875 193.3125 C-37.07478666 209.12177406 -5.88399885 207.11318057 20.49121094 202.67333984 C29.28884923 200.98506498 38.00144601 198.86165133 46.69165039 196.69335938 C47.40404877 196.51697433 48.11644714 196.34058929 48.85043335 196.15885925 C50.79915232 195.67408848 52.74572311 195.18070562 54.69213867 194.68676758 C57.59216872 194.08467262 60.05563665 193.85290412 63 194 C65.80518156 203.0755874 68.08243027 212.25470408 70.25 221.5 C70.52021973 222.63356934 70.79043945 223.76713867 71.06884766 224.93505859 C71.31940918 226.01867676 71.5699707 227.10229492 71.828125 228.21875 C72.0540332 229.18748047 72.27994141 230.15621094 72.51269531 231.15429688 C73.02650771 234.15479655 73.08433404 236.96172548 73 240 C60.77579442 245.89381341 48.13346723 249.14927506 34.875 251.75 C33.81547119 251.96068115 32.75594238 252.1713623 31.66430664 252.38842773 C17.88592707 254.9769773 4.0729786 255.21011079 -9.90185547 255.24023438 C-12.60025214 255.24991125 -15.2978753 255.28103963 -17.99609375 255.3125 C-33.60702558 255.40802889 -49.29318255 254.07057928 -64.25 249.3125 C-65.06662109 249.05903809 -65.88324219 248.80557617 -66.72460938 248.54443359 C-92.60299751 240.15157892 -116.16989642 222.52339865 -128.95019531 198.19091797 C-134.02645253 187.9453831 -137.52913566 177.15196591 -140 166 C-140.18763916 165.15816162 -140.37527832 164.31632324 -140.56860352 163.44897461 C-142.40727086 154.02324737 -142.35405144 144.62638817 -142.3125 135.0625 C-142.31067719 134.19661255 -142.30885437 133.3307251 -142.30697632 132.43859863 C-142.2608258 119.4304663 -141.838742 106.74413962 -139 94 C-138.82307617 93.19272461 -138.64615234 92.38544922 -138.46386719 91.55371094 C-133.42758694 69.29491794 -124.48142134 47.04459398 -109 30 C-108.01980444 28.77165366 -107.04052997 27.54257131 -106.0625 26.3125 C-81.0722873 -2.27684659 -35.12256991 -9.56480129 0 0 Z " fill="#1CA3DA" transform="translate(1440,624)"/>
<path d="M0 0 C1.73510938 -0.01146192 3.47018513 -0.03182086 5.20507812 -0.06152344 C22.65197504 -0.35849896 39.13913859 2.00005078 55.12402344 9.29516602 C56.0534375 9.71282227 56.98285156 10.13047852 57.94042969 10.56079102 C72.52085573 17.77841301 82.10735626 29.40702038 87.94824219 44.40063477 C91.49193827 55.32807102 92.63485622 66.22080077 92.80761719 77.64672852 C92.84097086 79.24688144 92.87454623 80.84702975 92.90830994 82.44717407 C93.42970144 110.08533116 93.23517453 137.74377398 93.19605291 165.38568711 C93.18465384 173.57496573 93.17932125 181.76424543 93.17434704 189.95353007 C93.16402617 206.73408467 93.14655558 223.51462326 93.12402344 240.29516602 C89.7315761 241.47117281 86.45240365 242.53260311 82.90820312 243.1171875 C81.74205727 243.31279015 81.74205727 243.31279015 80.55235291 243.51234436 C79.31165794 243.71228249 79.31165794 243.71228249 78.04589844 243.91625977 C77.16982437 244.06087143 76.29375031 244.20548309 75.39112854 244.35447693 C72.55308046 244.82019144 69.71374767 245.27729063 66.87402344 245.73266602 C65.90749847 245.88890442 64.94097351 246.04514282 63.94515991 246.20611572 C37.75553409 250.42908318 11.68088373 253.51797049 -14.87597656 253.60766602 C-15.6306723 253.61028442 -16.38536804 253.61290283 -17.16293335 253.61560059 C-30.71458248 253.6205935 -43.63890305 252.3313164 -56.87597656 249.29516602 C-57.56868652 249.14563477 -58.26139648 248.99610352 -58.97509766 248.84204102 C-76.21619328 245.03905235 -91.25423293 236.50805979 -102.05957031 222.45532227 C-112.99569191 205.31030582 -115.20267278 182.97165869 -110.95410156 163.29125977 C-107.62919112 150.82497514 -100.77968466 141.38340692 -91.87597656 132.29516602 C-91.28429687 131.66739258 -90.69261719 131.03961914 -90.08300781 130.39282227 C-78.39076021 119.01030308 -60.23974327 113.67452965 -44.68847656 110.60766602 C-43.14643555 110.28958984 -43.14643555 110.28958984 -41.57324219 109.96508789 C-31.00637884 107.82196845 -21.08881941 107.15505754 -10.31347656 107.19750977 C-8.91243541 107.19937806 -7.5113936 107.20080002 -6.11035156 107.20179749 C-2.44763338 107.20559026 1.21504426 107.21539236 4.87774658 107.22650146 C8.62519788 107.23678575 12.37265581 107.24131005 16.12011719 107.24633789 C23.45477095 107.25701797 30.78939149 107.27405482 38.12402344 107.29516602 C37.9910826 103.94455509 37.8475201 100.59447756 37.70214844 97.24438477 C37.66492676 96.30300659 37.62770508 95.36162842 37.58935547 94.39172363 C37.07201409 82.7540785 35.42422791 70.29387141 27.32714844 61.29907227 C14.35502958 49.9606601 -4.85198518 49.33956581 -21.22851562 50.0168457 C-40.12184333 51.45850525 -59.32886785 55.40158636 -77.57128906 60.41235352 C-80.87597656 61.29516602 -80.87597656 61.29516602 -82.87597656 61.29516602 C-84.55474213 56.47762218 -86.22684156 51.65783314 -87.89306641 46.8359375 C-88.4596426 45.19925141 -89.02796858 43.56316989 -89.59814453 41.92773438 C-90.42204195 39.56353838 -91.23941557 37.19716839 -92.05566406 34.83032227 C-92.30782684 34.11119156 -92.55998962 33.39206085 -92.8197937 32.65113831 C-94.55271242 27.59851836 -95.81475535 22.52895744 -96.87597656 17.29516602 C-86.03593831 13.75975782 -75.17084822 10.7398088 -64.06347656 8.17016602 C-63.32539764 7.99774384 -62.58731873 7.82532166 -61.82687378 7.64767456 C-50.59003317 5.02917976 -39.35380096 2.59385104 -27.87597656 1.29516602 C-26.75908447 1.15921021 -26.75908447 1.15921021 -25.61962891 1.02050781 C-17.09855728 0.10324629 -8.5616037 0.0391196 0 0 Z " fill="#136DB1" transform="translate(728.8759765625,621.704833984375)"/>
<path d="M0 0 C-0.43164033 8.92056673 -2.82076847 16.97371471 -5.28857422 25.49462891 C-6.52662899 29.85458705 -7.66804437 34.23971434 -8.8125 38.625 C-9.14072754 39.8788147 -9.14072754 39.8788147 -9.47558594 41.15795898 C-9.98484985 43.10501185 -10.49260315 45.05245975 -11 47 C-16.35077258 46.5387265 -21.46470849 45.73410934 -26.7109375 44.57421875 C-64.15266218 36.32901967 -111.06732849 31.84823466 -145.06640625 52.9765625 C-164.78637628 66.57835275 -178.42127557 86.64295185 -182.87109375 110.46875 C-183.65928853 114.96825821 -184.36369048 119.47663534 -185 124 C-185.09788818 124.67337402 -185.19577637 125.34674805 -185.29663086 126.04052734 C-189.51183815 156.82169314 -183.87567804 191.19432648 -165.4375 216.5625 C-148.50402781 237.89465002 -124.36482424 248.22270747 -97.71875 251.4609375 C-71.29659496 254.21779459 -44.54709816 250.5733133 -19.22265625 242.84765625 C-16.29955795 242.07879282 -13.9977216 241.8183199 -11 242 C-7.84907951 251.91194085 -4.81103891 261.85802018 -1.80880737 271.81585693 C-1.39417183 273.19004616 -0.97858128 274.56394759 -0.56204224 275.93756104 C0.03040325 277.89245166 0.61919475 279.84840675 1.20703125 281.8046875 C1.5522583 282.94921387 1.89748535 284.09374023 2.25317383 285.27294922 C3 288 3 288 3 290 C-4.32266316 291.77762176 -11.64881557 293.53997939 -18.97998047 295.28222656 C-20.7216828 295.69618007 -22.46307931 296.11143455 -24.20361328 296.53027344 C-45.58265762 301.64454442 -67.46089537 303.2350027 -89.375 303.25 C-90.26295258 303.25067474 -91.15090515 303.25134949 -92.06576538 303.25204468 C-134.99937453 303.20028188 -174.95979467 291.71493372 -206 261 C-208.4816708 258.43528116 -210.7680231 255.78352778 -213 253 C-213.67160156 252.20078125 -214.34320313 251.4015625 -215.03515625 250.578125 C-229.34715403 232.70705899 -237.63150677 211.02767401 -243 189 C-243.27714844 187.93394531 -243.55429687 186.86789062 -243.83984375 185.76953125 C-254.52498318 142.97581364 -247.85828976 91.32957079 -225.125 53.375 C-216.28934848 39.3419064 -205.33224843 26.88997721 -192 17 C-191.1968335 16.40106934 -191.1968335 16.40106934 -190.37744141 15.79003906 C-170.36435964 1.07740908 -146.38821107 -7.11537988 -122 -11 C-120.75734375 -11.20496094 -119.5146875 -11.40992188 -118.234375 -11.62109375 C-79.23678993 -17.32307813 -37.43870562 -11.29269211 0 0 Z " fill="#0E59A3" transform="translate(598,574)"/>
<path d="M0 0 C0.72703125 0.13390137 1.4540625 0.26780273 2.203125 0.40576172 C16.06287477 3.05258893 32.22404773 7.05865404 44 15 C41.48946693 30.18274758 37.68839519 45.07085346 34 60 C29.02977301 58.3818364 24.10555714 56.69541064 19.23193359 54.80566406 C2.1779492 48.20272225 -13.92048783 44.8767816 -32.1875 44.625 C-33.8267041 44.58584473 -33.8267041 44.58584473 -35.49902344 44.54589844 C-45.55755027 44.5246202 -54.5237937 46.90172392 -62.40625 53.37890625 C-66.28683302 57.3260679 -67.17060158 61.66203168 -67.4375 67 C-67.24303044 71.76090289 -66.26043133 75.43627273 -63 79 C-53.37274127 87.26979739 -41.36790883 91.3946015 -29.5625 95.5625 C-28.52029297 95.93568359 -27.47808594 96.30886719 -26.40429688 96.69335938 C-21.18608537 98.55354017 -15.95446424 100.34907018 -10.6875 102.06640625 C6.20194053 107.66397833 24.9807205 116.645245 37 130 C37.54011719 130.57105469 38.08023438 131.14210938 38.63671875 131.73046875 C46.71528662 140.50999695 50.96165428 149.50103003 54 161 C54.176521 161.61182129 54.35304199 162.22364258 54.53491211 162.85400391 C57.06074975 174.50865631 56.17521743 189.89962273 52 201 C51.64808594 201.99773437 51.29617188 202.99546875 50.93359375 204.0234375 C44.22770067 221.5959758 31.23127346 233.95880908 14.32421875 241.76171875 C-5.15770547 250.18703185 -25.54376447 252.3999767 -46.5625 252.3125 C-47.44706879 252.31100952 -48.33163757 252.30951904 -49.24301147 252.3079834 C-62.39958322 252.26811725 -75.08100069 251.64188179 -88 249 C-89.61162591 248.70509416 -91.22361425 248.4121629 -92.8359375 248.12109375 C-118.5798632 243.2800912 -118.5798632 243.2800912 -128 237 C-127.30756326 226.51490474 -125.87614912 216.15192367 -124.4375 205.75 C-124.20088491 204.02217469 -123.96455471 202.29431034 -123.72851562 200.56640625 C-123.15562312 196.37714741 -122.57889183 192.18843386 -122 188 C-115.91503011 189.04068902 -110.65852783 190.4569145 -105 193 C-78.09081204 202.040555 -39.93318795 209.15006414 -13.05078125 197.05078125 C-7.57342828 194.24428992 -4.95208548 191.14955644 -2.6640625 185.50390625 C-1.16756464 179.86122901 -2.04695686 174.90608629 -4.625 169.75 C-17.34130313 155.02585954 -39.2972188 150.43476201 -57.20703125 144.62890625 C-80.99607057 136.901902 -105.24784902 127.02345232 -118.34375 104.3203125 C-126.17699676 88.61686971 -128.34707445 68.11131151 -122.9375 51.25 C-116.3656925 32.54909731 -102.41178625 17.29176787 -85 8 C-57.90898494 -4.55676054 -29.03412768 -5.46769741 0 0 Z " fill="#167CBD" transform="translate(981,625)"/>
<path d="M0 0 C2.57543796 0.01067036 5.15016968 0.00006885 7.72558594 -0.01269531 C22.68540023 -0.02644859 37.3280023 1.21340013 51.96777344 4.38574219 C52.84046875 4.5675 53.71316406 4.74925781 54.61230469 4.93652344 C56.6906983 5.37047375 58.76700838 5.8143877 60.84277344 6.26074219 C60.39415808 16.3433724 58.08453824 25.96325531 55.84277344 35.76074219 C55.46977266 37.41946043 55.09737239 39.07831384 54.72558594 40.73730469 C54.3693451 42.31815338 54.01259308 43.89888699 53.65527344 45.47949219 C53.4052356 46.58568909 53.4052356 46.58568909 53.15014648 47.7142334 C52.48588706 50.61503759 51.78454491 53.43542778 50.84277344 56.26074219 C46.04906117 55.7907704 41.5986183 54.96004725 36.93652344 53.74121094 C29.74474229 52.06439172 22.89152621 51.80150164 15.53027344 51.88574219 C14.26006348 51.89444336 12.98985352 51.90314453 11.68115234 51.91210938 C-0.95533227 52.10922626 -12.23715319 53.67320836 -24.02050781 58.49121094 C-26.15722656 59.26074219 -26.15722656 59.26074219 -29.15722656 59.26074219 C-29.15722656 121.63074219 -29.15722656 184.00074219 -29.15722656 248.26074219 C-49.28722656 248.26074219 -69.41722656 248.26074219 -90.15722656 248.26074219 C-90.38287047 219.28875868 -90.56711741 190.31748539 -90.67534828 161.34484673 C-90.68554689 158.66804805 -90.69596009 155.9912503 -90.70654297 153.31445312 C-90.70916607 152.64911989 -90.71178918 151.98378666 -90.71449177 151.29829182 C-90.75800375 140.52559543 -90.83684766 129.75343276 -90.92875452 118.98105298 C-91.02227558 107.92726957 -91.07706662 96.87378079 -91.09811151 85.81962216 C-91.11116082 79.61048657 -91.14187293 73.40256134 -91.21452713 67.19381332 C-91.28234532 61.35106099 -91.30335499 55.51001871 -91.28830338 49.66691017 C-91.29105725 47.52140957 -91.31098762 45.37585251 -91.34928131 43.23069191 C-91.62492998 26.99443084 -91.62492998 26.99443084 -87.9947319 22.70634842 C-85.39246677 21.10885688 -83.06563644 20.15485044 -80.15722656 19.26074219 C-78.81438471 18.56852345 -77.48253664 17.85365699 -76.17285156 17.10058594 C-61.69537317 9.68515385 -47.16078068 5.04667792 -31.15722656 2.26074219 C-30.16174805 2.07979004 -29.16626953 1.89883789 -28.140625 1.71240234 C-18.73442836 0.16668642 -9.51406844 -0.04669041 0 0 Z " fill="#22B4E7" transform="translate(1639.1572265625,622.7392578125)"/>
<path d="M0 0 C15.63027809 12.95227328 22.30002522 33.10865391 24.47924805 52.75415039 C26.77689823 78.05069116 26.86592476 107.5213619 10.875 128.78515625 C1.38705446 139.99279191 -11.59910521 145.47813888 -26 147 C-31.6324996 147.30052814 -37.26980361 147.28852522 -42.90869141 147.26074219 C-45.49535559 147.25001925 -48.08132552 147.260693 -50.66796875 147.2734375 C-52.351564 147.27211562 -54.03515882 147.26955264 -55.71875 147.265625 C-56.84899597 147.27169769 -56.84899597 147.27169769 -58.0020752 147.27789307 C-64.65671112 147.22128942 -70.19796425 146.13367262 -77 145 C-77 97.81 -77 50.62 -77 2 C-52.39102859 -10.30448571 -24.19816627 -18.05773009 0 0 Z " fill="#FEFEFE" transform="translate(1201,682)"/>
<path d="M0 0 C2.83427959 0.03159622 5.66800173 0.0410318 8.50244141 0.046875 C10.32406276 0.05603159 12.1456785 0.06640303 13.96728516 0.078125 C14.8048233 0.08237488 15.64236145 0.08662476 16.50527954 0.09100342 C17.29405487 0.10061096 18.0828302 0.11021851 18.89550781 0.12011719 C19.92232162 0.13035919 19.92232162 0.13035919 20.96987915 0.14080811 C23.72670636 0.31613139 26.45341151 0.82711481 29.17822266 1.28125 C29.17822266 24.38125 29.17822266 47.48125 29.17822266 71.28125 C3.49594739 76.98842228 -27.5935182 82.20677457 -51.56005859 67.76953125 C-52.30642578 67.27839844 -53.05279297 66.78726563 -53.82177734 66.28125 C-54.41345703 65.90355469 -55.00513672 65.52585937 -55.61474609 65.13671875 C-62.07390533 60.43763889 -66.41903054 51.99635742 -67.82177734 44.28125 C-68.90124345 35.76358775 -66.78257577 26.85888997 -62.12646484 19.66015625 C-47.01755977 1.52335319 -21.92193774 -0.24653031 0 0 Z " fill="#FDFDFE" transform="translate(736.82177734375,760.71875)"/>
<path d="M0 0 C1.46997411 1.04633574 2.92898032 2.10830149 4.375 3.1875 C4.99375 3.62835937 5.6125 4.06921875 6.25 4.5234375 C18.77038397 14.19319833 24.90727428 32.06406362 27.375 47.1875 C27.375 51.1475 27.375 55.1075 27.375 59.1875 C-5.295 59.1875 -37.965 59.1875 -71.625 59.1875 C-71.625 37.89128319 -65.72804456 20.68760651 -50.69140625 5.1953125 C-36.82937517 -7.80208485 -16.08464148 -10.24790703 0 0 Z " fill="#FCFDFE" transform="translate(1432.625,672.8125)"/>
<path d="M0 0 C0.33 0 0.66 0 1 0 C1 2.31 1 4.62 1 7 C-50.15 7 -101.3 7 -154 7 C-154 6.67 -154 6.34 -154 6 C-127.6 5.34 -101.2 4.68 -74 4 C-100.4 3.67 -126.8 3.34 -154 3 C-154 2.67 -154 2.34 -154 2 C-103.51 2 -53.02 2 -1 2 C-0.67 1.34 -0.34 0.68 0 0 Z " fill="#34ACE2" transform="translate(1514,767)"/>
<path d="M0 0 C0.33 0 0.66 0 1 0 C1.81163988 4.33635811 2.18064497 8.51729483 2.31201172 12.92529297 C2.33250202 13.60603001 2.35299232 14.28676704 2.37410355 14.98813248 C2.44017045 17.28103249 2.49824198 19.57403124 2.5546875 21.8671875 C2.57562344 22.67970852 2.59655937 23.49222954 2.61812973 24.32937241 C3.19095498 47.13337858 3.15174021 69.94326265 3.13037109 92.75292969 C3.12464261 98.91995318 3.12807416 105.08693378 3.13382339 111.25395584 C3.17218272 160.05565808 3.17218272 160.05565808 2 183 C-1.3 183 -4.6 183 -8 183 C-8 182.67 -8 182.34 -8 182 C-5.69 182 -3.38 182 -1 182 C-1.33 181.34 -1.66 180.68 -2 180 C-2.99 180 -3.98 180 -5 180 C-4.34 179.67 -3.68 179.34 -3 179 C-3 170.75 -3 162.5 -3 154 C-2.34 154 -1.68 154 -1 154 C-0.03464139 133.39962692 0.09964837 112.80754337 0.09765625 92.1875 C0.09759189 91.52133415 0.09752753 90.8551683 0.09746122 90.16881561 C0.09581104 81.89870997 0.08544524 73.62862397 0.07202661 65.35853004 C0.06064466 58.21409431 0.05529957 51.06965738 0.05032361 43.92521477 C0.03999766 29.28346728 0.02252227 14.64173397 0 0 Z " fill="#1274B8" transform="translate(819,678)"/>
<path d="M0 0 C-4.16971099 3.28001991 -6.75795124 3.5631626 -12 4 C-12 3.34 -12 2.68 -12 2 C-12.76441406 2.144375 -13.52882813 2.28875 -14.31640625 2.4375 C-31.29225602 5.3791635 -47.96378626 3.5206211 -65 2 C-65 1.67 -65 1.34 -65 1 C-68.96 0.67 -72.92 0.34 -77 0 C-77 -0.33 -77 -0.66 -77 -1 C-51.54029375 -5.01053038 -25.39681712 -3.75410952 0 0 Z " fill="#2267AB" transform="translate(553,564)"/>
<path d="M0 0 C0.33 0 0.66 0 1 0 C1.19586184 2.8746491 1.38193799 5.74938283 1.5625 8.625 C1.61857422 9.43324219 1.67464844 10.24148438 1.73242188 11.07421875 C2.0076885 15.58859132 1.85682534 19.5345015 1 24 C0.70136086 30.46465909 0.92042457 36.92646085 1.296875 43.3828125 C2.40553845 62.57665105 2.40553845 62.57665105 0 72 C-5.7261968 66.2738032 -4.24459945 53.91636772 -4.27575684 46.21411133 C-4.27420134 44.50650379 -4.26915554 42.79889611 -4.26074219 41.09130859 C-4.25001925 38.50464441 -4.260693 35.91867448 -4.2734375 33.33203125 C-4.2829314 21.85486467 -3.50296094 11.0093058 0 0 Z " fill="#199AD3" transform="translate(1302,720)"/>
<path d="M0 0 C0 2.31 0 4.62 0 7 C-3.45815102 7.17059365 -6.91654307 7.33573439 -10.375 7.5 C-11.34050781 7.54769531 -12.30601562 7.59539063 -13.30078125 7.64453125 C-21.59262713 8.03408106 -29.85257557 8.34845379 -38.125 7.5 C-39.05570313 7.4071875 -39.98640625 7.314375 -40.9453125 7.21875 C-41.62335938 7.1465625 -42.30140625 7.074375 -43 7 C-43 6.67 -43 6.34 -43 6 C-45.97 6 -48.94 6 -52 6 C-51.67 5.34 -51.34 4.68 -51 4 C-48.17249508 3.61766624 -45.42455389 3.36242858 -42.58203125 3.18359375 C-41.73203049 3.12220718 -40.88202972 3.06082062 -40.00627136 2.99757385 C-37.27556121 2.80189425 -34.54417536 2.61916373 -31.8125 2.4375 C-29.09889277 2.24998115 -26.38550726 2.05975046 -23.67228699 1.86671448 C-21.98188298 1.74720967 -20.29122197 1.63127119 -18.60029602 1.51939392 C-12.34952102 1.08881855 -6.27271739 -0.14935041 0 0 Z " fill="#0E5EA7" transform="translate(552,824)"/>
<path d="M0 0 C0.33 0 0.66 0 1 0 C2.27053505 6.89589842 2.3798066 13.7567102 2.5625 20.75 C2.58367889 21.51548157 2.60485779 22.28096313 2.62667847 23.06964111 C3.46631249 54.69598831 3.08336122 86.36545605 3 118 C2.67 118 2.34 118 2 118 C1.65195632 107.70879032 1.31952886 97.41713242 1 87.125 C0.9762455 86.36014786 0.952491 85.59529572 0.92801666 84.80726624 C0.05529258 56.53130384 -0.25575581 28.29052765 0 0 Z " fill="#4284BE" transform="translate(819,678)"/>
<path d="M0 0 C12.34700048 0.34488828 23.95602257 2.34686973 36 5 C35.67 8.63 35.34 12.26 35 16 C34.67 16 34.34 16 34 16 C33.875 8.25 33.875 8.25 35 6 C34.01 6.66 33.02 7.32 32 8 C29.36450195 8.22705078 29.36450195 8.22705078 26.23828125 8.1953125 C25.12001953 8.18886719 24.00175781 8.18242188 22.84960938 8.17578125 C21.09874023 8.15064453 21.09874023 8.15064453 19.3125 8.125 C18.13365234 8.11597656 16.95480469 8.10695313 15.74023438 8.09765625 C12.82661974 8.07406423 9.91341108 8.0411454 7 8 C7 7.34 7 6.68 7 6 C4.69 5.67 2.38 5.34 0 5 C0 3.35 0 1.7 0 0 Z " fill="#22BDEF" transform="translate(1664,624)"/>
<path d="M0 0 C2.97604874 9.26927435 5.78952972 18.51115195 8 28 C7.34 28 6.68 28 6 28 C5.896875 27.21625 5.79375 26.4325 5.6875 25.625 C5.22404978 22.66954819 5.22404978 22.66954819 2 21 C-0.78720885 16.81918673 0 12.94881637 0 8 C-0.66 8 -1.32 8 -2 8 C-2.33 8.99 -2.66 9.98 -3 11 C-3 9.02 -3 7.04 -3 5 C-7.64586892 5.48484276 -7.64586892 5.48484276 -12 7 C-12 6.34 -12 5.68 -12 5 C-12.886875 5.33 -13.77375 5.66 -14.6875 6 C-17.70923347 6.91222143 -19.88373706 7.18330958 -23 7 C-23.33 6.34 -23.66 5.68 -24 5 C-20.940229 4.15642037 -17.8767954 3.3269798 -14.8125 2.5 C-13.94818359 2.26152344 -13.08386719 2.02304687 -12.19335938 1.77734375 C-11.35224609 1.55175781 -10.51113281 1.32617188 -9.64453125 1.09375 C-8.87471924 0.88427734 -8.10490723 0.67480469 -7.31176758 0.45898438 C-4.82176477 -0.03538729 -2.53218501 -0.07833519 0 0 Z " fill="#276DAC" transform="translate(587,816)"/>
<path d="M0 0 C1.64630328 0.14042877 3.29204179 0.28749329 4.9375 0.4375 C6.31228516 0.55931641 6.31228516 0.55931641 7.71484375 0.68359375 C10 1 10 1 11 2 C12.51928038 2.07179964 14.04167482 2.08392007 15.5625 2.0625 C16.38878906 2.05347656 17.21507812 2.04445313 18.06640625 2.03515625 C19.02353516 2.01775391 19.02353516 2.01775391 20 2 C20 2.33 20 2.66 20 3 C8.10777485 4.57843895 -3.57308254 5.32047977 -15.56884766 5.26074219 C-18.13077271 5.24997574 -20.6920015 5.26074272 -23.25390625 5.2734375 C-33.66144204 5.28091794 -43.70620765 4.57537906 -54 3 C-54 2.67 -54 2.34 -54 2 C-46.08 1.67 -38.16 1.34 -30 1 C-30 1.66 -30 2.32 -30 3 C-19.44 2.67 -8.88 2.34 2 2 C1.34 1.34 0.68 0.68 0 0 Z " fill="#2366AA" transform="translate(526,872)"/>
<path d="M0 0 C1.22989717 3.68969151 0.56330842 6.19766813 0 10 C0.33 10.33 0.66 10.66 1 11 C1.28150942 15.28491465 1.23182832 19.58194096 1.25 23.875 C1.270625 25.08542969 1.29125 26.29585937 1.3125 27.54296875 C1.32023438 29.28126953 1.32023438 29.28126953 1.328125 31.0546875 C1.34214355 32.65546143 1.34214355 32.65546143 1.35644531 34.28857422 C1 37 1 37 -0.52050781 38.87158203 C-1.00874023 39.24395996 -1.49697266 39.61633789 -2 40 C-2.2165625 38.8553125 -2.2165625 38.8553125 -2.4375 37.6875 C-2.9632594 34.91827092 -2.9632594 34.91827092 -4 32 C-7.37315734 21.88052798 -4.01193412 10.83414633 -1 1 C-0.67 0.67 -0.34 0.34 0 0 Z " fill="#0E64AA" transform="translate(622,781)"/>
<path d="M0 0 C0.625 1.8125 0.625 1.8125 1 4 C0.34 4.99 -0.32 5.98 -1 7 C-2.84642744 7.0683862 -4.6968599 7.11166166 -6.54296875 7.03515625 C-9.301604 6.99568452 -11.94477051 7.2682469 -14.6875 7.5625 C-21.14009383 8.13789053 -27.6006908 8.09838889 -34 7 C-34.66 6.34 -35.32 5.68 -36 5 C-35.31486328 4.91959473 -34.62972656 4.83918945 -33.92382812 4.75634766 C-30.78189598 4.38455589 -27.64096914 4.00483813 -24.5 3.625 C-22.88351562 3.43550781 -22.88351562 3.43550781 -21.234375 3.2421875 C-16.57487935 2.67395632 -12.01341515 2.09362541 -7.46875 0.8984375 C-4 0 -4 0 0 0 Z " fill="#20A8E0" transform="translate(1476,824)"/>
<path d="M0 0 C0.99 1.32 1.98 2.64 3 4 C3.66 3.01 4.32 2.02 5 1 C5.99 0.67 6.98 0.34 8 0 C6.31331973 9.4262699 4.47267552 18.74061935 2 28 C-2.81449408 27.51855059 -5.60171741 27.1991413 -10 25 C-6.7 24.01 -3.4 23.02 0 22 C0 18.04 0 14.08 0 10 C0.66 10 1.32 10 2 10 C2 8.35 2 6.7 2 5 C1.34 5 0.68 5 0 5 C0 3.35 0 1.7 0 0 Z " fill="#2BBEEE" transform="translate(1688,651)"/>
<path d="M0 0 C5.18229754 0.65032753 10.13448612 1.69048654 15.1875 3 C15.88552734 3.17789063 16.58355469 3.35578125 17.30273438 3.5390625 C19.20247603 4.02348758 21.10128063 4.51158344 23 5 C24.32 5.33 25.64 5.66 27 6 C26.67 9.3 26.34 12.6 26 16 C25.67 16 25.34 16 25 16 C24.67 13.36 24.34 10.72 24 8 C22.37585622 7.80522261 20.75063577 7.61940542 19.125 7.4375 C18.22007812 7.33308594 17.31515625 7.22867188 16.3828125 7.12109375 C13.98346943 6.80325148 13.98346943 6.80325148 12 8 C11.236875 7.835 10.47375 7.67 9.6875 7.5 C6.73367668 6.95045148 4.90452992 7.34648077 2 8 C0.3337447 8.0370279 -1.33401319 8.04759962 -3 8 C-2.67 7.34 -2.34 6.68 -2 6 C-1.34 6 -0.68 6 0 6 C-0.185625 5.38125 -0.37125 4.7625 -0.5625 4.125 C-1 2 -1 2 0 0 Z " fill="#0F62AA" transform="translate(571,568)"/>
<path d="M0 0 C1.65 0 3.3 0 5 0 C4.72285156 1.09699219 4.44570313 2.19398438 4.16015625 3.32421875 C3.79420763 4.77862993 3.42832573 6.2330579 3.0625 7.6875 C2.88009766 8.40873047 2.69769531 9.12996094 2.50976562 9.87304688 C1.58174093 13.56827248 0.70201539 17.25345469 0 21 C-9.41002278 20.03644647 -9.41002278 20.03644647 -14 19 C-14.33 18.01 -14.66 17.02 -15 16 C-11.04 16 -7.08 16 -3 16 C-2.87625 14.288125 -2.7525 12.57625 -2.625 10.8125 C-2.33580973 6.81203466 -1.64800856 3.66447432 0 0 Z " fill="#286CB0" transform="translate(587,600)"/>
<path d="M0 0 C1.134375 0.020625 2.26875 0.04125 3.4375 0.0625 C3.46440844 2.68756802 3.48429404 5.31236173 3.5 7.9375 C3.50837891 8.68386719 3.51675781 9.43023438 3.52539062 10.19921875 C3.55078125 15.8359375 3.55078125 15.8359375 2.4375 18.0625 C4.0875 18.3925 5.7375 18.7225 7.4375 19.0625 C7.4375 20.7125 7.4375 22.3625 7.4375 24.0625 C5.66796875 24.0078125 5.66796875 24.0078125 3.4375 23.0625 C1.99950563 20.67477435 0.85938336 18.47047115 -0.25 15.9375 C-0.55744141 15.28523437 -0.86488281 14.63296875 -1.18164062 13.9609375 C-3.13759597 9.64670776 -4.20724925 5.79516259 -4.5625 1.0625 C-3.5625 0.0625 -3.5625 0.0625 0 0 Z " fill="#1C9BD2" transform="translate(1308.5625,799.9375)"/>
<path d="M0 0 C2.97 0.495 2.97 0.495 6 1 C6.125 5.75 6.125 5.75 5 8 C7.64 8 10.28 8 13 8 C12.814375 8.61875 12.62875 9.2375 12.4375 9.875 C11.76313824 12.04160178 11.76313824 12.04160178 13 14 C13.66 13.34 14.32 12.68 15 12 C15 13.32 15 14.64 15 16 C15.639375 16.12375 16.27875 16.2475 16.9375 16.375 C17.9584375 16.684375 17.9584375 16.684375 19 17 C19.33 17.66 19.66 18.32 20 19 C19.34 19 18.68 19 18 19 C18.99 19.99 19.98 20.98 21 22 C20.67 22.66 20.34 23.32 20 24 C12.40539996 18.37437034 4.14962186 12.06027769 -1 4 C-0.75 1.6875 -0.75 1.6875 0 0 Z " fill="#2EA0D3" transform="translate(1321,832)"/>
<path d="M0 0 C0.33 0 0.66 0 1 0 C1 2.64 1 5.28 1 8 C1.66 8 2.32 8 3 8 C2.98839844 8.99902344 2.97679687 9.99804688 2.96484375 11.02734375 C2.95582031 12.31769531 2.94679688 13.60804688 2.9375 14.9375 C2.92589844 16.22527344 2.91429687 17.51304687 2.90234375 18.83984375 C2.63467451 21.86298403 2.63467451 21.86298403 4 23 C4.07244053 25.01964199 4.08377188 27.04167124 4.0625 29.0625 C4.05347656 30.16722656 4.04445313 31.27195312 4.03515625 32.41015625 C4.02355469 33.26480469 4.01195312 34.11945312 4 35 C3.67 35 3.34 35 3 35 C2.67 39.29 2.34 43.58 2 48 C2.66 48 3.32 48 4 48 C4 48.99 4 49.98 4 51 C2.35 51.66 0.7 52.32 -1 53 C-0.9292627 52.36690918 -0.85852539 51.73381836 -0.78564453 51.08154297 C-0.00087795 43.41455273 0.15014562 35.8279404 0.125 28.125 C0.12886719 26.94808594 0.13273437 25.77117188 0.13671875 24.55859375 C0.12892305 17.47229823 -0.20076057 10.49915951 -0.88330078 3.44482422 C-0.92181152 2.63803223 -0.96032227 1.83124023 -1 1 C-0.67 0.67 -0.34 0.34 0 0 Z " fill="#1F95CD" transform="translate(1225,728)"/>
<path d="M0 0 C1.89324687 2.83987031 2.42684829 4.25506753 3.0703125 7.4921875 C3.33134766 8.79736328 3.33134766 8.79736328 3.59765625 10.12890625 C3.77167969 11.03511719 3.94570312 11.94132813 4.125 12.875 C4.30675781 13.77347656 4.48851562 14.67195312 4.67578125 15.59765625 C5.50436587 19.81533886 6.09847955 23.68697804 6 28 C5.34 28 4.68 28 4 28 C3.67 27.34 3.34 26.68 3 26 C1.35 26 -0.3 26 -2 26 C-1.39702691 17.32745081 -0.74558682 8.66149795 0 0 Z " fill="#229BD2" transform="translate(1274,694)"/>
<path d="M0 0 C14.97988679 2.51874203 31.65032946 6.48925078 45 14 C45.495 15.485 45.495 15.485 46 17 C43.22011732 16.61390518 41.38422008 16.29785128 39.140625 14.55859375 C36.77769625 12.83814015 34.80593325 12.15347538 32 11.375 C31.154375 11.13523437 30.30875 10.89546875 29.4375 10.6484375 C28.633125 10.43445313 27.82875 10.22046875 27 10 C26.278125 9.80664062 25.55625 9.61328125 24.8125 9.4140625 C22.98490422 8.9257631 22.98490422 8.9257631 21 9 C20.67 8.34 20.34 7.68 20 7 C17.88279718 6.52807769 17.88279718 6.52807769 15.375 6.375 C14.02341797 6.25898437 14.02341797 6.25898437 12.64453125 6.140625 C9.7855014 5.95113013 9.7855014 5.95113013 6.0625 6.125 C3 6 3 6 1.0625 4.6875 C0 3 0 3 0 0 Z " fill="#3689BE" transform="translate(979,625)"/>
<path d="M0 0 C2.6875 0.875 2.6875 0.875 5 2 C2.76404853 17.60408685 2.76404853 17.60408685 1 23 C0.01 23.33 -0.98 23.66 -2 24 C-2.33 22.02 -2.66 20.04 -3 18 C-2.34 18 -1.68 18 -1 18 C-1.14049518 16.52031676 -1.28754826 15.04125484 -1.4375 13.5625 C-1.51871094 12.73878906 -1.59992188 11.91507813 -1.68359375 11.06640625 C-1.78930815 9.01337975 -1.78930815 9.01337975 -3 8 C-3.25 5.0625 -3.25 5.0625 -3 2 C-2.01 1.34 -1.02 0.68 0 0 Z " fill="#1997D4" transform="translate(1275,779)"/>
<path d="M0 0 C1.86680725 3.41407092 2.99246672 6.90861303 4.125 10.625 C4.47820313 11.77226563 4.83140625 12.91953125 5.1953125 14.1015625 C6 17 6 17 6 19 C3.03 19.66 0.06 20.32 -3 21 C-3.02696365 19.20841511 -3.04637917 17.41671527 -3.0625 15.625 C-3.07410156 14.62726562 -3.08570313 13.62953125 -3.09765625 12.6015625 C-3 10 -3 10 -2 8 C-1.34 8 -0.68 8 0 8 C0 5.36 0 2.72 0 0 Z " fill="#226BAD" transform="translate(595,845)"/>
<path d="M0 0 C0 0.33 0 0.66 0 1 C-5.13898255 1.88634751 -10.2800819 2.75867493 -15.42358398 3.6184082 C-17.17097103 3.91246843 -18.91773302 4.2102695 -20.66381836 4.51196289 C-23.18185675 4.94635503 -25.70187798 5.36699513 -28.22265625 5.78515625 C-28.99585709 5.92156021 -29.76905792 6.05796417 -30.56568909 6.19850159 C-35.34673151 6.97484736 -39.23964945 6.92891612 -44 6 C-44 5.34 -44 4.68 -44 4 C-40.37 4.33 -36.74 4.66 -33 5 C-33 4.34 -33 3.68 -33 3 C-28.59085217 1.89771304 -24.51617599 1.92345464 -20 2 C-20 1.34 -20 0.68 -20 0 C-19.09636719 0.01160156 -18.19273437 0.02320313 -17.26171875 0.03515625 C-15.49248047 0.04869141 -15.49248047 0.04869141 -13.6875 0.0625 C-11.92986328 0.07990234 -11.92986328 0.07990234 -10.13671875 0.09765625 C-0.63820423 -0.19806338 -0.63820423 -0.19806338 0 0 Z " fill="#2475B5" transform="translate(804,865)"/>
<path d="M0 0 C0 1.32 0 2.64 0 4 C-0.99 4 -1.98 4 -3 4 C-3 4.66 -3 5.32 -3 6 C-12.57 6 -22.14 6 -32 6 C-28.99382731 2.99382731 -26.17618402 3.40414684 -22 3 C-22 2.67 -22 2.34 -22 2 C-19.45887768 1.66198848 -16.91723254 1.32946621 -14.375 1 C-13.66214844 0.90460937 -12.94929687 0.80921875 -12.21484375 0.7109375 C-8.11178391 0.18393899 -4.14754258 -0.10466984 0 0 Z " fill="#085FAB" transform="translate(552,824)"/>
<path d="M0 0 C1.25973633 0.06574219 1.25973633 0.06574219 2.54492188 0.1328125 C3.41310547 0.184375 4.28128906 0.2359375 5.17578125 0.2890625 C6.49545898 0.35480469 6.49545898 0.35480469 7.84179688 0.421875 C14.35781569 0.78359694 14.35781569 0.78359694 15.48828125 1.9140625 C17.50422707 2.14834028 19.52675525 2.32742374 21.55078125 2.4765625 C22.65550781 2.56035156 23.76023437 2.64414062 24.8984375 2.73046875 C25.75308594 2.79105469 26.60773438 2.85164062 27.48828125 2.9140625 C27.48828125 3.2440625 27.48828125 3.5740625 27.48828125 3.9140625 C23.07747771 3.93896714 18.66671254 3.95701854 14.25585938 3.96899414 C12.75845628 3.97399193 11.26105798 3.9807924 9.76367188 3.98950195 C7.5989462 4.00176873 5.4342856 4.00733647 3.26953125 4.01171875 C1.32143555 4.01957397 1.32143555 4.01957397 -0.66601562 4.02758789 C-4.69258548 3.9087233 -8.52586971 3.47433019 -12.51171875 2.9140625 C-8.25434636 0.63332729 -4.83084583 -0.2562004 0 0 Z " fill="#48A0D2" transform="translate(1156.51171875,873.0859375)"/>
<path d="M0 0 C7.21380108 5.86121338 14.40833022 12.24530492 18 21 C15.69 21.33 13.38 21.66 11 22 C11 19.36 11 16.72 11 14 C8.36 13.34 5.72 12.68 3 12 C3 11.34 3 10.68 3 10 C3.66 10 4.32 10 5 10 C4.21869929 7.50447516 4.21869929 7.50447516 3 5 C2.01 4.67 1.02 4.34 0 4 C0 2.68 0 1.36 0 0 Z " fill="#2095D0" transform="translate(1246,650)"/>
<path d="M0 0 C0.33 0 0.66 0 1 0 C1.83885377 3.43617708 2.67012919 6.87414337 3.5 10.3125 C3.73847656 11.28896484 3.97695312 12.26542969 4.22265625 13.27148438 C4.44824219 14.20927734 4.67382812 15.14707031 4.90625 16.11328125 C5.11572266 16.97735596 5.32519531 17.84143066 5.54101562 18.73168945 C6 21 6 21 6 24 C4.68 24 3.36 24 2 24 C1.67 22.35 1.34 20.7 1 19 C0.34 19 -0.32 19 -1 19 C-2.10765663 12.13252891 -1.700773 6.73281213 0 0 Z " fill="#27ADE0" transform="translate(1506,832)"/>
<path d="M0 0 C0 0.99 0 1.98 0 3 C0.639375 3.103125 1.27875 3.20625 1.9375 3.3125 C2.618125 3.539375 3.29875 3.76625 4 4 C4.495 5.485 4.495 5.485 5 7 C4.07703125 6.86722656 3.1540625 6.73445312 2.203125 6.59765625 C-8.85328144 5.10088977 -19.85481238 4.43393149 -31 4 C-31 3.67 -31 3.34 -31 3 C-29.22496094 2.92652344 -29.22496094 2.92652344 -27.4140625 2.8515625 C-16.04319729 2.35359252 -16.04319729 2.35359252 -4.84765625 0.40234375 C-3 0 -3 0 0 0 Z " fill="#388BC4" transform="translate(973,665)"/>
<path d="M0 0 C0 0.66 0 1.32 0 2 C2.31 2 4.62 2 7 2 C7 2.33 7 2.66 7 3 C-0.18082254 4.12866889 -7.24205132 4.11434249 -14.5 4.0625 C-16.30597656 4.05573242 -16.30597656 4.05573242 -18.1484375 4.04882812 C-21.09901073 4.0371195 -24.04947859 4.02071995 -27 4 C-26 2 -26 2 -23 1 C-21.39780787 0.85291523 -19.79103363 0.75280783 -18.18359375 0.68359375 C-16.79043945 0.62075195 -16.79043945 0.62075195 -15.36914062 0.55664062 C-14.40169922 0.51732422 -13.43425781 0.47800781 -12.4375 0.4375 C-10.98053711 0.37272461 -10.98053711 0.37272461 -9.49414062 0.30664062 C-2.49007937 0 -2.49007937 0 0 0 Z " fill="#286BAE" transform="translate(529,608)"/>
<path d="M0 0 C0 0.33 0 0.66 0 1 C-4.4133555 2.03552346 -8.8311126 3.05086639 -13.25 4.0625 C-14.50425781 4.35705078 -15.75851562 4.65160156 -17.05078125 4.95507812 C-18.85869141 5.3659668 -18.85869141 5.3659668 -20.703125 5.78515625 C-21.81333008 6.04176025 -22.92353516 6.29836426 -24.06738281 6.56274414 C-26.83233818 6.97500147 -28.40356454 6.93084973 -31 6 C-30.34 6 -29.68 6 -29 6 C-28.67 5.01 -28.34 4.02 -28 3 C-19.18910337 -0.87169599 -9.39608454 -0.32194706 0 0 Z " fill="#0A63AD" transform="translate(589,866)"/>
<path d="M0 0 C0.33 0.99 0.66 1.98 1 3 C1.33 3.66 1.66 4.32 2 5 C1.0625 7.125 1.0625 7.125 0 9 C-0.99 8.67 -1.98 8.34 -3 8 C-4.32 9.32 -5.64 10.64 -7 12 C-6.67 12.66 -6.34 13.32 -6 14 C-5.960008 15.99960012 -5.95653201 18.00047242 -6 20 C-7.65 20.33 -9.3 20.66 -11 21 C-12.15196757 17.54409729 -11.99711885 16.99260923 -10.5625 13.3125 C-7.84777404 8.21879157 -3.9598377 4.15206283 0 0 Z " fill="#1A9AD4" transform="translate(1334,651)"/>
<path d="M0 0 C0.66 0.33 1.32 0.66 2 1 C2 1.99 2 2.98 2 4 C-4.20262694 6.84710745 -9.13566014 8.72256209 -16 8 C-16.99 7.34 -17.98 6.68 -19 6 C-16.41709431 3.41709431 -14.77154092 3.49496003 -11.1875 3 C-7.9706737 2.55244156 -5.25148787 2.10244484 -2.23828125 0.875 C-1.13033203 0.441875 -1.13033203 0.441875 0 0 Z " fill="#1592CC" transform="translate(1192,824)"/>
<path d="M0 0 C0 0.66 0 1.32 0 2 C0.969375 1.649375 1.93875 1.29875 2.9375 0.9375 C7.41489226 -0.37452273 11.46325355 0.23873189 16 1 C16 1.33 16 1.66 16 2 C5.11239471 3.9513651 -5.35440486 4.24558042 -16.375 4.125 C-17.99739023 4.11493716 -19.61978659 4.10581722 -21.2421875 4.09765625 C-25.16161383 4.07593419 -29.08073625 4.04159219 -33 4 C-33 3.67 -33 3.34 -33 3 C-32.25838623 2.98018066 -31.51677246 2.96036133 -30.75268555 2.93994141 C-27.39726166 2.84477072 -24.04246714 2.73505906 -20.6875 2.625 C-19.52025391 2.5940625 -18.35300781 2.563125 -17.15039062 2.53125 C-15.47299805 2.47324219 -15.47299805 2.47324219 -13.76171875 2.4140625 C-12.73006592 2.3826416 -11.69841309 2.3512207 -10.63549805 2.31884766 C-6.50096479 1.81864382 -4.43027729 -0.23947445 0 0 Z " fill="#227CB7" transform="translate(952,873)"/>
<path d="M0 0 C1.49080078 0.02707031 1.49080078 0.02707031 3.01171875 0.0546875 C3.77097656 0.07789063 4.53023437 0.10109375 5.3125 0.125 C4.05647824 3.89306529 2.80237433 4.33746507 -0.5625 6.3125 C-1.44679688 6.84230469 -2.33109375 7.37210938 -3.2421875 7.91796875 C-5.6875 9.125 -5.6875 9.125 -8.6875 9.125 C-8.875 5.75 -8.875 5.75 -8.6875 2.125 C-5.26655758 -0.15562828 -4.00562778 -0.09425007 0 0 Z " fill="#1F95CE" transform="translate(1232.6875,855.875)"/>
<path d="M0 0 C1.00603271 0.28584961 2.01206543 0.57169922 3.04858398 0.86621094 C14.21370731 3.86362042 24.55022205 4.49835687 36.0625 4.25 C37.71937891 4.22985953 39.37628208 4.21162238 41.03320312 4.1953125 C45.022755 4.15201618 49.01109402 4.08342978 53 4 C53 4.33 53 4.66 53 5 C46.97478277 6.39252323 40.86111439 6.40552945 34.70776367 6.61254883 C32.57218178 6.68716174 30.43766288 6.77792118 28.30273438 6.86914062 C26.93232662 6.91766419 25.56188427 6.9652221 24.19140625 7.01171875 C22.33817749 7.08072388 22.33817749 7.08072388 20.44750977 7.15112305 C16.91989037 6.99648836 14.28885657 6.22861986 11 5 C8.81356179 4.86811458 8.81356179 4.86811458 6.8125 5.0625 C3 5 3 5 1 3.625 C0 2 0 2 0 0 Z " fill="#2572AC" transform="translate(693,832)"/>
<path d="M0 0 C2.81887051 2.81887051 3.2255686 6.11071301 4.125 9.875 C4.30675781 10.59558594 4.48851562 11.31617188 4.67578125 12.05859375 C5.51856938 15.49945053 6 18.43681883 6 22 C5.01 22 4.02 22 3 22 C2.67 22.66 2.34 23.32 2 24 C1.67 21.36 1.34 18.72 1 16 C0.67 16.99 0.34 17.98 0 19 C-1 18 -1 18 -1.125 14.3125 C-1.08714786 10.78594225 -0.6313981 7.47268956 0 4 C0 2.68 0 1.36 0 0 Z " fill="#2AAFE0" transform="translate(1506,688)"/>
<path d="M0 0 C0.20719042 6.00852226 -0.26289292 10.52578585 -3 16 C-4.65 16 -6.3 16 -8 16 C-7.67 13.36 -7.34 10.72 -7 8 C-6.34 8 -5.68 8 -5 8 C-4.87625 6.865625 -4.7525 5.73125 -4.625 4.5625 C-4.41875 3.386875 -4.2125 2.21125 -4 1 C-2 0 -2 0 0 0 Z " fill="#189BD3" transform="translate(1312,696)"/>
<path d="M0 0 C-1.66666667 1.66666667 -3.33333333 3.33333333 -5 5 C-5.495 5.598125 -5.99 6.19625 -6.5 6.8125 C-8.6446571 8.51035354 -10.34994106 8.21486964 -13 8 C-13.33 7.01 -13.66 6.02 -14 5 C-15.98 5.33 -17.96 5.66 -20 6 C-7.20353982 -2.53097345 -7.20353982 -2.53097345 0 0 Z " fill="#1487C3" transform="translate(1091,639)"/>
<path d="M0 0 C0.66 0.66 1.32 1.32 2 2 C1.9765625 4.3828125 1.9765625 4.3828125 1.625 7.125 C1.51414062 8.03507813 1.40328125 8.94515625 1.2890625 9.8828125 C1.19367187 10.58148437 1.09828125 11.28015625 1 12 C0.01 11.34 -0.98 10.68 -2 10 C-4.1385485 12.1385485 -4.42655063 13.13275314 -5 16 C-5.33 16 -5.66 16 -6 16 C-6.57142857 5.1005291 -6.57142857 5.1005291 -3 1 C-2.01 0.67 -1.02 0.34 0 0 Z " fill="#1C86C5" transform="translate(1022,640)"/>
<path d="M0 0 C-3.26138833 3.26138833 -7.64683071 3.90271045 -12 5.1875 C-12.928125 5.47302734 -13.85625 5.75855469 -14.8125 6.05273438 C-15.699375 6.31763672 -16.58625 6.58253906 -17.5 6.85546875 C-18.3146875 7.09934326 -19.129375 7.34321777 -19.96875 7.59448242 C-22 8 -22 8 -24 7 C-24 6.34 -24 5.68 -24 5 C-21.36 4.67 -18.72 4.34 -16 4 C-16 3.01 -16 2.02 -16 1 C-10.59255982 0.22750855 -5.46137814 -0.09752461 0 0 Z " fill="#29ACE0" transform="translate(1512,864)"/>
<path d="M0 0 C0.33 0 0.66 0 1 0 C1 2.64 1 5.28 1 8 C1.66 8 2.32 8 3 8 C2.67 13.28 2.34 18.56 2 24 C-0.55914724 21.44085276 -0.56934885 19.79558351 -1.125 16.25 C-1.29257813 15.22390625 -1.46015625 14.1978125 -1.6328125 13.140625 C-2.20589459 8.23894413 -2.65182482 4.30921533 0 0 Z " fill="#2F9DD4" transform="translate(1300,768)"/>
<path d="M0 0 C0.33 0.66 0.66 1.32 1 2 C1.99 2 2.98 2 4 2 C4.33 4.64 4.66 7.28 5 10 C5.66 10 6.32 10 7 10 C7.67031719 11.9570868 8.33614683 13.91571113 9 15.875 C9.556875 17.51082031 9.556875 17.51082031 10.125 19.1796875 C11 22 11 22 11 24 C10.34 24 9.68 24 9 24 C8.8453125 22.824375 8.8453125 22.824375 8.6875 21.625 C8.22404978 18.66954819 8.22404978 18.66954819 5 17 C2.21279115 12.81918673 3 8.94881637 3 4 C2.34 4 1.68 4 1 4 C0.67 4.99 0.34 5.98 0 7 C0 4.69 0 2.38 0 0 Z " fill="#0B63A9" transform="translate(584,820)"/>
<path d="M0 0 C0 0.66 0 1.32 0 2 C-3.21451269 3.60725635 -6.43612536 3.05748185 -10 3 C-10 3.99 -10 4.98 -10 6 C-11.1446875 6.2165625 -11.1446875 6.2165625 -12.3125 6.4375 C-15.08172908 6.9632594 -15.08172908 6.9632594 -18 8 C-18 7.01 -18 6.02 -18 5 C-19.98 5 -21.96 5 -24 5 C-21.10877768 3.07251845 -19.91572957 2.6429614 -16.62109375 2.1484375 C-15.78255859 2.01953125 -14.94402344 1.890625 -14.08007812 1.7578125 C-13.20802734 1.63148438 -12.33597656 1.50515625 -11.4375 1.375 C-10.12362305 1.17390625 -10.12362305 1.17390625 -8.78320312 0.96875 C-2.36276307 0 -2.36276307 0 0 0 Z " fill="#30B8E7" transform="translate(1618,624)"/>
<path d="M0 0 C-0.33 1.32 -0.66 2.64 -1 4 C0.32 4.33 1.64 4.66 3 5 C3 5.66 3 6.32 3 7 C3.99 7 4.98 7 6 7 C6 7.66 6 8.32 6 9 C-0.7186905 7.00386732 -6.80734808 4.2708579 -13 1 C-13 0.67 -13 0.34 -13 0 C-7.85910687 -1.85072153 -5.04468729 -2.21474076 0 0 Z " fill="#1057A0" transform="translate(437,858)"/>
<path d="M0 0 C6.16075539 3.38841546 9.82011164 8.44096066 14 14 C13.01 14.33 12.02 14.66 11 15 C11 14.34 11 13.68 11 13 C8.66785852 11.79371992 6.50357861 10.8345262 4 10 C4 9.34 4 8.68 4 8 C2.68 7.67 1.36 7.34 0 7 C0 4.69 0 2.38 0 0 Z " fill="#2587C0" transform="translate(1011,749)"/>
<path d="M0 0 C5.96260189 4.82082706 10.96679794 10.22494276 16 16 C15.34 16.66 14.68 17.32 14 18 C13.34 17.01 12.68 16.02 12 15 C10.845 14.566875 9.69 14.13375 8.5 13.6875 C5 12 5 12 3.6875 8.875 C3.460625 7.92625 3.23375 6.9775 3 6 C2.34 5.67 1.68 5.34 1 5 C0.375 2.4375 0.375 2.4375 0 0 Z " fill="#2AABDE" transform="translate(1476,642)"/>
<path d="M0 0 C6.73338656 0.54301505 12.57045488 1.91718961 19 4 C18.67 7.3 18.34 10.6 18 14 C17.67 14 17.34 14 17 14 C16.67 11.36 16.34 8.72 16 6 C14.87851562 5.80083984 14.87851562 5.80083984 13.734375 5.59765625 C12.74953125 5.42105469 11.7646875 5.24445312 10.75 5.0625 C9.28820312 4.80146484 9.28820312 4.80146484 7.796875 4.53515625 C6.87390625 4.35855469 5.9509375 4.18195312 5 4 C3.86304688 3.81244141 3.86304688 3.81244141 2.703125 3.62109375 C2.14109375 3.41613281 1.5790625 3.21117187 1 3 C0.67 2.01 0.34 1.02 0 0 Z " fill="#296FB1" transform="translate(579,570)"/>
<path d="M0 0 C1.25 2.0625 1.25 2.0625 2 4 C0.08404032 4.08133791 -1.83291932 4.13934367 -3.75 4.1875 C-5.35101562 4.23970703 -5.35101562 4.23970703 -6.984375 4.29296875 C-10.30027855 3.97082786 -11.59016673 3.22851086 -14 1 C-12.41913952 0.63495397 -10.83516093 0.28339494 -9.25 -0.0625 C-8.36828125 -0.25972656 -7.4865625 -0.45695313 -6.578125 -0.66015625 C-3.93287127 -1.00884879 -2.42978924 -1.09340516 0 0 Z M-14 4 C-12.68 4.33 -11.36 4.66 -10 5 C-11.32 5.33 -12.64 5.66 -14 6 C-14 5.34 -14 4.68 -14 4 Z " fill="#2776B7" transform="translate(766,833)"/>
<path d="M0 0 C5.28 0 10.56 0 16 0 C16 0.99 16 1.98 16 3 C26.56 3 37.12 3 48 3 C48 3.33 48 3.66 48 4 C43.39186151 4.04957858 38.78387963 4.08580385 34.17553711 4.10986328 C32.60910333 4.11989726 31.04268817 4.13352754 29.47631836 4.15087891 C27.21984247 4.17524225 24.96361506 4.18650916 22.70703125 4.1953125 C22.01100296 4.20563507 21.31497467 4.21595764 20.59785461 4.22659302 C16.58442528 4.22751119 13.63158386 3.68435391 10 2 C7.3383813 1.55450643 7.3383813 1.55450643 4.6875 1.375 C3.80449219 1.30023437 2.92148437 1.22546875 2.01171875 1.1484375 C1.34785156 1.09945312 0.68398438 1.05046875 0 1 C0 0.67 0 0.34 0 0 Z " fill="#2778B9" transform="translate(704,729)"/>
<path d="M0 0 C1.65 0 3.3 0 5 0 C4.5758071 1.94045688 4.13514005 3.87731761 3.6875 5.8125 C3.44386719 6.89144531 3.20023438 7.97039063 2.94921875 9.08203125 C2.01798408 11.9447156 1.31239465 13.15397066 -1 15 C-2.18163372 9.48570928 -1.77496477 5.32489431 0 0 Z " fill="#1B68AB" transform="translate(587,600)"/>
<path d="M0 0 C0.66 0.33 1.32 0.66 2 1 C1.505 1.45375 1.01 1.9075 0.5 2.375 C-1.22609337 3.87635519 -1.22609337 3.87635519 -1 6 C-2.62102968 7.71108689 -4.29503463 9.37253306 -6 11 C-7.1446875 12.1446875 -7.1446875 12.1446875 -8.3125 13.3125 C-8.869375 13.869375 -9.42625 14.42625 -10 15 C-10.66 14.67 -11.32 14.34 -12 14 C-11 11 -11 11 -9 9 C-9.66 8.34 -10.32 7.68 -11 7 C-9.21475351 5.80286983 -7.4215972 4.61752721 -5.625 3.4375 C-4.62726563 2.77621094 -3.62953125 2.11492188 -2.6015625 1.43359375 C-1.74304687 0.96050781 -0.88453125 0.48742187 0 0 Z " fill="#259ED4" transform="translate(1357,633)"/>
<path d="M0 0 C3.83663072 1.34929464 6.65172569 3.07751025 9.8125 5.625 C10.99779297 6.57246094 10.99779297 6.57246094 12.20703125 7.5390625 C12.79871094 8.02117188 13.39039063 8.50328125 14 9 C13.01 9.495 13.01 9.495 12 10 C9.5 9 9.5 9 7 8 C4.67402489 7.6186926 2.34087842 7.27539746 0 7 C0 4.69 0 2.38 0 0 Z " fill="#2595CF" transform="translate(1232,640)"/>
<path d="M0 0 C3.63 0 7.26 0 11 0 C11 0.66 11 1.32 11 2 C16.94 2 22.88 2 29 2 C29 2.33 29 2.66 29 3 C17.78 3 6.56 3 -5 3 C-5 2.67 -5 2.34 -5 2 C-3.35 1.67 -1.7 1.34 0 1 C0 0.67 0 0.34 0 0 Z " fill="#ECF2F7" transform="translate(1141,826)"/>
<path d="M0 0 C2.4814731 0.44791933 4.9596645 0.90773818 7.4375 1.375 C8.14455078 1.50132812 8.85160156 1.62765625 9.58007812 1.7578125 C11.40052 2.10622243 13.20271648 2.547043 15 3 C15.33 3.66 15.66 4.32 16 5 C3.8871516 6.64242012 3.8871516 6.64242012 1.1875 4.6875 C0 3 0 3 0 0 Z " fill="#2685C1" transform="translate(979,625)"/>
<path d="M0 0 C1.65 0 3.3 0 5 0 C5 0.99 5 1.98 5 3 C5.66 3.33 6.32 3.66 7 4 C7.625 6.0625 7.625 6.0625 8 8 C7.01 8 6.02 8 5 8 C5.33 10.31 5.66 12.62 6 15 C3.36177976 11.89621148 2.29634269 9.18537076 1.3125 5.25 C1.06113281 4.26515625 0.80976563 3.2803125 0.55078125 2.265625 C0.36902344 1.51796875 0.18726563 0.7703125 0 0 Z " fill="#1B569F" transform="translate(359,776)"/>
<path d="M0 0 C4.62 0 9.24 0 14 0 C14 1.65 14 3.3 14 5 C7.4 4.34 0.8 3.68 -6 3 C-6 2.67 -6 2.34 -6 2 C-4.02 2 -2.04 2 0 2 C0 1.34 0 0.68 0 0 Z " fill="#2A6CAD" transform="translate(540,610)"/>
<path d="M0 0 C2.475 0.99 2.475 0.99 5 2 C3.98208077 9.10377673 2.90094901 16.07511433 1 23 C0.15808218 20.0751367 -0.11819313 17.49258344 -0.09765625 14.453125 C-0.09443359 13.60878906 -0.09121094 12.76445313 -0.08789062 11.89453125 C-0.07951172 11.02183594 -0.07113281 10.14914062 -0.0625 9.25 C-0.05798828 8.36183594 -0.05347656 7.47367188 -0.04882812 6.55859375 C-0.037074 4.37232671 -0.02064249 2.18619821 0 0 Z " fill="#2D9ED2" transform="translate(1275,779)"/>
<path d="M0 0 C0 0.99 0 1.98 0 3 C-0.66 3 -1.32 3 -2 3 C-2 3.99 -2 4.98 -2 6 C-3.6254308 5.85904936 -5.25034051 5.71207913 -6.875 5.5625 C-7.77992188 5.48128906 -8.68484375 5.40007813 -9.6171875 5.31640625 C-12 5 -12 5 -14 4 C-15.32860925 3.64830932 -16.66158328 3.31229724 -18 3 C-15.3754034 2.49779928 -12.75036631 1.99814643 -10.125 1.5 C-9.37863281 1.35691406 -8.63226562 1.21382812 -7.86328125 1.06640625 C-2.2265625 0 -2.2265625 0 0 0 Z " fill="#2A75B3" transform="translate(692,625)"/>
<path d="M0 0 C1.32 0.66 2.64 1.32 4 2 C3.67 4.31 3.34 6.62 3 9 C0.36 9.99 -2.28 10.98 -5 12 C-3.41037341 7.96479403 -1.71767682 3.98188718 0 0 Z " fill="#1F95CF" transform="translate(1219,796)"/>
<path d="M0 0 C0.66 0.66 1.32 1.32 2 2 C-1.66666667 5.66666667 -5.33333333 9.33333333 -9 13 C-10 10 -10 10 -9.5 7 C-7.47186468 2.94372936 -5.17998732 2.44399562 -1 1 C-0.67 0.67 -0.34 0.34 0 0 Z " fill="#F3F5F8" transform="translate(394,598)"/>
<path d="M0 0 C1.65 0 3.3 0 5 0 C5 3.3 5 6.6 5 10 C4.34 10 3.68 10 3 10 C2.67 10.66 2.34 11.32 2 12 C-1.57142857 4.71428571 -1.57142857 4.71428571 0 0 Z " fill="#2294CC" transform="translate(1216,696)"/>
<path d="M0 0 C-1.42358391 4.54074179 -3.72132073 7.03973147 -7.125 10.3125 C-8.03507813 11.19550781 -8.94515625 12.07851563 -9.8828125 12.98828125 C-10.93082031 13.98408203 -10.93082031 13.98408203 -12 15 C-13 12 -13 12 -12 9 C-11.01 9 -10.02 9 -9 9 C-9 8.34 -9 7.68 -9 7 C-7.68 6.67 -6.36 6.34 -5 6 C-5.33 4.35 -5.66 2.7 -6 1 C-3 0 -3 0 0 0 Z " fill="#2A87BF" transform="translate(1025,841)"/>
<path d="M0 0 C0.99 0 1.98 0 3 0 C2.72414063 0.79664063 2.44828125 1.59328125 2.1640625 2.4140625 C0.7720197 6.70230174 -0.43248345 11.02786117 -1.625 15.375 C-1.85445312 16.20644531 -2.08390625 17.03789063 -2.3203125 17.89453125 C-2.88162709 19.92929665 -3.44101028 21.96459468 -4 24 C-4.33 24 -4.66 24 -5 24 C-5.27338172 17.93092582 -4.46092445 13.22377946 -2.5 7.5 C-2.26152344 6.77296875 -2.02304687 6.0459375 -1.77734375 5.296875 C-1.19539824 3.52776065 -0.59919543 1.76334654 0 0 Z " fill="#2E6FB0" transform="translate(622,774)"/>
<path d="M0 0 C3.63 0 7.26 0 11 0 C11.33 1.32 11.66 2.64 12 4 C5.4 4 -1.2 4 -8 4 C-8 3.67 -8 3.34 -8 3 C-4.7 2.67 -1.4 2.34 2 2 C1.34 1.34 0.68 0.68 0 0 Z " fill="#E0E5F0" transform="translate(730,618)"/>
<path d="M0 0 C4.78277356 1.67932153 9.45318423 3.47866676 14.08203125 5.546875 C10.14532637 6.85910996 7.95714981 5.78983756 4.08203125 4.546875 C3.75203125 5.536875 3.42203125 6.526875 3.08203125 7.546875 C2.09203125 7.216875 1.10203125 6.886875 0.08203125 6.546875 C0.74203125 6.216875 1.40203125 5.886875 2.08203125 5.546875 C0.10203125 4.556875 -1.87796875 3.566875 -3.91796875 2.546875 C-3.91796875 1.886875 -3.91796875 1.226875 -3.91796875 0.546875 C-1.91796875 -0.453125 -1.91796875 -0.453125 0 0 Z " fill="#2783BE" transform="translate(972.91796875,728.453125)"/>
<path d="M0 0 C0 1.32 0 2.64 0 4 C-7.26 3.67 -14.52 3.34 -22 3 C-22 2.67 -22 2.34 -22 2 C-19.45887768 1.66198848 -16.91723254 1.32946621 -14.375 1 C-13.66214844 0.90460937 -12.94929687 0.80921875 -12.21484375 0.7109375 C-8.11178391 0.18393899 -4.14754258 -0.10466984 0 0 Z " fill="#3771AE" transform="translate(552,824)"/>
<path d="M0 0 C7.90709331 0.645477 15.39133967 2.86997139 23 5 C19.68629 7.20914 18.6553979 7.22481553 14.8125 7.125 C13.91144531 7.10695313 13.01039062 7.08890625 12.08203125 7.0703125 C11.39496094 7.04710937 10.70789062 7.02390625 10 7 C11.32 6.34 12.64 5.68 14 5 C9.38 4.01 4.76 3.02 0 2 C0 1.34 0 0.68 0 0 Z " fill="#2B97CC" transform="translate(1188,624)"/>
<path d="M0 0 C0 0.66 0 1.32 0 2 C-3.25 3.1875 -3.25 3.1875 -7 4 C-9.0625 2.625 -9.0625 2.625 -11 1 C-14.16732421 0.74913276 -14.16732421 0.74913276 -17 1 C-11.70742673 -2.52838218 -5.88225021 -2.9411251 0 0 Z " fill="#2681BE" transform="translate(928,627)"/>
<path d="M0 0 C1.32 0.33 2.64 0.66 4 1 C4.2361959 7.40353322 3.823321 12.84629161 2 19 C1.34 19 0.68 19 0 19 C-0.07987556 15.72510193 0.04139595 12.7424252 0.5625 9.5 C0.9966808 6.02655361 0.74600409 3.39846307 0 0 Z " fill="#1362AE" transform="translate(592,575)"/>
<path d="M0 0 C-0.99 0.495 -0.99 0.495 -2 1 C-1.67 2.32 -1.34 3.64 -1 5 C-3.31 5 -5.62 5 -8 5 C-8 4.34 -8 3.68 -8 3 C-9.32 2.34 -10.64 1.68 -12 1 C-7.53763531 -0.80619523 -4.68965706 -1.11658501 0 0 Z " fill="#1A5DA6" transform="translate(456,570)"/>
<path d="M0 0 C-3.19457351 1.88414642 -5.51502629 2.23819737 -9.203125 2.1953125 C-10.1828125 2.18886719 -11.1625 2.18242188 -12.171875 2.17578125 C-13.18765625 2.15902344 -14.2034375 2.14226563 -15.25 2.125 C-16.28125 2.11597656 -17.3125 2.10695313 -18.375 2.09765625 C-20.91690287 2.07412011 -23.4583328 2.04124023 -26 2 C-26 1.67 -26 1.34 -26 1 C-22.79304641 0.6325272 -19.58434303 0.28343058 -16.375 -0.0625 C-15.47136719 -0.16626953 -14.56773438 -0.27003906 -13.63671875 -0.37695312 C-8.86751203 -0.88172318 -4.72660395 -1.12276473 0 0 Z " fill="#2DABDF" transform="translate(1466,876)"/>
<path d="M0 0 C2 3 2 3 1.9375 6.5 C1 10 1 10 -1.4375 12 C-2.7059375 12.495 -2.7059375 12.495 -4 13 C-4.66 12.67 -5.32 12.34 -6 12 C-4.02 8.04 -2.04 4.08 0 0 Z " fill="#279DD1" transform="translate(1318,672)"/>
<path d="M0 0 C0.66 0 1.32 0 2 0 C2.27672202 1.91299138 2.52042815 3.83077936 2.75 5.75 C2.88921875 6.81734375 3.0284375 7.8846875 3.171875 8.984375 C3 12 3 12 1.015625 14.390625 C0.35046875 14.92171875 -0.3146875 15.4528125 -1 16 C-1.11138159 10.54230189 -0.91657981 5.38490641 0 0 Z " fill="#2B9CD3" transform="translate(1299,732)"/>
<path d="M0 0 C0.66 0 1.32 0 2 0 C2.33 1.98 2.66 3.96 3 6 C4.65 6 6.3 6 8 6 C8 8.64 8 11.28 8 14 C6.35 14 4.7 14 3 14 C2.01 9.38 1.02 4.76 0 0 Z " fill="#29A8DD" transform="translate(1456,706)"/>
<path d="M0 0 C3.73884332 2.65654657 5.64978174 4.58110387 7 9 C6.34 9 5.68 9 5 9 C5 8.34 5 7.68 5 7 C4.34 7 3.68 7 3 7 C2.67 8.32 2.34 9.64 2 11 C1.01 10.34 0.02 9.68 -1 9 C-1 5.72724974 -0.70074844 3.153368 0 0 Z " fill="#2776B5" transform="translate(803,645)"/>
<path d="M0 0 C0.66 0 1.32 0 2 0 C2.02714735 2.22909871 2.04646254 4.45829367 2.0625 6.6875 C2.07410156 7.92886719 2.08570313 9.17023437 2.09765625 10.44921875 C2.01478673 13.46235454 1.70839449 16.08275339 1 19 C0.67 19 0.34 19 0 19 C-0.1938211 16.02111874 -0.38035102 13.04209754 -0.5625 10.0625 C-0.61857422 9.21236328 -0.67464844 8.36222656 -0.73242188 7.48632812 C-0.80493164 6.27299805 -0.80493164 6.27299805 -0.87890625 5.03515625 C-0.9260376 4.2862915 -0.97316895 3.53742676 -1.02172852 2.76586914 C-1 1 -1 1 0 0 Z " fill="#2488C1" transform="translate(1034,800)"/>
<path d="M0 0 C0.33 0.99 0.66 1.98 1 3 C1.33 3.66 1.66 4.32 2 5 C1.0625 7.125 1.0625 7.125 0 9 C-0.99 8.67 -1.98 8.34 -3 8 C-3.99 8.99 -4.98 9.98 -6 11 C-6.99 10.67 -7.98 10.34 -9 10 C-6.03 6.7 -3.06 3.4 0 0 Z " fill="#2299D4" transform="translate(1334,651)"/>
<path d="M0 0 C3.68006822 3.38168431 5.9785845 6.42521756 8 11 C5.69 11.33 3.38 11.66 1 12 C0.67 8.04 0.34 4.08 0 0 Z " fill="#2C9BD0" transform="translate(1256,660)"/>
<path d="M0 0 C2.86724686 0.57344937 3.8614515 0.8614515 6 3 C6 3.99 6 4.98 6 6 C5.05125 6.28875 4.1025 6.5775 3.125 6.875 C-0.05211578 7.76825109 -0.05211578 7.76825109 -2 10 C-1.125 2.25 -1.125 2.25 0 0 Z " fill="#1D5BA4" transform="translate(362,650)"/>
<path d="M0 0 C3.3 0.66 6.6 1.32 10 2 C9.67 5.63 9.34 9.26 9 13 C8.67 13 8.34 13 8 13 C7.875 5.25 7.875 5.25 9 3 C8.01 3.66 7.02 4.32 6 5 C3.26009592 4.96856707 0.71582146 4.44521663 -2 4 C-1.01 3.34 -0.02 2.68 1 2 C0.67 1.34 0.34 0.68 0 0 Z " fill="#35BFEC" transform="translate(1690,627)"/>
<path d="M0 0 C3.3 0 6.6 0 10 0 C9.01 0.495 9.01 0.495 8 1 C8 1.66 8 2.32 8 3 C9.65 3 11.3 3 13 3 C13 3.33 13 3.66 13 4 C8.71 4.66 4.42 5.32 0 6 C0 5.34 0 4.68 0 4 C1.32 4 2.64 4 4 4 C4 3.34 4 2.68 4 2 C2.68 2 1.36 2 0 2 C0 1.34 0 0.68 0 0 Z " fill="#2188BE" transform="translate(1080,969)"/>
<path d="M0 0 C0.33 1.32 0.66 2.64 1 4 C-3.84492197 5.51403812 -7.2591011 4.36602172 -12 3 C-7.87960164 0.25306776 -4.92304458 0 0 0 Z " fill="#32AFDE" transform="translate(1476,824)"/>
<path d="M0 0 C2.67901932 2.31881505 3.66204403 4.31814468 4.6875 7.6875 C4.93886719 8.49574219 5.19023438 9.30398438 5.44921875 10.13671875 C5.63097656 10.75160156 5.81273437 11.36648438 6 12 C5.236875 11.690625 4.47375 11.38125 3.6875 11.0625 C1.81210323 10.32106407 -0.08684652 9.63771783 -2 9 C-1.505 7.6078125 -1.505 7.6078125 -1 6.1875 C0.14967004 3.07970709 0.14967004 3.07970709 0 0 Z " fill="#2989C5" transform="translate(1026,766)"/>
<path d="M0 0 C1.9375 0.8125 1.9375 0.8125 4 2 C4.33 2.99 4.66 3.98 5 5 C4.34 5 3.68 5 3 5 C2.67 6.32 2.34 7.64 2 9 C0.62437146 7.71034824 -0.70766393 6.37310707 -2 5 C-2 4.34 -2 3.68 -2 3 C-2.99 2.67 -3.98 2.34 -5 2 C-4.360625 1.855625 -3.72125 1.71125 -3.0625 1.5625 C-1.02454854 1.18992819 -1.02454854 1.18992819 0 0 Z " fill="#2CACDB" transform="translate(1442,675)"/>
<path d="M0 0 C2.88575819 0.39803561 3.82189513 0.79009069 5.75 3.0625 C6.36875 4.0215625 6.36875 4.0215625 7 5 C6.04287109 5.07347656 6.04287109 5.07347656 5.06640625 5.1484375 C4.24011719 5.22320313 3.41382813 5.29796875 2.5625 5.375 C1.73878906 5.44460938 0.91507813 5.51421875 0.06640625 5.5859375 C-0.95646484 5.79089844 -0.95646484 5.79089844 -2 6 C-2.33 6.66 -2.66 7.32 -3 8 C-2.67 6.35 -2.34 4.7 -2 3 C-1.34 3 -0.68 3 0 3 C0 2.01 0 1.02 0 0 Z " fill="#1B73B5" transform="translate(796,640)"/>
<path d="M0 0 C-0.33 0.66 -0.66 1.32 -1 2 C-2.4540625 2.3403125 -2.4540625 2.3403125 -3.9375 2.6875 C-5.4534375 3.3371875 -5.4534375 3.3371875 -7 4 C-8.46022435 7.52451159 -8.46022435 7.52451159 -9 11 C-10.64826111 8.03312999 -11.44271087 5.34373475 -12 2 C-10.56656 1.46809459 -9.12804633 0.94984742 -7.6875 0.4375 C-6.48673828 0.00244141 -6.48673828 0.00244141 -5.26171875 -0.44140625 C-3 -1 -3 -1 0 0 Z " fill="#2E71AE" transform="translate(644,637)"/>
<path d="M0 0 C1.0165376 3.63049144 1.65238379 7.24574497 2 11 C1.34 11.66 0.68 12.32 0 13 C-0.33 12.01 -0.66 11.02 -1 10 C-2.32 10.33 -3.64 10.66 -5 11 C-4.35474023 9.5414128 -3.7087728 8.08313863 -3.0625 6.625 C-2.70285156 5.81289063 -2.34320313 5.00078125 -1.97265625 4.1640625 C-1.3430097 2.76316215 -0.68687358 1.37374716 0 0 Z " fill="#1F5AA1" transform="translate(373,627)"/>
<path d="M0 0 C1.45880109 0.14107747 2.91703551 0.28802415 4.375 0.4375 C5.59316406 0.55931641 5.59316406 0.55931641 6.8359375 0.68359375 C9 1 9 1 11 2 C11 2.66 11 3.32 11 4 C14.3 4 17.6 4 21 4 C21 4.33 21 4.66 21 5 C16.05 5.33 11.1 5.66 6 6 C6.66 5.34 7.32 4.68 8 4 C7.05125 3.71125 6.1025 3.4225 5.125 3.125 C2 2 2 2 0 0 Z " fill="#2E6CA7" transform="translate(477,608)"/>
<path d="M0 0 C-1.98 0.66 -3.96 1.32 -6 2 C-6 2.33 -6 2.66 -6 3 C-7.95803507 3.05389087 -9.91648909 3.09274217 -11.875 3.125 C-12.96554687 3.14820313 -14.05609375 3.17140625 -15.1796875 3.1953125 C-18 3 -18 3 -20 1 C-17.41765641 0.63667026 -14.83460218 0.28405133 -12.25 -0.0625 C-11.52039062 -0.16626953 -10.79078125 -0.27003906 -10.0390625 -0.37695312 C-6.3892704 -0.85806208 -3.52327086 -1.04532842 0 0 Z " fill="#32AFDA" transform="translate(1460,828)"/>
<path d="M0 0 C0.66 0.33 1.32 0.66 2 1 C2 1.99 2 2.98 2 4 C-4.34241995 5.15316726 -10.56688704 5.09507063 -17 5 C-17 4.67 -17 4.34 -17 4 C-15.78763672 3.81824219 -15.78763672 3.81824219 -14.55078125 3.6328125 C-13.48214844 3.46523438 -12.41351562 3.29765625 -11.3125 3.125 C-10.25675781 2.96257813 -9.20101563 2.80015625 -8.11328125 2.6328125 C-5.00136449 2.10111833 -5.00136449 2.10111833 -2.23046875 0.8671875 C-1.49441406 0.58101562 -0.75835938 0.29484375 0 0 Z " fill="#3899CC" transform="translate(1192,824)"/>
<path d="M0 0 C2.63795164 1.097506 5.30669247 2.04136512 8 3 C8 3.66 8 4.32 8 5 C1.76559832 3.41039668 -4.16287645 1.72399099 -10 -1 C-10 -1.33 -10 -1.66 -10 -2 C-5.44548938 -3.43141762 -3.90023069 -2.5396851 0 0 Z " fill="#3588BE" transform="translate(996,675)"/>
<path d="M0 0 C0.66 0.33 1.32 0.66 2 1 C1.835 1.61875 1.67 2.2375 1.5 2.875 C0.79924683 7.25470729 0.92265749 11.57428989 1 16 C0.71125 15.38125 0.4225 14.7625 0.125 14.125 C-0.93720042 11.86674235 -0.93720042 11.86674235 -3 10 C-3.56949153 3.73559322 -3.56949153 3.73559322 -1.5 1.0625 C-1.005 0.711875 -0.51 0.36125 0 0 Z M-2 4 C-2 4.99 -2 5.98 -2 7 C-1.34 6.67 -0.68 6.34 0 6 C-0.66 5.34 -1.32 4.68 -2 4 Z " fill="#0E65AB" transform="translate(638,639)"/>
<path d="M0 0 C5.46864457 1.01591421 10.76390013 2.07091057 16 4 C16 4.33 16 4.66 16 5 C10.22192976 5.2358396 5.48675196 4.86783046 0 3 C0 2.01 0 1.02 0 0 Z " fill="#2372B2" transform="translate(761,624)"/>
<path d="M0 0 C0.33 0.99 0.66 1.98 1 3 C-5.02596573 4.0712828 -10.88909517 4.09945415 -17 4 C-14.06030946 2.04020631 -12.44977414 1.51679931 -9.0625 0.875 C-8.20785156 0.70742188 -7.35320313 0.53984375 -6.47265625 0.3671875 C-4 0 -4 0 0 0 Z " fill="#2773AD" transform="translate(694,731)"/>
<path d="M0 0 C0.99 0.33 1.98 0.66 3 1 C2.01 4.3 1.02 7.6 0 11 C-0.33 10.01 -0.66 9.02 -1 8 C-1.99 8 -2.98 8 -4 8 C-2.87548273 5.0280615 -1.77706209 2.66559313 0 0 Z " fill="#269FD4" transform="translate(1365,696)"/>
<path d="M0 0 C2.52631142 3.12781414 4.42373366 6.29577411 6 10 C5.67 10.99 5.34 11.98 5 13 C2.36950264 10.6200262 0.52891538 8.2107223 -1 5 C-0.6875 2.1875 -0.6875 2.1875 0 0 Z " fill="#34B0E2" transform="translate(1497,667)"/>
<path d="M0 0 C0 0.66 0 1.32 0 2 C-1.32 2 -2.64 2 -4 2 C-4.66 3.32 -5.32 4.64 -6 6 C-7.98 6 -9.96 6 -12 6 C-12 5.34 -12 4.68 -12 4 C-12.66 3.67 -13.32 3.34 -14 3 C-12.0424015 2.49713066 -10.08389623 1.9977901 -8.125 1.5 C-7.03445313 1.2215625 -5.94390625 0.943125 -4.8203125 0.65625 C-2 0 -2 0 0 0 Z M-8 6 C-6 7 -6 7 -6 7 Z " fill="#2C72B3" transform="translate(658,632)"/>
<path d="M0 0 C0.33 0.99 0.66 1.98 1 3 C-1.97 5.475 -1.97 5.475 -5 8 C-5.33 5.69 -5.66 3.38 -6 1 C-4 0 -4 0 0 0 Z " fill="#2197CF" transform="translate(1254,840)"/>
<path d="M0 0 C0.99 0 1.98 0 3 0 C3.67154933 1.28913487 4.33708859 2.58140204 5 3.875 C5.37125 4.59429688 5.7425 5.31359375 6.125 6.0546875 C7 8 7 8 7 10 C5.1875 9.875 5.1875 9.875 3 9 C1.04679411 5.79116175 0 3.7794561 0 0 Z " fill="#2061A8" transform="translate(417,768)"/>
<path d="M0 0 C2.64 0 5.28 0 8 0 C8.33 0.99 8.66 1.98 9 3 C10.29355827 4.37195574 11.62298702 5.71182656 13 7 C8.1725201 5.58707905 4.2837641 3.57025846 0 1 C0 0.67 0 0.34 0 0 Z " fill="#3080B9" transform="translate(888,753)"/>
<path d="M0 0 C3.17218843 3.62535821 4.42902597 7.51150278 6 12 C5.01 12.495 5.01 12.495 4 13 C2 10 2 10 1 7 C0.01 7 -0.98 7 -2 7 C-1.34 4.69 -0.68 2.38 0 0 Z " fill="#2F9DD1" transform="translate(1266,675)"/>
<path d="M0 0 C0.99 0 1.98 0 3 0 C2.88512252 1.58409994 2.75765492 3.16728963 2.625 4.75 C2.55539062 5.63171875 2.48578125 6.5134375 2.4140625 7.421875 C2.00149945 9.99066382 1.28839043 11.75841015 0 14 C-0.66 14 -1.32 14 -2 14 C-2 12.02 -2 10.04 -2 8 C-1.67 8 -1.34 8 -1 8 C-0.67 5.36 -0.34 2.72 0 0 Z " fill="#219AD5" transform="translate(1268,809)"/>
<path d="M0 0 C0.99 0 1.98 0 3 0 C2.38857603 7.45937249 2.38857603 7.45937249 0.5625 10 C-1 11 -1 11 -3 11 C-2.01 7.37 -1.02 3.74 0 0 Z " fill="#EAF4F6" transform="translate(1274,805)"/>
<path d="M0 0 C0 1.65 0 3.3 0 5 C-8.03571429 4.19642857 -8.03571429 4.19642857 -12 2 C-10.37548581 1.66430703 -8.75037083 1.3315204 -7.125 1 C-6.22007812 0.814375 -5.31515625 0.62875 -4.3828125 0.4375 C-2 0 -2 0 0 0 Z " fill="#2A7FBC" transform="translate(886,867)"/>
<path d="M0 0 C-0.33 0.66 -0.66 1.32 -1 2 C-3.31 2 -5.62 2 -8 2 C-8.33 2.66 -8.66 3.32 -9 4 C-11.64 3.67 -14.28 3.34 -17 3 C-17 2.67 -17 2.34 -17 2 C-14.91952703 1.4678559 -12.83547707 0.94968214 -10.75 0.4375 C-9.58984375 0.14746094 -8.4296875 -0.14257812 -7.234375 -0.44140625 C-4.27909017 -0.95179964 -2.75565899 -1.02996165 0 0 Z " fill="#E6EFF3" transform="translate(593,867)"/>
<path d="M0 0 C0.33 0 0.66 0 1 0 C1 2.64 1 5.28 1 8 C1.66 8 2.32 8 3 8 C3 10.64 3 13.28 3 16 C2.01 15.34 1.02 14.68 0 14 C-0.546875 10.99609375 -0.546875 10.99609375 -0.75 7.4375 C-0.82734375 6.26058594 -0.9046875 5.08367188 -0.984375 3.87109375 C-0.98953125 2.92363281 -0.9946875 1.97617187 -1 1 C-0.67 0.67 -0.34 0.34 0 0 Z " fill="#309CCF" transform="translate(1225,728)"/>
<path d="M0 0 C0.66 0.33 1.32 0.66 2 1 C2 1.99 2 2.98 2 4 C1.01 4.495 1.01 4.495 0 5 C-0.28875 5.66 -0.5775 6.32 -0.875 7 C-2 9 -2 9 -4.125 9.75 C-5.053125 9.87375 -5.053125 9.87375 -6 10 C-4.79157144 5.56909529 -3.48331435 3.01887244 0 0 Z " fill="#E4EFF4" transform="translate(920,676)"/>
<path d="M0 0 C4.23429756 1.31061591 8.07407404 2.94356259 12 5 C12 5.33 12 5.66 12 6 C8.7 5.67 5.4 5.34 2 5 C1.34 3.35 0.68 1.7 0 0 Z " fill="#2B96CC" transform="translate(1217,632)"/>
<path d="M0 0 C2.58422459 0.11418667 5.16679513 0.24092362 7.75 0.375 C8.47960938 0.4059375 9.20921875 0.436875 9.9609375 0.46875 C13.73942656 0.6748494 16.77946668 0.91512843 20 3 C17.6739143 3.38063221 15.33944736 3.71269945 13 4 C12.67 3.67 12.34 3.34 12 3 C9.98688551 2.60430892 7.96402792 2.25747809 5.9375 1.9375 C4.28041016 1.67259766 4.28041016 1.67259766 2.58984375 1.40234375 C1.73519531 1.26957031 0.88054687 1.13679687 0 1 C0 0.67 0 0.34 0 0 Z " fill="#40BEEC" transform="translate(1664,624)"/>
<path d="M0 0 C-0.1875 1.8125 -0.1875 1.8125 -1 4 C-3.3125 5.8125 -3.3125 5.8125 -6 7 C-8.3125 6.6875 -8.3125 6.6875 -10 6 C-2.6 0 -2.6 0 0 0 Z " fill="#1D5DA4" transform="translate(420,583)"/>
<path d="M0 0 C0.99 0.495 0.99 0.495 2 1 C2 1.99 2 2.98 2 4 C2.66 4 3.32 4 4 4 C4.625 6.8125 4.625 6.8125 5 10 C4.01 11.485 4.01 11.485 3 13 C0.89172945 9.83759418 0.66182535 8.49342531 0.375 4.8125 C0.30023437 3.91144531 0.22546875 3.01039063 0.1484375 2.08203125 C0.09945313 1.39496094 0.05046875 0.70789063 0 0 Z " fill="#2DAAE2" transform="translate(1451,688)"/>
<path d="M0 0 C4.50802601 1.25805377 7.4912812 2.90407165 11 6 C8.24921116 6.91692961 6.64051087 7.10886083 3.8125 7.0625 C1.9253125 7.0315625 1.9253125 7.0315625 0 7 C0 6.67 0 6.34 0 6 C1.98 6 3.96 6 6 6 C6 5.34 6 4.68 6 4 C3.03 3.505 3.03 3.505 0 3 C0 2.01 0 1.02 0 0 Z " fill="#33AADB" transform="translate(1458,631)"/>
<path d="M0 0 C2.31 0.33 4.62 0.66 7 1 C7 1.66 7 2.32 7 3 C1.25 6 1.25 6 -1 6 C-0.67 4.02 -0.34 2.04 0 0 Z " fill="#0D67AB" transform="translate(654,634)"/>
<path d="M0 0 C1.258125 0.12375 2.51625 0.2475 3.8125 0.375 C4.87404297 0.47941406 4.87404297 0.47941406 5.95703125 0.5859375 C8 1 8 1 11 3 C11.33 3.99 11.66 4.98 12 6 C10.02 6 8.04 6 6 6 C5.67 5.01 5.34 4.02 5 3 C2.49552484 1.78130071 2.49552484 1.78130071 0 1 C0 0.67 0 0.34 0 0 Z " fill="#0B61AA" transform="translate(548,608)"/>
<path d="M0 0 C0 0.33 0 0.66 0 1 C-2.06081361 1.50690584 -4.12373526 2.00524619 -6.1875 2.5 C-7.91033203 2.91765625 -7.91033203 2.91765625 -9.66796875 3.34375 C-12.56818829 3.91495385 -15.06096385 4.13283779 -18 4 C-13.08124136 -0.91875864 -6.47794906 -0.23044088 0 0 Z " fill="#2D68A9" transform="translate(589,866)"/>
<path d="M0 0 C4.95 0.99 4.95 0.99 10 2 C10 2.66 10 3.32 10 4 C10.99 4.66 11.98 5.32 13 6 C7.57689095 5.56615128 4.29855944 4.35497322 0 1 C0 0.67 0 0.34 0 0 Z " fill="#3172AF" transform="translate(641,857)"/>
<path d="M0 0 C2.6875 -0.3125 2.6875 -0.3125 5 0 C5 0.66 5 1.32 5 2 C5.33 2.66 5.66 3.32 6 4 C3.04335481 5.4783226 0.25770263 5.06032783 -3 5 C-1.8125 2.5 -1.8125 2.5 0 0 Z " fill="#0D64AB" transform="translate(649,746)"/>
<path d="M0 0 C2.44553939 3.66830909 2.95607424 6.63377915 3 11 C2.0625 13.5 2.0625 13.5 1 15 C1 13.35 1 11.7 1 10 C0.34 10 -0.32 10 -1 10 C-0.67 6.7 -0.34 3.4 0 0 Z " fill="#39A1D7" transform="translate(1274,694)"/>
<path d="M0 0 C0.99 0.33 1.98 0.66 3 1 C2.67 1.66 2.34 2.32 2 3 C4.97 3 7.94 3 11 3 C11 3.33 11 3.66 11 4 C4.07 5.485 4.07 5.485 -3 7 C-3 5 -3 5 -1 3 C-0.67 2.01 -0.34 1.02 0 0 Z " fill="#2279B5" transform="translate(931,665)"/>
<path d="M0 0 C5.05255964 0.63156995 9.29593201 2.13459373 14 4 C11 6 11 6 7 6 C6.34 5.01 5.68 4.02 5 3 C2.44816596 1.79549696 2.44816596 1.79549696 0 1 C0 0.67 0 0.34 0 0 Z " fill="#30ABDB" transform="translate(1444,626)"/>
<path d="M0 0 C-1.32 0.33 -2.64 0.66 -4 1 C-4 1.66 -4 2.32 -4 3 C-7.96 3 -11.92 3 -16 3 C-10.2532008 0.1266004 -6.34447099 -0.10574118 0 0 Z " fill="#2C91CC" transform="translate(1160,873)"/>
<path d="M0 0 C1.875 0.3125 1.875 0.3125 4 1 C6 4 6 4 6 7 C3.13275314 6.42655063 2.1385485 6.1385485 0 4 C0 2.68 0 1.36 0 0 Z " fill="#1C6AAB" transform="translate(634,848)"/>
<path d="M0 0 C0.66 0 1.32 0 2 0 C2.99 3.96 3.98 7.92 5 12 C4.34 12 3.68 12 3 12 C2.896875 11.21625 2.79375 10.4325 2.6875 9.625 C2.22404978 6.66954819 2.22404978 6.66954819 -1 5 C-0.67 3.35 -0.34 1.7 0 0 Z " fill="#306EAF" transform="translate(590,832)"/>
<path d="M0 0 C1.5625 1.625 1.5625 1.625 3 4 C2.6875 7.25 2.6875 7.25 2 10 C1.01 10.33 0.02 10.66 -1 11 C-1.02688151 9.35425434 -1.04634123 7.70838587 -1.0625 6.0625 C-1.07410156 5.14597656 -1.08570313 4.22945312 -1.09765625 3.28515625 C-1 1 -1 1 0 0 Z " fill="#1264A5" transform="translate(629,763)"/>
<path d="M0 0 C0.680625 0.5775 1.36125 1.155 2.0625 1.75 C2.0625 2.41 2.0625 3.07 2.0625 3.75 C-6.50892857 2.89285714 -6.50892857 2.89285714 -9.9375 0.75 C-3.69913095 -1.57409827 -3.69913095 -1.57409827 0 0 Z " fill="#44C1EA" transform="translate(1687.9375,675.25)"/>
<path d="M0 0 C0.99 0 1.98 0 3 0 C1.5361389 4.39158329 -0.97831338 4.87947433 -5 7 C-5 6.01 -5 5.02 -5 4 C-5.66 3.34 -6.32 2.68 -7 2 C-3.86650268 0.95550089 -3.01031744 1.06576355 0 2 C0 1.34 0 0.68 0 0 Z " fill="#235DA4" transform="translate(450,625)"/>
<path d="M0 0 C1.5 1.375 1.5 1.375 3 3 C3 3.66 3 4.32 3 5 C3.66 5 4.32 5 5 5 C5 6.98 5 8.96 5 11 C1.66442368 8.0094833 -0.15083921 5.06815373 -2 1 C-1.34 0.67 -0.68 0.34 0 0 Z " fill="#2F74AF" transform="translate(626,837)"/>
<path d="M0 0 C2.64 0 5.28 0 8 0 C7.67 0.99 7.34 1.98 7 3 C6.01 3 5.02 3 4 3 C4 2.34 4 1.68 4 1 C2.68 0.67 1.36 0.34 0 0 Z M3.1875 3.375 C4.115625 3.58125 5.04375 3.7875 6 4 C6 4.33 6 4.66 6 5 C3.03 5 0.06 5 -3 5 C0 3 0 3 3.1875 3.375 Z " fill="#E0F0F5" transform="translate(1416,825)"/>
<path d="M0 0 C2.97 1.65 5.94 3.3 9 5 C5 7 5 7 2.75 6.625 C2.1725 6.41875 1.595 6.2125 1 6 C1 5.34 1 4.68 1 4 C0.34 4 -0.32 4 -1 4 C-0.67 2.68 -0.34 1.36 0 0 Z " fill="#2EA2D9" transform="translate(1379,817)"/>
<path d="M0 0 C-0.66 1.65 -1.32 3.3 -2 5 C-4.31 4.67 -6.62 4.34 -9 4 C-9 3.34 -9 2.68 -9 2 C-3.375 0 -3.375 0 0 0 Z " fill="#2B82BA" transform="translate(939,768)"/>
<path d="M0 0 C0.99 0 1.98 0 3 0 C2.38545304 3.99455527 0.29353263 6.74466336 -2 10 C-2.66 9.67 -3.32 9.34 -4 9 C-2.80100302 5.9168649 -1.52299523 2.93720508 0 0 Z " fill="#31A5D5" transform="translate(1372,685)"/>
<path d="M0 0 C2.875 -0.125 2.875 -0.125 6 0 C8 2 8 2 8 4 C5.36 4.33 2.72 4.66 0 5 C0.66 4.67 1.32 4.34 2 4 C2 3.34 2 2.68 2 2 C1.34 2 0.68 2 0 2 C0 1.34 0 0.68 0 0 Z " fill="#1967A8" transform="translate(664,673)"/>
<path d="M0 0 C0.625 1.8125 0.625 1.8125 1 4 C0.01 5.485 0.01 5.485 -1 7 C-1 7.66 -1 8.32 -1 9 C-1.66 9 -2.32 9 -3 9 C-3.66 10.32 -4.32 11.64 -5 13 C-5.33 12.34 -5.66 11.68 -6 11 C-5.0390625 8.65234375 -5.0390625 8.65234375 -3.625 5.9375 C-2.93277344 4.58978516 -2.93277344 4.58978516 -2.2265625 3.21484375 C-1 1 -1 1 0 0 Z " fill="#E7EEF5" transform="translate(427,653)"/>
<path d="M0 0 C5.75 0.75 5.75 0.75 8 3 C5.69 4.32 3.38 5.64 1 7 C1 3 1 3 2 1 C1.34 0.67 0.68 0.34 0 0 Z " fill="#EAF5F7" transform="translate(1344,634)"/>
<path d="M0 0 C2.10544013 0.28232721 4.20933589 0.5761898 6.3125 0.875 C7.48425781 1.03742187 8.65601563 1.19984375 9.86328125 1.3671875 C13 2 13 2 16 4 C14.02 4.33 12.04 4.66 10 5 C10 4.67 10 4.34 10 4 C6.7 3.34 3.4 2.68 0 2 C0 1.34 0 0.68 0 0 Z " fill="#2C7EB7" transform="translate(899,824)"/>
<path d="M0 0 C3.3 1.65 6.6 3.3 10 5 C10 5.33 10 5.66 10 6 C8.35 6 6.7 6 5 6 C5 5.34 5 4.68 5 4 C4.01 4 3.02 4 2 4 C1.67 4.66 1.34 5.32 1 6 C0.01 5.34 -0.98 4.68 -2 4 C-1.34 3.34 -0.68 2.68 0 2 C0 1.34 0 0.68 0 0 Z " fill="#2360A3" transform="translate(451,809)"/>
<path d="M0 0 C0.66 0 1.32 0 2 0 C2 4.29 2 8.58 2 13 C0.02 13.99 0.02 13.99 -2 15 C-1.67 14.01 -1.34 13.02 -1 12 C0.1865126 7.91405167 0.14865179 4.23657606 0 0 Z " fill="#2E84BD" transform="translate(979,800)"/>
<path d="M0 0 C0 2.64 0 5.28 0 8 C-1.32 8 -2.64 8 -4 8 C-4 5.69 -4 3.38 -4 1 C-1 0 -1 0 0 0 Z " fill="#1394D0" transform="translate(1230,728)"/>
<path d="M0 0 C4.29 0 8.58 0 13 0 C13.33 0.66 13.66 1.32 14 2 C11.36 2.33 8.72 2.66 6 3 C6 2.34 6 1.68 6 1 C4.02 1 2.04 1 0 1 C0 0.67 0 0.34 0 0 Z " fill="#367DBC" transform="translate(754,729)"/>
<path d="M0 0 C0.66 0 1.32 0 2 0 C2.50471197 1.76949612 3.00360685 3.54065223 3.5 5.3125 C3.7784375 6.29863281 4.056875 7.28476562 4.34375 8.30078125 C5 11 5 11 5 14 C4.34 14 3.68 14 3 14 C2.49307308 12.4188708 1.99473557 10.83498617 1.5 9.25 C1.2215625 8.36828125 0.943125 7.4865625 0.65625 6.578125 C0 4 0 4 0 0 Z " fill="#42AFDB" transform="translate(1507,842)"/>
<path d="M0 0 C0.8353125 0.556875 0.8353125 0.556875 1.6875 1.125 C0.3675 1.125 -0.9525 1.125 -2.3125 1.125 C-2.3125 2.445 -2.3125 3.765 -2.3125 5.125 C-2.9725 5.125 -3.6325 5.125 -4.3125 5.125 C-4.3125 4.465 -4.3125 3.805 -4.3125 3.125 C-6.2925 3.125 -8.2725 3.125 -10.3125 3.125 C-3.58836207 -1.35775862 -3.58836207 -1.35775862 0 0 Z " fill="#2E84BD" transform="translate(970.3125,822.875)"/>
<path d="M0 0 C2.15377564 2.62198774 3.40072174 4.64404172 4 8 C2.68 8.33 1.36 8.66 0 9 C-0.84454356 5.62182575 -1.10844919 3.32534757 0 0 Z " fill="#E4F2F6" transform="translate(1308,815)"/>
<path d="M0 0 C1.32 0 2.64 0 4 0 C4 0.99 4 1.98 4 3 C4.66 3.33 5.32 3.66 6 4 C6 5.65 6 7.3 6 9 C2.91910327 6.22719294 1.31224548 3.93673644 0 0 Z " fill="#275FA4" transform="translate(376,813)"/>
<path d="M0 0 C1.98 0 3.96 0 6 0 C6 0.66 6 1.32 6 2 C7.98 2 9.96 2 12 2 C9 4 9 4 6 3.6875 C3 3 3 3 0 2 C0 1.34 0 0.68 0 0 Z " fill="#196BA6" transform="translate(693,761)"/>
<path d="M0 0 C2.64 0.99 5.28 1.98 8 3 C8 3.33 8 3.66 8 4 C6.35 4 4.7 4 3 4 C3 4.66 3 5.32 3 6 C1.68 6 0.36 6 -1 6 C-1.33 5.01 -1.66 4.02 -2 3 C-1.34 2.67 -0.68 2.34 0 2 C0 1.34 0 0.68 0 0 Z " fill="#1F7BB5" transform="translate(931,713)"/>
<path d="M0 0 C2.97 0.33 5.94 0.66 9 1 C4.60171741 3.1991413 1.81449408 3.51855059 -3 4 C-2.34 3.67 -1.68 3.34 -1 3 C-0.67 2.01 -0.34 1.02 0 0 Z " fill="#3772AD" transform="translate(561,869)"/>
<path d="M0 0 C0.66 0.33 1.32 0.66 2 1 C2.625 4.0625 2.625 4.0625 3 7 C3.66 7 4.32 7 5 7 C4.67 7.99 4.34 8.98 4 10 C1.5 8.3125 1.5 8.3125 -1 6 C-1.375 3.3125 -1.375 3.3125 -1 1 C-0.67 0.67 -0.34 0.34 0 0 Z " fill="#2298D3" transform="translate(1257,825)"/>
<path d="M0 0 C0.86625 0.556875 0.86625 0.556875 1.75 1.125 C-5 5.125 -5 5.125 -7.25 5.125 C-7 3.25 -7 3.25 -6.25 1.125 C-3.78477471 -0.74517091 -2.92889069 -1.13901305 0 0 Z " fill="#EAF4F6" transform="translate(1200.25,818.875)"/>
<path d="M0 0 C0.66 1.32 1.32 2.64 2 4 C0 7 0 7 -3.125 7.6875 C-4.07375 7.790625 -5.0225 7.89375 -6 8 C-4.02 5.36 -2.04 2.72 0 0 Z " fill="#2E99CF" transform="translate(1213,808)"/>
<path d="M0 0 C0.66 0 1.32 0 2 0 C2 0.66 2 1.32 2 2 C3.98 2.66 5.96 3.32 8 4 C8 5.65 8 7.3 8 9 C6.84775972 8.07038578 5.70340824 7.1309875 4.5625 6.1875 C3.60537109 5.40439453 3.60537109 5.40439453 2.62890625 4.60546875 C1 3 1 3 0 0 Z " fill="#3D84BB" transform="translate(868,736)"/>
<path d="M0 0 C1.0625 1.875 1.0625 1.875 2 4 C1.67 4.66 1.34 5.32 1 6 C0.34 6 -0.32 6 -1 6 C-1.33 8.31 -1.66 10.62 -2 13 C-2.66 13 -3.32 13 -4 13 C-3.52343588 11.20763933 -3.04366502 9.41613103 -2.5625 7.625 C-2.29566406 6.62726562 -2.02882813 5.62953125 -1.75390625 4.6015625 C-1 2 -1 2 0 0 Z " fill="#44A6D5" transform="translate(1309,691)"/>
<path d="M0 0 C0.66 0 1.32 0 2 0 C4 2 4 2 5 5 C0.125 6 0.125 6 -1 6 C-1.042721 4.33388095 -1.04063832 2.66617115 -1 1 C-0.67 0.67 -0.34 0.34 0 0 Z " fill="#1B97D3" transform="translate(1265,682)"/>
<path d="M0 0 C0.33 0 0.66 0 1 0 C1.49230769 7.38461538 1.49230769 7.38461538 -1 10.5 C-1.66 10.995 -2.32 11.49 -3 12 C-2.69106068 10.3743193 -2.3777305 8.74947252 -2.0625 7.125 C-1.88847656 6.22007812 -1.71445312 5.31515625 -1.53515625 4.3828125 C-1 2 -1 2 0 0 Z " fill="#2C7BB7" transform="translate(860,672)"/>
<path d="M0 0 C1.06546953 3.1964086 1.07427838 5.65747276 1 9 C2.32 9.33 3.64 9.66 5 10 C3.35 10.33 1.7 10.66 0 11 C-0.38909985 9.54536519 -0.76088029 8.08608793 -1.125 6.625 C-1.33382812 5.81289063 -1.54265625 5.00078125 -1.7578125 4.1640625 C-1.83773437 3.44992187 -1.91765625 2.73578125 -2 2 C-1.34 1.34 -0.68 0.68 0 0 Z " fill="#256BA9" transform="translate(646,672)"/>
<path d="M0 0 C6.42857143 4.14285714 6.42857143 4.14285714 9 7 C6.69 7 4.38 7 2 7 C1.855625 6.401875 1.71125 5.80375 1.5625 5.1875 C1.1127561 3.43849596 0.57107659 1.71322977 0 0 Z " fill="#E9F5F9" transform="translate(1431,672)"/>
<path d="M0 0 C2 3 2 3 1.64453125 4.97265625 C1.36996094 5.66230469 1.09539062 6.35195313 0.8125 7.0625 C0.55082031 7.75472656 0.28914063 8.44695313 0.01953125 9.16015625 C-1 11 -1 11 -4 13 C-3.52343588 11.20763933 -3.04366502 9.41613103 -2.5625 7.625 C-2.29566406 6.62726562 -2.02882813 5.62953125 -1.75390625 4.6015625 C-1 2 -1 2 0 0 Z " fill="#DCE7F3" transform="translate(420,666)"/>
<path d="M0 0 C3.32532111 2.69192661 4.52454943 6.06546515 6 10 C6 10.99 6 11.98 6 13 C5.01 12.67 4.02 12.34 3 12 C2.87625 11.236875 2.7525 10.47375 2.625 9.6875 C2.11897208 6.79732864 2.11897208 6.79732864 0 4 C-0.33 3.34 -0.66 2.68 -1 2 C-0.67 1.34 -0.34 0.68 0 0 Z " fill="#3579B5" transform="translate(810,654)"/>
<path d="M0 0 C1.09658936 3.28976808 0.79953138 4.71303767 0 8 C-0.66 8 -1.32 8 -2 8 C-2 7.34 -2 6.68 -2 6 C-2.99 5.67 -3.98 5.34 -5 5 C-3.35 3.35 -1.7 1.7 0 0 Z " fill="#257AB6" transform="translate(876,648)"/>
<path d="M0 0 C-0.99 0 -1.98 0 -3 0 C-3.33 0.99 -3.66 1.98 -4 3 C-5.32 2.67 -6.64 2.34 -8 2 C-8.33 2.66 -8.66 3.32 -9 4 C-9.99 3.34 -10.98 2.68 -12 2 C-10.75579353 1.4654744 -9.50429064 0.94791389 -8.25 0.4375 C-7.55390625 0.14746094 -6.8578125 -0.14257812 -6.140625 -0.44140625 C-3.69987216 -1.07831803 -2.3596345 -0.80248831 0 0 Z M-6 3 C-5.34 3.66 -4.68 4.32 -4 5 C-4.66 5 -5.32 5 -6 5 C-6 4.34 -6 3.68 -6 3 Z " fill="#3FA6D8" transform="translate(1376,627)"/>
<path d="M0 0 C0.99 1.32 1.98 2.64 3 4 C2.34 4 1.68 4 1 4 C0.67 4.66 0.34 5.32 0 6 C-0.99 6.495 -0.99 6.495 -2 7 C-2.99 6.34 -3.98 5.68 -5 5 C-3.35 3.35 -1.7 1.7 0 0 Z " fill="#235FA3" transform="translate(396,599)"/>
<path d="M0 0 C2.625 1.4375 2.625 1.4375 5 3 C4.67 3.66 4.34 4.32 4 5 C1.69 4.67 -0.62 4.34 -3 4 C-2.67 3.01 -2.34 2.02 -2 1 C-1.34 0.67 -0.68 0.34 0 0 Z " fill="#F5F7FA" transform="translate(1333,850)"/>
<path d="M0 0 C3.00617269 3.00617269 2.59585316 5.82381598 3 10 C2.34 10 1.68 10 1 10 C0.67 8.35 0.34 6.7 0 5 C-0.66 5 -1.32 5 -2 5 C-2 4.01 -2 3.02 -2 2 C-1.34 2 -0.68 2 0 2 C0 1.34 0 0.68 0 0 Z " fill="#1AACE6" transform="translate(1507,846)"/>
<path d="M0 0 C4.29 0.33 8.58 0.66 13 1 C13 1.33 13 1.66 13 2 C10.02148438 2.34179688 10.02148438 2.34179688 7.04296875 2.68359375 C4.80603607 2.97170735 4.80603607 2.97170735 2 4 C1.34 2.68 0.68 1.36 0 0 Z " fill="#1E78B6" transform="translate(915,827)"/>
<path d="M0 0 C1.65 0 3.3 0 5 0 C5 0.99 5 1.98 5 3 C5.804375 3.12375 6.60875 3.2475 7.4375 3.375 C8.7059375 3.684375 8.7059375 3.684375 10 4 C10.33 4.66 10.66 5.32 11 6 C9.3501725 5.57781184 7.70516335 5.13675575 6.0625 4.6875 C5.14597656 4.44386719 4.22945312 4.20023438 3.28515625 3.94921875 C2.53105469 3.63597656 1.77695312 3.32273437 1 3 C0.67 2.01 0.34 1.02 0 0 Z " fill="#2C81BB" transform="translate(907,761)"/>
<path d="M0 0 C1.5625 1.0625 1.5625 1.0625 3 3 C2.6875 6.6875 2.6875 6.6875 2 10 C1.34 10 0.68 10 0 10 C0 8.02 0 6.04 0 4 C-0.66 4 -1.32 4 -2 4 C-2 3.34 -2 2.68 -2 2 C-1.34 2 -0.68 2 0 2 C0 1.34 0 0.68 0 0 Z " fill="#1696D1" transform="translate(1221,704)"/>
<path d="M0 0 C0.33 0 0.66 0 1 0 C0.88557539 1.60495567 0.75805306 3.20898119 0.625 4.8125 C0.55539062 5.70582031 0.48578125 6.59914063 0.4140625 7.51953125 C0 10 0 10 -2 13 C-2.05447047 11.58376784 -2.09300508 10.16691809 -2.125 8.75 C-2.14820313 7.96109375 -2.17140625 7.1721875 -2.1953125 6.359375 C-1.9828378 3.79268059 -1.28654105 2.2083933 0 0 Z " fill="#2B5FA4" transform="translate(414,680)"/>
<path d="M0 0 C0.99 0.33 1.98 0.66 3 1 C3 3.31 3 5.62 3 8 C1.68 8.33 0.36 8.66 -1 9 C-0.67 6.03 -0.34 3.06 0 0 Z " fill="#E7F8FC" transform="translate(1700,629)"/>
<path d="M0 0 C-0.66 0 -1.32 0 -2 0 C-2 0.66 -2 1.32 -2 2 C-5.96 1.67 -9.92 1.34 -14 1 C-14 0.67 -14 0.34 -14 0 C-12.41773035 -0.19627391 -10.83410729 -0.38165538 -9.25 -0.5625 C-8.36828125 -0.66691406 -7.4865625 -0.77132812 -6.578125 -0.87890625 C-4.11567549 -0.99456676 -2.33461936 -0.73638695 0 0 Z " fill="#418CC2" transform="translate(960,827)"/>
<path d="M0 0 C2.05078125 0.03255208 4.1015625 0.06510417 6.15234375 0.09765625 C6.15234375 0.75765625 6.15234375 1.41765625 6.15234375 2.09765625 C2.77734375 2.72265625 2.77734375 2.72265625 -0.84765625 3.09765625 C-1.50765625 2.43765625 -2.16765625 1.77765625 -2.84765625 1.09765625 C-1.84765625 0.09765625 -1.84765625 0.09765625 0 0 Z " fill="#F8F8F9" transform="translate(1170.84765625,825.90234375)"/>
<path d="M0 0 C1.98 0 3.96 0 6 0 C6.33 0.99 6.66 1.98 7 3 C5.02 3.99 5.02 3.99 3 5 C1.68 4.01 0.36 3.02 -1 2 C-0.67 1.34 -0.34 0.68 0 0 Z " fill="#EEF5F8" transform="translate(966,817)"/>
<path d="M0 0 C0.33 0 0.66 0 1 0 C1.21192221 5.19209404 0.5912689 9.126739 -1 14 C-1.33 14 -1.66 14 -2 14 C-2.1799928 8.78020872 -1.97094808 4.92737019 0 0 Z " fill="#3A75B2" transform="translate(619,784)"/>
<path d="M0 0 C1.65 0 3.3 0 5 0 C4.34 2.64 3.68 5.28 3 8 C2.34 7.67 1.68 7.34 1 7 C0.59270772 4.67843403 0.25561323 2.3431213 0 0 Z " fill="#F2F7F8" transform="translate(1360,774)"/>
<path d="M0 0 C3.44165321 0.35299007 5.06872538 1.04581692 8 3 C3.94568308 4.15837626 1.78187881 3.83691257 -2 2 C-1.34 1.34 -0.68 0.68 0 0 Z " fill="#F1F4F5" transform="translate(903,762)"/>
<path d="M0 0 C2 2 2 2 2.25 5.5 C2 9 2 9 0 11 C-1.125 3.375 -1.125 3.375 0 0 Z " fill="#2561AA" transform="translate(356,669)"/>
<path d="M0 0 C6.75 0.75 6.75 0.75 9 3 C5.7 3 2.4 3 -1 3 C-0.67 2.01 -0.34 1.02 0 0 Z " fill="#EBF6F9" transform="translate(1419,668)"/>
<path d="M0 0 C1.32 0.33 2.64 0.66 4 1 C2.70700306 3.88437779 1.34058637 5.87219421 -1 8 C-1.93065133 5.39417629 -2.14917407 4.35801776 -1.0625 1.75 C-0.711875 1.1725 -0.36125 0.595 0 0 Z " fill="#215EA3" transform="translate(431,640)"/>
<path d="M0 0 C2.97 0.495 2.97 0.495 6 1 C5.67 4.3 5.34 7.6 5 11 C4.67 11 4.34 11 4 11 C3.67 8.36 3.34 5.72 3 3 C2.01 2.67 1.02 2.34 0 2 C0 1.34 0 0.68 0 0 Z " fill="#326DA7" transform="translate(592,573)"/>
<path d="M0 0 C2.64 0.33 5.28 0.66 8 1 C8 1.66 8 2.32 8 3 C8.99 3 9.98 3 11 3 C11 3.66 11 4.32 11 5 C9.53932801 4.54917531 8.08151968 4.08906463 6.625 3.625 C5.81289063 3.36976563 5.00078125 3.11453125 4.1640625 2.8515625 C2 2 2 2 0 0 Z " fill="#356AA6" transform="translate(432,862)"/>
<path d="M0 0 C0.99 0.33 1.98 0.66 3 1 C2.67 4.3 2.34 7.6 2 11 C-0.67927341 6.98108988 -0.15601248 4.75838077 0 0 Z " fill="#3273AF" transform="translate(617,810)"/>
<path d="M0 0 C0.66 0.33 1.32 0.66 2 1 C2 1.33 2 1.66 2 2 C2.66 2 3.32 2 4 2 C4 2.99 4 3.98 4 5 C1.36 5 -1.28 5 -4 5 C-2.68 3.35 -1.36 1.7 0 0 Z " fill="#1663A7" transform="translate(636,755)"/>
<path d="M0 0 C0.66 0.33 1.32 0.66 2 1 C1.67 1.99 1.34 2.98 1 4 C2.32 4.66 3.64 5.32 5 6 C1.00095031 6 -0.80200422 4.27413033 -4 2 C-2.125 0.9375 -2.125 0.9375 0 0 Z " fill="#3681B7" transform="translate(883,746)"/>
<path d="M0 0 C3.63 0 7.26 0 11 0 C7.31265242 2.45823172 4.30300029 3.01242616 0 4 C0 2.68 0 1.36 0 0 Z " fill="#30A6D5" transform="translate(1394,666)"/>
<path d="M0 0 C0 0.99 0 1.98 0 3 C-6.96428571 5.27678571 -6.96428571 5.27678571 -11 4 C-9.5437455 3.32880451 -8.08492133 2.66318193 -6.625 2 C-5.81289062 1.62875 -5.00078125 1.2575 -4.1640625 0.875 C-2 0 -2 0 0 0 Z " fill="#348FC4" transform="translate(1082,640)"/>
<path d="M0 0 C0 0.66 0 1.32 0 2 C-2.97 2 -5.94 2 -9 2 C-9 1.34 -9 0.68 -9 0 C-5.52176885 -1.15941038 -3.54104422 -0.70820884 0 0 Z " fill="#258FC8" transform="translate(1188,874)"/>
<path d="M0 0 C0.66 0.33 1.32 0.66 2 1 C2 1.99 2 2.98 2 4 C-1.33333333 7 -1.33333333 7 -4 7 C-3.6875 4.625 -3.6875 4.625 -3 2 C-2.01 1.34 -1.02 0.68 0 0 Z " fill="#ECF5F7" transform="translate(1238,857)"/>
<path d="M0 0 C-0.33 1.32 -0.66 2.64 -1 4 C-3.91517292 2.92598892 -5.77810176 2.22189824 -8 0 C-4.71303767 -0.79953138 -3.28976808 -1.09658936 0 0 Z " fill="#235DA1" transform="translate(432,858)"/>
<path d="M0 0 C1.95216435 3.90432869 2.50639991 6.72213252 3 11 C2.01 10.67 1.02 10.34 0 10 C0 6.7 0 3.4 0 0 Z " fill="#3873AB" transform="translate(595,845)"/>
<path d="M0 0 C1.32 0.66 2.64 1.32 4 2 C2.35 3.32 0.7 4.64 -1 6 C-1.625 4.125 -1.625 4.125 -2 2 C-1.34 1.34 -0.68 0.68 0 0 Z " fill="#309BD2" transform="translate(1243,849)"/>
<path d="M0 0 C0 1.65 0 3.3 0 5 C-1.32 5 -2.64 5 -4 5 C-4.33 4.01 -4.66 3.02 -5 2 C-1.125 0 -1.125 0 0 0 Z " fill="#0E64AC" transform="translate(632,836)"/>
<path d="M0 0 C0.66 0.33 1.32 0.66 2 1 C0.68 3.31 -0.64 5.62 -2 8 C-2.66 7.01 -3.32 6.02 -4 5 C-2.25 1.125 -2.25 1.125 0 0 Z " fill="#3099CD" transform="translate(1265,824)"/>
<path d="M0 0 C2.64 0 5.28 0 8 0 C8 0.99 8 1.98 8 3 C5.36 3 2.72 3 0 3 C0 2.01 0 1.02 0 0 Z " fill="#D7E3ED" transform="translate(920,825)"/>
<path d="M0 0 C2.1385485 2.1385485 2.42655063 3.13275314 3 6 C2.01 6 1.02 6 0 6 C-1.6875 4 -1.6875 4 -3 2 C-2.01 1.34 -1.02 0.68 0 0 Z " fill="#ECF0F7" transform="translate(437,791)"/>
<path d="M0 0 C1.32 1.32 2.64 2.64 4 4 C2.35 4.66 0.7 5.32 -1 6 C-1.33 4.68 -1.66 3.36 -2 2 C-1.34 2 -0.68 2 0 2 C0 1.34 0 0.68 0 0 Z " fill="#EBF2F4" transform="translate(755,682)"/>
<path d="M0 0 C0.33 1.32 0.66 2.64 1 4 C-0.9375 6.25 -0.9375 6.25 -3 8 C-3.99 7.67 -4.98 7.34 -6 7 C-4.02 4.69 -2.04 2.38 0 0 Z " fill="#39A3D2" transform="translate(1331,654)"/>
<path d="M0 0 C0 0.66 0 1.32 0 2 C-0.99 2.33 -1.98 2.66 -3 3 C-4.37195574 4.29355827 -5.71182656 5.62298702 -7 7 C-7.99 6.34 -8.98 5.68 -10 5 C-8.71186658 4.16121545 -7.41936744 3.32913217 -6.125 2.5 C-5.40570312 2.0359375 -4.68640625 1.571875 -3.9453125 1.09375 C-2 0 -2 0 0 0 Z " fill="#40B6E1" transform="translate(1564,640)"/>
<path d="M0 0 C0.99 0.33 1.98 0.66 3 1 C1.6875 3 1.6875 3 0 5 C-0.99 5 -1.98 5 -3 5 C-2.625 3.0625 -2.625 3.0625 -2 1 C-1.34 0.67 -0.68 0.34 0 0 Z M-5 5 C-3 6 -3 6 -3 6 Z " fill="#238CC3" transform="translate(1085,638)"/>
<path d="M0 0 C2.31 0.33 4.62 0.66 7 1 C6.34 1.66 5.68 2.32 5 3 C3.68 3 2.36 3 1 3 C0.67 3.66 0.34 4.32 0 5 C-0.33 4.01 -0.66 3.02 -1 2 C-0.67 1.34 -0.34 0.68 0 0 Z " fill="#246AAA" transform="translate(571,568)"/>
<path d="M0 0 C0.66 0.33 1.32 0.66 2 1 C1.67 3.31 1.34 5.62 1 8 C0.67 7.34 0.34 6.68 0 6 C-0.99 5.67 -1.98 5.34 -3 5 C-3 4.34 -3 3.68 -3 3 C-2.01 3 -1.02 3 0 3 C0 2.01 0 1.02 0 0 Z " fill="#169DD5" transform="translate(1342,848)"/>
<path d="M0 0 C2.64 0.33 5.28 0.66 8 1 C4.36576791 3.32590854 1.22911669 3.16265833 -3 3 C-2.01 2.67 -1.02 2.34 0 2 C0 1.34 0 0.68 0 0 Z " fill="#E6F0F7" transform="translate(952,824)"/>
<path d="M0 0 C1.65 0.33 3.3 0.66 5 1 C4.67 1.99 4.34 2.98 4 4 C1.69 3.67 -0.62 3.34 -3 3 C-2.01 2.67 -1.02 2.34 0 2 C0 1.34 0 0.68 0 0 Z " fill="#EBF1F4" transform="translate(939,713)"/>
<path d="M0 0 C-2 3 -2 3 -3.9453125 3.51171875 C-4.66460938 3.56972656 -5.38390625 3.62773438 -6.125 3.6875 C-8.043125 3.8421875 -8.043125 3.8421875 -10 4 C-7.39928297 0.98864344 -3.94054294 -1.97027147 0 0 Z " fill="#E6F1F7" transform="translate(1400,669)"/>
<path d="M0 0 C0.66 1.32 1.32 2.64 2 4 C1.01 5.485 1.01 5.485 0 7 C0 6.34 0 5.68 0 5 C-0.66 5 -1.32 5 -2 5 C-2.33 5.99 -2.66 6.98 -3 8 C-3.33 7.34 -3.66 6.68 -4 6 C-2.68 4.02 -1.36 2.04 0 0 Z " fill="#2B7EB8" transform="translate(870,654)"/>
<path d="M0 0 C0.99 0.33 1.98 0.66 3 1 C2.67 2.32 2.34 3.64 2 5 C0.68 4.67 -0.64 4.34 -2 4 C-1.34 2.68 -0.68 1.36 0 0 Z " fill="#36A5D5" transform="translate(1337,647)"/>
<path d="M0 0 C1.231394 2.46278801 1.07159196 4.2795055 1 7 C0.01 6.34 -0.98 5.68 -2 5 C-2.99 5.495 -2.99 5.495 -4 6 C-3.67 4.35 -3.34 2.7 -3 1 C-2.01 0.67 -1.02 0.34 0 0 Z " fill="#11539A" transform="translate(367,646)"/>
<path d="M0 0 C0.66 0.33 1.32 0.66 2 1 C1.01 3.31 0.02 5.62 -1 8 C-1.33 7.34 -1.66 6.68 -2 6 C-2.99 5.67 -3.98 5.34 -5 5 C-3.35 3.35 -1.7 1.7 0 0 Z " fill="#35A1D5" transform="translate(1344,641)"/>
<path d="M0 0 C0.33 0.99 0.66 1.98 1 3 C0.01 3.99 -0.98 4.98 -2 6 C-2.99 4.68 -3.98 3.36 -5 2 C-2 0 -2 0 0 0 Z " fill="#EFF6F9" transform="translate(806,640)"/>
<path d="M0 0 C-0.33 0.66 -0.66 1.32 -1 2 C-5.455 1.01 -5.455 1.01 -10 0 C-10 -0.33 -10 -0.66 -10 -1 C-5.92224809 -1.9267618 -3.57818963 -2.33958553 0 0 Z " fill="#E9F1F8" transform="translate(1214,628)"/>
<path d="M0 0 C0 0.66 0 1.32 0 2 C0.66 2.33 1.32 2.66 2 3 C-0.475 4.485 -0.475 4.485 -3 6 C-3.66 5.01 -4.32 4.02 -5 3 C-2.25 0 -2.25 0 0 0 Z " fill="#F3F7F9" transform="translate(422,577)"/>
<path d="M0 0 C-1 3 -1 3 -2.75 4.1875 C-5.29960574 5.10819096 -7.30923081 5.14948718 -10 5 C-7.30495181 2.30495181 -3.91639523 0 0 0 Z " fill="#D9EDF8" transform="translate(1232,862)"/>
<path d="M0 0 C0.66 0 1.32 0 2 0 C2 2.31 2 4.62 2 7 C1.01 7.33 0.02 7.66 -1 8 C-0.67 5.36 -0.34 2.72 0 0 Z " fill="#1560AC" transform="translate(593,844)"/>
<path d="M0 0 C0.33 1.32 0.66 2.64 1 4 C-0.32 3.67 -1.64 3.34 -3 3 C-3 2.34 -3 1.68 -3 1 C-4.32 0.67 -5.64 0.34 -7 0 C-3.86650268 -1.04449911 -3.01031744 -0.93423645 0 0 Z " fill="#41B2E1" transform="translate(1497,820)"/>
<path d="M0 0 C0.68707555 2.49064888 1 4.37886292 1 7 C-0.65 7.66 -2.3 8.32 -4 9 C-2.80100302 5.9168649 -1.52299523 2.93720508 0 0 Z " fill="#3E9CCB" transform="translate(1218,799)"/>
<path d="M0 0 C0.33 0.66 0.66 1.32 1 2 C0.67 2.99 0.34 3.98 0 5 C-0.99 5.33 -1.98 5.66 -3 6 C-3.66 4.68 -4.32 3.36 -5 2 C-3.35 1.34 -1.7 0.68 0 0 Z " fill="#EBF3F6" transform="translate(1029,760)"/>
<path d="M0 0 C0.66 0.33 1.32 0.66 2 1 C-0.46153846 4.81538462 -0.46153846 4.81538462 -3.1875 5.75 C-3.785625 5.8325 -4.38375 5.915 -5 6 C-3.63016497 2.83884224 -3.0109362 2.0072908 0 0 Z " fill="#2B6EAE" transform="translate(647,746)"/>
<path d="M0 0 C1.32 0.66 2.64 1.32 4 2 C1.9927092 5.0109362 1.16115776 5.63016497 -2 7 C-1.34 4.69 -0.68 2.38 0 0 Z " fill="#F2F6F5" transform="translate(874,744)"/>
<path d="M0 0 C4.455 0.99 4.455 0.99 9 2 C9 2.33 9 2.66 9 3 C7.35 3 5.7 3 4 3 C4 3.66 4 4.32 4 5 C3.01 4.67 2.02 4.34 1 4 C1.33 3.01 1.66 2.02 2 1 C1.34 0.67 0.68 0.34 0 0 Z " fill="#267DB6" transform="translate(952,722)"/>
<path d="M0 0 C1.80411967 2.75924185 2.0127245 3.88972103 1.625 7.25 C1.41875 8.1575 1.2125 9.065 1 10 C-0.85064319 6.87703962 -1.29356154 4.62059232 -1 1 C-0.67 0.67 -0.34 0.34 0 0 Z " fill="#DBF1F8" transform="translate(1509,689)"/>
<path d="M0 0 C0.99 0.33 1.98 0.66 3 1 C2.2575 1.6496875 2.2575 1.6496875 1.5 2.3125 C-0.33218192 3.99740483 -0.33218192 3.99740483 0 7 C-0.99 7 -1.98 7 -3 7 C-1.125 1.125 -1.125 1.125 0 0 Z " fill="#169FD3" transform="translate(1346,641)"/>
<path d="M0 0 C0 0.99 0 1.98 0 3 C-2.875 3.125 -2.875 3.125 -6 3 C-6.66 2.34 -7.32 1.68 -8 1 C-5.10765685 0.17361624 -3.11257569 0 0 0 Z " fill="#3278B4" transform="translate(672,629)"/>
<path d="M0 0 C0.763125 0.20625 1.52625 0.4125 2.3125 0.625 C-0.07323379 2.51713369 -1.75925348 3.64891783 -4.6875 4.625 C-5.3475 4.295 -6.0075 3.965 -6.6875 3.625 C-5.07944847 0.40889695 -3.54044012 -0.4940149 0 0 Z " fill="#1F5EA3" transform="translate(463.6875,618.375)"/>
<path d="M0 0 C2.0625 0.4375 2.0625 0.4375 4 1 C3.67 1.99 3.34 2.98 3 4 C2.01 4.33 1.02 4.66 0 5 C-0.5625 3.0625 -0.5625 3.0625 -1 1 C-0.67 0.67 -0.34 0.34 0 0 Z " fill="#0F519C" transform="translate(387,609)"/>
<path d="M0 0 C0.66 0 1.32 0 2 0 C1.67 2.64 1.34 5.28 1 8 C0.34 8 -0.32 8 -1 8 C-1.125 2.25 -1.125 2.25 0 0 Z " fill="#2166AA" transform="translate(593,586)"/>
<path d="M0 0 C1.52519276 0.08937803 3.04681929 0.24537146 4.5625 0.4375 C5.80193359 0.59025391 5.80193359 0.59025391 7.06640625 0.74609375 C7.70449219 0.82988281 8.34257813 0.91367187 9 1 C9 1.33 9 1.66 9 2 C2.9453125 2.9765625 2.9453125 2.9765625 1 3 C0.34 2.34 -0.32 1.68 -1 1 C-0.67 0.67 -0.34 0.34 0 0 Z " fill="#2C85C1" transform="translate(959,873)"/>
<path d="M0 0 C2.31 0.33 4.62 0.66 7 1 C3.81237635 3.12508244 1.73487777 3.5020163 -2 4 C-2 3.34 -2 2.68 -2 2 C-1.34 2 -0.68 2 0 2 C0 1.34 0 0.68 0 0 Z " fill="#2982BD" transform="translate(980,868)"/>
<path d="M0 0 C6.64615385 1.47692308 6.64615385 1.47692308 8.4375 4.125 C8.7159375 5.053125 8.7159375 5.053125 9 6 C5.06326356 4.68775452 2.77280706 3.08089673 0 0 Z " fill="#3CA3D1" transform="translate(1344,857)"/>
<path d="M0 0 C1.32 0 2.64 0 4 0 C4.33 0.99 4.66 1.98 5 3 C5.66 3.33 6.32 3.66 7 4 C6.67 4.66 6.34 5.32 6 6 C3.96166576 4.7260411 1.96147874 3.38938077 0 2 C0 1.34 0 0.68 0 0 Z " fill="#2A5EA5" transform="translate(411,849)"/>
<path d="M0 0 C1.98 0 3.96 0 6 0 C5.34 1.98 4.68 3.96 4 6 C3.34 6 2.68 6 2 6 C1.67 5.01 1.34 4.02 1 3 C1.33 2.34 1.66 1.68 2 1 C1.34 0.67 0.68 0.34 0 0 Z " fill="#1E9BD2" transform="translate(1328,840)"/>
<path d="M0 0 C-2 2 -2 2 -5.625 2.125 C-6.73875 2.08375 -7.8525 2.0425 -9 2 C-5.945634 -1.054366 -3.9532319 -1.22686507 0 0 Z " fill="#346FA5" transform="translate(582,818)"/>
<path d="M0 0 C0.66 0 1.32 0 2 0 C2 3.3 2 6.6 2 10 C-0.77867692 7.22132308 -0.65193902 4.8286708 -1 1 C-0.67 0.67 -0.34 0.34 0 0 Z " fill="#299CCE" transform="translate(1305,800)"/>
<path d="M0 0 C0.66 1.32 1.32 2.64 2 4 C2.66 3.67 3.32 3.34 4 3 C4 3.99 4 4.98 4 6 C3.01 6.495 3.01 6.495 2 7 C1.34 7.99 0.68 8.98 0 10 C0 6.7 0 3.4 0 0 Z " fill="#E5EAF3" transform="translate(913,687)"/>
<path d="M0 0 C3 1 3 1 4.1875 3.0625 C4.455625 3.701875 4.72375 4.34125 5 5 C4.01 5.33 3.02 5.66 2 6 C1.01 4.68 0.02 3.36 -1 2 C-0.67 1.34 -0.34 0.68 0 0 Z " fill="#E7F3F6" transform="translate(1482,644)"/>
<path d="M0 0 C0.99 0 1.98 0 3 0 C3.66 1.98 4.32 3.96 5 6 C2.525 5.01 2.525 5.01 0 4 C0 2.68 0 1.36 0 0 Z " fill="#1CACE3" transform="translate(1473,642)"/>
<path d="M0 0 C0 0.66 0 1.32 0 2 C-0.99 2 -1.98 2 -3 2 C-3.33 2.99 -3.66 3.98 -4 5 C-5.32 4.67 -6.64 4.34 -8 4 C-2.25 0 -2.25 0 0 0 Z " fill="#357FB9" transform="translate(895,635)"/>
<path d="M0 0 C0 0.99 0 1.98 0 3 C-1.32 3.33 -2.64 3.66 -4 4 C-3.67 3.01 -3.34 2.02 -3 1 C-4.32 0.67 -5.64 0.34 -7 0 C-3.86650268 -1.04449911 -3.01031744 -0.93423645 0 0 Z " fill="#EBF2F9" transform="translate(476,618)"/>
</svg>
