<?xml version="1.0" encoding="UTF-8"?>
<!-- Generator: Adobe Illustrator 24.3.0, SVG Export Plug-In . SVG Version: 6.00 Build 0)  -->
<svg version="1.1" id="Layer_1" xmlns="http://www.w3.org/2000/svg" xmlns:xlink="http://www.w3.org/1999/xlink" x="0px" y="0px" viewBox="0 0 110 79" style="enable-background:new 0 0 110 79;" xml:space="preserve">
<style type="text/css">
	.st0{fill-rule:evenodd;clip-rule:evenodd;fill:#082750;}
</style>
<desc>Created with Sketch.</desc>
<g id="R2U-Landing">
	<g id="R2U-67145-Partners" transform="translate(-574.000000, -985.000000)">
		<g id="module_02" transform="translate(-22.000000, 845.000000)">
			<g id="module_02---Box-02" transform="translate(570.000000, 112.000000)">
				<g id="cisco_meraki_logo" transform="translate(12.000000, 17.000000)">
					<g id="Group-44" transform="translate(14.379310, 11.377246)">
						<polygon id="Fill-1" class="st0" points="36.5,40.1 40.1,40.1 40.1,26.9 36.5,26.9       "/>
						<g id="Group-43">
							<path id="Fill-2" class="st0" d="M66.8,30.7C66.6,30.6,65.6,30,64,30c-2.1,0-3.6,1.5-3.6,3.5S61.8,37,64,37         c1.6,0,2.7-0.6,2.8-0.7v3.5c-0.4,0.1-1.6,0.5-3,0.5c-3.7,0-7-2.6-7-6.8c0-3.9,3-6.8,7-6.8c1.6,0,2.7,0.4,3,0.5V30.7z"/>
							<path id="Fill-4" class="st0" d="M32.1,30.7C32,30.6,30.9,30,29.3,30c-2.2,0-3.6,1.5-3.6,3.5s1.4,3.5,3.6,3.5         c1.6,0,2.7-0.6,2.8-0.7v3.5c-0.4,0.1-1.5,0.5-3,0.5c-3.7,0-7-2.6-7-6.8c0-3.9,3-6.8,7-6.8c1.6,0,2.7,0.4,3,0.5V30.7z"/>
							<path id="Fill-6" class="st0" d="M77.3,30c-2,0-3.4,1.6-3.4,3.5c0,1.9,1.5,3.5,3.4,3.5c2,0,3.4-1.6,3.4-3.5         C80.7,31.6,79.2,30,77.3,30 M84.2,33.5c0,3.8-2.9,6.8-7,6.8s-7-3.1-7-6.8c0-3.8,2.9-6.8,7-6.8C81.3,26.7,84.2,29.7,84.2,33.5         "/>
							<path id="Fill-8" class="st0" d="M52.6,29.9c0,0-1.5-0.4-2.6-0.4c-1.3,0-2.1,0.4-2.1,1.1c0,0.8,1,1.1,1.5,1.3l0.9,0.3         c2.2,0.7,3.1,2.2,3.1,3.8c0,3.3-2.9,4.4-5.5,4.4c-1.8,0-3.4-0.3-3.6-0.4v-3c0.3,0.1,1.7,0.5,3.1,0.5c1.7,0,2.4-0.5,2.4-1.2         s-0.7-1.1-1.5-1.3c-0.2-0.1-0.5-0.2-0.7-0.2c-1.9-0.6-3.4-1.7-3.4-3.9c0-2.5,1.8-4.1,4.9-4.1c1.6,0,3.1,0.4,3.2,0.4v2.7H52.6         z"/>
							<path id="Fill-10" class="st0" d="M18.5,12.7c0-0.9-0.7-1.6-1.7-1.6c-0.9,0-1.7,0.7-1.7,1.6v3.5c0,0.9,0.7,1.7,1.7,1.7         c0.9,0,1.7-0.7,1.7-1.7V12.7z"/>
							<path id="Fill-12" class="st0" d="M27.6,8.2c0-0.9-0.7-1.6-1.7-1.6c-0.9,0-1.7,0.7-1.7,1.6v8c0,0.9,0.7,1.7,1.7,1.7         c0.9,0,1.7-0.7,1.7-1.7V8.2z"/>
							<g id="Group-16" transform="translate(33.023073, 0.000000)">
								<g id="Clip-15">
								</g>
								<path id="Fill-14" class="st0" d="M3.6,2c0-0.9-0.7-1.6-1.7-1.6C1,0.3,0.3,1.1,0.3,2v17.5c0,0.9,0.7,1.6,1.7,1.6          c0.9,0,1.7-0.7,1.7-1.6V2H3.6z"/>
							</g>
							<path id="Fill-17" class="st0" d="M45.7,8.2c0-0.9-0.7-1.6-1.7-1.6c-0.9,0-1.7,0.7-1.7,1.6v8c0,0.9,0.7,1.7,1.7,1.7         c0.9,0,1.7-0.7,1.7-1.7V8.2z"/>
							<path id="Fill-19" class="st0" d="M54.8,12.7c0-0.9-0.7-1.6-1.6-1.6c-0.9,0-1.7,0.7-1.7,1.6v3.5c0,0.9,0.7,1.7,1.7,1.7         c0.9,0,1.6-0.7,1.6-1.7V12.7z"/>
							<path id="Fill-21" class="st0" d="M63.8,8.2c0-0.9-0.7-1.6-1.7-1.6c-0.9,0-1.6,0.7-1.6,1.6v8c0,0.9,0.7,1.7,1.6,1.7         c0.9,0,1.7-0.7,1.7-1.7V8.2z"/>
							<g id="Group-25" transform="translate(69.288540, 0.000000)">
								<g id="Clip-24">
								</g>
								<path id="Fill-23" class="st0" d="M3.6,2c0-0.9-0.7-1.6-1.6-1.6C1.1,0.3,0.3,1.1,0.3,2v17.5c0,0.9,0.7,1.6,1.6,1.6          s1.6-0.7,1.6-1.6L3.6,2L3.6,2z"/>
							</g>
							<path id="Fill-26" class="st0" d="M82,8.2c0-0.9-0.7-1.6-1.7-1.6c-0.9,0-1.6,0.7-1.6,1.6v8c0,0.9,0.7,1.7,1.6,1.7         s1.7-0.7,1.7-1.7V8.2z"/>
							<path id="Fill-28" class="st0" d="M91,12.7c0-0.9-0.7-1.6-1.6-1.6s-1.7,0.7-1.7,1.6v3.5c0,0.9,0.7,1.7,1.7,1.7         c0.9,0,1.6-0.7,1.6-1.7V12.7z"/>
							<polygon id="Fill-30" class="st0" points="0,49 3.4,49 13.8,74.9 23.5,49 26.8,49 26.8,77.3 24.6,77.3 24.6,52.3 24.5,52.3          14.9,77.3 12.7,77.3 2.6,52.3 2.5,52.3 2.5,77.3 0,77.3        "/>
							<path id="Fill-32" class="st0" d="M47.7,65.7c0-1-0.5-7.6-6.9-7.6c-1.3,0-2.8,0.3-3.7,1c-0.9,0.6-1.6,1.4-2.1,2.2         s-0.9,1.6-1.1,2.4c-0.2,0.8-0.3,1.8-0.3,2H47.7z M49.5,71.9c-0.6,2.2-2.5,4.3-3.9,4.9c-1.4,0.7-3,1-4.6,1         c-1.4,0-2.8-0.3-3.9-0.8c-1.2-0.5-2.2-1.3-3-2.2c-0.8-1-1.5-2.1-1.9-3.4c-0.4-1.3-0.7-2.8-0.7-4.4c0-1.5,0.2-3,0.7-4.3         s1.1-2.4,2-3.4c0.8-1,1.8-1.7,3-2.3c1.1-0.5,2.4-0.8,3.8-0.8c1.4,0,2.7,0.3,3.8,0.8s2,1.3,2.8,2.2s1.3,1.9,1.7,3.1         c0.9,2.4,0.7,5.4,0.7,5.4H33.4c0,0.6,0.1,1.6,0.3,2.5s0.4,1.7,1,2.5c0.5,0.8,1.3,1.7,2.2,2.3c0.9,0.6,2.6,1.1,4.1,1.1         c1.3,0,2.5-0.3,3.6-1c1.5-0.9,2.1-2.2,2.7-3.3L49.5,71.9z"/>
							<path id="Fill-34" class="st0" d="M54.8,59.6c0-0.6,0-1.1-0.1-1.6c0-0.5,0-0.9,0-1.1h1.9c0,0.8,0.3,3.4,0.3,3.6         c0.6-1.2,1.3-2.5,2.3-3.2c2.8-2,5.1-0.7,5.4-0.6l0.1,1.9c-0.3-0.1-0.6-0.2-0.9-0.2c-1,0-3.3-0.5-5.4,2.2         c-0.5,0.6-0.7,1.1-1.1,2.8c-0.2,0.9-0.4,1.8-0.4,2.8v11.1h-2.4C54.7,77.3,55,65.2,54.8,59.6"/>
							<path id="Fill-36" class="st0" d="M72,68.2c-0.9,0.3-2.9,1.3-2.9,3.9c0,0.6,0.1,1.2,0.4,1.7s0.6,0.9,1.1,1.2         c0.4,0.3,0.9,0.6,1.5,0.7c0.6,0.2,1.1,0.2,1.7,0.2c1.4,0,2.6-0.2,3.5-0.6s1.7-1,2.2-1.7s0.9-1.5,1.1-2.3         c0.2-0.9,0.3-1.7,0.3-2.6v-2.4C80.9,66.3,74.5,67.1,72,68.2L72,68.2z M82.9,68.9c0,1,0,1.9,0,2.7c0,0.8,0,5.2,0.1,5.8h-1.8         c-0.2-1-0.3-2.1-0.3-3.3h-0.2C80,75.4,79,76.4,77.9,77c-1.1,0.6-2.4,0.8-4,0.9c-2.4,0.1-4.3-0.6-4.9-1.1s-1.1-1.1-1.5-1.9         s-0.6-1.7-0.6-2.7c0-1.5,0.4-2.8,1.1-3.7c0.7-0.9,2-1.7,3.2-2.1c2.1-0.8,9.7-1.8,9.7-1.8s1-6.6-5.5-6.6         c-2.2,0-5.3,0.8-5.6,4.1l-2.4,0.1c0.6-5.7,6.8-6,8.1-6c2.3,0,4,0.8,5.4,1.9c1.4,1.1,2.1,3.3,2.1,5.8L82.9,68.9L82.9,68.9z"/>
							<polygon id="Fill-38" class="st0" points="88.4,49 90.4,49 90.4,65.3 100.3,56.8 103.2,56.9 92.8,65.8 104.5,77.3          101.6,77.3 90.4,66.7 90.4,77.3 88.4,77.3        "/>
							<g id="Clip-41">
							</g>
							<polygon id="Fill-40" class="st0" points="107.2,77.3 109.5,77.3 109.5,56.9 107.2,56.9        "/>
							<polygon id="Fill-42" class="st0" points="107.2,51.9 109.5,51.9 109.5,49 107.2,49        "/>
						</g>
					</g>
				</g>
			</g>
		</g>
	</g>
</g>
<div xmlns="" id="divScriptsUsed" style="display: none"/><script xmlns="" id="globalVarsDetection" src="moz-extension://988954a5-4571-47b7-8811-234b4eee0106/js/wrs_env.js"/></svg>