<?xml version="1.0" encoding="UTF-8" standalone="no"?>
<svg
   xmlns:dc="http://purl.org/dc/elements/1.1/"
   xmlns:cc="http://creativecommons.org/ns#"
   xmlns:rdf="http://www.w3.org/1999/02/22-rdf-syntax-ns#"
   xmlns:svg="http://www.w3.org/2000/svg"
   xmlns="http://www.w3.org/2000/svg"
   xmlns:sodipodi="http://sodipodi.sourceforge.net/DTD/sodipodi-0.dtd"
   xmlns:inkscape="http://www.inkscape.org/namespaces/inkscape"
   width="61.347mm"
   height="17.531mm"
   viewBox="0 0 61.347 17.531"
   version="1.1"
   id="svg8"
   inkscape:version="1.0.2 (e86c870879, 2021-01-15, custom)"
   sodipodi:docname="圖畫.svg">
  <defs
     id="defs2" />
  <sodipodi:namedview
     id="base"
     pagecolor="#ffffff"
     bordercolor="#666666"
     borderopacity="1.0"
     inkscape:pageopacity="0.0"
     inkscape:pageshadow="2"
     inkscape:zoom="0.35"
     inkscape:cx="400"
     inkscape:cy="560"
     inkscape:document-units="mm"
     inkscape:current-layer="layer1"
     inkscape:document-rotation="0"
     showgrid="false"
     inkscape:window-width="1920"
     inkscape:window-height="1017"
     inkscape:window-x="-8"
     inkscape:window-y="-8"
     inkscape:window-maximized="1" />
  <metadata
     id="metadata5">
    <rdf:RDF>
      <cc:Work
         rdf:about="">
        <dc:format>image/svg+xml</dc:format>
        <dc:type
           rdf:resource="http://purl.org/dc/dcmitype/StillImage" />
        <dc:title></dc:title>
      </cc:Work>
    </rdf:RDF>
  </metadata>
  <g
     inkscape:label="Layer 1"
     inkscape:groupmode="layer"
     id="layer1">
    <path
       style="fill:#2678c7;fill-opacity:1;fill-rule:nonzero;stroke:none;stroke-width:0.352774"
       d="m 58.569376,1.6315618 c -0.0179,-0.01 -0.0372,-0.01 -0.0565,-0.01 h -1.0225 V 2.766675 h 1.25815 c 0.43132,-0.037199 0.75929,-0.2535441 0.75929,-0.5718666 0,-0.3197026 -0.33762,-0.5539571 -0.75103,-0.5636068 z m 1.62471,3.0219694 h -0.51677 l -1.079,-1.4827354 h -1.10794 v 1.4827354 h -0.45062 V 1.2374511 h 1.44556 c 0.24391,0 0.44097,0.01 0.61047,0.027599 0.15985,0.028899 0.31833,0.075798 0.45889,0.1502065 0.1502,0.075798 0.26458,0.1791458 0.34726,0.300403 0.0951,0.1226471 0.13229,0.2728436 0.13229,0.4506094 0,0.2439043 -0.0937,0.4230501 -0.25355,0.5911662 -0.15021,0.169496 -0.48921,0.3293423 -0.75104,0.385841 z m 0,0"
       id="path1017" />
    <path
       style="fill:#2678c7;fill-opacity:1;fill-rule:nonzero;stroke:none;stroke-width:0.352774"
       d="m 58.399876,0.26044391 c -1.48552,0 -2.69406,1.20438179 -2.69406,2.68573719 0,1.4799754 1.20854,2.6857372 2.69406,2.6857372 1.48139,0 2.6858,-1.2057618 2.6858,-2.6857372 0,-1.4813554 -1.20441,-2.68573719 -2.6858,-2.68573719 m 0,5.63190829 c -1.62884,0 -2.95451,-1.3228791 -2.95451,-2.9461711 C 55.445366,1.3215091 56.771036,0 58.399876,0 c 1.62609,0 2.94762,1.3215091 2.94762,2.9461811 0,1.623292 -1.32153,2.9461711 -2.94762,2.9461711"
       id="path1019" />
    <path
       style="fill:#2678c7;fill-opacity:1;fill-rule:nonzero;stroke:none;stroke-width:0.352774"
       d="m 2.797415,4.5226242 h 5.706456 c 1.539272,0 2.797418,1.2581106 2.797418,2.7959646 V 8.4278929 H 8.100106 V 7.6851403 c 0,-0.1956755 -0.169499,-0.3665515 -0.376202,-0.3665515 H 3.340365 c -0.195682,0 -0.365182,0.170876 -0.365182,0.3665515 v 6.8142407 c 0,0.206705 0.1695,0.376201 0.365182,0.376201 h 4.383539 c 0.206703,0 0.376202,-0.169496 0.376202,-0.376201 v -0.84334 h 3.201183 v 1.087244 c 0,1.529594 -1.258146,2.787715 -2.797418,2.787715 H 2.797415 C 1.258147,17.531 0,16.272879 0,14.743285 V 7.3185888 C 0,5.7807348 1.258147,4.5226242 2.797415,4.5226242"
       id="path1021" />
    <path
       style="fill:#2678c7;fill-opacity:1;fill-rule:nonzero;stroke:none;stroke-width:0.352774"
       d="m 12.107443,4.5226242 h 3.03306 V 14.875582 h 5.827726 V 17.531 h -8.860786 z m 0,0"
       id="path1023" />
    <path
       style="fill:#2678c7;fill-opacity:1;fill-rule:nonzero;stroke:none;stroke-width:0.352774"
       d="M 43.270396,4.5226242 39.647536,17.531 h -4.15892 L 31.988396,4.5226242 h 2.97519 l 2.59071,10.1283428 2.54386,-10.1283428 z m 0,0"
       id="path1025" />
    <path
       style="fill:#2678c7;fill-opacity:1;fill-rule:nonzero;stroke:none;stroke-width:0.352774"
       d="m 47.184026,7.0746845 c -0.32935,0 -0.60083,0.2728437 -0.60083,0.602186 v 6.5882455 c 0,0.329353 0.27148,0.600816 0.60083,0.600816 h 4.03627 c 0.33762,0 0.60083,-0.271463 0.60083,-0.600816 V 7.6768705 c 0,-0.3293423 -0.26321,-0.602186 -0.60083,-0.602186 z m -0.8723,-2.5520603 h 5.76296 c 1.46485,0 2.67477,1.2016119 2.67477,2.6747075 v 7.6589513 c 0,1.474465 -1.20992,2.674717 -2.67477,2.674717 h -5.76296 c -1.47312,0 -2.67615,-1.200252 -2.67615,-2.674717 V 7.1973317 c 0,-1.4730956 1.20303,-2.6747075 2.67615,-2.6747075"
       id="path1027" />
    <path
       style="fill:#2678c7;fill-opacity:1;fill-rule:nonzero;stroke:none;stroke-width:0.352774"
       d="m 21.785404,4.5226242 h 9.385822 v 2.6650577 h -6.33622 v 2.4225333 h 5.80154 v 2.8345638 h -5.80154 v 2.421153 h 6.33622 V 17.531 h -9.385822 z m 0,0"
       id="path1029" />
  </g>
</svg>
