<?xml version="1.0" encoding="UTF-8"?>
<svg version="1.1" xmlns="http://www.w3.org/2000/svg" width="231" height="140">
<path d="M0 0 C14.01454646 -1.14404461 27.41110914 5.58245134 39.92895508 11.02661133 C59.13836326 19.20037742 77.57381409 20.42822588 97.1875 12.75 C102.32574824 10.48696965 106.96828267 7.67604839 111.625 4.55078125 C113.70348957 3.19360961 115.75655601 2.05421095 118 1 C119.52083043 5.28597667 118.71041526 8.57289151 117.22265625 12.7109375 C114.61510829 17.59280046 110.21999076 21.26000308 105 23 C103.10305385 22.89320896 101.2072321 22.76570994 99.3125 22.625 C94.53038868 22.56169889 92.23855292 23.00426989 88.75 26.3125 C88.12480469 26.94929688 87.49960938 27.58609375 86.85546875 28.2421875 C82.8081666 32.07647375 77.95075664 33.14126258 72.5 33.375 C68.58822619 33.24663437 65.39951064 32.30544802 61.82421875 30.75390625 C57.96230171 29.07428494 57.96230171 29.07428494 53.95703125 29.77734375 C53.24933594 30.16019531 52.54164062 30.54304688 51.8125 30.9375 C45.69072272 33.82778173 40.30512964 33.94403979 33.875 31.875 C30.87845196 30.64806695 28.9370429 29.12221927 26.625 26.875 C23.05856658 23.5522864 20.22363205 23.53618183 15.49609375 23.3203125 C9.79439896 22.58863962 5.99548394 19.27626146 2.5625 14.875 C0.53331321 11.14129631 -0.12316214 8.49818781 -0.0625 4.3125 C-0.05347656 3.50425781 -0.04445312 2.69601563 -0.03515625 1.86328125 C-0.02355469 1.24839844 -0.01195312 0.63351563 0 0 Z " fill="#54A4DB" transform="translate(55,60)"/>
<path d="M0 0 C19.20241949 7.22021653 37.17162799 9.47751149 56.8515625 2.43359375 C59.97677967 1.50042 61.24699067 1.19114198 64.1875 2.4375 C64.1875 3.0975 64.1875 3.7575 64.1875 4.4375 C44.72817072 15.09872828 25.22236562 20.24566687 3.18017578 14.42382812 C-2.86126938 12.63354704 -8.52347125 10.02103906 -14.22924805 7.37451172 C-24.68245422 2.56040118 -35.42135883 0.02308009 -46.8125 -1.5625 C-46.8125 -2.2225 -46.8125 -2.8825 -46.8125 -3.5625 C-33.62637024 -13.37543377 -13.78600141 -5.20138706 0 0 Z " fill="#54A3DA" transform="translate(107.8125,53.5625)"/>
<path d="M0 0 C2.61158479 2.46763917 5.0108376 5.00114119 7 8 C7 8.99 7 9.98 7 11 C8.3303125 11.0928125 8.3303125 11.0928125 9.6875 11.1875 C13.83809163 12.20556964 15.36081713 13.6821701 18 17 C18.8125 19.8125 18.8125 19.8125 19 22 C20.11375 21.87625 20.11375 21.87625 21.25 21.75 C24 22 24 22 26.3125 23.875 C28 26 28 26 28 28 C13.98851205 28.87168243 2.59647067 24.63363015 -9.84765625 18.87109375 C-15.74609127 16.16028405 -21.61455978 14.24025561 -28.0625 13.4375 C-29.031875 13.293125 -30.00125 13.14875 -31 13 C-31.33 12.34 -31.66 11.68 -32 11 C-29.70359565 4.68488803 -25.32389157 0.97636796 -19.6875 -2.375 C-12.76182616 -3.98562182 -6.17000638 -3.72528687 0 0 Z " fill="#55A3DB" transform="translate(126,15)"/>
<path d="M0 0 C14.98110138 0.12473014 27.73009591 4.73618901 41.30078125 10.84521484 C51.3951581 15.31146849 61.16182009 17.26498746 72.1796875 16.00390625 C73.33726562 15.87886719 74.49484375 15.75382812 75.6875 15.625 C76.77546875 15.48578125 77.8634375 15.3465625 78.984375 15.203125 C81.9375 15.375 81.9375 15.375 84.328125 17.359375 C85.12476563 18.35710938 85.12476563 18.35710938 85.9375 19.375 C65.03270519 26.51322262 45.48530109 21.31500714 25.65429688 13.81567383 C13.90005612 9.41744453 2.36973625 8.89471945 -10.0625 8.375 C-9.08283252 0.86421596 -7.48547542 0.07374853 0 0 Z " fill="#55A3DB" transform="translate(81.0625,31.625)"/>
<path d="M0 0 C0 1.65 0 3.3 0 5 C0.804375 4.979375 1.60875 4.95875 2.4375 4.9375 C5 5 5 5 6 6 C6.36760731 8.32817964 6.70241581 10.6618385 7 13 C7.33 13 7.66 13 8 13 C8.33 11.35 8.66 9.7 9 8 C8.34 8 7.68 8 7 8 C7.33 7.01 7.66 6.02 8 5 C14.15234375 4.90234375 14.15234375 4.90234375 16 5 C18.43920144 7.43920144 18 12.71292119 18 16 C13.56255461 16.05793591 9.12520611 16.09357467 4.6875 16.125 C3.42486328 16.14175781 2.16222656 16.15851563 0.86132812 16.17578125 C-0.95141602 16.18544922 -0.95141602 16.18544922 -2.80078125 16.1953125 C-3.91622314 16.20578613 -5.03166504 16.21625977 -6.1809082 16.22705078 C-9 16 -9 16 -12 14 C-12.66 14.66 -13.32 15.32 -14 16 C-17.29714793 15.67028521 -18.6226839 15.3773161 -21 13 C-20.42307692 6.42307692 -20.42307692 6.42307692 -19 5 C-17.33394172 4.9549714 -15.66621616 4.96125079 -14 5 C-12.68 5 -11.36 5 -10 5 C-8 5 -6 5 -4 5 C-4 6.32 -4 7.64 -4 9 C-5.32 8.67 -6.64 8.34 -8 8 C-8 9.65 -8 11.3 -8 13 C-6.35 12.67 -4.7 12.34 -3 12 C-2.67 9.03 -2.34 6.06 -2 3 C-2.66 3 -3.32 3 -4 3 C-4 2.34 -4 1.68 -4 1 C-2 0 -2 0 0 0 Z M0 8 C0 9.65 0 11.3 0 13 C0.99 13 1.98 13 3 13 C3 11.35 3 9.7 3 8 C2.01 8 1.02 8 0 8 Z M12 8 C12 9.98 12 11.96 12 14 C12.66 14 13.32 14 14 14 C14 12.02 14 10.04 14 8 C13.34 8 12.68 8 12 8 Z M-17 11 C-16.67 11.66 -16.34 12.32 -16 13 C-14.68 12.34 -13.36 11.68 -12 11 C-13.65 11 -15.3 11 -17 11 Z " fill="#002A45" transform="translate(167,108)"/>
<path d="M0 0 C0.66 0 1.32 0 2 0 C2 0.66 2 1.32 2 2 C2.77190674 1.97905273 3.54381348 1.95810547 4.33911133 1.93652344 C7.83010885 1.85347328 11.3208988 1.80137406 14.8125 1.75 C16.02744141 1.71648437 17.24238281 1.68296875 18.49414062 1.6484375 C20.23920898 1.62910156 20.23920898 1.62910156 22.01953125 1.609375 C23.62985229 1.5779541 23.62985229 1.5779541 25.27270508 1.54589844 C28 2 28 2 29.92456055 3.82128906 C31 6 31 6 30.1875 9.25 C29.795625 10.1575 29.40375 11.065 29 12 C26.8125 12.8125 26.8125 12.8125 24 13 C21.1875 10.5625 21.1875 10.5625 19 8 C18.34 9.65 17.68 11.3 17 13 C16.01 12.67 15.02 12.34 14 12 C13.67 11.34 13.34 10.68 13 10 C12.01 11.485 12.01 11.485 11 13 C10.34 13 9.68 13 9 13 C7.68 10.36 6.36 7.72 5 5 C4.01 5 3.02 5 2 5 C2.26676204 6.98491642 2.26676204 6.98491642 3 9 C3.99 9.33 4.98 9.66 6 10 C6 10.66 6 11.32 6 12 C4.35 12.33 2.7 12.66 1 13 C0.01 11.35 -0.98 9.7 -2 8 C-2.99 8.495 -2.99 8.495 -4 9 C-3.34 9 -2.68 9 -2 9 C-2 9.99 -2 10.98 -2 12 C-4.3125 12.625 -4.3125 12.625 -7 13 C-7.99 12.34 -8.98 11.68 -10 11 C-10.3125 7.5 -10.3125 7.5 -10 4 C-8 2 -8 2 -4.375 1.875 C-2.704375 1.936875 -2.704375 1.936875 -1 2 C-0.67 1.34 -0.34 0.68 0 0 Z M10 4 C11 6 11 6 11 6 Z M15 4 C15.33 4.66 15.66 5.32 16 6 C16.33 5.34 16.66 4.68 17 4 C16.34 4 15.68 4 15 4 Z M24 4 C24 5.98 24 7.96 24 10 C24.99 10 25.98 10 27 10 C26.67 8.02 26.34 6.04 26 4 C25.34 4 24.68 4 24 4 Z " fill="#002A46" transform="translate(79,111)"/>
<path d="M0 0 C1.09570312 0.00902344 2.19140625 0.01804687 3.3203125 0.02734375 C4.16335937 0.03894531 5.00640625 0.05054687 5.875 0.0625 C6.205 0.7225 6.535 1.3825 6.875 2.0625 C6.875 1.4025 6.875 0.7425 6.875 0.0625 C8.195 0.0625 9.515 0.0625 10.875 0.0625 C10.4282538 3.52478308 9.37058815 6.59614208 8.0625 9.8125 C7.74667969 10.59109375 7.43085938 11.3696875 7.10546875 12.171875 C5.875 14.0625 5.875 14.0625 3.73828125 14.828125 C3.12339844 14.90546875 2.50851563 14.9828125 1.875 15.0625 C2.4628125 13.763125 2.4628125 13.763125 3.0625 12.4375 C4.23545503 9.00779009 4.23545503 9.00779009 2.5 5.6875 C1.96375 4.82125 1.4275 3.955 0.875 3.0625 C0.215 4.3825 -0.445 5.7025 -1.125 7.0625 C-0.465 7.7225 0.195 8.3825 0.875 9.0625 C0.31944444 13.61805556 0.31944444 13.61805556 -1.125 15.0625 C-3.12458364 15.10330783 -5.12545254 15.10504356 -7.125 15.0625 C-9.10628482 11.79338005 -9.29854387 9.64788418 -8.875 5.875 C-8.74351562 4.55435547 -8.74351562 4.55435547 -8.609375 3.20703125 C-8.44953125 2.49933594 -8.2896875 1.79164062 -8.125 1.0625 C-5.36047967 -0.31976016 -3.0788637 -0.03275387 0 0 Z M-5.125 3.0625 C-5.125 3.7225 -5.125 4.3825 -5.125 5.0625 C-4.465 5.0625 -3.805 5.0625 -3.125 5.0625 C-3.125 4.4025 -3.125 3.7425 -3.125 3.0625 C-3.785 3.0625 -4.445 3.0625 -5.125 3.0625 Z M-5.125 11.0625 C-5.125 11.7225 -5.125 12.3825 -5.125 13.0625 C-4.135 13.0625 -3.145 13.0625 -2.125 13.0625 C-2.125 12.4025 -2.125 11.7425 -2.125 11.0625 C-3.115 11.0625 -4.105 11.0625 -5.125 11.0625 Z " fill="#002A46" transform="translate(220.125,112.9375)"/>
<path d="M0 0 C1.32 0 2.64 0 4 0 C3.67 4.29 3.34 8.58 3 13 C3.66 13 4.32 13 5 13 C5 13.66 5 14.32 5 15 C2.2540274 16.3729863 0.0410953 16.12412634 -3 16 C-3.99 15.67 -4.98 15.34 -6 15 C-6.99 15.495 -6.99 15.495 -8 16 C-9.99960012 16.039992 -12.00047242 16.04346799 -14 16 C-14.53229326 14.73392393 -15.05044544 13.46189588 -15.5625 12.1875 C-15.85253906 11.47980469 -16.14257812 10.77210937 -16.44140625 10.04296875 C-17 8 -17 8 -16 5 C-14.68 5 -13.36 5 -12 5 C-12 7.64 -12 10.28 -12 13 C-11.34 13 -10.68 13 -10 13 C-10.33 10.36 -10.66 7.72 -11 5 C-9.68 5 -8.36 5 -7 5 C-6.67 5.99 -6.34 6.98 -6 8 C-5.3503125 7.2575 -5.3503125 7.2575 -4.6875 6.5 C-3 5 -3 5 0 5 C-0.185625 4.360625 -0.37125 3.72125 -0.5625 3.0625 C-0.706875 2.381875 -0.85125 1.70125 -1 1 C-0.67 0.67 -0.34 0.34 0 0 Z M-2 7 C-2.33 8.65 -2.66 10.3 -3 12 C-2.01 12.33 -1.02 12.66 0 13 C0 11.02 0 9.04 0 7 C-0.66 7 -1.32 7 -2 7 Z " fill="#002946" transform="translate(45,108)"/>
<path d="M0 0 C0.495 7.92 0.495 7.92 1 16 C-12.2731377 16.36869827 -12.2731377 16.36869827 -15.42578125 14.76953125 C-17.40131739 12.54889137 -17.51102945 11.44117804 -17.4375 8.5 C-17.43621094 7.7265625 -17.43492188 6.953125 -17.43359375 6.15625 C-16.90106684 3.50800806 -16.11870227 2.63513963 -14 1 C-9.36297289 -0.5456757 -4.87528349 -0.05735628 0 0 Z M-12 3 C-14.31563087 4.88500271 -14.31563087 4.88500271 -14.25 8 C-14.31563087 11.11499729 -14.31563087 11.11499729 -12 13 C-9.15397406 13.36487512 -7.6135694 13.40199375 -5.1875 11.8125 C-3.63321794 9.44017475 -3.77462812 7.77958655 -4 5 C-7.08809695 3.23537317 -8.23312136 3 -12 3 Z " fill="#002946" transform="translate(17,108)"/>
<path d="M0 0 C1.32 0 2.64 0 4 0 C4 1.98 4 3.96 4 6 C5.65 5.67 7.3 5.34 9 5 C9 5.99 9 6.98 9 8 C8.01 8.495 8.01 8.495 7 9 C7.309375 9.598125 7.61875 10.19625 7.9375 10.8125 C9 13 9 13 10 16 C6.37 16 2.74 16 -1 16 C-0.67 13.36 -0.34 10.72 0 8 C-1.32 8 -2.64 8 -4 8 C-3.34 10.31 -2.68 12.62 -2 15 C-2.33 15.33 -2.66 15.66 -3 16 C-4.65 16 -6.3 16 -8 16 C-8 12.37 -8 8.74 -8 5 C-5.36 5 -2.72 5 0 5 C-0.2784375 4.0409375 -0.2784375 4.0409375 -0.5625 3.0625 C-0.706875 2.381875 -0.85125 1.70125 -1 1 C-0.67 0.67 -0.34 0.34 0 0 Z " fill="#002A46" transform="translate(118,108)"/>
<path d="M0 0 C2.35546875 -0.15625 2.35546875 -0.15625 5 0 C7.3125 2.5 7.3125 2.5 9 5 C9 3.35 9 1.7 9 0 C10.98 0 12.96 0 15 0 C15 0.66 15 1.32 15 2 C14.34 2 13.68 2 13 2 C13 6.29 13 10.58 13 15 C9.65001479 13.88333826 9.20659778 13.25305075 7.3125 10.4375 C6.87550781 9.79683594 6.43851563 9.15617187 5.98828125 8.49609375 C5.66214844 8.00238281 5.33601563 7.50867188 5 7 C4.91773332 10.04386724 5.02391783 12.07175348 6 15 C4.02 15 2.04 15 0 15 C0 10 0 5 0 0 Z " fill="#002A45" transform="translate(54,109)"/>
<path d="M0 0 C1.79244141 0.01740234 1.79244141 0.01740234 3.62109375 0.03515625 C5.41740234 0.04869141 5.41740234 0.04869141 7.25 0.0625 C8.17683594 0.07410156 9.10367188 0.08570312 10.05859375 0.09765625 C10.05859375 1.74765625 10.05859375 3.39765625 10.05859375 5.09765625 C9.39859375 5.09765625 8.73859375 5.09765625 8.05859375 5.09765625 C8.05859375 4.43765625 8.05859375 3.77765625 8.05859375 3.09765625 C7.06859375 3.09765625 6.07859375 3.09765625 5.05859375 3.09765625 C5.38859375 7.38765625 5.71859375 11.67765625 6.05859375 16.09765625 C4.07859375 16.09765625 2.09859375 16.09765625 0.05859375 16.09765625 C0.71859375 11.80765625 1.37859375 7.51765625 2.05859375 3.09765625 C0.40859375 3.75765625 -1.24140625 4.41765625 -2.94140625 5.09765625 C-3.50390625 3.16015625 -3.50390625 3.16015625 -3.94140625 1.09765625 C-2.94140625 0.09765625 -2.94140625 0.09765625 0 0 Z " fill="#002A45" transform="translate(135.94140625,107.90234375)"/>
<path d="M0 0 C2 2 2 2 2.3125 5.5 C2.1578125 7.2325 2.1578125 7.2325 2 9 C-1 11 -1 11 -3.5625 10.75 C-6 10 -6 10 -8 8 C-7.75 4.4375 -7.75 4.4375 -7 1 C-4.48718205 -0.25640898 -2.78302919 -0.20872719 0 0 Z M-4 2 C-4 3.98 -4 5.96 -4 8 C-3.01 7.67 -2.02 7.34 -1 7 C-1.34786708 5.02463255 -1.34786708 5.02463255 -2 3 C-2.66 2.67 -3.32 2.34 -4 2 Z " fill="#002A46" transform="translate(209,113)"/>
<path d="M0 0 C2.5625 0.375 2.5625 0.375 4.4375 2.0625 C5.86374388 4.99422354 5.60480389 6.32826554 4.5625 9.375 C3.9025 10.035 3.2425 10.695 2.5625 11.375 C-0.4375 11.1875 -0.4375 11.1875 -3.4375 10.375 C-5.4375 7.375 -5.4375 7.375 -5.1875 4.8125 C-4.1927353 1.57951474 -3.3898104 0.52150929 0 0 Z M-0.4375 2.375 C-0.7675 4.025 -1.0975 5.675 -1.4375 7.375 C-0.4475 7.705 0.5425 8.035 1.5625 8.375 C1.5625 6.725 1.5625 5.075 1.5625 3.375 C0.9025 3.045 0.2425 2.715 -0.4375 2.375 Z " fill="#002945" transform="translate(190.4375,112.625)"/>
<path d="M0 0 C0.99 0.103125 1.98 0.20625 3 0.3125 C5.15502531 3.54503796 5.46856135 4.56400923 5 8.3125 C3.875 10.1875 3.875 10.1875 2 11.3125 C-1.125 11.125 -1.125 11.125 -4 10.3125 C-5.38125018 7.54999964 -5.19079306 5.36518901 -5 2.3125 C-3 0.3125 -3 0.3125 0 0 Z M-1 2.3125 C-1.33 3.9625 -1.66 5.6125 -2 7.3125 C-0.68 7.3125 0.64 7.3125 2 7.3125 C1.65213292 5.33713255 1.65213292 5.33713255 1 3.3125 C0.34 2.9825 -0.32 2.6525 -1 2.3125 Z " fill="#002946" transform="translate(23,112.6875)"/>
<path d="M0 0 C0.16808419 2.10405391 0.33441948 4.20824758 0.5 6.3125 C0.5928125 7.48425781 0.685625 8.65601562 0.78125 9.86328125 C0.92364989 11.905194 1 13.9531279 1 16 C-0.65 16 -2.3 16 -4 16 C-4 14.19657651 -3.99114697 12.39307541 -3.96484375 10.58984375 C-3.95582031 9.71457031 -3.94679687 8.83929688 -3.9375 7.9375 C-3.92589844 7.05964844 -3.91429687 6.18179688 -3.90234375 5.27734375 C-3.8460672 2.96746253 -3.8460672 2.96746253 -5 1 C-3 0 -3 0 0 0 Z " fill="#002A46" transform="translate(200,108)"/>
</svg>
