<svg width="121" height="24" viewBox="0 0 121 24" xmlns="http://www.w3.org/2000/svg"><title>Shape</title><path d="M109.001 1.478v21.003h11.416V18.74h-6.836V1.478H109zm-15.369 0l-8.004 21.003h4.853l1.512-3.846h8.624l1.426 3.846h4.878L99.083 1.478h-5.45zm-.552 13.888l3.18-9.475 3.12 9.475h-6.302.002zM30.544.743c-3.224 0-6.336 1.276-8.538 3.498-1.984 2.002-3.031 4.536-3.031 7.328 0 3.29 1.149 6.262 3.234 8.367 2.097 2.116 5.057 3.281 8.335 3.281 6.81 0 11.568-4.79 11.568-11.648 0-2.792-1.048-5.326-3.03-7.327-2.202-2.223-5.314-3.5-8.538-3.5zm5.12 16.069a6.564 6.564 0 0 1-4.697 1.96 6.563 6.563 0 0 1-4.694-1.96c-1.33-1.343-2.062-3.194-2.062-5.214 0-3.474 3.094-6.41 6.757-6.41a6.926 6.926 0 0 1 4.883 2.055c1.209 1.218 1.874 2.766 1.874 4.355 0 2.02-.733 3.87-2.061 5.214zM3.485 4.3C1.507 6.354.417 9.092.417 12.01c0 3.256 1.122 5.93 3.335 7.948 2.185 2.007 4.973 3.112 7.854 3.112 1.565 0 2.813-.364 4.471-.878v-5.154c-1.239.996-2.81 1.587-4.354 1.587-1.862 0-3.474-.634-4.662-1.833-1.183-1.193-1.833-2.881-1.833-4.753 0-3.883 2.695-6.703 6.407-6.703 1.668 0 3.244.58 4.444 1.591V1.833c-1.616-.634-3.104-.946-4.647-.946-2.915 0-5.887 1.277-7.947 3.413zM85.4 3.394c-1.26-1.272-3.189-1.918-5.732-1.918h-8.164v21.006h4.579v-7.34h3.79c4.85 0 7.205-2.272 7.205-6.95 0-2.06-.565-3.674-1.678-4.798zm-3.932 7.308c-.926.934-2.42.934-3.864.934h-1.521V4.982h1.52c1.44 0 2.927 0 3.845.926.55.558.82 1.362.82 2.46 0 1.028-.263 1.792-.8 2.332v.002zm-19.85-9.224L56.51 14.299 51.69 1.476h-4.753l-3.532 21.006h4.522L49.981 7.99l5.733 14.492h1.515L63.236 8.2l1.785 14.282h4.553L66.428 1.476l-4.81.002z" fill="#64A70B"/></svg>