<?xml version="1.0" encoding="UTF-8" standalone="no"?>
<!-- Generator: Adobe Illustrator 25.2.0, SVG Export Plug-In . SVG Version: 6.00 Build 0)  -->

<svg
   version="1.1"
   id="Layer_1"
   x="0px"
   y="0px"
   viewBox="0 0 400 300"
   xml:space="preserve"
   sodipodi:docname="elitegroup.svg"
   width="400"
   height="300"
   inkscape:version="1.2.2 (b0a8486541, 2022-12-01)"
   xmlns:inkscape="http://www.inkscape.org/namespaces/inkscape"
   xmlns:sodipodi="http://sodipodi.sourceforge.net/DTD/sodipodi-0.dtd"
   xmlns="http://www.w3.org/2000/svg"
   xmlns:svg="http://www.w3.org/2000/svg"><defs
   id="defs694" /><sodipodi:namedview
   id="namedview692"
   pagecolor="#ffffff"
   bordercolor="#000000"
   borderopacity="0.25"
   inkscape:showpageshadow="2"
   inkscape:pageopacity="0.0"
   inkscape:pagecheckerboard="0"
   inkscape:deskcolor="#d1d1d1"
   showgrid="false"
   inkscape:zoom="0.842"
   inkscape:cx="59.382423"
   inkscape:cy="157.36342"
   inkscape:window-width="1866"
   inkscape:window-height="1011"
   inkscape:window-x="54"
   inkscape:window-y="32"
   inkscape:window-maximized="1"
   inkscape:current-layer="Layer_1" />

<g
   id="g657"
   transform="translate(-250.0018,-345.37843)">
</g>
<g
   id="g689"
   transform="matrix(0.6684657,0,0,0.6684657,-134.23345,-184.23232)">
	<path
   style="fill:#0095d9"
   d="m 560.797,359.905 c -0.285,3.312 -0.617,6.617 -0.933,9.921 0.609,0.759 0.356,1.605 0.277,2.451 -1.004,11.463 -2.451,22.886 -3.439,34.356 -0.364,4.166 -0.957,4.466 -4.498,2.427 -9.083,-5.225 -18.917,-7.961 -29.305,-8.901 -7.249,-0.656 -14.53,-0.917 -21.755,0.024 -12.048,1.573 -22.364,6.735 -31.012,15.36 -11.131,11.099 -16.395,24.561 -16.451,40.087 -0.032,7.328 2.071,14.198 5.921,20.482 0.498,0.822 1.241,1.565 1.028,2.664 0,0.024 0,0.047 -0.008,0.071 -0.008,0.008 -0.008,0.016 -0.016,0.024 -0.593,0.941 -1.636,1.051 -2.577,1.32 -16.435,4.672 -32.569,10.206 -48.427,16.561 -3.439,1.383 -6.814,2.925 -10.237,4.34 -0.862,0.356 -1.739,0.806 -2.617,0.292 -0.024,-0.008 -0.04,-0.016 -0.063,-0.039 0.079,-0.016 0.166,-0.039 0.245,-0.055 -0.988,-2.095 -2.008,-4.174 -2.949,-6.293 -1.13,-2.538 -2.119,-5.138 -2.87,-7.818 -0.3,-1.075 -0.878,-1.541 -1.984,-1.415 -0.538,0.063 -1.083,0.016 -1.628,0.016 -16.008,0 -32.016,0 -48.024,-0.008 -0.846,0 -1.684,-0.055 -2.538,-0.087 0.016,0.134 0.032,0.261 0.039,0.395 -0.055,-0.032 -0.111,-0.079 -0.166,-0.119 0.016,-0.055 0.032,-0.111 0.047,-0.166 0.419,-1.336 1.66,-0.988 2.593,-1.02 3.478,-0.103 6.965,-0.04 10.443,-0.04 h 36.672 c 2.941,-0.008 2.933,-0.016 2.324,-2.822 -0.704,-3.257 -1.368,-6.514 -1.731,-9.826 -0.206,-1.85 -1.028,-2.664 -2.996,-2.656 -18.411,0.04 -36.822,0.032 -55.234,0.008 -1.85,0 -2.814,0.593 -3.043,2.593 -0.696,6.3 -1.439,12.593 -2.166,18.893 -0.261,2.277 0.04,2.577 2.3,2.625 3.257,0.071 6.514,-0.063 9.771,0 h 0.198 c -0.079,0.158 -0.166,0.308 -0.253,0.466 0.632,1.075 1.684,0.577 2.53,0.577 15.621,0.032 31.249,0.024 46.87,0.024 0.617,0 1.241,0.047 1.858,0 1.194,-0.103 1.415,0.443 1.265,1.534 -0.419,3.217 -0.751,6.443 -1.123,9.66 0.166,-0.126 0.332,-0.245 0.506,-0.356 -0.008,0.055 -0.032,0.103 -0.047,0.158 -0.356,0.893 -1.154,1.344 -2.032,1.763 -19.471,9.36 -38.048,20.214 -55.431,33.068 -0.743,0.545 -1.455,1.17 -2.3,1.534 -0.103,0.047 -0.206,0.087 -0.308,0.126 -0.261,0.087 -0.53,0.15 -0.822,0.182 -5.636,0.229 -11.265,0.087 -16.901,0.095 -14.348,0.024 -28.696,0.016 -43.044,0 -1.296,0 -2.648,0.198 -3.802,-0.664 -3.708,-0.024 -7.423,-0.039 -11.138,-0.079 -1.921,-0.016 -1.945,-0.047 -1.715,-1.969 1.636,-13.81 3.289,-27.621 4.901,-41.439 1.32,-11.281 2.569,-22.569 3.881,-33.858 1.32,-11.281 2.688,-22.553 4.008,-33.842 1.162,-9.976 2.261,-19.961 3.431,-29.945 1.478,-12.664 2.988,-25.32 4.482,-37.985 0.34,-2.838 0.688,-5.676 0.964,-8.522 0.087,-0.862 0.411,-1.273 1.281,-1.241 0.545,0.016 1.083,-0.008 1.628,-0.008 h 130.468 c 0.466,0 0.933,0.024 1.399,0 1.02,-0.047 1.296,0.364 1.17,1.407 -0.617,5.067 -1.146,10.134 -1.708,15.202 0.83,1.32 0.3,2.719 0.15,4.055 -0.846,7.684 -1.85,15.344 -2.648,23.036 -0.379,3.652 -0.925,4.19 -4.64,4.19 -20.032,0.016 -40.056,0.008 -60.087,0.008 -0.854,0 -1.7,0.016 -2.553,0.024 -1.296,0.008 -2.04,0.656 -2.198,1.913 -0.798,6.364 -1.589,12.727 -2.198,19.115 -0.174,1.802 1.051,2.048 2.364,2.079 3.17,0.087 6.34,0.103 9.502,-0.087 0.063,0 0.119,0.008 0.182,0.008 -0.024,0.166 -0.04,0.34 -0.063,0.506 0.727,0.403 1.518,0.237 2.277,0.245 15.012,0.008 30.024,0 45.036,0 0.538,0 1.083,-0.016 1.621,-0.008 0.435,0 0.783,-0.158 0.917,-0.561 0.83,-2.466 2.285,-4.696 2.719,-7.304 H 396 c 4.632,-9.779 10.356,-18.886 17.581,-26.98 1.083,-1.217 1.684,-3.036 3.613,-3.383 1.968,-1.85 3.905,-3.723 5.905,-5.542 17.771,-16.174 38.57,-26.261 62.08,-30.941 11.376,-2.261 22.862,-2.877 34.396,-2.166 13.692,0.846 26.878,3.976 39.51,9.368 1.862,0.797 1.886,0.813 1.712,2.892 z"
   id="path659" />
	<path
   style="fill:#0095d9"
   d="m 703.209,367.003 c -0.451,2.664 -0.87,5.336 -1.304,8.008 0.403,0.901 0.221,1.826 0.063,2.735 -2.055,12.19 -4.024,24.395 -6.182,36.569 -0.079,0.451 -0.126,0.917 -0.245,1.368 -0.49,1.802 -1.281,2.071 -2.482,0.64 -2.04,-2.427 -4.214,-4.727 -6.498,-6.925 -7.731,-7.463 -16.569,-13.107 -26.917,-16.277 -4.142,-1.273 -8.348,-1.621 -12.609,-1.241 -7.304,0.664 -14.498,7.692 -15.407,14.941 -0.435,3.47 1.051,6.356 3.194,8.901 1.534,1.834 3.233,3.542 5.123,5.02 0.878,0.68 1.565,1.47 2.119,2.411 3.194,2.838 6.885,4.949 10.506,7.138 3.961,2.395 8.016,4.632 12.008,6.965 9.044,5.281 16.759,12.055 23.036,20.451 0.372,0.49 0.775,0.965 1.154,1.439 1.644,0.909 2.308,2.617 3.162,4.103 1.858,3.273 3.431,6.688 4.451,10.332 0.039,0.103 0.063,0.206 0.095,0.308 0.008,0.032 0.016,0.063 0.024,0.095 2.198,8.585 0.87,16.909 -2.087,25.028 -5.66,15.502 -16.514,26.419 -30.807,34.158 -13.202,7.154 -27.439,10.617 -42.324,11.961 -23.905,2.166 -46.625,-2.206 -68.467,-11.858 -3.747,-1.652 -7.494,-3.312 -11.218,-5.012 -0.063,-0.024 -0.126,-0.047 -0.182,-0.071 -0.134,-0.055 -0.253,-0.119 -0.364,-0.19 -0.008,0 -0.008,0 -0.008,0 -1.138,-0.656 -1.162,-1.794 -0.98,-3.138 1.415,-10.348 3.067,-20.656 4.49,-31.004 0.672,-4.901 1.399,-9.802 2.095,-14.704 0.506,-3.518 1.083,-3.779 3.968,-1.605 9.368,7.043 19.597,12.411 30.799,15.905 7.826,2.435 15.771,3.866 24.016,2.498 3.858,-0.648 7.542,-1.755 10.909,-3.763 6.395,-3.818 7.344,-11.652 2.213,-17.067 -2.704,-2.854 -5.992,-4.87 -9.241,-6.957 -5.217,-3.344 -10.625,-6.372 -15.929,-9.557 -0.316,-0.198 -0.633,-0.395 -0.949,-0.585 -0.261,-0.166 -0.522,-0.332 -0.791,-0.49 -6.277,-3.858 -12.751,-7.423 -18.395,-12.245 -0.095,-0.079 -0.198,-0.15 -0.308,-0.206 -0.206,-0.111 -0.435,-0.19 -0.656,-0.277 -0.047,-0.111 -0.095,-0.229 -0.134,-0.348 -0.348,-1.257 -1.328,-2.04 -2.198,-2.901 -4.791,-4.711 -8.166,-10.253 -9.905,-16.767 -0.174,-0.664 -0.229,-1.383 -0.735,-1.921 -0.119,0.055 -0.237,0.103 -0.356,0.126 -0.032,-0.103 -0.055,-0.206 -0.079,-0.308 -0.024,-0.071 -0.039,-0.134 -0.055,-0.206 -1.644,-12.316 -0.277,-24.198 5.059,-35.51 1.881,-4 4.182,-7.747 6.798,-11.304 0.372,-0.498 0.791,-0.957 1.47,-1.028 0.332,-0.324 0.688,-0.617 0.988,-0.965 11.708,-13.802 26.704,-22.032 44.159,-26.111 13.51,-3.154 27.036,-2.68 40.522,0.071 15.423,3.146 30.016,8.569 43.811,16.135 1.968,1.085 1.944,1.101 1.58,3.235 z"
   id="path661" />
	<path
   d="m 541.895,527.8 c 5.957,2.552 11.831,5.296 17.883,7.631 10.045,3.874 20.33,6.873 31.001,8.402 10.146,1.454 20.335,1.532 30.544,0.676 9.979,-0.837 19.724,-2.783 29.156,-6.153 11.347,-4.053 21.618,-9.884 30.118,-18.575 9.005,-9.207 14.342,-20.22 16.158,-32.93 0.617,-4.321 0.238,-8.634 -0.78,-12.882 0.626,-0.787 1.378,-0.747 2.188,-0.335 0.942,1.888 2.545,2.336 4.551,2.466 14.749,0.953 29.433,2.582 44.105,4.335 1.058,0.126 2.106,0.329 3.181,0.627 -14.284,3.235 -28.617,6.22 -42.977,9.637 1.157,4.313 1.472,8.542 0.884,12.783 -1.488,10.727 -5.544,20.376 -12.393,28.812 -7.223,8.897 -16.358,15.251 -26.719,19.927 -9.937,4.484 -20.391,7.11 -31.186,8.498 -8.55,1.1 -17.126,1.349 -25.719,0.863 -10.944,-0.62 -21.591,-2.834 -32.005,-6.222 -8.239,-2.68 -16.234,-5.977 -24.058,-9.67 -1.82,-0.859 -3.135,-0.821 -4.877,0.183 -33.96,19.573 -62.732,45.037 -86.672,76.018 -7.62,9.861 -14.71,20.09 -21.333,30.644 -0.444,0.708 -0.913,1.4 -1.361,2.085 -0.925,-0.199 -1.36,-0.892 -1.907,-1.402 -33.281,-31.031 -66.56,-62.064 -99.794,-93.145 -1.332,-1.245 -2.574,-1.801 -4.424,-1.796 -23.84,0.069 -47.68,0.046 -71.52,0.046 -0.842,0 -1.685,0 -2.859,0 0.637,-5.639 1.257,-11.121 1.876,-16.603 0.615,-0.044 1.229,-0.128 1.844,-0.128 20.409,-0.007 40.818,-0.007 61.228,-0.003 0.462,0 0.924,0.05 1.387,0.077 2.145,1.53 3.982,3.438 5.856,5.244 5.902,5.689 11.938,11.237 17.946,16.806 10.205,9.458 20.316,19.018 30.561,28.434 5.463,5.021 10.845,10.137 16.269,15.204 8.474,7.915 16.87,15.914 25.476,23.687 1.724,1.557 3.33,3.238 4.957,4.892 1.205,1.225 1.889,1.277 2.902,-0.351 6.172,-9.928 12.792,-19.554 19.914,-28.829 6.268,-8.163 12.945,-15.969 19.892,-23.572 12.735,-13.937 26.918,-26.207 42.083,-37.383 8.606,-6.342 17.681,-11.973 26.882,-17.403 0.547,-0.327 1.126,-0.499 1.742,-0.595 z"
   id="path663" />
	<path
   d="m 566.686,382.933 c -6.237,11.083 -8.743,22.957 -7.779,35.597 0.111,1.455 0.743,2.854 0.403,4.34 -0.119,0.055 -0.237,0.103 -0.356,0.126 -0.032,-0.103 -0.055,-0.206 -0.079,-0.308 -2.696,-1.115 -5.383,-2.285 -8.182,-3.162 -10.909,-3.399 -22.111,-4.174 -33.447,-3.786 -4.735,0.166 -9.36,1.036 -13.874,2.45 -29.51,9.249 -41.866,38.079 -38.759,59.352 0.134,-0.142 0.285,-0.269 0.435,-0.379 -0.016,0.111 -0.039,0.221 -0.063,0.332 -0.008,0.04 -0.024,0.087 -0.032,0.127 -1.241,1.217 -2.601,1.961 -4.348,1.249 -0.047,-0.016 -0.095,-0.032 -0.142,-0.055 -2.648,-4.111 -4.87,-8.411 -6.079,-13.202 -2.561,-10.174 -1.621,-20.182 2.071,-29.842 7.621,-19.937 22.087,-31.953 43.052,-36.071 2.964,-0.585 5.984,-0.743 9.012,-0.783 10.482,-0.126 20.854,0.664 30.925,3.842 4.893,1.541 9.518,3.644 13.921,6.261 0.648,0.387 1.225,0.933 2.221,1.107 1.431,-13.47 2.854,-26.886 4.277,-40.301 4.19,1.376 8.356,2.783 12.285,4.814 -1.849,2.742 -3.833,5.398 -5.462,8.292 z"
   id="path665" />
	<path
   d="m 642.067,423.152 c -3.271,-2.247 -6.17,-4.887 -8.525,-8.096 -3.283,-4.474 -3.555,-9.243 -0.683,-13.885 3.878,-6.268 9.317,-10.192 17.083,-10.122 7.472,0.067 14.228,2.562 20.71,5.967 8.737,4.591 16.133,10.841 22.421,18.425 0.391,0.472 0.803,0.927 1.213,1.382 0.038,0.042 0.135,0.029 0.429,0.081 0.396,-2.247 0.808,-4.496 1.186,-6.751 1.915,-11.418 3.82,-22.838 5.735,-34.257 0.051,-0.302 0.176,-0.591 0.267,-0.886 3.895,1.704 7.653,3.681 11.413,5.66 1.081,0.569 1.338,1.251 1.142,2.397 -1.777,10.358 -3.515,20.723 -5.264,31.085 -1.016,6.019 -2.033,12.039 -3.054,18.057 -0.087,0.512 -0.005,1.09 -0.489,1.491 -0.76,-0.384 -1.092,-1.116 -1.577,-1.692 -8.061,-9.583 -17.707,-16.996 -29.471,-21.494 -4.732,-1.81 -9.608,-2.741 -14.721,-2.751 -7.949,-0.017 -16.518,8.019 -17.447,14.053 -0.07,0.454 -0.243,0.891 -0.368,1.336 z"
   id="path667" />
	<path
   d="m 418.954,369.438 c -0.198,1.921 -0.395,3.644 -0.561,5.368 -0.372,3.834 -1.091,7.628 -1.202,11.486 -2.972,3.439 -6.008,6.814 -8.704,10.474 -4.127,5.589 -7.747,11.486 -10.791,17.739 -0.372,0.759 -0.656,1.565 -1.312,2.15 h -0.387 c -16.49,-0.008 -32.981,-0.024 -49.471,-0.032 -0.15,0 -0.308,0.024 -0.459,0 -0.933,-0.118 -1.375,0.213 -1.47,1.225 -0.174,1.984 -0.466,3.953 -0.719,5.929 -0.024,0.166 -0.04,0.34 -0.063,0.506 -3.858,0.285 -7.731,0.15 -11.597,0.087 -1.407,-0.024 -1.494,-0.182 -1.312,-1.731 0.624,-5.526 1.273,-11.051 1.929,-16.569 0.19,-1.613 0.498,-3.217 0.609,-4.83 0.079,-1.138 0.617,-1.439 1.636,-1.344 0.617,0.055 1.241,0.008 1.858,0.008 h 62.198 c 0.617,0 1.241,-0.04 1.858,0 0.917,0.063 1.407,-0.229 1.494,-1.249 0.206,-2.229 0.538,-4.451 0.791,-6.672 0.822,-7.059 1.621,-14.127 2.443,-21.186 0.055,-0.458 0.19,-0.901 0.285,-1.36 h 12.947 z"
   id="path669" />
	<path
   style="fill:#ed1c24"
   d="m 698.163,473.634 c -0.729,0.112 -1.459,0.223 -2.188,0.335 -1.689,-5.286 -4.15,-10.198 -7.206,-14.82 4.318,0.312 8.643,0.554 12.954,0.951 7.163,0.66 14.32,1.384 21.472,2.151 5.224,0.56 10.437,1.231 15.662,1.984 -2.97,1.051 -6.062,1.498 -9.099,2.171 -10.031,2.222 -20.071,4.408 -30.103,6.625 -0.516,0.115 -0.995,0.399 -1.492,0.603 z"
   id="path671" />
	<path
   style="fill:#ed1c24"
   d="m 617.77,491.993 c -2.372,1.818 -5.091,2.901 -7.953,3.668 -8.546,2.293 -17.02,1.652 -25.439,-0.672 -12.53,-3.455 -23.897,-9.249 -34.269,-17.052 -0.672,-0.506 -1.336,-1.028 -2.214,-1.692 -0.198,0.704 -0.411,1.241 -0.49,1.802 -1.605,11.249 -3.202,22.498 -4.798,33.747 -0.656,4.593 -1.233,9.202 -2.016,13.771 -0.221,1.328 0.269,1.842 1.304,2.237 -0.158,0.134 -0.316,0.269 -0.482,0.387 -2.15,1.7 -4.64,2.846 -6.972,4.253 -28.641,17.257 -53.495,38.886 -74.767,64.657 -10.111,12.245 -19.297,25.154 -27.739,38.593 -0.482,0.775 -0.996,1.534 -1.518,2.316 -0.941,-0.316 -1.462,-1.02 -2.071,-1.581 -17.763,-16.569 -35.518,-33.154 -53.273,-49.724 -15.273,-14.253 -30.562,-28.49 -45.819,-42.751 -0.609,-0.569 -1.431,-1.012 -1.731,-1.85 -0.055,-0.134 -0.087,-0.284 -0.111,-0.443 10.277,-7.573 20.878,-14.64 31.921,-21.044 8.427,-4.885 17.036,-9.423 25.795,-13.684 0.688,-0.332 1.447,-0.553 2.008,-1.122 0.166,-0.126 0.332,-0.245 0.506,-0.356 -0.008,0.055 -0.032,0.103 -0.047,0.158 3.091,-1.312 6.166,-2.688 9.154,-4.229 -0.024,-0.008 -0.04,-0.016 -0.063,-0.039 0.079,-0.016 0.166,-0.039 0.245,-0.055 1.328,-0.174 2.458,-0.893 3.652,-1.415 18.767,-8.079 38.016,-14.799 57.661,-20.395 0.743,-0.213 1.478,-0.443 2.221,-0.664 0.055,-0.016 0.111,-0.024 0.166,-0.039 1.36,-0.3 2.759,-0.474 3.984,-1.233 0.134,-0.142 0.285,-0.269 0.435,-0.379 -0.016,0.111 -0.039,0.221 -0.063,0.332 0.261,-0.032 0.522,-0.063 0.767,-0.126 13.344,-3.597 26.814,-6.617 40.38,-9.194 9.866,-1.881 19.763,-3.494 29.7,-4.878 8.34,-1.162 16.696,-2.19 25.075,-2.941 6.775,-0.609 13.542,-1.194 20.316,-1.787 -0.19,-0.221 -0.387,-0.443 -0.577,-0.664 0.206,-0.024 0.411,-0.039 0.609,-0.071 0.032,0 0.063,-0.008 0.095,-0.008 2.767,-0.063 5.549,0.126 8.3,-0.395 0.688,-0.126 1.344,-0.047 1.992,0.103 0.553,0.119 1.091,0.293 1.628,0.435 7.858,4.34 15.573,8.917 22.925,14.071 1.534,1.075 2.87,2.356 3.961,3.881 3.841,5.328 2.837,12.095 -2.388,16.072 z"
   id="path673" />
	<path
   d="m 390.487,485.21 c -0.862,0.451 -1.707,0.245 -2.506,0.245 -16.182,0.016 -32.364,0.008 -48.546,0.024 -0.83,0 -1.7,-0.221 -2.498,0.206 0.016,0.134 0.032,0.261 0.039,0.395 -0.055,-0.032 -0.111,-0.079 -0.166,-0.119 0.016,-0.055 0.032,-0.111 0.047,-0.166 -0.364,0.561 -0.356,1.217 -0.419,1.858 -0.221,1.96 -0.435,3.937 -0.648,5.897 h 0.198 c -0.079,0.158 -0.166,0.308 -0.253,0.466 -0.198,0.119 -0.387,0.324 -0.601,0.34 -0.609,0.063 -1.233,0.071 -1.85,0.071 -3.47,0.008 -6.933,0 -10.648,0 0.308,-2.957 0.569,-5.692 0.885,-8.419 0.569,-4.988 1.178,-9.976 1.747,-14.964 0.253,-2.174 0.221,-2.198 2.34,-2.198 19.273,-0.008 38.554,-0.008 57.827,0 1.945,0 2.008,0.008 2.245,1.945 0.594,4.838 1.495,9.613 2.807,14.419 z"
   id="path675" />
	<path
   style="fill:#feffff"
   d="m 335.989,493.55 c -0.079,0.158 -0.166,0.308 -0.253,0.466 0.016,-0.158 0.032,-0.308 0.055,-0.466 z"
   id="path677" />
	<path
   style="fill:#feffff"
   d="m 336.977,486.08 c -0.055,-0.032 -0.111,-0.079 -0.166,-0.119 0.016,-0.055 0.032,-0.111 0.047,-0.166 0.016,-0.039 0.047,-0.071 0.071,-0.111 h 0.008 c 0.016,0.135 0.032,0.261 0.04,0.396 z"
   id="path679" />
	<path
   style="fill:#feffff"
   d="m 387.136,505.811 c 0.166,-0.126 0.332,-0.245 0.506,-0.356 -0.008,0.055 -0.032,0.103 -0.047,0.158 -0.151,0.072 -0.309,0.135 -0.459,0.198 z"
   id="path681" />
	<path
   style="fill:#feffff"
   d="m 396.93,501.289 c -0.063,0.032 -0.119,0.063 -0.182,0.095 -0.024,-0.008 -0.04,-0.016 -0.063,-0.039 0.079,-0.016 0.166,-0.04 0.245,-0.056 z"
   id="path683" />
	<path
   style="fill:#ffffff"
   d="m 558.876,422.688 c 0.024,0.103 0.047,0.206 0.079,0.308 0.119,-0.024 0.237,-0.071 0.356,-0.126 -0.142,-0.064 -0.293,-0.119 -0.435,-0.182 z m 22.38,35.146 c -0.134,-0.49 -0.601,-0.83 -0.941,-1.217 -2.909,-3.241 -5.391,-6.751 -7.044,-10.806 -0.095,-0.245 -0.19,-0.506 -0.332,-0.727 -0.166,-0.284 -0.403,-0.522 -0.791,-0.624 0.04,0.119 0.087,0.237 0.134,0.348 1.383,3.763 3.391,7.17 5.945,10.261 0.791,0.957 1.605,1.897 2.419,2.838 0.19,0.221 0.387,0.443 0.577,0.664 0.096,-0.286 0.096,-0.523 0.033,-0.737 z m -116.27,19.661 c 0.024,-0.111 0.047,-0.221 0.063,-0.332 -0.15,0.111 -0.3,0.237 -0.435,0.379 0.127,-0.016 0.246,-0.032 0.372,-0.047 z"
   id="path685" />
	<path
   style="fill:#010101"
   d="m 593.272,457.969 c -0.277,0.016 -0.561,0.032 -0.838,0.055 -3.739,0.237 -7.463,0.648 -11.21,0.545 -0.19,-0.221 -0.387,-0.443 -0.577,-0.664 -0.814,-0.941 -1.628,-1.881 -2.419,-2.838 -2.553,-3.091 -4.561,-6.498 -5.945,-10.261 -0.047,-0.111 -0.095,-0.229 -0.134,-0.348 0.308,-0.427 0.625,-0.324 0.957,-0.04 6.048,5.123 12.87,9.083 19.652,13.107 0.19,0.12 0.34,0.294 0.514,0.444 z"
   id="path687" />
</g>
</svg>
