<?xml version="1.0" encoding="UTF-8"?>
<svg version="1.1" xmlns="http://www.w3.org/2000/svg" width="158" height="56">
<path d="M0 0 C52.14 0 104.28 0 158 0 C158 18.48 158 36.96 158 56 C105.86 56 53.72 56 0 56 C0 37.52 0 19.04 0 0 Z " fill="#FBFEFF" transform="translate(0,0)"/>
<path d="M0 0 C20.46 0 40.92 0 62 0 C60.46975084 3.8256229 59.08976354 6.64986438 56.90234375 10.04296875 C56.27545654 11.02273682 55.64856934 12.00250488 55.00268555 13.01196289 C53.59789211 15.17204661 52.18361254 17.32598423 50.76098633 19.47436523 C50.01152943 20.60985287 49.26309042 21.74601294 48.515625 22.8828125 C47.94795662 23.74613945 47.94795662 23.74613945 47.36882019 24.62690735 C45.06486116 28.18812436 42.99550197 31.80213554 41.06407166 35.5778656 C39.80490132 38.02027408 38.46991351 40.41710854 37.1267395 42.81411743 C36.21408704 44.51300857 35.40844665 46.26804071 34.60717773 48.0222168 C32.79296875 51.19140625 32.79296875 51.19140625 27 56 C18.09 56 9.18 56 0 56 C0 37.52 0 19.04 0 0 Z " fill="#F8F8FE" transform="translate(0,0)"/>
<path d="M0 0 C4.01168103 2.96515555 6.37690699 6.30157287 8 11 C8.88431354 18.54901799 8.48408492 25.63594158 4 32 C0.46394662 34.73240489 -1.99178401 35.19830327 -6.3125 34.75 C-10 34 -10 34 -11 33 C-11.33 37.62 -11.66 42.24 -12 47 C-15.63 47 -19.26 47 -23 47 C-23 31.82 -23 16.64 -23 1 C-19.7 1 -16.4 1 -13 1 C-13 1.66 -13 2.32 -13 3 C-12.525625 2.505 -12.05125 2.01 -11.5625 1.5 C-7.76644519 -0.72208087 -4.2926361 -0.81398824 0 0 Z " fill="#50DAFF" transform="translate(91,9)"/>
<path d="M0 0 C4.58526764 2.43500294 6.76430416 5.39057386 8.51171875 10.15625 C8.95452241 13.16731488 8.82421875 16.23780018 8.82421875 19.28125 C1.89421875 19.28125 -5.03578125 19.28125 -12.17578125 19.28125 C-11.18578125 21.26125 -10.19578125 23.24125 -9.17578125 25.28125 C-5.88502129 24.90220792 -5.88502129 24.90220792 -3.17578125 23.28125 C-1.32290623 23.20898498 0.53255753 23.1974378 2.38671875 23.21875 C3.39863281 23.22777344 4.41054688 23.23679687 5.453125 23.24609375 C6.62681641 23.26349609 6.62681641 23.26349609 7.82421875 23.28125 C6.58314472 28.24554611 5.06315463 30.41996828 0.82421875 33.28125 C-3.35965944 35.3731891 -8.61961818 34.71006535 -13.17578125 34.28125 C-17.7144005 32.13137772 -20.02832056 29.80221988 -22.17578125 25.28125 C-24.10311733 18.75795865 -23.79158771 12.27951116 -21.16796875 6.0078125 C-16.84697086 -1.5114043 -7.6507255 -2.52734918 0 0 Z " fill="#080FF4" transform="translate(23.17578125,9.71875)"/>
<path d="M0 0 C4.3438603 3.70505731 6.760847 7.24220859 8.125 12.8125 C8.125 14.7925 8.125 16.7725 8.125 18.8125 C1.195 18.8125 -5.735 18.8125 -12.875 18.8125 C-11.885 20.7925 -10.895 22.7725 -9.875 24.8125 C-6.58424004 24.43345792 -6.58424004 24.43345792 -3.875 22.8125 C-2.02212498 22.74023498 -0.16666122 22.7286878 1.6875 22.75 C2.69941406 22.75902344 3.71132812 22.76804687 4.75390625 22.77734375 C5.92759766 22.79474609 5.92759766 22.79474609 7.125 22.8125 C5.73815153 26.81895113 4.70296402 29.23453598 1.6875 32.25 C-3.52127216 34.53454919 -8.27363005 34.57317987 -13.875 33.8125 C-18.42957948 31.65506761 -20.67897958 29.32012087 -22.875 24.8125 C-24.74735915 19.19542256 -24.82922728 12.45317104 -22.6875 6.875 C-17.84303135 -1.31048152 -8.6739595 -3.5827224 0 0 Z " fill="#51DBFF" transform="translate(125.875,10.1875)"/>
<path d="M0 0 C0.66 0 1.32 0 2 0 C0.73347088 3.38124333 -0.71318924 6.34875283 -2.66015625 9.38671875 C-3.46803589 10.65273926 -3.46803589 10.65273926 -4.29223633 11.94433594 C-4.87642334 12.84958008 -5.46061035 13.75482422 -6.0625 14.6875 C-6.66795654 15.63270508 -7.27341309 16.57791016 -7.8972168 17.55175781 C-13.7316104 26.63715314 -19.64414316 35.67235968 -25.57641602 44.6940918 C-26.26920654 45.74894775 -26.96199707 46.80380371 -27.67578125 47.890625 C-28.29364502 48.82938477 -28.91150879 49.76814453 -29.5480957 50.73535156 C-31.00063347 52.91271982 -31.00063347 52.91271982 -32 55 C-29.18049361 55.13270855 -29.18049361 55.13270855 -26 54 C-23.79017749 51.55895203 -22.24059459 48.79529647 -20.625 45.9375 C-19.95017578 44.79958008 -19.95017578 44.79958008 -19.26171875 43.63867188 C-18.15668575 41.76952031 -17.07592445 39.88605729 -16 38 C-13.23609263 40.40339772 -12.95934081 41.16263678 -12 45 C-7.38 45 -2.76 45 2 45 C0.8774654 42.72791794 -0.24791521 40.45732355 -1.375 38.1875 C-1.69210938 37.54490234 -2.00921875 36.90230469 -2.3359375 36.24023438 C-3.76458611 33.36805539 -5.21785473 30.6732179 -7 28 C-6.7046189 23.84405667 -5.05974664 21.17021955 -2.6875 17.8125 C-2.09324219 16.95269531 -1.49898437 16.09289062 -0.88671875 15.20703125 C1 13 1 13 5 11 C5 25.85 5 40.7 5 56 C-8.2 56 -21.4 56 -35 56 C-33.24147835 51.60369587 -31.20888347 48.10141942 -28.5625 44.25 C-27.65520501 42.90956089 -26.74899473 41.56838708 -25.84375 40.2265625 C-25.37453125 39.53208008 -24.9053125 38.83759766 -24.421875 38.12207031 C-22.09491271 34.64920695 -19.82747339 31.13849272 -17.5625 27.625 C-17.11285889 26.92785889 -16.66321777 26.23071777 -16.19995117 25.51245117 C-15.2781089 24.08281859 -14.35648016 22.6530483 -13.43505859 21.22314453 C-11.92544366 18.88449983 -10.4106232 16.54929423 -8.89453125 14.21484375 C-8.38913818 13.43608887 -7.88374512 12.65733398 -7.36303711 11.85498047 C-6.38930502 10.35484195 -5.41488554 8.85514934 -4.43969727 7.35595703 C-2.0811347 3.7590805 -2.0811347 3.7590805 0 0 Z " fill="#FDFEFF" transform="translate(62,0)"/>
<path d="M0 0 C2.64 0 5.28 0 8 0 C7.02131821 1.54197452 6.04200884 3.08355071 5.0625 4.625 C4.43472656 5.62015625 3.80695313 6.6153125 3.16015625 7.640625 C1.63511781 10.01229418 0.08916472 12.34734797 -1.50390625 14.671875 C-1.91842041 15.28724121 -2.33293457 15.90260742 -2.76000977 16.53662109 C-3.57544408 17.74556388 -4.40250871 18.94675701 -5.24194336 20.13916016 C-6.93722688 22.67788466 -8.00609303 24.43595966 -7.97265625 27.53125 C-6.75551624 30.6205371 -5.18764103 33.30356053 -3.4375 36.125 C0 41.67203219 0 41.67203219 0 45 C-4.62 45 -9.24 45 -14 45 C-14.99 43.02 -15.98 41.04 -17 39 C-20.60857116 43.30980005 -23.29352405 47.87250642 -26.0234375 52.76953125 C-28 55 -28 55 -31.2265625 55.32421875 C-32.14179687 55.21722656 -33.05703125 55.11023437 -34 55 C-32.6403163 51.30712389 -30.9636459 48.15564127 -28.83203125 44.8515625 C-28.19273682 43.85648682 -27.55344238 42.86141113 -26.89477539 41.83618164 C-26.20762451 40.7764917 -25.52047363 39.71680176 -24.8125 38.625 C-24.10794678 37.5311499 -23.40339355 36.4372998 -22.67749023 35.31030273 C-17.02751751 26.54384008 -11.33040657 17.80743822 -5.6105957 9.08642578 C-5.01851318 8.18263184 -4.42643066 7.27883789 -3.81640625 6.34765625 C-3.29506104 5.55367432 -2.77371582 4.75969238 -2.23657227 3.94165039 C-0.97138534 2.02881665 -0.97138534 2.02881665 0 0 Z " fill="#54DBFF" transform="translate(64,0)"/>
<path d="M0 0 C0.89976563 0.12375 1.79953125 0.2475 2.7265625 0.375 C1.3792801 4.02526649 -0.26452515 7.15027997 -2.37109375 10.41796875 C-2.99959229 11.39773682 -3.62809082 12.37750488 -4.27563477 13.38696289 C-5.67325015 15.5411024 -7.07087413 17.69523633 -8.46850586 19.84936523 C-8.83028427 20.40710129 -9.19206268 20.96483734 -9.56480408 21.53947449 C-10.31389668 22.69402955 -11.06363203 23.84816782 -11.8139801 25.00190735 C-14.16355258 28.62493204 -16.46209913 32.27518596 -18.72511292 35.9528656 C-20.21808611 38.37365361 -21.73033439 40.78206679 -23.24533081 43.18911743 C-23.96968335 44.35034756 -24.68538628 45.51702015 -25.39212036 46.6890564 C-30.97483821 55.92996919 -30.97483821 55.92996919 -34.32373047 57.07763672 C-36.26953125 57.08984375 -36.26953125 57.08984375 -39.2734375 56.375 C-37.88695432 52.54891017 -36.10706627 49.39989624 -33.83203125 46.03125 C-33.16623047 45.03222656 -32.50042969 44.03320312 -31.81445312 43.00390625 C-30.41089228 40.91615836 -29.00463528 38.83022054 -27.59570312 36.74609375 C-26.93119141 35.74707031 -26.26667969 34.74804688 -25.58203125 33.71875 C-24.97157959 32.81318359 -24.36112793 31.90761719 -23.73217773 30.97460938 C-22.24969952 28.33269674 -21.55232143 26.38161949 -21.2734375 23.375 C-22.44418979 20.47824517 -22.44418979 20.47824517 -24.2109375 17.6875 C-27.2734375 12.5321754 -27.2734375 12.5321754 -27.2734375 10.375 C-24.98202464 10.32115479 -22.69025562 10.28227913 -20.3984375 10.25 C-18.48417969 10.21519531 -18.48417969 10.21519531 -16.53125 10.1796875 C-13.2734375 10.375 -13.2734375 10.375 -11.2734375 12.375 C-10.76554687 11.50875 -10.25765625 10.6425 -9.734375 9.75 C-9.04601562 8.63625 -8.35765625 7.5225 -7.6484375 6.375 C-6.97554687 5.26125 -6.30265625 4.1475 -5.609375 3 C-3.2734375 0.375 -3.2734375 0.375 0 0 Z " fill="#0E14F4" transform="translate(59.2734375,-0.375)"/>
<path d="M0 0 C0 4.29 0 8.58 0 13 C-1.98 13.66 -3.96 14.32 -6 15 C-7.51421001 16.51421001 -7.21309856 17.92472768 -7.31640625 20.03515625 C-7.35830078 20.84404297 -7.40019531 21.65292969 -7.44335938 22.48632812 C-7.48267578 23.33646484 -7.52199219 24.18660156 -7.5625 25.0625 C-7.60568359 25.91650391 -7.64886719 26.77050781 -7.69335938 27.65039062 C-7.79976702 29.76672037 -7.90041731 31.88333813 -8 34 C-11.96 34 -15.92 34 -20 34 C-20 23.11 -20 12.22 -20 1 C-16.37 1 -12.74 1 -9 1 C-8.67 1.66 -8.34 2.32 -8 3 C-7.608125 2.505 -7.21625 2.01 -6.8125 1.5 C-5 0 -5 0 0 0 Z " fill="#53DBFF" transform="translate(158,9)"/>
<path d="M0 0 C0.66 0 1.32 0 2 0 C0.73347088 3.38124333 -0.71318924 6.34875283 -2.66015625 9.38671875 C-3.46803589 10.65273926 -3.46803589 10.65273926 -4.29223633 11.94433594 C-4.87642334 12.84958008 -5.46061035 13.75482422 -6.0625 14.6875 C-6.66795654 15.63270508 -7.27341309 16.57791016 -7.8972168 17.55175781 C-13.7316104 26.63715314 -19.64414316 35.67235968 -25.57641602 44.6940918 C-26.26920654 45.74894775 -26.96199707 46.80380371 -27.67578125 47.890625 C-28.29364502 48.82938477 -28.91150879 49.76814453 -29.5480957 50.73535156 C-31.00063347 52.91271982 -31.00063347 52.91271982 -32 55 C-30.02 55 -28.04 55 -26 55 C-26 55.33 -26 55.66 -26 56 C-28.97 56 -31.94 56 -35 56 C-33.48239237 51.63585266 -31.15994186 48.03019215 -28.5625 44.25 C-27.65520501 42.90956089 -26.74899473 41.56838708 -25.84375 40.2265625 C-25.37453125 39.53208008 -24.9053125 38.83759766 -24.421875 38.12207031 C-22.09491271 34.64920695 -19.82747339 31.13849272 -17.5625 27.625 C-17.11285889 26.92785889 -16.66321777 26.23071777 -16.19995117 25.51245117 C-15.2781089 24.08281859 -14.35648016 22.6530483 -13.43505859 21.22314453 C-11.92544366 18.88449983 -10.4106232 16.54929423 -8.89453125 14.21484375 C-8.38913818 13.43608887 -7.88374512 12.65733398 -7.36303711 11.85498047 C-6.38930502 10.35484195 -5.41488554 8.85514934 -4.43969727 7.35595703 C-2.0811347 3.7590805 -2.0811347 3.7590805 0 0 Z " fill="#DAECFE" transform="translate(62,0)"/>
<path d="M0 0 C4.55555556 0.55555556 4.55555556 0.55555556 6 2 C6.12487758 3.80927281 6.17570846 5.62396107 6.1875 7.4375 C6.20167969 8.42621094 6.21585938 9.41492188 6.23046875 10.43359375 C6 13 6 13 4 15 C-0.55555556 14.44444444 -0.55555556 14.44444444 -2 13 C-2.12487758 11.19072719 -2.17570846 9.37603893 -2.1875 7.5625 C-2.20167969 6.57378906 -2.21585937 5.58507812 -2.23046875 4.56640625 C-2 2 -2 2 0 0 Z " fill="#F6FDFF" transform="translate(81,19)"/>
<path d="M0 0 C1.98 0 3.96 0 6 0 C6.33 1.65 6.66 3.3 7 5 C4.36 5 1.72 5 -1 5 C-0.67 3.35 -0.34 1.7 0 0 Z " fill="#F2F3FE" transform="translate(13,17)"/>
<path d="M0 0 C2.375 -0.125 2.375 -0.125 5 0 C7 2 7 2 7 5 C4.36 5 1.72 5 -1 5 C-0.67 3.35 -0.34 1.7 0 0 Z " fill="#FBFEFF" transform="translate(115,17)"/>
</svg>
