<svg id="Layer_1" data-name="Layer 1" xmlns="http://www.w3.org/2000/svg" viewBox="0 0 300 300"><g id="BigE.GRP"><path d="M222.62718,74.779v25.93828a2.59383,2.59383,0,0,1-2.59383,2.59383H111.09777a2.59382,2.59382,0,0,0-2.59382,2.59383v53.215a15.54352,15.54352,0,0,1-4.56,11.003L77.37282,196.69408V74.779a2.59382,2.59382,0,0,1,2.59383-2.59382h140.0667A2.59382,2.59382,0,0,1,222.62718,74.779Z" fill="#4b009f"/><path d="M142.16664,165.563h57.50517a2.59382,2.59382,0,0,0,2.59382-2.59383V137.02568a2.59382,2.59382,0,0,0-2.59382-2.59383H142.16664a2.59383,2.59383,0,0,0-2.59383,2.59383v25.94346A2.59383,2.59383,0,0,0,142.16664,165.563Z" fill="#4b009f"/><path d="M77.37282,196.68371,103.944,223.2549a15.56289,15.56289,0,0,0,11.003,4.55993H220.03335a2.59382,2.59382,0,0,0,2.59383-2.59382V199.27754a2.59383,2.59383,0,0,0-2.59383-2.59383Z" fill="#4b009f"/></g><path d="M244.78435,72.18517A11.64276,11.64276,0,0,1,253.0315,92.0748a11.66325,11.66325,0,0,1-16.49431-16.49431A11.24793,11.24793,0,0,1,244.78435,72.18517Zm0,21.18222A9.55071,9.55071,0,1,0,238.03229,90.57,9.27118,9.27118,0,0,0,244.78435,93.36739Zm5.94184-3.31815h-2.778L244.66858,85.072h-1.50472v4.97727h-2.45V77.45181h3.95476a5.152,5.152,0,0,1,3.26993,1.0031,3.25078,3.25078,0,0,1,1.28291,2.70083A3.3827,3.3827,0,0,1,246.81,84.47388Zm-7.56233-6.9836h1.31183q2.37284,0,2.37286-1.83272,0-1.7362-2.25709-1.7362h-1.4276Z" fill="#4b009f"/><div xmlns="" id="divScriptsUsed" style="display: none"/><script xmlns="" id="globalVarsDetection" src="moz-extension://988954a5-4571-47b7-8811-234b4eee0106/js/wrs_env.js"/></svg>