<?xml version="1.0" encoding="UTF-8" standalone="no"?>
<!-- Created with Inkscape (http://www.inkscape.org/) -->
<!-- http://www.force10networks.com/products/pdf/Force10_S55_DS.pdf -->
<svg xmlns:svg="http://www.w3.org/2000/svg" xmlns="http://www.w3.org/2000/svg" version="1.0" width="250" height="42.3486">
  <path d="M 0.1727,32.8375 C 0.1727,33.3763 0.7158,33.4899 1.5542,33.4899 C 3.3714,33.4899 5.9349,33.3763 7.0632,33.1737 C 6.9212,30.2602 6.8521,27.164 6.8713,22.8306 L 20.0918,22.8306 C 22.7206,22.8306 24.4962,22.5773 25.0257,20.4145 L 6.879,20.4145 L 6.9135,11.4452 L 19.0902,11.4452 C 22.1565,11.4452 23.6051,11.4161 24.3902,11.126 C 25.1915,10.733 25.936,10.1343 26.4242,9.02449 C 23.1868,9.02449 10.7358,9.02449 6.3763,9.02449 C 3.9604,9.14422 1.3355,9.36219 0,9.55714 C 0.1535,10.4582 0.2495,11.6909 0.2438,13.7171 L 0.1727,32.8375 M 47.554,10.7284 C 54.2252,10.7284 61.7101,13.9489 61.6855,21.1083 C 61.6563,28.0635 55.7111,31.5496 47.9761,31.5496 C 40.7875,31.5496 33.7417,27.8978 33.7693,21.1052 C 33.7954,14.4017 39.9248,10.7545 47.4926,10.7284 L 47.554,10.7284 z M 47.8011,8.44424 C 35.5607,8.44424 27.8625,14.0042 27.8364,21.446 C 27.8164,26.6989 33.4761,33.8368 47.6768,33.8368 C 60.654,33.8368 67.5279,27.5969 67.554,20.9287 C 67.577,14.83 60.9165,8.44424 47.8686,8.44424 L 47.8011,8.44424 M 77.1219,11.2319 C 78.3161,11.0922 80.1275,11.0415 81.7884,11.0415 C 86.7281,11.0415 91.6955,12.3202 91.6817,16.0504 C 91.6709,18.8364 88.4965,20.3792 86.0159,20.8028 C 84.9321,21.0131 78.6676,21.0131 77.0865,20.898 L 77.1219,11.2319 z M 70.5028,26.4211 C 70.489,29.6508 70.38,31.9334 70.2173,33.4899 C 71.1352,33.4899 73.5114,33.4746 75.6451,33.3579 C 76.6767,33.2811 77.042,33.1 77.0436,32.4016 L 77.0789,23.0655 C 78.6247,23.0547 80.1996,23.0655 81.684,23.0655 C 83.4431,23.0777 84.0357,23.288 85.1639,24.2597 C 90.8205,28.8341 93.2812,30.7115 95.3474,32.0316 C 97.2876,33.255 98.8887,33.5621 100.992,33.5621 C 102.808,33.5621 104.863,33.4239 105.511,33.2151 L 105.605,33.0064 C 103.959,32.1882 101.871,30.9985 97.3429,27.6061 C 93.5667,24.8154 91.7477,23.3387 90.4153,22.2396 C 92.5306,21.6256 98.6354,19.759 98.6508,15.8769 C 98.6722,10.6808 91.8797,8.82954 81.5689,8.82954 C 77.3337,8.82954 72.6273,9.15189 70.4122,9.3975 C 70.5596,10.6286 70.5565,11.5558 70.5504,13.4561 L 70.5028,26.4211 M 134.752,30.2801 C 132.965,30.7499 128.827,31.3516 125.015,31.3516 C 113.817,31.3516 107.859,26.9829 107.879,21.0929 C 107.904,14.4693 115.389,10.865 123.882,10.865 C 127.408,10.865 130.269,11.327 132.28,11.9748 C 133.332,12.2665 134.221,12.3555 134.729,12.0286 C 135.249,11.7292 135.613,11.149 135.676,10.4782 C 134.568,9.71832 130.145,8.44424 124.243,8.44424 C 118.384,8.44424 113.145,9.35452 108.734,11.7262 C 103.727,14.4125 101.497,18.0336 101.483,21.3109 C 101.457,28.6116 109.608,33.8368 123.945,33.8368 C 128.28,33.8368 131.683,33.2673 133.065,32.6994 C 134.062,32.179 134.767,31.4038 135.011,30.3876 L 134.752,30.2801 M 139.203,32.3217 L 140.373,33.1 C 142.233,33.318 147.286,33.4899 153.673,33.4899 C 159.085,33.4899 161.611,33.4086 162.608,33.318 C 164.335,33.0064 165.608,32.09 166.223,30.9694 L 166.07,30.8865 C 163.106,31.0446 158.448,31.0692 154.938,31.0692 C 151.183,31.0692 147.462,30.9924 145.867,30.7606 L 145.899,22.0017 L 158.448,22.0017 C 161.015,22.0094 162.337,21.8436 163.307,19.584 L 145.907,19.584 L 145.938,11.4437 L 156.106,11.4437 C 159.504,11.4437 160.923,11.4437 161.885,11.1828 C 162.82,10.7422 163.648,10.0238 163.944,9.02449 C 158.256,9.02449 150.194,9.02449 144.932,9.02449 C 142.848,9.11045 140.563,9.34991 139.076,9.56942 C 139.282,11.0293 139.274,12.6226 139.266,14.4539 L 139.203,32.3217 M 243.448,20.8811 C 242.321,27.2715 231.558,32.6717 220.363,32.9434 C 209.166,33.2182 201.006,28.26 202.136,21.8727 C 203.267,15.4824 213.26,10.0821 224.452,9.80736 C 233.269,9.59245 240.909,12.684 242.906,17.1003 C 243.181,17.8141 243.585,18.8779 243.548,19.825 C 243.542,20.1719 243.511,20.5234 243.448,20.8811 z M 238.93,31.0553 C 231.442,35.949 219.366,39.1818 207.57,39.1818 C 199.423,39.1818 191.364,37.4135 185.892,34.7932 C 185.892,34.7932 186.028,34.8054 186.051,34.7686 C 186.071,34.7318 203.927,5.71034 203.927,5.71034 C 203.927,5.71034 201.479,4.88602 199.876,6.31054 C 198.941,7.11336 196.184,8.24776 193.866,8.87405 C 189.892,9.98388 189.646,9.97007 188.081,10.4152 C 186.163,10.9602 185.345,13.3165 185.345,13.3165 C 185.345,13.3165 193.435,11.8244 193.504,11.809 C 193.573,11.7906 193.734,11.7169 193.734,11.7169 C 193.734,11.7169 193.605,11.8213 193.567,11.8812 C 193.527,11.9411 181.423,31.9564 181.394,32.0025 C 181.363,32.0485 181.434,32.1437 181.434,32.1437 C 177.386,29.1243 174.411,25.2959 174.769,21.2096 C 175.639,11.2825 192.093,3.23739 210.716,3.23739 C 218.183,3.23739 224.952,4.54371 230.33,6.74649 C 230.508,6.8171 231.04,6.99977 231.214,7.07345 C 231.017,7.04736 230.462,6.91534 230.262,6.89232 C 228.204,6.65592 225.981,6.56689 223.614,6.62676 C 209.584,6.97675 197.059,13.9197 195.642,22.1291 C 194.227,30.3415 204.452,36.715 218.487,36.3635 C 226.004,36.1762 233.524,34.1607 238.887,30.9985 C 239.181,30.8251 240.272,30.1021 240.686,29.8334 C 240.473,30.0407 239.426,30.733 238.93,31.0553 z M 210.957,1.77636e-15 C 188.423,1.77636e-15 169.35,9.79815 168.354,21.1743 C 167.358,32.5489 184.82,42.3486 207.353,42.3486 C 229.887,42.3486 248.966,32.5489 249.96,21.1743 C 250.956,9.79815 233.493,1.77636e-15 210.957,1.77636e-15 M 244.053,37.3843 C 244.177,37.3843 244.292,37.3812 244.403,37.3736 C 244.515,37.3643 244.613,37.3413 244.699,37.3045 C 244.785,37.2661 244.853,37.2078 244.905,37.1295 C 244.955,37.0512 244.982,36.9422 244.982,36.801 C 244.982,36.6828 244.958,36.5891 244.912,36.5201 C 244.866,36.4479 244.808,36.3942 244.736,36.3558 C 244.662,36.3205 244.578,36.2929 244.484,36.2791 C 244.391,36.2668 244.298,36.2607 244.206,36.2607 L 243.479,36.2607 L 243.479,37.3843 L 244.053,37.3843 z M 244.294,35.8186 C 244.714,35.8186 245.024,35.903 245.227,36.0703 C 245.428,36.2376 245.53,36.4894 245.53,36.8286 C 245.53,37.1464 245.442,37.3797 245.262,37.5271 C 245.084,37.6744 244.863,37.7635 244.599,37.7895 L 245.606,39.3399 L 245.02,39.3399 L 244.06,37.8264 L 243.479,37.8264 L 243.479,39.3399 L 242.929,39.3399 L 242.929,35.8186 L 244.294,35.8186 z M 241.807,38.5939 C 241.931,38.9086 242.106,39.1834 242.33,39.4136 C 242.553,39.6439 242.817,39.825 243.12,39.9586 C 243.425,40.089 243.753,40.155 244.108,40.155 C 244.457,40.155 244.782,40.089 245.083,39.9586 C 245.384,39.825 245.645,39.6439 245.869,39.4136 C 246.091,39.1834 246.266,38.9086 246.394,38.5939 C 246.52,38.2792 246.583,37.9369 246.583,37.567 C 246.583,37.2062 246.52,36.8701 246.394,36.5584 C 246.266,36.2468 246.091,35.9767 245.869,35.7479 C 245.645,35.5192 245.384,35.3396 245.083,35.2076 C 244.782,35.0771 244.457,35.0096 244.108,35.0096 C 243.753,35.0096 243.425,35.0771 243.12,35.2076 C 242.817,35.3396 242.553,35.5192 242.33,35.7479 C 242.106,35.9767 241.931,36.2468 241.807,36.5584 C 241.681,36.8701 241.617,37.2062 241.617,37.567 C 241.617,37.9369 241.681,38.2792 241.807,38.5939 z M 241.31,36.3819 C 241.471,36.0166 241.69,35.7004 241.967,35.4317 C 242.245,35.1631 242.567,34.9513 242.935,34.7978 C 243.304,34.6473 243.694,34.5706 244.108,34.5706 C 244.523,34.5706 244.912,34.6473 245.276,34.7978 C 245.643,34.9513 245.961,35.1631 246.236,35.4317 C 246.51,35.7004 246.727,36.0166 246.888,36.3819 C 247.049,36.7457 247.132,37.1418 247.132,37.5654 C 247.132,38.0014 247.049,38.402 246.888,38.7704 C 246.727,39.1388 246.51,39.4566 246.236,39.7298 C 245.961,40 245.643,40.2118 245.276,40.3607 C 244.912,40.5112 244.523,40.5879 244.108,40.5879 C 243.694,40.5879 243.304,40.5112 242.935,40.3607 C 242.567,40.2118 242.245,40 241.967,39.7298 C 241.69,39.4566 241.471,39.1388 241.31,38.7704 C 241.149,38.402 241.069,38.0014 241.069,37.5654 C 241.069,37.1418 241.149,36.7457 241.31,36.3819" style="fill:#231f20;fill-opacity:1;fill-rule:nonzero;stroke:none"/>
<div xmlns="" id="divScriptsUsed" style="display: none"/><script xmlns="" id="globalVarsDetection" src="moz-extension://988954a5-4571-47b7-8811-234b4eee0106/js/wrs_env.js"/></svg>