<svg version="1.1" viewBox="0 0 1024 138" xmlns="http://www.w3.org/2000/svg" xmlns:xlink="http://www.w3.org/1999/xlink">
<g fill="none" fill-rule="evenodd" id="Page-1" stroke="none" stroke-width="1">
<g fill-rule="nonzero" id="Foundry_Logo_Update" transform="translate(0.300000, 0.400000)">
<g class="full-logo__text" fill="currentColor" id="Group" transform="translate(161.900000, 0.000000)">
<polygon id="Path" points="-5.68434189e-14 134.2 -5.68434189e-14 2.7 83.1 2.7 83.1 26.2 27 26.2 27 60.6 76.1 60.6 76.1 83.4 27 83.4 27 134.3 -5.68434189e-14 134.3"></polygon>
<path d="M93.8,68.6 C93.8,24.4 117.3,0 155.2,0 C193.2,0 216.6,24.3 216.6,68.6 C216.6,112.6 193.1,137 155.2,137 C117.3,136.9 93.8,112.6 93.8,68.6 Z M122,68.8 C122,96.7 133.2,113.5 155.3,113.5 C177.4,113.5 188.4,96.7 188.4,68.8 C188.4,41.1 177.2,24.1 155.3,24.1 C133.2,24.1 122,41.1 122,68.8 Z" id="Shape"></path>
<path d="M341.6,2.7 L341.6,90.5 C341.6,125.6 316.6,137 288.7,137 C260.6,137 235.5,125.6 235.5,90.5 L235.5,2.7 L262.5,2.7 L262.5,83.1 C262.5,103.4 269.4,114.4 288.6,114.4 C307.6,114.4 314.5,103.5 314.5,83.1 L314.5,2.7 L341.6,2.7 Z" id="Path"></path>
<path d="M443,70.1 C450.4,80.8 455.3,90.2 455.3,90.2 L456.2,90.2 C456.2,90.2 455.3,78.1 455.3,61.4 L455.3,2.7 L482.3,2.7 L482.3,134.3 L457.1,134.3 L408.6,67.5 C400.3,56.1 395.2,46.1 395.2,46.1 L394.3,46.1 C394.3,46.1 395.6,57.9 395.6,76.3 L395.6,134.4 L368.6,134.4 L368.6,2.7 L394.7,2.7 L443,70.1 Z" id="Path"></path>
<path d="M513.1,134.2 L513.1,2.7 L559.1,2.7 C595.5,2.7 623,20.8 623,67 C623,115.7 594.4,134.2 557.5,134.2 L513.1,134.2 L513.1,134.2 Z M554.9,111.5 C579.2,111.5 594.7,100.3 594.7,68.6 C594.7,35.3 579.1,25.5 556.7,25.5 L540.2,25.5 L540.2,111.5 L554.9,111.5 Z" id="Shape"></path>
<path d="M718.9,134.2 C715.3,130.8 713.8,126.4 712.4,121 L707.3,100.2 C704.4,87.7 698.4,85.5 687.2,85.5 L672.7,85.5 L672.7,134.2 L645.7,134.2 L645.7,2.7 L695.5,2.7 C725.2,2.7 742.2,14.1 742.2,42 C742.2,62.6 729.7,73.5 712.9,74.8 L712.9,75.5 C725.2,77.3 731.7,82.4 735,95.2 L741.7,120.2 C743.3,125.6 745.1,130 749.1,134.3 L718.9,134.3 L718.9,134.2 Z M672.6,63 L693.6,63 C707.2,63 714.4,57.6 714.4,44.2 C714.4,32.4 707.5,25.4 693.8,25.4 L672.6,25.4 L672.6,63 L672.6,63 Z" id="Shape"></path>
<path d="M796.6,37.5 C804.6,54.3 806.2,63.9 806.2,63.9 L807.1,63.9 C807.1,63.9 808.4,53.8 816.5,37.5 L833,2.7 L861.6,2.7 L820.1,88.5 L820.1,134.3 L793.1,134.3 L793.1,88.5 L748.8,2.7 L779.6,2.7 L796.6,37.5 Z" id="Path"></path>
</g>
<g class="full-logo__icon" fill="#ED6B49" id="Group" transform="translate(0.000000, 2.500000)">
<path class="full-logo__circle-1" d="M0,-1.42108547e-14 C23.1,-1.42108547e-14 41.8,18.7 41.8,41.8 C41.8,64.9 23.1,83.6 0,83.6 L0,-1.42108547e-14 Z" id="Path"></path>
<path class="full-logo__circle-3" d="M131.9,131.9 C108.8,131.9 90.1,113.2 90.1,90.1 C90.1,67 108.8,48.3 131.9,48.3 L131.9,131.9 Z" id="Path"></path>
<path class="full-logo__circle-4" d="M0,131.9 C0,108.8 18.7,90.1 41.8,90.1 C64.9,90.1 83.6,108.8 83.6,131.9 L0,131.9 Z" id="Path"></path>
<path class="full-logo__circle-2" d="M131.9,-1.42108547e-14 C131.9,23.1 113.2,41.8 90.1,41.8 C67,41.8 48.3,23.1 48.3,-1.42108547e-14 L131.9,-1.42108547e-14 Z" id="Path"></path>
</g>
</g>
</g>
</svg>