<svg width="441" height="81" viewBox="0 0 441 81" fill="none" xmlns="http://www.w3.org/2000/svg">
<path d="M236.203 56.7686V67.9966C236.186 71.1961 237.436 74.2722 239.68 76.5525C241.925 78.8328 244.981 80.1318 248.18 80.1656H273.451V72.6796H249.49C249.341 72.6856 249.192 72.6605 249.053 72.606C248.914 72.5515 248.788 72.4688 248.683 72.363C248.578 72.2573 248.495 72.1308 248.442 71.9916C248.388 71.8525 248.363 71.7037 248.37 71.5546V53.9616C248.37 53.2116 248.741 52.6506 249.49 52.6506H273.451V44.7896H248.18C246.601 44.7689 245.034 45.0646 243.572 45.6593C242.109 46.254 240.78 47.1356 239.664 48.2521C238.548 49.3687 237.666 50.6975 237.072 52.1602C236.477 53.6229 236.182 55.1898 236.203 56.7686Z" fill="#0052A3"/>
<path d="M233.395 44.603H219.169L213.556 51.156C212.836 51.8746 211.86 52.2782 210.842 52.2782C209.824 52.2782 208.848 51.8746 208.128 51.156L202.512 44.603H188.475L201.575 59.575C201.938 59.9335 202.224 60.3634 202.413 60.8376C202.602 61.3119 202.69 61.8201 202.673 62.3303C202.655 62.8405 202.532 63.3415 202.311 63.8017C202.09 64.2619 201.776 64.6713 201.389 65.004L188.475 80.164H202.512L208.128 73.616C208.893 72.9653 209.874 72.6237 210.878 72.6579C211.882 72.6921 212.837 73.0997 213.556 73.801L219.169 80.35H233.396L220.296 65.191C219.577 64.4706 219.174 63.4946 219.174 62.477C219.174 61.4595 219.577 60.4835 220.296 59.763L233.395 44.603Z" fill="#0052A3"/>
<path d="M173.129 44.605H163.022H154.413C147.113 44.605 141.126 50.031 141.126 56.77V67.997C141.126 74.736 147.113 80.164 154.413 80.164H172.755C174.381 80.2122 176.001 79.9292 177.514 79.3321C179.028 78.735 180.404 77.8363 181.56 76.6907C182.715 75.545 183.625 74.1764 184.235 72.6679C184.845 71.1595 185.142 69.5427 185.108 67.916V56.608C185.108 50.014 180.429 44.608 173.129 44.608M154.413 72.303C154.092 72.3193 153.777 72.2117 153.534 72.0025C153.29 71.7934 153.136 71.4985 153.103 71.179V53.587C153.099 53.414 153.13 53.2419 153.195 53.0813C153.259 52.9207 153.355 52.7748 153.478 52.6525C153.6 52.5302 153.746 52.4341 153.907 52.3699C154.068 52.3057 154.24 52.2747 154.413 52.279H163.022H171.633C172.38 52.279 172.943 52.655 172.943 53.412L172.755 71.122C172.714 71.4514 172.553 71.7539 172.302 71.971C172.05 72.188 171.728 72.3042 171.396 72.297H162.975L154.413 72.303Z" fill="#0052A3"/>
<path d="M98.6379 56.579V80.35H110.615V69.308C110.592 68.9332 110.649 68.5578 110.782 68.2066C110.915 67.8554 111.121 67.5365 111.386 67.2711C111.652 67.0056 111.971 66.7997 112.322 66.667C112.674 66.5342 113.049 66.4776 113.424 66.501H134.012V60.324H111.74C111.42 60.2918 111.125 60.1379 110.915 59.894C110.706 59.6501 110.598 59.3351 110.615 59.014V53.779C110.598 53.4576 110.705 53.1419 110.915 52.8974C111.124 52.6529 111.42 52.4985 111.74 52.466H135.884V44.603H109.868C103.691 44.603 98.6379 49.843 98.6379 56.582" fill="#0052A3"/>
<path d="M360.104 44.603H328.286V80.164H340.263V53.587C340.257 53.4378 340.282 53.2888 340.336 53.1497C340.39 53.0105 340.473 52.8842 340.579 52.7787C340.685 52.6732 340.811 52.5908 340.951 52.5368C341.09 52.4828 341.239 52.4584 341.388 52.465H358.979C359.271 52.4846 359.545 52.609 359.752 52.8153C359.959 53.0215 360.084 53.2957 360.104 53.587V80.164H372.08V56.579C371.963 53.4401 370.664 50.4614 368.443 48.2403C366.222 46.0192 363.243 44.72 360.104 44.603Z" fill="#0052A3"/>
<path d="M409.701 44.415H377.885V79.976H389.861V53.587C389.881 53.2957 390.006 53.0214 390.213 52.815C390.419 52.6085 390.694 52.4839 390.985 52.464H408.577C408.869 52.4836 409.143 52.6082 409.35 52.8147C409.557 53.0211 409.682 53.2955 409.702 53.587V80.162H421.677V56.392C421.592 53.2426 420.304 50.2454 418.076 48.0174C415.848 45.7894 412.851 44.5001 409.702 44.415" fill="#0052A3"/>
<path d="M310.668 44.605H300.563H291.952C284.652 44.605 278.665 50.031 278.665 56.77V67.997C278.665 74.736 284.652 80.164 291.952 80.164H310.294C311.92 80.2115 313.539 79.928 315.052 79.3306C316.565 78.7332 317.941 77.8344 319.095 76.6888C320.25 75.5433 321.16 74.1749 321.77 72.6667C322.38 71.1586 322.676 69.5423 322.642 67.916V56.608C322.642 50.014 317.966 44.608 310.665 44.608M300.56 72.308H291.949C291.628 72.3243 291.314 72.2169 291.07 72.0079C290.826 71.7989 290.672 71.5044 290.639 71.185V53.587C290.635 53.4138 290.666 53.2415 290.73 53.0807C290.794 52.9198 290.891 52.7737 291.013 52.6512C291.136 52.5287 291.282 52.4324 291.443 52.368C291.604 52.3037 291.776 52.2727 291.949 52.277H300.56H309.171C309.918 52.277 310.481 52.653 310.481 53.41L310.294 71.165C310.262 71.4857 310.109 71.782 309.865 71.9925C309.621 72.203 309.305 72.3117 308.983 72.296L300.56 72.308Z" fill="#0052A3"/>
<path d="M430.374 44.9626H434.587C435.173 44.9418 435.757 45.044 436.301 45.2626C436.712 45.4394 437.058 45.7408 437.288 46.1244C437.519 46.508 437.624 46.9544 437.587 47.4006C437.607 47.8682 437.487 48.3311 437.243 48.7306C437 49.0875 436.668 49.3744 436.28 49.5626C436.597 49.6765 436.879 49.8721 437.097 50.1296C437.311 50.4703 437.418 50.8675 437.403 51.2696L437.448 52.4826C437.449 52.7417 437.479 52.9999 437.536 53.2526C437.554 53.3702 437.6 53.4818 437.67 53.5783C437.739 53.6749 437.83 53.7538 437.936 53.8086V54.0086H436.396C436.349 53.9138 436.315 53.8128 436.296 53.7086C436.262 53.4712 436.24 53.2322 436.231 52.9926L436.156 51.4836C436.171 51.2438 436.118 51.0047 436.003 50.794C435.887 50.5834 435.714 50.4098 435.504 50.2936C435.153 50.1625 434.778 50.106 434.404 50.1276H431.63V54.0126H430.374V44.9626ZM434.452 49.1096C434.929 49.1357 435.403 49.0149 435.81 48.7636C435.991 48.6142 436.131 48.4221 436.218 48.2046C436.306 47.9872 436.337 47.7513 436.31 47.5186C436.338 47.2542 436.286 46.9874 436.162 46.7525C436.037 46.5177 435.845 46.3255 435.61 46.2006C435.295 46.0638 434.953 46.0005 434.61 46.0156H431.63V49.1086L434.452 49.1096Z" fill="#0052A3"/>
<path d="M433.61 56.0188C432.317 56.0186 431.053 55.6351 429.979 54.9167C428.904 54.1984 428.066 53.1774 427.571 51.983C427.077 50.7885 426.947 49.4742 427.2 48.2063C427.452 46.9383 428.074 45.7736 428.989 44.8595C429.903 43.9453 431.067 43.3227 432.335 43.0705C433.603 42.8182 434.918 42.9476 436.112 43.4422C437.307 43.9369 438.328 44.7746 439.046 45.8494C439.764 46.9243 440.148 48.188 440.148 49.4808C440.145 51.214 439.456 52.8754 438.23 54.101C437.005 55.3265 435.343 56.0162 433.61 56.0188ZM433.61 43.4128C432.41 43.4124 431.236 43.7681 430.238 44.4347C429.239 45.1014 428.461 46.0492 428.001 47.1582C427.542 48.2672 427.421 49.4875 427.655 50.665C427.889 51.8424 428.467 52.924 429.316 53.7729C430.165 54.6218 431.246 55.2 432.424 55.4342C433.601 55.6684 434.822 55.5482 435.931 55.0888C437.04 54.6293 437.988 53.8513 438.655 52.8531C439.321 51.8548 439.677 50.6813 439.677 49.4808C439.674 47.8731 439.034 46.3322 437.896 45.1958C436.759 44.0594 435.218 43.4204 433.61 43.4188" fill="#0052A3"/>
<path fill-rule="evenodd" clip-rule="evenodd" d="M44.594 7.4209V29.3849H29.785V7.4209H0.168L0 80.8019H29.619V58.6709H44.263L44.428 80.6339H74.046V7.4209H44.594ZM66.559 73.3139H51.916V58.5049C51.8118 56.6567 51.0198 54.9143 49.6956 53.6207C48.3715 52.3271 46.6112 51.5759 44.761 51.5149H29.785C25.96 51.5149 22.297 54.8429 22.297 58.5049V73.4799H7.488V14.7429H22.3V36.7069H55.41C60.735 36.7069 66.559 42.6969 66.559 48.0219V73.3139Z" fill="#E73534"/>
<path d="M80.13 2.75271H84.212C84.781 2.73399 85.3476 2.83377 85.876 3.04571C86.2736 3.21786 86.6072 3.51038 86.8298 3.88207C87.0524 4.25377 87.1529 4.68593 87.117 5.11771C87.1371 5.57129 87.0211 6.02052 86.784 6.40771C86.5494 6.75374 86.228 7.03204 85.852 7.21471C86.1602 7.32379 86.4337 7.51334 86.644 7.76371C86.8521 8.09197 86.9566 8.47525 86.944 8.86371L86.987 10.0397C86.9894 10.291 87.0179 10.5413 87.072 10.7867C87.0908 10.9005 87.136 11.0083 87.2039 11.1015C87.2718 11.1948 87.3605 11.2709 87.463 11.3237V11.5237H85.969C85.9214 11.4315 85.8878 11.3328 85.869 11.2307C85.8344 11.0015 85.8137 10.7704 85.807 10.5387L85.736 9.07971C85.7503 8.84699 85.6981 8.615 85.5855 8.41084C85.4728 8.20669 85.3045 8.03877 85.1 7.92671C84.7608 7.80081 84.3992 7.74634 84.038 7.76671H81.346V11.5237H80.13V2.75271ZM84.082 6.77071C84.5444 6.79535 85.0033 6.67886 85.398 6.43671C85.572 6.29262 85.7074 6.10746 85.7919 5.89796C85.8764 5.68845 85.9073 5.46119 85.882 5.23671C85.9084 4.98059 85.8582 4.7224 85.7376 4.49488C85.6171 4.26735 85.4317 4.08074 85.205 3.95871C84.9001 3.82635 84.5691 3.76481 84.237 3.77871H81.347V6.77871L84.082 6.77071Z" fill="#E73534"/>
<path d="M83.263 13.4698C82.0099 13.4702 80.7848 13.0989 79.7427 12.403C78.7006 11.7071 77.8884 10.7177 77.4086 9.56003C76.9289 8.40238 76.8033 7.12846 77.0477 5.8994C77.292 4.67034 77.8954 3.54137 78.7815 2.65529C79.6676 1.7692 80.7966 1.16581 82.0256 0.921435C83.2547 0.677062 84.5286 0.802684 85.6863 1.28241C86.8439 1.76214 87.8333 2.57443 88.5292 3.61652C89.2252 4.65861 89.5964 5.88369 89.596 7.13681C89.5936 8.81569 88.9257 10.4251 87.7385 11.6123C86.5514 12.7994 84.9419 13.4674 83.263 13.4698ZM83.263 1.25481C82.1002 1.25481 80.9634 1.59961 79.9965 2.24563C79.0296 2.89164 78.2759 3.80985 77.8308 4.88417C77.3857 5.95848 77.2691 7.14065 77.4959 8.2812C77.7226 9.42176 78.2824 10.4695 79.1045 11.2919C79.9267 12.1143 80.9742 12.6745 82.1147 12.9016C83.2551 13.1287 84.4374 13.0125 85.5118 12.5678C86.5863 12.1231 87.5048 11.3697 88.1511 10.403C88.7974 9.43632 89.1426 8.29968 89.143 7.13681C89.1414 5.57764 88.5215 4.08275 87.4192 2.98007C86.3169 1.87738 84.8222 1.25692 83.263 1.25481Z" fill="#E73534"/>
<path d="M66.5591 73.3147H51.9161V58.5027C51.8119 56.6542 51.0197 54.9116 49.6954 53.6178C48.3711 52.324 46.6105 51.5727 44.7601 51.5117H29.7851C25.9601 51.5117 22.2971 54.8397 22.2971 58.5027V73.4797H7.48706V14.7417H22.2961V36.7027H55.4101C60.7341 36.7027 66.5581 42.6927 66.5581 48.0157L66.5591 73.3147Z" fill="white"/>
</svg>
