<svg xmlns="http://www.w3.org/2000/svg" xml:space="preserve" width="950" height="462.114" viewBox="0 0 251.354 122.268"><path fill="#ea0000" d="M187.42 41.672c-5.334 0-9.966 1.145-13.581 3.747-3.638 2.619-6.147 6.88-6.147 12.076 0 9.928 7.533 13.91 14.46 17.397 5.898 2.969 11.357 4.937 11.357 10.537 0 5.288-6.184 9.284-12.93 9.284-7.952 0-13.919-6.203-13.919-6.203l3.242 10.885s6.284 1.452 10.52 1.452c8.088 0 13.928-2.012 18.143-6.031 3.05-2.91 4.672-6.651 4.672-10.823 0-9.227-7.342-13.306-14.236-16.698-6.055-2.98-11.515-4.802-11.515-10.912 0-5.917 5.247-8.855 10.802-8.855 7.376 0 9.82 4.423 9.82 4.423v-8.856s-5.738-1.423-10.688-1.423zM34.822 42.72 0 42.768c1.842 1.058 3.63 3.152 3.63 5.485v46.245c0 2.238-1.715 4.245-3.48 5.26h16.433c-1.766-1.015-3.48-3.022-3.48-5.26V71.392h13.082c1.59 0 3.907 1.059 4.387 2.852V65.47H13.103V48.643h16.235c2.333 0 4.426 1.881 5.484 3.819zm1.661 0c1.775 1.02 3.499 2.833 3.499 5.285v34.783c0 11.795 10.463 18.116 20.596 18.116 10.133 0 20.245-6.321 20.245-18.116V48.005c0-2.452 2.075-4.265 3.85-5.285H66.725c2.227 1.02 4.144 2.833 4.144 5.285v34.783c0 7.657-5.438 12-10.29 12-4.853 0-10.645-4.343-10.645-12V48.005c0-2.452 2.162-4.265 4.389-5.285zm51.197 0c1.361.838 3.697 2.451 3.697 4.688v55.98c0 7.414-5.07 16.522-9.119 18.88 12.736-2.105 19.19-10.86 19.19-20.925V47.978c0-2.237 2.001-4.244 4.063-5.258zm20.358 0c1.36.838 3.86 2.56 3.86 4.688v47.19c0 2.13-2.5 4.322-3.86 5.16h17.765c-2.062-1.015-4.064-3.021-4.064-5.258V47.978c0-2.237 2.002-4.244 4.064-5.258zm21.388 0L125.8 54.075s4.088-5.432 7.287-5.432h9.356V94.6c0 2.129-2.499 4.32-3.86 5.159h17.266c-1.72-1.223-3.651-3.021-3.651-5.258V48.643h8.113c3.899 0 4.919 4.413 4.919 4.413l3.3-10.336zm74.098 0c1.775 1.02 3.783 2.833 3.783 5.285v34.783c0 11.795 10.141 18.116 20.274 18.116 10.133 0 19.922-6.321 19.922-18.116V47.762c0-2.452 2.076-4.022 3.851-5.042h-17.4c1.436.777 3.656 2.269 3.656 4.16v35.908c0 7.657-5.176 12-10.029 12s-10.322-4.343-10.322-12V47.87c0-2.615 1.891-4.13 4.118-5.15zM117.99 0c-4.824.005-9.289 2.384-12.372 6.345v9.442c2.27-5.518 3.733-6.659 4.823-7.715a10.854 10.854 0 0 1 7.548-3.069c6.006-.004 10.876 4.87 10.875 10.876 0 6.006-4.869 10.88-10.875 10.875-3.137-.004-5.889-1.388-7.952-3.452-1.805-1.805-2.895-3.259-4.396-4.84-.952-.989-1.36-1.633-2.87-2.675-1.766-1.22-4.669-1.975-7.04-1.975-7.015 0-12.702 5.687-12.702 12.703 0 7.015 5.687 12.709 12.703 12.702a12.685 12.685 0 0 0 9.886-4.766V27.86c-3.669 5.872-7.333 6.634-9.886 6.634a7.953 7.953 0 0 1-7.954-7.953 7.953 7.953 0 0 1 7.954-7.954c2.39.001 4.519.919 6.171 2.706 2.305 2.492 3.251 3.913 4.535 5.322 2.939 3.227 7.15 5.047 11.551 5.051 8.744.009 15.833-7.089 15.833-15.833S126.733-.008 117.989 0z" paint-order="stroke fill markers"/></svg>