<svg id="图层_1" data-name="图层 1" xmlns="http://www.w3.org/2000/svg" viewBox="0 0 154.35 49.83"><defs><style>.cls-1{fill:#135d98;fill-rule:evenodd;}</style></defs><path class="cls-1" d="M392.26,256.37H372.38l-4.84,9.93h7.29l-4.2,8.65c-3.95,0-11.77.29-15.16-1.46a6,6,0,0,1-3.38-4.31,12.23,12.23,0,0,1,.83-6.46A24.92,24.92,0,0,1,371.57,247a39.49,39.49,0,0,1,8.57-1h17.13l5.1-10.47c-12.94.1-31.34-.63-39.94,3-1.15.48-2.34,1-3.47,1.51-13.28,6.08-29.78,30.25-17.52,41.6,3,2.59,6.91,3.6,19,3.55h17.83c4.74-9.63,9.32-19.21,14-28.88Zm-4.38,18.55-5.06,10.33H381L386,274.92Zm6.19,0h0l-5,10.31h-3.51l5.16-10.32Zm7.73-.16-5.14,10.47h-5l5.07-10.33c1.71,0,3.39-.06,5-.14Zm28.13-39.22h0L424.81,246c-6.87.34-9.23,2.24-6.74,6.48a11.15,11.15,0,0,0,1.53,2c.68.72,1.76,1.77,3.24,3.18l2.08,2c1.84,1.87,5.48,6.72,4.76,9.23a9.35,9.35,0,0,1-.58,2.3,17.86,17.86,0,0,1-3.92,6,22.4,22.4,0,0,1-6.52,4.7,29.5,29.5,0,0,1-7.74,2.58,44.22,44.22,0,0,1-8.07.75H399.4l5.24-10.66a39.61,39.61,0,0,0,5.24-.76,4.63,4.63,0,0,0,3-2.65,3.2,3.2,0,0,0,.22-1.14,2.92,2.92,0,0,0-.28-1.23,6,6,0,0,0-1-1.49l-5.22-5.76c-1.23-1.32-2.09-2.27-2.56-2.86-.93-1.19-2.37-2.3-2.73-3.33a7.49,7.49,0,0,1-.52-3.15,10.48,10.48,0,0,1,.72-3.39,15.52,15.52,0,0,1,2.39-4.2,21.72,21.72,0,0,1,4-3.86,23.62,23.62,0,0,1,5.61-3.09,28.35,28.35,0,0,1,6.59-1.77,41.8,41.8,0,0,1,6.7-.35Zm7.63,0h-4.9L427.55,246h4.93l5.08-10.46Zm6.23,0h0L438.71,246h-3.47l5.08-10.46Zm4.6,0h-1.87L441.45,246h1.87l5.07-10.47ZM450.94,246h0c11.95.07,18.48-.53,22.32,1.29a5.42,5.42,0,0,1,3,4,13,13,0,0,1-.94,7.06c-6.49,13.95-16.7,16.4-30.71,16.59l9-18.57H441.07l-14,28.91c11.81.14,25.37.51,36.54-2.39a32.6,32.6,0,0,0,5-1.76,36.61,36.61,0,0,0,12.29-8.71,42.13,42.13,0,0,0,5.09-6.63,40.8,40.8,0,0,0,3.76-7.65,25.47,25.47,0,0,0,1.69-7.85,14.42,14.42,0,0,0-1-6.67c-3.46-7.78-9.62-8-22-8.08H451.17L446.09,246Z" transform="translate(-337.14 -235.54)"/><div xmlns="" id="divScriptsUsed" style="display: none"/><script xmlns="" id="globalVarsDetection" src="moz-extension://988954a5-4571-47b7-8811-234b4eee0106/js/wrs_env.js"/></svg>