<?xml version="1.0" encoding="UTF-8"?>
<svg version="1.1" xmlns="http://www.w3.org/2000/svg" width="438" height="228">
<path d="M0 0 C19.28888532 -0.16365196 38.57762941 -0.28702466 57.86706543 -0.3626852 C66.82388542 -0.39875242 75.78027361 -0.44790889 84.73681641 -0.52807617 C92.54500783 -0.59793149 100.35288649 -0.64302756 108.16138172 -0.65861946 C112.29463746 -0.66773141 116.42699857 -0.68908556 120.55996704 -0.7401104 C124.45408406 -0.78779475 128.34694221 -0.80224742 132.24132347 -0.79175377 C133.66675864 -0.79367205 135.09223797 -0.80749755 136.51741982 -0.83443832 C148.60299996 -1.05159871 148.60299996 -1.05159871 153.63032532 3.27546692 C154.78204466 4.49059092 155.90923004 5.72988005 157 7 C157.80749191 7.76780792 158.61498383 8.53561584 159.44694519 9.32669067 C160.12469498 10.00666107 160.80244476 10.68663147 161.50073242 11.38720703 C162.28481979 12.17136993 163.06890717 12.95553284 163.87675476 13.76345825 C165.10371819 14.9981636 165.10371819 14.9981636 166.35546875 16.2578125 C167.2201326 17.1238913 168.08479645 17.98997009 168.97566223 18.8822937 C171.71531833 21.6275039 174.45146631 24.37617997 177.1875 27.125 C179.03557445 28.97809683 180.88387961 30.8309636 182.73242188 32.68359375 C186.11886081 36.07816925 189.50399786 39.47403072 192.88745117 42.87158203 C195.92136566 45.91800611 198.95829659 48.96134914 202 52 C207.33333333 57.33333333 212.66666667 62.66666667 218 68 C222.27989147 66.34757178 225.12906926 63.12978672 228.28149414 59.9296875 C229.21148476 58.99772552 229.21148476 58.99772552 230.16026306 58.04693604 C232.20653059 55.99418267 234.24573246 53.93455082 236.28515625 51.875 C237.70663872 50.44724645 239.12863802 49.02000728 240.5511322 47.59326172 C244.29426994 43.83682165 248.03180141 40.07485676 251.76776123 36.3112793 C257.75009927 30.28582043 263.73915716 24.26705933 269.73147392 18.25152588 C271.82501355 16.14775337 273.91511194 14.04060572 276.00489807 11.93310547 C277.2857833 10.64539287 278.56677814 9.35778929 279.84790039 8.0703125 C280.71996628 7.18814056 280.71996628 7.18814056 281.60964966 6.28814697 C287.76795224 0.11245801 287.76795224 0.11245801 291.69613171 -0.24609566 C293.34014949 -0.24333028 293.34014949 -0.24333028 295.01737976 -0.24050903 C296.27521271 -0.24325836 297.53304565 -0.24600769 298.82899475 -0.24884033 C300.2254343 -0.24176204 301.62187289 -0.23449242 303.01831055 -0.22705078 C304.4867146 -0.22648672 305.95511922 -0.22680312 307.42352295 -0.22793579 C311.41293674 -0.22851051 315.40223069 -0.21673692 319.39161658 -0.20278788 C323.5596403 -0.19030039 327.72766664 -0.18911158 331.89570618 -0.18673706 C339.78985193 -0.18051645 347.6839424 -0.1640978 355.57806379 -0.14403808 C364.56465352 -0.12169713 373.55124587 -0.11069019 382.53785646 -0.10064721 C401.025269 -0.07973207 419.51263006 -0.04454482 438 0 C437.2265625 4.8046875 437.2265625 4.8046875 435.1875 6.5625 C434.1046875 7.2740625 434.1046875 7.2740625 433 8 C430.78040119 10.14799885 428.66458583 12.36121526 426.5625 14.625 C424.05807121 16.9461779 422.22238444 17.9872506 419 19 C419.33 19.99 419.66 20.98 420 22 C380.4 22.33 340.8 22.66 300 23 C300 23.66 300 24.32 300 25 C298.96930893 25.21739838 297.93861786 25.43479675 296.87669373 25.65878296 C292.64547726 26.879861 289.98187268 29.34398649 286.97290039 32.45947266 C286.41592468 33.01571823 285.85894897 33.57196381 285.28509521 34.14506531 C283.46049982 35.97312368 281.65422451 37.81820177 279.84765625 39.6640625 C278.58080359 40.9402478 277.31283709 42.21532828 276.04380798 43.48934937 C272.71677916 46.83541207 269.40504361 50.19621855 266.09631348 53.56036377 C262.71332524 56.99462171 259.31602799 60.41465996 255.91992188 63.8359375 C249.26589951 70.54348386 242.62795348 77.26669985 236 84 C237.45161054 87.05821689 238.76266378 88.94615188 241.375 91.125 C241.96023437 91.62257813 242.54546875 92.12015625 243.1484375 92.6328125 C247.05570082 95.51792254 249.90057052 96.25266537 254.77490234 96.2746582 C255.93645844 96.28419022 257.09801453 96.29372223 258.29476929 96.30354309 C259.5458548 96.30263168 260.79694031 96.30172028 262.0859375 96.30078125 C263.37561432 96.30506638 264.66529114 96.3093515 265.99404907 96.31376648 C268.72263705 96.3212201 271.45109563 96.32094413 274.1796875 96.31567383 C277.66550723 96.3098863 281.15079437 96.32679625 284.63652611 96.3500185 C287.97385164 96.36835158 291.31106195 96.36456935 294.6484375 96.36328125 C296.51899307 96.37709587 296.51899307 96.37709587 298.42733765 96.39118958 C309.70077789 96.33106262 312.64046393 94.35953607 321 86 C300.21 85.67 279.42 85.34 258 85 C258 82 258 82 259.29296875 80.6328125 C260.65371816 79.54982431 262.01501447 78.46752314 263.37666321 77.38566589 C265.41197631 75.53474951 266.87178882 73.95041784 268.50773621 71.79804993 C272.82357078 66.37255554 276.90323979 61.99582523 283.98623657 60.85409546 C289.96893841 60.33430901 295.9317879 60.53489922 301.92578125 60.73046875 C304.12675002 60.75475809 306.32778977 60.77324291 308.52885437 60.78620911 C314.28301894 60.83551592 320.03282116 60.96290371 325.78527832 61.10736084 C331.6707051 61.24107888 337.55684684 61.29987469 343.44335938 61.36523438 C354.96414172 61.50406913 366.4817062 61.72551894 378 62 C377.67 62.99 377.34 63.98 377 65 C373.9375 66.1875 373.9375 66.1875 371 67 C371.33 67.99 371.66 68.98 372 70 C368.80009492 72.74277578 365.99500618 74.6302836 362 76 C362.33 76.99 362.66 77.98 363 79 C361.33784732 80.33895632 359.67036393 81.67130142 358 83 C356.9171875 83.86625 356.9171875 83.86625 355.8125 84.75 C354 86 354 86 352 86 C352.33 86.99 352.66 87.98 353 89 C350.46645962 91.09921917 348.06949097 92.9613939 345.1875 94.5625 C344.465625 95.036875 343.74375 95.51125 343 96 C343 96.99 343 97.98 343 99 C339.92539863 101.89890986 336.98542514 103.63356852 333 105 C333.33 105.99 333.66 106.98 334 108 C326.29912983 114.60074586 319.16696088 120.35957266 308.65283203 120.40405273 C307.58814697 120.41434761 307.58814697 120.41434761 306.50195312 120.42485046 C304.17036571 120.44305639 301.83945532 120.43928953 299.5078125 120.43359375 C297.87645247 120.43815912 296.24509436 120.44346575 294.61373901 120.44947815 C291.19928156 120.45839748 287.78505813 120.45600032 284.37060547 120.44604492 C280.01055894 120.43456684 275.65132373 120.45475435 271.29138374 120.48396206 C267.92315601 120.50237469 264.55512079 120.50202141 261.18685532 120.49632454 C259.58020771 120.49617189 257.97354658 120.50216953 256.36694717 120.51461601 C246.79427507 120.57832463 239.63373628 120.46735722 231.80664062 114.26074219 C231.26201172 113.69516602 230.71738281 113.12958984 230.15625 112.546875 C229.55039063 111.928125 228.94453125 111.309375 228.3203125 110.671875 C227.41925781 109.72054687 227.41925781 109.72054687 226.5 108.75 C225.86835938 108.1003125 225.23671875 107.450625 224.5859375 106.78125 C223.04763961 105.19633703 221.51956494 103.60284632 220 102 C217.12419793 103.29678592 215.13671595 104.641881 212.9765625 106.93359375 C212.43 107.50013672 211.8834375 108.06667969 211.3203125 108.65039062 C210.19575316 109.835842 209.0733317 111.02332533 207.953125 112.21289062 C207.12941406 113.06463867 207.12941406 113.06463867 206.2890625 113.93359375 C205.80131348 114.44978271 205.31356445 114.96597168 204.81103516 115.49780273 C199.9153322 119.55863588 195.21782266 120.44507576 189.02270508 120.41992188 C188.24636215 120.42839142 187.47001923 120.43686096 186.67015076 120.44558716 C184.11977498 120.46887121 181.57000497 120.46998188 179.01953125 120.46875 C177.24167135 120.4758535 175.46381373 120.48355278 173.68595886 120.49182129 C169.9680645 120.50524387 166.25038247 120.50684342 162.5324707 120.50097656 C157.76378961 120.49506274 152.99612041 120.5257511 148.22763538 120.56609344 C144.56022128 120.59190586 140.89305357 120.59485415 137.22556114 120.59120178 C135.46683889 120.59289709 133.70810575 120.60257905 131.94947243 120.62034607 C129.49532081 120.64242444 127.04325432 120.63289527 124.58911133 120.61523438 C123.86126434 120.62849762 123.13341736 120.64176086 122.3835144 120.65542603 C120.35749817 120.62145996 120.35749817 120.62145996 117 120 C115.20927429 117.55529785 115.20927429 117.55529785 114 115 C112.00854609 113.98308736 110.00812926 112.98357352 108 112 C105.625 109.3125 105.625 109.3125 104 107 C104.33 106.67 104.66 106.34 105 106 C103.6696875 105.443125 103.6696875 105.443125 102.3125 104.875 C98.41600116 102.66943462 96.67369422 100.53871294 94 97 C94.33 96.67 94.66 96.34 95 96 C94.0925 95.608125 93.185 95.21625 92.25 94.8125 C88.85881606 92.9212628 87.20967163 91.1445327 85 88 C85.33 87.67 85.66 87.34 86 87 C84.6696875 86.443125 84.6696875 86.443125 83.3125 85.875 C79.41600116 83.66943462 77.67369422 81.53871294 75 78 C75.33 77.67 75.66 77.34 76 77 C75.0925 76.608125 74.185 76.21625 73.25 75.8125 C69.85881606 73.9212628 68.20967163 72.1445327 66 69 C66.33 68.67 66.66 68.34 67 68 C63.55291141 65.90493748 63.55291141 65.90493748 60 64 C60.495 63.01 60.495 63.01 61 62 C73.69116133 61.88418125 86.38219705 61.79532235 99.07377911 61.74093914 C104.96693772 61.71483864 110.85973494 61.67943138 116.75268555 61.62280273 C122.43908556 61.56850053 128.12513784 61.53858288 133.81177711 61.52561378 C135.98195687 61.51637079 138.15211745 61.49832138 140.32214928 61.47134972 C143.3606119 61.43508406 146.39763528 61.43005373 149.4362793 61.43237305 C150.33467529 61.41439667 151.23307129 61.39642029 152.15869141 61.37789917 C156.68935444 61.41535219 158.37300579 61.45374496 161.91023254 64.53547668 C162.5998558 65.34876938 163.28947906 66.16206207 164 67 C164.99 67 165.98 67 167 67 C171.81174439 71.12435233 171.81174439 71.12435233 172.42578125 73.98046875 C173.17919093 76.63021573 174.39129963 77.41765124 176.5625 79.0625 C178.50390625 80.53515625 178.50390625 80.53515625 180 82 C180 82.99 180 83.98 180 85 C159.21 85.33 138.42 85.66 117 86 C123.89915979 93.72358242 123.89915979 93.72358242 132.81422424 96.24723816 C133.83918503 96.24581314 134.86414581 96.24438812 135.92016602 96.24291992 C137.67206993 96.24753487 137.67206993 96.24753487 139.45936584 96.25224304 C140.71156418 96.24505753 141.96376251 96.23787201 143.25390625 96.23046875 C145.19341408 96.22978142 145.19341408 96.22978142 147.17210388 96.2290802 C149.90312103 96.22751981 152.63400626 96.21926383 155.36499023 96.20581055 C158.8608965 96.18880454 162.35665826 96.184997 165.85260105 96.18575573 C169.19472205 96.18541809 172.53679591 96.17657824 175.87890625 96.16796875 C177.13312881 96.16685593 178.38735138 96.1657431 179.67958069 96.16459656 C180.84436447 96.15821671 182.00914825 96.15183685 183.20922852 96.14526367 C184.23339371 96.14145187 185.2575589 96.13764008 186.3127594 96.13371277 C188.72745724 96.01356129 190.72963459 95.82228912 193 95 C193.33 94.34 193.66 93.68 194 93 C195.79694336 91.49177416 197.64393804 90.06240577 199.50390625 88.6328125 C201.45037658 86.87756328 201.45037658 86.87756328 201 83 C199.34879342 80.9590745 197.72627534 79.19015599 195.86279297 77.36108398 C195.3164772 76.80936523 194.77016144 76.25764648 194.20729065 75.68920898 C192.39537997 73.86477405 190.56932089 72.05527383 188.7421875 70.24609375 C187.47794948 68.98170077 186.21437807 67.71664094 184.95144653 66.45094299 C182.29944998 63.79756059 179.64060182 61.15129949 176.9765625 58.51000977 C173.56844082 55.1302003 170.1760221 51.73513861 166.78841972 48.33477688 C164.17916798 45.7185542 161.56257219 43.10977891 158.94363785 40.50325203 C157.69051274 39.25463277 156.43945846 38.00393155 155.19054794 36.75109673 C153.43880391 34.99642858 151.67761307 33.25181753 149.91357422 31.50952148 C149.40215378 30.9935994 148.89073334 30.47767731 148.36381531 29.94612122 C141.46992723 23.19219575 135.92778532 22.56390578 126.67382812 22.63110352 C125.54142197 22.62733704 124.40901581 22.62357056 123.24229431 22.61968994 C120.78856737 22.6132641 118.33481554 22.61358126 115.88108826 22.61987495 C111.99741984 22.62898561 108.11423412 22.61876134 104.23059082 22.60325623 C94.58673891 22.56822379 84.94292232 22.56083148 75.29901123 22.56335449 C67.14615714 22.5652161 58.99371952 22.55135931 50.84092712 22.51487541 C47.01524105 22.50403795 43.19005015 22.51618766 39.36437988 22.52870178 C37.01830554 22.51979856 34.67223525 22.50972459 32.32617188 22.49829102 C31.26313339 22.50803452 30.20009491 22.51777802 29.10484314 22.52781677 C23.05817897 22.4689662 19.63963806 21.9677081 15 18 C14.37351562 17.51015625 13.74703125 17.0203125 13.1015625 16.515625 C11.734375 15.34375 10.3671875 14.171875 9 13 C9.33 12.01 9.66 11.02 10 10 C9.0925 9.773125 8.185 9.54625 7.25 9.3125 C3.5077664 7.80121335 2.14098688 6.37617162 0 3 C0 2.01 0 1.02 0 0 Z " fill="#00A6BA" transform="translate(0,0)"/>
<path d="M0 0 C0.72243896 0.0012085 1.44487793 0.00241699 2.18920898 0.00366211 C5.79295046 0.03010935 9.31107497 0.14516358 12.875 0.6875 C16.63395624 1.16591261 19.56707601 0.66338049 23.3125 0.125 C32.05885604 -0.33440456 40.15696801 -0.49343143 48.3125 3.125 C49.3025 3.455 50.2925 3.785 51.3125 4.125 C52.4375 6.125 52.4375 6.125 53.3125 8.125 C53.8075 8.62 53.8075 8.62 54.3125 9.125 C54.40554018 10.59854348 54.42996265 12.07650591 54.42602539 13.55297852 C54.42591209 14.96432823 54.42591209 14.96432823 54.42579651 16.40419006 C54.42063522 17.42709641 54.41547394 18.45000275 54.41015625 19.50390625 C54.4087413 20.54570541 54.40732635 21.58750458 54.40586853 22.66087341 C54.4002508 26.00311094 54.3876953 29.34528257 54.375 32.6875 C54.36998728 34.94726466 54.36542398 37.20703037 54.36132812 39.46679688 C54.35027561 45.01955682 54.3329991 50.57226722 54.3125 56.125 C49.3625 56.125 44.4125 56.125 39.3125 56.125 C39.3125 40.615 39.3125 25.105 39.3125 9.125 C34.0325 9.125 28.7525 9.125 23.3125 9.125 C23.3125 24.635 23.3125 40.145 23.3125 56.125 C18.3625 56.125 13.4125 56.125 8.3125 56.125 C8.3125 40.615 8.3125 25.105 8.3125 9.125 C3.6925 9.125 -0.9275 9.125 -5.6875 9.125 C-5.6875 24.635 -5.6875 40.145 -5.6875 56.125 C-11.2975 56.125 -16.9075 56.125 -22.6875 56.125 C-22.76164138 49.50474501 -22.81609848 42.88473156 -22.85229492 36.26416016 C-22.86738395 34.01183869 -22.88785755 31.75954661 -22.91381836 29.50732422 C-22.95019593 26.27043404 -22.9672253 23.03393225 -22.98046875 19.796875 C-22.99595261 18.78945251 -23.01143646 17.78203003 -23.02738953 16.74407959 C-23.02761612 15.80340637 -23.02784271 14.86273315 -23.02807617 13.89355469 C-23.03473801 13.06748718 -23.04139984 12.24141968 -23.04826355 11.39031982 C-22.60239543 8.59060822 -21.52149836 7.24887715 -19.6875 5.125 C-19.254375 4.568125 -18.82125 4.01125 -18.375 3.4375 C-15.96909258 1.56623867 -13.67113689 1.49795461 -10.6875 1.125 C-7.07295286 -0.07984905 -3.76115916 -0.02359573 0 0 Z " fill="#000000" transform="translate(383.6875,171.875)"/>
<path d="M0 0 C0.99435562 -0.00315216 1.98871124 -0.00630432 3.01319885 -0.009552 C4.62109535 -0.00651566 4.62109535 -0.00651566 6.26147461 -0.00341797 C7.36228867 -0.00437469 8.46310272 -0.00533142 9.59727478 -0.00631714 C11.92487648 -0.00699787 14.25248007 -0.00515105 16.58007812 -0.00097656 C20.15295652 0.00437825 23.72570949 -0.00092783 27.29858398 -0.00732422 C29.5570478 -0.00666352 31.81551155 -0.00538252 34.07397461 -0.00341797 C35.14792984 -0.0054422 36.22188507 -0.00746643 37.3283844 -0.009552 C38.31958786 -0.00639984 39.31079132 -0.00324768 40.33203125 0 C41.20678604 0.00079559 42.08154083 0.00159119 42.98280334 0.00241089 C45.10131836 0.12939453 45.10131836 0.12939453 47.10131836 1.12939453 C47.14373559 3.46234229 47.14224773 5.7964202 47.10131836 8.12939453 C46.10131836 9.12939453 46.10131836 9.12939453 44.12083435 9.24964905 C43.25257523 9.24742844 42.3843161 9.24520782 41.48974609 9.24291992 C40.50880478 9.24284439 39.52786346 9.24276886 38.51719666 9.24269104 C37.45054276 9.23752975 36.38388885 9.23236847 35.28491211 9.22705078 C33.65562523 9.22492836 33.65562523 9.22492836 31.99342346 9.22276306 C28.50852761 9.21714501 25.02369494 9.20458946 21.53881836 9.19189453 C19.18269949 9.18688186 16.82657962 9.18231855 14.47045898 9.17822266 C8.68070125 9.16801864 2.89108091 9.14844677 -2.89868164 9.12939453 C-2.89868164 21.99939453 -2.89868164 34.86939453 -2.89868164 48.12939453 C9.64131836 48.12939453 22.18131836 48.12939453 35.10131836 48.12939453 C34.44131836 47.46939453 33.78131836 46.80939453 33.10131836 46.12939453 C32.90600586 43.52783203 32.90600586 43.52783203 32.97631836 40.50439453 C32.99436523 39.50150391 33.01241211 38.49861328 33.03100586 37.46533203 C33.05420898 36.69447266 33.07741211 35.92361328 33.10131836 35.12939453 C31.92053711 35.16419922 30.73975586 35.19900391 29.52319336 35.23486328 C27.96591594 35.26300685 26.40862311 35.2903064 24.85131836 35.31689453 C23.68536133 35.35459961 23.68536133 35.35459961 22.49584961 35.39306641 C19.18309481 35.43553762 16.65435039 35.34908057 13.55444336 34.11767578 C12.10131836 32.12939453 12.10131836 32.12939453 12.10131836 24.12939453 C21.67131836 24.12939453 31.24131836 24.12939453 41.10131836 24.12939453 C41.59631836 25.61439453 41.59631836 25.61439453 42.10131836 27.12939453 C43.74166029 27.85843539 45.41433754 28.51594696 47.10131836 29.12939453 C51.94535506 31.66150462 51.94535506 31.66150462 53.10131836 35.12939453 C53.21924835 36.77218671 53.2764351 38.41992147 53.28881836 40.06689453 C53.30299805 40.92154297 53.31717773 41.77619141 53.33178711 42.65673828 C53.07953288 45.36312684 52.63485814 46.88955567 51.10131836 49.12939453 C49.7799171 49.81940971 48.44447346 50.48274424 47.10131836 51.12939453 C46.44599121 51.54748886 45.79066406 51.96558319 45.11547852 52.39634705 C39.15276244 56.14059066 34.43563186 56.85735302 27.47631836 56.75830078 C25.99591064 56.76191872 25.99591064 56.76191872 24.4855957 56.76560974 C22.41149859 56.76463592 20.33737397 56.75135431 18.26342773 56.72631836 C15.10952428 56.69198386 11.95842453 56.70569232 8.80444336 56.72509766 C6.7783899 56.71819848 4.7523436 56.70852546 2.72631836 56.69580078 C1.79480957 56.70076065 0.86330078 56.70572052 -0.09643555 56.71083069 C-6.56734573 56.59584802 -11.16382412 55.02310064 -16.89868164 52.12939453 C-17.88868164 51.79939453 -18.87868164 51.46939453 -19.89868164 51.12939453 C-19.97285716 45.22121935 -20.02729598 39.31331542 -20.06347656 33.40478516 C-20.0785599 31.3949715 -20.09902937 29.38519074 -20.125 27.37548828 C-20.16140308 24.48608277 -20.17841252 21.59711257 -20.19165039 18.70751953 C-20.20713425 17.80946594 -20.2226181 16.91141235 -20.23857117 15.98614502 C-20.24025971 9.7223225 -20.24025971 9.7223225 -18.46240234 6.63623047 C-17.6883606 5.89034668 -17.6883606 5.89034668 -16.89868164 5.12939453 C-16.46555664 4.57251953 -16.03243164 4.01564453 -15.58618164 3.44189453 C-13.18027422 1.57063321 -10.88231853 1.50234914 -7.89868164 1.12939453 C-4.95961207 0.14970467 -3.06172132 0.00278212 0 0 Z M-4.89868164 9.12939453 C-4.89868164 21.99939453 -4.89868164 34.86939453 -4.89868164 48.12939453 C-4.56868164 48.12939453 -4.23868164 48.12939453 -3.89868164 48.12939453 C-3.89868164 35.25939453 -3.89868164 22.38939453 -3.89868164 9.12939453 C-4.22868164 9.12939453 -4.55868164 9.12939453 -4.89868164 9.12939453 Z M14.10131836 32.12939453 C14.10131836 32.45939453 14.10131836 32.78939453 14.10131836 33.12939453 C21.03131836 33.12939453 27.96131836 33.12939453 35.10131836 33.12939453 C35.10131836 32.79939453 35.10131836 32.46939453 35.10131836 32.12939453 C28.17131836 32.12939453 21.24131836 32.12939453 14.10131836 32.12939453 Z M50.10131836 33.12939453 C51.10131836 35.12939453 51.10131836 35.12939453 51.10131836 35.12939453 Z M50.10131836 45.12939453 C51.10131836 47.12939453 51.10131836 47.12939453 51.10131836 47.12939453 Z " fill="#000000" transform="translate(19.898681640625,171.87060546875)"/>
<path d="M0 0 C0.79283386 -0.0033284 1.58566772 -0.0066568 2.40252686 -0.01008606 C4.07677636 -0.01513542 5.75103586 -0.017495 7.42529297 -0.01733398 C9.96208689 -0.01951211 12.49843962 -0.03766577 15.03515625 -0.05664062 C16.66926936 -0.05957679 18.30338452 -0.06156009 19.9375 -0.0625 C20.68469299 -0.06968552 21.43188599 -0.07687103 22.20172119 -0.08427429 C27.38707901 -0.06223764 32.8889462 0.17599747 37.734375 2.16796875 C38.229375 3.65296875 38.229375 3.65296875 38.734375 5.16796875 C39.98335571 6.23821289 39.98335571 6.23821289 41.25756836 7.33007812 C44.46221267 11.00191503 44.4435932 13.92301932 44.36328125 18.57421875 C44.36569321 19.37653931 44.36810516 20.17885986 44.37059021 21.00549316 C44.36961362 22.69658364 44.35626458 24.38770682 44.33129883 26.07861328 C44.29697709 28.66028948 44.31064968 31.23854215 44.33007812 33.8203125 C44.32317929 35.46746242 44.31350655 37.11460354 44.30078125 38.76171875 C44.30822105 39.91347595 44.30822105 39.91347595 44.31581116 41.08850098 C44.24068046 44.52449398 43.87096576 46.92106721 42.19897461 49.94335938 C35.97272113 55.5633318 30.08380235 56.78118376 21.86328125 56.734375 C20.94151596 56.74057358 20.01975067 56.74677216 19.0700531 56.75315857 C17.13126678 56.76022496 15.19241936 56.75713869 13.25366211 56.74438477 C10.30793197 56.73052079 7.36538446 56.76463484 4.41992188 56.80273438 C2.5260409 56.8036858 0.632156 56.80182551 -1.26171875 56.796875 C-2.13074326 56.81013321 -2.99976776 56.82339142 -3.89512634 56.83705139 C-11.11588699 56.72859073 -16.45923509 54.35335281 -21.98951721 49.72532654 C-24.21702056 47.0068887 -23.81232772 43.54939221 -23.8828125 40.17578125 C-23.90787872 39.39282684 -23.93294495 38.60987244 -23.95877075 37.80319214 C-24.00771987 36.14747531 -24.04927522 34.49152576 -24.08398438 32.83544922 C-24.14028195 30.30836742 -24.22867228 27.78383072 -24.3203125 25.2578125 C-24.36392305 23.64718688 -24.40565142 22.03650897 -24.4453125 20.42578125 C-24.47325897 19.67354279 -24.50120544 18.92130432 -24.52999878 18.14627075 C-24.59810838 13.56435823 -23.95533326 10.87282222 -21.265625 7.16796875 C-20.9975 6.44609375 -20.729375 5.72421875 -20.453125 4.98046875 C-18.3204516 1.72533566 -14.67540917 1.51694552 -11.08300781 0.62768555 C-7.38640086 0.02450436 -3.73470562 0.00550261 0 0 Z M-8.265625 9.16796875 C-8.265625 22.03796875 -8.265625 34.90796875 -8.265625 48.16796875 C3.284375 48.16796875 14.834375 48.16796875 26.734375 48.16796875 C26.734375 35.29796875 26.734375 22.42796875 26.734375 9.16796875 C15.184375 9.16796875 3.634375 9.16796875 -8.265625 9.16796875 Z M27.734375 9.16796875 C27.734375 22.03796875 27.734375 34.90796875 27.734375 48.16796875 C28.064375 48.16796875 28.394375 48.16796875 28.734375 48.16796875 C28.734375 35.29796875 28.734375 22.42796875 28.734375 9.16796875 C28.404375 9.16796875 28.074375 9.16796875 27.734375 9.16796875 Z " fill="#000000" transform="translate(310.265625,171.83203125)"/>
<path d="M0 0 C1.59134766 -0.02126953 1.59134766 -0.02126953 3.21484375 -0.04296875 C6.0625 0.1875 6.0625 0.1875 9.0625 2.1875 C9.40307617 4.25048828 9.40307617 4.25048828 9.35546875 6.7578125 C9.34580078 7.65371094 9.33613281 8.54960937 9.32617188 9.47265625 C9.30103516 10.40980469 9.27589844 11.34695312 9.25 12.3125 C9.22969727 13.72982422 9.22969727 13.72982422 9.20898438 15.17578125 C9.17356306 17.51358779 9.12417271 19.85026237 9.0625 22.1875 C11.33753373 22.61303995 11.33753373 22.61303995 14.0625 22.1875 C16.80010424 20.02026466 16.80010424 20.02026466 19.375 17.125 C20.33779211 16.11132863 21.30264769 15.09961327 22.26953125 14.08984375 C22.74084473 13.59339355 23.2121582 13.09694336 23.69775391 12.58544922 C26.12420491 10.0999647 28.75873693 7.86865515 31.40625 5.625 C33.09287212 4.20959354 33.09287212 4.20959354 34.59375 2.5625 C37.37152518 -0.03797038 40.38769203 0.02716021 44 0 C44.85464844 -0.01417969 45.70929688 -0.02835938 46.58984375 -0.04296875 C49.20159303 0.20046444 50.81750652 0.8696732 53.0625 2.1875 C51.63764 5.74965 50.41357357 6.53004455 47.0625 8.1875 C42.49371689 11.73009159 38.5342213 15.55853827 35.0625 20.1875 C34.05505364 21.46897177 33.03332019 22.73929883 32 24 C31.51402344 24.60457031 31.02804687 25.20914063 30.52734375 25.83203125 C29.0625 27.1875 29.0625 27.1875 26.0625 27.1875 C25.73842843 30.19578531 25.73842843 30.19578531 27.57543945 31.96508789 C28.26855225 32.60696045 28.96166504 33.24883301 29.67578125 33.91015625 C30.42923828 34.61333984 31.18269531 35.31652344 31.95898438 36.04101562 C33.15491211 37.13446289 33.15491211 37.13446289 34.375 38.25 C35.16068359 38.98283203 35.94636719 39.71566406 36.75585938 40.47070312 C41.96411491 45.40636866 41.96411491 45.40636866 48.0625 49.125 C50.14545994 50.23157247 51.4843806 51.45156866 53.0625 53.1875 C52.7325 54.1775 52.4025 55.1675 52.0625 56.1875 C37.96345868 57.25381405 37.96345868 57.25381405 33.72265625 54.875 C32.01046204 53.07014587 30.55377888 51.17716973 29.0625 49.1875 C27.77933229 47.98864722 26.46536142 46.82204776 25.125 45.6875 C23.02142938 43.88619001 20.94541486 42.07851911 18.91796875 40.19140625 C17.87576172 39.23041016 17.87576172 39.23041016 16.8125 38.25 C16.18859375 37.66347656 15.5646875 37.07695312 14.921875 36.47265625 C12.89079637 34.80844617 12.89079637 34.80844617 9.0625 35.1875 C9.0625 41.7875 9.0625 48.3875 9.0625 55.1875 C3.98531793 57.72609104 -2.26103788 56.1875 -7.9375 56.1875 C-7.9375 38.0375 -7.9375 19.8875 -7.9375 1.1875 C-5.2264923 -0.16800385 -3.02410831 0.01832793 0 0 Z M7.0625 23.1875 C7.0625 23.5175 7.0625 23.8475 7.0625 24.1875 C8.7125 24.1875 10.3625 24.1875 12.0625 24.1875 C12.0625 23.8575 12.0625 23.5275 12.0625 23.1875 C10.4125 23.1875 8.7625 23.1875 7.0625 23.1875 Z M7.0625 33.1875 C7.0625 33.5175 7.0625 33.8475 7.0625 34.1875 C8.7125 34.1875 10.3625 34.1875 12.0625 34.1875 C12.0625 33.8575 12.0625 33.5275 12.0625 33.1875 C10.4125 33.1875 8.7625 33.1875 7.0625 33.1875 Z " fill="#000000" transform="translate(231.9375,171.8125)"/>
<path d="M0 0 C1.63848656 0.00137466 1.63848656 0.00137466 3.31007385 0.0027771 C5.60186144 0.00878548 7.8936422 0.02444742 10.18530273 0.04931641 C13.70520656 0.08608164 17.22406383 0.09033357 20.74414062 0.08984375 C22.97526957 0.09966621 25.20639138 0.11131939 27.4375 0.125 C29.02019936 0.12833847 29.02019936 0.12833847 30.63487244 0.13174438 C32.0926284 0.15088394 32.0926284 0.15088394 33.57983398 0.17041016 C34.86482033 0.18184555 34.86482033 0.18184555 36.17576599 0.19351196 C38.25390625 0.4609375 38.25390625 0.4609375 40.25390625 2.4609375 C40.44140625 5.5234375 40.44140625 5.5234375 40.25390625 8.4609375 C39.25390625 9.4609375 39.25390625 9.4609375 37.19749451 9.58119202 C36.2937056 9.57897141 35.38991669 9.57675079 34.45874023 9.57446289 C33.43775742 9.57438736 32.4167746 9.57431183 31.36485291 9.57423401 C30.25445145 9.56907272 29.14404999 9.56391144 28 9.55859375 C26.86941666 9.5571788 25.73883331 9.55576385 24.57398987 9.55430603 C20.9464356 9.54868769 17.31894201 9.53613208 13.69140625 9.5234375 C11.23893318 9.51842486 8.78645915 9.51386155 6.33398438 9.50976562 C0.30724921 9.4995612 -5.71935397 9.47998936 -11.74609375 9.4609375 C-11.74609375 22.3309375 -11.74609375 35.2009375 -11.74609375 48.4609375 C5.08390625 48.4609375 21.91390625 48.4609375 39.25390625 48.4609375 C41.25390625 55.4609375 41.25390625 55.4609375 41.25390625 56.4609375 C33.97772574 56.6006052 26.70183911 56.70689256 19.42458439 56.77181053 C16.04453392 56.80298538 12.66540745 56.84519533 9.28588867 56.91357422 C5.39086921 56.98669993 1.49714532 57.02046873 -2.3984375 57.046875 C-3.59879135 57.07784271 -4.7991452 57.10881042 -6.03587341 57.14071655 C-13.0082971 57.14348709 -17.32798796 56.3177205 -22.85597229 51.94815063 C-24.69675432 50.38105602 -24.69675432 50.38105602 -26.92832947 49.45541382 C-28.74609375 48.4609375 -28.74609375 48.4609375 -29.74609375 45.4609375 C-29.95184594 40.88528548 -29.93189536 36.30725727 -29.93139648 31.72753906 C-29.93358573 29.46921014 -29.95176144 27.2113677 -29.97070312 24.953125 C-29.97363675 23.51823084 -29.97562175 22.08333435 -29.9765625 20.6484375 C-29.98067139 19.34261719 -29.98478027 18.03679687 -29.98901367 16.69140625 C-29.66299819 12.35589179 -27.8026417 10.30329821 -24.68359375 7.5234375 C-24.15636719 7.04003906 -23.62914062 6.55664062 -23.0859375 6.05859375 C-15.60578506 0.9511107 -8.94231325 -0.12345323 0 0 Z " fill="#000000" transform="translate(177.74609375,171.5390625)"/>
<path d="M0 0 C1.09090942 0.00470306 2.18181885 0.00940613 3.30578613 0.01425171 C6.75660821 0.03543663 10.20584432 0.09200789 13.65625 0.1484375 C16.0025897 0.16496102 18.34894582 0.17930483 20.6953125 0.19140625 C24.96309081 0.22525986 29.23070812 0.25979904 33.49804688 0.33056641 C34.35168823 0.34342682 35.20532959 0.35628723 36.08483887 0.36953735 C38.15625 0.5234375 38.15625 0.5234375 40.15625 1.5234375 C40.15625 4.1634375 40.15625 6.8034375 40.15625 9.5234375 C22.99625 9.5234375 5.83625 9.5234375 -11.84375 9.5234375 C-11.51375 22.0634375 -11.18375 34.6034375 -10.84375 47.5234375 C5.98625 47.8534375 22.81625 48.1834375 40.15625 48.5234375 C40.15625 51.1634375 40.15625 53.8034375 40.15625 56.5234375 C32.43329682 56.57419718 24.71038676 56.60919628 16.98730469 56.63330078 C14.36066073 56.64335089 11.73402793 56.6569931 9.10742188 56.67431641 C5.32939902 56.69860778 1.55152427 56.70993069 -2.2265625 56.71875 C-3.39865265 56.72907257 -4.5707428 56.73939514 -5.77835083 56.75003052 C-11.19383022 56.75077376 -15.7964869 56.7332203 -20.84375 54.5234375 C-21.83375 54.1934375 -22.82375 53.8634375 -23.84375 53.5234375 C-24.96875 51.5234375 -24.96875 51.5234375 -25.84375 49.5234375 C-26.17375 49.1934375 -26.50375 48.8634375 -26.84375 48.5234375 C-27.13612299 43.02053366 -27.15781277 37.51505551 -27.19384766 32.00512695 C-27.21040249 30.14757759 -27.23768645 28.2900918 -27.27587891 26.43286133 C-27.3306223 23.75828929 -27.35251778 21.08521294 -27.3671875 18.41015625 C-27.38985687 17.58086105 -27.41252625 16.75156586 -27.43588257 15.8971405 C-27.41497475 10.1950323 -27.41497475 10.1950323 -24.93603516 7.28051758 C-23.91558105 6.70068115 -22.89512695 6.12084473 -21.84375 5.5234375 C-21.13749481 5.08592667 -20.43123962 4.64841583 -19.70358276 4.19764709 C-13.07883885 0.40738251 -7.53079189 -0.16481753 0 0 Z " fill="#000000" transform="translate(103.84375,171.4765625)"/>
<path d="M0 0 C0.89714218 0.00045319 1.79428436 0.00090637 2.71861267 0.00137329 C4.12833847 -0.00366463 4.12833847 -0.00366463 5.56654358 -0.00880432 C8.69105837 -0.0183472 11.81551974 -0.02025924 14.94004822 -0.02133179 C17.10380069 -0.02454256 19.26755293 -0.02790649 21.43130493 -0.03141785 C25.97515872 -0.03741783 30.51899347 -0.03925691 35.06285095 -0.03866577 C40.89057263 -0.03856421 46.71817229 -0.05220587 52.54586506 -0.06943798 C57.01792971 -0.08054841 61.48996481 -0.08258526 65.96204185 -0.08205605 C68.110668 -0.08323801 70.25929487 -0.08767188 72.40790749 -0.09538841 C75.4126047 -0.10516692 78.41703634 -0.10231842 81.42173767 -0.09628296 C82.7583419 -0.10471222 82.7583419 -0.10471222 84.12194824 -0.11331177 C84.94217468 -0.10911728 85.76240112 -0.10492279 86.60748291 -0.1006012 C87.67297096 -0.10141835 87.67297096 -0.10141835 88.75998402 -0.10225201 C92.67281798 0.38363808 95.53627713 2.56543167 98.51426697 5.02163696 C99.12786072 5.51405884 99.74145447 6.00648071 100.37364197 6.51382446 C101.76426697 8.14663696 101.76426697 8.14663696 101.76426697 12.14663696 C89.07304268 12.21612856 76.38186361 12.26944408 63.69048786 12.30207348 C57.79745072 12.31773346 51.90454368 12.33897807 46.01158142 12.37295532 C40.32520454 12.40553651 34.63895287 12.42348747 28.95248985 12.43126869 C26.78234575 12.4368144 24.61220854 12.4476437 22.44211769 12.46382713 C19.40392337 12.48558461 16.36624729 12.48860455 13.32798767 12.48721313 C11.98039368 12.50339188 11.98039368 12.50339188 10.60557556 12.51989746 C5.82304785 12.49617642 2.63937186 12.26422167 -1.23573303 9.14663696 C-3.54823303 6.45913696 -3.54823303 6.45913696 -5.23573303 4.14663696 C-4.90573303 3.81663696 -4.57573303 3.48663696 -4.23573303 3.14663696 C-5.22573303 2.48663696 -6.21573303 1.82663696 -7.23573303 1.14663696 C-5.33338195 -0.75571412 -2.53219766 0.01330404 0 0 Z " fill="#00A6BA" transform="translate(42.23573303222656,35.853363037109375)"/>
<path d="M0 0 C0.94682648 -0.00073013 1.89365295 -0.00146027 2.86917114 -0.00221252 C5.99173722 0.00126467 9.11280267 0.04013299 12.23510742 0.0793457 C14.40271693 0.08867333 16.57033699 0.09578968 18.73796082 0.1007843 C24.43790892 0.11985783 30.13721808 0.1689625 35.83691406 0.2243042 C41.65510413 0.27548854 47.47339764 0.29829666 53.29174805 0.32348633 C64.70413786 0.37708023 76.11605384 0.46239798 87.52807617 0.56762695 C87.52807617 1.22762695 87.52807617 1.88762695 87.52807617 2.56762695 C86.86807617 2.89762695 86.20807617 3.22762695 85.52807617 3.56762695 C85.52807617 4.55762695 85.52807617 5.54762695 85.52807617 6.56762695 C78.51658548 12.82111865 78.51658548 12.82111865 73.44685364 12.80813599 C72.61814255 12.81088531 71.78943146 12.81363464 70.93560791 12.81646729 C70.03002136 12.80927673 69.12443481 12.80208618 68.19140625 12.79467773 C67.23511826 12.79496979 66.27883026 12.79526184 65.29356384 12.79556274 C62.12815319 12.7941678 58.96297702 12.77859875 55.79760742 12.76293945 C53.60471221 12.75920991 51.41181532 12.75636266 49.21891785 12.75436401 C43.44356699 12.74672294 37.66831653 12.72707033 31.89300537 12.70495605 C26.00119383 12.68450787 20.10936609 12.67536449 14.2175293 12.6652832 C2.65433412 12.64382493 -8.90878651 12.60968322 -20.47192383 12.56762695 C-19.03099888 10.84941061 -17.57858738 9.14459853 -16.10289288 7.45603466 C-14.75508035 5.89547803 -13.46386245 4.28623776 -12.18891907 2.66560364 C-8.21633404 -0.40189926 -4.88958583 -0.09886679 0 0 Z " fill="#00A6BA" transform="translate(314.471923828125,35.432373046875)"/>
<path d="M0 0 C14.85 0 29.7 0 45 0 C45 2.64 45 5.28 45 8 C38.75204325 8.02527124 32.50409959 8.04283344 26.25610352 8.05493164 C24.12881986 8.05997298 22.00153969 8.06680591 19.87426758 8.07543945 C16.82372174 8.08751379 13.77322155 8.09323014 10.72265625 8.09765625 C9.28672874 8.10539818 9.28672874 8.10539818 7.8217926 8.11329651 C6.94095505 8.11337204 6.06011749 8.11344757 5.15258789 8.11352539 C4.37315323 8.115746 3.59371857 8.11796661 2.79066467 8.12025452 C1 8 1 8 0 7 C0 4.69 0 2.38 0 0 Z M1 2 C2 6 2 6 2 6 Z " fill="#000000" transform="translate(99,196)"/>
<path d="M0 0 C6.24795675 -0.02527124 12.49590041 -0.04283344 18.74389648 -0.05493164 C20.87118014 -0.05997298 22.99846031 -0.06680591 25.12573242 -0.07543945 C28.17627826 -0.08751379 31.22677845 -0.09323014 34.27734375 -0.09765625 C35.71327126 -0.10539818 35.71327126 -0.10539818 37.1782074 -0.11329651 C38.49946373 -0.11340981 38.49946373 -0.11340981 39.84741211 -0.11352539 C40.62684677 -0.115746 41.40628143 -0.11796661 42.20933533 -0.12025452 C44 0 44 0 45 1 C45.125 4 45.125 4 45 7 C43.47561649 8.52438351 42.0818797 8.16915913 39.95507812 8.22119141 C39.09748901 8.24436432 38.2398999 8.26753723 37.35632324 8.29141235 C36.42404907 8.3112619 35.4917749 8.33111145 34.53125 8.3515625 C33.10528503 8.38629166 33.10528503 8.38629166 31.6505127 8.42172241 C29.63636755 8.46943324 27.62216226 8.51465844 25.60791016 8.55761719 C22.51312246 8.62471549 19.41872797 8.70244665 16.32421875 8.78125 C14.3724105 8.82616265 12.42058784 8.87045444 10.46875 8.9140625 C9.07033875 8.94990952 9.07033875 8.94990952 7.64367676 8.98648071 C6.78608765 9.0033493 5.92849854 9.0202179 5.04492188 9.03759766 C3.90694153 9.06305161 3.90694153 9.06305161 2.74597168 9.08901978 C1 9 1 9 0 8 C-0.14115161 5.32941149 -0.04247107 2.67567762 0 0 Z " fill="#000000" transform="translate(173,196)"/>
<path d="M0 0 C38.61 0 77.22 0 117 0 C117 0.33 117 0.66 117 1 C78.39 1 39.78 1 0 1 C0 0.67 0 0.34 0 0 Z " fill="#00A9AA" transform="translate(300,23)"/>
<path d="M0 0 C38.61 0 77.22 0 117 0 C117 0.33 117 0.66 117 1 C78.39 1 39.78 1 0 1 C0 0.67 0 0.34 0 0 Z " fill="#00A9AA" transform="translate(21,23)"/>
<path d="M0 0 C32.34 0 64.68 0 98 0 C97.67 0.66 97.34 1.32 97 2 C64.99 1.67 32.98 1.34 0 1 C0 0.67 0 0.34 0 0 Z " fill="#009899" transform="translate(62,60)"/>
<path d="M0 0 C32.01 0 64.02 0 97 0 C97 0.33 97 0.66 97 1 C64.99 1 32.98 1 0 1 C0 0.67 0 0.34 0 0 Z " fill="#009A9B" transform="translate(279,60)"/>
<path d="M0 0 C32.01 0 64.02 0 97 0 C97 0.33 97 0.66 97 1 C64.99 1 32.98 1 0 1 C0 0.67 0 0.34 0 0 Z " fill="#00BDBD" transform="translate(305,34)"/>
<path d="M0 0 C32.01 0 64.02 0 97 0 C97 0.33 97 0.66 97 1 C64.99 1 32.98 1 0 1 C0 0.67 0 0.34 0 0 Z " fill="#00BFBF" transform="translate(36,34)"/>
<path d="M0 0 C0.66750778 0.16265854 1.33501556 0.32531708 2.02275085 0.49290466 C5.57864256 1.0985564 9.04217677 1.1319302 12.63598633 1.11352539 C13.38774139 1.11367142 14.13949646 1.11381744 14.91403198 1.1139679 C17.38672826 1.11327395 19.85934821 1.1055059 22.33203125 1.09765625 C24.05124368 1.09579023 25.77045665 1.09436719 27.4896698 1.09336853 C32.00566079 1.08955786 36.52161942 1.07973997 41.03759766 1.06866455 C45.64940961 1.05841924 50.26122681 1.05386423 54.87304688 1.04882812 C63.91537877 1.03811638 72.95768669 1.0210574 82 1 C79.57065724 3.42934276 78.2880005 3.24167818 74.97253418 3.27105713 C74.27535278 3.26700867 73.57817139 3.26296021 72.85986328 3.25878906 C72.12472504 3.2622937 71.38958679 3.26579834 70.63217163 3.26940918 C68.19479 3.27823268 65.75769724 3.27237407 63.3203125 3.265625 C61.62881413 3.26697176 59.93731614 3.26891239 58.24581909 3.27142334 C54.69655684 3.27437568 51.14739512 3.27007455 47.59814453 3.26074219 C43.04948454 3.24936495 38.501061 3.25589541 33.95240974 3.26788712 C30.4574099 3.27511763 26.96246599 3.27281201 23.46746445 3.26763153 C21.79053596 3.26629743 20.11360239 3.26793438 18.43667984 3.27259064 C16.09062528 3.27767351 13.74495198 3.26992025 11.39892578 3.25878906 C10.70579285 3.26283752 10.01265991 3.26688599 9.29852295 3.27105713 C5.69616727 3.23941638 3.06693158 2.9624028 0 1 C0 0.67 0 0.34 0 0 Z " fill="#00A9AC" transform="translate(237,119)"/>
<path d="M0 0 C13.86 0 27.72 0 42 0 C41.67 0.66 41.34 1.32 41 2 C35.48243524 2.0493521 29.96499829 2.08569662 24.44726562 2.10986328 C22.56931318 2.11993534 20.69137647 2.13359362 18.81347656 2.15087891 C16.1177991 2.17507453 13.42232854 2.18647083 10.7265625 2.1953125 C9.88380768 2.20563507 9.04105286 2.21595764 8.17276001 2.22659302 C6.11378753 2.22699144 4.05532065 2.12257588 2 2 C1.34 1.34 0.68 0.68 0 0 Z " fill="#000000" transform="translate(175,205)"/>
<path d="M0 0 C13.86 0 27.72 0 42 0 C40 2 40 2 36.19287109 2.22705078 C34.5530258 2.22673346 32.91315983 2.21539681 31.2734375 2.1953125 C30.41062164 2.1924826 29.54780579 2.18965271 28.65884399 2.18673706 C25.8974228 2.17552333 23.1363235 2.15041684 20.375 2.125 C18.50521301 2.11497173 16.63542095 2.10584562 14.765625 2.09765625 C10.17695891 2.07558012 5.58853407 2.04104234 1 2 C0.67 1.34 0.34 0.68 0 0 Z " fill="#000000" transform="translate(102,205)"/>
<path d="M0 0 C24.75 0 49.5 0 75 0 C75 0.33 75 0.66 75 1 C50.25 1 25.5 1 0 1 C0 0.67 0 0.34 0 0 Z " fill="#00ACAE" transform="translate(122,121)"/>
<path d="M0 0 C19.14 0 38.28 0 58 0 C58 0.33 58 0.66 58 1 C38.86 1 19.72 1 0 1 C0 0.67 0 0.34 0 0 Z " fill="#007F83" transform="translate(250,95)"/>
<path d="M0 0 C18.81 0 37.62 0 57 0 C57 0.33 57 0.66 57 1 C38.19 1 19.38 1 0 1 C0 0.67 0 0.34 0 0 Z " fill="#008187" transform="translate(131,95)"/>
<path d="M0 0 C0.33 0 0.66 0 1 0 C1 18.15 1 36.3 1 55 C0.67 55 0.34 55 0 55 C0 36.85 0 18.7 0 0 Z " fill="#000000" transform="translate(222,173)"/>
<path d="M0 0 C16.5 0 33 0 50 0 C50 0.33 50 0.66 50 1 C33.5 1 17 1 0 1 C0 0.67 0 0.34 0 0 Z " fill="#000000" transform="translate(166,170)"/>
<path d="M0 0 C16.5 0 33 0 50 0 C50 0.33 50 0.66 50 1 C33.5 1 17 1 0 1 C0 0.67 0 0.34 0 0 Z " fill="#000000" transform="translate(92,170)"/>
<path d="M0 0 C16.5 0 33 0 50 0 C50 0.33 50 0.66 50 1 C33.5 1 17 1 0 1 C0 0.67 0 0.34 0 0 Z " fill="#000000" transform="translate(15,170)"/>
<path d="M0 0 C0.33 0 0.66 0 1 0 C1 15.18 1 30.36 1 46 C0.67 46 0.34 46 0 46 C0 30.82 0 15.64 0 0 Z " fill="#000000" transform="translate(421,182)"/>
<path d="M0 0 C0.33 0 0.66 0 1 0 C1 14.52 1 29.04 1 44 C0.67 44 0.34 44 0 44 C0 29.48 0 14.96 0 0 Z " fill="#000000" transform="translate(359,183)"/>
<path d="M0 0 C13.86 0 27.72 0 42 0 C42 0.33 42 0.66 42 1 C28.14 1 14.28 1 0 1 C0 0.67 0 0.34 0 0 Z " fill="#000000" transform="translate(175,194)"/>
<path d="M0 0 C13.86 0 27.72 0 42 0 C42 0.33 42 0.66 42 1 C28.14 1 14.28 1 0 1 C0 0.67 0 0.34 0 0 Z " fill="#000000" transform="translate(102,194)"/>
<path d="M0 0 C0.33 0 0.66 0 1 0 C1 12.21 1 24.42 1 37 C0.67 37 0.34 37 0 37 C0 24.79 0 12.58 0 0 Z " fill="#000000" transform="translate(303,182)"/>
<path d="M0 0 C0.33 0 0.66 0 1 0 C1 12.21 1 24.42 1 37 C0.67 37 0.34 37 0 37 C0 24.79 0 12.58 0 0 Z " fill="#000000" transform="translate(167,182)"/>
<path d="M0 0 C12.21 0 24.42 0 37 0 C37 0.33 37 0.66 37 1 C24.79 1 12.58 1 0 1 C0 0.67 0 0.34 0 0 Z " fill="#000000" transform="translate(302,170)"/>
<path d="M0 0 C0.33 0 0.66 0 1 0 C1 11.88 1 23.76 1 36 C0.67 36 0.34 36 0 36 C0 24.12 0 12.24 0 0 Z " fill="#000000" transform="translate(355,183)"/>
<path d="M0 0 C0.33 0 0.66 0 1 0 C1 11.55 1 23.1 1 35 C0.67 35 0.34 35 0 35 C0 23.45 0 11.9 0 0 Z " fill="#000000" transform="translate(94,183)"/>
<path d="M0 0 C7.92 0 15.84 0 24 0 C24.33 0.66 24.66 1.32 25 2 C16.75 1.67 8.5 1.34 0 1 C0 0.67 0 0.34 0 0 Z " fill="#000000" transform="translate(34,194)"/>
<path d="M0 0 C5.28 0 10.56 0 16 0 C16 0.33 16 0.66 16 1 C10.72 1 5.44 1 0 1 C0 0.67 0 0.34 0 0 Z " fill="#000000" transform="translate(407,170)"/>
<path d="M0 0 C5.28 0 10.56 0 16 0 C16 0.33 16 0.66 16 1 C10.72 1 5.44 1 0 1 C0 0.67 0 0.34 0 0 Z " fill="#000000" transform="translate(376,170)"/>
<path d="M0 0 C0.66 0.33 1.32 0.66 2 1 C-1.465 3.97 -1.465 3.97 -5 7 C-3.38262276 3.76524552 -2.52370777 2.29427979 0 0 Z " fill="#007695" transform="translate(271,67)"/>
<path d="M0 0 C0.66 0.33 1.32 0.66 2 1 C-1.465 3.97 -1.465 3.97 -5 7 C-3.38262276 3.76524552 -2.52370777 2.29427979 0 0 Z " fill="#00C4E8" transform="translate(300,38)"/>
<path d="M0 0 C2.31 1.98 4.62 3.96 7 6 C4 6 4 6 1.8125 4.125 C0 2 0 2 0 0 Z " fill="#00ABBA" transform="translate(191,39)"/>
<path d="M0 0 C3.63 0 7.26 0 11 0 C11 0.33 11 0.66 11 1 C7.37 1 3.74 1 0 1 C0 0.67 0 0.34 0 0 Z " fill="#000000" transform="translate(226,170)"/>
<path d="M0 0 C2.62187494 1.04874998 3.79371361 1.64931313 5.25 4.125 C5.4975 4.74375 5.745 5.3625 6 6 C3.97945196 4.35830472 1.97956942 2.69088222 0 1 C0 0.67 0 0.34 0 0 Z " fill="#00C6F3" transform="translate(118,86)"/>
<path d="M0 0 C1.98 1.65 3.96 3.3 6 5 C3 5 3 5 1.3125 3.625 C0 2 0 2 0 0 Z " fill="#00A9C6" transform="translate(201,49)"/>
<path d="M0 0 C3.3 0 6.6 0 10 0 C10 0.33 10 0.66 10 1 C6.7 1 3.4 1 0 1 C0 0.67 0 0.34 0 0 Z " fill="#000000" transform="translate(271,170)"/>
<path d="M0 0 C3.16115776 1.36983503 3.9927092 1.9890638 6 5 C2.83884224 3.63016497 2.0072908 3.0109362 0 0 Z " fill="#00E4E4" transform="translate(174,76)"/>
<path d="M0 0 C3.16115776 1.36983503 3.9927092 1.9890638 6 5 C2.83884224 3.63016497 2.0072908 3.0109362 0 0 Z " fill="#00BFC4" transform="translate(211,60)"/>
<path d="M0 0 C3.16115776 1.36983503 3.9927092 1.9890638 6 5 C2.83884224 3.63016497 2.0072908 3.0109362 0 0 Z " fill="#00CEE7" transform="translate(183,32)"/>
<path d="M0 0 C3.16115776 1.36983503 3.9927092 1.9890638 6 5 C2.83884224 3.63016497 2.0072908 3.0109362 0 0 Z " fill="#00C9E9" transform="translate(173,22)"/>
<path d="M0 0 C3.16115776 1.36983503 3.9927092 1.9890638 6 5 C2.83884224 3.63016497 2.0072908 3.0109362 0 0 Z " fill="#00E5EB" transform="translate(164,13)"/>
<path d="M0 0 C3.875 1.75 3.875 1.75 5 4 C1.125 2.25 1.125 2.25 0 0 Z " fill="#00DCDC" transform="translate(240,89)"/>
<path d="M0 0 C1.32 1.32 2.64 2.64 4 4 C2.68 3.34 1.36 2.68 0 2 C0 1.34 0 0.68 0 0 Z " fill="#000000" transform="translate(151,221)"/>
<path d="M0 0 C0.33 0 0.66 0 1 0 C1 2.31 1 4.62 1 7 C0.67 7 0.34 7 0 7 C0 4.69 0 2.38 0 0 Z " fill="#000000" transform="translate(145,197)"/>
<path d="M0 0 C0.66 0.33 1.32 0.66 2 1 C0.35 1.66 -1.3 2.32 -3 3 C-2.01 2.01 -1.02 1.02 0 0 Z " fill="#000000" transform="translate(85,173)"/>
<path d="M0 0 C0.33 0 0.66 0 1 0 C1 1.98 1 3.96 1 6 C0.67 6 0.34 6 0 6 C0 4.02 0 2.04 0 0 Z " fill="#000000" transform="translate(145,221)"/>
<path d="M0 0 C1.98 0.99 1.98 0.99 4 2 C3.01 2 2.02 2 1 2 C0.67 1.34 0.34 0.68 0 0 Z " fill="#000000" transform="translate(259,221)"/>
<path d="M0 0 C0.33 0 0.66 0 1 0 C1 1.98 1 3.96 1 6 C0.67 6 0.34 6 0 6 C0 4.02 0 2.04 0 0 Z " fill="#000000" transform="translate(219,197)"/>
<path d="M0 0 C0.33 0 0.66 0 1 0 C1 1.98 1 3.96 1 6 C0.67 6 0.34 6 0 6 C0 4.02 0 2.04 0 0 Z " fill="#000000" transform="translate(145,174)"/>
<path d="M0 0 C0.66 0.33 1.32 0.66 2 1 C0.02 1.99 0.02 1.99 -2 3 C-1.34 2.01 -0.68 1.02 0 0 Z " fill="#00727D" transform="translate(218,102)"/>
<path d="M0 0 C0.66 0.33 1.32 0.66 2 1 C0.02 1.99 0.02 1.99 -2 3 C-1.34 2.01 -0.68 1.02 0 0 Z " fill="#00A6DB" transform="translate(294,26)"/>
<path d="M0 0 C0.33 0 0.66 0 1 0 C1 1.65 1 3.3 1 5 C0.67 5 0.34 5 0 5 C0 3.35 0 1.7 0 0 Z " fill="#000000" transform="translate(219,222)"/>
<path d="M0 0 C0 0.99 0 1.98 0 3 C-0.66 2.67 -1.32 2.34 -2 2 C-1.34 1.34 -0.68 0.68 0 0 Z " fill="#000000" transform="translate(275,183)"/>
<path d="M0 0 C0.33 0 0.66 0 1 0 C1 1.65 1 3.3 1 5 C0.67 5 0.34 5 0 5 C0 3.35 0 1.7 0 0 Z " fill="#000000" transform="translate(219,175)"/>
<path d="M0 0 C0 0.99 0 1.98 0 3 C-0.66 2.67 -1.32 2.34 -2 2 C-1.34 1.34 -0.68 0.68 0 0 Z " fill="#00636D" transform="translate(209,111)"/>
<path d="M0 0 C0.66 0.33 1.32 0.66 2 1 C1.01 1.66 0.02 2.32 -1 3 C-0.67 2.01 -0.34 1.02 0 0 Z " fill="#009494" transform="translate(315,89)"/>
<path d="M0 0 C0.66 0.33 1.32 0.66 2 1 C1.01 1.66 0.02 2.32 -1 3 C-0.67 2.01 -0.34 1.02 0 0 Z " fill="#005F5F" transform="translate(261,77)"/>
<path d="M0 0 C0 0.99 0 1.98 0 3 C-0.66 2.67 -1.32 2.34 -2 2 C-1.34 1.34 -0.68 0.68 0 0 Z " fill="#00656E" transform="translate(247,73)"/>
<path d="M0 0 C0.99 0.99 1.98 1.98 3 3 C2.01 2.67 1.02 2.34 0 2 C0 1.34 0 0.68 0 0 Z " fill="#006363" transform="translate(190,73)"/>
<path d="M0 0 C0 0.99 0 1.98 0 3 C-0.66 2.67 -1.32 2.34 -2 2 C-1.34 1.34 -0.68 0.68 0 0 Z " fill="#0096A0" transform="translate(256,64)"/>
<path d="M0 0 C0.99 0.33 1.98 0.66 3 1 C2.67 1.66 2.34 2.32 2 3 C1.34 2.01 0.68 1.02 0 0 Z " fill="#006599" transform="translate(160,62)"/>
<path d="M0 0 C0 0.99 0 1.98 0 3 C-0.66 2.67 -1.32 2.34 -2 2 C-1.34 1.34 -0.68 0.68 0 0 Z " fill="#006B6B" transform="translate(266,54)"/>
<path d="M0 0 C0.99 0.99 1.98 1.98 3 3 C2.01 2.67 1.02 2.34 0 2 C0 1.34 0 0.68 0 0 Z " fill="#005E6B" transform="translate(171,54)"/>
<path d="M0 0 C0 0.99 0 1.98 0 3 C-0.66 2.67 -1.32 2.34 -2 2 C-1.34 1.34 -0.68 0.68 0 0 Z " fill="#0093AA" transform="translate(275,45)"/>
<path d="M0 0 C0 0.99 0 1.98 0 3 C-0.66 2.67 -1.32 2.34 -2 2 C-1.34 1.34 -0.68 0.68 0 0 Z " fill="#006B6B" transform="translate(285,35)"/>
<path d="M0 0 C0.99 0.99 1.98 1.98 3 3 C2.01 2.67 1.02 2.34 0 2 C0 1.34 0 0.68 0 0 Z " fill="#005E6B" transform="translate(152,35)"/>
<path d="M0 0 C1.32 0.33 2.64 0.66 4 1 C3.01 1.495 3.01 1.495 2 2 C1.34 1.34 0.68 0.68 0 0 Z " fill="#00BABA" transform="translate(138,24)"/>
<path d="M0 0 C0.99 0.33 1.98 0.66 3 1 C2.67 1.66 2.34 2.32 2 3 C1.34 2.01 0.68 1.02 0 0 Z " fill="#006471" transform="translate(154,3)"/>
<path d="M0 0 C0.99 0.33 1.98 0.66 3 1 C2.01 1 1.02 1 0 1 C0 0.67 0 0.34 0 0 Z " fill="#000000" transform="translate(262,205)"/>
<path d="M0 0 C0.66 0.33 1.32 0.66 2 1 C1.01 1 0.02 1 -1 1 C-0.67 0.67 -0.34 0.34 0 0 Z " fill="#00A5E5" transform="translate(201,118)"/>
<path d="M0 0 C0.99 0.495 0.99 0.495 2 1 C1.67 1.66 1.34 2.32 1 3 C0.67 2.01 0.34 1.02 0 0 Z " fill="#001F1F" transform="translate(238,86)"/>
<path d="M0 0 C0.99 0.495 0.99 0.495 2 1 C1.67 1.66 1.34 2.32 1 3 C0.67 2.01 0.34 1.02 0 0 Z " fill="#001F1F" transform="translate(181,29)"/>
<path d="M0 0 C0.99 0.33 1.98 0.66 3 1 C2.01 1 1.02 1 0 1 C0 0.67 0 0.34 0 0 Z " fill="#006FBF" transform="translate(142,26)"/>
<path d="M0 0 C0.99 0.495 0.99 0.495 2 1 C1.67 1.66 1.34 2.32 1 3 C0.67 2.01 0.34 1.02 0 0 Z " fill="#007F7F" transform="translate(162,10)"/>
<path d="M0 0 C0.99 0.33 1.98 0.66 3 1 C2.01 1 1.02 1 0 1 C0 0.67 0 0.34 0 0 Z " fill="#00CFCF" transform="translate(157,6)"/>
<path d="M0 0 C0.66 0.66 1.32 1.32 2 2 C1.34 2 0.68 2 0 2 C0 1.34 0 0.68 0 0 Z " fill="#000000" transform="translate(287,221)"/>
<path d="" fill="#000000" transform="translate(0,0)"/>
<path d="" fill="#000000" transform="translate(0,0)"/>
<path d="M0 0 C3 1 3 1 3 1 Z " fill="#000000" transform="translate(404,171)"/>
<path d="M0 0 C3 1 3 1 3 1 Z " fill="#000000" transform="translate(299,171)"/>
<path d="M0 0 C3 1 3 1 3 1 Z " fill="#000000" transform="translate(268,171)"/>
<path d="M0 0 C3 1 3 1 3 1 Z " fill="#000000" transform="translate(89,171)"/>
<path d="M0 0 C3 1 3 1 3 1 Z " fill="#00C7D8" transform="translate(197,120)"/>
<path d="M0 0 C3 1 3 1 3 1 Z " fill="#0094A9" transform="translate(119,120)"/>
<path d="M0 0 C0.99 0.495 0.99 0.495 2 1 C1.01 1.495 1.01 1.495 0 2 C0 1.34 0 0.68 0 0 Z " fill="#0078E9" transform="translate(318,86)"/>
<path d="M0 0 C0.33 0.66 0.66 1.32 1 2 C0.34 1.67 -0.32 1.34 -1 1 C-0.67 0.67 -0.34 0.34 0 0 Z " fill="#00CCDD" transform="translate(237,83)"/>
<path d="M0 0 C0.66 0.66 1.32 1.32 2 2 C1.34 2 0.68 2 0 2 C0 1.34 0 0.68 0 0 Z " fill="#006AE9" transform="translate(181,64)"/>
<path d="M0 0 C0.99 0.495 0.99 0.495 2 1 C1.01 1.495 1.01 1.495 0 2 C0 1.34 0 0.68 0 0 Z " fill="#00B8B8" transform="translate(276,62)"/>
<path d="M0 0 C0.99 0.495 0.99 0.495 2 1 C1.01 1.495 1.01 1.495 0 2 C0 1.34 0 0.68 0 0 Z " fill="#005A6B" transform="translate(231,54)"/>
<path d="M0 0 C0.66 0.66 1.32 1.32 2 2 C1.34 2 0.68 2 0 2 C0 1.34 0 0.68 0 0 Z " fill="#006A94" transform="translate(162,45)"/>
<path d="M0 0 C2 1 2 1 2 1 Z " fill="#000000" transform="translate(344,227)"/>
<path d="M0 0 C2 1 2 1 2 1 Z " fill="#000000" transform="translate(295,227)"/>
<path d="M0 0 C2 1 2 1 2 1 Z " fill="#000000" transform="translate(85,227)"/>
<path d="M0 0 C2 1 2 1 2 1 Z " fill="#000000" transform="translate(346,226)"/>
<path d="M0 0 C2 1 2 1 2 1 Z " fill="#000000" transform="translate(293,226)"/>
<path d="M0 0 C2 1 2 1 2 1 Z " fill="#000000" transform="translate(83,226)"/>
<path d="M0 0 C2 1 2 1 2 1 Z " fill="#000000" transform="translate(62,226)"/>
<path d="M0 0 C2 1 2 1 2 1 Z " fill="#000000" transform="translate(6,226)"/>
<path d="M0 0 C2 1 2 1 2 1 Z " fill="#000000" transform="translate(348,225)"/>
<path d="M0 0 C2 1 2 1 2 1 Z " fill="#000000" transform="translate(291,225)"/>
<path d="M0 0 C2 1 2 1 2 1 Z " fill="#000000" transform="translate(155,225)"/>
<path d="M0 0 C2 1 2 1 2 1 Z " fill="#000000" transform="translate(64,225)"/>
<path d="M0 0 C2 1 2 1 2 1 Z " fill="#000000" transform="translate(4,225)"/>
<path d="" fill="#000000" transform="translate(0,0)"/>
<path d="M0 0 C2 1 2 1 2 1 Z " fill="#000000" transform="translate(244,193)"/>
<path d="" fill="#000000" transform="translate(0,0)"/>
<path d="M0 0 C2 1 2 1 2 1 Z " fill="#000000" transform="translate(258,180)"/>
<path d="M0 0 C2 1 2 1 2 1 Z " fill="#000000" transform="translate(349,176)"/>
<path d="M0 0 C2 1 2 1 2 1 Z " fill="#000000" transform="translate(80,176)"/>
<path d="M0 0 C2 1 2 1 2 1 Z " fill="#000000" transform="translate(155,175)"/>
<path d="M0 0 C2 1 2 1 2 1 Z " fill="#000000" transform="translate(430,174)"/>
<path d="M0 0 C2 1 2 1 2 1 Z " fill="#000000" transform="translate(157,174)"/>
<path d="M0 0 C2 1 2 1 2 1 Z " fill="#000000" transform="translate(428,173)"/>
<path d="M0 0 C2 1 2 1 2 1 Z " fill="#000000" transform="translate(369,173)"/>
<path d="M0 0 C2 1 2 1 2 1 Z " fill="#000000" transform="translate(159,173)"/>
<path d="M0 0 C2 1 2 1 2 1 Z " fill="#000000" transform="translate(8,173)"/>
<path d="M0 0 C2 1 2 1 2 1 Z " fill="#000000" transform="translate(426,172)"/>
<path d="M0 0 C2 1 2 1 2 1 Z " fill="#000000" transform="translate(402,172)"/>
<path d="M0 0 C2 1 2 1 2 1 Z " fill="#000000" transform="translate(395,172)"/>
<path d="M0 0 C2 1 2 1 2 1 Z " fill="#000000" transform="translate(371,172)"/>
<path d="M0 0 C2 1 2 1 2 1 Z " fill="#000000" transform="translate(342,172)"/>
<path d="M0 0 C2 1 2 1 2 1 Z " fill="#000000" transform="translate(297,172)"/>
<path d="M0 0 C2 1 2 1 2 1 Z " fill="#000000" transform="translate(161,172)"/>
<path d="M0 0 C2 1 2 1 2 1 Z " fill="#000000" transform="translate(87,172)"/>
<path d="M0 0 C2 1 2 1 2 1 Z " fill="#000000" transform="translate(10,172)"/>
<path d="M0 0 C2 1 2 1 2 1 Z " fill="#000000" transform="translate(424,171)"/>
<path d="M0 0 C2 1 2 1 2 1 Z " fill="#000000" transform="translate(393,171)"/>
<path d="M0 0 C2 1 2 1 2 1 Z " fill="#000000" transform="translate(373,171)"/>
<path d="M0 0 C2 1 2 1 2 1 Z " fill="#000000" transform="translate(340,171)"/>
<path d="M0 0 C2 1 2 1 2 1 Z " fill="#000000" transform="translate(163,171)"/>
<path d="M0 0 C2 1 2 1 2 1 Z " fill="#000000" transform="translate(12,171)"/>
<path d="M0 0 C2 1 2 1 2 1 Z " fill="#008CA5" transform="translate(319,119)"/>
<path d="M0 0 C2 1 2 1 2 1 Z " fill="#009F9F" transform="translate(235,118)"/>
<path d="M0 0 C2 1 2 1 2 1 Z " fill="#007F7F" transform="translate(323,116)"/>
<path d="M0 0 C2 1 2 1 2 1 Z " fill="#007F7F" transform="translate(308,94)"/>
<path d="M0 0 C2 1 2 1 2 1 Z " fill="#00FFFF" transform="translate(247,94)"/>
<path d="M0 0 C2 1 2 1 2 1 Z " fill="#00FFFF" transform="translate(189,94)"/>
<path d="M0 0 C2 1 2 1 2 1 Z " fill="#007FFF" transform="translate(128,94)"/>
<path d="" fill="#00B4B4" transform="translate(0,0)"/>
<path d="" fill="#000000" transform="translate(0,0)"/>
<path d="" fill="#0000FF" transform="translate(0,0)"/>
<path d="M0 0 C2 1 2 1 2 1 Z " fill="#00CCE5" transform="translate(258,80)"/>
<path d="M0 0 C2 1 2 1 2 1 Z " fill="#00BFDF" transform="translate(218,67)"/>
<path d="" fill="#003F3F" transform="translate(0,0)"/>
<path d="" fill="#005555" transform="translate(0,0)"/>
<path d="" fill="#003F3F" transform="translate(0,0)"/>
<path d="M0 0 C2 1 2 1 2 1 Z " fill="#000000" transform="translate(18,21)"/>
<path d="" fill="#000000" transform="translate(0,0)"/>
<path d="" fill="#000000" transform="translate(0,0)"/>
<path d="" fill="#000000" transform="translate(0,0)"/>
<path d="" fill="#000000" transform="translate(0,0)"/>
<path d="" fill="#000000" transform="translate(0,0)"/>
<path d="" fill="#000000" transform="translate(0,0)"/>
<path d="" fill="#000000" transform="translate(0,0)"/>
<path d="" fill="#000000" transform="translate(0,0)"/>
<path d="" fill="#000000" transform="translate(0,0)"/>
<path d="" fill="#000000" transform="translate(0,0)"/>
<path d="" fill="#000000" transform="translate(0,0)"/>
<path d="" fill="#000000" transform="translate(0,0)"/>
<path d="" fill="#000000" transform="translate(0,0)"/>
<path d="" fill="#000000" transform="translate(0,0)"/>
<path d="" fill="#000000" transform="translate(0,0)"/>
<path d="" fill="#000000" transform="translate(0,0)"/>
<path d="" fill="#000000" transform="translate(0,0)"/>
<path d="" fill="#000000" transform="translate(0,0)"/>
<path d="" fill="#000000" transform="translate(0,0)"/>
<path d="" fill="#000000" transform="translate(0,0)"/>
<path d="" fill="#000000" transform="translate(0,0)"/>
<path d="" fill="#000000" transform="translate(0,0)"/>
<path d="" fill="#000000" transform="translate(0,0)"/>
<path d="" fill="#000000" transform="translate(0,0)"/>
<path d="" fill="#000000" transform="translate(0,0)"/>
<path d="" fill="#000000" transform="translate(0,0)"/>
<path d="" fill="#000000" transform="translate(0,0)"/>
<path d="" fill="#000000" transform="translate(0,0)"/>
<path d="" fill="#000000" transform="translate(0,0)"/>
<path d="" fill="#000000" transform="translate(0,0)"/>
<path d="" fill="#000000" transform="translate(0,0)"/>
<path d="" fill="#000000" transform="translate(0,0)"/>
<path d="" fill="#000000" transform="translate(0,0)"/>
<path d="" fill="#000000" transform="translate(0,0)"/>
<path d="" fill="#000000" transform="translate(0,0)"/>
<path d="" fill="#000000" transform="translate(0,0)"/>
<path d="" fill="#000000" transform="translate(0,0)"/>
<path d="" fill="#000000" transform="translate(0,0)"/>
<path d="" fill="#000000" transform="translate(0,0)"/>
<path d="" fill="#000000" transform="translate(0,0)"/>
<path d="" fill="#000000" transform="translate(0,0)"/>
<path d="" fill="#000000" transform="translate(0,0)"/>
<path d="" fill="#000000" transform="translate(0,0)"/>
<path d="" fill="#000000" transform="translate(0,0)"/>
<path d="" fill="#000000" transform="translate(0,0)"/>
<path d="" fill="#000000" transform="translate(0,0)"/>
<path d="" fill="#000000" transform="translate(0,0)"/>
<path d="" fill="#000000" transform="translate(0,0)"/>
<path d="" fill="#000000" transform="translate(0,0)"/>
<path d="" fill="#000000" transform="translate(0,0)"/>
<path d="" fill="#000000" transform="translate(0,0)"/>
<path d="" fill="#000000" transform="translate(0,0)"/>
<path d="" fill="#000000" transform="translate(0,0)"/>
<path d="" fill="#000000" transform="translate(0,0)"/>
<path d="" fill="#000000" transform="translate(0,0)"/>
<path d="" fill="#000000" transform="translate(0,0)"/>
<path d="" fill="#000000" transform="translate(0,0)"/>
<path d="" fill="#000000" transform="translate(0,0)"/>
<path d="" fill="#000000" transform="translate(0,0)"/>
<path d="" fill="#000000" transform="translate(0,0)"/>
<path d="" fill="#000000" transform="translate(0,0)"/>
<path d="" fill="#000000" transform="translate(0,0)"/>
<path d="" fill="#000000" transform="translate(0,0)"/>
<path d="" fill="#000000" transform="translate(0,0)"/>
<path d="" fill="#000000" transform="translate(0,0)"/>
<path d="" fill="#000000" transform="translate(0,0)"/>
<path d="" fill="#000000" transform="translate(0,0)"/>
<path d="" fill="#000000" transform="translate(0,0)"/>
<path d="" fill="#000000" transform="translate(0,0)"/>
<path d="" fill="#000000" transform="translate(0,0)"/>
<path d="" fill="#000000" transform="translate(0,0)"/>
<path d="" fill="#000000" transform="translate(0,0)"/>
<path d="" fill="#000000" transform="translate(0,0)"/>
<path d="" fill="#000000" transform="translate(0,0)"/>
<path d="" fill="#000000" transform="translate(0,0)"/>
<path d="" fill="#000000" transform="translate(0,0)"/>
<path d="" fill="#000000" transform="translate(0,0)"/>
<path d="" fill="#000000" transform="translate(0,0)"/>
<path d="" fill="#000000" transform="translate(0,0)"/>
<path d="" fill="#000000" transform="translate(0,0)"/>
<path d="" fill="#000000" transform="translate(0,0)"/>
<path d="" fill="#000000" transform="translate(0,0)"/>
<path d="" fill="#000000" transform="translate(0,0)"/>
<path d="" fill="#000000" transform="translate(0,0)"/>
<path d="" fill="#000000" transform="translate(0,0)"/>
<path d="" fill="#000000" transform="translate(0,0)"/>
<path d="" fill="#000000" transform="translate(0,0)"/>
<path d="" fill="#000000" transform="translate(0,0)"/>
<path d="" fill="#000000" transform="translate(0,0)"/>
<path d="" fill="#000000" transform="translate(0,0)"/>
<path d="" fill="#000000" transform="translate(0,0)"/>
<path d="" fill="#000000" transform="translate(0,0)"/>
<path d="" fill="#000000" transform="translate(0,0)"/>
<path d="" fill="#000000" transform="translate(0,0)"/>
<path d="" fill="#000000" transform="translate(0,0)"/>
<path d="" fill="#000000" transform="translate(0,0)"/>
<path d="" fill="#000000" transform="translate(0,0)"/>
<path d="" fill="#000000" transform="translate(0,0)"/>
<path d="" fill="#000000" transform="translate(0,0)"/>
<path d="" fill="#000000" transform="translate(0,0)"/>
<path d="" fill="#000000" transform="translate(0,0)"/>
<path d="" fill="#000000" transform="translate(0,0)"/>
<path d="" fill="#000000" transform="translate(0,0)"/>
<path d="" fill="#000000" transform="translate(0,0)"/>
<path d="" fill="#000000" transform="translate(0,0)"/>
<path d="" fill="#000000" transform="translate(0,0)"/>
<path d="" fill="#000000" transform="translate(0,0)"/>
<path d="" fill="#000000" transform="translate(0,0)"/>
<path d="" fill="#000000" transform="translate(0,0)"/>
<path d="" fill="#000000" transform="translate(0,0)"/>
<path d="" fill="#000000" transform="translate(0,0)"/>
<path d="" fill="#000000" transform="translate(0,0)"/>
<path d="" fill="#000000" transform="translate(0,0)"/>
<path d="" fill="#000000" transform="translate(0,0)"/>
<path d="" fill="#000000" transform="translate(0,0)"/>
<path d="" fill="#000000" transform="translate(0,0)"/>
<path d="" fill="#000000" transform="translate(0,0)"/>
<path d="" fill="#000000" transform="translate(0,0)"/>
<path d="" fill="#000000" transform="translate(0,0)"/>
<path d="" fill="#0099CC" transform="translate(0,0)"/>
<path d="" fill="#00AAAA" transform="translate(0,0)"/>
<path d="" fill="#005555" transform="translate(0,0)"/>
<path d="" fill="#00AAAA" transform="translate(0,0)"/>
<path d="" fill="#00FFFF" transform="translate(0,0)"/>
<path d="" fill="#00AAAA" transform="translate(0,0)"/>
<path d="" fill="#00AAAA" transform="translate(0,0)"/>
<path d="" fill="#00FFFF" transform="translate(0,0)"/>
<path d="" fill="#00FFFF" transform="translate(0,0)"/>
<path d="" fill="#007FBF" transform="translate(0,0)"/>
<path d="" fill="#00FFFF" transform="translate(0,0)"/>
<path d="" fill="#00BFBF" transform="translate(0,0)"/>
<path d="" fill="#007FBF" transform="translate(0,0)"/>
<path d="" fill="#000000" transform="translate(0,0)"/>
<path d="" fill="#007F7F" transform="translate(0,0)"/>
<path d="" fill="#00AAAA" transform="translate(0,0)"/>
<path d="" fill="#00FFFF" transform="translate(0,0)"/>
<path d="" fill="#00BFBF" transform="translate(0,0)"/>
<path d="" fill="#00BFBF" transform="translate(0,0)"/>
<path d="" fill="#009999" transform="translate(0,0)"/>
<path d="" fill="#0099CC" transform="translate(0,0)"/>
<path d="" fill="#00AAFF" transform="translate(0,0)"/>
<path d="" fill="#00BFBF" transform="translate(0,0)"/>
<path d="" fill="#00BFBF" transform="translate(0,0)"/>
<path d="" fill="#0099CC" transform="translate(0,0)"/>
<path d="" fill="#00BFBF" transform="translate(0,0)"/>
<path d="" fill="#007FAA" transform="translate(0,0)"/>
<path d="" fill="#000000" transform="translate(0,0)"/>
<path d="" fill="#00BFBF" transform="translate(0,0)"/>
<path d="" fill="#00CCCC" transform="translate(0,0)"/>
<path d="" fill="#000000" transform="translate(0,0)"/>
<path d="" fill="#00FFFF" transform="translate(0,0)"/>
<path d="" fill="#00BFBF" transform="translate(0,0)"/>
<path d="" fill="#00FFFF" transform="translate(0,0)"/>
<path d="" fill="#007FBF" transform="translate(0,0)"/>
<path d="" fill="#00FFFF" transform="translate(0,0)"/>
<path d="" fill="#007FFF" transform="translate(0,0)"/>
<path d="" fill="#00BFBF" transform="translate(0,0)"/>
<path d="" fill="#00FFFF" transform="translate(0,0)"/>
<path d="" fill="#000000" transform="translate(0,0)"/>
<path d="" fill="#007F7F" transform="translate(0,0)"/>
<path d="" fill="#00FFFF" transform="translate(0,0)"/>
<path d="" fill="#00AAAA" transform="translate(0,0)"/>
<path d="" fill="#00FFFF" transform="translate(0,0)"/>
<path d="" fill="#0000FF" transform="translate(0,0)"/>
<path d="" fill="#009999" transform="translate(0,0)"/>
<path d="" fill="#00FFFF" transform="translate(0,0)"/>
<path d="" fill="#007FAA" transform="translate(0,0)"/>
<path d="" fill="#0099CC" transform="translate(0,0)"/>
<path d="" fill="#009999" transform="translate(0,0)"/>
<path d="" fill="#00BFBF" transform="translate(0,0)"/>
<path d="" fill="#00BFBF" transform="translate(0,0)"/>
<path d="" fill="#000000" transform="translate(0,0)"/>
<path d="" fill="#00FFFF" transform="translate(0,0)"/>
<path d="" fill="#000000" transform="translate(0,0)"/>
<path d="" fill="#0055AA" transform="translate(0,0)"/>
<path d="" fill="#000000" transform="translate(0,0)"/>
<path d="" fill="#00FFFF" transform="translate(0,0)"/>
<path d="" fill="#00FFFF" transform="translate(0,0)"/>
<path d="" fill="#00FFFF" transform="translate(0,0)"/>
<path d="" fill="#00AAAA" transform="translate(0,0)"/>
<path d="" fill="#00BFFF" transform="translate(0,0)"/>
<path d="" fill="#00CCCC" transform="translate(0,0)"/>
<path d="" fill="#00CCCC" transform="translate(0,0)"/>
<path d="" fill="#000000" transform="translate(0,0)"/>
<path d="" fill="#0099CC" transform="translate(0,0)"/>
<path d="" fill="#00BFBF" transform="translate(0,0)"/>
<path d="" fill="#00FFFF" transform="translate(0,0)"/>
<path d="" fill="#0099CC" transform="translate(0,0)"/>
<path d="" fill="#00BFBF" transform="translate(0,0)"/>
<path d="" fill="#00AAAA" transform="translate(0,0)"/>
<path d="" fill="#0099CC" transform="translate(0,0)"/>
<path d="" fill="#00CCCC" transform="translate(0,0)"/>
<path d="" fill="#0099CC" transform="translate(0,0)"/>
<path d="" fill="#009999" transform="translate(0,0)"/>
<path d="" fill="#00BFBF" transform="translate(0,0)"/>
<path d="" fill="#00FFFF" transform="translate(0,0)"/>
<path d="" fill="#00FFFF" transform="translate(0,0)"/>
<path d="" fill="#007FBF" transform="translate(0,0)"/>
<path d="" fill="#00BF7F" transform="translate(0,0)"/>
<path d="" fill="#0000FF" transform="translate(0,0)"/>
<path d="" fill="#007F7F" transform="translate(0,0)"/>
<path d="" fill="#00FFFF" transform="translate(0,0)"/>
<path d="" fill="#00AAAA" transform="translate(0,0)"/>
<path d="" fill="#00AAAA" transform="translate(0,0)"/>
<path d="" fill="#00CCCC" transform="translate(0,0)"/>
<path d="" fill="#009999" transform="translate(0,0)"/>
<path d="" fill="#00BFBF" transform="translate(0,0)"/>
<path d="" fill="#00CCCC" transform="translate(0,0)"/>
<path d="" fill="#0099CC" transform="translate(0,0)"/>
<path d="" fill="#00AAAA" transform="translate(0,0)"/>
<path d="" fill="#009999" transform="translate(0,0)"/>
<path d="" fill="#000000" transform="translate(0,0)"/>
<path d="" fill="#00CCCC" transform="translate(0,0)"/>
<path d="" fill="#00BFFF" transform="translate(0,0)"/>
<path d="" fill="#000000" transform="translate(0,0)"/>
<path d="" fill="#000000" transform="translate(0,0)"/>
<path d="" fill="#009999" transform="translate(0,0)"/>
<path d="" fill="#007FBF" transform="translate(0,0)"/>
<path d="" fill="#007F7F" transform="translate(0,0)"/>
<path d="" fill="#00FFFF" transform="translate(0,0)"/>
<path d="" fill="#00AAAA" transform="translate(0,0)"/>
<path d="" fill="#00BFBF" transform="translate(0,0)"/>
<path d="" fill="#00FFFF" transform="translate(0,0)"/>
<path d="" fill="#007F7F" transform="translate(0,0)"/>
<path d="" fill="#00AAAA" transform="translate(0,0)"/>
<path d="" fill="#0000FF" transform="translate(0,0)"/>
<path d="" fill="#00FFFF" transform="translate(0,0)"/>
<path d="" fill="#00BFBF" transform="translate(0,0)"/>
<path d="" fill="#00AAAA" transform="translate(0,0)"/>
<path d="" fill="#009999" transform="translate(0,0)"/>
<path d="" fill="#00CCCC" transform="translate(0,0)"/>
<path d="" fill="#007FAA" transform="translate(0,0)"/>
<path d="" fill="#007FAA" transform="translate(0,0)"/>
<path d="" fill="#00BFBF" transform="translate(0,0)"/>
<path d="" fill="#007FFF" transform="translate(0,0)"/>
<path d="" fill="#009999" transform="translate(0,0)"/>
<path d="" fill="#0099CC" transform="translate(0,0)"/>
<path d="" fill="#00BFBF" transform="translate(0,0)"/>
<path d="" fill="#0099CC" transform="translate(0,0)"/>
<path d="" fill="#009999" transform="translate(0,0)"/>
<path d="" fill="#0099CC" transform="translate(0,0)"/>
<path d="" fill="#00BFBF" transform="translate(0,0)"/>
<path d="" fill="#009999" transform="translate(0,0)"/>
<path d="" fill="#0099CC" transform="translate(0,0)"/>
<path d="" fill="#007F7F" transform="translate(0,0)"/>
<path d="" fill="#00AAAA" transform="translate(0,0)"/>
<path d="" fill="#00BFBF" transform="translate(0,0)"/>
<path d="" fill="#009999" transform="translate(0,0)"/>
<path d="" fill="#00FFFF" transform="translate(0,0)"/>
<path d="" fill="#000000" transform="translate(0,0)"/>
<path d="" fill="#00BFBF" transform="translate(0,0)"/>
<path d="" fill="#00FFFF" transform="translate(0,0)"/>
<path d="" fill="#0000FF" transform="translate(0,0)"/>
<path d="" fill="#00FFFF" transform="translate(0,0)"/>
<path d="" fill="#00AAAA" transform="translate(0,0)"/>
<path d="" fill="#009999" transform="translate(0,0)"/>
<path d="" fill="#0099CC" transform="translate(0,0)"/>
<path d="" fill="#00BFBF" transform="translate(0,0)"/>
<path d="" fill="#0099CC" transform="translate(0,0)"/>
<path d="" fill="#007FBF" transform="translate(0,0)"/>
<path d="" fill="#0099CC" transform="translate(0,0)"/>
<path d="" fill="#009999" transform="translate(0,0)"/>
<path d="" fill="#00BFBF" transform="translate(0,0)"/>
<path d="" fill="#007FAA" transform="translate(0,0)"/>
<path d="" fill="#00BFBF" transform="translate(0,0)"/>
<path d="" fill="#009999" transform="translate(0,0)"/>
<path d="" fill="#00FFFF" transform="translate(0,0)"/>
<path d="" fill="#00AAAA" transform="translate(0,0)"/>
<path d="" fill="#00BFBF" transform="translate(0,0)"/>
<path d="" fill="#000000" transform="translate(0,0)"/>
<path d="" fill="#00BFBF" transform="translate(0,0)"/>
<path d="" fill="#007F7F" transform="translate(0,0)"/>
<path d="" fill="#0000FF" transform="translate(0,0)"/>
<path d="" fill="#007F7F" transform="translate(0,0)"/>
<path d="" fill="#00FFFF" transform="translate(0,0)"/>
<path d="" fill="#00FFFF" transform="translate(0,0)"/>
<path d="" fill="#000000" transform="translate(0,0)"/>
<path d="" fill="#00BFBF" transform="translate(0,0)"/>
<path d="" fill="#00FFFF" transform="translate(0,0)"/>
<path d="" fill="#007FFF" transform="translate(0,0)"/>
<path d="" fill="#007F7F" transform="translate(0,0)"/>
<path d="" fill="#00FFFF" transform="translate(0,0)"/>
<path d="" fill="#007FBF" transform="translate(0,0)"/>
<path d="" fill="#00CCCC" transform="translate(0,0)"/>
<path d="" fill="#0099CC" transform="translate(0,0)"/>
<path d="" fill="#0099CC" transform="translate(0,0)"/>
<path d="" fill="#009999" transform="translate(0,0)"/>
<path d="" fill="#0099CC" transform="translate(0,0)"/>
<path d="" fill="#00BFBF" transform="translate(0,0)"/>
<path d="" fill="#0099CC" transform="translate(0,0)"/>
<path d="" fill="#007FAA" transform="translate(0,0)"/>
<path d="" fill="#00BFBF" transform="translate(0,0)"/>
<path d="" fill="#0099CC" transform="translate(0,0)"/>
<path d="" fill="#009999" transform="translate(0,0)"/>
<path d="" fill="#00BFBF" transform="translate(0,0)"/>
<path d="" fill="#0099CC" transform="translate(0,0)"/>
<path d="" fill="#00AAAA" transform="translate(0,0)"/>
<path d="" fill="#00BFBF" transform="translate(0,0)"/>
<path d="" fill="#009999" transform="translate(0,0)"/>
<path d="" fill="#00AAAA" transform="translate(0,0)"/>
<path d="" fill="#00BFBF" transform="translate(0,0)"/>
<path d="" fill="#007FBF" transform="translate(0,0)"/>
<path d="" fill="#007F7F" transform="translate(0,0)"/>
<path d="" fill="#000000" transform="translate(0,0)"/>
<path d="" fill="#00FFFF" transform="translate(0,0)"/>
<path d="" fill="#00FFFF" transform="translate(0,0)"/>
<path d="" fill="#000000" transform="translate(0,0)"/>
<path d="" fill="#00AAAA" transform="translate(0,0)"/>
<path d="" fill="#007F7F" transform="translate(0,0)"/>
<path d="" fill="#0000FF" transform="translate(0,0)"/>
<path d="" fill="#00BFBF" transform="translate(0,0)"/>
<path d="" fill="#00FFFF" transform="translate(0,0)"/>
<path d="" fill="#00AAAA" transform="translate(0,0)"/>
<path d="" fill="#00CCCC" transform="translate(0,0)"/>
<path d="" fill="#0099CC" transform="translate(0,0)"/>
<path d="" fill="#00BFBF" transform="translate(0,0)"/>
<path d="" fill="#00AAAA" transform="translate(0,0)"/>
<path d="" fill="#007FBF" transform="translate(0,0)"/>
<path d="" fill="#00CCCC" transform="translate(0,0)"/>
<path d="" fill="#009999" transform="translate(0,0)"/>
<path d="" fill="#007FBF" transform="translate(0,0)"/>
<path d="" fill="#007FAA" transform="translate(0,0)"/>
<path d="" fill="#00BFBF" transform="translate(0,0)"/>
<path d="" fill="#009999" transform="translate(0,0)"/>
<path d="" fill="#00CCCC" transform="translate(0,0)"/>
<path d="" fill="#00BFBF" transform="translate(0,0)"/>
<path d="" fill="#00BFBF" transform="translate(0,0)"/>
<path d="" fill="#009999" transform="translate(0,0)"/>
<path d="" fill="#00AAAA" transform="translate(0,0)"/>
<path d="" fill="#007F7F" transform="translate(0,0)"/>
<path d="" fill="#00AAAA" transform="translate(0,0)"/>
<path d="" fill="#000000" transform="translate(0,0)"/>
<path d="" fill="#00BFBF" transform="translate(0,0)"/>
<path d="" fill="#00FFFF" transform="translate(0,0)"/>
<path d="" fill="#00FFFF" transform="translate(0,0)"/>
<path d="" fill="#00BFBF" transform="translate(0,0)"/>
<path d="" fill="#0099CC" transform="translate(0,0)"/>
<path d="" fill="#007FAA" transform="translate(0,0)"/>
<path d="" fill="#0099CC" transform="translate(0,0)"/>
<path d="" fill="#007FFF" transform="translate(0,0)"/>
<path d="" fill="#009999" transform="translate(0,0)"/>
<path d="" fill="#007F7F" transform="translate(0,0)"/>
<path d="" fill="#006699" transform="translate(0,0)"/>
<path d="" fill="#00AAAA" transform="translate(0,0)"/>
<path d="" fill="#00FFFF" transform="translate(0,0)"/>
<path d="" fill="#007FFF" transform="translate(0,0)"/>
<path d="" fill="#000000" transform="translate(0,0)"/>
<path d="" fill="#00FFFF" transform="translate(0,0)"/>
<path d="" fill="#007F7F" transform="translate(0,0)"/>
<path d="" fill="#00FFFF" transform="translate(0,0)"/>
<path d="" fill="#000000" transform="translate(0,0)"/>
<path d="" fill="#007F7F" transform="translate(0,0)"/>
<path d="" fill="#00AAAA" transform="translate(0,0)"/>
<path d="" fill="#00FFFF" transform="translate(0,0)"/>
<path d="" fill="#00BFBF" transform="translate(0,0)"/>
<path d="" fill="#00CCCC" transform="translate(0,0)"/>
<path d="" fill="#00AAAA" transform="translate(0,0)"/>
<path d="" fill="#0099CC" transform="translate(0,0)"/>
<path d="" fill="#009999" transform="translate(0,0)"/>
<path d="" fill="#0000FF" transform="translate(0,0)"/>
<path d="" fill="#00BFBF" transform="translate(0,0)"/>
<path d="" fill="#000000" transform="translate(0,0)"/>
<path d="" fill="#000000" transform="translate(0,0)"/>
<path d="" fill="#00AAAA" transform="translate(0,0)"/>
<path d="" fill="#00FFFF" transform="translate(0,0)"/>
<path d="" fill="#00AAAA" transform="translate(0,0)"/>
<path d="" fill="#00FFFF" transform="translate(0,0)"/>
<path d="" fill="#007FFF" transform="translate(0,0)"/>
<path d="" fill="#00AAAA" transform="translate(0,0)"/>
<path d="" fill="#0000FF" transform="translate(0,0)"/>
<path d="" fill="#00BFBF" transform="translate(0,0)"/>
<path d="" fill="#00AAAA" transform="translate(0,0)"/>
<path d="" fill="#00AAD4" transform="translate(0,0)"/>
<path d="" fill="#00AAD4" transform="translate(0,0)"/>
<path d="" fill="#009999" transform="translate(0,0)"/>
<path d="" fill="#00BFBF" transform="translate(0,0)"/>
<path d="" fill="#00AAAA" transform="translate(0,0)"/>
<path d="" fill="#00AAAA" transform="translate(0,0)"/>
<path d="" fill="#00AAAA" transform="translate(0,0)"/>
<path d="" fill="#007F7F" transform="translate(0,0)"/>
<path d="" fill="#007F7F" transform="translate(0,0)"/>
</svg>
