<svg xmlns="http://www.w3.org/2000/svg" width="2500" height="2500" viewBox="0 0 192.756 192.756"><g fill-rule="evenodd" clip-rule="evenodd"><path fill="#fff" d="M0 0h192.756v192.756H0V0z"/><path fill="#2d68ae" d="M172.73 158.797h17.192v3.91H178.02v5.848h10.445v3.687H178.02v6.467h11.902v3.91H172.73v-23.822zM148.125 158.797h20.453v3.91h-7.547V182.6h-5.269v-19.893h-7.637v-3.91zM122.629 158.797h5.791l5.646 10.057 5.348-10.057h5.867l-8.996 14.488v9.315h-5.328v-10.079l-8.328-13.724zM105.34 179.23h4.951c.668 0 1.266-.09 1.787-.268a3.632 3.632 0 0 0 1.342-.814c.705-.691 1.062-1.5 1.062-2.422 0-.598-.16-1.15-.479-1.666-.311-.514-.795-.947-1.443-1.297-.641-.35-1.398-.521-2.27-.521h-4.951v6.988h.001zm0-10.675h4.43c1.145 0 2.1-.336 2.869-1.004.717-.688 1.08-1.443 1.08-2.275 0-.834-.33-1.553-.986-2.162a3.466 3.466 0 0 0-1.246-.713c-.502-.172-1.074-.254-1.734-.254h-4.412v6.408h-.001zm-5.125-9.758h10.916c1.627 0 3.027.297 4.189.896 1.17.59 2.047 1.367 2.639 2.312.592.955.885 1.934.885 2.957a5.273 5.273 0 0 1-1.127 3.293c-.75.98-1.83 1.641-3.234 1.979a5.39 5.39 0 0 1 2.803 1.111 6.54 6.54 0 0 1 1.883 2.32 6.48 6.48 0 0 1 .66 2.824 5.66 5.66 0 0 1-.846 3.025c-.566.928-1.43 1.672-2.594 2.238-1.156.566-2.605.846-4.348.846h-11.826v-23.801zM80.074 158.797h6.187l7.496 18.232 2.365 5.57h-5.646l-1.803-5.572H76.861l-2.102 5.572h-5.817l8.398-18.164 2.734-5.638zm6.86 14.244l-3.795-10.666-4.381 10.672 8.176-.006zM32.507 158.797h5.589V182.6h-5.589v-23.803zM25.911 159.02v4.098H15.456c-4.067 0-6.864 4.963-7.013 7.416-.148 2.451 2.185 7.83 5.114 7.85l6.727.045v-9.256h5.627v12.887l-11.431.496c-7.78.338-11.646-6.045-11.646-11.711 0-5.664 4.41-11.824 13.677-11.824h9.4v-.001zM65.88 159.02v4.098H55.424c-4.066 0-6.864 4.963-7.013 7.416-.148 2.451 2.185 7.83 5.114 7.85l6.727.045v-9.256h5.627v12.887l-11.431.496c-7.78.338-11.646-6.045-11.646-11.711 0-5.664 4.41-11.824 13.678-11.824h9.4v-.001zM100.234 103.381c-18.267 0-33.167-14.899-33.167-33.167 0-18.269 14.897-33.747 34.098-33.747h51.699V10.138h-55.97c-35.018 0-62.975 27.957-62.975 62.235 0 29.417 20.907 55.184 49.593 61.02l71.948-71.95h-43.896v41.631l-11.33.307z"/><path fill="#c92230" d="M133.928 84.119h52.129l-52.129 52.129V84.119z"/></g></svg>