<?xml version="1.0" encoding="UTF-8"?>
<svg version="1.1" xmlns="http://www.w3.org/2000/svg" width="400" height="400">
<path d="M0 0 C132 0 264 0 400 0 C400 132 400 264 400 400 C268 400 136 400 0 400 C0 268 0 136 0 0 Z " fill="#FEFEFE" transform="translate(0,0)"/>
<path d="M0 0 C2.2002665 0.00532869 4.40032586 0.00003988 6.60058594 -0.00634766 C21.87052429 -0.01918376 36.4349258 1.19145361 51.38305664 4.34912109 C53.89630621 4.87848234 56.41296105 5.38828995 58.93066406 5.89599609 C69.35301654 8.03636548 79.36072617 10.81124434 89.46777344 14.13037109 C91.96395248 14.89364289 94.46578842 15.636198 96.96777344 16.38037109 C125.06342684 25.0487783 152.12509116 37.17861541 178.46777344 50.13037109 C178.46777344 50.46037109 178.46777344 50.79037109 178.46777344 51.13037109 C177.71118439 51.12815048 176.95459534 51.12592987 176.17507935 51.12364197 C168.91340423 51.10329191 161.65174364 51.08822497 154.39004707 51.07855892 C150.66008375 51.07342194 146.93014468 51.06650012 143.20019531 51.05493164 C108.30061029 50.82936233 108.30061029 50.82936233 73.53027344 53.44287109 C72.41313965 53.57330811 71.29600586 53.70374512 70.14501953 53.83813477 C60.43557402 55.02967881 50.9493302 56.73185111 41.46777344 59.13037109 C40.62553223 59.34032715 39.78329102 59.5502832 38.91552734 59.76660156 C15.46576804 65.72312592 -8.64164345 74.95603268 -23.53222656 95.13037109 C-24.02722656 96.61537109 -24.02722656 96.61537109 -24.53222656 98.13037109 C-23.54222656 98.46037109 -22.55222656 98.79037109 -21.53222656 99.13037109 C-20.0222168 100.65942383 -20.0222168 100.65942383 -18.40332031 102.62646484 C-14.36103603 107.38827361 -10.02076947 111.78923853 -5.59472656 116.19287109 C-4.83482422 116.95664063 -4.07492188 117.72041016 -3.29199219 118.50732422 C1.46467797 123.25587026 6.36137464 127.76216432 11.46777344 132.13037109 C12.44359375 132.98759766 13.41941406 133.84482422 14.42480469 134.72802734 C55.77300484 170.41983896 106.66793075 197.41638551 161.46777344 203.13037109 C154.68589632 185.43205143 144.85720566 169.22184099 133.46777344 154.13037109 C132.74203125 153.13134766 132.01628906 152.13232422 131.26855469 151.10302734 C125.80527382 143.63883212 119.89114151 136.62853871 113.81005859 129.66796875 C112.64254178 128.33056953 111.48224658 126.98687272 110.32324219 125.64208984 C107.83994363 122.76925426 105.34231668 120.00491434 102.65527344 117.31787109 C100.46777344 115.13037109 100.46777344 115.13037109 98.46777344 112.13037109 C101.81025684 112.75452033 105.13921186 113.435923 108.46777344 114.13037109 C110.23507813 114.49775391 110.23507813 114.49775391 112.03808594 114.87255859 C129.69853686 118.70841297 147.31281766 123.96630462 163.46777344 132.13037109 C164.90121003 132.76463507 166.33855424 133.39016624 167.78027344 134.00537109 C191.19343121 144.40167234 222.27024575 159.49581019 233.46777344 184.13037109 C234.05466939 190.75800101 232.58919513 194.13244796 228.46777344 199.13037109 C222.10873792 205.65488337 214.78732281 211.09889126 207.52880859 216.57128906 C205.13051706 218.38549064 202.74227208 220.2125136 200.35449219 222.04052734 C191.46574671 228.84172831 182.56571549 235.61038786 173.46777344 242.13037109 C172.11444596 243.11020082 170.76162814 244.09073466 169.40917969 245.07177734 C164.76981707 248.43547943 160.1212284 251.78619666 155.46777344 255.13037109 C154.77941406 255.62553223 154.09105469 256.12069336 153.38183594 256.63085938 C140.62591816 265.78521574 127.59193327 274.5141858 114.46777344 283.13037109 C113.53771484 283.74203125 112.60765625 284.35369141 111.64941406 284.98388672 C74.00741631 309.63845218 74.00741631 309.63845218 53.46777344 317.13037109 C52.14519531 317.63117188 52.14519531 317.63117188 50.79589844 318.14208984 C44.3563779 320.35192531 36.77577171 322.15346421 30.34667969 319.13427734 C28.20113425 317.61037887 26.36167187 315.9582033 24.46777344 314.13037109 C23.69949219 313.42654297 22.93121094 312.72271484 22.13964844 311.99755859 C-0.56236085 290.3663988 -15.63061335 261.27602548 -28.53222656 233.13037109 C-29.05840576 231.99075928 -29.05840576 231.99075928 -29.59521484 230.828125 C-33.62007635 222.0688458 -37.06082596 213.19067309 -40.17285156 204.06787109 C-41.32238493 200.69830402 -42.55952419 197.36780099 -43.81787109 194.03759766 C-48.58142383 181.31959563 -52.08854122 168.25335459 -55.53222656 155.13037109 C-55.75942383 154.27217773 -55.98662109 153.41398438 -56.22070312 152.52978516 C-59.36299016 140.60390344 -61.87496316 128.63546527 -64.08691406 116.50488281 C-64.49030858 114.35388771 -64.92222919 112.21263023 -65.37597656 110.07177734 C-66.91299788 102.80935161 -68.0331956 95.61550139 -68.83349609 88.2434082 C-69.26630906 84.27535366 -69.80490464 80.36702659 -70.53222656 76.44287109 C-72.79020122 63.32511355 -73.69795799 49.92833091 -73.90722656 36.63037109 C-73.93316895 35.76484619 -73.95911133 34.89932129 -73.98583984 34.00756836 C-74.00499812 27.54420327 -72.33121308 23.99020514 -67.73535156 19.29443359 C-47.86157559 3.63389813 -24.63484036 -0.07069601 0 0 Z " fill="#23527E" transform="translate(126.5322265625,50.86962890625)"/>
<path d="M0 0 C3.3424834 0.62414924 6.67143843 1.3055519 10 2 C11.17820313 2.24492187 12.35640625 2.48984375 13.5703125 2.7421875 C31.23076343 6.57804188 48.84504422 11.83593353 65 20 C66.43343659 20.63426398 67.8707808 21.25979515 69.3125 21.875 C92.72565778 32.27130125 123.80247231 47.36543909 135 72 C135.60575561 78.57779332 134.03441822 82.00979692 130 87 C127.85027834 89.25791334 125.72460181 91.45691983 123 93 C121.515 92.505 121.515 92.505 120 92 C117.66463064 92.31875616 115.3316082 92.65480623 113 93 C110.10371741 93.14326018 107.21190079 93.14043572 104.3125 93.1328125 C103.08225098 93.13424759 103.08225098 93.13424759 101.82714844 93.13571167 C100.0958651 93.13638924 98.36457917 93.13456461 96.63330078 93.13037109 C94.03542077 93.12507225 91.43771805 93.13030181 88.83984375 93.13671875 C78.84880828 93.14029618 68.95880802 92.82801453 59 92 C60.98 91.505 60.98 91.505 63 91 C56.21812289 73.30168034 46.38943223 57.0914699 35 42 C34.27425781 41.00097656 33.54851562 40.00195312 32.80078125 38.97265625 C27.33750038 31.50846102 21.42336807 24.49816762 15.34228516 17.53759766 C14.17476834 16.20019844 13.01447315 14.85650163 11.85546875 13.51171875 C9.37217019 10.63888317 6.87454324 7.87454324 4.1875 5.1875 C2 3 2 3 0 0 Z " fill="#77787A" transform="translate(225,163)"/>
<path d="M0 0 C33.83748734 4.16527446 68.76586759 23.13495732 99 38 C99 38.33 99 38.66 99 39 C98.24341095 38.99777939 97.4868219 38.99555878 96.70730591 38.99327087 C89.44563079 38.97292082 82.1839702 38.95785388 74.92227364 38.94818783 C71.19231031 38.94305085 67.46237124 38.93612903 63.73242188 38.92456055 C28.83305419 38.70141568 28.83305419 38.70141568 -5.9375 41.3125 C-7.04665771 41.44003662 -8.15581543 41.56757324 -9.29858398 41.69897461 C-18.35771892 42.79857789 -27.2169902 44.47806639 -36.09667969 46.56103516 C-38.78266409 47.18050668 -41.48284793 47.71886359 -44.1875 48.25 C-45.445625 48.4975 -46.70375 48.745 -48 49 C-48 47.68 -48 46.36 -48 45 C-47.34 45 -46.68 45 -46 45 C-45.67 44.01 -45.34 43.02 -45 42 C-42.525 41.505 -42.525 41.505 -40 41 C-40 41.99 -40 42.98 -40 44 C-37.69 43.01 -35.38 42.02 -33 41 C-33 41.66 -33 42.32 -33 43 C-32.38253906 42.855625 -31.76507813 42.71125 -31.12890625 42.5625 C-25.27859545 41.2802401 -19.98550963 40.80691904 -14 41 C-14 40.34 -14 39.68 -14 39 C-11.03 39 -8.06 39 -5 39 C-5.495 37.02 -5.495 37.02 -6 35 C-3.49642139 35.8345262 -1.33214148 36.79371992 1 38 C1.33 37.01 1.66 36.02 2 35 C4.31 35 6.62 35 9 35 C9.33 35.66 9.66 36.32 10 37 C13.02106753 36.85815167 16.04179097 36.71164333 19.0625 36.5625 C19.91005859 36.52318359 20.75761719 36.48386719 21.63085938 36.44335938 C22.46552734 36.40146484 23.30019531 36.35957031 24.16015625 36.31640625 C25.29916382 36.26141968 25.29916382 36.26141968 26.46118164 36.20532227 C29.12078942 36.02312188 29.12078942 36.02312188 32.21020508 35.48852539 C36.66268639 34.91457608 40.99346081 34.85644819 45.4765625 34.8671875 C46.36483734 34.86623077 47.25311218 34.86527405 48.16830444 34.86428833 C50.03570629 34.86361112 51.90311055 34.86543323 53.77050781 34.86962891 C56.62310064 34.87499643 59.47553694 34.86966178 62.328125 34.86328125 C64.14843785 34.86394186 65.96875059 34.86522268 67.7890625 34.8671875 C68.63812164 34.86516327 69.48718079 34.86313904 70.36196899 34.86105347 C74.37387292 34.87690319 78.08477237 34.99958533 82 36 C82 35.01 82 34.02 82 33 C78.04 32.34 74.08 31.68 70 31 C70 30.01 70 29.02 70 28 C68.02 28.33 66.04 28.66 64 29 C63.896875 28.360625 63.79375 27.72125 63.6875 27.0625 C63.460625 26.381875 63.23375 25.70125 63 25 C60.10813214 23.66695302 60.10813214 23.66695302 57.8125 24.9375 C57.214375 25.288125 56.61625 25.63875 56 26 C55.505 25.01 55.505 25.01 55 24 C53.68 24.33 52.36 24.66 51 25 C50.01 21.535 50.01 21.535 49 18 C47.56342755 17.66269158 46.12569907 17.33030409 44.6875 17 C43.88699219 16.814375 43.08648437 16.62875 42.26171875 16.4375 C39.89304062 15.90504177 39.89304062 15.90504177 37 16 C36.01 15.01 36.01 15.01 35 14 C34.34 14.66 33.68 15.32 33 16 C30.875 15.625 30.875 15.625 29 15 C29 13.68 29 12.36 29 11 C28.34 11 27.68 11 27 11 C26.67 12.32 26.34 13.64 26 15 C25.01 13.515 25.01 13.515 24 12 C24.66 11.01 25.32 10.02 26 9 C24.72125 9.061875 23.4425 9.12375 22.125 9.1875 C16.72576189 9.21325153 12.05761265 7.77385997 7 6 C7.33 5.01 7.66 4.02 8 3 C7.236875 3.061875 6.47375 3.12375 5.6875 3.1875 C3 3 3 3 1.1875 1.5 C0.5996875 0.7575 0.5996875 0.7575 0 0 Z " fill="#4BA5C1" transform="translate(206,63)"/>
<path d="M0 0 C0.66 0 1.32 0 2 0 C5 3.46153846 5 3.46153846 5 6 C5.804375 6.226875 6.60875 6.45375 7.4375 6.6875 C8.283125 7.120625 9.12875 7.55375 10 8 C10.33333333 9.66666667 10.66666667 11.33333333 11 13 C11.81082031 13.2475 12.62164062 13.495 13.45703125 13.75 C14.29621094 14.1625 15.13539062 14.575 16 15 C16.85546875 17.96875 16.85546875 17.96875 17.1875 21.5 C17.42282783 26.2839282 17.42282783 26.2839282 20 30 C21.98821313 30.39764263 23.98944339 30.73775349 26 31 C25.34 31.33 24.68 31.66 24 32 C24.99 34.64 25.98 37.28 27 40 C27.66 39.34 28.32 38.68 29 38 C29.66 38.33 30.32 38.66 31 39 C32.485 38.505 32.485 38.505 34 38 C33.979375 39.134375 33.95875 40.26875 33.9375 41.4375 C33.58422523 44.81575674 33.58422523 44.81575674 35 46 C37.49253715 46.74776114 39.36335259 47 42 47 C41.67 49.97 41.34 52.94 41 56 C42.32 56.33 43.64 56.66 45 57 C45.495 56.01 45.495 56.01 46 55 C47.32 55.33 48.64 55.66 50 56 C48.92598892 58.91517292 48.22189824 60.77810176 46 63 C28.52786279 48.06926456 15.55340577 30.17271181 4.375 10.1875 C3.93663818 9.40407227 3.49827637 8.62064453 3.04663086 7.81347656 C0 2.25716894 0 2.25716894 0 0 Z " fill="#23426C" transform="translate(110,306)"/>
<path d="M0 0 C2.15596396 0.01833511 4.311495 0.02050782 6.4675293 0.02026367 C21.91751917 0.05355633 36.4995691 1.37322255 51.61010742 4.58935547 C54.24455361 5.14947151 56.88198119 5.69337814 59.52026367 6.23510742 C61.21316532 6.58769614 62.90588114 6.94117855 64.59838867 7.2956543 C65.37860382 7.45718491 66.15881897 7.61871552 66.962677 7.78514099 C70.84994283 8.61773689 74.44186286 9.57415806 78.09057617 11.20581055 C77.76057617 11.86581055 77.43057617 12.52581055 77.09057617 13.20581055 C71.88224284 12.68497721 66.67390951 12.16414388 61.46557617 11.64331055 C60.62768555 11.55952148 59.78979492 11.47573242 58.92651367 11.3894043 C58.3206543 11.32881836 57.71479492 11.26823242 57.09057617 11.20581055 C57.09057617 11.86581055 57.09057617 12.52581055 57.09057617 13.20581055 C56.43057617 13.20581055 55.77057617 13.20581055 55.09057617 13.20581055 C54.59557617 10.23581055 54.59557617 10.23581055 54.09057617 7.20581055 C53.55432617 7.41206055 53.01807617 7.61831055 52.46557617 7.83081055 C50.09057617 8.20581055 50.09057617 8.20581055 47.59057617 7.33081055 C43.33902541 5.96424066 39.3351469 5.72869091 34.89526367 5.4519043 C32.49394783 5.24120388 30.41054133 4.80820493 28.09057617 4.20581055 C27.10057617 4.20581055 26.11057617 4.20581055 25.09057617 4.20581055 C24.59557617 3.71081055 24.59557617 3.71081055 24.09057617 3.20581055 C21.29030453 3.13211919 18.51500344 3.11357807 15.71557617 3.14331055 C14.54381836 3.15007813 14.54381836 3.15007813 13.34838867 3.15698242 C11.26242514 3.16948392 9.17649565 3.18736922 7.09057617 3.20581055 C6.10057617 3.20581055 5.11057617 3.20581055 4.09057617 3.20581055 C3.10057617 3.53581055 2.11057617 3.86581055 1.09057617 4.20581055 C-1.50012353 3.95948172 -4.0277863 3.65452076 -6.59692383 3.26831055 C-7.29881836 3.1684082 -8.00071289 3.06850586 -8.72387695 2.96557617 C-10.4532891 2.71851729 -12.18148653 2.46298203 -13.90942383 2.20581055 C-14.56942383 3.52581055 -15.22942383 4.84581055 -15.90942383 6.20581055 C-20.65942383 5.33081055 -20.65942383 5.33081055 -22.90942383 4.20581055 C-25.56698848 3.77355606 -28.23275268 3.50801535 -30.90942383 3.20581055 C-30.90942383 2.87581055 -30.90942383 2.54581055 -30.90942383 2.20581055 C-20.55945739 0.66799669 -10.46280393 -0.09149755 0 0 Z " fill="#3C85A4" transform="translate(126.909423828125,50.794189453125)"/>
<path d="M0 0 C2.50357861 0.8345262 4.66785852 1.79371992 7 3 C7.33 2.01 7.66 1.02 8 0 C10.31 0 12.62 0 15 0 C15.495 0.99 15.495 0.99 16 2 C19.02106753 1.85815167 22.04179097 1.71164333 25.0625 1.5625 C25.91005859 1.52318359 26.75761719 1.48386719 27.63085938 1.44335938 C28.46552734 1.40146484 29.30019531 1.35957031 30.16015625 1.31640625 C30.91949463 1.27974854 31.67883301 1.24309082 32.46118164 1.20532227 C35.1196273 1.02306759 35.1196273 1.02306759 38.20361328 0.49072266 C42.68969882 -0.08915078 47.06436359 -0.16208481 51.58203125 -0.16796875 C52.47742111 -0.17129715 53.37281097 -0.17462555 54.29533386 -0.17805481 C56.17531829 -0.18309152 58.05531156 -0.18546415 59.93530273 -0.18530273 C62.82094708 -0.18750645 65.70621917 -0.20574298 68.59179688 -0.22460938 C70.42187369 -0.22754048 72.25195233 -0.22952717 74.08203125 -0.23046875 C74.94657425 -0.23765427 75.81111725 -0.24483978 76.70185852 -0.25224304 C82.77115357 -0.22884643 82.77115357 -0.22884643 85 2 C83.77224854 2.00410889 82.54449707 2.00821777 81.27954102 2.01245117 C57.29537203 2.13165664 33.493202 2.84701591 9.625 5.3125 C8.62099152 5.41323822 7.61698303 5.51397644 6.58255005 5.61776733 C-5.82933431 6.88314131 -17.92623412 8.77955325 -30.08761597 11.56808472 C-34.04146641 12.46106876 -38.023144 13.21766767 -42 14 C-42 12.68 -42 11.36 -42 10 C-41.34 10 -40.68 10 -40 10 C-39.67 9.01 -39.34 8.02 -39 7 C-37.35 6.67 -35.7 6.34 -34 6 C-34 6.99 -34 7.98 -34 9 C-31.69 8.01 -29.38 7.02 -27 6 C-27 6.66 -27 7.32 -27 8 C-26.38253906 7.855625 -25.76507813 7.71125 -25.12890625 7.5625 C-19.27859545 6.2802401 -13.98550963 5.80691904 -8 6 C-8 5.34 -8 4.68 -8 4 C-5.03 4 -2.06 4 1 4 C0.505 2.02 0.505 2.02 0 0 Z " fill="#439DBD" transform="translate(200,98)"/>
<path d="M0 0 C3.60945412 1.20315137 4.25588994 2.66611381 6.0546875 5.890625 C7.07575969 8.16905054 7.62204857 10.30709306 8.125 12.75 C8.29257813 13.54921875 8.46015625 14.3484375 8.6328125 15.171875 C8.81457031 16.07679688 8.81457031 16.07679688 9 17 C9.99 16.67 10.98 16.34 12 16 C11.67 18.31 11.34 20.62 11 23 C12.32 22.34 13.64 21.68 15 21 C15 21.99 15 22.98 15 24 C15.18547624 31.4003347 15.18547624 31.4003347 17.8125 38.1875 C20.03987612 40.42534524 20.03987612 40.42534524 24 40 C24 42.64 24 45.28 24 48 C22.68 48 21.36 48 20 48 C15.51975922 39.25925778 11.22409084 30.45532283 7.1875 21.5 C6.62881226 20.26491699 6.62881226 20.26491699 6.05883789 19.00488281 C0 5.45788643 0 5.45788643 0 0 Z " fill="#233D61" transform="translate(88,256)"/>
<path d="M0 0 C3.29402114 1.4748231 5.7584778 3.3509754 8.5 5.6875 C14.87398428 10.9962668 21.51323991 15.92667041 28.18164062 20.8581543 C29.01888672 21.47988525 29.85613281 22.10161621 30.71875 22.7421875 C31.84700195 23.57532471 31.84700195 23.57532471 32.99804688 24.42529297 C34.81056547 25.85099357 36.41306146 27.33069658 38 29 C36.68 29 35.36 29 34 29 C34 28.34 34 27.68 34 27 C31.01671289 26.22655519 28.0246237 25.59017048 25 25 C23.33333333 24.66666667 21.66666667 24.33333333 20 24 C20.33 23.01 20.66 22.02 21 21 C20.38125 20.731875 19.7625 20.46375 19.125 20.1875 C17 19 17 19 15 16 C14.38125 16.185625 13.7625 16.37125 13.125 16.5625 C11 17 11 17 9 16 C9.20625 15.236875 9.4125 14.47375 9.625 13.6875 C10.33391203 10.78114056 10.33391203 10.78114056 8 8 C7.01 7.67 6.02 7.34 5 7 C5 7.66 5 8.32 5 9 C3.68 8.67 2.36 8.34 1 8 C1.33 6.02 1.66 4.04 2 2 C1.34 2 0.68 2 0 2 C0 1.34 0 0.68 0 0 Z " fill="#26456E" transform="translate(135,182)"/>
<path d="M0 0 C6.24723226 -0.82200425 10.71317837 2.07448606 16 5 C16 5.33 16 5.66 16 6 C-10.73 6 -37.46 6 -65 6 C-65 5.67 -65 5.34 -65 5 C-56.81090771 4.22145148 -48.67665983 3.81138142 -40.453125 3.68359375 C-39.31591003 3.66281265 -38.17869507 3.64203156 -37.00701904 3.62062073 C-33.42139957 3.55592726 -29.83571528 3.49661846 -26.25 3.4375 C-23.79947282 3.39423825 -21.34895188 3.3506217 -18.8984375 3.30664062 C-12.93235753 3.2003298 -6.96621502 3.09842399 -1 3 C-0.67 2.01 -0.34 1.02 0 0 Z " fill="#6CB4CB" transform="translate(289,96)"/>
<path d="M0 0 C5.58314787 -0.19969669 10.58394625 0.5310435 16.0390625 1.6796875 C17.30488663 1.93892502 17.30488663 1.93892502 18.59628296 2.20339966 C20.37021177 2.56832274 22.14345038 2.93661556 23.91601562 3.30810547 C26.62195975 3.87436378 29.33023301 4.42819742 32.0390625 4.98046875 C33.76838094 5.33780797 35.49755294 5.69585675 37.2265625 6.0546875 C38.03187408 6.21935516 38.83718567 6.38402283 39.66690063 6.55368042 C43.62651214 7.38973931 47.28879199 8.32963142 51 10 C50.67 10.66 50.34 11.32 50 12 C42.1875 11.21875 42.1875 11.21875 34.375 10.4375 C33.53710938 10.35371094 32.69921875 10.26992188 31.8359375 10.18359375 C31.23007813 10.12300781 30.62421875 10.06242187 30 10 C30 10.66 30 11.32 30 12 C29.34 12 28.68 12 28 12 C27.67 10.02 27.34 8.04 27 6 C26.46375 6.20625 25.9275 6.4125 25.375 6.625 C23 7 23 7 20.5 6.125 C16.15578096 4.72864388 12.05126594 4.56709796 7.51171875 4.34375 C6.68285156 4.2303125 5.85398438 4.116875 5 4 C4.67 3.34 4.34 2.68 4 2 C1.98330173 0.86649466 1.98330173 0.86649466 0 0 Z " fill="#4F9EB9" transform="translate(154,52)"/>
<path d="M0 0 C1 3 1 3 0.25 4.83203125 C-2.7320192 9.55666791 -6.0414075 14.19169761 -11 17 C-11.99 16.67 -12.98 16.34 -14 16 C-16.33512959 16.32050798 -18.66822025 16.65596692 -21 17 C-23.67405239 17.0841485 -26.32361014 17.04695421 -29 17 C-29 16.67 -29 16.34 -29 16 C-28.21625 15.87625 -27.4325 15.7525 -26.625 15.625 C-23.85942178 15.20882007 -23.85942178 15.20882007 -22 13 C-20.16015625 12.4375 -20.16015625 12.4375 -18.0625 12 C-15.01038668 11.36105291 -13.71347624 10.80898416 -11 9 C-8.3125 9.375 -8.3125 9.375 -6 10 C-6 8.68 -6 7.36 -6 6 C-4.6875 4.4375 -4.6875 4.4375 -3 3 C-2.443125 2.443125 -1.88625 1.88625 -1.3125 1.3125 C-0.879375 0.879375 -0.44625 0.44625 0 0 Z " fill="#556371" transform="translate(359,239)"/>
<path d="M0 0 C2.64 0 5.28 0 8 0 C7.360625 0.639375 6.72125 1.27875 6.0625 1.9375 C5.38767578 2.61425781 5.38767578 2.61425781 4.69921875 3.3046875 C3.39431805 4.60658843 2.08324507 5.9023052 0.76953125 7.1953125 C-0.02066406 7.97648438 -0.81085938 8.75765625 -1.625 9.5625 C-2.38039063 10.30628906 -3.13578125 11.05007812 -3.9140625 11.81640625 C-7.80265666 15.68617348 -7.80265666 15.68617348 -9.1875 20.75 C-9.125625 21.4925 -9.06375 22.235 -9 23 C-9.99 22.34 -10.98 21.68 -12 21 C-12.99 20.67 -13.98 20.34 -15 20 C-15.33 17.69 -15.66 15.38 -16 13 C-14.515 13.99 -14.515 13.99 -13 15 C-13 15.66 -13 16.32 -13 17 C-12.01 17 -11.02 17 -10 17 C-9.84144531 16.38511719 -9.68289062 15.77023438 -9.51953125 15.13671875 C-7.59835816 8.48160535 -7.59835816 8.48160535 -4.4375 5.9375 C-2 5 -2 5 0 5 C0 3.35 0 1.7 0 0 Z " fill="#1C3A51" transform="translate(112,128)"/>
<path d="M0 0 C5.80891746 4.81867247 11.13065552 10.01256408 16.4375 15.375 C17.26443359 16.20644531 18.09136719 17.03789062 18.94335938 17.89453125 C20.96455531 19.9274104 22.98336335 21.96259963 25 24 C21.60176673 24 19.17169841 23.17214941 16 22 C15 21 15 21 14.9375 18.4375 C14.958125 17.633125 14.97875 16.82875 15 16 C12.69 15.67 10.38 15.34 8 15 C7.34 12.69 6.68 10.38 6 8 C3.69 7.67 1.38 7.34 -1 7 C-0.67 4.69 -0.34 2.38 0 0 Z " fill="#223E64" transform="translate(105,152)"/>
<path d="M0 0 C0.33 0.99 0.66 1.98 1 3 C3.31 2.01 5.62 1.02 8 0 C8 0.66 8 1.32 8 2 C8.94359375 1.7834375 8.94359375 1.7834375 9.90625 1.5625 C15.40566619 0.36985553 20.37666943 -0.2082715 26 0 C23.28070004 1.46700082 20.82932646 2.38616614 17.8046875 3 C17.0103833 3.1640332 16.2160791 3.32806641 15.39770508 3.49707031 C14.5652124 3.66303711 13.73271973 3.82900391 12.875 4 C12.02639404 4.17370117 11.17778809 4.34740234 10.3034668 4.52636719 C7.87006565 5.02316037 5.43530246 5.51262575 3 6 C1.85402344 6.23203125 0.70804688 6.4640625 -0.47265625 6.703125 C-2.64728456 7.14117962 -4.82340633 7.57181764 -7 8 C-7 6.68 -7 5.36 -7 4 C-6.34 4 -5.68 4 -5 4 C-4.67 3.01 -4.34 2.02 -4 1 C-1.9375 0.3125 -1.9375 0.3125 0 0 Z " fill="#3881A1" transform="translate(165,104)"/>
<path d="M0 0 C0.99 0.66 1.98 1.32 3 2 C2.33333333 5.33333333 1.66666667 8.66666667 1 12 C0.34 12 -0.32 12 -1 12 C-1.66 11.34 -2.32 10.68 -3 10 C-4.98 10.99 -4.98 10.99 -7 12 C-6.95875 13.2375 -6.9175 14.475 -6.875 15.75 C-6.7638784 19.08364791 -7.34123921 21.1004339 -9 24 C-9.62427746 11.34104046 -9.62427746 11.34104046 -7.3125 6.375 C-5.00729343 4.00749055 -2.67881168 1.93469732 0 0 Z " fill="#143A59" transform="translate(62,68)"/>
<path d="M0 0 C0.65226563 0.13277344 1.30453125 0.26554688 1.9765625 0.40234375 C6.6408287 1.34482822 11.29868454 2.25768703 16 3 C15.67 4.98 15.34 6.96 15 9 C14.34 9 13.68 9 13 9 C12.67 9.99 12.34 10.98 12 12 C6.63885521 8.53102396 3.46897604 5.36114479 0 0 Z " fill="#9E9FA1" transform="translate(225,163)"/>
<path d="M0 0 C0.66 0 1.32 0 2 0 C2.66 1.32 3.32 2.64 4 4 C4.99 4 5.98 4 7 4 C6.98839844 4.74765625 6.97679688 5.4953125 6.96484375 6.265625 C6.95582031 7.25046875 6.94679688 8.2353125 6.9375 9.25 C6.92589844 10.22453125 6.91429688 11.1990625 6.90234375 12.203125 C6.89879262 14.9318117 6.89879262 14.9318117 7.56640625 17.234375 C8 19 8 19 7 21 C6.34 21 5.68 21 5 21 C1.88717816 14.34988061 -0.48047163 7.44731019 0 0 Z " fill="#1A3354" transform="translate(72,204)"/>
<path d="M0 0 C0.66 0 1.32 0 2 0 C2 0.66 2 1.32 2 2 C5.465 1.505 5.465 1.505 9 1 C8.43359375 3.32421875 8.43359375 3.32421875 7 6 C4.59769288 7.23000554 2.60809533 8.04998005 0.0625 8.8125 C-0.60467041 9.02479248 -1.27184082 9.23708496 -1.95922852 9.45581055 C-7.67113338 11.15387055 -13.05443614 11.55623778 -19 11 C-19.33 10.34 -19.66 9.68 -20 9 C-19.28714844 9.02320313 -18.57429687 9.04640625 -17.83984375 9.0703125 C-9.66813666 9.33428154 -9.66813666 9.33428154 -2 7 C-0.45913678 3.48599332 -0.45913678 3.48599332 0 0 Z " fill="#264872" transform="translate(178,360)"/>
<path d="M0 0 C-4.41009417 4.85110358 -9.58004353 8.348107 -15 12 C-15.33 11.34 -15.66 10.68 -16 10 C-15.67 9.34 -15.34 8.68 -15 8 C-14.34 8 -13.68 8 -13 8 C-13.33 5.69 -13.66 3.38 -14 1 C-13.01 1.66 -12.02 2.32 -11 3 C-10.484375 2.505 -9.96875 2.01 -9.4375 1.5 C-6.19319983 -0.49649241 -3.73782666 -0.21564385 0 0 Z " fill="#315585" transform="translate(302,290)"/>
<path d="M0 0 C2 1 2 1 2.8515625 3.06640625 C3.10679688 3.89011719 3.36203125 4.71382812 3.625 5.5625 C3.88539062 6.38878906 4.14578125 7.21507812 4.4140625 8.06640625 C4.60742188 8.70449219 4.80078125 9.34257812 5 10 C5.66 9.01 6.32 8.02 7 7 C7.66 7.33 8.32 7.66 9 8 C8.649375 8.721875 8.29875 9.44375 7.9375 10.1875 C6.87998107 13.3600568 7.24537428 14.81380252 8 18 C7.67 18.99 7.34 19.98 7 21 C4.38544636 17.87602043 3.08255793 14.92133501 1.8125 11.0625 C1.29623047 9.53302734 1.29623047 9.53302734 0.76953125 7.97265625 C0.04186931 5.16173879 -0.15405496 2.88454639 0 0 Z " fill="#1D3659" transform="translate(78,226)"/>
<path d="M0 0 C1.98 0.99 3.96 1.98 6 3 C5.01 3.495 5.01 3.495 4 4 C3.53348793 6.12576782 3.53348793 6.12576782 3.375 8.5625 C3.30023438 9.38878906 3.22546875 10.21507812 3.1484375 11.06640625 C3.09945312 11.70449219 3.05046875 12.34257812 3 13 C3.66 13.33 4.32 13.66 5 14 C4.34 16.31 3.68 18.62 3 21 C-0.75465464 14.49193196 -0.1164533 7.27186141 0 0 Z " fill="#13294C" transform="translate(58,128)"/>
<path d="M0 0 C0.66 0.33 1.32 0.66 2 1 C-1.10085765 2.98438825 -4.20622931 4.96159785 -7.3125 6.9375 C-8.19357422 7.50146484 -9.07464844 8.06542969 -9.98242188 8.64648438 C-10.82998047 9.18466797 -11.67753906 9.72285156 -12.55078125 10.27734375 C-13.33106689 10.77484131 -14.11135254 11.27233887 -14.9152832 11.78491211 C-17 13 -17 13 -20 14 C-20.33 13.34 -20.66 12.68 -21 12 C-20.67 11.34 -20.34 10.68 -20 10 C-18.7934375 9.7834375 -18.7934375 9.7834375 -17.5625 9.5625 C-14.65559342 9.23497283 -14.65559342 9.23497283 -13 6 C-10.0821948 4.57850516 -8.26795703 4 -5 4 C-5 3.34 -5 2.68 -5 2 C-2.625 0.9375 -2.625 0.9375 0 0 Z " fill="#36537B" transform="translate(231,338)"/>
<path d="M0 0 C0 0.66 0 1.32 0 2 C-0.53890869 2.19634033 -1.07781738 2.39268066 -1.63305664 2.5949707 C-4.11027891 3.49879695 -6.58639138 4.4056275 -9.0625 5.3125 C-9.91005859 5.62123047 -10.75761719 5.92996094 -11.63085938 6.24804688 C-16.48877604 8.0299082 -21.26532784 9.91211879 -26 12 C-26 11.34 -26 10.68 -26 10 C-19.5 6 -19.5 6 -15 6 C-15 5.34 -15 4.68 -15 4 C-14.34 4 -13.68 4 -13 4 C-12.67 3.34 -12.34 2.68 -12 2 C-10.34608154 1.60828247 -8.67654729 1.27942455 -7 1 C-4 0 -4 0 0 0 Z " fill="#35657C" transform="translate(156,111)"/>
<path d="M0 0 C1 3 1 3 0.14453125 4.9375 C-4.61538462 12.30769231 -4.61538462 12.30769231 -8 14 C-8.99 13.67 -9.98 13.34 -11 13 C-11 12.34 -11 11.68 -11 11 C-11.66 10.67 -12.32 10.34 -13 10 C-10.3333581 8.66667905 -8.83319697 9.32897967 -6 10 C-6 8.68 -6 7.36 -6 6 C-4.6875 4.4375 -4.6875 4.4375 -3 3 C-2.1646875 2.1646875 -2.1646875 2.1646875 -1.3125 1.3125 C-0.879375 0.879375 -0.44625 0.44625 0 0 Z " fill="#5D5D5C" transform="translate(359,239)"/>
<path d="M0 0 C3.875 1.75 3.875 1.75 5 4 C5.433125 3.505 5.86625 3.01 6.3125 2.5 C8 1 8 1 11 1 C11 1.99 11 2.98 11 4 C10.34 4 9.68 4 9 4 C9.33 5.98 9.66 7.96 10 10 C7 10 7 10 5.17578125 8.3203125 C4.56089844 7.59585938 3.94601563 6.87140625 3.3125 6.125 C2.68988281 5.40570313 2.06726563 4.68640625 1.42578125 3.9453125 C0 2 0 2 0 0 Z " fill="#969798" transform="translate(244,183)"/>
<path d="M0 0 C2.97 0 5.94 0 9 0 C7.76736651 3.69790046 6.79947549 3.9354846 3.4375 5.6875 C2.19806641 6.34298828 2.19806641 6.34298828 0.93359375 7.01171875 C0.29550781 7.33785156 -0.34257813 7.66398438 -1 8 C-1.66 7.34 -2.32 6.68 -3 6 C-2.01 4.02 -1.02 2.04 0 0 Z " fill="#234F69" transform="translate(121,121)"/>
<path d="M0 0 C0.97582031 0.00902344 1.95164062 0.01804688 2.95703125 0.02734375 C3.69308594 0.03894531 4.42914063 0.05054688 5.1875 0.0625 C5.5175 1.0525 5.8475 2.0425 6.1875 3.0625 C5.5275 3.7225 4.8675 4.3825 4.1875 5.0625 C1.57169521 4.7355244 -0.45328137 4.24210932 -2.8125 3.0625 C-5.47006465 2.63024551 -8.13582885 2.36470481 -10.8125 2.0625 C-10.8125 1.7325 -10.8125 1.4025 -10.8125 1.0625 C-7.13862505 0.20951624 -3.7677607 -0.04539471 0 0 Z " fill="#2F7E9D" transform="translate(106.8125,51.9375)"/>
<path d="M0 0 C2.31 0.33 4.62 0.66 7 1 C7.33 2.32 7.66 3.64 8 5 C5.69 6.65 3.38 8.3 1 10 C0.34 9.34 -0.32 8.68 -1 8 C-0.34 7.34 0.32 6.68 1 6 C0.67801034 2.90073181 0.67801034 2.90073181 0 0 Z " fill="#315585" transform="translate(312,273)"/>
<path d="M0 0 C0.66 0.66 1.32 1.32 2 2 C1.2884375 3.60875 1.2884375 3.60875 0.5625 5.25 C-0.54149474 7.81562158 -1.39291984 10.26813926 -2 13 C-2.33 13.66 -2.66 14.32 -3 15 C-5.98170547 13.01219635 -7.81831749 11.43762184 -9 8 C-8.67 7.01 -8.34 6.02 -8 5 C-7.34 6.32 -6.68 7.64 -6 9 C-5.01 9 -4.02 9 -3 9 C-2.01 6.03 -1.02 3.06 0 0 Z " fill="#193258" transform="translate(105,136)"/>
<path d="M0 0 C-0.639375 0.598125 -1.27875 1.19625 -1.9375 1.8125 C-4.20310389 3.90810337 -4.20310389 3.90810337 -5 7 C-7.9375 6.1875 -7.9375 6.1875 -11 5 C-11.33 4.01 -11.66 3.02 -12 2 C-10.75579353 1.4654744 -9.50429064 0.94791389 -8.25 0.4375 C-7.55390625 0.14746094 -6.8578125 -0.14257812 -6.140625 -0.44140625 C-3.69987216 -1.07831803 -2.3596345 -0.80248831 0 0 Z " fill="#376D8C" transform="translate(92,56)"/>
<path d="M0 0 C0 0.33 0 0.66 0 1 C-2.31 1.66 -4.62 2.32 -7 3 C-7.66 2.34 -8.32 1.68 -9 1 C-11.9093558 0.85482256 -14.719946 0.81369204 -17.625 0.875 C-18.82769531 0.88853516 -18.82769531 0.88853516 -20.0546875 0.90234375 C-22.03658523 0.92593777 -24.01832981 0.96180935 -26 1 C-26.33 0.34 -26.66 -0.32 -27 -1 C-17.71842808 -2.4551617 -9.19314502 -1.39569705 0 0 Z " fill="#3F92B0" transform="translate(160,53)"/>
<path d="M0 0 C1.0725 0.53625 2.145 1.0725 3.25 1.625 C1.96034824 3.00062854 0.62310707 4.33266393 -0.75 5.625 C-3.48922932 5.625 -3.89336348 5.57721217 -6.75 4.625 C-7.4375 2.5625 -7.4375 2.5625 -7.75 0.625 C-4.61227723 -1.75966931 -3.83407554 -1.4058277 0 0 Z " fill="#355788" transform="translate(264.75,313.375)"/>
<path d="M0 0 C-2.85276137 2.93200474 -5.65079784 5.64315404 -9 8 C-9.33 5.36 -9.66 2.72 -10 0 C-3.375 -1.125 -3.375 -1.125 0 0 Z " fill="#37537F" transform="translate(348,255)"/>
<path d="M0 0 C4.62 0.99 9.24 1.98 14 3 C14 3.66 14 4.32 14 5 C12.35 5 10.7 5 9 5 C9 5.66 9 6.32 9 7 C6.69 6.67 4.38 6.34 2 6 C2.99 5.67 3.98 5.34 5 5 C4.67 4.34 4.34 3.68 4 3 C1.97536745 2.34786708 1.97536745 2.34786708 0 2 C0 1.34 0 0.68 0 0 Z " fill="#305282" transform="translate(252,248)"/>
<path d="M0 0 C2.86258227 2.86258227 3.14505918 5.57425456 3.53515625 9.44921875 C3.62216797 10.29677734 3.70917969 11.14433594 3.79882812 12.01757812 C3.88583984 12.89865234 3.97285156 13.77972656 4.0625 14.6875 C4.15337891 15.58017578 4.24425781 16.47285156 4.33789062 17.39257812 C4.56164199 19.59476265 4.78222601 21.79721768 5 24 C4.34 23.67 3.68 23.34 3 23 C2.34882421 20.63127339 1.82484926 18.34541515 1.375 15.9375 C1.24311279 15.2580835 1.11122559 14.57866699 0.9753418 13.87866211 C0.10116181 9.15063109 -0.29307021 4.7868135 0 0 Z " fill="#1A304A" transform="translate(61,151)"/>
<path d="M0 0 C4.35829685 0.38913365 8.06729639 0.90181822 12.125 2.5625 C15.52834433 3.94805125 18.2930921 4.27801809 22 4 C21.67 5.32 21.34 6.64 21 8 C13.8821847 5.96192707 6.93292719 3.59655258 0 1 C0 0.67 0 0.34 0 0 Z " fill="#D9F2F8" transform="translate(232,70)"/>
<path d="M0 0 C5.4611399 0.35233161 5.4611399 0.35233161 8 1 C9.5 3.0625 9.5 3.0625 10 5 C9.01 5 8.02 5 7 5 C6.67 5.99 6.34 6.98 6 8 C1.2 4.55384615 1.2 4.55384615 0.1875 1.75 C0.125625 1.1725 0.06375 0.595 0 0 Z " fill="#969799" transform="translate(238,175)"/>
<path d="M0 0 C8.79909866 -0.77944772 15.11537979 1.14713149 23 5 C19.613033 6.15482399 17.66961621 5.82816267 14.3125 4.6875 C9.57675237 3.15348368 4.87115968 2.02137219 0 1 C0 0.67 0 0.34 0 0 Z " fill="#CFECF5" transform="translate(186,57)"/>
<path d="M0 0 C1.32 0 2.64 0 4 0 C3.979375 0.7425 3.95875 1.485 3.9375 2.25 C3.99328688 4.70462279 4.3069904 6.66109261 5 9 C4.01 9 3.02 9 2 9 C0.02 5.535 0.02 5.535 -2 2 C-1.34 1.34 -0.68 0.68 0 0 Z " fill="#8C8C8C" transform="translate(267,209)"/>
<path d="M0 0 C0.66 0.33 1.32 0.66 2 1 C-0.20372287 4.6296612 -2.72923712 6.12155069 -6.3671875 8.0546875 C-8.11978953 8.96912383 -8.11978953 8.96912383 -9.625 10.6875 C-11.55228651 12.52718258 -13.41511053 12.65069061 -16 13 C-11.3126338 7.82773385 -5.68271819 4.01074507 0 0 Z " fill="#E2EEF7" transform="translate(305,288)"/>
<path d="M0 0 C0.99 0.33 1.98 0.66 3 1 C4 4 4 4 4 8 C4.31151288 10.33634657 4.64159778 12.67038557 5 15 C4.01 15 3.02 15 2 15 C1.66048381 13.43883181 1.32867456 11.87598662 1 10.3125 C0.814375 9.44238281 0.62875 8.57226562 0.4375 7.67578125 C0.01027953 5.06287036 -0.07616201 2.64186962 0 0 Z " fill="#1D3452" transform="translate(68,188)"/>
<path d="M0 0 C1.72945653 0.14235457 3.45855654 0.28904382 5.1875 0.4375 C6.63189453 0.55931641 6.63189453 0.55931641 8.10546875 0.68359375 C10.78649602 0.97666151 13.3662986 1.42703754 16 2 C15.34 2.66 14.68 3.32 14 4 C11.3984375 3.9765625 11.3984375 3.9765625 8.375 3.625 C7.37210938 3.51414063 6.36921875 3.40328125 5.3359375 3.2890625 C4.17964844 3.14597656 4.17964844 3.14597656 3 3 C3 3.66 3 4.32 3 5 C2.34 5 1.68 5 1 5 C0.67 3.35 0.34 1.7 0 0 Z " fill="#3AA3C3" transform="translate(181,59)"/>
<path d="M0 0 C1.37478516 0.01740234 1.37478516 0.01740234 2.77734375 0.03515625 C3.69644531 0.04417969 4.61554688 0.05320312 5.5625 0.0625 C6.27277344 0.07410156 6.98304688 0.08570313 7.71484375 0.09765625 C5.30794572 2.82440784 2.79013352 4.21732221 -0.47265625 5.78515625 C-1.37371094 6.22214844 -2.27476562 6.65914063 -3.203125 7.109375 C-4.23373047 7.59857422 -4.23373047 7.59857422 -5.28515625 8.09765625 C-5.28515625 6.09765625 -5.28515625 6.09765625 -3.28515625 3.97265625 C-2.62515625 3.35390625 -1.96515625 2.73515625 -1.28515625 2.09765625 C-1.94515625 1.76765625 -2.60515625 1.43765625 -3.28515625 1.09765625 C-2.28515625 0.09765625 -2.28515625 0.09765625 0 0 Z " fill="#33507B" transform="translate(198.28515625,353.90234375)"/>
<path d="M0 0 C3.35595828 0.59927826 5.37801226 1.84622436 8 4 C7.67 4.66 7.34 5.32 7 6 C6.01 5.67 5.02 5.34 4 5 C1.83284443 5.87483915 1.83284443 5.87483915 0 7 C0 6.34 0 5.68 0 5 C-1.98 5.99 -1.98 5.99 -4 7 C-3.67 6.01 -3.34 5.02 -3 4 C-1.68 4 -0.36 4 1 4 C0.67 2.68 0.34 1.36 0 0 Z " fill="#7E7F82" transform="translate(293,185)"/>
<path d="M0 0 C4.06540996 1.35513665 4.97300269 3.30796918 7 7 C6.75 9.375 6.75 9.375 6 11 C3.5625 9.4375 3.5625 9.4375 1 7 C0.1875 3.25 0.1875 3.25 0 0 Z " fill="#5F5F61" transform="translate(352,226)"/>
<path d="M0 0 C2.31 0 4.62 0 7 0 C7.1875 2.875 7.1875 2.875 7 6 C6.01 6.66 5.02 7.32 4 8 C2.68 5.36 1.36 2.72 0 0 Z " fill="#8A8A8C" transform="translate(271,220)"/>
<path d="M0 0 C3.61194146 0.42493429 6.04826928 1.58115387 9.1875 3.375 C9.1875 3.705 9.1875 4.035 9.1875 4.375 C4.2375 4.045 -0.7125 3.715 -5.8125 3.375 C-2.8125 0.375 -2.8125 0.375 0 0 Z " fill="#4DA1B8" transform="translate(295.8125,97.625)"/>
<path d="M0 0 C1.44037669 0.93307421 2.87718985 1.87165077 4.3125 2.8125 C5.11300781 3.33457031 5.91351563 3.85664063 6.73828125 4.39453125 C8.7237402 5.80389849 10.3491852 7.22096657 12 9 C9.36 9 6.72 9 4 9 C4 7.35 4 5.7 4 4 C2.68 3.67 1.36 3.34 0 3 C0 2.01 0 1.02 0 0 Z " fill="#304C71" transform="translate(153,196)"/>
<path d="M0 0 C0.66 0.66 1.32 1.32 2 2 C0.21118264 3.00508801 -1.58114696 4.00392736 -3.375 5 C-4.37273437 5.556875 -5.37046875 6.11375 -6.3984375 6.6875 C-9 8 -9 8 -11 8 C-9.74317834 4.22953502 -8.25084804 3.2164873 -5 1 C-2.3125 0.125 -2.3125 0.125 0 0 Z " fill="#E5F5F9" transform="translate(75,58)"/>
<path d="M0 0 C0.66 1.32 1.32 2.64 2 4 C2.99 4 3.98 4 5 4 C5.33 6.64 5.66 9.28 6 12 C2.32966073 8.72291137 0.30718811 5.28477792 -2 1 C-1.34 0.67 -0.68 0.34 0 0 Z " fill="#929395" transform="translate(257,196)"/>
<path d="M0 0 C-3.29892666 1.88054756 -6.39392906 2.60829247 -10.125 3.25 C-11.70667969 3.53617187 -11.70667969 3.53617187 -13.3203125 3.828125 C-14.64675781 3.91320312 -14.64675781 3.91320312 -16 4 C-16.66 3.34 -17.32 2.68 -18 2 C-11.92972642 -0.1583195 -6.40629424 -0.20852314 0 0 Z " fill="#3E8AA4" transform="translate(191,104)"/>
<path d="M0 0 C5.75 1.75 5.75 1.75 8 4 C7.2575 3.95875 6.515 3.9175 5.75 3.875 C2.91241048 4.00398134 1.41226062 4.57051222 -1 6 C-1.99 4.68 -2.98 3.36 -4 2 C-2.68 2 -1.36 2 0 2 C0 1.34 0 0.68 0 0 Z " fill="#325182" transform="translate(198,226)"/>
<path d="M0 0 C2.475 0.99 2.475 0.99 5 2 C5.6875 4.8125 5.6875 4.8125 6 8 C6.62225605 9.68375165 7.27544365 11.35767228 8 13 C7.01 13.495 7.01 13.495 6 14 C4.02 9.38 2.04 4.76 0 0 Z " fill="#2D4366" transform="translate(99,285)"/>
<path d="M0 0 C0.66 0.66 1.32 1.32 2 2 C1.63723355 4.82957829 0.90305236 7.29084291 0 10 C-3 8 -3 8 -3.6875 4.875 C-3.790625 3.92625 -3.89375 2.9775 -4 2 C-2.68 1.34 -1.36 0.68 0 0 Z " fill="#193861" transform="translate(102,277)"/>
<path d="M0 0 C3.52269485 -0.4025937 4.79940808 -0.13372795 7.8125 1.875 C8.534375 2.57625 9.25625 3.2775 10 4 C10 4.66 10 5.32 10 6 C9.01 6.33 8.02 6.66 7 7 C6.67 6.01 6.34 5.02 6 4 C3.98491642 3.26676204 3.98491642 3.26676204 2 3 C2 2.34 2 1.68 2 1 C1.34 0.67 0.68 0.34 0 0 Z " fill="#6C6D6E" transform="translate(330,208)"/>
<path d="M0 0 C2.625 0.9375 2.625 0.9375 5 2 C4.34 3.32 3.68 4.64 3 6 C1.02 5.34 -0.96 4.68 -3 4 C-2.67 3.01 -2.34 2.02 -2 1 C-1.34 0.67 -0.68 0.34 0 0 Z " fill="#244E69" transform="translate(66,65)"/>
<path d="M0 0 C0.66 0.33 1.32 0.66 2 1 C0.625 3 0.625 3 -1 5 C-1.66 5 -2.32 5 -3 5 C-2.67 5.99 -2.34 6.98 -2 8 C-3.98 8.99 -3.98 8.99 -6 10 C-6.99 9.34 -7.98 8.68 -9 8 C-6.03 5.36 -3.06 2.72 0 0 Z " fill="#E7ECF1" transform="translate(354,250)"/>
<path d="M0 0 C1.32 0.33 2.64 0.66 4 1 C-0.455 3.97 -0.455 3.97 -5 7 C-5.33 5.35 -5.66 3.7 -6 2 C-4.02 2 -2.04 2 0 2 C0 1.34 0 0.68 0 0 Z " fill="#385380" transform="translate(256,320)"/>
<path d="M0 0 C0.33 1.32 0.66 2.64 1 4 C-0.98 4.66 -2.96 5.32 -5 6 C-5.66 5.34 -6.32 4.68 -7 4 C-6.34 4 -5.68 4 -5 4 C-4.67 3.01 -4.34 2.02 -4 1 C-1.9375 0.3125 -1.9375 0.3125 0 0 Z " fill="#2E80A6" transform="translate(165,104)"/>
<path d="M0 0 C5.4185766 -0.22577402 9.77487721 0.53329887 15 2 C14.67 2.66 14.34 3.32 14 4 C9.13103697 3.40380045 4.67209049 2.43023178 0 1 C0 0.67 0 0.34 0 0 Z " fill="#3DA4C5" transform="translate(213,68)"/>
<path d="M0 0 C1.65 0.33 3.3 0.66 5 1 C4.67 1.99 4.34 2.98 4 4 C4 4.99 4 5.98 4 7 C2.35 6.67 0.7 6.34 -1 6 C-0.67 4.02 -0.34 2.04 0 0 Z " fill="#305686" transform="translate(281,297)"/>
<path d="M0 0 C3.875 1.75 3.875 1.75 5 4 C1.04 4 -2.92 4 -7 4 C-5.68 3.34 -4.36 2.68 -3 2 C-2.01 1.34 -1.02 0.68 0 0 Z " fill="#818B99" transform="translate(291,251)"/>
<path d="M0 0 C0.66 0.33 1.32 0.66 2 1 C0.75453595 4.73639216 -0.63404953 5.18756513 -4 7 C-4 6.34 -4 5.68 -4 5 C-4.66 5 -5.32 5 -6 5 C-6 4.34 -6 3.68 -6 3 C-4.03533587 1.93224776 -2.03144641 0.93446535 0 0 Z " fill="#365887" transform="translate(326,269)"/>
<path d="M0 0 C6.93 0.495 6.93 0.495 14 1 C14 1.33 14 1.66 14 2 C9.05 2.33 4.1 2.66 -1 3 C-0.67 2.01 -0.34 1.02 0 0 Z " fill="#5B9DB7" transform="translate(192,102)"/>
<path d="M0 0 C6.75 -0.125 6.75 -0.125 9 1 C9.625 3.0625 9.625 3.0625 10 5 C6.08788267 3.84414715 3.1254959 2.64465038 0 0 Z " fill="#D4F3F9" transform="translate(284,91)"/>
<path d="M0 0 C1.3357457 3.77371512 0.72408671 6.85831347 0.0625 10.75 C-0.13214844 11.92046875 -0.32679687 13.0909375 -0.52734375 14.296875 C-0.68332031 15.18890625 -0.83929688 16.0809375 -1 17 C-1.33 17 -1.66 17 -2 17 C-2.05398987 14.72942623 -2.09278742 12.45848712 -2.125 10.1875 C-2.14820313 8.92292969 -2.17140625 7.65835938 -2.1953125 6.35546875 C-2 3 -2 3 0 0 Z " fill="#172A43" transform="translate(55,75)"/>
<path d="M0 0 C1.9375 0.75 1.9375 0.75 4 2 C4.75 4.125 4.75 4.125 5 6 C3.02 6 1.04 6 -1 6 C-0.67 4.02 -0.34 2.04 0 0 Z " fill="#67686B" transform="translate(345,218)"/>
<path d="M0 0 C3.36591866 1.44253657 5.51047079 3.33264727 8 6 C7.34 6.66 6.68 7.32 6 8 C3.69 6.02 1.38 4.04 -1 2 C-0.67 1.34 -0.34 0.68 0 0 Z " fill="#E0EDF2" transform="translate(140,183)"/>
<path d="M0 0 C0 0.99 0 1.98 0 3 C-2.75 5.75 -2.75 5.75 -6 8 C-7.32 7.67 -8.64 7.34 -10 7 C-6.7 4.69 -3.4 2.38 0 0 Z " fill="#E2EFF6" transform="translate(319,278)"/>
<path d="M0 0 C-0.33 0.99 -0.66 1.98 -1 3 C-5.02040985 3.69584017 -8.08263419 4.1700097 -12 3 C-10.56445975 2.49440092 -9.1264798 1.9957251 -7.6875 1.5 C-6.88699219 1.2215625 -6.08648437 0.943125 -5.26171875 0.65625 C-3 0 -3 0 0 0 Z " fill="#CDE6ED" transform="translate(156,113)"/>
<path d="M0 0 C-1 3 -1 3 -2.8125 4.25 C-5.33943414 5.11637742 -6.52221994 4.88492145 -9 4 C-3.7826087 0 -3.7826087 0 0 0 Z " fill="#3A647C" transform="translate(80,59)"/>
<path d="M0 0 C2.64752004 2.57784846 4.94432065 4.91648098 7 8 C4.625 7.6875 4.625 7.6875 2 7 C0 4 0 4 0 0 Z " fill="#D7E4ED" transform="translate(134,346)"/>
<path d="M0 0 C1.32 0.33 2.64 0.66 4 1 C4.66 3.64 5.32 6.28 6 9 C0.42857143 3.85714286 0.42857143 3.85714286 0 0 Z " fill="#2D4A69" transform="translate(132,341)"/>
<path d="M0 0 C0.66 0.66 1.32 1.32 2 2 C-0.625 8.75 -0.625 8.75 -4 11 C-3.52269162 9.5410574 -3.04308958 8.08286504 -2.5625 6.625 C-2.29566406 5.81289062 -2.02882813 5.00078125 -1.75390625 4.1640625 C-1 2 -1 2 0 0 Z " fill="#101E36" transform="translate(105,136)"/>
<path d="M0 0 C0.66 0.33 1.32 0.66 2 1 C0.8553125 1.8971875 0.8553125 1.8971875 -0.3125 2.8125 C-2.3483575 4.46959332 -4.1978279 6.10297674 -6 8 C-6.66 7.34 -7.32 6.68 -8 6 C-5.36 4.02 -2.72 2.04 0 0 Z " fill="#DFEDF7" transform="translate(276,309)"/>
<path d="M0 0 C1.65 0.33 3.3 0.66 5 1 C3.37660195 2.70884005 1.70680947 4.37446717 0 6 C-0.66 6 -1.32 6 -2 6 C-2 3 -2 3 0 1 C0 0.67 0 0.34 0 0 Z " fill="#3A5886" transform="translate(307,282)"/>
<path d="M0 0 C0 0.66 0 1.32 0 2 C-2.97 2.66 -5.94 3.32 -9 4 C-9.33 3.01 -9.66 2.02 -10 1 C-2.25 0 -2.25 0 0 0 Z " fill="#3F7C97" transform="translate(167,108)"/>
<path d="M0 0 C2.9375 0.375 2.9375 0.375 6 1 C6.33 1.66 6.66 2.32 7 3 C4.6875 3.625 4.6875 3.625 2 4 C1.01 3.34 0.02 2.68 -1 2 C-0.67 1.34 -0.34 0.68 0 0 Z " fill="#3EA8CC" transform="translate(277,91)"/>
<path d="M0 0 C0.66 0.33 1.32 0.66 2 1 C1.34 2.65 0.68 4.3 0 6 C-1.65 6 -3.3 6 -5 6 C-3.35 4.02 -1.7 2.04 0 0 Z " fill="#304B62" transform="translate(60,69)"/>
<path d="M0 0 C0 0.66 0 1.32 0 2 C-2.64 2.66 -5.28 3.32 -8 4 C-8.33 3.34 -8.66 2.68 -9 2 C-5.62902617 0.50178941 -3.79557881 0 0 0 Z " fill="#386E89" transform="translate(156,111)"/>
<path d="M0 0 C3 1 3 1 5 3 C5.99 3.66 6.98 4.32 8 5 C5.03 5 2.06 5 -1 5 C-0.34 4.67 0.32 4.34 1 4 C0.67 2.68 0.34 1.36 0 0 Z " fill="#3E96B7" transform="translate(200,98)"/>
<path d="M0 0 C0 0.66 0 1.32 0 2 C-5.41538462 3.23076923 -5.41538462 3.23076923 -8.375 2.0625 C-8.91125 1.711875 -9.4475 1.36125 -10 1 C-6.59437148 0.22157062 -3.49234244 -0.09978121 0 0 Z " fill="#568C9F" transform="translate(106,52)"/>
<path d="M0 0 C0.66 0.66 1.32 1.32 2 2 C0.625 4.5 0.625 4.5 -1 7 C-1.66 7 -2.32 7 -3 7 C-3 3 -3 3 -1.5 1.25 C-1.005 0.8375 -0.51 0.425 0 0 Z " fill="#152D52" transform="translate(70,180)"/>
<path d="M0 0 C2.97 0.495 2.97 0.495 6 1 C6 1.66 6 2.32 6 3 C4.02 3.66 2.04 4.32 0 5 C0 3.35 0 1.7 0 0 Z " fill="#1B4068" transform="translate(128,179)"/>
<path d="M0 0 C0 3.51716303 -0.82445585 4.37121748 -3 7 C-4.32 6.67 -5.64 6.34 -7 6 C-4.69 4.02 -2.38 2.04 0 0 Z " fill="#DDEAF0" transform="translate(119,129)"/>
<path d="M0 0 C1.64599285 2.96278714 2.65262237 5.61306808 3 9 C2.34 9.99 1.68 10.98 1 12 C0.01751476 7.9472484 -0.08159574 4.16138263 0 0 Z " fill="#0F2342" transform="translate(56,115)"/>
<path d="M0 0 C1.7074998 1.28062485 3.37373596 2.61767557 5 4 C5 4.66 5 5.32 5 6 C4.01 6.33 3.02 6.66 2 7 C2 6.01 2 5.02 2 4 C1.01 4.33 0.02 4.66 -1 5 C-0.67 3.35 -0.34 1.7 0 0 Z " fill="#204270" transform="translate(118,316)"/>
<path d="M0 0 C0 2.33333333 0 4.66666667 0 7 C-0.99 6.67 -1.98 6.34 -3 6 C-3.6875 3.9375 -3.6875 3.9375 -4 2 C-2.68 1.34 -1.36 0.68 0 0 Z " fill="#295389" transform="translate(261,312)"/>
<path d="M0 0 C0 0.66 0 1.32 0 2 C0.66 2 1.32 2 2 2 C2 2.66 2 3.32 2 4 C-2.455 3.01 -2.455 3.01 -7 2 C-3 0 -3 0 0 0 Z " fill="#D8E7F2" transform="translate(245,242)"/>
<path d="M0 0 C0 0.33 0 0.66 0 1 C-6.625 2.125 -6.625 2.125 -10 1 C-10 0.34 -10 -0.32 -10 -1 C-6.06329512 -2.31223496 -3.87511856 -1.24296256 0 0 Z " fill="#365683" transform="translate(224,237)"/>
<path d="M0 0 C1.32 0 2.64 0 4 0 C4 0.99 4 1.98 4 3 C3.34 3 2.68 3 2 3 C1.67 3.99 1.34 4.98 1 6 C0.34 5.34 -0.32 4.68 -1 4 C-0.625 1.875 -0.625 1.875 0 0 Z " fill="#8E8F91" transform="translate(251,184)"/>
<path d="M0 0 C1.98 1.65 3.96 3.3 6 5 C5.01 6.485 5.01 6.485 4 8 C4 7.01 4 6.02 4 5 C3.01 5 2.02 5 1 5 C0.67 3.35 0.34 1.7 0 0 Z " fill="#2F476B" transform="translate(116,163)"/>
</svg>
