<svg id="LOGO" xmlns="http://www.w3.org/2000/svg" viewBox="0 0 1250 703"><defs><style>.cls-1{fill:#e50012;}</style></defs><g id="h3c-logo"><path class="cls-1" d="M413.60381,251.5v82.77127H296.17936V251.5H228.0238v200h68.15556V358.36451H413.60381V451.5h68.1658v-200Zm95.09848,3.18442v27.02707c28.00447-4.43268,64.681-6.60654,89.09713-6.60654,19.31844,0,45.16379,2.04221,54.33667,6.78752,9.128,4.70559,11.75886,11.34469,11.75886,18.81991,0,6.31112-1.81639,14.58543-8.15,20.058-6.27426,5.4152-15.189,9.13787-27.628,10.93706-11.29227,1.66776-29.01236,2.50185-54.44087,2.50185l-41.54533.11423V357.536h44.70232c26.58484,0,47.59582.82856,60.01515,3.8365,13.81378,3.17214,21.835,7.00864,28.27267,12.79891,6.41307,5.805,7.88756,14.03,7.88756,21.15756,0,9.8356-6.1502,18.678-18.41025,24.47281-12.27991,5.80768-37.53521,8.0837-57.35484,7.52007-30.76448-.96532-61.445-4.00581-92.18451-7.17243V447.2481c32.19413,2.31573,82.8978,4.2519,94.59156,4.2519,44.76742,0,94.8702-2.47441,120.001-15.132,21.99861-11.19012,26.98223-33.90386,26.98223-40.98211.025-7.86013-1.0124-17.43448-6.19953-24.77848-5.16194-7.41319-11.47572-12.00966-23.225-16.3279-11.79367-4.3035-18.76259-6.67615-40.60212-10.38142,24.28179-5.795,31.36516-8.62644,43.63483-16.47183,12.20068-7.922,18.35538-19.46748,18.35538-30.57325,0-13.75194-6.74535-25.71677-25.76591-33.87192C693.71663,254.786,641.52373,251.5,606.41624,251.5c-20.28642,0-63.07817.81689-97.714,3.18442m290.08907,22.083c-26.12829,18.74519-35.72312,45.54152-35.72312,74.8268,0,29.10449,11.21776,55.42154,37.39088,74.28568C826.64739,444.72455,886.99053,451.5,941.6001,451.5c26.15327,0,54.23246-1.87925,80.3761-3.84715V417.49111c-28.44669,3.91185-38.85554,4.86488-68.3345,6.108-32.32782,1.33261-60.864-2.99525-81.90975-16.46917-19.05516-12.18593-28.28761-26.61268-28.28761-56.22287,0-20.79047,3.95094-39.74674,20.86684-52.73155,21.86-16.75948,51.32934-20.89673,86.22328-20.89673,21.84015,0,40.94014,1.75948,71.44174,7.44062V253.9525c-28.89854-1.86184-45.59578-2.4525-83.71141-2.4525-55.88588,0-113.3648,6.58935-139.47343,25.26738"/></g><div xmlns="" id="divScriptsUsed" style="display: none"/><script xmlns="" id="globalVarsDetection" src="moz-extension://988954a5-4571-47b7-8811-234b4eee0106/js/wrs_env.js"/></svg>