<?xml version="1.0" encoding="UTF-8" standalone="no"?>
<!-- Created with Inkscape (http://www.inkscape.org/) -->
<svg
   xmlns:svg="http://www.w3.org/2000/svg"
   xmlns="http://www.w3.org/2000/svg"
   version="1.0"
   width="677.87891"
   height="120.0752"
   viewBox="0 0 677.87891 120.0752"
   id="Layer_1"
   xml:space="preserve"><defs
   id="defs26" />
<style
   type="text/css"
   id="style3" />

<g
   id="g7">
	<polygon
   points="614.25781,91.649414 640.01074,91.649414 640.01074,0 614.25781,0 614.25781,91.649414 614.25781,91.649414 "
   style="fill:#de1e34;fill-rule:evenodd"
   id="polygon9" />
	<polygon
   points="677.87891,0 677.87891,91.649414 652.12988,91.649414 652.12988,0 677.87891,0 677.87891,0 "
   style="fill:#de1e34;fill-rule:evenodd"
   id="polygon11" />
	<polygon
   points="54.909668,35.59668 34.082031,35.59668 34.082031,0 0,0 0,91.649414 34.082031,91.649414 34.082031,46.205078 54.909668,46.205078 54.909668,91.649414 88.995117,91.649414 88.995117,0 54.909668,0 54.909668,35.59668 54.909668,35.59668 "
   style="fill:#de1e34;fill-rule:evenodd"
   id="polygon13" />
	<path
   d="M 214.91406,34.082031 L 212.82959,28.024414 L 184.80518,28.024414 L 184.80518,91.649414 L 212.82959,91.649414 L 212.82959,53.398438 L 212.82959,53.398438 C 212.82959,45.06543 218.13379,40.522461 222.67725,40.522461 C 226.46338,40.522461 231.38525,41.279297 231.38525,49.612305 L 231.38525,49.612305 L 231.38525,91.649414 L 259.40967,91.649414 L 259.40967,50.370117 L 259.40967,50.370117 C 259.40967,27.267578 233.47314,18.180664 214.91406,34.082031 L 214.91406,34.082031 L 214.91406,34.082031 L 214.91406,34.082031 z "
   style="fill:#de1e34;fill-rule:evenodd"
   id="path15" />
	<path
   d="M 502.73047,64.948242 L 489.66602,28.024414 L 470.54102,28.024414 L 457.47363,66.462891 L 443.83984,28.024414 L 417.14258,28.024414 L 416.95117,28.024414 L 406.35059,28.024414 L 392.9043,60.401367 L 373.96973,28.024414 L 341.96826,28.024414 L 379.64941,92.40625 L 374.72754,104.52148 L 374.72754,104.52148 C 373.02148,108.31152 368.94141,108.49902 368.14258,104.90039 C 368.14258,98.393555 362.86621,93.121094 356.35938,93.121094 C 349.85156,93.121094 344.57617,98.393555 344.57617,104.90039 C 344.62207,111.71875 351.4375,120.61816 364.87988,120.04883 C 378.32617,119.48242 384.00488,108.31152 385.89844,103.57715 L 385.89844,103.57715 L 417.04004,28.272461 L 439.4873,91.649414 L 459.93652,91.649414 L 472.43359,55.100586 L 485.31055,91.649414 L 504.62305,91.649414 L 526.39844,28.024414 L 515.22754,28.024414 L 502.73047,64.948242 L 502.73047,64.948242 L 502.73047,64.948242 z "
   style="fill:#de1e34;fill-rule:evenodd"
   id="path17" />
	<path
   d="M 137.27686,24.790039 C 115.83398,24.790039 98.453613,40.734375 98.453613,60.401367 C 98.453613,80.075195 115.83398,96.019531 137.27686,96.019531 C 158.72363,96.019531 176.10791,80.075195 176.10791,60.401367 C 176.10791,40.734375 158.72363,24.790039 137.27686,24.790039 L 137.27686,24.790039 L 137.27686,24.790039 L 137.27686,24.790039 z M 146.93701,77.063477 C 146.93701,82.399414 142.61279,86.723633 137.27686,86.723633 C 131.94824,86.723633 127.62402,82.399414 127.62402,77.063477 L 127.62402,77.063477 L 127.62402,43.742188 L 127.62402,43.742188 C 127.62402,38.410156 131.94824,34.089844 137.27686,34.089844 C 142.61279,34.089844 146.93701,38.410156 146.93701,43.742188 L 146.93701,43.742188 L 146.93701,77.063477 L 146.93701,77.063477 L 146.93701,77.063477 z "
   style="fill:#de1e34;fill-rule:evenodd"
   id="path19" />
	<path
   d="M 345.0791,65.514648 C 345.28418,64.024414 345.38965,61.944336 345.38965,60.401367 C 345.38965,40.734375 328.00586,24.790039 306.56299,24.790039 C 285.11621,24.790039 267.73193,40.734375 267.73193,60.401367 C 267.73193,80.075195 285.11621,96.019531 306.56299,96.019531 C 321.29688,96.019531 334.11328,88.489258 340.69434,77.396484 L 340.69434,77.396484 L 332.11719,74.222656 L 332.11719,74.222656 C 326.93359,82.144531 317.4292,87.449219 306.56299,87.449219 C 301.22705,87.449219 296.90283,82.399414 296.90283,77.063477 L 296.90283,77.063477 L 296.90283,65.517578 L 345.0791,65.514648 L 345.0791,65.514648 L 345.0791,65.514648 z M 296.90283,43.742188 C 296.90283,38.410156 301.22705,34.089844 306.56299,34.089844 C 311.89502,34.089844 316.21924,38.410156 316.21924,43.742188 L 316.21924,43.742188 L 316.21924,56.427734 L 296.90283,56.427734 L 296.90283,43.742188 L 296.90283,43.742188 L 296.90283,43.742188 z "
   style="fill:#de1e34;fill-rule:evenodd"
   id="path21" />
	<path
   d="M 604.48828,65.514648 C 604.69727,64.024414 604.80273,61.944336 604.80273,60.401367 C 604.80273,40.734375 587.41895,24.790039 565.97266,24.790039 C 544.5293,24.790039 527.14551,40.734375 527.14551,60.401367 C 527.14551,80.075195 544.5293,96.019531 565.97266,96.019531 C 580.70996,96.019531 593.52637,88.489258 600.10742,77.396484 L 600.10742,77.396484 L 591.53027,74.222656 L 591.53027,74.222656 C 586.34668,82.144531 576.84277,87.449219 565.97266,87.449219 C 560.63965,87.449219 556.31641,82.399414 556.31641,77.063477 L 556.31641,77.063477 L 556.31641,65.517578 L 604.48828,65.514648 L 604.48828,65.514648 L 604.48828,65.514648 z M 556.31641,43.742188 C 556.31641,38.410156 560.63965,34.089844 565.97266,34.089844 C 571.30859,34.089844 575.63281,38.410156 575.63281,43.742188 L 575.63281,43.742188 L 575.63281,56.427734 L 556.31641,56.427734 L 556.31641,43.742188 L 556.31641,43.742188 L 556.31641,43.742188 z "
   style="fill:#de1e34;fill-rule:evenodd"
   id="path23" />
</g>
</svg>