<svg xmlns="http://www.w3.org/2000/svg" viewBox="1.4 2 109.2 21"><path d="M13.237 2.276v8.295H5.071V2.276H1.4v20.465h3.671v-8.524h8.166v8.524h3.671V2.276zM98.19 5.922h4.087c1.677 0 3.035 1.349 3.035 3.013a3.024 3.024 0 0 1-3.035 3.014H98.19zm-3.669-3.646v20.465h3.67v-9.107l7.641 9.107h4.77l-6.263-7.46c3.144-1 5.088-4.12 4.585-7.359s-3.304-5.634-6.604-5.646h-7.805zm-34.718-.061v12.77l-8.911-12.77H47.96v20.463h3.672V9.85l8.955 12.829h2.882V2.215zm-34.27 10.28c.002-3.785 3.093-6.852 6.904-6.851 3.812.002 6.9 3.071 6.899 6.856s-3.09 6.853-6.902 6.853c-1.831 0-3.586-.722-4.88-2.007s-2.021-3.029-2.021-4.847zm-3.671.004c0 4.248 2.575 8.076 6.526 9.702 3.951 1.625 8.498.728 11.522-2.275s3.929-7.519 2.292-11.443c-1.636-3.924-5.492-6.482-9.768-6.482-5.836.001-10.567 4.698-10.57 10.495zm50.234-.004c.002-3.785 3.093-6.853 6.905-6.851s6.899 3.072 6.897 6.857c-.001 3.785-3.092 6.853-6.904 6.851-1.83 0-3.585-.722-4.88-2.007s-2.021-3.029-2.021-4.847zm-3.674.004c-.001 4.248 2.575 8.076 6.525 9.702 3.951 1.625 8.499.728 11.522-2.275s3.93-7.519 2.292-11.443c-1.636-3.924-5.491-6.482-9.768-6.482-5.836.001-10.568 4.698-10.571 10.495z"/></svg>