<?xml version="1.0" encoding="UTF-8" standalone="no"?>
<!-- Created with Inkscape (http://www.inkscape.org/) -->

<svg
   version="1.0"
   width="400"
   height="300"
   viewBox="0 0 11288.889 8466.6668"
   id="svg2"
   style="fill-rule:evenodd"
   sodipodi:docname="hp.svg"
   inkscape:version="1.2.2 (b0a8486541, 2022-12-01)"
   xmlns:inkscape="http://www.inkscape.org/namespaces/inkscape"
   xmlns:sodipodi="http://sodipodi.sourceforge.net/DTD/sodipodi-0.dtd"
   xmlns="http://www.w3.org/2000/svg"
   xmlns:svg="http://www.w3.org/2000/svg"
   xmlns:rdf="http://www.w3.org/1999/02/22-rdf-syntax-ns#"
   xmlns:cc="http://creativecommons.org/ns#"
   xmlns:dc="http://purl.org/dc/elements/1.1/">
  <metadata
     id="metadata95">
    <rdf:RDF>
      <cc:Work
         rdf:about="">
        <dc:format>image/svg+xml</dc:format>
        <dc:type
           rdf:resource="http://purl.org/dc/dcmitype/StillImage" />
      </cc:Work>
    </rdf:RDF>
  </metadata>
  <sodipodi:namedview
     pagecolor="#ffffff"
     bordercolor="#666666"
     borderopacity="1"
     objecttolerance="10"
     gridtolerance="10"
     guidetolerance="10"
     inkscape:pageopacity="0"
     inkscape:pageshadow="2"
     inkscape:window-width="1866"
     inkscape:window-height="1011"
     id="namedview93"
     showgrid="false"
     fit-margin-top="0"
     fit-margin-left="0"
     fit-margin-right="0"
     fit-margin-bottom="0"
     inkscape:zoom="0.53155981"
     inkscape:cx="20.693814"
     inkscape:cy="138.2723"
     inkscape:window-x="54"
     inkscape:window-y="32"
     inkscape:window-maximized="1"
     inkscape:current-layer="svg2"
     inkscape:showpageshadow="2"
     inkscape:pagecheckerboard="0"
     inkscape:deskcolor="#d1d1d1" />
  <defs
     id="defs887">
    <desc
       id="desc5">Master slide</desc>
    <desc
       id="desc8">Slide</desc>
    <desc
       id="desc12">Group</desc>
    <desc
       id="desc16">Group</desc>
    <desc
       id="desc20">Group</desc>
    <desc
       id="desc24">Drawing</desc>
    <desc
       id="desc36">Drawing</desc>
    <desc
       id="desc48">Drawing</desc>
    <desc
       id="desc60">Drawing</desc>
    <desc
       id="desc72">Drawing</desc>
    <desc
       id="desc84">Drawing</desc>
    <desc
       id="desc96">Drawing</desc>
    <desc
       id="desc108">Drawing</desc>
    <desc
       id="desc120">Drawing</desc>
    <desc
       id="desc132">Drawing</desc>
    <desc
       id="desc144">Drawing</desc>
    <desc
       id="desc156">Drawing</desc>
    <desc
       id="desc168">Drawing</desc>
    <desc
       id="desc180">Drawing</desc>
    <desc
       id="desc192">Drawing</desc>
    <desc
       id="desc204">Drawing</desc>
    <desc
       id="desc216">Drawing</desc>
    <desc
       id="desc228">Drawing</desc>
    <desc
       id="desc240">Drawing</desc>
    <desc
       id="desc252">Drawing</desc>
    <desc
       id="desc264">Drawing</desc>
    <desc
       id="desc276">Drawing</desc>
    <desc
       id="desc288">Drawing</desc>
    <desc
       id="desc300">Drawing</desc>
    <desc
       id="desc312">Drawing</desc>
    <desc
       id="desc324">Drawing</desc>
    <desc
       id="desc336">Drawing</desc>
    <desc
       id="desc348">Drawing</desc>
    <desc
       id="desc360">Drawing</desc>
    <desc
       id="desc372">Drawing</desc>
    <desc
       id="desc384">Drawing</desc>
    <desc
       id="desc396">Drawing</desc>
    <desc
       id="desc408">Drawing</desc>
    <desc
       id="desc420">Drawing</desc>
    <desc
       id="desc432">Drawing</desc>
    <desc
       id="desc444">Drawing</desc>
    <desc
       id="desc456">Drawing</desc>
    <desc
       id="desc468">Drawing</desc>
    <desc
       id="desc480">Drawing</desc>
    <desc
       id="desc492">Drawing</desc>
    <desc
       id="desc504">Drawing</desc>
    <desc
       id="desc516">Drawing</desc>
    <desc
       id="desc528">Drawing</desc>
    <desc
       id="desc540">Drawing</desc>
    <desc
       id="desc552">Drawing</desc>
    <desc
       id="desc564">Drawing</desc>
    <desc
       id="desc576">Drawing</desc>
    <desc
       id="desc588">Drawing</desc>
    <desc
       id="desc600">Drawing</desc>
    <desc
       id="desc612">Drawing</desc>
    <desc
       id="desc624">Drawing</desc>
    <desc
       id="desc636">Drawing</desc>
    <desc
       id="desc648">Drawing</desc>
    <desc
       id="desc660">Drawing</desc>
    <desc
       id="desc672">Drawing</desc>
    <desc
       id="desc684">Drawing</desc>
    <desc
       id="desc696">Drawing</desc>
    <desc
       id="desc708">Drawing</desc>
    <desc
       id="desc720">Drawing</desc>
    <desc
       id="desc732">Drawing</desc>
    <desc
       id="desc744">Drawing</desc>
    <desc
       id="desc756">Drawing</desc>
    <desc
       id="desc768">Drawing</desc>
    <desc
       id="desc780">Drawing</desc>
    <desc
       id="desc792">Drawing</desc>
    <desc
       id="desc804">Drawing</desc>
    <desc
       id="desc816">Drawing</desc>
    <desc
       id="desc828">Drawing</desc>
    <desc
       id="desc840">Drawing</desc>
    <desc
       id="desc852">Drawing</desc>
    <desc
       id="desc864">Drawing</desc>
    <desc
       id="desc876">Drawing</desc>
    <filter
       id="filter6108"
       x="-0.024866705"
       y="-0.039962148"
       width="1.0497334"
       height="1.0799243">
      <feGaussianBlur
         id="feGaussianBlur6110"
         stdDeviation="148.21736"
         inkscape:collect="always" />
    </filter>
  </defs>
  <path
     d="m 2354.7917,890.14655 -94.3681,4.40972 -90.8403,14.11112 -88.1944,24.69444 -84.6667,31.75 -81.1389,40.56947 -75.8472,47.625 -71.4375,54.6805 -66.1458,61.7361 -59.9722,67.9098 -52.9167,73.2013 -46.7431,79.375 -38.8055,82.9028 -30.8681,88.1945 -22.9305,90.8403 -14.1111,95.25 -5.2917,96.1319 v 6975.2986 l 5.2917,98.7778 14.1111,97.0139 22.9305,93.4861 30.8681,89.0764 38.8055,84.6666 46.7431,80.257 52.9167,74.9653 59.9722,69.6736 66.1458,62.618 71.4375,55.5625 75.8472,49.3889 81.1389,40.5695 84.6667,33.5138 88.1944,23.8125 90.8403,14.9931 94.3681,4.4097 h 4579.0558 l 278.694,-724.0764 -301.625,-84.6666 -291.0415,-111.125 -279.5764,-136.7014 -264.5834,-160.5139 -251.3541,-183.4444 -234.5972,-205.4931 -217.8403,-224.8958 -200.2014,-243.4167 -180.7986,-261.0556 -160.5139,-278.6944 -138.4653,-292.8055 -117.2986,-306.0348 -91.7222,-318.3819 -68.7917,-331.6111 -40.5694,-339.5486 -14.1111,-348.3681 12.3472,-324.5555 37.0417,-317.5 59.0902,-308.6806 80.257,-299.8611 102.3055,-290.1597 122.5903,-277.8125 141.1111,-265.4653 160.5139,-251.3541 175.507,-238.125 193.1458,-221.3681 208.1389,-204.6111 222.25,-186.9722 234.5972,-167.5695 247.8264,-148.1666 259.2916,-127.0001 268.9931,-103.1875 238.1252,-618.24305 z m 5266.0898,0 -2186.3399,6132.15975 h 951.6181 l 1045.1038,-2921 h 486.834 l -1033.6392,2921 h 942.7982 l 944.563,-2664.3542 23.812,-75.8472 15.875,-74.0833 7.938,-73.2014 v -69.6736 l -7.056,-67.0278 -14.993,-64.3819 -22.93,-59.9723 -29.986,-55.5625 -37.042,-51.1527 -44.097,-45.8611 -51.153,-40.5695 -59.09,-32.6319 -64.382,-28.2223 -71.438,-18.5208 -77.611,-13.2292 -85.548,-4.4097 h -644.702 l 962.202,-2693.45835 z m 1479.021,0 -199.319,618.24305 27.34,-4.4097 26.458,-1.7639 56.445,-4.4097 107.597,-0.882 370.417,20.2847 358.069,57.3265 346.6035,94.368 330.729,127.882 316.62,161.3958 296.333,190.5 278.694,220.4861 255.764,246.9445 232.834,270.7569 207.256,295.4514 179.917,314.8542 151.695,333.375 120.826,352.7777 89.076,366.007 54.681,381 18.521,390.7014 -18.521,389.8194 -54.681,379.2361 -89.076,366.007 -120.826,351.0138 -151.695,335.1389 -179.917,314.8542 -207.256,294.5694 -232.834,272.5209 -255.764,246.9444 -278.694,220.4861 -296.333,192.2639 -316.62,161.3958 -330.729,128.7639 -346.6035,95.25 -358.069,57.3264 -370.417,20.2847 -217.84,644.7014 h 5909.9095 l 94.369,-4.4097 91.722,-14.9931 88.194,-23.8125 84.667,-33.5138 81.139,-40.5695 75.847,-49.3889 72.319,-55.5625 64.382,-62.618 59.973,-69.6736 54.68,-74.9653 45.861,-80.257 38.806,-84.6666 30.868,-89.0764 22.93,-93.4861 14.112,-97.0139 5.291,-98.7778 V 1843.5285 l -5.291,-96.1319 -14.112,-95.25 -22.93,-90.8403 -30.868,-88.1945 -38.806,-82.9028 -45.861,-79.375 -54.68,-73.2013 -59.973,-67.9098 -64.382,-61.7361 -72.319,-54.6805 -75.847,-47.625 -81.139,-40.56947 -84.667,-31.75 -88.194,-24.69444 -91.722,-14.11112 -94.369,-4.40972 z m 524.757,2682.87505 -2211.916,6218.5902 h 951.618 l 942.798,-2652.8888 h 966.6105 l 79.375,-3.5278 42.334,-4.4097 42.333,-7.9375 41.451,-9.7014 42.334,-12.3473 40.569,-15.875 41.451,-20.2847 38.806,-22.9305 37.924,-27.3403 36.159,-31.75 34.397,-35.2778 30.868,-41.4514 29.104,-45.8611 25.577,-52.0347 22.048,-57.3264 872.243,-2461.5069 26.459,-89.9584 14.993,-82.9027 2.646,-78.4931 -7.938,-70.5555 -18.521,-64.382 -26.458,-59.0903 -35.278,-52.9166 -41.451,-45.8611 -47.625,-41.4514 -52.035,-34.3959 -56.444,-29.9861 -58.209,-23.8125 -61.736,-19.4028 -60.854,-13.2291 -61.736,-7.0556 -59.972,-2.6458 z m 765.5275,516.8194 h 487.716 l -902.2295,2543.5278 h -486.833 z"
     id="path5324"
     style="visibility:visible;fill:#9c9c9c;fill-opacity:1;filter:url(#filter6108)"
     inkscape:connector-curvature="0"
     transform="matrix(0.61823488,0,0,0.61823488,338.083,931.41545)" />
  <path
     d="m 1793.8975,1481.7352 -58.3416,2.7262 -56.1607,8.724 -54.5248,15.267 -52.3439,19.6289 -50.1629,25.0815 -46.8914,29.4434 -44.1652,33.8055 -40.8936,38.1674 -37.0769,41.9841 -32.715,45.2557 -28.8982,49.0724 -23.9909,51.2534 -19.0837,54.5249 -14.1765,56.1606 -8.724,58.8869 -3.2715,59.4321 v 4312.3729 l 3.2715,61.0679 8.724,59.9773 14.1765,57.7964 19.0837,55.0701 23.9909,52.3439 28.8982,49.6177 32.715,46.3461 37.0769,43.0747 40.8936,38.7126 44.1652,34.3507 46.8914,30.5339 50.1629,25.0815 52.3439,20.7194 54.5248,14.7217 56.1607,9.2693 58.3416,2.7262 h 2830.9318 l 172.2986,-447.6493 -186.4751,-52.3438 -179.932,-68.7014 -172.8439,-84.5135 -163.5747,-99.2353 -155.3959,-113.4118 -145.0361,-127.043 -134.6765,-139.0384 -123.7715,-150.4887 -111.776,-161.3937 -99.2353,-172.2986 -85.6041,-181.0225 -72.5181,-189.2014 -56.7058,-196.8348 -42.5294,-205.0136 -25.0815,-209.9208 -8.7239,-215.3733 7.6334,-200.6515 22.9005,-196.2896 36.5316,-190.8371 49.6177,-185.3846 63.2488,-179.3868 75.7896,-171.7534 87.2398,-164.1199 99.2353,-155.396 108.5045,-147.2171 119.4095,-136.8575 128.6788,-126.4977 137.4027,-115.5927 145.0361,-103.5973 153.215,-91.6018 160.3031,-78.5158 166.3009,-63.7942 147.2172,-382.2194 z m 3255.6807,0 -1351.6719,3791.1151 h 588.3235 l 646.1198,-1805.8641 h 300.9774 l -639.0316,1805.8641 h 582.871 l 583.9615,-1647.1968 14.7217,-46.8913 9.8145,-45.8009 4.9072,-45.2557 v -43.0746 l -4.362,-41.4389 -9.2692,-39.8032 -14.1765,-37.077 -18.5385,-34.3506 -22.9004,-31.6244 -27.2625,-28.3529 -31.6244,-25.0815 -36.5316,-20.1742 -39.8032,-17.448 -44.1652,-11.4502 -47.9819,-8.1788 -52.8891,-2.7262 h -398.5769 l 594.8665,-1665.1899 z m 914.3822,0 -123.2262,382.2194 16.9027,-2.7263 16.3575,-1.0905 34.8959,-2.7262 66.5203,-0.5452 229.0045,12.5407 221.3711,35.4412 214.2827,58.3416 204.4682,79.0611 195.7443,99.7805 183.204,117.7738 172.2983,136.3122 158.1223,152.6697 143.9454,167.3913 128.1336,182.6584 111.2309,194.6539 93.7825,206.104 74.6995,218.0995 55.0699,226.2783 33.8057,235.5475 11.4503,241.5452 -11.4503,241 -33.8057,234.4569 -55.0699,226.2783 -74.6995,217.009 -93.7825,207.1946 -111.2309,194.6538 -128.1336,182.1131 -143.9454,168.4819 -158.1223,152.6697 -172.2983,136.3122 -183.204,118.8642 -195.7443,99.7805 -204.4682,79.6064 -214.2827,58.8868 -221.3711,35.4412 -229.0045,12.5407 -134.6764,398.5769 h 3653.7121 l 58.3416,-2.7262 56.7064,-9.2693 54.5246,-14.7217 52.3441,-20.7194 50.163,-25.0815 46.8912,-30.5339 44.7101,-34.3507 39.8032,-38.7126 37.0768,-43.0747 33.8057,-46.3461 28.3529,-49.6177 23.9911,-52.3439 19.084,-55.0701 14.176,-57.7964 8.724,-59.9773 3.271,-61.0679 V 2071.1492 l -3.271,-59.4321 -8.724,-58.8869 -14.176,-56.1606 -19.084,-54.5249 -23.9911,-51.2534 -28.3529,-49.0724 -33.8057,-45.2557 -37.0768,-41.9841 -39.8032,-38.1674 -44.7101,-33.8055 -46.8912,-29.4434 -50.163,-25.0815 -52.3441,-19.6289 -54.5246,-15.267 -56.7064,-8.724 -58.3416,-2.7262 z m 324.4231,1658.6469 -1367.4841,3844.5494 h 588.3235 l 582.871,-1640.1084 h 597.5927 l 49.0723,-2.181 26.1718,-2.7263 26.1723,-4.9072 25.6265,-5.9977 26.1717,-7.6335 25.0818,-9.8145 25.6265,-12.5407 23.9912,-14.1765 23.4453,-16.9027 22.3554,-19.6289 21.2648,-21.81 19.0837,-25.6267 17.9931,-28.3529 15.8126,-32.1697 13.6308,-35.4412 539.2511,-1521.7894 16.3578,-55.6154 9.2692,-51.2534 1.6347,-48.5272 -4.907,-43.6198 -11.4503,-39.8032 -16.3579,-36.5317 -21.8095,-32.7149 -25.627,-28.3529 -29.4435,-25.6267 -32.1692,-21.2648 -34.8963,-18.5384 -35.9862,-14.7217 -38.1673,-11.9955 -37.6215,-8.1787 -38.1673,-4.362 -37.0768,-1.6358 z m 473.2761,319.5158 h 301.5224 l -557.7895,1572.4976 h -300.9774 z"
     id="path762"
     style="visibility:visible;fill:#5580bf;stroke-width:17.4479"
     inkscape:connector-curvature="0" />
</svg>
