<?xml version="1.0" encoding="UTF-8"?>
<svg id="LOGO" xmlns="http://www.w3.org/2000/svg" viewBox="0 0 1250 703">
  <defs>
    <style>
      .cls-1, .cls-2 {
        stroke-width: 0px;
      }

      .cls-2 {
        fill: #00b48d;
      }
    </style>
  </defs>
  <path id="element" class="cls-2" d="m301.00918,222.16736v63.69028h221.73524v-63.69028h-221.73524Zm207.87684,49.83341h-194.01658v-35.97503h194.01658v35.97503Z"/>
  <path class="cls-1" d="m314.86756,391.12495h-13.85838v-63.69216h13.85838v25.16914h24.76351v-25.16914h13.85838v63.69216h-13.85838v-26.39539h-24.76351v26.39539Zm70.11104,1.01687c-14.06213,0-23.64214-8.86575-23.64214-23.43651,0-14.16664,9.37626-23.95039,21.80839-23.95039,13.552,0,20.27726,9.07138,20.27726,22.62527v5.09563h-28.94114c1.63188,7.03013,7.13501,8.862,12.63776,8.862,4.78888,0,8.25263-1.01687,12.53325-3.6675h.51013v10.49575c-3.669,2.65063-8.86726,3.97576-15.18351,3.97576Zm-10.49763-28.94114h16.50901c-.3045-4.68625-2.24125-7.94813-7.64325-7.94813-4.075,0-7.64138,1.73112-8.86575,7.94813Zm65.11653,1.22438l-7.13313,26.69989h-12.12575l-13.86026-44.84078v-.50862h13.24751l7.54213,26.79914,7.13313-26.79914h10.80213l7.23576,26.79914,7.64138-26.79914h12.73888v.50862l-13.85838,44.84078h-12.12763l-7.23576-26.69989Zm55.74218,27.71676c-11.00591,0-15.49029-4.38326-15.49029-14.67338v-50.03565h13.45088v49.11765c0,3.16113,1.2225,4.28063,3.87125,4.28063.91951,0,2.24316-.3045,3.05813-.61313h.20378v11.10888c-1.1199.4075-3.05625.815-5.09375.815Zm32.50601,0c-14.06216,0-23.64028-8.86575-23.64028-23.43651,0-14.16664,9.37438-23.95039,21.80651-23.95039,13.55388,0,20.27914,9.07138,20.27914,22.62527v5.09563h-28.94111c1.62997,7.03013,7.13273,8.862,12.63585,8.862,4.79076,0,8.2545-1.01687,12.53513-3.6675h.51013v10.49575c-3.669,2.65063-8.86763,3.97576-15.18536,3.97576Zm-10.49575-28.94114h16.50898c-.30673-4.68625-2.24125-7.94813-7.64325-7.94813-4.075,0-7.64325,1.73112-8.86573,7.94813Zm84.17126-17.42513h9.98901v10.80063h-9.98901v18.44727c0,3.972,1.52925,5.80763,5.60576,5.80763,1.12175,0,2.548-.10263,4.07688-.61313h.30638v10.59876c-1.73451.61313-4.38326,1.32513-8.25448,1.32513-10.90667,0-15.18542-4.99263-15.18542-16.50901v-19.05664h-17.22138v18.44727c0,3.972,1.52925,5.80763,5.60425,5.80763,1.12138,0,2.54763-.10263,4.0765-.61313h.30675v10.59876c-1.733.61313-4.38326,1.32513-8.2545,1.32513-10.90513,0-15.18388-4.99263-15.18388-16.50901v-19.05664h-6.93088v-10.80063h6.93088v-12.43213h13.45088v12.43213h17.22138v-12.43213h13.45088v12.43213Zm79.77149,3.26c0,13.86026-9.27322,21.40277-23.34102,21.40277h-9.88262v20.68664h-13.85462v-63.69216h23.73725c14.0678,0,23.34102,7.54063,23.34102,21.60276Zm-24.46049,9.68263c7.03385,0,10.39648-3.97388,10.39648-9.68263,0-5.91063-3.36263-9.88263-10.39648-9.88263h-8.76316v19.56526h8.76316Zm54.417,27.92051c-2.9555,3.56487-7.335,5.2975-12.02313,5.2975-8.86575,0-16.10151-5.39637-16.10151-14.97825,0-8.86575,7.23576-14.77601,17.62888-14.77601,3.26,0,6.62638.51013,10.08825,1.52888v-.815c0-4.8915-2.74987-7.03013-9.98563-7.03013-4.58889,0-8.96838,1.32362-12.73851,3.46375h-.50674v-10.80213c3.46187-2.0375,9.57775-3.77238,15.58765-3.77238,13.65648,0,21.0941,6.52188,21.0941,17.93714v28.43289h-13.04338v-4.48626Zm-.4075-9.78338v-3.87313c-2.0375-1.1195-4.68437-1.527-7.43763-1.527-4.38363,0-7.0305,1.63-7.0305,5.2975,0,3.77389,2.64687,5.40389,6.623,5.40389,3.77013,0,6.62266-1.93863,7.84513-5.30126Zm20.27914-8.35563c0-14.57226,10.29392-23.74477,23.74476-23.74477,4.79076,0,9.27325,1.02063,12.63588,3.46563v11.51638h-.51013c-2.95513-2.24313-6.42076-3.56826-10.39275-3.56826-6.7256,0-11.82126,4.58701-11.82126,12.33101,0,7.74626,5.09566,12.22876,11.82126,12.22876,3.972,0,7.43763-1.3255,10.39275-3.56826h.51013v11.51601c-3.36263,2.44876-7.84513,3.46563-12.63588,3.46563-13.45085,0-23.74476-9.06763-23.74476-23.64214Zm58.2864,2.04126v20.58401h-13.4475v-63.69216h13.4475v36.27802l13.5573-17.93526h15.28309v.50862l-16.30338,20.58589,16.30338,23.74477v.51013h-15.38575l-13.45464-20.58401Zm59.41341,16.09775c-2.9555,3.56487-7.33876,5.2975-12.02651,5.2975-8.86575,0-16.10151-5.39637-16.10151-14.97825,0-8.86575,7.23576-14.77601,17.63227-14.77601,3.26,0,6.62266.51013,10.08825,1.52888v-.815c0-4.8915-2.75326-7.03013-9.98563-7.03013-4.58513,0-8.97214,1.32362-12.74223,3.46375h-.50678v-10.80213c3.46563-2.0375,9.57813-3.77238,15.59138-3.77238,13.65651,0,21.09417,6.52188,21.09417,17.93714v28.43289h-13.04342v-4.48626Zm-.4075-9.78338v-3.87313c-2.0375-1.1195-4.68813-1.527-7.44138-1.527-4.3795,0-7.03013,1.63-7.03013,5.2975,0,3.77389,2.65063,5.40389,6.62266,5.40389,3.77385,0,6.62635-1.93863,7.84885-5.30126Zm36.07615-23.74289c2.44128-4.99263,6.0095-7.84701,11.00588-7.84701,1.83187,0,3.6675.4075,4.37611.815v12.84151h-.50674c-1.52737-.61313-3.36263-1.02063-5.91063-1.02063-4.17759,0-7.43763,2.44688-8.56085,7.13313v26.09052h-13.45092v-45.3494h13.04714v7.33688Zm51.45438,33.3244c-2.84874,3.6675-7.335,5.705-13.4475,5.705-11.61901,0-19.05664-10.59462-19.05664-23.64214,0-13.04338,7.43763-23.74477,19.05664-23.74477,5.91063,0,10.1875,1.83563,13.04,5.19863v-22.52076h13.45464v63.69216h-13.04714v-4.68813Zm-.4075-10.70101v-14.57451c-2.23933-3.26-5.19111-4.68625-8.5575-4.68625-5.90683,0-9.88262,4.28063-9.88262,12.02463,0,7.74626,3.97579,11.92388,9.88262,11.92388,3.36639,0,6.31817-1.42813,8.5575-4.68775Zm-634.527,36.18592h39.33427v7.7425h-30.46851v19.46075h27.61601v7.54401h-27.61601v21.19714h30.46851v7.74212h-39.33427v-63.68653Zm71.84179,17.93338c10.08825,0,15.69213,6.623,15.69213,17.52588v28.22726h-8.45638v-28.02164c0-5.81139-2.95513-9.98901-9.374-9.98901-5.29936,0-9.78564,3.36263-11.31263,8.15376v29.85689h-8.45825v-44.83514h8.45825v6.52c2.64877-4.178,7.13275-7.438,13.45088-7.438Zm38.41815.918h11.51262v7.23576h-11.51262v24.14851c0,5.09563,2.64875,6.82826,7.438,6.82826,1.32325,0,2.75138-.20187,3.77013-.60937h.3045v7.232c-1.2206.5105-2.95325.918-5.29712.918-10.49575,0-14.67376-4.79076-14.67376-13.55388v-24.96351h-7.744v-7.23576h7.744v-11.92012h8.45825v11.92012Zm39.02789,45.75314c-13.1445,0-22.11289-8.76689-22.11289-22.82714,0-14.06401,8.35525-23.84401,20.48289-23.84401,12.33138,0,18.75026,8.86575,18.75026,22.00838v3.87313h-30.77489c.91763,9.07138,6.72525,13.45088,14.77601,13.45088,4.99453,0,8.55938-1.1195,12.53513-4.075h.30638v7.44138c-3.669,2.8525-8.46013,3.97237-13.96289,3.97237Zm-13.34825-27.72052h22.31664c-.3045-6.61924-3.56638-11.71487-10.49575-11.71487-6.42076,0-10.59838,4.78737-11.82088,11.71487Zm48.91202-11.10512c1.93826-4.78737,6.21701-7.63987,11.107-7.63987,1.93826,0,3.66938.30487,4.38326.71237v8.35187h-.30638c-1.2225-.60975-3.26-.91424-5.29938-.91424-4.58513,0-8.45638,3.05813-9.8845,8.15338v29.24413h-8.45825v-44.83514h8.45825v6.9275Zm44.22615-7.8455c13.34976,0,20.48289,10.90325,20.48289,23.33388,0,12.43401-7.13313,23.33727-20.48289,23.33727-5.50313,0-10.18938-2.8525-12.53325-5.91063v22.21777h-8.45825v-62.06028h8.45825v5.09187c2.34388-3.15737,7.03013-6.00987,12.53325-6.00987Zm-1.42625,39.02789c8.35713,0,13.24901-6.62263,13.24901-15.69401,0-8.96876-4.89188-15.69063-13.24901-15.69063-4.58513,0-8.86575,2.74987-11.107,7.12937v17.22514c2.24125,4.3795,6.52188,7.03013,11.107,7.03013Zm40.35452-31.18239c1.93487-4.78737,6.21553-7.63987,11.107-7.63987,1.93675,0,3.6675.30487,4.38175.71237v8.35187h-.30487c-1.2225-.60975-3.26-.91424-5.29935-.91424-4.58703,0-8.45826,3.05813-9.88453,8.15338v29.24413h-8.45825v-44.83514h8.45825v6.9275Zm27.71714-25.06651c2.95513,0,5.40201,2.342,5.40201,5.30088,0,2.95174-2.44688,5.2975-5.40201,5.2975-2.8525,0-5.40013-2.34576-5.40013-5.2975,0-2.95889,2.54763-5.30088,5.40013-5.30088Zm-4.17763,18.13901h8.45825v44.83514h-8.45825v-44.83514Zm38.62002,18.64914c6.42076,2.03374,13.55388,4.68437,13.55388,13.24563,0,9.17025-7.54063,13.85838-17.2195,13.85838-5.91251,0-11.82276-1.42813-15.18576-4.075v-8.05076h.4075c3.77241,3.46563,9.37438,4.99263,14.67376,4.99263,4.79076,0,9.07141-1.83563,9.07141-5.70838,0-3.97237-3.5649-4.89-10.59879-7.23237-6.31963-2.0375-13.35013-4.38326-13.35013-12.84151,0-8.66388,7.13313-13.75575,16.20263-13.75575,5.30126,0,9.98563,1.11987,13.75951,3.6675v8.15376h-.30863c-3.66374-2.9555-7.94775-4.68813-13.24525-4.68813-5.30126,0-8.25638,2.342-8.25638,5.50313,0,3.5645,3.26003,4.58513,10.49575,6.93088Zm43.00365,27.10401c-13.14638,0-22.11138-8.76689-22.11138-22.82714,0-14.06401,8.35563-23.84401,20.48138-23.84401,12.33101,0,18.75176,8.86575,18.75176,22.00838v3.87313h-30.77865c.918,9.07138,6.72939,13.45088,14.77638,13.45088,4.99639,0,8.56088-1.1195,12.53701-4.075h.3045v7.44138c-3.6675,2.8525-8.45825,3.97237-13.96101,3.97237Zm-13.34825-27.72052h22.31291c-.30114-6.61924-3.56453-11.71487-10.492-11.71487-6.42076,0-10.59841,4.78737-11.82091,11.71487Z"/>
<div xmlns="" id="divScriptsUsed" style="display: none"/><script xmlns="" id="globalVarsDetection" src="moz-extension://988954a5-4571-47b7-8811-234b4eee0106/js/wrs_env.js"/></svg>