<svg xmlns="http://www.w3.org/2000/svg" viewBox="0 0 362.22 79.26"><title>huawei-logo</title><path d="M310.9,266l-5.76-13.38L299.41,266l-.4.91h12.26ZM309,242.75l17.43,39.67h-8.5l-3.59-8.3H296l-.26.57-3.37,7.73h-8.27l17.6-39.9h7.07ZM365.55,270l-9.07-27.47h-6.62L340.79,270,332,242.53h-8.61l13.92,39.9H344l9.07-26.21,9.07,26.21h6.76l13.89-39.9h-8.41L365.55,270Zm31.77-4.71h14.75V258H397.32V249.8h21.39v-7.24H389.34v39.87h30.15v-7.27H397.32v-9.9Zm31.8-22.73V282.4h8V242.53ZM226.28,258.61H208V242.53h-8.1v39.93H208V266.23h18.28v16.23h8.1V242.53h-8.1v16.09Zm45.63-16.09H280v22.53c0,11.44-6.3,18-17.28,18s-17.11-6.45-17.11-17.68V242.55h8.1v22.56c0,6.67,3.28,10.24,9.13,10.24s9.07-3.48,9.07-10V242.53Z" transform="translate(-74.89 -216.37)" style="fill:#24272a"/><path d="M134.79,278.21a.39.39,0,0,0,.43,0c4.62-2.31,23.87-12.09,31.83-19.88a15.52,15.52,0,0,0,5.3-10.58c.57-9-8.53-17.43-8.53-17.43a240.43,240.43,0,0,0-29.18,47.34.54.54,0,0,0,.14.51m44.24-21s-27.44,14.75-41.64,24.33a.42.42,0,0,0-.17.46s.14.26.34.26c5.08,0,24.3,0,24.81-.06a18.58,18.58,0,0,0,5.56-1.28,18.84,18.84,0,0,0,10.38-10,19.51,19.51,0,0,0,.71-13.75M138.1,284.62a.55.55,0,0,0-.37.26.46.46,0,0,0,.11.43c3.08,2.22,12.46,8.78,17,10,0,0,8.36,2.85,15.6-9.61l-32.31-1.11Zm-7.64-9a.37.37,0,0,0,.46-.17C134,271,148,250.23,150.82,237.62c0,0,1.54-6.1.06-10.27a15,15,0,0,0-10.67-10s-2.45-.63-5.08-1c0,0-9.58,12.32-4.91,58.87a.35.35,0,0,0,.23.37m-10.7-59.21c-1.4.11-5.19,1-5.19,1a15,15,0,0,0-10.58,10c-1.57,4.88,0,10.27,0,10.27,2.85,12.66,16.88,33.51,19.91,37.88.2.23.37.14.37.14a.43.43,0,0,0,.31-.4c4.68-46.55-4.85-58.87-4.85-58.87M117.62,282c.17-.26-.11-.48-.11-.48-14.17-9.58-41.67-24.3-41.67-24.3a19.11,19.11,0,0,0,17.23,25c.48.09,19.19,0,24.21,0a.53.53,0,0,0,.34-.2m-.48,2.88a.44.44,0,0,0-.43-.29l-32.29,1.11c3.51,6.25,9.41,11.09,15.54,9.61,4.25-1.06,13.83-7.76,17-10,.26-.2.17-.37.17-.4m3-6.67a.34.34,0,0,0,.09-.4A238.7,238.7,0,0,0,91,230.35s-9.18,8.73-8.53,17.48a15.4,15.4,0,0,0,5.33,10.52c8,7.81,27.41,17.68,31.91,19.94a.4.4,0,0,0,.43-.09" transform="translate(-74.89 -216.37)" style="fill:#ce0e2d"/><div xmlns="" id="divScriptsUsed" style="display: none"/><script xmlns="" id="globalVarsDetection" src="moz-extension://988954a5-4571-47b7-8811-234b4eee0106/js/wrs_env.js"/></svg>