<?xml version="1.0" encoding="UTF-8"?>
<svg version="1.1" xmlns="http://www.w3.org/2000/svg" width="3840" height="2160">
<path d="M0 0 C648.78 0 1297.56 0 1966 0 C1966 681.12 1966 1362.24 1966 2064 C1318.87 2064 671.74 2064 5 2064 C5 2026.38 5 1988.76 5 1950 C614.51 1950 1224.02 1950 1852 1950 C1852 1344.12 1852 738.24 1852 114 C1313.32043407 114.03957869 1313.32043407 114.03957869 774.64086914 114.09008789 C670.36999512 114.09460449 670.36999512 114.09460449 621.53025818 114.09544373 C586.35822863 114.09640455 551.18620108 114.10036123 516.01417207 114.10612545 C478.85370204 114.11219756 441.69323316 114.11495187 404.53276262 114.11356223 C399.31607026 114.11336807 394.0993779 114.11320947 388.88268554 114.11307228 C387.86055949 114.1130441 386.83843344 114.11301592 385.78533387 114.11298688 C369.93969367 114.11263981 354.09405603 114.11555344 338.24841653 114.12001978 C322.70151715 114.12433146 307.154621 114.12489741 291.6077213 114.12183534 C282.67670878 114.12017853 273.74570391 114.1198329 264.81469301 114.12633929 C214.53252 114.15840204 164.28518028 113.56500203 114 113 C114.33 350.27 114.66 587.54 115 832 C77.05 832 39.1 832 0 832 C0 557.44 0 282.88 0 0 Z " fill="#1BA258" transform="translate(943,48)"/>
<path d="M0 0 C1.15483887 0.1880722 1.15483887 0.1880722 2.33300781 0.37994385 C16.37091424 2.69705954 16.37091424 2.69705954 22.35644531 5.23193359 C27.21472349 7.08052372 32.3971514 8.07336774 37.4375 9.3125 C46.6914807 11.66041487 55.40613685 14.19348062 64.14697266 18.05126953 C66.93396011 19.23801435 69.75174423 20.33393381 72.57421875 21.43359375 C86.11106975 26.74427099 98.91116226 32.58669754 111.47094727 39.91772461 C113.08963179 40.83779494 114.75228265 41.67981259 116.421875 42.50390625 C120.20616847 44.42108138 123.73649913 46.66063284 127.3125 48.9375 C131.22875244 51.42288571 135.13035083 53.88556515 139.19140625 56.12890625 C141.81315077 57.66978432 143.34174235 58.85792011 145.375 61 C147.08619687 62.15214914 148.81843766 63.27323372 150.5625 64.375 C160.92723849 71.18827281 170.4626121 79.26937313 179.7109375 87.51953125 C181.47045045 89.08491953 183.26341331 90.60534593 185.0625 92.125 C187.97937738 94.62237142 190.69009189 97.25116551 193.375 100 C194.873627 101.50137174 196.37376187 103.00123916 197.875 104.5 C199.375 106 200.875 107.5 202.375 109 C203.18453125 109.80179688 203.9940625 110.60359375 204.828125 111.4296875 C218.40578963 125.13229997 230.97773718 140.23809553 241.6171875 156.34765625 C243.28800281 158.98452983 243.28800281 158.98452983 245.1875 161.125 C246.375 163 246.375 163 246.18603516 164.94189453 C245.14135025 167.59291613 243.98227554 168.29539474 241.5859375 169.8046875 C240.80863281 170.30613281 240.03132813 170.80757812 239.23046875 171.32421875 C238.41191406 171.83597656 237.59335938 172.34773438 236.75 172.875 C231.54809694 176.17150583 226.70200174 179.48081451 222.09521484 183.57128906 C219.11851291 186.04356549 215.81601975 187.95874595 212.5 189.9375 C207.24162432 193.14350406 202.30069145 196.46141306 197.515625 200.3515625 C194.17069128 202.92740562 190.57693361 205.08645189 186.99609375 207.31640625 C184.03142967 209.22068377 181.27020711 211.30824905 178.484375 213.4609375 C175.08390236 215.94202309 171.4848332 218.10173008 167.890625 220.2890625 C165.36349976 221.88178982 165.36349976 221.88178982 163.546875 223.8984375 C159.92705832 227.40106587 155.52447258 229.71498922 151.21875 232.2890625 C147.44896154 234.5818816 144.47474728 236.8380088 141.375 240 C139.06561723 241.68812024 136.66640575 243.22044007 134.25 244.75 C133.61707031 245.16121094 132.98414063 245.57242187 132.33203125 245.99609375 C127.63156665 249 127.63156665 249 125.375 249 C125.045 249.99 124.715 250.98 124.375 252 C122.08203125 253.68359375 122.08203125 253.68359375 119.1875 255.4375 C118.18589844 256.05496094 117.18429687 256.67242188 116.15234375 257.30859375 C114.77755859 258.14583984 114.77755859 258.14583984 113.375 259 C110.51047358 260.83329691 107.77876649 262.66660831 105.15625 264.83203125 C103.96515625 265.81236328 103.96515625 265.81236328 102.75 266.8125 C101.64785156 267.75029297 101.64785156 267.75029297 100.5234375 268.70703125 C98.375 270 98.375 270 96.2109375 269.8515625 C93.46596294 268.57836154 92.67147729 266.65777844 91.375 264 C91.375 263.34 91.375 262.68 91.375 262 C90.715 262 90.055 262 89.375 262 C88.1574707 260.55053711 88.1574707 260.55053711 86.80078125 258.52734375 C86.29740234 257.79193359 85.79402344 257.05652344 85.27539062 256.29882812 C84.23554038 254.75248256 83.19644868 253.20562657 82.15820312 251.65820312 C79.0941271 247.18410982 75.91061167 243.2861446 71.96508789 239.55883789 C70.33600048 237.96176693 68.92038859 236.28334767 67.5 234.5 C64.59839572 231.03052142 61.26265159 228.43482558 57.62109375 225.7734375 C55.375 224 55.375 224 52.97265625 221.54296875 C50.27574379 218.9028334 47.54729335 216.97278515 44.375 214.9375 C38.72908456 211.30078151 38.72908456 211.30078151 36.1953125 209.1484375 C22.82496592 198.96327044 6.32335014 192.02343295 -9.625 187 C-10.36862793 186.76345703 -11.11225586 186.52691406 -11.87841797 186.28320312 C-16.76586074 184.74663283 -21.67975666 183.33755355 -26.625 182 C-27.69621094 181.70222656 -28.76742188 181.40445312 -29.87109375 181.09765625 C-59.72809293 173.45274309 -96.12806249 174.30766702 -125.30688477 184.22143555 C-127.48900893 184.95432591 -129.67924713 185.64608616 -131.87890625 186.32421875 C-141.72955827 189.41195616 -150.81361232 193.2069321 -159.90722656 198.08886719 C-161.38813269 198.87436202 -162.89151878 199.61720493 -164.3984375 200.3515625 C-170.89249047 203.60857984 -176.65588095 207.77861559 -182.5 212.0625 C-183.32153564 212.66465332 -184.14307129 213.26680664 -184.98950195 213.88720703 C-189.18758518 217.01755721 -193.00660315 220.1945559 -196.625 224 C-198.00624543 225.28667367 -199.40087102 226.55923559 -200.8125 227.8125 C-201.82376953 228.71935547 -201.82376953 228.71935547 -202.85546875 229.64453125 C-204.625 231 -204.625 231 -206.625 231 C-206.686875 231.556875 -206.74875 232.11375 -206.8125 232.6875 C-207.9730769 235.99068042 -210.02713446 237.71894733 -212.625 240 C-213.285 240 -213.945 240 -214.625 240 C-214.84800781 240.53496094 -215.07101562 241.06992188 -215.30078125 241.62109375 C-217.06651488 244.79316389 -219.42157058 247.35681633 -221.8125 250.0625 C-226.0474725 254.9557548 -229.72672329 259.92438065 -233.0859375 265.47265625 C-234.49475526 267.78612095 -235.99960912 269.97688697 -237.5625 272.1875 C-252.03204161 293.79534881 -259.10278152 318.66978299 -263.22363281 344.02319336 C-263.625 346 -263.625 346 -264.625 348 C-265.61965211 353.91323846 -265.77388558 359.8577376 -265.7578125 365.83984375 C-265.75876923 366.64684219 -265.75972595 367.45384064 -265.76071167 368.28529358 C-265.76138694 369.9785266 -265.75957868 371.67176231 -265.75537109 373.36499023 C-265.7500206 375.92763201 -265.75533487 378.49009799 -265.76171875 381.05273438 C-265.80557853 396.13226818 -265.80557853 396.13226818 -263.17382812 410.92675781 C-262.55653275 413.25864051 -262.04769525 415.60133814 -261.546875 417.9609375 C-259.38352231 428.00329279 -256.95769095 437.76849105 -253.50488281 447.45263672 C-252.44236651 450.44122561 -251.625 452.80019248 -251.625 456 C-250.965 456 -250.305 456 -249.625 456 C-249.16351562 457.12535156 -248.70203125 458.25070312 -248.2265625 459.41015625 C-243.99246465 469.47275443 -239.13979957 478.39478551 -232.82128906 487.28466797 C-230.96383677 489.94802712 -229.24684164 492.70078143 -227.5 495.4375 C-224.55436242 499.87377272 -221.36825792 503.49463876 -217.49609375 507.1328125 C-215.60808997 509.01687473 -214.10675176 510.95403599 -212.5625 513.125 C-210.07839069 516.60138438 -207.31507997 519.1622324 -203.9453125 521.7734375 C-203.50960938 522.17820312 -203.07390625 522.58296875 -202.625 523 C-202.625 523.66 -202.625 524.32 -202.625 525 C-202.06425781 525.25265625 -201.50351563 525.5053125 -200.92578125 525.765625 C-198.28870668 527.18042222 -196.13483497 528.86287426 -193.8125 530.75 C-192.92175781 531.46800781 -192.03101563 532.18601562 -191.11328125 532.92578125 C-189.17052635 534.54525198 -187.33847985 536.20573929 -185.5 537.9375 C-179.71424084 543.01939551 -172.36238543 546.36035601 -165.625 550 C-165.625 550.66 -165.625 551.32 -165.625 552 C-164.78324219 552.26425781 -163.94148438 552.52851562 -163.07421875 552.80078125 C-159.42804123 554.0684783 -155.94903871 555.59669336 -152.4375 557.1875 C-136.79136602 564.09525719 -121.56051763 569.33219511 -104.625 572 C-103.91649902 572.11714355 -103.20799805 572.23428711 -102.47802734 572.35498047 C-70.76277007 577.41408645 -32.10440361 575.85500869 -2.4765625 562.29296875 C0.75633493 560.82709334 4.0500331 559.61741268 7.375 558.375 C21.32658997 552.93435508 34.64155891 545.28731693 46.375 536 C47.13554688 535.42894531 47.89609375 534.85789062 48.6796875 534.26953125 C62.57798048 523.7616523 79.39925899 509.95148201 87.375 494 C88.035 494 88.695 494 89.375 494 C89.6534375 493.42765625 89.931875 492.8553125 90.21875 492.265625 C91.35773792 490.03382434 92.57436383 487.89129126 93.875 485.75 C94.2978125 485.04359375 94.720625 484.3371875 95.15625 483.609375 C95.5584375 483.07828125 95.960625 482.5471875 96.375 482 C97.035 482 97.695 482 98.375 482 C98.375 482.66 98.375 483.32 98.375 484 C99.05433594 484.23976563 99.73367188 484.47953125 100.43359375 484.7265625 C104.00170621 486.27132301 107.18672321 488.26526999 110.4375 490.375 C111.04916016 490.76171875 111.66082031 491.1484375 112.29101562 491.546875 C114.88261506 493.21670555 117.23431585 494.85877683 119.4140625 497.046875 C121.9137539 499.53660747 124.64570334 501.09495918 127.6875 502.875 C131.26837025 505.01108754 134.7325892 507.10240262 137.8125 509.9375 C141.57312747 513.3878757 145.8860411 515.97085995 150.18676758 518.68115234 C154.05099329 521.12415424 157.72467369 523.68756643 161.3359375 526.484375 C163.8672105 528.36585762 166.48831941 530.08196546 169.125 531.8125 C174.44962949 535.32191489 179.52570647 539.08540757 184.59375 542.953125 C187.04596853 544.75784762 189.51480241 546.37505778 192.125 547.9375 C193.1975 548.618125 194.27 549.29875 195.375 550 C195.375 550.66 195.375 551.32 195.375 552 C196.05691406 552.2371875 196.73882813 552.474375 197.44140625 552.71875 C201.0033357 554.27442624 204.11217248 556.32212669 207.3125 558.5 C208.28678955 559.15560913 208.28678955 559.15560913 209.28076172 559.82446289 C214.49347249 563.35189431 219.62863672 566.9852511 224.71850586 570.6875 C227.18565326 572.47561939 229.62724985 574.14448273 232.2734375 575.66015625 C232.96695313 576.10230469 233.66046875 576.54445313 234.375 577 C234.375 577.66 234.375 578.32 234.375 579 C234.890625 579.2475 235.40625 579.495 235.9375 579.75 C239.14684151 581.39581616 242.25085664 583.1976096 245.375 585 C244.91590657 589.83398374 242.53705196 592.79909953 239.5625 596.4375 C238.67909008 597.53884364 237.79756274 598.64170011 236.91796875 599.74609375 C236.48653564 600.2867749 236.05510254 600.82745605 235.6105957 601.38452148 C234.44023122 602.9147135 233.36865703 604.51900826 232.3046875 606.125 C229.9315179 609.66073446 227.16827848 612.64101875 224.27734375 615.75390625 C222.31042494 617.94738278 222.31042494 617.94738278 220.8984375 620.5078125 C219.2318639 623.23415598 217.38140828 625.12175245 215.0625 627.3125 C212.16472481 630.13069171 209.59137937 632.89316029 207.25 636.1875 C204.8857536 639.48962927 202.32260367 641.88702487 199.16796875 644.421875 C197.13352698 646.21253835 195.47898111 648.16472126 193.75 650.25 C191.13916976 653.34779409 189.24236895 654.67404493 185.375 656 C184.03089738 658.01735205 184.03089738 658.01735205 183.375 660 C182.715 660 182.055 660 181.375 660 C181.16488281 660.56847656 180.95476563 661.13695312 180.73828125 661.72265625 C178.87879777 664.82889942 176.50350997 666.3450675 173.5625 668.4375 C170.45613469 670.65633236 167.60114978 672.77277673 164.90625 675.48046875 C162.03819366 678.33524705 159.00105853 680.5731595 155.6875 682.875 C155.07100586 683.30844727 154.45451172 683.74189453 153.81933594 684.18847656 C152.58032441 685.05894176 151.33995328 685.92747532 150.09814453 686.79394531 C148.5886427 687.85046827 147.08844396 688.92025748 145.58984375 689.9921875 C130.15444444 701 130.15444444 701 126.375 701 C126.375 701.66 126.375 702.32 126.375 703 C125.7044458 703.34780518 125.0338916 703.69561035 124.34301758 704.05395508 C121.2903273 705.63850326 118.23890429 707.22547689 115.1875 708.8125 C114.13240234 709.35970703 113.07730469 709.90691406 111.99023438 710.47070312 C110.96865234 711.00244141 109.94707031 711.53417969 108.89453125 712.08203125 C107.95714111 712.56905518 107.01975098 713.0560791 106.05395508 713.55786133 C103.44303903 714.96337314 100.91563798 716.47228228 98.375 718 C94.08102639 720.08580324 89.72370785 722.03125874 85.375 724 C84.47007812 724.42152344 83.56515625 724.84304688 82.6328125 725.27734375 C81.84648438 725.63957031 81.06015625 726.00179687 80.25 726.375 C79.22519531 726.85066406 79.22519531 726.85066406 78.1796875 727.3359375 C76.375 728 76.375 728 73.375 728 C73.375 728.66 73.375 729.32 73.375 730 C63.26757812 733.36914062 63.26757812 733.36914062 53.16015625 736.73828125 C52.06916374 737.10211411 52.06916374 737.10211411 50.95613098 737.47329712 C49.49260713 737.96091072 48.02880952 738.44770338 46.56474304 738.9336853 C43.39261429 739.98755151 40.22641648 741.05173371 37.06958008 742.15087891 C29.98584239 744.60309862 22.90747188 746.38737764 15.5625 747.875 C14.34199951 748.12403076 13.12149902 748.37306152 11.86401367 748.62963867 C1.01839201 750.80060563 -9.88683154 752.59690896 -20.8125 754.3125 C-21.61813385 754.44146667 -22.4237677 754.57043335 -23.2538147 754.70330811 C-39.15227006 757.2302982 -54.90175103 758.19724986 -71 758.125 C-72.15064941 758.12089111 -73.30129883 758.11678223 -74.48681641 758.11254883 C-90.81924884 758.00699523 -106.63725948 756.9928532 -122.7734375 754.44140625 C-125.77281007 753.97711981 -128.77585348 753.54845362 -131.78125 753.125 C-147.58719424 750.85722196 -163.08636983 747.66522168 -178.625 744 C-178.625 743.34 -178.625 742.68 -178.625 742 C-179.63925049 741.87778076 -180.65350098 741.75556152 -181.69848633 741.62963867 C-187.43889747 740.70913128 -192.81669168 738.82533462 -198.3112793 736.98168945 C-200.28673894 736.32111426 -202.26694767 735.67663495 -204.24804688 735.03320312 C-211.38716785 732.67721612 -218.13598683 729.9430437 -224.8137207 726.45678711 C-229.24932436 724.15828541 -233.81063426 722.15207481 -238.375 720.125 C-239.27476562 719.7228125 -240.17453125 719.320625 -241.1015625 718.90625 C-243.27500206 717.93513871 -245.44946387 716.96640284 -247.625 716 C-247.625 715.34 -247.625 714.68 -247.625 714 C-248.87023438 713.63455078 -248.87023438 713.63455078 -250.140625 713.26171875 C-254.152379 711.80903205 -257.68022483 709.92518861 -261.375 707.8125 C-262.08164795 707.4117627 -262.7882959 707.01102539 -263.51635742 706.59814453 C-268.27603357 703.86387406 -272.80879905 700.92740289 -277.24609375 697.69140625 C-280.78137459 695.17781577 -284.47893247 692.93615495 -288.1796875 690.67578125 C-290.65079016 688.98232591 -292.52361205 687.12568146 -294.625 685 C-296.4546672 683.59256369 -298.3103131 682.21840178 -300.1875 680.875 C-301.13753906 680.19179687 -302.08757812 679.50859375 -303.06640625 678.8046875 C-304.9012354 677.51050267 -306.75677148 676.24548568 -308.625 675 C-308.625 674.34 -308.625 673.68 -308.625 673 C-309.17414063 672.75636719 -309.72328125 672.51273438 -310.2890625 672.26171875 C-317.23464659 668.51017417 -323.21256127 662.80954134 -328.10546875 656.67578125 C-329.91797875 654.6768949 -331.89913686 653.17320566 -334.0625 651.5625 C-337.89201638 648.69517366 -340.89709733 645.6228626 -343.953125 641.95703125 C-345.55226693 640.08513848 -347.22589475 638.39243142 -349 636.6875 C-352.84728883 632.91837279 -356.15995981 628.75982845 -359.51171875 624.55078125 C-361.44462435 622.21771774 -363.48094917 620.13565924 -365.625 618 C-367.06584181 616.31200649 -368.4823254 614.60294811 -369.875 612.875 C-370.58140625 612.00617187 -371.2878125 611.13734375 -372.015625 610.2421875 C-373.625 608 -373.625 608 -373.625 606 C-374.285 606 -374.945 606 -375.625 606 C-377.35918614 603.63520071 -378.97599132 601.27353439 -380.5625 598.8125 C-381.00529297 598.13896484 -381.44808594 597.46542969 -381.90429688 596.77148438 C-383.75396016 593.94599276 -385.55571846 591.11912438 -387.25390625 588.19921875 C-388.49435138 586.01593061 -388.49435138 586.01593061 -390.07104492 584.58691406 C-391.67321098 582.95076648 -392.71516606 581.38836294 -393.859375 579.41015625 C-394.26494629 578.71462646 -394.67051758 578.01909668 -395.08837891 577.30249023 C-395.51296387 576.56329346 -395.93754883 575.82409668 -396.375 575.0625 C-397.27342007 573.51301073 -398.17185763 571.96353159 -399.0703125 570.4140625 C-399.50762695 569.65641602 -399.94494141 568.89876953 -400.39550781 568.11816406 C-401.43443256 566.3283088 -402.4924549 564.54955922 -403.5546875 562.7734375 C-410.80913032 550.63812532 -416.70532477 538.15975363 -422 525.0625 C-422.42901611 524.00844971 -422.85803223 522.95439941 -423.30004883 521.8684082 C-425.64857924 515.94951166 -427.43733709 510.25806997 -428.625 504 C-429.285 504 -429.945 504 -430.625 504 C-433.08100653 494.83192594 -435.51811113 485.65916457 -437.92225647 476.4773407 C-438.99364465 472.38814332 -440.08381399 468.30508153 -441.1953125 464.2265625 C-443.98307528 453.68300653 -445.55985882 443.06066415 -446.875 432.25 C-447.00003403 431.226147 -447.00003403 431.226147 -447.12759399 430.18161011 C-449.26829311 412.33724818 -449.83239012 394.58909619 -449.8125 376.625 C-449.81189575 375.61254211 -449.8112915 374.60008423 -449.81066895 373.5569458 C-449.76255506 343.77973098 -448.45458612 313.23576165 -440.28808594 284.42578125 C-439.4580515 281.3892488 -438.70406174 278.33636849 -437.9453125 275.28125 C-433.67434263 258.32949644 -428.32187195 242.17936054 -421.625 226 C-420.99537354 224.45578369 -420.99537354 224.45578369 -420.35302734 222.88037109 C-417.97824056 217.09619207 -415.48080577 211.43691205 -412.625 205.875 C-412.2846875 205.20339844 -411.944375 204.53179688 -411.59375 203.83984375 C-410.91953729 202.50929518 -410.24381811 201.17950861 -409.56640625 199.85058594 C-408.23870974 197.24064311 -406.9315722 194.6205681 -405.625 192 C-404.95833333 190.66666667 -404.29166667 189.33333333 -403.625 188 C-402.965 188 -402.305 188 -401.625 188 C-401.34398437 187.27296875 -401.06296875 186.5459375 -400.7734375 185.796875 C-396.4048093 175.15763082 -389.58330893 166.08692613 -382.89306641 156.82910156 C-381.81148452 155.26899154 -380.83660248 153.63580654 -379.88671875 151.9921875 C-379.47035156 151.33476563 -379.05398438 150.67734375 -378.625 150 C-377.965 150 -377.305 150 -376.625 150 C-376.37363281 149.45214844 -376.12226562 148.90429688 -375.86328125 148.33984375 C-372.22352503 141.46219714 -367.17338244 135.40237238 -361.625 130 C-360.7088809 128.79351391 -359.81086009 127.57318822 -358.92578125 126.34375 C-355.70620024 122.00762223 -352.16008659 118.09373356 -348.4375 114.1875 C-347.45293823 113.14819336 -347.45293823 113.14819336 -346.44848633 112.08789062 C-344.51368117 110.05239542 -342.5711566 108.02463893 -340.625 106 C-340.09616211 105.44779785 -339.56732422 104.8955957 -339.02246094 104.32666016 C-333.62883017 98.71950908 -328.11411611 93.55862661 -321.9140625 88.8515625 C-319.52446885 86.98903337 -319.52446885 86.98903337 -317.2109375 84.5546875 C-313.63398038 81.02095645 -309.62667706 78.22570481 -305.5625 75.28125 C-302.58934358 73.07383064 -302.58934358 73.07383064 -300.1015625 70.453125 C-297.55941987 67.9350405 -295.03216705 66.13779546 -292 64.25 C-290.58847656 63.36054687 -290.58847656 63.36054687 -289.1484375 62.453125 C-286.625 61 -286.625 61 -283.625 60 C-283.295 59.01 -282.965 58.02 -282.625 57 C-280.80249023 55.63720703 -280.80249023 55.63720703 -278.43359375 54.2578125 C-277.57056641 53.74863281 -276.70753906 53.23945312 -275.81835938 52.71484375 C-274.90892578 52.19019531 -273.99949219 51.66554688 -273.0625 51.125 C-271.28997452 50.08660304 -269.51783441 49.04754797 -267.74609375 48.0078125 C-266.87662109 47.50113037 -266.00714844 46.99444824 -265.11132812 46.47241211 C-262.87791024 45.14977432 -260.68383214 43.78309602 -258.49609375 42.38671875 C-254.53766062 39.89160926 -250.4421643 37.75998648 -246.25 35.6875 C-245.18458984 35.14899414 -245.18458984 35.14899414 -244.09765625 34.59960938 C-238.87863095 32 -238.87863095 32 -236.625 32 C-236.625 31.34 -236.625 30.68 -236.625 30 C-232.83746752 28.42671143 -229.04715986 26.86033273 -225.25415039 25.30029297 C-223.96430654 24.76865608 -222.67523565 24.23513978 -221.38696289 23.69970703 C-219.53476143 22.93027613 -217.67952554 22.16816265 -215.82421875 21.40625 C-214.70877686 20.94541016 -213.59333496 20.48457031 -212.4440918 20.00976562 C-209.625 19 -209.625 19 -206.625 19 C-206.625 18.34 -206.625 17.68 -206.625 17 C-200.37232184 15.05707311 -194.11547976 13.12906585 -187.8515625 11.22265625 C-183.53564184 9.90677142 -179.24019444 8.55135132 -174.9609375 7.12109375 C-119.66284933 -10.87253134 -56.79888644 -9.33269458 0 0 Z " fill="#012D53" transform="translate(1685.625,1069)"/>
<path d="M0 0 C373.8902439 0 373.8902439 0 413.65625 17.53125 C416.22757408 18.66071011 418.80095007 19.7355854 421.40625 20.78125 C432.10853071 25.10872721 442.09305254 30.08068362 452 36 C452.91394531 36.53109375 453.82789062 37.0621875 454.76953125 37.609375 C456.55478033 38.67239547 458.28783068 39.82288359 460 41 C460 41.66 460 42.32 460 43 C460.69351563 43.23332031 461.38703125 43.46664063 462.1015625 43.70703125 C465.5744206 45.25624423 468.4058962 47.35348468 471.375 49.6875 C471.95080811 50.13520752 472.52661621 50.58291504 473.11987305 51.04418945 C476.78192805 53.93109137 480.16793015 56.94400865 483.37109375 60.33984375 C485.87853647 62.89539089 488.64034844 65.14299061 491.3984375 67.421875 C493 69 493 69 494 72 C494.66 72 495.32 72 496 72 C500.98259445 76.66931756 505.08168617 82.50738203 509.375 87.8125 C509.91108887 88.47064697 510.44717773 89.12879395 510.99951172 89.80688477 C511.50240723 90.43393311 512.00530273 91.06098145 512.5234375 91.70703125 C512.97638184 92.2688208 513.42932617 92.83061035 513.89599609 93.40942383 C515 95 515 95 516 98 C516.56203125 98.53109375 517.1240625 99.0621875 517.703125 99.609375 C521.04837902 103.09117 523.30004922 107.10749033 525.75 111.25 C526.54398193 112.58430054 526.54398193 112.58430054 527.35400391 113.94555664 C531.96739177 121.78383018 536.1139324 129.78134282 540 138 C540.83144531 139.72863281 540.83144531 139.72863281 541.6796875 141.4921875 C547.0312614 152.80770444 550.70019883 164.08489778 553.625 176.25 C554.22034203 178.69295521 554.81666584 181.13567141 555.4140625 183.578125 C555.68968018 184.7139502 555.96529785 185.84977539 556.24926758 187.02001953 C556.80873665 189.24079335 557.44225918 191.44316153 558.11328125 193.6328125 C559.41431454 198.57330016 559.97338072 203.55632183 560.5625 208.625 C560.75646362 210.27193848 560.75646362 210.27193848 560.9543457 211.95214844 C563.17581286 231.65114702 563.47184502 251.28482171 562.1875 271.0625 C562.14431641 271.73376923 562.10113281 272.40503845 562.05664062 273.09664917 C560.25730918 300.5661981 560.25730918 300.5661981 556 313 C555.02046868 316.65589735 554.11218689 320.32989716 553.1875 324 C550.91581883 332.88448538 548.29643141 341.43715825 545 350 C544.67 350.99 544.34 351.98 544 353 C543.34 353 542.68 353 542 353 C541.85304688 353.57105469 541.70609375 354.14210938 541.5546875 354.73046875 C539.48656415 362.20661579 536.37571255 369.03008218 533 376 C532.34 376 531.68 376 531 376 C531 376.99 531 377.98 531 379 C530.34 379 529.68 379 529 379 C528.75378906 379.85335938 528.50757812 380.70671875 528.25390625 381.5859375 C526.90073653 385.27026876 525.08903543 388.37336238 522.9375 391.625 C522.54191895 392.23037598 522.14633789 392.83575195 521.73876953 393.45947266 C513.64400858 405.70884005 504.30360741 416.64439354 494.25 427.3125 C493.59128906 428.01439453 492.93257812 428.71628906 492.25390625 429.43945312 C488.74714737 433.17027469 488.74714737 433.17027469 487 435 C486.21641113 435.8511438 486.21641113 435.8511438 485.41699219 436.71948242 C484 438 484 438 482 438 C481.70609375 438.82757812 481.70609375 438.82757812 481.40625 439.671875 C479.41088002 442.97532086 476.54527494 444.97760395 473.5 447.25 C472.90574219 447.70890625 472.31148437 448.1678125 471.69921875 448.640625 C467.27004278 452 467.27004278 452 465 452 C465 452.66 465 453.32 465 454 C462.81837246 455.47275136 460.6513476 456.81267106 458.375 458.125 C457.69058838 458.52460937 457.00617676 458.92421875 456.30102539 459.3359375 C454.88182992 460.16326971 453.46099025 460.9877875 452.03857422 461.80957031 C450.23043114 462.86543925 448.4435509 463.95753477 446.66015625 465.0546875 C437.02216809 470.87252762 426.83452316 474.95701911 416.37207031 479.04882812 C414.3990336 479.83999229 412.45474312 480.70238949 410.51953125 481.58203125 C405.81856177 483.47598455 401.04234417 484.67374015 396.125 485.875 C395.09084961 486.13112061 394.05669922 486.38724121 392.99121094 486.65112305 C382.18519186 489.27954834 371.29188944 491.44655255 360.36816406 493.52270508 C358.97308787 493.80387765 357.58260426 494.1159378 356.21138954 494.49681282 C335.93200541 499.11125361 312.68972175 497.28240573 291.98454285 497.20256042 C288.44371268 497.19087111 284.90291019 497.19061845 281.36206055 497.18920898 C271.11635657 497.17885838 260.87067637 497.15093726 250.625 497.125 C216.160625 497.063125 216.160625 497.063125 181 497 C181 578.84 181 660.68 181 745 C121.27 745 61.54 745 0 745 C0 499.15 0 253.3 0 0 Z M181 159 C181 218.73 181 278.46 181 340 C201.955 340.061875 222.91 340.12375 244.5 340.1875 C251.08904297 340.21481201 257.67808594 340.24212402 264.46679688 340.27026367 C270.43145518 340.28030393 270.43145518 340.28030393 276.39611816 340.28633118 C279.02976075 340.2909042 281.66295414 340.30022985 284.29650879 340.31672668 C310.83003706 340.62484764 310.83003706 340.62484764 336 333 C337.670625 332.2575 337.670625 332.2575 339.375 331.5 C342.12486782 329.92864696 343.7995796 328.26513865 346 326 C347.22560077 325.16143105 348.45526121 324.32878388 349.6875 323.5 C355.2678366 319.42246591 359.27499886 313.75995547 363 308 C363 307.34 363 306.68 363 306 C363.66 305.67 364.32 305.34 365 305 C380.59770179 279.93366815 381.795355 247.69379612 375.46386719 219.62304688 C371.85397228 204.97148723 365.353028 193.85283731 356 182 C355.49726563 181.31808594 354.99453125 180.63617187 354.4765625 179.93359375 C349.11367571 173.00524001 340.89872755 168.52921869 333 165 C332.31035156 164.67257812 331.62070313 164.34515625 330.91015625 164.0078125 C319.75259821 159.05291638 307.70294096 158.69751336 295.66064453 158.77294922 C294.39019728 158.77270815 293.11975002 158.77246708 291.81080437 158.7722187 C288.42200204 158.77177332 285.03334542 158.78323339 281.64457703 158.79743958 C278.44656813 158.80896127 275.24856424 158.80937289 272.05053711 158.81079102 C262.74200598 158.82122122 253.43350107 158.84914369 244.125 158.875 C212.878125 158.936875 212.878125 158.936875 181 159 Z " fill="#012D53" transform="translate(2040,1072)"/>
<path d="M0 0 C59.73 0 119.46 0 181 0 C181 245.85 181 491.7 181 745 C120.94 745 60.88 745 -1 745 C-1.02013078 658.51878119 -1.02013078 658.51878119 -1.02565002 631.76919556 C-1.02584736 630.81518359 -1.02604469 629.86117163 -1.02624801 628.87825021 C-1.03286986 596.77840191 -1.0381219 564.67855354 -1.04234314 532.57870483 C-1.0424812 531.53154595 -1.04261925 530.48438707 -1.04276149 529.40549611 C-1.04575406 506.65056538 -1.04852429 483.89563462 -1.05106533 461.14070383 C-1.05231272 449.98247443 -1.05360927 438.82424502 -1.05493164 427.66601562 C-1.0550624 426.55560902 -1.05519316 425.44520242 -1.05532788 424.30114713 C-1.05959291 388.27828144 -1.06710696 352.25541732 -1.07629722 316.23255257 C-1.08572049 279.22933762 -1.09188328 242.22612353 -1.09391499 205.22290739 C-1.09420317 200.00226678 -1.0945288 194.78162617 -1.09487724 189.56098557 C-1.09494467 188.5334396 -1.09501209 187.50589364 -1.09508156 186.44720993 C-1.0962655 169.87425793 -1.10090955 153.3013086 -1.10683203 136.7283577 C-1.11270586 120.08652054 -1.11497136 103.44468604 -1.11350138 86.80284788 C-1.112738 76.90299079 -1.11479338 67.00314339 -1.12079754 57.10328804 C-1.12452949 50.50176926 -1.12467639 43.90025688 -1.12183181 37.29873767 C-1.12031272 33.52988543 -1.12042463 29.7610516 -1.12488318 25.99220128 C-1.1296353 21.94472094 -1.12676384 17.89728341 -1.12304783 13.84980202 C-1.12567484 12.66302738 -1.12830186 11.47625275 -1.13100848 10.25351524 C-1.12876118 9.18399168 -1.12651389 8.11446811 -1.1241985 7.01253474 C-1.12435448 6.08569787 -1.12451046 5.158861 -1.12467116 4.20393816 C-1 2 -1 2 0 0 Z " fill="#012D53" transform="translate(932,1072)"/>
</svg>
