<?xml version="1.0" encoding="UTF-8" standalone="no"?>


<svg
   xmlns:dc="http://purl.org/dc/elements/1.1/"
   xmlns:cc="http://creativecommons.org/ns#"
   xmlns:rdf="http://www.w3.org/1999/02/22-rdf-syntax-ns#"
   xmlns:svg="http://www.w3.org/2000/svg"
   xmlns="http://www.w3.org/2000/svg"
   xmlns:sodipodi="http://sodipodi.sourceforge.net/DTD/sodipodi-0.dtd"
   xmlns:inkscape="http://www.inkscape.org/namespaces/inkscape"
   width="191"
   height="67.207001"
   viewBox="0 0 50.535415 17.781852"
   version="1.1"
   id="svg5690"
   inkscape:version="0.92.0 r15299"
   sodipodi:docname="ingenico.svg">
  <defs
     id="defs5684" />
  <sodipodi:namedview
     id="base"
     pagecolor="#ffffff"
     bordercolor="#666666"
     borderopacity="1.0"
     inkscape:pageopacity="0.0"
     inkscape:pageshadow="2"
     inkscape:zoom="4.2210527"
     inkscape:cx="94.999999"
     inkscape:cy="33.103499"
     inkscape:document-units="mm"
     inkscape:current-layer="layer1"
     showgrid="false"
     fit-margin-top="0"
     fit-margin-left="0"
     fit-margin-right="0"
     fit-margin-bottom="0"
     units="px"
     inkscape:window-width="1280"
     inkscape:window-height="744"
     inkscape:window-x="-4"
     inkscape:window-y="-4"
     inkscape:window-maximized="1" />
  <metadata
     id="metadata5687">
    <rdf:RDF>
      <cc:Work
         rdf:about="">
        <dc:format>image/svg+xml</dc:format>
        <dc:type
           rdf:resource="http://purl.org/dc/dcmitype/StillImage" />
        <dc:title></dc:title>
      </cc:Work>
    </rdf:RDF>
  </metadata>
  <g
     inkscape:label="Layer 1"
     inkscape:groupmode="layer"
     id="layer1"
     transform="translate(-90.525298,-329.55417)">
    <g
       id="g5728"
       transform="matrix(0.26458333,0,0,0.26458333,89.334673,324.67737)">
	<g
   id="g5714">
		<path
   id="path5692"
   d="M 5.457,61.243 V 34.134 h 6.053 v 27.109 z"
   inkscape:connector-curvature="0"
   style="fill:#4a4f55" />

		<path
   id="path5694"
   d="m 19.128,19.954 h 107.72 v 4.924 H 19.128 Z"
   inkscape:connector-curvature="0"
   style="fill:#4a4f55" />

		<path
   id="path5696"
   d="m 58.741,72.414 c -3.836,0 -7.346,-0.796 -9.52,-1.44 l 0.925,-5.163 c 2.309,0.545 5.682,1.042 7.577,1.042 4.02,0 6.746,-0.694 6.746,-5.461 0.092,-0.099 0,-1.341 0,-1.489 -1.248,0.992 -3.003,1.787 -4.851,1.787 -5.775,0 -12.245,-1.588 -12.245,-13.853 0,-9.234 5.961,-14.15 13.168,-14.15 2.866,0 6.005,0.397 9.934,1.044 v 27.355 c 0.002,7.597 -6.374,10.328 -11.734,10.328 z m 5.683,-33.017 c -1.015,-0.099 -2.171,-0.298 -3.929,-0.298 -5.08,0 -7.115,3.724 -7.115,8.788 0,6.455 2.587,8.688 6.562,8.688 1.801,0 3.325,-0.745 4.481,-1.341 V 39.397 Z"
   inkscape:connector-curvature="0"
   style="fill:#4a4f55" />

		<path
   id="path5698"
   d="m 82.167,49.526 c 0.046,5.908 3.467,6.752 7.995,6.752 1.756,0 4.85,-0.249 6.837,-0.694 l 0.925,5.064 c -1.987,0.694 -5.822,1.042 -8.873,1.042 -7.901,0 -12.938,-2.93 -12.938,-13.555 0,-11.022 5.176,-14.646 12.292,-14.646 7.3,0 10.257,5.164 10.257,13.653 v 2.384 z m 5.684,-11.071 c -2.588,0 -5.268,1.885 -5.544,6.453 h 10.072 c 0.047,-4.169 -1.941,-6.453 -4.528,-6.453 z"
   inkscape:connector-curvature="0"
   style="fill:#4a4f55" />

		<path
   id="path5700"
   d="M 134.466,61.243 V 34.134 h 6.053 v 27.109 z"
   inkscape:connector-curvature="0"
   style="fill:#4a4f55" />

		<path
   id="path5702"
   d="m 165.199,39.993 c -1.663,-0.695 -3.235,-1.191 -5.776,-1.191 -3.881,0 -6.838,2.384 -6.838,8.739 0,6.107 1.525,8.836 8.177,8.836 2.08,0 3.465,-0.396 5.13,-0.644 l 0.831,5.063 c -1.986,0.446 -3.649,0.894 -6.375,0.894 -10.165,0 -14.001,-4.121 -14.001,-14.249 0,-8.59 5.083,-14.002 13.077,-14.002 3.602,0 5.867,0.745 7.53,1.738 z"
   inkscape:connector-curvature="0"
   style="fill:#4a4f55" />

		<path
   id="path5704"
   d="m 182.249,61.838 c -7.763,0 -12.106,-5.211 -12.106,-13.901 0,-9.136 5.038,-14.499 12.523,-14.499 8.408,0 12.334,5.213 12.334,14.25 0,9.336 -5.451,14.15 -12.751,14.15 z m 0.277,-23.186 c -4.943,0 -6.283,4.37 -6.283,9.085 0,5.065 1.524,8.838 6.375,8.838 4.945,0 6.146,-3.971 6.146,-8.887 10e-4,-4.617 -1.201,-9.036 -6.238,-9.036 z"
   inkscape:connector-curvature="0"
   style="fill:#4a4f55" />

		<circle
   id="circle5706"
   r="3.484"
   cy="22.416"
   cx="8.4840002"
   style="fill:#4a4f55" />

		<circle
   id="circle5708"
   r="3.484"
   cy="22.416"
   cx="137.492"
   style="fill:#4a4f55" />

		<path
   id="path5710"
   d="m 33.697,33.391 c -3.834,0 -6.746,2.283 -8.456,3.574 V 36.91 c -0.06,0.065 -0.122,0.131 -0.182,0.197 -0.595,-2.185 -2.161,-2.815 -3.583,-2.973 h -2.333 v 27.109 h 6.099 v -19.86 c 1.203,-0.696 3.975,-2.334 6.516,-2.334 3.418,0 4.112,1.789 4.112,5.71 v 16.484 h 6.053 V 44.015 C 41.921,38.455 41.415,33.391 33.697,33.391 Z"
   inkscape:connector-curvature="0"
   style="fill:#4a4f55" />

		<path
   id="path5712"
   d="m 118.64,33.391 c -3.834,0 -6.746,2.283 -8.455,3.574 V 36.91 c -0.062,0.065 -0.124,0.131 -0.183,0.197 -0.596,-2.185 -2.161,-2.815 -3.584,-2.973 h -2.332 v 27.109 h 6.099 v -19.86 c 1.2,-0.696 3.973,-2.334 6.515,-2.334 3.418,0 4.111,1.789 4.111,5.71 v 16.484 h 6.053 V 44.015 c 10e-4,-5.56 -0.508,-10.624 -8.224,-10.624 z"
   inkscape:connector-curvature="0"
   style="fill:#4a4f55" />

	</g>

	<g
   id="g5726">
		<path
   id="path5716"
   d="m 137.389,84.242 c -1.103,0.542 -2.778,0.896 -4.452,0.896 -4.839,0 -6.902,-2.481 -6.902,-8.068 0,-5.672 2.144,-8.132 6.964,-8.132 1.429,0 2.981,0.313 4.063,0.771 l -0.245,1.918 c -1.063,-0.459 -2.329,-0.73 -3.718,-0.73 -3.41,0 -4.86,1.418 -4.86,6.151 0,4.587 1.287,6.089 4.635,6.089 1.042,0 1.9,-0.146 2.656,-0.438 v -6.13 h 1.858 v 7.673 z"
   inkscape:connector-curvature="0"
   style="fill:#e30613" />

		<path
   id="path5718"
   d="m 147.866,77.862 4.003,6.985 h -2.492 l -3.452,-6.589 h -3.083 v 6.589 h -2.083 V 69.208 h 5.187 c 3.349,0 4.922,1.439 4.922,4.463 0,2.397 -1.062,3.858 -3.002,4.191 z m -1.92,-6.797 h -3.104 v 5.504 h 3.023 c 1.96,0 2.838,-0.75 2.838,-2.815 0,-1.96 -0.837,-2.689 -2.757,-2.689 z"
   inkscape:connector-curvature="0"
   style="fill:#e30613" />

		<path
   id="path5720"
   d="m 159.792,85.139 c -4.534,0 -6.351,-2.398 -6.351,-8.111 0,-5.714 1.796,-8.069 6.351,-8.069 4.575,0 6.331,2.355 6.331,8.069 0,5.755 -1.757,8.111 -6.331,8.111 z m 0,-14.2 c -3.002,0 -4.146,1.292 -4.146,6.089 0,4.774 1.143,6.109 4.146,6.109 3.001,0 4.146,-1.334 4.146,-6.109 0,-4.796 -1.124,-6.089 -4.146,-6.089 z"
   inkscape:connector-curvature="0"
   style="fill:#e30613" />

		<path
   id="path5722"
   d="m 180.786,79.217 c 0,4.108 -2.083,5.922 -5.82,5.922 -3.738,0 -5.841,-1.814 -5.841,-5.922 V 69.209 h 2.083 v 9.988 c 0,2.731 1.225,3.92 3.758,3.92 2.552,0 3.737,-1.209 3.737,-3.92 v -9.988 h 2.083 z"
   inkscape:connector-curvature="0"
   style="fill:#e30613" />

		<path
   id="path5724"
   d="m 189.649,78.989 h -3.002 v 5.858 h -2.083 V 69.209 h 5.085 c 3.757,0 5.351,1.5 5.351,4.899 0,3.212 -1.552,4.881 -5.351,4.881 z m 0,-7.924 h -3.002 v 6.13 h 3.002 c 2.165,0 3.206,-0.688 3.206,-3.086 0,-2.272 -0.98,-3.044 -3.206,-3.044 z"
   inkscape:connector-curvature="0"
   style="fill:#e30613" />

	</g>

</g>
  </g>
</svg>
