<svg clip-rule="evenodd" fill-rule="evenodd" stroke-linejoin="round" stroke-miterlimit="1.414" viewBox="100 150.814 360 98.372" xmlns="http://www.w3.org/2000/svg"><g fill-rule="nonzero" transform="matrix(.931588 0 0 .931588 94.0322 60.3549)"><path d="m210.55 181.912h2.099v20.453h-1.991l-12.614-17.363v17.363h-2.098v-20.453h2.374l12.23 16.865zm9.493 10.875h11.071v-2.044h-11.071v-6.759h11.347v-2.072h-13.526v20.453h13.637v-1.988h-11.458zm14.63-8.805h7.674v18.385h2.183v-18.385h7.674v-2.071h-17.531zm40.631 14.849-5.465-16.919h-1.876l-5.495 16.919-5.38-16.919h-2.237l6.598 20.591h1.904l5.494-17.03 5.522 17.03h1.873l6.571-20.591h-2.098zm30.06-6.706c0 7.314-3.753 10.573-10.324 10.573-6.541 0-10.267-3.259-10.267-10.573 0-7.287 3.726-10.543 10.267-10.543 6.571 0 10.324 3.256 10.324 10.543zm-2.179.027c0-5.522-2.566-8.501-8.145-8.501-5.549 0-8.088 2.979-8.088 8.501 0 5.549 2.539 8.531 8.088 8.531 5.579 0 8.145-2.982 8.145-8.531zm17.112 1.794 4.94 8.42h-2.317l-4.856-8.336h-6.13v8.336h-2.125v-20.453h8.834c4.748 0 6.9 1.904 6.9 5.963 0 3.531-1.684 5.602-5.246 6.07zm3.064-6.016c0-3.175-1.739-4.002-4.772-4.002h-6.655v8.114h6.736c2.899 0 4.691-.884 4.691-4.112zm21.807-6.016h-2.512l-10.351 11.289v-11.289h-2.125v20.452h2.125v-6.379l4.086-4.469 7.314 10.848h2.458l-8.336-12.422zm11.762 8.858c-3.645-.662-5.771-1.157-5.771-3.753 0-2.428 1.574-3.45 5.243-3.45 2.32 0 4.499.635 5.962 1.601l1.16-1.766c-1.627-1.106-3.917-1.823-7.122-1.823-4.859 0-7.398 1.544-7.398 5.495 0 4.137 2.983 4.883 7.398 5.657 3.672.662 6.1 1.076 6.1 3.975 0 2.814-1.876 4.001-6.1 4.001-2.455 0-4.859-.524-7.314-2.068l-1.103 1.655c2.593 1.711 5.384 2.344 8.474 2.344 5.576 0 8.169-1.958 8.169-6.017 0-4.388-3.229-5.051-7.698-5.851z" fill="#61849c"/><path d="m392.843 97.661v6.46c-2.031-.239-4.287-.373-6.83-.373-23.738 0-23.197 10.986-23.197 24.687v44.621h-6.779v-44.621c0-18.177 1.22-31.06 29.976-31.06 2.475 0 4.735.101 6.83.286zm-288.366 45.825c0 13.701.541 24.687-23.194 24.687-23.869 0-23.735-10.986-23.735-24.007v-45.301h-6.917v45.166c0 17.632 1.762 30.518 30.652 30.518 28.753 0 29.977-12.886 29.977-31.063v-44.621h-6.783zm48.231-46.111c-28.752 0-29.973 12.883-29.973 31.059v44.622h6.78v-44.622c0-13.7-.545-24.686 23.193-24.686 23.87 0 23.735 10.986 23.735 24.007v45.301h6.918v-45.166c0-17.632-1.762-30.515-30.653-30.515zm43.241 75.665h6.638v-74.054h-6.638zm78.723-50.301c0 15.291-7.694 24.586-25.08 24.586h-27.935v25.732h-6.638v-74.053h34.667c17.191 0 24.986 8.545 24.986 23.735zm-6.954.296c0-11.787-6.423-17.386-18.227-17.386h-27.834v35.017h28.13c11.979 0 17.931-5.838 17.931-17.631zm78.568 13.941h-57.236c.134 18.042 4.607 31.469 28.073 31.469 12.479 0 18.176-3.393 24.28-7.865l3.793 5.017c-6.78 5.017-14.78 8.952-28.073 8.952-29.294 0-34.722-16.956-34.722-38.791s6.242-38.656 34.184-38.656c28.887 0 29.835 19.394 29.701 39.874zm-6.649-6.238c-.676-14.783-1.627-27.397-23.193-27.397-20.749 0-26.446 11.258-27.26 27.397zm-307.458 27.328c0 13.697.541 24.687-23.194 24.687-.898 0-1.748-.024-2.579-.058v6.397c.834.02 1.692.033 2.579.033 28.753 0 29.977-12.883 29.977-31.059v-59.2h-6.783z" fill="#231f20"/></g></svg>