<svg xmlns="http://www.w3.org/2000/svg" width="2500" height="2500" viewBox="0 0 192.756 192.756"><g fill-rule="evenodd" clip-rule="evenodd"><path fill="#fff" d="M0 0h192.756v192.756H0V0z"/><path d="M32.711 119.982h6.711l-18.067-21.67 17.91-21.614-7.258-.07-16.846 21.684 17.55 21.67zm-19.357 0v-12.125l9.808 12.125h6.969l-16.776-21.67 16.354-21.708-6.374.039-9.98 12.641v-12.64l-10.52-.117.195 43.456h10.324v-.001z" fill="#383e93"/><path d="M69.795 92.297a7.88 7.88 0 0 0-.598-2.959 7.74 7.74 0 0 0-7.165-4.756l-15.661.041a7.733 7.733 0 0 0-7.722 7.739v19.883c0 1.013.202 2.026.589 2.962s.962 1.794 1.678 2.511a7.787 7.787 0 0 0 2.512 1.678c.937.387 1.95.589 2.963.589h15.837c1.015 0 2.03-.203 2.968-.592a7.761 7.761 0 0 0 4.192-4.202 7.663 7.663 0 0 0 .583-2.97l-.176-19.924zm-10.718 19.942h-9.878V91.977h9.878v20.262zM103.057 119.982l.291-27.944a7.478 7.478 0 0 0-.598-2.959 7.748 7.748 0 0 0-7.165-4.757h-22.61v35.66h10.582l-.031-28.005h9.104l-.039 28.005h10.466zM106.787 83.351h10.322V72.774h-10.322v10.577zm10.322 36.631l-.016-33.129h-10.359l.053 33.129h10.322zM150.383 112.22a8.177 8.177 0 0 1-.564 3.012 7.829 7.829 0 0 1-1.605 2.521c-.682.712-1.49 1.275-2.365 1.654s-1.816.576-2.76.576h-14.811a6.977 6.977 0 0 1-2.756-.574c-.873-.377-1.682-.938-2.361-1.648s-1.232-1.568-1.607-2.512a8.232 8.232 0 0 1-.57-3.005V92.36a8.2 8.2 0 0 1 .568-3 7.76 7.76 0 0 1 1.604-2.51 7.268 7.268 0 0 1 2.355-1.65 6.962 6.962 0 0 1 2.748-.579l14.756-.041a6.976 6.976 0 0 1 2.756.566 7.285 7.285 0 0 1 2.365 1.642 7.782 7.782 0 0 1 1.613 2.507c.377.943.576 1.973.578 3.002l.012 3.694H140.23v-4.014h-9.307v20.262h9.307v-5.671h10.139l.014 5.652zM158.191 99.332c-1.498.623-2.791 1.602-3.615 2.877-.826 1.274-1.031 2.84-1.037 4.359l-.016 5.651a8.22 8.22 0 0 0 .566 3.012 7.762 7.762 0 0 0 1.605 2.521c.68.712 1.49 1.275 2.365 1.654s1.816.576 2.758.576h21.85v-27.88a8.21 8.21 0 0 0-.57-3 7.799 7.799 0 0 0-1.602-2.51 7.286 7.286 0 0 0-2.355-1.649 6.971 6.971 0 0 0-2.75-.579l-14.496-.041a6.994 6.994 0 0 0-2.756.566 7.264 7.264 0 0 0-2.365 1.642 7.771 7.771 0 0 0-1.613 2.507 8.216 8.216 0 0 0-.58 3.001l-.01 3.953h10.107v-4.788l8.408-.078v7.445h-9.033c-1.667-.001-3.363.138-4.861.761zm13.895 12.911l-8.408-.004v-6.703h8.408v6.707zM187.062 85.263h1.217v-.238c-.238 0-.424-.08-.529-.291l-.926-1.535c.502-.211.848-.529.848-1.084 0-1.005-1.008-1.191-1.775-1.191h-2.25v.212h.213c.344 0 .396.159.396.45v2.989c0 .424-.186.45-.582.45v.238h2.197v-.238h-.213c-.316 0-.396-.159-.396-.45v-1.376h.609l1.191 2.064zm-1.8-2.276v-1.773c.689 0 1.377 0 1.377.899 0 .635-.318.874-.9.874h-.477zm.529 4.233c2.25 0 4.131-1.852 4.131-4.127s-1.881-4.127-4.131-4.127c-2.275 0-4.156 1.852-4.156 4.127s1.881 4.127 4.156 4.127zm0-.449c-2.012 0-3.68-1.667-3.68-3.678s1.643-3.678 3.68-3.678c2.012 0 3.68 1.667 3.68 3.678s-1.668 3.678-3.68 3.678z" fill="#383e93"/></g></svg>