<?xml version="1.0" encoding="UTF-8" standalone="no"?>
<!-- Created with Inkscape (http://www.inkscape.org/) -->
<svg xmlns:dc="http://purl.org/dc/elements/1.1/" xmlns:cc="http://creativecommons.org/ns#" xmlns:rdf="http://www.w3.org/1999/02/22-rdf-syntax-ns#" xmlns:svg="http://www.w3.org/2000/svg" xmlns="http://www.w3.org/2000/svg" xmlns:sodipodi="http://sodipodi.sourceforge.net/DTD/sodipodi-0.dtd" xmlns:inkscape="http://www.inkscape.org/namespaces/inkscape" id="svg3393" version="1.1" inkscape:version="0.92.2 (5c3e80d, 2017-08-06)" xml:space="preserve" width="1000" height="333.345" viewBox="0 0 1000 333.34499" sodipodi:docname="Lenovo_2015_Alternate_(Red).svg"><metadata id="metadata3399"><rdf:RDF><cc:Work rdf:about=""><dc:format>image/svg+xml</dc:format><dc:type rdf:resource="http://purl.org/dc/dcmitype/StillImage"/><dc:title/></cc:Work></rdf:RDF></metadata><defs id="defs3397"><clipPath clipPathUnits="userSpaceOnUse" id="clipPath3409"><path d="m 13.5,13.5 765,0 0,585 -765,0 0,-585 z" id="path3411" inkscape:connector-curvature="0"/></clipPath><clipPath clipPathUnits="userSpaceOnUse" id="clipPath3445"><path d="m 710.596,51.888 67.904,0 0,203.712 -67.904,0 0,-203.712 z" id="path3447" inkscape:connector-curvature="0"/></clipPath></defs><sodipodi:namedview pagecolor="#ffffff" bordercolor="#666666" borderopacity="1" objecttolerance="10" gridtolerance="10" guidetolerance="10" inkscape:pageopacity="0" inkscape:pageshadow="2" inkscape:window-width="1366" inkscape:window-height="705" id="namedview3395" showgrid="false" fit-margin-top="0" fit-margin-left="0" fit-margin-right="0" fit-margin-bottom="0" inkscape:zoom="0.5" inkscape:cx="517.60318" inkscape:cy="95.446577" inkscape:window-x="-8" inkscape:window-y="-8" inkscape:window-maximized="1" inkscape:current-layer="g3401"/><g id="g3401" inkscape:groupmode="layer" inkscape:label="lenovo-visual-identity-guidelines" transform="matrix(1.25,0,0,-1.25,-984.36937,678.08937)"><g id="g3482" transform="matrix(0,-3.9272477,3.9272477,0,583.69096,3333.1579)"><path inkscape:connector-curvature="0" id="path3439" style="fill:#e42022;fill-opacity:1;fill-rule:nonzero;stroke:none" d="m 710.596,51.895 67.904,0 0,203.705 -67.904,0 0,-203.705 z"/><g id="g3441"><g clip-path="url(#clipPath3445)" id="g3443"><g transform="translate(733.4811,140.6355)" id="g3449"><path inkscape:connector-curvature="0" id="path3451" style="fill:#ffffff;fill-opacity:1;fill-rule:nonzero;stroke:none" d="m 0,0 c 0,-3.008 1.395,-6.43 4.187,-8.522 l -0.005,0.002 0.002,-0.002 -3.746,0.002 0,-7.177 26.135,0 0,7.175 -14.87,0 c -2.677,0 -5.522,2.075 -5.522,5.917 0,2.97 2.065,6.042 5.522,6.042 l 14.87,0 0,7.177 -16.201,0 C 4.362,10.614 0,6.314 0,0"/></g><g transform="translate(733.9208,202.2554)" id="g3453"><path inkscape:connector-curvature="0" id="path3455" style="fill:#ffffff;fill-opacity:1;fill-rule:nonzero;stroke:none" d="M 0,0 17.803,-6.488 0,-12.976 l 0,-8.197 26.125,10.753 0,7.863 L 0,8.197 0,0 Z"/></g><g transform="translate(741.7941,103.5138)" id="g3457"><path inkscape:connector-curvature="0" id="path3459" style="fill:#ffffff;fill-opacity:1;fill-rule:nonzero;stroke:none" d="m 0,0 c -1.641,1.222 -2.604,3.169 -2.604,5.52 0,2.587 1.477,4.549 3.656,5.562 L 6.254,-1.455 C 3.585,-1.798 1.497,-1.115 0,0 m 10.225,13.788 c 2.235,-3.021 2.769,-4.747 2.769,-7.501 0,-2.479 -0.769,-4.419 -2.119,-5.788 L 3.263,18.846 c -2.836,-0.4 -5.369,-1.476 -7.296,-3.133 -2.8,-2.411 -4.281,-5.979 -4.281,-10.322 0,-7.892 5.822,-13.842 13.51,-13.842 7.888,0 13.509,5.964 13.509,14.632 0,4.856 -2.302,9.822 -4.991,12.144 l -3.489,-4.537 z"/></g><g transform="translate(753.4649,94.3785)" id="g3461"><path inkscape:connector-curvature="0" id="path3463" style="fill:#ffffff;fill-opacity:1;fill-rule:nonzero;stroke:none" d="m 0,0 0,-16.311 -27.361,0 0,-7.274 33.95,0 L 6.589,0 0,0 Z"/></g><g transform="translate(739.6298,223.3383)" id="g3465"><path inkscape:connector-curvature="0" id="path3467" style="fill:#ffffff;fill-opacity:1;fill-rule:nonzero;stroke:none" d="m 0,0 c 0,-4.008 3.037,-6.917 7.358,-6.917 4.125,0 7.358,3.082 7.358,7.014 0,4.008 -3.121,6.917 -7.358,6.917 C 3.232,7.014 0,3.933 0,0 m 20.865,0 c 0,-7.849 -5.847,-13.998 -13.507,-13.998 -7.574,0 -13.508,6.192 -13.508,14.095 0,7.848 5.847,13.996 13.508,13.996 7.573,0 13.507,-6.19 13.507,-14.093"/></g><g transform="translate(739.6298,168.0856)" id="g3469"><path inkscape:connector-curvature="0" id="path3471" style="fill:#ffffff;fill-opacity:1;fill-rule:nonzero;stroke:none" d="m 0,0 c 0,-4.008 3.037,-6.917 7.358,-6.917 4.125,0 7.358,3.082 7.358,7.014 0,4.008 -3.121,6.918 -7.358,6.918 C 3.232,7.015 0,3.933 0,0 m 20.865,0 c 0,-7.849 -5.847,-13.997 -13.507,-13.997 -7.574,0 -13.508,6.191 -13.508,14.094 0,7.848 5.847,13.997 13.508,13.997 7.573,0 13.507,-6.191 13.507,-14.094"/></g><g transform="translate(756.2916,241.0995)" id="g3473"/></g></g></g></g><div xmlns="" id="divScriptsUsed" style="display: none"/><script xmlns="" id="globalVarsDetection" src="moz-extension://988954a5-4571-47b7-8811-234b4eee0106/js/wrs_env.js"/></svg>