<svg id="Artwork" xmlns="http://www.w3.org/2000/svg" viewBox="79 199 1000 198.3"><style>.st0{fill:#00c425}.st1{fill:#3af23a}.st2{fill:#006446}.st3{fill:#32323c}.st4{fill:#008a44}</style><path id="polygon3009" class="st0" d="M238.2 199.5H79.5v38.6L94 295.5l45.5 2.6 38.6-38.6 76.4-16.4-16.3-43.6z"/><path id="polygon3005" class="st1" d="M79.5 238.1v158.7h38.6l64.6-5.4-4.5-54.7-98.7-98.6z"/><path id="polygon3007" class="st2" d="M118.1 396.8h158.7v-38.6l-16.9-51.4-43.2-8.7-98.6 98.7z"/><path id="path3011" class="st3" d="M1035.8 277.8l-34.9 31.7 34.9 31.9v18.4h-1.1l-51.8-47v44.7h-15V222.3h15v84.5l51.5-46.9h1.4v17.9zm-676.9 79.7h76.6v-15.1h-61V226.7h-15.6v130.8zM488.5 260c-23.5 0-44.9 19.1-44.9 49.9 0 29.9 19.6 49.7 47.8 49.7 12.6 0 24.2-3.2 34.7-10.8v-16.1c-11 9.2-23.2 13.1-34.2 13.1-16.9 0-31.9-10.5-33.3-30.1H530c.2-1.9.6-6.1.6-7.7 0-31.5-19-48-42.1-48zm.1 13.7c13.3 0 26.8 8.6 27.3 28.9h-57.4c.9-15.7 13-28.9 30.1-28.9zM740.5 260c-12.7 0-21.9 6.7-27.4 16.6C708.5 266 700 260 686.4 260c-11.9 0-20.7 6.9-25.5 16.1h-.4l-1.8-14.2h-11.9v95.5H662v-60.3c0-11.7 7.3-22.6 20.5-22.6 12.9 0 18.6 7.6 18.6 21.4v61.6h15.2v-61.4c0-11.1 7.4-21.6 20.4-21.6 13.1 0 18.7 7.6 18.7 21.4v61.6h15.2v-63.7c.1-20-9.2-33.8-30.1-33.8zm91.7 0c-22.8 0-44.1 19.3-44.1 49.9 0 30.2 21.2 49.7 44.1 49.7 14.3 0 27.8-6.7 35-20h.2l1.8 17.9h12.4V262h-12.4l-1.8 17.9h-.2c-7.2-13.1-20.7-19.9-35-19.9zm2.8 14.2c18 0 31.7 14.5 31.7 35.6 0 21-13.6 35.6-31.7 35.6-17.7 0-31.7-14.3-31.7-35.4 0-21.5 14-35.8 31.7-35.8zm111.4-13.3c-8.3 0-20.9 3.9-27.4 16.3h-.2l-1.6-15.2H905v95.5h15.2v-55c0-22.1 17.9-29 32.6-26v-15.1c-2-.3-3.9-.5-6.4-.5zm-319.1-1.1h-1.2l-39.9 39.8-39.8-39.8h-1.2v19.3l30.7 30.7-30.7 30.5v19.5h1.2l39.6-40 40.1 40h1.2v-19.6l-31-30.7 31-31.2v-18.5zm408.5-35.4v-2.1h16.6v2.1h-7V241h-2.5v-16.7c-.1.1-7.1.1-7.1.1zm25-2.1l7.2 15.8 7.2-15.8h3.4V241h-2.4v-15.7L1069 241h-2.1l-7.1-15.7V241h-2.4v-18.8h3.4z"/><path id="polygon3003" class="st4" d="M276.8 358.2V199.5h-38.6l-60 60 98.6 98.7z"/></svg>