<?xml version="1.0" encoding="utf-8"?>
<!-- Generator: Adobe Illustrator 26.4.1, SVG Export Plug-In . SVG Version: 6.00 Build 0)  -->
<svg version="1.0" id="katman_1" xmlns="http://www.w3.org/2000/svg" xmlns:xlink="http://www.w3.org/1999/xlink" x="0px" y="0px"
	 viewBox="0 0 841.89 595.28" style="enable-background:new 0 0 841.89 595.28;" xml:space="preserve">
<style type="text/css">
	.st0{fill:#E5232E;}
</style>
<g>
	<polygon class="st0" points="494.97,399.78 494.97,423.75 407.66,423.75 407.66,160.12 431.63,160.12 431.63,399.78 	"/>
	<path class="st0" d="M673,294.5C673,433.95,559.95,547,420.5,547S168,433.95,168,294.5S281.05,42,420.5,42
		c3.73,0,7.45,0.09,11.13,0.24v25.71c-3.68-0.19-7.4-0.27-11.13-0.27c-125.27,0-226.82,101.55-226.82,226.82
		S295.23,521.32,420.5,521.32c120.96,0,219.8-94.68,226.46-213.98H498.39v-23.97h174.37C672.91,287.05,673,290.77,673,294.5z"/>
	<circle class="st0" cx="325.49" cy="199.49" r="39.37"/>
</g>
</svg>
