<?xml version="1.0" encoding="UTF-8" standalone="no"?>
<!-- Created with Inkscape (http://www.inkscape.org/) -->

<svg
   xmlns:svg="http://www.w3.org/2000/svg"
   xmlns="http://www.w3.org/2000/svg"
   version="1.1"
   width="318.79431"
   height="66.860725"
   id="svg2"
   xml:space="preserve"><defs
     id="defs6"><clipPath
       id="clipPath18"><path
         d="M 0,792 612,792 612,0.06 0,0.06 0,792 z"
         id="path20" /></clipPath><clipPath
       id="clipPath106"><path
         d="m 326.736,308.403 285.264,0 0,-208.404 -285.264,0 0,208.404 z"
         id="path108" /></clipPath></defs><g
     transform="matrix(1.25,0,0,-1.25,-577.68875,879.18875)"
     id="g12"><path
       d="m 708.61507,699.39523 2.345,0 c 0.55309,0 0.9574,-0.1132 1.20646,-0.33962 0.25876,-0.21994 0.38814,-0.51428 0.38814,-0.8636 l -0.20054,-0.66631 -0.57897,-0.44312 c -0.24582,-0.097 -0.59515,-0.14232 -1.04797,-0.14232 l -2.11212,0 0,2.45497 z m 0,-6.66626 0,3.33151 1.13854,0 0.54662,-0.0356 0.44636,-0.1973 0.51429,-0.50134 c 0.17466,-0.24259 0.41724,-0.58544 0.70835,-1.03504 l 0.97681,-1.56225 1.24204,0 -1.30026,2.04743 c -0.24906,0.40107 -0.52722,0.72452 -0.80862,0.99945 l -0.59838,0.3655 c 0.71482,0.1035 1.23881,0.33638 1.59136,0.69864 0.32669,0.36873 0.50135,0.81186 0.50135,1.34878 0,0.41078 -0.097,0.78598 -0.30404,1.12883 -0.20378,0.34286 -0.48518,0.57574 -0.8345,0.71806 -0.34285,0.13261 -0.85067,0.19407 -1.5105,0.19407 l -3.29593,0 0,-7.50076 0.98651,0"
       id="path54"
       style="fill:#231f20;fill-opacity:1;fill-rule:nonzero;stroke:none" /><path
       d="m 704.59461,696.53272 c 0,3.18273 2.58759,5.76707 5.77031,5.76707 3.18597,0 5.77355,-2.58434 5.77355,-5.76707 0,-3.18273 -2.58758,-5.78002 -5.77355,-5.78002 -3.18272,0 -5.77031,2.59729 -5.77031,5.78002 z m -1.04797,0 c 0,-3.7617 3.05982,-6.82152 6.81828,-6.82152 3.76494,0 6.82152,3.05982 6.82152,6.82152 0,3.75846 -3.05658,6.81828 -6.82152,6.81828 -3.75846,0 -6.81828,-3.05982 -6.81828,-6.81828"
       id="path56"
       style="fill:#231f20;fill-opacity:1;fill-rule:nonzero;stroke:none" /><path
       d="m 628.61023,675.16251 c 0,-9.93308 -4.55738,-17.96753 -10.18537,-17.96753 -5.61829,0 -10.18214,8.03445 -10.18214,17.96753 0,9.92015 4.56385,17.9643 10.18214,17.9643 5.62799,0 10.18537,-8.04415 10.18537,-17.9643"
       id="path58"
       style="fill:#0079c2;fill-opacity:1;fill-rule:nonzero;stroke:none" /><path
       d="m 623.05016,700.27501 c 11.08456,-2.29971 19.45539,-12.68886 19.45539,-25.16425 0,-12.63064 -8.58107,-23.12005 -19.8694,-25.24834 l 22.05915,0 0,50.41259 -21.64514,0"
       id="path60"
       style="fill:#0079c2;fill-opacity:1;fill-rule:nonzero;stroke:none" /><path
       d="m 594.35063,675.11076 c 0,12.47539 8.36436,22.86454 19.45863,25.16425 l -21.67101,0 0,-50.41259 22.07531,0 c -11.28186,2.12829 -19.86293,12.6177 -19.86293,25.24834"
       id="path62"
       style="fill:#0079c2;fill-opacity:1;fill-rule:nonzero;stroke:none" /><path
       d="m 659.36366,700.20709 14.09586,-28.73188 0,28.73188 -14.09586,0"
       id="path64"
       style="fill:#0079c2;fill-opacity:1;fill-rule:nonzero;stroke:none" /><path
       d="m 658.24776,649.86242 14.78157,0 -14.78157,30.83752 0,-30.83752"
       id="path66"
       style="fill:#0079c2;fill-opacity:1;fill-rule:nonzero;stroke:none" /><path
       d="m 686.98611,649.86242 9.54171,0 0,50.41259 -9.54171,0 0,-50.41259 z"
       id="path68"
       style="fill:#0079c2;fill-opacity:1;fill-rule:nonzero;stroke:none" /><path
       d="m 495.48878,649.86242 14.02146,0 0,50.41259 -14.02146,0 0,-50.41259 z"
       id="path70"
       style="fill:#0079c2;fill-opacity:1;fill-rule:nonzero;stroke:none" /><path
       d="m 549.00323,700.26854 -37.10271,0 0,-9.17945 11.463,0 0,-41.22667 14.15731,0 0,41.2202 11.4824,0 0,9.18592"
       id="path72"
       style="fill:#0079c2;fill-opacity:1;fill-rule:nonzero;stroke:none" /><path
       d="m 493.10496,649.87536 0,9.17621 -16.79018,0 0,41.22344 -14.16378,0 0,-50.39965 30.95396,0"
       id="path74"
       style="fill:#0079c2;fill-opacity:1;fill-rule:nonzero;stroke:none" /><path
       d="m 589.78678,649.87536 0,9.20532 -24.34916,0 0,11.33362 21.56751,0 0,9.20533 -21.56751,0 0,11.45652 24.34916,0 0,9.19563 -38.3965,0 0,-50.39642 38.3965,0"
       id="path76"
       style="fill:#0079c2;fill-opacity:1;fill-rule:nonzero;stroke:none" /></g></svg>