<svg xmlns="http://www.w3.org/2000/svg" viewBox="0 0 480.38 116.7">
  <title>logo</title>
  <polygon points="20.17 37.66 0 115.08 8.59 115.08 26.15 43.95 26.41 43.95 41.37 115.08 50.22 115.08 101.61 45.04 101.87 45.04 82.75 115.08 91.47 115.08 111.37 37.66 98.49 37.66 47.49 107.16 33.05 37.66 20.17 37.66" style="fill: #676867"/>
  <polygon points="119.73 59.13 105.28 115.08 113.48 115.08 127.92 59.13 119.73 59.13" style="fill: #676867"/>
  <polygon points="139.7 59.12 125.43 115.08 133.62 115.08 138.83 94.8 153.14 84.83 170.97 115.08 179.94 115.08 159.65 80.71 191.39 59.13 180.46 59.13 141.17 86.45 140.91 86.24 147.91 59.12 139.7 59.12" style="fill: #676867"/>
  <path d="M196.22,59.13l-14.44,55.95H190l7.55-29.27c2.73-10.52,10.54-20.38,25.24-20.6,1.56,0,3.12.11,4.68.11l1.82-6.83c-1.43-.11-3-.11-4.42-.11-12-.11-19.13,5.64-24.33,13.66h-.26l3.38-12.9Z" style="fill: #676867;fill-rule: evenodd"/>
  <path d="M286.14,79.41c0-13.77-10.93-21.9-26.54-21.9-23.94,0-37.47,17.57-37.47,35.89,0,14,9.5,23.31,26.8,23.31,24.85,0,37.21-18.43,37.21-37.3m-8.2,1.41c0,13-9.5,30.14-27.45,30.14-13.66,0-20.17-7.37-20.17-18.21,0-13.12,9.89-29.49,27.84-29.49,13.14,0,19.78,7.16,19.78,17.56" style="fill: #676867;fill-rule: evenodd"/>
  <polygon points="364.8 59.09 370.13 37.65 289.98 37.65 284.68 59.12 310.39 59.12 310.39 59.13 339.06 59.13 339.06 59.12 364.8 59.09" style="fill: #676867;fill-rule: evenodd"/>
  <polygon points="307.85 69.38 296.49 115.06 325.11 115.06 336.5 69.39 336.5 69.37 307.85 69.37 307.85 69.38" style="fill: #676867;fill-rule: evenodd"/>
  <path d="M369.4,69.38l-11.31,45.68h25.76l11.31-45.68Zm28.35-10.29,5.35-21.44H377.34l-5.39,21.47Z" style="fill: #676867;fill-rule: evenodd"/>
  <polygon points="413.77 37.65 394.51 115.06 420.27 115.06 424.3 99.02 430.16 94.68 439.27 115.06 467.24 115.06 450.06 81.45 480.38 58.79 449.55 58.79 430.55 75.27 430.29 75.27 439.53 37.65 413.77 37.65" style="fill: #676867;fill-rule: evenodd"/>
  <path d="M130.8,0c3.15,21.86,14.88,35.13,38.79,36.22C147.06,44.84,123.84,24.58,130.8,0" style="fill: #676867;fill-rule: evenodd"/>
  <path d="M118.3,3.85c.27-.06.3.12.32.32.76,13.94,6.64,24.51,14.43,31.74s18.25,13.08,33,12.82c-27.62,11-56.65-15.43-47.76-44.88" style="fill: #676867;fill-rule: evenodd"/>
<div xmlns="" id="divScriptsUsed" style="display: none"/><script xmlns="" id="globalVarsDetection" src="moz-extension://988954a5-4571-47b7-8811-234b4eee0106/js/wrs_env.js"/></svg>