<svg xmlns="http://www.w3.org/2000/svg" width="2500" height="584" viewBox="0 0 1886.832 440.865"><g fill="#005DAA"><path d="M1603.571 440.835l120.68-332.82s-90.207 0-180.424 18.104l-114.084 314.715h173.828v.001zm-20.59-422.726l-23.162 63.932c90.762-18.13 180.41-18.13 180.41-18.13L1763.397 0c.008.011-90.194.011-180.416 18.109zM931.614 422.719c61.294 11.871 124.617 18.115 189.4 18.115h.021c102.809 0 145.068-10.227 198.406-37.449 45.443-23.244 75.313-47.902 88.152-90.371 11.004-36.393-3.057-70.74-35.672-92.595-32.629-21.85-64.232-32.179-101.754-52.88-32.83-18.093-50.725-31.731-48.535-50.709 4.605-39.815 47.168-52.92 105.818-52.92 57.158 0 113.082 5.175 167.342 15.065l22.088-60.867C1455.586 6.252 1392.235 0 1327.451 0c-102.814 0-145.055 10.226-198.4 37.465-45.457 23.235-75.324 47.893-88.166 90.385-10.996 36.386 3.057 70.712 35.701 92.563 32.602 21.847 64.189 32.189 101.75 52.919 32.807 18.086 50.73 31.713 48.498 50.689-4.613 39.828-47.17 52.877-105.797 52.877h-.029c-57.123 0-113.055-5.158-167.334-15.068l-22.06 60.889zM865.47 440.835l111.885-308.6c9.096-25.018 9.684-70.1-15.447-94.741C936.757 12.759 906.805.01 851.448.01c-55.353-.018-100.295 14.517-136.407 28.668-19.416 7.561-48.241 22.348-80.851 42.094-3.15-12.511-8.896-24.242-18.086-33.271C590.937 12.767 560.988.018 505.643.018 450.269.003 405.365 14.535 369.229 28.686c-19.407 7.56-48.24 22.347-80.85 42.093-3.145-12.511-8.896-24.241-18.086-33.271C245.133 12.775 215.19.026 159.824.026L-.001 440.864h173.85l79.924-220.445c14.486-39.979 53.912-78.051 75.555-94.774 27.532-21.263 150.738-55.112 117.175 37.469L345.818 440.835h173.857l79.917-220.46c14.501-39.965 53.919-78.014 75.546-94.729 27.532-21.263 150.739-55.112 117.168 37.469l-100.684 277.72H865.47z"/><g><path d="M1845.68 6.449h-10.41v26.838h-8.58V6.449h-10.4V.01h29.385v6.439h.005zM1886.832 33.288h-8.566v-22.28l-6.156 14.45h-5.891l-6.148-14.45v22.28h-8.064V.011h9.91l7.477 16.684L1876.83.011h10.006v33.277h-.004z"/></g></g></svg>