<svg version="1.2" xmlns="http://www.w3.org/2000/svg" viewBox="0 0 1509 272" width="1509" height="272">
	<title>netapp-svg</title>
	<style>
		.s0 { fill: #000000 } 
		.s1 { fill: #010101 } 
	</style>
	<path id="Layer" class="s0" d="m265.7 0v221.2h-103.3v-132.7h-59.1v132.7h-103.3v-221.2z"/>
	<path id="Layer" fill-rule="evenodd" class="s1" d="m383.7 0h44.7l102.9 136.8v-136.8h47.7v221.1h-41.1l-106.4-139.6v139.6h-47.8zm218.6 138v-0.6c0-48 34.2-87.5 83.2-87.5 56.2 0 81.9 43.6 81.9 91.3 0 3.7-0.3 8.1-0.6 12.5h-117.1c4.7 21.6 19.7 32.9 41.1 32.9 16 0 27.6-5 40.8-17.2l27.3 24.1c-15.7 19.5-38.3 31.4-68.7 31.4-50.6 0-88-35.4-88-86.9zm118.7-14.1c-2.8-21.4-15.4-35.8-35.4-35.8-19.9 0-32.8 14.2-36.5 35.8zm76.2-30.1h-20v-40.8h20v-42.9h47.8v42.9h39.5v40.8h-39.5v71.8c0 11 4.7 16.4 15.3 16.4 8.8 0 16.7-2.3 23.6-6.1v38.3c-10 6-21.7 9.7-37.7 9.7-29.2 0-48.9-11.6-48.9-50.5zm337.9-40.7h47.7v24.1c11.6-15.7 27.6-27.2 52.4-27.2 39.3 0 76.6 30.7 76.6 86.8v0.6c0 56.2-36.7 86.9-76.6 86.9-25.4 0-41.1-11.6-52.4-25.1v72.2h-47.7zm128.9 83.7c0-27.9-18.8-46.4-41.1-46.4-22.2 0-40.8 18.5-40.8 46.4v0.6c0 27.9 18.5 46.5 40.8 46.5 22.3 0 41.1-18.3 41.1-46.5zm67.2-83.7h47.7v24.1c11.7-15.7 27.7-27.3 52.5-27.3 39.2 0 76.6 30.8 76.6 86.9v0.6c0 56.2-36.8 86.9-76.6 86.9-25.5 0-41.2-11.6-52.5-25.1v72.2h-47.7zm129.1 83.7c0-27.9-18.9-46.4-41.2-46.4-22.2 0-40.8 18.5-40.8 46.4v0.6c0 27.9 18.6 46.4 40.8 46.4 22.3 0 41.2-18.2 41.2-46.4zm-472.5-136.8h43.5l91.8 221.2h-50.3l-20.3-49.3h-87.1l-20.1 49.3h-49.3zm50.4 129.2l-29.2-71.3-29.3 71.3z"/>
<div xmlns="" id="divScriptsUsed" style="display: none"/><script xmlns="" id="globalVarsDetection" src="moz-extension://988954a5-4571-47b7-8811-234b4eee0106/js/wrs_env.js"/></svg>