<?xml version="1.0" encoding="UTF-8"?>
<svg id="LOGO" xmlns="http://www.w3.org/2000/svg" viewBox="0 0 1250 703">
  <defs>
    <style>
      .cls-1 {
        stroke-width: 0px;
      }
    </style>
  </defs>
  <g>
    <g>
      <path class="cls-1" d="m937.23679,303.11614h27.91769v14.13504c6.78925-9.17727,16.16386-15.96149,30.65785-15.96149,22.95664,0,44.79394,17.99106,44.79394,50.85947v.36146c0,32.87722-21.47256,50.87005-44.79394,50.87005-14.87987,0-24.06516-6.79303-30.65785-14.68781v42.22415h-27.91769v-127.80088Zm75.46941,49.39449v-.36146c0-16.33679-11.02414-27.1716-24.06195-27.1716-13.01667,0-23.86533,10.83481-23.86533,27.1716v.36146c0,16.35089,10.84865,27.19451,23.86533,27.19451,13.03782,0,24.06195-10.66465,24.06195-27.19451Z"/>
      <g>
        <path class="cls-1" d="m383.09352,272.09506h26.09678l60.21724,80.05411v-80.05411h27.91087v129.46094h-24.04933l-62.24403-81.73808v81.73808h-27.93153v-129.46094Z"/>
        <path class="cls-1" d="m510.8881,352.88796v-.37732c0-28.09112,20.01963-51.22094,48.67408-51.22094,32.8528,0,47.90434,25.52262,47.90434,53.43502,0,2.19646-.16487,4.78082-.37203,7.34353h-68.48907c2.77566,12.66679,11.57133,19.28966,24.0672,19.28966,9.36807,0,16.15002-2.94053,23.86885-10.11063l15.95695,14.14058c-9.16443,11.38934-22.39177,18.36108-40.18727,18.36108-29.57195,0-51.42306-20.74381-51.42306-50.86098Zm69.40129-8.26682c-1.64244-12.50141-8.98924-20.94368-20.7272-20.94368-11.58691,0-19.12,8.29803-21.31445,20.94368h42.04165Z"/>
        <path class="cls-1" d="m624.89728,373.61944v-46.63671h-11.74702v-23.86659h11.74702v-25.14001h27.89277v25.14001h23.15675v23.86659h-23.15675v42.05776c0,6.42603,2.77188,9.55585,9.00311,9.55585,5.13647,0,9.72573-1.284,13.78161-3.50865v22.41243c-5.88028,3.49808-12.6942,5.69782-22.06179,5.69782-17.05871,0-28.61569-6.79982-28.61569-29.5785Z"/>
        <path class="cls-1" d="m822.51376,303.11614h27.90359v14.13504c6.78875-9.17727,16.14624-15.96149,30.66138-15.96149,22.95991,0,44.79717,17.99106,44.79717,50.85947v.36146c0,32.87722-21.4758,50.87005-44.79717,50.87005-14.86929,0-24.06192-6.79303-30.66138-14.68781v42.22415h-27.90359v-127.80088Zm75.44093,49.39449v-.36146c0-16.33679-11.02029-27.1716-24.04052-27.1716-13.03077,0-23.8618,10.83481-23.8618,27.1716v.36146c0,16.35089,10.83103,27.19451,23.8618,27.19451,13.02023,0,24.04052-10.66465,24.04052-27.19451Z"/>
        <path class="cls-1" d="m736.42051,272.08298h25.40912l53.70911,129.47302h-29.46142l-11.83465-28.84878h-50.9584l-11.75357,28.84878h-28.81606l53.70586-129.47302Zm29.42269,75.68031l-17.06903-41.71896-17.0869,41.71896h34.15593Z"/>
      </g>
    </g>
    <polygon class="cls-1" points="171.9134 272.10085 171.9134 401.556 232.32393 401.556 232.32393 323.88185 266.84511 323.88185 266.84511 401.556 327.25666 401.556 327.25666 272.10085 171.9134 272.10085"/>
  </g>
  <path class="cls-1" d="m1045.64355,317.43972c0-2.27198.43194-4.38185,1.29205-6.34095.87093-1.9591,2.03637-3.6549,3.52476-5.09446,1.47811-1.43603,3.20886-2.5685,5.17853-3.38103,1.96262-.82487,4.05135-1.2324,6.27-1.2324,2.1874,0,4.25873.40753,6.23167,1.2324,1.96967.81254,3.68284,1.945,5.15034,3.38103,1.47102,1.43956,2.63294,3.13536,3.49686,5.09446.85982,1.9591,1.29885,4.06897,1.29885,6.34095,0,2.32735-.43903,4.47952-1.29885,6.44214-.86392,1.97697-2.02584,3.68838-3.49686,5.137-1.4675,1.4534-3.18067,2.58385-5.15034,3.40344-1.97294.82688-4.04426,1.23063-6.23167,1.23063-2.21865,0-4.30738-.40375-6.27-1.23063-1.96967-.81958-3.70042-1.95003-5.17853-3.40344-1.48839-1.44862-2.65383-3.16003-3.52476-5.137-.86011-1.96262-1.29205-4.11478-1.29205-6.44214m2.93499,0c0,1.9815.34409,3.81625,1.01466,5.50123.67762,1.67843,1.61148,3.13737,2.81543,4.37304,1.18004,1.23944,2.60198,2.21031,4.2132,2.91586,1.62557.70052,3.38783,1.05166,5.28705,1.05166,1.86772,0,3.61283-.35114,5.21726-1.05166,1.61827-.70556,3.01529-1.67642,4.20565-2.91586,1.18687-1.23567,2.12749-2.69461,2.8054-4.37304.67758-1.68498,1.01441-3.51973,1.01441-5.50123,0-1.93141-.33683-3.72538-1.01441-5.39475-.6779-1.66585-1.61853-3.1127-2.8054-4.33075-1.19036-1.22711-2.58738-2.1874-4.20565-2.8912-1.60443-.70405-3.34953-1.05519-5.21726-1.05519-1.89922,0-3.66148.35114-5.28705,1.05519-1.61123.70379-3.03316,1.66409-4.2132,2.8912-1.20395,1.21805-2.13781,2.6649-2.81543,4.33075-.67057,1.66937-1.01466,3.46334-1.01466,5.39475Zm7.03543-9.36555h7.28513c2.23951,0,3.90061.44931,4.98521,1.33736,1.06727.89208,1.61853,2.24555,1.61853,4.05714,0,1.69907-.4775,2.94204-1.43603,3.73041-.94066.79542-2.12019,1.26008-3.53156,1.40255l5.39249,8.32446h-3.14564l-5.13628-8.11025h-3.10364v8.11025h-2.9282v-18.85193Zm2.9282,8.37354h3.07193c.63209,0,1.24297-.01938,1.84331-.06318.60714-.04934,1.14782-.16689,1.59361-.36851.47071-.20389.83217-.51098,1.10934-.92732.27031-.41583.40749-1.00057.40749-1.75017,0-.63029-.11956-1.1375-.37581-1.50601-.23158-.3738-.5583-.66553-.94066-.86892-.38987-.20036-.83569-.3373-1.34135-.40551-.49164-.06696-1.00387-.11075-1.48843-.11075h-3.87943v6.00038Z"/>
<div xmlns="" id="divScriptsUsed" style="display: none"/><script xmlns="" id="globalVarsDetection" src="moz-extension://988954a5-4571-47b7-8811-234b4eee0106/js/wrs_env.js"/></svg>