<svg height="372" viewBox=".5 .5 199 28.763" width="2500" xmlns="http://www.w3.org/2000/svg"><path d="m.5 28.461v-27.127h7.363l12.401 16.664v-16.664h7.364v27.126h-7.364l-12.4-16.785v16.785zm35.847 0v-27.127h18.02v6.006h-10.657v4.554h10.27v5.91h-10.27v4.65h10.658v6.007zm37.785 0h-7.557v-21.12h-7.17v-6.008h21.896v6.007h-7.17zm25.093-15.114h14.532c0 10.397-5.467 15.916-14.347 15.916-8.595 0-15.047-5.25-15.047-14.055 0-9.088 5.853-14.708 14.877-14.708 10.203 0 12.99 7.596 12.99 7.596l-6.99 2.782s-1.638-4.282-6.242-4.282c-3.37 0-6.942 2.544-6.942 8.491 0 4.98 3.194 8.418 7.305 8.418 3.677 0 5.49-2.1 5.774-4.732h-5.91zm53.383-12.011-9.93 27.128h7.605l1.695-5.038h9.834l1.696 5.038h7.653l-10.027-27.128zm4.263 7.024 3.246 9.737h-6.419zm18.796-7.024v27.128h7.363v-10.464h.581l6.782 10.464h9.107l-8.55-11.154c2.953-.465 6.188-2.721 6.188-7.57 0-4.761-3-8.404-10.306-8.404zm7.363 5.426h1.937c3.814 0 4.748 1.39 4.748 3.39 0 2.408-1.54 3.392-4.748 3.392h-1.937zm-62.781 21.699v-27.127h18.02v6.006h-10.657v4.554h10.27v5.91h-10.27v4.65h10.657v6.007z" fill="#6b0e89"/></svg>