<svg xmlns="http://www.w3.org/2000/svg" viewBox="0 0 345.387 84.594"><path d="M0 0h345.387v84.594H0z" style="fill:none"/><path d="M128.665 30.71h-10.804l15.124 18.003-15.117 17.998h10.797l15.124-17.998-15.124-18.002z" style="fill:#0c8ce2"/><path d="M318.404 62.754v-.687h3.611v.687h-1.4v3.84h-.812v-3.84h-1.4Zm4.238-.687v4.526h.787v-3.116h.041l1.251 3.103h.589l1.251-3.096h.041v3.11h.787v-4.527h-1.002l-1.345 3.279h-.053l-1.344-3.28h-1.003ZM304.952 66.595V30.571h8.645v8.66h.047l.028-.113c1.965-8.093 8.5-8.966 11.037-8.966 1 0 1.866.103 2.648.314v7.263a19.892 19.892 0 0 0-2.648-.19c-6.958 0-11.112 4.598-11.112 12.3v16.754h-8.645v.002Zm-21.35-36.723c10.737 0 16.894 6.666 16.894 18.29 0 1.231-.07 1.9-.186 2.577h-26.226l.014.159c.545 6.622 3.769 9.842 9.853 9.842 4.517 0 7.25-1.714 8.35-5.238h7.667c-1.88 7.605-7.635 11.79-16.227 11.79-4.176 0-17.802-1.354-17.802-18.78 0-11.673 6.602-18.642 17.662-18.642v.002Zm8.743 15.71-.007-.151c-.236-5.726-3.42-9.01-8.877-9.01s-8.671 3.113-9.294 9.001l-.018.163h18.195l.001-.002Zm-39.508 21.011h8.646V17.997h-8.646v48.596Zm-21.278-30.52c-4.71 0-7.2 1.886-7.2 5.454v.622h-8.088v-1.46c0-7.28 5.117-10.819 15.497-10.819s15.008 3.617 15.008 11.726v24.996h-8.297v-6.496h-.034c-.277.727-3.554 7.193-12.614 7.193-7.211 0-11.517-3.757-11.517-10.05 0-7.727 6.29-9.628 12.444-10.47l6.775-.908c3.672-.504 4.736-1.21 4.736-3.148v-.768c0-4.007-2.133-5.873-6.712-5.873h.002Zm-2.797 25.017c2.631 0 5.089-.825 6.92-2.321 1.618-1.324 2.585-3.042 2.585-4.6v-5.152l-.273.468c-.507.87-2.613 1.253-4.155 1.465l-5.795.908c-3.42.505-5.084 2.015-5.084 4.614 0 2.977 2.06 4.616 5.803 4.616l-.001.002Zm-33.034-31.22c-4.822 0-9.207 1.562-12.35 4.397-3.66 3.3-5.592 8.273-5.592 14.384s1.933 11.052 5.591 14.313c3.13 2.79 7.516 4.328 12.351 4.328 4.42 0 14.808-1.377 16.111-14.094h-7.819c-.887 4.479-3.776 6.845-8.363 6.845-6.126 0-9.784-4.26-9.784-11.392s3.658-11.531 9.784-11.531c4.606 0 7.497 2.342 8.363 6.775h7.816c-1.458-12.197-10.708-14.025-16.108-14.025ZM144.56 55.433c.067 3.852 1.48 6.837 4.2 8.877 2.64 1.98 6.37 2.982 11.086 2.982 9.88 0 15.777-4.2 15.777-11.238 0-5.303-3.174-8.404-10.292-10.054l-6.913-1.535c-2.995-.57-4.515-1.96-4.515-4.125 0-1.819 1.068-3.988 6.152-3.988 4.389 0 6.696 1.688 7.25 5.308h7.127c-.204-7.494-5.462-11.788-14.446-11.788s-14.45 4.066-14.45 10.608c0 5.28 3.394 8.734 10.084 10.263l6.703 1.467c3.025.605 4.375 1.855 4.375 4.053 0 2.932-2.384 4.548-6.712 4.548-4.628 0-7.23-1.809-7.741-5.378h-7.685ZM91.399 37.26v-6.69h6.076v-9.29h8.646v9.29h7.123v6.69h-7.123v17.887c0 3.023.831 5.035 4.896 5.035.79 0 1.42 0 2.647-.124v6.43c-1.491.394-3.179.594-5.022.594-7.41 0-11.167-3.547-11.167-10.54V37.26h-6.076Zm-18.053-7.388c10.737 0 16.895 6.666 16.895 18.29 0 1.231-.07 1.9-.187 2.577H63.827l.014.159c.545 6.622 3.769 9.842 9.854 9.842 4.516 0 7.25-1.714 8.349-5.238h7.667c-1.88 7.605-7.635 11.79-16.227 11.79-4.176 0-17.802-1.354-17.802-18.78 0-11.673 6.602-18.642 17.662-18.642l.002.002Zm8.742 15.71-.006-.151c-.237-5.726-3.42-9.01-8.877-9.01s-8.672 3.113-9.295 9.001l-.017.163h18.194l.001-.002ZM42.791 66.594h8.645V43.902c0-4.646-1.213-8.239-3.606-10.679-2.152-2.193-5.226-3.351-8.888-3.351-7.862 0-11.63 5.27-12.249 8.057l-.026.116h-.024v-7.472h-8.646v36.024h8.646V46c0-5.646 3.213-9.016 8.598-9.016 4.939 0 7.55 3.118 7.55 9.016v20.597-.004Z"/></svg>