<?xml version="1.0" encoding="UTF-8"?>
<svg id="c" xmlns="http://www.w3.org/2000/svg" viewBox="0 0 1250 703"><defs><style>.d{fill:#131313;}</style></defs><path class="d" d="M572.12776,313.75585h-50.14289c-.04691,0-.07507.03754-.07507.07508v97.57359c0,1.03233-.84462,1.87696-1.87696,1.87696h-24.22212c-1.03233,0-1.87696-.84462-1.87696-1.87696v-97.57359c0-.04692-.03755-.07508-.07507-.07508h-50.00212c-1.03233,0-1.87696-.84463-1.87696-1.87696v-21.84778c0-1.03233.84462-1.87696,1.87696-1.87696h128.27121c1.03233,0,1.87696.84463,1.87696,1.87696v21.84778c-.00003,1.03233-.83529,1.87696-1.87699,1.87696ZM928.37411,288.15416h-24.22212c-1.0323,0-1.87696.84463-1.87696,1.87696v121.38278c0,1.03233.84465,1.87696,1.87696,1.87696h24.22212c1.0323,0,1.87696-.84462,1.87696-1.87696v-121.38278c0-1.04171-.8446-1.87696-1.87696-1.87696ZM1124.1126,410.2502c.54428.46924.74143,1.2388.48803,1.91449s-.9009,1.12617-1.62355,1.12617h-37.30451c-.41293,0-.81647-.15016-1.13558-.42231l-40.98333-35.4651c-.37541-.32847-.60064-.80709-.60064-1.30448,0-.50678.21583-.97602.60064-1.30448l18.64756-16.14183c.64755-.56309,1.61416-.56309,2.26171,0l59.64968,51.59755ZM1062.21988,342.79237c.32844.28154.73204.42232,1.13558.42232s.80708-.14077,1.13558-.42232l59.63095-51.60693c.54428-.46924.74143-1.23879.48803-1.9145-.25341-.6757-.9009-1.12617-1.62355-1.12617h-37.30451c-.41293,0-.81647.15016-1.13558.42232l-40.98333,35.4651c-.37541.32847-.60064.80709-.60064,1.30448,0,.50678.21583.97602.60064,1.30448l18.65684,16.15121ZM1054.41174,350.72252c0-.50678-.21583-.97602-.60064-1.30448l-70.30139-60.84155c-.30971-.27216-.71325-.42232-1.13558-.42232h-37.30451c-.72265,0-1.3702.45047-1.62355,1.12617-.25335.6757-.05631,1.43587.48803,1.9145l68.72475,59.47137c.03752.02815.03752.08446,0,.122l-68.72475,59.47137c-.54433.46924-.74138,1.2388-.48803,1.91449s.90096,1.12617,1.62355,1.12617h37.30451c.41293,0,.81647-.15016,1.13558-.42231l70.30144-60.84155c.38475-.33784.60058-.81646.60058-1.31386ZM153.25671,328.82781c0-.06569.07508-.10323.122-.06569,3.67884,3.29406,87.40048,78.25971,91.43594,81.43175,3.56622,2.79666,7.68614,4.53285,13.05424,3.74453,6.94473-.84462,14.58395-6.77581,14.58395-16.76122v-107.14607c0-1.03233-.84462-1.87696-1.87696-1.87696h-24.22212c-1.03232,0-1.87696.84463-1.87696,1.87696v82.50164c0,.06569-.07508.10323-.122.06569-3.67883-3.29406-87.40048-78.25971-91.43594-81.43176-3.56622-2.79667-7.68614-4.53285-13.05423-3.74453-6.94474.84462-14.58395,6.78519-14.58395,16.76121v107.22115c0,1.03233.84463,1.87696,1.87696,1.87696h24.22213c1.03233,0,1.87696-.84462,1.87696-1.87696v-82.57671ZM768.10081,328.82781c0-.06569.07509-.10323.12201-.06569,3.67882,3.29406,87.40049,78.25971,91.43594,81.43175,3.56621,2.79666,7.68614,4.53285,13.05421,3.74453,6.94476-.84462,14.58393-6.77581,14.58393-16.76122v-107.14607c0-1.03233-.84465-1.87696-1.87696-1.87696h-24.22212c-1.0323,0-1.87696.84463-1.87696,1.87696v82.50164c0,.06569-.07509.10323-.12201.06569-3.67882-3.29406-87.40049-78.25971-91.43594-81.43176-3.56621-2.79667-7.68614-4.53285-13.05421-3.74453-6.94476.84463-14.58393,6.7852-14.58393,16.76122v107.22115c0,1.03233.84465,1.87696,1.87696,1.87696h24.22212c1.0323,0,1.87696-.84462,1.87696-1.87696v-82.57672ZM365.26835,415.76845c15.09072-.03753,31.90826-.89155,42.23152-6.98228,13.73934-8.10845,20.4213-19.37019,20.4213-34.414l.00939-84.34105c0-1.03233-.84462-1.87696-1.87696-1.87696h-24.45674c-1.03233,0-1.87696.84463-1.87696,1.87696l-.00939,82.69871c-.23462,16.46091-20.62776,16.62984-35.3431,16.62984h-13.37332c-14.71533,0-35.09908-.15954-35.3431-16.62984l-.00938-82.69871c0-1.03233-.84462-1.87696-1.87696-1.87696h-24.45674c-1.03233,0-1.87696.84463-1.87696,1.87696l.00938,84.34105c0,15.04381,6.68196,26.30555,20.42128,34.414,10.32326,6.09073,27.14079,6.95413,42.23152,6.98228h15.17519ZM728.59084,410.46604c.38475.54432.43172,1.25756.1314,1.85818-.30032.59125-.9103.96663-1.57664.96663h-29.9093c-.60064,0-1.1637-.29093-1.51094-.78832l-17.44634-24.94476c-.01879-.01877-.03752-.03754-.0657-.03754h-89.68099c-.02815,0-.04691.00939-.0657.03754l-17.51201,24.97291c-.32847.47862-.87278.76017-1.44526.76017h-29.9093c-.66631,0-1.27632-.37539-1.57664-.96663s-.25338-1.31386.1314-1.85818c0,0,76.06366-108.57256,80.75605-115.05744s9.41297-8.17415,14.4995-8.17415c5.60269,0,9.92912,2.09281,14.09596,7.67675l81.08449,115.55483ZM660.06319,361.79656l-26.61529-37.6799c-.02818-.04692-.09382-.04692-.1314,0l-26.62463,37.6799c-.03752.05631,0,.122.0657.122h53.23986c.06576,0,.10328-.07507.06576-.122Z"/><div xmlns="" id="divScriptsUsed" style="display: none"/><script xmlns="" id="globalVarsDetection" src="moz-extension://988954a5-4571-47b7-8811-234b4eee0106/js/wrs_env.js"/></svg>