<svg id="Laag_1" data-name="Laag 1" xmlns="http://www.w3.org/2000/svg" viewBox="0 0 200 100"><defs><style>.cls-1{fill:#232223}</style></defs><path class="cls-1" d="M43.47 50.31h.08v-.09z"/><path class="cls-1" d="M21.48 31.76c-2.32 1.43-4.55 2.76-6.72 4.18a5.72 5.72.0 0 0-1.16 1.39c2.81 6.51 16.66 24 22.23 28.08 3.66-1.23 5.07-4.78 7.45-7.49.08.27.18.44.13.51-2.26 4.12-4.43 8.29-6.87 12.3a12.33 12.33.0 0 1-3.64 3.55 4.6 4.6.0 0 1-6.12-.36 79.34 79.34.0 0 1-6.55-7c-4.35-5.32-8.59-10.74-12.79-16.18A44.1 44.1.0 0 1 3.73 45c-1.54-2.77-1.12-5.26 1.33-7.27A17.25 17.25.0 0 1 10 35c3.45-1.23 7-2.15 10.51-3.19A3.49 3.49.0 0 1 21.48 31.76z"/><path class="cls-1" d="M132.33 67V61.38c1.28.21 2.51.45 3.74.6 3.46.44 5.41-1.12 5.54-4.59.09-2.39.0-4.79-.09-7.18a4 4 0 0 0-1.72-3.51 3.44 3.44.0 0 0-3.71.34 3.75 3.75.0 0 0-1.32 4 3.36 3.36.0 0 0 3 2.4c.93.0 1.87-.15 2.87-.23V58.4c-3.18 1.63-9.07.0-10.87-5.26a9 9 0 0 1 10.37-11.91c3.38.68 5.25 3 6.26 6.11a7.85 7.85.0 0 1 .46 2.39 93.16 93.16.0 0 1-.19 9.75A8.18 8.18.0 0 1 138.69 67C136.63 67.13 134.55 67 132.33 67z"/><path class="cls-1" d="M77.41 66.9H72.23c0-.41-.07-.82-.07-1.19.0-4.85.0-9.69.0-14.53a13.81 13.81.0 0 1 .64-4 8.78 8.78.0 0 1 10.24-6A9.46 9.46.0 0 1 91 50.63a9.29 9.29.0 0 1-12.47 9V54.38a20.64 20.64.0 0 0 3.22.46A4.26 4.26.0 1 0 81 46.35a3.41 3.41.0 0 0-3.13 2.77 17.64 17.64.0 0 0-.43 3.62c-.05 4.21.0 8.42.0 12.63z"/><path class="cls-1" d="M29.12 33.47c-1.68.91-3.65 1.41-4.66 3.2C25.74 40.36 35 52.05 38.78 54.81c2.21-.54 3-2.65 4.4-4.14a.88.88.0 0 1 .17.28c-1.55 2.74-3 5.59-4.72 8.19-1.54 2.27-4.11 3.36-6.71.5-2.15-2.38-4.1-4.92-6.11-7.42s-4.13-5.15-6.14-7.76a19.41 19.41.0 0 1-1.81-2.86 3.59 3.59.0 0 1 1-4.71c1.83-1.54 4.08-2.11 6.28-2.76 1.27-.38 2.57-.66 3.85-1z"/><path class="cls-1" d="M186.18 59.77h-5.29V56.44c0-1.81.0-3.61-.1-5.41a6.85 6.85.0 0 0-.54-2.09 3.69 3.69.0 0 0-4.52-2.5 4.23 4.23.0 0 0-3.13 4.48 4 4 0 0 0 3.78 3.92 27.59 27.59.0 0 0 3.38-.42v5.14c-5.4 2.38-12-1.86-12.48-8-.5-6.83 4.86-11.61 11.57-10.36a8.53 8.53.0 0 1 6.9 7.61C186.15 52.41 186.05 56 186.18 59.77z"/><path class="cls-1" d="M70.37 50.64A9.43 9.43.0 1 1 61 41h.11A9.48 9.48.0 0 1 70.37 50.64zM61 54.87a4.18 4.18.0 0 0 4.1-4.33 4.1 4.1.0 1 0-8.18.16A4.08 4.08.0 0 0 61 54.87z"/><path class="cls-1" d="M166.4 45.83 158 54.74c2.24.54 4.05-.64 6.08-1.6l1.43 5.36c-3.93 1.82-7.85 2.63-11.82.39a9 9 0 0 1-4.82-9.3 8.93 8.93.0 0 1 6.19-8A8.79 8.79.0 0 1 164.85 44C165.44 44.56 165.94 45.27 166.4 45.83zm-11.88 6.4 5.12-5.43a3.42 3.42.0 0 0-4 .44C154.22 48.4 153.8 50.05 154.52 52.23z"/><path class="cls-1" d="M109.78 45.85l-8.35 8.91c2.15.54 4-.65 6-1.63l1.39 5.21C101.41 62.74 93.9 59 92.48 53a9.61 9.61.0 0 1 5-11.05c4-2 8.56-.8 11.5 2.91C109.31 45.19 109.58 45.56 109.78 45.85zM97.84 52.13l5.25-5.41a3.54 3.54.0 0 0-4.23.68A4.09 4.09.0 0 0 97.84 52.13z"/><path class="cls-1" d="M116.57 59.75h-5.14c0-3.89-.29-7.75.08-11.53A7.59 7.59.0 0 1 119.66 41c4.35.2 7.42 3.28 7.66 7.94.17 3.15.07 6.32.08 9.49v1.3h-5.33V57.48c0-2.62.1-5.25.0-7.88a4.4 4.4.0 0 0-1.13-2.74c-1.45-1.38-3.86-.31-4.17 1.79a29 29 0 0 0-.15 4.06C116.55 55 116.57 57.32 116.57 59.75z"/><path class="cls-1" d="M193.85 59.75h-5.12c0-4-.19-8 .06-12a7 7 0 0 1 5.94-6.64 3.72 3.72.0 0 1 .81-.09c1.56.0 1.63.13 1.63 1.71V46c-.92.46-2.07.67-2.44 1.33a7.64 7.64.0 0 0-.83 3.46C193.79 53.75 193.85 56.68 193.85 59.75z"/><path class="cls-1" d="M34.31 34.29c-.63.42-1.26.82-1.87 1.28a3.2 3.2.0 0 0-.52.69A50.18 50.18.0 0 0 41.1 47.75l2.47-2.41c-.94 2.1-1.63 4.35-3.57 5.83a2 2 0 0 1-2.75.0 12.78 12.78.0 0 1-1.73-1.72c-2.21-2.74-4.39-5.52-6.58-8.29-.22-.29-.43-.59-.62-.89-1.45-2.28-1.05-3.73 1.46-4.82 1.43-.61 3-1 4.44-1.5z"/><path class="cls-1" d="M43.47 50.31 43.55 50.27V50.36L43.47 50.31z"/></svg>