<svg xmlns="http://www.w3.org/2000/svg" width="2500" height="2500" viewBox="0 0 192.756 192.756"><g fill-rule="evenodd" clip-rule="evenodd"><path fill="#fff" d="M0 0h192.756v192.756H0V0z"/><path d="M130.545 43.041c.736 1.845 3.809 1.845 4.055 3.936.615.492 1.107 1.23 1.844 1.476.738 1.477 2.336 2.337 2.705 4.183 1.105.861.859 2.829 2.334 3.321 1.105 1.476 1.475 3.198 2.582 4.674.367 2.707 2.457 4.183 2.211 6.889 1.107 2.46.492 4.92 1.598 7.627 0 .983.123 2.091-.246 3.075-.123 2.337-.123 4.552-.613 6.889 0 .984.736 1.845 0 2.583-.492 1.23-.861 2.583-.861 3.937-1.475 1.476-.123 3.69-1.844 5.043-.736 1.354-.613 2.953-1.598 4.184-.123.982-.982 1.967-1.721 2.336-.613.246-1.475.369-2.088.246-.615-.369-.861-1.107-1.23-1.723.615-2.09 1.354-3.689 2.459-5.781-.123-.984 1.598-1.599.982-2.829.246-.984.615-1.968.738-3.075.736-.984.492-2.46.859-3.69.123-1.107.984-1.968.369-3.075.123-.369.123-.615 0-1.107.123-.861.861-1.845.369-2.829 0-1.353.123-2.83-.123-4.182-.492-2.583-.492-5.782-1.721-8.119.615-1.845-1.844-2.829-1.352-4.92-.369-1.23-1.598-2.091-1.721-3.567-.738-.738-1.475-1.354-1.967-2.214.246-.984-.736-1.23-.982-2.091-.984-.738-1.721-1.845-2.582-2.707-.859-.738-1.229-2.091-2.58-2.337-.123-1.23-1.844-1.23-1.967-2.46-.123-.123-.492-.123-.492-.492-.859.123-.982-.738-1.475-1.23-.49-.246-1.352-.246-1.721-.861-.367-.984-1.721-.615-1.965-1.599-1.721.246-2.582-2.091-4.303-1.599-1.475-.738-2.826-1.107-4.301-1.722-.738 0-1.352-.246-2.213-.123-.859-.246-1.721-.246-2.58-.738-1.598-.123-3.318-.615-4.916-.861-.369.369-.738-.369-1.23 0-.736-.246-1.598-.492-2.457 0-.615 0-1.105.369-1.844.369-1.844-.369-3.81.492-5.653.246-1.352.861-3.073 0-3.933 1.353-1.598.246-2.949.246-4.179 1.23-1.598 0-2.089 1.845-3.81 1.845-.615.738-1.475.984-2.09 1.599-1.105.369-2.089.861-3.195 1.353.123.369-.246.738-.492 1.107-.737.123-1.475.492-1.598.984-.123.861-1.106.492-1.475.984-.983.369-.983 1.476-1.966 1.845-.614 1.476-2.335 1.968-2.704 3.813l-.738.246c0 .492-.86.492-1.106.984-.123.615-.369 1.476-1.106 1.722 0 .615-.492 1.107-.369 1.723-.368.369.123 1.107-.614 1.107-.123.615-.492.615-.492 1.107-.737.615.369 1.354-.246 2.091-1.475 1.599-.983 3.813-2.212 5.658.614 1.23-.86 2.214-.123 3.444.737 1.599-.246 3.076.246 4.674.123.861.123 1.722-.123 2.583 0 1.845 1.597 3.199 1.229 5.167a63.397 63.397 0 0 1 3.933 8.241c.614.738 1.229 2.214 2.458 1.845.615.615.369 1.722 1.475 1.968.246.738 1.598.861 1.843 1.723.738.123.983.984 1.598 1.354 1.598 1.354 3.318 2.336 5.408 3.074.491-.123 1.106.246 1.352.738 2.089-.615 2.95 1.23 4.916 1.6.983.246 1.967.615 3.073.246 1.352.984 2.827-.861 4.301.123 2.704-.123 5.653 0 8.358-1.477 1.967-.615 3.811-1.723 5.652-2.705.492-.738 1.598-.738 2.09-1.6 2.09-.492 3.072-2.338 4.793-3.199 1.107-2.213 3.564-3.321 4.057-5.658 1.475-.246 1.105-2.091 2.211-2.829.369-2.091 1.967-3.567 1.598-5.904.246-.738 0-1.599.492-2.46 0-1.107-.369-2.091-.736-3.075.121-.861-.369-1.968.121-2.706.492-.984-1.229-.984-.49-1.845-1.352-.492-.492-2.337-1.967-2.46-1.598-.615-.369-3.199-2.336-3.444-.244-.738-1.475-.123-1.352-1.23-.736-.615-1.105-1.599-2.334-1.599-.123-.738-.738-.984-1.23-1.476-.367.123-.736 0-1.229-.246-.492-.615-1.475-.492-2.334-.738-1.354-.984-2.951-.861-4.549-1.353-.246-.123-.49.246-.736 0-1.721.369-3.318.246-4.916.369-.984-.738-1.598.615-2.582.369-1.352.492-2.089 2.214-3.564 2.214-1.721 0-1.966 2.337-3.687 2.091-1.352.738-1.475 2.46-2.581 3.321 1.229 1.968-1.843 1.845-1.721 3.444-.737.984-1.106 2.337-.737 3.567-.369 1.106.246 2.091.492 3.198.615 1.845 1.721 3.937 3.318 5.167.492.984 1.843 1.845 1.598 3.321-.369.615-.615 1.476-1.598 1.353-.86 0-1.843-.615-2.335-1.23-.983-.492-1.352-1.845-2.458-2.337-.123-1.477-1.966-1.845-2.089-3.321-.369-.369-.369-.984-.983-1.23-.369-.738-.983-1.476-.491-2.337-.123-.861.491-.984.614-1.845-.614-2.46.368-4.797 1.475-7.134.737-1.354 1.721-3.075 2.95-4.06.246-1.353 1.475-1.845 2.212-2.706 1.72-.246 1.72-2.706 3.441-2.952s2.704-1.968 4.424-1.354c1.106-.369 1.966-1.476 3.073-.861.614-.123.983-.615 1.476-.861 1.352.246 2.826.246 4.178.123 1.105-.615 2.09.246 3.195 0 .738.123 1.352.123 2.09-.123 1.844.246 1.967 2.583 3.932 2.091 1.598.738 3.564.984 4.426 2.706 1.598.861 2.334 2.46 4.055 3.199.369.984 1.598 1.353 1.721 2.46.984.615.984 1.968 1.844 2.829-.123 1.23.615 1.968.984 3.075.49 2.091 1.352 4.182.982 6.396.736 2.583-.123 4.92-1.105 7.134.123 1.477-.984 2.214-.984 3.69-.613.984-.369 2.091-1.598 2.583 0 .492-.736 1.23-.859 1.722a13.051 13.051 0 0 0-1.967 2.583c-.984.369-1.229 1.354-2.09 1.846-1.105 1.107-1.598 3.322-3.318 3.443-1.105.738-1.598 2.215-3.072 2.584-2.949 1.107-5.285 3.32-8.604 3.936-1.721 1.6-3.564.369-5.53.861-.983-.492-1.475.738-2.458.123-2.581.738-5.039.492-7.497-.246-1.352.861-1.967-.861-3.195-.369-1.844-1.229-3.688-1.229-5.408-2.336-.983-.246-1.844-.738-2.827-1.107-.492-.369-.86-.369-1.475-.861-1.106-.738-1.966-1.969-3.195-2.461 0-1.598-2.458-.613-2.458-2.336-.983-.861-1.721-2.092-2.95-2.584 0-1.722-2.335-1.599-2.458-3.198.369-2.214-2.581-2.214-1.966-4.306-.123-.492-.86-.615-.737-1.353l-.369-.369c-.737-1.23-.492-3.075-1.475-4.182.123-1.23-1.843-1.599-.615-2.829-1.229-1.23.738-2.337-.368-3.567-.123-1.599-.246-3.321-.615-4.797.615-2.337 1.598-4.551 1.721-6.765.492-1.107 1.721-2.337 1.229-3.69 0-1.968 1.966-3.075 1.844-5.043.123-.861 1.106-.984 1.229-1.722.615-.738.738-1.599 1.598-2.337.123-.861 1.106-.861 1.229-1.6.983-.984 1.72-2.337 2.949-3.075.615-1.722 2.458-2.214 3.564-3.567.983-1.845 3.072-2.214 4.547-3.567 1.966-1.599 4.67-2.214 6.759-3.69 2.335-.861 4.793-1.845 7.005-2.214 2.458-.369 4.793-1.23 7.128-1.476 2.089.123 4.302.615 6.267-.369.738.123.492.984 1.354 1.107 2.211-.123 4.547-.861 6.514.246.613.246 1.229.246 1.598.738.982.123 1.844.492 2.826.492.492.246 1.229.123 1.475.492 2.09.492 3.811 1.722 5.777 1.968 1.105.369 1.842 1.353 2.949 1.845.613 0 1.229.123 1.475.615.859.984 2.58.246 2.703 1.968l.616.488z" fill="#767d81"/><path d="M121.695 50.298c.369 1.968 2.459 1.845 3.195 3.567.615-.123 1.229.123 1.721.738.123 1.354 1.598 1.846 1.967 3.075 1.229.984 1.598 2.707 2.826 3.567.984 1.845 1.475 3.69 2.705 5.535.367 1.846 2.088 3.813 1.721 5.782-.984 2.83.982 5.043.49 7.873-.736.738.492 1.353-.123 2.091 0 2.706-1.105 5.289-1.967 7.873-1.105.861-1.105 2.46-1.105 3.813-1.475.246-1.229 2.09-2.211 2.829.367.738-.615 1.477-.861 2.215-1.475.369-.736 1.969-1.844 2.705v.246c-1.229.123-.613 1.846-1.967 2.092.246.984-.859 1.477-1.721 1.6-.613.369-.982 1.23-1.719 1.598-.246 1.23-1.23 2.338-2.459 2.707-1.105 1.107-2.09 2.338-3.811 2.707-.367.613-1.105.736-1.352 1.352-.736.123-1.105.738-1.844.738-1.475 2.092-3.932 1.477-5.775 2.953-1.352-.123-1.844.984-3.318 1.23-.861.369-1.967.246-2.828.615-1.719.613-3.316-.123-5.038.613-1.843-.367-3.933 0-5.776.492-1.475.246-2.827-.982-4.301-.246-1.844-.736-3.564-1.229-5.531-1.105-1.475-1.107-3.195-.861-4.67-1.354-1.106 0-1.721-1.107-2.704-1.477-.737 0-1.475-.861-1.966-.738-.246-.123-.492-.369-.737-.246-.492-.246-1.352-.861-1.966-1.107-1.475 0-1.475-2.09-3.073-1.844-2.212-.246-2.089-2.953-4.179-3.199 0-1.6-1.843-2.213-2.827-2.828-.369-1.23-1.966-1.6-2.212-2.953-.86-.246-1.106-.615-1.843-1.107-.614-1.229-.123-3.074-1.721-3.812-1.229-.492-.86-1.969-2.089-2.461-.246-1.722-2.089-2.459-1.966-4.059-.492-.984-1.352-2.214-.86-3.321.492-1.476-1.721-1.845-.983-3.075-.737-1.353-.614-3.198-1.352-4.551 0-1.476-.123-2.952-.369-4.551.369-1.968-.614-4.182-.246-6.027-.491-1.845 1.352-3.444.738-5.289.983-1.845 1.106-3.69 1.597-5.536 1.106-.615.615-1.845.86-2.707.86-1.968 1.967-3.936 2.335-5.781.492-.738 1.598-.369 2.212-.369 1.229.861.983 2.337 1.229 3.567-.86.738-.983 2.214-1.844 2.952-.492 1.477-1.352 2.952-1.229 4.552-.737.738-.123 1.845-.737 2.46-.369 1.107-.492 2.337-.86 3.321.123.984-.246 1.722 0 2.706.246.615 0 1.353.491 1.722-.614.861.246 1.845-.491 2.707-.492 1.968.123 4.059.491 6.15l-.123.246c.615 2.214 1.106 4.797 2.089 7.135.983.984.737 2.706 1.721 3.813.369 1.354 1.229 2.337 1.598 3.567.983 1.846 2.335 3.445 3.318 5.168.491 1.105 1.966 1.352 2.458 2.459 1.229.246 1.475 1.969 2.704 2.215.369 1.107 2.212.615 2.335 2.09.983.738 2.335 1.23 3.072 2.338 1.229.369 1.966 1.6 3.318 1.846l.123.246c.368.123.983 1.105 1.598.492 1.721-.369 2.089 1.844 3.81 1.475.737.615 1.844.246 2.458 1.23 1.106.615 2.827-.984 3.564.615.737.123 1.598.369 2.335 0 1.598.984 3.318 0 4.916.492 2.212-.246 4.547.738 6.637-.738.859.246 1.844-.246 2.703.123 2.09.246 2.826-2.215 5.162-1.723 2.09-.369 2.949-1.967 5.039-2.213 1.105-.615 1.967-1.846 3.318-1.846 2.213-1.477 4.424-3.074 6.391-4.797 1.352-1.969 3.195-3.322 4.793-4.92.246-1.23 1.352-1.723 1.475-2.953.369-.123.738-.615.738-1.107.49-.123.246-.861.613-1.107.861-2.091 1.475-3.69 2.336-5.658-.246-2.091 1.475-2.829 1.475-4.674 1.352-.615-.492-2.091.492-2.829-.861-1.23.736-2.214-.369-3.321.859-.861-.492-2.091.246-3.075-.492-.984 0-2.091-.369-3.321-.615-1.599-.859-3.321-1.844-4.797-.736-1.722-.982-4.059-2.703-5.043.123-.738-.369-1.476-.861-1.968-.736-.615-.736-1.722-1.844-2.214-2.334-2.829-5.775-5.658-9.463-6.52-.613-.123-.736-.861-1.352-.738-.369-.492-1.352-.369-1.721-.984-.859 0-1.598-.246-2.457-.492-1.721-.861-3.688-.861-5.531-1.107-.861.615-1.598-.123-2.459.246-1.475-.615-2.949.246-4.546.123-2.704-1.599-3.687 2.091-6.391 1.476-.614.369-1.352.492-1.843.984v.246c-.615.123-1.229.738-2.089.615-.492.984-1.721 0-2.212.984-.983.738-2.335 1.23-2.827 2.583-.737.615-1.843.861-2.089 2.091-.86-.615-.983.738-1.229.984.123.984-.738 1.23-1.475 1.599-.737.861-1.106 2.091-2.212 2.337-.369.738-.983 1.476-.614 2.337-1.229.492-.492 1.599-1.229 2.46-.123 1.23-1.475 1.845-1.229 2.952.737 2.337-.615 4.675.614 7.012 1.229 2.583.614 6.52 3.441 8.241.369 1.23 1.475 1.968 2.335 2.707.369 1.476 2.089 1.476 2.95 2.706 1.106 0 1.229 1.353 2.212 1.23.86.615 2.089 1.107 3.195 1.6 1.106.246 2.335 0 3.441.615 1.966-.861 3.933.123 6.022-.738.983-.123 1.967-.369 2.581-1.107 3.564-.738 6.146-3.075 8.727-5.413.246-1.107 1.598-1.353 1.598-2.46.492-.615 1.105-1.476 1.105-2.337.738-.369.615-1.107.861-1.722 0-1.6.492-3.444-.246-5.044.492-1.353-.859-2.091-1.598-2.829.615-1.353-1.105-1.353-1.352-2.337-1.229-.246-1.352-1.968-1.721-2.952.615-.369 1.475-1.107 2.336-.984 1.965 0 1.719 2.46 3.686 2.214 1.352 2.583 3.318 4.92 3.564 8.119-.982 1.107.246 2.583-.736 3.813-.123 1.23-.861 2.46-.738 3.813-.861.614.123 2.091-1.229 2.091-1.23.492-1.352 2.583-2.951 2.583-.736.615-.49 2.091-1.719 2.337-.492.369-1.107.738-1.477 1.353-1.842.738-2.703 2.829-4.916 2.706-.736.615-1.719.984-2.334 1.722-2.09.615-4.302 0-6.637.984-1.106-.369-2.335-.123-3.441-.492-.983.123-1.844-.492-2.827-.369-1.721-.246-3.318-2.214-4.916-1.845-1.352-.246-2.09-1.599-3.564-1.845-.491-1.723-2.704-2.091-3.441-3.444-.369-1.107-1.475-1.6-2.212-2.46 0-1.353-1.229-1.845-1.475-3.198-.246-.246-.737-.369-.492-.861-.737-2.214-3.195-3.69-2.089-6.273-.737-.738.123-1.846-.614-2.46 0-.369.123-.738.369-1.107-.369-2.583.86-4.92 1.352-7.504.737-.492 0-1.476.983-1.845-.123-.492.369-.984.369-1.476.369-.492.614-1.353.86-2.091.123-.369.491-.492.737-.615-.123-.861.737-.861.983-1.476.614-1.477 2.458-1.723 2.827-3.321.246-.492.86-.615.86-1.23 1.229-.861 2.089-2.091 3.564-2.583.737-1.107 2.089-1.845 3.318-2.46 1.721-.861 3.564-1.969 5.53-2.46 1.352-1.599 3.196-.492 4.917-1.599.983.369 2.212-1.476 2.827 0 .861.246 1.843-.492 2.705 0 2.334 0 4.301-1.353 6.637-.615 1.352.861 3.072-.369 4.178 1.353 1.352.246 2.703 1.23 4.057 1.599 1.598.123 3.195.984 4.793.984.737.487 1.352 1.471 2.334 1.348zM70.815 31.109c-.738.738-1.598 1.476-1.352 2.583-.123.369-.615-.123-.737.246-.492.861-1.352 1.968-1.967 2.952.492.615-.369.738-.369 1.353-.86.738-1.721 2.092-1.844 3.321-.737.738-1.352 2.214-2.458 2.707-.492.984-.123 2.706-1.721 3.075-.983.246-1.843 0-2.827 0-1.352-1.23-3.81-1.107-3.687-3.321-.123-1.23 1.352-1.107 1.598-1.968.737-1.599 2.335-2.583 3.564-3.813 1.844-.615 2.458-2.952 4.179-3.936.369-2.829 3.318-3.444 4.547-5.658.615-.615 1.475-1.23 2.335-.861 1.23.859.493 2.212.739 3.32z" fill="#3a7275"/><path d="M136.936 107.006c1.598.982 1.598 3.074 1.721 4.674-.738.738-1.105 2.213-2.213 2.09-1.105.861-2.09 1.846-3.564 2.338-.613.984-1.842 1.107-2.457 2.215-1.721 1.107-2.705 2.951-4.303 4.305-.49.861-1.598 1.23-1.965 1.969-.984.984-2.213 1.723-3.688 1.354-.615-.123-.615-.861-.738-1.23.123-1.6 1.721-1.969 1.967-3.445 1.475-1.229 2.582-2.951 3.688-4.305.246-1.107 1.105-1.846 1.721-2.707-.123-.492 0-.982.369-1.475 1.721-.861 1.105-3.199 2.703-4.43 0-.615.738-1.105.492-1.721.982-.738 1.965-2.215 3.562-1.846.861.491 2.581.86 2.705 2.214zM34.436 142.309h-2.95l-9.217 14.393h2.949l6.391-10.211c.738-1.105 1.844-1.105 2.458 0l6.636 10.211h2.95l-9.217-14.393zM64.546 142.309v14.392h3.196v-14.392h-3.196zM102.031 142.309v.984h3.195c1.229 0 2.213.984 2.213 2.213v11.195h2.949v-11.195c0-1.229 1.105-2.213 2.336-2.213h3.072v-.984h-13.765zM117.885 142.309v14.393h15.855v-.984h-10.693a2.203 2.203 0 0 1-2.211-2.215v-1.723c0-1.229.982-2.336 2.211-2.336h5.9v-.861h-5.9a2.203 2.203 0 0 1-2.211-2.215v-.861c0-1.229.982-2.213 2.211-2.213h10.693v-.984h-15.855v-.001zM136.812 142.309v14.393h15.854v-.984h-10.691a2.205 2.205 0 0 1-2.213-2.215v-1.723c0-1.229.984-2.336 2.213-2.336h5.898v-.861h-5.898a2.205 2.205 0 0 1-2.213-2.215v-.861c0-1.229.984-2.213 2.213-2.213h10.691v-.984h-15.854v-.001zM73.396 150.059c-.86-.738-.86-1.969.123-2.707l7.497-5.043h-3.318l-9.218 6.273 9.218 8.119h3.441l-7.743-6.642zM84.088 142.309v14.393h15.977v-.984H89.373c-1.229 0-2.335-.984-2.335-2.215v-1.723c0-1.229 1.106-2.336 2.335-2.336h5.776v-.861h-5.776c-1.229 0-2.335-.984-2.335-2.215v-.861c0-1.229 1.106-2.213 2.335-2.213h10.692v-.984H84.088v-.001zM24.727 143.416v5.166c0 .246-.246.492-.615.738l-.492.123c-.123 0-.246.123-.369.123h-9.586c-1.229 0-2.212 1.107-2.212 2.336v4.799h-2.95v-14.393h13.642c.737 0 1.475.123 1.966.369.37.124.616.37.616.739zm-5.039 5.166a2.204 2.204 0 0 0 2.212-2.215v-.861a2.204 2.204 0 0 0-2.212-2.213h-6.022a2.204 2.204 0 0 0-2.212 2.213v.861c0 1.23.983 2.215 2.212 2.215h6.022zM170.488 148.828c-.246.123-.615.123-.984.123.492 0 1.105.123 1.721.369l.369.123v.123c.123.123.123.246.123.369v6.766h-2.828v-4.922c0-1.229-1.105-2.336-2.334-2.336H160.9c-1.229 0-2.211 1.107-2.211 2.336v4.922h-3.072v-14.393h13.641c.861 0 1.598.123 2.09.369.369.123.615.369.615.738v4.551c0 .37-.492.616-1.475.862zm-3.687-.492a2.203 2.203 0 0 0 2.211-2.215v-.369a2.203 2.203 0 0 0-2.211-2.213h-5.9a2.203 2.203 0 0 0-2.211 2.213v.369c0 1.23.982 2.215 2.211 2.215h5.9zM60 153.01c-.737 0-1.352.492-1.352 1.23s0 1.354-.123 1.354c0 0-.123.123-.246.123h-7.866a2.204 2.204 0 0 1-2.212-2.215v-7.75-.246c0-1.229.983-2.213 2.212-2.213h7.866c.123 0 .246.123.369.123v.123c0 1.107.615 1.967 1.475 1.967.737 0 1.352-.982 1.352-2.09 0-.369-.123-.615-.491-.738-.615-.246-1.229-.369-2.09-.369H47.955c-1.721 0-2.704.369-2.704 1.107v12.424c0 .246.246.492.614.615.492.246.983.246 1.598.246H58.77c.369 0 .737 0 1.106-.123h.246l.737-.246c.369-.123.492-.369.492-.615v-.492c.001-1.231-.614-2.215-1.351-2.215z" fill="#767d81"/><path fill="#767d81" stroke="#767d81" stroke-width=".853" stroke-miterlimit="2.613" d="M177.246 155.84h7.006v.861h-7.006v-.861zM177.246 148.582v.738h3.811c.982 0 1.105.492.246.984l-4.057 2.828v.492h7.006v-.738h-3.688c-.859 0-.982-.492-.246-.984l3.934-2.705v-.615h-7.006zM184.129 142.924s0-.123-.123-.369c-.123-.123-.246-.123-.246-.123h-1.105c-.123 0-.246.123-.246.369s.123.492.246.492h.369c.369 0 .613.246.613.492v1.967c0 .369-.244.615-.613.615h-4.67c-.369 0-.615-.246-.615-.615v-1.967c0-.246.246-.492.492-.492h.246c.123 0 .246-.246.246-.492s-.123-.369-.246-.369h-.738c-.246 0-.369 0-.369.123-.123.123-.123.369-.123.615v3.32c0 .246 0 .369.123.492 0 .123.123.246.369.246h6.021s.246-.123.369-.246c0-.123.123-.246.123-.369v-3.443l-.123-.246z"/></g></svg>