<?xml version="1.0" encoding="UTF-8"?>
<svg version="1.1" viewBox="0 0 390.5 71.4" xml:space="preserve" xmlns="http://www.w3.org/2000/svg" xmlns:cc="http://creativecommons.org/ns#" xmlns:dc="http://purl.org/dc/elements/1.1/" xmlns:rdf="http://www.w3.org/1999/02/22-rdf-syntax-ns#"><title>Palo Alto Networks logo</title><metadata><rdf:RDF><cc:Work rdf:about=""><dc:format>image/svg+xml</dc:format><dc:type rdf:resource="http://purl.org/dc/dcmitype/StillImage"/><dc:title/></cc:Work></rdf:RDF></metadata><desc>A  cybersecurity and networking company based in United States</desc>
<style type="text/css">
	.st0{fill:#F04E23;}
</style>
<g transform="matrix(.287 0 0 .2882 .7087 0)"><path d="m575.7 45.45c-17.5 0-35.68 4.77-58.18 16.82l12.5 30.91c19.54-10.91 35.68-15.68 47.5-15.68 13.41 0 19.32 5 19.32 11.59v0.45c0 4.55-3.64 7.05-12.5 7.96l-15.45 1.59c-38.64 4.09-54.55 20.91-54.55 44.09v1.59c0 22.05 18.18 39.32 43.86 39.32 16.91 0 31.6-7.14 40.53-19.74l2.88 17.47h35v-79.32c0-37.5-21.59-57.05-60.91-57.05m-3.41 108.4c-12.95 0-19.09-5-19.09-12.73v-0.45c0-6.82 3.86-11.82 17.95-13.86l6.14-0.91c8.97-1.25 14.48-2.9 19.55-5.97v10.06c0 15.23-9.55 23.86-24.55 23.86"/><polygon class="st0" points="134.3 158.6 246.6 46.36 201.8 1.59 157 46.36 179.3 68.64 67.05 180.9 111.8 225.7 156.6 180.9"/><rect class="st0" transform="matrix(.7071 -.7071 .7071 .7071 -33.65 78.99)" x="-.87" y="48.45" width="158.8" height="63.32"/><rect class="st0" transform="matrix(.7071 -.7071 .7071 .7071 -35.19 209.4)" x="155.7" y="115.5" width="158.8" height="63.32"/><rect x="659.3" width="39.77" height="181.8"/><path d="m447.5 45.45c-18.08 0-32.6 8-40.59 20.53l-3.04-18.26h-35v179.5h39.77v-62.23c7.57 11.67 21.89 19.05 38.86 19.05 31.82 0 57.73-28.18 57.73-67.05v-4.55c0-38.84-25.91-67.03-57.73-67.03m16.82 70.46c0 20.45-10.68 35.23-28.41 35.23s-28.41-14.77-28.41-35.23v-2.27c0-20.46 10.68-35.23 28.41-35.23s28.41 14.77 28.41 35.23z"/><path d="m1236 45.45c-40.68 0-69.32 28.18-69.32 67.05v4.55c0 38.86 28.64 67.05 69.32 67.05s69.32-28.18 69.32-67.05v-4.55c0-38.86-28.64-67.05-69.32-67.05m28.41 70.46c0 20.45-10.68 35.23-28.41 35.23s-28.41-14.77-28.41-35.23v-2.27c0-20.46 10.68-35.23 28.41-35.23s28.41 14.77 28.41 35.23z"/><path d="m1342 53.64v-0.68c0-3.86-2.95-6.59-8.18-6.59h-9.09v20.91h4.32v-7.05h4.8l3.61 7.05h4.77l-4.44-8.27c2.7-0.83 4.21-2.85 4.21-5.37m-12.96-3.41h4.77c2.73 0 3.86 0.91 3.86 2.96v0.23c0 1.82-1.14 2.95-3.86 2.95h-4.77z"/><path d="m1333 35.23c-12.27 0-21.59 9.32-21.59 21.59s9.32 21.59 21.59 21.59 21.59-9.32 21.59-21.59-9.32-21.59-21.59-21.59m0 40.22c-10.68 0-18.41-7.73-18.41-18.64s7.73-18.64 18.41-18.64 18.41 7.73 18.41 18.64-7.73 18.64-18.41 18.64"/><rect x="1010" width="39.77" height="181.8"/><path d="m1128 151.1c-11.59 0-15.91-5.68-15.91-17.95v-54.78h46.82v-30.68h-46.82v-30.69l-39.77 5.91v114.1c0 31.14 15.91 47.05 47.73 47.05 14.09 0 30.68-4.32 44.32-12.05l-11.36-28.18c-7.97 4.32-19.1 7.28-25.01 7.28"/><path d="m925.9 45.45c-17.5 0-35.68 4.77-58.18 16.82l12.5 30.91c19.54-10.91 35.68-15.68 47.5-15.68 13.41 0 19.32 5 19.32 11.59v0.45c0 4.55-3.64 7.05-12.5 7.96l-15.45 1.59c-38.64 4.09-54.55 20.91-54.55 44.09v1.59c0 22.05 18.18 39.32 43.86 39.32 16.9 0 31.6-7.14 40.53-19.74l2.88 17.47h35v-79.32c0-37.5-21.59-57.05-60.91-57.05m-3.41 108.4c-12.96 0-19.09-5-19.09-12.73v-0.45c0-6.82 3.86-11.82 17.95-13.86l6.14-0.91c8.97-1.25 14.48-2.9 19.54-5.97v10.06c0 15.23-9.54 23.86-24.54 23.86"/><path d="m786.1 45.45c-40.68 0-69.32 28.18-69.32 67.05v4.55c0 38.86 28.64 67.05 69.32 67.05s69.32-28.18 69.32-67.05v-4.55c-0.01-38.86-28.64-67.05-69.32-67.05m28.4 70.46c0 20.45-10.68 35.23-28.41 35.23s-28.41-14.77-28.41-35.23v-2.27c0-20.46 10.68-35.23 28.41-35.23s28.41 14.77 28.41 35.23z"/><polygon points="972.8 246.8 958.4 227.8 958.3 227.8 958.3 246.8 948.9 246.8 948.9 214.1 959.1 214.1 973.2 232.6 973.3 232.6 973.3 214.1 982.7 214.1 982.7 246.8"/><polygon points="1005 233.7 1005 238.8 1025 238.8 1024 246.8 995.1 246.8 995.1 214.1 1024 214.1 1024 222 1005 222 1005 226.5 1020 226.5 1020 233.7"/><polygon points="1045 246.8 1045 222.5 1033 222.5 1033 214.1 1065 214.1 1066 222.5 1054 222.5 1054 246.8"/><polygon points="1114 236.8 1119 214.1 1129 214.1 1120 246.8 1108 246.8 1102 227 1101 227 1095 246.8 1082 246.8 1074 214.1 1084 214.1 1090 236.8 1090 236.8 1097 214.1 1107 214.1 1113 236.8"/><path d="m1136 230.4c0-10.66 7.24-17.34 18.69-17.34s18.7 6.68 18.7 17.34-7.24 17.34-18.7 17.34c-11.45 0-18.69-6.69-18.69-17.34m27.62 0c0-5.65-3.27-9.02-8.93-9.02s-8.93 3.37-8.93 9.02c0 5.66 3.27 9.02 8.88 9.02 5.66 0 8.98-3.37 8.98-9.02"/><path d="m1184 214.1h19.07c8.69 0 12.95 4.11 12.95 11.73 0 5.23-2.15 8.79-6.36 10.47l7.76 10.52h-11.12l-6.03-8.6h-6.45v8.6h-9.82zm17.8 16.45c3.27 0 4.44-1.82 4.44-4.3s-1.17-4.25-4.44-4.25h-7.99v8.55z"/><polygon points="1251 229.8 1264 246.7 1264 246.8 1253 246.8 1243 234.2 1239 234.2 1239 246.8 1229 246.8 1229 214.1 1239 214.1 1239 226.1 1243 226.1 1252 214.1 1264 214.1 1264 214.1"/><path d="m1272 244.6v-8.97h0.05c5.47 2.76 10.8 4.11 15.42 4.11 3.51 0 5.28-0.84 5.28-2.48s-1.17-2.06-8.18-3.18c-7.66-1.21-12.76-3.51-12.76-10.1 0-6.12 5.38-10.84 15.89-10.84 4.21 0 8.6 0.89 12.67 2.62v8.88l-0.05 0.05c-3.88-2.24-9.11-3.65-13.32-3.65-3.74 0-5.23 0.89-5.23 2.38 0 1.92 2.29 2.1 8.04 3.09 7.66 1.31 12.76 3.46 12.76 10.38 0 5.37-4.02 10.75-15.56 10.75-5.7 0-10.24-1.17-15.01-3.04"/></g>
<div xmlns="" id="divScriptsUsed" style="display: none"/><script xmlns="" id="globalVarsDetection" src="moz-extension://988954a5-4571-47b7-8811-234b4eee0106/js/wrs_env.js"/></svg>