<svg id="Ebene_1" data-name="Ebene 1" xmlns="http://www.w3.org/2000/svg" viewBox="0 0 226.77 147.59"><defs><style>.cls-1{fill:#9cbf29;}.cls-2{fill:#1a1a18;}</style></defs><polygon class="cls-1" points="226.77 0 226.77 147.59 109.78 147.59 226.77 0"/><path class="cls-2" d="M414.54,290.44v.7c0,7.06-3.05,11.24-10.12,11.24s-10.27-4.18-10.27-11.24V259.68c0-7.22,3.21-11.23,10.27-11.23,6.72,0,9.8,3.63,10.09,10.2h17C430.69,243,421.72,233,404.42,233c-18,0-27.93,10.11-27.93,28.09V289.7c0,18,10,28.09,27.93,28.09s26.86-10.61,27.12-27.35Z" transform="translate(-310.53 -201.5)"/><path class="cls-2" d="M470.07,268.51c-8.51-3.21-14.77-5.62-14.77-12.52,0-6.1,4-8.51,8.67-8.51,4.41,0,7.31,1.69,8.45,5.19h16.76C487.45,240.38,477.87,233,463.81,233c-16.69,0-25.52,9.31-25.52,23.75,0,16,10.75,21.35,21,25.2,8,2.89,14.29,5.3,14.29,11.88s-3.85,9.31-9.63,9.31c-5,0-8.41-2.19-9.45-6.82h-17c1.4,13.48,11.1,21.43,27.25,21.43,17.34,0,26.33-9.64,26.33-24.88C491.1,277.34,480.34,272.36,470.07,268.51Z" transform="translate(-310.53 -201.5)"/><path class="cls-2" d="M346,233c-9.63,0-16.69,5.13-19.9,14.12l-.32-12.52H310.53V337.78h17.65V308.15c3.7,6.1,10,9.64,17.82,9.64,13.16,0,20.54-8.19,20.54-25.53V258.4C366.54,241.22,359.16,233,346,233Zm2.89,57.14c0,7.86-2.41,12.2-9.31,12.2s-11.4-4.82-11.4-15.41V263.86c0-10.6,4.5-15.41,11.4-15.41s9.31,4.17,9.31,12.19Z" transform="translate(-310.53 -201.5)"/><div xmlns="" id="divScriptsUsed" style="display: none"/><script xmlns="" id="globalVarsDetection" src="moz-extension://988954a5-4571-47b7-8811-234b4eee0106/js/wrs_env.js"/></svg>