<svg xmlns="http://www.w3.org/2000/svg" height="800" width="1200" viewBox="-18.779055 -4.625 162.75181 27.75"><path d="M98.5375 0c3.66 0 7.9675 2.0713 7.9675 8.99 0 6.1837-3.5975 9.51-8.2737 9.51-4.3413 0-8-2.9987-8-9.2375C90.2312 3.215 94.0186 0 98.5374 0m-.185 16.9175c4.6187 0 4.6187-6.43 4.6187-7.655 0-3.1862-.5874-7.6813-4.4924-7.6813-4.5588 0-4.7138 5.8313-4.7138 7.7388 0 1.8787.1875 7.5975 4.5875 7.5975M81.95.245c3.9388 0 5.9837 1.7688 5.9837 4.3588 0 4.0075-3.9974 4.715-5.0212 4.9862l6.76 8.635h-3.66l-5.8887-8.2h-1.2725v8.2H75.72V.245h6.23zm-3.0987 1.58v6.7863h1.4575c2.695 0 4.34-.8188 4.34-3.38 0-2.5063-.9938-3.4063-4.34-3.4063M73.51.245v1.58h-5.4863v16.4h-3.195v-16.4h-5.4862V.245m65.8513 0h-1.9863v15.0163L112.0163.245h-2.7088v17.98h2.0288l-.0125-14.2725 10.3687 14.2725h3.5013v-.0187M52.3612 3.9538l-5.1788 14.2725h-2.23l6.945-17.98H53.91l7.0075 17.98h-3.38m-16.2512-15.83c-.7463-.2975-1.8938-.7613-3.4738-.7613-3.41 0-5.8563 2.5613-5.8563 7.735 0 5.615 2.725 7.4963 5.3 7.4963 1.085 0 1.9188-.2462 2.4163-.3837v-5.45h-3.38V9.4538h6.4138v7.71c-1.515.68-3.1888 1.335-5.485 1.335-4.8963 0-8.8-3.2388-8.8-9.155C28.4212 3.4613 32.295 0 37.5336 0c1.6413 0 3.0063.275 4.4925.8713M26.015.2451v1.69h-7.4387v6.1812H25.49v1.5813h-6.9138v6.8412h7.5325v1.6863H15.3825V.245M6.2.245c4.6788 0 6.7238 1.525 6.7238 4.6612 0 3.785-3.4675 5.3375-6.7238 5.3375H3.1925v7.9813H0V.245zm-3.0075 1.58v6.8362h2.0138c2.7912 0 4.31-.8438 4.31-3.755 0-2.51-1.5188-3.0812-4.31-3.0812"/></svg>