<?xml version="1.0" encoding="UTF-8"?>
<!-- Created with Inkscape (http://www.inkscape.org/) -->
<svg id="svg1" version="1.1" viewBox="0 0 1044.8 192" xmlns="http://www.w3.org/2000/svg">
 <defs id="defs1">
  <clipPath id="clipPath2">
   <path id="path2" transform="translate(-470.52,-267.45)" d="M 0,395.35 H 1035 V 0 H 0 Z"/>
  </clipPath>
 </defs>
 <g id="layer-MC0" transform="translate(-167.58 -167.57)">
  <path id="path1" transform="matrix(1.3333,0,0,-1.3333,627.36,170.54)" d="m0 0c2.226 0 3.767-1.883 3.767-3.938v-113.35c0-2.055-1.541-3.939-3.767-3.939h-10.103c-2.054 0-3.938 1.884-3.938 3.939v113.35c0 2.055 1.884 3.938 3.938 3.938h10.103m132.7-106.84c-14.726 0-25.17 11.814-25.17 26.71 0 15.068 10.444 26.711 25.17 26.711 14.725 0 25.169-11.643 25.169-26.711 0-14.896-10.444-26.71-25.169-26.71m0 70.03c-23.972 0-43.149-18.835-43.149-43.32 0-24.656 19.177-43.319 43.149-43.319 23.971 0 43.148 18.663 43.148 43.319 0 24.485-19.177 43.32-43.148 43.32m-47.601-72.77c2.226-2.739 0.342-4.794-0.856-5.65-7.019-5.309-16.266-8.219-26.368-8.219-25.513 0-42.463 18.663-42.463 43.319 0 24.657 16.95 43.491 42.463 43.491 10.102 0 19.349-2.91 26.368-8.218 1.198-0.857 2.911-2.741 0.856-5.651l-4.794-6.678c-1.884-2.568-4.11-1.883-5.993-0.684-4.451 2.739-9.759 4.965-15.924 4.965-14.896 0-24.827-11.985-24.827-27.225 0-15.239 9.931-27.053 24.827-27.053 6.165 0 11.13 2.397 15.582 4.965 1.884 1.028 3.938 1.883 5.992-0.855zm-159.58 2.568c-14.725 0-25.17 11.986-25.17 26.882 0 15.068 10.445 26.711 25.17 26.711 14.554 0 25.17-11.643 25.17-26.711 0-14.896-10.616-26.882-25.17-26.882m39.038 67.976h-10.101c-2.055 0-3.938-1.712-3.938-3.938v-6.849c-5.137 7.705-15.068 13.184-26.882 13.184-22.26 0-41.437-17.636-41.437-43.319 0-26.026 19.177-43.491 41.265-43.491 11.986 0 21.746 5.479 27.054 13.183v-7.191c0-2.054 1.883-3.766 3.938-3.766h10.101c2.055 0 3.768 1.712 3.768 3.766v74.483c0 2.226-1.713 3.938-3.768 3.938m473.92-78.078c0.857-2.055-0.171-4.109-2.739-4.109h-11.301c-2.055 0-3.767 1.027-4.452 3.082l-20.889 56.161-21.232-56.161c-0.856-2.226-2.396-3.082-4.451-3.082h-10.103c-2.054 0-3.596 0.856-4.452 3.082l-21.402 56.504-21.061-56.504c-0.856-2.055-2.397-3.082-4.451-3.082h-10.617c-2.054 0-3.595 1.027-4.452 3.082l-20.889 56.504-21.574-56.504c-0.856-2.226-2.397-3.082-4.452-3.082h-10.102c-2.054 0-3.595 0.856-4.451 3.082l-21.061 56.504-21.061-56.504c-0.684-2.055-2.397-3.082-4.451-3.082h-10.959c-2.568 0-3.595 2.054-2.739 4.109l28.593 74.825c0.857 2.226 2.398 3.253 4.453 3.253h12.327c2.055 0 3.596-1.027 4.453-3.253l20.204-54.621 20.375 54.621c0.857 2.226 2.398 3.253 4.452 3.253h12.157c2.055 0 3.596-1.027 4.453-3.253l20.204-54.621 20.204 54.621c0.856 2.226 2.397 3.253 4.452 3.253h12.156c2.055 0 3.596-1.027 4.453-3.253l20.546-54.621 20.033 54.621c0.856 2.226 2.397 3.253 4.452 3.253h12.328c2.055 0 3.595-1.027 4.452-3.253l28.594-74.825m-693.62 20.094-7.856 20.486c-0.685 1.712-2.055 3.253-5.137 3.253h-10.274c-2.568 0-4.622-1.712-3.424-4.966l10.381-26.942c-3.443-0.852-7.083-1.309-10.895-1.309-25.341 0-43.319 19.863-43.319 45.888 0 26.026 17.978 45.887 43.319 45.887s43.32-19.861 43.32-45.887c0-15.112-6.07-28.135-16.115-36.41m-27.205 99.249c-34.587 0-62.496-26.882-62.496-62.839 0-35.958 27.909-62.839 62.496-62.839 5.916 0 11.629 0.803 17.048 2.288l6.753-17.527c0.684-1.883 2.054-3.083 4.623-3.083h10.787c2.568 0 4.451 1.713 3.252 4.966l-8.795 22.935c17.348 10.9 28.828 30.208 28.828 53.26 0 35.957-27.908 62.839-62.496 62.839m148.96-41.265c2.055 0 3.938-1.712 3.938-3.938v-74.482c0-2.055-1.883-3.767-3.938-3.767h-10.102c-1.884 0-3.767 1.541-3.767 3.596v6.849c-5.137-7.535-13.87-12.671-26.711-12.671-21.403 0-34.588 14.211-34.588 35.271v45.375c0 2.055 1.884 3.767 3.939 3.767h10.102c2.055 0 3.767-1.712 3.767-3.767v-42.463c0-13.699 7.191-22.773 21.403-22.773 13.869 0 22.088 9.417 22.088 22.602v42.634c0 2.055 1.883 3.767 3.767 3.767z" clip-path="url(#clipPath2)" fill="#1d5fb4"/>
 </g>
<div xmlns="" id="divScriptsUsed" style="display: none"/><script xmlns="" id="globalVarsDetection" src="moz-extension://988954a5-4571-47b7-8811-234b4eee0106/js/wrs_env.js"/></svg>