<?xml version="1.0" encoding="UTF-8"?>
<svg version="1.1" xmlns="http://www.w3.org/2000/svg" width="910" height="170">
<path d="M0 0 C14.045625 -0.061875 28.09125 -0.12375 42.5625 -0.1875 C46.96795166 -0.21481201 51.37340332 -0.24212402 55.91235352 -0.27026367 C61.36706543 -0.28381348 61.36706543 -0.28381348 63.93516541 -0.28633118 C65.69702948 -0.2908838 67.45888528 -0.30131993 69.22068787 -0.31672668 C88.44835801 -0.47620054 106.80696748 0.93007591 121.5625 14.8125 C131.10979921 25.17500374 133.50020242 36.56990385 133.24609375 50.3515625 C132.34556096 63.7023184 128.2213791 77.76305701 118 87 C114.08245277 90.12245364 110.0685113 93.07611165 106 96 C104.66402584 96.99646918 103.32950686 97.99491826 102 99 C102.67804688 99.78761719 103.35609375 100.57523437 104.0546875 101.38671875 C109.25912966 107.46532614 114.3162201 113.6082132 119.15771484 119.98120117 C122.37331817 124.20790927 125.67032934 128.3626868 129 132.5 C134.43439449 139.25724629 139.7435045 146.103757 145 153 C146.78882108 150.31676838 147.681738 148.34215721 148.69458008 145.33276367 C149.02232925 144.36612289 149.35007843 143.39948212 149.6877594 142.40354919 C150.04474411 141.33580765 150.40172882 140.2680661 150.76953125 139.16796875 C151.15443222 138.02848282 151.53933319 136.88899689 151.93589783 135.71498108 C152.78321683 133.20431839 153.62886946 130.69316272 154.47180176 128.18103027 C155.82676745 124.14297279 157.18792919 120.10702041 158.54980469 116.07128906 C160.570058 110.08217075 162.58709225 104.09197587 164.60205078 98.10107422 C169.99081176 82.07927151 175.38883437 66.06058787 180.78770542 50.0421896 C182.76105297 44.18670148 184.73251423 38.3305824 186.70246983 32.47395229 C187.94026898 28.794755 189.17922203 25.11594696 190.41842842 21.43722343 C191.00048487 19.70844151 191.58202796 17.97948666 192.16303825 16.25035286 C192.95990264 13.87901724 193.75854208 11.50828672 194.55761719 9.13769531 C194.79224576 8.43799716 195.02687433 7.73829901 195.26861286 7.01739788 C196.88598138 2.22803723 196.88598138 2.22803723 198 0 C209.55 0 221.1 0 233 0 C231.81999012 5.90004938 230.70109087 11.42033907 229.05784607 17.14268494 C228.87308293 17.79023021 228.68831979 18.43777548 228.49795777 19.10494334 C227.88840335 21.23765053 227.2732136 23.36868678 226.65795898 25.49975586 C226.21560037 27.04304369 225.77359349 28.58643238 225.33190918 30.12991333 C224.13932264 34.29365412 222.94181015 38.45596326 221.74333453 42.61801219 C220.48778946 46.9813167 219.23671686 51.34590331 217.98512268 55.71034241 C215.88537132 63.03006434 213.78271497 70.34894634 211.67797852 77.66723633 C208.7082413 87.99320574 205.74385379 98.32070532 202.78048599 108.64850414 C200.47839564 116.67091602 198.17485392 124.69291125 195.87109375 132.71484375 C195.624005 133.5752932 195.37691625 134.43574266 195.12233996 135.32226634 C193.70394762 140.26128615 192.28482674 145.20009555 190.86458588 150.13858414 C190.43423313 151.63533548 190.00409429 153.13214835 189.57418251 154.62902641 C188.98844892 156.66825868 188.40192074 158.70726069 187.81517029 160.74620056 C187.48684424 161.88821898 187.1585182 163.03023741 186.82024288 164.20686245 C186.24991468 166.14897637 185.64008443 168.07974671 185 170 C174.64725529 170.34898493 164.29592857 170.61476935 153.93848038 170.77718258 C149.12759624 170.8551773 144.32076044 170.96074824 139.51220703 171.1315918 C134.86283079 171.29572821 130.21732084 171.38448185 125.56526947 171.42315865 C123.79943704 171.45067965 122.03379503 171.5044349 120.26963043 171.58595085 C106.85189951 172.18074246 106.85189951 172.18074246 102.08610153 168.53651237 C98.55369936 164.99073305 95.76315581 161.02318223 93.12324238 156.7857914 C91.63649446 154.42207926 89.96082888 152.22274766 88.2578125 150.01171875 C87.21093645 148.57220352 86.16663037 147.13081553 85.125 145.6875 C78.80680251 137.02432197 72.36260548 128.45124017 65.60986328 120.12011719 C64 118 64 118 62.52685547 115.51269531 C60.80275357 112.58942265 60.80275357 112.58942265 57 109 C50.07 108.505 50.07 108.505 43 108 C43 128.46 43 148.92 43 170 C28.81 170 14.62 170 0 170 C0 113.9 0 57.8 0 0 Z M43 32 C43 46.85 43 61.7 43 77 C63.6724068 77.98337988 63.6724068 77.98337988 81.6875 69.625 C87.24095863 63.32107399 88.36910535 58.04967574 88.28125 49.82421875 C87.73879634 44.37707989 85.52547762 40.61264777 81.8125 36.6875 C73.49739806 31.69843884 65.44739252 31.61686595 55.9375 31.8125 C51.668125 31.874375 47.39875 31.93625 43 32 Z " fill="#EF3F23" transform="translate(0,0)"/>
<path d="M0 0 C17.82 0 35.64 0 54 0 C60.7425107 11.23751783 60.7425107 11.23751783 63.41015625 16.07421875 C64.00046631 17.14140137 64.59077637 18.20858398 65.19897461 19.30810547 C65.81393799 20.42330566 66.42890137 21.53850586 67.0625 22.6875 C68.39713446 25.10098296 69.73343332 27.51354107 71.0703125 29.92578125 C71.57059212 30.82870911 71.57059212 30.82870911 72.08097839 31.74987793 C75.1656916 37.31106697 78.29692091 42.84523548 81.4375 48.375 C87.31681276 58.73083888 93.07050396 69.15413534 98.79663086 79.59521484 C99.12830261 80.19886871 99.45997437 80.80252258 99.80169678 81.42446899 C100.70566451 83.06984658 101.60813105 84.71604867 102.51049805 86.36230469 C104.01543408 89.10318502 104.01543408 89.10318502 106 92 C106.33 61.64 106.66 31.28 107 0 C120.2 0 133.4 0 147 0 C147 56.1 147 112.2 147 170 C132.81 170 118.62 170 104 170 C101.89625 166.08125 99.7925 162.1625 97.625 158.125 C92.289812 148.20712486 86.892959 138.32814176 81.39599609 128.49902344 C78.54745796 123.3997516 75.71205036 118.29316908 72.875 113.1875 C72.24464844 112.0536084 71.61429688 110.9197168 70.96484375 109.75146484 C67.55277161 103.61119805 64.15067094 97.46555965 60.76171875 91.3125 C60.4096637 90.67347244 60.05760864 90.03444489 59.69488525 89.37605286 C58.00512654 86.30845607 56.31665545 83.24016231 54.63037109 80.1706543 C50.16757264 72.06317904 45.59306627 64.03786597 41 56 C40.67 93.62 40.34 131.24 40 170 C26.8 170 13.6 170 0 170 C0 113.9 0 57.8 0 0 Z " fill="#EF3F23" transform="translate(763,0)"/>
<path d="M0 0 C105.44694534 0 105.44694534 0 130 23 C146.89678454 40.50024113 153.40705357 63.15742518 153.30249023 87.10498047 C152.73869858 111.82265569 142.98027021 133.88825386 125.1875 151.125 C91.68800671 179.83885139 38.15967183 170 0 170 C0 113.9 0 57.8 0 0 Z M44 32 C44 66.98 44 101.96 44 138 C71.3125433 138.5403949 71.3125433 138.5403949 94.4140625 125.8046875 C106.81201758 111.69666965 109.04368442 94.05187499 108 76 C106.49090202 63.33892372 102.14894304 51.87364946 92.70703125 43.04296875 C84.6198077 36.93962399 75.72512648 33.16554115 65.625 32.4375 C64.52414062 32.35371094 63.42328125 32.26992188 62.2890625 32.18359375 C56.1979789 31.92286431 50.09666132 32 44 32 Z " fill="#EF3F23" transform="translate(306,0)"/>
<path d="M0 0 C14.85 0 29.7 0 45 0 C46.22332733 3.669982 47.27676858 6.88061779 48.03775024 10.59384155 C48.30692009 11.8935791 48.30692009 11.8935791 48.58152771 13.21957397 C48.77070267 14.15177765 48.95987762 15.08398132 49.15478516 16.04443359 C49.35990219 17.04017395 49.56501923 18.03591431 49.77635193 19.06182861 C50.45073731 22.339994 51.11992535 25.6191972 51.7890625 28.8984375 C52.25670888 31.17679307 52.7246801 33.45508199 53.19296265 35.73330688 C54.42259798 41.7199802 55.64782378 47.70754768 56.87213135 53.6953125 C58.12302813 59.80914026 59.37809606 65.92211146 60.6328125 72.03515625 C63.09262316 84.02260319 65.54777595 96.01099897 68 108 C71.40476324 96.00385291 74.57405329 83.96462449 77.57239532 71.86074829 C78.2848374 68.98494839 79.00042594 66.10994621 79.71673584 63.23510742 C81.23052116 57.15740747 82.74052264 51.0787711 84.25 45 C86.01491684 37.89303823 87.78140531 30.78647425 89.55181122 23.68087769 C90.25670235 20.84835462 90.95876009 18.01513901 91.66070557 15.18188477 C92.08909572 13.46106598 92.51761623 11.74027964 92.94628906 10.01953125 C93.14055481 9.23213562 93.33482056 8.44473999 93.53497314 7.63348389 C94.88615687 2.22768626 94.88615687 2.22768626 96 0 C108.21 0 120.42 0 133 0 C132.3759294 4.99256481 131.78944811 9.34191803 130.59138489 14.12893677 C130.30418579 15.28612213 130.01698669 16.4433075 129.72108459 17.63555908 C129.40683029 18.88133728 129.09257599 20.12711548 128.76879883 21.41064453 C128.43316656 22.75532301 128.0979422 24.10010336 127.76309204 25.44497681 C126.85592184 29.08331408 125.9429024 32.72015996 125.02867723 36.35672998 C124.06610379 40.18934084 123.10854756 44.02320525 122.15031433 47.85690308 C120.53693059 54.30856665 118.91991383 60.75931088 117.30053711 67.20947266 C115.44295353 74.6085496 113.59019923 82.00882166 111.74031621 89.40982735 C109.75586355 97.34900409 107.7677996 105.28727345 105.77872634 113.22529364 C105.21389237 115.48041916 104.64970457 117.73570547 104.08567238 119.99103165 C103.18745777 123.58183618 102.28677304 127.17201348 101.38440323 130.76177597 C100.90696827 132.66315831 100.43169379 134.56508277 99.95655823 136.46704102 C97.12971733 147.69437471 94.04853163 158.82205068 91 170 C75.16 170 59.32 170 43 170 C39.62503427 159.87510281 39.62503427 159.87510281 38.65699768 156.01998901 C38.43461929 155.14156845 38.21224091 154.26314789 37.98312378 153.35810852 C37.75094147 152.42637314 37.51875916 151.49463776 37.27954102 150.53466797 C37.02527847 149.52620316 36.77101593 148.51773834 36.50904846 147.47871399 C35.67078215 144.15067232 34.83736685 140.82143563 34.00390625 137.4921875 C33.4094991 135.12891616 32.81476079 132.76572809 32.2197113 130.40261841 C30.64806607 124.15789263 29.08040177 117.91217458 27.51373291 111.66619873 C25.04816806 101.8395346 22.5762993 92.01445333 20.10517502 82.1891861 C19.19367053 78.56369363 18.2831437 74.93795661 17.37271118 71.31219482 C14.4137405 59.53597035 11.4355076 47.76512113 8.41357422 36.00488281 C8.12989833 34.89979181 7.84622244 33.79470081 7.55395031 32.65612221 C6.21612163 27.44621458 4.87437119 22.23737299 3.52577209 17.03024292 C3.05473897 15.20004346 2.58382026 13.36981456 2.11303711 11.53955078 C1.89682898 10.71088627 1.68062084 9.88222176 1.45786095 9.0284462 C0.66715797 5.94334302 0 3.19889882 0 0 Z " fill="#EF3F23" transform="translate(455,0)"/>
<path d="M0 0 C14.52 0 29.04 0 44 0 C42.87499847 9.00001222 42.87499847 9.00001222 41.99362183 12.47529602 C41.79518614 13.26757064 41.59675045 14.05984526 41.39230156 14.8761282 C41.17631372 15.71791654 40.96032589 16.55970488 40.73779297 17.42700195 C40.50788225 18.33906182 40.27797153 19.25112169 40.04109383 20.19081974 C39.279351 23.20781432 38.51079888 26.22302986 37.7421875 29.23828125 C37.20051545 31.37779483 36.65926441 33.51741504 36.1184082 35.65713501 C34.67393699 41.36671454 33.22359057 47.07478625 31.77205658 52.7825737 C30.27969044 58.65504886 28.79272531 64.52889118 27.30517578 70.40258789 C24.39922411 81.8731021 21.48714919 93.34205339 18.57275391 104.8104248 C17.14774444 110.41795456 15.72395878 116.02579412 14.30078125 121.63378906 C13.51303247 124.73763316 12.72527145 127.84147415 11.9375 130.9453125 C11.76782715 131.61384121 11.5981543 132.28236992 11.42333984 132.97115707 C8.28985576 145.31605479 5.14408624 157.65778911 2 170 C-14.17 170 -30.34 170 -47 170 C-48.26457031 165.14667969 -49.52914062 160.29335937 -50.83203125 155.29296875 C-51.63860365 152.19854989 -52.44521285 149.10414071 -53.25195312 146.00976562 C-54.52940909 141.10987469 -55.80673661 136.20995054 -57.08325195 131.30981445 C-58.11365253 127.35446984 -59.14466851 123.39928609 -60.17609215 119.44420815 C-60.56737388 117.94337869 -60.95844247 116.44249365 -61.34928322 114.9415493 C-61.72212509 113.50983193 -62.09540478 112.07822848 -62.46915722 110.64674854 C-62.82320911 109.28826798 -63.17543235 107.92930929 -63.52567768 106.56984234 C-64.28259534 103.64863737 -65.07635503 100.75208952 -65.96469116 97.86782837 C-69.46646978 86.43167604 -66.09753412 76.62499847 -63.25390625 65.31640625 C-62.87867402 63.80956064 -62.50375557 62.30263686 -62.12913513 60.79563904 C-61.34705515 57.65549792 -60.56065996 54.51647748 -59.77124023 51.37817383 C-58.75920835 47.35306097 -57.75899226 43.32511724 -56.76202488 39.29625034 C-55.99237378 36.19212292 -55.21613414 33.08967237 -54.43791008 29.98768425 C-54.06617465 28.50223034 -53.69660139 27.01623362 -53.32922554 25.52969551 C-52.81681704 23.46016895 -52.29548861 21.39309432 -51.77172852 19.32641602 C-51.47718277 18.14999039 -51.18263702 16.97356476 -50.87916565 15.76148987 C-50 13 -50 13 -48 11 C-46.29468061 15.84111036 -45.031572 20.71012607 -43.84521484 25.69580078 C-43.53753929 26.97494858 -43.53753929 26.97494858 -43.22364807 28.27993774 C-42.54994944 31.08440084 -41.8802363 33.88979636 -41.2109375 36.6953125 C-40.74307499 38.65016125 -40.27510672 40.6049847 -39.80703735 42.55978394 C-38.82848074 46.64960244 -37.8520499 50.73992169 -36.87695312 54.83056641 C-35.62645764 60.07525025 -34.36938061 65.31833187 -33.11055565 70.5610218 C-32.14320092 74.59396613 -31.17997994 78.62788923 -30.2179451 82.66210556 C-29.7560743 84.59616051 -29.29276076 86.5298715 -28.82798386 88.46323013 C-28.17968587 91.16214469 -27.53711833 93.86236153 -26.89599609 96.56298828 C-26.70277267 97.3620459 -26.50954926 98.16110352 -26.31047058 98.984375 C-25.49387778 102.44828801 -25 105.41919217 -25 109 C-24.34 109 -23.68 109 -23 109 C-22.87677368 107.71874237 -22.75354736 106.43748474 -22.62658691 105.11740112 C-22.05938325 100.03802598 -21.07092486 95.10978716 -19.97460938 90.12158203 C-19.77124466 89.17899033 -19.56787994 88.23639862 -19.35835266 87.26524353 C-18.69119902 84.17846555 -18.01759656 81.09313569 -17.34375 78.0078125 C-16.87640161 75.85317402 -16.4094067 73.69845884 -15.94274902 71.54367065 C-14.96704402 67.04282963 -13.98837043 62.54264852 -13.00732422 58.04296875 C-11.74876232 52.27016205 -10.49565563 46.49618888 -9.24449921 40.72177315 C-8.28171028 36.27947838 -7.31707107 31.83758721 -6.35176086 27.39583969 C-5.88892331 25.26600356 -5.42642816 23.13609298 -4.96427917 21.00610733 C-4.31971646 18.03770779 -3.67290834 15.06980693 -3.02539062 12.10205078 C-2.83419144 11.21995438 -2.64299225 10.33785797 -2.44599915 9.42903137 C-2.18105904 8.21809563 -2.18105904 8.21809563 -1.9107666 6.98269653 C-1.68180569 5.93141162 -1.68180569 5.93141162 -1.4482193 4.85888863 C-1.05206644 3.21593383 -0.53443779 1.60331338 0 0 Z " fill="#EF3F23" transform="translate(645,0)"/>
<path d="M0 0 C14.19 0 28.38 0 43 0 C43 56.1 43 112.2 43 170 C28.81 170 14.62 170 0 170 C0 113.9 0 57.8 0 0 Z " fill="#EF3F23" transform="translate(703,0)"/>
<path d="M0 0 C2.75030962 1.37515481 2.935256 3.19100918 3.88592148 5.98331451 C4.12159962 6.70054436 4.35727776 7.4177742 4.60009766 8.15673828 C4.85491032 8.91228752 5.10972298 9.66783676 5.37225723 10.44628143 C6.22659012 12.98531354 7.07022786 15.52777388 7.9140625 18.0703125 C8.51813534 19.87208268 9.12289635 21.67362228 9.728302 23.47494507 C11.36276443 28.34397397 12.98825087 33.21595654 14.61210632 38.08853149 C16.29785664 43.14210016 17.99134099 48.19307392 19.68457031 53.24414062 C21.75355437 59.41707471 23.82210085 65.59015144 25.8873291 71.76434326 C30.3113094 84.98696812 34.76907842 98.19766309 39.2578125 111.3984375 C39.82102673 113.05614451 40.38418866 114.71386928 40.94729614 116.37161255 C44.1208012 125.71320204 44.1208012 125.71320204 47.30303955 135.05181885 C48.51926768 138.61557221 49.73110656 142.18078891 50.93975449 145.7471199 C51.58330399 147.64198655 52.23175026 149.53518796 52.88040161 151.42831421 C53.26501556 152.56507599 53.64962952 153.70183777 54.04589844 154.87304688 C54.37732849 155.84592651 54.70875854 156.81880615 55.05023193 157.82116699 C56.2459963 161.82333909 57.09388395 165.92247776 58 170 C43.15 170 28.3 170 13 170 C11.35 164.76125 9.7 159.5225 8 154.125 C7.47792969 152.47258301 6.95585937 150.82016602 6.41796875 149.11767578 C6.0075864 147.81029231 5.59741558 146.5028424 5.1875 145.1953125 C4.97158203 144.51460693 4.75566406 143.83390137 4.53320312 143.13256836 C3 138.2281436 3 138.2281436 3 136 C-10.86 136 -24.72 136 -39 136 C-37.700625 131.09125 -36.40125 126.1825 -35.0625 121.125 C-34.65394775 119.57699707 -34.24539551 118.02899414 -33.82446289 116.43408203 C-33.5021167 115.22091309 -33.17977051 114.00774414 -32.84765625 112.7578125 C-32.51773682 111.5114502 -32.18781738 110.26508789 -31.84790039 108.98095703 C-31 106 -31 106 -30 104 C-22.41 104 -14.82 104 -7 104 C-7.69867188 101.86660156 -8.39734375 99.73320313 -9.1171875 97.53515625 C-9.79999993 95.4403494 -10.48136492 93.34507689 -11.16259766 91.24975586 C-11.63244454 89.80720677 -12.10376624 88.36513708 -12.57666016 86.92358398 C-13.26083861 84.83705666 -13.93948105 82.74879341 -14.6171875 80.66015625 C-15.02565918 79.40855713 -15.43413086 78.15695801 -15.85498047 76.86743164 C-16.04096298 76.23491486 -16.2269455 75.60239807 -16.41856384 74.95071411 C-16.81160109 73.63207699 -17.24806593 72.32573678 -17.72315979 71.03439331 C-20.0992819 63.44803051 -17.51552795 56.72895297 -15.29296875 49.375 C-14.88718456 47.97829243 -14.48318597 46.58106498 -14.08088684 45.18334961 C-13.02331115 41.52845656 -11.94000231 37.8816832 -10.85150146 34.23590088 C-9.96388502 31.24701832 -9.09474617 28.25291344 -8.22648144 25.25836182 C-7.19199741 21.69135915 -6.15012447 18.12653566 -5.10546875 14.5625 C-4.80595338 13.54056549 -4.80595338 13.54056549 -4.50038719 12.49798584 C-3.93673523 10.58212869 -3.36731955 8.66797005 -2.79760742 6.75390625 C-2.47402756 5.66408447 -2.15044769 4.5742627 -1.81706238 3.45141602 C-1 1 -1 1 0 0 Z " fill="#EF3F23" transform="translate(244,0)"/>
</svg>
