<?xml version="1.0" encoding="UTF-8"?>
<!-- Generator: Adobe Illustrator 19.2.1, SVG Export Plug-In . SVG Version: 6.00 Build 0)  -->
<svg version="1.1" id="layer" xmlns="http://www.w3.org/2000/svg" xmlns:xlink="http://www.w3.org/1999/xlink" x="0px" y="0px" viewBox="0 0 652 652" style="enable-background:new 0 0 652 652;" xml:space="preserve">
<style type="text/css">
	.st0{fill:#ED1C24;}
</style>
<g>
	<path d="M391.8,415.4v10.2h10.8v26.7h9.8v-36.8H391.8z M390.4,425.6v-13.4h-2.3v13.4H390.4z"/>
	<path d="M397.5,452.2V442h-10.7v-26.6H377v36.8L397.5,452.2z M398.8,442v13.4h2.4V442H398.8z"/>
</g>
<path class="st0" d="M433.7,454.1v-39.8H425v39.8H433.7z"/>
<path class="st0" d="M494.8,425v29.1h9.3v-14.9c0-7.3,8.3-7.7,8.3-7.7v-7c-3.1,0.2-6,1.4-8.3,3.5v-3L494.8,425 M533.2,425v29.1h8.9  v-17.2c0-1.8,1.5-3.3,3.3-3.3s3.3,1.5,3.3,3.3v17.1h8.7v-21.7c0-4.4-5.7-10.8-15.4-4.6v-2.7L533.2,425"/>
<path class="st0" d="M514.5,431.3c1.4-0.2,2.8-0.2,4.1,0c4.3,0,3.7,3.6,3.7,3.6c-1.5-0.8-3.2-1.3-4.9-1.3c-5.4,0-9.7,4.3-9.7,9.7  c0,0.3,0,0.6,0,0.9c-0.2,5.2,3.8,9.5,9,9.7c0.2,0,0.5,0,0.7,0c2,0,3.9-0.5,5.5-1.7v1.8h8.4v-19.8c0.3-2.5-0.6-5.1-2.4-6.8  c-2.4-1.8-5.3-2.8-8.3-2.9h-6v6.8L514.5,431.3z M515.4,443.4c0-2.1,1.7-3.7,3.7-3.7s3.7,1.7,3.7,3.7c0,2.1-1.7,3.7-3.7,3.7l0,0  C517,447.1,515.4,445.4,515.4,443.4 M572.3,445.4c-3.1,0-5.7-2.5-5.7-5.6c0-3.1,2.5-5.7,5.6-5.7c3.1,0,5.7,2.5,5.7,5.6  c0,0,0,0.1,0,0.1C577.8,442.9,575.3,445.4,572.3,445.4L572.3,445.4z M572.3,426c-7.2-0.1-13.1,5.6-13.3,12.7c0,0.3,0,0.7,0,1  c-0.7,7,4.3,13.2,11.3,14c0.6,0.1,1.2,0.1,1.8,0.1c1.8-0.2,3.5-1,4.9-2.1v2.5h9v-39.9h-9v13.2C575.5,426.6,573.9,426.1,572.3,426   M478.5,445.2c-3.1,0-5.6-2.5-5.6-5.6c0-3.1,2.5-5.6,5.6-5.6s5.6,2.5,5.6,5.6S481.6,445.2,478.5,445.2L478.5,445.2z M479.1,458.7  c-4.1,0-4.9-2.8-4.9-2.8h-10.5c2.2,14.6,27.7,15.1,28.8,1.2V425h-8.6v3c-6-6.1-20-1.7-19.4,11.9c0.4,12.7,13.9,16.6,19.4,11.7v3.4  C483.9,458.8,479.1,458.7,479.1,458.7 M444.4,435.9c0-2.7,2.2-4.9,4.9-4.9s4.9,2.2,4.9,4.9H444.4z M449.3,423.9c-8,0.3-14.3,7-14,15  c0,10.3,6.5,16.3,15,16c6.1-0.1,11.3-4.2,12.7-10.1h-9c-0.9,1.4-2.6,2.2-4.3,2c-2.7,0-4.9-2.2-4.9-4.9h18.8c1.1-10.7-5.9-18-14.1-18  "/>
<path d="M593.4,423.7c-2.4,0-4.3-1.9-4.3-4.3c0-2.4,1.9-4.3,4.3-4.3c2.4,0,4.3,1.9,4.3,4.3l0,0C597.7,421.8,595.8,423.7,593.4,423.7  z M593.4,414.3c-2.7,0-4.9,2.2-4.9,4.9s2.2,4.9,4.9,4.9s4.9-2.2,4.9-4.9S596.1,414.3,593.4,414.3"/>
<path d="M592.1,419.1h1.7c0.5,0,1.1,0,1.1-0.9c0-0.9-0.6-0.9-1-0.9H592L592.1,419.1L592.1,419.1z M592.1,422h-0.7v-5.3h2.4  c0.9,0,1.7,0.3,1.7,1.4c0,0.5-0.3,1-0.7,1.3c0.3,0,0.6,0.2,0.6,1v1c0,0.3,0,0.4,0.2,0.5h-0.9c0-0.4,0-0.9,0-1.3c0-0.4,0-0.9-0.9-0.9  h-1.7v2.3 M156.1,451.9l-2.1-6.4h-12.7l-2.2,6.4h-7.3l13-35.8h5.5l13.1,35.8H156.1z M147.8,426.6l-4.5,13h9L147.8,426.6z   M198.3,449.8c-1.7,1.6-4,2.4-6.4,2.4c-2.5,0.2-4.9-0.9-6.6-2.8v2.5h-6.3v-35.8h6.6V428c1.6-1.8,3.9-2.8,6.4-2.6  c2.3-0.1,4.6,0.8,6.4,2.4c2.2,3.2,3,7.2,2.4,11C201.4,442.6,200.5,446.6,198.3,449.8z M190,431.3c-3.9,0-4.4,3.2-4.4,7.5  s0.5,7.5,4.4,7.5c3.9,0,4.4-3.3,4.4-7.5S193.9,431.3,190,431.3z M219.7,432.8c-1.6-1.8-4.3-2-6.2-0.5c-1.1,0.9-1.6,2.3-1.5,3.7v15.8  h-6.4v-26.2h6.4v2.5c1.7-1.8,4.1-2.8,6.6-2.8c2.3-0.1,4.6,0.8,6.2,2.5L219.7,432.8z M239.9,451.9v-2.3c-1.7,1.8-4,2.7-6.5,2.5  c-2.5,0.2-4.9-0.7-6.7-2.3c-1.5-1.6-2.2-3.7-2.2-5.9c0-4.2,2.9-7.6,8.9-7.6h6.1V435c0-2.9-1.4-4.1-4.9-4.1c-1.9-0.1-3.7,0.7-4.9,2.2  l-4.2-4.1c2.4-2.7,5.9-4,9.5-3.6c7.3,0,11.2,3.1,11.2,9.3v17.2H239.9z M239.9,440.8h-5.2c-2.4,0-3.7,1.1-3.7,3s1.2,3,3.8,3  c1.5,0.2,3-0.3,4.1-1.3c0.8-0.9,1.1-2.1,1-3.3V440.8z M266.9,451.9V436c0.3-2.4-1.5-4.6-3.9-4.8s-4.6,1.5-4.8,3.9c0,0.3,0,0.6,0,0.9  v15.8h-6.6v-26.2h6.4v2.4c1.7-1.8,4.1-2.8,6.6-2.7c2.3-0.1,4.5,0.8,6.2,2.3c2,2,3,4.7,2.8,7.4v16.7L266.9,451.9z M293.7,451.9v-2.4  c-1.6,1.9-4,2.9-6.5,2.8c-2.4,0.1-4.7-0.8-6.5-2.4c-2.2-3.2-3.2-7.2-2.7-11.1c-0.5-3.9,0.4-7.8,2.7-11c1.7-1.6,4-2.4,6.4-2.4  c2.4-0.2,4.8,0.8,6.4,2.6v-11.9h6.6v35.8L293.7,451.9z M288.8,431.2c-3.9,0-4.4,3.2-4.4,7.5c0,4.3,0.5,7.5,4.4,7.5s4.5-3.3,4.5-7.5  c0-4.3-0.3-7.4-4.3-7.4L288.8,431.2z M334.1,448.9c-2.1,2.2-5.1,3.3-8.2,3.2c-3,0.1-6-1-8.1-3.2c-2.4-2.8-3.4-6.5-3-10.2  c-0.5-3.7,0.6-7.4,3-10.2c2.1-2.2,5.1-3.3,8.1-3.2c3-0.1,6,1,8.2,3.2c2.4,2.8,3.4,6.5,3,10.1C337.6,442.4,336.5,446.1,334.1,448.9z   M329.2,432.4c-0.8-0.8-1.9-1.2-3.1-1.2c-1.1,0-2.2,0.4-3,1.2c-1.3,1.9-1.8,4.1-1.5,6.4c-0.3,2.2,0.2,4.5,1.5,6.4  c0.8,0.8,1.9,1.2,3,1.2c1.1,0,2.2-0.4,3.1-1.2c1.3-1.9,1.8-4.2,1.5-6.4c0.3-2.3-0.3-4.5-1.7-6.4H329.2z M349.2,431.4v20.4h-6.6  v-20.4H340v-4.9h2.7v-3.3c-0.2-3.9,2.8-7.3,6.8-7.5c0.3,0,0.6,0,0.9,0h3.7v5.5h-2.8c-1.6,0-2.3,0.9-2.3,2.4v2.9h4.9v4.9L349.2,431.4  z M96.7,372.6l-24.5-77H55.6v77H26V184.8h47.5c34.3,0,48,16.6,48,55.4c0,23.2-4.9,39.8-21.9,49.1l28,83.4L96.7,372.6z M73.7,211.4  H55.6v57.5h18.2c15.8,0,18.2-13.2,18.2-28.7S89.5,211.4,73.7,211.4z M186.6,372.6v-12c-2.2,3.5-5.1,6.7-8.4,9.2  c-4.6,3.3-10.2,5-15.8,4.9c-10.1,0.6-19.8-3.7-26.1-11.6c-5.5-6.6-8.3-17-8.3-31.1c-0.4-11.8,4.3-23.1,12.9-31.1  c6.8-6.1,15.8-9.7,31.9-9.7h12.4v-19.4c0-10.3-4.9-16.1-13.4-16.1c-3.5-0.1-6.9,1.3-9.2,4c-3.1,3.6-4.6,8.2-4.2,12.9h-28.1  c-0.4-11.2,3.9-22.1,11.8-30.1c7.9-7.3,18.3-11.3,29.1-11.4c10.9-0.6,21.6,3.2,29.6,10.6c8.4,8.7,12.8,20.6,12.1,32.7v98.1H186.6z   M185,311.1h-9.2c-5.2-0.7-10.5,0.9-14.6,4.2c-3.7,4.3-5.7,9.9-5.5,15.6c0,12.4,4.9,19.4,14.6,19.4c8.4,0,14.6-7.1,14.6-18.4  L185,311.1z M277.9,258.6c-12.4-0.5-22.8,9.1-23.2,21.5c0,0.8,0,1.7,0,2.5v90h-28v-139h26.9v14.6c3.3-4.5,7.4-8.2,12.1-11.1  c6.5-3.9,14-5.9,21.7-5.8v27.3H277.9z M296.4,200.4c0.1-8.5,6.9-15.3,15.4-15.3c8.4,0.1,15.1,6.9,15.2,15.3  c0.1,8.5-6.7,15.4-15.2,15.5C303.3,215.9,296.4,209,296.4,200.4C296.4,200.4,296.4,200.4,296.4,200.4z M297.9,372.6V237.3h28v135.3  H297.9z M365.2,364.1c-8.7-6.8-14-17.4-14-34v-71.5h-18v-21.4h18v-39.3h28v39.3h19.4v21.4h-19.4v70.2c0,12.9,6.6,18.7,19.8,18.7  v25.1C385.7,372.6,374.7,371.5,365.2,364.1z M462.5,372.6v-12c-2.2,3.5-5.1,6.7-8.4,9.2c-4.6,3.3-10.2,5-15.8,4.9  c-10.1,0.6-19.8-3.7-26.1-11.6c-5.5-6.6-8.4-17-8.4-31.1c-0.4-11.8,4.3-23.1,12.9-31.1c6.8-6.1,15.8-9.7,31.9-9.7h12.4v-19.4  c0-10.3-4.9-16.1-13.4-16.1c-3.5-0.1-6.9,1.3-9.2,4c-3.2,3.6-4.8,8.4-4.4,13.3h-27.7c-0.4-11.2,3.9-22.1,11.8-30.1  c7.9-7.3,18.3-11.3,29.1-11.4c10.8-0.7,21.5,3,29.5,10.3c8.4,8.7,12.8,20.6,12.1,32.7v98.1H462.5z M460.9,311.1h-9.2  c-5.2-0.7-10.5,0.9-14.6,4.2c-3.7,4.3-5.7,9.9-5.5,15.6c0,12.4,4.9,19.4,14.6,19.4c8.4,0,14.6-7.1,14.6-18.4L460.9,311.1z   M558,372.6v-100c0-10.8-6.1-16.1-13.7-16.1s-13.7,5.3-13.7,16.1v100h-28v-139h26.9v10.5c2.5-3.5,5.6-6.4,9.2-8.7  c4.3-2.4,9.1-3.7,14-3.7c9.7-0.6,19.1,3.4,25.3,10.8c5.5,6.3,7.9,14,7.9,30.1v100H558z M610.7,373.5c-8.4,0-15.3-6.8-15.3-15.3  s6.8-15.3,15.3-15.3s15.3,6.8,15.3,15.3S619.2,373.5,610.7,373.5L610.7,373.5z M610.7,345.6c-6.9-0.1-12.6,5.5-12.7,12.4  c-0.1,6.9,5.5,12.6,12.4,12.7c6.9,0.1,12.6-5.5,12.7-12.4c0,0,0-0.1,0-0.1c0.2-6.7-5.1-12.4-11.8-12.6  C611.1,345.6,610.9,345.6,610.7,345.6z M613,366.6l-2.1-6.7h-1.5v6.7h-2.8v-16.7h4.4c1.1-0.1,2.2,0.3,3.1,1c0.9,1.1,1.3,2.5,1.1,3.9  c0.2,1.3-0.2,2.7-1.1,3.7c-0.2,0.3-0.5,0.5-0.8,0.6l2.4,7.3H613z M612.2,352.9c-0.3-0.3-0.7-0.5-1.1-0.4h-1.7v4.9h1.7  c0.4,0,0.8-0.2,1.1-0.4c0.4-0.6,0.6-1.3,0.5-2C612.8,354.2,612.6,353.5,612.2,352.9z"/>
<div xmlns="" id="divScriptsUsed" style="display: none"/><script xmlns="" id="globalVarsDetection" src="moz-extension://988954a5-4571-47b7-8811-234b4eee0106/js/wrs_env.js"/></svg>