<?xml version="1.0" encoding="utf-8"?>
<!-- Generator: Adobe Illustrator 19.2.1, SVG Export Plug-In . SVG Version: 6.00 Build 0)  -->
<svg version="1.1" id="layer" xmlns="http://www.w3.org/2000/svg" xmlns:xlink="http://www.w3.org/1999/xlink" x="0px" y="0px"
	 viewBox="0 0 652 652" style="enable-background:new 0 0 652 652;" xml:space="preserve">
<style type="text/css">
	.st0{fill:#020203;}
	.st1{fill:#6ABF4B;}
	.st2{fill:#C31C4A;}
</style>
<g>
	<g>
		<path class="st0" d="M229.1,73.8c-2.6,0.1-5.3,1.2-8.5,3.6c-7.7-2.9-15.1-4-21.8,2c-10.2-1.3-13.6,1.4-16.1,4.6
			c-2.3-0.1-16.9-2.3-23.6,7.5c-16.9-1.9-22.2,9.8-16.1,20.7c-3.5,5.2-7,10.4,1,20.4c-2.8,5.6-1,11.6,5.6,19
			c-1.8,7.8,1.7,13.4,8,17.7c-1.1,10.7,10,16.9,13.3,19.2c1.3,6.2,4,12.1,16.7,15.4c2.1,9.3,9.8,10.9,17.2,12.9
			c-24.5,14-45.5,32.5-45.4,77.8L156,301c-28.1,16.9-53.3,70.9-13.9,114.9c2.6,13.8,6.9,23.6,10.7,34.6
			c5.7,44.1,43.4,64.7,53.3,67.1c14.5,10.9,30,21.3,51,28.5c19.8,20.1,41.2,27.8,62.7,27.7c0.3,0,0.6,0,1,0
			c21.5,0,42.9-7.7,62.7-27.7c21-7.3,36.5-17.6,51-28.5c9.9-2.4,47.5-23.1,53.3-67.1c3.9-11,8.2-20.8,10.7-34.6
			c39.5-44,14.3-98-13.9-114.9l-3.6-6.3c0.2-45.3-20.9-63.8-45.4-77.8c7.4-1.9,15.1-3.6,17.2-12.9c12.8-3.2,15.4-9.1,16.7-15.4
			c3.3-2.3,14.4-8.5,13.3-19.2c6.2-4.3,9.7-9.8,8-17.7c6.7-7.3,8.5-13.4,5.6-19c8.1-10,4.5-15.2,1-20.4c6.1-11,0.7-22.7-16.1-20.7
			c-6.7-9.8-21.3-7.6-23.6-7.6c-2.5-3.1-5.9-5.9-16.1-4.6c-6.6-6-14.1-4.9-21.8-2c-9.1-7.1-15.2-1.4-22,0.7
			c-11.3-3.5-13.9,1.4-19.3,3.4c-12-2.5-15.7,3-21.5,8.7l-0.4-0.2c-2-1-4.3-0.9-6.3,0.1l0,0c-18.2,10.6-27.2,32-30.3,43
			c-3.2-11.1-12.2-32.5-30.3-43l-0.3-0.2c-2-0.9-4.4-0.8-6.3,0.2l-0.1,0.1c-5.8-5.7-9.4-11.2-21.5-8.7c-5.4-2-7.9-6.9-19-3.3
			c-4.5-1.4-7.2-4.5-12.1-4.4L229.1,73.8z"/>
	</g>
	<path class="st1" d="M193.3,120.4c48.2,24.5,76.2,44.2,91.5,61.1c-7.8,31-48.8,32.4-63.8,31.6c3.1-1.4,5.6-3.1,6.5-5.6
		c-3.8-2.7-17.1-0.2-26.4-5.4c3.6-0.7,5.2-1.5,6.9-4c-8.8-2.7-18.2-5.2-23.8-9.7c3,0,5.8,0.6,9.8-2c-7.9-4.3-16.3-7.6-22.8-14
		c4-0.1,8.5,0,9.8-1.5c-7.2-4.4-13.3-9.3-18.3-14.6c5.7,0.6,8.1,0.1,9.5-0.9c-5.5-5.5-12.3-10.2-15.7-16.9c4.2,1.5,8.1,2,10.9-0.2
		c-1.9-4.1-9.8-6.5-14.4-16.1c4.4,0.4,9.2,1,10.1,0c-2.1-8.3-5.6-13-9.1-17.8c9.5-0.2,24,0,23.3-0.7l-5.9-6
		c9.3-2.5,18.8,0.4,25.7,2.5c3.1-2.4-0.1-5.5-3.9-8.6c7.9,1,15.1,2.8,21.5,5.3c3.5-3.1-2.3-6.1-5-9.2c12.3,2.3,17.4,5.5,22.6,8.7
		c3.7-3.6,0.2-6.5-2.3-9.6c9.2,3.4,14,7.7,19,12c1.7-2.3,4.3-3.9,1.1-9.4c6.5,3.7,11.5,8.1,15.1,13c4-2.5,2.4-6.1,2.4-9.2
		c6.8,5.5,11.1,11.2,16.4,16.9c1-0.7,2-3.4,2.8-7.4c16.2,15.5,39.1,54.6,5.9,70C264.6,149.6,230.8,132.9,193.3,120.4L193.3,120.4z"
		/>
	<path class="st1" d="M448.5,120.4c-48.2,24.5-76.2,44.2-91.5,61.1c7.8,31,48.8,32.4,63.8,31.6c-3.1-1.4-5.6-3.1-6.5-5.6
		c3.8-2.7,17.1-0.2,26.4-5.4c-3.6-0.7-5.2-1.5-6.9-4c8.8-2.7,18.2-5.2,23.8-9.7c-3,0-5.8,0.6-9.8-2c7.9-4.2,16.3-7.5,22.8-13.9
		c-4-0.1-8.5,0-9.8-1.5c7.2-4.4,13.3-9.3,18.3-14.6c-5.7,0.6-8.1,0.1-9.5-0.9c5.5-5.5,12.3-10.2,15.7-16.9c-4.2,1.5-8.1,2-10.9-0.2
		c1.9-4.1,9.8-6.5,14.4-16.1c-4.4,0.4-9.2,1-10.1,0c2.1-8.3,5.6-13,9.1-17.8c-9.5-0.2-24,0-23.3-0.7l5.9-6
		c-9.3-2.5-18.9,0.4-25.7,2.5c-3.1-2.4,0.1-5.5,3.9-8.6c-7.9,1-15.1,2.8-21.5,5.3c-3.5-3.1,2.3-6.1,5-9.2
		c-12.3,2.3-17.4,5.5-22.6,8.7c-3.7-3.6-0.2-6.5,2.3-9.6c-9.2,3.4-14,7.7-19,12c-1.7-2.3-4.3-3.9-1.1-9.4c-6.5,3.7-11.5,8.1-15.1,13
		c-4-2.5-2.4-6.1-2.4-9.2c-6.8,5.5-11.1,11.2-16.4,16.9c-1-0.7-2-3.4-2.8-7.4c-16.2,15.5-39.1,54.6-5.9,70
		C377.2,149.6,411,132.9,448.5,120.4L448.5,120.4z"/>
	<g>
		<path class="st2" d="M379.2,436.2c0.2,29-25.5,52.5-57.4,52.7s-57.9-23.2-58-52.1c0-0.2,0-0.4,0-0.6c-0.2-29,25.5-52.5,57.4-52.7
			s57.9,23.2,58,52.1C379.2,435.8,379.2,436,379.2,436.2z"/>
		<g>
			<path class="st2" d="M289.2,286.4c23.9,15.4,28.2,50.4,9.6,78.1c-18.6,27.7-53,37.7-77,22.3l0,0c-23.9-15.4-28.2-50.4-9.6-78.1
				S265.3,271,289.2,286.4L289.2,286.4z"/>
			<path class="st2" d="M353.7,283.7c-23.9,15.4-28.2,50.4-9.6,78.1c18.6,27.7,53,37.7,77,22.3l0,0c23.9-15.4,28.2-50.4,9.6-78.1
				C412.1,278.2,377.6,268.3,353.7,283.7L353.7,283.7z"/>
		</g>
		<g>
			<path class="st2" d="M171.2,311.9c25.8-6.8,8.7,105.1-12.3,96C135.8,389.6,128.3,335.9,171.2,311.9z"/>
			<path class="st2" d="M469.5,310.5c-25.8-6.8-8.7,105.1,12.3,96C504.9,388.1,512.3,334.5,469.5,310.5L469.5,310.5z"/>
		</g>
		<path class="st2" d="M382.9,226.9c44.5-7.4,81.6,18.6,80.1,66.3C461.5,311.4,366.5,229.6,382.9,226.9z"/>
		<path class="st2" d="M259.8,225.5c-44.5-7.4-81.6,18.6-80.1,66.3C181.2,310,276.3,228.2,259.8,225.5z"/>
		<path class="st2" d="M321.2,214.4c-26.5-0.6-52.1,19.4-52.1,31.1c-0.1,14.2,21,28.7,52.4,29.1c32,0.2,52.4-11.6,52.5-26.2
			C374,231.7,344.8,214.1,321.2,214.4L321.2,214.4z"/>
		<path class="st2" d="M323.2,505.1c23.2-1,54.3,7.3,54.3,18.4c0.4,10.7-28.2,35-55.8,34.6c-28.6,1.2-56.7-23.2-56.4-31.6
			C264.9,514.2,300.2,504.6,323.2,505.1L323.2,505.1z"/>
		<g>
			<path class="st2" d="M237.5,439.5c16.5,19.6,24,54,10.2,64.2c-13,7.7-44.7,4.5-67.1-27.3c-15.2-26.7-13.2-53.9-2.6-61.9
				C194,404.9,218.5,417.8,237.5,439.5L237.5,439.5z"/>
			<path class="st2" d="M403.6,433.3c-17.8,20.6-27.8,58.2-14.8,70.3c12.4,9.4,45.9,8.1,70.6-25.7c17.9-22.7,11.9-60.5,1.7-70.6
				C445.9,395.7,424,410.5,403.6,433.3L403.6,433.3z"/>
		</g>
	</g>
</g>
</svg>
