<?xml version="1.0" encoding="UTF-8" standalone="no"?>
<svg
   xmlns:svg="http://www.w3.org/2000/svg"
   xmlns="http://www.w3.org/2000/svg"
   xmlns:xlink="http://www.w3.org/1999/xlink"
   version="1.1"
   width="383"
   height="76"
   fill="#0078af"
   id="svg2">
  <path
     d="m 115.3594,68.7985 -3.5171,6.5328 5.2756,-0.1719 4.998,0.1719 1.9437,-6.2749 c 0.4628,-1.3323 0.9256,-2.6646 1.3883,-3.9683 0.4628,-1.3037 0.9256,-2.5644 1.3883,-3.7678 l 1.5734,-3.868 4.998,-0.5158 c 0.7868,-0.086 1.7123,-0.129 2.7768,-0.1576 1.0643,-0.0143 2.2675,-0.0143 3.6096,-0.0143 1.3575,0 2.5916,0.0143 3.7022,0.0573 1.1261,0.0286 2.0825,0.0716 2.8692,0.1146 l 5.1831,0.5158 1.3884,3.9539 3.0543,7.8221 1.9436,6.103 8.1449,-0.1719 9.348,0.1719 -3.517,-6.7047 C 166.2648,57.4523 160.5264,44.7306 154.6954,30.4618 l -4.5352,-11.4323 -2.4064,-6.103 -4.2576,0.2579 -3.4246,-0.2579 -2.3138,6.103 -4.8128,11.6042 c -3.1006,7.1774 -6.1088,13.925 -9.0396,20.2714 -2.9156,6.3466 -5.7693,12.3063 -8.546,17.8934 z m 16.0121,-18.4807 1.5735,-3.5242 4.7203,-11.0885 2.3138,-5.1574 2.2213,5.1574 4.8129,11.0885 1.5734,3.5242 -3.1468,0.4298 c -0.7405,0.0859 -1.5118,0.1289 -2.3139,0.1433 -0.8021,0.0286 -1.666,0.0286 -2.5916,0.0286 -2.1288,0 -4.0724,-0.086 -5.8309,-0.2579 z m 54.0522,21.2313 -0.3702,4.298 7.2193,-0.6018 c 0.8794,-0.043 2.0363,-0.0716 3.5017,-0.0716 1.4501,-0.0143 3.2086,-0.0143 5.2911,-0.0143 3.4709,0.0429 6.448,0.0716 8.947,0.0859 2.4836,0.0144 4.4736,0.043 5.9545,0.086 l 6.9416,0.5158 -0.1852,-3.5243 0.1852,-3.6102 -4.998,0.3438 c -1.2033,0.086 -2.5916,0.1576 -4.1958,0.2006 -1.6044,0.043 -3.4401,0.0573 -5.5225,0.0573 l -8.145,0.086 V 25.7341 c 0.0463,-1.5472 0.0926,-3.0372 0.1544,-4.4411 0.0463,-1.4039 0.1233,-2.7363 0.2159,-3.9827 l 0.3703,-4.3838 -7.5895,0.2579 -8.145,-0.2579 0.5554,4.3838 c 0.0925,1.1461 0.1697,2.4068 0.216,3.7678 0.0463,1.361 0.0616,2.8509 0.0616,4.4841 v 36.1879 c -0.0462,1.8911 -0.0925,3.6531 -0.1542,5.2863 -0.0772,1.6332 -0.1697,3.1374 -0.3086,4.5127 z m 35.4488,-55.4422 -0.2777,3.5243 6.2012,-0.3439 7.7746,-0.3438 h 3.8873 v 3.8681 l -0.0925,17.0194 -0.0926,17.5353 -0.3702,11.948 -0.2777,6.017 7.8672,-0.1719 7.8672,0.1719 -0.3701,-6.017 -0.2777,-11.948 -0.1851,-17.5353 V 18.9435 h 3.8873 l 7.6821,0.3438 6.2011,0.3439 -0.1851,-3.5243 0.1851,-3.6101 -7.5894,0.2578 c -3.332,0.1289 -6.4173,0.2292 -9.271,0.3152 -2.8538,0.0716 -5.4916,0.1146 -7.9444,0.1146 -2.3138,0 -4.9054,-0.043 -7.7746,-0.1146 -2.8692,-0.086 -6.0161,-0.1863 -9.4407,-0.3152 l -7.682,-0.2578 z m 116.6196,-2.9225 -7.7746,-0.2579 0.2776,4.8996 0.1852,6.9625 0.1851,10.6586 -0.0926,17.7932 -0.0925,8.8535 -0.1852,7.8221 -0.2776,5.4153 8.1449,-0.1719 7.4969,0.1719 -0.4627,-5.5012 c -0.1388,-1.1605 -0.2314,-2.4069 -0.2932,-3.7392 -0.0462,-1.3323 -0.077,-2.7506 -0.077,-4.2548 v -8.5957 l 0.0925,-6.017 4.2575,6.017 5.9236,8.5957 c 1.3884,1.934 2.5761,3.6245 3.5479,5.0857 0.9873,1.447 1.774,2.6504 2.3756,3.5959 l 2.9618,4.8136 9.6257,-0.1719 9.3481,0.1719 -3.9799,-4.8996 -6.8491,-9.2833 -10.3661,-14.011 -5.6459,-8.1659 3.5171,-3.868 9.2555,-9.5413 7.3119,-7.3063 5.6459,-5.3294 -6.5715,0.2579 -6.2012,-0.2579 -3.7022,5.0715 c -0.9718,1.3323 -2.175,2.8366 -3.5942,4.5271 -1.4346,1.6761 -3.0698,3.5529 -4.9209,5.6158 l -6.2012,7.1344 -5.8309,6.017 v -6.1888 l 0.3702,-10.229 0.0926,-6.9625 0.3701,-4.9855 z M 9.3778,0.476 0.3478,0.1654 0.9052,4.7209 c 0.1114,1.3977 0.2043,3.0716 0.2601,5.0214 0.0557,1.9327 0.0743,4.1241 0.0743,6.5572 v 40.5164 c -0.0558,2.9507 -0.0929,5.47 -0.1115,7.5235 -0.0186,2.0707 -0.0557,3.71 -0.1115,4.8833 l -0.6688,6.1086 9.253,-0.2071 9.5874,0.2071 -0.4459,-6.005 C 18.5194,65.9269 18.4078,61.7855 18.4078,56.9194 L 18.2963,44.4263 v -4.3484 l 3.0101,4.3484 c 1.728,2.4676 3.2515,4.7281 4.5707,6.7815 1.3378,2.0707 2.5269,3.9688 3.5675,5.7116 l 7.4692,12.4069 3.5675,6.005 10.1448,-0.2071 11.4826,0.2071 -4.6822,-5.7979 c -2.6199,-3.503 -5.3697,-7.3855 -8.2682,-11.6304 -2.8801,-4.2277 -5.89,-8.8349 -9.0116,-13.7873 l -3.5674,-5.9014 c 2.4527,-0.5695 4.5709,-1.1562 6.3174,-1.7774 1.7465,-0.6212 3.1029,-1.2769 4.0505,-1.9499 1.6165,-0.9663 2.9915,-2.1397 4.1248,-3.5029 1.1334,-1.3459 2.0624,-2.899 2.787,-4.6591 0.5017,-1.1734 0.8362,-2.3813 1.0406,-3.6064 0.2044,-1.2251 0.2972,-2.502 0.2972,-3.8308 C 55.1412,15.8854 54.528,13.2107 53.3388,10.8639 52.1682,8.4999 50.4031,6.412 48.062,4.6174 46.1111,3.1679 43.77,2.0636 41.0201,1.3043 38.2516,0.545 35.0743,0.1654 31.4512,0.1654 L 20.9719,0.3725 Z m 8.9185,35.1499 V 7.2057 l 4.2364,-0.3106 c 4.515,0 7.9151,1.0526 10.1819,3.1751 2.2855,2.1224 3.4188,5.2974 3.4188,9.5424 -0.0371,2.1224 -0.3344,4.0723 -0.8919,5.867 -0.5388,1.8118 -1.3934,3.4338 -2.564,4.8833 -1.3935,1.7428 -2.9542,3.0715 -4.6822,3.9688 -1.728,0.88 -3.6231,1.3459 -5.6856,1.3977 z"
     id="path4" />
  <path
     d="m 70.2849,71.2913 -0.4627,4.5558 8.2374,-0.6018 11.8471,-0.0859 11.1066,0.3438 6.2938,0.3439 -0.1852,-4.0401 0.1852,-4.1259 -6.664,0.4298 c -1.8974,0.129 -3.7176,0.2149 -5.4762,0.2722 -1.7431,0.043 -3.4091,0.0716 -4.9826,0.0716 L 84.8162,68.3688 V 46.4927 l 5.5533,-0.0859 c 1.9899,0.0573 3.841,0.1146 5.5687,0.1719 1.7431,0.0716 3.3629,0.1289 4.89,0.1719 l 5.831,0.4298 -0.2776,-4.04 0.2776,-4.1403 -5.5533,0.3439 c -1.7123,0.1289 -3.4554,0.2149 -5.214,0.2722 -1.7585,0.0573 -3.5325,0.086 -5.3373,0.0716 l -5.7384,-0.086 V 19.8031 l 5.183,0.086 11.4769,0.3437 5.831,0.3439 -0.1852,-4.2119 0.1852,-3.954 -5.5533,0.4298 c -2.8692,0.1719 -7.5896,0.2578 -14.161,0.2578 -2.2213,0 -4.1187,-0.0142 -5.7076,-0.0572 -1.5734,-0.0287 -2.8537,-0.0717 -3.8256,-0.1147 l -8.2374,-0.5157 0.4627,4.6417 0.2777,7.822 v 9.7418 l 0.0926,16.5325 -0.0926,11.4465 c 0,1.6905 -0.0154,3.2521 -0.0617,4.7133 -0.0463,1.447 -0.1234,2.7793 -0.216,3.9827 z"
     id="path14" />
  <use
     xlink:href="#path14"
     transform="translate(210.3781)"
     id="use16" />
</svg>
