<svg id="Layer_1" data-name="Layer 1" xmlns="http://www.w3.org/2000/svg" viewBox="0 0 650.32 117.37"><title>Ricoh logo - Brandlogos.net</title><path d="M311.89,384c0,22.94,16.93,39.74,45.24,39.74a79.47,79.47,0,0,0,34.83-7.3l10.62,14.41c-14.66,7.73-28.75,11.82-50.47,11.82-45.15,0-78.35-21.75-78.35-58.66h0c.07-36.91,33.27-58.69,78.42-58.69,21.63,0,34.09,3.14,49.33,9.68l-10.85,16.61c-11.47-6.13-21.57-7.39-33.52-7.39-28.31,0-45.24,16.86-45.24,39.71" transform="translate(-58.84 -325.31)" style="fill:#d61b3e"/><path d="M484.17,325.31c-43.7,0-75.23,21.77-75.23,58.69s31.52,58.69,75.23,58.69,75.25-21.75,75.25-58.69-31.52-58.69-75.25-58.69m0,99.11c-24,0-37.3-18.06-37.3-40.45s13.28-40.45,37.3-40.45,37.33,18.08,37.33,40.45-13.28,40.45-37.33,40.45" transform="translate(-58.84 -325.31)" style="fill:#d61b3e"/><polygon points="614.21 67.17 614.21 114.39 650.32 114.39 650.32 2.94 614.21 2.94 614.21 45.45 558.99 45.45 558.99 2.94 522.95 2.94 522.95 114.39 558.99 114.39 558.99 67.17 614.21 67.17" style="fill:#d61b3e"/><rect x="155.18" y="2.96" width="38.04" height="111.45" style="fill:#d61b3e"/><path d="M104.91,379.27v10.65a284.21,284.21,0,0,1,49.49,49.78H197c-14.82-17.41-37.53-38.08-54.28-48.5,19.66-.8,41.55-8.76,41.55-31.32,0-28.93-30.93-34.25-62.2-34.25-25.53,0-49.07,1.19-63.21,2.34V439.7H94.38V344.81a222.81,222.81,0,0,1,27.83-1.49c18.35,0,27.53,6.06,27.53,16.59,0,9-3.83,19.8-44.85,19.39" transform="translate(-58.84 -325.31)" style="fill:#d61b3e"/></svg>