<?xml version="1.0" encoding="UTF-8" standalone="no"?>
<!-- Created with Inkscape (http://www.inkscape.org/) -->

<svg
   version="1.1"
   id="svg897"
   width="200"
   height="40"
   viewBox="0 0 200 39.999999"
   sodipodi:docname="shuttle.svg"
   inkscape:version="1.2.2 (b0a8486541, 2022-12-01)"
   xmlns:inkscape="http://www.inkscape.org/namespaces/inkscape"
   xmlns:sodipodi="http://sodipodi.sourceforge.net/DTD/sodipodi-0.dtd"
   xmlns="http://www.w3.org/2000/svg"
   xmlns:svg="http://www.w3.org/2000/svg">
  <defs
     id="defs901" />
  <sodipodi:namedview
     id="namedview899"
     pagecolor="#ffffff"
     bordercolor="#000000"
     borderopacity="0.25"
     inkscape:showpageshadow="2"
     inkscape:pageopacity="0.0"
     inkscape:pagecheckerboard="0"
     inkscape:deskcolor="#d1d1d1"
     showgrid="false"
     inkscape:zoom="4.5614166"
     inkscape:cx="102.38047"
     inkscape:cy="15.455725"
     inkscape:window-width="1866"
     inkscape:window-height="1011"
     inkscape:window-x="54"
     inkscape:window-y="32"
     inkscape:window-maximized="1"
     inkscape:current-layer="g905">
    <inkscape:page
       x="0"
       y="0"
       id="page903"
       width="200"
       height="40" />
  </sodipodi:namedview>
  <g
     id="g905"
     inkscape:groupmode="layer"
     inkscape:label="Page 1"
     transform="matrix(1.3333333,0,0,-1.3333333,-86.700518,72.274732)">
    <path
       d="m 91.02344,49.91699 c -1.1875,0.54102 -4.65723,1.77735 -8.6543,1.77735 -3.30664,0 -5.93359,-1.33399 -6.4668,-3.3125 -1.49316,-5.57227 15.9336,-5.37696 13.72461,-13.61719 -1.4834,-5.5293 -8.03613,-7.70313 -15.48632,-7.70313 -4.14454,0 -8.05958,0.69532 -9.11524,0.99219 0,0 1.09668,4.09375 1.09668,4.09375 1.49512,-0.69336 5.35547,-2.31445 9.69434,-2.31445 3.84961,0 6.92089,1.13281 7.63183,3.79492 1.60156,5.97461 -15.86621,5.62695 -13.66797,13.82031 1.14844,4.29297 6.25293,6.75781 13.89942,6.75781 3.41015,0 6.92773,-0.49023 8.30469,-0.68945 0,0 -0.96094,-3.59961 -0.96094,-3.59961 z"
       style="fill:#231f20;fill-opacity:1;fill-rule:nonzero;stroke:none"
       id="path909" />
    <path
       d="m 99.51855,53.81348 c 0,0 5.37696,0 5.37696,0 0,0 -3.34571,-12.48828 -3.34571,-12.48828 0,0 0.10157,0 0.10157,0 1.24511,1.33398 4.62402,4.74023 10.25,4.74023 4.49511,0 5.69726,-2.71484 4.99511,-5.32422 0,0 -3.56054,-13.28711 -3.56054,-13.28711 0,0 -5.43164,0 -5.43164,0 0,0 3.04492,11.35742 3.04492,11.35742 0.61914,2.32032 0.66992,4.3418 -2.04785,4.3418 -5.33106,0 -8.44922,-5.92187 -9.04492,-8.14453 0,0 -2.02344,-7.55469 -2.02344,-7.55469 0,0 -5.375,0 -5.375,0 0,0 7.06054,26.35938 7.06054,26.35938 z"
       style="fill:#231f20;fill-opacity:1;fill-rule:nonzero;stroke:none"
       id="path911" />
    <path
       d="m 136.21191,31.80371 c 0,0 -0.0986,0 -0.0986,0 -1.24023,-1.33594 -4.57519,-4.74219 -10.15234,-4.74219 -4.54102,0 -5.75293,2.66602 -5.03711,5.33399 0,0 3.54297,13.22461 3.54297,13.22461 0,0 5.42871,0 5.42871,0 0,0 -3.03809,-11.35157 -3.03809,-11.35157 -0.60547,-2.26171 -0.66992,-4.34179 2.04395,-4.34179 5.32812,0 8.44238,5.92773 9.03613,8.14648 0,0 2.02832,7.54688 2.02832,7.54688 0,0 5.37793,0 5.37793,0 0,0 -4.86523,-18.16602 -4.86523,-18.16602 0,0 -5.43457,0 -5.43457,0 0,0 1.16796,4.34961 1.16796,4.34961 z"
       style="fill:#231f20;fill-opacity:1;fill-rule:nonzero;stroke:none"
       id="path913" />
    <path
       d="m 160.13086,27.30957 c -1.14063,-0.19336 -2.58106,-0.24805 -3.82031,-0.24805 -5.08106,0 -7.70508,1.08985 -6.75,4.64453 0,0 3.19922,11.94141 3.19922,11.94141 0,0 -4.09766,0 -4.09766,0 0,0 0.53125,1.97266 0.53125,1.97266 0,0 4.09766,0 4.09766,0 0,0 1.14941,4.29687 1.14941,4.29687 0,0 6,2.32227 6,2.32227 0,0 -1.77051,-6.61914 -1.77051,-6.61914 0,0 6.95703,0 6.95703,0 0,0 -0.52636,-1.97266 -0.52636,-1.97266 0,0 -6.96192,0 -6.96192,0 0,0 -2.78906,-10.41211 -2.78906,-10.41211 -0.72852,-2.71289 -0.67578,-4 2.78125,-4 0.88672,0 1.79785,0.0957 2.5957,0.29688 0,0 -0.5957,-2.22266 -0.5957,-2.22266 z"
       style="fill:#231f20;fill-opacity:1;fill-rule:nonzero;stroke:none"
       id="path915" />
    <path
       d="m 175.18066,27.30957 c -1.1416,-0.19336 -2.57812,-0.24805 -3.81152,-0.24805 -5.0918,0 -7.75684,1.08985 -6.80762,4.64453 0,0 3.2002,11.94141 3.2002,11.94141 0,0 -4.04297,0 -4.04297,0 0,0 0.53125,1.97266 0.53125,1.97266 0,0 4.04395,0 4.04395,0 0,0 1.14941,4.29687 1.14941,4.29687 0,0 6.04883,2.32227 6.04883,2.32227 0,0 -1.76856,-6.61914 -1.76856,-6.61914 0,0 6.95996,0 6.95996,0 0,0 -0.52832,-1.97266 -0.52832,-1.97266 0,0 -6.96289,0 -6.96289,0 0,0 -2.79004,-10.41211 -2.79004,-10.41211 -0.72265,-2.71289 -0.72949,-4 2.78028,-4 0.83301,0 1.75097,0.0957 2.59082,0.29688 0,0 -0.59278,-2.22266 -0.59278,-2.22266 z"
       style="fill:#231f20;fill-opacity:1;fill-rule:nonzero;stroke:none"
       id="path917" />
    <path
       d="m 186.33008,53.81348 c 0,0 5.38476,0 5.38476,0 0,0 -7.06738,-26.35938 -7.06738,-26.35938 0,0 -5.37988,0 -5.37988,0 0,0 7.0625,26.35938 7.0625,26.35938 z"
       style="fill:#231f20;fill-opacity:1;fill-rule:nonzero;stroke:none"
       id="path919" />
    <path
       d="m 197.80566,38.61621 c 0,0 15.25196,0 15.25196,0 0.93457,3.49805 0.46191,7.44922 -7.78321,7.44922 -8.04003,0 -11.84668,-3.70117 -13.19433,-8.73047 -1.95703,-7.3125 2.9209,-10.27344 9.98242,-10.27344 3.20605,0 5.29102,0.39258 7.67773,1.03711 0,0 0.46192,1.73438 0.46192,1.73438 -1.70703,-0.50196 -3.39942,-0.74219 -5.03223,-0.74219 -7.64453,0 -8.31445,5.97266 -7.36426,9.52539 z m 10.38086,1.7207 c 0,0 -9.82031,0 -9.82031,0 0.42481,1.04297 2.02149,4.04883 6.16406,4.04883 4.05078,0 4.03028,-2.66015 3.65625,-4.04883 0,0 0,0 0,0 z"
       style="fill:#231f20;fill-opacity:1;fill-rule:nonzero;stroke:none"
       id="path921" />
  </g>
</svg>
