<?xml version="1.0" encoding="UTF-8" standalone="no"?>
<svg viewBox="0 0 1280 225.27997" version="1.1" id="svg1" sodipodi:docname="logo (2).svg" inkscape:version="1.4 (e7c3feb100, 2024-10-09)" width="1280" height="225.27997" xmlns:inkscape="http://www.inkscape.org/namespaces/inkscape" xmlns:sodipodi="http://sodipodi.sourceforge.net/DTD/sodipodi-0.dtd" xmlns="http://www.w3.org/2000/svg" xmlns:svg="http://www.w3.org/2000/svg">
  <sodipodi:namedview id="namedview1" pagecolor="#ffffff" bordercolor="#000000" borderopacity="0.25" inkscape:showpageshadow="2" inkscape:pageopacity="0.0" inkscape:pagecheckerboard="0" inkscape:deskcolor="#d1d1d1" inkscape:zoom="0.22421875" inkscape:cx="640" inkscape:cy="111.49826" inkscape:window-width="1280" inkscape:window-height="730" inkscape:window-x="0" inkscape:window-y="0" inkscape:window-maximized="1" inkscape:current-layer="g4"/>
  <defs id="defs1"/>
  <g id="Layer_2">
    <g id="g4" inkscape:label="logo">
      <path d="m 456.0129,225.27997 c -46.41279,0 -89.42079,-13.82399 -118.09279,-39.60319 A 96.895989,96.895989 0 0 1 305.79212,112.48639 98.329588,98.329588 0 0 1 337.92011,39.551995 C 364.54411,15.359998 411.64811,0 456.0129,0 c 49.07519,0 88.37119,12.364799 118.39999,39.603195 a 97.407989,97.407989 0 0 1 31.69279,72.883195 101.52959,101.52959 0 0 1 -31.69279,73.19039 c -27.9808,25.9328 -71.9104,39.60319 -118.39999,39.60319 v -29.64479 c 24.6016,0 47.43679,-8.4992 63.38559,-24.3712 15.9488,-15.872 23.1936,-35.1232 23.1936,-58.87999 0,-22.681601 -7.9616,-43.878398 -23.1936,-58.879996 -15.744,-15.487998 -39.11679,-24.217597 -63.38559,-24.217597 -24.2688,0 -47.74399,8.652799 -63.48799,24.217597 -15.1808,15.027198 -23.04,36.300795 -23.04,58.879996 a 82.35519,82.35519 0 0 0 23.04,58.87999 c 15.744,15.6928 39.06559,24.3712 63.48799,24.3712 z M 117.12014,0 C 92.313748,0 64.128151,4.6591995 40.320154,15.359998 18.099355,25.292797 1.5754749e-4,41.241595 1.5754749e-4,67.686392 A 54.220794,54.220794 0 0 0 14.720156,104.95999 c 6.425599,5.9392 16.793599,16.0256 43.878396,21.9648 12.108798,2.55999 37.990395,6.68159 63.769588,9.39519 25.7792,2.7136 50.7648,5.12 61.0048,7.8592 8.1408,2.0736 21.83679,4.8896 21.83679,20.2496 0,15.36 -14.41279,19.968 -16.92159,20.9664 -2.5088,0.9984 -19.8144,8.9344 -50.8928,8.9344 a 216.42237,216.42237 0 0 1 -60.59519,-10.4192 c -11.596799,-4.1472 -23.756797,-9.6 -35.097596,-23.4496 a 40.268795,40.268795 0 0 1 -7.295999,-22.2208 H 6.2465567 v 78.84799 H 37.529754 v -10.67519 a 4.4543995,4.4543995 0 0 1 6.7584,-3.84 246.42557,246.42557 0 0 0 45.772794,14.79679 c 16.435202,3.4304 27.059192,5.9136 47.487992,5.9136 a 202.62398,202.62398 0 0 0 63.6416,-8.9856 111.07839,111.07839 0 0 0 37.81119,-18.66239 51.814394,51.814394 0 0 0 20.24959,-41.4976 58.060793,58.060793 0 0 0 -16.35839,-40.80639 72.012792,72.012792 0 0 0 -20.1728,-13.798402 148.60798,148.60798 0 0 0 -24.88319,-8.678399 c -16.2304,-3.967999 -52.6848,-8.934399 -70.1184,-10.675198 -18.27839,-1.8944 -49.99679,-4.5312 -62.668789,-8.447999 -3.839999,-1.2032 -11.673599,-4.9152 -11.673599,-14.003199 0,-6.476799 3.584,-11.955198 10.649599,-16.383998 C 75.26415,34.303996 97.945747,29.926396 121.60014,29.926396 a 166.98878,166.98878 0 0 1 66.7136,13.030399 72.857591,72.857591 0 0 1 15.87199,9.471999 47.718394,47.718394 0 0 1 15.6416,26.163197 h 25.2672 V 9.9583988 h -28.16 v 7.9615992 c 0,2.56 -2.56,5.939199 -7.68,3.1488 C 196.55694,14.463998 160.87054,0.17919998 117.12014,0 Z m 618.21433,12.595199 137.62558,124.185581 -1.408,-83.609586 c -0.1536,-10.982399 -2.1504,-15.564798 -14.0288,-15.564798 H 831.66726 V 12.595199 h 117.75998 v 25.011197 h -25.26719 c -12.0832,0 -12.8,3.891199 -13.0048,15.564798 l 2.1248,159.769586 h -40.32 L 714.41927,71.475192 V 171.85278 c 0.128,10.9312 0.64,16.0768 11.8784,16.0768 h 28.16 v 25.0112 H 639.02728 v -25.0112 h 27.0336 c 10.08639,0 9.67679,-9.6256 9.67679,-16.64 V 54.118394 c 0,-7.679999 -1.0752,-16.486398 -16.89599,-16.486398 h -21.9136 V 12.595199 Z M 1083.776,187.87838 a 55.859193,55.859193 0 0 0 6.9632,-0.4352 8.627199,8.627199 0 0 0 5.4272,-4.8128 28.006397,28.006397 0 0 0 0.5376,-5.4016 v -39.552 c 0,-1.3312 0,-1.3568 -1.6896,-3.456 -1.6896,-2.0992 -72.0896,-81.919986 -75.2896,-85.503986 -3.9936,-4.351999 -11.008,-11.084798 -21.68316,-11.084798 h -24.448 V 12.595199 h 137.98396 v 24.985597 h -16.64 c -3.84,0 -6.4,3.660799 -3.1232,7.679999 0,0 46.4384,55.551995 46.8736,56.140795 0.4352,0.5888 0.8192,0.7168 1.408,0.1792 0.5888,-0.5376 47.5904,-55.807995 47.9488,-56.319995 a 4.7871994,4.7871994 0 0 0 -4.096,-7.679999 h -17.0752 V 12.595199 H 1280 v 25.036797 h -25.2672 c -9.1648,0 -12.8,1.689599 -19.7888,9.471998 l -76.16,86.886386 a 5.3759994,5.3759994 0 0 0 -0.9216,3.6864 v 39.5264 a 28.159997,28.159997 0 0 0 0.5632,5.4016 8.524799,8.524799 0 0 0 5.4016,4.8128 50.611194,50.611194 0 0 0 6.912,0.4352 h 25.8304 v 25.0368 h -137.2672 v -25.0368 z" id="path1" fill="#000000" style="stroke-width:2.56"/>
    </g>
  </g>
<div xmlns="" id="divScriptsUsed" style="display: none"/><script xmlns="" id="globalVarsDetection" src="moz-extension://988954a5-4571-47b7-8811-234b4eee0106/js/wrs_env.js"/></svg>