<svg xmlns="http://www.w3.org/2000/svg" width="129" height="56" fill="#5382a1"><path d="M122.16734 14.60723c-5.278 0-10.871 8.379-12.771 11.201-.12.269-.159.156-.12-.053.923-3.368 2.02-6.361 2.02-8.596 0-1.351-.657-2.713-2.389-2.713-3.708 0-9.091 7.289-9.091 9.076 0 .378.111.651.382.651.658 0 1.197-1.244 2.18-2.549 1.248-1.521 2.782-3.488 3.701-3.488.165 0 .323.121.323.658 0 2.279-4.671 15.17-6.629 21.583-.215.707.21.874 2.269.874 1.472 0 2.183.216 2.454-.926 1.197-4.302 3.435-9.078 5.863-13.274 2.233-3.905 7.022-9.567 9.686-9.567.603 0 .981.436.981 1.37 0 2.713-6.97 15.701-6.745 20.647.052 1.423.547 2.456 2.34 2.456 4.126 0 7.766-5.772 9.458-8.818.272-.476.703-1.031.334-1.621-.119-.216-.334-.328-.614-.328-.153 0-.323.16-.43.328-1.14 2.016-3.642 6.411-5.324 6.516-.324 0-.483-.32-.483-.596 0-1.947 6.084-14.626 6.084-18.908 0-2.888-1.578-3.923-3.479-3.923m-49.756 9.512c0 .272.222.539.54.539.709 0 1.084-1.411 2.82-3.752.983-1.456 2.232-2.6 2.89-2.6.478 0 .54.384.54.703 0 1.634-6.199 14.679-6.199 19.791 0 1.577.658 3.1 2.674 3.1 4.777 0 9.951-6.032 13.634-11.474.172-.156.273-.156.228.111-.766 2.231-1.855 6.475-1.855 9.074 0 1.096.227 2.404 1.964 2.404 4.234 0 9.716-8.327 9.716-10.283 0-.323-.099-.657-.486-.657-.647 0-.87 1.09-1.573 2.29-1.306 2.067-3.423 4.784-4.456 4.784-.374 0-.374-.435-.374-.758 0-2.779 6.629-20.887 6.629-21.43 0-.433-.056-.7-.699-.7-.447 0-1.159-.056-2.128-.056-1.805 0-1.907.267-2.066.603-.879 1.676-2.169 7.059-4.779 11.791-3.549 6.144-8.329 10.984-10.338 10.984-.714 0-1.148-.549-1.148-1.362 0-2.715 6.586-16.792 6.586-20.22 0-.812-.43-2.439-2.397-2.439-5.267 0-9.723 8.584-9.723 9.557m-16.434-10.115c-.164 8.321 9.192 12.242 9.027 19.53 0 2.003-1.527 7.22-6.852 7.119-2.67-.061-5.224-1.853-5.167-6.478v-3.257c-.057-.259-.057-.6-.278-.881-.158-.152-.476-.256-.742-.152-.501.27-.602.808-.819 1.251-.278 1.413-.601 2.883-.874 4.296-.056.105.096.105 0 .105-.221 1.03-.386 2.126-.437 3.159-.057.65.381 1.19.925 1.523 2.015 1.074 4.571 1.841 7.392 1.898 6.903.11 12.549-5.932 12.664-11.799.057-4.732-2.606-7.451-5.529-10.983-1.47-1.851-4.422-4.398-4.304-7.77 0-2.721 2.225-5.764 6.296-5.709 5.501.112 4.626 5.925 4.736 8.59 0 .274 0 .542.214.647.222.225.551.282.817.168.167-.168.273-.273.331-.432l1.368-5.113c.208-.926.649-1.854.649-2.941 0-.268-.23-.537-.496-.75-2.883-1.531-4.621-1.747-7.29-1.795-6.743-.114-11.573 4.67-11.631 9.774"/><path d="M7.35234 26.40323c-1.586 1.57-4.117 1.57-5.684 0-1.561-1.567-1.561-4.101 0-5.668l9.287-9.291 2.494 2.483-9.363 9.356.71.705 9.345-9.357 2.491 2.492-9.28 9.28"/><path d="M14.58334 20.63723c1.562-1.568 4.093-1.568 5.659 0 1.579 1.565 1.579 4.098 0 5.665l-9.287 9.296-2.475-2.486 9.351-9.353-.699-.7-9.366 9.347-2.482-2.48 9.299-9.289"/><path d="M26.61834 39.90923c1.566 1.563 1.566 4.102 0 5.668-1.567 1.569-4.11 1.569-5.666 0l-9.292-9.293 2.475-2.484 9.35 9.357.714-.695-9.354-9.363 2.479-2.487 9.294 9.297"/><path d="M20.83934 32.67323c-1.561-1.565-1.561-4.114 0-5.67 1.566-1.567 4.117-1.567 5.683 0l9.288 9.289-2.482 2.48-9.362-9.35-.703.697 9.356 9.361-2.484 2.477-9.296-9.284"/><path d="M32.89234 26.40323c-1.569 1.561-4.101 1.561-5.673 0-1.566-1.567-1.566-4.109 0-5.675l9.287-9.284 2.498 2.474-9.36 9.362.698.7 9.35-9.349 2.497 2.477-9.297 9.295"/><path d="M40.12234 20.63123c1.574-1.571 4.111-1.571 5.672 0 1.572 1.561 1.572 4.104 0 5.671l-9.288 9.293-2.481-2.496 9.355-9.35-.708-.697-9.344 9.349-2.492-2.483 9.286-9.287"/><path d="M26.61834 14.35623c1.566 1.569 1.566 4.109 0 5.679-1.567 1.564-4.11 1.564-5.666 0l-9.292-9.293 2.475-2.487 9.35 9.359.714-.715-9.354-9.34 2.479-2.491 9.294 9.288"/><path d="M20.83934 7.12323c-1.561-1.561-1.561-4.111 0-5.666 1.566-1.574 4.117-1.574 5.683 0l9.288 9.285-2.482 2.49-9.362-9.36-.703.699 9.356 9.356-2.484 2.488-9.296-9.292"/><path d="M126.48734 39.22123c.341 0 .675-.009.675-.393 0-.315-.261-.387-.528-.387h-.514v.78h.367m-.367 1.238h-.286v-2.265h.887c.493 0 .725.221.725.634 0 .397-.271.571-.562.634l.664.997h-.334l-.63-.997h-.464zm-1.217-1.128c0 .932.71 1.671 1.654 1.671.93 0 1.645-.739 1.645-1.671 0-.938-.715-1.668-1.645-1.668-.944 0-1.654.73-1.654 1.668m3.599 0c0 1.102-.852 1.955-1.945 1.955-1.103 0-1.961-.853-1.961-1.955 0-1.104.858-1.943 1.961-1.943 1.093 0 1.945.839 1.945 1.943"/><path d="M59.33934 52.84523v-3.61c0-.778-.202-1.276-.94-1.276-.846 0-1.635.846-1.635 2.199v2.687h-1.041v-3.627c0-.699-.147-1.259-.946-1.259-.881 0-1.618.91-1.618 2.199v2.687h-1.045v-5.632h1.01c0 .335-.017.84-.102 1.186l.028.007c.341-.794 1.095-1.298 2.021-1.298 1.226 0 1.55.827 1.606 1.274.238-.53.859-1.274 1.983-1.274 1.085 0 1.714.574 1.714 1.842v3.895h-1.035"/><path d="M68.29234 52.92223c-1.378 0-2.531-.624-2.531-2.706 0-1.81.959-3.096 2.889-3.096.459 0 .913.083 1.323.187l-.114.896c-.364-.14-.788-.235-1.255-.235-1.165 0-1.731.837-1.731 2.119 0 1.093.375 1.973 1.662 1.973.485 0 1-.119 1.369-.309l.079.885c-.385.141-.993.286-1.691.286"/><path d="M74.43434 48.11423c-1.219-.204-1.816.667-1.816 2.469v2.262h-1.045v-5.632h1.017c0 .359-.046.876-.133 1.344h.025c.248-.786.845-1.57 2.004-1.443l-.052 1"/><path d="M78.12434 47.96823c-.839 0-1.636.625-1.636 2.012 0 1.357.569 2.102 1.636 2.102.868 0 1.605-.652 1.605-2.089 0-1.277-.52-2.025-1.605-2.025m-.136 4.979c-1.567 0-2.589-.884-2.589-2.86 0-1.657 1.07-2.973 2.815-2.973 1.488 0 2.619.796 2.619 2.829 0 1.691-1.118 3.004-2.845 3.004"/><path d="M83.55334 52.94723c-.433 0-.865-.025-1.227-.102l.027-.904c.371.119.835.194 1.278.194.762 0 1.302-.338 1.302-.86 0-1.259-2.7-.489-2.7-2.47 0-.953.794-1.691 2.313-1.691.356 0 .782.045 1.113.109l-.017.852c-.364-.107-.779-.181-1.164-.181-.784 0-1.164.316-1.164.811 0 1.238 2.708.564 2.708 2.457 0 1.015-.939 1.785-2.469 1.785"/><path d="M89.80834 53.41123c-.695 1.747-1.226 2.312-2.51 2.312-.228 0-.523-.034-.748-.069l.084-.919c.233.087.477.118.749.118.637 0 .97-.285 1.38-1.374l.25-.634-2.184-5.632h1.191l1.083 2.926c.188.517.325.948.444 1.395h.035c.105-.396.345-1.116.566-1.735l.937-2.586h1.136l-2.413 6.198"/><path d="M94.37734 52.94723c-.43 0-.863-.025-1.226-.102l.038-.904c.364.119.83.194 1.268.194.776 0 1.293-.338 1.293-.86 0-1.259-2.696-.489-2.696-2.47 0-.953.818-1.691 2.327-1.691.351 0 .756.045 1.113.109l-.034.852c-.353-.107-.771-.181-1.157-.181-.773 0-1.165.316-1.165.811 0 1.238 2.708.564 2.708 2.457 0 1.015-.943 1.785-2.469 1.785"/><path d="M100.35934 52.93823c-1.203 0-1.554-.481-1.554-1.69v-3.24h-1.18v-.795h1.18v-1.816l1.045-.291v2.107h1.628v.795h-1.628v2.882c0 .916.173 1.173.829 1.173.265 0 .559-.039.799-.107v.863c-.334.074-.748.119-1.119.119"/><path d="M105.19634 47.86523c-.766 0-1.317.56-1.421 1.373h2.709c.018-.813-.483-1.373-1.288-1.373m2.327 2.109h-3.798c-.045 1.499.601 2.15 1.84 2.15.59 0 1.221-.136 1.681-.354l.102.831c-.562.218-1.239.346-1.959.346-1.787 0-2.742-.897-2.742-2.878 0-1.687.944-2.955 2.583-2.955 1.634 0 2.317 1.075 2.317 2.365 0 .151-.007.298-.024.495"/><path d="M116.32834 52.84523v-3.61c0-.778-.171-1.276-.934-1.276-.823 0-1.632.846-1.632 2.199v2.687h-1.032v-3.627c0-.699-.153-1.259-.943-1.259-.886 0-1.624.91-1.624 2.199v2.687h-1.038v-5.632h1.018c0 .335-.035.84-.099 1.186l.017.007c.332-.794 1.085-1.298 2.015-1.298 1.222 0 1.562.827 1.597 1.274.243-.53.867-1.274 1.992-1.274 1.084 0 1.722.574 1.722 1.842v3.895h-1.059"/><path d="M120.26234 52.94723c-.425 0-.851-.025-1.209-.102l.027-.904c.365.119.824.194 1.279.194.762 0 1.278-.338 1.278-.86 0-1.259-2.693-.489-2.693-2.47 0-.953.808-1.691 2.342-1.691.34 0 .748.045 1.088.109l-.011.852c-.363-.107-.795-.181-1.171-.181-.776 0-1.156.316-1.156.811 0 1.238 2.695.564 2.695 2.457 0 1.015-.924 1.785-2.469 1.785"/><path d="M63.33734 46.28623c.381 0 .688-.301.688-.662 0-.376-.307-.662-.688-.662-.39 0-.715.299-.715.662 0 .369.325.662.715.662"/><path d="M61.96334 47.20323v.795h.841v4.847h1.049v-5.632"/><div xmlns="" id="divScriptsUsed" style="display: none"/><script xmlns="" id="globalVarsDetection" src="moz-extension://988954a5-4571-47b7-8811-234b4eee0106/js/wrs_env.js"/></svg>