<?xml version="1.0" encoding="UTF-8"?>
<!-- Generator: Adobe Illustrator 12.0.0, SVG Export Plug-In  -->
<!DOCTYPE svg PUBLIC "-//W3C//DTD SVG 1.1//EN" "http://www.w3.org/Graphics/SVG/1.1/DTD/svg11.dtd">
<svg version="1.1" xmlns="http://www.w3.org/2000/svg" xmlns:xlink="http://www.w3.org/1999/xlink" xmlns:a="http://ns.adobe.com/AdobeSVGViewerExtensions/3.0/" width="501" height="149" viewBox="-0.3779297 -0.4501953 501 149" enable-background="new -0.3779297 -0.4501953 501 149" xml:space="preserve">
<defs>
</defs>
<polygon opacity="0" fill-rule="evenodd" clip-rule="evenodd" fill="#FFFFFF" points="0,0 500,0 500,147.8554688 0,147.8554688 0,0   "/>
<polygon fill-rule="evenodd" clip-rule="evenodd" fill="#13007A" points="455.0693359,96.3740234 451.2919922,96.3740234   451.2919922,95.1425781 461.4931641,95.1425781 461.4931641,96.3740234 457.7167969,96.3740234 457.7167969,102.8994141   455.0693359,102.8994141 455.0693359,96.3740234 "/>
<polygon fill-rule="evenodd" clip-rule="evenodd" fill="#13007A" points="463.1708984,95.1425781 467.40625,95.1425781   470.5341797,101.0195313 470.5673828,101.0195313 473.7060547,95.1425781 477.9414063,95.1425781 477.9414063,102.8994141   475.4052734,102.8994141 475.4052734,96.5009766 475.3730469,96.5009766 471.8164063,102.8994141 469.2929688,102.8994141   465.7392578,96.5009766 465.7060547,96.5263672 465.7060547,102.8994141 463.1708984,102.8994141 463.1708984,95.1425781 "/>
<polygon fill-rule="evenodd" clip-rule="evenodd" fill="#13007A" points="237.5786133,126.1640625 243.4604492,108.5126953   260.8798828,113.7314453 250.3876953,103.4160156 443.5380859,99.8496094 443.5380859,98.1982422 250.3876953,94.6308594   260.8798828,84.3164063 243.4604492,89.5341797 237.5786133,71.8857422 231.6879883,89.5341797 214.2734375,84.3164063   224.7597656,94.6308594 31.6176758,98.1982422 31.6176758,99.8496094 224.7597656,103.4160156 214.2734375,113.7314453   231.6879883,108.5126953 237.5786133,126.1640625 "/>
<polygon fill-rule="evenodd" clip-rule="evenodd" fill="#13007A" points="83.9638672,25.3681641 95.78125,25.3681641   95.78125,37.8935547 119.4169922,37.8935547 119.4169922,25.3681641 131.2392578,25.3681641 131.2392578,56.3706055   119.4169922,56.3706055 119.4169922,42.78125 95.78125,42.78125 95.78125,56.3706055 83.9638672,56.3706055 83.9638672,25.3681641   "/>
<path fill-rule="evenodd" clip-rule="evenodd" fill="#13007A" d="M167.3417969,24.8413086  c18.4833984,0,28.8540039,6.5776367,28.8540039,15.9516602c0,9.3701172-10.2075195,16.1308594-28.8540039,16.1308594  c-18.9125977,0-28.8730469-6.6318359-28.8730469-16.1308594C138.46875,31.2783203,148.5991211,24.8413086,167.3417969,24.8413086  L167.3417969,24.8413086L167.3417969,24.8413086z M167.3417969,52.034668c12.0693359,0,16.5390625-5.6474609,16.5390625-11.2416992  c0-5.4692383-4.8056641-11.0673828-16.5390625-11.0673828c-11.7373047,0-16.5478516,5.5981445-16.5478516,11.0673828  C150.7939453,46.387207,155.2636719,52.034668,167.3417969,52.034668L167.3417969,52.034668z"/>
<polygon fill-rule="evenodd" clip-rule="evenodd" fill="#13007A" points="204.0600586,25.3681641 223.4868164,25.3681641   237.5786133,43.6816406 237.5786133,43.6816406 251.6796875,25.3681641 271.1035156,25.3681641 271.1035156,56.3706055   259.2763672,56.3706055 259.2763672,30.7880859 259.1044922,30.7880859 237.5786133,58.3081055 237.5786133,58.3081055   216.0605469,30.7880859 215.887207,30.8764648 215.887207,56.3706055 204.0600586,56.3706055 204.0600586,25.3681641 "/>
<path fill-rule="evenodd" clip-rule="evenodd" fill="#13007A" d="M358.2744141,24.8413086  c18.4697266,0,28.8730469,6.5776367,28.8730469,15.9516602c0,9.3701172-10.2236328,16.1308594-28.8730469,16.1308594  c-18.9091797,0-28.8652344-6.6318359-28.8652344-16.1308594C329.4091797,31.2783203,339.5341797,24.8413086,358.2744141,24.8413086  L358.2744141,24.8413086L358.2744141,24.8413086z M358.2744141,52.034668c12.0654297,0,16.546875-5.6474609,16.546875-11.2416992  c0-5.4692383-4.8251953-11.0673828-16.546875-11.0673828c-11.7460938,0-16.5390625,5.5981445-16.5390625,11.0673828  C341.7353516,46.387207,346.2070313,52.034668,358.2744141,52.034668L358.2744141,52.034668z"/>
<path fill-rule="evenodd" clip-rule="evenodd" fill="#13007A" d="M318.3466797,30.9541016  c-4.3564453-0.8476563-9.2275391-1.340332-14.0761719-1.340332c-4.7626953,0-10.9082031,0.9384766-10.9082031,4.3291016  c0,5.3857422,30.3271484,3.1069336,30.3271484,13.5551758c0,6.8168945-11.9765625,9.4082031-25.9667969,9.4082031  c-7.53125,0-10.9082031-0.4458008-17.7480469-1.2070313l1.296875-5.6147461  c4.7626953,1.1513672,10.2138672,1.9125977,15.6679688,1.9125977c5.2509766,0,12.2910156-1.1972656,12.2910156-4.0078125  c0-5.9326172-30.3320313-3.4853516-30.3320313-13.7827148c0-6.9511719,11.984375-9.4995117,24.1865234-9.4995117  c5.9453125,0,11.4853516,0.3598633,16.5390625,1.1171875L318.3466797,30.9541016L318.3466797,30.9541016z"/>
<polygon fill-rule="evenodd" clip-rule="evenodd" fill="#13007A" points="394.0859375,25.378418 409.1054688,25.378418   431.5537109,48.5722656 431.7216797,48.5722656 431.7216797,25.3681641 443.53125,25.3681641 443.53125,56.3706055   428.5927734,56.3706055 406.0654297,33.1894531 405.8984375,33.1894531 405.8984375,56.3706055 394.0859375,56.3706055   394.0859375,25.378418 "/>
<polygon fill-rule="evenodd" clip-rule="evenodd" fill="#13007A" points="48.5136719,30.2509766 31.6176758,30.2509766   31.6176758,25.3681641 77.2094727,25.3681641 77.2094727,30.2509766 60.3286133,30.2509766 60.3286133,56.3706055   48.5136719,56.3706055 48.5136719,30.2509766 "/>
<div xmlns="" id="divScriptsUsed" style="display: none"/><script xmlns="" id="globalVarsDetection" src="moz-extension://988954a5-4571-47b7-8811-234b4eee0106/js/wrs_env.js"/></svg>