<?xml version="1.0" encoding="UTF-8"?>
<svg version="1.1" viewBox="0 0 420 160" xmlns="http://www.w3.org/2000/svg">
	<path d="m0 111.36c0 4.1599 3.4759 8.3198 8.2158 8.3198h31.615v32.003c0 4.1599 3.4759 8.3198 8.2158 8.3198h27.031v-76.002h-75.078zm100.21-111.36c-33.035 0-59.427 26.559-59.427 59.355v12.644h33.187v-12.644c0-14.236 11.54-25.755 26.239-25.755 14.54 0 24.659 10.236 24.659 25.435 0 15.044-10.908 26.083-25.455 26.083h-12.484v33.591h12.484c32.411 0 58.651-26.711 58.651-59.679 0-34.231-24.499-59.031-57.855-59.031" fill="#4acbd6"/>
	<path d="m420 119.68-20.711-23.675 18.496-21.283h-11.548l-16.588 19.84v-40.151l-9.8038 4.9559v57.759c0 1.436 1.104 2.5599 2.3719 2.5599h7.4318v-22.399l18.332 22.399h12.02zm-70.818-46.243c-7.9078 0-16.128 4.1679-20.236 10.244v33.599c0 1.276 1.112 2.4 2.3719 2.4h7.4318v-31.999c2.3639-3.0359 6.1638-4.9559 10.432-4.9559 6.7958 0 11.692 5.4359 11.692 12.636v24.319h9.6438v-24.639c4e-3 -12.316-9.1678-21.603-21.335-21.603m-35.091-19.992c-3.6319 0-6.6398 2.8839-6.6398 6.5598 0 1.76 0.62799 3.1959 1.736 4.3199h9.8038c1.104-1.124 1.736-2.5599 1.736-4.3199 4e-3 -3.6799-2.9999-6.5598-6.6358-6.5598m4.9039 66.234v-44.959h-9.8038v42.559c0 1.276 1.112 2.4 2.3719 2.4zm-29.563-2.4c0 1.276 1.112 2.4 2.372 2.4h7.4318v-65.27l-9.8038 4.9559zm-21.971-15.196h13.28v-9.9237h-18.024zm-34.615-28.159c-8.3758 0-17.228 4.4799-21.655 11.04v49.271c0 1.284 1.104 2.4 2.3719 2.4h7.4238v-47.671c2.3719-3.5239 6.7998-5.7639 11.7-5.7639 7.5838 0 13.12 5.7639 13.12 13.92 0 8.0038-5.5359 14.084-13.12 14.084h-6.9558v8.4798h7.1158c13.12 0 22.759-9.4398 22.759-22.559-4e-3 -13.284-9.7998-23.199-22.759-23.199m-43.943 30.711v-21.115h12.644v-8.7998h-12.644v-13.592l-9.8038 4.9559v40.643c0 8.3158 4.8999 12.96 13.596 12.96h12.644v-8.4798h-10.112c-4.7479-4e-3 -6.3238-1.772-6.3238-6.5718"/>
</svg>
