<svg id="Layer_1" xmlns="http://www.w3.org/2000/svg" viewBox="0 0 2652.6 790.7">
  <style>
    .st1{fill:#39a2e2}.st3{fill:#4e4c4d}
  </style>
  <path d="M682 .5c-1.4.2-10.6.8-20.5 1.4-48.3 2.7-80.8 9.8-112 24.4-20.8 9.8-35.6 22.1-46.9 39.1-8.7 12.9-12.6 22-16 37-.8 3.8-2.1 9-2.8 11.5-.9 3.4-1.3 61.1-1.9 242.5-.4 144.9-1.1 241.1-1.7 246-.6 4.4-1.6 11.6-2.3 16-.6 4.4-1.3 10-1.3 12.5-.1 4.4 0 4.5 2.9 4.2 1.7-.2 5.5-.9 8.5-1.7 3-.7 7.8-1.9 10.5-2.5 2.8-.7 6.8-1.8 9-2.5s6-1.9 8.5-2.6 5-1.6 5.5-1.9c.6-.4 3.3-1.5 6-2.4 23.4-8.4 51.4-24.7 71-41.6 8.4-7.2 24.4-23.9 31.6-33 7.2-9 19.9-27.3 19.9-28.5 0-.3 1.6-3 3.5-6 3.2-5 17.5-33.6 17.5-35.1 0-.3.7-2.1 1.5-4s2.1-4.9 2.9-6.7c1.7-3.7 10.3-29.6 13.6-40.7 1.3-4.1 2.8-9.3 3.5-11.5.7-2.2 2.3-7.4 3.5-11.5 1.3-4.1 3.3-10.9 4.6-15l2.4-7.4V191.4c0-145.7-.3-189.4-1.2-190.3C700.7 0 688.6-.4 682 .5z" fill="#0d0d0d"/>
  <path class="st1" d="M0 22.4v21.5h43V.9H0v21.5zM132 66.4v21.5h43v-43h-43v21.5zM88.7 89.6c-.4.3-.7 9.8-.7 20.9 0 20.3 0 20.4 2.3 20.9 1.2.3 10.8.4 21.2.3l19-.3.3-21.3.2-21.2h-20.8c-11.5 0-21.2.3-21.5.7zM176.7 110.6c-.4.3-.7 10-.7 21.5v20.8h43v-43h-20.8c-11.5 0-21.2.3-21.5.7zM0 306.6c0 121.2.4 189.7 1 197.2 1.4 14.7 3.7 31.4 5.7 41.1.8 4.1 1.8 8.6 2 10 1.5 7.3 8.7 31.5 11.2 37.5.5 1.1 1.9 4.5 3.1 7.5 15 37.3 36.1 68.4 65.6 97 30 29.1 60.4 48.3 104.4 66.2 4.1 1.7 29.1 9.9 34.5 11.4 10.2 2.8 26.2 6.6 31 7.4 2.8.5 8.8 1.6 13.5 2.4 22.2 3.9 76.1 8 75.9 5.8 0-.4-3.9-3.3-8.7-6.5-4.8-3.1-10.2-7-12.1-8.5-28.4-22.8-49.2-44.9-65.8-69.7-9.8-14.7-20.7-35.6-25.7-49.5-1.5-4.1-3.1-8.4-3.6-9.5-2.2-5.1-7.1-24.2-9-35-3.9-21.5-4-28-4-196.3V251.9l-21.2.2-21.3.3-.5 80.5-.5 80.5h-44l-.5-48-.5-48h-42l-.5 21.5-.5 21.5-20 .3c-11 .1-21 0-22.2-.3l-2.3-.5v-239H0v185.7z"/>
  <path class="st1" d="M132.7 165.5c-.4.4-.7 10.1-.7 21.6v20.8h43l-.2-21.3-.3-21.2-20.6-.3c-11.3-.1-20.8.1-21.2.4zM89.3 230.6c-1 .3-1.3 5.6-1.3 21.4v20.9h43l-.2-21.3-.3-21.2-20-.2c-11-.1-20.6.1-21.2.4z"/>
  <linearGradient id="SVGID_1_" gradientUnits="userSpaceOnUse" x1="4.2116" y1="620.6807" x2="1070.2666" y2="620.6807">
    <stop offset="0" stop-color="#fff"/>
    <stop offset=".00540541"/>
    <stop offset=".06486487" stop-color="#2d292a"/>
    <stop offset=".4135" stop-color="#716e6f"/>
    <stop offset="1" stop-color="#e3e3e3"/>
  </linearGradient>
  <path d="M699.2 453.5c-.7 2.1-1.7 4.8-2.1 5.9-.5 1.1-2.6 6.5-4.6 12-6.2 16.2-14.8 34.5-23.8 50.3-5.1 8.9-20.1 30.5-27 38.7-39.4 47.4-92.4 78.5-154.7 90.9-30.2 5.9-37.5 6.7-75.5 7.3-48.5.8-80.8-3.4-116.6-15-14.3-4.7-39.1-15.9-46.1-20.8-4.2-3-5.1-2.5-4.3 2.3 2.3 13.4 12.7 38.6 24.4 59.2 16.2 28.5 49.4 63.6 79 83.6 3.5 2.4 13.2 8.1 21.5 12.8l15.1 8.5 7-.2c3.9-.1 12.2-.8 18.5-1.6 85.2-10.8 154-41.7 204.6-92 15.4-15.3 21-21.8 31.4-36.3 17.2-24.2 31.4-52.1 39.2-77.2 1.1-3.6 2.4-7.4 2.8-8.5 1.3-3.1 5.8-22.1 7.4-31 4.7-26.2 5.8-40.2 5.4-68.4-.3-21.7-.4-24-1.6-20.5z" fill="url(#SVGID_1_)"/>
  <path class="st3" d="M855.3 154.2c-1 .7-1.2 21.3-1 105.8.4 115.6.1 109.5 6.8 129.5 10.3 30.7 30.2 51.2 61 62.7 5 1.9 9.6 3 24.8 6.1 6.9 1.4 43.5 1.4 50.4 0 21.7-4.4 25.1-5.5 36.8-11.2 28-13.7 46.5-39 53.5-73 .8-3.9 1.9-13 2.5-20.1 1.3-16.5 1.4-199.3.1-200.1-1.3-.7-14.5 1.3-19.9 3.1-12.2 4-19.4 11-22 21.4-.7 3-1.3 32.5-1.7 91.2-.6 92.1-.7 93.7-5.6 107.9-3.6 10.4-11.8 22.5-18.7 27.6-2 1.5-3.9 3.1-4.2 3.4-1 1.3-14.5 7.7-18.5 8.9-19.3 5.4-39.4 5.1-57.2-.9-20.6-6.9-34.7-22.8-41.5-46.6l-2.3-8-.1-89c0-49-.4-90.8-.8-93-2.5-13-13.7-21.9-31.6-25-9.9-1.7-9.1-1.7-10.8-.7zM1470.6 154.9c-18.1 3.2-26.7 9.9-31 24.1-1.3 4.2-1.5 23.3-1.5 141.6v136.7l3.4.6c1.8.4 11.2.5 20.9.3 16.2-.3 17.7-.5 19.1-2.3 1.4-1.8 1.5-19.8 1.6-151.6 0-135.6-.1-149.7-1.6-150.3-1.9-.7-1.9-.7-10.9.9zM1651.6 154.9c-25.2 3.5-43.6 10.8-60.4 24.1-12 9.5-25.5 26.4-33.1 41.3-2.6 5.1-8.9 21.2-10.1 25.6-4.4 16.8-5.5 22.6-7.4 39.5-5 44.5 4.9 91.3 26.3 123.4 6.3 9.4 21.9 25 31.2 31.1 20.7 13.5 42.1 19.4 69.9 19.5 13.7 0 20.8-.7 33.1-3.3 3.7-.8 27.2-1.3 71-1.7l65.5-.5.3-3.5c1.1-11.3-6.5-26.1-16.2-31.3-3.9-2.1-5.6-2.2-32.3-2.5-15.6-.2-28.3-.7-28.3-1.2 0-.4.7-1.4 1.7-2.1 3.4-2.9 12.8-15.5 17.9-24.2 10.4-17.6 17.2-38.7 19.9-62 2.2-19.3 1.9-31.1-1.6-54.2-6.2-41.2-24.9-75.9-51.2-95.6-25.2-18.7-61.4-27.2-96.2-22.4zm41.5 40c32.1 8.3 51.1 32.8 59.6 77 2.5 12.6 3 48.3 1 62.5-3.5 24.1-9.9 42.2-20.1 56.4-17.1 23.8-46.9 34.8-79.2 29.1-32.6-5.7-53.3-27-63.2-64.5-6.6-25.3-7-64.5-.9-91.5 2.9-13.2 10-30.5 16.2-39.5 11.7-17.3 30.8-28.9 51.6-31.4 7.3-.9 28.6.3 35 1.9zM1863.3 154.3c-1.7 1.1-1.2 207.2.5 213.6.6 2.2 1.9 7.4 2.8 11.5 8.3 37.8 35.8 66 74.1 75.9 21.6 5.6 58.2 5.6 79.8 0 35.2-9.1 61.2-33.2 71.6-66.4 6.8-21.5 7-26.3 7-137.1 0-81.6-.2-97.5-1.4-98-2.3-.9-18.5 2.4-24.1 4.9-6.9 3.2-12.5 8.4-15.5 14.4l-2.5 4.8-.6 91c-.6 96.6-.5 93.9-5.4 108-3.6 10.4-7.7 17-15.4 24.6-10.3 10.3-20.9 15.5-37.6 18.5-13.4 2.4-31.3 1.3-43.5-2.6-21.8-7-38.2-24.9-43.4-47-.8-3.6-1.8-7.9-2.2-9.5-.4-1.7-1-43.7-1.3-93.5l-.6-90.5-2.3-4c-5.8-9.8-15-15.5-29.2-18-9.9-1.7-9.1-1.7-10.8-.6zM2204.3 154.9c-13.7 2.6-23.5 8.8-28.2 18.2l-2.5 4.8v279l19.4.3c16.1.2 19.8 0 21.7-1.3l2.4-1.6-.2-150.2-.3-150.2-2.5-.2c-1.4-.1-5.8.5-9.8 1.2zM2547.4 154.9c-11.7 2.8-19.8 8.7-24 17.3l-2.8 5.7v279l19.7.3c18.7.2 19.9.1 21.8-1.8 2-2 2-2.8 2-152v-150l-5.7.1c-3.2.1-8.1.7-11 1.4zM2259.5 155.7c-.2.7-.3 9.4-.2 19.2l.3 18 44.5.5 44.5.5.3 131.7.2 131.8h20.3c16 0 20.7-.3 22.3-1.4 1.9-1.4 1.9-4.1 2.2-132l.2-130.6h82.9l1.5-2.2c1.3-1.8 1.6-5.5 1.6-19.5v-17.3h-110c-88.7 0-110.2.2-110.6 1.3zM2618.6 155c-12.8 3.3-21.5 14.3-21.5 27.4 0 10.8 4.9 18.9 15 24.8 3.9 2.4 5.6 2.7 13 2.7 9.5 0 12.3-1.1 19.1-7.2 6.4-5.8 8.3-10.4 8.3-20.3.1-6.9-.3-9.3-2.1-12.6-2.4-4.5-8.5-10.4-13.3-12.9-3.2-1.6-14.8-2.8-18.5-1.9zm16.4 6.4c7.7 3.9 12.3 11.8 12.2 21.1 0 13.6-9 22.9-22.1 22.9-7.4 0-12.4-2.3-17.3-8-9.4-11-5.8-29.1 7.2-36 5-2.6 14.9-2.7 20 0z"/>
  <path class="st3" d="M2614.8 166.1c-.4.3-.7 7.8-.7 16.5v15.8h2.5c2.4 0 2.5-.2 2.5-6.5 0-6.5 0-6.5 2.9-6.5 2.5 0 3.5.9 7 6.5 3.2 5.2 4.5 6.5 6.6 6.5 1.4 0 2.5-.3 2.5-.6s-1.6-3.2-3.6-6.4c-3.5-5.7-3.8-8-.9-8 2.2 0 4.5-4.1 4.5-8 0-4.7-2.2-7.7-6.8-9-4.1-1.1-15.5-1.4-16.5-.3zm15.3 5.6c1.6.8 2.5 2.1 2.5 3.7 0 3-3.5 5-8.6 5-2.5 0-3.9-.5-4.3-1.6-.8-2.1-.8-6.9.1-7.7 1.1-1.1 7.6-.7 10.3.6zM1164.3 306.1l.3 150.8h65.5c70.4 0 73.3-.2 88-5.3 26.1-9 44.2-27.7 52.9-54.6 2.1-6.7 2.3-33.7.2-41.1-6.3-23.1-14.8-36.5-29.6-46.9-3.3-2.3-8-5-10.5-6s-5.6-2.3-7-2.8c-2.4-1-2.4-1.1 2.5-3.5 19.7-10.1 32.8-27.8 37-50.2 1.9-9.5 1.9-15.4 0-25.6-2-11.3-3.2-15-7.3-23.3-6.3-12.8-18.6-24.5-33.2-31.5-10.3-4.9-15.2-6.3-28.4-8.7-10.6-1.9-15.7-2-71-2h-59.6l.2 150.7zM1280 194.9c5.4.8 11.2 1.9 12.7 2.5 18.2 6.6 25.4 18 25.4 40.1 0 21.9-7.4 34.3-23.8 39.8-9.3 3.2-21.6 4.1-54.9 4.1h-30.3v-88h30.5c21.9 0 33.3.4 40.4 1.5zm13.5 127.1c23.9 6.2 36.6 22.5 36.6 46.8 0 27.3-15.4 44.7-42.9 48.6-4.6.7-20.9 1-41.6.8l-34-.3-.3-47.5c-.1-26.1 0-48.1.3-48.8.3-.9 8.9-1.2 38.1-1.2 31.1 0 38.7.3 43.8 1.6zM1831.6 546c-10.1 2.6-18.5 8.1-24.1 16-4.3 6-6 9.8-7.9 18.1-1.9 8.1-1.9 14.5 0 22.6 3.2 13.8 9.4 22.9 20 29.2 9.9 5.9 25 6.9 36.8 2.5 13.1-4.9 23.9-19.7 25.4-35.1 1.9-17.6-2-31-11.9-41.5-7.6-8.2-15.4-11.6-27.3-12-4.9-.2-9.9-.1-11 .2zm19 14.5c7.9 3.7 12.5 10.1 15.1 20.9 2.4 9.9 1.1 20.8-3.4 29.5-4.7 9.2-11.2 12.9-22.3 12.9-8.4 0-12-1.6-17.4-7.6-4.2-4.6-5.3-6.9-7-14.1-4.2-17.7 1.6-35.1 13.7-41.1 6.7-3.3 14.9-3.5 21.3-.5zM2522.8 546.4c-17.6 4.5-26.4 20.2-19.2 34.6 3.9 7.7 9.3 10.7 27.5 15.4 17.6 4.5 20.3 6 22.1 12.1 1 3.1.9 4.3-.7 7.5-2.9 5.9-7.2 7.8-17.4 7.8-5 0-9.5-.5-11-1.3-4.4-2.3-8.9-7.3-9.5-10.5-1.4-6.9-1-6.6-9.2-6.6h-7.6l.6 5.4c1.7 17.1 17.5 27.7 39.2 26.3 10.9-.7 18.6-3.7 24.6-9.7 11.7-11.7 9-30.5-5.6-38.3-1.6-.9-7.3-2.8-12.5-4.2-18.3-4.9-21.3-6-24.1-8.6-3.1-2.9-3.9-8.1-1.9-12 3.4-6.3 18.9-7.9 26.7-2.7 3.1 2 4.4 3.7 5.4 7.2l1.3 4.6h7.3c3.9 0 7.5-.5 7.8-1 1.2-2-1.6-10.5-5-15.2-5.2-7.1-14.1-11-26-11.4-4.9-.2-10.7.1-12.8.6zM859.7 548.9c-.3.9-.6 20.2-.6 42.9 0 30.7.3 41.5 1.2 42.4 1 1 13.3 1.8 14 .9.1-.1.5-14.3.8-31.5l.5-31.2 12 19.2c6.6 10.6 12.5 20 13 21 3.1 5.6 10.1 16.8 12.2 19.6 2.5 3.3 2.5 3.3 10.1 3l7.7-.3.3-43.8.2-43.7h-15v30.4c0 16.8-.4 30.7-.8 31-.5.3-5-6.3-10-14.7-5.1-8.4-13.6-22.2-19-30.7l-9.7-15.5-8.1-.3c-6.8-.2-8.3 0-8.8 1.3zM1095.6 548.6c-.3.7-.4 20.4-.3 43.8l.3 42.5 31.8.3 31.7.2v-14h-48v-25h44.1l-.3-6.3-.3-6.2-21.7-.3-21.8-.2v-22h22.3c16.6 0 22.8-.3 24.1-1.3 1.3-1 1.7-2.4 1.4-6.7l-.3-5.5-31.3-.3c-24.5-.2-31.4 0-31.7 1zM1312.8 548.1c-.4.3-.7 3.2-.7 6.4 0 7-.5 6.8 16 7.2l11.5.2.3 36.7.2 36.8h7.4c5.8 0 7.5-.3 8-1.6.3-.9.6-17.5.6-37v-35.4h11.9c6.6 0 12.6-.3 13.5-.6 1.2-.5 1.6-2.1 1.6-7v-6.4h-34.8c-19.2 0-35.2.3-35.5.7zM1535.1 548.4c0 .9 1.7 7.6 9.5 37.5 1.3 4.9 3.1 11.7 4 15 .9 3.3 3.2 12.1 5.1 19.5 2 7.4 3.9 13.9 4.3 14.3.4.4 4.1.7 8.2.5l7.4-.3 1.8-6c1.9-6.4 2.3-7.7 6.2-22.5 1.4-5.2 2.9-10.9 3.4-12.5.5-1.7 2.1-7.7 3.6-13.4 1.7-6.4 3.1-9.8 3.6-8.9.4.7 1.7 5.1 2.8 9.8 1.2 4.7 3.9 15.2 6.1 23.5 2.2 8.2 4.7 17.9 5.6 21.5.9 3.6 2.1 7.1 2.6 7.7.7.8 3.7 1.3 8.3 1.3h7.2l1.3-4.3c.7-2.3 1.6-5.6 2.1-7.2.5-1.7 1.5-5.3 2.2-8 3.1-10.9 3.9-13.8 9.7-35 3.3-12.1 6.7-24.2 7.5-26.9.8-2.6 1.2-5.2.9-5.7-.8-1.4-14-1.1-15.1.3-.5.7-2.2 6.7-3.7 13.3-1.6 6.6-3.2 13.3-3.7 15-.5 1.6-2.6 10.2-4.7 18.9-3.8 15.7-4.6 16.9-6.2 10.2-.5-1.7-3.2-12.1-6-23.1-2.8-11-5.9-23-6.9-26.7-.9-3.7-2.1-7.2-2.7-7.8-.7-.7-4.1-1-8.5-.8l-7.4.3-1.1 4.5c-.7 2.5-2.4 9-3.9 14.5-1.4 5.5-3.7 14-5 19-1.3 4.9-3.3 12.4-4.4 16.5-1.1 4.1-2.1 7.8-2.1 8.2 0 1.7-2 .7-2-1 0-.9-1.1-6-2.3-11.2-1.3-5.2-3.7-14.9-5.2-21.5-1.6-6.6-3.8-15.8-4.9-20.5l-2.1-8.5-7.7-.3c-5.1-.2-7.8.1-7.8.8zM2042.6 548.6c-.3.7-.4 20.4-.3 43.8l.3 42.5h15l.5-17.5.5-17.5 12-.3c14.5-.4 17.5.1 21.4 3.4 3.7 3.1 4.9 7.1 5.7 19.4.9 13.2.9 13.1 10.2 12.8 6.2-.2 7.6-.6 7.3-1.8-.2-.8-.9-4-1.7-7-.7-3-1.4-8.7-1.4-12.5-.1-3.9-.7-8.5-1.3-10.3-1.4-3.8-6.3-9.2-8.3-9.2s-.6-2.5 2.3-4.1c6.2-3.3 10.1-15 8.2-24.2-1.5-6.9-5.3-12-11.4-15.4l-5-2.8-26.7-.3c-21.7-.3-26.9-.1-27.3 1zm49.6 14.1c4.7 3.2 6.7 9 5 14.7-2.5 8.5-7.1 10.2-25.8 9.8l-12.8-.3-.3-11.9c-.1-6.6 0-12.6.2-13.3.4-1 4.1-1.3 15.4-1.3 13.9 0 15.1.2 18.3 2.3zM2275.6 548.6c-.3.7-.4 20.4-.3 43.8l.3 42.5h15l.3-14.6.3-14.5 6-6 6.1-5.9 1.9 2.5c1 1.4 7.4 10.6 14.2 20.5l12.5 18 9.1.3c7.2.2 9.1 0 9.1-1.1 0-.8-7.9-12.5-17.5-26-9.6-13.6-17.5-25.1-17.5-25.6s7.5-8.5 16.8-17.8l16.7-16.8-9.5-.3-9.5-.4-18.5 19.1c-10.2 10.5-18.8 19.1-19.2 19.1-.4 0-.9-8.4-1-18.8l-.3-18.7-7.3-.3c-5.2-.2-7.4.1-7.7 1z"/>
<div xmlns="" id="divScriptsUsed" style="display: none"/><script xmlns="" id="globalVarsDetection" src="moz-extension://988954a5-4571-47b7-8811-234b4eee0106/js/wrs_env.js"/></svg>