<?xml version="1.0" encoding="UTF-8" standalone="no"?>
<svg
   version="1.1"
   width="840"
   height="984"
   id="svg2556"
   sodipodi:docname="ubiquiti.svg"
   inkscape:version="1.2.2 (b0a8486541, 2022-12-01)"
   xmlns:inkscape="http://www.inkscape.org/namespaces/inkscape"
   xmlns:sodipodi="http://sodipodi.sourceforge.net/DTD/sodipodi-0.dtd"
   xmlns="http://www.w3.org/2000/svg"
   xmlns:svg="http://www.w3.org/2000/svg">
  <defs
     id="defs2560" />
  <sodipodi:namedview
     id="namedview2558"
     pagecolor="#ffffff"
     bordercolor="#000000"
     borderopacity="0.25"
     inkscape:showpageshadow="2"
     inkscape:pageopacity="0.0"
     inkscape:pagecheckerboard="0"
     inkscape:deskcolor="#d1d1d1"
     showgrid="false"
     inkscape:zoom="0.85569106"
     inkscape:cx="419.54394"
     inkscape:cy="492.58432"
     inkscape:window-width="1866"
     inkscape:window-height="1011"
     inkscape:window-x="54"
     inkscape:window-y="32"
     inkscape:window-maximized="1"
     inkscape:current-layer="svg2556" />
  <path
     d="m 804.42091,48.202847 c 1.9303,0.0066 3.86059,0.01259 5.79089,0.01794 4.64398,0.01419 9.28785,0.03669 13.93177,0.06409 0.1145,55.016663 0.20257,110.033303 0.25532,165.050053 0.006,6.49861 0.0127,12.99723 0.0193,19.49584 10e-4,1.29373 0.003,2.58746 0.004,3.92039 0.0217,20.93431 0.0612,41.86855 0.10713,62.80281 0.0468,21.48839 0.0745,42.97675 0.0847,64.46518 0.007,13.25425 0.0285,26.5083 0.0691,39.76248 0.0265,9.09499 0.0344,18.18988 0.0279,27.28491 -0.003,5.2435 0.002,10.48667 0.0285,15.73011 0.0245,4.80965 0.0255,9.61874 0.008,14.42841 -0.002,1.73111 0.004,3.46225 0.0199,5.19329 0.0993,11.54819 -1.64807,21.03148 -5.62441,31.86652 -0.49205,1.54323 -0.97506,3.08944 -1.44141,4.64063 -2.12491,6.84118 -4.29585,13.65598 -6.66406,20.41796 -0.98121,3.05231 -0.98121,3.05231 -1.64453,6.71485 -1.65392,7.66064 -4.48898,15.0242 -7.0625,22.41406 -0.52713,1.52654 -1.05382,3.05324 -1.58008,4.58008 -1.2819,3.7132 -2.57341,7.42294 -3.87155,11.13049 -0.48128,1.37472 -0.96157,2.74979 -1.44074,4.12525 -2.29488,6.58057 -4.59769,13.06291 -7.60763,19.35168 -0.43603,0.91544 -0.43603,0.91544 -0.88086,1.84937 -3.18595,6.65007 -6.50052,13.23735 -9.82471,19.81909 -0.96709,1.92696 -1.92018,3.8602 -2.86865,5.79638 -0.30357,0.61674 -0.60715,1.23348 -0.91992,1.8689 -0.82067,1.66887 -1.63801,3.33938 -2.45508,5.01001 -10.48536,19.79259 -24.24508,38.42816 -39.46484,54.82422 -2.01529,2.17803 -3.96617,4.39312 -5.89844,6.64453 -6.0498,6.9221 -12.56273,12.92165 -19.73828,18.66797 -2.18611,1.77803 -4.25729,3.60774 -6.32422,5.51953 -22.24231,19.64433 -53.77072,36.94645 -82.39063,44.77344 -2.31424,0.67447 -4.48118,1.43111 -6.72265,2.30078 -4.30745,1.64316 -8.67359,2.84701 -13.13672,3.98828 -0.81542,0.211 -1.63083,0.42201 -2.47095,0.63941 -5.66558,1.45536 -11.34145,2.86885 -17.02905,4.23559 -0.70311,0.17137 -1.40621,0.34273 -2.13062,0.51929 -3.27868,0.77252 -6.03554,1.16821 -9.43188,1.16821 0.14099,-0.93981 0.28198,-1.87961 0.42724,-2.8479 0.54009,-3.61307 1.07076,-7.22748 1.59912,-10.84228 0.22643,-1.54073 0.45514,-3.08111 0.68653,-4.6211 3.09836,-20.64894 4.58945,-41.14702 4.55212,-62.02324 0.004,-2.14637 0.008,-4.29273 0.0133,-6.4391 0.0118,-5.82686 0.0115,-11.65365 0.009,-17.48052 -4.2e-4,-6.31157 0.0107,-12.62311 0.0205,-18.93467 0.0154,-10.91612 0.0239,-21.83223 0.0277,-32.74836 0.006,-15.8043 0.0244,-31.60856 0.0464,-47.41284 0.0103,-7.38352 0.02,-14.76704 0.0295,-22.15056 9.5e-4,-0.73886 0.002,-1.47772 0.003,-2.23898 0.0225,-17.54588 0.0387,-35.09176 0.054,-52.63765 6.7e-4,-0.7667 0.001,-1.5334 0.002,-2.32333 0.0108,-12.44143 0.0213,-24.88285 0.0317,-37.32428 0.01,-11.66303 0.0196,-23.32607 0.0298,-34.9891 6.7e-4,-0.76673 10e-4,-1.53346 0.002,-2.32342 0.0152,-17.52417 0.0323,-35.04832 0.0548,-52.57248 9.5e-4,-0.73759 0.002,-1.47518 0.003,-2.23513 0.01,-7.36597 0.0194,-14.73194 0.0297,-22.09791 0.022,-15.78283 0.0386,-31.56563 0.0441,-47.34848 0.004,-11.5032 0.0152,-23.00637 0.033,-34.50957 0.009,-6.22224 0.0155,-12.44444 0.0129,-18.66669 -0.002,-5.70748 0.005,-11.41488 0.0186,-17.12235 0.003,-2.05281 0.004,-4.10564 -8e-5,-6.15845 -0.03,-18.67078 0.77882,-36.99216 6.27037,-54.95161 0.20609,-0.68127 0.41217,-1.36254 0.62451,-2.06445 4.76992,-15.39788 11.56558,-29.84524 22.37549,-41.93554 0.67418,-0.80438 1.34836,-1.60875 2.04297,-2.4375 13.30262,-15.507616 29.88695,-26.03184 48.18359,-34.716311 1.50606,-0.718612 3.0005,-1.461486 4.49219,-2.209473 20.15946,-9.792651 42.56631,-14.612278 64.53271,-18.179687 2.37714,-0.395275 4.74411,-0.822021 7.11182,-1.269532 24.62659,-4.512291 49.93929,-5.421487 74.91371,-5.269531 z"
     fill="#0c0c0c"
     id="path140" />
  <path
     d="m 24.143571,184.28488 c 16.5,0 33,0 50,0 0,89.76 0,179.52 0,272 16.5,0 32.999999,0 49.999999,0 0,-16.17 0,-32.34 0,-49 16.5,0 33,0 50,0 0,36.3 0,72.6 0,110 16.83,0 33.66,0 51,0 0,-60.72 0,-121.44 0,-184 16.17,0 32.34,0 49,0 10e-4,4.65345 0.003,9.3069 0.004,14.10136 0.0154,42.82475 0.0557,85.64942 0.12254,128.47412 0.009,5.63036 0.0173,11.26072 0.0257,16.89107 0.002,1.12075 0.003,2.2415 0.005,3.39621 0.0266,18.06835 0.0358,36.13666 0.0384,54.20503 0.003,18.58554 0.0252,37.17098 0.0645,55.75648 0.0236,11.43769 0.0329,22.87519 0.023,34.3129 -0.005,7.87855 0.008,15.75695 0.0351,23.63546 0.0151,4.52307 0.0228,9.04578 0.008,13.56886 -0.10365,34.7061 2.54019,69.38565 14.76739,102.17829 0.82177,2.24961 1.56942,4.50632 2.28101,6.79272 2.09895,6.40063 4.92857,12.52223 7.625,18.6875 0.48469,1.14598 0.96938,2.29195 1.46875,3.47266 5.72276,13.18194 12.83141,25.41744 20.53161,37.52734 0.37157,0.5883 0.74314,1.17659 1.12598,1.78271 4.78258,7.53381 10.14079,14.39061 15.87402,21.21729 1.43815,1.79115 2.87564,3.58282 4.3125,5.375 7.94192,9.67793 16.61118,18.63321 25.4375,27.5 0.69674,0.70141 1.39348,1.40282 2.11133,2.12549 4.54965,4.53564 9.24382,8.83945 14.13867,12.99951 0.55961,0.47695 1.11923,0.95391 1.6958,1.44531 8.68072,7.30899 17.81852,13.74406 27.33423,19.92212 0.8615,0.56066 1.72299,1.12132 2.61059,1.69898 0.76861,0.49443 1.53721,0.98887 2.32911,1.49829 1.89783,1.34167 3.44883,2.73906 5.03027,4.4353 -31.63468,0.97684 -63.9449,-1.28116 -95.02051,-7.41406 -3.45471,-0.6794 -6.91609,-1.31885 -10.37793,-1.96094 -13.76566,-2.60222 -27.20278,-5.64378 -40.53369,-9.96973 -3.06184,-0.97024 -6.15755,-1.80818 -9.25537,-2.65527 -12.06597,-3.44135 -23.62629,-7.69046 -34.92188,-13.14453 -4.31276,-2.07961 -8.69416,-3.99433 -13.07812,-5.91797 -12.48861,-5.52839 -24.307,-11.80785 -35.99951,-18.85693 -1.58908,-0.94712 -3.20136,-1.8551 -4.8169,-2.75635 -0.98806,-0.65549 -0.98806,-0.65549 -1.99609,-1.32422 0,-0.66 0,-1.32 0,-2 -0.86238,-0.16242 -0.86238,-0.16242 -1.74219,-0.32813 -2.5823,-0.76843 -4.19997,-1.84147 -6.38281,-3.42187 -0.8727,-0.63035 -1.74539,-1.2607 -2.64453,-1.91016 -1.06606,-0.77214 -2.13211,-1.54429 -3.23047,-2.33984 -1.39868,-0.97938 -2.7985,-1.95713 -4.19922,-2.93359 -8.54124,-5.99904 -16.5253,-12.20167 -24.05469,-19.4336 -2.21842,-2.12691 -4.46478,-4.14848 -6.80859,-6.13281 -8.36349,-7.26954 -15.91486,-15.18649 -22.79687,-23.86328 -2.1,-2.58668 -4.30562,-5.01382 -6.578129,-7.44922 -4.947092,-5.44524 -9.146853,-11.30641 -13.305176,-17.36084 -1.218296,-1.76996 -2.453736,-3.5269 -3.690918,-5.28369 -6.882425,-9.91108 -12.575653,-20.40941 -18.23584,-31.05371 -1.151843,-2.1549 -2.321035,-4.29797 -3.506347,-6.43457 -2.951465,-5.34677 -5.640475,-10.633 -7.800782,-16.34766 -1.013896,-2.68179 -2.093378,-5.33241 -3.181884,-7.98462 -4.598082,-11.27258 -8.479504,-22.68802 -11.320313,-34.53076 -1.041354,-4.3354 -2.193822,-8.62276 -3.427978,-12.90723 -3.803856,-13.25118 -6.090839,-26.48193 -7.718262,-40.15942 -0.1849,-1.54011 -0.1849,-1.54011 -0.373535,-3.11133 -1.737871,-15.41248 -2.150748,-30.81896 -2.12172,-46.31289 -4.37e-4,-1.76858 -0.0013,-3.53716 -0.0026,-5.30573 -0.0022,-4.80501 0.0017,-9.61 0.0068,-14.415 0.0044,-5.20219 0.0029,-10.40437 0.0021,-15.60656 -5.22e-4,-8.99497 0.0026,-17.98993 0.0082,-26.9849 0.0082,-13.00493 0.01074,-26.00987 0.01199,-39.0148 0.0022,-21.10377 0.0088,-42.20753 0.0183,-63.31129 0.0092,-20.49056 0.01626,-40.98112 0.02051,-61.47168 2.63e-4,-1.26474 5.25e-4,-2.52949 7.96e-4,-3.83256 0.0013,-6.34536 0.0026,-12.69072 0.0038,-19.03607 0.01035,-52.57407 0.02823,-105.14813 0.05032,-157.72219 z"
     fill="#38a2df"
     id="path142" />
  <path
     d="m 823.14357,557.28488 c 0.33,0 0.66,0 1,0 0.37576,42.74664 -1.2788,84.67413 -11.375,126.40771 -0.64582,2.67863 -1.26135,5.36316 -1.875,8.04932 -1.86378,7.98948 -3.79425,15.47466 -7.5,22.83984 -1.54193,3.33443 -2.64437,6.76973 -3.75,10.26563 -1.71203,5.38347 -3.79957,10.3287 -6.45312,15.31641 -1.20598,2.27327 -1.20598,2.27327 -1.98438,5.55859 -1.57029,5.26511 -4.33316,9.81619 -7.0625,14.5625 -0.66,0 -1.32,0 -2,0 -0.10312,0.70125 -0.20625,1.4025 -0.3125,2.125 -0.92829,3.88195 -2.25871,7.50574 -5.1875,10.3125 -1.90378,1.9831 -2.66708,4.19824 -3.67578,6.72266 -1.26829,2.83111 -3.08099,5.2831 -4.82422,7.83984 -0.33,0.99 -0.66,1.98 -1,3 -0.66,0 -1.32,0 -2,0 -0.33,0.99 -0.66,1.98 -1,3 -0.80438,0.78375 -1.60875,1.5675 -2.4375,2.375 -2.58595,2.64902 -3.25129,4.26502 -4.5625,7.625 -2.16868,2.79646 -4.38216,5.39479 -6.91016,7.87109 -2.22457,2.26616 -4.17467,4.64481 -6.15234,7.12891 -6.95225,8.55573 -14.15293,17.2714 -22.9375,24 -0.66,0 -1.32,0 -2,0 -0.24234,0.57621 -0.48469,1.15242 -0.73438,1.74609 -4.80602,8.55889 -16.00785,15.09503 -23.71044,21.04297 -1.45649,1.1341 -2.89523,2.29089 -4.33252,3.44922 -2.31525,1.83511 -4.67903,3.25867 -7.22266,4.76172 -1.33698,0.89038 -2.66984,1.78697 -4,2.6875 -4.75222,3.18909 -9.61869,6.1708 -14.50781,9.14453 -2.46519,1.51321 -4.88815,3.07816 -7.29688,4.67969 -0.62753,0.41467 -1.25506,0.82935 -1.90161,1.25659 -1.21325,0.80506 -2.42168,1.61745 -3.62451,2.43799 -3.28671,2.17307 -4.5917,2.7937 -8.66919,2.7937 0,0.66 0,1.32 0,2 -0.52207,0.21914 -1.04414,0.43828 -1.58203,0.66406 -4.39637,1.89406 -8.57511,3.95627 -12.73047,6.33594 -4.72042,2.62759 -9.39933,4.4072 -14.57031,5.94531 -2.54469,0.86099 -4.86631,1.82126 -7.30078,2.9375 -5.13794,2.32385 -10.39816,4.11521 -15.75391,5.86719 -1.03415,0.33999 -2.0683,0.67998 -3.13379,1.03027 -3.30705,1.08117 -6.61746,2.15149 -9.92871,3.21973 -1.6467,0.53561 -1.6467,0.53561 -3.32666,1.08203 -13.19455,4.27197 -26.25276,8.05137 -39.92188,10.43067 -3.09354,0.54788 -6.17774,1.13773 -9.26318,1.72949 -15.13075,2.86074 -30.25661,5.16617 -45.60205,6.50439 -1.78631,0.15684 -3.57157,0.32704 -5.35449,0.51856 -11.25558,1.17343 -18.22181,-2.00456 -27.4502,-7.96534 -2.81168,-1.75573 -5.72069,-3.29462 -8.64673,-4.8496 -13.23844,-7.0701 -26.45628,-15.22048 -37.40356,-25.55958 -2.41971,-2.25219 -4.9598,-4.31368 -7.53125,-6.39062 -7.07166,-5.75807 -13.80207,-11.46576 -19.69531,-18.44531 -1.96392,-2.23597 -4.04623,-4.29279 -6.17969,-6.36719 -4.96229,-4.91191 -9.30962,-10.2058 -13.625,-15.6875 -1.20656,-1.51594 -1.20656,-1.51594 -2.4375,-3.0625 -8.59741,-10.90847 -16.33571,-22.41478 -23.1875,-34.5 -0.42539,-0.74379 -0.85078,-1.48758 -1.28906,-2.25391 -1.02982,-2.07075 -1.62514,-3.92569 -2.08594,-6.18359 -0.66,0 -1.32,0 -2,0 -9.2135,-20.52911 -9.2135,-20.52911 -12,-28 -0.33596,-0.89356 -0.33596,-0.89356 -0.67871,-1.80518 -3.82967,-10.25643 -6.87978,-20.52397 -9.32129,-31.19482 1.65,0.33 3.3,0.66 5,1 0,0.66 0,1.32 0,2 0.8366,0.24879 1.6732,0.49758 2.53516,0.75391 3.87666,1.3942 7.30876,3.19122 10.90234,5.18359 7.69468,4.24507 15.62418,7.52024 23.84375,10.62109 2.51003,0.9729 4.97091,1.97017 7.4375,3.03907 25.09969,10.66721 52.32648,14.93528 79.23431,18.14676 1.98913,0.24836 3.97355,0.53354 5.95758,0.81979 13.89945,1.91854 27.8857,1.77575 41.8877,1.75146 2.85954,-0.005 5.71864,0.002 8.57812,0.0205 26.37941,0.16748 52.5013,-1.3269 78.53956,-5.85132 2.14524,-0.37044 4.29369,-0.71534 6.44336,-1.05908 8.63665,-1.43064 16.82605,-3.5322 25.12792,-6.30762 3.24181,-1.03193 6.43121,-1.81703 9.7627,-2.49316 14.37016,-3.14962 29.1854,-8.6719 42.25,-15.4375 2.5,-1.18749 2.5,-1.18749 6.5,-1.18749 0,-0.66 0,-1.32 0,-2 2.22792,-1.12753 4.45726,-2.25208 6.6875,-3.375 0.62584,-0.31711 1.25168,-0.63422 1.89648,-0.96094 2.62974,-1.32175 5.23303,-2.59387 7.98243,-3.64844 22.94515,-9.57582 44.75639,-29.93781 62.43359,-47.01562 0.52255,-0.50064 1.04511,-1.00128 1.5835,-1.51709 6.6903,-6.42734 12.68455,-13.19439 18.4165,-20.48291 7.51338,-9.52419 7.51338,-9.52419 10.8125,-12.75 2.28986,-2.1272 2.28986,-2.1272 3.47656,-4.83594 2.14978,-4.28974 4.6751,-8.26009 7.27344,-12.28906 0.49436,-0.78375 0.98871,-1.5675 1.49805,-2.375 0.71446,-1.10988 0.71446,-1.10988 1.44336,-2.24219 0.43127,-0.67402 0.86254,-1.34804 1.30688,-2.04248 0.39244,-0.48356 0.78488,-0.96712 1.18921,-1.46533 0.66,0 1.32,0 2,0 0.37125,-0.95906 0.37125,-0.95906 0.75,-1.9375 1.65812,-4.06238 3.45356,-8.05975 5.25,-12.0625 0.66,0 1.32,0 2,0 0.38865,-1.03061 0.38865,-1.03061 0.78516,-2.08203 1.10467,-2.65334 2.35038,-5.17991 3.67724,-7.72754 5.8316,-11.231 10.59728,-22.91612 15.42774,-34.60352 1.10986,-2.58691 1.10986,-2.58691 2.21582,-4.69726 1.34911,-2.85149 1.53531,-5.78068 1.89404,-8.88965 0.66,0 1.32,0 2,0 0.18176,-0.64066 0.36352,-1.28133 0.55078,-1.94141 1.51192,-5.20255 3.19923,-10.13003 5.44922,-15.05859 z"
     fill="#868485"
     id="path144" />
  <path
     d="m 124.14357,307.28488 c 16.5,0 33,0 50,0 0,16.83 0,33.66 0,51 -8.06437,0.0206 -16.12875,0.0412 -24.4375,0.0625 -2.54904,0.009 -5.09808,0.0182 -7.72436,0.0276 -2.00725,0.003 -4.01449,0.005 -6.02173,0.008 -1.05288,0.005 -2.10577,0.0102 -3.19055,0.0155 -1.49207,1.8e-4 -1.49207,1.8e-4 -3.01429,3.7e-4 -1.30238,0.003 -1.30238,0.003 -2.63108,0.007 -1.98049,-0.12026 -1.98049,-0.12026 -2.98049,-1.12026 -0.0933,-1.56547 -0.11745,-3.13513 -0.11352,-4.70337 1.2e-4,-1.01501 2.4e-4,-2.03003 3.6e-4,-3.0758 0.005,-1.07448 0.0102,-2.14895 0.0155,-3.25599 10e-4,-0.9819 0.002,-1.9638 0.003,-2.97546 0.005,-3.68397 0.0192,-7.36793 0.0321,-11.05188 0.0206,-8.22937 0.0413,-16.45875 0.0625,-24.9375 z"
     fill="#41a5df"
     id="path156" />
  <path
     d="m 24.143571,47.284878 c 16.5,0 33,0 50,0 0,16.5 0,33 0,50 -16.5,0 -33,0 -50,0 0,-16.5 0,-33 0,-50 z"
     fill="#3ba2de"
     id="path158" />
  <path
     d="m 124.14357,147.28488 c 16.5,0 33,0 50,0 0,16.17 0,32.34 0,49 -16.5,0 -33,0 -50,0 0,-16.17 0,-32.34 0,-49 z"
     fill="#38a1df"
     id="path160" />
  <path
     d="m 174.14357,97.284878 c 16.5,0 33,0 50,0 0,16.170002 0,32.340002 0,48.999992 -16.5,0 -33,0 -50,0 0,-16.17 0,-32.34 0,-48.999992 z"
     fill="#3ba2de"
     id="path162" />
  <path
     d="m 175.14357,234.28488 c 16.17,0 32.34,0 49,0 0,16.17 0,32.34 0,49 -16.17,0 -32.34,0 -49,0 0,-16.17 0,-32.34 0,-49 z"
     fill="#3ba2de"
     id="path164" />
  <path
     d="m 225.14357,172.28488 c 16.17,0 32.34,0 49,0 0,16.17 0,32.34 0,49 -16.17,0 -32.34,0 -49,0 0,-16.17 0,-32.34 0,-49 z"
     fill="#3aa1de"
     id="path166" />
</svg>
