<?xml version="1.0" encoding="utf-8"?>
<!-- Generator: Adobe Illustrator 25.0.1, SVG Export Plug-In . SVG Version: 6.00 Build 0)  -->
<svg version="1.0" id="katman_1" xmlns="http://www.w3.org/2000/svg" xmlns:xlink="http://www.w3.org/1999/xlink" x="0px" y="0px"
	 viewBox="0 0 560 400" style="enable-background:new 0 0 560 400;" xml:space="preserve">
<style type="text/css">
	.st0{clip-path:url(#SVGID_2_);}
	.st1{fill:#231F20;}
	.st2{fill:#00ADEF;}
</style>
<g>
	<defs>
		<rect id="SVGID_1_" x="50" y="158.2" width="460" height="83.6"/>
	</defs>
	<clipPath id="SVGID_2_">
		<use xlink:href="#SVGID_1_"  style="overflow:visible;"/>
	</clipPath>
	<g transform="matrix(5.56376 0 0 -5.56376 -1807.26 390.931)" class="st0">
		<path class="st1" d="M365.7,38.8h3.2l0.5,2.6h-3.2L365.7,38.8z M365.4,37.2h3.2l-2-10.1c-0.1-0.1-0.6-0.2-1.2-0.2
			c-0.8,0-1.6,0.3-1.6,1.5c0,0.2,0,0.5,0.1,0.8C364.4,32.2,365.4,37.2,365.4,37.2 M396.8,37.4c-2.1,0-2.9-1.2-3.3-2h0l0.1,1.7h-3.1
			c0-0.4-0.2-1.6-0.4-2.6c0,0-0.7-3.7-0.9-4.4c-0.1-0.5-0.3-1.3-0.3-1.8c0-1,0.5-1.5,1.6-1.5c0.6,0,1.1,0.2,1.2,0.2l1,5.3
			c0.3,1.5,1.3,2.4,2.6,2.4c1,0,1.5-0.7,1.5-1.3c0-0.5-0.1-1.1-0.2-1.6l-0.5-2.3c-0.1-0.3-0.2-0.8-0.2-1.2c0-1,0.6-1.5,1.6-1.5
			c0.6,0,1,0.1,1.2,0.2l0.9,4.7c0.2,1.1,0.3,1.6,0.3,2.3C400.1,36,399,37.4,396.8,37.4 M382.8,34.9c-1.8,0-2.8-1.8-2.8-3.4
			c0-1.4,0.6-2.3,2-2.3c1.6,0,2.8,1.3,2.8,3.6C384.9,33.9,384.3,34.9,382.8,34.9 M381.9,26.8c-3.4,0-5,2-5,4.6c0,3.6,2.4,6,6.2,6
			c3.3,0,5-2,5-4.5C388.1,29.1,385.5,26.8,381.9,26.8 M370,29.2c-0.1-0.4-0.1-0.6-0.1-0.9c0-1.2,0.8-1.5,1.6-1.5
			c0.7,0,1.1,0.2,1.2,0.2l1.5,7.7l2.5,0l0.5,2.4h-2.5l0.1,0.6c0.2,1.1,0.8,1.6,1.7,1.6c0.6,0,1.1-0.1,1.3-0.2l0.5,2.3
			c-0.2,0-1.1,0.3-2.5,0.3c-2.1,0-3.6-1.3-4-3.4l-0.3-1.3H370l-0.5-2.4h1.6C371.1,34.7,370.5,31.5,370,29.2 M362.7,37.4
			c-1.6,0-2.5-1.1-2.8-2h0l0.1,1.8h-3.1c0-0.6-0.2-1.6-0.5-3.2c-0.3-1.6-0.6-3.3-1-4.9c-0.1-0.3-0.1-0.5-0.1-0.8
			c0-0.8,0.4-1.5,1.6-1.5c0.6,0,1,0.2,1.2,0.2l0.9,4.7c0.3,1.8,0.9,3,2.7,3c0.8,0,1.6-0.2,1.7-0.2l0.5,2.7
			C364,37.2,363.5,37.4,362.7,37.4 M408.6,33.1c0.2,0.9-0.4,1.9-1.6,1.9c-1.5,0-2.1-1-2.4-1.9H408.6z M410,29.3
			c0-1.4-1.4-2.5-3.8-2.5c-3.3,0-5,2.1-5,4.6c0,2.5,1.7,6,5.8,6c2.7,0,4.7-1.3,4.7-4.4c0-0.8-0.2-1.6-0.2-1.9h-7.2
			c0-0.7,0.6-2,3.1-2c1.1,0,2.4,0.4,2.6,0.5V29.3z M351.4,33.1c0.2,0.9-0.4,1.9-1.6,1.9c-1.5,0-2.1-1-2.4-1.9H351.4z M352.8,29.3
			c0-1.4-1.4-2.5-3.8-2.5c-3.3,0-5,2.1-5,4.6c0,2.5,1.7,6,5.8,6c2.7,0,4.7-1.3,4.7-4.4c0-0.8-0.2-1.6-0.2-1.9h-7.2
			c0-0.7,0.6-2,3.1-2c1.1,0,2.4,0.4,2.6,0.5V29.3z M333.8,40.6h3.2V30.5c0-1.5,0.8-2.3,2-2.3c0.1,0,0.2,0,0.2,0
			c-0.5-0.8-1.2-1.5-2.8-1.5c-1.7,0-2.6,1.2-2.6,2.9V40.6z"/>
		<path class="st2" d="M337.9,31.6v-1.1c0-1,0.6-1.4,1.2-1.4c0.6,0,0.9,0.4,1.2,0.9c0.5,0.8,6.7,10.6,6.7,10.6h-3.3L337.9,31.6z"/>
		<path class="st1" d="M414.6,36h0.4c0.3,0,0.5,0.2,0.5,0.3c0,0.1-0.1,0.3-0.4,0.3h-0.4L414.6,36z M414.6,36.7h0.5
			c0.3,0,0.5-0.2,0.5-0.4c0-0.4-0.4-0.5-0.6-0.5l0.3-0.9h-0.2l-0.3,0.8h-0.3l-0.2-0.8h-0.2L414.6,36.7z M414.8,34.4
			c0.9,0,1.4,0.6,1.5,1.4c0.1,0.8-0.5,1.4-1.2,1.4c-0.8,0-1.4-0.6-1.5-1.4C413.5,35.1,414,34.4,414.8,34.4 M415.1,37.4
			c0.9,0,1.5-0.7,1.4-1.6c-0.1-0.9-0.8-1.6-1.7-1.6c-0.9,0-1.5,0.7-1.4,1.6C413.5,36.7,414.2,37.4,415.1,37.4"/>
	</g>
</g>
</svg>
