<svg width="617" height="193" viewBox="0 0 617 193" fill="none" xmlns="http://www.w3.org/2000/svg">
<path d="M23.04 168.96H51.8398V192H0V72.96H23.04V168.96ZM192 192H72.96V168.96H168.96V140.16H192V192ZM107.519 149.757L84.4805 149.76L42.2402 42.2402H65.2803L95.999 120.434L126.718 42.2393H149.758L107.519 149.757ZM192 119.04H168.96V23.04H140.16V0H192V119.04ZM119.04 23.04H23.04V51.8398H0V0H119.04V23.04Z" fill="url(#paint0_linear_1411_32)"/>
<path fill-rule="evenodd" clip-rule="evenodd" d="M341.623 129.808C345.767 129.808 349.239 130.62 352.039 132.244C354.839 133.812 356.94 136.192 358.34 139.384C359.796 142.52 360.523 146.468 360.523 151.228V154.756H328.771C328.883 158.284 329.387 161.196 330.283 163.492C331.235 165.732 332.635 167.384 334.483 168.448C336.331 169.456 338.655 169.96 341.455 169.96C343.359 169.96 345.011 169.736 346.411 169.288C347.867 168.784 349.071 168.084 350.023 167.188C351.031 166.293 351.787 165.228 352.291 163.996C352.795 162.764 353.076 161.42 353.132 159.964H360.355C360.299 162.316 359.852 164.5 359.012 166.516C358.172 168.476 356.939 170.156 355.315 171.556C353.691 172.956 351.704 174.048 349.352 174.832C347 175.616 344.311 176.008 341.287 176.008C336.919 176.008 333.223 175.196 330.199 173.572C327.231 171.892 324.963 169.344 323.396 165.928C321.884 162.512 321.128 158.172 321.128 152.908C321.128 147.588 321.884 143.248 323.396 139.888C324.963 136.472 327.259 133.952 330.283 132.328C333.307 130.648 337.087 129.808 341.623 129.808ZM341.371 135.856C338.795 135.856 336.611 136.332 334.819 137.284C333.027 138.236 331.655 139.692 330.703 141.652C329.751 143.612 329.163 146.132 328.939 149.212H352.88C352.88 146.748 352.599 144.676 352.039 142.996C351.479 141.316 350.668 139.944 349.604 138.88C348.596 137.816 347.391 137.06 345.991 136.612C344.647 136.108 343.107 135.856 341.371 135.856Z" fill="#525659"/>
<path d="M378.403 130.816H386.719V137.032H378.403V165.592C378.403 166.992 378.655 168.056 379.159 168.784C379.663 169.456 380.615 169.792 382.015 169.792H386.719V174.664C386.159 174.944 385.487 175.168 384.703 175.336C383.919 175.504 383.107 175.644 382.267 175.756C381.483 175.924 380.727 176.008 379.999 176.008C377.703 176.008 375.911 175.588 374.623 174.748C373.335 173.852 372.412 172.704 371.852 171.304C371.292 169.848 371.011 168.308 371.011 166.684V137.032H365.299V130.816H371.179L372.523 118.468H378.403V130.816Z" fill="#525659"/>
<path fill-rule="evenodd" clip-rule="evenodd" d="M473.041 129.808C477.521 129.808 481.274 130.648 484.298 132.328C487.378 133.952 489.702 136.472 491.27 139.888C492.838 143.248 493.621 147.588 493.621 152.908C493.621 158.172 492.837 162.512 491.27 165.928C489.702 169.344 487.378 171.892 484.298 173.572C481.274 175.196 477.521 176.008 473.041 176.008C468.561 176.008 464.781 175.196 461.701 173.572C458.677 171.892 456.353 169.344 454.729 165.928C453.162 162.512 452.378 158.172 452.378 152.908C452.378 147.588 453.161 143.248 454.729 139.888C456.353 136.472 458.677 133.952 461.701 132.328C464.781 130.648 468.561 129.808 473.041 129.808ZM473.041 136.024C470.185 136.024 467.777 136.584 465.817 137.704C463.913 138.824 462.485 140.56 461.533 142.912C460.581 145.264 460.105 148.288 460.105 151.984V153.832C460.105 157.472 460.581 160.496 461.533 162.904C462.485 165.256 463.913 166.992 465.817 168.112C467.777 169.232 470.185 169.792 473.041 169.792C475.897 169.792 478.278 169.232 480.182 168.112C482.086 166.992 483.514 165.256 484.466 162.904C485.474 160.496 485.978 157.472 485.978 153.832V151.984C485.978 148.289 485.474 145.264 484.466 142.912C483.514 140.56 482.086 138.824 480.182 137.704C478.278 136.584 475.897 136.024 473.041 136.024Z" fill="#525659"/>
<path d="M587.914 129.892C590.714 129.892 593.15 130.2 595.222 130.816C597.35 131.432 599.114 132.3 600.514 133.42C601.914 134.54 602.95 135.828 603.622 137.284C604.294 138.684 604.63 140.196 604.63 141.82V142.828C604.63 143.108 604.602 143.332 604.546 143.5H597.322V142.576C597.322 141.456 597.014 140.392 596.398 139.384C595.838 138.32 594.83 137.48 593.374 136.864C591.974 136.192 590.014 135.856 587.494 135.856C585.87 135.856 584.47 135.996 583.294 136.276C582.118 136.5 581.138 136.892 580.354 137.452C579.57 137.956 578.982 138.572 578.59 139.3C578.198 139.972 578.002 140.756 578.002 141.652C578.002 143.108 578.478 144.228 579.43 145.012C580.382 145.796 581.642 146.44 583.21 146.944C584.834 147.448 586.57 148.008 588.418 148.624C590.378 149.184 592.366 149.772 594.382 150.388C596.454 150.948 598.33 151.676 600.01 152.572C601.637 153.412 602.945 154.547 603.933 155.978L604.319 156.558C605.254 158.034 605.722 159.954 605.722 162.316C605.722 164.668 605.274 166.712 604.378 168.448C603.482 170.184 602.194 171.612 600.514 172.732C598.89 173.852 596.958 174.664 594.718 175.168C592.534 175.728 590.126 176.008 587.494 176.008C584.47 176.008 581.81 175.7 579.514 175.084C577.218 174.468 575.314 173.571 573.802 172.396C572.29 171.22 571.142 169.82 570.358 168.196C569.574 166.572 569.183 164.724 569.183 162.652V161.896C569.183 161.616 569.211 161.392 569.267 161.224H576.574C576.518 161.447 576.49 161.644 576.49 161.812V162.316C576.546 164.276 577.05 165.816 578.002 166.936C579.01 168.056 580.382 168.84 582.118 169.288C583.854 169.736 585.786 169.96 587.914 169.96C589.762 169.96 591.47 169.736 593.038 169.288C594.606 168.784 595.838 168.056 596.734 167.104C597.686 166.096 598.162 164.836 598.162 163.324C598.162 161.476 597.546 160.076 596.314 159.124C595.139 158.116 593.57 157.332 591.61 156.772C589.65 156.212 587.606 155.624 585.479 155.008C583.687 154.504 581.894 153.944 580.103 153.328C578.311 152.712 576.686 151.956 575.23 151.06C573.831 150.164 572.682 149.016 571.786 147.616C570.946 146.16 570.526 144.34 570.526 142.156C570.526 140.196 570.918 138.46 571.702 136.948C572.542 135.436 573.718 134.148 575.23 133.084C576.742 132.02 578.563 131.236 580.69 130.732C582.874 130.172 585.282 129.892 587.914 129.892Z" fill="#525659"/>
<path d="M298.924 155.344C299.204 155.68 299.569 156.184 300.017 156.856C300.464 157.528 300.912 158.2 301.36 158.872C301.808 159.488 302.172 160.048 302.452 160.552H302.788V117.376H310.601V175H303.292L274.984 136.36C274.592 135.744 274.004 134.876 273.22 133.756C272.492 132.636 271.876 131.74 271.372 131.068H270.952V175H263.224V117.376H270.952L298.924 155.344Z" fill="#525659"/>
<path d="M404.097 155.092C404.433 156.268 404.741 157.556 405.021 158.956C405.357 160.3 405.664 161.56 405.944 162.736C406.28 163.856 406.504 164.724 406.616 165.34H407.121C407.345 164.276 407.597 163.071 407.877 161.728C408.213 160.384 408.493 159.096 408.717 157.864C408.997 156.632 409.221 155.68 409.389 155.008L415.437 130.816H423.417L429.549 155.008C429.773 155.96 430.025 157.08 430.305 158.368C430.585 159.6 430.865 160.833 431.145 162.064C431.48 163.296 431.704 164.388 431.816 165.34H432.32C432.544 164.444 432.797 163.408 433.077 162.232C433.357 161 433.665 159.768 434.001 158.536C434.337 157.248 434.645 156.128 434.925 155.176L441.561 130.816H448.616L435.345 175H427.785L422.072 152.152C421.848 151.088 421.568 149.856 421.232 148.456C420.896 147 420.561 145.544 420.225 144.088C419.945 142.576 419.693 141.26 419.469 140.14H418.965C418.853 140.98 418.657 142.044 418.377 143.332C418.153 144.62 417.873 146.048 417.537 147.616C417.201 149.128 416.808 150.64 416.36 152.152L410.648 175H403.089L389.732 130.816H397.377L404.097 155.092Z" fill="#525659"/>
<path d="M520.023 129.808C520.863 129.808 521.62 129.892 522.292 130.06C523.02 130.172 523.552 130.312 523.888 130.48V137.284H521.115C519.212 137.284 517.56 137.62 516.16 138.292C514.816 138.908 513.696 139.804 512.8 140.98C511.904 142.156 511.232 143.556 510.784 145.18C510.392 146.804 510.195 148.54 510.195 150.388V175H502.804V130.816H508.768L509.439 138.124H510.027C510.475 136.724 511.092 135.408 511.876 134.176C512.66 132.888 513.724 131.852 515.067 131.068C516.411 130.228 518.064 129.808 520.023 129.808Z" fill="#525659"/>
<path d="M538.086 152.236L556.818 130.816H565.555L550.435 147.952L566.395 175H557.91L545.646 153.412L538.086 161.056V175H530.694V114.268H538.086V152.236Z" fill="#525659"/>
<path d="M343.917 56.832C344.301 57.92 344.717 59.296 345.165 60.96C345.677 62.5599 346.189 64.2559 346.701 66.0479C347.213 67.7759 347.629 69.3123 347.949 70.6562H348.43C348.686 69.7603 348.973 68.7041 349.293 67.4883C349.613 66.2723 349.933 65.0241 350.253 63.7441C350.637 62.4641 350.99 61.2477 351.31 60.0957C351.694 58.8799 352.014 57.8236 352.27 56.9277L359.47 33.5039H372.909L355.726 81.5996C354.766 84.4155 353.645 87.0398 352.365 89.4717C351.149 91.9677 349.709 94.144 348.045 96C346.381 97.9198 344.398 99.3921 342.094 100.416C339.854 101.504 337.23 102.048 334.222 102.048C331.854 102.048 329.87 101.856 328.27 101.472C326.734 101.152 325.741 100.928 325.293 100.8V91.7764H331.149C332.749 91.7763 334.19 91.392 335.47 90.624C336.75 89.9201 337.869 88.96 338.829 87.7441C339.789 86.5921 340.493 85.344 340.941 84L321.165 33.5039H335.277L343.917 56.832Z" fill="#121010"/>
<path fill-rule="evenodd" clip-rule="evenodd" d="M411.297 16.9922C418.401 16.9922 424.449 18.2403 429.441 20.7363C434.497 23.1683 438.37 26.9119 441.058 31.9678C443.746 36.9598 445.089 43.3283 445.089 51.0723C445.089 58.6881 443.746 65.0241 441.058 70.0801C438.37 75.1361 434.497 78.9122 429.441 81.4082C424.449 83.9042 418.401 85.1523 411.297 85.1523C404.321 85.1523 398.305 83.9041 393.249 81.4082C388.193 78.9122 384.322 75.1359 381.634 70.0801C378.946 65.0241 377.602 58.6882 377.602 51.0723C377.602 43.3283 378.946 36.9598 381.634 31.9678C384.322 26.9121 388.193 23.1683 393.249 20.7363C398.305 18.2404 404.321 16.9922 411.297 16.9922ZM411.297 28.7041C408.225 28.7041 405.505 29.152 403.138 30.0479C400.77 30.9438 398.786 32.2881 397.186 34.0801C395.586 35.8081 394.369 37.9844 393.537 40.6084C392.769 43.2323 392.386 46.2401 392.386 49.6318V52.6084C392.386 55.9362 392.769 58.9122 393.537 61.5361C394.369 64.0961 395.586 66.2725 397.186 68.0645C398.785 69.8563 400.77 71.1998 403.138 72.0957C405.506 72.9916 408.225 73.4404 411.297 73.4404C414.433 73.4404 417.186 72.9917 419.554 72.0957C421.921 71.1998 423.905 69.8561 425.505 68.0645C427.105 66.2725 428.321 64.0961 429.153 61.5361C429.985 58.9122 430.401 55.9362 430.401 52.6084V49.6318C430.401 46.2401 429.985 43.2323 429.153 40.6084C428.321 37.9844 427.105 35.8081 425.505 34.0801C423.905 32.2882 421.922 30.9438 419.554 30.0479C417.186 29.1519 414.433 28.7041 411.297 28.7041Z" fill="#121010"/>
<path d="M482.334 16.9922C485.918 16.9922 489.311 17.3756 492.511 18.1436C495.71 18.8475 498.526 19.9998 500.958 21.5996C503.39 23.1996 505.278 25.2164 506.622 27.6484C508.03 30.0804 508.734 32.9602 508.734 36.2881V37.4404H494.814V36.6719C494.814 34.9439 494.302 33.4718 493.278 32.2559C492.254 31.0399 490.814 30.08 488.958 29.376C487.102 28.6721 484.926 28.3203 482.431 28.3203C479.743 28.3203 477.439 28.5759 475.519 29.0879C473.663 29.5999 472.222 30.3677 471.198 31.3916C470.238 32.3515 469.759 33.5038 469.759 34.8477C469.759 36.3837 470.303 37.6645 471.391 38.6885C472.543 39.6483 474.078 40.5124 475.998 41.2803C477.982 41.9843 480.19 42.6242 482.622 43.2002C485.054 43.7762 487.55 44.4161 490.11 45.1201C492.67 45.8241 495.167 46.6562 497.599 47.6162C500.03 48.5761 502.206 49.7919 504.126 51.2637C506.046 52.6717 507.582 54.432 508.734 56.5439C509.886 58.6559 510.462 61.184 510.462 64.1279C510.462 69.1839 509.246 73.2483 506.814 76.3203C504.382 79.3923 501.054 81.6321 496.83 83.04C492.606 84.448 487.774 85.1523 482.334 85.1523C478.494 85.1523 474.846 84.7679 471.391 84C467.935 83.232 464.863 82.0155 462.175 80.3516C459.551 78.6236 457.471 76.4799 455.935 73.9199C454.463 71.2959 453.727 68.128 453.727 64.416V63.4561C453.727 63.0721 453.758 62.7838 453.822 62.5918H468.03C467.966 62.7838 467.935 63.0404 467.935 63.3604V64.2236C467.935 66.2716 468.478 68.0002 469.566 69.4082C470.718 70.8161 472.383 71.8722 474.559 72.5762C476.735 73.2801 479.263 73.6318 482.143 73.6318C483.998 73.6318 485.63 73.5357 487.038 73.3438C488.51 73.0878 489.79 72.7677 490.878 72.3838C492.03 71.9358 492.958 71.4237 493.662 70.8477C494.43 70.2717 494.974 69.6 495.294 68.832C495.678 68.0641 495.87 67.2001 495.87 66.2402C495.87 64.5122 495.295 63.1036 494.143 62.0156C493.055 60.9277 491.518 60.0004 489.534 59.2324C487.614 58.4644 485.438 57.7601 483.006 57.1201C480.574 56.4802 478.078 55.8401 475.519 55.2002C472.959 54.4962 470.462 53.6641 468.03 52.7041C465.598 51.6801 463.422 50.4637 461.502 49.0557C459.582 47.6477 458.046 45.8555 456.895 43.6797C455.743 41.5037 455.166 38.8795 455.166 35.8076C455.166 32.5438 455.839 29.7282 457.183 27.3604C458.591 24.9924 460.542 23.0399 463.038 21.5039C465.534 19.9679 468.415 18.8476 471.679 18.1436C474.942 17.3757 478.494 16.9922 482.334 16.9922Z" fill="#121010"/>
<path d="M286.816 60.1924C287.072 60.8963 287.36 61.7604 287.68 62.7842L288.64 65.6641C288.96 66.624 289.216 67.4879 289.408 68.2559H289.984C290.24 67.552 290.496 66.7522 290.752 65.8564C291.072 64.8964 291.36 63.9356 291.616 62.9756C291.936 62.0157 292.225 61.12 292.48 60.2881L306.688 18.1436H321.568L297.664 84H280.96L257.152 18.1436H272.608L286.816 60.1924Z" fill="#121010"/>
<defs>
<linearGradient id="paint0_linear_1411_32" x1="0" y1="0" x2="192" y2="192" gradientUnits="userSpaceOnUse">
<stop stop-color="#FFBF12"/>
<stop offset="1" stop-color="#FF9000"/>
</linearGradient>
</defs>
<div xmlns="" id="divScriptsUsed" style="display: none"/><script xmlns="" id="globalVarsDetection" src="moz-extension://988954a5-4571-47b7-8811-234b4eee0106/js/wrs_env.js"/></svg>