<?xml version="1.0" encoding="UTF-8"?>
<svg version="1.1" xmlns="http://www.w3.org/2000/svg" width="516" height="383">
<path d="M0 0 C170.28 0 340.56 0 516 0 C516 126.39 516 252.78 516 383 C345.72 383 175.44 383 0 383 C0 256.61 0 130.22 0 0 Z " fill="#010100" transform="translate(0,0)"/>
<path d="M0 0 C170.28 0 340.56 0 516 0 C516 126.39 516 252.78 516 383 C345.72 383 175.44 383 0 383 C0 256.61 0 130.22 0 0 Z M16 20 C3.50260961 36.29638746 0.96225641 55.22960449 3.38232422 75.14648438 C5.52058717 89.20219885 8.86248215 103.03029517 12.27392578 116.8215332 C14.48085624 125.74580086 16.50377313 134.70089747 18.4375 143.6875 C20.83698065 154.82208675 23.36351867 165.91915476 26 177 C28.81594616 188.83594024 31.49363361 200.69391638 34.06201172 212.5859375 C36.15167951 222.25153252 38.37477887 231.87535114 40.73095703 241.47949219 C42.48004044 248.66798193 44.06494989 255.88498862 45.60498047 263.12036133 C54.11882415 303.08796595 68.29921032 339.83523844 103.6953125 363.53515625 C112.000948 368.8466346 120.68061299 372.82571097 130 376 C130.97453125 376.3403125 131.9490625 376.680625 132.953125 377.03125 C155.09894151 383.42629862 182.33580693 378.3121067 205.06065369 376.86190796 C212.60552092 376.38372541 220.15170191 375.92634696 227.69768143 375.46611404 C229.58899083 375.35070462 231.48028472 375.23504055 233.37156296 375.11912155 C249.49282971 374.13152222 265.61667302 373.26857435 281.75 372.5 C305.35485743 371.36486269 328.95118909 370.09775403 352.54602051 368.77148438 C356.47063589 368.55090469 360.39535502 368.33235123 364.32019043 368.11572266 C368.97260399 367.85875054 373.62473955 367.59719851 378.27671051 367.33233833 C379.98902547 367.23547819 381.70142007 367.14001257 383.41390228 367.04615593 C392.50363292 366.54660367 401.56888893 365.91451014 410.63085938 365.03930664 C411.43571022 364.96374007 412.24056107 364.8881735 413.06980133 364.81031704 C435.16326423 362.57584178 455.58443129 354.82300561 470.75 338.06640625 C475.12408228 332.58741256 478.09097203 326.34618303 481 320 C481.309375 319.33355469 481.61875 318.66710937 481.9375 317.98046875 C486.18189822 307.83370426 487.17569799 296.19010205 488.66625977 285.36938477 C489.97140675 275.97741256 491.45177108 266.61473617 492.9375 257.25 C493.06951813 256.41725555 493.20153625 255.58451111 493.33755493 254.72653198 C495.03488339 244.02599426 496.74361549 233.32726884 498.46069336 222.62988281 C499.85678809 213.92305547 501.23172736 205.21293247 502.60531616 196.50253296 C503.62200992 190.05608292 504.64002301 183.60984103 505.65826416 177.16363525 C505.97590306 175.15256515 506.29337818 173.14146918 506.61083984 171.13037109 C507.13472279 167.81581284 507.66053337 164.50156924 508.1875 161.1875 C508.34444336 160.1960498 508.50138672 159.20459961 508.66308594 158.18310547 C509.48464189 153.04093598 510.37552353 147.91947049 511.34228516 142.80273438 C512.65133262 135.81069641 513.57065356 129.12778596 513 122 C512.94199219 121.08476563 512.88398437 120.16953125 512.82421875 119.2265625 C510.57026196 98.96810751 495.36194674 80.94119999 480.0078125 68.59375 C467.39941789 59.48234016 453.64277379 52.57333411 438.9375 47.5625 C438.01799561 47.24466553 437.09849121 46.92683105 436.15112305 46.59936523 C418.08499531 40.76454725 398.67496722 39.73570878 379.90026855 37.72393799 C373.73096735 37.06220712 367.56260718 36.39179458 361.39453125 35.71875 C360.72648216 35.64603064 360.05843307 35.57331127 359.37014008 35.49838829 C350.0062044 34.47663985 340.66576347 33.33784632 331.3301239 32.08589172 C321.23686027 30.74222205 311.11795812 29.65000665 300.99539185 28.55325317 C282.33302417 26.52802272 263.68976003 24.38807203 245.0625 22.0625 C225.87180224 19.6675681 206.66089011 17.48734447 187.4375 15.375 C170.36011094 13.49804743 153.28784921 11.61807476 136.24780273 9.42407227 C122.96533281 7.71749962 109.66168013 6.19594186 96.35839844 4.66162109 C95.46546082 4.5585817 94.57252319 4.4555423 93.65252686 4.34938049 C91.98367444 4.15698169 90.31477343 3.96500373 88.64581299 3.77354431 C85.00532186 3.35453445 81.36848398 2.92055896 77.734375 2.44921875 C55.96439135 -0.16955543 31.45190781 2.6038124 16 20 Z " fill="#FDFDFD" transform="translate(0,0)"/>
<path d="M0 0 C0.33 21.78 0.66 43.56 1 66 C5.455 61.05 5.455 61.05 10 56 C17.89899828 52.05050086 25.30940327 51.66767775 33.953125 53.69140625 C44.25260776 57.46683014 49.91591221 64.49038502 55 74 C56.23103692 76.95628574 57.20220718 79.90088175 58 83 C58.18175781 83.66257812 58.36351562 84.32515625 58.55078125 85.0078125 C60.7228055 94.64026787 57.5824495 105.02765235 52.6875 113.375 C47.12442504 121.38245638 40.13848589 127.24043562 30.49609375 129.6171875 C23.33399908 130.71559952 16.40464817 130.68171392 10 127 C2.77731092 121.55462185 2.77731092 121.55462185 1 118 C0.67 121.3 0.34 124.6 0 128 C-8.91 128 -17.82 128 -27 128 C-27 126.68 -27 125.36 -27 124 C-23.04 124 -19.08 124 -15 124 C-15 85.39 -15 46.78 -15 7 C-18.96 7 -22.92 7 -27 7 C-27 6.01 -27 5.02 -27 4 C-26.13834229 3.97812622 -26.13834229 3.97812622 -25.25927734 3.95581055 C-22.63054304 3.88086275 -20.00301448 3.78436006 -17.375 3.6875 C-16.47136719 3.66494141 -15.56773437 3.64238281 -14.63671875 3.61914062 C-9.54249181 3.41462786 -4.36345166 0 0 0 Z " fill="#F7F7F7" transform="translate(274,120)"/>
<path d="M0 0 C26.07 0 52.14 0 79 0 C79 1.32 79 2.64 79 4 C74.38 4 69.76 4 65 4 C66.2684375 6.80951172 66.2684375 6.80951172 67.5625 9.67578125 C78.08286726 33.01251792 78.08286726 33.01251792 82.8125 44.1875 C83.14314453 44.96327393 83.47378906 45.73904785 83.81445312 46.53833008 C86 51.7529158 86 51.7529158 86 54 C86.66 54 87.32 54 88 54 C88.34804687 52.84757812 88.69609375 51.69515625 89.0546875 50.5078125 C90.55262932 46.01046662 92.39054269 41.69248 94.3203125 37.3671875 C94.62580017 36.68174866 94.93128784 35.99630981 95.24603271 35.2901001 C96.52682164 32.42562794 97.81298029 29.5636754 99.10791016 26.70556641 C100.06150995 24.59617499 101.00402526 22.48209609 101.9453125 20.3671875 C102.23697296 19.73158905 102.52863342 19.0959906 102.82913208 18.44113159 C104.69570083 14.22486666 105.5385805 10.53765619 106 6 C103.56612247 4.78306124 101.58161154 4.68040104 98.875 4.4375 C97.96492188 4.35371094 97.05484375 4.26992187 96.1171875 4.18359375 C95.41851562 4.12300781 94.71984375 4.06242188 94 4 C94 2.68 94 1.36 94 0 C103.9 0 113.8 0 124 0 C124 1.32 124 2.64 124 4 C123.11248047 4.11214844 123.11248047 4.11214844 122.20703125 4.2265625 C121.02173828 4.42378906 121.02173828 4.42378906 119.8125 4.625 C119.03519531 4.74101562 118.25789063 4.85703125 117.45703125 4.9765625 C111.2097461 7.5787703 108.60363265 14.44747345 106.14453125 20.30859375 C105.62920586 21.50258034 105.62920586 21.50258034 105.10346985 22.72068787 C104.37347137 24.41575057 103.64810779 26.11281581 102.92706299 27.81170654 C101.80508338 30.45497277 100.67057438 33.0925386 99.53271484 35.72900391 C96.24560272 43.35632931 92.99694492 50.99959538 89.76953125 58.65234375 C89.31280029 59.72621338 88.85606934 60.80008301 88.38549805 61.90649414 C87.5655214 63.83756059 86.75524263 65.77278357 85.95629883 67.71264648 C85.4249231 68.96476929 85.4249231 68.96476929 84.8828125 70.2421875 C84.58777832 70.9522998 84.29274414 71.66241211 83.98876953 72.39404297 C83 74 83 74 80 75 C79.77671524 74.50109756 79.55343048 74.00219513 79.32337952 73.48817444 C77.00649613 68.31257997 74.68643853 63.13841725 72.36450195 57.96508789 C71.49746904 56.03218816 70.63125611 54.0989204 69.76586914 52.1652832 C68.52443541 49.39177671 67.28009356 46.61959153 66.03515625 43.84765625 C65.64658951 42.97786636 65.25802277 42.10807648 64.85768127 41.21192932 C64.49738327 40.41117477 64.13708527 39.61042023 63.76586914 38.78540039 C63.44832169 38.0770253 63.13077423 37.36865021 62.80360413 36.6388092 C62.11133199 35.00347741 62.11133199 35.00347741 61 34 C60.50072998 35.20648193 60.00145996 36.41296387 59.48706055 37.65600586 C57.63626265 42.12028178 55.77115715 46.57845868 53.90161133 51.03491211 C53.09363927 52.96653884 52.28958547 54.8998093 51.48950195 56.8347168 C50.34044988 59.61165192 49.17755142 62.38241923 48.01171875 65.15234375 C47.65534836 66.02213364 47.29897797 66.89192352 46.93180847 67.78807068 C46.59168228 68.58882523 46.25155609 69.38957977 45.90112305 70.21459961 C45.60578171 70.9229747 45.31044037 71.63134979 45.00614929 72.3611908 C44 74 44 74 41 75 C30.41068432 51.77683378 20.14939105 28.41839609 10 5 C6.7 4.67 3.4 4.34 0 4 C0 2.68 0 1.36 0 0 Z " fill="#F4F4F4" transform="translate(54,176)"/>
<path d="M0 0 C0.99 0 1.98 0 3 0 C3 7.92 3 15.84 3 24 C24.45 24 45.9 24 68 24 C68 25.32 68 26.64 68 28 C64.04 28 60.08 28 56 28 C58.02301857 32.89031022 60.04954855 37.77914609 62.07910156 42.66674805 C62.76655088 44.32359075 63.45310136 45.98080673 64.13867188 47.63842773 C68.22846733 57.5250897 72.41190684 67.33169148 77 77 C79.41635837 71.59823412 81.81858659 66.19048305 84.20825195 60.77685547 C85.02215752 58.9382533 85.83981682 57.10130786 86.66137695 55.26611328 C87.84550436 52.61924026 89.01574948 49.96659056 90.18359375 47.3125 C90.73363319 46.09481934 90.73363319 46.09481934 91.29478455 44.85253906 C93.48185626 39.83790923 94.68674231 35.47951118 95 30 C93.26043342 28.26043342 90.8063378 28.62809614 88.4375 28.4375 C87.42558594 28.35371094 86.41367187 28.26992187 85.37109375 28.18359375 C84.19740234 28.09271484 84.19740234 28.09271484 83 28 C83 26.68 83 25.36 83 24 C93.23 24 103.46 24 114 24 C114 25.32 114 26.64 114 28 C112.1746875 28.0928125 112.1746875 28.0928125 110.3125 28.1875 C107.14099704 28.61185603 106.00183861 28.99867449 103.3125 30.9375 C97.66467527 38.41705167 94.36154955 47.58810202 90.69345093 56.15179443 C89.28454157 59.44094819 87.86619248 62.72603315 86.44921875 66.01171875 C86.01990807 67.00827484 86.01990807 67.00827484 85.58192444 68.02496338 C82.65092954 74.82325541 79.67393928 81.6008937 76.6875 88.375 C76.2136084 89.45015869 75.7397168 90.52531738 75.25146484 91.63305664 C74.16836239 94.08902293 73.08461567 96.5447017 72 99 C71.01 99 70.02 99 69 99 C68.69521729 98.29544678 68.39043457 97.59089355 68.07641602 96.86499023 C66.85582546 94.04413493 65.63475333 91.22348858 64.41342163 88.4029541 C63.8463828 87.09321092 63.27950846 85.78339651 62.71279907 84.47351074 C58.94742726 75.77092971 55.16115404 67.07785126 51.3515625 58.39453125 C50.18209783 55.72526962 49.01288245 53.05589891 47.84371948 50.38650513 C47.072189 48.62719895 46.29933862 46.86847101 45.525177 45.11032104 C44.43411729 42.63224615 43.34749279 40.15226938 42.26171875 37.671875 C41.93108429 36.92424393 41.60044983 36.17661285 41.25979614 35.40632629 C39 30.22748401 39 30.22748401 39 28 C27.12 28 15.24 28 3 28 C3.06755518 36.02508917 3.13784143 44.04927139 3.2355423 52.07390594 C3.28022172 55.81072453 3.31965293 59.54743047 3.34643555 63.28442383 C3.37242913 66.88320552 3.41280248 70.48156386 3.46318626 74.08008385 C3.47988191 75.45355657 3.4913794 76.82710257 3.49761391 78.20066261 C3.50722475 80.1232319 3.53696665 82.04566877 3.56762695 83.96801758 C3.57873001 85.06277908 3.58983307 86.15754059 3.60127258 87.28547668 C3.79412176 89.99608094 3.79412176 89.99608094 5.28483582 91.8535614 C8.27240816 93.85049457 11.58356073 93.48232084 15 93 C18.70439871 91.48456416 19.88290803 90.17563795 22.125 86.8125 C22.74375 85.884375 23.3625 84.95625 24 84 C24.99 84 25.98 84 27 84 C26.08064508 88.80812058 23.59004348 91.76896086 20 95 C13.99391991 98.60869518 7.34114066 98.91355162 0.60546875 97.49609375 C-4.42018474 96.03757076 -7.7011774 94.22661645 -11 90 C-12.1205972 86.73741426 -12.1209826 83.65199407 -12.11352539 80.22167969 C-12.11344986 79.0607782 -12.11337433 77.89987671 -12.11329651 76.70379639 C-12.10813522 75.45576233 -12.10297394 74.20772827 -12.09765625 72.921875 C-12.0962413 71.64016418 -12.09482635 70.35845337 -12.09336853 69.03790283 C-12.08955901 65.6381636 -12.07974214 62.2384674 -12.06866455 58.83874512 C-12.05841674 55.366461 -12.0538637 51.8941699 -12.04882812 48.421875 C-12.03811841 41.61456392 -12.02053433 34.80728846 -12 28 C-16.95 28 -21.9 28 -27 28 C-27 26.68 -27 25.36 -27 24 C-26.13117188 23.90203125 -25.26234375 23.8040625 -24.3671875 23.703125 C-16.63727783 22.70013896 -11.39993522 21.73662783 -5.98828125 15.7890625 C-3.74479728 12.64201426 -2.79892801 9.89620977 -1.75 6.1875 C-1.41484375 5.02605469 -1.0796875 3.86460937 -0.734375 2.66796875 C-0.49203125 1.78753906 -0.2496875 0.90710938 0 0 Z " fill="#E1B53E" transform="translate(364,152)"/>
<path d="M0 0 C7.0902993 6.91304182 8.56223964 15.00432551 8.80078125 24.578125 C8.81162044 26.59421526 8.82214955 28.61035585 8.81567383 30.62646484 C8.81252772 32.66949589 8.83598318 34.71105478 8.86132812 36.75390625 C8.90574162 45.86156991 8.91428725 56.49650436 3.125 64.0625 C-2.09652306 68.78673515 -7.38352059 69.00597077 -14.20703125 68.8671875 C-19.46307487 68.18134551 -22.81853511 66.20044601 -26.5 62.4375 C-33.33503407 53.2470525 -33.72633495 46.01395615 -33.8125 34.8125 C-33.84150391 33.57886719 -33.87050781 32.34523437 -33.90039062 31.07421875 C-33.98005619 19.54109669 -31.55393237 11.64610938 -23.4921875 3.2890625 C-16.99695788 -2.74768032 -8.05977591 -3.59811425 0 0 Z " fill="#020202" transform="translate(307.5,177.5625)"/>
<path d="M0 0 C5.67350951 3.18581816 9.7173139 6.6751787 13.125 12.25 C13.70636719 13.1884375 14.28773438 14.126875 14.88671875 15.09375 C15.39847656 15.9703125 15.91023438 16.846875 16.4375 17.75 C16.83582031 18.3790625 17.23414063 19.008125 17.64453125 19.65625 C18.4375 21.75 18.4375 21.75 18.4375 28.75 C2.9275 28.75 -12.5825 28.75 -28.5625 28.75 C-28.459375 32.50375 -28.35625 36.2575 -28.25 40.125 C-28.22510498 41.28692871 -28.20020996 42.44885742 -28.17456055 43.64599609 C-27.89668358 51.61450691 -27.31379904 59.44844115 -22.0625 65.75 C-16.18528146 70.45177483 -11.91770552 70.4496415 -4.5625 69.75 C3.0927225 68.04163114 8.22191026 64.34734203 12.4375 57.75 C14.00555787 54.48360052 15.30273215 51.18954478 16.4375 47.75 C17.7575 47.75 19.0775 47.75 20.4375 47.75 C18.98165279 56.45410779 14.66050299 64.53779638 7.4375 69.75 C-1.34151015 74.76294203 -9.51822032 76.21876613 -19.41015625 74.15625 C-27.75305439 71.62169867 -34.46719012 66.51648658 -39.2265625 59.1875 C-44.90524891 48.29504887 -46.29084952 36.61052599 -43.9453125 24.5859375 C-40.26395134 13.28122668 -32.85484229 4.56343667 -22.5625 -1.25 C-15.32052959 -3.66399014 -6.85628719 -3.36618919 0 0 Z " fill="#F6F6F6" transform="translate(222.5625,175.25)"/>
<path d="M0 0 C7.26 0 14.52 0 22 0 C23.70927629 3.5116766 25.3923941 7.03224939 27.0625 10.5625 C27.79049805 12.0484668 27.79049805 12.0484668 28.53320312 13.56445312 C32.91654773 22.92180578 32.91654773 22.92180578 31 29 C29.60003879 32.70395109 28.05119861 36.32212317 26.4375 39.9375 C26.01275391 40.90751953 25.58800781 41.87753906 25.15039062 42.87695312 C24.10789047 45.25479057 23.05762761 47.62886198 22 50 C19.81069796 47.25969576 18.27234064 44.66090276 16.9152832 41.4309082 C16.53511551 40.53350418 16.15494781 39.63610016 15.76325989 38.71150208 C15.36314194 37.7509642 14.96302399 36.79042633 14.55078125 35.80078125 C14.13330124 34.80999069 13.71582123 33.81920013 13.28569031 32.79838562 C12.40652462 30.70905086 11.53002226 28.61859367 10.65600586 26.52709961 C9.31222619 23.31184485 7.96055506 20.09999994 6.60742188 16.88867188 C5.75474827 14.85956827 4.90251915 12.83027781 4.05078125 10.80078125 C3.64459061 9.83417068 3.23839996 8.86756012 2.81990051 7.87165833 C2.26383369 6.53973701 2.26383369 6.53973701 1.6965332 5.1809082 C1.36804886 4.39577347 1.03956451 3.61063873 0.7011261 2.80171204 C0 1 0 1 0 0 Z " fill="#030303" transform="translate(81,180)"/>
<path d="M0 0 C5.01802346 2.32979661 6.98279264 4.90389719 9 10 C10 14 10 14 10 25 C0.1 25 -9.8 25 -20 25 C-20 8.525 -20 8.525 -14.5 2.0625 C-10.19639463 -1.18672205 -5.11350356 -0.81420369 0 0 Z " fill="#040404" transform="translate(215,176)"/>
<path d="M0 0 C0.78503906 0.00773437 1.57007813 0.01546875 2.37890625 0.0234375 C3.55646484 0.01183594 3.55646484 0.01183594 4.7578125 0 C10.62559838 0.02012963 10.62559838 0.02012963 12.87890625 2.2734375 C13.14453125 5.4609375 13.14453125 5.4609375 13.12890625 9.2734375 C13.1340625 10.5315625 13.13921875 11.7896875 13.14453125 13.0859375 C12.87890625 16.2734375 12.87890625 16.2734375 10.87890625 18.2734375 C8.00548564 18.47200722 5.25028637 18.55172696 2.37890625 18.5234375 C1.20134766 18.53503906 1.20134766 18.53503906 0 18.546875 C-5.86778588 18.52674537 -5.86778588 18.52674537 -8.12109375 16.2734375 C-8.38671875 13.0859375 -8.38671875 13.0859375 -8.37109375 9.2734375 C-8.37625 8.0153125 -8.38140625 6.7571875 -8.38671875 5.4609375 C-7.90476003 -0.32256717 -5.17314344 0.01774663 0 0 Z " fill="#E5E5E5" transform="translate(286.12109375,279.7265625)"/>
<path d="M0 0 C10.23 0 20.46 0 31 0 C31 1.32 31 2.64 31 4 C29.1746875 4.0928125 29.1746875 4.0928125 27.3125 4.1875 C24.14099704 4.61185603 23.00183861 4.99867449 20.3125 6.9375 C14.09020119 15.17784167 10.55886899 25.42937496 6.5 34.875 C5.93904584 36.17328243 5.37784897 37.47146002 4.81640625 38.76953125 C1.48323489 46.48772343 -1.78845863 54.23031724 -5 62 C-5.144375 61.401875 -5.28875 60.80375 -5.4375 60.1875 C-5.8872439 58.43849596 -6.42892341 56.71322977 -7 55 C-6.34 55 -5.68 55 -5 55 C-4.83238159 53.71174316 -4.83238159 53.71174316 -4.66137695 52.39746094 C-3.97060228 48.84898536 -2.86653657 45.9486703 -1.41796875 42.640625 C-0.89783203 41.44179687 -0.37769531 40.24296875 0.15820312 39.0078125 C0.70933527 37.75507624 1.26076921 36.50247272 1.8125 35.25 C3.88591501 30.50472255 5.94791562 25.75454093 8 21 C8.42200684 20.02869141 8.84401367 19.05738281 9.27880859 18.05664062 C9.64441895 17.18716797 10.0100293 16.31769531 10.38671875 15.421875 C10.70213623 14.6803418 11.01755371 13.93880859 11.3425293 13.17480469 C12.09928586 10.67157874 12.18586054 8.6014919 12 6 C10.26043342 4.26043342 7.8063378 4.62809614 5.4375 4.4375 C4.42558594 4.35371094 3.41367187 4.26992187 2.37109375 4.18359375 C1.19740234 4.09271484 1.19740234 4.09271484 0 4 C0 2.68 0 1.36 0 0 Z " fill="#CFAB4C" transform="translate(447,176)"/>
<path d="M0 0 C2.76375 -0.04125 5.5275 -0.0825 8.375 -0.125 C9.67896729 -0.15231201 9.67896729 -0.15231201 11.00927734 -0.18017578 C13.00703478 -0.19473738 15.00467217 -0.09956726 17 0 C19 2 19 2 19.1953125 3.9453125 C19.13020833 5.96354167 19.06510417 7.98177083 19 10 C17.35 10.66 15.7 11.32 14 12 C14.99 12.61875 15.98 13.2375 17 13.875 C17.99 14.57625 18.98 15.2775 20 16 C20 16.66 20 17.32 20 18 C17.9375 18.375 17.9375 18.375 15 18 C13.10304173 16.58998414 11.43620981 15.06123961 9.74609375 13.41015625 C7.82722286 11.8604641 6.4068562 11.41606486 4 11 C4 13.31 4 15.62 4 18 C2.68 18 1.36 18 0 18 C0 12.06 0 6.12 0 0 Z " fill="#E4E4E4" transform="translate(328,280)"/>
<path d="M0 0 C1.15249741 0.00222061 2.30499481 0.00444122 3.49241638 0.00672913 C5.4443264 0.00684242 5.4443264 0.00684242 7.43566895 0.00695801 C8.86661313 0.01206543 10.29755694 0.01728144 11.72850037 0.02259827 C13.18438672 0.02446249 14.64027369 0.02588637 16.09616089 0.02688599 C19.93488791 0.03071086 23.77357731 0.04054088 27.61228943 0.05158997 C31.52667227 0.06180474 35.44106117 0.06638375 39.35545349 0.07142639 C47.04101755 0.08216318 54.72655057 0.09923923 62.41209412 0.12025452 C62.41209412 0.45025452 62.41209412 0.78025452 62.41209412 1.12025452 C61.4595575 1.15783875 61.4595575 1.15783875 60.48777771 1.19618225 C57.5873787 1.31282241 54.68725062 1.43523845 51.78709412 1.55775452 C50.78807068 1.59707092 49.78904724 1.63638733 48.75975037 1.67689514 C43.90253307 1.88598065 39.19077368 2.14984007 34.41209412 3.12025452 C34.76271912 3.69775452 35.11334412 4.27525452 35.47459412 4.87025452 C36.56126818 7.47827228 36.34274544 8.5144308 35.41209412 11.12025452 C34.75209412 8.81025452 34.09209412 6.50025452 33.41209412 4.12025452 C21.53209412 4.12025452 9.65209412 4.12025452 -2.58790588 4.12025452 C-2.58790588 23.92025452 -2.58790588 43.72025452 -2.58790588 64.12025452 C-2.91790588 64.12025452 -3.24790588 64.12025452 -3.58790588 64.12025452 C-3.61103299 55.92334891 -3.62882284 47.72645684 -3.63971806 39.52952671 C-3.64494608 35.72373875 -3.65204226 31.91797303 -3.66334534 28.11219788 C-3.67417708 24.44232908 -3.68018333 20.77248174 -3.68278313 17.10259819 C-3.68463686 15.69950459 -3.68825649 14.29641222 -3.69363594 12.89332771 C-3.70085008 10.93455771 -3.70131397 8.97576631 -3.70143127 7.01698303 C-3.70365189 5.90001541 -3.7058725 4.78304779 -3.7081604 3.63223267 C-3.54394612 0.20198577 -3.43720891 0.15971983 0 0 Z " fill="#AC8E3B" transform="translate(369.58790588378906,175.87974548339844)"/>
<path d="M0 0 C1.8871875 -0.02126953 1.8871875 -0.02126953 3.8125 -0.04296875 C7 0.1875 7 0.1875 9 2.1875 C9 3.1775 9 4.1675 9 5.1875 C8.01 5.1875 7.02 5.1875 6 5.1875 C6 4.5275 6 3.8675 6 3.1875 C2.04 3.1875 -1.92 3.1875 -6 3.1875 C-6 4.5075 -6 5.8275 -6 7.1875 C-5.00097656 7.17589844 -4.00195312 7.16429687 -2.97265625 7.15234375 C-1.68230469 7.14332031 -0.39195312 7.13429688 0.9375 7.125 C2.22527344 7.11339844 3.51304687 7.10179687 4.83984375 7.08984375 C8 7.1875 8 7.1875 9 8.1875 C9.07179964 9.70678038 9.08392007 11.22917482 9.0625 12.75 C9.05347656 13.57628906 9.04445313 14.40257812 9.03515625 15.25390625 C9.02355469 15.89199219 9.01195312 16.53007812 9 17.1875 C5.96576019 18.7046199 2.82495206 18.37189257 -0.5 18.375 C-1.18964844 18.38724609 -1.87929688 18.39949219 -2.58984375 18.41210938 C-4.39477494 18.41738695 -6.19917842 18.30934458 -8 18.1875 C-8.66 17.5275 -9.32 16.8675 -10 16.1875 C-10 15.1975 -10 14.2075 -10 13.1875 C-5.05 13.5175 -0.1 13.8475 5 14.1875 C5 13.1975 5 12.2075 5 11.1875 C4.15695312 11.21070313 3.31390625 11.23390625 2.4453125 11.2578125 C0.80175781 11.28488281 0.80175781 11.28488281 -0.875 11.3125 C-1.96554687 11.33570313 -3.05609375 11.35890625 -4.1796875 11.3828125 C-7 11.1875 -7 11.1875 -9 9.1875 C-9.26991906 6.49910615 -9.08737357 3.89608064 -9 1.1875 C-6.02958551 -0.29770725 -3.30235553 0.0169178 0 0 Z " fill="#DADADA" transform="translate(432,279.8125)"/>
<path d="M0 0 C1.32 0 2.64 0 4 0 C4.99 3.3 5.98 6.6 7 10 C7.66 10 8.32 10 9 10 C9.99 7.03 10.98 4.06 12 1 C13.32 1 14.64 1 16 1 C16.99 3.97 17.98 6.94 19 10 C19.66 10 20.32 10 21 10 C21.12375 9.2575 21.2475 8.515 21.375 7.75 C21.95486701 5.19858515 22.73708739 3.2732427 24 1 C24.99 1 25.98 1 27 1 C25.43551329 6.6143991 23.83604813 11.86810338 21 17 C20.01 17 19.02 17 18 17 C16.68 14.03 15.36 11.06 14 8 C12.46478044 10.30282933 11.41642091 12.17862235 10.375 14.6875 C9.92125 15.780625 9.4675 16.87375 9 18 C8.01 18 7.02 18 6 18 C4.9936345 15.56495491 3.99473587 13.12729136 3 10.6875 C2.71382812 9.99720703 2.42765625 9.30691406 2.1328125 8.59570312 C0.91089256 5.58454326 0 3.28113016 0 0 Z " fill="#EDEDED" transform="translate(226,280)"/>
<path d="M0 0 C5.94 0 11.88 0 18 0 C18 0.99 18 1.98 18 3 C13.71 3 9.42 3 5 3 C5 4.32 5 5.64 5 7 C7.64 7 10.28 7 13 7 C13 7.99 13 8.98 13 10 C10.36 10 7.72 10 5 10 C5 11.32 5 12.64 5 14 C9.62 14 14.24 14 19 14 C19 15.32 19 16.64 19 18 C12.73 18 6.46 18 0 18 C0 12.06 0 6.12 0 0 Z " fill="#CECECE" transform="translate(139,280)"/>
<path d="M0 0 C1.65 0 3.3 0 5 0 C5.33 1.98 5.66 3.96 6 6 C6.51949219 5.566875 7.03898437 5.13375 7.57421875 4.6875 C8.27160156 4.130625 8.96898437 3.57375 9.6875 3 C10.37199219 2.443125 11.05648438 1.88625 11.76171875 1.3125 C14.38783056 -0.22741897 16.00603356 -0.25168194 19 0 C19 0.66 19 1.32 19 2 C17.03125 3.5078125 17.03125 3.5078125 14.5 5.125 C13.24703125 5.93324219 13.24703125 5.93324219 11.96875 6.7578125 C10.99421875 7.37269531 10.99421875 7.37269531 10 8 C12.39188605 10.58323693 14.87359945 12.68043754 17.75 14.6875 C18.8225 15.450625 19.895 16.21375 21 17 C21 17.33 21 17.66 21 18 C15.97306969 18.41276847 13.62149099 17.52437156 9.625 14.5 C8.75101562 13.8503125 7.87703125 13.200625 6.9765625 12.53125 C5.99816406 11.77328125 5.99816406 11.77328125 5 11 C5 13.31 5 15.62 5 18 C3.35 18 1.7 18 0 18 C0 12.06 0 6.12 0 0 Z " fill="#D5D5D5" transform="translate(375,280)"/>
<path d="M0 0 C4.46652087 1.11663022 6.8774908 3.12970791 10.25 6.0625 C10.80429688 6.53494141 11.35859375 7.00738281 11.9296875 7.49414062 C13.291749 8.65658967 14.64659956 9.82747855 16 11 C16.33 7.7 16.66 4.4 17 1 C17.99 1 18.98 1 20 1 C20 6.28 20 11.56 20 17 C14.72932364 15.94586473 13.15525066 14.83159997 9.1875 11.4375 C8.21167969 10.61121094 7.23585938 9.78492188 6.23046875 8.93359375 C5.49441406 8.29550781 4.75835937 7.65742188 4 7 C4 10.63 4 14.26 4 18 C2.68 18 1.36 18 0 18 C0 12.06 0 6.12 0 0 Z " fill="#EDEDED" transform="translate(90,280)"/>
<path d="M0 0 C4.29 0 8.58 0 13 0 C13 3.63 13 7.26 13 11 C8.71 11 4.42 11 0 11 C0 7.37 0 3.74 0 0 Z " fill="#0C0C0C" transform="translate(282,283)"/>
<path d="M0 0 C10.23 0 20.46 0 31 0 C31 1.32 31 2.64 31 4 C26.545 4.495 26.545 4.495 22 5 C21.67 4.34 21.34 3.68 21 3 C18.36 3 15.72 3 13 3 C12.67 3.99 12.34 4.98 12 6 C11.67 5.67 11.34 5.34 11 5 C9.15108054 4.76636119 7.29511969 4.58696365 5.4375 4.4375 C4.42558594 4.35371094 3.41367187 4.26992187 2.37109375 4.18359375 C1.19740234 4.09271484 1.19740234 4.09271484 0 4 C0 2.68 0 1.36 0 0 Z " fill="#BD9C41" transform="translate(447,176)"/>
<path d="M0 0 C0.99 0 1.98 0 3 0 C2.08064508 4.80812058 -0.40995652 7.76896086 -4 11 C-9.84353679 14.51103261 -16.54439428 14.95828285 -23.125 13.54296875 C-24.76622181 13.08302957 -26.38648166 12.54928284 -28 12 C-28 11.67 -28 11.34 -28 11 C-24.37 11 -20.74 11 -17 11 C-17 10.67 -17 10.34 -17 10 C-16.33613281 9.91363281 -15.67226563 9.82726562 -14.98828125 9.73828125 C-9.1240293 8.80513751 -5.8059523 7.87637638 -2 3 C-1.34 2.01 -0.68 1.02 0 0 Z " fill="#CAAB4F" transform="translate(388,236)"/>
<path d="M0 0 C1.32 0 2.64 0 4 0 C4.99 3.3 5.98 6.6 7 10 C7.66 10 8.32 10 9 10 C9 9.34 9 8.68 9 8 C9.99 7.67 10.98 7.34 12 7 C11.44894091 10.9492568 10.61064629 14.34920174 9 18 C8.01 18 7.02 18 6 18 C4.9936345 15.56495491 3.99473587 13.12729136 3 10.6875 C2.71382812 9.99720703 2.42765625 9.30691406 2.1328125 8.59570312 C0.91089256 5.58454326 0 3.28113016 0 0 Z " fill="#E6E6E6" transform="translate(226,280)"/>
<path d="M0 0 C6.27 0 12.54 0 19 0 C19 0.66 19 1.32 19 2 C16.36 2 13.72 2 11 2 C11 6.62 11 11.24 11 16 C10.01 16 9.02 16 8 16 C7.67 11.71 7.34 7.42 7 3 C4.69 2.67 2.38 2.34 0 2 C0 1.34 0 0.68 0 0 Z " fill="#FDFDFD" transform="translate(182,281)"/>
<path d="M0 0 C4.29 0 8.58 0 13 0 C12.01 0.495 12.01 0.495 11 1 C11 1.99 11 2.98 11 4 C8.41041797 6.93952555 6.74633486 8.75122171 3 10 C2.92652344 9.04287109 2.92652344 9.04287109 2.8515625 8.06640625 C2.77679688 7.24011719 2.70203125 6.41382813 2.625 5.5625 C2.55539062 4.73878906 2.48578125 3.91507813 2.4140625 3.06640625 C2.27742188 2.38449219 2.14078125 1.70257813 2 1 C1.34 0.67 0.68 0.34 0 0 Z " fill="#DBB142" transform="translate(458,178)"/>
<path d="M0 0 C0.99 0 1.98 0 3 0 C3 7.92 3 15.84 3 24 C2.34 24 1.68 24 1 24 C0.93941406 22.89140625 0.87882812 21.7828125 0.81640625 20.640625 C0.73197049 19.1770718 0.64732401 17.71353075 0.5625 16.25 C0.52318359 15.52039063 0.48386719 14.79078125 0.44335938 14.0390625 C0.21667751 9.92984663 0.21667751 9.92984663 -0.54711914 5.89746094 C-1.09063002 3.62028221 -0.70803552 2.20277717 0 0 Z " fill="#B19444" transform="translate(364,152)"/>
<path d="M0 0 C3.3 0 6.6 0 10 0 C10.33 1.65 10.66 3.3 11 5 C7.37 5 3.74 5 0 5 C0 3.35 0 1.7 0 0 Z " fill="#181818" transform="translate(332,283)"/>
<path d="M0 0 C3.96 0 7.92 0 12 0 C12.33 0.99 12.66 1.98 13 3 C12 4 12 4 9.27734375 4.09765625 C7.62412109 4.08025391 7.62412109 4.08025391 5.9375 4.0625 C4.83277344 4.05347656 3.72804688 4.04445313 2.58984375 4.03515625 C1.30787109 4.01775391 1.30787109 4.01775391 0 4 C0 2.68 0 1.36 0 0 Z " fill="#242424" transform="translate(426,283)"/>
<path d="M0 0 C0 0.66 0 1.32 0 2 C-0.99 2.495 -0.99 2.495 -2 3 C-0.35 3.33 1.3 3.66 3 4 C3 4.33 3 4.66 3 5 C-1.95 5 -6.9 5 -12 5 C-12 3.68 -12 2.36 -12 1 C-10.37512529 0.83211627 -8.75009558 0.66573213 -7.125 0.5 C-6.22007812 0.4071875 -5.31515625 0.314375 -4.3828125 0.21875 C-2 0 -2 0 0 0 Z " fill="#B69641" transform="translate(349,175)"/>
<path d="M0 0 C-0.56545837 3.95820859 -1.80902348 6.6659053 -4 10 C-6 9 -6 9 -7.125 5.9375 C-7.41375 4.968125 -7.7025 3.99875 -8 3 C-3.375 0 -3.375 0 0 0 Z " fill="#D3AE49" transform="translate(439,242)"/>
<path d="M0 0 C2.31 0.66 4.62 1.32 7 2 C5 4 5 4 3.08203125 4.265625 C-1.9964947 4.23066097 -6.18778409 3.63820116 -11 2 C-11 1.67 -11 1.34 -11 1 C-7.37 1 -3.74 1 0 1 C0 0.67 0 0.34 0 0 Z " fill="#C6A147" transform="translate(371,246)"/>
<path d="M0 0 C0.99386719 0.00902344 1.98773438 0.01804687 3.01171875 0.02734375 C4.15060547 0.04474609 4.15060547 0.04474609 5.3125 0.0625 C5.3125 1.0525 5.3125 2.0425 5.3125 3.0625 C3.35446493 3.11639087 1.39601091 3.15524217 -0.5625 3.1875 C-1.65304687 3.21070313 -2.74359375 3.23390625 -3.8671875 3.2578125 C-6.6875 3.0625 -6.6875 3.0625 -8.6875 1.0625 C-5.53819107 0.01273036 -3.29935544 -0.03881595 0 0 Z " fill="#0B0B0B" transform="translate(431.6875,290.9375)"/>
<path d="M0 0 C1.98 0 3.96 0 6 0 C6.33 1.65 6.66 3.3 7 5 C6.01 5 5.02 5 4 5 C4.33 6.65 4.66 8.3 5 10 C4.34 10 3.68 10 3 10 C2.92652344 9.04287109 2.92652344 9.04287109 2.8515625 8.06640625 C2.77679688 7.24011719 2.70203125 6.41382813 2.625 5.5625 C2.55539062 4.73878906 2.48578125 3.91507813 2.4140625 3.06640625 C2.27742188 2.38449219 2.14078125 1.70257813 2 1 C1.34 0.67 0.68 0.34 0 0 Z " fill="#E5B63E" transform="translate(458,178)"/>
<path d="M0 0 C0.33 0 0.66 0 1 0 C1 3.96 1 7.92 1 12 C0.01 10.68 -0.98 9.36 -2 8 C-2.33 8.66 -2.66 9.32 -3 10 C-3.66 9.67 -4.32 9.34 -5 9 C-4.01 6.69 -3.02 4.38 -2 2 C-1.34 2 -0.68 2 0 2 C0 1.34 0 0.68 0 0 Z " fill="#D8B041" transform="translate(364,158)"/>
<path d="M0 0 C4.875 4.625 4.875 4.625 6 8 C4.02 8 2.04 8 0 8 C-0.98120464 4.94736336 -0.98120464 3.05263664 0 0 Z " fill="#D8B345" transform="translate(366,240)"/>
<path d="M0 0 C1.11375 0.1546875 1.11375 0.1546875 2.25 0.3125 C2.25 0.9725 2.25 1.6325 2.25 2.3125 C-0.5625 4.5 -0.5625 4.5 -3.75 6.3125 C-4.74 5.9825 -5.73 5.6525 -6.75 5.3125 C-3.42692308 0.38942308 -3.42692308 0.38942308 0 0 Z " fill="#D8D8D8" transform="translate(391.75,279.6875)"/>
<path d="M0 0 C2 3 2 3 1.625 5.1875 C1.41875 5.785625 1.2125 6.38375 1 7 C-3.75 6.125 -3.75 6.125 -6 5 C-6 4.34 -6 3.68 -6 3 C-4.68 3.33 -3.36 3.66 -2 4 C-1.34 2.68 -0.68 1.36 0 0 Z " fill="#DBB244" transform="translate(361,240)"/>
<path d="M0 0 C1.98 0.66 3.96 1.32 6 2 C6 2.99 6 3.98 6 5 C5.01 5.99 4.02 6.98 3 8 C2.01 5.36 1.02 2.72 0 0 Z " fill="#D7AF46" transform="translate(416,211)"/>
<path d="M0 0 C0.66 0.33 1.32 0.66 2 1 C-0.64 3.64 -3.28 6.28 -6 9 C-6 6 -6 6 -3.5625 3.375 C-2.716875 2.59125 -1.87125 1.8075 -1 1 C-0.67 0.67 -0.34 0.34 0 0 Z " fill="#261704" transform="translate(470,180)"/>
<path d="M0 0 C0.625 1.875 0.625 1.875 1 4 C-1.35953094 6.35953094 -2.77895617 6.49141413 -6 7 C-6 6.34 -6 5.68 -6 5 C-4.04072937 3.2856382 -2.04119788 1.61594832 0 0 Z " fill="#C9A746" transform="translate(358,168)"/>
</svg>
