<?xml version="1.0" encoding="UTF-8" standalone="no"?>
<!-- Created with Inkscape (http://www.inkscape.org/) -->
<svg width="121.40158mm" height="106.57771mm" viewBox="0 0 121.40158 106.57771" version="1.1" id="svg1190" inkscape:version="1.2.2 (b0a8486541, 2022-12-01)" sodipodi:docname="Logo of Zhone Technologies, Inc.svg" xmlns:inkscape="http://www.inkscape.org/namespaces/inkscape" xmlns:sodipodi="http://sodipodi.sourceforge.net/DTD/sodipodi-0.dtd" xmlns="http://www.w3.org/2000/svg" xmlns:svg="http://www.w3.org/2000/svg">
  <sodipodi:namedview id="namedview1192" pagecolor="#ffffff" bordercolor="#000000" borderopacity="0.25" inkscape:showpageshadow="2" inkscape:pageopacity="0.0" inkscape:pagecheckerboard="0" inkscape:deskcolor="#d1d1d1" inkscape:document-units="mm" showgrid="false" inkscape:zoom="0.7198092" inkscape:cx="201.44227" inkscape:cy="168.1001" inkscape:window-width="1866" inkscape:window-height="1011" inkscape:window-x="0" inkscape:window-y="0" inkscape:window-maximized="1" inkscape:current-layer="layer1"/>
  <defs id="defs1187"/>
  <g inkscape:label="Layer 1" inkscape:groupmode="layer" id="layer1" transform="translate(-51.685398,-103.98641)">
    <path d="M 65.974691,193.97376 H 54.545406 c -0.154627,0.11395 -1.839943,4.65703 -1.839943,4.65703 l -0.04909,0.14814 0.531901,0.2507 c 0.204066,-0.0438 1.039023,-1.11018 1.039023,-1.11018 l 1.787376,-2.15846 c 0.810212,-0.84764 1.209103,-0.95861 2.368724,-0.95861 0,0 3.639687,0 4.214865,0 -0.374207,0.52243 -10.912864,15.44005 -10.912864,15.44005 h 13.244483 c 0.166987,-0.12097 1.731714,-5.1054 1.731714,-5.1054 l 0.05873,-0.17619 -0.714316,-0.17356 -0.05873,0.13587 c -0.296894,0.7109 -1.218386,1.89873 -1.904879,2.69965 v 0.003 c -1.382279,1.63585 -1.577096,1.78741 -3.720086,1.78741 0,0 -4.289076,0 -4.870433,0 0.371051,-0.52243 10.844833,-15.44005 10.844833,-15.44005 h -0.321613" style="fill:#605d5e;fill-opacity:1;fill-rule:nonzero;stroke:none;stroke-width:3.09234" id="path166"/>
    <path d="m 88.57041,193.97376 v 0.82835 h 0.17005 c 1.2895,0 1.86777,0.16392 1.86777,1.11947 0,0 0,5.27554 0,5.594 -0.32161,0 -7.78341,0 -8.10502,0 0,-0.3182 0,-5.594 0,-5.594 0,-0.96177 0.59686,-1.11947 2.02549,-1.11947 h 0.17321 v -0.82835 h -6.5774 v 0.82835 h 0.17628 c 0.99264,0 1.52761,0.1797 1.52761,1.11947 v 12.36628 c 0,0.94932 -0.53497,1.1256 -1.59874,1.1256 h -0.17005 v 0.82835 h 6.38259 v -0.82835 h -0.17321 c -1.40702,0 -1.76573,-0.12973 -1.76573,-1.1256 0,0 0,-5.48276 0,-5.80438 0.32162,0 7.78342,0 8.10503,0 0,0.3217 0,5.80438 0,5.80438 0,0.96475 -0.57828,1.1256 -1.86778,1.1256 h -0.17005 v 0.82835 h 6.43206 v -0.82835 h -0.16698 c -1.0916,0 -1.56163,-0.10782 -1.56163,-1.1256 v -12.36628 c 0,-0.94626 0.54426,-1.11947 1.60492,-1.11947 h 0.17312 v -0.82835 h -6.48154" style="fill:#605d5e;fill-opacity:1;fill-rule:nonzero;stroke:none;stroke-width:3.09234" id="path168"/>
    <path d="m 113.10502,193.76654 c -2.25432,0 -8.10502,1.54924 -8.10502,8.61219 0,2.83255 1.66986,8.1854 7.9906,8.1854 6.64853,0 8.40498,-5.41158 8.40498,-8.27507 0,-5.85688 -4.29835,-8.52252 -8.29056,-8.52252 z m -0.11439,15.96888 c -3.55619,0 -5.17348,-3.76653 -5.17348,-7.26395 0,-5.43937 2.73981,-7.87614 5.45488,-7.87614 1.72862,0 5.30954,1.877 5.30954,7.67515 0,3.61803 -1.95744,7.46494 -5.59094,7.46494" style="fill:#605d5e;fill-opacity:1;fill-rule:nonzero;stroke:none;stroke-width:3.09234" id="path170"/>
    <path d="m 144.02531,193.97376 v 0.81345 l 0.1484,0.0175 c 1.39156,0.13938 1.88015,0.28138 1.88015,1.30811 0,0 0,9.31099 0,10.12427 -0.55969,-0.62148 -11.12005,-12.20235 -11.12005,-12.20235 l -3.73554,-0.0614 v 0.82572 l 0.16076,0.003 c 0.72054,0.0175 1.2091,0.55049 1.78119,1.16891 l 0.0649,12.25188 c -0.099,0.96791 -0.57827,1.05451 -1.65748,1.1689 l -0.1577,0.009 -0.21958,0.17619 v 0.66181 h 5.11473 v -0.82573 l -0.16077,-0.003 c -1.73171,-0.0526 -1.95126,-0.63113 -1.95126,-1.1256 0,0 0,-10.39645 0,-11.21289 0.56591,0.61886 12.20236,13.29088 12.20236,13.29088 l 0.46388,0.0526 h 0.17628 V 196.079 c 0,-0.59958 0.3309,-1.02357 1.96364,-1.28339 l 0.13911,-0.0263 v -0.80382 h -5.09308" style="fill:#605d5e;fill-opacity:1;fill-rule:nonzero;stroke:none;stroke-width:3.09234" id="path172"/>
    <path d="m 172.41607,205.62256 -0.0684,0.11133 c -0.64323,1.03592 -1.32043,1.88944 -2.07187,2.62234 -0.9277,0.90909 -1.52142,1.05758 -2.55117,1.05758 h -2.5852 c -0.95863,0 -1.41939,-0.14551 -1.41939,-0.95862 0,0 0,-5.62187 0,-5.94655 0.26902,0 1.39465,0 1.39465,0 2.10589,0 3.08307,0.42952 3.31808,2.96245 l 0.0123,0.15165 h 0.69266 v -6.98555 h -0.53804 c -0.6803,2.65013 -1.52143,2.88207 -3.78502,2.90986 0,0 -0.84115,0 -1.09469,0 0,-0.31557 0,-6.42586 0,-6.74441 0.30925,0 3.33045,0 3.33045,0 1.05448,0 2.28833,0.21651 3.53454,1.83071 l 1.02975,1.43486 c 0.18557,0.0789 0.66488,-0.0438 0.66488,-0.0438 l 0.17934,-0.0438 -1.18127,-3.88399 -11.93024,-0.12359 h -0.16698 v 0.82836 h 0.16698 c 1.15345,0 1.69151,0.17005 1.69151,1.11946 v 12.36628 c 0,0.95239 -0.42671,1.1256 -1.62347,1.1256 h -0.17006 v 0.82836 h 12.71879 c 0.17005,-0.13587 1.09468,-4.26433 1.09468,-4.26433 l 0.0281,-0.15779 -0.67101,-0.1981" style="fill:#605d5e;fill-opacity:1;fill-rule:nonzero;stroke:none;stroke-width:3.09234" id="path174"/>
    <path d="m 144.9561,109.55295 c 22.7627,13.61556 -8.71111,39.25098 -21.10212,46.92928 -1.75644,0 -22.44727,0 -22.44727,0 l 44.18332,-38.31095 -3.29953,-0.003 -54.77767,40.4602 h 49.95672 l 0.85352,-0.54084 c 3.2253,-2.0162 6.22796,-4.25504 8.92448,-6.64229 10.86339,-9.61718 15.89153,-20.96295 13.45476,-30.34828 -1.53379,-5.88774 -5.85379,-10.60981 -12.50851,-13.63722 -14.67005,-6.67945 -37.63684,-3.51591 -55.85999,7.6876 l -0.34633,0.21914 c 0,0 34.86612,-16.652259 52.96867,-5.81358" style="fill:#15569c;fill-opacity:1;fill-rule:nonzero;stroke:none;stroke-width:3.09234" id="path176"/>
    <path d="m 80.99727,167.14156 c -22.759609,-13.61871 8.7204,-39.25422 21.10521,-46.93559 1.76263,0 22.45037,0 22.45037,0 l -44.18641,38.30797 3.29643,0.006 54.78386,-40.46011 H 88.49001 l -0.86281,0.54084 c -3.21603,2.02549 -6.21869,4.25513 -8.9214,6.64237 -10.860293,9.62332 -15.891523,20.96296 -13.45476,30.34513 1.533802,5.89396 5.8507,10.60981 12.51778,13.64335 14.66696,6.68261 37.63376,3.51294 55.86,-7.69373 l 0.3494,-0.21651 c 0,0 -34.86612,16.6491 -52.98103,5.8198" style="fill:#15569c;fill-opacity:1;fill-rule:nonzero;stroke:none;stroke-width:3.09234" id="path178"/>
  </g>
<div xmlns="" id="divScriptsUsed" style="display: none"/><script xmlns="" id="globalVarsDetection" src="moz-extension://988954a5-4571-47b7-8811-234b4eee0106/js/wrs_env.js"/></svg>