<svg width="50" height="49" xmlns="http://www.w3.org/2000/svg" xmlns:xlink="http://www.w3.org/1999/xlink" xml:space="preserve" overflow="hidden"><defs><clipPath id="clip0"><rect x="783" y="529" width="50" height="49"/></clipPath></defs><g clip-path="url(#clip0)" transform="translate(-783 -529)"><path d="M26.46 0C23.3713-0.00505974 20.315 0.628892 17.4832 1.862L18.2672 3.6652C20.8497 2.53275 23.6401 1.95196 26.46 1.96 37.826 1.96 47.04 11.174 47.04 22.54 47.04 33.906 37.826 43.12 26.46 43.12 23.2758 43.1294 20.1338 42.3909 17.2872 40.964L16.415 42.728C27.5645 48.2645 41.0912 43.7143 46.6278 32.5648 52.1643 21.4152 47.6141 7.8885 36.4645 2.35198 33.3553 0.80803 29.9315 0.00311444 26.46-1.96e-06Z" fill="#56C0A7" transform="matrix(1.02041 0 0 1 783 529)"/><path d="M8.036 31.6932C6.60368 28.8555 5.8648 25.7186 5.88 22.54 5.87958 19.0144 6.78749 15.5481 8.5162 12.4754L6.8012 11.4954C3.15631 17.9977 2.96187 25.8815 6.2818 32.5556Z" fill="#56C0A7" transform="matrix(1.02041 0 0 1 783 529)"/><path d="M26.46 39.2C35.661 39.2172 43.134 31.7723 43.1512 22.5713 43.1684 13.3702 35.7235 5.89731 26.5225 5.88006 17.3214 5.86281 9.8485 13.3078 9.83126 22.5088 9.82615 25.2314 10.4884 27.9138 11.76 30.3212L1.4308 40.6308C-0.485186 42.5441-0.48738 45.6483 1.4259 47.5643 3.33918 49.4803 6.44341 49.4825 8.3594 47.5692L18.669 37.24C21.0662 38.5217 23.7416 39.1948 26.46 39.2ZM26.46 7.84C34.5786 7.84 41.16 14.4214 41.16 22.54 41.16 30.6586 34.5786 37.24 26.46 37.24 18.3414 37.24 11.76 30.6586 11.76 22.54 11.76 14.4214 18.3414 7.84 26.46 7.84ZM6.9776 46.1776C5.83017 47.3277 3.96763 47.3299 2.8175 46.1825 1.66737 45.0351 1.66517 43.1725 2.8126 42.0224L12.7988 32.0362C13.9258 33.66 15.3328 35.0704 16.954 36.2012Z" fill="#56C0A7" transform="matrix(1.02041 0 0 1 783 529)"/><path d="M18.62 31.36 34.3 31.36C34.8412 31.36 35.28 30.9212 35.28 30.38L35.28 14.7C35.28 14.1588 34.8412 13.72 34.3 13.72L18.62 13.72C18.0788 13.72 17.64 14.1588 17.64 14.7L17.64 30.38C17.64 30.9212 18.0788 31.36 18.62 31.36ZM19.6 15.68 33.32 15.68 33.32 29.4 19.6 29.4Z" fill="#56C0A7" transform="matrix(1.02041 0 0 1 783 529)"/><path d="M30.8602 21.6874 24.0002 17.7674C23.697 17.5923 23.3234 17.5923 23.0202 17.7674 22.7195 17.9456 22.5366 18.2705 22.54 18.62L22.54 26.46C22.54 27.0012 22.9788 27.44 23.52 27.44 23.6917 27.4412 23.8606 27.3973 24.01 27.3126L30.87 23.3926C31.3409 23.1257 31.5063 22.5277 31.2394 22.0568 31.152 21.9025 31.0243 21.7748 30.87 21.6874ZM24.5 24.7744 24.5 20.3056 28.42 22.54Z" fill="#56C0A7" transform="matrix(1.02041 0 0 1 783 529)"/></g></svg>