<svg width="49" height="50" xmlns="http://www.w3.org/2000/svg" xmlns:xlink="http://www.w3.org/1999/xlink" xml:space="preserve" overflow="hidden"><defs><clipPath id="clip0"><rect x="783" y="413" width="49" height="50"/></clipPath></defs><g clip-path="url(#clip0)" transform="translate(-783 -413)"><path d="M26.46 0C23.3713-0.00505974 20.315 0.628892 17.4832 1.862L18.277 3.6652C20.8557 2.53187 23.6432 1.95101 26.46 1.96 37.826 1.97234 47.03 11.1963 47.0177 22.5623 47.0053 33.9283 37.7813 43.1323 26.4153 43.12 23.248 43.1165 20.1242 42.3821 17.2872 40.9738L16.415 42.7182C19.5322 44.2812 22.9729 45.0902 26.46 45.08 38.9085 45.08 49 34.9885 49 22.54 49 10.0915 38.9085 0 26.46 0Z" fill="#56C0A7" transform="matrix(1 0 0 1.02041 783 413)"/><path d="M19.5118 31.36 33.3984 31.36C34.4322 31.3654 35.2746 30.5318 35.28 29.498 35.28 29.4948 35.28 29.4915 35.28 29.4882L35.28 15.5918C35.28 14.558 34.442 13.72 33.4082 13.72 33.405 13.72 33.4017 13.72 33.3984 13.72L19.5118 13.72C18.4803 13.7254 17.6454 14.5603 17.64 15.5918L17.64 29.4882C17.6454 30.5197 18.4803 31.3546 19.5118 31.36ZM19.8352 29.4 25.7152 22.8732 28.42 26.1954C28.6909 26.5171 29.0873 26.7064 29.5078 26.7148L29.5078 26.7148C29.9135 26.7155 30.2995 26.5403 30.5662 26.2346L33.32 23.1868 33.32 29.4ZM33.32 15.68 33.32 20.2664 29.5078 24.5 26.7834 21.1778C26.5172 20.8555 26.1234 20.6657 25.7054 20.6584L25.7054 20.6584C25.2997 20.6577 24.9137 20.8329 24.647 21.1386L19.6 26.7344 19.6 15.68Z" fill="#56C0A7" transform="matrix(1 0 0 1.02041 783 413)"/><path d="M31.3502 18.13C31.3502 18.9419 30.6921 19.6 29.8802 19.6 29.0683 19.6 28.4102 18.9419 28.4102 18.13 28.4102 17.3181 29.0683 16.66 29.8802 16.66 30.6921 16.66 31.3502 17.3181 31.3502 18.13Z" fill="#56C0A7" transform="matrix(1 0 0 1.02041 783 413)"/><path d="M8.036 31.6932C6.60368 28.8555 5.8648 25.7186 5.88 22.54 5.87958 19.0144 6.78749 15.5481 8.5162 12.4754L6.8012 11.4954C3.15631 17.9977 2.96187 25.8815 6.2818 32.5556Z" fill="#56C0A7" transform="matrix(1 0 0 1.02041 783 413)"/><path d="M26.46 39.2C35.661 39.2172 43.134 31.7723 43.1512 22.5713 43.1684 13.3702 35.7235 5.89731 26.5225 5.88006 17.3214 5.86281 9.8485 13.3078 9.83126 22.5088 9.82615 25.2314 10.4884 27.9138 11.76 30.3212L1.4308 40.6308C-0.485186 42.5441-0.48738 45.6483 1.4259 47.5643 3.33918 49.4803 6.44341 49.4825 8.3594 47.5692L18.669 37.24C21.0662 38.5217 23.7416 39.1948 26.46 39.2ZM26.46 7.84C34.5786 7.84 41.16 14.4214 41.16 22.54 41.16 30.6586 34.5786 37.24 26.46 37.24 18.3414 37.24 11.76 30.6586 11.76 22.54 11.76 14.4214 18.3414 7.84 26.46 7.84ZM6.9776 46.1776C5.83017 47.3277 3.96763 47.3299 2.8175 46.1825 1.66737 45.0351 1.66517 43.1725 2.8126 42.0224L12.7988 32.0362C13.9258 33.66 15.3328 35.0704 16.954 36.2012Z" fill="#56C0A7" transform="matrix(1 0 0 1.02041 783 413)"/></g></svg>