<svg width="49" height="49" xmlns="http://www.w3.org/2000/svg" xmlns:xlink="http://www.w3.org/1999/xlink" xml:space="preserve" overflow="hidden"><defs><clipPath id="clip0"><rect x="1041" y="475" width="49" height="49"/></clipPath></defs><g clip-path="url(#clip0)" transform="translate(-1041 -475)"><path d="M1087.9 494.228C1087.9 493.874 1087.71 493.548 1087.4 493.375L1082.5 490.621 1082.5 484.241C1082.5 483.901 1082.32 483.585 1082.03 483.408L1071.58 477.009C1071.27 476.834 1070.9 476.834 1070.6 477.009L1065.5 480.037 1060.43 476.96C1060.13 476.785 1059.76 476.785 1059.45 476.96L1048.92 483.408C1048.63 483.585 1048.45 483.901 1048.45 484.241L1048.45 490.621 1043.6 493.375C1043.29 493.548 1043.1 493.874 1043.1 494.228L1043.1 504.772C1043.1 505.126 1043.29 505.452 1043.6 505.625L1048.45 508.379 1048.45 514.759C1048.45 515.099 1048.63 515.415 1048.92 515.592L1059.41 522.04C1059.57 522.135 1059.74 522.186 1059.92 522.187 1060.1 522.185 1060.28 522.138 1060.43 522.05L1065.5 518.963 1070.57 522.04C1070.72 522.128 1070.9 522.176 1071.08 522.177 1071.26 522.176 1071.43 522.125 1071.59 522.03L1082.08 515.631C1082.37 515.454 1082.55 515.138 1082.55 514.798L1082.55 508.428 1087.45 505.664C1087.76 505.491 1087.95 505.165 1087.95 504.812L1087.95 494.228ZM1064.52 517.267 1059.93 520.011 1050.41 514.2 1050.41 507.81C1050.41 507.459 1050.22 507.134 1049.92 506.958L1048.17 505.978 1053.17 505.978 1053.17 513.387C1053.17 513.928 1053.61 514.367 1054.15 514.367L1057.37 514.367C1057.91 515.724 1059.45 516.386 1060.8 515.844 1062.16 515.303 1062.82 513.764 1062.28 512.407 1061.74 511.049 1060.2 510.388 1058.84 510.929 1058.17 511.198 1057.64 511.732 1057.37 512.407L1055.13 512.407 1055.13 504.998C1055.13 504.457 1054.69 504.018 1054.15 504.018L1045.06 504.018 1045.06 494.796 1049.96 492.042C1050.26 491.866 1050.45 491.541 1050.45 491.19L1050.45 488.838 1051.94 488.838 1051.94 493.943C1050.58 494.485 1049.92 496.024 1050.46 497.381 1051 498.739 1052.54 499.4 1053.9 498.859 1055.25 498.318 1055.92 496.779 1055.37 495.421 1055.11 494.747 1054.57 494.212 1053.9 493.943L1053.9 488.838 1056.47 488.838C1057.02 490.195 1058.55 490.857 1059.91 490.315 1061.27 489.774 1061.93 488.235 1061.39 486.878 1060.85 485.52 1059.31 484.859 1057.95 485.4 1057.28 485.669 1056.74 486.203 1056.47 486.878L1050.41 486.878 1050.41 484.8 1059.93 478.998 1064.52 481.733 1064.52 493.493 1059.01 493.493C1058.47 493.493 1058.03 493.931 1058.03 494.473L1058.03 501.391C1056.67 501.933 1056.01 503.472 1056.55 504.829 1057.1 506.187 1058.64 506.848 1059.99 506.307 1061.35 505.766 1062.01 504.227 1061.47 502.869 1061.2 502.195 1060.67 501.66 1059.99 501.391L1059.99 495.443 1064.52 495.443 1064.52 499.549 1064.52 499.549ZM1059.14 513.347C1059.09 512.971 1059.36 512.63 1059.74 512.584 1060.12 512.539 1060.46 512.808 1060.5 513.184 1060.51 513.238 1060.51 513.293 1060.5 513.347 1060.55 513.724 1060.28 514.065 1059.9 514.11 1059.53 514.156 1059.19 513.887 1059.14 513.511 1059.13 513.457 1059.13 513.402 1059.14 513.347ZM1053.56 496.393C1053.57 496.772 1053.27 497.084 1052.89 497.089 1052.51 497.095 1052.2 496.792 1052.19 496.413 1052.19 496.034 1052.49 495.723 1052.87 495.717 1052.87 495.717 1052.87 495.717 1052.88 495.717 1053.25 495.717 1053.56 496.018 1053.56 496.393ZM1058.21 487.858C1058.16 487.481 1058.43 487.14 1058.81 487.095 1059.18 487.049 1059.53 487.318 1059.57 487.694 1059.58 487.748 1059.58 487.803 1059.57 487.858 1059.62 488.234 1059.35 488.575 1058.97 488.621 1058.6 488.666 1058.25 488.397 1058.21 488.021 1058.2 487.967 1058.2 487.912 1058.21 487.858ZM1059.7 503.841C1059.7 504.22 1059.39 504.527 1059.01 504.527 1058.63 504.527 1058.33 504.22 1058.33 503.841 1058.33 503.463 1058.63 503.155 1059.01 503.155 1059.39 503.155 1059.7 503.463 1059.7 503.841ZM1081.08 506.958C1080.78 507.134 1080.59 507.459 1080.59 507.81L1080.59 514.2 1072.2 519.316 1072.2 512.318 1074.07 512.318C1074.62 513.676 1076.16 514.337 1077.51 513.796 1078.87 513.255 1079.53 511.716 1078.99 510.358 1078.45 509.001 1076.91 508.339 1075.55 508.881 1074.88 509.15 1074.34 509.684 1074.07 510.358L1071.22 510.358C1070.68 510.358 1070.24 510.797 1070.24 511.338L1070.24 519.521 1066.48 517.267 1066.48 499.549 1066.48 499.549 1066.48 491.18 1069.49 491.18 1069.49 493.434C1068.13 493.975 1067.47 495.514 1068.01 496.872 1068.55 498.229 1070.09 498.891 1071.45 498.349 1072.81 497.808 1073.47 496.269 1072.93 494.912 1072.66 494.237 1072.12 493.703 1071.45 493.434L1071.45 491.18 1074.55 491.18C1075.09 491.18 1075.53 490.741 1075.53 490.2L1075.53 488.24C1076.88 487.699 1077.54 486.159 1077 484.802 1076.46 483.445 1074.92 482.783 1073.57 483.324 1072.21 483.865 1071.55 485.405 1072.09 486.762 1072.36 487.436 1072.89 487.971 1073.57 488.24L1073.57 489.22 1066.48 489.22 1066.48 481.733 1071.07 478.989 1080.59 484.8 1080.59 491.199C1080.59 491.551 1080.78 491.876 1081.08 492.052L1085.98 494.806 1085.98 498.108 1076.57 498.108C1076.03 498.108 1075.59 498.547 1075.59 499.088L1075.59 503.988 1073.18 503.988C1072.79 502.98 1071.82 502.317 1070.73 502.322 1069.27 502.318 1068.08 503.499 1068.08 504.961 1068.08 506.422 1069.26 507.61 1070.72 507.614 1071.8 507.618 1072.78 506.957 1073.18 505.948L1076.53 505.948C1077.08 505.948 1077.51 505.51 1077.51 504.968L1077.51 500.068 1085.94 500.068 1085.94 504.204ZM1075.84 511.338C1075.84 510.96 1076.15 510.652 1076.53 510.652 1076.9 510.652 1077.21 510.96 1077.21 511.338 1077.21 511.717 1076.9 512.024 1076.53 512.024 1076.15 512.024 1075.84 511.717 1075.84 511.338ZM1071.15 495.894C1071.15 496.272 1070.85 496.58 1070.47 496.58 1070.09 496.58 1069.78 496.272 1069.78 495.894 1069.78 495.515 1070.09 495.208 1070.47 495.208 1070.85 495.208 1071.15 495.515 1071.15 495.894ZM1073.86 485.78C1073.86 485.401 1074.17 485.094 1074.55 485.094 1074.92 485.094 1075.23 485.401 1075.23 485.78 1075.23 486.159 1074.92 486.466 1074.55 486.466 1074.17 486.466 1073.86 486.159 1073.86 485.78ZM1071.38 504.998C1071.38 505.377 1071.07 505.684 1070.69 505.684 1070.32 505.684 1070.01 505.377 1070.01 504.998 1070.01 504.619 1070.32 504.312 1070.69 504.312 1071.07 504.312 1071.38 504.619 1071.38 504.998Z" fill="#56C0A7"/><path d="M1170.94 327.275 1170.94 398.442 1019.01 398.442 1019.01 534.182 1316.81 534.182 1316.81 329.803 1170.94 327.275Z" stroke="#1C7B68" stroke-width="0.98" stroke-miterlimit="10" fill="none"/></g></svg>