<svg width="49" height="49" xmlns="http://www.w3.org/2000/svg" xmlns:xlink="http://www.w3.org/1999/xlink" xml:space="preserve" overflow="hidden"><defs><clipPath id="clip0"><rect x="1041" y="394" width="49" height="49"/></clipPath></defs><g clip-path="url(#clip0)" transform="translate(-1041 -394)"><path d="M1049.57 396.264 1049.57 401.575 1046.47 401.575 1046.47 403.535 1049.57 403.535 1049.57 406.897 1046.47 406.897 1046.47 408.857 1049.57 408.857 1049.57 412.208 1046.47 412.208 1046.47 414.168 1049.57 414.168 1049.57 417.52 1046.47 417.52 1046.47 419.48 1049.57 419.48 1049.57 422.832 1046.47 422.832 1046.47 424.792 1049.57 424.792 1049.57 428.143 1046.47 428.143 1046.47 430.103 1049.57 430.103 1049.57 433.465 1046.47 433.465 1046.47 435.425 1049.57 435.425 1049.57 440.736 1085.51 440.736 1085.51 396.264ZM1083.55 438.776 1051.54 438.776 1051.54 435.425 1054.64 435.425 1054.64 433.465 1051.54 433.465 1051.54 430.103 1054.64 430.103 1054.64 428.143 1051.54 428.143 1051.54 424.792 1054.64 424.792 1054.64 422.832 1051.54 422.832 1051.54 419.48 1054.64 419.48 1054.64 417.52 1051.54 417.52 1051.54 414.168 1054.64 414.168 1054.64 412.208 1051.54 412.208 1051.54 408.857 1054.64 408.857 1054.64 406.897 1051.54 406.897 1051.54 403.535 1054.64 403.535 1054.64 401.575 1051.54 401.575 1051.54 398.224 1083.55 398.224Z" fill="#56C0A7"/><path d="M1058.58 408.014 1078.38 408.014 1078.38 409.974 1058.58 409.974Z" fill="#56C0A7"/><path d="M1058.58 420.881 1068.48 420.881 1068.48 422.841 1058.58 422.841Z" fill="#56C0A7"/><path d="M1058.58 401.575 1078.38 401.575 1078.38 403.535 1058.58 403.535Z" fill="#56C0A7"/><path d="M1058.58 414.453 1078.38 414.453 1078.38 416.413 1058.58 416.413Z" fill="#56C0A7"/><path d="M1033.74 314.875 1033.74 386.042 881.809 386.042 881.809 521.782 1179.61 521.782 1179.61 317.403 1033.74 314.875Z" stroke="#1C7B68" stroke-width="0.98" stroke-miterlimit="10" fill="none"/></g></svg>