<svg width="49" height="49" xmlns="http://www.w3.org/2000/svg" xmlns:xlink="http://www.w3.org/1999/xlink" xml:space="preserve" overflow="hidden"><defs><clipPath id="clip0"><rect x="1046" y="554" width="49" height="49"/></clipPath></defs><g clip-path="url(#clip0)" transform="translate(-1046 -554)"><path d="M1052.34 589.829 1073.31 589.829 1073.31 591.789 1052.34 591.789Z" fill="#56C0A7"/><path d="M1052.34 584.008 1073.31 584.008 1073.31 585.968 1052.34 585.968Z" fill="#56C0A7"/><path d="M1092.66 584.929 1085.12 577.393C1087.81 572.689 1087.01 566.764 1083.16 562.947 1078.49 558.253 1070.89 558.238 1066.2 562.912 1063.69 565.41 1062.41 568.887 1062.71 572.414L1047.41 572.414 1047.41 597.571 1078.24 597.571 1078.24 582.92C1079.07 582.659 1079.88 582.311 1080.63 581.881L1088.14 589.417C1089.38 590.656 1091.39 590.656 1092.63 589.417 1093.88 588.193 1093.89 586.188 1092.67 584.941 1092.67 584.937 1092.66 584.933 1092.66 584.929ZM1067.56 564.339C1071.49 560.416 1077.86 560.422 1081.78 564.352 1085.15 567.726 1085.68 572.999 1083.06 576.981L1083.06 576.981C1082.7 577.527 1082.29 578.036 1081.83 578.5L1081.83 578.5C1081.59 578.741 1081.34 578.967 1081.07 579.176 1080.94 579.294 1080.78 579.402 1080.63 579.509 1079.55 580.296 1078.32 580.859 1077.02 581.166 1076.22 581.35 1075.4 581.439 1074.58 581.43L1074.26 581.43C1073.99 581.43 1073.72 581.43 1073.46 581.362L1073 581.293 1072.33 581.156C1072.19 581.156 1072.03 581.087 1071.88 581.038 1071.55 580.943 1071.22 580.828 1070.9 580.695L1070.48 580.499C1070.27 580.401 1070.06 580.303 1069.85 580.186L1069.45 579.95 1068.82 579.529 1068.5 579.284C1068.19 579.045 1067.9 578.786 1067.62 578.51 1067.4 578.293 1067.19 578.064 1067 577.824L1066.82 577.608C1066.69 577.432 1066.56 577.255 1066.44 577.079 1066.38 577.001 1066.33 576.919 1066.28 576.834 1066.14 576.628 1066.01 576.413 1065.89 576.197 1065.86 576.15 1065.84 576.101 1065.82 576.05 1065.68 575.795 1065.57 575.54 1065.46 575.286 1065.41 575.178 1065.37 575.06 1065.33 574.943 1065.28 574.825 1065.21 574.629 1065.16 574.462L1065.04 574.07C1065.04 573.923 1064.96 573.767 1064.93 573.61 1064.9 573.453 1064.86 573.345 1064.85 573.218 1064.25 569.993 1065.26 566.68 1067.56 564.339ZM1076.28 583.4 1076.28 595.611 1049.37 595.611 1049.37 574.374 1063.09 574.374C1063.1 574.425 1063.12 574.474 1063.14 574.521 1063.26 574.973 1063.4 575.418 1063.56 575.854L1063.56 575.932C1063.74 576.382 1063.95 576.821 1064.19 577.246L1064.38 577.579C1064.51 577.785 1064.63 577.99 1064.77 578.186L1052.34 578.186 1052.34 580.146 1066.41 580.146C1066.67 580.382 1066.91 580.617 1067.18 580.823L1067.57 581.107C1067.78 581.272 1068 581.426 1068.23 581.567L1068.74 581.871 1069.32 582.195 1069.91 582.469 1070.47 582.685 1071.11 582.91 1071.68 583.067 1072.32 583.224 1073.14 583.351 1073.67 583.41C1074.01 583.41 1074.34 583.41 1074.65 583.41L1075.08 583.41C1075.43 583.41 1075.77 583.41 1076.13 583.331ZM1091.28 588.084C1090.8 588.557 1090.04 588.557 1089.56 588.084L1082.26 580.764C1082.54 580.529 1082.81 580.293 1083.06 580.039L1083.16 579.941 1083.16 579.941 1083.16 579.941C1083.45 579.666 1083.7 579.372 1083.96 579.078L1083.96 579.078 1091.28 586.34C1091.74 586.812 1091.74 587.564 1091.28 588.035Z" fill="#56C0A7"/><path d="M1081.04 568.181 1079.65 566.799 1072.47 574.07 1069.67 571.669 1068.39 573.159 1072.58 576.746 1081.04 568.181Z" fill="#56C0A7"/><path d="M1038.74 406.275 1038.74 477.442 886.809 477.442 886.809 613.182 1184.61 613.182 1184.61 408.803 1038.74 406.275Z" stroke="#1C7B68" stroke-width="0.98" stroke-miterlimit="10" fill="none"/></g></svg>