<svg width="49" height="49" xmlns="http://www.w3.org/2000/svg" xmlns:xlink="http://www.w3.org/1999/xlink" xml:space="preserve" overflow="hidden"><defs><clipPath id="clip0"><rect x="788" y="412" width="49" height="49"/></clipPath></defs><g clip-path="url(#clip0)" transform="translate(-788 -412)"><path d="M834.178 456.031 790.078 456.031C789.536 456.031 789.098 455.593 789.098 455.051L789.098 433.491 791.058 433.491 791.058 454.071 833.198 454.071 833.198 425.72 806.404 425.72 806.404 423.76 834.178 423.76C834.719 423.76 835.158 424.199 835.158 424.74L835.158 455.051C835.158 455.593 834.719 456.031 834.178 456.031Z" fill="#527FFF"/><path d="M812.128 444.085C811.899 444.086 811.677 444.006 811.5 443.86L799.672 433.991 800.926 432.482 812.128 441.831 833.55 423.976 834.815 425.485 812.765 443.86C812.584 444.004 812.359 444.084 812.128 444.085Z" fill="#527FFF"/><path d="M815.359 440.642 816.614 439.137 834.802 454.296 833.547 455.801Z" fill="#527FFF"/><path d="M789.458 454.296 807.64 439.131 808.896 440.636 790.713 455.802Z" fill="#527FFF"/><text fill="#527FFF" font-family="Arial,Arial_MSFontService,sans-serif" font-weight="700" font-size="19.6875" transform="matrix(0.98 0 0 0.98 788.862 428)">@</text><path d="M616.5-1172.17 927.16-1172.17 938.273 401.71 778.406 401.71 778.465 472.76 603.76 472.76 616.5-1172.17Z" stroke="#FF9900" stroke-width="2.94" stroke-miterlimit="10" fill="none"/><path d="M778.2 401.22 943.82 401.22 943.82 472.76 778.2 472.76Z" stroke="#527FFF" stroke-width="2.94" stroke-miterlimit="10" fill="none"/></g></svg>